<?xml version="1.0" encoding="UTF-8" standalone="no"?>
<svg
   xmlns:dc="http://purl.org/dc/elements/1.1/"
   xmlns:cc="http://creativecommons.org/ns#"
   xmlns:rdf="http://www.w3.org/1999/02/22-rdf-syntax-ns#"
   xmlns:svg="http://www.w3.org/2000/svg"
   xmlns="http://www.w3.org/2000/svg"
   xmlns:sodipodi="http://sodipodi.sourceforge.net/DTD/sodipodi-0.dtd"
   xmlns:inkscape="http://www.inkscape.org/namespaces/inkscape"
   version="1.1"
   id="图层_1"
   x="0px"
   y="0px"
   width="118.74px"
   height="109.616px"
   viewBox="413.409 80.804 118.74 109.616"
   enable-background="new 413.409 80.804 118.74 109.616"
   xml:space="preserve"
   sodipodi:docname="油罐-04.svg"><metadata
   id="metadata124"><rdf:RDF><cc:Work
       rdf:about=""><dc:format>image/svg+xml</dc:format><dc:type
         rdf:resource="http://purl.org/dc/dcmitype/StillImage" /></cc:Work></rdf:RDF></metadata><defs
   id="defs122" /><sodipodi:namedview
   pagecolor="#ffffff"
   bordercolor="#666666"
   borderopacity="1"
   objecttolerance="10"
   gridtolerance="10"
   guidetolerance="10"
   inkscape:pageopacity="0"
   inkscape:pageshadow="2"
   inkscape:window-width="640"
   inkscape:window-height="480"
   id="namedview120" />
<g
   id="g117">
	<g
   id="g89">
		
			<linearGradient
   id="SVGID_1_"
   gradientUnits="userSpaceOnUse"
   x1="405.3193"
   y1="737.0537"
   x2="523.5596"
   y2="737.0537"
   gradientTransform="matrix(1 0 0 -1 8.3398 875.04)">
			<stop
   offset="0"
   style="stop-color:#999999"
   id="stop2" />
			<stop
   offset="0.5"
   style="stop-color:#F2F2F2"
   id="stop4" />
			<stop
   offset="1"
   style="stop-color:#999999"
   id="stop6" />
		</linearGradient>
		<path
   fill="url(#SVGID_1_)"
   stroke="#231815"
   stroke-width="0.5"
   stroke-miterlimit="10"
   d="M413.659,86.153v98.667    c0,2.762,26.469,5,59.12,5c32.65,0,59.12-2.239,59.12-5V86.153H413.659z"
   id="path9" />
		
			<ellipse
   fill="#CCCCCC"
   stroke="#231815"
   stroke-width="0.5"
   stroke-linecap="round"
   stroke-linejoin="round"
   stroke-miterlimit="10"
   cx="472.779"
   cy="86.153"
   rx="59.12"
   ry="5"
   id="ellipse11" />
		
			<line
   fill="none"
   stroke="#231815"
   stroke-width="0.5"
   stroke-miterlimit="10"
   x1="499.572"
   y1="90.61"
   x2="499.572"
   y2="189.262"
   id="line13" />
		
			<line
   fill="none"
   stroke="#231815"
   stroke-width="0.5"
   stroke-miterlimit="10"
   x1="445.986"
   y1="90.61"
   x2="445.986"
   y2="189.262"
   id="line15" />
		<g
   id="g51">
			<circle
   fill="#AEAEAE"
   stroke="#231815"
   stroke-width="0.5"
   stroke-miterlimit="10"
   cx="495.17"
   cy="94.57"
   r="1.313"
   id="circle17" />
			<circle
   fill="#AEAEAE"
   stroke="#231815"
   stroke-width="0.5"
   stroke-miterlimit="10"
   cx="495.17"
   cy="100.236"
   r="1.313"
   id="circle19" />
			<circle
   fill="#AEAEAE"
   stroke="#231815"
   stroke-width="0.5"
   stroke-miterlimit="10"
   cx="495.17"
   cy="105.903"
   r="1.313"
   id="circle21" />
			<circle
   fill="#AEAEAE"
   stroke="#231815"
   stroke-width="0.5"
   stroke-miterlimit="10"
   cx="495.17"
   cy="111.569"
   r="1.313"
   id="circle23" />
			<circle
   fill="#AEAEAE"
   stroke="#231815"
   stroke-width="0.5"
   stroke-miterlimit="10"
   cx="495.17"
   cy="117.236"
   r="1.313"
   id="circle25" />
			<circle
   fill="#AEAEAE"
   stroke="#231815"
   stroke-width="0.5"
   stroke-miterlimit="10"
   cx="495.17"
   cy="122.902"
   r="1.313"
   id="circle27" />
			<circle
   fill="#AEAEAE"
   stroke="#231815"
   stroke-width="0.5"
   stroke-miterlimit="10"
   cx="495.17"
   cy="128.569"
   r="1.313"
   id="circle29" />
			<circle
   fill="#AEAEAE"
   stroke="#231815"
   stroke-width="0.5"
   stroke-miterlimit="10"
   cx="495.17"
   cy="134.235"
   r="1.313"
   id="circle31" />
			<circle
   fill="#AEAEAE"
   stroke="#231815"
   stroke-width="0.5"
   stroke-miterlimit="10"
   cx="495.17"
   cy="139.902"
   r="1.313"
   id="circle33" />
			<circle
   fill="#AEAEAE"
   stroke="#231815"
   stroke-width="0.5"
   stroke-miterlimit="10"
   cx="495.17"
   cy="145.568"
   r="1.313"
   id="circle35" />
			<circle
   fill="#AEAEAE"
   stroke="#231815"
   stroke-width="0.5"
   stroke-miterlimit="10"
   cx="495.17"
   cy="151.235"
   r="1.313"
   id="circle37" />
			<circle
   fill="#AEAEAE"
   stroke="#231815"
   stroke-width="0.5"
   stroke-miterlimit="10"
   cx="495.17"
   cy="156.901"
   r="1.313"
   id="circle39" />
			<circle
   fill="#AEAEAE"
   stroke="#231815"
   stroke-width="0.5"
   stroke-miterlimit="10"
   cx="495.17"
   cy="162.568"
   r="1.313"
   id="circle41" />
			<circle
   fill="#AEAEAE"
   stroke="#231815"
   stroke-width="0.5"
   stroke-miterlimit="10"
   cx="495.17"
   cy="168.234"
   r="1.313"
   id="circle43" />
			<circle
   fill="#AEAEAE"
   stroke="#231815"
   stroke-width="0.5"
   stroke-miterlimit="10"
   cx="495.17"
   cy="173.901"
   r="1.313"
   id="circle45" />
			<circle
   fill="#AEAEAE"
   stroke="#231815"
   stroke-width="0.5"
   stroke-miterlimit="10"
   cx="495.17"
   cy="179.567"
   r="1.313"
   id="circle47" />
			<circle
   fill="#AEAEAE"
   stroke="#231815"
   stroke-width="0.5"
   stroke-miterlimit="10"
   cx="495.17"
   cy="185.234"
   r="1.313"
   id="circle49" />
		</g>
		<g
   id="g87">
			<circle
   fill="#AEAEAE"
   stroke="#231815"
   stroke-width="0.5"
   stroke-miterlimit="10"
   cx="441.795"
   cy="94.57"
   r="1.313"
   id="circle53" />
			<circle
   fill="#AEAEAE"
   stroke="#231815"
   stroke-width="0.5"
   stroke-miterlimit="10"
   cx="441.795"
   cy="100.236"
   r="1.313"
   id="circle55" />
			<circle
   fill="#AEAEAE"
   stroke="#231815"
   stroke-width="0.5"
   stroke-miterlimit="10"
   cx="441.795"
   cy="105.903"
   r="1.313"
   id="circle57" />
			<circle
   fill="#AEAEAE"
   stroke="#231815"
   stroke-width="0.5"
   stroke-miterlimit="10"
   cx="441.795"
   cy="111.569"
   r="1.313"
   id="circle59" />
			<circle
   fill="#AEAEAE"
   stroke="#231815"
   stroke-width="0.5"
   stroke-miterlimit="10"
   cx="441.795"
   cy="117.236"
   r="1.313"
   id="circle61" />
			<circle
   fill="#AEAEAE"
   stroke="#231815"
   stroke-width="0.5"
   stroke-miterlimit="10"
   cx="441.795"
   cy="122.902"
   r="1.313"
   id="circle63" />
			<circle
   fill="#AEAEAE"
   stroke="#231815"
   stroke-width="0.5"
   stroke-miterlimit="10"
   cx="441.795"
   cy="128.569"
   r="1.313"
   id="circle65" />
			<circle
   fill="#AEAEAE"
   stroke="#231815"
   stroke-width="0.5"
   stroke-miterlimit="10"
   cx="441.795"
   cy="134.235"
   r="1.313"
   id="circle67" />
			<circle
   fill="#AEAEAE"
   stroke="#231815"
   stroke-width="0.5"
   stroke-miterlimit="10"
   cx="441.795"
   cy="139.902"
   r="1.313"
   id="circle69" />
			<circle
   fill="#AEAEAE"
   stroke="#231815"
   stroke-width="0.5"
   stroke-miterlimit="10"
   cx="441.795"
   cy="145.568"
   r="1.313"
   id="circle71" />
			<circle
   fill="#AEAEAE"
   stroke="#231815"
   stroke-width="0.5"
   stroke-miterlimit="10"
   cx="441.795"
   cy="151.235"
   r="1.313"
   id="circle73" />
			<circle
   fill="#AEAEAE"
   stroke="#231815"
   stroke-width="0.5"
   stroke-miterlimit="10"
   cx="441.795"
   cy="156.901"
   r="1.313"
   id="circle75" />
			<circle
   fill="#AEAEAE"
   stroke="#231815"
   stroke-width="0.5"
   stroke-miterlimit="10"
   cx="441.795"
   cy="162.568"
   r="1.313"
   id="circle77" />
			<circle
   fill="#AEAEAE"
   stroke="#231815"
   stroke-width="0.5"
   stroke-miterlimit="10"
   cx="441.795"
   cy="168.234"
   r="1.313"
   id="circle79" />
			<circle
   fill="#AEAEAE"
   stroke="#231815"
   stroke-width="0.5"
   stroke-miterlimit="10"
   cx="441.795"
   cy="173.901"
   r="1.313"
   id="circle81" />
			<circle
   fill="#AEAEAE"
   stroke="#231815"
   stroke-width="0.5"
   stroke-miterlimit="10"
   cx="441.795"
   cy="179.567"
   r="1.313"
   id="circle83" />
			<circle
   fill="#AEAEAE"
   stroke="#231815"
   stroke-width="0.5"
   stroke-miterlimit="10"
   cx="441.795"
   cy="185.234"
   r="1.313"
   id="circle85" />
		</g>
	</g>
	<path
   fill="#FFCC00"
   stroke="#000000"
   stroke-width="0.5"
   stroke-miterlimit="10"
   d="M524.938,189.262V89.236   c0-3.409-2.772-6.182-6.183-6.182s-6.183,2.773-6.183,6.182v0.7l-2,0.062v-0.762c0-4.512,3.671-8.182,8.183-8.182   s8.183,3.67,8.183,8.182v100.026H524.938z"
   id="path91" />
	<path
   fill="#FFCC00"
   stroke="#000000"
   stroke-width="0.5"
   stroke-miterlimit="10"
   d="M513.063,190.17V89.236   c0-3.409-2.772-6.182-6.183-6.182s-6.183,2.773-6.183,6.182v1.374h-2v-1.374c0-4.512,3.671-8.182,8.183-8.182   s8.183,3.67,8.183,8.182V190.17H513.063z"
   id="path93" />
	<g
   id="g115">
		<polygon
   fill="#FFCC00"
   stroke="#000000"
   stroke-width="0.5"
   stroke-miterlimit="10"
   points="525.84,96.576 515.063,97.55     515.063,95.988 525.84,95.013   "
   id="polygon95" />
		<polygon
   fill="#FFCC00"
   stroke="#000000"
   stroke-width="0.5"
   stroke-miterlimit="10"
   points="525.84,105.538 515.063,106.513     515.063,104.95 525.84,103.976   "
   id="polygon97" />
		<polygon
   fill="#FFCC00"
   stroke="#000000"
   stroke-width="0.5"
   stroke-miterlimit="10"
   points="525.84,114.5 515.063,115.475     515.063,113.913 525.84,112.938   "
   id="polygon99" />
		<polygon
   fill="#FFCC00"
   stroke="#000000"
   stroke-width="0.5"
   stroke-miterlimit="10"
   points="525.84,123.463 515.063,124.438     515.063,122.875 525.84,121.9   "
   id="polygon101" />
		<polygon
   fill="#FFCC00"
   stroke="#000000"
   stroke-width="0.5"
   stroke-miterlimit="10"
   points="525.84,132.425 515.063,133.4     515.063,131.837 525.84,130.863   "
   id="polygon103" />
		<polygon
   fill="#FFCC00"
   stroke="#000000"
   stroke-width="0.5"
   stroke-miterlimit="10"
   points="525.84,141.388 515.063,142.362     515.063,140.8 525.84,139.825   "
   id="polygon105" />
		<polygon
   fill="#FFCC00"
   stroke="#000000"
   stroke-width="0.5"
   stroke-miterlimit="10"
   points="525.84,150.35 515.063,151.325     515.063,149.762 525.84,148.788   "
   id="polygon107" />
		<polygon
   fill="#FFCC00"
   stroke="#000000"
   stroke-width="0.5"
   stroke-miterlimit="10"
   points="525.84,159.313 515.063,160.287     515.063,158.725 525.84,157.75   "
   id="polygon109" />
		<polygon
   fill="#FFCC00"
   stroke="#000000"
   stroke-width="0.5"
   stroke-miterlimit="10"
   points="525.84,168.275 515.063,169.25     515.063,167.687 525.84,166.712   "
   id="polygon111" />
		<polygon
   fill="#FFCC00"
   stroke="#000000"
   stroke-width="0.5"
   stroke-miterlimit="10"
   points="525.84,177.237 515.063,178.212     515.063,176.649 525.84,175.675   "
   id="polygon113" />
	</g>
</g>
</svg>
