<?xml version="1.0" encoding="UTF-8" standalone="no"?>
<svg
   xmlns:dc="http://purl.org/dc/elements/1.1/"
   xmlns:cc="http://creativecommons.org/ns#"
   xmlns:rdf="http://www.w3.org/1999/02/22-rdf-syntax-ns#"
   xmlns:svg="http://www.w3.org/2000/svg"
   xmlns="http://www.w3.org/2000/svg"
   xmlns:sodipodi="http://sodipodi.sourceforge.net/DTD/sodipodi-0.dtd"
   xmlns:inkscape="http://www.inkscape.org/namespaces/inkscape"
   version="1.1"
   id="图层_1"
   x="0px"
   y="0px"
   width="103.76px"
   height="124.833px"
   viewBox="418.625 228.528 103.76 124.833"
   enable-background="new 418.625 228.528 103.76 124.833"
   xml:space="preserve"
   sodipodi:docname="油罐-09.svg"><metadata
   id="metadata61"><rdf:RDF><cc:Work
       rdf:about=""><dc:format>image/svg+xml</dc:format><dc:type
         rdf:resource="http://purl.org/dc/dcmitype/StillImage" /></cc:Work></rdf:RDF></metadata><defs
   id="defs59" /><sodipodi:namedview
   pagecolor="#ffffff"
   bordercolor="#666666"
   borderopacity="1"
   objecttolerance="10"
   gridtolerance="10"
   guidetolerance="10"
   inkscape:pageopacity="0"
   inkscape:pageshadow="2"
   inkscape:window-width="640"
   inkscape:window-height="480"
   id="namedview57" />
<g
   id="g54">
	
		<linearGradient
   id="SVGID_1_"
   gradientUnits="userSpaceOnUse"
   x1="410.5352"
   y1="584.0957"
   x2="436.3496"
   y2="584.0957"
   gradientTransform="matrix(1 0 0 -1 8.3398 875.04)">
		<stop
   offset="0"
   style="stop-color:#2D9AFC"
   id="stop2" />
		<stop
   offset="0.2689"
   style="stop-color:#93C8F7"
   id="stop4" />
		<stop
   offset="0.5"
   style="stop-color:#B8D8F5"
   id="stop6" />
		<stop
   offset="0.7358"
   style="stop-color:#93C8F7"
   id="stop8" />
		<stop
   offset="1"
   style="stop-color:#2D9AFC"
   id="stop10" />
	</linearGradient>
	<path
   fill="url(#SVGID_1_)"
   stroke="#231815"
   stroke-width="0.5"
   stroke-miterlimit="10"
   d="M444.689,340.203   c0,7.129-5.779,12.908-12.906,12.908l0,0c-7.129,0-12.908-5.779-12.908-12.908v-98.518c0-7.128,5.779-12.907,12.908-12.907l0,0   c7.127,0,12.906,5.779,12.906,12.907V340.203z"
   id="path13" />
	
		<linearGradient
   id="SVGID_2_"
   gradientUnits="userSpaceOnUse"
   x1="436.3506"
   y1="584.0957"
   x2="462.166"
   y2="584.0957"
   gradientTransform="matrix(1 0 0 -1 8.3398 875.04)">
		<stop
   offset="0"
   style="stop-color:#2D9AFC"
   id="stop15" />
		<stop
   offset="0.2689"
   style="stop-color:#93C8F7"
   id="stop17" />
		<stop
   offset="0.5"
   style="stop-color:#B8D8F5"
   id="stop19" />
		<stop
   offset="0.7358"
   style="stop-color:#93C8F7"
   id="stop21" />
		<stop
   offset="1"
   style="stop-color:#2D9AFC"
   id="stop23" />
	</linearGradient>
	<path
   fill="url(#SVGID_2_)"
   stroke="#231815"
   stroke-width="0.5"
   stroke-miterlimit="10"
   d="M470.506,340.203   c0,7.129-5.779,12.908-12.908,12.908l0,0c-7.129,0-12.907-5.779-12.907-12.908v-98.518c0-7.128,5.778-12.907,12.907-12.907l0,0   c7.129,0,12.908,5.779,12.908,12.907V340.203z"
   id="path26" />
	
		<linearGradient
   id="SVGID_3_"
   gradientUnits="userSpaceOnUse"
   x1="462.166"
   y1="584.0957"
   x2="487.9805"
   y2="584.0957"
   gradientTransform="matrix(1 0 0 -1 8.3398 875.04)">
		<stop
   offset="0"
   style="stop-color:#2D9AFC"
   id="stop28" />
		<stop
   offset="0.2689"
   style="stop-color:#93C8F7"
   id="stop30" />
		<stop
   offset="0.5"
   style="stop-color:#B8D8F5"
   id="stop32" />
		<stop
   offset="0.7358"
   style="stop-color:#93C8F7"
   id="stop34" />
		<stop
   offset="1"
   style="stop-color:#2D9AFC"
   id="stop36" />
	</linearGradient>
	<path
   fill="url(#SVGID_3_)"
   stroke="#231815"
   stroke-width="0.5"
   stroke-miterlimit="10"
   d="M496.32,340.203   c0,7.129-5.779,12.908-12.908,12.908l0,0c-7.129,0-12.906-5.779-12.906-12.908v-98.518c0-7.128,5.777-12.907,12.906-12.907l0,0   c7.129,0,12.908,5.779,12.908,12.907V340.203z"
   id="path39" />
	
		<linearGradient
   id="SVGID_4_"
   gradientUnits="userSpaceOnUse"
   x1="487.9814"
   y1="584.0957"
   x2="513.7949"
   y2="584.0957"
   gradientTransform="matrix(1 0 0 -1 8.3398 875.04)">
		<stop
   offset="0"
   style="stop-color:#2D9AFC"
   id="stop41" />
		<stop
   offset="0.2689"
   style="stop-color:#93C8F7"
   id="stop43" />
		<stop
   offset="0.5"
   style="stop-color:#B8D8F5"
   id="stop45" />
		<stop
   offset="0.7358"
   style="stop-color:#93C8F7"
   id="stop47" />
		<stop
   offset="1"
   style="stop-color:#2D9AFC"
   id="stop49" />
	</linearGradient>
	<path
   fill="url(#SVGID_4_)"
   stroke="#231815"
   stroke-width="0.5"
   stroke-miterlimit="10"
   d="M522.135,340.203   c0,7.129-5.776,12.908-12.906,12.908l0,0c-7.129,0-12.907-5.779-12.907-12.908v-98.518c0-7.128,5.778-12.907,12.907-12.907l0,0   c7.13,0,12.906,5.779,12.906,12.907V340.203z"
   id="path52" />
</g>
</svg>
