<?xml version="1.0" encoding="UTF-8" standalone="no"?>
<svg
   xmlns:dc="http://purl.org/dc/elements/1.1/"
   xmlns:cc="http://creativecommons.org/ns#"
   xmlns:rdf="http://www.w3.org/1999/02/22-rdf-syntax-ns#"
   xmlns:svg="http://www.w3.org/2000/svg"
   xmlns="http://www.w3.org/2000/svg"
   xmlns:sodipodi="http://sodipodi.sourceforge.net/DTD/sodipodi-0.dtd"
   xmlns:inkscape="http://www.inkscape.org/namespaces/inkscape"
   version="1.1"
   id="图层_1"
   x="0px"
   y="0px"
   width="132.055px"
   height="91.95px"
   viewBox="214.337 557.913 132.055 91.95"
   enable-background="new 214.337 557.913 132.055 91.95"
   xml:space="preserve"
   sodipodi:docname="材质容器-17.svg"><metadata
   id="metadata37"><rdf:RDF><cc:Work
       rdf:about=""><dc:format>image/svg+xml</dc:format><dc:type
         rdf:resource="http://purl.org/dc/dcmitype/StillImage" /></cc:Work></rdf:RDF></metadata><defs
   id="defs35" /><sodipodi:namedview
   pagecolor="#ffffff"
   bordercolor="#666666"
   borderopacity="1"
   objecttolerance="10"
   gridtolerance="10"
   guidetolerance="10"
   inkscape:pageopacity="0"
   inkscape:pageshadow="2"
   inkscape:window-width="640"
   inkscape:window-height="480"
   id="namedview33" />
<g
   id="g30">
	<polygon
   fill="#D3D3D3"
   stroke="#1B1B1B"
   stroke-width="0.5"
   stroke-miterlimit="10"
   points="324.516,649.613 215,649.613    237.762,629.613 345.762,629.613  "
   id="polygon2" />
	
		<rect
   x="244.012"
   y="597.711"
   fill="#F0F0F0"
   stroke="#1B1B1B"
   stroke-width="0.5"
   stroke-miterlimit="10"
   width="7.5"
   height="44.452"
   id="rect4" />
	
		<polygon
   fill="#F0F0F0"
   stroke="#1B1B1B"
   stroke-width="0.5"
   stroke-linecap="round"
   stroke-linejoin="round"
   stroke-miterlimit="10"
   points="   245.429,564.163 238.352,564.163 238.012,562.163 244.012,558.163  "
   id="polygon6" />
	<g
   id="g14">
		
			<path
   fill="#B2B2B2"
   stroke="#1B1B1B"
   stroke-width="0.5"
   stroke-linecap="round"
   stroke-linejoin="round"
   stroke-miterlimit="10"
   d="    M303.512,638.163h-46l-13.16-78l-0.34-2h92l9.75,9.75l-24.609,32.25l-0.04,0.21c3.37,4,5.399,9.16,5.399,14.79    c0,0.37-0.01,0.729-0.029,1.09c0,0.15-0.011,0.3-0.021,0.45c-0.021,0.33-0.05,0.67-0.09,1c-0.04,0.41-0.102,0.83-0.17,1.229    c-0.051,0.312-0.11,0.61-0.171,0.91c-0.011,0.07-0.021,0.13-0.039,0.19c-0.03,0.16-0.07,0.32-0.11,0.479    c-0.05,0.21-0.101,0.41-0.149,0.61c-0.04,0.16-0.091,0.31-0.131,0.46c-0.09,0.311-0.188,0.62-0.29,0.93    c-0.119,0.36-0.25,0.71-0.39,1.052c-0.03,0.09-0.07,0.18-0.101,0.26c-0.13,0.319-0.261,0.63-0.409,0.938    c-0.16,0.37-0.341,0.73-0.53,1.08c-0.18,0.36-0.38,0.71-0.59,1.052c-0.4,0.688-0.851,1.35-1.33,1.988    c-0.229,0.32-0.47,0.63-0.729,0.932c-0.011,0-0.011,0-0.011,0.01c-0.51,0.62-1.05,1.21-1.62,1.75    c-0.279,0.29-0.569,0.56-0.869,0.81c-1.421,1.271-3,2.352-4.711,3.23"
   id="path8" />
		<g
   id="g12">
			
				<polygon
   fill="#1B1B1B"
   stroke="#1B1B1B"
   stroke-width="0.5"
   stroke-linecap="round"
   stroke-linejoin="round"
   stroke-miterlimit="10"
   points="     245.026,564.163 336.012,564.163 343.165,571.316 345.762,567.913 336.012,558.163 244.012,558.163 244.352,560.163    "
   id="polygon10" />
		</g>
	</g>
	<g
   id="g28">
		<path
   fill="#F0F0F0"
   stroke="#1B1B1B"
   stroke-width="0.5"
   stroke-miterlimit="10"
   d="M297.512,642.163h-46l-13.16-78l-0.34-2h92    l9.75,9.75l-24.609,32.25l-0.04,0.21c3.37,4,5.399,9.16,5.399,14.79c0,0.37-0.01,0.729-0.029,1.09c0,0.15-0.011,0.3-0.021,0.45    c-0.021,0.33-0.05,0.67-0.09,1c-0.04,0.41-0.102,0.83-0.17,1.229c-0.051,0.312-0.11,0.61-0.171,0.91    c-0.011,0.07-0.021,0.13-0.039,0.19c-0.03,0.16-0.07,0.32-0.11,0.479c-0.05,0.21-0.101,0.41-0.149,0.61    c-0.04,0.16-0.091,0.31-0.131,0.46c-0.09,0.311-0.188,0.62-0.29,0.93c-0.119,0.36-0.25,0.71-0.39,1.052    c-0.03,0.09-0.07,0.18-0.101,0.26c-0.13,0.319-0.261,0.63-0.409,0.938c-0.16,0.37-0.341,0.73-0.53,1.08    c-0.18,0.36-0.38,0.71-0.59,1.052c-0.4,0.688-0.851,1.35-1.33,1.988c-0.229,0.32-0.47,0.63-0.729,0.932    c-0.011,0-0.011,0-0.011,0.01c-0.51,0.62-1.05,1.21-1.62,1.75c-0.279,0.29-0.569,0.56-0.869,0.81c-1.421,1.271-3,2.352-4.711,3.23    "
   id="path16" />
		<path
   fill="#F9F9F9"
   stroke="#1B1B1B"
   stroke-width="0.5"
   stroke-miterlimit="10"
   d="M315.151,604.163l24.609-32.25l-9.75-9.75    h-92l0.338,2h89.662l9.75,9.75l-24.609,32.25l-0.04,0.21c3.37,4,5.399,9.16,5.399,14.79c0,5.84-2.188,11.164-5.777,15.219    c4.767-4.211,7.777-10.359,7.777-17.219c0-5.63-2.029-10.79-5.399-14.79L315.151,604.163z"
   id="path18" />
		<path
   fill="#F0F0F0"
   stroke="#1B1B1B"
   stroke-width="0.5"
   stroke-miterlimit="10"
   d="M297.512,642.163    c3.79,0,7.36-0.92,10.511-2.55"
   id="path20" />
		<circle
   fill="#FFFFFF"
   stroke="#1B1B1B"
   stroke-width="0.5"
   stroke-miterlimit="10"
   cx="296.475"
   cy="621.578"
   r="3.161"
   id="circle22" />
		<polygon
   opacity="0.6"
   fill="#FFFFFF"
   enable-background="new    "
   points="320.692,564.163 250.072,632.783 248.292,622.532     308.362,564.163   "
   id="polygon24" />
		<polygon
   opacity="0.6"
   fill="#FFFFFF"
   enable-background="new    "
   points="301.111,564.163 247.242,616.508 246.353,611.377     294.952,564.163   "
   id="polygon26" />
	</g>
</g>
</svg>
