<?xml version="1.0" encoding="UTF-8" standalone="no"?>
<svg
   xmlns:dc="http://purl.org/dc/elements/1.1/"
   xmlns:cc="http://creativecommons.org/ns#"
   xmlns:rdf="http://www.w3.org/1999/02/22-rdf-syntax-ns#"
   xmlns:svg="http://www.w3.org/2000/svg"
   xmlns="http://www.w3.org/2000/svg"
   xmlns:sodipodi="http://sodipodi.sourceforge.net/DTD/sodipodi-0.dtd"
   xmlns:inkscape="http://www.inkscape.org/namespaces/inkscape"
   version="1.1"
   id="图层_1"
   x="0px"
   y="0px"
   width="97.974px"
   height="112px"
   viewBox="261.878 92.387 97.974 112"
   enable-background="new 261.878 92.387 97.974 112"
   xml:space="preserve"
   sodipodi:docname="材质容器-04.svg"><metadata
   id="metadata31"><rdf:RDF><cc:Work
       rdf:about=""><dc:format>image/svg+xml</dc:format><dc:type
         rdf:resource="http://purl.org/dc/dcmitype/StillImage" /></cc:Work></rdf:RDF></metadata><defs
   id="defs29" /><sodipodi:namedview
   pagecolor="#ffffff"
   bordercolor="#666666"
   borderopacity="1"
   objecttolerance="10"
   gridtolerance="10"
   guidetolerance="10"
   inkscape:pageopacity="0"
   inkscape:pageshadow="2"
   inkscape:window-width="640"
   inkscape:window-height="480"
   id="namedview27" />
<g
   id="g24">
	
		<rect
   x="263.206"
   y="99.257"
   fill="#31D331"
   stroke="#231815"
   stroke-width="0.5"
   stroke-miterlimit="10"
   width="91.146"
   height="7.214"
   id="rect2" />
	<polygon
   fill="#0FC511"
   stroke="#231815"
   stroke-width="0.5"
   stroke-miterlimit="10"
   points="359.603,92.637 359.603,204.137    354.353,204.137 354.353,99.257 314.353,99.257 314.353,204.137 309.103,204.137 309.103,92.637  "
   id="polygon4" />
	<polygon
   fill="#0FC511"
   stroke="#231815"
   stroke-width="0.5"
   stroke-miterlimit="10"
   points="354.353,99.257 351.803,99.257    334.353,123.337 316.893,99.257 314.353,99.257 314.353,103.417 331.572,127.177 314.353,150.937 314.353,158.606 334.353,131.017    354.353,158.617 354.353,150.946 337.132,127.177 354.353,103.406  "
   id="polygon6" />
	
		<rect
   x="314.353"
   y="158.606"
   fill="#0FC511"
   stroke="#231815"
   stroke-width="0.5"
   stroke-miterlimit="10"
   width="40"
   height="5.03"
   id="rect8" />
	
		<rect
   x="314.353"
   y="163.637"
   fill="#108210"
   stroke="#231815"
   stroke-width="0.5"
   stroke-miterlimit="10"
   width="40"
   height="6.667"
   id="rect10" />
	
		<rect
   x="272.54"
   y="100.804"
   fill="#108210"
   stroke="#231815"
   stroke-width="0.5"
   stroke-miterlimit="10"
   width="20"
   height="5.667"
   id="rect12" />
	
		<rect
   x="279.374"
   y="106.471"
   fill="#0FC511"
   stroke="#231815"
   stroke-width="0.5"
   stroke-miterlimit="10"
   width="6.332"
   height="5.667"
   id="rect14" />
	
		<rect
   x="275.624"
   y="112.138"
   fill="#0FC511"
   stroke="#231815"
   stroke-width="0.5"
   stroke-miterlimit="10"
   width="13.832"
   height="5.667"
   id="rect16" />
	
		<rect
   x="281.041"
   y="117.805"
   fill="#0FC511"
   stroke="#231815"
   stroke-width="0.5"
   stroke-miterlimit="10"
   width="2.998"
   height="16.799"
   id="rect18" />
	<polygon
   fill="#231815"
   points="294.124,129.688 294.124,134.554 270.956,134.554 270.956,129.688 267.874,129.688    267.874,136.554 297.206,136.554 297.206,129.688  "
   id="polygon20" />
	<path
   fill="#FFFFFF"
   stroke="#7D7D7D"
   stroke-width="0.5"
   stroke-miterlimit="10"
   d="M290.393,141.868l-0.115-8.897h-2.08   l-0.231,9.234h-13.373l0.194-10.525h-1.04l-2.215,11.467c0,0-7.021,4.769-9.114,22.236c-1.306,10.892,1.271,19.259,18.982,19.259   c19.437,0,20.857-6.631,20.198-17.578C300.564,149.93,290.393,141.868,290.393,141.868z"
   id="path22" />
</g>
</svg>
