<?xml version="1.0" encoding="UTF-8" standalone="no"?>
<svg
   xmlns:dc="http://purl.org/dc/elements/1.1/"
   xmlns:cc="http://creativecommons.org/ns#"
   xmlns:rdf="http://www.w3.org/1999/02/22-rdf-syntax-ns#"
   xmlns:svg="http://www.w3.org/2000/svg"
   xmlns="http://www.w3.org/2000/svg"
   xmlns:sodipodi="http://sodipodi.sourceforge.net/DTD/sodipodi-0.dtd"
   xmlns:inkscape="http://www.inkscape.org/namespaces/inkscape"
   version="1.1"
   id="图层_1"
   x="0px"
   y="0px"
   width="97.975px"
   height="112px"
   viewBox="412.429 92.387 97.975 112"
   enable-background="new 412.429 92.387 97.975 112"
   xml:space="preserve"
   sodipodi:docname="材质容器-05.svg"><metadata
   id="metadata31"><rdf:RDF><cc:Work
       rdf:about=""><dc:format>image/svg+xml</dc:format><dc:type
         rdf:resource="http://purl.org/dc/dcmitype/StillImage" /></cc:Work></rdf:RDF></metadata><defs
   id="defs29" /><sodipodi:namedview
   pagecolor="#ffffff"
   bordercolor="#666666"
   borderopacity="1"
   objecttolerance="10"
   gridtolerance="10"
   guidetolerance="10"
   inkscape:pageopacity="0"
   inkscape:pageshadow="2"
   inkscape:window-width="640"
   inkscape:window-height="480"
   id="namedview27" />
<g
   id="g24">
	
		<rect
   x="413.757"
   y="99.257"
   fill="#81D0D3"
   stroke="#231815"
   stroke-width="0.5"
   stroke-miterlimit="10"
   width="91.146"
   height="7.214"
   id="rect2" />
	<polygon
   fill="#07BCC5"
   stroke="#231815"
   stroke-width="0.5"
   stroke-miterlimit="10"
   points="510.153,92.637 510.153,204.137    504.903,204.137 504.903,99.257 464.903,99.257 464.903,204.137 459.653,204.137 459.653,92.637  "
   id="polygon4" />
	<polygon
   fill="#07BCC5"
   stroke="#231815"
   stroke-width="0.5"
   stroke-miterlimit="10"
   points="504.903,99.257 502.353,99.257    484.903,123.337 467.442,99.257 464.903,99.257 464.903,103.417 482.122,127.177 464.903,150.937 464.903,158.606 484.903,131.017    504.903,158.617 504.903,150.946 487.683,127.177 504.903,103.406  "
   id="polygon6" />
	
		<rect
   x="464.903"
   y="158.606"
   fill="#07BCC5"
   stroke="#231815"
   stroke-width="0.5"
   stroke-miterlimit="10"
   width="40"
   height="5.03"
   id="rect8" />
	
		<rect
   x="464.903"
   y="163.637"
   fill="#2A7F82"
   stroke="#231815"
   stroke-width="0.5"
   stroke-miterlimit="10"
   width="40"
   height="6.667"
   id="rect10" />
	
		<rect
   x="423.091"
   y="100.804"
   fill="#2A7F82"
   stroke="#231815"
   stroke-width="0.5"
   stroke-miterlimit="10"
   width="20"
   height="5.667"
   id="rect12" />
	
		<rect
   x="429.925"
   y="106.471"
   fill="#07BCC5"
   stroke="#231815"
   stroke-width="0.5"
   stroke-miterlimit="10"
   width="6.332"
   height="5.667"
   id="rect14" />
	
		<rect
   x="426.175"
   y="112.138"
   fill="#07BCC5"
   stroke="#231815"
   stroke-width="0.5"
   stroke-miterlimit="10"
   width="13.832"
   height="5.667"
   id="rect16" />
	
		<rect
   x="431.591"
   y="117.805"
   fill="#07BCC5"
   stroke="#231815"
   stroke-width="0.5"
   stroke-miterlimit="10"
   width="2.998"
   height="16.799"
   id="rect18" />
	<polygon
   fill="#231815"
   points="444.675,129.688 444.675,134.554 421.507,134.554 421.507,129.688 418.425,129.688    418.425,136.554 447.757,136.554 447.757,129.688  "
   id="polygon20" />
	<path
   fill="#FFFFFF"
   stroke="#7D7D7D"
   stroke-width="0.5"
   stroke-miterlimit="10"
   d="M440.942,141.868l-0.115-8.897h-2.08   l-0.232,9.234h-13.373l0.195-10.525h-1.041l-2.215,11.467c0,0-7.021,4.769-9.113,22.236c-1.307,10.892,1.271,19.259,18.982,19.259   c19.436,0,20.856-6.631,20.197-17.578C451.116,149.93,440.942,141.868,440.942,141.868z"
   id="path22" />
</g>
</svg>
