<?xml version="1.0" encoding="UTF-8" standalone="no"?>
<svg
   xmlns:dc="http://purl.org/dc/elements/1.1/"
   xmlns:cc="http://creativecommons.org/ns#"
   xmlns:rdf="http://www.w3.org/1999/02/22-rdf-syntax-ns#"
   xmlns:svg="http://www.w3.org/2000/svg"
   xmlns="http://www.w3.org/2000/svg"
   xmlns:sodipodi="http://sodipodi.sourceforge.net/DTD/sodipodi-0.dtd"
   xmlns:inkscape="http://www.inkscape.org/namespaces/inkscape"
   version="1.1"
   id="图层_1"
   x="0px"
   y="0px"
   width="97.975px"
   height="112px"
   viewBox="562.979 92.387 97.975 112"
   enable-background="new 562.979 92.387 97.975 112"
   xml:space="preserve"
   sodipodi:docname="材质容器-06.svg"><metadata
   id="metadata31"><rdf:RDF><cc:Work
       rdf:about=""><dc:format>image/svg+xml</dc:format><dc:type
         rdf:resource="http://purl.org/dc/dcmitype/StillImage" /></cc:Work></rdf:RDF></metadata><defs
   id="defs29" /><sodipodi:namedview
   pagecolor="#ffffff"
   bordercolor="#666666"
   borderopacity="1"
   objecttolerance="10"
   gridtolerance="10"
   guidetolerance="10"
   inkscape:pageopacity="0"
   inkscape:pageshadow="2"
   inkscape:window-width="640"
   inkscape:window-height="480"
   id="namedview27" />
<g
   id="g24">
	
		<rect
   x="564.308"
   y="99.257"
   fill="#B9B9B9"
   stroke="#1B1B1B"
   stroke-width="0.5"
   stroke-miterlimit="10"
   width="91.146"
   height="7.214"
   id="rect2" />
	<polygon
   fill="#878787"
   stroke="#1B1B1B"
   stroke-width="0.5"
   stroke-miterlimit="10"
   points="660.704,92.637 660.704,204.137    655.454,204.137 655.454,99.257 615.454,99.257 615.454,204.137 610.204,204.137 610.204,92.637  "
   id="polygon4" />
	<polygon
   fill="#878787"
   stroke="#1B1B1B"
   stroke-width="0.5"
   stroke-miterlimit="10"
   points="655.454,99.257 652.904,99.257    635.454,123.337 617.994,99.257 615.454,99.257 615.454,103.417 632.674,127.177 615.454,150.937 615.454,158.606 635.454,131.017    655.454,158.617 655.454,150.946 638.233,127.177 655.454,103.406  "
   id="polygon6" />
	
		<rect
   x="615.454"
   y="158.606"
   fill="#878787"
   stroke="#1B1B1B"
   stroke-width="0.5"
   stroke-miterlimit="10"
   width="40"
   height="5.03"
   id="rect8" />
	
		<rect
   x="615.454"
   y="163.637"
   fill="#666666"
   stroke="#1B1B1B"
   stroke-width="0.5"
   stroke-miterlimit="10"
   width="40"
   height="6.667"
   id="rect10" />
	
		<rect
   x="573.642"
   y="100.804"
   fill="#666666"
   stroke="#1B1B1B"
   stroke-width="0.5"
   stroke-miterlimit="10"
   width="20"
   height="5.667"
   id="rect12" />
	
		<rect
   x="580.476"
   y="106.471"
   fill="#878787"
   stroke="#1B1B1B"
   stroke-width="0.5"
   stroke-miterlimit="10"
   width="6.332"
   height="5.667"
   id="rect14" />
	
		<rect
   x="576.726"
   y="112.138"
   fill="#878787"
   stroke="#1B1B1B"
   stroke-width="0.5"
   stroke-miterlimit="10"
   width="13.832"
   height="5.667"
   id="rect16" />
	
		<rect
   x="582.143"
   y="117.805"
   fill="#878787"
   stroke="#1B1B1B"
   stroke-width="0.5"
   stroke-miterlimit="10"
   width="2.998"
   height="16.799"
   id="rect18" />
	<polygon
   fill="#1B1B1B"
   points="595.226,129.688 595.226,134.554 572.058,134.554 572.058,129.688 568.976,129.688    568.976,136.554 598.308,136.554 598.308,129.688  "
   id="polygon20" />
	<path
   fill="#FFFFFF"
   stroke="#7D7D7D"
   stroke-width="0.5"
   stroke-miterlimit="10"
   d="M591.494,141.868l-0.115-8.897h-2.081   l-0.23,9.234h-13.373l0.193-10.525h-1.04l-2.215,11.467c0,0-7.021,4.769-9.114,22.236c-1.306,10.892,1.271,19.259,18.982,19.259   c19.437,0,20.857-6.631,20.198-17.578C601.667,149.93,591.494,141.868,591.494,141.868z"
   id="path22" />
</g>
</svg>
