<?xml version="1.0" encoding="UTF-8" standalone="no"?>
<svg
   xmlns:dc="http://purl.org/dc/elements/1.1/"
   xmlns:cc="http://creativecommons.org/ns#"
   xmlns:rdf="http://www.w3.org/1999/02/22-rdf-syntax-ns#"
   xmlns:svg="http://www.w3.org/2000/svg"
   xmlns="http://www.w3.org/2000/svg"
   xmlns:sodipodi="http://sodipodi.sourceforge.net/DTD/sodipodi-0.dtd"
   xmlns:inkscape="http://www.inkscape.org/namespaces/inkscape"
   version="1.1"
   id="图层_1"
   x="0px"
   y="0px"
   width="100.525px"
   height="65.456px"
   viewBox="461.752 282.205 100.525 65.456"
   enable-background="new 461.752 282.205 100.525 65.456"
   xml:space="preserve"
   sodipodi:docname="材质容器-10.svg"><metadata
   id="metadata37"><rdf:RDF><cc:Work
       rdf:about=""><dc:format>image/svg+xml</dc:format><dc:type
         rdf:resource="http://purl.org/dc/dcmitype/StillImage" /></cc:Work></rdf:RDF></metadata><defs
   id="defs35" /><sodipodi:namedview
   pagecolor="#ffffff"
   bordercolor="#666666"
   borderopacity="1"
   objecttolerance="10"
   gridtolerance="10"
   guidetolerance="10"
   inkscape:pageopacity="0"
   inkscape:pageshadow="2"
   inkscape:window-width="640"
   inkscape:window-height="480"
   id="namedview33" />
<g
   id="g30">
	
		<rect
   x="475.404"
   y="294.433"
   fill="#CCCCCC"
   stroke="#231815"
   stroke-width="0.5"
   stroke-miterlimit="10"
   width="67.333"
   height="52.667"
   id="rect2" />
	
		<rect
   x="478.404"
   y="296.779"
   fill="#CCCCCC"
   stroke="#231815"
   stroke-width="0.5"
   stroke-miterlimit="10"
   width="61.333"
   height="47.974"
   id="rect4" />
	
		<rect
   x="486.91"
   y="303.434"
   fill="#333333"
   stroke="#231815"
   stroke-width="0.5"
   stroke-miterlimit="10"
   width="44.321"
   height="34.666"
   id="rect6" />
	<polygon
   fill="#666666"
   stroke="#231815"
   stroke-width="0.5"
   stroke-miterlimit="10"
   points="515.95,329.605 486.907,329.605    486.906,303.434 531.229,303.434  "
   id="polygon8" />
	<path
   fill="#7F7F7F"
   stroke="#231815"
   stroke-width="0.5"
   stroke-miterlimit="10"
   d="M521.158,325.533H486.91v8.148h34.248   c1.405,0,2.546-1.824,2.546-4.074S522.563,325.533,521.158,325.533z"
   id="path10" />
	<path
   fill="#7F7F7F"
   stroke="#231815"
   stroke-width="0.5"
   stroke-miterlimit="10"
   d="M525.237,312.6H486.91v7.375h38.327   c1.725,0,3.124-1.65,3.124-3.688S526.962,312.6,525.237,312.6z"
   id="path12" />
	
		<rect
   x="486.91"
   y="303.434"
   fill="#CCCCCC"
   stroke="#231815"
   stroke-width="0.5"
   stroke-miterlimit="10"
   width="44.316"
   height="2.998"
   id="rect14" />
	
		<rect
   x="506.396"
   y="339.6"
   fill="#666666"
   stroke="#231815"
   stroke-width="0.5"
   stroke-miterlimit="10"
   width="5.352"
   height="3.25"
   id="rect16" />
	<g
   id="g24">
		<path
   fill="#9B9B9B"
   stroke="#231815"
   stroke-width="0.5"
   stroke-miterlimit="10"
   d="M561.247,313.85h-18.51v-1.25h16.17    C559.837,312.6,560.678,313.079,561.247,313.85z"
   id="path18" />
		<path
   fill="#9B9B9B"
   stroke="#231815"
   stroke-width="0.5"
   stroke-miterlimit="10"
   d="M562.027,316.289    c0,2.029-1.4,3.689-3.12,3.689h-16.17v-4.5h19.21C561.997,315.738,562.027,316.009,562.027,316.289z"
   id="path20" />
		<path
   fill="#CCCCCC"
   stroke="#9B9B9B"
   stroke-width="0.5"
   stroke-miterlimit="10"
   d="M561.947,315.479h-19.21v-1.629h18.51    C561.587,314.309,561.837,314.857,561.947,315.479z"
   id="path22" />
	</g>
	<polygon
   fill="#7F7F7F"
   stroke="#231815"
   stroke-width="0.5"
   stroke-miterlimit="10"
   points="462.404,335.432 475.404,347.1    475.404,294.433 462.404,282.765  "
   id="polygon26" />
	<polygon
   fill="#AFAFAF"
   stroke="#231815"
   stroke-width="0.5"
   stroke-miterlimit="10"
   points="529.737,282.765 462.404,282.765    475.404,294.433 542.737,294.433  "
   id="polygon28" />
</g>
</svg>
