<?xml version="1.0" encoding="UTF-8" standalone="no"?>
<svg
   xmlns:dc="http://purl.org/dc/elements/1.1/"
   xmlns:cc="http://creativecommons.org/ns#"
   xmlns:rdf="http://www.w3.org/1999/02/22-rdf-syntax-ns#"
   xmlns:svg="http://www.w3.org/2000/svg"
   xmlns="http://www.w3.org/2000/svg"
   xmlns:sodipodi="http://sodipodi.sourceforge.net/DTD/sodipodi-0.dtd"
   xmlns:inkscape="http://www.inkscape.org/namespaces/inkscape"
   version="1.1"
   id="图层_1"
   x="0px"
   y="0px"
   width="94.841px"
   height="68.851px"
   viewBox="44.505 100.399 94.841 68.851"
   enable-background="new 44.505 100.399 94.841 68.851"
   xml:space="preserve"
   sodipodi:docname="自然界-01.svg"><metadata
   id="metadata9"><rdf:RDF><cc:Work
       rdf:about=""><dc:format>image/svg+xml</dc:format><dc:type
         rdf:resource="http://purl.org/dc/dcmitype/StillImage" /></cc:Work></rdf:RDF></metadata><defs
   id="defs7" /><sodipodi:namedview
   pagecolor="#ffffff"
   bordercolor="#666666"
   borderopacity="1"
   objecttolerance="10"
   gridtolerance="10"
   guidetolerance="10"
   inkscape:pageopacity="0"
   inkscape:pageshadow="2"
   inkscape:window-width="640"
   inkscape:window-height="480"
   id="namedview5" />
<path
   fill="#D2D2D2"
   stroke="#231815"
   stroke-width="0.5"
   stroke-miterlimit="10"
   d="M139.096,145.301  c0,7.993-3.956,15.067-10.023,19.358c-3.866,2.734-8.581,4.341-13.676,4.341H64.712c-11.021,0-19.957-8.936-19.957-19.957  c0-8.013,4.725-14.922,11.54-18.095c-0.045-0.614-0.064-1.238-0.064-1.861c0-15.706,12.732-28.438,28.438-28.438  c13.196,0,24.292,8.986,27.5,21.174c1.059-0.146,2.136-0.22,3.228-0.22C128.489,121.603,139.096,132.215,139.096,145.301z"
   id="path2" />
</svg>
