<?xml version="1.0" encoding="UTF-8" standalone="no"?>
<svg
   xmlns:dc="http://purl.org/dc/elements/1.1/"
   xmlns:cc="http://creativecommons.org/ns#"
   xmlns:rdf="http://www.w3.org/1999/02/22-rdf-syntax-ns#"
   xmlns:svg="http://www.w3.org/2000/svg"
   xmlns="http://www.w3.org/2000/svg"
   xmlns:sodipodi="http://sodipodi.sourceforge.net/DTD/sodipodi-0.dtd"
   xmlns:inkscape="http://www.inkscape.org/namespaces/inkscape"
   version="1.1"
   id="图层_1"
   x="0px"
   y="0px"
   width="109.252px"
   height="130.112px"
   viewBox="212.136 469.921 109.252 130.112"
   enable-background="new 212.136 469.921 109.252 130.112"
   xml:space="preserve"
   sodipodi:docname="自然界-19.svg"><metadata
   id="metadata39"><rdf:RDF><cc:Work
       rdf:about=""><dc:format>image/svg+xml</dc:format><dc:type
         rdf:resource="http://purl.org/dc/dcmitype/StillImage" /></cc:Work></rdf:RDF></metadata><defs
   id="defs37" /><sodipodi:namedview
   pagecolor="#ffffff"
   bordercolor="#666666"
   borderopacity="1"
   objecttolerance="10"
   gridtolerance="10"
   guidetolerance="10"
   inkscape:pageopacity="0"
   inkscape:pageshadow="2"
   inkscape:window-width="640"
   inkscape:window-height="480"
   id="namedview35" />
<g
   id="g32">
	<path
   fill="#86BE40"
   d="M258.996,497.043c1.094-0.58,1.892,0.016,2.875,0.272c0.126-4.767-6.667-5.518-4.313-10.615   c1.663-0.695,3.7-0.046,4.602,0.814c-0.967-3.102-5.859-4.998-3.738-9.253c1.325-0.516,2.037-0.441,3.45,0   c-1.918-4.179,0.499-8.024,3.995-8.321c3.88-0.329,6.357,3.563,4.92,8.05c0.59,0.569,2.247-0.457,3.163,0.271   c2.608,3.669-2.19,6.364-3.451,8.982c1.075,0.343,2.07-1.349,3.739-0.817c5.297,1.689-4.176,8.235-3.739,10.889   c0.624,0.359,1.714-0.897,2.877-0.272c3.38,3.394-1.771,6.934-3.453,9.798c-1.087,1.854-1.827,4.2-2.299,6.532   c-0.271,1.337,0.722,2.363-1.151,3.54c-2.474-1.462-1.492-3.596-2.013-5.717c-0.974-3.979-3.858-6.329-5.75-9.254   C258.055,500.932,257.59,498.423,258.996,497.043z"
   id="path2" />
	<path
   fill="#86BE40"
   d="M252.382,490.51c-2.715-1.287-6.985-4.555-3.738-8.165c1.916-0.714,4.237,0.024,5.176,1.09   c0.802-0.512,0.78-1.802,2.013-1.905c1.693,0.213,2.366,1.39,2.877,2.722c-4.479,2.567-2.178,9.674,2.012,10.888   c-1.304,0.762-2.636,1.496-3.45,2.724c-3.824-1.011-8.063-1.623-7.478-6.807C250.413,490.662,251.564,489.872,252.382,490.51z"
   id="path4" />
	<path
   fill="#86BE40"
   d="M279.124,483.977c1.85-2.416,6.579-1.771,6.327,1.907c-0.177,2.588-3.677,3.289-5.464,4.355   c0.727,0.191,2.791-0.148,3.451,0.814c0.064,5.053-4.392,5.824-8.626,6.807c0.003-1.64-1.074-2.25-2.589-2.45   c3.119-1.685,6.725-8.71,1.438-10.615C273.816,481.854,278.482,480.669,279.124,483.977z"
   id="path6" />
	<path
   fill="#86BE40"
   d="M261.871,520.179c-4.311-6.807-8.587-13.646-15.24-18.235c5.468,6.618,12.221,14.381,15.24,24.225   c-2.406,1.616-3.476-1.356-6.039-2.723c-2.99-1.591-9.633-2.659-4.025-6.531c-3.032-0.417-9.143-4.255-4.026-6.534   c-4.074-0.334-10.078-3.734-5.463-7.348c-2.547-1.664-8.185-1.881-7.189-5.988c0.691-2.848,6.984-2.465,8.627,0   c2.582-7.226,8.926,0.267,8.34,5.715c0.784-0.89,0.86-2.451,1.438-3.538c1.289-0.539,3.348-0.307,4.025,0.545   c0.779,2.529-0.204,6.727,0.576,9.256C264.754,502.471,264.149,516.658,261.871,520.179z"
   id="path8" />
	<path
   fill="#86BE40"
   d="M286.026,501.942c-6.468,4.311-10.567,10.864-14.09,17.963c-3.203-2.017-3.957-9.847-1.15-12.246   c1.756-0.212,2.513,0.522,3.451,1.087c1.601-2.334-0.535-6.771,1.149-8.708c0.701-0.606,2.053-0.6,3.45-0.546   c0.736,0.845,1.193,1.957,1.438,3.266c-0.021-4.301,6.027-13.522,8.341-5.715c1.285-1.609,5.159-2.689,7.764-1.36   c2.134,4.662-3.592,6.076-6.901,7.35c5.249,2.485,0.179,7.597-4.602,7.076c4.555,2.416-0.334,6.546-4.313,6.531   c1.044,1.299,2.311,1.399,2.3,2.994c-0.016,2.422-3.273,2.541-5.75,3.812c-2.571,1.316-3.945,4.212-6.326,2.723   C273.824,516.159,279.827,508.957,286.026,501.942z"
   id="path10" />
	<path
   fill="#86BE40"
   d="M245.768,519.634c1.529,2.747,3.661,5.671,5.464,8.71c1.583,2.667,4.642,5.932,3.162,8.982   c-1.413-3.038-9.776-2.533-9.776-6.263c0-1.78,1.479-2.532,3.45-2.992c-2.017-1.811-6.112-1.652-8.625-2.994   c-0.425-0.96-0.749-2.014-0.576-3.537c0.634-0.398,1.234-0.827,2.3-0.817c-2.067-1.661-8.644-1.596-8.338-4.898   c0.12-1.313,0.889-2.133,3.163-1.904c-1.896-2.489-7.035-1.272-6.901-5.173c0.155-4.57,8.584-2.984,8.914,1.088   c0.681-0.443,0.612-1.597,1.149-2.175c1.394,1.221,2.801,2.43,5.176,2.72c-1.076,3.807,1.154,6.666,4.89,6.807   c-1.618,3.855,2.035,5.822,5.175,6.805c1.085,3.701,3.872,7.209,4.027,10.887c-0.341-0.313-1.018-0.308-1.726-0.271   C253.723,528.981,250.665,523.437,245.768,519.634z"
   id="path12" />
	<path
   fill="#86BE40"
   d="M286.313,520.179c-2.161,1.73-4.357,4.203-6.326,7.077c-1.77,2.584-2.588,6.745-6.038,7.62   c0.927-4.112,2.765-7.364,4.313-10.887c2.678-0.914,4.978-2.186,6.039-4.629c0.029-0.843-0.13-1.51-0.575-1.904   c2.801-0.751,6.334-3.251,4.313-6.804c1.808-0.921,4.26-1.23,5.177-2.993c0.511,0.513,0.947,1.098,0.862,2.175   c1.099-2.121,5.478-5.612,8.339-3.266c3.535,2.899-3.305,6.163-5.751,7.077c1.327,0.377,2.802,0.614,3.45,1.634   c-0.091,4.179-5.315,3.496-8.626,4.626c2.028,0.836,2.957,3.006,2.013,4.629c-1.392,2.393-8.017,1.195-9.489,3.266   c1.683,0.6,3.377,0.868,3.738,2.177c1.472,5.345-8.3,3.582-9.203,7.351c-0.376-0.096-0.45-0.479-0.862-0.545   C278.016,529.92,283.223,525.332,286.313,520.179z"
   id="path14" />
	<path
   fill="#86BE40"
   d="M272.799,545.491c1.786-1.079,4.724-1.117,5.176,1.089c0.478,2.33-2.446,5.055-4.6,7.349   c-2.436,2.592-4.307,5.036-5.177,6.806c-1.168-8.875-0.02-19.942-1.438-28.578c-1.582,8.3-0.851,18.79-1.438,28.033   c-1.387-0.978-1.497-2.313-2.3-3.537c-2.59-3.952-8.472-6.354-6.901-11.978c1.166-0.491,1.844-0.392,3.162-0.271   c-1.019-1.28-6.571-7.767-2.3-8.981c2.092-0.597,2.565,1.051,4.313,1.36c-3.76-3.505-2.513-13.706,3.163-7.894   c-0.809-4.829-3.827-12.634,4.313-10.888c2.793,2.504,0.398,7.423,0,10.888c0.986-0.184,1.288-1.801,3.164-1.633   c4.717,0.419,1.489,7.823-0.289,10.07c0.941,0.153,2.914-2.496,4.89-1.361C279.692,539.39,274.374,543.041,272.799,545.491z"
   id="path16" />
	<path
   fill="#86BE40"
   d="M232.541,521.812c-0.029-1.114-0.058-2.229,0.287-2.993c1.381-0.07,2.843,1.984,5.176,1.904   c-1.438,4.811,2.55,6.596,7.188,6.533c-0.408,1.247-1.403,1.938-1.438,3.538c-3.259-1.271-5.595-3.414-8.914-4.627   c2.283,2.104,6.244,4.977,8.914,7.621c-0.094,1.271-1.631,1.177-1.727,2.449c-2.025-3.105-7.992-9.75-11.502-4.082   c-1.32-1.109-2.666-2.194-4.601-2.724c0.416-1.603,2.273-1.839,3.738-2.447c-2.888-1.804-7.708-1.777-6.901-7.079   C225.615,516.713,230.872,519.727,232.541,521.812z"
   id="path18" />
	<path
   fill="#86BE40"
   d="M230.24,552.568c-2.341-0.119-7.78,3.606-9.203-0.272c0.243-1.313,1.396-1.765,2.012-2.723   c-2.747,0.279-4.828,2.408-8.05,1.36c-2.76-3.814,1.963-5.848,5.176-6.531c0.808,2.823,4.438,4.464,8.053,2.993   c0.669,3.405,5.836,4.373,8.914,2.449c1.059,3.69,6.229,5.083,10.639,3.268c0.246,2.041-2.287,2.307-3.451,2.993   c-1.981,1.177-3.94,3.547-7.188,3.268c-1.291-0.805-2.101-2.598-1.15-4.084c-1.261,0.563-6.937,4.01-8.053,0.816   C227.404,554.574,228.705,553.152,230.24,552.568z"
   id="path20" />
	<path
   fill="#86BE40"
   d="M319.959,548.213c0.26,1.788-0.333,2.771-1.15,3.539c-3.434,0.347-4.929-1.144-7.477-1.634   c-0.479,0.648,1.605,1.191,1.438,2.45c-1.052,3.354-6.534,1.4-8.628,0.271c-0.199,1.045,1.993,1.484,2.014,2.724   c0.063,4.02-6.95,1.549-8.626-0.273c0.323,0.957,1.021,3.846-0.863,4.628c-4.159,0.472-6.313-3.081-8.914-4.354   c-0.944-0.464-3.629,0.023-2.876-1.905c2.008-0.339,5.883,1.012,8.627-0.545c1.194-0.679,1.871-1.523,2.301-2.994   c3.203,2.009,9.195,1.173,9.489-2.724c2.737,1.032,7.007,0.548,7.479-2.177C315.854,545.565,318.29,546.526,319.959,548.213z"
   id="path22" />
	<path
   fill="#86BE40"
   d="M220.175,553.386c0.908,0.41,1.13,1.471,2.588,1.361c-0.405,0.704-0.973,1.256-1.438,1.904   c4.361,0.139,4.048,7.919-1.15,5.986c-1.357,3.7-8.777,2.754-6.613-2.449c-3.898-2.872,1.084-8.746,4.313-4.627   C218.757,554.945,219.446,554.146,220.175,553.386z"
   id="path24" />
	<path
   fill="#86BE40"
   d="M314.782,555.835c1.531-0.729,3.504-2.053,5.465-0.817c2.381,2.521,0.46,4.245-0.576,5.443   c1.771,5.349-5.152,6.241-6.327,2.723c-5.617,1.52-6.463-5.932-1.438-5.717c-0.315-0.971-1.224-1.382-1.438-2.448   C312.526,554.044,313.686,553.747,314.782,555.835z"
   id="path26" />
	<path
   fill="#86BE40"
   d="M297.817,526.167c-3.067,1.451-6.207,2.837-8.627,4.896c-0.792-1.154-1.172-2.699-2.015-3.809   c4.76,0.153,9.438-2.068,7.765-6.261c1.808-0.648,3.719-1.197,4.889-2.449c0.721,0.678,0.873,1.896,0.862,3.266   c2.394-1.583,4.393-4.555,8.915-3.266c3.693,4.496-2.738,7.361-6.613,8.165c1.069,0.982,3.001,1.151,3.738,2.449   c-1.669,0.871-3.521,1.568-4.603,2.995c-3.35-5.5-9.436,0.521-11.215,3.81C284.734,533.847,296.451,528.407,297.817,526.167z"
   id="path28" />
	<path
   fill="#86BE40"
   d="M317.657,538.143c-0.083-3.394-6.379-2.791-9.488-2.449c0.664-0.912,1.056-2.085,0.863-3.812   c-3.648-2.921-6.215,2.758-7.766,3.539c0.982-1.516,0.489-3.607-0.863-4.355c-6.428-0.005-6.272,6.222-10.926,7.894   c0.191-2.504-0.394-3.76-2.013-4.082c-4.534-0.904-4.941,3.956-6.039,6.805c-0.874,2.266-3.407,3.722-2.589,5.444   c6.052-2.08,12.001-8.055,20.705-7.622c-14.972,4.011-25.582,12.147-32.087,24.171l-1.21,2.579l-1.123-2.579   c-5.758-12.434-16.734-19.926-31.145-24.171c6.641,0.3,11.836,3.105,16.104,5.442c1.419,0.777,2.947,2.071,4.313,1.905   c1.016-1.899-1.914-3.872-2.875-6.531c-1.219-3.378-1.957-6.766-5.464-6.261c-1.782,0.259-2.862,2.288-2.012,4.626   c-4.858-1.567-4.407-8.167-10.928-8.163c-2.149,0.666-1.184,4.494-0.863,5.442c-1.528-3.927-9.474-7.872-8.338-0.271   c-9.566-3.722-9.867,8.612-0.865,5.987c-0.658,0.943-1.643,1.816-1.437,2.994c0.782,4.458,8.134,0.451,10.353-0.815   c-0.942,1.424-3.071,1.899-2.301,4.354c1.437,4.571,8.468-1.336,11.215-1.633c-1.352,0.836-2.282,3.117-1.437,5.172   c2.735,2.804,9.488-1.14,12.652,1.36c-7.139,4.678,3.534,7.329,8.371,10.562c0.722,1.664,0.612,4.037,0.225,4.954   c-3.125-3.469-4.855-7.839-13.054-8.023c-2.381,0.43-3.002,1.997-3.916,3.379c-3.36-2.885-9.647-6.979-16.973-4.646   c-0.297,1.438-2.398,3.206-0.651,4.646c-3.567,1.635-8.587,2.328-7.834,6.758c15.841-8.308,39.907,0.889,42.892,10.561v18.73h10.46   v-18.516c3.507-7.038,16.977-14.344,30.2-13.312c5.931,0.465,9.065,4.049,14.359,4.226c0.715-5.109-4.504-6.379-9.139-8.025   c1.083-1.407,0.153-2.902-0.653-4.225c-7.182-2.428-12.111,2.488-16.317,4.646c-4.336-7.628-16.319,0.106-18.277,4.225   c0.661-1.464-0.151-3.824,0.136-5.377c4.729-3.731,17.919-6.346,8.927-11.104c3.392-1.931,12.278,2.161,13.517-1.634   c0.627-1.923-1.268-3.108-1.438-4.084c2.375,0.475,3.362,2.262,5.176,3.268c5.365,1.488,6.117-3.243,4.7-5.507   c-0.272-0.247-0.505-0.501-0.675-0.753c0.26,0.191,0.485,0.453,0.675,0.753c2.487,2.265,8.663,4.093,8.527-0.479   c-0.035-1.143-1.34-1.817-1.438-2.451C313.629,541.722,317.721,540.709,317.657,538.143z"
   id="path30" />
</g>
</svg>
