<?xml version="1.0" encoding="UTF-8" standalone="no"?>
<svg
   xmlns:dc="http://purl.org/dc/elements/1.1/"
   xmlns:cc="http://creativecommons.org/ns#"
   xmlns:rdf="http://www.w3.org/1999/02/22-rdf-syntax-ns#"
   xmlns:svg="http://www.w3.org/2000/svg"
   xmlns="http://www.w3.org/2000/svg"
   xmlns:sodipodi="http://sodipodi.sourceforge.net/DTD/sodipodi-0.dtd"
   xmlns:inkscape="http://www.inkscape.org/namespaces/inkscape"
   version="1.1"
   id="图层_1"
   x="0px"
   y="0px"
   width="132.159px"
   height="56.855px"
   viewBox="169.178 112.395 132.159 56.855"
   enable-background="new 169.178 112.395 132.159 56.855"
   xml:space="preserve"
   sodipodi:docname="自然界-02.svg"><metadata
   id="metadata9"><rdf:RDF><cc:Work
       rdf:about=""><dc:format>image/svg+xml</dc:format><dc:type
         rdf:resource="http://purl.org/dc/dcmitype/StillImage" /></cc:Work></rdf:RDF></metadata><defs
   id="defs7" /><sodipodi:namedview
   pagecolor="#ffffff"
   bordercolor="#666666"
   borderopacity="1"
   objecttolerance="10"
   gridtolerance="10"
   guidetolerance="10"
   inkscape:pageopacity="0"
   inkscape:pageshadow="2"
   inkscape:window-width="640"
   inkscape:window-height="480"
   id="namedview5" />
<path
   fill="#D2D2D2"
   stroke="#231815"
   stroke-width="0.5"
   stroke-miterlimit="10"
   d="M272.474,138.743  c-0.527,0-1.051,0.007-1.572,0.02c0.09-0.516,0.143-1.042,0.143-1.575c0-6.777-7.434-12.271-16.604-12.271  c-1.398,0-2.756,0.129-4.055,0.37c0.006-0.124,0.014-0.246,0.014-0.371c0-6.777-7.434-12.271-16.602-12.271  c-4.555,0-8.678,1.356-11.678,3.55c-1.504-0.5-3.168-0.784-4.926-0.784c-6.064,0-11.068,3.318-11.904,7.629  c-4.568-2.911-9.873-3.982-14.391-2.444c-7.764,2.645-10.264,11.984-5.584,20.86c0.559,1.06,1.197,2.064,1.896,3.008  c-9.857,0.147-17.783,5.579-17.783,12.264c0,6.777,8.145,12.272,18.191,12.272c4.756,0,9.084-1.232,12.326-3.249  c2.652,4.373,19.422,2.654,25.881,2.579c3.268-0.038,16.867-1.934,24.572-1.934c7.387,0,14.119-1.201,19.197-3.172  c0.945,0.041,1.906,0.062,2.877,0.062c15.805,0,28.615-5.495,28.615-12.272C301.089,144.237,288.278,138.743,272.474,138.743z"
   id="path2" />
</svg>
