<?xml version="1.0" encoding="UTF-8" standalone="no"?>
<svg
   xmlns:dc="http://purl.org/dc/elements/1.1/"
   xmlns:cc="http://creativecommons.org/ns#"
   xmlns:rdf="http://www.w3.org/1999/02/22-rdf-syntax-ns#"
   xmlns:svg="http://www.w3.org/2000/svg"
   xmlns="http://www.w3.org/2000/svg"
   xmlns:sodipodi="http://sodipodi.sourceforge.net/DTD/sodipodi-0.dtd"
   xmlns:inkscape="http://www.inkscape.org/namespaces/inkscape"
   version="1.1"
   id="图层_1"
   x="0px"
   y="0px"
   width="69.096px"
   height="81.035px"
   viewBox="31.939 615.802 69.096 81.035"
   enable-background="new 31.939 615.802 69.096 81.035"
   xml:space="preserve"
   sodipodi:docname="自然界-22.svg"><metadata
   id="metadata15"><rdf:RDF><cc:Work
       rdf:about=""><dc:format>image/svg+xml</dc:format><dc:type
         rdf:resource="http://purl.org/dc/dcmitype/StillImage" /></cc:Work></rdf:RDF></metadata><defs
   id="defs13" /><sodipodi:namedview
   pagecolor="#ffffff"
   bordercolor="#666666"
   borderopacity="1"
   objecttolerance="10"
   gridtolerance="10"
   guidetolerance="10"
   inkscape:pageopacity="0"
   inkscape:pageshadow="2"
   inkscape:window-width="640"
   inkscape:window-height="480"
   id="namedview11" />
<g
   id="g8">
	<path
   fill="#788500"
   d="M97.83,639.712c-3.478-4.865-7.088-6.371-12.482-5.689c-3.782,0.479-7.786,2.508-9.911,6.342   c1.866,0.486,3.638,1.217,5.144,2.266c5.713,3.973,8.853,9.725,8.853,15.906c0,1.342-0.148,2.703-0.45,4.072   c-1.088,4.939-3.139,8.963-6.525,12.477c7.623,0.783,12.845,2.883,17.09,5.748c-2.932-6.127-0.844-11.9,0.227-18.229   C101.418,652.884,102.067,645.634,97.83,639.712z"
   id="path2" />
	<path
   fill="#788500"
   d="M69.576,630.89c-0.082-3.021,0.454-6.043,1.743-8.146c-0.665-0.043-1.403,0.32-1.94,0.727   c-2.68,2.029-1.815,9.209-0.998,12.164c0.129,0.463,1.487,3.986,1.811,3.996c0.549,0.018,1.096,0.051,1.646,0.104   c-0.723-1.404-1.368-3.016-1.729-4.578C69.799,633.802,69.615,632.345,69.576,630.89z"
   id="path4" />
	<path
   fill="#91C900"
   d="M86.883,662.146c1.518-6.891-1.305-13.422-7.531-17.75c-3.972-2.764-10.558-3.32-15.218-2.031   c1.462-2.939,2.63-6.156,2.606-11.615c-0.022-4.734-1.072-8.508-2.817-12.332c-0.635-1.385-1.28-2.068-2.732-2.338   c-0.839-0.158-1.835-0.449-2.621-0.143c3.489,3.043,5.743,9.146,6.165,14.541c0.336,4.311-0.777,9.387-1.958,11.439   c-3.89-6.428-11.034-8.092-16.886-7.035c-6.778,1.225-10.566,4.412-12.929,11.607c-2.876,8.76,0.657,17.281,6.327,28.398   c3.692,7.244,8.405,13.432,7.182,21.949c4.112-5.158,9.721-9.742,18.9-13.617C79.83,677.113,84.949,670.914,86.883,662.146z    M53.182,667.628c-3.253,11.225-2.419,20.332-5.66,26.803c2.003-6.201-0.189-15.076,3.045-27.018   c3.235-11.939,7.93-18.328,12.767-25.104C59.821,650.416,56.436,656.408,53.182,667.628z"
   id="path6" />
</g>
</svg>
