<?xml version="1.0" encoding="UTF-8" standalone="no"?>
<svg
   xmlns:dc="http://purl.org/dc/elements/1.1/"
   xmlns:cc="http://creativecommons.org/ns#"
   xmlns:rdf="http://www.w3.org/1999/02/22-rdf-syntax-ns#"
   xmlns:svg="http://www.w3.org/2000/svg"
   xmlns="http://www.w3.org/2000/svg"
   xmlns:sodipodi="http://sodipodi.sourceforge.net/DTD/sodipodi-0.dtd"
   xmlns:inkscape="http://www.inkscape.org/namespaces/inkscape"
   version="1.1"
   id="图层_1"
   x="0px"
   y="0px"
   width="81.255px"
   height="81.404px"
   viewBox="470.73 616.529 81.255 81.404"
   enable-background="new 470.73 616.529 81.255 81.404"
   xml:space="preserve"
   sodipodi:docname="自然界-26.svg"><metadata
   id="metadata13"><rdf:RDF><cc:Work
       rdf:about=""><dc:format>image/svg+xml</dc:format><dc:type
         rdf:resource="http://purl.org/dc/dcmitype/StillImage" /></cc:Work></rdf:RDF></metadata><defs
   id="defs11" /><sodipodi:namedview
   pagecolor="#ffffff"
   bordercolor="#666666"
   borderopacity="1"
   objecttolerance="10"
   gridtolerance="10"
   guidetolerance="10"
   inkscape:pageopacity="0"
   inkscape:pageshadow="2"
   inkscape:window-width="640"
   inkscape:window-height="480"
   id="namedview9" />
<g
   id="g6">
	<path
   fill="#91C900"
   d="M526.068,667.896c2.369-6.871,0.078-13.736-5.783-18.906c-3.74-3.303-10.262-5.506-15.188-4.742   c1.849-2.836,3.425-5.988,4.045-11.584c0.537-4.848-0.09-8.838-1.426-12.957c-0.481-1.496-1.063-2.27-2.52-2.721   c-0.838-0.26-1.748-0.482-2.666-0.455c3.213,3.527,4.797,10.045,4.59,15.619c-0.166,4.451-1.906,9.52-3.361,11.482   c-3.219-7.045-10.338-9.592-16.453-9.205c-7.088,0.449-11.346,3.268-14.612,10.354c-3.984,8.631-1.377,17.773,3.114,29.83   c2.923,7.854,7.013,14.746,4.752,23.322c4.822-4.793,11.107-8.822,20.964-11.701C517.055,681.685,523.051,676.646,526.068,667.896z    M490.893,668.82c-4.659,11.107-4.887,20.531-8.971,26.771c2.785-6.109,1.592-15.459,6.316-27.301   c4.727-11.846,10.295-17.828,16.047-24.193C499.729,651.982,495.551,657.716,490.893,668.82z"
   id="path2" />
	<path
   fill="#788500"
   d="M508.32,624.216c0.494,1.986,1.311,4.432,2.309,6.215c1.35,2.414,2.678,4.027,4.021,5.266   c1.063,1.105,2.071,1.781,2.555,2.119c-6.104,0.605-9.754,5.318-11.127,9.979c-1.295,4.408-0.459,9.348,4.018,13.621   c5.455,5.199,12.979,5.59,23.177,5.316c6.639-0.178,12.858-1.479,18.713,2.418c-2.359-4.846-3.769-10.596-3.4-18.727   c0.58-12.813-1.662-18.604-7.449-23.117c-4.549-3.541-10.287-3.58-15.67-0.514c-3.436,1.959-6.762,6.285-7.453,10.176   c-0.088-0.115-1.073-0.992-1.489-1.307c-1.57-1.447-3.445-3.813-4.57-6.227c-0.814-1.746-1.367-3.572-1.73-5.461   c-0.438-2.268-1.071-5.252-3.561-6.586c-0.891-0.477-1.441-0.557-2.229-0.625C507.121,619.671,507.975,622.83,508.32,624.216z    M532.799,653.931c7.135,6.346,14.146,8.936,17.779,13.598c-3.871-3.656-11.188-5.16-18.857-11.744   c-7.67-6.586-10.729-12.293-14.028-18.244C522.438,642.98,525.666,647.585,532.799,653.931z"
   id="path4" />
</g>
</svg>
