<?xml version="1.0" encoding="UTF-8" standalone="no"?>
<svg
   xmlns:dc="http://purl.org/dc/elements/1.1/"
   xmlns:cc="http://creativecommons.org/ns#"
   xmlns:rdf="http://www.w3.org/1999/02/22-rdf-syntax-ns#"
   xmlns:svg="http://www.w3.org/2000/svg"
   xmlns="http://www.w3.org/2000/svg"
   xmlns:sodipodi="http://sodipodi.sourceforge.net/DTD/sodipodi-0.dtd"
   xmlns:inkscape="http://www.inkscape.org/namespaces/inkscape"
   version="1.1"
   id="图层_1"
   x="0px"
   y="0px"
   width="74.556px"
   height="77.799px"
   viewBox="585.297 613.921 74.556 77.799"
   enable-background="new 585.297 613.921 74.556 77.799"
   xml:space="preserve"
   sodipodi:docname="自然界-27.svg"><metadata
   id="metadata13"><rdf:RDF><cc:Work
       rdf:about=""><dc:format>image/svg+xml</dc:format><dc:type
         rdf:resource="http://purl.org/dc/dcmitype/StillImage" /></cc:Work></rdf:RDF></metadata><defs
   id="defs11" /><sodipodi:namedview
   pagecolor="#ffffff"
   bordercolor="#666666"
   borderopacity="1"
   objecttolerance="10"
   gridtolerance="10"
   guidetolerance="10"
   inkscape:pageopacity="0"
   inkscape:pageshadow="2"
   inkscape:window-width="640"
   inkscape:window-height="480"
   id="namedview9" />
<g
   id="g6">
	<path
   fill="#788500"
   d="M637.084,644.099c-7.348,0.033-12.483-1.451-16.768-3.76c3.298,5.426,1.894,10.988,1.49,16.973   c-0.624,9.188-0.551,15.99,3.94,21.104c3.688,4.195,7.182,5.26,12.133,4.127c4.279-0.982,8.643-4.184,9.419-9.668   c1.395,1.051,3.622,4.172,4.645,7.193c1.276,3.779,1.52,8.576,0.032,11.652c0.624-0.021,1.214-0.51,1.737-0.857   c0.906-0.604,1.147-1.252,1.175-2.379c0.078-3.102-0.304-5.965-1.662-9.18c-1.566-3.715-3.292-5.559-5.136-7.127   c3.535-0.479,7.563-3.32,9.456-6.346c2.966-4.742,3.143-9.92,0.115-14.154C653.808,646.289,648.667,644.052,637.084,644.099z    M647.563,672.447c-5.243-3.197-10.281-6.17-15.938-13.332c-5.656-7.164-6.741-13.818-9.895-17.445   c4.067,3.449,6.146,9.871,11.605,16.543C638.797,664.88,642.833,667.962,647.563,672.447z"
   id="path2" />
	<path
   fill="#91C900"
   d="M587.156,665.8c2.749,6.611,8.927,10.168,16.625,10.146c4.912-0.018,11.158-2.656,14.284-6.439   c0.493,3.295,1.396,6.65,4.596,11.176c2.773,3.924,5.844,6.449,9.521,8.615c1.335,0.781,2.271,0.973,3.635,0.354   c0.788-0.357,1.786-0.695,2.262-1.41c-4.673-0.496-10.103-4.262-13.594-8.5c-2.787-3.389-4.817-8.26-5.033-10.654   c6.979,3.08,13.889,0.305,18.14-3.98c4.924-4.965,6.219-9.82,3.994-17.182c-2.71-8.961-10.61-13.99-21.797-19.934   c-7.29-3.873-14.811-6.273-18.754-14.07c-0.416,6.686-2.41,13.762-7.787,22.328C584.777,649.746,583.657,657.38,587.156,665.8z    M612.462,642.117c-3.829-11.227-9.827-18.316-10.897-25.584c1.944,6.324,8.935,12.428,13.197,24.24s4.076,19.859,4.001,28.311   C616.963,660.298,616.29,653.343,612.462,642.117z"
   id="path4" />
</g>
</svg>
