<?xml version="1.0" encoding="UTF-8" standalone="no"?>
<svg
   xmlns:dc="http://purl.org/dc/elements/1.1/"
   xmlns:cc="http://creativecommons.org/ns#"
   xmlns:rdf="http://www.w3.org/1999/02/22-rdf-syntax-ns#"
   xmlns:svg="http://www.w3.org/2000/svg"
   xmlns="http://www.w3.org/2000/svg"
   xmlns:sodipodi="http://sodipodi.sourceforge.net/DTD/sodipodi-0.dtd"
   xmlns:inkscape="http://www.inkscape.org/namespaces/inkscape"
   version="1.1"
   id="图层_1"
   x="0px"
   y="0px"
   width="84.778px"
   height="89.326px"
   viewBox="29.912 712.384 84.778 89.326"
   enable-background="new 29.912 712.384 84.778 89.326"
   xml:space="preserve"
   sodipodi:docname="自然界-28.svg"><metadata
   id="metadata13"><rdf:RDF><cc:Work
       rdf:about=""><dc:format>image/svg+xml</dc:format><dc:type
         rdf:resource="http://purl.org/dc/dcmitype/StillImage" /></cc:Work></rdf:RDF></metadata><defs
   id="defs11" /><sodipodi:namedview
   pagecolor="#ffffff"
   bordercolor="#666666"
   borderopacity="1"
   objecttolerance="10"
   gridtolerance="10"
   guidetolerance="10"
   inkscape:pageopacity="0"
   inkscape:pageshadow="2"
   inkscape:window-width="640"
   inkscape:window-height="480"
   id="namedview9" />
<g
   id="g6">
	<path
   fill="#788500"
   d="M111.158,726.529c1.099-3.619,0.96-5.223,1.502-8.471c0.398-2.41,0.809-4.287,2.03-5.674   c-1.992,1.238-5.371,2.945-9.029,3.844c-6.593,1.621-11.3,5.348-12.244,10.393c-2.301-1.588-0.407-4.457-1.365-6.729   c-4.2,1.969-6.576,5.627-8.026,9.145c-1.74,4.225-2.018,6.676-1.909,11.299c-1.339-3.016-2.578-4.848-2.323-7.213   c-3.41,2.305-5.09,6.957-5.318,11.563c-0.004,0.082-0.004,0.168-0.006,0.248c0.01,0.004,0.039,0.006,0.039,0.006   c3.75,0.271,7.453,2.215,10.613,5.463c0.676-3.988,1.779-7.23,2.727-9.48c2.573-6.109,7.186-13.475,17.399-18.67   c-8.069,6.316-12.892,12.609-15.209,19.779c-1.181,3.658-2.022,7.486-2.429,11.352c0.268,0.373,0.527,0.754,0.782,1.15   c1.146,1.781,2.229,4.105,2.833,6.824c0.369,0.273,1.118,0.832,1.118,0.832c2.093,1.555,4.53,5.715,4.684,11.303   c2.175-4.813,2.663-8.441,4.144-10.047c-1.945-0.047-4.422-0.439-6.068,1.115c-0.209-3.088,2.394-6.623,6.223-9.344   c3.196-2.273,4.715-4.607,5.088-7.381c-1.282,0.508-2.986,0.771-4.537,0.27c-1.826-0.592-2.836-1.469-4.863-0.74   c0.771-1.393,2.154-2.076,5.44-3.912c2.98-1.67,5.675-3.779,8.897-8.67c-3.486-1.131-5.47,1.309-7.867-0.611   C105.856,733.953,109.958,730.476,111.158,726.529z"
   id="path2" />
	<path
   fill="#91C900"
   d="M68.688,745.419c-3.349-2.59-7.666-4.797-12.801-4.365c0.334,2.719,3.747,4.434,2.409,7.236   c-3.704-4.336-10.308-5.318-17.556-3.229c-4.023,1.162-8.223,1.389-10.828,1.299c1.944,0.662,3.38,2.24,5.099,4.342   c2.323,2.832,3.075,4.451,6.14,7.33c3.346,3.139,9.224,4.219,11.633,3.109c-1.249,3.182-4.511,1.928-7.244,4.949   c5.816,2.928,9.582,3.465,13.377,3.422c4.184-0.049,5.895-0.156,7.409,0.76c-2.357,0.42-2.846,1.82-4.275,3.404   c-1.216,1.344-3.004,2.035-4.521,2.252c1.895,2.469,4.651,3.877,8.99,4.297c5.198,0.5,9.663,2.465,11.174,5.555   c-2.447-0.586-4.62,1.164-6.467,2.285c4.136,1.299,8.121,2.711,11.446,5.813c2.556,2.385,3.812,4.535,4.671,7.832   c2.349-15.539-6.004-30.244-17.252-40.441c-6.207-5.623-14.343-9.018-25.613-10.635c12.721-0.652,21.239,3.891,27.104,8.352   c5.945,4.521,17.192,15.602,19.201,35.254c1.796-7.91,4.219-9.391,4.872-18.682c0.402-5.699-1.736-9.916-4.402-11.896   c0.233,3.074-1.507,5.59-2.885,6.643c2.053-5.887,0.772-11.078-1.814-15.1c-2.771-4.313-6.967-7.863-11.53-8.197   c1.559,2.141,1.379,4.59,1.757,8.238C74.326,750.734,72.701,748.525,68.688,745.419z"
   id="path4" />
</g>
</svg>
