<?xml version="1.0" encoding="UTF-8" standalone="no"?>
<svg
   xmlns:dc="http://purl.org/dc/elements/1.1/"
   xmlns:cc="http://creativecommons.org/ns#"
   xmlns:rdf="http://www.w3.org/1999/02/22-rdf-syntax-ns#"
   xmlns:svg="http://www.w3.org/2000/svg"
   xmlns="http://www.w3.org/2000/svg"
   xmlns:sodipodi="http://sodipodi.sourceforge.net/DTD/sodipodi-0.dtd"
   xmlns:inkscape="http://www.inkscape.org/namespaces/inkscape"
   version="1.1"
   id="图层_1"
   x="0px"
   y="0px"
   width="64.579px"
   height="82.021px"
   viewBox="151.466 712.679 64.579 82.021"
   enable-background="new 151.466 712.679 64.579 82.021"
   xml:space="preserve"
   sodipodi:docname="自然界-29.svg"><metadata
   id="metadata13"><rdf:RDF><cc:Work
       rdf:about=""><dc:format>image/svg+xml</dc:format><dc:type
         rdf:resource="http://purl.org/dc/dcmitype/StillImage" /></cc:Work></rdf:RDF></metadata><defs
   id="defs11" /><sodipodi:namedview
   pagecolor="#ffffff"
   bordercolor="#666666"
   borderopacity="1"
   objecttolerance="10"
   gridtolerance="10"
   guidetolerance="10"
   inkscape:pageopacity="0"
   inkscape:pageshadow="2"
   inkscape:window-width="640"
   inkscape:window-height="480"
   id="namedview9" />
<g
   id="g6">
	<path
   fill="#788500"
   d="M152.686,760.216c-1.264-3.635-1.925-7.998-0.069-12.303c2.249,1.074,2.743,4.512,5.55,4.17   c-2.675-4.449-1.613-10.43,2.281-16.076c2.162-3.139,3.572-6.693,4.246-8.969c0.01,1.871,0.957,3.563,2.274,5.65   c2.244,3.559,4.405,5.602,5.046,11.791c0.666,6.445,6.091,13.318,7.682,20.059c2.173,9.195,4.943,21.504,13.139,27.547   c-12.53-4.98-19.23-11.396-24.448-23.92c-2.134-5.121-5.549-15.791-4.212-27.326c-2.832,10.684-0.482,21.992,1.438,27.326   c2.3,6.391,7.042,16.648,22.816,25.209c-7.346-0.736-9.898,1.717-17.971-0.865c-4.896-1.564-7.607-4.688-8.545-7.559   c2.583,1.088,5.256,0.313,6.562-0.572c-5.671,0.074-9.781-2.531-12.504-5.922c-2.918-3.635-4.771-8.281-3.738-12.313   c1.394,1.959,3.56,2.512,6.599,3.893C155.642,766.615,154.207,764.578,152.686,760.216z"
   id="path2" />
	<path
   fill="#91C900"
   d="M181.54,734.505c1.421-4.223,3.911-8.68,8.661-11.299c1.295,2.572-0.691,6.07,2.115,7.742   c0.713-5.961,5.92-10.68,13.486-13.082c4.203-1.334,8.015-3.586,10.243-5.188c-1.319,1.715-1.65,3.938-1.928,6.781   c-0.38,3.836-0.093,5.691-1.095,10.002c-1.096,4.703-5.612,9.082-8.367,9.521c2.947,2.055,5.074-0.947,9.231,0.104   c-3.384,5.959-6.363,8.629-9.715,10.813c-3.691,2.396-5.252,3.307-6.045,4.988c2.312-1.008,3.556-0.063,5.734,0.486   c1.85,0.465,3.818,0.027,5.274-0.67c-0.217,3.268-1.81,6.113-5.363,9.016c-4.261,3.475-7.023,7.805-6.541,11.393   c1.803-1.941,4.727-1.68,6.998-1.777c-2.861,3.553-5.526,7.121-6.627,11.775c-0.846,3.582-0.688,6.199,0.485,9.59   c-11.134-12.234-12.411-29.992-8.519-45.492c2.15-8.553,7.293-16.277,16.218-24.277c-11.519,6.861-16.327,15.814-18.857,23.148   c-2.565,7.432-5.808,23.945,3.917,42.33c-6.723-3.309-10.407-5.689-15.954-13.771c-3.366-4.906-3.634-9.682-2.458-12.975   c1.593,2.828,4.587,4.014,6.408,4.133c-5.238-3.955-7.15-9.252-7.232-14.283c-0.09-5.395,1.505-10.957,5.308-13.91   c-0.115,2.779,1.476,4.82,3.275,8.236C179.707,742.451,179.84,739.57,181.54,734.505z"
   id="path4" />
</g>
</svg>
