<?xml version="1.0" encoding="UTF-8" standalone="no"?>
<svg
   xmlns:dc="http://purl.org/dc/elements/1.1/"
   xmlns:cc="http://creativecommons.org/ns#"
   xmlns:rdf="http://www.w3.org/1999/02/22-rdf-syntax-ns#"
   xmlns:svg="http://www.w3.org/2000/svg"
   xmlns="http://www.w3.org/2000/svg"
   xmlns:sodipodi="http://sodipodi.sourceforge.net/DTD/sodipodi-0.dtd"
   xmlns:inkscape="http://www.inkscape.org/namespaces/inkscape"
   version="1.1"
   id="图层_1"
   x="0px"
   y="0px"
   width="47.422px"
   height="94.932px"
   viewBox="328.595 74.318 47.422 94.932"
   enable-background="new 328.595 74.318 47.422 94.932"
   xml:space="preserve"
   sodipodi:docname="自然界-03.svg"><metadata
   id="metadata9"><rdf:RDF><cc:Work
       rdf:about=""><dc:format>image/svg+xml</dc:format><dc:type
         rdf:resource="http://purl.org/dc/dcmitype/StillImage" /></cc:Work></rdf:RDF></metadata><defs
   id="defs7" /><sodipodi:namedview
   pagecolor="#ffffff"
   bordercolor="#666666"
   borderopacity="1"
   objecttolerance="10"
   gridtolerance="10"
   guidetolerance="10"
   inkscape:pageopacity="0"
   inkscape:pageshadow="2"
   inkscape:window-width="640"
   inkscape:window-height="480"
   id="namedview5" />
<path
   fill="#008040"
   stroke="#231815"
   stroke-width="0.5"
   stroke-miterlimit="10"
   d="M345.772,139.427  c0.04,1.368,0.096,2.729,0.169,4.079c-0.055,0.164-0.118,0.321-0.154,0.494c-0.208,1.011-0.043,2.003,0.377,2.864  c0.634,8.15,1.972,15.801,4.33,22.136h9.64c-0.065-0.275-0.155-0.549-0.277-0.817c-2.284-5.002-3.676-11.345-4.438-18.323  c5.675-0.196,9.504-2.516,11.888-4.745c11.061-10.344,8.237-33.529,7.879-36.139c-0.337-2.454-2.591-4.172-5.055-3.836  c-2.455,0.335-4.174,2.598-3.842,5.054c0.789,5.824,1.407,22.272-5.121,28.369c-1.657,1.546-3.773,2.306-6.391,2.327  c-0.068-1.821-0.106-3.663-0.116-5.515c0.001-0.057,0.014-0.11,0.013-0.167c-0.001-0.037-0.013-0.071-0.015-0.108  c-0.096-26.347,5.434-54.749,5.517-55.169c0.481-2.432-1.1-4.794-3.532-5.276c-2.425-0.484-4.793,1.099-5.274,3.531  c-0.327,1.647-5.156,26.452-5.634,51.837c-1.018-0.476-1.926-1.155-2.735-2.072c-6.56-7.422-5.354-26.521-4.338-33.253  c0.372-2.451-1.313-4.739-3.763-5.112c-2.451-0.376-4.741,1.311-5.114,3.762c-0.441,2.898-4.012,28.656,6.479,40.542  C338.823,136.79,342.061,138.662,345.772,139.427z"
   id="path2" />
</svg>
