<?xml version="1.0" encoding="UTF-8" standalone="no"?>
<svg
   xmlns:dc="http://purl.org/dc/elements/1.1/"
   xmlns:cc="http://creativecommons.org/ns#"
   xmlns:rdf="http://www.w3.org/1999/02/22-rdf-syntax-ns#"
   xmlns:svg="http://www.w3.org/2000/svg"
   xmlns="http://www.w3.org/2000/svg"
   xmlns:sodipodi="http://sodipodi.sourceforge.net/DTD/sodipodi-0.dtd"
   xmlns:inkscape="http://www.inkscape.org/namespaces/inkscape"
   version="1.1"
   id="图层_1"
   x="0px"
   y="0px"
   width="69.887px"
   height="87.383px"
   viewBox="483.175 708.878 69.887 87.383"
   enable-background="new 483.175 708.878 69.887 87.383"
   xml:space="preserve"
   sodipodi:docname="自然界-32.svg"><metadata
   id="metadata13"><rdf:RDF><cc:Work
       rdf:about=""><dc:format>image/svg+xml</dc:format><dc:type
         rdf:resource="http://purl.org/dc/dcmitype/StillImage" /></cc:Work></rdf:RDF></metadata><defs
   id="defs11" /><sodipodi:namedview
   pagecolor="#ffffff"
   bordercolor="#666666"
   borderopacity="1"
   objecttolerance="10"
   gridtolerance="10"
   guidetolerance="10"
   inkscape:pageopacity="0"
   inkscape:pageshadow="2"
   inkscape:window-width="640"
   inkscape:window-height="480"
   id="namedview9" />
<g
   id="g6">
	<path
   fill="#788500"
   d="M552.055,762.88c1.107-3.57,1.604-7.828-0.343-11.939c-2.146,1.111-2.512,4.469-5.246,4.229   c2.446-4.408,1.216-10.176-2.754-15.527c-2.202-2.973-3.688-6.377-4.422-8.563c0.056,1.816-0.81,3.492-2.019,5.563   c-1.623,2.799-2.73,3.92-4.168,7.348c-1.563,3.738-0.64,8.938,1.02,10.586c-3.019-0.047-2.986-3.137-6.331-4.461   c-0.629,5.719,0.092,8.998,1.302,12.125c1.331,3.449,1.948,4.832,1.659,6.367c-1.078-1.82-2.388-1.789-4.139-2.486   c-1.49-0.592-2.611-1.857-3.266-3.041c-1.455,2.328-1.767,5.045-0.773,8.766c1.19,4.457,0.944,8.762-1.145,10.965   c-0.272-2.209-2.39-3.461-3.892-4.643c0.204,3.82,0.266,7.557-1.273,11.268c-1.183,2.852-2.576,4.555-5.039,6.287   c13.59-2.859,23.177-14.314,28.142-26.779c2.739-6.877,3.032-14.654,0.889-24.484c4.468,10.326,3.343,18.783,1.462,25.018   c-1.905,6.314-7.6,19.049-23.246,26.785c6.016-0.738,9.646-0.738,15.872-2.297c3.662-0.914,8.771-3.947,9.586-6.764   c-2.472,1.141-5.093,0.477-6.389-0.338c5.507-0.117,9.405-2.785,11.936-6.166c2.714-3.627,4.354-8.197,3.22-12.076   c-1.288,1.949-3.37,2.559-6.273,4C549.401,769.189,550.724,767.166,552.055,762.88z"
   id="path2" />
	<path
   fill="#91C900"
   d="M493.694,731.998c1.504-4.475,4.144-9.193,9.172-11.969c1.372,2.727-0.732,6.432,2.242,8.203   c0.755-6.314,6.27-11.313,14.285-13.859c4.451-1.41,8.487-3.797,10.851-5.494c-1.397,1.818-1.748,4.17-2.042,7.186   c-0.402,4.063-0.102,6.025-1.16,10.596c-1.162,4.979-5.944,9.617-8.861,10.086c3.12,2.174,5.373-1.006,9.776,0.105   c-3.585,6.313-6.739,9.143-10.289,11.449c-3.909,2.541-5.563,3.504-6.403,5.289c2.446-1.066,3.768-0.068,6.073,0.516   c1.96,0.492,4.042,0.027,5.588-0.709c-0.23,3.459-1.92,6.473-5.681,9.547c-4.516,3.68-7.44,8.268-6.931,12.066   c1.91-2.059,5.007-1.777,7.412-1.883c-3.029,3.764-5.854,7.543-7.019,12.473c-0.896,3.797-0.729,6.566,0.515,10.156   c-11.797-12.961-13.146-31.768-9.022-48.188c2.274-9.059,7.726-17.238,17.179-25.711c-12.201,7.266-17.295,16.75-19.975,24.518   c-2.718,7.869-6.293,25.105,4.008,44.58c-6.565-6.229-10.885-5.77-16.757-14.332c-3.568-5.193-3.852-10.254-2.607-13.74   c1.689,2.994,4.86,4.252,6.789,4.377c-5.548-4.188-7.572-9.799-7.658-15.131c-0.097-5.713,1.594-11.604,5.621-14.73   c-0.122,2.943,1.563,5.104,3.468,8.725C491.751,740.414,491.893,737.363,493.694,731.998z"
   id="path4" />
</g>
</svg>
