<?xml version="1.0" encoding="UTF-8" standalone="no"?>
<svg
   xmlns:dc="http://purl.org/dc/elements/1.1/"
   xmlns:cc="http://creativecommons.org/ns#"
   xmlns:rdf="http://www.w3.org/1999/02/22-rdf-syntax-ns#"
   xmlns:svg="http://www.w3.org/2000/svg"
   xmlns="http://www.w3.org/2000/svg"
   xmlns:sodipodi="http://sodipodi.sourceforge.net/DTD/sodipodi-0.dtd"
   xmlns:inkscape="http://www.inkscape.org/namespaces/inkscape"
   version="1.1"
   id="图层_1"
   x="0px"
   y="0px"
   width="60.563px"
   height="87.598px"
   viewBox="599.292 705.412 60.563 87.598"
   enable-background="new 599.292 705.412 60.563 87.598"
   xml:space="preserve"
   sodipodi:docname="自然界-33.svg"><metadata
   id="metadata13"><rdf:RDF><cc:Work
       rdf:about=""><dc:format>image/svg+xml</dc:format><dc:type
         rdf:resource="http://purl.org/dc/dcmitype/StillImage" /></cc:Work></rdf:RDF></metadata><defs
   id="defs11" /><sodipodi:namedview
   pagecolor="#ffffff"
   bordercolor="#666666"
   borderopacity="1"
   objecttolerance="10"
   gridtolerance="10"
   guidetolerance="10"
   inkscape:pageopacity="0"
   inkscape:pageshadow="2"
   inkscape:window-width="640"
   inkscape:window-height="480"
   id="namedview9" />
<g
   id="g6">
	<path
   fill="#788500"
   d="M658.848,758.861c1.108-3.568,1.602-7.828-0.343-11.941c-2.146,1.113-2.512,4.469-5.248,4.232   c2.449-4.41,1.219-10.178-2.753-15.529c-2.202-2.973-3.686-6.377-4.419-8.564c0.053,1.816-0.811,3.492-2.017,5.564   c-6.323,10.836-6.487,19.691-8.297,27.527c-2.106,9.127-4.914,13.059-9.269,21.623c-1.338,2.635-4.152,7.48-7.44,9.828   c12.216-4.213,22.134-14.215,27.099-26.678c2.74-6.879,3.031-14.656,0.889-24.484c4.468,10.324,3.345,18.783,1.465,25.018   c-1.905,6.314-7.601,19.045-23.247,26.785c6.015-0.74,9.645-0.74,15.87-2.297c3.663-0.916,8.771-3.947,9.585-6.766   c-2.47,1.143-5.092,0.48-6.388-0.336c5.507-0.119,9.406-2.785,11.937-6.168c2.711-3.627,4.354-8.197,3.219-12.076   c-1.287,1.951-3.371,2.559-6.273,4C656.195,765.169,657.519,763.146,658.848,758.861z"
   id="path2" />
	<path
   fill="#91C900"
   d="M634.843,730.037c-1.315-4.531-3.755-9.357-8.664-12.342c-1.485,2.666,0.462,6.457-2.585,8.104   c-0.49-6.342-5.79-11.564-13.693-14.443c-4.388-1.596-8.32-4.146-10.608-5.943c1.321,1.875,1.572,4.24,1.741,7.264   c0.229,4.078-0.155,6.027,0.716,10.635c0.952,5.023,5.54,9.857,8.433,10.447c-3.209,2.043-5.326-1.229-9.772-0.299   c3.317,6.455,6.354,9.412,9.806,11.869c3.797,2.701,5.411,3.73,6.174,5.549c-2.4-1.168-3.759-0.229-6.09,0.26   c-1.977,0.412-4.041-0.141-5.552-0.939c0.086,3.465,1.646,6.547,5.276,9.775c4.355,3.867,7.088,8.57,6.419,12.346   c-1.82-2.135-4.929-1.986-7.325-2.191c2.87,3.889,5.532,7.781,6.49,12.756c0.736,3.83,0.453,6.592-0.938,10.127   c12.326-12.455,14.459-31.189,11.027-47.77c-1.897-9.145-6.998-17.545-16.091-26.406c11.889,7.771,16.58,17.459,18.936,25.332   c2.384,7.977,8.341,27.496-8.447,46.576c9.778-4.99,12.879-8.295,17.087-13.559c3.935-4.92,7.108-12.35,6.011-15.885   c-1.811,2.92-5.033,4.045-6.965,4.09c5.72-3.955,7.976-9.475,8.285-14.797c0.333-5.703-1.108-11.662-5.002-14.957   c0,2.949-1.772,5.039-3.83,8.572C636.433,738.527,636.419,735.472,634.843,730.037z"
   id="path4" />
</g>
</svg>
