<?xml version="1.0" encoding="UTF-8" standalone="no"?>
<svg
   xmlns:dc="http://purl.org/dc/elements/1.1/"
   xmlns:cc="http://creativecommons.org/ns#"
   xmlns:rdf="http://www.w3.org/1999/02/22-rdf-syntax-ns#"
   xmlns:svg="http://www.w3.org/2000/svg"
   xmlns="http://www.w3.org/2000/svg"
   xmlns:sodipodi="http://sodipodi.sourceforge.net/DTD/sodipodi-0.dtd"
   xmlns:inkscape="http://www.inkscape.org/namespaces/inkscape"
   version="1.1"
   id="图层_1"
   x="0px"
   y="0px"
   width="77.482px"
   height="76.193px"
   viewBox="26.741 820.291 77.482 76.193"
   enable-background="new 26.741 820.291 77.482 76.193"
   xml:space="preserve"
   sodipodi:docname="自然界-34.svg"><metadata
   id="metadata13"><rdf:RDF><cc:Work
       rdf:about=""><dc:format>image/svg+xml</dc:format><dc:type
         rdf:resource="http://purl.org/dc/dcmitype/StillImage" /></cc:Work></rdf:RDF></metadata><defs
   id="defs11" /><sodipodi:namedview
   pagecolor="#ffffff"
   bordercolor="#666666"
   borderopacity="1"
   objecttolerance="10"
   gridtolerance="10"
   guidetolerance="10"
   inkscape:pageopacity="0"
   inkscape:pageshadow="2"
   inkscape:window-width="640"
   inkscape:window-height="480"
   id="namedview9" />
<g
   id="g6">
	<path
   fill="#91C900"
   d="M28.574,874.08c-2.924-10.287-2.338-17.305,1.674-24.275c-0.101,1.959,1.301,5.25,2.517,6.748   c-0.022-7.635,3.889-17.705,10.467-24.031c0.009,1.871,0.201,4.053,1.017,5.898c1.673-5.494,16.053-17.764,31.094-18.129   c-1.311,7.498-0.051,13.68,2.21,20.912c1.814-0.098,2.454-1.826,3.132-2.344c0.637,2.996,3.203,9.617,1.457,20.273   c-0.578,3.518-2.998,7.658-6.627,12.924c2.113-0.125,4.426,0.08,6.922-1.277c-4.018,9.775-15.937,22.309-33.069,24   c0.017-3.945,0.145-7.369,0.385-10.529c4.876-1.123,12.847-1.666,17.82-7.391c-7.831,4.217-13.562,3.881-17.462,3.541   c0.428-3.85,1.037-7.445,1.821-11.348c0.791-3.926,2.981-12.225,3.146-12.996c3.623-1.482,9.127-2.729,14.557-7.777   c-5.84,2.059-10.722,4.463-13.133,4.133c2.947-8.459,4.379-12.842,8.334-18.668c-7.719,7.023-13.436,22.354-16.191,32.477   c-2.969-4.992-4.928-9.039-5.572-14.334c-1.271,6.342,1.516,12.172,4.271,19.289c-1.166,5.096-2.646,13.125-3.624,23.412   C36.704,891.24,31.295,883.652,28.574,874.08z"
   id="path2" />
	<path
   fill="#788500"
   d="M104.223,833.832c-8.393-3.342-18.168-2.855-25.761-0.959c0.269,1.182,0.565,2.379,0.915,3.609   c0.237-0.299,0.496-0.594,0.828-0.846l2.638-2.016c0.07,1.842,0.391,4.07,1.104,6.324c1.071,3.385,1.896,6.316,2.087,11.02   c0.293,7.18-0.553,12.73-5.475,18.346c2.607-1.162,4.859-2.387,6.45-3.184c-0.974,6.158-7.646,15.932-12.476,20.475   c-5.287,4.971-12.666,8.563-19.25,9.584c14.408,1.637,28.116-3.656,34.638-11.006c-2.988,0.285-4.87-0.242-6.976-0.996   c5.706-3.611,9.772-6.631,11.789-9.809c6.111-9.627,6.363-17.121,6.986-20.297c-0.875,0.223-2.213,1.637-4.015,0.979   C98.505,847.097,99.842,840.57,104.223,833.832z"
   id="path4" />
</g>
</svg>
