<?xml version="1.0" encoding="UTF-8" standalone="no"?>
<svg
   xmlns:dc="http://purl.org/dc/elements/1.1/"
   xmlns:cc="http://creativecommons.org/ns#"
   xmlns:rdf="http://www.w3.org/1999/02/22-rdf-syntax-ns#"
   xmlns:svg="http://www.w3.org/2000/svg"
   xmlns="http://www.w3.org/2000/svg"
   xmlns:sodipodi="http://sodipodi.sourceforge.net/DTD/sodipodi-0.dtd"
   xmlns:inkscape="http://www.inkscape.org/namespaces/inkscape"
   version="1.1"
   id="图层_1"
   x="0px"
   y="0px"
   width="73.724px"
   height="78.067px"
   viewBox="140.049 819.353 73.724 78.067"
   enable-background="new 140.049 819.353 73.724 78.067"
   xml:space="preserve"
   sodipodi:docname="自然界-35.svg"><metadata
   id="metadata13"><rdf:RDF><cc:Work
       rdf:about=""><dc:format>image/svg+xml</dc:format><dc:type
         rdf:resource="http://purl.org/dc/dcmitype/StillImage" /></cc:Work></rdf:RDF></metadata><defs
   id="defs11" /><sodipodi:namedview
   pagecolor="#ffffff"
   bordercolor="#666666"
   borderopacity="1"
   objecttolerance="10"
   gridtolerance="10"
   guidetolerance="10"
   inkscape:pageopacity="0"
   inkscape:pageshadow="2"
   inkscape:window-width="640"
   inkscape:window-height="480"
   id="namedview9" />
<g
   id="g6">
	<path
   fill="#788500"
   d="M156.146,879.083c-0.187,0.135-0.387,0.264-0.609,0.367L152.298,881l0.009-3.592   c0-0.422-0.025-0.967-0.053-1.604c-0.168-3.672-0.477-10.512,3.066-19.555c1.04-2.646,3.045-5.285,5.779-8.166   c-0.157,0.043-0.318,0.088-0.481,0.135l-5.507,1.631l2.922-4.945c2.908-4.912,7.685-9.463,13.45-12.809   c6.319-3.666,13.438-5.643,20.63-5.77c0.207-2.225,0.635-4.477,1.352-6.834c-14.918-1.459-30.625,8.934-32.944,14.166   c-0.583-1.928-0.511-4.105-0.29-5.961c-7.272,5.465-12.358,14.951-13.26,22.5c-1.022-1.627-2.011-5.055-1.673-6.979   c-4.812,6.408-6.239,13.275-4.595,23.807c1.307,8.357,6.307,17.898,14.755,23.643C156.268,886.935,156.393,883.214,156.146,879.083   z"
   id="path2" />
	<path
   fill="#91C900"
   d="M213.571,854.24c0.941,9.877-1.429,17.02-6.87,23.055c0.516-1.91-0.171-5.461-1.056-7.197   c-1.599,7.541-7.593,16.662-15.435,21.52c0.391-1.854,0.662-4.047,0.248-6.045c-2.815,5.07-19.623,14.143-34.557,11.314   c2.885-7.127,2.953-13.502,2.254-21.125c-1.816-0.287-2.813,1.281-3.594,1.654c0.008-3.1-1.121-10.18,2.859-20.336   c1.318-3.354,4.586-6.928,9.289-11.361c-2.117-0.324-3.98-0.479-6.732,0.336c5.635-9.527,20.092-19.199,37.373-17.236   c-0.852,3.895-1.707,7.25-2.611,10.318c-5.055,0.074-13.044-1.076-19.168,3.521c8.627-2.502,14.219-0.953,17.995,0.209   c-1.235,3.711-2.601,7.133-4.202,10.818c-1.615,3.711-5.535,11.443-5.863,12.172c-3.893,0.693-9.592,0.762-16.028,4.598   c6.208-0.797,11.539-2.139,13.852-1.301c-4.704,7.73-7.048,11.758-12.19,16.672c9.113-5.299,18.009-19.23,22.88-28.646   c1.871,5.566,2.95,9.975,2.466,15.344c2.598-5.994,1.08-12.348-0.133-19.959c2.23-4.787,5.584-12.59,7.152-22.627   C207.718,834.732,212.619,844.232,213.571,854.24z"
   id="path4" />
</g>
</svg>
