<?xml version="1.0" encoding="UTF-8" standalone="no"?>
<svg
   xmlns:dc="http://purl.org/dc/elements/1.1/"
   xmlns:cc="http://creativecommons.org/ns#"
   xmlns:rdf="http://www.w3.org/1999/02/22-rdf-syntax-ns#"
   xmlns:svg="http://www.w3.org/2000/svg"
   xmlns="http://www.w3.org/2000/svg"
   xmlns:sodipodi="http://sodipodi.sourceforge.net/DTD/sodipodi-0.dtd"
   xmlns:inkscape="http://www.inkscape.org/namespaces/inkscape"
   version="1.1"
   id="图层_1"
   x="0px"
   y="0px"
   width="76.49px"
   height="85.18px"
   viewBox="361.522 815.796 76.49 85.18"
   enable-background="new 361.522 815.796 76.49 85.18"
   xml:space="preserve"
   sodipodi:docname="自然界-37.svg"><metadata
   id="metadata13"><rdf:RDF><cc:Work
       rdf:about=""><dc:format>image/svg+xml</dc:format><dc:type
         rdf:resource="http://purl.org/dc/dcmitype/StillImage" /></cc:Work></rdf:RDF></metadata><defs
   id="defs11" /><sodipodi:namedview
   pagecolor="#ffffff"
   bordercolor="#666666"
   borderopacity="1"
   objecttolerance="10"
   gridtolerance="10"
   guidetolerance="10"
   inkscape:pageopacity="0"
   inkscape:pageshadow="2"
   inkscape:window-width="640"
   inkscape:window-height="480"
   id="namedview9" />
<g
   id="g6">
	<path
   fill="#788500"
   d="M433.424,840.9c-0.1,2.955-0.833,5.232-1.895,6.793c-0.612-7.449-5.265-16.949-12.212-22.582   c0.149,1.832,0.142,3.971-0.5,5.844c-2.092-5.223-17.143-16.002-31.852-15.105c1.056,2.523,0.433,5.637-0.605,8.334   c-1.01,2.625-1.452,4.357-0.902,7.244c-1.05-0.555-1.795-1.156-2.671-1.965c-0.162,2.814-1.822,5.301-1.346,9.25   c5.504-3.129,11.272-4.453,18.036-5.035c-2.436-6.629-4.238-10.355-7.604-14.32c4.426,2.445,8.534,8.533,11.572,14.254   c9.056,0.225,16.948,3.07,22.144,8.094c0,0,1.019,0.879,1.588,2.102c-0.731,0.324-8.796,5.221-11.568,6.734   c2.931-1.334,12.184-4.947,12.184-4.947l0.705,2.664c4.288,16.197-1.699,32.104-10.33,40.785   c10.609-4.783,17.109-15.35,18.907-24.59C439.07,854.166,437.895,845.283,433.424,840.9z"
   id="path2" />
	<path
   fill="#91C900"
   d="M398.527,836.236c-11.022,0.891-17.604,3.992-22.905,10.4c1.86-0.809,5.555-0.641,7.444-0.002   c-7.397,2.736-15.738,10.162-19.49,18.824c1.818-0.672,3.998-1.271,6.084-1.15c-4.718,3.607-11.4,21.971-6.315,36.668   c6.787-3.98,13.229-4.994,21.05-5.42c0.563,1.793-0.881,3.035-1.139,3.879c3.134-0.467,10.475-0.377,20.162-5.92   c3.199-1.83,6.331-5.67,10.119-11.092c0.643,2.094,1.076,3.961,0.662,6.867c8.808-7.123,16.447-23.195,11.895-40.4   c-3.818,1.441-7.088,2.805-10.062,4.178c0.676,5.129,3.027,13.047-0.715,19.93c1.253-9.105-1.145-14.537-2.884-18.188   c-3.574,1.803-6.836,3.695-10.332,5.863c-3.518,2.188-10.762,7.307-11.446,7.744c-0.129,4.047,0.654,9.826-2.271,16.91   c-0.116-6.4,0.447-11.998-0.747-14.213c-7.128,5.912-10.852,8.883-15.063,14.818c4.01-10.014,16.791-21.092,25.598-27.422   c-5.908-1.068-10.533-1.506-15.896-0.215c5.682-3.521,12.338-2.932,20.224-2.836c4.515-2.969,11.755-7.309,21.363-11.971   C418.085,837.906,408.779,835.41,398.527,836.236z"
   id="path4" />
</g>
</svg>
