<?xml version="1.0" encoding="UTF-8" standalone="no"?>
<svg
   xmlns:dc="http://purl.org/dc/elements/1.1/"
   xmlns:cc="http://creativecommons.org/ns#"
   xmlns:rdf="http://www.w3.org/1999/02/22-rdf-syntax-ns#"
   xmlns:svg="http://www.w3.org/2000/svg"
   xmlns="http://www.w3.org/2000/svg"
   xmlns:sodipodi="http://sodipodi.sourceforge.net/DTD/sodipodi-0.dtd"
   xmlns:inkscape="http://www.inkscape.org/namespaces/inkscape"
   version="1.1"
   id="图层_1"
   x="0px"
   y="0px"
   width="78.396px"
   height="81.313px"
   viewBox="471.997 817.731 78.396 81.313"
   enable-background="new 471.997 817.731 78.396 81.313"
   xml:space="preserve"
   sodipodi:docname="自然界-38.svg"><metadata
   id="metadata13"><rdf:RDF><cc:Work
       rdf:about=""><dc:format>image/svg+xml</dc:format><dc:type
         rdf:resource="http://purl.org/dc/dcmitype/StillImage" /></cc:Work></rdf:RDF></metadata><defs
   id="defs11" /><sodipodi:namedview
   pagecolor="#ffffff"
   bordercolor="#666666"
   borderopacity="1"
   objecttolerance="10"
   gridtolerance="10"
   guidetolerance="10"
   inkscape:pageopacity="0"
   inkscape:pageshadow="2"
   inkscape:window-width="640"
   inkscape:window-height="480"
   id="namedview9" />
<g
   id="g6">
	<path
   fill="#788500"
   d="M516.13,882.339c0.479,0.709,3.188,4.699,3.188,4.699l-6.102-1.023c-7.402-1.244-15.234-5.299-21.009-10.58   c-0.963,1.182-2.221,2.725-2.221,2.725c-8.626-4.154-13.979-10.828-17.857-22.271c-0.163,1.971-0.177,3.896-0.035,5.729   c0.873,11.111,3.979,17.754,10.424,23.111c-0.808-1.875-0.629-5.602,0.018-7.504c2.742,7.465,10.206,15.889,18.927,19.691   c-0.673-1.836-1.271-4.033-1.144-6.135c3.625,4.762,22.113,11.545,36.939,6.453c-2.726-4.674-4.058-9.18-4.762-14.072   C526.426,883.794,520.6,883.386,516.13,882.339z"
   id="path2" />
	<path
   fill="#91C900"
   d="M474.544,854.777c3.734,11.156,8.623,17.158,16.594,20.998c-1.31-1.717-2.08-5.574-1.904-7.689   c4.72,6.943,14.518,13.656,24.423,15.318c-1.158-1.707-2.336-3.805-2.742-5.988c4.93,3.949,25.601,6.16,39.479-2.85   c-5.846-5.992-8.538-12.385-10.979-20.354c1.71-1.039,3.362,0.133,4.3,0.184c-1.282-3.115-3.063-10.719-11.266-19.309   c-2.71-2.836-7.475-5.09-14.042-7.615c2-1.199,3.813-2.121,6.923-2.438c-9.606-7.275-28.159-11.061-44.761-1.959   c2.465,3.574,4.706,6.602,6.884,9.322c5.126-2.01,12.701-6.463,20.764-4.355c-9.724,1.035-14.718,4.896-18.045,7.625   c2.774,3.232,5.563,6.117,8.696,9.172c3.156,3.074,10.297,9.246,10.925,9.844c4.209-0.9,9.979-3.188,18.041-1.977   c-6.577,1.754-12.506,2.605-14.486,4.404c7.928,5.848,11.948,8.934,19.153,11.768c-11.366-1.58-26.072-11.949-34.861-19.426   c0.408,6.373,1.14,11.262,3.846,16.471c-5.092-4.967-6.184-11.992-8.102-20.162c-4.217-3.9-10.549-10.27-17.819-19.002   C471.271,834.154,471.073,844.4,474.544,854.777z"
   id="path4" />
</g>
</svg>
