<?xml version="1.0" encoding="UTF-8" standalone="no"?>
<svg
   xmlns:dc="http://purl.org/dc/elements/1.1/"
   xmlns:cc="http://creativecommons.org/ns#"
   xmlns:rdf="http://www.w3.org/1999/02/22-rdf-syntax-ns#"
   xmlns:svg="http://www.w3.org/2000/svg"
   xmlns="http://www.w3.org/2000/svg"
   xmlns:sodipodi="http://sodipodi.sourceforge.net/DTD/sodipodi-0.dtd"
   xmlns:inkscape="http://www.inkscape.org/namespaces/inkscape"
   version="1.1"
   id="图层_1"
   x="0px"
   y="0px"
   width="65.962px"
   height="93.817px"
   viewBox="428.865 75.431 65.962 93.817"
   enable-background="new 428.865 75.431 65.962 93.817"
   xml:space="preserve"
   sodipodi:docname="自然界-04.svg"><metadata
   id="metadata9"><rdf:RDF><cc:Work
       rdf:about=""><dc:format>image/svg+xml</dc:format><dc:type
         rdf:resource="http://purl.org/dc/dcmitype/StillImage" /></cc:Work></rdf:RDF></metadata><defs
   id="defs7" /><sodipodi:namedview
   pagecolor="#ffffff"
   bordercolor="#666666"
   borderopacity="1"
   objecttolerance="10"
   gridtolerance="10"
   guidetolerance="10"
   inkscape:pageopacity="0"
   inkscape:pageshadow="2"
   inkscape:window-width="640"
   inkscape:window-height="480"
   id="namedview5" />
<path
   fill="#008040"
   stroke="#231815"
   stroke-width="0.5"
   stroke-miterlimit="10"
   d="M491.572,106.146  c-2.421-0.941-5.153,0.259-6.097,2.684c-0.063,0.167-5.889,15.166-9.795,25.959c-1.236-0.315-2.1-0.844-2.553-1.597  c-1.877-3.122,0.616-10.92,2.889-15.202c1.228-2.294,0.362-5.148-1.933-6.375c-2.292-1.227-5.147-0.362-6.373,1.932  c-0.837,1.565-8.021,15.545-2.665,24.482c1.185,1.976,3.289,4.199,6.968,5.472c-2.477,3.628-6.449,4.928-15.62,3.363  c3.72-31.668,16.309-64.376,16.459-64.765c0.941-2.424-0.26-5.153-2.684-6.096c-2.426-0.943-5.153,0.258-6.096,2.683  c-0.311,0.795-3.441,8.922-7.017,20.815c-2.291-0.41-4.597-1.232-5.441-2.869c-1.642-3.179,1.299-9.512,2.979-12.082  c1.428-2.168,0.83-5.083-1.336-6.517c-2.172-1.435-5.092-0.839-6.525,1.33c-0.84,1.269-8.069,12.655-3.501,21.56  c2.018,3.934,5.784,6.5,11.228,7.667c-2.907,10.738-5.736,23.324-7.288,35.961c-3.866-1.517-6.449-3.647-7.697-6.364  c-2.707-5.9,1.182-13.374,1.211-13.43c1.237-2.288,0.387-5.146-1.901-6.383c-2.287-1.237-5.146-0.385-6.383,1.902  c-0.253,0.468-6.143,11.573-1.521,21.763c2.589,5.71,7.755,9.793,15.374,12.166c-0.224,3.415-0.33,11.148-0.295,14.793h9.419  c-0.03-2.917,0.038-10.008,0.19-12.732c2.608,0.412,5.07,0.65,7.374,0.65c9.452,0,16.304-3.924,20.378-15.516  c3.702-10.535,10.863-28.976,10.937-29.161C495.199,109.817,493.997,107.088,491.572,106.146z"
   id="path2" />
</svg>
