<?xml version="1.0" encoding="UTF-8" standalone="no"?>
<svg
   xmlns:dc="http://purl.org/dc/elements/1.1/"
   xmlns:cc="http://creativecommons.org/ns#"
   xmlns:rdf="http://www.w3.org/1999/02/22-rdf-syntax-ns#"
   xmlns:svg="http://www.w3.org/2000/svg"
   xmlns="http://www.w3.org/2000/svg"
   xmlns:sodipodi="http://sodipodi.sourceforge.net/DTD/sodipodi-0.dtd"
   xmlns:inkscape="http://www.inkscape.org/namespaces/inkscape"
   version="1.1"
   id="图层_1"
   x="0px"
   y="0px"
   width="93.149px"
   height="84.479px"
   viewBox="132.802 923.742 93.149 84.479"
   enable-background="new 132.802 923.742 93.149 84.479"
   xml:space="preserve"
   sodipodi:docname="自然界-41.svg"><metadata
   id="metadata21"><rdf:RDF><cc:Work
       rdf:about=""><dc:format>image/svg+xml</dc:format><dc:type
         rdf:resource="http://purl.org/dc/dcmitype/StillImage" /></cc:Work></rdf:RDF></metadata><defs
   id="defs19" /><sodipodi:namedview
   pagecolor="#ffffff"
   bordercolor="#666666"
   borderopacity="1"
   objecttolerance="10"
   gridtolerance="10"
   guidetolerance="10"
   inkscape:pageopacity="0"
   inkscape:pageshadow="2"
   inkscape:window-width="640"
   inkscape:window-height="480"
   id="namedview17" />
<g
   id="g14">
	<path
   fill="#788500"
   d="M164.958,946c0.119-0.145,0.227-0.318,0.331-0.492c-0.73-0.766-1.31-1.438-1.615-1.816   c-1.297-1.611-2.283-2.871-3.458-5.184c-0.888-1.746-1.456-2.924-2.127-4.412c-0.751-0.012-1.36,0.648-1.511,1.951   c-0.11,0.938,0.449,2.299,0.81,3.127c0.823,1.912,1.747,3.109,2.853,4.811c0.594,0.91,1.313,1.889,2.07,2.854   c0.135,0.033,0.27,0.063,0.41,0.072C163.682,946.996,164.371,946.714,164.958,946z"
   id="path2" />
	<path
   fill="#788500"
   d="M165.304,984.25c-0.009-0.066-0.026-0.127-0.04-0.193c-1.244,1.734-2.726,3.129-3.631,3.992   c-1.096,1.043-2.58,2.02-1.982,3.059c0.414,0.725,2.305-0.07,4.123-0.271c0.984-1.877,1.457-3.219,1.596-4.541   C165.438,985.617,165.418,984.951,165.304,984.25z"
   id="path4" />
	<path
   fill="#788500"
   d="M171.745,999.15c-0.017-0.145-0.033-0.287-0.052-0.439c-0.143-1.166-0.496-2.125-0.971-2.625   c-0.91-0.965-1.21-1.061-1.898-1.104c-0.034-0.002-0.055-0.002-0.084-0.004c0.019,0.066,0.043,0.133,0.059,0.199   c0.828,3.404-0.383,6.852-1.316,10.139c-0.192,0.68-0.717,2.041-0.214,2.691c0.896,1.16,2.835-2.748,3.159-3.316   c0.632-1.109,1.303-1.91,2.195-2.488c-0.26-0.354-0.481-0.807-0.623-1.408C171.879,1000.287,171.811,999.708,171.745,999.15z"
   id="path6" />
	<path
   fill="#788500"
   d="M185.844,924.017c-5.066,1.354-9.645,6.027-12.258,11.328c1.32,0.957,2.719,2.162,3.803,3.533   c2.104,2.664,3.877,5.209,4.289,9.387c0.082,0.848,0.078,1.674-0.01,2.523c-0.061,0.598-0.156,1.131-0.263,1.627   c1.659-0.652,3.841-1.402,5.751-1.832c0.305-0.068,0.594-0.139,0.872-0.205c1.177-0.279,2.289-0.547,3.79-0.627   c1.288-0.066,2.639-0.051,3.768,0.527c1.691,0.865,2.605,2.326,2.44,3.914c-0.03,0.297-0.101,0.594-0.207,0.877l-0.579,1.531   l-1.635,0.113c-1.213,0.084-2.165,0.174-3.638,0.344c-1.688,0.197-2.629,0.49-4.144,0.992c-0.416,0.143-1.104,0.406-1.855,0.74   c3.048,1.262,6.017,3.727,8.279,6.9c2.65,3.725,3.918,7.781,3.571,11.436c-0.007,0.07-0.014,0.139-0.021,0.209   c-0.008,0.105-0.017,0.207-0.026,0.303c-0.146,1.393-0.746,2.328-1.784,2.781c-0.721,0.314-1.864,0.473-3.227-0.553   c-0.299-0.221-0.561-0.438-0.814-0.646c-0.341-0.283-0.637-0.525-0.932-0.717c-1.291-0.824-2.42-1.436-3.729-1.762   c-2.105-0.521-2.332,0.211-2.535,0.865c-0.061,0.197-0.105,0.432-0.133,0.688c-0.096,0.92,0.037,2.01,0.314,3.117   c0.48-0.434,1.02-0.834,1.635-1.186c2.843-1.623,6.321-0.479,10.007,1.789c3.991,2.465,6.515,5.408,8.138,9.246   c1.293,3.072,0.861,5.141,1.142,5.939c0.292,0.854,0.832,0.504,1.308-0.582c0.801-1.805,1.168-3.373,3.063-4.32   c1.635-0.822,3.541-0.916,5.316-0.607c1.955,0.34,3.994,1.176,5.775,2.072c2.07,1.045,4.138,2.434,4.508,2.025   c0.457-0.51-0.389-1.334-1.244-1.934c-2.343-1.652-5.227-3.936-6.675-6.492c-1.202-2.143-2.259-3.322-1.657-6.779   c0.244-1.385,1.059-2.727,2.264-3.42c0.982-0.57,2.693-0.488,2.436-1.264c-0.225-0.674-1.914-0.59-5.926-1.715   c-2.25-0.639-5.435-2.285-7.422-3.516c-2.815-1.736-5.766-4.078-6.089-7.709c-0.288-3.215,1.4-6.479,5.226-8.635   c3.61-2.039,7.192-2.023,11.329-1.441c0.696,0.102,1.228-0.16,0.622-0.84c-0.936-1.047-1.549-1.467-2.011-3.012   c-0.604-2.018-0.247-3.338,0.692-5.236c0.92-1.857,2.815-3.125,4.221-3.852c1.324-0.688,2.838-1.377,2.649-1.855   c-0.213-0.531-2.55,0.281-4.22,0.689c-2.592,0.633-4.887,1.102-7.566,1.043c-2.136-0.051-4.459-0.064-5.82-1.807   c-1.523-1.951-1.516-3.357-1.37-6.166c0.017-0.309,0.091-1.205-0.264-1.322c-0.52-0.17-0.899,0.531-1.089,0.83   c-2.314,3.604-7.885,8.238-12.252,8.473c-3.819,0.209-5.312-2.422-5.674-5.643c-0.25-2.215,0.051-4.262,0.521-6.418   c0.227-1.057,0.636-1.975,0.934-2.982C187.867,923.349,186.98,923.718,185.844,924.017z"
   id="path8" />
	<path
   fill="#788500"
   d="M180.396,990.566c-0.433,0.137-0.869,1.236-1.221,2.125l-0.037,0.094c-0.613,1.549-0.872,3.039-1.111,5.096   l-0.002,0.012v0.014c-0.004,0.025-0.008,0.055-0.009,0.082c-0.025,0.242-0.048,0.504-0.071,0.766   c-0.024,0.275-0.049,0.557-0.076,0.818c-0.065,0.631-0.141,1.082-0.242,1.457c-0.043,0.162-0.099,0.299-0.153,0.438   c1.784,0.574,3.468,1.965,4.954,3.246c1.551,1.344,3.199,1.773,2.32-0.313c-1.029-2.455-2.875-5.35-3.174-9.363   c-0.109-1.484-0.184-3.049-0.122-4.602C181.088,990.382,180.804,990.435,180.396,990.566z"
   id="path10" />
	<path
   fill="#91C900"
   d="M167.488,936.404c0.268,0.869,0.832,2.268,1.145,4.395c0.518,3.551-1.208,9.094-6.136,8.658   c-4.069-0.361-6.077-5.172-6.932-7.156c-0.46-1.068-0.765-2.4-1.679-2.248c-0.904,0.15-0.371,3.313-1.66,4.561   c-0.93,0.895-2.484,1.094-3.72,0.951c-2.675-0.313-4.838-2.107-6.959-3.66c-0.442-0.32-1.283-1.064-1.886-0.873   c-1.074,0.336,1.229,2.777,1.549,3.164c1.062,1.27,1.482,2.373,1.261,4.086c-0.276,2.158-2.527,3.482-4.483,4.563   c-1.384,0.76-2.137,1.838-0.395,1.758c2.045-0.084,4.626-0.643,7.602,0.219c3.973,1.145,8.569,2.865,9.347,7.557   c0.409,2.486-1.348,4.689-3.968,6.74c-2.844,2.221-5.643,3.254-8.845,3.396c-2.561,0.111-3.937-0.754-4.59-0.762   c-0.694-0.02-0.585,0.463,0.072,1.1c1.089,1.059,2.119,1.74,2.297,3.361c0.156,1.396-0.282,2.799-0.981,3.994   c-0.772,1.322-1.918,2.568-3.039,3.613c-1.307,1.213-2.865,2.334-2.669,2.709c0.245,0.469,1.067,0.076,1.728-0.377   c1.82-1.252,4.238-2.721,6.469-3.08c1.865-0.297,2.998-0.742,5.329,0.615c0.938,0.547,1.688,1.492,1.866,2.547   c0.147,0.861-0.371,2.072,0.256,2.096c0.55,0.018,0.939-1.223,2.824-3.816c1.061-1.451,3.1-3.309,4.515-4.414   c2.011-1.564,4.487-3.064,7.191-2.332c2.397,0.652,4.3,2.744,4.831,6.08c0.507,3.148-0.462,5.729-1.99,8.557   c-0.258,0.475-0.209,0.93,0.441,0.676c1.006-0.398,1.473-0.729,2.71-0.648c1.616,0.105,2.472,0.713,3.591,1.9   c1.096,1.162,1.504,2.867,1.65,4.072c0.143,1.139,0.234,2.418,0.631,2.408c0.441-0.014,0.479-1.916,0.629-3.229   c0.238-2.037,0.516-3.818,1.272-5.734c0.604-1.527,1.237-3.201,2.856-3.717c1.818-0.576,2.83-0.195,4.814,0.662   c0.219,0.092,0.846,0.385,1.025,0.162c0.263-0.33-0.144-0.795-0.308-1.008c-1.98-2.637-3.837-7.891-2.837-11.104   c0.871-2.811,3.166-3.184,5.588-2.584c1.664,0.412,3.059,1.178,4.488,2.09c0.701,0.447,1.256,0.988,1.901,1.475   c0.927,0.693,0.897-0.045,0.983-0.943c0.606-6.389-5.185-14.143-11.144-16.043c-0.709-0.229-2.718-0.42-3.048-1.248   c-0.428-1.068,0.329-1.246,1.606-2c1.628-0.953,3.584-1.713,4.324-1.959c1.509-0.504,2.683-0.881,4.66-1.109   c1.501-0.174,2.501-0.268,3.755-0.355c0.21-0.537-0.107-1.152-1.006-1.611c-0.646-0.33-1.777-0.285-2.473-0.25   c-1.598,0.084-2.705,0.428-4.229,0.773c-1.956,0.439-4.382,1.289-6.149,2.029c-0.949,0.396-2.232,0.941-2.91-0.207   c-0.692-1.176,0.799-3.047,0.474-6.391c-0.347-3.518-1.813-5.592-3.752-8.047c-1.643-2.076-4.433-3.959-6.106-4.785   C168.105,935.103,167.182,935.408,167.488,936.404z M174.762,946.968c0.643,2.639,0.987,5.348,1.204,8.049   c0.074,0.93,0.059,1.889,0.188,2.805c0.195,1.391,1.642,1.791,2.68,2.426c2.279,1.393,4.473,2.932,6.526,4.641   c2.428,2.018,4.713,4.297,6.423,6.971c-0.399-0.625-1.102-1.184-1.632-1.695c-2.364-2.279-5.046-4.219-7.878-5.875   c-1.051-0.617-2.128-1.197-3.225-1.73c-0.334-0.162-2.051-1.182-2.298-0.84c-0.168,0.238-0.083,0.986-0.058,1.271   c0.191,2.162,0.302,4.332,0.336,6.502c0.047,3.018-0.051,6.041-0.398,9.039c-0.345,2.986-0.918,6.008-2.092,8.787   c0.729-2.781,0.98-5.688,1.101-8.551c0.122-2.996,0.067-5.998-0.088-8.992c-0.114-2.246-0.285-4.488-0.515-6.723   c-0.036-0.35-0.197-1.482-0.434-1.666c-0.22-0.17-0.999,0.447-1.331,0.643c-0.643,0.375-1.284,0.746-1.922,1.125   c-1.769,1.031-3.532,2.061-5.3,3.094c-2.028,1.186-4.058,2.371-6.088,3.559c-1.838,1.068-3.674,2.145-5.51,3.219   c-1.189,0.693-2.376,1.387-3.563,2.078c-0.21,0.125-0.422,0.25-0.632,0.369c0.602-0.404,1.202-0.811,1.805-1.217   c1.499-1.008,2.997-2.02,4.496-3.033c1.936-1.305,3.87-2.609,5.807-3.914c1.916-1.293,3.829-2.584,5.741-3.873   c1.434-0.971,2.858-1.953,4.304-2.902c0.85-0.563,1.207-0.689,1.09-1.049c-0.146-0.467-1.289-0.857-2.338-1.383   c-1.121-0.561-2.214-0.895-3.372-1.373c-3.003-1.242-6.073-2.346-9.213-3.191c-2.161-0.582-4.366-1.047-6.597-1.264   c3.367-0.174,6.753,0.35,10.021,1.123c2.891,0.684,5.73,1.59,8.504,2.646c0.687,0.262,1.365,0.531,2.043,0.814   c0.381,0.156,1.326,0.773,1.691,0.535c0.317-0.201,0.253-0.908,0.258-1.283c0.01-0.557-0.031-1.32-0.039-1.879   c-0.022-1.48-0.1-2.961-0.238-4.436c-0.264-2.777-0.734-5.553-1.605-8.207C173.72,943.169,174.307,945.109,174.762,946.968z"
   id="path12" />
</g>
</svg>
