<?xml version="1.0" encoding="UTF-8" standalone="no"?>
<svg
   xmlns:dc="http://purl.org/dc/elements/1.1/"
   xmlns:cc="http://creativecommons.org/ns#"
   xmlns:rdf="http://www.w3.org/1999/02/22-rdf-syntax-ns#"
   xmlns:svg="http://www.w3.org/2000/svg"
   xmlns="http://www.w3.org/2000/svg"
   xmlns:sodipodi="http://sodipodi.sourceforge.net/DTD/sodipodi-0.dtd"
   xmlns:inkscape="http://www.inkscape.org/namespaces/inkscape"
   version="1.1"
   id="图层_1"
   x="0px"
   y="0px"
   width="81.929px"
   height="74.755px"
   viewBox="248.203 927.782 81.929 74.755"
   enable-background="new 248.203 927.782 81.929 74.755"
   xml:space="preserve"
   sodipodi:docname="自然界-42.svg"><metadata
   id="metadata23"><rdf:RDF><cc:Work
       rdf:about=""><dc:format>image/svg+xml</dc:format><dc:type
         rdf:resource="http://purl.org/dc/dcmitype/StillImage" /></cc:Work></rdf:RDF></metadata><defs
   id="defs21" /><sodipodi:namedview
   pagecolor="#ffffff"
   bordercolor="#666666"
   borderopacity="1"
   objecttolerance="10"
   gridtolerance="10"
   guidetolerance="10"
   inkscape:pageopacity="0"
   inkscape:pageshadow="2"
   inkscape:window-width="640"
   inkscape:window-height="480"
   id="namedview19" />
<g
   id="g16">
	<path
   fill="#788500"
   d="M278.584,942.994c-0.277-2.604,0.21-4.873,0.344-6.75c0.148-1.979-1.1-1.158-2.012,0.387   c-0.542,0.918-1.139,1.893-1.828,2.732c0.43,0.641,0.928,1.268,1.521,1.895C277.321,942.005,277.979,942.578,278.584,942.994z"
   id="path2" />
	<path
   fill="#788500"
   d="M299.159,940.509c1.793-0.039,4.161-0.092,4.749,2.104c0.789,2.945-3.144,4.041-4.969,5.307   c-1.279,0.887-2.794,2.188-2.781,3.889c0.017,2.191,2.467,3.139,4.346,3.02c1.781-0.111,3.422-0.813,5.098-1.361   c1.223-0.4,2.579-0.43,3.386,0.734c0.245,0.355,0.38,0.779,0.446,1.229c0.996-1,2.068-1.969,2.994-2.602   c3.01-2.051,4.432-2.455,4.431-3.074c-0.001-0.684-1.535-0.299-1.925-0.318c-1.4-0.082-2.618-1.051-3.273-2.254   c-1.461-2.693-0.917-3.967-0.518-6.074c0.484-2.52,2.235-5.215,3.72-7.238c0.539-0.734,1.01-1.654,0.485-1.949   c-0.417-0.234-1.742,1.494-3.166,2.936c-1.225,1.238-2.679,2.5-4.207,3.33c-1.383,0.752-2.986,1.203-4.57,0.979   c-1.833-0.26-2.574-1.453-3.738-2.727c-0.149-0.162-0.29-0.293-0.421-0.396c-0.234,0.482-0.431,0.963-0.564,1.441   C298.883,938.203,299.135,939.191,299.159,940.509z"
   id="path4" />
	<path
   fill="#788500"
   d="M266.285,954.421c0.076-0.441,0.043-0.891-0.088-1.357c-1.674,0.682-4.182,0.334-4.352,1.188   c-0.203,1.029,1.298,1.422,2.497,1.98c0.2,0.094,0.435,0.201,0.681,0.318C265.701,955.972,266.144,955.25,266.285,954.421z"
   id="path6" />
	<path
   fill="#788500"
   d="M270.074,981.605c0.709-1.443,1.357-3.129,1.594-4.73c0.619-4.207-4.668-2.18-6.651-1.186   c-0.337,0.17-3.794,2.658-3.931,2.531c0.162,0.152,0.324,0.313,0.492,0.451c2.062,1.734,4.608,3.859,7.387,4.207   C269.307,982.906,269.698,982.369,270.074,981.605z"
   id="path8" />
	<path
   fill="#788500"
   d="M327.417,979.353c-1.368-0.209-3.291-0.732-4.571-2.018c-1.31-1.311-1.971-2.303-2.034-4.141   c-0.048-1.408,0.344-1.93,0.827-3.057c0.313-0.729-0.201-0.799-0.752-0.523c-3.262,1.637-6.224,2.65-9.783,1.969   c-3.77-0.723-6.077-2.951-6.736-5.697c-0.081-0.338-0.127-0.676-0.151-1.006c-1.995,1.855-4.056,3.4-7.396,4.059   c-0.721,0.143-1.43,0.211-2.172,0.211c-0.781,0-1.461-0.078-2.08-0.162c1.583,3.004,3.053,6.264,3.562,9.646   c0.202,1.34,0.2,2.922-0.46,4.143c-0.977,1.807-3.072,1.938-4.789,1.139c-0.389-0.189-0.355-1.916-0.409-2.305   c-0.388-2.9-1.405-5.768-2.917-8.27c-0.754,3.041-2.801,6.18-5.658,8.66c-1.049,0.91-2.165,1.676-3.305,2.305   c-0.029,0.639-0.334,1.322-0.596,1.898c-0.902,1.979-1.563,3.676-2.322,5.824c-0.414,1.178-1.064,3-1.246,5.4   c-0.059,0.787-0.125,2.539,0.229,3.285c0.49,1.035,1.241,1.621,2.333,1.563c-0.208-2.008-0.188-3.355-0.005-4.619   c0.328-2.238,0.797-3.561,1.42-5.254c0.306-0.834,1.235-3.027,2.376-4.846c0.896-1.422,1.124-2.275,2.323-1.754   c0.928,0.402,1.078,2.689,1.312,3.504c1.956,6.83,10.561,13.676,17.839,13.205c1.023-0.064,1.86-0.01,1.104-1.086   c-0.527-0.75-1.122-1.396-1.607-2.207c-0.988-1.656-1.808-3.266-2.22-5.17c-0.599-2.77-0.094-5.365,3.126-6.26   c3.683-1.021,9.588,1.264,12.513,3.604c0.237,0.195,0.75,0.672,1.132,0.385c0.26-0.195-0.052-0.918-0.148-1.17   c-0.903-2.283-1.303-3.447-0.586-5.49c0.643-1.818,2.563-2.482,4.318-3.117c2.201-0.793,4.234-1.045,6.556-1.248   c1.499-0.125,3.661-0.1,3.689-0.604C330.15,979.701,328.703,979.55,327.417,979.353z"
   id="path10" />
	<path
   fill="#788500"
   d="M258.18,974.675l0.001-0.008l0.003-0.006c0.59-1.838,0.615-2.148,0.248-3.006   c-0.217-0.508-1.244-0.805-2.238-1.09l-0.078-0.023c-0.016-0.004-0.029-0.006-0.045-0.01c0.021,0.307,0.106,0.66,0.281,1.043   c0.395,0.865,1.031,1.994,1.813,3.15c0-0.006,0.004-0.012,0.005-0.018L258.18,974.675z"
   id="path12" />
	<path
   fill="#91C900"
   d="M306.303,955.021c-0.771,0.32-1.996,0.959-3.91,1.43c-3.192,0.783-8.398-0.301-8.434-4.836   c-0.029-3.74,4.18-5.996,5.916-6.949c0.935-0.514,2.122-0.912,1.904-1.727c-0.22-0.814-3.058-0.051-4.305-1.117   c-0.9-0.77-1.217-2.168-1.195-3.309c0.049-2.471,1.497-4.6,2.727-6.67c0.254-0.43,0.856-1.264,0.63-1.797   c-0.4-0.951-2.429,1.363-2.751,1.689c-1.063,1.082-2.033,1.561-3.615,1.51c-1.993-0.061-3.399-2-4.557-3.689   c-0.814-1.193-1.863-1.785-1.639-0.205c0.259,1.859,0.995,4.164,0.473,6.953c-0.695,3.725-1.861,8.068-6.072,9.189   c-2.232,0.592-4.396-0.816-6.496-3.025c-2.276-2.396-3.465-4.859-3.878-7.768c-0.326-2.326,0.341-3.658,0.293-4.252   c-0.044-0.639-0.476-0.496-0.997,0.158c-0.869,1.088-1.402,2.088-2.865,2.393c-1.261,0.264-2.576-0.014-3.73-0.545   c-1.273-0.586-2.51-1.521-3.561-2.453c-1.223-1.086-2.382-2.406-2.706-2.197c-0.405,0.268,0.022,0.982,0.497,1.545   c1.299,1.549,2.853,3.625,3.377,5.629c0.434,1.676,0.939,2.67-0.094,4.916c-0.416,0.902-1.213,1.668-2.159,1.924   c-0.772,0.211-1.925-0.154-1.888,0.42c0.033,0.502,1.197,0.748,3.728,2.238c1.419,0.842,3.292,2.537,4.423,3.732   c1.606,1.693,3.193,3.82,2.76,6.352c-0.383,2.244-2.123,4.164-5.119,4.943c-2.828,0.736-5.266,0.08-7.979-1.064   c-0.457-0.193-0.867-0.109-0.577,0.461c0.45,0.883,0.792,1.279,0.829,2.418c0.047,1.48-0.434,2.314-1.418,3.438   c-0.961,1.104-2.482,1.625-3.57,1.865c-1.025,0.229-2.184,0.426-2.141,0.785c0.05,0.404,1.789,0.27,3,0.291   c1.879,0.039,3.529,0.135,5.344,0.656c1.447,0.418,3.027,0.85,3.641,2.279c0.687,1.605,0.426,2.563-0.18,4.447   c-0.064,0.207-0.277,0.807-0.059,0.951c0.324,0.209,0.71-0.199,0.891-0.369c2.229-2.039,6.861-4.193,9.879-3.563   c2.639,0.547,3.183,2.607,2.848,4.867c-0.229,1.557-0.804,2.895-1.512,4.279c-0.347,0.678-0.791,1.232-1.175,1.865   c-0.552,0.902,0.118,0.813,0.946,0.813c5.882-0.01,12.442-5.975,13.653-11.572c0.146-0.672,0.146-2.52,0.87-2.893   c0.938-0.484,1.166,0.189,1.963,1.287c1.016,1.4,1.88,3.119,2.17,3.773c0.591,1.33,1.039,2.367,1.42,4.152   c0.291,1.354,0.466,2.256,0.656,3.393c0.509,0.143,1.041-0.197,1.381-1.059c0.244-0.617,0.105-1.646,0.012-2.275   c-0.217-1.453-0.629-2.434-1.078-3.793c-0.573-1.746-1.561-3.885-2.393-5.432c-0.445-0.83-1.055-1.951-0.064-2.67   c1.01-0.734,2.846,0.461,5.867-0.133c3.176-0.625,4.942-2.145,7.01-4.127c1.751-1.682,3.225-4.391,3.828-5.99   C307.545,955.47,307.185,954.656,306.303,955.021z M297.306,962.583c-2.349,0.818-4.79,1.371-7.237,1.807   c-0.84,0.15-1.715,0.221-2.542,0.42c-1.247,0.301-1.487,1.652-1.977,2.658c-1.068,2.199-2.278,4.336-3.655,6.359   c-1.627,2.391-3.508,4.674-5.793,6.471c0.533-0.418,0.979-1.107,1.4-1.637c1.871-2.355,3.406-4.975,4.669-7.703   c0.47-1.014,0.901-2.045,1.293-3.092c0.12-0.32,0.898-1.979,0.563-2.172c-0.231-0.133-0.905,0.01-1.162,0.059   c-1.955,0.365-3.926,0.658-5.902,0.881c-2.748,0.309-5.516,0.484-8.281,0.432c-2.752-0.053-5.557-0.311-8.197-1.135   c2.602,0.418,5.272,0.393,7.896,0.25c2.742-0.152,5.477-0.467,8.193-0.869c2.038-0.303,4.068-0.656,6.088-1.063   c0.315-0.063,1.336-0.311,1.48-0.543c0.134-0.215-0.495-0.873-0.703-1.158c-0.397-0.553-0.795-1.104-1.193-1.652   c-1.096-1.521-2.192-3.041-3.288-4.561c-1.259-1.748-2.521-3.494-3.78-5.242c-1.141-1.58-2.281-3.162-3.422-4.742   c-0.737-1.021-1.475-2.045-2.212-3.066c-0.13-0.182-0.261-0.363-0.393-0.543c0.424,0.512,0.847,1.025,1.271,1.539   c1.053,1.275,2.107,2.555,3.16,3.832c1.361,1.65,2.723,3.303,4.084,4.953c1.346,1.633,2.692,3.266,4.039,4.896   c1.009,1.225,2.031,2.436,3.025,3.67c0.585,0.727,0.732,1.039,1.053,0.902c0.41-0.176,0.668-1.252,1.055-2.256   c0.412-1.072,0.621-2.098,0.956-3.195c0.868-2.85,1.604-5.744,2.101-8.684c0.342-2.023,0.574-4.074,0.574-6.129   c0.451,3.057,0.273,6.189-0.145,9.24c-0.369,2.695-0.945,5.365-1.668,7.988c-0.178,0.648-0.365,1.293-0.563,1.934   c-0.111,0.361-0.588,1.279-0.342,1.592c0.215,0.27,0.854,0.148,1.193,0.123c0.51-0.041,1.203-0.146,1.711-0.203   c1.349-0.148,2.693-0.35,4.026-0.607c2.508-0.482,5-1.156,7.342-2.186C300.677,961.3,298.961,962.005,297.306,962.583z"
   id="path14" />
</g>
</svg>
