<?xml version="1.0" encoding="UTF-8" standalone="no"?>
<svg
   xmlns:dc="http://purl.org/dc/elements/1.1/"
   xmlns:cc="http://creativecommons.org/ns#"
   xmlns:rdf="http://www.w3.org/1999/02/22-rdf-syntax-ns#"
   xmlns:svg="http://www.w3.org/2000/svg"
   xmlns="http://www.w3.org/2000/svg"
   xmlns:sodipodi="http://sodipodi.sourceforge.net/DTD/sodipodi-0.dtd"
   xmlns:inkscape="http://www.inkscape.org/namespaces/inkscape"
   version="1.1"
   id="图层_1"
   x="0px"
   y="0px"
   width="78.364px"
   height="88.99px"
   viewBox="469.56 918.157 78.364 88.99"
   enable-background="new 469.56 918.157 78.364 88.99"
   xml:space="preserve"
   sodipodi:docname="自然界-44.svg"><metadata
   id="metadata23"><rdf:RDF><cc:Work
       rdf:about=""><dc:format>image/svg+xml</dc:format><dc:type
         rdf:resource="http://purl.org/dc/dcmitype/StillImage" /></cc:Work></rdf:RDF></metadata><defs
   id="defs21" /><sodipodi:namedview
   pagecolor="#ffffff"
   bordercolor="#666666"
   borderopacity="1"
   objecttolerance="10"
   gridtolerance="10"
   guidetolerance="10"
   inkscape:pageopacity="0"
   inkscape:pageshadow="2"
   inkscape:window-width="640"
   inkscape:window-height="480"
   id="namedview19" />
<g
   id="g16">
	<path
   fill="#788500"
   d="M509.813,985.224c-0.567,2.68-1.786,4.773-2.53,6.602c-0.787,1.914,0.721,1.506,2.127,0.266   c0.836-0.734,1.744-1.512,2.703-2.123c-0.22-0.773-0.513-1.559-0.9-2.375C510.746,986.617,510.277,985.833,509.813,985.224z"
   id="path2" />
	<path
   fill="#788500"
   d="M488.557,981.029c-1.795-0.541-4.166-1.258-4.037-3.631c0.171-3.184,4.431-2.996,6.656-3.664   c1.56-0.467,3.486-1.268,4.025-2.963c0.692-2.184-1.438-3.918-3.344-4.408c-1.808-0.465-3.662-0.303-5.509-0.299   c-1.344,0.004-2.702-0.408-3.125-1.826c-0.129-0.434-0.127-0.896-0.047-1.367c-1.313,0.674-2.692,1.285-3.819,1.617   c-3.656,1.063-5.199,1.002-5.398,1.621c-0.221,0.678,1.43,0.793,1.809,0.939c1.367,0.533,2.267,1.891,2.525,3.299   c0.58,3.15-0.373,4.24-1.455,6.205c-1.299,2.35-3.912,4.461-6.041,5.99c-0.772,0.557-1.541,1.318-1.115,1.781   c0.339,0.369,2.218-0.924,4.099-1.895c1.619-0.834,3.475-1.615,5.262-1.943c1.617-0.299,3.357-0.23,4.859,0.508   c1.737,0.85,2.09,2.277,2.832,3.92c0.096,0.211,0.192,0.387,0.291,0.531c0.389-0.402,0.737-0.816,1.028-1.252   C488.084,983.41,488.154,982.347,488.557,981.029z"
   id="path4" />
	<path
   fill="#788500"
   d="M525.738,977.853c-0.217,0.412-0.33,0.871-0.354,1.377c1.888-0.135,4.267,1.025,4.711,0.23   c0.535-0.957-0.828-1.834-1.838-2.779c-0.17-0.156-0.367-0.34-0.574-0.535C526.822,976.501,526.148,977.074,525.738,977.853z"
   id="path6" />
	<path
   fill="#788500"
   d="M530.781,949.607c-1.172,1.205-2.363,2.668-3.115,4.18c-1.98,3.986,3.934,3.68,6.225,3.338   c0.392-0.061,4.636-1.414,4.729-1.246c-0.113-0.201-0.224-0.414-0.342-0.605c-1.488-2.393-3.33-5.33-5.98-6.574   C531.967,948.56,531.402,948.966,530.781,949.607z"
   id="path8" />
	<path
   fill="#788500"
   d="M473.055,933.263c1.289,0.65,3.033,1.795,3.892,3.484c0.877,1.727,1.213,2.93,0.682,4.775   c-0.412,1.416-0.965,1.809-1.813,2.77c-0.546,0.625-0.062,0.861,0.575,0.768c3.773-0.568,7.05-0.617,10.363,1.215   c3.514,1.936,5.086,4.9,4.853,7.844c-0.031,0.363-0.093,0.713-0.179,1.049c2.588-1.197,5.135-2.066,8.668-1.639   c0.763,0.096,1.49,0.256,2.228,0.496c0.776,0.254,1.428,0.551,2.018,0.834c-0.6-3.496-1.006-7.215-0.416-10.74   c0.234-1.396,0.748-2.969,1.799-3.969c1.556-1.48,3.683-0.932,5.131,0.42c0.324,0.313-0.268,2.021-0.342,2.424   c-0.555,3.01-0.471,6.188,0.222,9.166c1.735-2.783,4.784-5.236,8.43-6.775c1.338-0.564,2.695-0.967,4.033-1.221   c0.233-0.623,0.76-1.207,1.205-1.695c1.539-1.676,2.746-3.146,4.194-5.037c0.795-1.035,2.031-2.637,2.988-4.963   c0.314-0.766,0.949-2.484,0.838-3.34c-0.151-1.188-0.707-2.014-1.813-2.309c-0.443,2.063-0.898,3.395-1.492,4.592   c-1.051,2.121-1.947,3.281-3.113,4.764c-0.572,0.729-2.209,2.609-3.93,4.045c-1.354,1.123-1.857,1.898-2.879,0.99   c-0.793-0.699-0.199-3.021-0.168-3.906c0.268-7.426-6.064-17.016-13.453-18.906c-1.037-0.266-1.853-0.592-1.449,0.721   c0.281,0.918,0.662,1.754,0.883,2.717c0.445,1.967,0.738,3.83,0.531,5.857c-0.307,2.945-1.645,5.361-5.135,5.207   c-3.992-0.176-9.121-4.361-11.271-7.637c-0.176-0.27-0.528-0.908-1.004-0.746c-0.317,0.111-0.244,0.93-0.227,1.209   c0.155,2.564,0.176,3.852-1.197,5.646c-1.229,1.602-3.352,1.641-5.303,1.701c-2.447,0.074-4.552-0.332-6.922-0.885   c-1.529-0.359-3.673-1.084-3.861-0.596C470.451,932.033,471.842,932.65,473.055,933.263z"
   id="path10" />
	<path
   fill="#788500"
   d="M540.359,960.349l-0.004,0.004l-0.005,0.006c-1.184,1.637-1.309,1.936-1.223,2.908   c0.053,0.574,0.977,1.201,1.871,1.809l0.072,0.049c0.014,0.01,0.026,0.014,0.039,0.025c0.079-0.314,0.108-0.693,0.061-1.131   c-0.111-0.986-0.379-2.314-0.781-3.719c-0.002,0.004-0.01,0.012-0.01,0.016L540.359,960.349z"
   id="path12" />
	<path
   fill="#91C900"
   d="M486.158,964.289c0.869-0.07,2.293-0.307,4.348-0.154c3.43,0.256,8.252,3.021,6.818,7.541   c-1.185,3.729-6.099,4.604-8.133,4.99c-1.097,0.207-2.402,0.217-2.451,1.1c-0.047,0.881,3.02,1.039,3.914,2.506   c0.646,1.055,0.508,2.551,0.119,3.674c-0.851,2.438-2.979,4.088-4.873,5.748c-0.392,0.346-1.263,0.977-1.207,1.58   c0.088,1.076,2.854-0.568,3.278-0.789c1.41-0.73,2.529-0.891,4.084-0.33c1.961,0.711,2.73,3.092,3.334,5.145   c0.425,1.451,1.271,2.379,1.562,0.736c0.35-1.934,0.363-4.461,1.785-7.064c1.897-3.477,4.465-7.418,9.014-7.166   c2.41,0.133,4.102,2.234,5.477,5.111c1.484,3.119,1.869,5.955,1.339,8.977c-0.431,2.418-1.523,3.525-1.67,4.135   c-0.164,0.645,0.313,0.645,1.041,0.164c1.219-0.801,2.071-1.623,3.622-1.451c1.343,0.145,2.56,0.848,3.531,1.75   c1.076,0.996,2.002,2.326,2.746,3.594c0.865,1.475,1.588,3.162,1.979,3.059c0.487-0.131,0.295-0.982,0.006-1.693   c-0.791-1.961-1.66-4.527-1.533-6.688c0.113-1.807-0.068-2.961,1.686-4.855c0.707-0.764,1.746-1.27,2.771-1.213   c0.836,0.041,1.863,0.775,2.014,0.191c0.129-0.508-0.947-1.133-2.979-3.434c-1.138-1.295-2.449-3.588-3.187-5.145   c-1.049-2.201-1.938-4.832-0.686-7.205c1.106-2.107,3.459-3.449,6.688-3.256c3.052,0.186,5.261,1.627,7.584,3.645   c0.396,0.34,0.828,0.391,0.728-0.271c-0.162-1.021-0.375-1.527-0.043-2.672c0.434-1.486,1.182-2.16,2.522-2.959   c1.314-0.783,2.994-0.809,4.154-0.695c1.092,0.104,2.307,0.283,2.381-0.088c0.08-0.416-1.69-0.848-2.889-1.26   c-1.854-0.648-3.465-1.277-5.099-2.385c-1.303-0.885-2.733-1.824-2.881-3.445c-0.16-1.818,0.406-2.684,1.621-4.363   c0.131-0.184,0.535-0.713,0.367-0.926c-0.256-0.313-0.771-0.033-1.006,0.076c-2.877,1.307-8.178,1.947-10.975,0.344   c-2.445-1.396-2.316-3.623-1.253-5.762c0.732-1.473,1.736-2.617,2.89-3.764c0.563-0.564,1.186-0.969,1.771-1.473   c0.845-0.721,0.146-0.848-0.678-1.115c-5.85-1.896-14.303,1.904-17.32,7.08c-0.358,0.617-0.959,2.455-1.801,2.592   c-1.09,0.18-1.098-0.566-1.533-1.916c-0.557-1.723-0.856-3.709-0.936-4.453c-0.156-1.518-0.267-2.691-0.066-4.59   c0.15-1.439,0.271-2.395,0.449-3.582c-0.461-0.313-1.1-0.143-1.715,0.602c-0.445,0.535-0.642,1.604-0.75,2.26   c-0.256,1.514-0.162,2.623-0.158,4.117c0.004,1.924,0.293,4.367,0.617,6.174c0.172,0.971,0.416,2.285-0.799,2.678   c-1.242,0.402-2.683-1.383-5.875-1.771c-3.359-0.406-5.607,0.531-8.306,1.834c-2.284,1.104-4.627,3.318-5.746,4.713   C485.07,963.441,485.162,964.367,486.158,964.289z M497.551,959.689c2.601-0.053,5.205,0.188,7.779,0.549   c0.883,0.125,1.775,0.338,2.662,0.406c1.338,0.105,2.014-1.16,2.826-2.002c1.772-1.842,3.668-3.57,5.692-5.137   c2.396-1.85,5.004-3.512,7.855-4.555c-0.666,0.244-1.332,0.785-1.922,1.174c-2.623,1.736-4.998,3.84-7.14,6.143   c-0.795,0.857-1.559,1.74-2.285,2.656c-0.225,0.279-1.534,1.672-1.262,1.975c0.187,0.209,0.9,0.283,1.174,0.318   c2.062,0.27,4.113,0.619,6.15,1.037c2.828,0.586,5.639,1.307,8.369,2.256c2.721,0.941,5.424,2.107,7.779,3.783   c-2.449-1.258-5.111-2.102-7.767-2.809c-2.774-0.738-5.594-1.311-8.426-1.789c-2.125-0.361-4.256-0.666-6.396-0.92   c-0.334-0.037-1.428-0.123-1.646,0.063c-0.205,0.17,0.209,1.025,0.322,1.379c0.215,0.676,0.432,1.354,0.647,2.029   c0.601,1.867,1.195,3.732,1.793,5.598c0.687,2.146,1.373,4.291,2.06,6.436c0.623,1.939,1.244,3.881,1.862,5.824   c0.402,1.254,0.806,2.508,1.207,3.766c0.07,0.219,0.142,0.443,0.213,0.666c-0.256-0.648-0.51-1.295-0.764-1.941   c-0.633-1.611-1.266-3.223-1.897-4.834c-0.82-2.084-1.638-4.166-2.457-6.244c-0.808-2.061-1.617-4.117-2.427-6.178   c-0.604-1.543-1.231-3.08-1.817-4.629c-0.347-0.91-0.392-1.27-0.756-1.234c-0.464,0.039-1.066,1.025-1.777,1.898   c-0.758,0.932-1.297,1.883-1.984,2.865c-1.784,2.551-3.457,5.189-4.901,7.951c-0.998,1.898-1.894,3.863-2.558,5.906   c0.541-3.186,1.732-6.242,3.138-9.141c1.239-2.561,2.68-5.025,4.248-7.398c0.385-0.588,0.78-1.166,1.186-1.742   c0.227-0.32,0.998-1.078,0.855-1.469c-0.127-0.338-0.802-0.428-1.148-0.51c-0.518-0.125-1.242-0.244-1.766-0.354   c-1.39-0.287-2.791-0.523-4.199-0.701c-2.648-0.332-5.344-0.469-8.006-0.207C493.785,959.871,495.719,959.724,497.551,959.689z"
   id="path14" />
</g>
</svg>
