<?xml version="1.0" encoding="UTF-8" standalone="no"?>
<svg
   xmlns:dc="http://purl.org/dc/elements/1.1/"
   xmlns:cc="http://creativecommons.org/ns#"
   xmlns:rdf="http://www.w3.org/1999/02/22-rdf-syntax-ns#"
   xmlns:svg="http://www.w3.org/2000/svg"
   xmlns="http://www.w3.org/2000/svg"
   xmlns:sodipodi="http://sodipodi.sourceforge.net/DTD/sodipodi-0.dtd"
   xmlns:inkscape="http://www.inkscape.org/namespaces/inkscape"
   version="1.1"
   id="图层_1"
   x="0px"
   y="0px"
   width="73.59px"
   height="89.414px"
   viewBox="27.143 1028.599 73.59 89.414"
   enable-background="new 27.143 1028.599 73.59 89.414"
   xml:space="preserve"
   sodipodi:docname="自然界-46.svg"><metadata
   id="metadata13"><rdf:RDF><cc:Work
       rdf:about=""><dc:format>image/svg+xml</dc:format><dc:type
         rdf:resource="http://purl.org/dc/dcmitype/StillImage" /></cc:Work></rdf:RDF></metadata><defs
   id="defs11" /><sodipodi:namedview
   pagecolor="#ffffff"
   bordercolor="#666666"
   borderopacity="1"
   objecttolerance="10"
   gridtolerance="10"
   guidetolerance="10"
   inkscape:pageopacity="0"
   inkscape:pageshadow="2"
   inkscape:window-width="640"
   inkscape:window-height="480"
   id="namedview9" />
<g
   id="g6">
	<path
   fill="#788500"
   d="M88.279,1117.74c0.438-0.338,6.645-6.715,6.637-17.75c-0.008-10.646-4.543-23.043-16.792-32.678   c-6.435-5.109-14.665-7.869-21.406-7.846c-5.777-0.086-11.446,0.984-16.368,3.125c-5.338,2.322-10.063,6.234-13.207,9.629   c2.498-0.115,4.201-0.072,6.639,0.422c6.602,1.346,12.594,7.057,17.786,10.99c4.724,3.576,9.788,6.604,15.206,9.012   c3.613,1.605,12.529,4.154,21.225,4.217c-1.73-2.947-8.584-10.924-17.085-16.264c-7.965-5-16.916-8.58-26.483-10.781   c13.325,0.354,21.987,2.279,29.982,7.4c6.344,4.063,14.582,9.686,16.727,22.607c1.473,8.887-3.491,17.043-3.617,17.605   c-0.051,0.23-0.094,0.525,0.126,0.566C87.773,1118.062,88.057,1117.935,88.279,1117.74z"
   id="path2" />
	<path
   fill="#91C900"
   d="M87.91,1073.791c2.348-3.604,3.398-6.533,3.984-8.469c1.454-4.809,2.318-9.732,2.637-14.74   c0.352-5.51,0.006-12.512,2.798-17.492c1.032-1.836,1.946-2.953,3.404-4.49c-3.919,0.137-9.042,1.002-13.486,3.141   c-4.099,1.971-7.923,5.016-11.066,8.77c-3.748,4.309-6.532,11.117-6.818,18.072c-0.001,0.051,0.001,0.104-0.001,0.154   c3.141,0.99,5.854,2.408,8.25,4.145c0.047-0.395,0.1-0.793,0.158-1.199c1.143-7.961,4.7-14.584,11.852-23.324   c-3.884,7.354-6.543,15.076-7.744,22.953c-0.245,1.604-0.395,3.223-0.471,4.813C83.822,1068.527,86.021,1070.859,87.91,1073.791z"
   id="path4" />
</g>
</svg>
