<?xml version="1.0" encoding="UTF-8" standalone="no"?>
<svg
   xmlns:dc="http://purl.org/dc/elements/1.1/"
   xmlns:cc="http://creativecommons.org/ns#"
   xmlns:rdf="http://www.w3.org/1999/02/22-rdf-syntax-ns#"
   xmlns:svg="http://www.w3.org/2000/svg"
   xmlns="http://www.w3.org/2000/svg"
   xmlns:sodipodi="http://sodipodi.sourceforge.net/DTD/sodipodi-0.dtd"
   xmlns:inkscape="http://www.inkscape.org/namespaces/inkscape"
   version="1.1"
   id="图层_1"
   x="0px"
   y="0px"
   width="71.353px"
   height="99.914px"
   viewBox="217.813 1020.919 71.353 99.914"
   enable-background="new 217.813 1020.919 71.353 99.914"
   xml:space="preserve"
   sodipodi:docname="自然界-48.svg"><metadata
   id="metadata13"><rdf:RDF><cc:Work
       rdf:about=""><dc:format>image/svg+xml</dc:format><dc:type
         rdf:resource="http://purl.org/dc/dcmitype/StillImage" /></cc:Work></rdf:RDF></metadata><defs
   id="defs11" /><sodipodi:namedview
   pagecolor="#ffffff"
   bordercolor="#666666"
   borderopacity="1"
   objecttolerance="10"
   gridtolerance="10"
   guidetolerance="10"
   inkscape:pageopacity="0"
   inkscape:pageshadow="2"
   inkscape:window-width="640"
   inkscape:window-height="480"
   id="namedview9" />
<g
   id="g6">
	<path
   fill="#788500"
   d="M217.814,1120.251c0.108-0.295,0.562-6.359,3.417-13.197c0.528-1.393,1.156-2.814,1.854-4.234   c0.434-7.002,6.293-21.238,18.642-29.207c6.489-4.23,14.462-6.102,20.79-5.484c5.432,0.43,10.662,1.932,15.094,4.375   c4.809,2.648,8.9,6.736,11.555,10.201c-2.335-0.328-3.938-0.438-6.271-0.186c-6.318,0.684-12.443,5.518-17.667,8.754   c-4.749,2.945-9.772,5.34-15.07,7.127c-3.535,1.188-12.131,2.799-20.301,2.092c1.883-2.613,9.021-9.504,17.474-13.768   c7.917-3.998,16.639-6.572,25.813-7.797c-12.543-0.842-20.845,0.207-28.803,4.311c-6.315,3.26-10.311,6.51-16.738,16.379   c-4.945,7.596-8.987,20.408-9.127,20.754c-0.083,0.205-0.232,0.443-0.443,0.463   C217.845,1120.748,217.808,1120.472,217.814,1120.251z"
   id="path2" />
	<path
   fill="#91C900"
   d="M224.868,1088.322c-0.98,2.904-1.912,6.566-1.389,6.527c0.406-0.029,1.52-3.354,3.416-7.125   c1.563-3.109,3.934-6.283,5.835-8.502c6.71-7.83,15.755-11.09,19.624-21.072c2.373-6.121,2.272-12.547,0.656-17.686   c-1.305-4.43-3.465-8.5-6.266-11.748c-3.035-3.525-7.141-6.203-10.475-7.797c0.68,1.877,1.051,3.188,1.25,5.162   c0.537,5.357-2.402,11.283-4.172,16.176c-1.611,4.453-2.721,9.037-3.275,13.742c-0.369,3.137-0.2,10.545,1.812,17.193   c1.84-2.018,6.304-9.139,8.362-16.889c1.928-7.266,2.54-14.943,1.951-22.766c2.891,10.25,3.471,17.316,1.461,24.633   c-2.672,9.711-7.729,12.012-13.506,19.791C227.466,1081.585,225.85,1085.408,224.868,1088.322z"
   id="path4" />
</g>
</svg>
