<?xml version="1.0" encoding="UTF-8" standalone="no"?>
<svg
   xmlns:dc="http://purl.org/dc/elements/1.1/"
   xmlns:cc="http://creativecommons.org/ns#"
   xmlns:rdf="http://www.w3.org/1999/02/22-rdf-syntax-ns#"
   xmlns:svg="http://www.w3.org/2000/svg"
   xmlns="http://www.w3.org/2000/svg"
   xmlns:sodipodi="http://sodipodi.sourceforge.net/DTD/sodipodi-0.dtd"
   xmlns:inkscape="http://www.inkscape.org/namespaces/inkscape"
   version="1.1"
   id="图层_1"
   x="0px"
   y="0px"
   width="80.453px"
   height="90.07px"
   viewBox="308.038 1025.841 80.453 90.07"
   enable-background="new 308.038 1025.841 80.453 90.07"
   xml:space="preserve"
   sodipodi:docname="自然界-49.svg"><metadata
   id="metadata13"><rdf:RDF><cc:Work
       rdf:about=""><dc:format>image/svg+xml</dc:format><dc:type
         rdf:resource="http://purl.org/dc/dcmitype/StillImage" /></cc:Work></rdf:RDF></metadata><defs
   id="defs11" /><sodipodi:namedview
   pagecolor="#ffffff"
   bordercolor="#666666"
   borderopacity="1"
   objecttolerance="10"
   gridtolerance="10"
   guidetolerance="10"
   inkscape:pageopacity="0"
   inkscape:pageshadow="2"
   inkscape:window-width="640"
   inkscape:window-height="480"
   id="namedview9" />
<g
   id="g6">
	<path
   fill="#788500"
   d="M332.188,1115.634c0.132-0.285,4.085-4.904,6.88-11.77c0.604-1.359,1.164-2.813,1.67-4.311   c4.627-5.271,10.506-19.502,7.361-33.857c-1.624-7.576-5.96-14.521-10.883-18.545c-4.155-3.523-8.925-6.145-13.792-7.533   c-5.276-1.512-11.062-1.494-15.386-0.908c1.888,1.414,3.102,2.465,4.579,4.289c4,4.938,4.938,12.684,6.362,18.66   c1.293,5.438,3.169,10.676,5.669,15.68c1.668,3.332,6.631,10.535,12.924,15.791c0.51-3.18,0.301-13.1-2.691-22.082   c-2.799-8.414-7.17-16.389-12.814-23.727c9.49,8.246,14.64,14.84,17.394,23.359c2.182,6.764,2.729,11.885,0.331,23.416   c-1.845,8.875-8.009,20.813-8.153,21.154c-0.087,0.205-0.148,0.48-0.014,0.643C331.817,1115.966,332.038,1115.798,332.188,1115.634   z"
   id="path2" />
	<path
   fill="#91C900"
   d="M350.817,1066.093c-1.223-4.826-1.89-6.543-2.207-10.91c-0.271-3.682,0.199-7.703,2.229-12.342   c2.63-6.014,7.231-10.5,12-13.006c4.047-2.225,8.449-3.59,12.727-3.918c4.638-0.363,9.436,0.631,12.926,1.852   c-1.808,0.854-2.992,1.52-4.526,2.781c-3.746,3.084-5.519,7.869-7.45,12.166c-3.479,7.738-7.607,15.672-14.527,20.895   c-1.773,1.338-4.248,2.586-5.435,3.734c-1.329,1.285-2.016,2.117-2.958,4.521c-0.677,1.734-1.026,2.867-1.829,5.383   c-0.502,1.578-1.558,4.385-2.33,5.352c1.916-15.922,13.591-39.939,25.955-50.059C365.5,1038.052,355.898,1045.269,350.817,1066.093   z"
   id="path4" />
</g>
</svg>
