<?xml version="1.0" encoding="UTF-8" standalone="no"?>
<svg
   xmlns:dc="http://purl.org/dc/elements/1.1/"
   xmlns:cc="http://creativecommons.org/ns#"
   xmlns:rdf="http://www.w3.org/1999/02/22-rdf-syntax-ns#"
   xmlns:svg="http://www.w3.org/2000/svg"
   xmlns="http://www.w3.org/2000/svg"
   xmlns:sodipodi="http://sodipodi.sourceforge.net/DTD/sodipodi-0.dtd"
   xmlns:inkscape="http://www.inkscape.org/namespaces/inkscape"
   version="1.1"
   id="图层_1"
   x="0px"
   y="0px"
   width="70.937px"
   height="87.114px"
   viewBox="407.572 1027.319 70.937 87.114"
   enable-background="new 407.572 1027.319 70.937 87.114"
   xml:space="preserve"
   sodipodi:docname="自然界-50.svg"><metadata
   id="metadata13"><rdf:RDF><cc:Work
       rdf:about=""><dc:format>image/svg+xml</dc:format><dc:type
         rdf:resource="http://purl.org/dc/dcmitype/StillImage" /></cc:Work></rdf:RDF></metadata><defs
   id="defs11" /><sodipodi:namedview
   pagecolor="#ffffff"
   bordercolor="#666666"
   borderopacity="1"
   objecttolerance="10"
   gridtolerance="10"
   guidetolerance="10"
   inkscape:pageopacity="0"
   inkscape:pageshadow="2"
   inkscape:window-width="640"
   inkscape:window-height="480"
   id="namedview9" />
<g
   id="g6">
	<path
   fill="#788500"
   d="M423.309,1103.513c7.528-4.262,14.213-9.51,19.765-15.676c-1.183-4.24-1.802-9.227-1.201-13.715   c-1.754,1.113-4.042,2.84-4.96,3.623c-4.114,3.516-7.756,7.477-10.953,11.832c-3.519,4.791-7.271,11.34-12.693,14.229   c-2.005,1.068-3.483,1.551-5.693,2.1c3.633,2.146,8.774,4.344,14.049,4.982c4.857,0.596,10.095,0.057,15.124-1.521   c4.247-1.248,9.402-3.973,13.102-8.119c-2.404-2.719-4.033-5.57-5.286-8.867C439.392,1097.136,432.896,1100.384,423.309,1103.513z"
   id="path2" />
	<path
   fill="#91C900"
   d="M474.739,1027.49c-0.218,0.26-5.624,3.979-10.451,10.357c-1.009,1.25-1.999,2.609-2.941,4.033   c-6.293,4.209-16.387,17.412-17.103,33.258c-0.416,8.354,2.175,16.803,6.188,22.369c3.354,4.834,7.596,8.893,12.284,11.695   c5.085,3.045,11.118,4.639,15.793,5.23c-1.574-2-2.548-3.434-3.581-5.748c-2.798-6.264-1.62-14.602-1.439-21.23   c0.166-6.031-0.331-12.016-1.547-17.93c-0.813-3.941-3.983-12.834-9.084-20.066c-1.414,3.178-3.96,13.578-3.34,23.777   c0.576,9.557,2.914,19.09,6.763,28.309c-7.604-11.236-11.139-19.549-11.639-29.201c-0.395-7.658,0.464-13.152,6.176-24.51   c4.394-8.742,14.142-19.475,14.39-19.795c0.146-0.188,0.289-0.457,0.192-0.664C475.219,1027.248,474.942,1027.359,474.739,1027.49z   "
   id="path4" />
</g>
</svg>
