<?xml version="1.0" encoding="UTF-8" standalone="no"?>
<svg
   xmlns:dc="http://purl.org/dc/elements/1.1/"
   xmlns:cc="http://creativecommons.org/ns#"
   xmlns:rdf="http://www.w3.org/1999/02/22-rdf-syntax-ns#"
   xmlns:svg="http://www.w3.org/2000/svg"
   xmlns="http://www.w3.org/2000/svg"
   xmlns:sodipodi="http://sodipodi.sourceforge.net/DTD/sodipodi-0.dtd"
   xmlns:inkscape="http://www.inkscape.org/namespaces/inkscape"
   version="1.1"
   id="图层_1"
   x="0px"
   y="0px"
   width="53.05px"
   height="83.078px"
   viewBox="511.291 1029.337 53.05 83.078"
   enable-background="new 511.291 1029.337 53.05 83.078"
   xml:space="preserve"
   sodipodi:docname="自然界-51.svg"><metadata
   id="metadata13"><rdf:RDF><cc:Work
       rdf:about=""><dc:format>image/svg+xml</dc:format><dc:type
         rdf:resource="http://purl.org/dc/dcmitype/StillImage" /></cc:Work></rdf:RDF></metadata><defs
   id="defs11" /><sodipodi:namedview
   pagecolor="#ffffff"
   bordercolor="#666666"
   borderopacity="1"
   objecttolerance="10"
   gridtolerance="10"
   guidetolerance="10"
   inkscape:pageopacity="0"
   inkscape:pageshadow="2"
   inkscape:window-width="640"
   inkscape:window-height="480"
   id="namedview9" />
<g
   id="g6">
	<path
   fill="#788500"
   d="M531.971,1102.375c-0.149-0.215-4.09-3.379-7.426-8.553c-0.703-1.018-1.383-2.117-2.025-3.262   c-4.592-3.594-11.575-14.309-11.215-26.514c0.162-6.432,2.633-12.77,6.033-16.811c2.85-3.518,6.342-6.391,10.102-8.271   c4.076-2.047,8.802-2.92,12.423-3.105c-1.322,1.441-2.152,2.49-3.08,4.205c-2.506,4.645-2.082,11.113-2.324,16.213   c-0.221,4.637-0.947,9.203-2.221,13.672c-0.851,2.979-3.791,9.621-8.123,14.881c-0.904-2.521-2.263-10.65-1.197-18.441   c0.992-7.303,3.336-14.484,6.815-21.342c-6.479,8.189-9.67,14.367-10.606,21.746c-0.742,5.857-0.402,10.121,3.328,19.166   c2.869,6.961,9.735,15.76,9.908,16.021c0.102,0.15,0.194,0.365,0.108,0.521C532.322,1102.589,532.119,1102.486,531.971,1102.375z"
   id="path2" />
	<path
   fill="#91C900"
   d="M523.566,1112.347c0.262-0.197,6.196-2.516,12.172-7.477c1.231-0.957,2.467-2.021,3.674-3.158   c6.881-2.584,19.346-12.828,23.531-27.646c2.244-7.803,1.668-16.359-0.892-22.514c-2.098-5.309-5.209-10.086-9.02-13.773   c-4.133-4.004-9.482-6.85-13.769-8.441c1.045,2.238,1.648,3.807,2.109,6.227c1.258,6.537-1.703,14.156-3.34,20.383   c-1.494,5.664-2.351,11.432-2.513,17.289c-0.104,3.906,0.923,13.014,4.14,20.979c2.043-2.689,6.754-11.955,8.426-21.732   c1.572-9.158,1.475-18.688-0.119-28.254c4.697,12.307,6.195,20.943,4.529,30.178c-1.324,7.326-3.354,12.328-11.267,21.799   c-6.09,7.287-17.682,15.271-17.987,15.518c-0.178,0.146-0.373,0.371-0.326,0.588   C523.061,1112.466,523.346,1112.423,523.566,1112.347z"
   id="path4" />
</g>
</svg>
