<?xml version="1.0" encoding="UTF-8" standalone="no"?>
<svg
   xmlns:dc="http://purl.org/dc/elements/1.1/"
   xmlns:cc="http://creativecommons.org/ns#"
   xmlns:rdf="http://www.w3.org/1999/02/22-rdf-syntax-ns#"
   xmlns:svg="http://www.w3.org/2000/svg"
   xmlns="http://www.w3.org/2000/svg"
   xmlns:sodipodi="http://sodipodi.sourceforge.net/DTD/sodipodi-0.dtd"
   xmlns:inkscape="http://www.inkscape.org/namespaces/inkscape"
   version="1.1"
   id="图层_1"
   x="0px"
   y="0px"
   width="93.337px"
   height="90.547px"
   viewBox="44.505 211.062 93.337 90.547"
   enable-background="new 44.505 211.062 93.337 90.547"
   xml:space="preserve"
   sodipodi:docname="自然界-06.svg"><metadata
   id="metadata13"><rdf:RDF><cc:Work
       rdf:about=""><dc:format>image/svg+xml</dc:format><dc:type
         rdf:resource="http://purl.org/dc/dcmitype/StillImage" /></cc:Work></rdf:RDF></metadata><defs
   id="defs11" /><sodipodi:namedview
   pagecolor="#ffffff"
   bordercolor="#666666"
   borderopacity="1"
   objecttolerance="10"
   gridtolerance="10"
   guidetolerance="10"
   inkscape:pageopacity="0"
   inkscape:pageshadow="2"
   inkscape:window-width="640"
   inkscape:window-height="480"
   id="namedview9" />
<g
   id="g6">
	<path
   fill="#FCDD00"
   stroke="#231815"
   stroke-width="0.5"
   stroke-miterlimit="10"
   d="M115.078,253.087   c0,0.901,22.627,5.456,22.514,6.326c-0.115,0.89-1.115,5.39-1.342,6.239c-0.232,0.864-48.1-14.011-48.439-13.196   c-0.342,0.824-3.244-3.141-3.688-2.376c-0.445,0.771,0.857-1.431,0.318-0.729c-0.541,0.705,5.23,2.866,4.602,3.494   c-0.627,0.627,22.271,27.473,21.568,28.015c-0.703,0.54-11.217-12.043-11.988-11.597c-0.766,0.443,0.936,6.287,0.111,6.629   c-0.814,0.338-1.08,4.981-1.943,5.211c-0.85,0.228-0.293,20.138-1.182,20.254c-0.871,0.113-5.422-3.431-6.322-3.431   s1.787-51.954,0.918-52.067c-0.891-0.116-11.691,50.912-12.543,50.684c-0.863-0.23,4.416-23.75,3.602-24.088   c-0.824-0.342,7.334-16.368,6.568-16.812c-0.77-0.446-18.781,25.254-19.484,24.714c-0.705-0.542-7.219,2.141-7.846,1.514   c-0.627-0.628-0.764-4.969-1.305-5.674c-0.541-0.703-11.826,2.146-12.273,1.376c-0.441-0.766,23.436-15.681,23.094-16.505   C69.68,260.254,97.383,251.865,97.15,251c-0.227-0.85-19.24,4.501-19.357,3.611c-0.113-0.87-11.137-0.624-11.137-1.524   c0-0.901,14.434-0.211,14.547-1.081c0.115-0.89-1.928-0.7-1.701-1.55c0.23-0.864-35.082-15.027-34.744-15.842   c0.342-0.824,15.426,2.677,15.867,1.912c0.447-0.771,0.354-4.056,0.893-4.759c0.541-0.705,14.896,9.701,15.525,9.073   c0.627-0.627,11.977,13.316,12.68,12.774c0.703-0.54-4.025-4.994-3.256-5.44c0.766-0.443-3.449-7.902-2.625-8.244   c0.814-0.338-2.004-11.202-1.141-11.433c0.85-0.227,6.236,29.049,7.127,28.933c0.869-0.113-1.441-46.118-0.541-46.118   s3.053,11.788,3.922,11.901c0.891,0.116-5.047,30.725-4.197,30.952c0.865,0.231,13.609-35.559,14.424-35.221   c0.824,0.342-12.818,30.037-12.053,30.479c0.771,0.446-5.107,6.103-4.404,6.643c0.705,0.542,27.924-29.858,28.553-29.23   c0.627,0.627,0.422,4.652,0.965,5.357c0.539,0.702-22.98,17.44-22.533,18.21c0.441,0.766,19.08-8.125,19.422-7.301   c0.338,0.814,2.422,1.957,2.652,2.821c0.227,0.85-31.75,6.886-31.633,7.775C84.518,254.569,115.078,252.187,115.078,253.087z"
   id="path2" />
	<circle
   fill="#FCDD00"
   stroke="#231815"
   stroke-width="0.5"
   stroke-miterlimit="10"
   cx="89.287"
   cy="253.088"
   r="19.621"
   id="circle4" />
</g>
</svg>
