<?xml version="1.0" encoding="UTF-8" standalone="no"?>
<svg
   xmlns:dc="http://purl.org/dc/elements/1.1/"
   xmlns:cc="http://creativecommons.org/ns#"
   xmlns:rdf="http://www.w3.org/1999/02/22-rdf-syntax-ns#"
   xmlns:svg="http://www.w3.org/2000/svg"
   xmlns="http://www.w3.org/2000/svg"
   xmlns:sodipodi="http://sodipodi.sourceforge.net/DTD/sodipodi-0.dtd"
   xmlns:inkscape="http://www.inkscape.org/namespaces/inkscape"
   version="1.1"
   id="图层_1"
   x="0px"
   y="0px"
   width="91.102px"
   height="111.5px"
   viewBox="0 0 91.102 111.5"
   enable-background="new 0 0 91.102 111.5"
   xml:space="preserve"
   sodipodi:docname="加热处理-10.svg"><metadata
   id="metadata34"><rdf:RDF><cc:Work
       rdf:about=""><dc:format>image/svg+xml</dc:format><dc:type
         rdf:resource="http://purl.org/dc/dcmitype/StillImage" /></cc:Work></rdf:RDF></metadata><defs
   id="defs32" /><sodipodi:namedview
   pagecolor="#ffffff"
   bordercolor="#666666"
   borderopacity="1"
   objecttolerance="10"
   gridtolerance="10"
   guidetolerance="10"
   inkscape:pageopacity="0"
   inkscape:pageshadow="2"
   inkscape:window-width="640"
   inkscape:window-height="480"
   id="namedview30" />
<g
   id="g27">
	
		<path
   fill="#CFE9F6"
   stroke="#231815"
   stroke-width="0.5"
   stroke-linecap="round"
   stroke-linejoin="round"
   stroke-miterlimit="10"
   d="   M79.732,111.25H12V24.801C12,11.241,22.991,0.25,36.551,0.25h18.631c13.559,0,24.551,10.991,24.551,24.551V111.25z"
   id="path2" />
	<linearGradient
   id="SVGID_1_"
   gradientUnits="userSpaceOnUse"
   x1="45.5508"
   y1="107.25"
   x2="45.5508"
   y2="4.25">
		<stop
   offset="0"
   style="stop-color:#FF0000"
   id="stop4" />
		<stop
   offset="0.0063"
   style="stop-color:#FF0300"
   id="stop6" />
		<stop
   offset="0.1722"
   style="stop-color:#FF4400"
   id="stop8" />
		<stop
   offset="0.3355"
   style="stop-color:#FF7D00"
   id="stop10" />
		<stop
   offset="0.4919"
   style="stop-color:#FFAC00"
   id="stop12" />
		<stop
   offset="0.6401"
   style="stop-color:#FFD000"
   id="stop14" />
		<stop
   offset="0.778"
   style="stop-color:#FFEA00"
   id="stop16" />
		<stop
   offset="0.902"
   style="stop-color:#FFFA00"
   id="stop18" />
		<stop
   offset="1"
   style="stop-color:#FFFF00"
   id="stop20" />
	</linearGradient>
	
		<path
   fill="url(#SVGID_1_)"
   stroke="#231815"
   stroke-width="0.5"
   stroke-linecap="round"
   stroke-linejoin="round"
   stroke-miterlimit="10"
   d="   M90.852,75.125H75.732V24.801c0-11.332-9.219-20.551-20.551-20.551H36.551C25.219,4.25,16,13.469,16,24.801V91.5H0.25v9.625H16   v6.125h59.732v-22.5h15.119V75.125z"
   id="path23" />
	
		<polyline
   fill="none"
   stroke="#231815"
   stroke-width="0.5"
   stroke-linecap="round"
   stroke-linejoin="round"
   stroke-miterlimit="10"
   points="   75.732,88.5 71.211,88.5 71.211,18.75 67.488,18.75 67.488,88.5 60.042,88.5 60.042,18.75 56.319,18.75 56.319,88.5 48.874,88.5    48.874,18.75 45.151,18.75 45.151,88.5 37.706,88.5 37.706,18.75 33.982,18.75 33.982,88.5 26.537,88.5 26.537,18.75 22.814,18.75    22.814,88.5 15.369,88.5  "
   id="polyline25" />
</g>
</svg>
