<?xml version="1.0" encoding="UTF-8" standalone="no"?>
<svg
   xmlns:dc="http://purl.org/dc/elements/1.1/"
   xmlns:cc="http://creativecommons.org/ns#"
   xmlns:rdf="http://www.w3.org/1999/02/22-rdf-syntax-ns#"
   xmlns:svg="http://www.w3.org/2000/svg"
   xmlns="http://www.w3.org/2000/svg"
   xmlns:sodipodi="http://sodipodi.sourceforge.net/DTD/sodipodi-0.dtd"
   xmlns:inkscape="http://www.inkscape.org/namespaces/inkscape"
   version="1.1"
   id="图层_1"
   x="0px"
   y="0px"
   width="88.166px"
   height="121.959px"
   viewBox="0 0 88.166 121.959"
   enable-background="new 0 0 88.166 121.959"
   xml:space="preserve"
   sodipodi:docname="加热处理-06.svg"><metadata
   id="metadata53"><rdf:RDF><cc:Work
       rdf:about=""><dc:format>image/svg+xml</dc:format><dc:type
         rdf:resource="http://purl.org/dc/dcmitype/StillImage" /></cc:Work></rdf:RDF></metadata><defs
   id="defs51" /><sodipodi:namedview
   pagecolor="#ffffff"
   bordercolor="#666666"
   borderopacity="1"
   objecttolerance="10"
   gridtolerance="10"
   guidetolerance="10"
   inkscape:pageopacity="0"
   inkscape:pageshadow="2"
   inkscape:window-width="640"
   inkscape:window-height="480"
   id="namedview49" />
<g
   id="g46">
	
		<rect
   x="0.25"
   y="0.25"
   fill="#CCCCCC"
   stroke="#231815"
   stroke-width="0.5"
   stroke-miterlimit="10"
   width="87.666"
   height="121.459"
   id="rect2" />
	<g
   id="g44">
		<g
   id="g22">
			<path
   fill="#B2B2B2"
   stroke="#231815"
   stroke-width="0.5"
   stroke-miterlimit="10"
   d="M40.117,108.179     c0-3.722-12.563-6.872-29.887-7.922v3.942c13.549,0.534,23.396,2.119,23.396,3.979c0,1.86-9.848,3.408-23.396,3.942     c-3.149,0.11-6.508,0.184-9.98,0.184v4.145c3.473-0.037,6.813-0.166,9.98-0.35C27.555,115.05,40.117,111.882,40.117,108.179z"
   id="path4" />
			<path
   fill="#B2B2B2"
   stroke="#231815"
   stroke-width="0.5"
   stroke-miterlimit="10"
   d="M40.117,96.545     c0,3.721-12.563,6.872-29.887,7.922v-3.942c13.567-0.535,23.416-2.119,23.416-3.979s-9.849-3.408-23.416-3.942v-3.979     C27.555,89.674,40.117,92.843,40.117,96.545z"
   id="path6" />
			<path
   fill="#B2B2B2"
   stroke="#231815"
   stroke-width="0.5"
   stroke-miterlimit="10"
   d="M40.117,84.737     c0,3.721-12.563,6.872-29.887,7.922v-3.942c13.567-0.535,23.416-2.119,23.416-3.979c0-1.86-9.849-3.408-23.416-3.942v-3.979     C27.555,77.865,40.117,81.034,40.117,84.737z"
   id="path8" />
			<path
   fill="#B2B2B2"
   stroke="#231815"
   stroke-width="0.5"
   stroke-miterlimit="10"
   d="M40.117,72.928     c0,3.722-12.563,6.872-29.887,7.922v-3.942c13.567-0.535,23.416-2.119,23.416-3.979c0-1.86-9.849-3.408-23.416-3.942v-3.979     C27.555,66.057,40.117,69.226,40.117,72.928z"
   id="path10" />
			<path
   fill="#B2B2B2"
   stroke="#231815"
   stroke-width="0.5"
   stroke-miterlimit="10"
   d="M40.117,61.12     c0,3.722-12.563,6.872-29.887,7.922v-3.942c13.567-0.535,23.416-2.119,23.416-3.979c0-1.86-9.849-3.408-23.416-3.942v-3.979     C27.555,54.248,40.117,57.417,40.117,61.12z"
   id="path12" />
			<path
   fill="#E5E5E5"
   stroke="#231815"
   stroke-width="0.5"
   stroke-miterlimit="10"
   d="M40.117,37.502     c0,3.722-12.563,6.872-29.887,7.922v-3.942c13.567-0.534,23.416-2.119,23.416-3.979c0-1.86-9.849-3.408-23.416-3.942v-3.979     C27.555,30.631,40.117,33.8,40.117,37.502z"
   id="path14" />
			<path
   fill="#E5E5E5"
   stroke="#231815"
   stroke-width="0.5"
   stroke-miterlimit="10"
   d="M40.117,49.311     c0,3.722-12.563,6.872-29.887,7.922v-3.942c13.567-0.534,23.416-2.119,23.416-3.979c0-1.86-9.849-3.408-23.416-3.942V41.39     C27.555,42.439,40.117,45.608,40.117,49.311z"
   id="path16" />
			<path
   fill="#E5E5E5"
   stroke="#231815"
   stroke-width="0.5"
   stroke-miterlimit="10"
   d="M40.117,25.643     c0,3.721-12.563,6.872-29.887,7.921v-3.942c13.567-0.534,23.416-2.119,23.416-3.979c0-1.861-9.849-3.408-23.416-3.942v-3.979     C27.555,18.771,40.117,21.939,40.117,25.643z"
   id="path18" />
			<path
   fill="#E5E5E5"
   stroke="#231815"
   stroke-width="0.5"
   stroke-miterlimit="10"
   d="M40.117,13.78     c0,3.722-12.563,6.872-29.887,7.922v-3.942c13.549-0.534,23.396-2.119,23.396-3.979c0-1.86-9.848-3.408-23.396-3.942     c-3.149-0.11-6.508-0.184-9.98-0.184V5.508c3.473,0.037,6.813,0.166,9.98,0.35C27.555,6.909,40.117,10.077,40.117,13.78z"
   id="path20" />
		</g>
		<g
   id="g42">
			<path
   fill="#B2B2B2"
   stroke="#231815"
   stroke-width="0.5"
   stroke-miterlimit="10"
   d="M48.049,108.179     c0-3.722,12.562-6.872,29.886-7.922v3.942c-13.548,0.534-23.396,2.119-23.396,3.979c0,1.86,9.849,3.408,23.396,3.942     c3.15,0.11,6.509,0.184,9.981,0.184v4.145c-3.473-0.037-6.813-0.166-9.981-0.35C60.61,115.05,48.049,111.882,48.049,108.179z"
   id="path24" />
			<path
   fill="#B2B2B2"
   stroke="#231815"
   stroke-width="0.5"
   stroke-miterlimit="10"
   d="M48.049,96.545     c0,3.721,12.562,6.872,29.886,7.922v-3.942C64.367,99.99,54.52,98.406,54.52,96.545s9.848-3.408,23.415-3.942v-3.979     C60.61,89.674,48.049,92.843,48.049,96.545z"
   id="path26" />
			<path
   fill="#B2B2B2"
   stroke="#231815"
   stroke-width="0.5"
   stroke-miterlimit="10"
   d="M48.049,84.737     c0,3.721,12.562,6.872,29.886,7.922v-3.942c-13.567-0.535-23.415-2.119-23.415-3.979c0-1.86,9.848-3.408,23.415-3.942v-3.979     C60.61,77.865,48.049,81.034,48.049,84.737z"
   id="path28" />
			<path
   fill="#B2B2B2"
   stroke="#231815"
   stroke-width="0.5"
   stroke-miterlimit="10"
   d="M48.049,72.928     c0,3.722,12.562,6.872,29.886,7.922v-3.942c-13.567-0.535-23.415-2.119-23.415-3.979c0-1.86,9.848-3.408,23.415-3.942v-3.979     C60.61,66.057,48.049,69.226,48.049,72.928z"
   id="path30" />
			<path
   fill="#B2B2B2"
   stroke="#231815"
   stroke-width="0.5"
   stroke-miterlimit="10"
   d="M48.049,61.12     c0,3.722,12.562,6.872,29.886,7.922v-3.942C64.367,64.564,54.52,62.98,54.52,61.12c0-1.86,9.848-3.408,23.415-3.942v-3.979     C60.61,54.248,48.049,57.417,48.049,61.12z"
   id="path32" />
			<path
   fill="#E5E5E5"
   stroke="#231815"
   stroke-width="0.5"
   stroke-miterlimit="10"
   d="M48.049,37.502     c0,3.722,12.562,6.872,29.886,7.922v-3.942c-13.567-0.534-23.415-2.119-23.415-3.979c0-1.86,9.848-3.408,23.415-3.942v-3.979     C60.61,30.631,48.049,33.8,48.049,37.502z"
   id="path34" />
			<path
   fill="#E5E5E5"
   stroke="#231815"
   stroke-width="0.5"
   stroke-miterlimit="10"
   d="M48.049,49.311     c0,3.722,12.562,6.872,29.886,7.922v-3.942c-13.567-0.534-23.415-2.119-23.415-3.979c0-1.86,9.848-3.408,23.415-3.942V41.39     C60.61,42.439,48.049,45.608,48.049,49.311z"
   id="path36" />
			<path
   fill="#E5E5E5"
   stroke="#231815"
   stroke-width="0.5"
   stroke-miterlimit="10"
   d="M48.049,25.643     c0,3.721,12.562,6.872,29.886,7.921v-3.942c-13.567-0.534-23.415-2.119-23.415-3.979c0-1.861,9.848-3.408,23.415-3.942v-3.979     C60.61,18.771,48.049,21.939,48.049,25.643z"
   id="path38" />
			<path
   fill="#E5E5E5"
   stroke="#231815"
   stroke-width="0.5"
   stroke-miterlimit="10"
   d="M48.049,13.78     c0,3.722,12.562,6.872,29.886,7.922v-3.942c-13.548-0.534-23.396-2.119-23.396-3.979c0-1.86,9.849-3.408,23.396-3.942     c3.15-0.11,6.509-0.184,9.981-0.184V5.508c-3.473,0.037-6.813,0.166-9.981,0.35C60.61,6.909,48.049,10.077,48.049,13.78z"
   id="path40" />
		</g>
	</g>
</g>
</svg>
