<?xml version="1.0" encoding="UTF-8" standalone="no"?>
<svg
   xmlns:a="http://ns.adobe.com/AdobeSVGViewerExtensions/3.0/"
   xmlns:dc="http://purl.org/dc/elements/1.1/"
   xmlns:cc="http://creativecommons.org/ns#"
   xmlns:rdf="http://www.w3.org/1999/02/22-rdf-syntax-ns#"
   xmlns:svg="http://www.w3.org/2000/svg"
   xmlns="http://www.w3.org/2000/svg"
   xmlns:sodipodi="http://sodipodi.sourceforge.net/DTD/sodipodi-0.dtd"
   xmlns:inkscape="http://www.inkscape.org/namespaces/inkscape"
   version="1.1"
   id="图层_1"
   x="0px"
   y="0px"
   width="30px"
   height="53px"
   viewBox="0 0 30 53"
   enable-background="new 0 0 30 53"
   xml:space="preserve"
   sodipodi:docname="工业管道_22-01.svg"><metadata
   id="metadata185"><rdf:RDF><cc:Work
       rdf:about=""><dc:format>image/svg+xml</dc:format><dc:type
         rdf:resource="http://purl.org/dc/dcmitype/StillImage" /></cc:Work></rdf:RDF></metadata><defs
   id="defs183" /><sodipodi:namedview
   pagecolor="#ffffff"
   bordercolor="#666666"
   borderopacity="1"
   objecttolerance="10"
   gridtolerance="10"
   guidetolerance="10"
   inkscape:pageopacity="0"
   inkscape:pageshadow="2"
   inkscape:window-width="640"
   inkscape:window-height="480"
   id="namedview181" />
<g
   id="g178">
	<g
   id="g103">
		<linearGradient
   id="SVGID_1_"
   gradientUnits="userSpaceOnUse"
   x1="3.5215"
   y1="26.4736"
   x2="26.4785"
   y2="26.4736">
			<stop
   offset="0"
   style="stop-color:#12141A"
   id="stop2" />
			<stop
   offset="0.5"
   style="stop-color:#F5FAFD"
   id="stop4" />
			<stop
   offset="1"
   style="stop-color:#12141A"
   id="stop6" />
			<a:midPointStop
   offset="0"
   style="stop-color:#12141A" />
			<a:midPointStop
   offset="0.5"
   style="stop-color:#12141A" />
			<a:midPointStop
   offset="0.5"
   style="stop-color:#F5FAFD" />
			<a:midPointStop
   offset="0.5"
   style="stop-color:#F5FAFD" />
			<a:midPointStop
   offset="1"
   style="stop-color:#12141A" />
		</linearGradient>
		<rect
   x="3.521"
   y="3.491"
   fill="url(#SVGID_1_)"
   width="22.957"
   height="45.966"
   id="rect9" />
		<g
   id="g55">
			
				<radialGradient
   id="SVGID_2_"
   cx="27.9229"
   cy="3.8184"
   r="1.3748"
   gradientTransform="matrix(0.9984 0 0 1.0034 0.335 0.5311)"
   gradientUnits="userSpaceOnUse">
				<stop
   offset="0"
   style="stop-color:#F5FAFD"
   id="stop11" />
				<stop
   offset="1"
   style="stop-color:#12141A"
   id="stop13" />
				<a:midPointStop
   offset="0"
   style="stop-color:#F5FAFD" />
				<a:midPointStop
   offset="0.5"
   style="stop-color:#F5FAFD" />
				<a:midPointStop
   offset="1"
   style="stop-color:#12141A" />
			</radialGradient>
			<path
   fill="url(#SVGID_2_)"
   stroke="#12141A"
   stroke-width="0.5669"
   stroke-linejoin="round"
   d="M29.951,3.491     c0,0.963-0.778,1.744-1.735,1.744c-0.96,0-1.737-0.781-1.737-1.744"
   id="path16" />
			
				<radialGradient
   id="SVGID_3_"
   cx="1.4521"
   cy="3.8184"
   r="1.3745"
   gradientTransform="matrix(0.9984 0 0 1.0034 0.335 0.5311)"
   gradientUnits="userSpaceOnUse">
				<stop
   offset="0"
   style="stop-color:#F5FAFD"
   id="stop18" />
				<stop
   offset="1"
   style="stop-color:#12141A"
   id="stop20" />
				<a:midPointStop
   offset="0"
   style="stop-color:#F5FAFD" />
				<a:midPointStop
   offset="0.5"
   style="stop-color:#F5FAFD" />
				<a:midPointStop
   offset="1"
   style="stop-color:#12141A" />
			</radialGradient>
			<path
   fill="url(#SVGID_3_)"
   stroke="#12141A"
   stroke-width="0.5669"
   stroke-linejoin="round"
   d="M3.521,3.491     c0,0.963-0.775,1.744-1.735,1.744c-0.959,0-1.737-0.781-1.737-1.744"
   id="path23" />
			
				<radialGradient
   id="SVGID_4_"
   cx="7.5576"
   cy="3.8184"
   r="1.3748"
   gradientTransform="matrix(0.9984 0 0 1.0034 0.335 0.5311)"
   gradientUnits="userSpaceOnUse">
				<stop
   offset="0"
   style="stop-color:#F5FAFD"
   id="stop25" />
				<stop
   offset="1"
   style="stop-color:#12141A"
   id="stop27" />
				<a:midPointStop
   offset="0"
   style="stop-color:#F5FAFD" />
				<a:midPointStop
   offset="0.5"
   style="stop-color:#F5FAFD" />
				<a:midPointStop
   offset="1"
   style="stop-color:#12141A" />
			</radialGradient>
			<path
   fill="url(#SVGID_4_)"
   stroke="#12141A"
   stroke-width="0.5669"
   stroke-linejoin="round"
   d="M9.618,3.491     c0,0.963-0.778,1.744-1.738,1.744c-0.959,0-1.735-0.781-1.735-1.744"
   id="path30" />
			
				<radialGradient
   id="SVGID_5_"
   cx="14.6885"
   cy="3.8184"
   r="1.3748"
   gradientTransform="matrix(0.9984 0 0 1.0034 0.335 0.5311)"
   gradientUnits="userSpaceOnUse">
				<stop
   offset="0"
   style="stop-color:#F5FAFD"
   id="stop32" />
				<stop
   offset="1"
   style="stop-color:#12141A"
   id="stop34" />
				<a:midPointStop
   offset="0"
   style="stop-color:#F5FAFD" />
				<a:midPointStop
   offset="0.5"
   style="stop-color:#F5FAFD" />
				<a:midPointStop
   offset="1"
   style="stop-color:#12141A" />
			</radialGradient>
			<path
   fill="url(#SVGID_5_)"
   stroke="#12141A"
   stroke-width="0.5669"
   stroke-linejoin="round"
   d="M16.737,3.491     c0,0.963-0.778,1.744-1.737,1.744s-1.735-0.781-1.735-1.744"
   id="path37" />
			
				<radialGradient
   id="SVGID_6_"
   cx="21.8184"
   cy="3.8184"
   r="1.3742"
   gradientTransform="matrix(0.9984 0 0 1.0034 0.335 0.5311)"
   gradientUnits="userSpaceOnUse">
				<stop
   offset="0"
   style="stop-color:#F5FAFD"
   id="stop39" />
				<stop
   offset="1"
   style="stop-color:#12141A"
   id="stop41" />
				<a:midPointStop
   offset="0"
   style="stop-color:#F5FAFD" />
				<a:midPointStop
   offset="0.5"
   style="stop-color:#F5FAFD" />
				<a:midPointStop
   offset="1"
   style="stop-color:#12141A" />
			</radialGradient>
			<path
   fill="url(#SVGID_6_)"
   stroke="#12141A"
   stroke-width="0.5669"
   stroke-linejoin="round"
   d="M23.855,3.491     c0,0.963-0.776,1.744-1.735,1.744c-0.96,0-1.736-0.781-1.736-1.744"
   id="path44" />
			<linearGradient
   id="SVGID_7_"
   gradientUnits="userSpaceOnUse"
   x1="0.0488"
   y1="1.7451"
   x2="29.9512"
   y2="1.7451">
				<stop
   offset="0"
   style="stop-color:#12141A"
   id="stop46" />
				<stop
   offset="0.5"
   style="stop-color:#F5FAFD"
   id="stop48" />
				<stop
   offset="1"
   style="stop-color:#12141A"
   id="stop50" />
				<a:midPointStop
   offset="0"
   style="stop-color:#12141A" />
				<a:midPointStop
   offset="0.5"
   style="stop-color:#12141A" />
				<a:midPointStop
   offset="0.5"
   style="stop-color:#F5FAFD" />
				<a:midPointStop
   offset="0.5"
   style="stop-color:#F5FAFD" />
				<a:midPointStop
   offset="1"
   style="stop-color:#12141A" />
			</linearGradient>
			
				<rect
   x="0.049"
   fill="url(#SVGID_7_)"
   stroke="#12141A"
   stroke-width="0.5669"
   stroke-linejoin="round"
   width="29.902"
   height="3.491"
   id="rect53" />
		</g>
		<g
   id="g101">
			
				<radialGradient
   id="SVGID_8_"
   cx="-676.7832"
   cy="-5.2725"
   r="1.3745"
   gradientTransform="matrix(-0.9984 0 0 -1.0034 -673.942 43.3468)"
   gradientUnits="userSpaceOnUse">
				<stop
   offset="0"
   style="stop-color:#F5FAFD"
   id="stop57" />
				<stop
   offset="1"
   style="stop-color:#12141A"
   id="stop59" />
				<a:midPointStop
   offset="0"
   style="stop-color:#F5FAFD" />
				<a:midPointStop
   offset="0.5"
   style="stop-color:#F5FAFD" />
				<a:midPointStop
   offset="1"
   style="stop-color:#12141A" />
			</radialGradient>
			<path
   fill="url(#SVGID_8_)"
   stroke="#12141A"
   stroke-width="0.5669"
   stroke-linejoin="round"
   d="M0.049,49.51     c0-0.964,0.778-1.744,1.737-1.744c0.96,0,1.735,0.78,1.735,1.744"
   id="path62" />
			
				<radialGradient
   id="SVGID_9_"
   cx="-703.2549"
   cy="-5.2725"
   r="1.3748"
   gradientTransform="matrix(-0.9984 0 0 -1.0034 -673.942 43.3468)"
   gradientUnits="userSpaceOnUse">
				<stop
   offset="0"
   style="stop-color:#F5FAFD"
   id="stop64" />
				<stop
   offset="1"
   style="stop-color:#12141A"
   id="stop66" />
				<a:midPointStop
   offset="0"
   style="stop-color:#F5FAFD" />
				<a:midPointStop
   offset="0.5"
   style="stop-color:#F5FAFD" />
				<a:midPointStop
   offset="1"
   style="stop-color:#12141A" />
			</radialGradient>
			<path
   fill="url(#SVGID_9_)"
   stroke="#12141A"
   stroke-width="0.5669"
   stroke-linejoin="round"
   d="M26.479,49.51     c0-0.964,0.777-1.744,1.737-1.744c0.957,0,1.735,0.78,1.735,1.744"
   id="path69" />
			
				<radialGradient
   id="SVGID_10_"
   cx="-697.1494"
   cy="-5.2725"
   r="1.3742"
   gradientTransform="matrix(-0.9984 0 0 -1.0034 -673.942 43.3468)"
   gradientUnits="userSpaceOnUse">
				<stop
   offset="0"
   style="stop-color:#F5FAFD"
   id="stop71" />
				<stop
   offset="1"
   style="stop-color:#12141A"
   id="stop73" />
				<a:midPointStop
   offset="0"
   style="stop-color:#F5FAFD" />
				<a:midPointStop
   offset="0.5"
   style="stop-color:#F5FAFD" />
				<a:midPointStop
   offset="1"
   style="stop-color:#12141A" />
			</radialGradient>
			<path
   fill="url(#SVGID_10_)"
   stroke="#12141A"
   stroke-width="0.5669"
   stroke-linejoin="round"
   d="M20.384,49.51     c0-0.964,0.776-1.744,1.736-1.744c0.959,0,1.735,0.78,1.735,1.744"
   id="path76" />
			
				<radialGradient
   id="SVGID_11_"
   cx="-690.0195"
   cy="-5.2725"
   r="1.3745"
   gradientTransform="matrix(-0.9984 0 0 -1.0034 -673.942 43.3468)"
   gradientUnits="userSpaceOnUse">
				<stop
   offset="0"
   style="stop-color:#F5FAFD"
   id="stop78" />
				<stop
   offset="1"
   style="stop-color:#12141A"
   id="stop80" />
				<a:midPointStop
   offset="0"
   style="stop-color:#F5FAFD" />
				<a:midPointStop
   offset="0.5"
   style="stop-color:#F5FAFD" />
				<a:midPointStop
   offset="1"
   style="stop-color:#12141A" />
			</radialGradient>
			<path
   fill="url(#SVGID_11_)"
   stroke="#12141A"
   stroke-width="0.5669"
   stroke-linejoin="round"
   d="M13.265,49.51     c0-0.964,0.776-1.744,1.735-1.744s1.737,0.78,1.737,1.744"
   id="path83" />
			
				<radialGradient
   id="SVGID_12_"
   cx="-682.8892"
   cy="-5.2725"
   r="1.3752"
   gradientTransform="matrix(-0.9984 0 0 -1.0034 -673.942 43.3468)"
   gradientUnits="userSpaceOnUse">
				<stop
   offset="0"
   style="stop-color:#F5FAFD"
   id="stop85" />
				<stop
   offset="1"
   style="stop-color:#12141A"
   id="stop87" />
				<a:midPointStop
   offset="0"
   style="stop-color:#F5FAFD" />
				<a:midPointStop
   offset="0.5"
   style="stop-color:#F5FAFD" />
				<a:midPointStop
   offset="1"
   style="stop-color:#12141A" />
			</radialGradient>
			<path
   fill="url(#SVGID_12_)"
   stroke="#12141A"
   stroke-width="0.5669"
   stroke-linejoin="round"
   d="M6.145,49.51     c0-0.964,0.776-1.744,1.735-1.744c0.96,0,1.738,0.78,1.738,1.744"
   id="path90" />
			
				<linearGradient
   id="SVGID_13_"
   gradientUnits="userSpaceOnUse"
   x1="-705.2822"
   y1="-8.5859"
   x2="-675.3799"
   y2="-8.5859"
   gradientTransform="matrix(-1 0 0 -1 -675.3311 42.6689)">
				<stop
   offset="0"
   style="stop-color:#12141A"
   id="stop92" />
				<stop
   offset="0.5"
   style="stop-color:#F5FAFD"
   id="stop94" />
				<stop
   offset="1"
   style="stop-color:#12141A"
   id="stop96" />
				<a:midPointStop
   offset="0"
   style="stop-color:#12141A" />
				<a:midPointStop
   offset="0.5"
   style="stop-color:#12141A" />
				<a:midPointStop
   offset="0.5"
   style="stop-color:#F5FAFD" />
				<a:midPointStop
   offset="0.5"
   style="stop-color:#F5FAFD" />
				<a:midPointStop
   offset="1"
   style="stop-color:#12141A" />
			</linearGradient>
			
				<rect
   x="0.049"
   y="49.51"
   fill="url(#SVGID_13_)"
   stroke="#12141A"
   stroke-width="0.5669"
   stroke-linejoin="round"
   width="29.902"
   height="3.49"
   id="rect99" />
		</g>
	</g>
	<g
   id="g176">
		<linearGradient
   id="SVGID_14_"
   gradientUnits="userSpaceOnUse"
   x1="14.9995"
   y1="13.457"
   x2="14.9995"
   y2="39.4927">
			<stop
   offset="0.0056"
   style="stop-color:#F5FAFD"
   id="stop105" />
			<stop
   offset="1"
   style="stop-color:#12141A"
   id="stop107" />
			<a:midPointStop
   offset="0.0056"
   style="stop-color:#F5FAFD" />
			<a:midPointStop
   offset="0.5"
   style="stop-color:#F5FAFD" />
			<a:midPointStop
   offset="1"
   style="stop-color:#12141A" />
		</linearGradient>
		<path
   fill="url(#SVGID_14_)"
   stroke="#12141A"
   stroke-width="0.5669"
   d="M30,26.474c0,8.325-6.716,15.075-15,15.075    S0,34.799,0,26.474c0-8.326,6.716-15.076,15-15.076S30,18.147,30,26.474z M15,13.457c-7.153,0-12.952,5.827-12.952,13.017    C2.048,33.663,7.847,39.49,15,39.49s12.952-5.827,12.952-13.017C27.952,19.284,22.153,13.457,15,13.457z"
   id="path110" />
		<ellipse
   fill="#FFFFFF"
   cx="15"
   cy="26.473"
   rx="12.952"
   ry="13.017"
   id="ellipse112" />
		<ellipse
   fill="none"
   stroke="#12141A"
   stroke-width="0.5669"
   cx="15"
   cy="26.473"
   rx="12.952"
   ry="13.017"
   id="ellipse114" />
		<polygon
   fill="#231815"
   points="16.557,26.478 6.086,34.417 15.184,24.92   "
   id="polygon116" />
		<g
   id="g120">
			<path
   fill="#231815"
   d="M9.793,33.529c0.008-0.115,0.031-0.219,0.068-0.31c0.039-0.09,0.096-0.162,0.172-0.216     c0.074-0.055,0.182-0.081,0.315-0.081c0.109,0,0.203,0.017,0.275,0.048s0.129,0.082,0.174,0.152     c0.043,0.07,0.074,0.162,0.092,0.274s0.027,0.249,0.027,0.41c0,0.126-0.006,0.249-0.012,0.364     c-0.01,0.117-0.033,0.221-0.07,0.311s-0.096,0.161-0.17,0.213c-0.076,0.051-0.182,0.076-0.316,0.076     c-0.108,0-0.2-0.014-0.274-0.043s-0.131-0.079-0.176-0.149c-0.043-0.07-0.074-0.161-0.092-0.274     c-0.018-0.112-0.027-0.248-0.027-0.41C9.779,33.768,9.785,33.646,9.793,33.529z M10.158,34.258     c0.006,0.072,0.016,0.13,0.031,0.172s0.037,0.07,0.063,0.086s0.057,0.023,0.097,0.023c0.039,0,0.074-0.01,0.1-0.029     s0.045-0.054,0.061-0.101c0.014-0.048,0.023-0.11,0.031-0.189c0.006-0.079,0.008-0.177,0.008-0.294v-0.197     c0-0.116-0.002-0.21-0.008-0.282c-0.008-0.073-0.018-0.131-0.033-0.173c-0.016-0.043-0.035-0.07-0.061-0.086     c-0.027-0.016-0.059-0.023-0.098-0.023c-0.04,0-0.075,0.01-0.101,0.029s-0.045,0.053-0.061,0.102     c-0.014,0.047-0.023,0.109-0.029,0.188s-0.01,0.177-0.01,0.293v0.199C10.148,34.09,10.152,34.184,10.158,34.258z"
   id="path118" />
		</g>
		<g
   id="g128">
			<path
   fill="#231815"
   d="M17.966,33.457h-0.36v-0.24h0.031c0.125,0,0.222-0.023,0.292-0.069c0.07-0.048,0.115-0.121,0.133-0.225     h0.273v1.821h-0.369V33.457z"
   id="path122" />
			<path
   fill="#231815"
   d="M18.686,33.529c0.008-0.115,0.031-0.219,0.068-0.31c0.037-0.09,0.094-0.162,0.17-0.216     c0.076-0.055,0.181-0.081,0.315-0.081c0.111,0,0.203,0.017,0.275,0.048c0.074,0.031,0.131,0.082,0.173,0.152     c0.045,0.07,0.074,0.162,0.094,0.274c0.018,0.112,0.025,0.249,0.025,0.41c0,0.126-0.004,0.249-0.012,0.364     c-0.008,0.117-0.031,0.221-0.068,0.311c-0.039,0.09-0.095,0.161-0.171,0.213c-0.076,0.051-0.182,0.076-0.316,0.076     c-0.109,0-0.2-0.014-0.272-0.043c-0.074-0.029-0.131-0.079-0.176-0.149c-0.043-0.07-0.074-0.161-0.092-0.274     c-0.02-0.112-0.027-0.248-0.027-0.41C18.672,33.768,18.676,33.646,18.686,33.529z M19.049,34.258     c0.006,0.072,0.018,0.13,0.033,0.172c0.015,0.042,0.034,0.07,0.06,0.086c0.027,0.016,0.059,0.023,0.098,0.023     c0.041,0,0.074-0.01,0.102-0.029c0.025-0.02,0.045-0.054,0.059-0.101c0.016-0.048,0.025-0.11,0.031-0.189s0.01-0.177,0.01-0.294     v-0.197c0-0.116-0.004-0.21-0.01-0.282c-0.006-0.073-0.016-0.131-0.031-0.173c-0.016-0.043-0.037-0.07-0.063-0.086     s-0.057-0.023-0.098-0.023s-0.074,0.01-0.1,0.029s-0.045,0.053-0.06,0.102c-0.014,0.047-0.025,0.109-0.031,0.188     s-0.01,0.177-0.01,0.293v0.199C19.039,34.09,19.043,34.184,19.049,34.258z"
   id="path124" />
			<path
   fill="#231815"
   d="M20.016,33.529c0.008-0.115,0.031-0.219,0.068-0.31c0.039-0.09,0.096-0.162,0.172-0.216     c0.076-0.055,0.181-0.081,0.315-0.081c0.111,0,0.203,0.017,0.275,0.048s0.13,0.082,0.173,0.152s0.074,0.162,0.092,0.274     s0.027,0.249,0.027,0.41c0,0.126-0.004,0.249-0.012,0.364c-0.01,0.117-0.033,0.221-0.07,0.311s-0.094,0.161-0.169,0.213     c-0.076,0.051-0.182,0.076-0.316,0.076c-0.109,0-0.201-0.014-0.274-0.043c-0.072-0.029-0.131-0.079-0.176-0.149     c-0.043-0.07-0.074-0.161-0.092-0.274c-0.018-0.112-0.027-0.248-0.027-0.41C20.002,33.768,20.008,33.646,20.016,33.529z      M20.38,34.258c0.006,0.072,0.016,0.13,0.031,0.172s0.037,0.07,0.063,0.086s0.059,0.023,0.098,0.023     c0.041,0,0.074-0.01,0.1-0.029s0.047-0.054,0.061-0.101c0.014-0.048,0.025-0.11,0.031-0.189s0.008-0.177,0.008-0.294v-0.197     c0-0.116-0.002-0.21-0.008-0.282c-0.006-0.073-0.018-0.131-0.033-0.173c-0.014-0.043-0.035-0.07-0.061-0.086     s-0.059-0.023-0.098-0.023c-0.041,0-0.074,0.01-0.102,0.029c-0.025,0.02-0.045,0.053-0.059,0.102     c-0.016,0.047-0.025,0.109-0.031,0.188c-0.008,0.079-0.01,0.177-0.01,0.293v0.199C20.37,34.09,20.372,34.184,20.38,34.258z"
   id="path126" />
		</g>
		<g
   id="g134">
			<path
   fill="#231815"
   d="M5.771,27.197c0-0.082,0.008-0.157,0.023-0.227s0.041-0.138,0.074-0.2     c0.033-0.064,0.073-0.126,0.126-0.187c0.049-0.061,0.107-0.123,0.174-0.185l0.148-0.139c0.041-0.035,0.074-0.069,0.1-0.1     c0.023-0.031,0.043-0.062,0.057-0.093c0.014-0.03,0.021-0.064,0.027-0.101c0.004-0.035,0.006-0.077,0.006-0.123     c0-0.152-0.061-0.227-0.18-0.227c-0.045,0-0.082,0.009-0.109,0.028c-0.025,0.019-0.047,0.045-0.061,0.078     c-0.014,0.032-0.023,0.069-0.029,0.112c-0.004,0.043-0.006,0.088-0.006,0.136H5.771v-0.069c0-0.17,0.045-0.3,0.135-0.391     c0.091-0.091,0.231-0.136,0.427-0.136c0.184,0,0.319,0.042,0.409,0.128c0.088,0.085,0.133,0.208,0.133,0.368     c0,0.058-0.006,0.112-0.016,0.164c-0.012,0.049-0.027,0.098-0.049,0.145c-0.021,0.046-0.051,0.091-0.086,0.135     c-0.037,0.044-0.082,0.089-0.132,0.136L6.389,26.64c-0.057,0.05-0.1,0.099-0.129,0.146c-0.031,0.047-0.051,0.088-0.059,0.122     h0.685v0.29H5.771z"
   id="path130" />
			<path
   fill="#231815"
   d="M7.011,25.983c0.01-0.117,0.033-0.22,0.07-0.311c0.037-0.089,0.094-0.162,0.169-0.216     c0.076-0.054,0.182-0.081,0.316-0.081c0.111,0,0.203,0.016,0.275,0.047c0.071,0.033,0.13,0.083,0.175,0.153     c0.043,0.07,0.072,0.162,0.092,0.274c0.018,0.112,0.027,0.249,0.027,0.41c0,0.127-0.006,0.249-0.014,0.365s-0.033,0.22-0.07,0.31     c-0.037,0.09-0.094,0.161-0.17,0.213c-0.075,0.051-0.181,0.076-0.315,0.076c-0.109,0-0.201-0.014-0.273-0.043     c-0.074-0.029-0.132-0.08-0.175-0.149c-0.045-0.071-0.074-0.161-0.092-0.274c-0.02-0.113-0.027-0.249-0.027-0.41     C6.999,26.221,7.003,26.099,7.011,25.983z M7.375,26.71c0.006,0.073,0.016,0.13,0.033,0.172c0.014,0.042,0.035,0.071,0.061,0.086     c0.025,0.016,0.059,0.023,0.098,0.023c0.041,0,0.074-0.01,0.102-0.03c0.023-0.02,0.045-0.053,0.059-0.1     c0.016-0.048,0.025-0.11,0.031-0.189c0.006-0.078,0.01-0.176,0.01-0.293v-0.198c0-0.115-0.004-0.209-0.01-0.282     c-0.006-0.073-0.018-0.13-0.031-0.172c-0.016-0.042-0.037-0.071-0.063-0.087c-0.025-0.015-0.059-0.022-0.098-0.022     c-0.041,0-0.074,0.01-0.1,0.029S7.422,25.7,7.406,25.747c-0.016,0.048-0.025,0.11-0.031,0.189     c-0.006,0.08-0.008,0.177-0.008,0.293v0.198C7.367,26.543,7.369,26.637,7.375,26.71z"
   id="path132" />
		</g>
		<g
   id="g140">
			<path
   fill="#231815"
   d="M21.792,26.388c0.051-0.082,0.127-0.133,0.23-0.154v-0.005c-0.049-0.013-0.09-0.031-0.123-0.057     c-0.033-0.026-0.061-0.055-0.08-0.088c-0.021-0.033-0.035-0.067-0.043-0.104c-0.01-0.036-0.014-0.069-0.014-0.102     c0-0.179,0.049-0.308,0.143-0.386c0.094-0.078,0.225-0.117,0.39-0.117c0.166,0,0.295,0.039,0.391,0.117     c0.094,0.078,0.143,0.207,0.143,0.386c0,0.033-0.004,0.066-0.014,0.102c-0.01,0.037-0.025,0.071-0.045,0.104     c-0.021,0.033-0.047,0.062-0.08,0.088c-0.033,0.025-0.074,0.044-0.123,0.057v0.005c0.104,0.021,0.18,0.072,0.232,0.154     c0.05,0.083,0.077,0.18,0.077,0.295c0,0.053-0.008,0.111-0.02,0.175c-0.014,0.063-0.04,0.122-0.081,0.177s-0.1,0.1-0.176,0.137     c-0.076,0.035-0.178,0.053-0.305,0.053c-0.126,0-0.228-0.018-0.304-0.053c-0.076-0.037-0.135-0.083-0.176-0.137     s-0.068-0.114-0.08-0.177c-0.014-0.064-0.021-0.122-0.021-0.175C21.714,26.568,21.741,26.47,21.792,26.388z M22.093,26.8     c0.006,0.039,0.018,0.072,0.033,0.101c0.016,0.028,0.039,0.05,0.065,0.066c0.027,0.017,0.063,0.025,0.104,0.025     s0.076-0.008,0.104-0.025c0.027-0.016,0.049-0.038,0.066-0.066c0.016-0.029,0.027-0.062,0.033-0.101     c0.006-0.039,0.01-0.079,0.01-0.122c0-0.045-0.004-0.086-0.01-0.124s-0.018-0.07-0.033-0.098     c-0.018-0.029-0.039-0.052-0.066-0.067c-0.027-0.017-0.063-0.024-0.104-0.024s-0.076,0.008-0.104,0.024     c-0.026,0.016-0.05,0.039-0.065,0.067c-0.016,0.028-0.027,0.061-0.033,0.098s-0.01,0.079-0.01,0.124     C22.083,26.721,22.087,26.761,22.093,26.8z M22.165,26.062c0.032,0.041,0.075,0.062,0.13,0.062s0.098-0.021,0.131-0.062     c0.033-0.042,0.049-0.106,0.049-0.194c0-0.168-0.059-0.25-0.18-0.25c-0.12,0-0.179,0.083-0.179,0.25     C22.116,25.956,22.132,26.02,22.165,26.062z"
   id="path136" />
			<path
   fill="#231815"
   d="M22.866,25.983c0.008-0.117,0.031-0.22,0.068-0.311c0.039-0.089,0.096-0.162,0.172-0.216     c0.076-0.054,0.182-0.081,0.316-0.081c0.11,0,0.202,0.016,0.274,0.047c0.072,0.033,0.129,0.083,0.174,0.153     c0.043,0.07,0.074,0.162,0.092,0.274c0.018,0.112,0.027,0.249,0.027,0.41c0,0.127-0.004,0.249-0.014,0.365     c-0.008,0.116-0.031,0.22-0.068,0.31c-0.037,0.09-0.094,0.161-0.17,0.213c-0.076,0.051-0.182,0.076-0.315,0.076     c-0.109,0-0.201-0.014-0.275-0.043c-0.072-0.029-0.131-0.08-0.174-0.149c-0.045-0.071-0.076-0.161-0.094-0.274     s-0.027-0.249-0.027-0.41C22.853,26.221,22.856,26.099,22.866,25.983z M23.231,26.71c0.006,0.073,0.016,0.13,0.031,0.172     c0.016,0.042,0.037,0.071,0.061,0.086c0.027,0.016,0.061,0.023,0.1,0.023c0.04,0,0.073-0.01,0.099-0.03s0.045-0.053,0.061-0.1     c0.014-0.048,0.023-0.11,0.031-0.189c0.006-0.078,0.008-0.176,0.008-0.293v-0.198c0-0.115-0.002-0.209-0.008-0.282     c-0.008-0.073-0.018-0.13-0.033-0.172c-0.016-0.042-0.035-0.071-0.061-0.087c-0.025-0.015-0.059-0.022-0.097-0.022     c-0.041,0-0.074,0.01-0.102,0.029c-0.025,0.02-0.045,0.053-0.059,0.101c-0.016,0.048-0.025,0.11-0.031,0.189     c-0.006,0.08-0.01,0.177-0.01,0.293v0.198C23.222,26.543,23.226,26.637,23.231,26.71z"
   id="path138" />
		</g>
		<g
   id="g146">
			<path
   fill="#231815"
   d="M9.941,18.429h0.381v1.154h0.173v0.29h-0.173v0.378H9.986v-0.378H9.341v-0.304L9.941,18.429z      M9.98,18.891l-0.353,0.691h0.358v-0.691H9.98z"
   id="path142" />
			<path
   fill="#231815"
   d="M10.595,19.036c0.01-0.116,0.031-0.22,0.07-0.31c0.037-0.089,0.094-0.161,0.17-0.216     c0.076-0.054,0.181-0.081,0.315-0.081c0.111,0,0.203,0.016,0.275,0.049c0.072,0.031,0.131,0.082,0.173,0.152     c0.043,0.07,0.074,0.162,0.092,0.274c0.02,0.112,0.029,0.25,0.029,0.411c0,0.126-0.006,0.248-0.014,0.365     c-0.01,0.117-0.033,0.221-0.07,0.31c-0.037,0.09-0.093,0.161-0.169,0.213c-0.076,0.05-0.182,0.076-0.316,0.076     c-0.109,0-0.201-0.014-0.272-0.043c-0.074-0.029-0.133-0.08-0.176-0.149c-0.045-0.071-0.074-0.162-0.092-0.274     c-0.02-0.113-0.027-0.25-0.027-0.41C10.583,19.274,10.587,19.153,10.595,19.036z M10.959,19.763     c0.006,0.073,0.018,0.13,0.033,0.173c0.014,0.042,0.035,0.07,0.061,0.086s0.059,0.023,0.098,0.023c0.041,0,0.074-0.01,0.1-0.03     c0.025-0.02,0.047-0.053,0.061-0.1c0.016-0.047,0.025-0.11,0.031-0.189s0.01-0.177,0.01-0.293v-0.198     c0-0.115-0.004-0.209-0.01-0.282c-0.006-0.073-0.018-0.131-0.031-0.172c-0.016-0.042-0.037-0.071-0.063-0.087     s-0.059-0.023-0.098-0.023c-0.041,0-0.074,0.01-0.1,0.03s-0.047,0.053-0.061,0.101c-0.014,0.047-0.025,0.11-0.031,0.188     c-0.006,0.08-0.01,0.177-0.01,0.293v0.199C10.949,19.596,10.953,19.69,10.959,19.763z"
   id="path144" />
		</g>
		<g
   id="g152">
			<path
   fill="#231815"
   d="M18.512,18.727c-0.025-0.038-0.066-0.057-0.128-0.057c-0.049,0-0.086,0.012-0.117,0.035     c-0.029,0.023-0.053,0.056-0.068,0.097c-0.018,0.041-0.027,0.09-0.031,0.147c-0.008,0.057-0.01,0.119-0.01,0.186v0.091h0.006     c0.031-0.049,0.074-0.086,0.131-0.115c0.059-0.028,0.127-0.042,0.208-0.042c0.082,0,0.15,0.014,0.207,0.042     c0.055,0.029,0.102,0.068,0.135,0.119c0.037,0.05,0.063,0.11,0.078,0.179c0.016,0.07,0.023,0.146,0.023,0.228     c0,0.211-0.045,0.371-0.139,0.479s-0.242,0.163-0.446,0.163c-0.127,0-0.227-0.022-0.303-0.066     c-0.074-0.044-0.133-0.106-0.172-0.184c-0.041-0.078-0.065-0.168-0.077-0.271s-0.02-0.21-0.02-0.322     c0-0.128,0.006-0.253,0.012-0.374c0.008-0.121,0.031-0.228,0.069-0.322c0.039-0.093,0.098-0.168,0.182-0.225     c0.08-0.056,0.195-0.085,0.346-0.085c0.065,0,0.128,0.007,0.188,0.023c0.061,0.015,0.113,0.042,0.16,0.077     c0.045,0.037,0.082,0.083,0.111,0.143c0.027,0.059,0.043,0.132,0.045,0.22h-0.354C18.549,18.82,18.537,18.765,18.512,18.727z      M18.183,19.83c0.004,0.044,0.014,0.083,0.029,0.114c0.014,0.032,0.035,0.057,0.061,0.074c0.027,0.019,0.063,0.027,0.105,0.027     c0.045,0,0.079-0.009,0.106-0.027c0.025-0.017,0.047-0.042,0.061-0.075c0.012-0.033,0.021-0.071,0.025-0.114     c0.006-0.044,0.008-0.092,0.008-0.142c0-0.124-0.016-0.211-0.047-0.265c-0.031-0.053-0.082-0.079-0.153-0.079     c-0.074,0-0.127,0.026-0.158,0.079c-0.031,0.054-0.047,0.141-0.047,0.265C18.173,19.736,18.177,19.785,18.183,19.83z"
   id="path148" />
			<path
   fill="#231815"
   d="M19.095,19.036c0.008-0.116,0.031-0.22,0.068-0.31c0.037-0.089,0.094-0.161,0.17-0.216     c0.076-0.054,0.182-0.081,0.316-0.081c0.11,0,0.202,0.016,0.276,0.049c0.072,0.031,0.129,0.082,0.174,0.152     c0.043,0.07,0.072,0.162,0.092,0.274c0.018,0.112,0.027,0.25,0.027,0.411c0,0.126-0.004,0.248-0.014,0.365     c-0.008,0.117-0.031,0.221-0.068,0.31c-0.039,0.09-0.096,0.161-0.172,0.213c-0.076,0.05-0.18,0.076-0.315,0.076     c-0.107,0-0.201-0.014-0.273-0.043c-0.074-0.029-0.133-0.08-0.176-0.149c-0.043-0.071-0.074-0.162-0.092-0.274     c-0.017-0.113-0.026-0.25-0.026-0.41C19.082,19.274,19.086,19.153,19.095,19.036z M19.458,19.763     c0.006,0.073,0.018,0.13,0.033,0.173c0.016,0.042,0.035,0.07,0.061,0.086s0.059,0.023,0.098,0.023c0.04,0,0.073-0.01,0.101-0.03     c0.025-0.02,0.045-0.053,0.059-0.1c0.016-0.047,0.025-0.11,0.031-0.189s0.01-0.177,0.01-0.293v-0.198     c0-0.115-0.004-0.209-0.01-0.282c-0.006-0.073-0.016-0.131-0.031-0.172c-0.016-0.042-0.035-0.071-0.063-0.087     c-0.025-0.016-0.059-0.023-0.097-0.023c-0.041,0-0.074,0.01-0.1,0.03s-0.047,0.053-0.061,0.101     c-0.014,0.047-0.025,0.11-0.031,0.188c-0.006,0.08-0.008,0.177-0.008,0.293v0.199C19.45,19.596,19.452,19.69,19.458,19.763z"
   id="path150" />
		</g>
		
			<line
   fill="none"
   stroke="#231815"
   stroke-width="0.5669"
   stroke-linecap="round"
   stroke-linejoin="round"
   x1="15"
   y1="15.096"
   x2="15"
   y2="16.195"
   id="line154" />
		
			<line
   fill="none"
   stroke="#231815"
   stroke-width="0.5669"
   stroke-linecap="round"
   stroke-linejoin="round"
   x1="9.354"
   y1="16.611"
   x2="9.9"
   y2="17.564"
   id="line156" />
		
			<line
   fill="none"
   stroke="#231815"
   stroke-width="0.5669"
   stroke-linecap="round"
   stroke-linejoin="round"
   x1="5.215"
   y1="20.754"
   x2="6.16"
   y2="21.306"
   id="line158" />
		
			<line
   fill="none"
   stroke="#231815"
   stroke-width="0.5669"
   stroke-linecap="round"
   stroke-linejoin="round"
   x1="3.68"
   y1="26.419"
   x2="4.773"
   y2="26.425"
   id="line160" />
		
			<line
   fill="none"
   stroke="#231815"
   stroke-width="0.5669"
   stroke-linecap="round"
   stroke-linejoin="round"
   x1="5.16"
   y1="32.1"
   x2="6.111"
   y2="31.557"
   id="line162" />
		
			<line
   fill="none"
   stroke="#231815"
   stroke-width="0.5669"
   stroke-linecap="round"
   stroke-linejoin="round"
   x1="9.263"
   y1="36.282"
   x2="9.816"
   y2="35.334"
   id="line164" />
		
			<line
   fill="none"
   stroke="#231815"
   stroke-width="0.5669"
   stroke-linecap="round"
   stroke-linejoin="round"
   x1="20.646"
   y1="16.611"
   x2="20.1"
   y2="17.564"
   id="line166" />
		
			<line
   fill="none"
   stroke="#231815"
   stroke-width="0.5669"
   stroke-linecap="round"
   stroke-linejoin="round"
   x1="24.787"
   y1="20.754"
   x2="23.842"
   y2="21.306"
   id="line168" />
		
			<line
   fill="none"
   stroke="#231815"
   stroke-width="0.5669"
   stroke-linecap="round"
   stroke-linejoin="round"
   x1="26.32"
   y1="26.419"
   x2="25.229"
   y2="26.425"
   id="line170" />
		
			<line
   fill="none"
   stroke="#231815"
   stroke-width="0.5669"
   stroke-linecap="round"
   stroke-linejoin="round"
   x1="24.84"
   y1="32.1"
   x2="23.889"
   y2="31.557"
   id="line172" />
		
			<line
   fill="none"
   stroke="#231815"
   stroke-width="0.5669"
   stroke-linecap="round"
   stroke-linejoin="round"
   x1="20.739"
   y1="36.282"
   x2="20.184"
   y2="35.334"
   id="line174" />
	</g>
</g>
</svg>
