<?xml version="1.0" encoding="UTF-8" standalone="no"?>
<svg
   xmlns:a="http://ns.adobe.com/AdobeSVGViewerExtensions/3.0/"
   xmlns:dc="http://purl.org/dc/elements/1.1/"
   xmlns:cc="http://creativecommons.org/ns#"
   xmlns:rdf="http://www.w3.org/1999/02/22-rdf-syntax-ns#"
   xmlns:svg="http://www.w3.org/2000/svg"
   xmlns="http://www.w3.org/2000/svg"
   xmlns:sodipodi="http://sodipodi.sourceforge.net/DTD/sodipodi-0.dtd"
   xmlns:inkscape="http://www.inkscape.org/namespaces/inkscape"
   version="1.1"
   id="图层_1"
   x="0px"
   y="0px"
   width="40px"
   height="13px"
   viewBox="0 0 40 13"
   enable-background="new 0 0 40 13"
   xml:space="preserve"
   sodipodi:docname="工业管道_29-01.svg"><metadata
   id="metadata255"><rdf:RDF><cc:Work
       rdf:about=""><dc:format>image/svg+xml</dc:format><dc:type
         rdf:resource="http://purl.org/dc/dcmitype/StillImage" /></cc:Work></rdf:RDF></metadata><defs
   id="defs253" /><sodipodi:namedview
   pagecolor="#ffffff"
   bordercolor="#666666"
   borderopacity="1"
   objecttolerance="10"
   gridtolerance="10"
   guidetolerance="10"
   inkscape:pageopacity="0"
   inkscape:pageshadow="2"
   inkscape:window-width="640"
   inkscape:window-height="480"
   id="namedview251" />
<g
   id="g248">
	<g
   id="g25">
		<path
   fill-rule="evenodd"
   clip-rule="evenodd"
   fill="#231815"
   d="M19.999,13c-8.511,0-15.412-2.869-15.412-6.411    c0-0.088,0.006-0.173,0.014-0.259h30.796c0.008,0.086,0.014,0.171,0.014,0.26C35.411,10.131,28.509,13,19.999,13z"
   id="path2" />
		<linearGradient
   id="SVGID_1_"
   gradientUnits="userSpaceOnUse"
   x1="33.3828"
   y1="9.5693"
   x2="0.7618"
   y2="9.5693">
			<stop
   offset="0"
   style="stop-color:#61606C"
   id="stop4" />
			<stop
   offset="0.21"
   style="stop-color:#A4A9AE"
   id="stop6" />
			<stop
   offset="0.3"
   style="stop-color:#DBE2EC"
   id="stop8" />
			<stop
   offset="0.36"
   style="stop-color:#F0F5F8"
   id="stop10" />
			<stop
   offset="0.5"
   style="stop-color:#FDFDFD"
   id="stop12" />
			<stop
   offset="0.71"
   style="stop-color:#9DA9BA"
   id="stop14" />
			<stop
   offset="0.82"
   style="stop-color:#646A73"
   id="stop16" />
			<stop
   offset="1"
   style="stop-color:#CEC5D9"
   id="stop18" />
			<a:midPointStop
   offset="0"
   style="stop-color:#61606C" />
			<a:midPointStop
   offset="0.5"
   style="stop-color:#61606C" />
			<a:midPointStop
   offset="0.21"
   style="stop-color:#A4A9AE" />
			<a:midPointStop
   offset="0.5"
   style="stop-color:#A4A9AE" />
			<a:midPointStop
   offset="0.3"
   style="stop-color:#DBE2EC" />
			<a:midPointStop
   offset="0.5"
   style="stop-color:#DBE2EC" />
			<a:midPointStop
   offset="0.36"
   style="stop-color:#F0F5F8" />
			<a:midPointStop
   offset="0.5"
   style="stop-color:#F0F5F8" />
			<a:midPointStop
   offset="0.5"
   style="stop-color:#FDFDFD" />
			<a:midPointStop
   offset="0.5"
   style="stop-color:#FDFDFD" />
			<a:midPointStop
   offset="0.71"
   style="stop-color:#9DA9BA" />
			<a:midPointStop
   offset="0.5"
   style="stop-color:#9DA9BA" />
			<a:midPointStop
   offset="0.82"
   style="stop-color:#646A73" />
			<a:midPointStop
   offset="0.5"
   style="stop-color:#646A73" />
			<a:midPointStop
   offset="1"
   style="stop-color:#CEC5D9" />
		</linearGradient>
		<path
   fill-rule="evenodd"
   clip-rule="evenodd"
   fill="url(#SVGID_1_)"
   d="M19.999,12.811c-8.391,0-15.197-2.787-15.197-6.222    c0-0.088,0.005-0.174,0.014-0.26h30.365c0.008,0.087,0.014,0.172,0.014,0.26C35.195,10.023,28.391,12.811,19.999,12.811z"
   id="path21" />
		<path
   fill-rule="evenodd"
   clip-rule="evenodd"
   fill="#FFFFFF"
   d="M19.985,12.401c-2.136,0-4.139-0.233-5.859-0.646    c2.476,0,4.947,0,7.421,0l4.311-0.003c-0.274,0.064-0.559,0.127-0.846,0.184h-1.824h1.82    C23.488,12.234,21.784,12.401,19.985,12.401L19.985,12.401z M14.056,11.738c-0.226-0.057-0.449-0.113-0.665-0.175    c2.72,0.007,5.438,0.013,8.156,0.013l5.029-0.013c-0.212,0.061-0.427,0.117-0.646,0.17l-4.383,0.005    C19.051,11.739,16.555,11.739,14.056,11.738L14.056,11.738z M13.27,11.528c-0.176-0.052-0.348-0.105-0.517-0.159    c2.933,0.016,5.864,0.025,8.794,0.025c1.887-0.003,3.771-0.011,5.654-0.021c-0.163,0.053-0.33,0.105-0.5,0.155    c-1.718,0.006-3.434,0.01-5.154,0.013C18.789,11.541,16.03,11.537,13.27,11.528L13.27,11.528z M12.588,11.316    c-0.134-0.047-0.264-0.095-0.395-0.141c3.117,0.028,6.238,0.043,9.358,0.037c2.063-0.001,4.127-0.009,6.191-0.025    c-0.126,0.046-0.254,0.092-0.386,0.134c-1.937,0.013-3.871,0.02-5.811,0.023C18.562,11.344,15.576,11.335,12.588,11.316    L12.588,11.316z M12.005,11.104c-0.111-0.044-0.22-0.087-0.326-0.131l0.163,0.001c3.237,0.035,6.471,0.056,9.706,0.059    c2.236-0.008,4.467-0.021,6.699-0.043c-0.104,0.043-0.209,0.085-0.318,0.127c-2.125,0.019-4.25,0.028-6.376,0.031    C18.365,11.15,15.184,11.136,12.005,11.104L12.005,11.104z M11.472,10.883c-0.084-0.036-0.166-0.072-0.246-0.111l0.622,0.011    c3.231,0.049,6.469,0.076,9.704,0.072c2.375-0.004,4.751-0.021,7.126-0.053c-0.076,0.035-0.153,0.071-0.232,0.104    c-2.3,0.025-4.596,0.044-6.894,0.045c-3.234,0.005-6.473-0.02-9.704-0.063L11.472,10.883L11.472,10.883z M10.995,10.661    l-0.182-0.092l1.034,0.018c3.231,0.06,6.469,0.093,9.704,0.087c2.511-0.004,5.019-0.027,7.532-0.068l-0.18,0.089    c-2.451,0.038-4.9,0.059-7.353,0.063c-3.239,0.002-6.473-0.028-9.704-0.084L10.995,10.661L10.995,10.661z M10.571,10.436    l-0.131-0.073c0.469,0.009,0.938,0.021,1.408,0.029c3.231,0.068,6.465,0.11,9.704,0.104c2.633-0.005,5.265-0.033,7.896-0.087    L29.32,10.48c-2.59,0.048-5.178,0.075-7.769,0.079c-3.239,0.005-6.472-0.031-9.704-0.097    C11.422,10.456,10.997,10.447,10.571,10.436L10.571,10.436z M10.19,10.208c0.553,0.017,1.104,0.032,1.657,0.044    c3.231,0.074,6.465,0.118,9.704,0.112c2.714-0.005,5.426-0.038,8.139-0.101l0.087-0.055c-2.74,0.064-5.482,0.103-8.226,0.105    c-3.239,0.009-6.473-0.038-9.704-0.116c-0.582-0.014-1.163-0.029-1.745-0.047L10.19,10.208L10.19,10.208z M9.854,9.98L9.802,9.943    c0.682,0.023,1.363,0.044,2.046,0.063c3.231,0.087,6.469,0.135,9.704,0.129c2.841-0.004,5.68-0.049,8.523-0.126l-0.053,0.036    c-2.823,0.076-5.646,0.117-8.471,0.122c-3.239,0.007-6.473-0.042-9.704-0.128C11.181,10.023,10.519,10.004,9.854,9.98L9.854,9.98z     M9.557,9.749c0.763,0.03,1.525,0.056,2.291,0.078c3.231,0.096,6.465,0.149,9.704,0.142c2.923-0.003,5.844-0.052,8.766-0.142    l0.025-0.021C27.41,9.9,24.48,9.949,21.552,9.955c-3.235,0.007-6.473-0.05-9.704-0.145c-0.772-0.022-1.542-0.049-2.314-0.08    L9.557,9.749z"
   id="path23" />
	</g>
	<g
   id="g75">
		<rect
   x="2.792"
   y="6.203"
   fill-rule="evenodd"
   clip-rule="evenodd"
   fill="#231815"
   width="2.299"
   height="1.213"
   id="rect27" />
		<linearGradient
   id="SVGID_2_"
   gradientUnits="userSpaceOnUse"
   x1="4.7754"
   y1="6.8096"
   x2="2.7833"
   y2="6.8096">
			<stop
   offset="0"
   style="stop-color:#61606C"
   id="stop29" />
			<stop
   offset="0.17"
   style="stop-color:#A4A9AE"
   id="stop31" />
			<stop
   offset="0.35"
   style="stop-color:#DBE2EC"
   id="stop33" />
			<stop
   offset="0.48"
   style="stop-color:#F0F5F8"
   id="stop35" />
			<stop
   offset="0.58"
   style="stop-color:#FDFDFD"
   id="stop37" />
			<stop
   offset="0.71"
   style="stop-color:#9DA9BA"
   id="stop39" />
			<stop
   offset="0.82"
   style="stop-color:#646A73"
   id="stop41" />
			<stop
   offset="1"
   style="stop-color:#CEC5D9"
   id="stop43" />
			<a:midPointStop
   offset="0"
   style="stop-color:#61606C" />
			<a:midPointStop
   offset="0.5"
   style="stop-color:#61606C" />
			<a:midPointStop
   offset="0.17"
   style="stop-color:#A4A9AE" />
			<a:midPointStop
   offset="0.5"
   style="stop-color:#A4A9AE" />
			<a:midPointStop
   offset="0.35"
   style="stop-color:#DBE2EC" />
			<a:midPointStop
   offset="0.5"
   style="stop-color:#DBE2EC" />
			<a:midPointStop
   offset="0.48"
   style="stop-color:#F0F5F8" />
			<a:midPointStop
   offset="0.5"
   style="stop-color:#F0F5F8" />
			<a:midPointStop
   offset="0.58"
   style="stop-color:#FDFDFD" />
			<a:midPointStop
   offset="0.5"
   style="stop-color:#FDFDFD" />
			<a:midPointStop
   offset="0.71"
   style="stop-color:#9DA9BA" />
			<a:midPointStop
   offset="0.5"
   style="stop-color:#9DA9BA" />
			<a:midPointStop
   offset="0.82"
   style="stop-color:#646A73" />
			<a:midPointStop
   offset="0.5"
   style="stop-color:#646A73" />
			<a:midPointStop
   offset="1"
   style="stop-color:#CEC5D9" />
		</linearGradient>
		<rect
   x="2.972"
   y="6.375"
   fill-rule="evenodd"
   clip-rule="evenodd"
   fill="url(#SVGID_2_)"
   width="1.938"
   height="0.869"
   id="rect46" />
		<path
   fill-rule="evenodd"
   clip-rule="evenodd"
   fill="#231815"
   d="M1.983,8.028V6.967c0-0.193,0.166-0.353,0.371-0.353H5.53    c0.204,0,0.37,0.157,0.37,0.353v1.062c0,0.194-0.166,0.353-0.37,0.353H2.354C2.149,8.381,1.983,8.223,1.983,8.028z"
   id="path48" />
		<linearGradient
   id="SVGID_3_"
   gradientUnits="userSpaceOnUse"
   x1="5.4707"
   y1="7.4985"
   x2="1.8167"
   y2="7.4985">
			<stop
   offset="0"
   style="stop-color:#61606C"
   id="stop50" />
			<stop
   offset="0.17"
   style="stop-color:#A4A9AE"
   id="stop52" />
			<stop
   offset="0.35"
   style="stop-color:#DBE2EC"
   id="stop54" />
			<stop
   offset="0.48"
   style="stop-color:#F0F5F8"
   id="stop56" />
			<stop
   offset="0.58"
   style="stop-color:#FDFDFD"
   id="stop58" />
			<stop
   offset="0.71"
   style="stop-color:#9DA9BA"
   id="stop60" />
			<stop
   offset="0.82"
   style="stop-color:#646A73"
   id="stop62" />
			<stop
   offset="1"
   style="stop-color:#CEC5D9"
   id="stop64" />
			<a:midPointStop
   offset="0"
   style="stop-color:#61606C" />
			<a:midPointStop
   offset="0.5"
   style="stop-color:#61606C" />
			<a:midPointStop
   offset="0.17"
   style="stop-color:#A4A9AE" />
			<a:midPointStop
   offset="0.5"
   style="stop-color:#A4A9AE" />
			<a:midPointStop
   offset="0.35"
   style="stop-color:#DBE2EC" />
			<a:midPointStop
   offset="0.5"
   style="stop-color:#DBE2EC" />
			<a:midPointStop
   offset="0.48"
   style="stop-color:#F0F5F8" />
			<a:midPointStop
   offset="0.5"
   style="stop-color:#F0F5F8" />
			<a:midPointStop
   offset="0.58"
   style="stop-color:#FDFDFD" />
			<a:midPointStop
   offset="0.5"
   style="stop-color:#FDFDFD" />
			<a:midPointStop
   offset="0.71"
   style="stop-color:#9DA9BA" />
			<a:midPointStop
   offset="0.5"
   style="stop-color:#9DA9BA" />
			<a:midPointStop
   offset="0.82"
   style="stop-color:#646A73" />
			<a:midPointStop
   offset="0.5"
   style="stop-color:#646A73" />
			<a:midPointStop
   offset="1"
   style="stop-color:#CEC5D9" />
		</linearGradient>
		<path
   fill-rule="evenodd"
   clip-rule="evenodd"
   fill="url(#SVGID_3_)"
   d="M2.163,8.028V6.967c0-0.1,0.085-0.181,0.19-0.181H5.53    c0.104,0,0.19,0.081,0.19,0.181L5.719,8.028c0,0.101-0.084,0.183-0.189,0.183H2.354C2.248,8.211,2.163,8.129,2.163,8.028z"
   id="path67" />
		<path
   fill-rule="evenodd"
   clip-rule="evenodd"
   fill="#5D5C64"
   d="M4.709,7.047v0.932c0,0.083,0.07,0.152,0.157,0.152H5.47    c0.087,0,0.158-0.067,0.157-0.152V7.047c0-0.082-0.071-0.151-0.157-0.151H4.867C4.781,6.896,4.709,6.965,4.709,7.047z"
   id="path69" />
		<path
   fill-rule="evenodd"
   clip-rule="evenodd"
   fill="#84868F"
   d="M2.852,7.047v0.932c0,0.085,0.071,0.152,0.157,0.152h1.408    c0.087,0,0.158-0.069,0.158-0.152V7.048c0-0.083-0.069-0.152-0.158-0.152H3.009C2.921,6.896,2.852,6.965,2.852,7.047z"
   id="path71" />
		<path
   fill-rule="evenodd"
   clip-rule="evenodd"
   fill="#BEC4CB"
   d="M2.244,7.047v0.932c0,0.083,0.073,0.152,0.158,0.152h0.159    c0.085,0,0.157-0.069,0.157-0.152V7.047c0-0.082-0.07-0.151-0.157-0.151H2.401C2.315,6.896,2.244,6.965,2.244,7.047z"
   id="path73" />
	</g>
	<path
   fill-rule="evenodd"
   clip-rule="evenodd"
   fill="#231815"
   d="M38.557,0C39.351,0,40,0.615,40,1.371c0,1.201,0,2.4,0,3.601   c0,0.756-0.649,1.373-1.443,1.373H1.441C0.647,6.345,0,5.728,0,4.972c0-1.2,0-2.399,0-3.601C0,0.615,0.647,0,1.442,0H38.557z"
   id="path77" />
	<linearGradient
   id="SVGID_4_"
   gradientUnits="userSpaceOnUse"
   x1="37.4551"
   y1="3.1714"
   x2="-5.091"
   y2="3.1714">
		<stop
   offset="0"
   style="stop-color:#61606C"
   id="stop79" />
		<stop
   offset="0.21"
   style="stop-color:#A4A9AE"
   id="stop81" />
		<stop
   offset="0.3"
   style="stop-color:#DBE2EC"
   id="stop83" />
		<stop
   offset="0.36"
   style="stop-color:#F0F5F8"
   id="stop85" />
		<stop
   offset="0.5"
   style="stop-color:#FDFDFD"
   id="stop87" />
		<stop
   offset="0.71"
   style="stop-color:#9DA9BA"
   id="stop89" />
		<stop
   offset="0.82"
   style="stop-color:#646A73"
   id="stop91" />
		<stop
   offset="1"
   style="stop-color:#CEC5D9"
   id="stop93" />
		<a:midPointStop
   offset="0"
   style="stop-color:#61606C" />
		<a:midPointStop
   offset="0.5"
   style="stop-color:#61606C" />
		<a:midPointStop
   offset="0.21"
   style="stop-color:#A4A9AE" />
		<a:midPointStop
   offset="0.5"
   style="stop-color:#A4A9AE" />
		<a:midPointStop
   offset="0.3"
   style="stop-color:#DBE2EC" />
		<a:midPointStop
   offset="0.5"
   style="stop-color:#DBE2EC" />
		<a:midPointStop
   offset="0.36"
   style="stop-color:#F0F5F8" />
		<a:midPointStop
   offset="0.5"
   style="stop-color:#F0F5F8" />
		<a:midPointStop
   offset="0.5"
   style="stop-color:#FDFDFD" />
		<a:midPointStop
   offset="0.5"
   style="stop-color:#FDFDFD" />
		<a:midPointStop
   offset="0.71"
   style="stop-color:#9DA9BA" />
		<a:midPointStop
   offset="0.5"
   style="stop-color:#9DA9BA" />
		<a:midPointStop
   offset="0.82"
   style="stop-color:#646A73" />
		<a:midPointStop
   offset="0.5"
   style="stop-color:#646A73" />
		<a:midPointStop
   offset="1"
   style="stop-color:#CEC5D9" />
	</linearGradient>
	<path
   fill-rule="evenodd"
   clip-rule="evenodd"
   fill="url(#SVGID_4_)"
   d="M38.557,0.17H1.442c-0.696,0-1.262,0.542-1.262,1.201   C0.179,2.513,0.179,3.83,0.179,4.972c0.001,0.66,0.567,1.201,1.262,1.201h37.115c0.694,0,1.262-0.541,1.262-1.201   c0-1.144,0-2.458,0-3.601C39.818,0.712,39.251,0.17,38.557,0.17z"
   id="path96" />
	<g
   id="g146">
		<rect
   x="34.906"
   y="6.203"
   fill-rule="evenodd"
   clip-rule="evenodd"
   fill="#231815"
   width="2.301"
   height="1.213"
   id="rect98" />
		<linearGradient
   id="SVGID_5_"
   gradientUnits="userSpaceOnUse"
   x1="36.8916"
   y1="6.8096"
   x2="34.8992"
   y2="6.8096">
			<stop
   offset="0"
   style="stop-color:#61606C"
   id="stop100" />
			<stop
   offset="0.17"
   style="stop-color:#A4A9AE"
   id="stop102" />
			<stop
   offset="0.35"
   style="stop-color:#DBE2EC"
   id="stop104" />
			<stop
   offset="0.48"
   style="stop-color:#F0F5F8"
   id="stop106" />
			<stop
   offset="0.58"
   style="stop-color:#FDFDFD"
   id="stop108" />
			<stop
   offset="0.71"
   style="stop-color:#9DA9BA"
   id="stop110" />
			<stop
   offset="0.82"
   style="stop-color:#646A73"
   id="stop112" />
			<stop
   offset="1"
   style="stop-color:#CEC5D9"
   id="stop114" />
			<a:midPointStop
   offset="0"
   style="stop-color:#61606C" />
			<a:midPointStop
   offset="0.5"
   style="stop-color:#61606C" />
			<a:midPointStop
   offset="0.17"
   style="stop-color:#A4A9AE" />
			<a:midPointStop
   offset="0.5"
   style="stop-color:#A4A9AE" />
			<a:midPointStop
   offset="0.35"
   style="stop-color:#DBE2EC" />
			<a:midPointStop
   offset="0.5"
   style="stop-color:#DBE2EC" />
			<a:midPointStop
   offset="0.48"
   style="stop-color:#F0F5F8" />
			<a:midPointStop
   offset="0.5"
   style="stop-color:#F0F5F8" />
			<a:midPointStop
   offset="0.58"
   style="stop-color:#FDFDFD" />
			<a:midPointStop
   offset="0.5"
   style="stop-color:#FDFDFD" />
			<a:midPointStop
   offset="0.71"
   style="stop-color:#9DA9BA" />
			<a:midPointStop
   offset="0.5"
   style="stop-color:#9DA9BA" />
			<a:midPointStop
   offset="0.82"
   style="stop-color:#646A73" />
			<a:midPointStop
   offset="0.5"
   style="stop-color:#646A73" />
			<a:midPointStop
   offset="1"
   style="stop-color:#CEC5D9" />
		</linearGradient>
		<rect
   x="35.088"
   y="6.375"
   fill-rule="evenodd"
   clip-rule="evenodd"
   fill="url(#SVGID_5_)"
   width="1.939"
   height="0.869"
   id="rect117" />
		<path
   fill-rule="evenodd"
   clip-rule="evenodd"
   fill="#231815"
   d="M34.098,8.028V6.967c0-0.195,0.167-0.353,0.371-0.353h3.176    c0.204,0,0.371,0.157,0.371,0.353v1.062c0,0.194-0.167,0.353-0.371,0.353h-3.176C34.265,8.381,34.098,8.223,34.098,8.028z"
   id="path119" />
		<linearGradient
   id="SVGID_6_"
   gradientUnits="userSpaceOnUse"
   x1="37.5859"
   y1="7.4985"
   x2="33.9327"
   y2="7.4985">
			<stop
   offset="0"
   style="stop-color:#61606C"
   id="stop121" />
			<stop
   offset="0.17"
   style="stop-color:#A4A9AE"
   id="stop123" />
			<stop
   offset="0.35"
   style="stop-color:#DBE2EC"
   id="stop125" />
			<stop
   offset="0.48"
   style="stop-color:#F0F5F8"
   id="stop127" />
			<stop
   offset="0.58"
   style="stop-color:#FDFDFD"
   id="stop129" />
			<stop
   offset="0.71"
   style="stop-color:#9DA9BA"
   id="stop131" />
			<stop
   offset="0.82"
   style="stop-color:#646A73"
   id="stop133" />
			<stop
   offset="1"
   style="stop-color:#CEC5D9"
   id="stop135" />
			<a:midPointStop
   offset="0"
   style="stop-color:#61606C" />
			<a:midPointStop
   offset="0.5"
   style="stop-color:#61606C" />
			<a:midPointStop
   offset="0.17"
   style="stop-color:#A4A9AE" />
			<a:midPointStop
   offset="0.5"
   style="stop-color:#A4A9AE" />
			<a:midPointStop
   offset="0.35"
   style="stop-color:#DBE2EC" />
			<a:midPointStop
   offset="0.5"
   style="stop-color:#DBE2EC" />
			<a:midPointStop
   offset="0.48"
   style="stop-color:#F0F5F8" />
			<a:midPointStop
   offset="0.5"
   style="stop-color:#F0F5F8" />
			<a:midPointStop
   offset="0.58"
   style="stop-color:#FDFDFD" />
			<a:midPointStop
   offset="0.5"
   style="stop-color:#FDFDFD" />
			<a:midPointStop
   offset="0.71"
   style="stop-color:#9DA9BA" />
			<a:midPointStop
   offset="0.5"
   style="stop-color:#9DA9BA" />
			<a:midPointStop
   offset="0.82"
   style="stop-color:#646A73" />
			<a:midPointStop
   offset="0.5"
   style="stop-color:#646A73" />
			<a:midPointStop
   offset="1"
   style="stop-color:#CEC5D9" />
		</linearGradient>
		<path
   fill-rule="evenodd"
   clip-rule="evenodd"
   fill="url(#SVGID_6_)"
   d="M34.279,8.028V6.967c0-0.1,0.085-0.181,0.189-0.181h3.176    c0.105,0,0.19,0.081,0.19,0.181v1.061c0,0.102-0.085,0.184-0.19,0.184h-3.176C34.364,8.211,34.279,8.129,34.279,8.028z"
   id="path138" />
		<path
   fill-rule="evenodd"
   clip-rule="evenodd"
   fill="#5D5C64"
   d="M36.824,7.047v0.932c0,0.083,0.071,0.152,0.158,0.152h0.603    c0.087,0,0.158-0.067,0.158-0.152V7.047c0-0.082-0.071-0.151-0.158-0.151h-0.603C36.896,6.896,36.824,6.965,36.824,7.047z"
   id="path140" />
		<path
   fill-rule="evenodd"
   clip-rule="evenodd"
   fill="#84868F"
   d="M34.967,7.047v0.932c0,0.085,0.072,0.152,0.158,0.152h1.408    c0.086,0,0.156-0.069,0.156-0.152l0.002-0.932c-0.002-0.082-0.072-0.151-0.158-0.151h-1.408    C35.037,6.896,34.967,6.965,34.967,7.047z"
   id="path142" />
		<path
   fill-rule="evenodd"
   clip-rule="evenodd"
   fill="#BEC4CB"
   d="M34.359,7.047v0.932c0,0.083,0.072,0.152,0.158,0.152h0.158    c0.086,0,0.158-0.069,0.156-0.152V7.047c0.002-0.082-0.069-0.151-0.156-0.151h-0.16C34.43,6.896,34.359,6.965,34.359,7.047z"
   id="path144" />
	</g>
	<g
   id="g196">
		<rect
   x="24.201"
   y="6.202"
   fill-rule="evenodd"
   clip-rule="evenodd"
   fill="#231815"
   width="2.301"
   height="1.214"
   id="rect148" />
		<linearGradient
   id="SVGID_7_"
   gradientUnits="userSpaceOnUse"
   x1="26.1846"
   y1="6.8096"
   x2="24.1941"
   y2="6.8096">
			<stop
   offset="0"
   style="stop-color:#61606C"
   id="stop150" />
			<stop
   offset="0.17"
   style="stop-color:#A4A9AE"
   id="stop152" />
			<stop
   offset="0.35"
   style="stop-color:#DBE2EC"
   id="stop154" />
			<stop
   offset="0.48"
   style="stop-color:#F0F5F8"
   id="stop156" />
			<stop
   offset="0.58"
   style="stop-color:#FDFDFD"
   id="stop158" />
			<stop
   offset="0.71"
   style="stop-color:#9DA9BA"
   id="stop160" />
			<stop
   offset="0.82"
   style="stop-color:#646A73"
   id="stop162" />
			<stop
   offset="1"
   style="stop-color:#CEC5D9"
   id="stop164" />
			<a:midPointStop
   offset="0"
   style="stop-color:#61606C" />
			<a:midPointStop
   offset="0.5"
   style="stop-color:#61606C" />
			<a:midPointStop
   offset="0.17"
   style="stop-color:#A4A9AE" />
			<a:midPointStop
   offset="0.5"
   style="stop-color:#A4A9AE" />
			<a:midPointStop
   offset="0.35"
   style="stop-color:#DBE2EC" />
			<a:midPointStop
   offset="0.5"
   style="stop-color:#DBE2EC" />
			<a:midPointStop
   offset="0.48"
   style="stop-color:#F0F5F8" />
			<a:midPointStop
   offset="0.5"
   style="stop-color:#F0F5F8" />
			<a:midPointStop
   offset="0.58"
   style="stop-color:#FDFDFD" />
			<a:midPointStop
   offset="0.5"
   style="stop-color:#FDFDFD" />
			<a:midPointStop
   offset="0.71"
   style="stop-color:#9DA9BA" />
			<a:midPointStop
   offset="0.5"
   style="stop-color:#9DA9BA" />
			<a:midPointStop
   offset="0.82"
   style="stop-color:#646A73" />
			<a:midPointStop
   offset="0.5"
   style="stop-color:#646A73" />
			<a:midPointStop
   offset="1"
   style="stop-color:#CEC5D9" />
		</linearGradient>
		<rect
   x="24.383"
   y="6.375"
   fill-rule="evenodd"
   clip-rule="evenodd"
   fill="url(#SVGID_7_)"
   width="1.938"
   height="0.869"
   id="rect167" />
		<path
   fill-rule="evenodd"
   clip-rule="evenodd"
   fill="#231815"
   d="M23.393,8.028V6.967c0-0.195,0.166-0.353,0.371-0.353h3.176    c0.205,0,0.369,0.159,0.369,0.353v1.062c0,0.194-0.164,0.353-0.369,0.354l-3.176-0.002C23.559,8.381,23.394,8.223,23.393,8.028z"
   id="path169" />
		<linearGradient
   id="SVGID_8_"
   gradientUnits="userSpaceOnUse"
   x1="26.8809"
   y1="7.4985"
   x2="23.2262"
   y2="7.4985">
			<stop
   offset="0"
   style="stop-color:#61606C"
   id="stop171" />
			<stop
   offset="0.17"
   style="stop-color:#A4A9AE"
   id="stop173" />
			<stop
   offset="0.35"
   style="stop-color:#DBE2EC"
   id="stop175" />
			<stop
   offset="0.48"
   style="stop-color:#F0F5F8"
   id="stop177" />
			<stop
   offset="0.58"
   style="stop-color:#FDFDFD"
   id="stop179" />
			<stop
   offset="0.71"
   style="stop-color:#9DA9BA"
   id="stop181" />
			<stop
   offset="0.82"
   style="stop-color:#646A73"
   id="stop183" />
			<stop
   offset="1"
   style="stop-color:#CEC5D9"
   id="stop185" />
			<a:midPointStop
   offset="0"
   style="stop-color:#61606C" />
			<a:midPointStop
   offset="0.5"
   style="stop-color:#61606C" />
			<a:midPointStop
   offset="0.17"
   style="stop-color:#A4A9AE" />
			<a:midPointStop
   offset="0.5"
   style="stop-color:#A4A9AE" />
			<a:midPointStop
   offset="0.35"
   style="stop-color:#DBE2EC" />
			<a:midPointStop
   offset="0.5"
   style="stop-color:#DBE2EC" />
			<a:midPointStop
   offset="0.48"
   style="stop-color:#F0F5F8" />
			<a:midPointStop
   offset="0.5"
   style="stop-color:#F0F5F8" />
			<a:midPointStop
   offset="0.58"
   style="stop-color:#FDFDFD" />
			<a:midPointStop
   offset="0.5"
   style="stop-color:#FDFDFD" />
			<a:midPointStop
   offset="0.71"
   style="stop-color:#9DA9BA" />
			<a:midPointStop
   offset="0.5"
   style="stop-color:#9DA9BA" />
			<a:midPointStop
   offset="0.82"
   style="stop-color:#646A73" />
			<a:midPointStop
   offset="0.5"
   style="stop-color:#646A73" />
			<a:midPointStop
   offset="1"
   style="stop-color:#CEC5D9" />
		</linearGradient>
		<path
   fill-rule="evenodd"
   clip-rule="evenodd"
   fill="url(#SVGID_8_)"
   d="M23.573,8.028V6.967c0-0.1,0.087-0.181,0.19-0.181h3.176    c0.105,0,0.19,0.081,0.19,0.181v1.062c0,0.101-0.085,0.183-0.19,0.183h-3.176C23.66,8.211,23.573,8.129,23.573,8.028z"
   id="path188" />
		<path
   fill-rule="evenodd"
   clip-rule="evenodd"
   fill="#5D5C64"
   d="M26.119,7.047v0.932c0,0.085,0.071,0.152,0.158,0.152h0.604    c0.086,0,0.157-0.067,0.157-0.152V7.047c0-0.082-0.071-0.151-0.157-0.151h-0.605C26.19,6.896,26.119,6.965,26.119,7.047z"
   id="path190" />
		<path
   fill-rule="evenodd"
   clip-rule="evenodd"
   fill="#84868F"
   d="M24.262,7.047v0.932c0,0.085,0.072,0.152,0.157,0.152h1.409    c0.085,0,0.157-0.069,0.157-0.152V7.047c0-0.081-0.07-0.151-0.157-0.151h-1.409C24.332,6.896,24.262,6.965,24.262,7.047z"
   id="path192" />
		<path
   fill-rule="evenodd"
   clip-rule="evenodd"
   fill="#BEC4CB"
   d="M23.655,7.047v0.932c0,0.083,0.071,0.152,0.157,0.152h0.158    c0.086,0,0.158-0.069,0.158-0.152V7.047c0-0.082-0.07-0.151-0.158-0.151h-0.158C23.725,6.896,23.654,6.965,23.655,7.047z"
   id="path194" />
	</g>
	<g
   id="g246">
		<rect
   x="13.496"
   y="6.202"
   fill-rule="evenodd"
   clip-rule="evenodd"
   fill="#231815"
   width="2.301"
   height="1.214"
   id="rect198" />
		<linearGradient
   id="SVGID_9_"
   gradientUnits="userSpaceOnUse"
   x1="15.4805"
   y1="6.8096"
   x2="13.4877"
   y2="6.8096">
			<stop
   offset="0"
   style="stop-color:#61606C"
   id="stop200" />
			<stop
   offset="0.17"
   style="stop-color:#A4A9AE"
   id="stop202" />
			<stop
   offset="0.35"
   style="stop-color:#DBE2EC"
   id="stop204" />
			<stop
   offset="0.48"
   style="stop-color:#F0F5F8"
   id="stop206" />
			<stop
   offset="0.58"
   style="stop-color:#FDFDFD"
   id="stop208" />
			<stop
   offset="0.71"
   style="stop-color:#9DA9BA"
   id="stop210" />
			<stop
   offset="0.82"
   style="stop-color:#646A73"
   id="stop212" />
			<stop
   offset="1"
   style="stop-color:#CEC5D9"
   id="stop214" />
			<a:midPointStop
   offset="0"
   style="stop-color:#61606C" />
			<a:midPointStop
   offset="0.5"
   style="stop-color:#61606C" />
			<a:midPointStop
   offset="0.17"
   style="stop-color:#A4A9AE" />
			<a:midPointStop
   offset="0.5"
   style="stop-color:#A4A9AE" />
			<a:midPointStop
   offset="0.35"
   style="stop-color:#DBE2EC" />
			<a:midPointStop
   offset="0.5"
   style="stop-color:#DBE2EC" />
			<a:midPointStop
   offset="0.48"
   style="stop-color:#F0F5F8" />
			<a:midPointStop
   offset="0.5"
   style="stop-color:#F0F5F8" />
			<a:midPointStop
   offset="0.58"
   style="stop-color:#FDFDFD" />
			<a:midPointStop
   offset="0.5"
   style="stop-color:#FDFDFD" />
			<a:midPointStop
   offset="0.71"
   style="stop-color:#9DA9BA" />
			<a:midPointStop
   offset="0.5"
   style="stop-color:#9DA9BA" />
			<a:midPointStop
   offset="0.82"
   style="stop-color:#646A73" />
			<a:midPointStop
   offset="0.5"
   style="stop-color:#646A73" />
			<a:midPointStop
   offset="1"
   style="stop-color:#CEC5D9" />
		</linearGradient>
		<rect
   x="13.677"
   y="6.375"
   fill-rule="evenodd"
   clip-rule="evenodd"
   fill="url(#SVGID_9_)"
   width="1.938"
   height="0.869"
   id="rect217" />
		<path
   fill-rule="evenodd"
   clip-rule="evenodd"
   fill="#231815"
   d="M12.688,8.028V6.967c0-0.193,0.167-0.353,0.37-0.353h3.176    c0.205,0,0.37,0.157,0.37,0.353v1.062c0,0.194-0.166,0.353-0.37,0.353h-3.176C12.854,8.381,12.688,8.223,12.688,8.028z"
   id="path219" />
		<linearGradient
   id="SVGID_10_"
   gradientUnits="userSpaceOnUse"
   x1="16.1753"
   y1="7.4985"
   x2="12.5219"
   y2="7.4985">
			<stop
   offset="0"
   style="stop-color:#61606C"
   id="stop221" />
			<stop
   offset="0.17"
   style="stop-color:#A4A9AE"
   id="stop223" />
			<stop
   offset="0.35"
   style="stop-color:#DBE2EC"
   id="stop225" />
			<stop
   offset="0.48"
   style="stop-color:#F0F5F8"
   id="stop227" />
			<stop
   offset="0.58"
   style="stop-color:#FDFDFD"
   id="stop229" />
			<stop
   offset="0.71"
   style="stop-color:#9DA9BA"
   id="stop231" />
			<stop
   offset="0.82"
   style="stop-color:#646A73"
   id="stop233" />
			<stop
   offset="1"
   style="stop-color:#CEC5D9"
   id="stop235" />
			<a:midPointStop
   offset="0"
   style="stop-color:#61606C" />
			<a:midPointStop
   offset="0.5"
   style="stop-color:#61606C" />
			<a:midPointStop
   offset="0.17"
   style="stop-color:#A4A9AE" />
			<a:midPointStop
   offset="0.5"
   style="stop-color:#A4A9AE" />
			<a:midPointStop
   offset="0.35"
   style="stop-color:#DBE2EC" />
			<a:midPointStop
   offset="0.5"
   style="stop-color:#DBE2EC" />
			<a:midPointStop
   offset="0.48"
   style="stop-color:#F0F5F8" />
			<a:midPointStop
   offset="0.5"
   style="stop-color:#F0F5F8" />
			<a:midPointStop
   offset="0.58"
   style="stop-color:#FDFDFD" />
			<a:midPointStop
   offset="0.5"
   style="stop-color:#FDFDFD" />
			<a:midPointStop
   offset="0.71"
   style="stop-color:#9DA9BA" />
			<a:midPointStop
   offset="0.5"
   style="stop-color:#9DA9BA" />
			<a:midPointStop
   offset="0.82"
   style="stop-color:#646A73" />
			<a:midPointStop
   offset="0.5"
   style="stop-color:#646A73" />
			<a:midPointStop
   offset="1"
   style="stop-color:#CEC5D9" />
		</linearGradient>
		<path
   fill-rule="evenodd"
   clip-rule="evenodd"
   fill="url(#SVGID_10_)"
   d="M12.868,8.028V6.967c0-0.1,0.086-0.181,0.19-0.181h3.176    c0.105,0,0.19,0.081,0.19,0.181v1.062c0,0.101-0.085,0.181-0.19,0.183h-3.176C12.955,8.211,12.867,8.129,12.868,8.028z"
   id="path238" />
		<path
   fill-rule="evenodd"
   clip-rule="evenodd"
   fill="#5D5C64"
   d="M15.415,7.047v0.932c0,0.083,0.071,0.152,0.158,0.152h0.604    c0.086,0,0.157-0.067,0.157-0.152V7.047c0-0.082-0.071-0.151-0.157-0.151l-0.604,0.001C15.485,6.896,15.415,6.965,15.415,7.047z"
   id="path240" />
		<path
   fill-rule="evenodd"
   clip-rule="evenodd"
   fill="#84868F"
   d="M13.556,7.048v0.931c0.001,0.083,0.072,0.152,0.158,0.152h1.409    c0.086,0,0.158-0.069,0.158-0.152V7.047c0-0.082-0.071-0.151-0.158-0.151h-1.409C13.627,6.896,13.556,6.965,13.556,7.048z"
   id="path242" />
		<path
   fill-rule="evenodd"
   clip-rule="evenodd"
   fill="#BEC4CB"
   d="M12.949,7.047l0.001,0.932c-0.001,0.083,0.072,0.152,0.157,0.152    h0.158c0.087,0,0.158-0.069,0.158-0.152V7.047c-0.001-0.082-0.07-0.151-0.157-0.151h-0.159C13.02,6.896,12.95,6.963,12.949,7.047z    "
   id="path244" />
	</g>
</g>
</svg>
