<?xml version="1.0" encoding="UTF-8" standalone="no"?>
<svg
   xmlns:a="http://ns.adobe.com/AdobeSVGViewerExtensions/3.0/"
   xmlns:dc="http://purl.org/dc/elements/1.1/"
   xmlns:cc="http://creativecommons.org/ns#"
   xmlns:rdf="http://www.w3.org/1999/02/22-rdf-syntax-ns#"
   xmlns:svg="http://www.w3.org/2000/svg"
   xmlns="http://www.w3.org/2000/svg"
   xmlns:sodipodi="http://sodipodi.sourceforge.net/DTD/sodipodi-0.dtd"
   xmlns:inkscape="http://www.inkscape.org/namespaces/inkscape"
   version="1.1"
   id="图层_1"
   x="0px"
   y="0px"
   width="40px"
   height="23px"
   viewBox="0 0 40 23"
   enable-background="new 0 0 40 23"
   xml:space="preserve"
   sodipodi:docname="工业管道_37-01.svg"><metadata
   id="metadata325"><rdf:RDF><cc:Work
       rdf:about=""><dc:format>image/svg+xml</dc:format><dc:type
         rdf:resource="http://purl.org/dc/dcmitype/StillImage" /></cc:Work></rdf:RDF></metadata><defs
   id="defs323" /><sodipodi:namedview
   pagecolor="#ffffff"
   bordercolor="#666666"
   borderopacity="1"
   objecttolerance="10"
   gridtolerance="10"
   guidetolerance="10"
   inkscape:pageopacity="0"
   inkscape:pageshadow="2"
   inkscape:window-width="640"
   inkscape:window-height="480"
   id="namedview321" />
<g
   id="g318">
	<path
   fill-rule="evenodd"
   clip-rule="evenodd"
   fill="#231815"
   d="M3.021,5.124c5.599,0,11.197,0,16.795,0   c5.597,0,11.192,0,16.787,0h0.463l-0.334,0.317c-2.463,2.333-5.505,5.208-7.018,8.264c-1.304,2.632-1.402,5.368-1.482,8.234   l-0.004,0.181h-0.18c-2.754,0-5.507,0-8.26,0c-2.754,0-5.509,0-8.264,0h-0.183l-0.002-0.184c-0.032-2.854-0.084-5.6-1.356-8.233   c-1.465-3.035-4.66-5.949-7.09-8.262L2.56,5.124H3.021z"
   id="path2" />
	<linearGradient
   id="SVGID_1_"
   gradientUnits="userSpaceOnUse"
   x1="34.4443"
   y1="13.6221"
   x2="2.7979"
   y2="13.6221">
		<stop
   offset="0"
   style="stop-color:#61606C"
   id="stop4" />
		<stop
   offset="0.21"
   style="stop-color:#A4A9AE"
   id="stop6" />
		<stop
   offset="0.3"
   style="stop-color:#DBE2EC"
   id="stop8" />
		<stop
   offset="0.36"
   style="stop-color:#F0F5F8"
   id="stop10" />
		<stop
   offset="0.5"
   style="stop-color:#FDFDFD"
   id="stop12" />
		<stop
   offset="0.71"
   style="stop-color:#9DA9BA"
   id="stop14" />
		<stop
   offset="0.82"
   style="stop-color:#646A73"
   id="stop16" />
		<stop
   offset="1"
   style="stop-color:#3E3A39"
   id="stop18" />
		<a:midPointStop
   offset="0"
   style="stop-color:#61606C" />
		<a:midPointStop
   offset="0.5"
   style="stop-color:#61606C" />
		<a:midPointStop
   offset="0.21"
   style="stop-color:#A4A9AE" />
		<a:midPointStop
   offset="0.5"
   style="stop-color:#A4A9AE" />
		<a:midPointStop
   offset="0.3"
   style="stop-color:#DBE2EC" />
		<a:midPointStop
   offset="0.5"
   style="stop-color:#DBE2EC" />
		<a:midPointStop
   offset="0.36"
   style="stop-color:#F0F5F8" />
		<a:midPointStop
   offset="0.5"
   style="stop-color:#F0F5F8" />
		<a:midPointStop
   offset="0.5"
   style="stop-color:#FDFDFD" />
		<a:midPointStop
   offset="0.5"
   style="stop-color:#FDFDFD" />
		<a:midPointStop
   offset="0.71"
   style="stop-color:#9DA9BA" />
		<a:midPointStop
   offset="0.5"
   style="stop-color:#9DA9BA" />
		<a:midPointStop
   offset="0.82"
   style="stop-color:#646A73" />
		<a:midPointStop
   offset="0.5"
   style="stop-color:#646A73" />
		<a:midPointStop
   offset="1"
   style="stop-color:#3E3A39" />
	</linearGradient>
	<path
   fill-rule="evenodd"
   clip-rule="evenodd"
   fill="url(#SVGID_1_)"
   d="M3.021,5.309c5.599,0,11.2,0,16.795,0s11.193,0,16.787,0   c-2.924,2.77-5.649,5.476-7.055,8.314c-1.346,2.719-1.424,5.543-1.5,8.313c-2.752,0-5.506,0-8.26,0s-5.507,0-8.264,0   c-0.031-2.77-0.064-5.599-1.375-8.313C8.777,10.779,5.932,8.078,3.021,5.309z"
   id="path21" />
	<polygon
   fill-rule="evenodd"
   clip-rule="evenodd"
   fill="#231815"
   points="28.529,23 28.529,21.301 11.039,21.301 11.039,21.968    11.039,23  "
   id="polygon23" />
	<linearGradient
   id="SVGID_2_"
   gradientUnits="userSpaceOnUse"
   x1="27.3232"
   y1="22.1514"
   x2="8.9475"
   y2="22.1514">
		<stop
   offset="0"
   style="stop-color:#61606C"
   id="stop25" />
		<stop
   offset="0.21"
   style="stop-color:#A4A9AE"
   id="stop27" />
		<stop
   offset="0.3"
   style="stop-color:#DBE2EC"
   id="stop29" />
		<stop
   offset="0.36"
   style="stop-color:#F0F5F8"
   id="stop31" />
		<stop
   offset="0.5"
   style="stop-color:#FDFDFD"
   id="stop33" />
		<stop
   offset="0.71"
   style="stop-color:#9DA9BA"
   id="stop35" />
		<stop
   offset="0.82"
   style="stop-color:#646A73"
   id="stop37" />
		<stop
   offset="1"
   style="stop-color:#CEC5D9"
   id="stop39" />
		<a:midPointStop
   offset="0"
   style="stop-color:#61606C" />
		<a:midPointStop
   offset="0.5"
   style="stop-color:#61606C" />
		<a:midPointStop
   offset="0.21"
   style="stop-color:#A4A9AE" />
		<a:midPointStop
   offset="0.5"
   style="stop-color:#A4A9AE" />
		<a:midPointStop
   offset="0.3"
   style="stop-color:#DBE2EC" />
		<a:midPointStop
   offset="0.5"
   style="stop-color:#DBE2EC" />
		<a:midPointStop
   offset="0.36"
   style="stop-color:#F0F5F8" />
		<a:midPointStop
   offset="0.5"
   style="stop-color:#F0F5F8" />
		<a:midPointStop
   offset="0.5"
   style="stop-color:#FDFDFD" />
		<a:midPointStop
   offset="0.5"
   style="stop-color:#FDFDFD" />
		<a:midPointStop
   offset="0.71"
   style="stop-color:#9DA9BA" />
		<a:midPointStop
   offset="0.5"
   style="stop-color:#9DA9BA" />
		<a:midPointStop
   offset="0.82"
   style="stop-color:#646A73" />
		<a:midPointStop
   offset="0.5"
   style="stop-color:#646A73" />
		<a:midPointStop
   offset="1"
   style="stop-color:#CEC5D9" />
	</linearGradient>
	<polygon
   fill-rule="evenodd"
   clip-rule="evenodd"
   fill="url(#SVGID_2_)"
   points="28.344,21.968 28.344,21.812 28.344,21.487    11.224,21.487 11.224,21.968 11.224,21.968 11.224,22.814 28.344,22.814  "
   id="polygon42" />
	<ellipse
   fill-rule="evenodd"
   clip-rule="evenodd"
   fill="#231815"
   cx="19.783"
   cy="22.166"
   rx="0.587"
   ry="0.582"
   id="ellipse44" />
	
		<radialGradient
   id="SVGID_3_"
   cx="18.0215"
   cy="22.9473"
   r="0.5156"
   gradientTransform="matrix(1.0125 0 0 1.0091 1.5554 -1.1331)"
   gradientUnits="userSpaceOnUse">
		<stop
   offset="0"
   style="stop-color:#FFFFFF"
   id="stop46" />
		<stop
   offset="0.27"
   style="stop-color:#F0F5F8"
   id="stop48" />
		<stop
   offset="0.49"
   style="stop-color:#DBE2EC"
   id="stop50" />
		<stop
   offset="0.71"
   style="stop-color:#A4A9AE"
   id="stop52" />
		<stop
   offset="1"
   style="stop-color:#57555B"
   id="stop54" />
		<a:midPointStop
   offset="0"
   style="stop-color:#FFFFFF" />
		<a:midPointStop
   offset="0.5"
   style="stop-color:#FFFFFF" />
		<a:midPointStop
   offset="0.27"
   style="stop-color:#F0F5F8" />
		<a:midPointStop
   offset="0.5"
   style="stop-color:#F0F5F8" />
		<a:midPointStop
   offset="0.49"
   style="stop-color:#DBE2EC" />
		<a:midPointStop
   offset="0.5"
   style="stop-color:#DBE2EC" />
		<a:midPointStop
   offset="0.71"
   style="stop-color:#A4A9AE" />
		<a:midPointStop
   offset="0.5"
   style="stop-color:#A4A9AE" />
		<a:midPointStop
   offset="1"
   style="stop-color:#57555B" />
	</radialGradient>
	<circle
   fill-rule="evenodd"
   clip-rule="evenodd"
   fill="url(#SVGID_3_)"
   cx="19.772"
   cy="22.153"
   r="0.512"
   id="circle57" />
	<path
   fill-rule="evenodd"
   clip-rule="evenodd"
   fill="#FFFFFF"
   d="M19.42,21.911c0.123-0.179,0.27-0.078,0.147,0.1   C19.444,22.19,19.297,22.089,19.42,21.911z"
   id="path59" />
	<g
   id="g282">
		<g
   id="g109">
			<rect
   x="2.792"
   y="6.495"
   fill-rule="evenodd"
   clip-rule="evenodd"
   fill="#231815"
   width="2.3"
   height="1.271"
   id="rect61" />
			<linearGradient
   id="SVGID_4_"
   gradientUnits="userSpaceOnUse"
   x1="4.7764"
   y1="7.1309"
   x2="2.7831"
   y2="7.1309">
				<stop
   offset="0"
   style="stop-color:#61606C"
   id="stop63" />
				<stop
   offset="0.17"
   style="stop-color:#A4A9AE"
   id="stop65" />
				<stop
   offset="0.35"
   style="stop-color:#DBE2EC"
   id="stop67" />
				<stop
   offset="0.48"
   style="stop-color:#F0F5F8"
   id="stop69" />
				<stop
   offset="0.58"
   style="stop-color:#FDFDFD"
   id="stop71" />
				<stop
   offset="0.71"
   style="stop-color:#9DA9BA"
   id="stop73" />
				<stop
   offset="0.82"
   style="stop-color:#646A73"
   id="stop75" />
				<stop
   offset="1"
   style="stop-color:#CEC5D9"
   id="stop77" />
				<a:midPointStop
   offset="0"
   style="stop-color:#61606C" />
				<a:midPointStop
   offset="0.5"
   style="stop-color:#61606C" />
				<a:midPointStop
   offset="0.17"
   style="stop-color:#A4A9AE" />
				<a:midPointStop
   offset="0.5"
   style="stop-color:#A4A9AE" />
				<a:midPointStop
   offset="0.35"
   style="stop-color:#DBE2EC" />
				<a:midPointStop
   offset="0.5"
   style="stop-color:#DBE2EC" />
				<a:midPointStop
   offset="0.48"
   style="stop-color:#F0F5F8" />
				<a:midPointStop
   offset="0.5"
   style="stop-color:#F0F5F8" />
				<a:midPointStop
   offset="0.58"
   style="stop-color:#FDFDFD" />
				<a:midPointStop
   offset="0.5"
   style="stop-color:#FDFDFD" />
				<a:midPointStop
   offset="0.71"
   style="stop-color:#9DA9BA" />
				<a:midPointStop
   offset="0.5"
   style="stop-color:#9DA9BA" />
				<a:midPointStop
   offset="0.82"
   style="stop-color:#646A73" />
				<a:midPointStop
   offset="0.5"
   style="stop-color:#646A73" />
				<a:midPointStop
   offset="1"
   style="stop-color:#CEC5D9" />
			</linearGradient>
			<rect
   x="2.973"
   y="6.676"
   fill-rule="evenodd"
   clip-rule="evenodd"
   fill="url(#SVGID_4_)"
   width="1.94"
   height="0.91"
   id="rect80" />
			<path
   fill-rule="evenodd"
   clip-rule="evenodd"
   fill="#231815"
   d="M1.984,8.405l0-1.111c0-0.203,0.167-0.368,0.371-0.368     l3.176-0.002c0.203,0.002,0.37,0.167,0.37,0.37v1.111c0,0.204-0.167,0.37-0.37,0.37H2.355C2.15,8.775,1.984,8.609,1.984,8.405z"
   id="path82" />
			<linearGradient
   id="SVGID_5_"
   gradientUnits="userSpaceOnUse"
   x1="5.4712"
   y1="7.8511"
   x2="1.8178"
   y2="7.8511">
				<stop
   offset="0"
   style="stop-color:#61606C"
   id="stop84" />
				<stop
   offset="0.17"
   style="stop-color:#A4A9AE"
   id="stop86" />
				<stop
   offset="0.35"
   style="stop-color:#DBE2EC"
   id="stop88" />
				<stop
   offset="0.48"
   style="stop-color:#F0F5F8"
   id="stop90" />
				<stop
   offset="0.58"
   style="stop-color:#FDFDFD"
   id="stop92" />
				<stop
   offset="0.71"
   style="stop-color:#9DA9BA"
   id="stop94" />
				<stop
   offset="0.82"
   style="stop-color:#646A73"
   id="stop96" />
				<stop
   offset="1"
   style="stop-color:#CEC5D9"
   id="stop98" />
				<a:midPointStop
   offset="0"
   style="stop-color:#61606C" />
				<a:midPointStop
   offset="0.5"
   style="stop-color:#61606C" />
				<a:midPointStop
   offset="0.17"
   style="stop-color:#A4A9AE" />
				<a:midPointStop
   offset="0.5"
   style="stop-color:#A4A9AE" />
				<a:midPointStop
   offset="0.35"
   style="stop-color:#DBE2EC" />
				<a:midPointStop
   offset="0.5"
   style="stop-color:#DBE2EC" />
				<a:midPointStop
   offset="0.48"
   style="stop-color:#F0F5F8" />
				<a:midPointStop
   offset="0.5"
   style="stop-color:#F0F5F8" />
				<a:midPointStop
   offset="0.58"
   style="stop-color:#FDFDFD" />
				<a:midPointStop
   offset="0.5"
   style="stop-color:#FDFDFD" />
				<a:midPointStop
   offset="0.71"
   style="stop-color:#9DA9BA" />
				<a:midPointStop
   offset="0.5"
   style="stop-color:#9DA9BA" />
				<a:midPointStop
   offset="0.82"
   style="stop-color:#646A73" />
				<a:midPointStop
   offset="0.5"
   style="stop-color:#646A73" />
				<a:midPointStop
   offset="1"
   style="stop-color:#CEC5D9" />
			</linearGradient>
			<path
   fill-rule="evenodd"
   clip-rule="evenodd"
   fill="url(#SVGID_5_)"
   d="M2.164,8.406V7.294c0-0.104,0.085-0.188,0.191-0.188     h3.176c0.104,0,0.189,0.084,0.189,0.188v1.112c0,0.104-0.086,0.189-0.189,0.189H2.355C2.25,8.596,2.164,8.51,2.164,8.406z"
   id="path101" />
			<path
   fill-rule="evenodd"
   clip-rule="evenodd"
   fill="#5D5C64"
   d="M4.71,7.378v0.978c0,0.086,0.071,0.155,0.157,0.157l0.604-0.002     c0.087,0.002,0.158-0.069,0.158-0.155V7.378c0-0.087-0.071-0.156-0.158-0.155H4.868C4.781,7.222,4.71,7.291,4.71,7.378z"
   id="path103" />
			<path
   fill-rule="evenodd"
   clip-rule="evenodd"
   fill="#84868F"
   d="M2.852,7.378v0.978c0,0.086,0.072,0.155,0.158,0.157h1.409     c0.086,0,0.158-0.071,0.157-0.157V7.378c0.001-0.085-0.07-0.156-0.157-0.155H3.01C2.924,7.222,2.852,7.291,2.852,7.378z"
   id="path105" />
			<path
   fill-rule="evenodd"
   clip-rule="evenodd"
   fill="#BEC4CB"
   d="M2.245,7.378v0.978c0,0.086,0.073,0.155,0.158,0.155     l0.158,0.002c0.086-0.002,0.158-0.073,0.158-0.157V7.378c0-0.085-0.071-0.155-0.158-0.156H2.403     C2.316,7.223,2.245,7.291,2.245,7.378z"
   id="path107" />
		</g>
		<path
   fill-rule="evenodd"
   clip-rule="evenodd"
   fill="#231815"
   d="M38.558,0C39.353,0,40,0.649,40,1.438c0,1.257,0,2.512,0,3.769    c0,0.792-0.647,1.436-1.442,1.436H1.443C0.647,6.642,0,5.998,0,5.205c0-1.254,0-2.511,0-3.766C0,0.647,0.648,0,1.443,0H38.558z"
   id="path111" />
		<linearGradient
   id="SVGID_6_"
   gradientUnits="userSpaceOnUse"
   x1="37.4561"
   y1="3.3232"
   x2="-5.0895"
   y2="3.3232">
			<stop
   offset="0"
   style="stop-color:#61606C"
   id="stop113" />
			<stop
   offset="0.21"
   style="stop-color:#A4A9AE"
   id="stop115" />
			<stop
   offset="0.3"
   style="stop-color:#DBE2EC"
   id="stop117" />
			<stop
   offset="0.36"
   style="stop-color:#F0F5F8"
   id="stop119" />
			<stop
   offset="0.5"
   style="stop-color:#FDFDFD"
   id="stop121" />
			<stop
   offset="0.71"
   style="stop-color:#9DA9BA"
   id="stop123" />
			<stop
   offset="0.82"
   style="stop-color:#646A73"
   id="stop125" />
			<stop
   offset="1"
   style="stop-color:#CEC5D9"
   id="stop127" />
			<a:midPointStop
   offset="0"
   style="stop-color:#61606C" />
			<a:midPointStop
   offset="0.5"
   style="stop-color:#61606C" />
			<a:midPointStop
   offset="0.21"
   style="stop-color:#A4A9AE" />
			<a:midPointStop
   offset="0.5"
   style="stop-color:#A4A9AE" />
			<a:midPointStop
   offset="0.3"
   style="stop-color:#DBE2EC" />
			<a:midPointStop
   offset="0.5"
   style="stop-color:#DBE2EC" />
			<a:midPointStop
   offset="0.36"
   style="stop-color:#F0F5F8" />
			<a:midPointStop
   offset="0.5"
   style="stop-color:#F0F5F8" />
			<a:midPointStop
   offset="0.5"
   style="stop-color:#FDFDFD" />
			<a:midPointStop
   offset="0.5"
   style="stop-color:#FDFDFD" />
			<a:midPointStop
   offset="0.71"
   style="stop-color:#9DA9BA" />
			<a:midPointStop
   offset="0.5"
   style="stop-color:#9DA9BA" />
			<a:midPointStop
   offset="0.82"
   style="stop-color:#646A73" />
			<a:midPointStop
   offset="0.5"
   style="stop-color:#646A73" />
			<a:midPointStop
   offset="1"
   style="stop-color:#CEC5D9" />
		</linearGradient>
		<path
   fill-rule="evenodd"
   clip-rule="evenodd"
   fill="url(#SVGID_6_)"
   d="M38.558,0.182H1.443C0.748,0.183,0.181,0.746,0.181,1.439    c0,1.192,0,2.573,0,3.767c0,0.692,0.567,1.259,1.262,1.258l37.115,0.001c0.695-0.001,1.262-0.566,1.262-1.259    c0-1.193,0.001-2.574,0-3.767C39.819,0.746,39.253,0.182,38.558,0.182z"
   id="path130" />
		<g
   id="g180">
			<rect
   x="34.908"
   y="6.495"
   fill-rule="evenodd"
   clip-rule="evenodd"
   fill="#231815"
   width="2.3"
   height="1.271"
   id="rect132" />
			<linearGradient
   id="SVGID_7_"
   gradientUnits="userSpaceOnUse"
   x1="36.8896"
   y1="7.1294"
   x2="34.8978"
   y2="7.1294">
				<stop
   offset="0"
   style="stop-color:#61606C"
   id="stop134" />
				<stop
   offset="0.17"
   style="stop-color:#A4A9AE"
   id="stop136" />
				<stop
   offset="0.35"
   style="stop-color:#DBE2EC"
   id="stop138" />
				<stop
   offset="0.48"
   style="stop-color:#F0F5F8"
   id="stop140" />
				<stop
   offset="0.58"
   style="stop-color:#FDFDFD"
   id="stop142" />
				<stop
   offset="0.71"
   style="stop-color:#9DA9BA"
   id="stop144" />
				<stop
   offset="0.82"
   style="stop-color:#646A73"
   id="stop146" />
				<stop
   offset="1"
   style="stop-color:#CEC5D9"
   id="stop148" />
				<a:midPointStop
   offset="0"
   style="stop-color:#61606C" />
				<a:midPointStop
   offset="0.5"
   style="stop-color:#61606C" />
				<a:midPointStop
   offset="0.17"
   style="stop-color:#A4A9AE" />
				<a:midPointStop
   offset="0.5"
   style="stop-color:#A4A9AE" />
				<a:midPointStop
   offset="0.35"
   style="stop-color:#DBE2EC" />
				<a:midPointStop
   offset="0.5"
   style="stop-color:#DBE2EC" />
				<a:midPointStop
   offset="0.48"
   style="stop-color:#F0F5F8" />
				<a:midPointStop
   offset="0.5"
   style="stop-color:#F0F5F8" />
				<a:midPointStop
   offset="0.58"
   style="stop-color:#FDFDFD" />
				<a:midPointStop
   offset="0.5"
   style="stop-color:#FDFDFD" />
				<a:midPointStop
   offset="0.71"
   style="stop-color:#9DA9BA" />
				<a:midPointStop
   offset="0.5"
   style="stop-color:#9DA9BA" />
				<a:midPointStop
   offset="0.82"
   style="stop-color:#646A73" />
				<a:midPointStop
   offset="0.5"
   style="stop-color:#646A73" />
				<a:midPointStop
   offset="1"
   style="stop-color:#CEC5D9" />
			</linearGradient>
			<rect
   x="35.088"
   y="6.673"
   fill-rule="evenodd"
   clip-rule="evenodd"
   fill="url(#SVGID_7_)"
   width="1.938"
   height="0.913"
   id="rect151" />
			<path
   fill-rule="evenodd"
   clip-rule="evenodd"
   fill="#231815"
   d="M34.1,8.405l-0.001-1.111c0.001-0.203,0.167-0.368,0.371-0.368     h3.176c0.204,0,0.371,0.165,0.371,0.368v1.111c-0.002,0.204-0.167,0.37-0.371,0.37H34.47C34.266,8.775,34.1,8.609,34.1,8.405z"
   id="path153" />
			<linearGradient
   id="SVGID_8_"
   gradientUnits="userSpaceOnUse"
   x1="37.5879"
   y1="7.8511"
   x2="33.934"
   y2="7.8511">
				<stop
   offset="0"
   style="stop-color:#61606C"
   id="stop155" />
				<stop
   offset="0.17"
   style="stop-color:#A4A9AE"
   id="stop157" />
				<stop
   offset="0.35"
   style="stop-color:#DBE2EC"
   id="stop159" />
				<stop
   offset="0.48"
   style="stop-color:#F0F5F8"
   id="stop161" />
				<stop
   offset="0.58"
   style="stop-color:#FDFDFD"
   id="stop163" />
				<stop
   offset="0.71"
   style="stop-color:#9DA9BA"
   id="stop165" />
				<stop
   offset="0.82"
   style="stop-color:#646A73"
   id="stop167" />
				<stop
   offset="1"
   style="stop-color:#CEC5D9"
   id="stop169" />
				<a:midPointStop
   offset="0"
   style="stop-color:#61606C" />
				<a:midPointStop
   offset="0.5"
   style="stop-color:#61606C" />
				<a:midPointStop
   offset="0.17"
   style="stop-color:#A4A9AE" />
				<a:midPointStop
   offset="0.5"
   style="stop-color:#A4A9AE" />
				<a:midPointStop
   offset="0.35"
   style="stop-color:#DBE2EC" />
				<a:midPointStop
   offset="0.5"
   style="stop-color:#DBE2EC" />
				<a:midPointStop
   offset="0.48"
   style="stop-color:#F0F5F8" />
				<a:midPointStop
   offset="0.5"
   style="stop-color:#F0F5F8" />
				<a:midPointStop
   offset="0.58"
   style="stop-color:#FDFDFD" />
				<a:midPointStop
   offset="0.5"
   style="stop-color:#FDFDFD" />
				<a:midPointStop
   offset="0.71"
   style="stop-color:#9DA9BA" />
				<a:midPointStop
   offset="0.5"
   style="stop-color:#9DA9BA" />
				<a:midPointStop
   offset="0.82"
   style="stop-color:#646A73" />
				<a:midPointStop
   offset="0.5"
   style="stop-color:#646A73" />
				<a:midPointStop
   offset="1"
   style="stop-color:#CEC5D9" />
			</linearGradient>
			<path
   fill-rule="evenodd"
   clip-rule="evenodd"
   fill="url(#SVGID_8_)"
   d="M34.28,8.405V7.294c0-0.104,0.085-0.188,0.189-0.188     h3.176c0.105,0,0.191,0.084,0.191,0.188v1.111c0,0.104-0.086,0.192-0.191,0.19H34.47C34.365,8.596,34.28,8.51,34.28,8.405z"
   id="path172" />
			<path
   fill-rule="evenodd"
   clip-rule="evenodd"
   fill="#5D5C64"
   d="M36.825,7.378l0.001,0.978     c-0.001,0.086,0.071,0.157,0.157,0.155l0.604,0.002c0.086-0.002,0.156-0.071,0.157-0.157V7.378     c-0.001-0.087-0.071-0.156-0.157-0.155h-0.604C36.896,7.223,36.825,7.291,36.825,7.378z"
   id="path174" />
			<path
   fill-rule="evenodd"
   clip-rule="evenodd"
   fill="#84868F"
   d="M34.968,7.378v0.978c0,0.086,0.072,0.157,0.157,0.155h1.409     c0.086,0,0.158-0.069,0.158-0.155V7.378c0-0.085-0.071-0.156-0.158-0.155h-1.408C35.04,7.223,34.968,7.291,34.968,7.378z"
   id="path176" />
			<path
   fill-rule="evenodd"
   clip-rule="evenodd"
   fill="#BEC4CB"
   d="M34.36,7.378v0.978c0.002,0.086,0.073,0.155,0.158,0.155     l0.158,0.002c0.084-0.002,0.158-0.073,0.158-0.157V7.378c-0.001-0.085-0.071-0.155-0.158-0.156l-0.158,0.001     C34.431,7.223,34.36,7.291,34.36,7.378z"
   id="path178" />
		</g>
		<g
   id="g230">
			<rect
   x="24.202"
   y="6.495"
   fill-rule="evenodd"
   clip-rule="evenodd"
   fill="#231815"
   width="2.301"
   height="1.271"
   id="rect182" />
			<linearGradient
   id="SVGID_9_"
   gradientUnits="userSpaceOnUse"
   x1="26.1865"
   y1="7.1289"
   x2="24.1945"
   y2="7.1289">
				<stop
   offset="0"
   style="stop-color:#61606C"
   id="stop184" />
				<stop
   offset="0.17"
   style="stop-color:#A4A9AE"
   id="stop186" />
				<stop
   offset="0.35"
   style="stop-color:#DBE2EC"
   id="stop188" />
				<stop
   offset="0.48"
   style="stop-color:#F0F5F8"
   id="stop190" />
				<stop
   offset="0.58"
   style="stop-color:#FDFDFD"
   id="stop192" />
				<stop
   offset="0.71"
   style="stop-color:#9DA9BA"
   id="stop194" />
				<stop
   offset="0.82"
   style="stop-color:#646A73"
   id="stop196" />
				<stop
   offset="1"
   style="stop-color:#CEC5D9"
   id="stop198" />
				<a:midPointStop
   offset="0"
   style="stop-color:#61606C" />
				<a:midPointStop
   offset="0.5"
   style="stop-color:#61606C" />
				<a:midPointStop
   offset="0.17"
   style="stop-color:#A4A9AE" />
				<a:midPointStop
   offset="0.5"
   style="stop-color:#A4A9AE" />
				<a:midPointStop
   offset="0.35"
   style="stop-color:#DBE2EC" />
				<a:midPointStop
   offset="0.5"
   style="stop-color:#DBE2EC" />
				<a:midPointStop
   offset="0.48"
   style="stop-color:#F0F5F8" />
				<a:midPointStop
   offset="0.5"
   style="stop-color:#F0F5F8" />
				<a:midPointStop
   offset="0.58"
   style="stop-color:#FDFDFD" />
				<a:midPointStop
   offset="0.5"
   style="stop-color:#FDFDFD" />
				<a:midPointStop
   offset="0.71"
   style="stop-color:#9DA9BA" />
				<a:midPointStop
   offset="0.5"
   style="stop-color:#9DA9BA" />
				<a:midPointStop
   offset="0.82"
   style="stop-color:#646A73" />
				<a:midPointStop
   offset="0.5"
   style="stop-color:#646A73" />
				<a:midPointStop
   offset="1"
   style="stop-color:#CEC5D9" />
			</linearGradient>
			<rect
   x="24.384"
   y="6.673"
   fill-rule="evenodd"
   clip-rule="evenodd"
   fill="url(#SVGID_9_)"
   width="1.939"
   height="0.912"
   id="rect201" />
			<path
   fill-rule="evenodd"
   clip-rule="evenodd"
   fill="#231815"
   d="M23.394,8.405V7.294c0.002-0.203,0.168-0.368,0.371-0.368h3.177     c0.204,0,0.37,0.165,0.37,0.368v1.111c0,0.204-0.166,0.37-0.371,0.37h-3.176C23.562,8.775,23.394,8.609,23.394,8.405z"
   id="path203" />
			<linearGradient
   id="SVGID_10_"
   gradientUnits="userSpaceOnUse"
   x1="26.8828"
   y1="7.8501"
   x2="23.2296"
   y2="7.8501">
				<stop
   offset="0"
   style="stop-color:#61606C"
   id="stop205" />
				<stop
   offset="0.17"
   style="stop-color:#A4A9AE"
   id="stop207" />
				<stop
   offset="0.35"
   style="stop-color:#DBE2EC"
   id="stop209" />
				<stop
   offset="0.48"
   style="stop-color:#F0F5F8"
   id="stop211" />
				<stop
   offset="0.58"
   style="stop-color:#FDFDFD"
   id="stop213" />
				<stop
   offset="0.71"
   style="stop-color:#9DA9BA"
   id="stop215" />
				<stop
   offset="0.82"
   style="stop-color:#646A73"
   id="stop217" />
				<stop
   offset="1"
   style="stop-color:#CEC5D9"
   id="stop219" />
				<a:midPointStop
   offset="0"
   style="stop-color:#61606C" />
				<a:midPointStop
   offset="0.5"
   style="stop-color:#61606C" />
				<a:midPointStop
   offset="0.17"
   style="stop-color:#A4A9AE" />
				<a:midPointStop
   offset="0.5"
   style="stop-color:#A4A9AE" />
				<a:midPointStop
   offset="0.35"
   style="stop-color:#DBE2EC" />
				<a:midPointStop
   offset="0.5"
   style="stop-color:#DBE2EC" />
				<a:midPointStop
   offset="0.48"
   style="stop-color:#F0F5F8" />
				<a:midPointStop
   offset="0.5"
   style="stop-color:#F0F5F8" />
				<a:midPointStop
   offset="0.58"
   style="stop-color:#FDFDFD" />
				<a:midPointStop
   offset="0.5"
   style="stop-color:#FDFDFD" />
				<a:midPointStop
   offset="0.71"
   style="stop-color:#9DA9BA" />
				<a:midPointStop
   offset="0.5"
   style="stop-color:#9DA9BA" />
				<a:midPointStop
   offset="0.82"
   style="stop-color:#646A73" />
				<a:midPointStop
   offset="0.5"
   style="stop-color:#646A73" />
				<a:midPointStop
   offset="1"
   style="stop-color:#CEC5D9" />
			</linearGradient>
			<path
   fill-rule="evenodd"
   clip-rule="evenodd"
   fill="url(#SVGID_10_)"
   d="M23.575,8.405V7.294c0-0.104,0.085-0.188,0.189-0.189     l3.176,0.002c0.105,0,0.191,0.084,0.191,0.188v1.111c0,0.104-0.086,0.19-0.191,0.19h-3.176C23.66,8.596,23.575,8.51,23.575,8.405     z"
   id="path222" />
			<path
   fill-rule="evenodd"
   clip-rule="evenodd"
   fill="#5D5C64"
   d="M26.12,7.378v0.978c0,0.086,0.071,0.157,0.158,0.157h0.603     c0.087-0.002,0.157-0.071,0.157-0.157V7.378c0-0.087-0.07-0.155-0.156-0.156l-0.604,0.001C26.191,7.222,26.12,7.291,26.12,7.378z     "
   id="path224" />
			<path
   fill-rule="evenodd"
   clip-rule="evenodd"
   fill="#84868F"
   d="M24.263,7.378v0.978c0,0.086,0.072,0.157,0.157,0.157     l1.409-0.002c0.086,0,0.157-0.069,0.157-0.155V7.378c0-0.085-0.07-0.155-0.157-0.155H24.42     C24.333,7.222,24.263,7.291,24.263,7.378z"
   id="path226" />
			<path
   fill-rule="evenodd"
   clip-rule="evenodd"
   fill="#BEC4CB"
   d="M23.655,7.378v0.978c0,0.086,0.072,0.155,0.158,0.155h0.158     c0.086,0.002,0.158-0.069,0.158-0.155V7.378c0-0.085-0.071-0.155-0.158-0.156l-0.158,0.001     C23.727,7.223,23.655,7.291,23.655,7.378z"
   id="path228" />
		</g>
		<g
   id="g280">
			<rect
   x="13.498"
   y="6.495"
   fill-rule="evenodd"
   clip-rule="evenodd"
   fill="#231815"
   width="2.299"
   height="1.271"
   id="rect232" />
			<linearGradient
   id="SVGID_11_"
   gradientUnits="userSpaceOnUse"
   x1="15.481"
   y1="7.1294"
   x2="13.4883"
   y2="7.1294">
				<stop
   offset="0"
   style="stop-color:#61606C"
   id="stop234" />
				<stop
   offset="0.17"
   style="stop-color:#A4A9AE"
   id="stop236" />
				<stop
   offset="0.35"
   style="stop-color:#DBE2EC"
   id="stop238" />
				<stop
   offset="0.48"
   style="stop-color:#F0F5F8"
   id="stop240" />
				<stop
   offset="0.58"
   style="stop-color:#FDFDFD"
   id="stop242" />
				<stop
   offset="0.71"
   style="stop-color:#9DA9BA"
   id="stop244" />
				<stop
   offset="0.82"
   style="stop-color:#646A73"
   id="stop246" />
				<stop
   offset="1"
   style="stop-color:#CEC5D9"
   id="stop248" />
				<a:midPointStop
   offset="0"
   style="stop-color:#61606C" />
				<a:midPointStop
   offset="0.5"
   style="stop-color:#61606C" />
				<a:midPointStop
   offset="0.17"
   style="stop-color:#A4A9AE" />
				<a:midPointStop
   offset="0.5"
   style="stop-color:#A4A9AE" />
				<a:midPointStop
   offset="0.35"
   style="stop-color:#DBE2EC" />
				<a:midPointStop
   offset="0.5"
   style="stop-color:#DBE2EC" />
				<a:midPointStop
   offset="0.48"
   style="stop-color:#F0F5F8" />
				<a:midPointStop
   offset="0.5"
   style="stop-color:#F0F5F8" />
				<a:midPointStop
   offset="0.58"
   style="stop-color:#FDFDFD" />
				<a:midPointStop
   offset="0.5"
   style="stop-color:#FDFDFD" />
				<a:midPointStop
   offset="0.71"
   style="stop-color:#9DA9BA" />
				<a:midPointStop
   offset="0.5"
   style="stop-color:#9DA9BA" />
				<a:midPointStop
   offset="0.82"
   style="stop-color:#646A73" />
				<a:midPointStop
   offset="0.5"
   style="stop-color:#646A73" />
				<a:midPointStop
   offset="1"
   style="stop-color:#CEC5D9" />
			</linearGradient>
			<rect
   x="13.678"
   y="6.673"
   fill-rule="evenodd"
   clip-rule="evenodd"
   fill="url(#SVGID_11_)"
   width="1.939"
   height="0.913"
   id="rect251" />
			<path
   fill-rule="evenodd"
   clip-rule="evenodd"
   fill="#231815"
   d="M12.689,8.405V7.294c0-0.203,0.166-0.368,0.372-0.368h3.175     c0.204-0.002,0.37,0.165,0.37,0.368v1.111c0,0.204-0.166,0.37-0.37,0.37H13.06C12.855,8.775,12.689,8.609,12.689,8.405z"
   id="path253" />
			<linearGradient
   id="SVGID_12_"
   gradientUnits="userSpaceOnUse"
   x1="16.1768"
   y1="7.8511"
   x2="12.5231"
   y2="7.8511">
				<stop
   offset="0"
   style="stop-color:#61606C"
   id="stop255" />
				<stop
   offset="0.17"
   style="stop-color:#A4A9AE"
   id="stop257" />
				<stop
   offset="0.35"
   style="stop-color:#DBE2EC"
   id="stop259" />
				<stop
   offset="0.48"
   style="stop-color:#F0F5F8"
   id="stop261" />
				<stop
   offset="0.58"
   style="stop-color:#FDFDFD"
   id="stop263" />
				<stop
   offset="0.71"
   style="stop-color:#9DA9BA"
   id="stop265" />
				<stop
   offset="0.82"
   style="stop-color:#646A73"
   id="stop267" />
				<stop
   offset="1"
   style="stop-color:#CEC5D9"
   id="stop269" />
				<a:midPointStop
   offset="0"
   style="stop-color:#61606C" />
				<a:midPointStop
   offset="0.5"
   style="stop-color:#61606C" />
				<a:midPointStop
   offset="0.17"
   style="stop-color:#A4A9AE" />
				<a:midPointStop
   offset="0.5"
   style="stop-color:#A4A9AE" />
				<a:midPointStop
   offset="0.35"
   style="stop-color:#DBE2EC" />
				<a:midPointStop
   offset="0.5"
   style="stop-color:#DBE2EC" />
				<a:midPointStop
   offset="0.48"
   style="stop-color:#F0F5F8" />
				<a:midPointStop
   offset="0.5"
   style="stop-color:#F0F5F8" />
				<a:midPointStop
   offset="0.58"
   style="stop-color:#FDFDFD" />
				<a:midPointStop
   offset="0.5"
   style="stop-color:#FDFDFD" />
				<a:midPointStop
   offset="0.71"
   style="stop-color:#9DA9BA" />
				<a:midPointStop
   offset="0.5"
   style="stop-color:#9DA9BA" />
				<a:midPointStop
   offset="0.82"
   style="stop-color:#646A73" />
				<a:midPointStop
   offset="0.5"
   style="stop-color:#646A73" />
				<a:midPointStop
   offset="1"
   style="stop-color:#CEC5D9" />
			</linearGradient>
			<path
   fill-rule="evenodd"
   clip-rule="evenodd"
   fill="url(#SVGID_12_)"
   d="M12.869,8.405l0-1.111c0-0.104,0.086-0.188,0.19-0.188     h3.176c0.104,0,0.19,0.084,0.19,0.188v1.112c0.001,0.104-0.085,0.189-0.19,0.189H13.06C12.956,8.596,12.869,8.51,12.869,8.405z"
   id="path272" />
			<path
   fill-rule="evenodd"
   clip-rule="evenodd"
   fill="#5D5C64"
   d="M15.416,7.378v0.978c0,0.086,0.071,0.155,0.157,0.155h0.604     c0.086,0.002,0.157-0.069,0.157-0.155V7.378c0-0.087-0.071-0.156-0.157-0.155l-0.604-0.001     C15.487,7.223,15.416,7.291,15.416,7.378z"
   id="path274" />
			<path
   fill-rule="evenodd"
   clip-rule="evenodd"
   fill="#84868F"
   d="M13.558,7.378l0.001,0.978     c-0.001,0.086,0.071,0.157,0.156,0.155h1.409c0.085,0.002,0.158-0.069,0.158-0.155V7.378c0-0.085-0.071-0.155-0.158-0.156h-1.408     C13.628,7.223,13.559,7.291,13.558,7.378z"
   id="path276" />
			<path
   fill-rule="evenodd"
   clip-rule="evenodd"
   fill="#BEC4CB"
   d="M12.949,7.378v0.978c0.001,0.086,0.074,0.157,0.159,0.157     l0.159-0.002c0.086,0,0.157-0.071,0.157-0.155l0-0.978c0-0.085-0.07-0.155-0.158-0.155l-0.158-0.001     C13.021,7.222,12.95,7.291,12.949,7.378z"
   id="path278" />
		</g>
	</g>
	<ellipse
   fill-rule="evenodd"
   clip-rule="evenodd"
   fill="#231815"
   cx="11.645"
   cy="22.166"
   rx="0.35"
   ry="0.582"
   id="ellipse284" />
	
		<radialGradient
   id="SVGID_13_"
   cx="9.9756"
   cy="22.9473"
   r="0.4417"
   gradientTransform="matrix(1.0125 0 0 1.0091 1.5554 -1.1331)"
   gradientUnits="userSpaceOnUse">
		<stop
   offset="0"
   style="stop-color:#FFFFFF"
   id="stop286" />
		<stop
   offset="0.27"
   style="stop-color:#F0F5F8"
   id="stop288" />
		<stop
   offset="0.49"
   style="stop-color:#DBE2EC"
   id="stop290" />
		<stop
   offset="0.71"
   style="stop-color:#A4A9AE"
   id="stop292" />
		<stop
   offset="1"
   style="stop-color:#57555B"
   id="stop294" />
		<a:midPointStop
   offset="0"
   style="stop-color:#FFFFFF" />
		<a:midPointStop
   offset="0.5"
   style="stop-color:#FFFFFF" />
		<a:midPointStop
   offset="0.27"
   style="stop-color:#F0F5F8" />
		<a:midPointStop
   offset="0.5"
   style="stop-color:#F0F5F8" />
		<a:midPointStop
   offset="0.49"
   style="stop-color:#DBE2EC" />
		<a:midPointStop
   offset="0.5"
   style="stop-color:#DBE2EC" />
		<a:midPointStop
   offset="0.71"
   style="stop-color:#A4A9AE" />
		<a:midPointStop
   offset="0.5"
   style="stop-color:#A4A9AE" />
		<a:midPointStop
   offset="1"
   style="stop-color:#57555B" />
	</radialGradient>
	<ellipse
   fill-rule="evenodd"
   clip-rule="evenodd"
   fill="url(#SVGID_13_)"
   cx="11.638"
   cy="22.153"
   rx="0.306"
   ry="0.508"
   id="ellipse297" />
	<path
   fill-rule="evenodd"
   clip-rule="evenodd"
   fill="#FFFFFF"
   d="M11.429,21.911c0.073-0.179,0.161-0.078,0.087,0.1   C11.443,22.19,11.355,22.089,11.429,21.911z"
   id="path299" />
	<ellipse
   fill-rule="evenodd"
   clip-rule="evenodd"
   fill="#231815"
   cx="27.878"
   cy="22.166"
   rx="0.349"
   ry="0.582"
   id="ellipse301" />
	
		<radialGradient
   id="SVGID_14_"
   cx="26.0078"
   cy="22.9473"
   r="0.4416"
   gradientTransform="matrix(1.0125 0 0 1.0091 1.5554 -1.1331)"
   gradientUnits="userSpaceOnUse">
		<stop
   offset="0"
   style="stop-color:#FFFFFF"
   id="stop303" />
		<stop
   offset="0.27"
   style="stop-color:#F0F5F8"
   id="stop305" />
		<stop
   offset="0.49"
   style="stop-color:#DBE2EC"
   id="stop307" />
		<stop
   offset="0.71"
   style="stop-color:#A4A9AE"
   id="stop309" />
		<stop
   offset="1"
   style="stop-color:#57555B"
   id="stop311" />
		<a:midPointStop
   offset="0"
   style="stop-color:#FFFFFF" />
		<a:midPointStop
   offset="0.5"
   style="stop-color:#FFFFFF" />
		<a:midPointStop
   offset="0.27"
   style="stop-color:#F0F5F8" />
		<a:midPointStop
   offset="0.5"
   style="stop-color:#F0F5F8" />
		<a:midPointStop
   offset="0.49"
   style="stop-color:#DBE2EC" />
		<a:midPointStop
   offset="0.5"
   style="stop-color:#DBE2EC" />
		<a:midPointStop
   offset="0.71"
   style="stop-color:#A4A9AE" />
		<a:midPointStop
   offset="0.5"
   style="stop-color:#A4A9AE" />
		<a:midPointStop
   offset="1"
   style="stop-color:#57555B" />
	</radialGradient>
	<ellipse
   fill-rule="evenodd"
   clip-rule="evenodd"
   fill="url(#SVGID_14_)"
   cx="27.871"
   cy="22.153"
   rx="0.306"
   ry="0.508"
   id="ellipse314" />
	<path
   fill-rule="evenodd"
   clip-rule="evenodd"
   fill="#FFFFFF"
   d="M27.661,21.911c0.074-0.179,0.161-0.078,0.088,0.1   C27.676,22.19,27.589,22.089,27.661,21.911z"
   id="path316" />
</g>
</svg>
