<?xml version="1.0" encoding="UTF-8" standalone="no"?>
<svg
   xmlns:a="http://ns.adobe.com/AdobeSVGViewerExtensions/3.0/"
   xmlns:dc="http://purl.org/dc/elements/1.1/"
   xmlns:cc="http://creativecommons.org/ns#"
   xmlns:rdf="http://www.w3.org/1999/02/22-rdf-syntax-ns#"
   xmlns:svg="http://www.w3.org/2000/svg"
   xmlns="http://www.w3.org/2000/svg"
   xmlns:sodipodi="http://sodipodi.sourceforge.net/DTD/sodipodi-0.dtd"
   xmlns:inkscape="http://www.inkscape.org/namespaces/inkscape"
   version="1.1"
   id="图层_1"
   x="0px"
   y="0px"
   width="50px"
   height="39px"
   viewBox="0 0 50 39"
   enable-background="new 0 0 50 39"
   xml:space="preserve"
   sodipodi:docname="工业管道_51-01.svg"><metadata
   id="metadata328"><rdf:RDF><cc:Work
       rdf:about=""><dc:format>image/svg+xml</dc:format><dc:type
         rdf:resource="http://purl.org/dc/dcmitype/StillImage" /></cc:Work></rdf:RDF></metadata><defs
   id="defs326" /><sodipodi:namedview
   pagecolor="#ffffff"
   bordercolor="#666666"
   borderopacity="1"
   objecttolerance="10"
   gridtolerance="10"
   guidetolerance="10"
   inkscape:pageopacity="0"
   inkscape:pageshadow="2"
   inkscape:window-width="640"
   inkscape:window-height="480"
   id="namedview324" />
<g
   id="g321">
	<g
   id="g130">
		<g
   id="g88">
			<path
   fill-rule="evenodd"
   clip-rule="evenodd"
   fill="#4A0000"
   d="M3.143,15.827c0.134-0.149,0.471-0.252,0.849-0.251     c0.124,0,0.248,0,0.371-0.001c0,0.085,0,0.169,0,0.252c0.201,0,0.402,0,0.603,0c0.137-0.149,0.471-0.252,0.85-0.252     c0.124,0,0.248,0,0.37,0c0,0.085,0,0.169,0,0.252c0.202,0,0.402,0,0.604,0c0.134-0.149,0.469-0.252,0.849-0.251l0.369-0.001     v0.252H8.61c0.136-0.149,0.47-0.252,0.85-0.251l0.371-0.001v0.252h0.601c0.138-0.149,0.471-0.252,0.853-0.252h0.368v0.252h0.418     c0.135-0.149,0.469-0.252,0.85-0.251l0.369-0.001l0.001,0.252h0.603c0.136-0.149,0.47-0.252,0.85-0.252h0.37l0.001,0.252h0.603     c0.135-0.149,0.471-0.252,0.85-0.251l0.369-0.001l0.001,0.252h0.603c0.136-0.149,0.471-0.252,0.85-0.251l0.37-0.001v0.252h0.602     c0.138-0.149,0.472-0.252,0.852-0.252h0.37v0.252h1.04l-0.002,7.352h-1.038v0.245h-0.37c-0.374,0-0.706-0.098-0.847-0.245h-0.606     v0.245h-0.37c-0.374,0-0.706-0.098-0.846-0.245h-0.606v0.245h-0.37c-0.375,0-0.706-0.098-0.846-0.245h-0.607v0.245h-0.37     c-0.374,0-0.707-0.098-0.845-0.243h-0.608v0.243H12.92c-0.375,0-0.707-0.098-0.845-0.245l-0.422,0.001l-0.001,0.244h-0.368     c-0.376,0-0.706-0.098-0.846-0.245H9.831v0.245H9.46c-0.374,0-0.705-0.098-0.844-0.245H8.007v0.245H7.638     c-0.375,0-0.705-0.098-0.845-0.245c-0.203,0-0.405,0-0.608,0c0,0.081,0,0.163,0,0.245c-0.123,0-0.247,0-0.371,0     c-0.374,0-0.704-0.098-0.843-0.243c-0.203,0-0.405,0-0.608,0c0,0.08,0,0.161,0,0.243c-0.123,0-0.247,0-0.371,0     c-0.374,0-0.704-0.098-0.844-0.245c-0.171,0-0.341,0.001-0.511,0.002c-0.352-2.227-0.244-5.739,0-7.354     C2.806,15.827,2.975,15.827,3.143,15.827z"
   id="path2" />
			<linearGradient
   id="SVGID_1_"
   gradientUnits="userSpaceOnUse"
   x1="12.1274"
   y1="22.9551"
   x2="12.1274"
   y2="16.0513">
				<stop
   offset="0"
   style="stop-color:#926A46"
   id="stop4" />
				<stop
   offset="0.03"
   style="stop-color:#812000"
   id="stop6" />
				<stop
   offset="0.16"
   style="stop-color:#A06032"
   id="stop8" />
				<stop
   offset="0.24"
   style="stop-color:#C77D51"
   id="stop10" />
				<stop
   offset="0.33"
   style="stop-color:#FACE91"
   id="stop12" />
				<stop
   offset="0.4"
   style="stop-color:#FAF2DE"
   id="stop14" />
				<stop
   offset="0.52"
   style="stop-color:#F1BE74"
   id="stop16" />
				<stop
   offset="0.61"
   style="stop-color:#E99C62"
   id="stop18" />
				<stop
   offset="0.72"
   style="stop-color:#AF5800"
   id="stop20" />
				<stop
   offset="0.87"
   style="stop-color:#812000"
   id="stop22" />
				<stop
   offset="1"
   style="stop-color:#B47736"
   id="stop24" />
				<a:midPointStop
   offset="0"
   style="stop-color:#926A46" />
				<a:midPointStop
   offset="0.5"
   style="stop-color:#926A46" />
				<a:midPointStop
   offset="0.03"
   style="stop-color:#812000" />
				<a:midPointStop
   offset="0.5"
   style="stop-color:#812000" />
				<a:midPointStop
   offset="0.16"
   style="stop-color:#A06032" />
				<a:midPointStop
   offset="0.5"
   style="stop-color:#A06032" />
				<a:midPointStop
   offset="0.24"
   style="stop-color:#C77D51" />
				<a:midPointStop
   offset="0.5"
   style="stop-color:#C77D51" />
				<a:midPointStop
   offset="0.33"
   style="stop-color:#FACE91" />
				<a:midPointStop
   offset="0.5"
   style="stop-color:#FACE91" />
				<a:midPointStop
   offset="0.4"
   style="stop-color:#FAF2DE" />
				<a:midPointStop
   offset="0.5"
   style="stop-color:#FAF2DE" />
				<a:midPointStop
   offset="0.52"
   style="stop-color:#F1BE74" />
				<a:midPointStop
   offset="0.5"
   style="stop-color:#F1BE74" />
				<a:midPointStop
   offset="0.61"
   style="stop-color:#E99C62" />
				<a:midPointStop
   offset="0.5"
   style="stop-color:#E99C62" />
				<a:midPointStop
   offset="0.72"
   style="stop-color:#AF5800" />
				<a:midPointStop
   offset="0.5"
   style="stop-color:#AF5800" />
				<a:midPointStop
   offset="0.87"
   style="stop-color:#812000" />
				<a:midPointStop
   offset="0.5"
   style="stop-color:#812000" />
				<a:midPointStop
   offset="1"
   style="stop-color:#B47736" />
			</linearGradient>
			<polygon
   fill-rule="evenodd"
   clip-rule="evenodd"
   fill="url(#SVGID_1_)"
   points="21.437,22.955 21.437,16.051 12.51,16.051      11.746,16.051 2.818,16.051 2.818,22.955 11.746,22.955 12.51,22.955    "
   id="polygon27" />
			<linearGradient
   id="SVGID_2_"
   gradientUnits="userSpaceOnUse"
   x1="7.3652"
   y1="23.1914"
   x2="7.3652"
   y2="15.8091">
				<stop
   offset="0"
   style="stop-color:#640000"
   id="stop29" />
				<stop
   offset="0.11"
   style="stop-color:#A06032"
   id="stop31" />
				<stop
   offset="0.24"
   style="stop-color:#C77D51"
   id="stop33" />
				<stop
   offset="0.33"
   style="stop-color:#FACE91"
   id="stop35" />
				<stop
   offset="0.53"
   style="stop-color:#FAF2DE"
   id="stop37" />
				<stop
   offset="0.64"
   style="stop-color:#F1BE74"
   id="stop39" />
				<stop
   offset="0.82"
   style="stop-color:#AF5800"
   id="stop41" />
				<stop
   offset="1"
   style="stop-color:#6B2700"
   id="stop43" />
				<a:midPointStop
   offset="0"
   style="stop-color:#640000" />
				<a:midPointStop
   offset="0.5"
   style="stop-color:#640000" />
				<a:midPointStop
   offset="0.11"
   style="stop-color:#A06032" />
				<a:midPointStop
   offset="0.5"
   style="stop-color:#A06032" />
				<a:midPointStop
   offset="0.24"
   style="stop-color:#C77D51" />
				<a:midPointStop
   offset="0.5"
   style="stop-color:#C77D51" />
				<a:midPointStop
   offset="0.33"
   style="stop-color:#FACE91" />
				<a:midPointStop
   offset="0.5"
   style="stop-color:#FACE91" />
				<a:midPointStop
   offset="0.53"
   style="stop-color:#FAF2DE" />
				<a:midPointStop
   offset="0.5"
   style="stop-color:#FAF2DE" />
				<a:midPointStop
   offset="0.64"
   style="stop-color:#F1BE74" />
				<a:midPointStop
   offset="0.5"
   style="stop-color:#F1BE74" />
				<a:midPointStop
   offset="0.82"
   style="stop-color:#AF5800" />
				<a:midPointStop
   offset="0.5"
   style="stop-color:#AF5800" />
				<a:midPointStop
   offset="1"
   style="stop-color:#6B2700" />
			</linearGradient>
			<path
   fill-rule="evenodd"
   clip-rule="evenodd"
   fill="url(#SVGID_2_)"
   d="M6.002,23.191v-7.383H5.813     c-0.401,0-0.73,0.138-0.73,0.306v6.772c0,0.167,0.329,0.305,0.731,0.305H6.002L6.002,23.191z M4.179,23.191v-7.383H3.991     c-0.402,0-0.731,0.138-0.731,0.306v6.772c0,0.167,0.33,0.305,0.731,0.305H4.179L4.179,23.191z M11.471,23.191v-7.383h-0.188     c-0.403,0-0.73,0.138-0.731,0.306v6.772c0,0.167,0.328,0.305,0.731,0.305H11.471L11.471,23.191z M9.648,23.191v-7.383H9.46     c-0.402,0-0.731,0.138-0.731,0.306v6.771c0,0.168,0.329,0.306,0.731,0.306H9.648L9.648,23.191z M7.825,23.191v-7.383H7.638     c-0.402,0-0.731,0.138-0.731,0.306v6.772c0,0.167,0.329,0.305,0.731,0.305H7.825z"
   id="path46" />
			<linearGradient
   id="SVGID_3_"
   gradientUnits="userSpaceOnUse"
   x1="16.2935"
   y1="23.1914"
   x2="16.2935"
   y2="15.8091">
				<stop
   offset="0"
   style="stop-color:#640000"
   id="stop48" />
				<stop
   offset="0.11"
   style="stop-color:#A06032"
   id="stop50" />
				<stop
   offset="0.24"
   style="stop-color:#C77D51"
   id="stop52" />
				<stop
   offset="0.33"
   style="stop-color:#FACE91"
   id="stop54" />
				<stop
   offset="0.53"
   style="stop-color:#FAF2DE"
   id="stop56" />
				<stop
   offset="0.64"
   style="stop-color:#F1BE74"
   id="stop58" />
				<stop
   offset="0.82"
   style="stop-color:#AF5800"
   id="stop60" />
				<stop
   offset="1"
   style="stop-color:#6B2700"
   id="stop62" />
				<a:midPointStop
   offset="0"
   style="stop-color:#640000" />
				<a:midPointStop
   offset="0.5"
   style="stop-color:#640000" />
				<a:midPointStop
   offset="0.11"
   style="stop-color:#A06032" />
				<a:midPointStop
   offset="0.5"
   style="stop-color:#A06032" />
				<a:midPointStop
   offset="0.24"
   style="stop-color:#C77D51" />
				<a:midPointStop
   offset="0.5"
   style="stop-color:#C77D51" />
				<a:midPointStop
   offset="0.33"
   style="stop-color:#FACE91" />
				<a:midPointStop
   offset="0.5"
   style="stop-color:#FACE91" />
				<a:midPointStop
   offset="0.53"
   style="stop-color:#FAF2DE" />
				<a:midPointStop
   offset="0.5"
   style="stop-color:#FAF2DE" />
				<a:midPointStop
   offset="0.64"
   style="stop-color:#F1BE74" />
				<a:midPointStop
   offset="0.5"
   style="stop-color:#F1BE74" />
				<a:midPointStop
   offset="0.82"
   style="stop-color:#AF5800" />
				<a:midPointStop
   offset="0.5"
   style="stop-color:#AF5800" />
				<a:midPointStop
   offset="1"
   style="stop-color:#6B2700" />
			</linearGradient>
			<path
   fill-rule="evenodd"
   clip-rule="evenodd"
   fill="url(#SVGID_3_)"
   d="M14.93,23.191v-7.383h-0.188     c-0.403,0-0.731,0.138-0.731,0.306v6.772c0,0.167,0.328,0.305,0.731,0.305H14.93L14.93,23.191z M13.106,23.191v-7.383H12.92     c-0.404,0-0.731,0.138-0.731,0.306v6.772c0,0.167,0.328,0.305,0.731,0.305H13.106L13.106,23.191z M20.397,23.191l0.001-7.383     h-0.188c-0.404,0-0.731,0.138-0.731,0.306v6.772c0,0.167,0.327,0.305,0.731,0.305H20.397L20.397,23.191z M18.576,23.191     l-0.001-7.383h-0.188c-0.404,0-0.731,0.138-0.731,0.306v6.771c0,0.168,0.327,0.306,0.731,0.306H18.576L18.576,23.191z      M16.753,23.191v-7.383h-0.188c-0.403,0-0.731,0.138-0.731,0.306v6.772c0,0.167,0.328,0.305,0.731,0.305H16.753z"
   id="path65" />
			<linearGradient
   id="SVGID_4_"
   gradientUnits="userSpaceOnUse"
   x1="2.8501"
   y1="23.3076"
   x2="2.8501"
   y2="15.1409">
				<stop
   offset="0"
   style="stop-color:#6B2700"
   id="stop67" />
				<stop
   offset="0.16"
   style="stop-color:#A06032"
   id="stop69" />
				<stop
   offset="0.24"
   style="stop-color:#C77D51"
   id="stop71" />
				<stop
   offset="0.34"
   style="stop-color:#FACE91"
   id="stop73" />
				<stop
   offset="0.46"
   style="stop-color:#FAF2DE"
   id="stop75" />
				<stop
   offset="0.56"
   style="stop-color:#F1BE74"
   id="stop77" />
				<stop
   offset="0.67"
   style="stop-color:#E99C62"
   id="stop79" />
				<stop
   offset="0.81"
   style="stop-color:#AF5800"
   id="stop81" />
				<stop
   offset="1"
   style="stop-color:#6B2700"
   id="stop83" />
				<a:midPointStop
   offset="0"
   style="stop-color:#6B2700" />
				<a:midPointStop
   offset="0.5"
   style="stop-color:#6B2700" />
				<a:midPointStop
   offset="0.16"
   style="stop-color:#A06032" />
				<a:midPointStop
   offset="0.5"
   style="stop-color:#A06032" />
				<a:midPointStop
   offset="0.24"
   style="stop-color:#C77D51" />
				<a:midPointStop
   offset="0.5"
   style="stop-color:#C77D51" />
				<a:midPointStop
   offset="0.34"
   style="stop-color:#FACE91" />
				<a:midPointStop
   offset="0.5"
   style="stop-color:#FACE91" />
				<a:midPointStop
   offset="0.46"
   style="stop-color:#FAF2DE" />
				<a:midPointStop
   offset="0.5"
   style="stop-color:#FAF2DE" />
				<a:midPointStop
   offset="0.56"
   style="stop-color:#F1BE74" />
				<a:midPointStop
   offset="0.5"
   style="stop-color:#F1BE74" />
				<a:midPointStop
   offset="0.67"
   style="stop-color:#E99C62" />
				<a:midPointStop
   offset="0.5"
   style="stop-color:#E99C62" />
				<a:midPointStop
   offset="0.81"
   style="stop-color:#AF5800" />
				<a:midPointStop
   offset="0.5"
   style="stop-color:#AF5800" />
				<a:midPointStop
   offset="1"
   style="stop-color:#6B2700" />
			</linearGradient>
			<ellipse
   fill-rule="evenodd"
   clip-rule="evenodd"
   fill="url(#SVGID_4_)"
   cx="2.85"
   cy="19.503"
   rx="0.3"
   ry="3.452"
   id="ellipse86" />
		</g>
		<g
   id="g128">
			<linearGradient
   id="SVGID_5_"
   gradientUnits="userSpaceOnUse"
   x1="21.7925"
   y1="25.3975"
   x2="21.7925"
   y2="12.0781">
				<stop
   offset="0"
   style="stop-color:#5A0000"
   id="stop90" />
				<stop
   offset="0.31"
   style="stop-color:#BF7547"
   id="stop92" />
				<stop
   offset="0.41"
   style="stop-color:#EEBC7F"
   id="stop94" />
				<stop
   offset="0.49"
   style="stop-color:#F0CB8A"
   id="stop96" />
				<stop
   offset="0.6"
   style="stop-color:#E6AE64"
   id="stop98" />
				<stop
   offset="0.73"
   style="stop-color:#912A00"
   id="stop100" />
				<stop
   offset="1"
   style="stop-color:#280000"
   id="stop102" />
				<a:midPointStop
   offset="0"
   style="stop-color:#5A0000" />
				<a:midPointStop
   offset="0.5"
   style="stop-color:#5A0000" />
				<a:midPointStop
   offset="0.31"
   style="stop-color:#BF7547" />
				<a:midPointStop
   offset="0.5"
   style="stop-color:#BF7547" />
				<a:midPointStop
   offset="0.41"
   style="stop-color:#EEBC7F" />
				<a:midPointStop
   offset="0.5"
   style="stop-color:#EEBC7F" />
				<a:midPointStop
   offset="0.49"
   style="stop-color:#F0CB8A" />
				<a:midPointStop
   offset="0.5"
   style="stop-color:#F0CB8A" />
				<a:midPointStop
   offset="0.6"
   style="stop-color:#E6AE64" />
				<a:midPointStop
   offset="0.5"
   style="stop-color:#E6AE64" />
				<a:midPointStop
   offset="0.73"
   style="stop-color:#912A00" />
				<a:midPointStop
   offset="0.5"
   style="stop-color:#912A00" />
				<a:midPointStop
   offset="1"
   style="stop-color:#280000" />
			</linearGradient>
			<path
   fill-rule="evenodd"
   clip-rule="evenodd"
   fill="url(#SVGID_5_)"
   d="M23.609,13.177H20.63c-0.361,0-0.654,0.229-0.654,0.506     v11.634c0,0.278,0.294,0.506,0.654,0.506h2.979V13.177z"
   id="path105" />
			<linearGradient
   id="SVGID_6_"
   gradientUnits="userSpaceOnUse"
   x1="22.1128"
   y1="26.1973"
   x2="22.1128"
   y2="11.7881">
				<stop
   offset="0"
   style="stop-color:#6B2700"
   id="stop107" />
				<stop
   offset="0.16"
   style="stop-color:#A06032"
   id="stop109" />
				<stop
   offset="0.24"
   style="stop-color:#C77D51"
   id="stop111" />
				<stop
   offset="0.34"
   style="stop-color:#FACE91"
   id="stop113" />
				<stop
   offset="0.46"
   style="stop-color:#FAF2DE"
   id="stop115" />
				<stop
   offset="0.56"
   style="stop-color:#F1BE74"
   id="stop117" />
				<stop
   offset="0.67"
   style="stop-color:#E99C62"
   id="stop119" />
				<stop
   offset="0.81"
   style="stop-color:#AF5800"
   id="stop121" />
				<stop
   offset="1"
   style="stop-color:#6B2700"
   id="stop123" />
				<a:midPointStop
   offset="0"
   style="stop-color:#6B2700" />
				<a:midPointStop
   offset="0.5"
   style="stop-color:#6B2700" />
				<a:midPointStop
   offset="0.16"
   style="stop-color:#A06032" />
				<a:midPointStop
   offset="0.5"
   style="stop-color:#A06032" />
				<a:midPointStop
   offset="0.24"
   style="stop-color:#C77D51" />
				<a:midPointStop
   offset="0.5"
   style="stop-color:#C77D51" />
				<a:midPointStop
   offset="0.34"
   style="stop-color:#FACE91" />
				<a:midPointStop
   offset="0.5"
   style="stop-color:#FACE91" />
				<a:midPointStop
   offset="0.46"
   style="stop-color:#FAF2DE" />
				<a:midPointStop
   offset="0.5"
   style="stop-color:#FAF2DE" />
				<a:midPointStop
   offset="0.56"
   style="stop-color:#F1BE74" />
				<a:midPointStop
   offset="0.5"
   style="stop-color:#F1BE74" />
				<a:midPointStop
   offset="0.67"
   style="stop-color:#E99C62" />
				<a:midPointStop
   offset="0.5"
   style="stop-color:#E99C62" />
				<a:midPointStop
   offset="0.81"
   style="stop-color:#AF5800" />
				<a:midPointStop
   offset="0.5"
   style="stop-color:#AF5800" />
				<a:midPointStop
   offset="1"
   style="stop-color:#6B2700" />
			</linearGradient>
			<path
   fill-rule="evenodd"
   clip-rule="evenodd"
   fill="url(#SVGID_6_)"
   d="M20.793,13.395v12.18     c2.868,0.002-0.227,0.002,2.64,0.002V13.395C20.566,13.395,23.661,13.395,20.793,13.395z"
   id="path126" />
		</g>
	</g>
	<g
   id="g258">
		<linearGradient
   id="SVGID_7_"
   gradientUnits="userSpaceOnUse"
   x1="48.3232"
   y1="19.4341"
   x2="20.3742"
   y2="19.4341">
			<stop
   offset="0"
   style="stop-color:#5A0000"
   id="stop132" />
			<stop
   offset="0.31"
   style="stop-color:#BF7547"
   id="stop134" />
			<stop
   offset="0.41"
   style="stop-color:#EEBC7F"
   id="stop136" />
			<stop
   offset="0.49"
   style="stop-color:#F0CB8A"
   id="stop138" />
			<stop
   offset="0.6"
   style="stop-color:#E6AE64"
   id="stop140" />
			<stop
   offset="0.73"
   style="stop-color:#912A00"
   id="stop142" />
			<stop
   offset="1"
   style="stop-color:#280000"
   id="stop144" />
			<a:midPointStop
   offset="0"
   style="stop-color:#5A0000" />
			<a:midPointStop
   offset="0.5"
   style="stop-color:#5A0000" />
			<a:midPointStop
   offset="0.31"
   style="stop-color:#BF7547" />
			<a:midPointStop
   offset="0.5"
   style="stop-color:#BF7547" />
			<a:midPointStop
   offset="0.41"
   style="stop-color:#EEBC7F" />
			<a:midPointStop
   offset="0.5"
   style="stop-color:#EEBC7F" />
			<a:midPointStop
   offset="0.49"
   style="stop-color:#F0CB8A" />
			<a:midPointStop
   offset="0.5"
   style="stop-color:#F0CB8A" />
			<a:midPointStop
   offset="0.6"
   style="stop-color:#E6AE64" />
			<a:midPointStop
   offset="0.5"
   style="stop-color:#E6AE64" />
			<a:midPointStop
   offset="0.73"
   style="stop-color:#912A00" />
			<a:midPointStop
   offset="0.5"
   style="stop-color:#912A00" />
			<a:midPointStop
   offset="1"
   style="stop-color:#280000" />
		</linearGradient>
		<path
   fill-rule="evenodd"
   clip-rule="evenodd"
   fill="url(#SVGID_7_)"
   d="M22.681,24.678V13.701h0.045    c0.184-1.156,0.902-3.076,1.751-3.076h22.942c0.852,0,1.567,1.918,1.751,3.076h0.045v11.465H49.17    c-0.184,1.157-0.899,3.077-1.751,3.077H24.477c-0.849,0-1.567-1.921-1.751-3.077h-0.045V24.678z"
   id="path147" />
		<linearGradient
   id="SVGID_8_"
   gradientUnits="userSpaceOnUse"
   x1="50.0537"
   y1="19.4341"
   x2="19.7708"
   y2="19.4341">
			<stop
   offset="0"
   style="stop-color:#6B2700"
   id="stop149" />
			<stop
   offset="0.16"
   style="stop-color:#A06032"
   id="stop151" />
			<stop
   offset="0.24"
   style="stop-color:#C77D51"
   id="stop153" />
			<stop
   offset="0.34"
   style="stop-color:#FACE91"
   id="stop155" />
			<stop
   offset="0.46"
   style="stop-color:#FAF2DE"
   id="stop157" />
			<stop
   offset="0.56"
   style="stop-color:#F1BE74"
   id="stop159" />
			<stop
   offset="0.67"
   style="stop-color:#E99C62"
   id="stop161" />
			<stop
   offset="0.81"
   style="stop-color:#AF5800"
   id="stop163" />
			<stop
   offset="1"
   style="stop-color:#6B2700"
   id="stop165" />
			<a:midPointStop
   offset="0"
   style="stop-color:#6B2700" />
			<a:midPointStop
   offset="0.5"
   style="stop-color:#6B2700" />
			<a:midPointStop
   offset="0.16"
   style="stop-color:#A06032" />
			<a:midPointStop
   offset="0.5"
   style="stop-color:#A06032" />
			<a:midPointStop
   offset="0.24"
   style="stop-color:#C77D51" />
			<a:midPointStop
   offset="0.5"
   style="stop-color:#C77D51" />
			<a:midPointStop
   offset="0.34"
   style="stop-color:#FACE91" />
			<a:midPointStop
   offset="0.5"
   style="stop-color:#FACE91" />
			<a:midPointStop
   offset="0.46"
   style="stop-color:#FAF2DE" />
			<a:midPointStop
   offset="0.5"
   style="stop-color:#FAF2DE" />
			<a:midPointStop
   offset="0.56"
   style="stop-color:#F1BE74" />
			<a:midPointStop
   offset="0.5"
   style="stop-color:#F1BE74" />
			<a:midPointStop
   offset="0.67"
   style="stop-color:#E99C62" />
			<a:midPointStop
   offset="0.5"
   style="stop-color:#E99C62" />
			<a:midPointStop
   offset="0.81"
   style="stop-color:#AF5800" />
			<a:midPointStop
   offset="0.5"
   style="stop-color:#AF5800" />
			<a:midPointStop
   offset="1"
   style="stop-color:#6B2700" />
		</linearGradient>
		<path
   fill-rule="evenodd"
   clip-rule="evenodd"
   fill="url(#SVGID_8_)"
   d="M48.748,24.705L48.748,24.705    c-0.025,0.71-0.623,1.281-1.35,1.281H24.495c-0.726,0-1.319-0.571-1.346-1.281h-0.001l-0.001-10.543h0.002    c0.026-0.709,0.62-1.28,1.346-1.28h22.903c0.727,0,1.324,0.571,1.349,1.28h0.001V24.705z"
   id="path168" />
		<g
   id="g212">
			<path
   fill-rule="evenodd"
   clip-rule="evenodd"
   fill="#6B2700"
   d="M47.835,39c0.374,0,0.707-0.154,0.945-0.438l0.938-1.116     C49.905,37.224,50,36.964,50,36.674l-0.016-6.083c0-0.276-0.089-0.526-0.262-0.745l-0.935-1.174     c-0.237-0.297-0.581-0.46-0.964-0.46H24.211c-0.39,0-0.738,0.169-0.976,0.474l-1.008,1.301c-0.164,0.212-0.248,0.452-0.252,0.718     l-0.078,5.388c-0.004,0.246,0.063,0.474,0.2,0.678l1.123,1.686C23.452,38.802,23.825,39,24.247,39H47.835z"
   id="path170" />
			<linearGradient
   id="SVGID_9_"
   gradientUnits="userSpaceOnUse"
   x1="22.3369"
   y1="33.6055"
   x2="49.5586"
   y2="33.6055">
				<stop
   offset="0"
   style="stop-color:#6B2700"
   id="stop172" />
				<stop
   offset="0.09"
   style="stop-color:#AB6D3F"
   id="stop174" />
				<stop
   offset="0.18"
   style="stop-color:#CE875B"
   id="stop176" />
				<stop
   offset="0.33"
   style="stop-color:#FAD196"
   id="stop178" />
				<stop
   offset="0.52"
   style="stop-color:#F3C37C"
   id="stop180" />
				<stop
   offset="0.72"
   style="stop-color:#B76513"
   id="stop182" />
				<stop
   offset="0.87"
   style="stop-color:#8E3200"
   id="stop184" />
				<stop
   offset="1"
   style="stop-color:#BC8044"
   id="stop186" />
				<a:midPointStop
   offset="0"
   style="stop-color:#6B2700" />
				<a:midPointStop
   offset="0.5"
   style="stop-color:#6B2700" />
				<a:midPointStop
   offset="0.09"
   style="stop-color:#AB6D3F" />
				<a:midPointStop
   offset="0.5"
   style="stop-color:#AB6D3F" />
				<a:midPointStop
   offset="0.18"
   style="stop-color:#CE875B" />
				<a:midPointStop
   offset="0.5"
   style="stop-color:#CE875B" />
				<a:midPointStop
   offset="0.33"
   style="stop-color:#FAD196" />
				<a:midPointStop
   offset="0.5"
   style="stop-color:#FAD196" />
				<a:midPointStop
   offset="0.52"
   style="stop-color:#F3C37C" />
				<a:midPointStop
   offset="0.5"
   style="stop-color:#F3C37C" />
				<a:midPointStop
   offset="0.72"
   style="stop-color:#B76513" />
				<a:midPointStop
   offset="0.5"
   style="stop-color:#B76513" />
				<a:midPointStop
   offset="0.87"
   style="stop-color:#8E3200" />
				<a:midPointStop
   offset="0.5"
   style="stop-color:#8E3200" />
				<a:midPointStop
   offset="1"
   style="stop-color:#BC8044" />
			</linearGradient>
			<path
   fill-rule="evenodd"
   clip-rule="evenodd"
   fill="url(#SVGID_9_)"
   d="M47.835,38.565H24.247c-0.273,0-0.508-0.124-0.659-0.349     l-1.123-1.686c-0.088-0.133-0.13-0.273-0.128-0.434l0.08-5.387c0.002-0.174,0.054-0.324,0.161-0.461l1.008-1.302     c0.153-0.197,0.371-0.304,0.625-0.304h23.613c0.248,0,0.464,0.104,0.618,0.296l0.935,1.172c0.111,0.143,0.168,0.299,0.168,0.479     l0.014,6.084c0,0.188-0.059,0.35-0.181,0.496l-0.937,1.114C48.286,38.469,48.078,38.565,47.835,38.565z"
   id="path189" />
			<linearGradient
   id="SVGID_10_"
   gradientUnits="userSpaceOnUse"
   x1="42.6572"
   y1="33.625"
   x2="49.35"
   y2="33.625">
				<stop
   offset="0"
   style="stop-color:#9D4200"
   id="stop191" />
				<stop
   offset="1"
   style="stop-color:#6B2700"
   id="stop193" />
				<a:midPointStop
   offset="0"
   style="stop-color:#9D4200" />
				<a:midPointStop
   offset="0.5"
   style="stop-color:#9D4200" />
				<a:midPointStop
   offset="1"
   style="stop-color:#6B2700" />
			</linearGradient>
			<path
   fill-rule="evenodd"
   clip-rule="evenodd"
   fill="url(#SVGID_10_)"
   d="M41.714,36.38v-5.51c0-0.712,0.524-1.293,1.167-1.293     h4.481c0.644,0,1.168,0.581,1.168,1.293v5.51c0,0.712-0.524,1.292-1.168,1.292h-4.481C42.238,37.672,41.714,37.092,41.714,36.38z     "
   id="path196" />
			<linearGradient
   id="SVGID_11_"
   gradientUnits="userSpaceOnUse"
   x1="36.499"
   y1="33.624"
   x2="28.7076"
   y2="33.624">
				<stop
   offset="0"
   style="stop-color:#C88240"
   id="stop198" />
				<stop
   offset="1"
   style="stop-color:#DDA786"
   id="stop200" />
				<a:midPointStop
   offset="0"
   style="stop-color:#C88240" />
				<a:midPointStop
   offset="0.5"
   style="stop-color:#C88240" />
				<a:midPointStop
   offset="1"
   style="stop-color:#DDA786" />
			</linearGradient>
			<path
   fill-rule="evenodd"
   clip-rule="evenodd"
   fill="url(#SVGID_11_)"
   d="M27.927,36.38v-5.51c0-0.712,0.53-1.293,1.169-1.293     H39.55c0.638,0,1.17,0.588,1.17,1.293v5.51c0,0.705-0.525,1.292-1.17,1.292H29.096C28.451,37.672,27.927,37.092,27.927,36.38z"
   id="path203" />
			<linearGradient
   id="SVGID_12_"
   gradientUnits="userSpaceOnUse"
   x1="29.2305"
   y1="33.624"
   x2="22.2476"
   y2="33.624">
				<stop
   offset="0"
   style="stop-color:#D78D4D"
   id="stop205" />
				<stop
   offset="1"
   style="stop-color:#FBE1BD"
   id="stop207" />
				<a:midPointStop
   offset="0"
   style="stop-color:#D78D4D" />
				<a:midPointStop
   offset="0.5"
   style="stop-color:#D78D4D" />
				<a:midPointStop
   offset="1"
   style="stop-color:#FBE1BD" />
			</linearGradient>
			<path
   fill-rule="evenodd"
   clip-rule="evenodd"
   fill="url(#SVGID_12_)"
   d="M23.419,36.38v-5.51c0-0.712,0.536-1.293,1.171-1.293     h1.175c0.636,0,1.171,0.593,1.171,1.293v5.51c0,0.701-0.525,1.292-1.171,1.292H24.59C23.943,37.672,23.419,37.092,23.419,36.38z"
   id="path210" />
		</g>
		<g
   id="g256">
			<path
   fill-rule="evenodd"
   clip-rule="evenodd"
   fill="#6B2700"
   d="M24.061,10.788c-0.373,0-0.706-0.153-0.944-0.437l-0.939-1.116     c-0.187-0.224-0.28-0.483-0.28-0.773l0.015-6.082c0-0.278,0.09-0.527,0.261-0.746l0.937-1.173C23.346,0.163,23.688,0,24.072,0     h23.613c0.39,0,0.738,0.169,0.975,0.473l1.009,1.303c0.164,0.212,0.247,0.451,0.25,0.718L50,7.881     c0.003,0.245-0.064,0.473-0.203,0.677l-1.122,1.687c-0.231,0.346-0.604,0.544-1.024,0.544H24.061z"
   id="path214" />
			<linearGradient
   id="SVGID_13_"
   gradientUnits="userSpaceOnUse"
   x1="49.5586"
   y1="5.394"
   x2="22.3374"
   y2="5.394">
				<stop
   offset="0"
   style="stop-color:#6B2700"
   id="stop216" />
				<stop
   offset="0.09"
   style="stop-color:#AB6D3F"
   id="stop218" />
				<stop
   offset="0.18"
   style="stop-color:#CE875B"
   id="stop220" />
				<stop
   offset="0.33"
   style="stop-color:#FAD196"
   id="stop222" />
				<stop
   offset="0.52"
   style="stop-color:#F3C37C"
   id="stop224" />
				<stop
   offset="0.72"
   style="stop-color:#B76513"
   id="stop226" />
				<stop
   offset="0.87"
   style="stop-color:#8E3200"
   id="stop228" />
				<stop
   offset="1"
   style="stop-color:#BC8044"
   id="stop230" />
				<a:midPointStop
   offset="0"
   style="stop-color:#6B2700" />
				<a:midPointStop
   offset="0.5"
   style="stop-color:#6B2700" />
				<a:midPointStop
   offset="0.09"
   style="stop-color:#AB6D3F" />
				<a:midPointStop
   offset="0.5"
   style="stop-color:#AB6D3F" />
				<a:midPointStop
   offset="0.18"
   style="stop-color:#CE875B" />
				<a:midPointStop
   offset="0.5"
   style="stop-color:#CE875B" />
				<a:midPointStop
   offset="0.33"
   style="stop-color:#FAD196" />
				<a:midPointStop
   offset="0.5"
   style="stop-color:#FAD196" />
				<a:midPointStop
   offset="0.52"
   style="stop-color:#F3C37C" />
				<a:midPointStop
   offset="0.5"
   style="stop-color:#F3C37C" />
				<a:midPointStop
   offset="0.72"
   style="stop-color:#B76513" />
				<a:midPointStop
   offset="0.5"
   style="stop-color:#B76513" />
				<a:midPointStop
   offset="0.87"
   style="stop-color:#8E3200" />
				<a:midPointStop
   offset="0.5"
   style="stop-color:#8E3200" />
				<a:midPointStop
   offset="1"
   style="stop-color:#BC8044" />
			</linearGradient>
			<path
   fill-rule="evenodd"
   clip-rule="evenodd"
   fill="url(#SVGID_13_)"
   d="M24.061,10.354h23.59c0.272,0,0.505-0.124,0.657-0.35     L49.43,8.32c0.09-0.134,0.131-0.274,0.129-0.434L49.479,2.5c-0.003-0.175-0.055-0.324-0.161-0.463l-1.009-1.3     c-0.154-0.197-0.372-0.304-0.624-0.304H24.072c-0.248,0-0.466,0.104-0.618,0.295L22.519,1.9     c-0.111,0.143-0.168,0.299-0.168,0.479l-0.014,6.083c0,0.188,0.058,0.35,0.18,0.496l0.938,1.114     C23.608,10.258,23.817,10.354,24.061,10.354z"
   id="path233" />
			<linearGradient
   id="SVGID_14_"
   gradientUnits="userSpaceOnUse"
   x1="29.2393"
   y1="5.4131"
   x2="22.5442"
   y2="5.4131">
				<stop
   offset="0"
   style="stop-color:#9D4200"
   id="stop235" />
				<stop
   offset="1"
   style="stop-color:#6B2700"
   id="stop237" />
				<a:midPointStop
   offset="0"
   style="stop-color:#9D4200" />
				<a:midPointStop
   offset="0.5"
   style="stop-color:#9D4200" />
				<a:midPointStop
   offset="1"
   style="stop-color:#6B2700" />
			</linearGradient>
			<path
   fill-rule="evenodd"
   clip-rule="evenodd"
   fill="url(#SVGID_14_)"
   d="M30.184,8.168V2.659c0-0.713-0.526-1.293-1.17-1.293     h-4.481c-0.642,0-1.168,0.58-1.168,1.293v5.509c0,0.712,0.526,1.292,1.168,1.292h4.481C29.657,9.46,30.184,8.88,30.184,8.168z"
   id="path240" />
			<linearGradient
   id="SVGID_15_"
   gradientUnits="userSpaceOnUse"
   x1="35.3975"
   y1="5.4131"
   x2="43.188"
   y2="5.4131">
				<stop
   offset="0"
   style="stop-color:#C88240"
   id="stop242" />
				<stop
   offset="1"
   style="stop-color:#DDA786"
   id="stop244" />
				<a:midPointStop
   offset="0"
   style="stop-color:#C88240" />
				<a:midPointStop
   offset="0.5"
   style="stop-color:#C88240" />
				<a:midPointStop
   offset="1"
   style="stop-color:#DDA786" />
			</linearGradient>
			<path
   fill-rule="evenodd"
   clip-rule="evenodd"
   fill="url(#SVGID_15_)"
   d="M43.969,8.168V2.659c0-0.713-0.531-1.293-1.169-1.293     H32.346c-0.638,0-1.168,0.587-1.168,1.293v5.509c0,0.705,0.523,1.292,1.168,1.292H42.8C43.444,9.46,43.969,8.88,43.969,8.168z"
   id="path247" />
			<linearGradient
   id="SVGID_16_"
   gradientUnits="userSpaceOnUse"
   x1="42.666"
   y1="5.4131"
   x2="49.6479"
   y2="5.4131">
				<stop
   offset="0"
   style="stop-color:#D78D4D"
   id="stop249" />
				<stop
   offset="1"
   style="stop-color:#FBE1BD"
   id="stop251" />
				<a:midPointStop
   offset="0"
   style="stop-color:#D78D4D" />
				<a:midPointStop
   offset="0.5"
   style="stop-color:#D78D4D" />
				<a:midPointStop
   offset="1"
   style="stop-color:#FBE1BD" />
			</linearGradient>
			<path
   fill-rule="evenodd"
   clip-rule="evenodd"
   fill="url(#SVGID_16_)"
   d="M48.477,8.168V2.659c0-0.713-0.536-1.293-1.17-1.293     H46.13c-0.634,0-1.169,0.591-1.169,1.293v5.509c0,0.701,0.524,1.292,1.169,1.292h1.177C47.95,9.46,48.477,8.88,48.477,8.168z"
   id="path254" />
		</g>
	</g>
	<g
   id="g319">
		<g
   id="g292">
			<path
   fill-rule="evenodd"
   clip-rule="evenodd"
   fill="#6B2700"
   d="M14.075,16.452l-7.768,0.153l-0.303-0.549     c-0.985-1.802-4.167-5.046-5.71-6.709c-0.259-0.278-0.353-0.63-0.261-0.984c0.09-0.355,0.345-0.633,0.717-0.784     C2.399,6.906,11.959,6.422,12.2,7.989L14.075,16.452L14.075,16.452z M14.075,22.548l-7.768-0.153l-0.303,0.549     c-0.985,1.802-4.167,5.046-5.71,6.709c-0.259,0.278-0.353,0.63-0.261,0.983c0.09,0.355,0.345,0.634,0.717,0.785     c1.648,0.672,11.208,1.157,11.449-0.411L14.075,22.548z"
   id="path260" />
			<linearGradient
   id="SVGID_17_"
   gradientUnits="userSpaceOnUse"
   x1="19.9409"
   y1="19.5005"
   x2="-1.6808"
   y2="19.5005">
				<stop
   offset="0"
   style="stop-color:#5E0000"
   id="stop262" />
				<stop
   offset="0.16"
   style="stop-color:#8C4E22"
   id="stop264" />
				<stop
   offset="0.36"
   style="stop-color:#D4B290"
   id="stop266" />
				<stop
   offset="0.61"
   style="stop-color:#C47C44"
   id="stop268" />
				<stop
   offset="0.78"
   style="stop-color:#974A00"
   id="stop270" />
				<stop
   offset="1"
   style="stop-color:#652600"
   id="stop272" />
				<a:midPointStop
   offset="0"
   style="stop-color:#5E0000" />
				<a:midPointStop
   offset="0.5"
   style="stop-color:#5E0000" />
				<a:midPointStop
   offset="0.16"
   style="stop-color:#8C4E22" />
				<a:midPointStop
   offset="0.5"
   style="stop-color:#8C4E22" />
				<a:midPointStop
   offset="0.36"
   style="stop-color:#D4B290" />
				<a:midPointStop
   offset="0.5"
   style="stop-color:#D4B290" />
				<a:midPointStop
   offset="0.61"
   style="stop-color:#C47C44" />
				<a:midPointStop
   offset="0.5"
   style="stop-color:#C47C44" />
				<a:midPointStop
   offset="0.78"
   style="stop-color:#974A00" />
				<a:midPointStop
   offset="0.5"
   style="stop-color:#974A00" />
				<a:midPointStop
   offset="1"
   style="stop-color:#652600" />
			</linearGradient>
			<path
   fill-rule="evenodd"
   clip-rule="evenodd"
   fill="url(#SVGID_17_)"
   d="M13.717,16.194L11.908,8.04     c-0.002-0.018-0.004-0.032-0.007-0.052c-0.119-0.771-8.26-1.298-11.028-0.17c-0.288,0.118-0.479,0.329-0.55,0.605     c-0.071,0.274-0.001,0.538,0.2,0.756c1.398,1.506,5.057,5.497,5.747,6.761l0.221,0.398L13.717,16.194L13.717,16.194z      M13.717,22.806l-1.809,8.153c-0.002,0.019-0.004,0.033-0.007,0.052c-0.119,0.772-8.26,1.299-11.028,0.171     c-0.288-0.118-0.479-0.329-0.55-0.604c-0.071-0.277-0.001-0.541,0.2-0.759c1.398-1.505,5.057-5.495,5.747-6.76l0.221-0.397     L13.717,22.806z"
   id="path275" />
			<linearGradient
   id="SVGID_18_"
   gradientUnits="userSpaceOnUse"
   x1="17.7251"
   y1="19.4888"
   x2="0.7724"
   y2="19.4888">
				<stop
   offset="0"
   style="stop-color:#640000"
   id="stop277" />
				<stop
   offset="0.16"
   style="stop-color:#A06032"
   id="stop279" />
				<stop
   offset="0.36"
   style="stop-color:#FDEFD9"
   id="stop281" />
				<stop
   offset="0.61"
   style="stop-color:#E99C62"
   id="stop283" />
				<stop
   offset="0.78"
   style="stop-color:#AF5800"
   id="stop285" />
				<stop
   offset="1"
   style="stop-color:#6B2700"
   id="stop287" />
				<a:midPointStop
   offset="0"
   style="stop-color:#640000" />
				<a:midPointStop
   offset="0.5"
   style="stop-color:#640000" />
				<a:midPointStop
   offset="0.16"
   style="stop-color:#A06032" />
				<a:midPointStop
   offset="0.5"
   style="stop-color:#A06032" />
				<a:midPointStop
   offset="0.36"
   style="stop-color:#FDEFD9" />
				<a:midPointStop
   offset="0.5"
   style="stop-color:#FDEFD9" />
				<a:midPointStop
   offset="0.61"
   style="stop-color:#E99C62" />
				<a:midPointStop
   offset="0.5"
   style="stop-color:#E99C62" />
				<a:midPointStop
   offset="0.78"
   style="stop-color:#AF5800" />
				<a:midPointStop
   offset="0.5"
   style="stop-color:#AF5800" />
				<a:midPointStop
   offset="1"
   style="stop-color:#6B2700" />
			</linearGradient>
			<path
   fill-rule="evenodd"
   clip-rule="evenodd"
   fill="url(#SVGID_18_)"
   d="M12.845,15.942l-1.422-7.627     c-0.853-0.948-7.5-0.587-8.792,0.035C2.485,8.422,2.375,8.54,2.336,8.724C2.299,8.893,2.34,9.039,2.439,9.165     c1.283,1.636,3.979,4.883,4.811,6.69l0.103,0.214L12.845,15.942L12.845,15.942z M12.845,23.058l-5.492-0.13l-0.102,0.215     c-0.832,1.807-3.528,5.058-4.812,6.69c-0.101,0.127-0.141,0.276-0.103,0.445c0.038,0.179,0.147,0.3,0.293,0.369     c1.293,0.623,7.957,0.94,8.785,0.018L12.845,23.058z"
   id="path290" />
		</g>
		<g
   id="g317">
			<path
   fill-rule="evenodd"
   clip-rule="evenodd"
   fill="#6B2700"
   d="M4.969,24.278c-0.464,0-0.683-0.482-0.681-0.875l0.014-7.877     c0-0.389,0.231-0.86,0.691-0.86l9.546,0.056c0.46,0.005,0.682,0.483,0.677,0.876l-0.015,7.872     c-0.004,0.391-0.231,0.869-0.69,0.864L4.969,24.278z"
   id="path294" />
			<linearGradient
   id="SVGID_19_"
   gradientUnits="userSpaceOnUse"
   x1="9.7524"
   y1="24.5361"
   x2="9.7524"
   y2="13.7263">
				<stop
   offset="0"
   style="stop-color:#6B2700"
   id="stop296" />
				<stop
   offset="0.16"
   style="stop-color:#A06032"
   id="stop298" />
				<stop
   offset="0.24"
   style="stop-color:#C77D51"
   id="stop300" />
				<stop
   offset="0.34"
   style="stop-color:#FACE91"
   id="stop302" />
				<stop
   offset="0.46"
   style="stop-color:#FAF2DE"
   id="stop304" />
				<stop
   offset="0.56"
   style="stop-color:#F1BE74"
   id="stop306" />
				<stop
   offset="0.67"
   style="stop-color:#E99C62"
   id="stop308" />
				<stop
   offset="0.81"
   style="stop-color:#AF5800"
   id="stop310" />
				<stop
   offset="1"
   style="stop-color:#6B2700"
   id="stop312" />
				<a:midPointStop
   offset="0"
   style="stop-color:#6B2700" />
				<a:midPointStop
   offset="0.5"
   style="stop-color:#6B2700" />
				<a:midPointStop
   offset="0.16"
   style="stop-color:#A06032" />
				<a:midPointStop
   offset="0.5"
   style="stop-color:#A06032" />
				<a:midPointStop
   offset="0.24"
   style="stop-color:#C77D51" />
				<a:midPointStop
   offset="0.5"
   style="stop-color:#C77D51" />
				<a:midPointStop
   offset="0.34"
   style="stop-color:#FACE91" />
				<a:midPointStop
   offset="0.5"
   style="stop-color:#FACE91" />
				<a:midPointStop
   offset="0.46"
   style="stop-color:#FAF2DE" />
				<a:midPointStop
   offset="0.5"
   style="stop-color:#FAF2DE" />
				<a:midPointStop
   offset="0.56"
   style="stop-color:#F1BE74" />
				<a:midPointStop
   offset="0.5"
   style="stop-color:#F1BE74" />
				<a:midPointStop
   offset="0.67"
   style="stop-color:#E99C62" />
				<a:midPointStop
   offset="0.5"
   style="stop-color:#E99C62" />
				<a:midPointStop
   offset="0.81"
   style="stop-color:#AF5800" />
				<a:midPointStop
   offset="0.5"
   style="stop-color:#AF5800" />
				<a:midPointStop
   offset="1"
   style="stop-color:#6B2700" />
			</linearGradient>
			<path
   fill-rule="evenodd"
   clip-rule="evenodd"
   fill="url(#SVGID_19_)"
   d="M4.804,24.008l9.874,0.063     c0.163,0.002,0.3-0.245,0.302-0.542l0.017-7.99c0.003-0.298-0.131-0.544-0.296-0.545l-9.873-0.062     c-0.165,0-0.299,0.242-0.305,0.54L4.509,23.46C4.507,23.759,4.637,24.008,4.804,24.008z"
   id="path315" />
		</g>
	</g>
</g>
</svg>
