<?xml version="1.0" encoding="UTF-8" standalone="no"?>
<svg
   xmlns:a="http://ns.adobe.com/AdobeSVGViewerExtensions/3.0/"
   xmlns:dc="http://purl.org/dc/elements/1.1/"
   xmlns:cc="http://creativecommons.org/ns#"
   xmlns:rdf="http://www.w3.org/1999/02/22-rdf-syntax-ns#"
   xmlns:svg="http://www.w3.org/2000/svg"
   xmlns="http://www.w3.org/2000/svg"
   xmlns:sodipodi="http://sodipodi.sourceforge.net/DTD/sodipodi-0.dtd"
   xmlns:inkscape="http://www.inkscape.org/namespaces/inkscape"
   version="1.1"
   id="图层_1"
   x="0px"
   y="0px"
   width="43px"
   height="45px"
   viewBox="0 0 43 45"
   enable-background="new 0 0 43 45"
   xml:space="preserve"
   sodipodi:docname="工业管道_52-01.svg"><metadata
   id="metadata338"><rdf:RDF><cc:Work
       rdf:about=""><dc:format>image/svg+xml</dc:format><dc:type
         rdf:resource="http://purl.org/dc/dcmitype/StillImage" /></cc:Work></rdf:RDF></metadata><defs
   id="defs336" /><sodipodi:namedview
   pagecolor="#ffffff"
   bordercolor="#666666"
   borderopacity="1"
   objecttolerance="10"
   gridtolerance="10"
   guidetolerance="10"
   inkscape:pageopacity="0"
   inkscape:pageshadow="2"
   inkscape:window-width="640"
   inkscape:window-height="480"
   id="namedview334" />
<g
   id="g331">
	<path
   fill-rule="evenodd"
   clip-rule="evenodd"
   fill="#640000"
   d="M16.885,43.504C8.156,41.582,1.786,34.862,0.306,26.053   c-0.668-3.992-0.245-8.124,1.304-11.87c1.681-4.07,4.556-7.386,8.255-9.755C25.889-5.845,46.547,8.49,42.48,27.098   C39.952,38.667,28.448,46.005,16.885,43.504L16.885,43.504z M17.729,39.641c15.15,3.276,26.903-13.523,18.514-26.596   C27.843-0.037,7.651,3.58,4.331,18.771C2.268,28.213,8.304,37.564,17.729,39.641z"
   id="path2" />
	
		<radialGradient
   id="SVGID_1_"
   cx="22.0703"
   cy="23.7109"
   r="21.5063"
   gradientTransform="matrix(1.0053 0 0 1.0052 -0.6867 -1.3399)"
   gradientUnits="userSpaceOnUse">
		<stop
   offset="0"
   style="stop-color:#B47736"
   id="stop4" />
		<stop
   offset="0.84"
   style="stop-color:#812000"
   id="stop6" />
		<stop
   offset="0.87"
   style="stop-color:#BB5E2F"
   id="stop8" />
		<stop
   offset="0.91"
   style="stop-color:#FACE91"
   id="stop10" />
		<stop
   offset="0.94"
   style="stop-color:#D37B3F"
   id="stop12" />
		<stop
   offset="1"
   style="stop-color:#640000"
   id="stop14" />
		<a:midPointStop
   offset="0"
   style="stop-color:#B47736" />
		<a:midPointStop
   offset="0.5"
   style="stop-color:#B47736" />
		<a:midPointStop
   offset="0.84"
   style="stop-color:#812000" />
		<a:midPointStop
   offset="0.5"
   style="stop-color:#812000" />
		<a:midPointStop
   offset="0.87"
   style="stop-color:#BB5E2F" />
		<a:midPointStop
   offset="0.5"
   style="stop-color:#BB5E2F" />
		<a:midPointStop
   offset="0.91"
   style="stop-color:#FACE91" />
		<a:midPointStop
   offset="0.5"
   style="stop-color:#FACE91" />
		<a:midPointStop
   offset="0.94"
   style="stop-color:#D37B3F" />
		<a:midPointStop
   offset="0.5"
   style="stop-color:#D37B3F" />
		<a:midPointStop
   offset="1"
   style="stop-color:#640000" />
	</radialGradient>
	<path
   fill-rule="evenodd"
   clip-rule="evenodd"
   fill="url(#SVGID_1_)"
   d="M16.941,43.245C28.404,45.724,39.715,38.5,42.219,27.04   C46.236,8.655,25.859-5.506,10.008,4.655c-3.654,2.342-6.49,5.613-8.15,9.632c-1.531,3.699-1.948,7.781-1.287,11.724   C2.03,34.706,8.314,41.345,16.941,43.245L16.941,43.245z M17.672,39.906L17.672,39.906C8.063,37.789,1.968,28.329,4.07,18.717   C7.44,3.291,27.936-0.388,36.467,12.902C45.005,26.205,33.121,43.245,17.672,39.906z"
   id="path17" />
	<path
   fill-rule="evenodd"
   clip-rule="evenodd"
   fill="#FFFFFF"
   d="M17.248,41.787c10.658,2.306,21.178-4.41,23.507-15.066   C44.487,9.643,25.522-3.535,10.803,5.902C-3.947,15.356,0.161,38.023,17.248,41.787L17.248,41.787z M17.345,41.354L17.345,41.354   C6.935,39.061,0.329,28.81,2.605,18.395c3.647-16.693,25.872-20.682,35.104-6.3C46.956,26.503,34.064,44.969,17.345,41.354z"
   id="path19" />
	<path
   fill-rule="evenodd"
   clip-rule="evenodd"
   fill="#640000"
   d="M19.752,18.309c-0.09,1.043,3.644,1.304,3.619,0.149   c-0.709-4.263-0.539-8.279,0.426-12.491c0.759-0.657,1.225-1.65,1.174-2.737c-0.086-1.869-1.655-3.315-3.505-3.226   c-1.851,0.085-3.276,1.672-3.19,3.541c0.044,0.969,0.486,1.824,1.162,2.412C20.134,10.118,20.803,14.077,19.752,18.309z"
   id="path21" />
	<linearGradient
   id="SVGID_2_"
   gradientUnits="userSpaceOnUse"
   x1="21.6079"
   y1="5.6787"
   x2="21.6079"
   y2="19.7964">
		<stop
   offset="0"
   style="stop-color:#640000"
   id="stop23" />
		<stop
   offset="0.16"
   style="stop-color:#A06032"
   id="stop25" />
		<stop
   offset="0.24"
   style="stop-color:#C77D51"
   id="stop27" />
		<stop
   offset="0.33"
   style="stop-color:#FACE91"
   id="stop29" />
		<stop
   offset="0.4"
   style="stop-color:#FAF2DE"
   id="stop31" />
		<stop
   offset="0.52"
   style="stop-color:#F1BE74"
   id="stop33" />
		<stop
   offset="0.61"
   style="stop-color:#E99C62"
   id="stop35" />
		<stop
   offset="0.72"
   style="stop-color:#AF5800"
   id="stop37" />
		<stop
   offset="0.87"
   style="stop-color:#812000"
   id="stop39" />
		<stop
   offset="1"
   style="stop-color:#B47736"
   id="stop41" />
		<a:midPointStop
   offset="0"
   style="stop-color:#640000" />
		<a:midPointStop
   offset="0.5"
   style="stop-color:#640000" />
		<a:midPointStop
   offset="0.16"
   style="stop-color:#A06032" />
		<a:midPointStop
   offset="0.5"
   style="stop-color:#A06032" />
		<a:midPointStop
   offset="0.24"
   style="stop-color:#C77D51" />
		<a:midPointStop
   offset="0.5"
   style="stop-color:#C77D51" />
		<a:midPointStop
   offset="0.33"
   style="stop-color:#FACE91" />
		<a:midPointStop
   offset="0.5"
   style="stop-color:#FACE91" />
		<a:midPointStop
   offset="0.4"
   style="stop-color:#FAF2DE" />
		<a:midPointStop
   offset="0.5"
   style="stop-color:#FAF2DE" />
		<a:midPointStop
   offset="0.52"
   style="stop-color:#F1BE74" />
		<a:midPointStop
   offset="0.5"
   style="stop-color:#F1BE74" />
		<a:midPointStop
   offset="0.61"
   style="stop-color:#E99C62" />
		<a:midPointStop
   offset="0.5"
   style="stop-color:#E99C62" />
		<a:midPointStop
   offset="0.72"
   style="stop-color:#AF5800" />
		<a:midPointStop
   offset="0.5"
   style="stop-color:#AF5800" />
		<a:midPointStop
   offset="0.87"
   style="stop-color:#812000" />
		<a:midPointStop
   offset="0.5"
   style="stop-color:#812000" />
		<a:midPointStop
   offset="1"
   style="stop-color:#B47736" />
	</linearGradient>
	<path
   fill-rule="evenodd"
   clip-rule="evenodd"
   fill="url(#SVGID_2_)"
   d="M23.152,18.503c-0.772-4.402-0.551-8.34,0.39-12.336   c-0.502,0.356-1.104,0.576-1.761,0.607c-0.784,0.036-1.517-0.201-2.107-0.629c0.769,4.366,1.371,8.097,0.292,12.206   C19.916,18.899,23.165,19.14,23.152,18.503z"
   id="path44" />
	<path
   fill-rule="evenodd"
   clip-rule="evenodd"
   fill="#640000"
   d="M16.995,21.916c0.859,0.6,2.952-2.504,1.939-3.059   c-4.045-1.52-7.44-3.673-10.604-6.614c-0.19-0.986-0.817-1.886-1.783-2.386c-1.661-0.86-3.7-0.224-4.546,1.422   c-0.853,1.646-0.19,3.674,1.471,4.534c0.86,0.447,1.824,0.49,2.671,0.199C10.094,17.491,13.856,18.892,16.995,21.916z"
   id="path46" />
	<linearGradient
   id="SVGID_3_"
   gradientUnits="userSpaceOnUse"
   x1="17.085"
   y1="14.6221"
   x2="8.2392"
   y2="19.9371">
		<stop
   offset="0"
   style="stop-color:#640000"
   id="stop48" />
		<stop
   offset="0.16"
   style="stop-color:#A06032"
   id="stop50" />
		<stop
   offset="0.24"
   style="stop-color:#C77D51"
   id="stop52" />
		<stop
   offset="0.33"
   style="stop-color:#FACE91"
   id="stop54" />
		<stop
   offset="0.4"
   style="stop-color:#FAF2DE"
   id="stop56" />
		<stop
   offset="0.52"
   style="stop-color:#F1BE74"
   id="stop58" />
		<stop
   offset="0.61"
   style="stop-color:#E99C62"
   id="stop60" />
		<stop
   offset="0.72"
   style="stop-color:#AF5800"
   id="stop62" />
		<stop
   offset="0.87"
   style="stop-color:#812000"
   id="stop64" />
		<stop
   offset="1"
   style="stop-color:#B47736"
   id="stop66" />
		<a:midPointStop
   offset="0"
   style="stop-color:#640000" />
		<a:midPointStop
   offset="0.5"
   style="stop-color:#640000" />
		<a:midPointStop
   offset="0.16"
   style="stop-color:#A06032" />
		<a:midPointStop
   offset="0.5"
   style="stop-color:#A06032" />
		<a:midPointStop
   offset="0.24"
   style="stop-color:#C77D51" />
		<a:midPointStop
   offset="0.5"
   style="stop-color:#C77D51" />
		<a:midPointStop
   offset="0.33"
   style="stop-color:#FACE91" />
		<a:midPointStop
   offset="0.5"
   style="stop-color:#FACE91" />
		<a:midPointStop
   offset="0.4"
   style="stop-color:#FAF2DE" />
		<a:midPointStop
   offset="0.5"
   style="stop-color:#FAF2DE" />
		<a:midPointStop
   offset="0.52"
   style="stop-color:#F1BE74" />
		<a:midPointStop
   offset="0.5"
   style="stop-color:#F1BE74" />
		<a:midPointStop
   offset="0.61"
   style="stop-color:#E99C62" />
		<a:midPointStop
   offset="0.5"
   style="stop-color:#E99C62" />
		<a:midPointStop
   offset="0.72"
   style="stop-color:#AF5800" />
		<a:midPointStop
   offset="0.5"
   style="stop-color:#AF5800" />
		<a:midPointStop
   offset="0.87"
   style="stop-color:#812000" />
		<a:midPointStop
   offset="0.5"
   style="stop-color:#812000" />
		<a:midPointStop
   offset="1"
   style="stop-color:#B47736" />
	</linearGradient>
	<path
   fill-rule="evenodd"
   clip-rule="evenodd"
   fill="url(#SVGID_3_)"
   d="M18.864,19.07c-4.199-1.533-7.498-3.694-10.488-6.507   c0.057,0.612-0.054,1.245-0.355,1.829c-0.359,0.695-0.931,1.211-1.599,1.51c4.168,1.518,7.698,2.861,10.718,5.851   C17.588,22.069,19.423,19.376,18.864,19.07z"
   id="path69" />
	<path
   fill-rule="evenodd"
   clip-rule="evenodd"
   fill="#640000"
   d="M18.742,26.106c0.949-0.443-0.693-3.807-1.68-3.208   c-3.338,2.744-6.901,4.606-11.03,5.877c-0.949-0.329-2.043-0.235-2.958,0.352c-1.575,1.01-2.044,3.092-1.042,4.648   c1,1.561,3.087,2.001,4.662,0.992c0.817-0.521,1.338-1.335,1.509-2.212C11.459,29.871,14.553,27.313,18.742,26.106z"
   id="path71" />
	<linearGradient
   id="SVGID_4_"
   gradientUnits="userSpaceOnUse"
   x1="17.2261"
   y1="30.2998"
   x2="8.1635"
   y2="24.8545">
		<stop
   offset="0"
   style="stop-color:#640000"
   id="stop73" />
		<stop
   offset="0.16"
   style="stop-color:#A06032"
   id="stop75" />
		<stop
   offset="0.24"
   style="stop-color:#C77D51"
   id="stop77" />
		<stop
   offset="0.33"
   style="stop-color:#FACE91"
   id="stop79" />
		<stop
   offset="0.4"
   style="stop-color:#FAF2DE"
   id="stop81" />
		<stop
   offset="0.52"
   style="stop-color:#F1BE74"
   id="stop83" />
		<stop
   offset="0.61"
   style="stop-color:#E99C62"
   id="stop85" />
		<stop
   offset="0.72"
   style="stop-color:#AF5800"
   id="stop87" />
		<stop
   offset="0.87"
   style="stop-color:#812000"
   id="stop89" />
		<stop
   offset="1"
   style="stop-color:#B47736"
   id="stop91" />
		<a:midPointStop
   offset="0"
   style="stop-color:#640000" />
		<a:midPointStop
   offset="0.5"
   style="stop-color:#640000" />
		<a:midPointStop
   offset="0.16"
   style="stop-color:#A06032" />
		<a:midPointStop
   offset="0.5"
   style="stop-color:#A06032" />
		<a:midPointStop
   offset="0.24"
   style="stop-color:#C77D51" />
		<a:midPointStop
   offset="0.5"
   style="stop-color:#C77D51" />
		<a:midPointStop
   offset="0.33"
   style="stop-color:#FACE91" />
		<a:midPointStop
   offset="0.5"
   style="stop-color:#FACE91" />
		<a:midPointStop
   offset="0.4"
   style="stop-color:#FAF2DE" />
		<a:midPointStop
   offset="0.5"
   style="stop-color:#FAF2DE" />
		<a:midPointStop
   offset="0.52"
   style="stop-color:#F1BE74" />
		<a:midPointStop
   offset="0.5"
   style="stop-color:#F1BE74" />
		<a:midPointStop
   offset="0.61"
   style="stop-color:#E99C62" />
		<a:midPointStop
   offset="0.5"
   style="stop-color:#E99C62" />
		<a:midPointStop
   offset="0.72"
   style="stop-color:#AF5800" />
		<a:midPointStop
   offset="0.5"
   style="stop-color:#AF5800" />
		<a:midPointStop
   offset="0.87"
   style="stop-color:#812000" />
		<a:midPointStop
   offset="0.5"
   style="stop-color:#812000" />
		<a:midPointStop
   offset="1"
   style="stop-color:#B47736" />
	</linearGradient>
	<path
   fill-rule="evenodd"
   clip-rule="evenodd"
   fill="url(#SVGID_4_)"
   d="M17.212,23.066c-3.427,2.868-6.948,4.646-10.879,5.829   c0.559,0.257,1.05,0.669,1.405,1.223c0.424,0.659,0.584,1.412,0.509,2.139c3.398-2.85,6.327-5.235,10.426-6.355   C19.17,25.671,17.756,22.735,17.212,23.066z"
   id="path94" />
	<path
   fill-rule="evenodd"
   clip-rule="evenodd"
   fill="#640000"
   d="M23.245,26.689c0.09-1.043-3.645-1.303-3.618-0.148   c0.707,4.262,0.538,8.278-0.426,12.49c-0.76,0.657-1.225,1.65-1.175,2.736c0.087,1.87,1.655,3.316,3.505,3.229   c1.851-0.085,3.276-1.674,3.19-3.542c-0.043-0.969-0.487-1.825-1.161-2.413C22.864,34.88,22.195,30.921,23.245,26.689z"
   id="path96" />
	<linearGradient
   id="SVGID_5_"
   gradientUnits="userSpaceOnUse"
   x1="21.3901"
   y1="39.7676"
   x2="21.3901"
   y2="25.649">
		<stop
   offset="0"
   style="stop-color:#640000"
   id="stop98" />
		<stop
   offset="0.16"
   style="stop-color:#A06032"
   id="stop100" />
		<stop
   offset="0.24"
   style="stop-color:#C77D51"
   id="stop102" />
		<stop
   offset="0.33"
   style="stop-color:#FACE91"
   id="stop104" />
		<stop
   offset="0.4"
   style="stop-color:#FAF2DE"
   id="stop106" />
		<stop
   offset="0.52"
   style="stop-color:#F1BE74"
   id="stop108" />
		<stop
   offset="0.61"
   style="stop-color:#E99C62"
   id="stop110" />
		<stop
   offset="0.72"
   style="stop-color:#AF5800"
   id="stop112" />
		<stop
   offset="0.87"
   style="stop-color:#812000"
   id="stop114" />
		<stop
   offset="1"
   style="stop-color:#B47736"
   id="stop116" />
		<a:midPointStop
   offset="0"
   style="stop-color:#640000" />
		<a:midPointStop
   offset="0.5"
   style="stop-color:#640000" />
		<a:midPointStop
   offset="0.16"
   style="stop-color:#A06032" />
		<a:midPointStop
   offset="0.5"
   style="stop-color:#A06032" />
		<a:midPointStop
   offset="0.24"
   style="stop-color:#C77D51" />
		<a:midPointStop
   offset="0.5"
   style="stop-color:#C77D51" />
		<a:midPointStop
   offset="0.33"
   style="stop-color:#FACE91" />
		<a:midPointStop
   offset="0.5"
   style="stop-color:#FACE91" />
		<a:midPointStop
   offset="0.4"
   style="stop-color:#FAF2DE" />
		<a:midPointStop
   offset="0.5"
   style="stop-color:#FAF2DE" />
		<a:midPointStop
   offset="0.52"
   style="stop-color:#F1BE74" />
		<a:midPointStop
   offset="0.5"
   style="stop-color:#F1BE74" />
		<a:midPointStop
   offset="0.61"
   style="stop-color:#E99C62" />
		<a:midPointStop
   offset="0.5"
   style="stop-color:#E99C62" />
		<a:midPointStop
   offset="0.72"
   style="stop-color:#AF5800" />
		<a:midPointStop
   offset="0.5"
   style="stop-color:#AF5800" />
		<a:midPointStop
   offset="0.87"
   style="stop-color:#812000" />
		<a:midPointStop
   offset="0.5"
   style="stop-color:#812000" />
		<a:midPointStop
   offset="1"
   style="stop-color:#B47736" />
	</linearGradient>
	<path
   fill-rule="evenodd"
   clip-rule="evenodd"
   fill="url(#SVGID_5_)"
   d="M19.846,26.495c0.771,4.402,0.551,8.341-0.39,12.337   c0.501-0.355,1.104-0.575,1.76-0.607c0.784-0.036,1.516,0.201,2.108,0.629c-0.77-4.367-1.372-8.098-0.292-12.206   C23.081,26.101,19.833,25.859,19.846,26.495z"
   id="path119" />
	<path
   fill-rule="evenodd"
   clip-rule="evenodd"
   fill="#640000"
   d="M26.001,23.082c-0.858-0.6-2.95,2.504-1.938,3.059   c4.046,1.52,7.439,3.673,10.604,6.615c0.19,0.986,0.817,1.886,1.783,2.385c1.662,0.86,3.699,0.224,4.547-1.422   c0.852-1.646,0.189-3.674-1.471-4.534c-0.861-0.446-1.824-0.489-2.671-0.199C32.903,27.507,29.141,26.106,26.001,23.082z"
   id="path121" />
	<linearGradient
   id="SVGID_6_"
   gradientUnits="userSpaceOnUse"
   x1="25.7246"
   y1="30.3867"
   x2="34.6635"
   y2="25.2259">
		<stop
   offset="0"
   style="stop-color:#640000"
   id="stop123" />
		<stop
   offset="0.16"
   style="stop-color:#A06032"
   id="stop125" />
		<stop
   offset="0.24"
   style="stop-color:#C77D51"
   id="stop127" />
		<stop
   offset="0.33"
   style="stop-color:#FACE91"
   id="stop129" />
		<stop
   offset="0.4"
   style="stop-color:#FAF2DE"
   id="stop131" />
		<stop
   offset="0.52"
   style="stop-color:#F1BE74"
   id="stop133" />
		<stop
   offset="0.61"
   style="stop-color:#E99C62"
   id="stop135" />
		<stop
   offset="0.72"
   style="stop-color:#AF5800"
   id="stop137" />
		<stop
   offset="0.87"
   style="stop-color:#812000"
   id="stop139" />
		<stop
   offset="1"
   style="stop-color:#B47736"
   id="stop141" />
		<a:midPointStop
   offset="0"
   style="stop-color:#640000" />
		<a:midPointStop
   offset="0.5"
   style="stop-color:#640000" />
		<a:midPointStop
   offset="0.16"
   style="stop-color:#A06032" />
		<a:midPointStop
   offset="0.5"
   style="stop-color:#A06032" />
		<a:midPointStop
   offset="0.24"
   style="stop-color:#C77D51" />
		<a:midPointStop
   offset="0.5"
   style="stop-color:#C77D51" />
		<a:midPointStop
   offset="0.33"
   style="stop-color:#FACE91" />
		<a:midPointStop
   offset="0.5"
   style="stop-color:#FACE91" />
		<a:midPointStop
   offset="0.4"
   style="stop-color:#FAF2DE" />
		<a:midPointStop
   offset="0.5"
   style="stop-color:#FAF2DE" />
		<a:midPointStop
   offset="0.52"
   style="stop-color:#F1BE74" />
		<a:midPointStop
   offset="0.5"
   style="stop-color:#F1BE74" />
		<a:midPointStop
   offset="0.61"
   style="stop-color:#E99C62" />
		<a:midPointStop
   offset="0.5"
   style="stop-color:#E99C62" />
		<a:midPointStop
   offset="0.72"
   style="stop-color:#AF5800" />
		<a:midPointStop
   offset="0.5"
   style="stop-color:#AF5800" />
		<a:midPointStop
   offset="0.87"
   style="stop-color:#812000" />
		<a:midPointStop
   offset="0.5"
   style="stop-color:#812000" />
		<a:midPointStop
   offset="1"
   style="stop-color:#B47736" />
	</linearGradient>
	<path
   fill-rule="evenodd"
   clip-rule="evenodd"
   fill="url(#SVGID_6_)"
   d="M24.133,25.929c4.198,1.532,7.498,3.694,10.489,6.506   c-0.058-0.612,0.054-1.244,0.354-1.828c0.359-0.696,0.931-1.212,1.599-1.51c-4.167-1.518-7.698-2.861-10.717-5.852   C25.408,22.929,23.575,25.623,24.133,25.929z"
   id="path144" />
	<path
   fill-rule="evenodd"
   clip-rule="evenodd"
   fill="#640000"
   d="M24.255,18.892c-0.948,0.443,0.692,3.807,1.68,3.209   c3.338-2.745,6.901-4.607,11.03-5.878c0.949,0.329,2.042,0.236,2.958-0.352c1.576-1.009,2.044-3.092,1.041-4.647   c-0.998-1.562-3.085-2.002-4.662-0.993c-0.816,0.521-1.336,1.335-1.507,2.213C31.538,15.127,28.444,17.685,24.255,18.892z"
   id="path146" />
	<linearGradient
   id="SVGID_7_"
   gradientUnits="userSpaceOnUse"
   x1="25.8271"
   y1="14.9331"
   x2="35.0755"
   y2="20.0595">
		<stop
   offset="0"
   style="stop-color:#640000"
   id="stop148" />
		<stop
   offset="0.16"
   style="stop-color:#A06032"
   id="stop150" />
		<stop
   offset="0.24"
   style="stop-color:#C77D51"
   id="stop152" />
		<stop
   offset="0.33"
   style="stop-color:#FACE91"
   id="stop154" />
		<stop
   offset="0.4"
   style="stop-color:#FAF2DE"
   id="stop156" />
		<stop
   offset="0.52"
   style="stop-color:#F1BE74"
   id="stop158" />
		<stop
   offset="0.61"
   style="stop-color:#E99C62"
   id="stop160" />
		<stop
   offset="0.72"
   style="stop-color:#AF5800"
   id="stop162" />
		<stop
   offset="0.87"
   style="stop-color:#812000"
   id="stop164" />
		<stop
   offset="1"
   style="stop-color:#B47736"
   id="stop166" />
		<a:midPointStop
   offset="0"
   style="stop-color:#640000" />
		<a:midPointStop
   offset="0.5"
   style="stop-color:#640000" />
		<a:midPointStop
   offset="0.16"
   style="stop-color:#A06032" />
		<a:midPointStop
   offset="0.5"
   style="stop-color:#A06032" />
		<a:midPointStop
   offset="0.24"
   style="stop-color:#C77D51" />
		<a:midPointStop
   offset="0.5"
   style="stop-color:#C77D51" />
		<a:midPointStop
   offset="0.33"
   style="stop-color:#FACE91" />
		<a:midPointStop
   offset="0.5"
   style="stop-color:#FACE91" />
		<a:midPointStop
   offset="0.4"
   style="stop-color:#FAF2DE" />
		<a:midPointStop
   offset="0.5"
   style="stop-color:#FAF2DE" />
		<a:midPointStop
   offset="0.52"
   style="stop-color:#F1BE74" />
		<a:midPointStop
   offset="0.5"
   style="stop-color:#F1BE74" />
		<a:midPointStop
   offset="0.61"
   style="stop-color:#E99C62" />
		<a:midPointStop
   offset="0.5"
   style="stop-color:#E99C62" />
		<a:midPointStop
   offset="0.72"
   style="stop-color:#AF5800" />
		<a:midPointStop
   offset="0.5"
   style="stop-color:#AF5800" />
		<a:midPointStop
   offset="0.87"
   style="stop-color:#812000" />
		<a:midPointStop
   offset="0.5"
   style="stop-color:#812000" />
		<a:midPointStop
   offset="1"
   style="stop-color:#B47736" />
	</linearGradient>
	<path
   fill-rule="evenodd"
   clip-rule="evenodd"
   fill="url(#SVGID_7_)"
   d="M25.786,21.932c3.427-2.868,6.948-4.646,10.879-5.829   c-0.559-0.258-1.05-0.669-1.406-1.222c-0.424-0.66-0.583-1.412-0.509-2.139c-3.397,2.849-6.327,5.236-10.426,6.354   C23.825,19.328,25.241,22.263,25.786,21.932z"
   id="path169" />
	<path
   fill-rule="evenodd"
   clip-rule="evenodd"
   fill="#640000"
   d="M19.824,17.509c7.228-2.302,10.689,8.56,3.462,10.863   C16.06,30.678,12.598,19.814,19.824,17.509z"
   id="path171" />
	
		<ellipse
   transform="matrix(-0.3038 -0.9527 0.9527 -0.3038 6.2459 50.4479)"
   fill-rule="evenodd"
   clip-rule="evenodd"
   fill="#8E2F02"
   cx="21.555"
   cy="22.942"
   rx="5.431"
   ry="5.49"
   id="ellipse173" />
	<path
   fill-rule="evenodd"
   clip-rule="evenodd"
   fill="#CA814B"
   d="M25.057,18.735c3.317,2.707,2.306,8.057-1.852,9.381   c-1.859,0.592-3.799,0.15-5.188-1C22.317,29.659,26.947,22.688,25.057,18.735z"
   id="path175" />
	
		<radialGradient
   id="SVGID_8_"
   cx="24.0527"
   cy="25.1221"
   r="8.6469"
   gradientTransform="matrix(1.0053 0 0 1.0052 -0.6867 -1.3399)"
   gradientUnits="userSpaceOnUse">
		<stop
   offset="0"
   style="stop-color:#FDEFD9"
   id="stop177" />
		<stop
   offset="0.26"
   style="stop-color:#FACE91"
   id="stop179" />
		<stop
   offset="0.86"
   style="stop-color:#8C2D02"
   id="stop181" />
		<stop
   offset="1"
   style="stop-color:#B14F00"
   id="stop183" />
		<a:midPointStop
   offset="0"
   style="stop-color:#FDEFD9" />
		<a:midPointStop
   offset="0.5"
   style="stop-color:#FDEFD9" />
		<a:midPointStop
   offset="0.26"
   style="stop-color:#FACE91" />
		<a:midPointStop
   offset="0.5"
   style="stop-color:#FACE91" />
		<a:midPointStop
   offset="0.86"
   style="stop-color:#8C2D02" />
		<a:midPointStop
   offset="0.5"
   style="stop-color:#8C2D02" />
		<a:midPointStop
   offset="1"
   style="stop-color:#B14F00" />
	</radialGradient>
	<path
   fill-rule="evenodd"
   clip-rule="evenodd"
   fill="url(#SVGID_8_)"
   d="M20.223,18.401c2.456-0.783,5.077,0.555,5.852,2.985   c0.774,2.43-0.589,5.036-3.046,5.819c-2.454,0.782-5.075-0.554-5.851-2.984C16.402,21.792,17.768,19.184,20.223,18.401z"
   id="path186" />
	<path
   fill-rule="evenodd"
   clip-rule="evenodd"
   fill="#580000"
   d="M20.917,25.812l2.984-0.769c0.326-1.137,0.526-1.769,0.841-2.866   l-0.158-0.48l-2.11-2.099l-2.983,0.768l-0.843,2.865l0.158,0.479L20.917,25.812z"
   id="path188" />
	<linearGradient
   id="SVGID_9_"
   gradientUnits="userSpaceOnUse"
   x1="18.4082"
   y1="22.9023"
   x2="24.3297"
   y2="22.1753">
		<stop
   offset="0"
   style="stop-color:#240000"
   id="stop190" />
		<stop
   offset="1"
   style="stop-color:#6B2700"
   id="stop192" />
		<a:midPointStop
   offset="0"
   style="stop-color:#240000" />
		<a:midPointStop
   offset="0.5"
   style="stop-color:#240000" />
		<a:midPointStop
   offset="1"
   style="stop-color:#6B2700" />
	</linearGradient>
	<path
   fill-rule="evenodd"
   clip-rule="evenodd"
   fill="url(#SVGID_9_)"
   d="M19.524,19.921l-1.367,2.762   c0.649,0.989,0.996,1.554,1.622,2.509l0.465,0.194l2.971-0.229l1.365-2.762l-1.619-2.508l-0.468-0.195L19.524,19.921z"
   id="path195" />
	<linearGradient
   id="SVGID_10_"
   gradientUnits="userSpaceOnUse"
   x1="17.6826"
   y1="19.5762"
   x2="22.5678"
   y2="23.5322">
		<stop
   offset="0"
   style="stop-color:#640000"
   id="stop197" />
		<stop
   offset="0.14"
   style="stop-color:#8C2D02"
   id="stop199" />
		<stop
   offset="0.74"
   style="stop-color:#FACE91"
   id="stop201" />
		<stop
   offset="1"
   style="stop-color:#FDEFD9"
   id="stop203" />
		<a:midPointStop
   offset="0"
   style="stop-color:#640000" />
		<a:midPointStop
   offset="0.5"
   style="stop-color:#640000" />
		<a:midPointStop
   offset="0.14"
   style="stop-color:#8C2D02" />
		<a:midPointStop
   offset="0.5"
   style="stop-color:#8C2D02" />
		<a:midPointStop
   offset="0.74"
   style="stop-color:#FACE91" />
		<a:midPointStop
   offset="0.5"
   style="stop-color:#FACE91" />
		<a:midPointStop
   offset="1"
   style="stop-color:#FDEFD9" />
	</linearGradient>
	<polygon
   fill-rule="evenodd"
   clip-rule="evenodd"
   fill="url(#SVGID_10_)"
   points="18.386,22.688 19.681,20.061 22.588,19.872    24.199,22.313 22.904,24.941 19.999,25.129 19.295,24.065 19.384,23.994 19.244,23.732 19.021,23.649  "
   id="polygon206" />
	<polygon
   fill-rule="evenodd"
   clip-rule="evenodd"
   fill="#884520"
   points="23.302,20.953 23.589,20.995 23.865,21.444 23.577,21.37    21.349,22.826 19.295,24.065 19.384,23.994 19.244,23.732 19.021,23.649  "
   id="polygon208" />
	<linearGradient
   id="SVGID_11_"
   gradientUnits="userSpaceOnUse"
   x1="19.7676"
   y1="22.6484"
   x2="23.3512"
   y2="22.3979">
		<stop
   offset="0"
   style="stop-color:#240000"
   id="stop210" />
		<stop
   offset="1"
   style="stop-color:#6B2700"
   id="stop212" />
		<a:midPointStop
   offset="0"
   style="stop-color:#240000" />
		<a:midPointStop
   offset="0.5"
   style="stop-color:#240000" />
		<a:midPointStop
   offset="1"
   style="stop-color:#6B2700" />
	</linearGradient>
	<polygon
   fill-rule="evenodd"
   clip-rule="evenodd"
   fill="url(#SVGID_11_)"
   points="23.589,20.995 23.865,21.444 23.577,21.37    19.295,24.065 19.384,23.994 19.244,23.732  "
   id="polygon215" />
	<g
   id="g234">
		<path
   fill-rule="evenodd"
   clip-rule="evenodd"
   fill="#8E2F02"
   d="M2.317,14.563c0.913,1.469,2.857,1.912,4.343,0.987    c1.484-0.924,1.952-2.864,1.04-4.334c-0.911-1.471-2.854-1.913-4.34-0.99C1.875,11.151,1.408,13.094,2.317,14.563z"
   id="path217" />
		<path
   fill-rule="evenodd"
   clip-rule="evenodd"
   fill="#CA814B"
   d="M4.938,16.032c2.48,0.03,4.072-2.701,2.762-4.815    C7.114,10.271,6.1,9.75,5.055,9.747C7.9,10.209,7.271,14.986,4.938,16.032z"
   id="path219" />
		
			<radialGradient
   id="SVGID_12_"
   cx="5.042"
   cy="15.2808"
   r="3.8321"
   gradientTransform="matrix(1.0053 0 0 1.0052 -0.6867 -1.3399)"
   gradientUnits="userSpaceOnUse">
			<stop
   offset="0"
   style="stop-color:#FDEFD9"
   id="stop221" />
			<stop
   offset="0.26"
   style="stop-color:#FACE91"
   id="stop223" />
			<stop
   offset="0.86"
   style="stop-color:#8C2D02"
   id="stop225" />
			<stop
   offset="1"
   style="stop-color:#B14F00"
   id="stop227" />
			<a:midPointStop
   offset="0"
   style="stop-color:#FDEFD9" />
			<a:midPointStop
   offset="0.5"
   style="stop-color:#FDEFD9" />
			<a:midPointStop
   offset="0.26"
   style="stop-color:#FACE91" />
			<a:midPointStop
   offset="0.5"
   style="stop-color:#FACE91" />
			<a:midPointStop
   offset="0.86"
   style="stop-color:#8C2D02" />
			<a:midPointStop
   offset="0.5"
   style="stop-color:#8C2D02" />
			<a:midPointStop
   offset="1"
   style="stop-color:#B14F00" />
		</radialGradient>
		<path
   fill-rule="evenodd"
   clip-rule="evenodd"
   fill="url(#SVGID_12_)"
   d="M2.638,14.44c0.796,1.283,2.494,1.669,3.793,0.862    c1.298-0.81,1.705-2.506,0.908-3.789s-2.495-1.67-3.792-0.863C2.249,11.458,1.841,13.154,2.638,14.44z"
   id="path230" />
		<path
   fill-rule="evenodd"
   clip-rule="evenodd"
   fill="#FFFFFF"
   d="M4.068,15.088c1.066,0.456,1.456-0.418,0.387-0.876    C3.387,13.753,3.002,14.627,4.068,15.088z"
   id="path232" />
	</g>
	<g
   id="g253">
		<path
   fill-rule="evenodd"
   clip-rule="evenodd"
   fill="#8E2F02"
   d="M18.899,5.004c0.913,1.469,2.855,1.912,4.341,0.987    s1.953-2.866,1.041-4.335c-0.911-1.47-2.854-1.912-4.34-0.989C18.456,1.591,17.989,3.532,18.899,5.004z"
   id="path236" />
		<path
   fill-rule="evenodd"
   clip-rule="evenodd"
   fill="#CA814B"
   d="M21.52,6.472c2.479,0.03,4.072-2.701,2.762-4.815    c-0.586-0.946-1.602-1.467-2.645-1.469C24.481,0.649,23.851,5.427,21.52,6.472z"
   id="path238" />
		
			<radialGradient
   id="SVGID_13_"
   cx="21.5366"
   cy="5.77"
   r="3.8328"
   gradientTransform="matrix(1.0053 0 0 1.0052 -0.6867 -1.3399)"
   gradientUnits="userSpaceOnUse">
			<stop
   offset="0"
   style="stop-color:#FDEFD9"
   id="stop240" />
			<stop
   offset="0.26"
   style="stop-color:#FACE91"
   id="stop242" />
			<stop
   offset="0.86"
   style="stop-color:#8C2D02"
   id="stop244" />
			<stop
   offset="1"
   style="stop-color:#B14F00"
   id="stop246" />
			<a:midPointStop
   offset="0"
   style="stop-color:#FDEFD9" />
			<a:midPointStop
   offset="0.5"
   style="stop-color:#FDEFD9" />
			<a:midPointStop
   offset="0.26"
   style="stop-color:#FACE91" />
			<a:midPointStop
   offset="0.5"
   style="stop-color:#FACE91" />
			<a:midPointStop
   offset="0.86"
   style="stop-color:#8C2D02" />
			<a:midPointStop
   offset="0.5"
   style="stop-color:#8C2D02" />
			<a:midPointStop
   offset="1"
   style="stop-color:#B14F00" />
		</radialGradient>
		<path
   fill-rule="evenodd"
   clip-rule="evenodd"
   fill="url(#SVGID_13_)"
   d="M19.22,4.88c0.795,1.283,2.492,1.67,3.792,0.862    c1.298-0.809,1.705-2.505,0.909-3.788c-0.798-1.285-2.496-1.67-3.792-0.863C18.83,1.897,18.422,3.595,19.22,4.88z"
   id="path249" />
		<path
   fill-rule="evenodd"
   clip-rule="evenodd"
   fill="#FFFFFF"
   d="M20.648,5.526c1.066,0.457,1.457-0.416,0.387-0.874    C19.968,4.192,19.583,5.066,20.648,5.526z"
   id="path251" />
	</g>
	<g
   id="g272">
		<path
   fill-rule="evenodd"
   clip-rule="evenodd"
   fill="#8E2F02"
   d="M18.701,43.257c0.912,1.47,2.855,1.912,4.342,0.987    c1.484-0.925,1.952-2.865,1.041-4.335c-0.912-1.47-2.854-1.912-4.341-0.988C18.258,39.845,17.791,41.786,18.701,43.257z"
   id="path255" />
		<path
   fill-rule="evenodd"
   clip-rule="evenodd"
   fill="#CA814B"
   d="M21.321,44.727c2.479,0.029,4.072-2.703,2.763-4.817    c-0.587-0.946-1.603-1.466-2.646-1.469C24.283,38.902,23.652,43.68,21.321,44.727z"
   id="path257" />
		
			<radialGradient
   id="SVGID_14_"
   cx="21.3389"
   cy="43.8242"
   r="3.8316"
   gradientTransform="matrix(1.0053 0 0 1.0052 -0.6867 -1.3399)"
   gradientUnits="userSpaceOnUse">
			<stop
   offset="0"
   style="stop-color:#FDEFD9"
   id="stop259" />
			<stop
   offset="0.26"
   style="stop-color:#FACE91"
   id="stop261" />
			<stop
   offset="0.86"
   style="stop-color:#8C2D02"
   id="stop263" />
			<stop
   offset="1"
   style="stop-color:#B14F00"
   id="stop265" />
			<a:midPointStop
   offset="0"
   style="stop-color:#FDEFD9" />
			<a:midPointStop
   offset="0.5"
   style="stop-color:#FDEFD9" />
			<a:midPointStop
   offset="0.26"
   style="stop-color:#FACE91" />
			<a:midPointStop
   offset="0.5"
   style="stop-color:#FACE91" />
			<a:midPointStop
   offset="0.86"
   style="stop-color:#8C2D02" />
			<a:midPointStop
   offset="0.5"
   style="stop-color:#8C2D02" />
			<a:midPointStop
   offset="1"
   style="stop-color:#B14F00" />
		</radialGradient>
		<path
   fill-rule="evenodd"
   clip-rule="evenodd"
   fill="url(#SVGID_14_)"
   d="M19.021,43.133c0.797,1.284,2.494,1.67,3.793,0.862    c1.298-0.808,1.704-2.505,0.908-3.788c-0.797-1.284-2.494-1.669-3.79-0.863C18.633,40.151,18.224,41.849,19.021,43.133z"
   id="path268" />
		<path
   fill-rule="evenodd"
   clip-rule="evenodd"
   fill="#FFFFFF"
   d="M20.45,43.781c1.067,0.455,1.458-0.418,0.387-0.877    C19.769,42.444,19.385,43.319,20.45,43.781z"
   id="path270" />
	</g>
	<g
   id="g291">
		<path
   fill-rule="evenodd"
   clip-rule="evenodd"
   fill="#8E2F02"
   d="M2.228,33.611c0.912,1.471,2.855,1.914,4.342,0.989    c1.485-0.924,1.951-2.866,1.041-4.336c-0.912-1.47-2.856-1.912-4.341-0.988C1.783,30.201,1.316,32.142,2.228,33.611z"
   id="path274" />
		<path
   fill-rule="evenodd"
   clip-rule="evenodd"
   fill="#CA814B"
   d="M4.848,35.081c2.479,0.029,4.073-2.7,2.763-4.816    c-0.588-0.945-1.603-1.466-2.647-1.469C7.809,29.259,7.179,34.036,4.848,35.081z"
   id="path276" />
		
			<radialGradient
   id="SVGID_15_"
   cx="4.9512"
   cy="34.2295"
   r="3.8329"
   gradientTransform="matrix(1.0053 0 0 1.0052 -0.6867 -1.3399)"
   gradientUnits="userSpaceOnUse">
			<stop
   offset="0"
   style="stop-color:#FDEFD9"
   id="stop278" />
			<stop
   offset="0.26"
   style="stop-color:#FACE91"
   id="stop280" />
			<stop
   offset="0.86"
   style="stop-color:#8C2D02"
   id="stop282" />
			<stop
   offset="1"
   style="stop-color:#B14F00"
   id="stop284" />
			<a:midPointStop
   offset="0"
   style="stop-color:#FDEFD9" />
			<a:midPointStop
   offset="0.5"
   style="stop-color:#FDEFD9" />
			<a:midPointStop
   offset="0.26"
   style="stop-color:#FACE91" />
			<a:midPointStop
   offset="0.5"
   style="stop-color:#FACE91" />
			<a:midPointStop
   offset="0.86"
   style="stop-color:#8C2D02" />
			<a:midPointStop
   offset="0.5"
   style="stop-color:#8C2D02" />
			<a:midPointStop
   offset="1"
   style="stop-color:#B14F00" />
		</radialGradient>
		<path
   fill-rule="evenodd"
   clip-rule="evenodd"
   fill="url(#SVGID_15_)"
   d="M2.546,33.489c0.797,1.282,2.495,1.67,3.794,0.861    c1.298-0.808,1.705-2.504,0.908-3.787c-0.797-1.285-2.496-1.67-3.792-0.865C2.157,30.508,1.75,32.204,2.546,33.489z"
   id="path287" />
		<path
   fill-rule="evenodd"
   clip-rule="evenodd"
   fill="#FFFFFF"
   d="M3.977,34.137c1.066,0.457,1.456-0.417,0.386-0.876    C3.294,32.802,2.91,33.677,3.977,34.137z"
   id="path289" />
	</g>
	<g
   id="g310">
		<path
   fill-rule="evenodd"
   clip-rule="evenodd"
   fill="#8E2F02"
   d="M35.275,33.828c0.912,1.47,2.855,1.912,4.341,0.988    c1.484-0.924,1.952-2.867,1.041-4.335c-0.911-1.47-2.855-1.913-4.342-0.989C34.831,30.417,34.365,32.358,35.275,33.828z"
   id="path293" />
		<path
   fill-rule="evenodd"
   clip-rule="evenodd"
   fill="#CA814B"
   d="M37.896,35.296c2.479,0.031,4.072-2.7,2.762-4.814    c-0.588-0.946-1.603-1.467-2.646-1.469C40.857,29.474,40.226,34.253,37.896,35.296z"
   id="path295" />
		
			<radialGradient
   id="SVGID_16_"
   cx="37.8262"
   cy="34.4453"
   r="3.833"
   gradientTransform="matrix(1.0053 0 0 1.0052 -0.6867 -1.3399)"
   gradientUnits="userSpaceOnUse">
			<stop
   offset="0"
   style="stop-color:#FDEFD9"
   id="stop297" />
			<stop
   offset="0.26"
   style="stop-color:#FACE91"
   id="stop299" />
			<stop
   offset="0.86"
   style="stop-color:#8C2D02"
   id="stop301" />
			<stop
   offset="1"
   style="stop-color:#B14F00"
   id="stop303" />
			<a:midPointStop
   offset="0"
   style="stop-color:#FDEFD9" />
			<a:midPointStop
   offset="0.5"
   style="stop-color:#FDEFD9" />
			<a:midPointStop
   offset="0.26"
   style="stop-color:#FACE91" />
			<a:midPointStop
   offset="0.5"
   style="stop-color:#FACE91" />
			<a:midPointStop
   offset="0.86"
   style="stop-color:#8C2D02" />
			<a:midPointStop
   offset="0.5"
   style="stop-color:#8C2D02" />
			<a:midPointStop
   offset="1"
   style="stop-color:#B14F00" />
		</radialGradient>
		<path
   fill-rule="evenodd"
   clip-rule="evenodd"
   fill="url(#SVGID_16_)"
   d="M35.594,33.705c0.797,1.284,2.495,1.67,3.794,0.861    c1.298-0.807,1.705-2.505,0.908-3.786c-0.798-1.286-2.496-1.671-3.793-0.864C35.206,30.724,34.798,32.419,35.594,33.705z"
   id="path306" />
		<path
   fill-rule="evenodd"
   clip-rule="evenodd"
   fill="#FFFFFF"
   d="M37.024,34.353c1.066,0.457,1.456-0.418,0.386-0.876    C36.344,33.017,35.957,33.892,37.024,34.353z"
   id="path308" />
	</g>
	<g
   id="g329">
		<path
   fill-rule="evenodd"
   clip-rule="evenodd"
   fill="#8E2F02"
   d="M35.417,14.707c0.913,1.47,2.856,1.912,4.343,0.988    c1.485-0.925,1.95-2.867,1.039-4.336c-0.91-1.469-2.854-1.912-4.339-0.988C34.973,11.295,34.508,13.236,35.417,14.707z"
   id="path312" />
		<path
   fill-rule="evenodd"
   clip-rule="evenodd"
   fill="#CA814B"
   d="M38.037,16.176c2.48,0.029,4.072-2.701,2.762-4.816    c-0.586-0.945-1.601-1.466-2.646-1.469C40.998,10.353,40.368,15.131,38.037,16.176z"
   id="path314" />
		
			<radialGradient
   id="SVGID_17_"
   cx="37.9688"
   cy="15.4233"
   r="3.8319"
   gradientTransform="matrix(1.0053 0 0 1.0052 -0.6867 -1.3399)"
   gradientUnits="userSpaceOnUse">
			<stop
   offset="0"
   style="stop-color:#FDEFD9"
   id="stop316" />
			<stop
   offset="0.26"
   style="stop-color:#FACE91"
   id="stop318" />
			<stop
   offset="0.86"
   style="stop-color:#8C2D02"
   id="stop320" />
			<stop
   offset="1"
   style="stop-color:#B14F00"
   id="stop322" />
			<a:midPointStop
   offset="0"
   style="stop-color:#FDEFD9" />
			<a:midPointStop
   offset="0.5"
   style="stop-color:#FDEFD9" />
			<a:midPointStop
   offset="0.26"
   style="stop-color:#FACE91" />
			<a:midPointStop
   offset="0.5"
   style="stop-color:#FACE91" />
			<a:midPointStop
   offset="0.86"
   style="stop-color:#8C2D02" />
			<a:midPointStop
   offset="0.5"
   style="stop-color:#8C2D02" />
			<a:midPointStop
   offset="1"
   style="stop-color:#B14F00" />
		</radialGradient>
		<path
   fill-rule="evenodd"
   clip-rule="evenodd"
   fill="url(#SVGID_17_)"
   d="M35.736,14.583c0.797,1.284,2.495,1.671,3.794,0.862    c1.298-0.808,1.705-2.504,0.908-3.787c-0.797-1.286-2.495-1.67-3.792-0.865C35.349,11.602,34.941,13.299,35.736,14.583z"
   id="path325" />
		<path
   fill-rule="evenodd"
   clip-rule="evenodd"
   fill="#FFFFFF"
   d="M37.167,15.23c1.067,0.457,1.457-0.416,0.387-0.875    C36.484,13.896,36.101,14.771,37.167,15.23z"
   id="path327" />
	</g>
</g>
</svg>
