<?xml version="1.0" encoding="UTF-8" standalone="no"?>
<svg
   xmlns:a="http://ns.adobe.com/AdobeSVGViewerExtensions/3.0/"
   xmlns:dc="http://purl.org/dc/elements/1.1/"
   xmlns:cc="http://creativecommons.org/ns#"
   xmlns:rdf="http://www.w3.org/1999/02/22-rdf-syntax-ns#"
   xmlns:svg="http://www.w3.org/2000/svg"
   xmlns="http://www.w3.org/2000/svg"
   xmlns:sodipodi="http://sodipodi.sourceforge.net/DTD/sodipodi-0.dtd"
   xmlns:inkscape="http://www.inkscape.org/namespaces/inkscape"
   version="1.1"
   id="图层_1"
   x="0px"
   y="0px"
   width="42px"
   height="28px"
   viewBox="0 0 42 28"
   enable-background="new 0 0 42 28"
   xml:space="preserve"
   sodipodi:docname="工业管道_56-01.svg"><metadata
   id="metadata168"><rdf:RDF><cc:Work
       rdf:about=""><dc:format>image/svg+xml</dc:format><dc:type
         rdf:resource="http://purl.org/dc/dcmitype/StillImage" /></cc:Work></rdf:RDF></metadata><defs
   id="defs166" /><sodipodi:namedview
   pagecolor="#ffffff"
   bordercolor="#666666"
   borderopacity="1"
   objecttolerance="10"
   gridtolerance="10"
   guidetolerance="10"
   inkscape:pageopacity="0"
   inkscape:pageshadow="2"
   inkscape:window-width="640"
   inkscape:window-height="480"
   id="namedview164" />
<g
   id="g161">
	<linearGradient
   id="SVGID_1_"
   gradientUnits="userSpaceOnUse"
   x1="20.9995"
   y1="6.4844"
   x2="20.9995"
   y2="24.3152">
		<stop
   offset="0"
   style="stop-color:#580000"
   id="stop2" />
		<stop
   offset="0.31"
   style="stop-color:#C77D51"
   id="stop4" />
		<stop
   offset="0.41"
   style="stop-color:#FACE91"
   id="stop6" />
		<stop
   offset="0.46"
   style="stop-color:#FCDEA0"
   id="stop8" />
		<stop
   offset="0.52"
   style="stop-color:#F1BE74"
   id="stop10" />
		<stop
   offset="0.72"
   style="stop-color:#982A00"
   id="stop12" />
		<stop
   offset="1"
   style="stop-color:#240000"
   id="stop14" />
		<a:midPointStop
   offset="0"
   style="stop-color:#580000" />
		<a:midPointStop
   offset="0.5"
   style="stop-color:#580000" />
		<a:midPointStop
   offset="0.31"
   style="stop-color:#C77D51" />
		<a:midPointStop
   offset="0.5"
   style="stop-color:#C77D51" />
		<a:midPointStop
   offset="0.41"
   style="stop-color:#FACE91" />
		<a:midPointStop
   offset="0.5"
   style="stop-color:#FACE91" />
		<a:midPointStop
   offset="0.46"
   style="stop-color:#FCDEA0" />
		<a:midPointStop
   offset="0.5"
   style="stop-color:#FCDEA0" />
		<a:midPointStop
   offset="0.52"
   style="stop-color:#F1BE74" />
		<a:midPointStop
   offset="0.5"
   style="stop-color:#F1BE74" />
		<a:midPointStop
   offset="0.72"
   style="stop-color:#982A00" />
		<a:midPointStop
   offset="0.5"
   style="stop-color:#982A00" />
		<a:midPointStop
   offset="1"
   style="stop-color:#240000" />
	</linearGradient>
	<path
   fill-rule="evenodd"
   clip-rule="evenodd"
   fill="url(#SVGID_1_)"
   d="M41.462,23.393c-0.145,0.369-0.502,0.621-0.904,0.621   h-0.395v-0.621h-0.641c-0.144,0.369-0.501,0.621-0.904,0.621h-0.394v-0.621h-0.64c-0.146,0.369-0.502,0.621-0.905,0.621h-0.394   v-0.621h-0.641c-0.145,0.369-0.501,0.621-0.904,0.621h-0.394v-0.621h-0.641c-0.146,0.369-0.502,0.621-0.904,0.621h-0.395v-0.621   h-1.104V5.136h1.104V4.527h0.395c0.397,0,0.75,0.246,0.898,0.608h0.646V4.527h0.394c0.397-0.002,0.75,0.246,0.899,0.608h0.646   V4.527h0.394c0.397,0,0.75,0.246,0.899,0.608h0.646V4.527h0.395c0.397,0,0.751,0.246,0.898,0.608h0.646V4.527h0.396   c0.396,0,0.75,0.246,0.898,0.608h0.541L42,23.393H41.462L41.462,23.393z M9.59,23.393v0.621H9.196c-0.404,0-0.76-0.252-0.905-0.621   h-0.64v0.621H7.257c-0.402,0-0.76-0.252-0.904-0.621H5.712v0.621H5.318c-0.403,0-0.76-0.252-0.904-0.621H3.773v0.621H3.38   c-0.403,0-0.761-0.252-0.904-0.621H1.835v0.621H1.44c-0.403,0-0.76-0.252-0.904-0.621H0V5.136h0.542   C0.689,4.773,1.043,4.527,1.44,4.527h0.395v0.608H2.48c0.148-0.362,0.501-0.608,0.898-0.608h0.395v0.608h0.646   c0.149-0.362,0.502-0.608,0.899-0.608h0.394v0.608h0.646c0.149-0.362,0.502-0.61,0.899-0.608H7.65v0.608h0.646   c0.15-0.362,0.503-0.608,0.9-0.608h0.395v0.608h1.104v18.257H9.59z"
   id="path17" />
	<g
   id="g67">
		<linearGradient
   id="SVGID_2_"
   gradientUnits="userSpaceOnUse"
   x1="5.3472"
   y1="5.0161"
   x2="5.3472"
   y2="24.2989">
			<stop
   offset="0"
   style="stop-color:#926A46"
   id="stop19" />
			<stop
   offset="0.01"
   style="stop-color:#812000"
   id="stop21" />
			<stop
   offset="0.16"
   style="stop-color:#A06032"
   id="stop23" />
			<stop
   offset="0.24"
   style="stop-color:#C77D51"
   id="stop25" />
			<stop
   offset="0.33"
   style="stop-color:#FACE91"
   id="stop27" />
			<stop
   offset="0.4"
   style="stop-color:#FAF2DE"
   id="stop29" />
			<stop
   offset="0.52"
   style="stop-color:#F1BE74"
   id="stop31" />
			<stop
   offset="0.61"
   style="stop-color:#E99C62"
   id="stop33" />
			<stop
   offset="0.72"
   style="stop-color:#AF5800"
   id="stop35" />
			<stop
   offset="0.87"
   style="stop-color:#812000"
   id="stop37" />
			<stop
   offset="1"
   style="stop-color:#B47736"
   id="stop39" />
			<a:midPointStop
   offset="0"
   style="stop-color:#926A46" />
			<a:midPointStop
   offset="0.5"
   style="stop-color:#926A46" />
			<a:midPointStop
   offset="0.01"
   style="stop-color:#812000" />
			<a:midPointStop
   offset="0.5"
   style="stop-color:#812000" />
			<a:midPointStop
   offset="0.16"
   style="stop-color:#A06032" />
			<a:midPointStop
   offset="0.5"
   style="stop-color:#A06032" />
			<a:midPointStop
   offset="0.24"
   style="stop-color:#C77D51" />
			<a:midPointStop
   offset="0.5"
   style="stop-color:#C77D51" />
			<a:midPointStop
   offset="0.33"
   style="stop-color:#FACE91" />
			<a:midPointStop
   offset="0.5"
   style="stop-color:#FACE91" />
			<a:midPointStop
   offset="0.4"
   style="stop-color:#FAF2DE" />
			<a:midPointStop
   offset="0.5"
   style="stop-color:#FAF2DE" />
			<a:midPointStop
   offset="0.52"
   style="stop-color:#F1BE74" />
			<a:midPointStop
   offset="0.5"
   style="stop-color:#F1BE74" />
			<a:midPointStop
   offset="0.61"
   style="stop-color:#E99C62" />
			<a:midPointStop
   offset="0.5"
   style="stop-color:#E99C62" />
			<a:midPointStop
   offset="0.72"
   style="stop-color:#AF5800" />
			<a:midPointStop
   offset="0.5"
   style="stop-color:#AF5800" />
			<a:midPointStop
   offset="0.87"
   style="stop-color:#812000" />
			<a:midPointStop
   offset="0.5"
   style="stop-color:#812000" />
			<a:midPointStop
   offset="1"
   style="stop-color:#B47736" />
		</linearGradient>
		<rect
   x="0.193"
   y="5.334"
   fill-rule="evenodd"
   clip-rule="evenodd"
   fill="url(#SVGID_2_)"
   width="10.308"
   height="17.86"
   id="rect42" />
		<linearGradient
   id="SVGID_3_"
   gradientUnits="userSpaceOnUse"
   x1="5.0283"
   y1="4.229"
   x2="5.0283"
   y2="24.3132">
			<stop
   offset="0"
   style="stop-color:#926A46"
   id="stop44" />
			<stop
   offset="0.05"
   style="stop-color:#812000"
   id="stop46" />
			<stop
   offset="0.16"
   style="stop-color:#A06032"
   id="stop48" />
			<stop
   offset="0.24"
   style="stop-color:#C77D51"
   id="stop50" />
			<stop
   offset="0.33"
   style="stop-color:#FACE91"
   id="stop52" />
			<stop
   offset="0.53"
   style="stop-color:#FAF2DE"
   id="stop54" />
			<stop
   offset="0.64"
   style="stop-color:#F1BE74"
   id="stop56" />
			<stop
   offset="0.75"
   style="stop-color:#AF5800"
   id="stop58" />
			<stop
   offset="0.98"
   style="stop-color:#812000"
   id="stop60" />
			<stop
   offset="1"
   style="stop-color:#B47736"
   id="stop62" />
			<a:midPointStop
   offset="0"
   style="stop-color:#926A46" />
			<a:midPointStop
   offset="0.5"
   style="stop-color:#926A46" />
			<a:midPointStop
   offset="0.05"
   style="stop-color:#812000" />
			<a:midPointStop
   offset="0.5"
   style="stop-color:#812000" />
			<a:midPointStop
   offset="0.16"
   style="stop-color:#A06032" />
			<a:midPointStop
   offset="0.5"
   style="stop-color:#A06032" />
			<a:midPointStop
   offset="0.24"
   style="stop-color:#C77D51" />
			<a:midPointStop
   offset="0.5"
   style="stop-color:#C77D51" />
			<a:midPointStop
   offset="0.33"
   style="stop-color:#FACE91" />
			<a:midPointStop
   offset="0.5"
   style="stop-color:#FACE91" />
			<a:midPointStop
   offset="0.53"
   style="stop-color:#FAF2DE" />
			<a:midPointStop
   offset="0.5"
   style="stop-color:#FAF2DE" />
			<a:midPointStop
   offset="0.64"
   style="stop-color:#F1BE74" />
			<a:midPointStop
   offset="0.5"
   style="stop-color:#F1BE74" />
			<a:midPointStop
   offset="0.75"
   style="stop-color:#AF5800" />
			<a:midPointStop
   offset="0.5"
   style="stop-color:#AF5800" />
			<a:midPointStop
   offset="0.98"
   style="stop-color:#812000" />
			<a:midPointStop
   offset="0.5"
   style="stop-color:#812000" />
			<a:midPointStop
   offset="1"
   style="stop-color:#B47736" />
		</linearGradient>
		<path
   fill-rule="evenodd"
   clip-rule="evenodd"
   fill="url(#SVGID_3_)"
   d="M3.579,23.817V4.725h-0.2    c-0.429,0-0.777,0.354-0.777,0.787v17.518c0,0.435,0.35,0.788,0.778,0.788H3.579L3.579,23.817z M1.64,23.817V4.725H1.44    c-0.429,0-0.778,0.354-0.778,0.787v17.518c0,0.435,0.35,0.788,0.778,0.788H1.64L1.64,23.817z M9.395,23.817V4.725H9.196    c-0.43,0-0.778,0.354-0.778,0.787v17.518c0,0.435,0.349,0.788,0.778,0.788H9.395L9.395,23.817z M7.456,23.817V4.725H7.257    C6.828,4.723,6.479,5.078,6.479,5.512v17.517c0,0.436,0.35,0.789,0.778,0.789H7.456L7.456,23.817z M5.518,23.817V4.725H5.318    c-0.429,0-0.777,0.354-0.777,0.787v17.518c0,0.435,0.349,0.788,0.777,0.788H5.518z"
   id="path65" />
	</g>
	<g
   id="g117">
		<linearGradient
   id="SVGID_4_"
   gradientUnits="userSpaceOnUse"
   x1="36.6504"
   y1="4.2427"
   x2="36.6504"
   y2="23.5266">
			<stop
   offset="0"
   style="stop-color:#926A46"
   id="stop69" />
			<stop
   offset="0.01"
   style="stop-color:#812000"
   id="stop71" />
			<stop
   offset="0.16"
   style="stop-color:#A06032"
   id="stop73" />
			<stop
   offset="0.24"
   style="stop-color:#C77D51"
   id="stop75" />
			<stop
   offset="0.33"
   style="stop-color:#FACE91"
   id="stop77" />
			<stop
   offset="0.4"
   style="stop-color:#FAF2DE"
   id="stop79" />
			<stop
   offset="0.52"
   style="stop-color:#F1BE74"
   id="stop81" />
			<stop
   offset="0.61"
   style="stop-color:#E99C62"
   id="stop83" />
			<stop
   offset="0.72"
   style="stop-color:#AF5800"
   id="stop85" />
			<stop
   offset="0.87"
   style="stop-color:#812000"
   id="stop87" />
			<stop
   offset="1"
   style="stop-color:#B47736"
   id="stop89" />
			<a:midPointStop
   offset="0"
   style="stop-color:#926A46" />
			<a:midPointStop
   offset="0.5"
   style="stop-color:#926A46" />
			<a:midPointStop
   offset="0.01"
   style="stop-color:#812000" />
			<a:midPointStop
   offset="0.5"
   style="stop-color:#812000" />
			<a:midPointStop
   offset="0.16"
   style="stop-color:#A06032" />
			<a:midPointStop
   offset="0.5"
   style="stop-color:#A06032" />
			<a:midPointStop
   offset="0.24"
   style="stop-color:#C77D51" />
			<a:midPointStop
   offset="0.5"
   style="stop-color:#C77D51" />
			<a:midPointStop
   offset="0.33"
   style="stop-color:#FACE91" />
			<a:midPointStop
   offset="0.5"
   style="stop-color:#FACE91" />
			<a:midPointStop
   offset="0.4"
   style="stop-color:#FAF2DE" />
			<a:midPointStop
   offset="0.5"
   style="stop-color:#FAF2DE" />
			<a:midPointStop
   offset="0.52"
   style="stop-color:#F1BE74" />
			<a:midPointStop
   offset="0.5"
   style="stop-color:#F1BE74" />
			<a:midPointStop
   offset="0.61"
   style="stop-color:#E99C62" />
			<a:midPointStop
   offset="0.5"
   style="stop-color:#E99C62" />
			<a:midPointStop
   offset="0.72"
   style="stop-color:#AF5800" />
			<a:midPointStop
   offset="0.5"
   style="stop-color:#AF5800" />
			<a:midPointStop
   offset="0.87"
   style="stop-color:#812000" />
			<a:midPointStop
   offset="0.5"
   style="stop-color:#812000" />
			<a:midPointStop
   offset="1"
   style="stop-color:#B47736" />
		</linearGradient>
		<rect
   x="31.497"
   y="5.347"
   fill-rule="evenodd"
   clip-rule="evenodd"
   fill="url(#SVGID_4_)"
   width="10.308"
   height="17.861"
   id="rect92" />
		<linearGradient
   id="SVGID_5_"
   gradientUnits="userSpaceOnUse"
   x1="36.9697"
   y1="4.2295"
   x2="36.9697"
   y2="24.3137">
			<stop
   offset="0"
   style="stop-color:#926A46"
   id="stop94" />
			<stop
   offset="0.05"
   style="stop-color:#812000"
   id="stop96" />
			<stop
   offset="0.16"
   style="stop-color:#A06032"
   id="stop98" />
			<stop
   offset="0.24"
   style="stop-color:#C77D51"
   id="stop100" />
			<stop
   offset="0.33"
   style="stop-color:#FACE91"
   id="stop102" />
			<stop
   offset="0.53"
   style="stop-color:#FAF2DE"
   id="stop104" />
			<stop
   offset="0.64"
   style="stop-color:#F1BE74"
   id="stop106" />
			<stop
   offset="0.75"
   style="stop-color:#AF5800"
   id="stop108" />
			<stop
   offset="0.98"
   style="stop-color:#812000"
   id="stop110" />
			<stop
   offset="1"
   style="stop-color:#B47736"
   id="stop112" />
			<a:midPointStop
   offset="0"
   style="stop-color:#926A46" />
			<a:midPointStop
   offset="0.5"
   style="stop-color:#926A46" />
			<a:midPointStop
   offset="0.05"
   style="stop-color:#812000" />
			<a:midPointStop
   offset="0.5"
   style="stop-color:#812000" />
			<a:midPointStop
   offset="0.16"
   style="stop-color:#A06032" />
			<a:midPointStop
   offset="0.5"
   style="stop-color:#A06032" />
			<a:midPointStop
   offset="0.24"
   style="stop-color:#C77D51" />
			<a:midPointStop
   offset="0.5"
   style="stop-color:#C77D51" />
			<a:midPointStop
   offset="0.33"
   style="stop-color:#FACE91" />
			<a:midPointStop
   offset="0.5"
   style="stop-color:#FACE91" />
			<a:midPointStop
   offset="0.53"
   style="stop-color:#FAF2DE" />
			<a:midPointStop
   offset="0.5"
   style="stop-color:#FAF2DE" />
			<a:midPointStop
   offset="0.64"
   style="stop-color:#F1BE74" />
			<a:midPointStop
   offset="0.5"
   style="stop-color:#F1BE74" />
			<a:midPointStop
   offset="0.75"
   style="stop-color:#AF5800" />
			<a:midPointStop
   offset="0.5"
   style="stop-color:#AF5800" />
			<a:midPointStop
   offset="0.98"
   style="stop-color:#812000" />
			<a:midPointStop
   offset="0.5"
   style="stop-color:#812000" />
			<a:midPointStop
   offset="1"
   style="stop-color:#B47736" />
		</linearGradient>
		<path
   fill-rule="evenodd"
   clip-rule="evenodd"
   fill="url(#SVGID_5_)"
   d="M38.419,4.725v19.093h0.2    c0.428,0,0.777-0.354,0.777-0.788V5.512c0-0.433-0.351-0.787-0.778-0.787H38.419L38.419,4.725z M40.358,4.725v19.093h0.2    c0.427,0,0.777-0.354,0.777-0.788V5.512c0-0.433-0.351-0.787-0.778-0.787H40.358L40.358,4.725z M32.604,4.725v19.093h0.199    c0.428,0,0.777-0.354,0.777-0.788V5.512c0-0.434-0.35-0.787-0.777-0.787H32.604L32.604,4.725z M34.542,4.725v19.093h0.199    c0.428,0.001,0.777-0.354,0.777-0.788V5.512c0-0.433-0.35-0.787-0.777-0.787H34.542L34.542,4.725z M36.481,4.725v19.093h0.198    c0.428,0,0.777-0.354,0.777-0.788V5.512c0-0.434-0.35-0.787-0.777-0.787H36.481z"
   id="path115" />
	</g>
	<path
   fill-rule="evenodd"
   clip-rule="evenodd"
   fill="#6B2700"
   d="M32.04,26.054c0,0.306-0.125,0.572-0.356,0.768l-1.133,0.95   C30.368,27.925,30.16,28,29.923,28l-17.756-0.014c-0.228,0-0.428-0.07-0.606-0.214l-1.19-0.946   c-0.243-0.194-0.375-0.47-0.375-0.783V2.099c0-0.319,0.136-0.598,0.386-0.791l1.32-1.022c0.175-0.135,0.368-0.203,0.588-0.204   L29.335,0c0.202-0.001,0.381,0.052,0.55,0.163l1.712,1.14c0.284,0.189,0.443,0.488,0.443,0.832V26.054z"
   id="path119" />
	<linearGradient
   id="SVGID_6_"
   gradientUnits="userSpaceOnUse"
   x1="21.0166"
   y1="27.6563"
   x2="21.0166"
   y2="0.3447">
		<stop
   offset="0"
   style="stop-color:#6B2700"
   id="stop121" />
		<stop
   offset="0.09"
   style="stop-color:#AB6D3F"
   id="stop123" />
		<stop
   offset="0.18"
   style="stop-color:#CE875B"
   id="stop125" />
		<stop
   offset="0.33"
   style="stop-color:#FAD196"
   id="stop127" />
		<stop
   offset="0.52"
   style="stop-color:#F3C37C"
   id="stop129" />
		<stop
   offset="0.72"
   style="stop-color:#B76513"
   id="stop131" />
		<stop
   offset="0.87"
   style="stop-color:#8E3200"
   id="stop133" />
		<stop
   offset="1"
   style="stop-color:#BC8044"
   id="stop135" />
		<a:midPointStop
   offset="0"
   style="stop-color:#6B2700" />
		<a:midPointStop
   offset="0.5"
   style="stop-color:#6B2700" />
		<a:midPointStop
   offset="0.09"
   style="stop-color:#AB6D3F" />
		<a:midPointStop
   offset="0.5"
   style="stop-color:#AB6D3F" />
		<a:midPointStop
   offset="0.18"
   style="stop-color:#CE875B" />
		<a:midPointStop
   offset="0.5"
   style="stop-color:#CE875B" />
		<a:midPointStop
   offset="0.33"
   style="stop-color:#FAD196" />
		<a:midPointStop
   offset="0.5"
   style="stop-color:#FAD196" />
		<a:midPointStop
   offset="0.52"
   style="stop-color:#F3C37C" />
		<a:midPointStop
   offset="0.5"
   style="stop-color:#F3C37C" />
		<a:midPointStop
   offset="0.72"
   style="stop-color:#B76513" />
		<a:midPointStop
   offset="0.5"
   style="stop-color:#B76513" />
		<a:midPointStop
   offset="0.87"
   style="stop-color:#8E3200" />
		<a:midPointStop
   offset="0.5"
   style="stop-color:#8E3200" />
		<a:midPointStop
   offset="1"
   style="stop-color:#BC8044" />
	</linearGradient>
	<path
   fill-rule="evenodd"
   clip-rule="evenodd"
   fill="url(#SVGID_6_)"
   d="M31.729,25.928V2.261c0-0.274-0.124-0.51-0.352-0.66   l-1.693-1.127c-0.134-0.09-0.273-0.13-0.436-0.129L12.382,0.424c-0.177,0-0.326,0.055-0.464,0.162l-1.309,1.012   c-0.199,0.153-0.306,0.372-0.306,0.626v23.692c0,0.25,0.104,0.466,0.299,0.62l1.177,0.938c0.143,0.112,0.299,0.168,0.479,0.168   l17.569,0.014c0.19,0,0.353-0.058,0.499-0.18l1.121-0.941C31.632,26.381,31.729,26.171,31.729,25.928z"
   id="path138" />
	<linearGradient
   id="SVGID_7_"
   gradientUnits="userSpaceOnUse"
   x1="21.0366"
   y1="20.7324"
   x2="21.0366"
   y2="27.4492">
		<stop
   offset="0"
   style="stop-color:#9D4200"
   id="stop140" />
		<stop
   offset="1"
   style="stop-color:#6B2700"
   id="stop142" />
		<a:midPointStop
   offset="0"
   style="stop-color:#9D4200" />
		<a:midPointStop
   offset="0.5"
   style="stop-color:#9D4200" />
		<a:midPointStop
   offset="1"
   style="stop-color:#6B2700" />
	</linearGradient>
	<path
   fill-rule="evenodd"
   clip-rule="evenodd"
   fill="url(#SVGID_7_)"
   d="M29.532,19.785h-16.99c-0.717,0-1.3,0.526-1.3,1.172v4.496   c0,0.646,0.583,1.173,1.3,1.173h16.99c0.716,0,1.299-0.527,1.299-1.173v-4.496C30.831,20.312,30.248,19.785,29.532,19.785z"
   id="path145" />
	<linearGradient
   id="SVGID_8_"
   gradientUnits="userSpaceOnUse"
   x1="21.0366"
   y1="9.2896"
   x2="21.0366"
   y2="15.451">
		<stop
   offset="0"
   style="stop-color:#C88240"
   id="stop147" />
		<stop
   offset="1"
   style="stop-color:#DDA786"
   id="stop149" />
		<a:midPointStop
   offset="0"
   style="stop-color:#C88240" />
		<a:midPointStop
   offset="0.5"
   style="stop-color:#C88240" />
		<a:midPointStop
   offset="1"
   style="stop-color:#DDA786" />
	</linearGradient>
	<path
   fill-rule="evenodd"
   clip-rule="evenodd"
   fill="url(#SVGID_8_)"
   d="M29.532,5.952h-16.99c-0.717,0-1.3,0.532-1.3,1.174v10.488   c0,0.64,0.591,1.174,1.3,1.174h16.99c0.709,0,1.299-0.526,1.299-1.174V7.126C30.831,6.479,30.248,5.952,29.532,5.952z"
   id="path152" />
	<linearGradient
   id="SVGID_9_"
   gradientUnits="userSpaceOnUse"
   x1="21.0366"
   y1="7.2607"
   x2="21.0366"
   y2="0.2537">
		<stop
   offset="0"
   style="stop-color:#D78D4D"
   id="stop154" />
		<stop
   offset="1"
   style="stop-color:#FBE1BD"
   id="stop156" />
		<a:midPointStop
   offset="0"
   style="stop-color:#D78D4D" />
		<a:midPointStop
   offset="0.5"
   style="stop-color:#D78D4D" />
		<a:midPointStop
   offset="1"
   style="stop-color:#FBE1BD" />
	</linearGradient>
	<path
   fill-rule="evenodd"
   clip-rule="evenodd"
   fill="url(#SVGID_9_)"
   d="M29.532,1.43h-16.99c-0.717,0-1.3,0.538-1.3,1.175v1.18   c0,0.637,0.594,1.174,1.3,1.174h16.99c0.705,0,1.299-0.526,1.299-1.174v-1.18C30.831,1.956,30.248,1.43,29.532,1.43z"
   id="path159" />
</g>
</svg>
