<?xml version="1.0" standalone="no"?><!DOCTYPE svg PUBLIC "-//W3C//DTD SVG 1.1//EN" "http://www.w3.org/Graphics/SVG/1.1/DTD/svg11.dtd"><svg t="1694487946641" class="icon" viewBox="0 0 1024 1024" version="1.1" xmlns="http://www.w3.org/2000/svg" p-id="13317" width="32" height="32" xmlns:xlink="http://www.w3.org/1999/xlink"><path d="M307.2 143.36h40.96a20.48 20.48 0 0 1 20.48 20.48v281.6h71.14752c17.96096 0 27.2384 21.48352 14.88896 34.52928l-112.10752 118.66112a20.48 20.48 0 0 1-29.77792 0L200.704 479.96928c-12.32896-13.04576-3.072-34.52928 14.88896-34.52928H286.72V163.84a20.48 20.48 0 0 1 20.48-20.48z m409.6 0h-40.96a20.48 20.48 0 0 0-20.48 20.48v281.6h-71.14752c-17.96096 0-27.2384 21.48352-14.88896 34.52928l112.10752 118.66112a20.48 20.48 0 0 0 29.77792 0l112.10752-118.66112c12.32896-13.04576 3.072-34.52928-14.88896-34.52928H737.28V163.84a20.48 20.48 0 0 0-20.48-20.48z m163.84 512H143.36a20.48 20.48 0 0 0-20.48 20.48v102.4a20.48 20.48 0 0 0 20.48 20.48h737.28a20.48 20.48 0 0 0 20.48-20.48v-102.4a20.48 20.48 0 0 0-20.48-20.48z m10.24 184.32h-757.76a10.24 10.24 0 0 0-10.24 10.24v20.48a10.24 10.24 0 0 0 10.24 10.24h757.76a10.24 10.24 0 0 0 10.24-10.24v-20.48a10.24 10.24 0 0 0-10.24-10.24z" fill="#ffffff" p-id="13318"></path></svg>