<?xml version="1.0" standalone="no"?><!DOCTYPE svg PUBLIC "-//W3C//DTD SVG 1.1//EN" "http://www.w3.org/Graphics/SVG/1.1/DTD/svg11.dtd"><svg t="1694488272927" class="icon" viewBox="0 0 1024 1024" version="1.1" xmlns="http://www.w3.org/2000/svg" p-id="14767" xmlns:xlink="http://www.w3.org/1999/xlink" width="32" height="32"><path d="M448 652.8h153.6v204.8h74.752a10.24 10.24 0 0 1 6.656 18.0224l-151.552 129.8432a10.24 10.24 0 0 1-13.312 0l-151.552-129.8432a10.24 10.24 0 0 1 6.656-18.0224h74.752v-204.8z m460.8-601.6a89.6 89.6 0 0 1 89.2928 82.2272l0.3072 7.3728v512a89.6 89.6 0 0 1-82.2272 89.2928l-7.3728 0.3072h-168.448a38.4 38.4 0 0 1-5.1712-76.4416L740.352 665.6h168.3968a12.8 12.8 0 0 0 12.4416-9.8816L921.6 652.8v-512a12.8 12.8 0 0 0-9.8816-12.4416L908.8 128h-768a12.8 12.8 0 0 0-12.4416 9.8816L128 140.8v512a12.8 12.8 0 0 0 9.8816 12.4416L140.8 665.6h162.4576a38.4 38.4 0 0 1 5.1712 76.4416l-5.1712 0.3584H140.8a89.6 89.6 0 0 1-89.2928-82.2272L51.2 652.8v-512a89.6 89.6 0 0 1 82.2272-89.2928L140.8 51.2h768zM265.472 278.6816l4.1984 3.4304 119.296 114.1248a33.28 33.28 0 0 1 4.096 43.3664l-3.584 4.1984-119.296 119.296a33.28 33.28 0 0 1-50.5344-42.9568l3.5328-4.096 95.1808-95.2832-94.72-90.5728a33.28 33.28 0 0 1-4.4032-42.8544l3.3792-4.1984a33.28 33.28 0 0 1 42.8544-4.4544z m281.5488 103.168l266.24 2.048a38.4 38.4 0 0 1 4.608 76.4416l-5.1712 0.3072-266.24-1.9968a38.4 38.4 0 0 1-4.608-76.4928l5.12-0.3072z" fill="#ffffff" p-id="14768"></path></svg>