<svg xmlns="http://www.w3.org/2000/svg" xmlns:xlink="http://www.w3.org/1999/xlink" width="12.6998291015625" height="16.168968200683594" viewBox="0 0 12.6998291015625 16.168968200683594" fill="none">
<path d="M6.34993 0.100003C4.85399 0.100003 0.100022 5.79008 0.100022 9.663C0.100022 13.1872 2.90835 16.0689 6.34993 16.0689C9.79151 16.0689 12.5998 13.1872 12.5998 9.663C12.5998 5.79008 7.84587 0.100003 6.34993 0.100003ZM11.4068 9.663C11.4068 12.5264 9.1399 14.8575 6.34993 14.8575C3.55996 14.8575 1.2931 12.5264 1.2931 9.663C1.2931 6.15718 5.49642 1.71525 6.34993 1.32979C7.20344 1.71525 11.4068 6.15718 11.4068 9.663ZM3.76357 9.42586C3.53357 9.38587 3.28358 9.47586 3.13358 9.66584C2.99358 9.84582 2.95358 10.1058 3.03358 10.3258C3.57357 11.7556 4.70355 12.8755 6.14353 13.4054C6.32353 13.4754 6.53353 13.4554 6.70352 13.3554C6.87352 13.2454 6.98352 13.0754 7.02352 12.8855C7.08352 12.5655 6.89352 12.2455 6.59353 12.1356C5.52354 11.7556 4.69355 10.9057 4.27356 9.84582C4.19356 9.62584 3.99356 9.45586 3.76357 9.42586Z" stroke="rgba(11, 132, 240, 1)" stroke-width="0.2"    fill-rule="evenodd"  fill="#0B84F0" >
</path>
</svg>
