<svg xmlns="http://www.w3.org/2000/svg" xmlns:xlink="http://www.w3.org/1999/xlink" width="22.1998291015625" height="17.765872955322266" viewBox="0 0 22.1998291015625 17.765872955322266" fill="none">
<path d="M10.4024 6.15999L12.7294 6.15999L11.9509 10.8062L16.6061 4.9994L14.2798 4.9994L14.668 0.3451L10.4024 6.15999ZM21.3006 13.8261L17.135 13.8261L16.336 11.6265C16.333 11.6181 16.3298 11.6097 16.3264 11.6014C16.3231 11.5931 16.3196 11.5848 16.3159 11.5766C16.3123 11.5684 16.3085 11.5603 16.3046 11.5522C16.3007 11.5441 16.2967 11.5361 16.2925 11.5282C16.2883 11.5202 16.284 11.5123 16.2796 11.5045C16.2751 11.4968 16.2705 11.489 16.2658 11.4814C16.2611 11.4738 16.2563 11.4662 16.2513 11.4587C16.2464 11.4513 16.2413 11.4439 16.2361 11.4366C16.2309 11.4293 16.2255 11.4221 16.2201 11.415C16.2146 11.4078 16.209 11.4008 16.2033 11.3939C16.1977 11.3869 16.1919 11.3801 16.1859 11.3734C16.18 11.3666 16.174 11.36 16.1678 11.3534C16.1617 11.3469 16.1554 11.3405 16.1491 11.3342C16.1427 11.3279 16.1362 11.3216 16.1296 11.3155C16.1231 11.3094 16.1164 11.3035 16.1096 11.2976C16.1028 11.2917 16.0959 11.2859 16.089 11.2803C16.082 11.2747 16.0749 11.2691 16.0678 11.2637C16.0606 11.2583 16.0534 11.253 16.046 11.2479C16.0387 11.2427 16.0313 11.2377 16.0237 11.2328C16.0162 11.2279 16.0086 11.2231 16.001 11.2185C15.9933 11.2138 15.9855 11.2093 15.9777 11.2049C15.9699 11.2005 15.962 11.1962 15.954 11.1921C15.9461 11.188 15.938 11.184 15.9299 11.1802C15.9218 11.1763 15.9137 11.1726 15.9054 11.169C15.8972 11.1655 15.8889 11.162 15.8806 11.1587C15.8722 11.1555 15.8638 11.1523 15.8554 11.1493C15.8469 11.1463 15.8384 11.1434 15.8299 11.1407C15.8213 11.138 15.8127 11.1354 15.8041 11.133C15.7955 11.1305 15.7868 11.1283 15.7781 11.1261C15.7694 11.124 15.7606 11.122 15.7518 11.1202C15.7431 11.1183 15.7342 11.1166 15.7254 11.1151C15.7166 11.1135 15.7077 11.1121 15.6988 11.1109C15.6622 11.1055 15.6253 11.1028 15.5882 11.1028C15.5804 11.1028 15.5726 11.103 15.5648 11.1032C15.557 11.1034 15.5492 11.1038 15.5414 11.1042C15.5335 11.1047 15.5258 11.1053 15.518 11.106C15.5102 11.1067 15.5024 11.1075 15.4947 11.1084C15.4869 11.1093 15.4792 11.1104 15.4714 11.1115C15.4637 11.1127 15.456 11.1139 15.4483 11.1153C15.4406 11.1167 15.4329 11.1182 15.4253 11.1198C15.4177 11.1214 15.41 11.1231 15.4024 11.1249C15.3948 11.1267 15.3873 11.1286 15.3797 11.1307C15.3722 11.1327 15.3647 11.1349 15.3572 11.1371C15.3497 11.1394 15.3423 11.1418 15.3349 11.1442C15.3274 11.1467 15.3201 11.1493 15.3127 11.152C15.3054 11.1547 15.2981 11.1575 15.2909 11.1604C15.2836 11.1633 15.2764 11.1663 15.2692 11.1694C15.2621 11.1725 15.255 11.1758 15.2479 11.1791C15.2408 11.1824 15.2338 11.1858 15.2268 11.1894C15.2199 11.1929 15.2129 11.1965 15.2061 11.2003C15.1992 11.204 15.1924 11.2078 15.1857 11.2118C15.1789 11.2157 15.1722 11.2197 15.1656 11.2239C15.1589 11.228 15.1524 11.2322 15.1459 11.2365C15.1393 11.2409 15.1329 11.2453 15.1265 11.2498C15.1201 11.2543 15.1138 11.2589 15.1076 11.2636C15.1013 11.2683 15.0951 11.273 15.089 11.2779C15.0829 11.2828 15.0769 11.2878 15.0709 11.2928C15.065 11.2978 15.0591 11.303 15.0533 11.3082C15.0474 11.3134 15.0417 11.3187 15.0361 11.3241C15.0304 11.3295 15.0248 11.335 15.0193 11.3405C15.0138 11.3461 15.0084 11.3517 15.0031 11.3574C14.9977 11.3631 14.9925 11.3689 14.9873 11.3748C14.9822 11.3806 14.9771 11.3866 14.9721 11.3926C14.9671 11.3986 14.9622 11.4047 14.9574 11.4108C14.9526 11.417 14.9478 11.4232 14.9432 11.4295L12.1126 15.2968L9.28747 9.07019C9.28395 9.0625 9.28031 9.05486 9.27654 9.04728C9.27277 9.03971 9.26888 9.03219 9.26487 9.02474C9.26087 9.01728 9.25675 9.0099 9.25251 9.00258C9.24828 8.99525 9.24393 8.98799 9.23947 8.98081C9.23499 8.97363 9.23041 8.96652 9.22571 8.95948C9.22102 8.95243 9.21622 8.94546 9.2113 8.93857C9.2064 8.93169 9.20138 8.92489 9.19625 8.91816C9.19112 8.91142 9.18589 8.90478 9.18055 8.89821C9.17522 8.89165 9.16978 8.88517 9.16423 8.87878C9.15869 8.87238 9.15305 8.86608 9.14731 8.85987C9.14156 8.85365 9.13572 8.84753 9.12979 8.8415C9.12386 8.83548 9.11783 8.82955 9.11171 8.8237C9.10559 8.81786 9.09937 8.81212 9.09307 8.80648C9.08677 8.80083 9.08037 8.79529 9.07389 8.78986C9.0674 8.78442 9.06084 8.77909 9.0542 8.77386C9.04755 8.76862 9.04081 8.76349 9.034 8.75846C9.02719 8.75344 9.02031 8.74853 9.01335 8.74373C9.00638 8.73894 8.99934 8.73425 8.99222 8.72966C8.98511 8.72508 8.97792 8.72061 8.97067 8.71626C8.96341 8.71191 8.95609 8.70767 8.9487 8.70356C8.94132 8.69944 8.93386 8.69544 8.92634 8.69155C8.91883 8.68766 8.91126 8.68389 8.90362 8.68025C8.89599 8.67661 8.8883 8.67308 8.88055 8.66968C8.8728 8.66627 8.86501 8.66299 8.85716 8.65983C8.84931 8.65669 8.84141 8.65366 8.83346 8.65075C8.82552 8.64784 8.81753 8.64506 8.80949 8.64241C8.80146 8.63975 8.79339 8.63722 8.78527 8.63483C8.77716 8.63243 8.76902 8.63016 8.76083 8.62802C8.75264 8.62587 8.74443 8.62386 8.73618 8.62198C8.72793 8.62011 8.71965 8.61836 8.71135 8.61673C8.70304 8.61511 8.69471 8.61362 8.68637 8.61227C8.67801 8.61092 8.66964 8.60969 8.66125 8.6086C8.62809 8.60395 8.59477 8.60212 8.5613 8.6031C8.54639 8.60315 8.5315 8.6036 8.51661 8.60447C8.50174 8.60535 8.48689 8.60664 8.47208 8.60834C8.45727 8.61004 8.44252 8.61214 8.42783 8.61467C8.41313 8.6172 8.39852 8.62012 8.384 8.62345C8.36946 8.62679 8.35504 8.63053 8.34071 8.63466C8.32639 8.6388 8.3122 8.64334 8.29812 8.64826C8.28406 8.65319 8.27014 8.6585 8.25636 8.6642C8.24259 8.6699 8.22899 8.67599 8.21555 8.68245C8.20212 8.68891 8.18887 8.69574 8.17581 8.70293C8.16275 8.71013 8.14991 8.71768 8.13728 8.7256C8.12465 8.73351 8.11225 8.74177 8.10007 8.75036C8.08789 8.75896 8.07596 8.7679 8.06429 8.77717C8.05261 8.78644 8.0412 8.79603 8.03006 8.80593C8.0189 8.81583 8.00805 8.82603 7.99748 8.83652C7.9869 8.84704 7.97662 8.85783 7.96664 8.86892C7.95666 8.87999 7.94701 8.89133 7.93767 8.90295L5.29466 12.2152L0.895563 12.2152C0.882537 12.2152 0.86952 12.2156 0.856512 12.2162C0.843503 12.2169 0.830518 12.2178 0.817557 12.2191C0.804596 12.2204 0.791674 12.222 0.778792 12.2239C0.765909 12.2259 0.753082 12.2281 0.74031 12.2306C0.727537 12.2332 0.714835 12.2361 0.702203 12.2392C0.689571 12.2424 0.677025 12.2459 0.664564 12.2497C0.652102 12.2535 0.639742 12.2576 0.627482 12.262C0.615221 12.2664 0.603075 12.2711 0.591046 12.2761C0.579016 12.281 0.567116 12.2863 0.555345 12.2919C0.543575 12.2975 0.531948 12.3033 0.520465 12.3095C0.508982 12.3156 0.497657 12.3221 0.48649 12.3288C0.475322 12.3355 0.464325 12.3424 0.453499 12.3497C0.442674 12.3569 0.432033 12.3644 0.421576 12.3722C0.411118 12.38 0.400858 12.388 0.390794 12.3962C0.38073 12.4045 0.370875 12.413 0.361229 12.4218C0.351582 12.4305 0.342156 12.4395 0.332951 12.4487C0.323745 12.4579 0.31477 12.4674 0.306028 12.477C0.297285 12.4867 0.288785 12.4965 0.280527 12.5066C0.272268 12.5167 0.264261 12.527 0.256506 12.5374C0.248751 12.5479 0.241258 12.5585 0.234025 12.5694C0.226793 12.5802 0.219831 12.5912 0.213138 12.6024C0.206446 12.6136 0.200031 12.6249 0.193895 12.6364C0.187758 12.6479 0.181907 12.6595 0.176342 12.6713C0.170776 12.6831 0.165502 12.695 0.160521 12.707C0.155539 12.719 0.150856 12.7312 0.146471 12.7434C0.142085 12.7557 0.138003 12.7681 0.134224 12.7805C0.130446 12.793 0.126975 12.8056 0.123812 12.8182C0.120649 12.8308 0.117798 12.8435 0.115258 12.8563C0.112719 12.8691 0.110494 12.8819 0.108584 12.8948C0.106674 12.9077 0.105081 12.9206 0.103806 12.9336C0.10253 12.9465 0.101572 12.9595 0.100934 12.9725C0.100295 12.9855 0.0999756 12.9986 0.0999756 13.0116C0.0999756 13.0246 0.100295 13.0376 0.100934 13.0506C0.101572 13.0636 0.10253 13.0766 0.103806 13.0896C0.105081 13.1025 0.106674 13.1155 0.108584 13.1284C0.110494 13.1412 0.112719 13.1541 0.115258 13.1668C0.117798 13.1796 0.120649 13.1923 0.123812 13.2049C0.126975 13.2176 0.130446 13.2301 0.134224 13.2426C0.138003 13.2551 0.142085 13.2674 0.146471 13.2797C0.150856 13.292 0.155539 13.3041 0.160521 13.3161C0.165502 13.3282 0.170776 13.3401 0.176342 13.3519C0.181907 13.3636 0.187758 13.3753 0.193895 13.3868C0.200031 13.3983 0.206446 13.4096 0.213138 13.4208C0.219831 13.4319 0.226793 13.4429 0.234025 13.4538C0.241258 13.4646 0.248751 13.4753 0.256506 13.4857C0.264261 13.4962 0.272268 13.5064 0.280527 13.5165C0.288785 13.5266 0.297285 13.5364 0.306028 13.5461C0.31477 13.5558 0.323745 13.5652 0.332951 13.5744C0.342156 13.5836 0.351582 13.5926 0.361229 13.6014C0.370875 13.6101 0.38073 13.6186 0.390794 13.6269C0.400858 13.6352 0.411118 13.6432 0.421576 13.6509C0.432033 13.6587 0.442674 13.6662 0.453499 13.6735C0.464325 13.6807 0.475322 13.6877 0.48649 13.6944C0.497657 13.7011 0.508982 13.7075 0.520465 13.7137C0.531948 13.7198 0.543575 13.7257 0.555345 13.7312C0.567116 13.7368 0.579016 13.7421 0.591046 13.7471C0.603075 13.7521 0.615221 13.7568 0.627482 13.7612C0.639742 13.7656 0.652102 13.7697 0.664564 13.7735C0.677025 13.7773 0.689571 13.7807 0.702203 13.7839C0.714835 13.7871 0.727537 13.79 0.74031 13.7925C0.753082 13.7951 0.765909 13.7973 0.778792 13.7992C0.791674 13.8011 0.804596 13.8027 0.817557 13.804C0.830518 13.8053 0.843503 13.8063 0.856512 13.8069C0.86952 13.8076 0.882537 13.8079 0.895563 13.8079L5.67795 13.8079C5.68542 13.808 5.69287 13.8079 5.70033 13.8077C5.70778 13.8075 5.71523 13.8072 5.72267 13.8068C5.73013 13.8064 5.73757 13.8059 5.745 13.8053C5.75243 13.8047 5.75985 13.804 5.76726 13.8032C5.77468 13.8024 5.78208 13.8015 5.78947 13.8004C5.79686 13.7994 5.80423 13.7983 5.81158 13.797C5.81893 13.7958 5.82626 13.7945 5.83358 13.7931C5.8409 13.7916 5.8482 13.7901 5.85547 13.7884C5.86274 13.7868 5.87 13.785 5.87722 13.7832C5.88445 13.7813 5.89165 13.7794 5.89882 13.7773C5.90598 13.7753 5.91312 13.7731 5.92024 13.7709C5.92734 13.7686 5.93442 13.7663 5.94147 13.7638C5.94851 13.7614 5.95552 13.7588 5.96249 13.7562C5.96946 13.7535 5.97639 13.7508 5.98328 13.7479C5.99018 13.7451 5.99704 13.7422 6.00385 13.7391C6.01065 13.7361 6.01741 13.733 6.02415 13.7297C6.03087 13.7265 6.03754 13.7232 6.04417 13.7197C6.05079 13.7163 6.05737 13.7128 6.0639 13.7092C6.07043 13.7056 6.0769 13.7019 6.08333 13.6981C6.08976 13.6944 6.09613 13.6905 6.10244 13.6865C6.10876 13.6826 6.11502 13.6785 6.12122 13.6744C6.12742 13.6702 6.13357 13.666 6.13966 13.6617C6.14574 13.6574 6.15176 13.653 6.15772 13.6485C6.16368 13.644 6.16957 13.6394 6.1754 13.6348C6.18123 13.6301 6.18699 13.6254 6.19269 13.6206C6.19838 13.6158 6.20401 13.6109 6.20957 13.6059C6.21513 13.6009 6.22062 13.5959 6.22604 13.5908C6.23145 13.5856 6.23679 13.5804 6.24206 13.5752C6.24733 13.5699 6.25252 13.5645 6.25764 13.5591C6.26276 13.5537 6.2678 13.5482 6.27278 13.5426C6.27774 13.5371 6.28262 13.5314 6.28743 13.5257C6.29223 13.52 6.29695 13.5142 6.3016 13.5084L8.37175 10.9142L11.2198 17.1962C11.2234 17.2041 11.2272 17.2119 11.2311 17.2196C11.2349 17.2274 11.2389 17.2351 11.243 17.2427C11.2471 17.2503 11.2513 17.2579 11.2557 17.2653C11.2601 17.2729 11.2645 17.2803 11.2691 17.2877C11.2737 17.295 11.2784 17.3022 11.2833 17.3093C11.2881 17.3165 11.293 17.3236 11.2981 17.3306C11.3031 17.3377 11.3083 17.3447 11.3136 17.3516C11.3189 17.3584 11.3243 17.3651 11.3298 17.3719C11.3353 17.3785 11.3409 17.3851 11.3466 17.3917C11.3523 17.3981 11.3581 17.4045 11.3641 17.4108C11.37 17.4172 11.376 17.4235 11.3821 17.4296C11.3882 17.4357 11.3945 17.4417 11.4008 17.4477C11.4071 17.4535 11.4135 17.4593 11.42 17.4651C11.4265 17.4707 11.4331 17.4763 11.4398 17.4818C11.4465 17.4874 11.4533 17.4928 11.4601 17.4981C11.467 17.5034 11.4739 17.5086 11.481 17.5136C11.488 17.5186 11.4951 17.5235 11.5023 17.5284C11.5095 17.5332 11.5167 17.5379 11.5241 17.5426C11.5314 17.5472 11.5388 17.5516 11.5463 17.5559C11.5538 17.5603 11.5614 17.5646 11.569 17.5686C11.5766 17.5728 11.5843 17.5768 11.592 17.5806C11.5998 17.5845 11.6076 17.5882 11.6155 17.5918C11.6233 17.5954 11.6313 17.5989 11.6392 17.6023C11.6472 17.6057 11.6553 17.6089 11.6634 17.6119C11.6714 17.615 11.6796 17.6179 11.6878 17.6209C11.6959 17.6237 11.7042 17.6264 11.7124 17.6288C11.7207 17.6314 11.729 17.6338 11.7374 17.6361C11.7457 17.6385 11.7541 17.6407 11.7625 17.6427C11.7709 17.6447 11.7794 17.6466 11.7879 17.6483C11.7964 17.6501 11.8049 17.6517 11.8134 17.6532C11.8219 17.6547 11.8305 17.656 11.8391 17.6572C11.8476 17.6584 11.8562 17.6594 11.8648 17.6603C11.892 17.663 11.9188 17.6659 11.946 17.6659C11.9538 17.6659 11.9616 17.6658 11.9694 17.6655C11.9772 17.6653 11.985 17.665 11.9927 17.6645C12.0005 17.6641 12.0083 17.6635 12.0161 17.6628C12.0238 17.6622 12.0316 17.6614 12.0393 17.6605C12.047 17.6596 12.0548 17.6585 12.0625 17.6572C12.0702 17.6561 12.0779 17.6549 12.0855 17.6535C12.0932 17.6522 12.1009 17.6507 12.1085 17.6491C12.1161 17.6476 12.1237 17.6459 12.1313 17.6441C12.1389 17.6423 12.1464 17.6403 12.154 17.6383C12.1615 17.6363 12.169 17.6341 12.1764 17.6319C12.1839 17.6296 12.1913 17.6273 12.1987 17.6248C12.2061 17.6223 12.2134 17.6197 12.2208 17.617C12.2281 17.6143 12.2353 17.6115 12.2426 17.6085C12.2498 17.6056 12.257 17.6026 12.2641 17.5996C12.2713 17.5964 12.2784 17.5932 12.2854 17.5899C12.2924 17.5865 12.2994 17.5831 12.3064 17.5796C12.3133 17.576 12.3202 17.5723 12.3271 17.5686C12.3339 17.5649 12.3407 17.5611 12.3474 17.5571C12.3541 17.5532 12.3608 17.5492 12.3674 17.5451C12.374 17.5409 12.3806 17.5367 12.387 17.5324C12.3935 17.528 12.4 17.5236 12.4063 17.5191C12.4127 17.5145 12.4189 17.51 12.4252 17.5054C12.4314 17.5006 12.4375 17.4958 12.4436 17.491C12.4497 17.4861 12.4557 17.4812 12.4616 17.4761C12.4675 17.471 12.4734 17.4659 12.4792 17.4607C12.485 17.4554 12.4907 17.45 12.4963 17.4446C12.5019 17.4392 12.5074 17.4337 12.5129 17.4282C12.5184 17.4227 12.5237 17.4171 12.529 17.4113C12.5343 17.4057 12.5396 17.3999 12.5447 17.3939C12.5498 17.388 12.5548 17.3821 12.5598 17.3761C12.5647 17.3701 12.5696 17.3641 12.5744 17.3579C12.5791 17.3517 12.5838 17.3455 12.5884 17.3392L15.3472 13.576L15.8279 14.8986C15.8314 14.9082 15.8351 14.9176 15.839 14.927C15.8428 14.9364 15.8468 14.9457 15.8511 14.9549C15.8553 14.9642 15.8597 14.9733 15.8643 14.9824C15.8688 14.9914 15.8735 15.0004 15.8785 15.0093C15.8834 15.0182 15.8884 15.027 15.8937 15.0357C15.8989 15.0443 15.9043 15.0529 15.9099 15.0614C15.9155 15.0699 15.9212 15.0783 15.9271 15.0865C15.933 15.0948 15.939 15.103 15.9452 15.111C15.9514 15.119 15.9578 15.1269 15.9643 15.1347C15.9708 15.1425 15.9774 15.1502 15.9842 15.1577C15.991 15.1653 15.9979 15.1727 16.005 15.18C16.0121 15.1873 16.0193 15.1944 16.0266 15.2014C16.034 15.2084 16.0415 15.2153 16.0491 15.222C16.0567 15.2287 16.0644 15.2353 16.0723 15.2417C16.0801 15.2481 16.0881 15.2544 16.0962 15.2605C16.1043 15.2666 16.1125 15.2726 16.1208 15.2784C16.1291 15.2842 16.1376 15.2899 16.1461 15.2953C16.1547 15.3008 16.1633 15.3061 16.172 15.3113C16.1808 15.3165 16.1896 15.3215 16.1985 15.3263C16.2075 15.3311 16.2165 15.3358 16.2256 15.3402C16.2347 15.3447 16.2439 15.349 16.2532 15.3531C16.2624 15.3573 16.2718 15.3612 16.2812 15.365C16.2906 15.3688 16.3001 15.3724 16.3097 15.3758C16.3192 15.3792 16.3289 15.3824 16.3385 15.3855C16.3482 15.3885 16.358 15.3914 16.3677 15.394C16.3775 15.3967 16.3874 15.3992 16.3973 15.4015C16.4071 15.4038 16.4171 15.4059 16.427 15.4078C16.437 15.4098 16.447 15.4115 16.457 15.413C16.4671 15.4146 16.4771 15.4159 16.4872 15.4171C16.4973 15.4183 16.5074 15.4192 16.5175 15.42C16.5276 15.4208 16.5377 15.4214 16.5479 15.4218C16.558 15.4221 16.5682 15.4223 16.5783 15.4223L21.3035 15.4223C21.3166 15.4223 21.3296 15.422 21.3426 15.4213C21.3557 15.4207 21.3687 15.4197 21.3817 15.4184C21.3946 15.4171 21.4076 15.4155 21.4206 15.4135C21.4334 15.4116 21.4463 15.4094 21.4591 15.4068C21.4719 15.4042 21.4846 15.4014 21.4973 15.3982C21.51 15.395 21.5226 15.3915 21.5351 15.3877C21.5475 15.3839 21.5598 15.3798 21.5721 15.3754C21.5844 15.3709 21.5966 15.3662 21.6086 15.3612C21.6207 15.3562 21.6327 15.3509 21.6445 15.3453C21.6562 15.3397 21.6678 15.3338 21.6793 15.3276C21.6909 15.3215 21.7022 15.315 21.7134 15.3083C21.7246 15.3016 21.7357 15.2946 21.7465 15.2873C21.7573 15.28 21.768 15.2725 21.7785 15.2647C21.789 15.2569 21.7992 15.2489 21.8093 15.2406C21.8194 15.2323 21.8293 15.2237 21.8389 15.2149C21.8486 15.2062 21.858 15.1971 21.8673 15.1879C21.8764 15.1786 21.8854 15.1692 21.8942 15.1595C21.903 15.1498 21.9115 15.1399 21.9197 15.1298C21.9279 15.1197 21.9359 15.1094 21.9437 15.0989C21.9515 15.0884 21.959 15.0777 21.9662 15.0668C21.9734 15.056 21.9804 15.0449 21.987 15.0337C21.9938 15.0225 22.0002 15.0111 22.0063 14.9996C22.0125 14.9881 22.0184 14.9764 22.0239 14.9646C22.0294 14.9528 22.0347 14.9409 22.0396 14.9288C22.0446 14.9167 22.0493 14.9045 22.0537 14.8922C22.0581 14.8799 22.0621 14.8675 22.0659 14.855C22.0697 14.8425 22.0732 14.8299 22.0763 14.8173C22.0795 14.8046 22.0823 14.7919 22.0848 14.7791C22.0873 14.7662 22.0895 14.7534 22.0914 14.7405C22.0933 14.7275 22.0949 14.7146 22.0961 14.7016C22.0974 14.6886 22.0983 14.6756 22.099 14.6625C22.0996 14.6495 22.0999 14.6364 22.0999 14.6234C22.0997 14.6103 22.0993 14.5973 22.0987 14.5843C22.098 14.5712 22.097 14.5582 22.0956 14.5453C22.0943 14.5323 22.0926 14.5194 22.0907 14.5065C22.0887 14.4936 22.0864 14.4807 22.0838 14.4679C22.0812 14.4552 22.0783 14.4424 22.0752 14.4298C22.0719 14.4171 22.0683 14.4046 22.0645 14.3921C22.0607 14.3797 22.0566 14.3673 22.0522 14.355C22.0476 14.3427 22.0429 14.3306 22.0379 14.3186C22.0329 14.3065 22.0275 14.2946 22.0219 14.2828C22.0163 14.2711 22.0105 14.2594 22.0043 14.2479C21.9981 14.2365 21.9916 14.2251 21.9848 14.2139C21.9781 14.2028 21.9711 14.1918 21.9639 14.181C21.9565 14.1701 21.949 14.1595 21.9412 14.149C21.9334 14.1386 21.9254 14.1283 21.917 14.1182C21.9088 14.1082 21.9003 14.0983 21.8915 14.0887C21.8827 14.079 21.8736 14.0696 21.8644 14.0604C21.8552 14.0512 21.8457 14.0422 21.836 14.0335C21.8263 14.0247 21.8164 14.0162 21.8064 14.0079C21.7962 13.9997 21.7859 13.9917 21.7754 13.9839C21.7649 13.9761 21.7543 13.9686 21.7435 13.9614C21.7326 13.9542 21.7216 13.9472 21.7105 13.9405C21.6992 13.9338 21.6878 13.9274 21.6763 13.9213C21.6648 13.9151 21.6532 13.9093 21.6415 13.9037C21.6296 13.8981 21.6177 13.8928 21.6056 13.8878C21.5935 13.8828 21.5814 13.8782 21.5691 13.8738C21.5568 13.8694 21.5444 13.8653 21.532 13.8615C21.5195 13.8577 21.5069 13.8542 21.4943 13.8511C21.4816 13.8479 21.4688 13.845 21.4561 13.8425C21.4432 13.8399 21.4304 13.8377 21.4175 13.8358C21.4047 13.8338 21.3917 13.8322 21.3786 13.8309C21.3656 13.8296 21.3527 13.8287 21.3397 13.828C21.3266 13.8274 21.3136 13.827 21.3006 13.827L21.3006 13.8261ZM21.4085 10.6406L21.4167 10.6406L21.4167 10.6325L21.4085 10.6406ZM7.03423 3.38209L1.2766 3.38209C1.26331 3.38236 1.25003 3.3823 1.23674 3.3819C1.22346 3.38151 1.21019 3.38079 1.19694 3.37974C1.18369 3.37868 1.17048 3.37729 1.1573 3.37558C1.14412 3.37387 1.13099 3.37184 1.11791 3.36947C1.10483 3.36711 1.09182 3.36443 1.07887 3.36142C1.06593 3.35841 1.05306 3.35508 1.04028 3.35142C1.0275 3.34777 1.01482 3.3438 1.00224 3.33953C0.989656 3.33525 0.977187 3.33065 0.964833 3.32575C0.952478 3.32085 0.940253 3.31565 0.928158 3.31013C0.916062 3.30463 0.90411 3.29883 0.892304 3.29273C0.880496 3.28662 0.868848 3.28022 0.857359 3.27355C0.84587 3.26686 0.834554 3.2599 0.823411 3.25266C0.812269 3.24541 0.801313 3.23789 0.790544 3.23011C0.779775 3.22232 0.769206 3.21426 0.758837 3.20594C0.748468 3.19763 0.738313 3.18906 0.72837 3.18024C0.718428 3.17143 0.70871 3.16236 0.699217 3.15306C0.689726 3.14376 0.680471 3.13422 0.671454 3.12446C0.662436 3.11469 0.653666 3.10471 0.645144 3.09452C0.636623 3.08431 0.62836 3.07391 0.620356 3.06329C0.612351 3.05268 0.604616 3.04188 0.597148 3.03089C0.589681 3.01989 0.582492 3.00872 0.57558 2.99736C0.568669 2.98602 0.562044 2.9745 0.555705 2.96282C0.549367 2.95114 0.543322 2.9393 0.537571 2.92732C0.531821 2.91533 0.526372 2.90321 0.521225 2.89097C0.516077 2.87871 0.511236 2.86633 0.506703 2.85384C0.502171 2.84134 0.497952 2.82875 0.494046 2.81605C0.49014 2.80334 0.486551 2.79055 0.483281 2.77767C0.480012 2.76478 0.477065 2.75183 0.474438 2.7388C0.471813 2.72577 0.469513 2.71268 0.467539 2.69954C0.465563 2.68639 0.463915 2.67321 0.462596 2.65999C0.461277 2.64677 0.460287 2.63352 0.459626 2.62024C0.458966 2.60696 0.458636 2.59368 0.458636 2.58039C0.458636 2.5671 0.458966 2.55381 0.459626 2.54054C0.460287 2.52727 0.461277 2.51402 0.462596 2.50079C0.463915 2.48757 0.465563 2.47438 0.467539 2.46125C0.469513 2.4481 0.471813 2.43501 0.474438 2.42199C0.477065 2.40895 0.480012 2.39599 0.483281 2.38312C0.486551 2.37023 0.49014 2.35743 0.494046 2.34474C0.497952 2.33203 0.502171 2.31943 0.506703 2.30693C0.511236 2.29444 0.516077 2.28207 0.521225 2.26982C0.526372 2.25756 0.531821 2.24544 0.537571 2.23345C0.543322 2.22148 0.549367 2.20965 0.555705 2.19797C0.562044 2.18628 0.568669 2.17477 0.57558 2.16341C0.582492 2.15205 0.589681 2.14088 0.597148 2.12988C0.604616 2.11889 0.612351 2.10809 0.620356 2.09748C0.62836 2.08686 0.636623 2.07646 0.645144 2.06627C0.653666 2.05606 0.662436 2.04608 0.671454 2.03632C0.680471 2.02656 0.689726 2.01702 0.699217 2.00772C0.70871 1.99842 0.718428 1.98936 0.72837 1.98053C0.738313 1.97172 0.748468 1.96315 0.758837 1.95483C0.769206 1.94652 0.779775 1.93846 0.790544 1.93068C0.801313 1.92289 0.812269 1.91537 0.823411 1.90812C0.834554 1.90088 0.84587 1.89392 0.857359 1.88723C0.868848 1.88055 0.880496 1.87416 0.892304 1.86806C0.90411 1.86195 0.916062 1.85615 0.928158 1.85064C0.940253 1.84513 0.952478 1.83993 0.964833 1.83503C0.977187 1.83012 0.989656 1.82553 1.00224 1.82125C1.01482 1.81697 1.0275 1.81301 1.04028 1.80936C1.05306 1.80571 1.06593 1.80238 1.07887 1.79937C1.09182 1.79636 1.10483 1.79367 1.11791 1.79131C1.13099 1.78894 1.14412 1.7869 1.1573 1.78519C1.17048 1.78348 1.18369 1.7821 1.19694 1.78105C1.21019 1.77999 1.22346 1.77927 1.23674 1.77888C1.25003 1.77848 1.26331 1.77842 1.2766 1.77869L7.03423 1.77869C7.04753 1.77844 7.06082 1.77853 7.0741 1.77894C7.08738 1.77936 7.10064 1.78011 7.11388 1.78118C7.12713 1.78226 7.14035 1.78366 7.15353 1.78539C7.1667 1.78713 7.17983 1.78918 7.19291 1.79157C7.20598 1.79396 7.21899 1.79666 7.23193 1.7997C7.24487 1.80273 7.25772 1.80608 7.2705 1.80975C7.28327 1.81342 7.29595 1.81741 7.30852 1.82171C7.3211 1.82601 7.33356 1.83062 7.3459 1.83554C7.35825 1.84047 7.37046 1.84569 7.38254 1.85122C7.39463 1.85675 7.40657 1.86257 7.41837 1.86869C7.43016 1.87482 7.4418 1.88123 7.45328 1.88793C7.46476 1.89463 7.47606 1.90161 7.48719 1.90888C7.49832 1.91614 7.50927 1.92367 7.52002 1.93148C7.53078 1.93929 7.54134 1.94736 7.55169 1.95569C7.56204 1.96402 7.57218 1.9726 7.5821 1.98144C7.59204 1.99028 7.60174 1.99935 7.61121 2.00867C7.6207 2.01799 7.62994 2.02754 7.63894 2.03731C7.64793 2.04709 7.65669 2.05708 7.66519 2.0673C7.67369 2.07752 7.68194 2.08794 7.68993 2.09856C7.69792 2.10918 7.70563 2.11999 7.71307 2.131C7.72053 2.14201 7.7277 2.15319 7.73459 2.16456C7.74148 2.17593 7.74809 2.18745 7.75441 2.19913C7.76073 2.21083 7.76675 2.22267 7.77248 2.23467C7.77822 2.24666 7.78365 2.25878 7.78877 2.27104C7.7939 2.28331 7.79872 2.29569 7.80323 2.30818C7.80774 2.32069 7.81194 2.3333 7.81583 2.346C7.81971 2.35871 7.82327 2.37151 7.82652 2.3844C7.82978 2.39729 7.83271 2.41025 7.8353 2.42327C7.8379 2.43631 7.84019 2.4494 7.84215 2.46255C7.8441 2.4757 7.84573 2.48888 7.84702 2.50211C7.84832 2.51534 7.84929 2.52859 7.84993 2.54186C7.85056 2.55513 7.85087 2.56842 7.85086 2.58171C7.85084 2.595 7.85048 2.60827 7.8498 2.62155C7.84912 2.63482 7.84811 2.64807 7.84677 2.6613C7.84543 2.67452 7.84376 2.68771 7.84176 2.70084C7.83977 2.71398 7.83744 2.72706 7.83479 2.74009C7.83215 2.75311 7.82919 2.76606 7.8259 2.77894C7.8226 2.79182 7.81899 2.80461 7.81507 2.8173C7.81115 2.83 7.80691 2.84259 7.80235 2.85507C7.79779 2.86756 7.79293 2.87992 7.78777 2.89217C7.78261 2.90441 7.77714 2.91652 7.77136 2.9285C7.7656 2.94048 7.75954 2.9523 7.75318 2.96397C7.74682 2.97564 7.74018 2.98714 7.73325 2.99848C7.72632 3.00982 7.71911 3.02099 7.71162 3.03197C7.70414 3.04295 7.69639 3.05374 7.68836 3.06434C7.68034 3.07493 7.67207 3.08532 7.66353 3.09552C7.65499 3.1057 7.64621 3.11566 7.63718 3.12541C7.62814 3.13516 7.61888 3.14468 7.60937 3.15398C7.59986 3.16326 7.59013 3.1723 7.58017 3.18111C7.57022 3.18991 7.56005 3.19847 7.54966 3.20677C7.53929 3.21507 7.52871 3.2231 7.51793 3.23087C7.50715 3.23864 7.49618 3.24614 7.48503 3.25337C7.47388 3.26059 7.46255 3.26754 7.45105 3.27421C7.43954 3.28087 7.42788 3.28724 7.41607 3.29332C7.40425 3.29941 7.39229 3.3052 7.38019 3.31069C7.36809 3.31617 7.35586 3.32135 7.34348 3.32624C7.33113 3.33112 7.31865 3.33569 7.30607 3.33995C7.29347 3.34422 7.28079 3.34816 7.26801 3.35179C7.25522 3.35542 7.24236 3.35873 7.22941 3.36172C7.21645 3.36471 7.20344 3.36738 7.19036 3.36972C7.17727 3.37206 7.16414 3.37407 7.15096 3.37576C7.13778 3.37745 7.12456 3.37882 7.11131 3.37986C7.09806 3.38088 7.0848 3.38159 7.07151 3.38197C7.05823 3.38234 7.04494 3.38238 7.03164 3.38209L7.03423 3.38209ZM5.06112 5.85497L1.2766 5.85497C1.26331 5.85523 1.25003 5.85516 1.23674 5.85476C1.22346 5.85437 1.21019 5.85365 1.19694 5.8526C1.18369 5.85155 1.17048 5.85017 1.1573 5.84845C1.14412 5.84674 1.13099 5.84471 1.11791 5.84235C1.10483 5.83998 1.09181 5.83729 1.07887 5.83428C1.06592 5.83127 1.05306 5.82794 1.04028 5.8243C1.0275 5.82065 1.01482 5.81668 1.00224 5.81239C0.989655 5.80812 0.977185 5.80353 0.964831 5.79862C0.952477 5.79372 0.940253 5.78851 0.928156 5.78301C0.916061 5.7775 0.90411 5.77169 0.892302 5.76559C0.880495 5.75949 0.868847 5.75309 0.857358 5.74641C0.845869 5.73973 0.834554 5.73277 0.823411 5.72552C0.812268 5.71828 0.801311 5.71076 0.790542 5.70297C0.779773 5.69518 0.769204 5.68713 0.758835 5.67882C0.748467 5.67051 0.738311 5.66193 0.728369 5.65311C0.718426 5.64429 0.708709 5.63523 0.699217 5.62592C0.689725 5.61662 0.68047 5.60709 0.671452 5.59732C0.662434 5.58757 0.653664 5.57759 0.645143 5.56738C0.636621 5.55719 0.628358 5.54678 0.620354 5.53617C0.61235 5.52556 0.604614 5.51476 0.597147 5.50376C0.589679 5.49277 0.58249 5.48159 0.575579 5.47024C0.568667 5.45888 0.562042 5.44737 0.555704 5.43568C0.549364 5.424 0.543319 5.41217 0.537569 5.4002C0.531819 5.38821 0.526371 5.37609 0.521223 5.36383C0.516074 5.35158 0.511234 5.33921 0.506702 5.32672C0.502169 5.31422 0.49795 5.30162 0.494044 5.28891C0.490138 5.27622 0.48655 5.26342 0.48328 5.25053C0.480009 5.23766 0.477062 5.2247 0.474437 5.21166C0.471811 5.19864 0.469511 5.18555 0.467535 5.1724C0.465561 5.15927 0.463914 5.14608 0.462594 5.13286C0.461275 5.11963 0.460285 5.10638 0.459624 5.09311C0.458963 5.07983 0.458633 5.06655 0.458633 5.05326C0.458633 5.03997 0.458963 5.02669 0.459624 5.0134C0.460285 5.00013 0.461275 4.98688 0.462594 4.97365C0.463914 4.96044 0.465561 4.94726 0.467535 4.93411C0.469511 4.92097 0.471811 4.90788 0.474437 4.89485C0.477062 4.88182 0.480009 4.86887 0.48328 4.85598C0.48655 4.8431 0.490138 4.83031 0.494044 4.8176C0.49795 4.8049 0.502169 4.7923 0.506702 4.77981C0.511235 4.76732 0.516075 4.75494 0.521223 4.74268C0.526371 4.73042 0.531819 4.71831 0.537569 4.70633C0.54332 4.69435 0.549365 4.68251 0.555704 4.67083C0.562042 4.65915 0.568667 4.64763 0.575579 4.63629C0.58249 4.62493 0.589679 4.61376 0.597147 4.60276C0.604614 4.59177 0.61235 4.58097 0.620354 4.57035C0.628358 4.55974 0.636621 4.54933 0.645143 4.53913C0.653664 4.52894 0.662434 4.51896 0.671452 4.50919C0.68047 4.49942 0.689725 4.48989 0.699217 4.48059C0.708709 4.47128 0.718426 4.46222 0.728369 4.4534C0.738311 4.44459 0.748467 4.43602 0.758835 4.42771C0.769204 4.41939 0.779773 4.41133 0.790542 4.40354C0.801311 4.39576 0.812268 4.38824 0.823411 4.38099C0.834554 4.37375 0.845869 4.36679 0.857358 4.3601C0.868847 4.35343 0.880495 4.34703 0.892302 4.34092C0.90411 4.33482 0.916061 4.32902 0.928156 4.32352C0.940253 4.318 0.952477 4.3128 0.964831 4.3079C0.977185 4.303 0.989655 4.2984 1.00224 4.29412C1.01482 4.28984 1.0275 4.28588 1.04028 4.28223C1.05306 4.27857 1.06592 4.27524 1.07887 4.27223C1.09181 4.26922 1.10483 4.26654 1.11791 4.26418C1.13099 4.26181 1.14412 4.25978 1.1573 4.25807C1.17048 4.25636 1.18369 4.25497 1.19694 4.25391C1.21019 4.25286 1.22346 4.25214 1.23674 4.25175C1.25003 4.25135 1.26331 4.25129 1.2766 4.25156L5.06112 4.25156C5.0744 4.25129 5.08769 4.25135 5.10097 4.25175C5.11425 4.25214 5.12752 4.25286 5.14077 4.25391C5.15402 4.25497 5.16724 4.25636 5.18042 4.25807C5.1936 4.25978 5.20673 4.26181 5.21981 4.26418C5.23289 4.26654 5.24591 4.26922 5.25885 4.27223C5.2718 4.27524 5.28466 4.27857 5.29743 4.28223C5.31021 4.28588 5.32289 4.28984 5.33548 4.29412C5.34806 4.2984 5.36053 4.303 5.37289 4.3079C5.38524 4.3128 5.39746 4.318 5.40956 4.32352C5.42165 4.32902 5.4336 4.33482 5.44541 4.34092C5.45722 4.34703 5.46887 4.35343 5.48035 4.3601C5.49184 4.36679 5.50316 4.37375 5.5143 4.38099C5.52545 4.38824 5.53641 4.39576 5.54718 4.40354C5.55795 4.41133 5.56852 4.41939 5.57888 4.42771C5.58924 4.43602 5.5994 4.44459 5.60934 4.4534C5.61929 4.46222 5.62901 4.47128 5.63851 4.48059C5.64799 4.48989 5.65724 4.49942 5.66626 4.50919C5.67528 4.51896 5.68406 4.52894 5.69258 4.53913C5.7011 4.54933 5.70936 4.55974 5.71736 4.57035C5.72537 4.58097 5.7331 4.59177 5.74057 4.60276C5.74803 4.61376 5.75522 4.62493 5.76214 4.63629C5.76905 4.64763 5.77567 4.65915 5.78201 4.67083C5.78835 4.68251 5.79439 4.69435 5.80014 4.70633C5.80589 4.71831 5.81135 4.73042 5.8165 4.74268C5.82164 4.75494 5.82648 4.76732 5.83101 4.77981C5.83555 4.7923 5.83976 4.8049 5.84366 4.8176C5.84758 4.83031 5.85117 4.8431 5.85444 4.85598C5.85771 4.86887 5.86066 4.88182 5.86329 4.89485C5.8659 4.90788 5.8682 4.92097 5.87019 4.93411C5.87216 4.94726 5.87381 4.96044 5.87513 4.97365C5.87645 4.98688 5.87743 5.00013 5.87809 5.0134C5.87875 5.02669 5.87908 5.03997 5.87908 5.05326C5.87908 5.06655 5.87875 5.07983 5.87809 5.09311C5.87743 5.10638 5.87645 5.11963 5.87513 5.13286C5.87381 5.14608 5.87216 5.15927 5.87019 5.1724C5.8682 5.18555 5.8659 5.19864 5.86329 5.21166C5.86066 5.2247 5.85771 5.23766 5.85444 5.25053C5.85117 5.26342 5.84758 5.27622 5.84366 5.28891C5.83976 5.30162 5.83555 5.31422 5.83101 5.32672C5.82648 5.33921 5.82164 5.35158 5.8165 5.36383C5.81135 5.37609 5.80589 5.38821 5.80014 5.4002C5.79439 5.41217 5.78835 5.424 5.78201 5.43568C5.77567 5.44737 5.76905 5.45888 5.76214 5.47024C5.75522 5.48159 5.74803 5.49277 5.74057 5.50376C5.7331 5.51476 5.72537 5.52556 5.71736 5.53617C5.70936 5.54678 5.7011 5.55719 5.69258 5.56738C5.68406 5.57759 5.67528 5.58757 5.66626 5.59732C5.65724 5.60709 5.64799 5.61662 5.63851 5.62592C5.62901 5.63523 5.61929 5.64429 5.60934 5.65312C5.5994 5.66194 5.58924 5.67051 5.57888 5.67882C5.56852 5.68713 5.55795 5.69518 5.54718 5.70297C5.53641 5.71076 5.52545 5.71828 5.5143 5.72552C5.50316 5.73277 5.49184 5.73973 5.48035 5.74641C5.46887 5.75309 5.45722 5.75949 5.44541 5.76559C5.4336 5.77169 5.42165 5.7775 5.40956 5.78301C5.39746 5.78851 5.38524 5.79372 5.37289 5.79862C5.36053 5.80353 5.34806 5.80812 5.33548 5.81239C5.32289 5.81668 5.31021 5.82065 5.29743 5.8243C5.28466 5.82794 5.2718 5.83127 5.25885 5.83428C5.24591 5.83729 5.23289 5.83998 5.21981 5.84235C5.20673 5.84471 5.1936 5.84674 5.18042 5.84845C5.16724 5.85017 5.15402 5.85155 5.14077 5.8526C5.12752 5.85366 5.11425 5.85438 5.10097 5.85476C5.08769 5.85516 5.0744 5.85523 5.06112 5.85497ZM3.04044 8.32524L1.2766 8.32524C1.26348 8.32524 1.25036 8.32492 1.23726 8.32428C1.22415 8.32363 1.21107 8.32267 1.19801 8.32138C1.18495 8.3201 1.17193 8.31849 1.15894 8.31656C1.14596 8.31464 1.13304 8.31239 1.12017 8.30983C1.1073 8.30727 1.09449 8.3044 1.08176 8.30122C1.06903 8.29803 1.05639 8.29453 1.04383 8.29072C1.03127 8.28691 1.01882 8.28279 1.00646 8.27837C0.994106 8.27395 0.981866 8.26923 0.969741 8.26421C0.957618 8.25918 0.945624 8.25387 0.93376 8.24826C0.921897 8.24265 0.910179 8.23675 0.898606 8.23057C0.887033 8.22438 0.875618 8.21791 0.864362 8.21117C0.853106 8.20441 0.842022 8.19739 0.831111 8.19011C0.820199 8.18281 0.809472 8.17526 0.798932 8.16744C0.788392 8.15963 0.77805 8.15156 0.767905 8.14324C0.757761 8.1349 0.747827 8.12633 0.738103 8.11753C0.728379 8.10871 0.718878 8.09966 0.709598 8.09038C0.700319 8.0811 0.691273 8.0716 0.68246 8.06188C0.673647 8.05216 0.665078 8.04222 0.656753 8.03207C0.648427 8.02194 0.640356 8.01159 0.632539 8.00105C0.624721 7.99051 0.617167 7.97978 0.609877 7.96888C0.602585 7.95796 0.595566 7.94688 0.58882 7.93563C0.582073 7.92437 0.575607 7.91295 0.569422 7.90137C0.563235 7.8898 0.557337 7.87809 0.551725 7.86622C0.546114 7.85436 0.540798 7.84237 0.535776 7.83025C0.530754 7.81812 0.526032 7.80588 0.521612 7.79352C0.51719 7.78116 0.513075 7.7687 0.509266 7.75614C0.505457 7.74359 0.501957 7.73095 0.498768 7.71822C0.495581 7.70549 0.492706 7.69269 0.490145 7.67982C0.487586 7.66694 0.485343 7.65402 0.483417 7.64104C0.481492 7.62806 0.479886 7.61504 0.478599 7.60198C0.477313 7.58892 0.476347 7.57584 0.475703 7.56272C0.47506 7.54962 0.474738 7.5365 0.474738 7.52338C0.474738 7.51026 0.47506 7.49715 0.475703 7.48403C0.476347 7.47093 0.477313 7.45785 0.478599 7.44479C0.479886 7.43173 0.481492 7.41871 0.483417 7.40572C0.485343 7.39274 0.487586 7.37982 0.490145 7.36695C0.492706 7.35407 0.495581 7.34127 0.498768 7.32854C0.501957 7.31582 0.505457 7.30317 0.509266 7.29061C0.513075 7.27805 0.51719 7.2656 0.521612 7.25325C0.526032 7.24089 0.530754 7.22865 0.535776 7.21653C0.540798 7.2044 0.546114 7.19241 0.551725 7.18055C0.557337 7.16868 0.563235 7.15696 0.569422 7.14538C0.575608 7.13381 0.582074 7.1224 0.58882 7.11115C0.595566 7.09988 0.602585 7.0888 0.609877 7.07789C0.617167 7.06698 0.624721 7.05625 0.632539 7.04572C0.640356 7.03518 0.648427 7.02483 0.656753 7.01468C0.665078 7.00454 0.673647 6.99461 0.68246 6.98488C0.691273 6.97516 0.700319 6.96566 0.709598 6.95638C0.718878 6.94709 0.728379 6.93805 0.738103 6.92924C0.747827 6.92043 0.757761 6.91186 0.767905 6.90353C0.77805 6.89521 0.788392 6.88714 0.798932 6.87931C0.809472 6.8715 0.820199 6.86395 0.831111 6.85666C0.842022 6.84937 0.853106 6.84235 0.864362 6.8356C0.875617 6.82886 0.887032 6.82239 0.898606 6.8162C0.910179 6.81001 0.921897 6.80411 0.93376 6.79851C0.945624 6.79289 0.957618 6.78758 0.969741 6.78256C0.981866 6.77753 0.994106 6.7728 1.00646 6.76838C1.01882 6.76396 1.03127 6.75985 1.04383 6.75605C1.05639 6.75224 1.06903 6.74874 1.08176 6.74555C1.09449 6.74236 1.1073 6.73948 1.12017 6.73692C1.13304 6.73436 1.14596 6.73212 1.15894 6.73019C1.17193 6.72827 1.18495 6.72667 1.19801 6.72539C1.21107 6.72409 1.22415 6.72312 1.23726 6.72248C1.25036 6.72183 1.26348 6.72151 1.2766 6.72151L3.04044 6.72151C3.05357 6.72151 3.06668 6.72183 3.07978 6.72248C3.0929 6.72312 3.10598 6.72409 3.11904 6.72539C3.1321 6.72667 3.14512 6.72827 3.1581 6.73019C3.17108 6.73212 3.18401 6.73436 3.19688 6.73692C3.20975 6.73948 3.22255 6.74236 3.23528 6.74555C3.24801 6.74874 3.26065 6.75224 3.2732 6.75605C3.28577 6.75985 3.29823 6.76396 3.31059 6.76838C3.32293 6.7728 3.33517 6.77753 3.34731 6.78256C3.35943 6.78758 3.37142 6.79289 3.38329 6.79851C3.39515 6.80411 3.40687 6.81001 3.41844 6.8162C3.43002 6.82239 3.44143 6.82886 3.45269 6.8356C3.46394 6.84235 3.47502 6.84937 3.48593 6.85666C3.49684 6.86395 3.50757 6.8715 3.51811 6.87931C3.52866 6.88714 3.539 6.89521 3.54914 6.90353C3.55928 6.91186 3.56922 6.92043 3.57894 6.92924C3.58866 6.93805 3.59816 6.94709 3.60744 6.95638C3.61672 6.96566 3.62577 6.97516 3.63459 6.98488C3.6434 6.99461 3.65196 7.00454 3.66028 7.01468C3.66862 7.02483 3.67669 7.03518 3.68451 7.04572C3.69232 7.05625 3.69988 7.06698 3.70717 7.07789C3.71446 7.0888 3.72148 7.09988 3.72823 7.11115C3.73497 7.1224 3.74144 7.13381 3.74763 7.14538C3.75381 7.15696 3.75971 7.16868 3.76532 7.18055C3.77093 7.19241 3.77625 7.2044 3.78127 7.21653C3.78629 7.22865 3.79101 7.24089 3.79543 7.25325C3.79985 7.2656 3.80397 7.27805 3.80778 7.29061C3.81159 7.30317 3.81509 7.31582 3.81827 7.32854C3.82146 7.34127 3.82433 7.35407 3.82689 7.36695C3.82945 7.37982 3.8317 7.39274 3.83363 7.40572C3.83555 7.41871 3.83716 7.43173 3.83845 7.44479C3.83973 7.45785 3.8407 7.47093 3.84134 7.48403C3.84198 7.49715 3.8423 7.51026 3.8423 7.52338C3.8423 7.5365 3.84198 7.54962 3.84134 7.56272C3.8407 7.57584 3.83973 7.58892 3.83845 7.60198C3.83716 7.61504 3.83555 7.62806 3.83363 7.64104C3.8317 7.65402 3.82945 7.66694 3.82689 7.67982C3.82433 7.69269 3.82146 7.70549 3.81827 7.71822C3.81509 7.73095 3.81159 7.74359 3.80778 7.75614C3.80397 7.7687 3.79985 7.78116 3.79543 7.79352C3.79101 7.80588 3.78629 7.81812 3.78127 7.83025C3.77625 7.84237 3.77093 7.85436 3.76532 7.86622C3.75971 7.87809 3.75381 7.8898 3.74763 7.90137C3.74144 7.91295 3.73497 7.92437 3.72823 7.93563C3.72148 7.94688 3.71446 7.95796 3.70717 7.96888C3.69988 7.97978 3.69232 7.99051 3.68451 8.00105C3.67669 8.01159 3.66862 8.02194 3.66028 8.03207C3.65196 8.04222 3.6434 8.05216 3.63459 8.06188C3.62577 8.0716 3.61672 8.0811 3.60744 8.09038C3.59816 8.09966 3.58866 8.10871 3.57894 8.11753C3.56922 8.12633 3.55928 8.1349 3.54914 8.14324C3.539 8.15156 3.52866 8.15963 3.51811 8.16744C3.50757 8.17526 3.49685 8.18281 3.48594 8.19011C3.47503 8.19739 3.46394 8.20441 3.45269 8.21117C3.44143 8.21791 3.43002 8.22438 3.41844 8.23057C3.40687 8.23675 3.39515 8.24265 3.38329 8.24826C3.37142 8.25387 3.35943 8.25918 3.34731 8.26421C3.33517 8.26923 3.32293 8.27395 3.31059 8.27837C3.29823 8.28279 3.28577 8.28691 3.2732 8.29072C3.26065 8.29453 3.24801 8.29803 3.23528 8.30122C3.22255 8.3044 3.20975 8.30727 3.19688 8.30983C3.18401 8.31239 3.17108 8.31464 3.1581 8.31656C3.14512 8.31849 3.1321 8.3201 3.11904 8.32138C3.10598 8.32267 3.0929 8.32363 3.07978 8.32428C3.06668 8.32492 3.05357 8.32524 3.04044 8.32524Z" stroke="rgba(11, 132, 240, 1)" stroke-width="0.2"    fill-rule="evenodd"  fill="#0B84F0" >
</path>
</svg>
