<svg xmlns="http://www.w3.org/2000/svg" xmlns:xlink="http://www.w3.org/1999/xlink" width="70" height="70" viewBox="0 0 70 70" fill="none">
<path     fill="#CEE5FF"  d="M12.0368 59.5937L56.9769 59.5937C57.4969 59.5937 57.8669 59.0737 57.6969 58.5837L56.5569 55.3037C55.7069 52.8537 53.3969 51.2037 50.7969 51.2037L18.8868 51.2037C16.6368 51.2037 14.5668 52.4537 13.5068 54.4437L11.3668 58.4737C11.0968 58.9837 11.4668 59.5937 12.0368 59.5937Z">
</path>
<rect  x="8.860595703125" y="58.44769287109375" width="51.08929443359375" height="5.718951225280762" rx="3.8126361655773406"    fill="#95B9F1" >
</rect>
<path     fill="url(#linear_0)"  d="M18.0109 53.8751L51.5609 53.8751L51.5609 38.2451C51.5609 28.9851 44.0509 21.4651 34.7909 21.4651L34.7909 21.4651C25.5209 21.4651 18.0109 28.9751 18.0109 38.2451L18.0109 53.8751Z">
</path>
<g opacity="0.4">
<path   fill="url(#linear_1)"  d="M21.366 50.4452L48.2059 50.4452L48.2059 51.0171L47.634 51.0171L47.634 38.5071C47.634 31.4113 41.8817 25.6591 34.7859 25.6591C27.6901 25.6591 21.9379 31.4113 21.9379 38.5071L21.9379 51.0171L21.366 51.0171L21.366 50.4452ZM20.7941 51.589L20.7941 38.5071C20.7941 30.7796 27.0584 24.5153 34.7859 24.5153C42.5134 24.5153 48.7778 30.7796 48.7778 38.5071L48.7778 51.589L21.366 51.589L20.7941 51.589Z">
</path>
</g>
<path d="M32.5939 43.7806C32.4739 44.2306 33.0439 44.5406 33.3539 44.1906L39.6339 36.9006C39.8839 36.6106 39.6839 36.1606 39.3039 36.1606L36.7439 36.1606L38.1039 32.7506C38.2239 32.4606 38.0039 32.1406 37.6939 32.1406L33.7539 32.1406C33.5639 32.1406 33.4039 32.2506 33.3439 32.4306L31.0039 38.6806C30.8939 38.9706 31.1039 39.2806 31.4139 39.2806L33.7639 39.2806L32.5939 43.7806Z"   fill="#FFFFFF" >
</path>
<rect  x="33.642578125" y="5.83331298828125" width="3.431396484375" height="11.43798828125" rx="1.5250544662309364"    fill="#CEE5FF" >
</rect>
<rect  x="16.1046142578125" y="37.096923828125" width="3.431396484375" height="11.43798828125" transform="rotate(90 16.1046142578125 37.096923828125)" rx="1.5250544662309364"    fill="#CEE5FF" >
</rect>
<rect  x="66.050048828125" y="37.096923828125" width="3.431396484375" height="11.43798828125" transform="rotate(90 66.050048828125 37.096923828125)" rx="1.5250544662309364"    fill="#CEE5FF" >
</rect>
<rect  x="10.0042724609375" y="18.172607421875" width="3.431349515914917" height="11.43783187866211" transform="rotate(-45 10.0042724609375 18.172607421875)" rx="1.5250544662309364"    fill="#CEE5FF" >
</rect>
<rect  transform="matrix(-0.7071026563644409, -0.7071026563644409, -0.7071025371551514, 0.7071025371551514, 59.407470703125, 18.172607421875)" x="0" y="0" width="3.4313926696777344" height="11.437975883483887" rx="1.5250544662309364"    fill="#CEE5FF" >
</rect>
<defs>
<linearGradient id="linear_0" x1="16.7455727044232%" y1="7.201413368524061%" x2="94.77024117528062%" y2="89.53970604154733%" gradientUnits="objectBoundingBox">
<stop offset="0" stop-color="#0E79ED"  />
<stop offset="1" stop-color="#02A3FA"  />
</linearGradient>
<linearGradient id="linear_1" x1="-39.558085000535435%" y1="-40.35162847016126%" x2="97.95990292942308%" y2="97.87274032884807%" gradientUnits="objectBoundingBox">
<stop offset="0" stop-color="#FFFFFF"  />
<stop offset="0.5658687699020551" stop-color="#FFFFFF" stop-opacity="0" />
<stop offset="1" stop-color="#FFFFFF" stop-opacity="0" />
</linearGradient>
</defs>
</svg>
