<svg xmlns="http://www.w3.org/2000/svg" xmlns:xlink="http://www.w3.org/1999/xlink" width="24" height="24" viewBox="0 0 24 24" fill="none">
<path d="M16.5718 20.4858C18.5918 20.4758 20.3918 18.8358 20.4618 16.8058C20.5318 14.9258 20.4818 13.0458 20.4718 11.1658C20.4718 10.7058 20.0818 10.4258 19.6318 10.5358C19.3218 10.6158 19.1518 10.8658 19.1518 11.2758C19.1518 12.9958 19.1518 14.7058 19.1518 16.4158C19.1518 18.0158 18.0118 19.1658 16.4218 19.1658C13.4719 19.1658 10.5219 19.1658 7.57191 19.1658C5.98193 19.1658 4.83194 18.0158 4.83194 16.4258C4.83194 13.4758 4.83194 10.5258 4.83194 7.57584C4.83194 5.99585 5.98193 4.84585 7.57191 4.83585C8.8719 4.83585 10.1619 4.83585 11.4519 4.83585C12.0319 4.83585 12.3319 4.59585 12.3219 4.16586C12.3219 3.73586 12.0219 3.50586 11.4719 3.50586C10.1919 3.50586 8.9019 3.50586 7.62191 3.50586C5.22194 3.51586 3.50195 5.22585 3.50195 7.61584C3.50195 10.5658 3.50195 13.5258 3.50195 16.4758C3.50195 18.7258 5.26194 20.4958 7.51191 20.4958C8.9919 20.4958 10.4819 20.4958 11.9619 20.4958C13.5019 20.4958 15.0318 20.4958 16.5718 20.4858Z" stroke="rgba(11, 132, 240, 1)" stroke-width="0.2"      fill="#0B84F0" >
</path>
<path d="M8.8416 15.319C8.8416 15.9624 8.85487 16.5594 8.83497 17.1563C8.81507 17.7002 8.29108 18.0319 7.86657 17.7466C7.70075 17.6339 7.53493 17.3818 7.5283 17.1895C7.5084 15.5512 7.48187 13.9195 7.54156 12.2811C7.58799 11.001 8.68905 9.95963 9.94929 9.88004C11.2891 9.79381 12.4764 10.6428 12.7749 11.8964C13.206 13.7138 11.9657 15.2991 10.1018 15.3124C9.70387 15.319 9.29927 15.319 8.8416 15.319ZM8.84824 14.0256C9.45183 13.9858 10.0289 14.0123 10.586 13.9062C11.2692 13.7669 11.6407 13.0705 11.5213 12.3342C11.4218 11.6776 10.785 11.1801 10.0886 11.2132C9.43193 11.2398 8.89467 11.7638 8.85487 12.4536C8.82834 12.9444 8.84824 13.4419 8.84824 14.0256Z" stroke="rgba(11, 132, 240, 1)" stroke-width="0.2"    fill-rule="evenodd"  fill="#0B84F0" >
</path>
<path d="M19.6488 4.83422C20.0788 4.83422 20.3589 4.56421 20.3589 4.17419C20.3489 3.78417 20.0788 3.51416 19.6388 3.51416C18.9088 3.51416 18.1788 3.51416 17.4487 3.51416C17.0187 3.51416 16.7587 3.75417 16.7487 4.18419C16.7287 4.64421 16.7187 5.11423 16.7587 5.57425C16.8087 6.38429 17.4287 6.94431 18.2488 6.96431C18.3888 6.97432 18.5388 6.96431 18.6788 6.98432C18.9788 7.04432 19.1988 7.32433 19.1588 7.53434C19.0988 7.79435 18.7788 7.95436 18.4588 7.85435C18.1388 7.75435 17.8388 7.62434 17.5287 7.52434C17.2087 7.42434 16.8887 7.58434 16.7487 7.87436C16.5987 8.16437 16.6887 8.58439 16.9887 8.70439C17.5087 8.9144 18.0388 9.13441 18.5888 9.19441C19.5588 9.29442 20.4489 8.46438 20.4889 7.53434C20.5289 6.5543 19.6688 5.66426 18.6288 5.64426C18.0488 5.63426 18.0588 5.64426 18.0688 5.03423C18.0688 4.98423 18.0788 4.93422 18.0888 4.83422C18.6088 4.83422 19.1188 4.84422 19.6488 4.83422Z" stroke="rgba(11, 132, 240, 1)" stroke-width="0.2"      fill="#0B84F0" >
</path>
<path d="M14.6813 5.83563C14.6813 6.67554 14.6813 7.51546 14.6813 8.35538C14.6913 8.51536 14.7013 8.68534 14.7613 8.83533C14.8613 9.1153 15.1813 9.26529 15.4613 9.20529C15.7912 9.1553 16.0012 8.89532 16.0012 8.48536C16.0112 7.1555 16.0012 5.81563 16.0012 4.48576C16.0012 4.41577 16.0012 4.34578 15.9812 4.28578C15.8812 3.63585 15.1613 3.28588 14.6214 3.65584C14.3214 3.86582 14.0314 4.1358 13.8214 4.44577C13.7114 4.60575 13.7014 4.93572 13.7914 5.1157C13.8714 5.27568 14.1314 5.36567 14.3314 5.45567C14.4114 5.48566 14.5314 5.44567 14.6813 5.43567C14.6813 5.59565 14.6813 5.71564 14.6813 5.83563Z" stroke="rgba(11, 132, 240, 1)" stroke-width="0.2"      fill="#0B84F0" >
</path>
</svg>
