<svg xmlns="http://www.w3.org/2000/svg" xmlns:xlink="http://www.w3.org/1999/xlink" width="24" height="24" viewBox="0 0 24 24" fill="none">
<path d="M16.5526 20.5026C16.5726 20.5026 16.5926 20.5026 16.6126 20.5026C18.4826 20.4826 20.1626 19.0226 20.4326 17.1726C20.4726 16.9226 20.4926 16.6626 20.4926 16.4126C20.4926 14.6526 20.4926 12.9026 20.4926 11.1425C20.4926 10.8525 20.4026 10.5825 20.1226 10.5025C19.9226 10.4425 19.6126 10.4525 19.4526 10.5625C19.2926 10.6725 19.1826 10.9625 19.1826 11.1825C19.1626 12.9026 19.1726 14.6326 19.1726 16.3526C19.1726 18.0526 18.0426 19.1726 16.3326 19.1726C13.4326 19.1726 10.5425 19.1726 7.64249 19.1726C5.96247 19.1726 4.83246 18.0426 4.83246 16.3726C4.83246 13.4626 4.83246 10.5525 4.83246 7.64249C4.83246 5.96247 5.96247 4.83246 7.63249 4.83246C9.01251 4.83246 10.3725 4.83246 11.7525 4.83246C12.2525 4.83246 12.5325 4.52245 12.4725 4.06245C12.4225 3.70244 12.1725 3.50244 11.7325 3.50244C10.3325 3.50244 8.9325 3.50244 7.52249 3.50244C5.27246 3.51244 3.50244 5.27246 3.50244 7.52249C3.50244 10.5125 3.50244 13.4926 3.50244 16.4826C3.50244 18.7326 5.27246 20.4926 7.51249 20.4926C9.01251 20.4926 10.5025 20.4926 11.9925 20.4926C13.5126 20.4926 15.0326 20.4926 16.5526 20.5026Z" stroke="rgba(11, 132, 240, 1)" stroke-width="0.2"      fill="#0B84F0" >
</path>
<path d="M8.84709 10.8116C8.84709 10.1816 8.61709 9.87158 8.16709 9.88158C7.72709 9.89158 7.51709 10.1816 7.51709 10.8116C7.51709 12.8416 7.51709 14.8716 7.51709 16.9116C7.51709 17.0216 7.51709 17.1416 7.52709 17.2416C7.57709 17.6016 7.82709 17.8316 8.16709 17.8416C8.52709 17.8516 8.81709 17.6116 8.82709 17.2416C8.85709 16.6116 8.84709 15.9816 8.84709 15.3516C8.84709 15.1116 8.84709 14.8716 8.84709 14.5916C9.11709 14.5916 9.33709 14.5916 9.5771 14.5916C10.4971 14.5916 11.0271 15.1116 11.0371 16.0516C11.0471 16.4316 11.0371 16.8216 11.0571 17.2116C11.0771 17.5816 11.3471 17.8316 11.6871 17.8416C12.0471 17.8516 12.3371 17.6016 12.3571 17.2416C12.3871 16.0516 12.5371 14.8416 11.4671 13.9316C11.8971 13.5116 12.2371 13.0616 12.2971 12.5016C12.3571 11.8116 12.3571 11.1016 12.3271 10.4116C12.3171 10.2516 12.1271 10.0416 11.9671 9.95158C11.5271 9.71158 11.0571 10.0316 11.0371 10.5716C11.0171 11.0616 11.0471 11.5516 11.0171 12.0316C10.9771 12.6616 10.5371 13.1516 9.9271 13.2316C9.58709 13.2816 9.22709 13.2416 8.84709 13.2416C8.84709 12.4216 8.84709 11.6216 8.84709 10.8116Z" stroke="rgba(11, 132, 240, 1)" stroke-width="0.2"      fill="#0B84F0" >
</path>
<path d="M19.1357 7.16496C17.7223 7.51664 16.3952 6.236 16.8664 4.7762C17.1318 3.9534 17.9811 3.4093 18.8238 3.5221C19.786 3.64817 20.4561 4.35153 20.4827 5.28713C20.5026 6.01703 20.5026 6.74692 20.4827 7.47682C20.4495 8.5584 19.4011 9.39447 18.3262 9.18877C17.9612 9.12241 17.6029 8.9897 17.2645 8.83045C16.9194 8.6712 16.8199 8.31289 16.9593 7.98775C17.1052 7.65598 17.4569 7.51 17.8152 7.63607C18.0143 7.70243 18.2001 7.80196 18.4058 7.84841C18.9101 7.98112 19.1888 7.7157 19.1357 7.16496ZM19.1622 5.35348C19.1556 5.06816 18.9167 4.83592 18.6314 4.83592C18.3461 4.83592 18.1072 5.07479 18.1072 5.36012C18.1006 5.65871 18.3527 5.90422 18.6513 5.89095C18.9433 5.87768 19.1689 5.63881 19.1622 5.35348Z" stroke="rgba(11, 132, 240, 1)" stroke-width="0.2"    fill-rule="evenodd"  fill="#0B84F0" >
</path>
<path d="M14.7908 5.76759C14.7908 6.67761 14.7808 7.60762 14.7908 8.51763C14.7908 8.93764 15.0808 9.21765 15.4708 9.21765C15.8308 9.20765 16.1108 8.92764 16.1108 8.51763C16.1208 7.14761 16.1208 5.77759 16.1108 4.40757C16.1108 4.02757 15.9108 3.74756 15.5808 3.58756C15.2308 3.42756 14.9008 3.47756 14.6208 3.71756C14.3808 3.91756 14.1608 4.13757 13.9508 4.36757C13.7708 4.57757 13.7308 4.82758 13.8508 5.07758C13.9808 5.35759 14.2008 5.46759 14.5008 5.45759C14.5808 5.44759 14.6708 5.42759 14.7808 5.41759C14.7808 5.53759 14.7808 5.64759 14.7908 5.76759Z" stroke="rgba(11, 132, 240, 1)" stroke-width="0.2"      fill="#0B84F0" >
</path>
</svg>
