<svg xmlns="http://www.w3.org/2000/svg" xmlns:xlink="http://www.w3.org/1999/xlink" width="24" height="24" viewBox="0 0 24 24" fill="none">
<path d="M20.46 16.8098C20.41 18.8298 18.59 20.4798 16.57 20.4898L7.51 20.4898C5.26 20.4898 3.5 18.7198 3.5 16.4798L3.5 7.51977C3.5 5.26977 5.26 3.50977 7.52 3.50977L14.48 3.50977C15.09 3.50977 15.42 4.02977 15.15 4.50977C14.99 4.77977 14.73 4.83977 14.44 4.83977C12.9404 4.8331 11.4452 4.83532 9.94852 4.83754C9.19963 4.83865 8.45037 4.83977 7.7 4.83977C5.93 4.83977 4.83 5.93977 4.83 7.69977L4.83 16.3598C4.83 18.0298 5.95 19.1598 7.63 19.1598L16.35 19.1598C18.02 19.1598 19.15 18.0298 19.15 16.3598L19.15 10.1598C19.15 9.73977 19.32 9.48977 19.63 9.40977C20.08 9.29977 20.47 9.57977 20.48 10.0398C20.48 10.7048 20.4843 11.369 20.4887 12.0329L20.4887 12.0332C20.499 13.6251 20.5094 15.2149 20.46 16.8098ZM17.0718 8.06977C16.8018 8.52977 16.8618 8.90977 17.2319 9.12977C17.5919 9.32977 17.9419 9.18977 18.212 8.74977C18.882 7.67977 19.5521 6.61977 20.2222 5.55977C20.5022 5.10977 20.5922 4.65977 20.3322 4.18977C20.0822 3.71977 19.6521 3.50977 19.1321 3.50977L17.3419 3.50977C16.8618 3.51977 16.5618 3.76977 16.5718 4.17977C16.5818 4.58977 16.8618 4.83977 17.3519 4.83977L19.042 4.83977C18.372 5.93977 17.7219 6.99977 17.0718 8.06977ZM9.2507 12.9097C9.1407 12.5597 9.0207 12.2097 8.9007 11.8597C8.8907 11.8597 8.8607 11.8597 8.8407 11.8697L8.8407 16.8497C8.8407 16.9697 8.8407 17.0697 8.8307 17.1797C8.8007 17.5797 8.5407 17.8297 8.1707 17.8297C7.8107 17.8297 7.5507 17.5797 7.5207 17.1797C7.5107 17.0297 7.5107 16.8697 7.5107 16.7197L7.5107 11.3797C7.5107 10.9397 7.5907 10.5197 7.9407 10.2097C8.6407 9.55967 9.6807 9.87967 9.9907 10.8297C10.4407 12.2097 10.8807 13.5997 11.3307 14.9797C11.4207 15.2697 11.5107 15.5597 11.6807 15.8497C11.6807 15.7397 11.6907 15.6297 11.6907 15.5197L11.6907 10.7097C11.6907 10.2397 11.8207 10.0297 12.1407 9.91967C12.5307 9.77966 12.9207 10.0097 12.9907 10.4097C13.0107 10.5097 13.0107 10.6097 13.0107 10.7097L13.0107 16.3797C13.0107 16.8197 12.9107 17.2197 12.5707 17.5197C11.8607 18.1497 10.8407 17.8297 10.5207 16.8697C10.0907 15.5497 9.6707 14.2297 9.2507 12.9097Z" stroke="rgba(11, 132, 240, 1)" stroke-width="0.2"    fill-rule="evenodd"  fill="#0B84F0" >
</path>
</svg>
