<svg xmlns="http://www.w3.org/2000/svg" xmlns:xlink="http://www.w3.org/1999/xlink" width="70" height="70" viewBox="0 0 70 70" fill="none">
<rect x="16.041656494140625" y="21.58331298828125" width="5.366668701171875" height="40.25001525878906"   fill="#9CB0C8" >
</rect>
<rect x="48.625030517578125" y="21.58331298828125" width="5.366668701171875" height="40.25001525878906"   fill="#9CB0C8" >
</rect>
<rect x="16.041656494140625" y="21.58331298828125" width="37.950042724609375" height="23.00002670288086"   fill="#95B9F1" >
</rect>
<rect  x="9.333343505859375" y="8.16668701171875" width="51.36669921875" height="13.416674613952637" rx="2.3000000000000003"    fill="url(#linear_0)" >
</rect>
<rect  x="9.333343505859375" y="26.949951171875" width="51.36669921875" height="13.416674613952637" rx="2.3000000000000003"    fill="#CEE5FF" >
</rect>
<rect  x="9.333343505859375" y="44.58343505859375" width="51.36669921875" height="13.416674613952637" rx="2.3000000000000003"    fill="#CEE5FF" >
</rect>
<circle cx="40.38336181640625" cy="15.066558837890625" r="1.149993896484375"   fill="#ABCBFF" >
</circle>
<circle cx="40.38336181640625" cy="33.850006103515625" r="1.149993896484375"   fill="#ABCBFF" >
</circle>
<circle cx="40.38336181640625" cy="51.483306884765625" r="1.149993896484375"   fill="#ABCBFF" >
</circle>
<circle cx="45.75004577636719" cy="15.066665649414062" r="1.5333404541015625"   fill="#166AFA" >
</circle>
<circle cx="45.75004577636719" cy="33.84992980957031" r="1.5333404541015625"   fill="#3F85FC" >
</circle>
<circle cx="45.75004577636719" cy="51.48329162597656" r="1.5333404541015625"   fill="#3F85FC" >
</circle>
<circle cx="52.26664733886719" cy="15.066635131835938" r="2.6833343505859375"   fill="#005BE3" >
</circle>
<circle cx="52.26664733886719" cy="33.85008239746094" r="2.6833343505859375"   fill="#216EE0" >
</circle>
<circle cx="52.26664733886719" cy="51.48338317871094" r="2.6833343505859375"   fill="#216EE0" >
</circle>
<rect  x="13.741668701171875" y="13.34161376953125" width="3.066680908203125" height="3.066680908203125" rx="0.7666666666666668"    fill="#005BE3" >
</rect>
<rect  x="13.741668701171875" y="32.12493896484375" width="3.066680908203125" height="3.066680908203125" rx="0.7666666666666668"    fill="#216EE0" >
</rect>
<rect  x="13.741668701171875" y="49.75836181640625" width="3.066680908203125" height="3.066680908203125" rx="0.7666666666666668"    fill="#216EE0" >
</rect>
<rect  x="18.53338623046875" y="13.34161376953125" width="3.066680908203125" height="3.066680908203125" rx="0.7666666666666668"    fill="#005BE3" >
</rect>
<rect  x="18.53338623046875" y="32.12493896484375" width="3.066680908203125" height="3.066680908203125" rx="0.7666666666666668"    fill="#216EE0" >
</rect>
<rect  x="18.53338623046875" y="49.75836181640625" width="3.066680908203125" height="3.066680908203125" rx="0.7666666666666668"    fill="#216EE0" >
</rect>
<rect  x="23.3250732421875" y="13.34161376953125" width="3.066680908203125" height="3.066680908203125" rx="0.7666666666666668"    fill="#005BE3" >
</rect>
<rect  x="23.3250732421875" y="32.12493896484375" width="3.066680908203125" height="3.066680908203125" rx="0.7666666666666668"    fill="#216EE0" >
</rect>
<rect  x="23.3250732421875" y="49.75836181640625" width="3.066680908203125" height="3.066680908203125" rx="0.7666666666666668"    fill="#216EE0" >
</rect>
<defs>
<linearGradient id="linear_0" x1="16.74392404940566%" y1="7.200215392674135%" x2="94.7609107429099%" y2="89.52481085362271%" gradientUnits="objectBoundingBox">
<stop offset="0" stop-color="#0E79ED"  />
<stop offset="1" stop-color="#02A3FA"  />
</linearGradient>
</defs>
</svg>
