<svg
  t="1739515237860"
  class="icon"
  viewBox="0 0 1024 1024"
  version="1.1"
  xmlns="http://www.w3.org/2000/svg"
  p-id="1645"
  width="200"
  height="200"
>
  <path
    d="M422.4 776.533333l76.8-76.8h8.533333c145.066667 0 251.733333-55.466667 332.8-170.666666-25.6-34.133333-55.466667-64-85.333333-89.6L819.2 384c46.933333 38.4 85.333333 89.6 119.466667 145.066667-98.133333 170.666667-243.2 251.733333-426.666667 251.733333-29.866667 4.266667-59.733333 0-89.6-4.266667z m-238.933333-119.466666c-34.133333-34.133333-68.266667-76.8-98.133334-128 98.133333-170.666667 243.2-251.733333 426.666667-251.733334h46.933333l-85.333333 85.333334c-128 8.533333-226.133333 64-298.666667 166.4 17.066667 25.6 38.4 51.2 59.733334 68.266666l-51.2 59.733334zM755.2 213.333333l59.733333 59.733334L277.333333 810.666667l-59.733333-59.733334L755.2 213.333333z"
    fill="#444444"
    p-id="1646"
  ></path>
</svg>
