<svg xmlns="http://www.w3.org/2000/svg" xmlns:xlink="http://www.w3.org/1999/xlink" width="20" height="20" viewBox="0 0 20 20" fill="none">
<path d="M9.87975 17.5576C6.57237 17.5576 3.875 14.8602 3.875 11.5528C3.875 7.45432 8.0688 3.66084 9.346 2.60286C9.651 2.34551 10.099 2.34551 10.404 2.60286C11.6907 3.67037 15.875 7.45432 15.875 11.5528C15.8845 14.8697 13.1967 17.5576 9.87975 17.5576ZM9.87975 3.48928C8.81224 4.39476 4.89486 7.95948 4.89486 11.5623C4.89486 14.3169 7.13472 16.5472 9.87975 16.5472C12.6248 16.5472 14.8647 14.3074 14.8647 11.5623C14.8742 7.94995 10.9473 4.38522 9.87975 3.48928ZM9.3979 15.0142C9.4779 14.7442 9.3279 14.4642 9.0579 14.3742C7.9279 14.0242 7.0679 13.0642 6.8279 11.9042C6.7679 11.6342 6.5079 11.4542 6.2279 11.5142C5.9579 11.5742 5.7779 11.8342 5.8379 12.1142C6.1579 13.6442 7.2679 14.8842 8.7579 15.3542C8.7979 15.3642 8.8579 15.3742 8.9079 15.3742C9.1179 15.3742 9.3179 15.2342 9.3979 15.0142Z" stroke="rgba(122, 132, 135, 1)" stroke-width="0.2"    fill-rule="evenodd"  fill="#7A8487" >
</path>
</svg>
