<svg xmlns="http://www.w3.org/2000/svg" xmlns:xlink="http://www.w3.org/1999/xlink" width="16" height="15.887847900390625" viewBox="0 0 16 15.887847900390625" fill="none">
<path d="M12.88 3.83C12.72 3.78 12.6 3.65 12.57 3.48C12.51 3.16 12.41 2.85 12.27 2.55C12.04 2.05 11.71 1.59 11.28 1.21C10.43 0.43 9.3 0 8.1 0C6.9 0 5.77 0.43 4.91 1.21C4.49 1.59 4.15 2.05 3.92 2.55C3.77 2.87 3.67 3.2 3.61 3.53C3.55 3.91 3.26 4.2 2.9 4.29C2.26 4.45 1.67 4.76 1.18 5.21C0.42 5.9 0 6.83 0 7.83C0 8.79 0.4 9.7 1.12 10.39C1.59 10.83 2.16 11.15 2.79 11.33C3.28 11.47 3.78 11.11 3.81 10.59C3.82 10.22 3.58 9.89 3.22 9.79C2.27 9.52 1.6 8.74 1.6 7.83C1.6 6.69 2.65 5.76 3.94 5.76C4.07 5.76 4.21 5.77 4.33 5.79C5.14 5.91 5.81 6.4 6.11 7.05C6.26 7.37 6.59 7.56 6.94 7.51C7.48 7.45 7.79 6.88 7.57 6.39C7.54 6.34 7.52 6.28 7.49 6.23C7.47 6.18 7.44 6.13 7.41 6.08L7.32 5.93C7.29 5.88 7.25 5.84 7.22 5.79C7.19 5.74 7.15 5.7 7.12 5.65C7.08 5.61 7.04 5.56 7.01 5.52C6.97 5.48 6.93 5.43 6.89 5.39L6.77 5.27C6.31 4.84 5.76 4.52 5.15 4.34L5.15 4.21C5.15 2.77 6.47 1.6 8.1 1.6C9.72 1.6 11.04 2.77 11.04 4.21C11.04 4.27 11.04 4.32 11.03 4.38L11.01 4.72C10.99 4.97 11.17 5.18 11.42 5.2L11.76 5.23C13.26 5.37 14.4 6.49 14.4 7.83C14.4 8.99 13.53 9.99 12.34 10.33C11.97 10.43 11.73 10.78 11.75 11.16C11.79 11.66 12.28 12.01 12.77 11.87C13.52 11.66 14.21 11.27 14.76 10.72C15.56 9.94 16 8.91 16 7.83C16 6.77 15.57 5.75 14.79 4.97C14.26 4.44 13.61 4.05 12.88 3.83ZM6.70328 9.2931C6.26007 9.2931 5.9023 9.65087 5.9023 10.0941L5.9023 10.7242C5.9023 11.1674 6.26007 11.5252 6.70328 11.5252C7.14649 11.5252 7.50426 11.1674 7.50426 10.7242L7.50426 10.0941C7.50426 9.65087 7.14471 9.2931 6.70328 9.2931ZM9.77905 9.2931C9.33584 9.2931 8.97807 9.65087 8.97807 10.0941L8.97807 15.0869C8.97807 15.5301 9.33584 15.8879 9.77905 15.8879C10.2223 15.8879 10.58 15.5301 10.58 15.0869L10.58 10.0941C10.58 9.65087 10.2205 9.2931 9.77905 9.2931ZM6.70328 13.654C6.26007 13.654 5.9023 14.0118 5.9023 14.455L5.9023 15.0851C5.9023 15.5283 6.26007 15.8861 6.70328 15.8861C7.14649 15.8861 7.50426 15.5283 7.50426 15.0851L7.50426 14.455C7.50426 14.0118 7.14471 13.654 6.70328 13.654Z" fill-rule="evenodd"  fill="#0B84F0" >
</path>
</svg>
