<svg xmlns="http://www.w3.org/2000/svg" xmlns:xlink="http://www.w3.org/1999/xlink" width="16" height="16" viewBox="0 0 16 16" fill="none">
<path d="M8.00136 1.04816C11.8609 1.04816 15.0002 3.74125 15.0002 7.04984C15.0002 8.86942 14.0165 10.5815 12.2802 11.7587L10.9659 12.5704C11.0224 12.9386 11.2589 13.7342 11.4873 14.3819C11.5545 14.5701 11.5008 14.7797 11.3556 14.9168C11.2616 15.0028 11.1406 15.0485 11.017 15.0485C10.9471 15.0485 10.8799 15.0351 10.8127 15.0055C10.2429 14.7528 8.50934 13.9277 7.8831 13.0461C4.07729 12.9924 1.00253 10.3208 1.00253 7.04715C0.999846 3.74125 4.1391 1.04816 8.00136 1.04816ZM10.4099 5.61006C10.6099 5.41006 10.6099 5.08006 10.4099 4.87006C10.1999 4.67006 9.86988 4.67006 9.66988 4.87006L8.03988 6.50006L6.40988 4.87006C6.20988 4.67006 5.87988 4.67006 5.66988 4.87006C5.46988 5.08006 5.46988 5.41006 5.66988 5.61006L7.29988 7.24006L5.66988 8.87006C5.46988 9.07006 5.46988 9.40006 5.66988 9.61006C5.76988 9.71006 5.89988 9.76006 6.03988 9.76006C6.17988 9.76006 6.30988 9.71006 6.40988 9.61006L8.03988 7.98006L9.66988 9.61006C9.76988 9.71006 9.89988 9.76006 10.0399 9.76006C10.1799 9.76006 10.3099 9.71006 10.4099 9.61006C10.6099 9.40006 10.6099 9.07006 10.4099 8.87006L8.77988 7.24006L10.4099 5.61006Z" fill-rule="evenodd"  fill="#FF3B76" >
</path>
</svg>
