<svg xmlns="http://www.w3.org/2000/svg" xmlns:xlink="http://www.w3.org/1999/xlink" width="16" height="16" viewBox="0 0 16 16" fill="none">
<path d="M8.00133 1.04816C11.8609 1.04816 15.0002 3.74125 15.0002 7.04984C15.0002 8.86942 14.0164 10.5815 12.2802 11.7587L10.9659 12.5704C11.0223 12.9386 11.2588 13.7342 11.4873 14.3819C11.5545 14.5701 11.5007 14.7797 11.3556 14.9168C11.2615 15.0028 11.1406 15.0485 11.017 15.0485C10.9471 15.0485 10.8799 15.0351 10.8127 15.0055C10.2429 14.7528 8.50931 13.9277 7.88307 13.0461C4.07726 12.9924 1.0025 10.3208 1.0025 7.04715C0.999817 3.74125 4.13907 1.04816 8.00133 1.04816ZM7.07995 9.48396L11.61 5.46396C11.71 5.37396 11.76 5.24396 11.76 5.11396C11.76 4.98396 11.71 4.85396 11.61 4.76396C11.52 4.66396 11.39 4.61396 11.26 4.61396C11.13 4.61396 11 4.66396 10.91 4.76396L6.72995 8.42396L5.08995 6.77396C4.99995 6.68396 4.86995 6.63396 4.73995 6.63396C4.59995 6.63396 4.47995 6.68396 4.37995 6.77396C4.18995 6.97396 4.18995 7.28396 4.37995 7.48396L6.38995 9.48396C6.47995 9.57396 6.59995 9.62396 6.72995 9.63396C6.85995 9.63396 6.98995 9.57396 7.07995 9.48396Z" fill-rule="evenodd"  fill="#56DB7B" >
</path>
</svg>
