<svg xmlns="http://www.w3.org/2000/svg" xmlns:xlink="http://www.w3.org/1999/xlink" width="32" height="32" viewBox="0 0 32 32" fill="none">
<path d="M21.4332 9.94562C21.4332 9.83562 21.4532 9.76562 21.4532 9.66562C21.4532 5.76562 18.3532 2.46562 14.4032 2.46562C11.1332 2.46562 8.29317 4.76562 7.46317 7.77562C4.90317 8.38562 3.00317 10.6856 3.00317 13.4356C3.00317 16.3656 5.02317 18.8456 7.86317 19.2456L24.4632 19.2456C26.9832 18.9956 28.9932 16.8356 28.9932 14.2456C28.9932 11.4856 26.7432 9.17562 23.9632 9.17562C23.0432 9.17562 22.1732 9.51562 21.4332 9.94562Z"   fill="#E5E5E5FF" >
</path>
<path d="M19.263 24.3124C19.4005 24.3781 19.5443 24.4093 19.6849 24.4093C20.0443 24.4093 20.388 24.2093 20.5536 23.8656L21.6818 21.5468C21.913 21.0656 21.7161 20.4874 21.2349 20.2562C20.7536 20.0249 20.1786 20.2249 19.9443 20.7031L18.8161 23.0218C18.5849 23.5031 18.7849 24.0781 19.263 24.3124ZM10.4049 24.4281C10.2643 24.4281 10.1205 24.3969 9.983 24.3312C9.50488 24.0969 9.30488 23.5219 9.53613 23.0406L10.6643 20.7219C10.8986 20.2437 11.4736 20.0437 11.9549 20.275C12.4361 20.5062 12.633 21.0844 12.4018 21.5656L11.2736 23.8844C11.108 24.2312 10.7643 24.4281 10.4049 24.4281ZM14.4631 26.3924C14.6006 26.4581 14.7444 26.4893 14.885 26.4893C15.2444 26.4893 15.5881 26.2893 15.7537 25.9456L16.8819 23.6268C17.1131 23.1456 16.9162 22.5674 16.435 22.3362C15.9537 22.1049 15.3787 22.3049 15.1444 22.7831L14.0162 25.1018C13.785 25.5831 13.985 26.1581 14.4631 26.3924Z" fill-rule="evenodd"  fill="#D1F4FF" >
</path>
</svg>
