<svg xmlns="http://www.w3.org/2000/svg" xmlns:xlink="http://www.w3.org/1999/xlink" width="16" height="16" viewBox="0 0 16 16" fill="none">
<path d="M6.65469 1.52344L2.39062 1.52344C1.91562 1.52344 1.53125 1.90781 1.53125 2.38281L1.53125 6.64531C1.53125 7.12031 1.91562 7.50469 2.39062 7.50469L6.65312 7.50469C7.12813 7.50469 7.5125 7.12031 7.5125 6.64531L7.5125 2.38281C7.51406 1.90781 7.12969 1.52344 6.65469 1.52344ZM13.6406 1.52344L9.37656 1.52344C8.90156 1.52344 8.51719 1.90781 8.51719 2.38281L8.51719 6.64531C8.51719 7.12031 8.90156 7.50469 9.37656 7.50469L13.6406 7.50469C14.1156 7.50469 14.5 7.12031 14.5 6.64531L14.5 2.38281C14.5 1.90781 14.1156 1.52344 13.6406 1.52344ZM6.65469 8.40156L2.39062 8.40156C1.91562 8.40156 1.53125 8.78594 1.53125 9.26094L1.53125 13.5234C1.53125 13.9984 1.91562 14.3828 2.39062 14.3828L6.65312 14.3828C7.12813 14.3828 7.5125 13.9984 7.5125 13.5234L7.5125 9.26094C7.51406 8.78594 7.12969 8.40156 6.65469 8.40156Z" fill-rule="evenodd"  fill="#22B3E5" >
</path>
<path d="M9.37715 8.40157C8.89715 8.40157 8.51715 8.78157 8.51715 9.26157L8.51715 13.5216C8.51715 14.0016 8.89715 14.3816 9.37715 14.3816L13.6372 14.3816C14.1172 14.3816 14.4972 14.0016 14.4972 13.5216L14.4972 9.26157C14.4972 8.78157 14.1172 8.40157 13.6372 8.40157L9.37715 8.40157Z"   fill="#22B3E5" >
</path>
</svg>
