<svg xmlns="http://www.w3.org/2000/svg" xmlns:xlink="http://www.w3.org/1999/xlink" width="12.7874755859375" height="16.666664123535156" viewBox="0 0 12.7874755859375 16.666664123535156" fill="none">
<path d="M9.72868 8.33333C11.1094 8.33333 12.2287 9.45258 12.2287 10.8333L12.2287 15.8333C12.2287 16.2936 11.8534 16.6667 11.3932 16.6667L1.39536 16.6667C0.935128 16.6667 0.562028 16.2936 0.562028 15.8333L0.562028 10.8333C0.562028 9.45258 1.68131 8.33333 3.06203 8.33333L9.72868 8.33333ZM8.06201 11.6667L4.72868 11.6667C4.26845 11.6667 3.89535 12.0397 3.89535 12.5C3.89535 12.9273 4.21705 13.2796 4.6315 13.3278L4.72868 13.3333L8.06201 13.3333C8.52226 13.3333 8.89534 12.9602 8.89534 12.5C8.89534 12.0727 8.57368 11.7204 8.15918 11.6722L8.06201 11.6667ZM6.39534 5C7.27934 5 8.10134 5.27623 8.77651 5.74708C9.15401 6.01033 9.24659 6.52978 8.98334 6.90725C8.72009 7.28483 8.20068 7.37742 7.82318 7.11417C7.41859 6.832 6.92751 6.66667 6.39534 6.66667C5.86326 6.66667 5.37226 6.832 4.96768 7.114C4.59016 7.37725 4.07072 7.28458 3.80749 6.90708C3.54425 6.52957 3.6369 6.01013 4.01443 5.7469C4.68955 5.27616 5.51143 5 6.39534 5ZM6.39534 2.5C7.99393 2.5 9.46301 3.06367 10.6116 4.00232C10.9679 4.29356 11.0208 4.81855 10.7295 5.17492C10.4383 5.53128 9.91326 5.58407 9.55693 5.29283C8.6951 4.58852 7.59559 4.16667 6.39534 4.16667C5.19576 4.16667 4.09683 4.58807 3.23524 5.29171C2.87877 5.58283 2.35379 5.52985 2.06268 5.17338C1.77156 4.81692 1.82454 4.29195 2.181 4.00083C3.32927 3.06307 4.79768 2.5 6.39534 2.5ZM6.39543 0C8.69276 0 10.7945 0.846175 12.4028 2.24272C12.7503 2.54448 12.7874 3.07081 12.4857 3.41832C12.1839 3.76583 11.6576 3.80293 11.3101 3.50118C9.99334 2.35785 8.27618 1.66667 6.39543 1.66667C4.51319 1.66667 2.79474 2.35894 1.47759 3.5039C1.13024 3.80584 0.603895 3.76902 0.301953 3.42168C1.13845e-05 3.07433 0.0368197 2.54798 0.38417 2.24604C1.99301 0.847517 4.09627 0 6.39543 0Z" fill-rule="evenodd"  fill="#7A8487" >
</path>
</svg>
