<svg xmlns="http://www.w3.org/2000/svg" xmlns:xlink="http://www.w3.org/1999/xlink" width="25.8062744140625" height="25.171873092651367" viewBox="0 0 25.8062744140625 25.171873092651367" fill="none">
<path d="M24.9562 13.6094L20.5344 13.6094C20.0656 13.6094 19.6844 13.2281 19.6844 12.7594L19.6844 12.4187C19.6844 11.95 20.0656 11.5687 20.5344 11.5687L24.9562 11.5687C25.425 11.5687 25.8062 11.95 25.8062 12.4187L25.8062 12.7594C25.8062 13.2281 25.425 13.6094 24.9562 13.6094ZM19.3281 7.77812C18.9969 8.10937 18.4562 8.10937 18.125 7.77812L17.8844 7.5375C17.5531 7.20625 17.5531 6.66562 17.8844 6.33437L21.0125 3.20625C21.3438 2.875 21.8844 2.875 22.2156 3.20625L22.4562 3.44687C22.7875 3.77812 22.7875 4.31875 22.4562 4.65L19.3281 7.77812ZM13.0969 6.125L12.7562 6.125C12.2875 6.125 11.9062 5.74375 11.9062 5.275L11.9062 0.85C11.9062 0.38125 12.2875 0 12.7562 0L13.0969 0C13.5656 0 13.9469 0.38125 13.9469 0.85L13.9469 5.275C13.9469 5.74375 13.5687 6.125 13.0969 6.125ZM7.70937 7.77812C7.375 8.10937 6.8375 8.10937 6.50312 7.77812L3.36562 4.65C3.03437 4.31875 3.03437 3.77812 3.36562 3.44687L3.60625 3.20625C3.94062 2.875 4.47812 2.875 4.8125 3.20625L7.95 6.33437C8.28125 6.66562 8.28437 7.20312 7.95312 7.53437L7.95 7.5375L7.70937 7.77812ZM6.14375 12.4187L6.14375 12.7594C6.14375 13.2281 5.7625 13.6094 5.29375 13.6094L0.853125 13.6094C0.384375 13.6125 0 13.2312 0 12.7625L0 12.4187C0 11.95 0.38125 11.5687 0.85 11.5687L5.29062 11.5687C5.7625 11.5656 6.14375 11.9437 6.14375 12.4187C6.14375 12.4156 6.14375 12.4156 6.14375 12.4187ZM6.50312 17.3969C6.8375 17.0656 7.375 17.0656 7.70937 17.3969L7.95 17.6375C8.28125 17.9687 8.28437 18.5062 7.95312 18.8375L7.95 18.8406L4.8125 21.9687C4.47812 22.3 3.94062 22.3 3.60625 21.9687L3.36562 21.7281C3.03437 21.3969 3.03125 20.8594 3.3625 20.5281L3.36562 20.525L6.50312 17.3969ZM12.7562 19.05L13.1031 19.05C13.5719 19.05 13.9531 19.4312 13.9531 19.9L13.9531 24.3219C13.9531 24.7906 13.5719 25.1719 13.1031 25.1719L12.7562 25.1719C12.2875 25.1719 11.9062 24.7906 11.9062 24.3219L11.9062 19.9C11.9062 19.4312 12.2875 19.05 12.7562 19.05ZM18.1469 17.3969C18.4812 17.0656 19.0187 17.0656 19.3531 17.3969L22.4906 20.525C22.8219 20.8562 22.8219 21.3969 22.4906 21.7281L22.25 21.9687C21.9156 22.3 21.3781 22.3 21.0437 21.9687L17.9031 18.8406C17.5719 18.5094 17.5687 17.9719 17.9 17.6406L17.9031 17.6375L18.1469 17.3969ZM7.63125 12.5875C7.63125 15.5 9.99062 17.8625 12.9031 17.8625C15.8156 17.8625 18.1781 15.5031 18.1781 12.5906L18.1781 12.5844C18.1781 9.67187 15.8188 7.3125 12.9062 7.30937C9.99375 7.30625 7.63125 9.67187 7.63125 12.5875C7.63125 12.5844 7.63125 12.5875 7.63125 12.5875Z" fill-rule="evenodd"  fill="#FFCD00" >
</path>
</svg>
