<svg xmlns="http://www.w3.org/2000/svg" xmlns:xlink="http://www.w3.org/1999/xlink" width="30" height="30" viewBox="0 0 30 30" fill="none">
<path d="M10.8216 8.13874C10.8217 5.87972 12.617 4.0297 14.875 3.96194L15.0004 3.96001C17.308 3.96027 19.1786 5.83108 19.1786 8.13874L19.1786 16.9798L19.3001 17.0777C20.806 18.3202 21.699 20.1547 21.748 22.1064L21.7504 22.2814C21.7504 26.0094 18.7283 29.0314 15.0004 29.0314C11.2724 29.0314 8.25037 26.0094 8.25037 22.2814C8.24874 20.2679 9.14751 18.3591 10.7006 17.0777L10.8216 16.9798L10.8216 8.13874ZM17.2505 8.13874C17.2505 6.89601 16.2431 5.88858 15.0004 5.88858C13.7576 5.88858 12.7502 6.89601 12.7502 8.13874L12.7502 9.64351L13.9321 9.64351C14.5021 9.64351 14.7921 9.93351 14.7921 10.5035C14.7921 11.0735 14.5021 11.3535 13.9321 11.3535L12.7502 11.3535L12.7502 13.5007L13.9321 13.5007C14.5021 13.5007 14.7921 13.7907 14.7921 14.3607C14.7921 14.9307 14.5021 15.2107 13.9321 15.2107L12.7502 15.2107L12.7502 17.4701C12.7503 17.7919 12.5899 18.0924 12.3225 18.2715C10.9928 19.162 10.1789 20.6518 10.1789 22.2814C10.1789 24.9443 12.3375 27.1029 15.0004 27.1029C17.6632 27.1029 19.8218 24.9443 19.8218 22.2814C19.8233 20.6702 19.0187 19.1649 17.6782 18.271C17.4109 18.0919 17.2505 17.7914 17.2505 17.4696L17.2505 8.13874ZM11.6301 21.7998L11.6301 21.7298C11.6701 21.2298 12.0901 20.8398 12.5901 20.8398C12.8501 20.8398 13.1001 20.9398 13.2801 21.1198C13.4601 21.3098 13.5601 21.5498 13.5601 21.8098L13.5601 21.8998C13.6101 22.8698 14.4101 23.6298 15.3801 23.6298L15.3801 25.5498L15.2601 25.5498C13.2401 25.4898 11.6301 23.8298 11.6301 21.7998Z" fill-rule="evenodd"  fill="#22B3E5" >
</path>
</svg>
