<svg xmlns="http://www.w3.org/2000/svg" xmlns:xlink="http://www.w3.org/1999/xlink" width="30" height="30" viewBox="0 0 30 30" fill="none">
<path d="M18.1579 16.255C18.1491 16.2 18.1445 16.1436 18.1445 16.0862L18.1445 6.44633C18.1445 6.06965 18.3455 5.72158 18.6717 5.53324C18.9979 5.3449 19.3998 5.3449 19.726 5.53324C20.0522 5.72158 20.2532 6.06965 20.2532 6.44633L20.2532 15.9317C20.2589 15.976 20.2618 16.0212 20.2618 16.0671C20.2534 16.6599 20.5648 17.2112 21.0768 17.51C21.5888 17.8089 22.222 17.8089 22.734 17.51C23.246 17.2112 23.5574 16.6599 23.549 16.0671C23.549 15.4848 24.021 15.0128 24.6033 15.0128C25.1856 15.0128 25.6576 15.4848 25.6577 16.0671C25.6555 18.1384 23.9769 19.817 21.9056 19.8192C19.8971 19.8173 18.2578 18.2391 18.1579 16.255ZM9.70831 16.1103L9.70824 16.0984L9.70824 6.45687C9.70824 5.87497 10.1807 5.40254 10.7626 5.40254C11.3445 5.40254 11.8169 5.87497 11.8169 6.45687L11.8169 16.059L11.8169 16.0671L11.8169 16.0789L11.8169 16.0984C11.8169 16.111 11.8167 16.1236 11.8162 16.1361C11.7773 18.1756 10.1131 19.8171 8.06482 19.8192C5.99337 19.8172 4.31457 18.1386 4.31239 16.0671C4.31241 15.4848 4.78444 15.0128 5.36672 15.0128C5.949 15.0128 6.42104 15.4848 6.42105 16.0671C6.41266 16.6599 6.72408 17.2112 7.23606 17.51C7.74805 17.8089 8.38127 17.8089 8.89325 17.51C9.39276 17.2185 9.70136 16.6866 9.70831 16.1103ZM14.9809 19.5009C14.3986 19.5009 13.9265 19.0288 13.9265 18.4465L13.9265 8.50885C13.9265 7.92696 14.399 7.45453 14.9809 7.45453C15.5628 7.45453 16.0352 7.92696 16.0352 8.50885L16.0352 18.4465C16.0352 19.0288 15.5632 19.5009 14.9809 19.5009ZM25.5262 23.7512L4.38488 23.7512C3.80297 23.7512 3.33054 23.2788 3.33054 22.6969C3.33054 22.115 3.80297 21.6425 4.38488 21.6425L25.5262 21.6425C26.1081 21.6425 26.5805 22.115 26.5805 22.6969C26.5805 23.2788 26.1081 23.7512 25.5262 23.7512Z" fill-rule="evenodd"  fill="#22B3E5FF" >
</path>
</svg>
