<svg xmlns="http://www.w3.org/2000/svg" xmlns:xlink="http://www.w3.org/1999/xlink" width="30" height="30" viewBox="0 0 30 30" fill="none">
<path d="M15.0004 4.46033C13.0257 4.46033 6.75037 11.9713 6.75037 17.0837C6.75037 21.7357 10.4574 25.5396 15.0004 25.5396C19.5433 25.5396 23.2504 21.7357 23.2504 17.0837C23.2504 11.9713 16.975 4.46033 15.0004 4.46033ZM21.6755 17.0837C21.6755 20.8634 18.6832 23.9405 15.0004 23.9405C11.3175 23.9405 8.32526 20.8634 8.32526 17.0837C8.32526 12.4559 13.8737 6.59249 15.0004 6.08367C16.127 6.59249 21.6755 12.4559 21.6755 17.0837ZM11.5801 16.7681C11.2801 16.7181 10.9501 16.8381 10.7601 17.0881C10.5701 17.3281 10.5201 17.6681 10.6301 17.9581C11.3401 19.8381 12.8301 21.3281 14.7201 22.0281C14.9701 22.1081 15.2401 22.0881 15.4601 21.9481C15.6901 21.8181 15.8401 21.5981 15.8801 21.3381C15.9601 20.9081 15.7201 20.4981 15.3201 20.3581C13.9101 19.8481 12.8101 18.7281 12.2601 17.3281C12.1501 17.0381 11.8901 16.8181 11.5801 16.7681Z" fill-rule="evenodd"  fill="#FFCD00" >
</path>
</svg>
