<?xml version="1.0" encoding="UTF-8" standalone="no"?>
<svg
   xmlns:dc="http://purl.org/dc/elements/1.1/"
   xmlns:cc="http://creativecommons.org/ns#"
   xmlns:rdf="http://www.w3.org/1999/02/22-rdf-syntax-ns#"
   xmlns:svg="http://www.w3.org/2000/svg"
   xmlns="http://www.w3.org/2000/svg"
   xmlns:sodipodi="http://sodipodi.sourceforge.net/DTD/sodipodi-0.dtd"
   xmlns:inkscape="http://www.inkscape.org/namespaces/inkscape"
   version="1.1"
   id="图层_1"
   x="0px"
   y="0px"
   width="147.052px"
   height="136.94px"
   viewBox="37.796 77.25 147.052 136.94"
   enable-background="new 37.796 77.25 147.052 136.94"
   xml:space="preserve"
   sodipodi:docname="水与污水处理-01.svg"><metadata
   id="metadata57"><rdf:RDF><cc:Work
       rdf:about=""><dc:format>image/svg+xml</dc:format><dc:type
         rdf:resource="http://purl.org/dc/dcmitype/StillImage" /></cc:Work></rdf:RDF></metadata><defs
   id="defs55" /><sodipodi:namedview
   pagecolor="#ffffff"
   bordercolor="#666666"
   borderopacity="1"
   objecttolerance="10"
   gridtolerance="10"
   guidetolerance="10"
   inkscape:pageopacity="0"
   inkscape:pageshadow="2"
   inkscape:window-width="640"
   inkscape:window-height="480"
   id="namedview53" />
<g
   id="g50">
	<path
   fill="#7F7F7F"
   stroke="#231815"
   stroke-width="0.5"
   stroke-miterlimit="10"
   d="M155.607,106.5   c-0.01,0.08-0.01,0.17-0.01,0.25v98.92l-10,8v-98.92c0-4.56,3.69-8.25,8.25-8.25H155.607z"
   id="path2" />
	
		<path
   fill="#D4D4D4"
   stroke="#231815"
   stroke-width="0.5"
   stroke-linecap="round"
   stroke-linejoin="round"
   stroke-miterlimit="10"
   d="   M184.598,77.5v21l-10,8v-21h-66c-3.35,0-6.47,1.03-9.04,2.8l7.93-6.3c0.75-0.72,1.561-1.37,2.44-1.93l0.06-0.05h0.011   c2.489-1.59,5.43-2.52,8.6-2.52H184.598z"
   id="path4" />
	<path
   fill="#7F7F7F"
   stroke="#231815"
   stroke-width="0.5"
   stroke-miterlimit="10"
   d="M92.4,119v86.67h-8V127   c0-10.35-4.08-16.2-7.51-19.28c-5.95-5.36-12.98-5.53-15.5-5.39H38.4l8-8h22.99c2.52-0.14,9.55,0.03,15.5,5.39   C88.32,102.8,92.4,108.65,92.4,119z"
   id="path6" />
	
		<polygon
   fill="#7F7F7F"
   stroke="#231815"
   stroke-width="0.5"
   stroke-linecap="round"
   stroke-linejoin="round"
   stroke-miterlimit="10"
   points="   174.598,98.833 174.598,106.5 184.598,98.5  "
   id="polygon8" />
	
		<polygon
   fill="#7F7F7F"
   stroke="#231815"
   stroke-width="0.5"
   stroke-linecap="round"
   stroke-linejoin="round"
   stroke-miterlimit="10"
   points="   184.598,98.5 174.598,98.833 174.598,85.5 184.598,77.5  "
   id="polygon10" />
	
		<path
   fill="#D4D4D4"
   stroke="#231815"
   stroke-width="0.5"
   stroke-linecap="round"
   stroke-linejoin="round"
   stroke-miterlimit="10"
   d="   M64.4,126.58c0,0.04,0,0.09-0.01,0.13c0.01-0.1,0-0.2,0-0.29C64.4,126.47,64.4,126.52,64.4,126.58z"
   id="path12" />
	
		<line
   fill="none"
   stroke="#231815"
   stroke-width="0.5"
   stroke-linecap="round"
   stroke-linejoin="round"
   stroke-miterlimit="10"
   x1="70.526"
   y1="103.815"
   x2="78.396"
   y2="95.763"
   id="line14" />
	
		<line
   fill="none"
   stroke="#231815"
   stroke-width="0.5"
   stroke-linecap="round"
   stroke-linejoin="round"
   stroke-miterlimit="10"
   x1="76.088"
   y1="107.034"
   x2="83.64"
   y2="98.682"
   id="line16" />
	
		<path
   fill="#D4D4D4"
   stroke="#231815"
   stroke-width="0.5"
   stroke-linecap="round"
   stroke-linejoin="round"
   stroke-miterlimit="10"
   d="   M174.601,85.5v21h-20.75c-4.561,0-8.25,3.69-8.25,8.25v98.92H64.4V127c0-0.1,0-0.2-0.01-0.29c0.01-0.04,0.01-0.09,0.01-0.13   c0-0.06,0-0.11-0.01-0.16c0.01-0.06,0-0.12-0.01-0.17v-0.11c-0.221-2.14-2.03-3.81-4.23-3.81H38.4v-20h22.99   c2.52-0.14,9.55,0.03,15.5,5.39c3.43,3.08,7.51,8.93,7.51,19.28v24.58h8.2V101.5c0-5.46,2.729-10.28,6.899-13.16   c0.021-0.02,0.04-0.03,0.061-0.04c2.57-1.77,5.689-2.8,9.04-2.8H174.601z"
   id="path18" />
	<path
   fill="#7F7F7F"
   stroke="#231815"
   stroke-width="0.5"
   stroke-miterlimit="10"
   d="M64.4,126.58c0,0.04,0,0.09-0.01,0.13   c0.01-0.1,0-0.2,0-0.29C64.4,126.47,64.4,126.52,64.4,126.58z"
   id="path20" />
	<g
   id="g30">
		
			<line
   fill="none"
   stroke="#231815"
   stroke-width="0.5"
   stroke-linecap="round"
   stroke-linejoin="round"
   stroke-miterlimit="10"
   x1="64.4"
   y1="135.667"
   x2="84.4"
   y2="135.667"
   id="line22" />
		
			<line
   fill="none"
   stroke="#231815"
   stroke-width="0.5"
   stroke-linecap="round"
   stroke-linejoin="round"
   stroke-miterlimit="10"
   x1="64.4"
   y1="139"
   x2="84.4"
   y2="139"
   id="line24" />
		
			<line
   fill="none"
   stroke="#231815"
   stroke-width="0.5"
   stroke-linecap="round"
   stroke-linejoin="round"
   stroke-miterlimit="10"
   x1="64.4"
   y1="142.333"
   x2="84.4"
   y2="142.333"
   id="line26" />
		
			<line
   fill="none"
   stroke="#231815"
   stroke-width="0.5"
   stroke-linecap="round"
   stroke-linejoin="round"
   stroke-miterlimit="10"
   x1="64.4"
   y1="145.666"
   x2="84.4"
   y2="145.666"
   id="line28" />
	</g>
	<g
   id="g40">
		
			<line
   fill="none"
   stroke="#231815"
   stroke-width="0.5"
   stroke-linecap="round"
   stroke-linejoin="round"
   stroke-miterlimit="10"
   x1="84.4"
   y1="135.667"
   x2="92.463"
   y2="128.875"
   id="line32" />
		
			<line
   fill="none"
   stroke="#231815"
   stroke-width="0.5"
   stroke-linecap="round"
   stroke-linejoin="round"
   stroke-miterlimit="10"
   x1="84.4"
   y1="139"
   x2="92.463"
   y2="132.208"
   id="line34" />
		
			<line
   fill="none"
   stroke="#231815"
   stroke-width="0.5"
   stroke-linecap="round"
   stroke-linejoin="round"
   stroke-miterlimit="10"
   x1="84.4"
   y1="142.333"
   x2="92.463"
   y2="135.541"
   id="line36" />
		
			<line
   fill="none"
   stroke="#231815"
   stroke-width="0.5"
   stroke-linecap="round"
   stroke-linejoin="round"
   stroke-miterlimit="10"
   x1="84.4"
   y1="145.666"
   x2="92.463"
   y2="138.874"
   id="line38" />
	</g>
	<rect
   x="92.463"
   y="128.875"
   fill="#7F7F7F"
   width="53.135"
   height="3.333"
   id="rect42" />
	<rect
   x="92.463"
   y="140.604"
   fill="#7F7F7F"
   width="53.135"
   height="3.333"
   id="rect44" />
	<polygon
   fill="#231815"
   points="155.772,124.537 145.598,132.208 145.598,128.875 155.772,121.204  "
   id="polygon46" />
	<polygon
   fill="#231815"
   points="155.772,136.265 145.598,143.937 145.598,140.604 155.772,132.932  "
   id="polygon48" />
</g>
</svg>
