<?xml version="1.0" encoding="UTF-8" standalone="no"?>
<svg
   xmlns:dc="http://purl.org/dc/elements/1.1/"
   xmlns:cc="http://creativecommons.org/ns#"
   xmlns:rdf="http://www.w3.org/1999/02/22-rdf-syntax-ns#"
   xmlns:svg="http://www.w3.org/2000/svg"
   xmlns="http://www.w3.org/2000/svg"
   xmlns:sodipodi="http://sodipodi.sourceforge.net/DTD/sodipodi-0.dtd"
   xmlns:inkscape="http://www.inkscape.org/namespaces/inkscape"
   version="1.1"
   id="图层_1"
   x="0px"
   y="0px"
   width="124.528px"
   height="132.144px"
   viewBox="543.649 395.721 124.528 132.144"
   enable-background="new 543.649 395.721 124.528 132.144"
   xml:space="preserve"
   sodipodi:docname="水与污水处理-13.svg"><metadata
   id="metadata81"><rdf:RDF><cc:Work
       rdf:about=""><dc:format>image/svg+xml</dc:format><dc:type
         rdf:resource="http://purl.org/dc/dcmitype/StillImage" /></cc:Work></rdf:RDF></metadata><defs
   id="defs79" /><sodipodi:namedview
   pagecolor="#ffffff"
   bordercolor="#666666"
   borderopacity="1"
   objecttolerance="10"
   gridtolerance="10"
   guidetolerance="10"
   inkscape:pageopacity="0"
   inkscape:pageshadow="2"
   inkscape:window-width="640"
   inkscape:window-height="480"
   id="namedview77" />
<g
   id="g74">
	
		<rect
   x="643.303"
   y="477.984"
   fill="#2593A5"
   stroke="#231815"
   stroke-width="0.5"
   stroke-linecap="round"
   stroke-linejoin="round"
   stroke-miterlimit="10"
   width="21.279"
   height="3.087"
   id="rect2" />
	
		<rect
   x="562.331"
   y="512.563"
   fill="#2593A5"
   stroke="#231815"
   stroke-width="0.5"
   stroke-linecap="round"
   stroke-linejoin="round"
   stroke-miterlimit="10"
   width="105.597"
   height="2.817"
   id="rect4" />
	
		<rect
   x="664.582"
   y="443.675"
   fill="#2593A5"
   stroke="#231815"
   stroke-width="0.5"
   stroke-linecap="round"
   stroke-linejoin="round"
   stroke-miterlimit="10"
   width="3.346"
   height="71.707"
   id="rect6" />
	
		<rect
   x="558.985"
   y="443.675"
   fill="#2593A5"
   stroke="#231815"
   stroke-width="0.5"
   stroke-linecap="round"
   stroke-linejoin="round"
   stroke-miterlimit="10"
   width="3.346"
   height="71.707"
   id="rect8" />
	
		<polygon
   fill="#2593A5"
   stroke="#231815"
   stroke-width="0.5"
   stroke-linecap="round"
   stroke-linejoin="round"
   stroke-miterlimit="10"
   points="   547.245,527.615 543.899,527.615 558.985,515.382 562.331,515.382  "
   id="polygon10" />
	
		<polygon
   fill="#2593A5"
   stroke="#231815"
   stroke-width="0.5"
   stroke-linecap="round"
   stroke-linejoin="round"
   stroke-miterlimit="10"
   points="   654.41,527.615 651.064,527.615 664.582,515.382 667.928,515.382  "
   id="polygon12" />
	<g
   id="g40">
		
			<path
   fill="#8AD0E4"
   stroke="#231815"
   stroke-width="0.5"
   stroke-linecap="round"
   stroke-linejoin="round"
   stroke-miterlimit="10"
   d="    M642.314,462.818l-16.57-19.116l-24.258-7.121l-24.271,7.121l-16.559,19.116l-3.605,25.038l10.511,23.002l21.276,13.669h25.293    l21.265-13.669l10.511-23.002L642.314,462.818z M614.593,483.048c0.153-0.805,0.231-1.638,0.231-2.494    c0-1.775-0.348-3.478-0.986-5.038c-0.996-2.454-2.71-4.539-4.87-6.009c-2.137-1.459-4.72-2.302-7.495-2.302    c-2.772,0-5.355,0.855-7.49,2.302c-2.162,1.47-3.862,3.567-4.859,6.009c-0.64,1.562-0.984,3.263-0.984,5.038    c0,0.856,0.076,1.689,0.229,2.494c0.473,2.52,1.662,4.783,3.338,6.572c1.649,1.775,3.771,3.105,6.177,3.771"
   id="path14" />
		
			<line
   fill="none"
   stroke="#231815"
   stroke-width="0.5"
   stroke-linecap="round"
   stroke-linejoin="round"
   stroke-miterlimit="10"
   x1="642.314"
   y1="462.818"
   x2="608.968"
   y2="469.507"
   id="line16" />
		
			<line
   fill="none"
   stroke="#231815"
   stroke-width="0.5"
   stroke-linecap="round"
   stroke-linejoin="round"
   stroke-miterlimit="10"
   x1="645.907"
   y1="487.856"
   x2="613.838"
   y2="475.516"
   id="line18" />
		
			<line
   fill="none"
   stroke="#231815"
   stroke-width="0.5"
   stroke-linecap="round"
   stroke-linejoin="round"
   stroke-miterlimit="10"
   x1="635.396"
   y1="510.858"
   x2="614.593"
   y2="483.048"
   id="line20" />
		
			<line
   fill="none"
   stroke="#231815"
   stroke-width="0.5"
   stroke-linecap="round"
   stroke-linejoin="round"
   stroke-miterlimit="10"
   x1="614.133"
   y1="524.527"
   x2="611.256"
   y2="489.62"
   id="line22" />
		
			<line
   fill="none"
   stroke="#231815"
   stroke-width="0.5"
   stroke-linecap="round"
   stroke-linejoin="round"
   stroke-miterlimit="10"
   x1="605.067"
   y1="493.392"
   x2="588.84"
   y2="524.527"
   id="line24" />
		
			<line
   fill="none"
   stroke="#231815"
   stroke-width="0.5"
   stroke-linecap="round"
   stroke-linejoin="round"
   stroke-miterlimit="10"
   x1="597.882"
   y1="493.392"
   x2="567.563"
   y2="510.858"
   id="line26" />
		
			<line
   fill="none"
   stroke="#231815"
   stroke-width="0.5"
   stroke-linecap="round"
   stroke-linejoin="round"
   stroke-miterlimit="10"
   x1="591.705"
   y1="489.62"
   x2="557.053"
   y2="487.856"
   id="line28" />
		
			<line
   fill="none"
   stroke="#231815"
   stroke-width="0.5"
   stroke-linecap="round"
   stroke-linejoin="round"
   stroke-miterlimit="10"
   x1="588.367"
   y1="483.048"
   x2="560.658"
   y2="462.818"
   id="line30" />
		
			<line
   fill="none"
   stroke="#231815"
   stroke-width="0.5"
   stroke-linecap="round"
   stroke-linejoin="round"
   stroke-miterlimit="10"
   x1="589.122"
   y1="475.516"
   x2="577.217"
   y2="443.702"
   id="line32" />
		
			<line
   fill="none"
   stroke="#231815"
   stroke-width="0.5"
   stroke-linecap="round"
   stroke-linejoin="round"
   stroke-miterlimit="10"
   x1="601.486"
   y1="436.581"
   x2="593.981"
   y2="469.507"
   id="line34" />
		
			<line
   fill="none"
   stroke="#231815"
   stroke-width="0.5"
   stroke-linecap="round"
   stroke-linejoin="round"
   stroke-miterlimit="10"
   x1="625.744"
   y1="443.702"
   x2="601.473"
   y2="467.205"
   id="line36" />
		
			<path
   fill="#B2B2B2"
   stroke="#231815"
   stroke-width="0.5"
   stroke-linecap="round"
   stroke-linejoin="round"
   stroke-miterlimit="10"
   d="    M597.882,493.392c1.138,0.333,2.353,0.498,3.591,0.498c1.242,0,2.456-0.165,3.596-0.498c2.416-0.665,4.539-1.994,6.188-3.771    c1.675-1.789,2.852-4.054,3.337-6.572"
   id="path38" />
	</g>
	
		<polygon
   fill="#2593A5"
   stroke="#231815"
   stroke-width="0.5"
   stroke-linecap="round"
   stroke-linejoin="round"
   stroke-miterlimit="10"
   points="   639.167,421.468 599.155,400.698 605.819,395.971 649.607,414.755  "
   id="polygon42" />
	
		<polygon
   fill="#64BFD6"
   stroke="#231815"
   stroke-width="0.5"
   stroke-linecap="round"
   stroke-linejoin="round"
   stroke-miterlimit="10"
   points="   639.167,421.468 599.155,400.698 559.144,421.468 543.899,448.884 654.41,448.884  "
   id="polygon44" />
	
		<polygon
   fill="#2593A5"
   stroke="#231815"
   stroke-width="0.5"
   stroke-linecap="round"
   stroke-linejoin="round"
   stroke-miterlimit="10"
   points="   667.928,440.05 654.41,448.884 639.167,421.468 649.607,414.755  "
   id="polygon46" />
	
		<polygon
   fill="#2593A5"
   stroke="#231815"
   stroke-width="0.5"
   stroke-linecap="round"
   stroke-linejoin="round"
   stroke-miterlimit="10"
   points="   605.819,395.971 568.736,413.599 559.144,421.468 599.155,400.698  "
   id="polygon48" />
	
		<rect
   x="574.65"
   y="431.819"
   fill="#8AD0E4"
   stroke="#231815"
   stroke-width="0.5"
   stroke-linecap="round"
   stroke-linejoin="round"
   stroke-miterlimit="10"
   width="49.009"
   height="17.063"
   id="rect50" />
	
		<rect
   x="543.899"
   y="448.884"
   fill="#64BFD6"
   stroke="#231815"
   stroke-width="0.5"
   stroke-linecap="round"
   stroke-linejoin="round"
   stroke-miterlimit="10"
   width="110.511"
   height="3.938"
   id="rect52" />
	
		<polygon
   fill="#2593A5"
   stroke="#231815"
   stroke-width="0.5"
   stroke-linecap="round"
   stroke-linejoin="round"
   stroke-miterlimit="10"
   points="   667.928,443.93 654.41,452.82 654.41,448.884 667.928,439.993  "
   id="polygon54" />
	
		<rect
   x="543.899"
   y="452.82"
   fill="#64BFD6"
   stroke="#231815"
   stroke-width="0.5"
   stroke-linecap="round"
   stroke-linejoin="round"
   stroke-miterlimit="10"
   width="3.346"
   height="71.707"
   id="rect56" />
	
		<rect
   x="651.064"
   y="452.82"
   fill="#64BFD6"
   stroke="#231815"
   stroke-width="0.5"
   stroke-linecap="round"
   stroke-linejoin="round"
   stroke-miterlimit="10"
   width="3.346"
   height="71.707"
   id="rect58" />
	
		<rect
   x="543.899"
   y="524.527"
   fill="#64BFD6"
   stroke="#231815"
   stroke-width="0.5"
   stroke-linecap="round"
   stroke-linejoin="round"
   stroke-miterlimit="10"
   width="110.511"
   height="3.088"
   id="rect60" />
	
		<rect
   x="580.123"
   y="452.82"
   fill="#64BFD6"
   stroke="#231815"
   stroke-width="0.5"
   stroke-linecap="round"
   stroke-linejoin="round"
   stroke-miterlimit="10"
   width="2.566"
   height="74.795"
   id="rect62" />
	
		<rect
   x="618.356"
   y="452.82"
   fill="#64BFD6"
   stroke="#231815"
   stroke-width="0.5"
   stroke-linecap="round"
   stroke-linejoin="round"
   stroke-miterlimit="10"
   width="2.565"
   height="74.795"
   id="rect64" />
	
		<rect
   x="580.123"
   y="496.702"
   fill="#64BFD6"
   stroke="#231815"
   stroke-width="0.5"
   stroke-linecap="round"
   stroke-linejoin="round"
   stroke-miterlimit="10"
   width="40.8"
   height="3.088"
   id="rect66" />
	
		<path
   fill="#2593A5"
   stroke="#231815"
   stroke-width="0.5"
   stroke-linecap="round"
   stroke-linejoin="round"
   stroke-miterlimit="10"
   d="   M618.073,480.367c0,8.923-7.246,16.148-16.185,16.148s-16.186-7.227-16.186-16.148c0-8.921,7.246-16.148,16.186-16.148   C610.827,464.219,618.073,471.446,618.073,480.367z"
   id="path68" />
	
		<path
   fill="#64BFD6"
   stroke="#231815"
   stroke-width="0.5"
   stroke-linecap="round"
   stroke-linejoin="round"
   stroke-miterlimit="10"
   d="   M613.527,482.637c0,8.621-7.245,15.609-16.185,15.609c-8.938,0-16.184-6.988-16.184-15.609H613.527z"
   id="path70" />
	
		<polygon
   fill="#2B7387"
   stroke="#231815"
   stroke-width="0.5"
   stroke-linecap="round"
   stroke-linejoin="round"
   stroke-miterlimit="10"
   points="   618.073,479.34 585.705,479.34 581.16,482.637 613.527,482.637  "
   id="polygon72" />
</g>
</svg>
