<?xml version="1.0" encoding="UTF-8" standalone="no"?>
<svg
   xmlns:dc="http://purl.org/dc/elements/1.1/"
   xmlns:cc="http://creativecommons.org/ns#"
   xmlns:rdf="http://www.w3.org/1999/02/22-rdf-syntax-ns#"
   xmlns:svg="http://www.w3.org/2000/svg"
   xmlns="http://www.w3.org/2000/svg"
   xmlns:sodipodi="http://sodipodi.sourceforge.net/DTD/sodipodi-0.dtd"
   xmlns:inkscape="http://www.inkscape.org/namespaces/inkscape"
   version="1.1"
   id="图层_1"
   x="0px"
   y="0px"
   width="114.677px"
   height="86.093px"
   viewBox="401.349 734.805 114.677 86.093"
   enable-background="new 401.349 734.805 114.677 86.093"
   xml:space="preserve"
   sodipodi:docname="水与污水处理-20.svg"><metadata
   id="metadata100"><rdf:RDF><cc:Work
       rdf:about=""><dc:format>image/svg+xml</dc:format><dc:type
         rdf:resource="http://purl.org/dc/dcmitype/StillImage" /></cc:Work></rdf:RDF></metadata><defs
   id="defs98" /><sodipodi:namedview
   pagecolor="#ffffff"
   bordercolor="#666666"
   borderopacity="1"
   objecttolerance="10"
   gridtolerance="10"
   guidetolerance="10"
   inkscape:pageopacity="0"
   inkscape:pageshadow="2"
   inkscape:window-width="640"
   inkscape:window-height="480"
   id="namedview96" />
<g
   id="g93">
	<polygon
   fill="#999999"
   stroke="#231815"
   stroke-width="0.5"
   stroke-miterlimit="10"
   points="501.766,745.511 501.766,806.638    433.122,806.638 433.122,820.647 501.766,820.647 515.775,820.647 515.775,745.511  "
   id="polygon2" />
	
		<rect
   x="436.214"
   y="785.819"
   fill="#666666"
   stroke="#231815"
   stroke-width="0.5"
   stroke-miterlimit="10"
   width="17.832"
   height="18.338"
   id="rect4" />
	
		<rect
   x="480.843"
   y="785.819"
   fill="#666666"
   stroke="#231815"
   stroke-width="0.5"
   stroke-miterlimit="10"
   width="17.831"
   height="18.338"
   id="rect6" />
	
		<linearGradient
   id="SVGID_1_"
   gradientUnits="userSpaceOnUse"
   x1="397.4082"
   y1="400.9282"
   x2="397.4082"
   y2="410.7983"
   gradientTransform="matrix(1 0 0 -1 8.3398 1182.04)">
		<stop
   offset="0"
   style="stop-color:#9E9897"
   id="stop8" />
		<stop
   offset="0.2266"
   style="stop-color:#C0BCBB"
   id="stop10" />
		<stop
   offset="0.5"
   style="stop-color:#E5E4E4"
   id="stop12" />
		<stop
   offset="0.7833"
   style="stop-color:#C0BCBB"
   id="stop14" />
		<stop
   offset="1"
   style="stop-color:#9E9897"
   id="stop16" />
	</linearGradient>
	
		<rect
   x="401.599"
   y="771.242"
   fill="url(#SVGID_1_)"
   stroke="#231815"
   stroke-width="0.5"
   stroke-miterlimit="10"
   width="8.298"
   height="9.87"
   id="rect19" />
	
		<linearGradient
   id="SVGID_2_"
   gradientUnits="userSpaceOnUse"
   x1="413.1709"
   y1="396.2212"
   x2="413.1709"
   y2="415.5044"
   gradientTransform="matrix(1 0 0 -1 8.3398 1182.04)">
		<stop
   offset="0"
   style="stop-color:#9E9897"
   id="stop21" />
		<stop
   offset="0.2266"
   style="stop-color:#C0BCBB"
   id="stop23" />
		<stop
   offset="0.5"
   style="stop-color:#E5E4E4"
   id="stop25" />
		<stop
   offset="0.7833"
   style="stop-color:#C0BCBB"
   id="stop27" />
		<stop
   offset="1"
   style="stop-color:#9E9897"
   id="stop29" />
	</linearGradient>
	
		<rect
   x="409.896"
   y="766.536"
   fill="url(#SVGID_2_)"
   stroke="#231815"
   stroke-width="0.5"
   stroke-miterlimit="10"
   width="23.227"
   height="19.283"
   id="rect32" />
	<g
   id="g38">
		<path
   fill="#999999"
   stroke="#231815"
   stroke-width="0.5"
   stroke-miterlimit="10"
   d="M421.724,752.479    c-0.416,3.952-1.182,7.351-2.469,11.87c-1.987,6.979-9.287,12.159-9.287,12.159c-0.999-4.82-1.164-12.634-0.249-21.348    c1.495-14.223,4.77-20.43,7.969-20.094C420.896,735.405,423.219,738.256,421.724,752.479z"
   id="path34" />
		<path
   fill="#D1D1D1"
   d="M411.51,756.813c2.641-12.776,6.083-18.632,9.045-18.929c-0.707-1.612-1.636-2.477-2.718-2.591    c-3.201-0.336-6.473,5.871-7.968,20.095c-0.676,6.419-0.76,12.35-0.361,16.955C409.667,767.918,410.329,762.532,411.51,756.813z"
   id="path36" />
	</g>
	<g
   id="g44">
		<path
   fill="#999999"
   stroke="#231815"
   stroke-width="0.5"
   stroke-miterlimit="10"
   d="M408.592,798.899    c0.416-3.953,1.183-7.353,2.469-11.871c1.986-6.979,9.287-12.159,9.287-12.159c0.998,4.82,1.163,12.634,0.248,21.349    c-1.495,14.222-4.769,20.428-7.968,20.094C409.418,815.974,407.097,813.123,408.592,798.899z"
   id="path40" />
		<path
   fill="#D1D1D1"
   d="M418.805,794.565c-2.64,12.776-6.082,18.631-9.045,18.928c0.707,1.613,1.636,2.477,2.718,2.591    c3.201,0.336,6.476-5.871,7.97-20.095c0.675-6.419,0.761-12.35,0.359-16.955C420.647,783.461,419.985,788.847,418.805,794.565z"
   id="path42" />
	</g>
	
		<linearGradient
   id="SVGID_3_"
   gradientUnits="userSpaceOnUse"
   x1="427"
   y1="381.145"
   x2="427"
   y2="430.5806"
   gradientTransform="matrix(1 0 0 -1 8.3398 1182.04)">
		<stop
   offset="0"
   style="stop-color:#9E9897"
   id="stop46" />
		<stop
   offset="0.2266"
   style="stop-color:#C0BCBB"
   id="stop48" />
		<stop
   offset="0.5"
   style="stop-color:#E5E4E4"
   id="stop50" />
		<stop
   offset="0.7833"
   style="stop-color:#C0BCBB"
   id="stop52" />
		<stop
   offset="1"
   style="stop-color:#9E9897"
   id="stop54" />
	</linearGradient>
	
		<rect
   x="433.122"
   y="751.46"
   fill="url(#SVGID_3_)"
   stroke="#231815"
   stroke-width="0.5"
   stroke-miterlimit="10"
   width="4.433"
   height="49.436"
   id="rect57" />
	
		<linearGradient
   id="SVGID_4_"
   gradientUnits="userSpaceOnUse"
   x1="491.2109"
   y1="381.145"
   x2="491.2109"
   y2="430.5806"
   gradientTransform="matrix(1 0 0 -1 8.3398 1182.04)">
		<stop
   offset="0"
   style="stop-color:#9E9897"
   id="stop59" />
		<stop
   offset="0.2266"
   style="stop-color:#C0BCBB"
   id="stop61" />
		<stop
   offset="0.5"
   style="stop-color:#E5E4E4"
   id="stop63" />
		<stop
   offset="0.7833"
   style="stop-color:#C0BCBB"
   id="stop65" />
		<stop
   offset="1"
   style="stop-color:#9E9897"
   id="stop67" />
	</linearGradient>
	
		<rect
   x="497.333"
   y="751.46"
   fill="url(#SVGID_4_)"
   stroke="#231815"
   stroke-width="0.5"
   stroke-miterlimit="10"
   width="4.433"
   height="49.436"
   id="rect70" />
	
		<linearGradient
   id="SVGID_5_"
   gradientUnits="userSpaceOnUse"
   x1="459.1055"
   y1="385.3989"
   x2="459.1055"
   y2="426.3267"
   gradientTransform="matrix(1 0 0 -1 8.3398 1182.04)">
		<stop
   offset="0"
   style="stop-color:#9E9897"
   id="stop72" />
		<stop
   offset="0.2266"
   style="stop-color:#C0BCBB"
   id="stop74" />
		<stop
   offset="0.5"
   style="stop-color:#E5E4E4"
   id="stop76" />
		<stop
   offset="0.7833"
   style="stop-color:#C0BCBB"
   id="stop78" />
		<stop
   offset="1"
   style="stop-color:#9E9897"
   id="stop80" />
	</linearGradient>
	
		<rect
   x="437.555"
   y="755.714"
   fill="url(#SVGID_5_)"
   stroke="#231815"
   stroke-width="0.5"
   stroke-miterlimit="10"
   width="59.778"
   height="40.928"
   id="rect83" />
	
		<rect
   x="445.439"
   y="753.367"
   fill="#C9C6C5"
   stroke="#231815"
   stroke-width="0.5"
   stroke-miterlimit="10"
   width="14.53"
   height="2.347"
   id="rect85" />
	
		<rect
   x="474.041"
   y="753.367"
   fill="#C9C6C5"
   stroke="#231815"
   stroke-width="0.5"
   stroke-miterlimit="10"
   width="14.531"
   height="2.347"
   id="rect87" />
	
		<rect
   x="433.122"
   y="804.157"
   fill="#DFDDDD"
   stroke="#231815"
   stroke-width="0.5"
   stroke-miterlimit="10"
   width="68.644"
   height="2.938"
   id="rect89" />
	
		<line
   fill="none"
   stroke="#231815"
   stroke-width="0.5"
   stroke-miterlimit="10"
   x1="501.766"
   y1="807.095"
   x2="501.766"
   y2="812.844"
   id="line91" />
</g>
</svg>
