<?xml version="1.0" encoding="UTF-8" standalone="no"?>
<svg
   xmlns:dc="http://purl.org/dc/elements/1.1/"
   xmlns:cc="http://creativecommons.org/ns#"
   xmlns:rdf="http://www.w3.org/1999/02/22-rdf-syntax-ns#"
   xmlns:svg="http://www.w3.org/2000/svg"
   xmlns="http://www.w3.org/2000/svg"
   xmlns:sodipodi="http://sodipodi.sourceforge.net/DTD/sodipodi-0.dtd"
   xmlns:inkscape="http://www.inkscape.org/namespaces/inkscape"
   version="1.1"
   id="图层_1"
   x="0px"
   y="0px"
   width="60.012px"
   height="151.07px"
   viewBox="252.203 1024.101 60.012 151.07"
   enable-background="new 252.203 1024.101 60.012 151.07"
   xml:space="preserve"
   sodipodi:docname="水与污水处理-27.svg"><metadata
   id="metadata91"><rdf:RDF><cc:Work
       rdf:about=""><dc:format>image/svg+xml</dc:format><dc:type
         rdf:resource="http://purl.org/dc/dcmitype/StillImage" /></cc:Work></rdf:RDF></metadata><defs
   id="defs89" /><sodipodi:namedview
   pagecolor="#ffffff"
   bordercolor="#666666"
   borderopacity="1"
   objecttolerance="10"
   gridtolerance="10"
   guidetolerance="10"
   inkscape:pageopacity="0"
   inkscape:pageshadow="2"
   inkscape:window-width="640"
   inkscape:window-height="480"
   id="namedview87" />
<g
   id="g84">
	
		<polygon
   fill="#C4C4C4"
   stroke="#000000"
   stroke-width="0.5"
   stroke-linecap="round"
   stroke-linejoin="round"
   stroke-miterlimit="10"
   points="   311.965,1159.15 264.918,1174.919 252.453,1174.919 265.752,1170.468 270.924,1168.728 270.934,1168.728 278.225,1166.285    279.066,1165.998 287.201,1163.268 290.699,1162.103 295.336,1160.548 299.5,1159.15  "
   id="polygon2" />
	
		<rect
   x="252.453"
   y="1040.121"
   fill="#E5E5E5"
   stroke="#231815"
   stroke-width="0.5"
   stroke-linecap="round"
   stroke-linejoin="round"
   stroke-miterlimit="10"
   width="12.465"
   height="134.8"
   id="rect4" />
	
		<rect
   x="299.498"
   y="1024.353"
   fill="#AAAAAA"
   stroke="#000000"
   stroke-width="0.5"
   stroke-linecap="round"
   stroke-linejoin="round"
   stroke-miterlimit="10"
   width="12.465"
   height="134.8"
   id="rect6" />
	
		<polygon
   fill="#C4C4C4"
   stroke="#000000"
   stroke-width="0.5"
   stroke-linecap="round"
   stroke-linejoin="round"
   stroke-miterlimit="10"
   points="   311.965,1024.351 307.43,1025.869 299.5,1028.524 299.297,1028.599 297.111,1029.33 291.162,1031.328 291.152,1031.328    284.629,1033.512 283.018,1034.049 274.885,1036.779 272.154,1037.695 264.918,1040.119 252.453,1040.119 299.5,1024.351  "
   id="polygon8" />
	
		<polyline
   fill="none"
   stroke="#000000"
   stroke-width="0.5"
   stroke-linecap="round"
   stroke-linejoin="round"
   stroke-miterlimit="10"
   points="   303.357,1035.974 299.5,1031.875 298.436,1030.736 297.111,1029.33  "
   id="polyline10" />
	
		<polyline
   fill="none"
   stroke="#000000"
   stroke-width="0.5"
   stroke-linecap="round"
   stroke-linejoin="round"
   stroke-miterlimit="10"
   points="   284.629,1033.512 288.58,1037.713 293.502,1042.942 298.436,1048.179 299.5,1049.317 303.357,1053.408 303.357,1053.417  "
   id="polyline12" />
	
		<line
   fill="none"
   stroke="#000000"
   stroke-width="0.5"
   stroke-linecap="round"
   stroke-linejoin="round"
   stroke-miterlimit="10"
   x1="269.174"
   y1="1034.521"
   x2="269.166"
   y2="1034.521"
   id="line14" />
	
		<polyline
   fill="none"
   stroke="#000000"
   stroke-width="0.5"
   stroke-linecap="round"
   stroke-linejoin="round"
   stroke-miterlimit="10"
   points="   272.154,1037.695 273.811,1039.453 278.734,1044.69 283.656,1049.929 288.58,1055.156 293.502,1060.396 298.426,1065.632    299.5,1066.771 303.357,1070.86 303.357,1070.869  "
   id="polyline16" />
	
		<polyline
   fill="none"
   stroke="#000000"
   stroke-width="0.5"
   stroke-linecap="round"
   stroke-linejoin="round"
   stroke-miterlimit="10"
   points="   264.918,1047.438 268.889,1051.659 273.811,1056.896 278.734,1062.134 283.656,1067.371 288.58,1072.609 293.502,1077.838    298.436,1083.076 299.5,1084.214 303.357,1088.313  "
   id="polyline18" />
	
		<polyline
   fill="none"
   stroke="#000000"
   stroke-width="0.5"
   stroke-linecap="round"
   stroke-linejoin="round"
   stroke-miterlimit="10"
   points="   264.918,1064.892 268.889,1069.111 273.811,1074.349 278.734,1079.587 283.656,1084.824 288.58,1090.052 293.502,1095.29    298.426,1100.527 299.5,1101.666 303.357,1105.766  "
   id="polyline20" />
	
		<polyline
   fill="none"
   stroke="#000000"
   stroke-width="0.5"
   stroke-linecap="round"
   stroke-linejoin="round"
   stroke-miterlimit="10"
   points="   264.918,1082.335 268.889,1086.555 273.811,1091.793 278.734,1097.029 283.656,1102.268 288.58,1107.505 293.502,1112.733    298.436,1117.972 299.5,1119.109 303.357,1123.208  "
   id="polyline22" />
	
		<polyline
   fill="none"
   stroke="#000000"
   stroke-width="0.5"
   stroke-linecap="round"
   stroke-linejoin="round"
   stroke-miterlimit="10"
   points="   264.918,1099.787 268.889,1104.007 273.811,1109.244 278.734,1114.482 283.656,1119.72 288.58,1124.949 293.502,1130.187    298.436,1135.424 299.5,1136.563 303.357,1140.661  "
   id="polyline24" />
	
		<polyline
   fill="none"
   stroke="#000000"
   stroke-width="0.5"
   stroke-linecap="round"
   stroke-linejoin="round"
   stroke-miterlimit="10"
   points="   304.338,1159.15 303.357,1158.104 299.5,1154.005 298.436,1152.867 293.512,1147.639 288.58,1142.4 283.656,1137.163    278.734,1131.926 273.811,1126.688 268.889,1121.451 264.918,1117.229  "
   id="polyline26" />
	
		<polyline
   fill="none"
   stroke="#000000"
   stroke-width="0.5"
   stroke-linecap="round"
   stroke-linejoin="round"
   stroke-miterlimit="10"
   points="   291.764,1163.241 290.699,1162.103 288.58,1159.854 283.656,1154.616 278.734,1149.378 273.811,1144.141 268.889,1138.902    264.918,1134.684  "
   id="polyline28" />
	
		<polyline
   fill="none"
   stroke="#000000"
   stroke-width="0.5"
   stroke-linecap="round"
   stroke-linejoin="round"
   stroke-miterlimit="10"
   points="   279.438,1167.58 278.734,1166.831 278.225,1166.285 273.811,1161.594 268.889,1156.354 264.918,1152.137  "
   id="polyline30" />
	
		<polyline
   fill="none"
   stroke="#000000"
   stroke-width="0.5"
   stroke-linecap="round"
   stroke-linejoin="round"
   stroke-miterlimit="10"
   points="   267.121,1171.921 265.752,1170.468 264.918,1169.579  "
   id="polyline32" />
	
		<polyline
   fill="none"
   stroke="#000000"
   stroke-width="0.5"
   stroke-linecap="round"
   stroke-linejoin="round"
   stroke-miterlimit="10"
   points="   303.357,1035.974 299.5,1031.875 298.436,1030.736 297.111,1029.33  "
   id="polyline34" />
	
		<polyline
   fill="none"
   stroke="#000000"
   stroke-width="0.5"
   stroke-linecap="round"
   stroke-linejoin="round"
   stroke-miterlimit="10"
   points="   284.629,1033.512 288.58,1037.713 293.502,1042.942 298.436,1048.179 299.5,1049.317 303.357,1053.408 303.357,1053.417  "
   id="polyline36" />
	
		<line
   fill="none"
   stroke="#000000"
   stroke-width="0.5"
   stroke-linecap="round"
   stroke-linejoin="round"
   stroke-miterlimit="10"
   x1="269.174"
   y1="1034.521"
   x2="269.166"
   y2="1034.521"
   id="line38" />
	
		<polyline
   fill="none"
   stroke="#000000"
   stroke-width="0.5"
   stroke-linecap="round"
   stroke-linejoin="round"
   stroke-miterlimit="10"
   points="   272.154,1037.695 273.811,1039.453 278.734,1044.69 283.656,1049.929 288.58,1055.156 293.502,1060.396 298.426,1065.632    299.5,1066.771 303.357,1070.86 303.357,1070.869  "
   id="polyline40" />
	
		<polyline
   fill="none"
   stroke="#000000"
   stroke-width="0.5"
   stroke-linecap="round"
   stroke-linejoin="round"
   stroke-miterlimit="10"
   points="   264.918,1047.438 268.889,1051.659 273.811,1056.896 278.734,1062.134 283.656,1067.371 288.58,1072.609 293.502,1077.838    298.436,1083.076 299.5,1084.214 303.357,1088.313  "
   id="polyline42" />
	
		<polyline
   fill="none"
   stroke="#000000"
   stroke-width="0.5"
   stroke-linecap="round"
   stroke-linejoin="round"
   stroke-miterlimit="10"
   points="   264.918,1064.892 268.889,1069.111 273.811,1074.349 278.734,1079.587 283.656,1084.824 288.58,1090.052 293.502,1095.29    298.426,1100.527 299.5,1101.666 303.357,1105.766  "
   id="polyline44" />
	
		<polyline
   fill="none"
   stroke="#000000"
   stroke-width="0.5"
   stroke-linecap="round"
   stroke-linejoin="round"
   stroke-miterlimit="10"
   points="   264.918,1082.335 268.889,1086.555 273.811,1091.793 278.734,1097.029 283.656,1102.268 288.58,1107.505 293.502,1112.733    298.436,1117.972 299.5,1119.109 303.357,1123.208  "
   id="polyline46" />
	
		<polyline
   fill="none"
   stroke="#000000"
   stroke-width="0.5"
   stroke-linecap="round"
   stroke-linejoin="round"
   stroke-miterlimit="10"
   points="   264.918,1099.787 268.889,1104.007 273.811,1109.244 278.734,1114.482 283.656,1119.72 288.58,1124.949 293.502,1130.187    298.436,1135.424 299.5,1136.563 303.357,1140.661  "
   id="polyline48" />
	
		<polyline
   fill="none"
   stroke="#000000"
   stroke-width="0.5"
   stroke-linecap="round"
   stroke-linejoin="round"
   stroke-miterlimit="10"
   points="   304.338,1159.15 303.357,1158.104 299.5,1154.005 298.436,1152.867 293.512,1147.639 288.58,1142.4 283.656,1137.163    278.734,1131.926 273.811,1126.688 268.889,1121.451 264.918,1117.229  "
   id="polyline50" />
	
		<polyline
   fill="none"
   stroke="#000000"
   stroke-width="0.5"
   stroke-linecap="round"
   stroke-linejoin="round"
   stroke-miterlimit="10"
   points="   291.764,1163.241 290.699,1162.103 288.58,1159.854 283.656,1154.616 278.734,1149.378 273.811,1144.141 268.889,1138.902    264.918,1134.684  "
   id="polyline52" />
	
		<polyline
   fill="none"
   stroke="#000000"
   stroke-width="0.5"
   stroke-linecap="round"
   stroke-linejoin="round"
   stroke-miterlimit="10"
   points="   279.438,1167.58 278.734,1166.831 278.225,1166.285 273.811,1161.594 268.889,1156.354 264.918,1152.137  "
   id="polyline54" />
	
		<polyline
   fill="none"
   stroke="#000000"
   stroke-width="0.5"
   stroke-linecap="round"
   stroke-linejoin="round"
   stroke-miterlimit="10"
   points="   267.121,1171.921 265.752,1170.468 264.918,1169.579  "
   id="polyline56" />
	
		<polyline
   fill="none"
   stroke="#000000"
   stroke-width="0.5"
   stroke-linecap="round"
   stroke-linejoin="round"
   stroke-miterlimit="10"
   points="   264.891,1061.562 264.918,1061.496 268.889,1051.659 273.811,1039.453 274.885,1036.779  "
   id="polyline58" />
	
		<polyline
   fill="none"
   stroke="#000000"
   stroke-width="0.5"
   stroke-linecap="round"
   stroke-linejoin="round"
   stroke-miterlimit="10"
   points="   283.018,1034.049 278.734,1044.69 273.811,1056.896 268.889,1069.111 264.918,1078.947 264.891,1079.013  "
   id="polyline60" />
	
		<polyline
   fill="none"
   stroke="#000000"
   stroke-width="0.5"
   stroke-linecap="round"
   stroke-linejoin="round"
   stroke-miterlimit="10"
   points="   264.891,1096.466 264.918,1096.4 268.889,1086.555 273.811,1074.349 278.734,1062.134 283.656,1049.929 288.58,1037.713    291.152,1031.328 291.162,1031.328  "
   id="polyline62" />
	
		<polyline
   fill="none"
   stroke="#000000"
   stroke-width="0.5"
   stroke-linecap="round"
   stroke-linejoin="round"
   stroke-miterlimit="10"
   points="   299.297,1028.599 298.436,1030.736 293.502,1042.942 288.58,1055.156 283.656,1067.371 278.734,1079.587 273.811,1091.793    268.889,1104.007 264.918,1113.845 264.891,1113.908  "
   id="polyline64" />
	
		<polyline
   fill="none"
   stroke="#000000"
   stroke-width="0.5"
   stroke-linecap="round"
   stroke-linejoin="round"
   stroke-miterlimit="10"
   points="   303.357,1035.974 299.5,1045.542 298.436,1048.179 293.502,1060.396 288.58,1072.609 283.656,1084.824 278.734,1097.029    273.811,1109.244 264.918,1131.297 264.891,1131.361  "
   id="polyline66" />
	
		<polyline
   fill="none"
   stroke="#000000"
   stroke-width="0.5"
   stroke-linecap="round"
   stroke-linejoin="round"
   stroke-miterlimit="10"
   points="   264.891,1148.805 278.734,1114.482 283.656,1102.268 288.58,1090.052 293.502,1077.838 298.426,1065.632 303.357,1053.417    303.357,1053.408  "
   id="polyline68" />
	
		<polyline
   fill="none"
   stroke="#000000"
   stroke-width="0.5"
   stroke-linecap="round"
   stroke-linejoin="round"
   stroke-miterlimit="10"
   points="   264.891,1166.257 283.656,1119.72 288.58,1107.505 293.502,1095.29 298.436,1083.076 303.357,1070.869 303.357,1070.86  "
   id="polyline70" />
	
		<polyline
   fill="none"
   stroke="#000000"
   stroke-width="0.5"
   stroke-linecap="round"
   stroke-linejoin="round"
   stroke-miterlimit="10"
   points="   270.055,1170.884 270.924,1168.728 270.934,1168.728 273.811,1161.594 278.734,1149.378 283.656,1137.163 288.58,1124.949    293.502,1112.733 298.426,1100.527 299.5,1097.882 303.357,1088.313  "
   id="polyline72" />
	
		<polyline
   fill="none"
   stroke="#000000"
   stroke-width="0.5"
   stroke-linecap="round"
   stroke-linejoin="round"
   stroke-miterlimit="10"
   points="   303.357,1105.766 299.5,1115.334 298.436,1117.972 293.502,1130.187 288.58,1142.4 283.656,1154.616 279.066,1165.998    278.734,1166.831 278.262,1167.997  "
   id="polyline74" />
	
		<polyline
   fill="none"
   stroke="#000000"
   stroke-width="0.5"
   stroke-linecap="round"
   stroke-linejoin="round"
   stroke-miterlimit="10"
   points="   303.357,1123.208 299.5,1132.777 298.436,1135.424 293.512,1147.639 288.58,1159.854 287.201,1163.268 286.461,1165.101  "
   id="polyline76" />
	
		<polyline
   fill="none"
   stroke="#000000"
   stroke-width="0.5"
   stroke-linecap="round"
   stroke-linejoin="round"
   stroke-miterlimit="10"
   points="   303.357,1140.661 299.5,1150.229 298.436,1152.867 295.336,1160.548 294.66,1162.213  "
   id="polyline78" />
	
		<polyline
   fill="none"
   stroke="#000000"
   stroke-width="0.5"
   stroke-linecap="round"
   stroke-linejoin="round"
   stroke-miterlimit="10"
   points="   303.357,1159.15 303.357,1123.208 303.357,1105.766 303.357,1088.313 303.357,1070.869 303.357,1070.86 303.357,1053.417    303.357,1053.408 303.357,1027.232  "
   id="polyline80" />
	
		<line
   fill="none"
   stroke="#000000"
   stroke-width="0.5"
   stroke-linecap="round"
   stroke-linejoin="round"
   stroke-miterlimit="10"
   x1="264.918"
   y1="1172.701"
   x2="303.357"
   y2="1159.15"
   id="line82" />
</g>
</svg>
