<?xml version="1.0" encoding="UTF-8" standalone="no"?>
<svg
   xmlns:dc="http://purl.org/dc/elements/1.1/"
   xmlns:cc="http://creativecommons.org/ns#"
   xmlns:rdf="http://www.w3.org/1999/02/22-rdf-syntax-ns#"
   xmlns:svg="http://www.w3.org/2000/svg"
   xmlns="http://www.w3.org/2000/svg"
   xmlns:sodipodi="http://sodipodi.sourceforge.net/DTD/sodipodi-0.dtd"
   xmlns:inkscape="http://www.inkscape.org/namespaces/inkscape"
   version="1.1"
   id="图层_1"
   x="0px"
   y="0px"
   width="101.504px"
   height="70.665px"
   viewBox="496.19 143.255 101.504 70.665"
   enable-background="new 496.19 143.255 101.504 70.665"
   xml:space="preserve"
   sodipodi:docname="水与污水处理-04.svg"><metadata
   id="metadata127"><rdf:RDF><cc:Work
       rdf:about=""><dc:format>image/svg+xml</dc:format><dc:type
         rdf:resource="http://purl.org/dc/dcmitype/StillImage" /></cc:Work></rdf:RDF></metadata><defs
   id="defs125" /><sodipodi:namedview
   pagecolor="#ffffff"
   bordercolor="#666666"
   borderopacity="1"
   objecttolerance="10"
   gridtolerance="10"
   guidetolerance="10"
   inkscape:pageopacity="0"
   inkscape:pageshadow="2"
   inkscape:window-width="640"
   inkscape:window-height="480"
   id="namedview123" />
<g
   id="g120">
	
		<linearGradient
   id="SVGID_1_"
   gradientUnits="userSpaceOnUse"
   x1="488.1016"
   y1="994.1504"
   x2="589.1016"
   y2="994.1504"
   gradientTransform="matrix(1 0 0 -1 8.3398 1182.04)">
		<stop
   offset="0"
   style="stop-color:#456BA4"
   id="stop2" />
		<stop
   offset="0.5"
   style="stop-color:#C9D2E0"
   id="stop4" />
		<stop
   offset="1"
   style="stop-color:#456BA4"
   id="stop6" />
	</linearGradient>
	<path
   fill="url(#SVGID_1_)"
   stroke="#231815"
   stroke-width="0.5"
   stroke-miterlimit="10"
   d="M592.05,166.61   c-8.319,3.26-25.39,5.5-45.108,5.5c-19.722,0-36.79-2.24-45.11-5.5c-3.45-1.35-5.39-2.88-5.39-4.5v41.56   c0,1.62,1.938,3.15,5.39,4.5c8.32,3.261,25.39,5.5,45.11,5.5c19.72,0,36.789-2.239,45.108-5.5c3.45-1.35,5.392-2.88,5.392-4.5   v-41.56C597.44,163.73,595.5,165.261,592.05,166.61z M546.94,207.67c-19.722,0-36.79-2.239-45.11-5.5v-31.56   c8.32,3.26,25.39,5.5,45.11,5.5c19.72,0,36.79-2.24,45.108-5.5v31.56C583.73,205.431,566.66,207.67,546.94,207.67z"
   id="path9" />
	
		<linearGradient
   id="SVGID_2_"
   gradientUnits="userSpaceOnUse"
   x1="488.1006"
   y1="1019.2344"
   x2="589.1006"
   y2="1019.2344"
   gradientTransform="matrix(1 0 0 -1 8.3398 1182.04)">
		<stop
   offset="0"
   style="stop-color:#857E7D"
   id="stop11" />
		<stop
   offset="0.5"
   style="stop-color:#E5E4E4"
   id="stop13" />
		<stop
   offset="1"
   style="stop-color:#857E7D"
   id="stop15" />
	</linearGradient>
	<path
   fill="url(#SVGID_2_)"
   stroke="#231815"
   stroke-width="0.5"
   stroke-miterlimit="10"
   d="M597.44,153.5v8.61   c0,5.52-22.61,10-50.5,10c-27.892,0-50.5-4.48-50.5-10v-8.61c0,5.53,22.608,10,50.5,10C574.83,163.5,597.44,159.03,597.44,153.5z"
   id="path18" />
	
		<linearGradient
   id="SVGID_3_"
   gradientUnits="userSpaceOnUse"
   x1="488.1045"
   y1="1028.5352"
   x2="589.1045"
   y2="1028.5352"
   gradientTransform="matrix(1 0 0 -1 8.3398 1182.04)">
		<stop
   offset="0"
   style="stop-color:#857E7D"
   id="stop20" />
		<stop
   offset="0.5"
   style="stop-color:#E5E4E4"
   id="stop22" />
		<stop
   offset="1"
   style="stop-color:#857E7D"
   id="stop24" />
	</linearGradient>
	
		<ellipse
   fill="url(#SVGID_3_)"
   stroke="#231815"
   stroke-width="0.5"
   stroke-miterlimit="10"
   cx="546.944"
   cy="153.505"
   rx="50.5"
   ry="10"
   id="ellipse27" />
	
		<linearGradient
   id="SVGID_4_"
   gradientUnits="userSpaceOnUse"
   x1="488.1045"
   y1="1028.5352"
   x2="589.1045"
   y2="1028.5352"
   gradientTransform="matrix(1 0 0 -1 8.3398 1182.04)">
		<stop
   offset="0"
   style="stop-color:#857E7D"
   id="stop29" />
		<stop
   offset="0.5"
   style="stop-color:#E5E4E4"
   id="stop31" />
		<stop
   offset="1"
   style="stop-color:#857E7D"
   id="stop33" />
	</linearGradient>
	
		<ellipse
   fill="url(#SVGID_4_)"
   stroke="#231815"
   stroke-width="0.5"
   stroke-miterlimit="10"
   cx="546.944"
   cy="153.505"
   rx="50.5"
   ry="10"
   id="ellipse36" />
	<path
   fill="#D4D2D2"
   stroke="#231815"
   stroke-width="0.5"
   stroke-miterlimit="10"
   d="M546.944,160.945   c-29.492,0-47.603-4.72-47.603-8.104c0-3.384,18.109-8.104,47.603-8.104c29.492,0,47.602,4.72,47.602,8.104   C594.546,156.225,576.438,160.945,546.944,160.945z"
   id="path38" />
	<path
   fill="#898281"
   stroke="#231815"
   stroke-width="0.5"
   stroke-miterlimit="10"
   d="M588.33,171.84v31.56   c-9.13,2.58-24.26,4.27-41.39,4.27c-17.131,0-32.262-1.689-41.392-4.27v-31.56c9.13,2.58,24.261,4.271,41.392,4.271   C564.07,176.111,579.2,174.42,588.33,171.84z"
   id="path40" />
	<path
   fill="#B1ADAD"
   stroke="#231815"
   stroke-width="0.5"
   stroke-miterlimit="10"
   d="M588.33,171.84v27.761   c-9.13,2.58-24.26,4.27-41.39,4.27c-17.131,0-32.262-1.689-41.392-4.27V171.84c-1.38-0.39-2.63-0.8-3.72-1.229v31.56   c1.09,0.431,2.34,0.841,3.72,1.23c9.13,2.58,24.261,4.27,41.392,4.27c17.13,0,32.26-1.689,41.39-4.27c1.38-0.39,2.63-0.8,3.72-1.23   v-31.56C590.96,171.04,589.71,171.45,588.33,171.84z"
   id="path42" />
	<line
   fill="none"
   stroke="#231815"
   stroke-width="0.5"
   stroke-miterlimit="10"
   x1="501.83"
   y1="202.17"
   x2="505.55"
   y2="199.601"
   id="line44" />
	<line
   fill="none"
   stroke="#231815"
   stroke-width="0.5"
   stroke-miterlimit="10"
   x1="592.05"
   y1="202.17"
   x2="588.33"
   y2="199.601"
   id="line46" />
	<g
   id="g118">
		<g
   id="g54">
			
				<path
   fill="#CCCCCC"
   stroke="#231815"
   stroke-width="0.5"
   stroke-linecap="round"
   stroke-linejoin="round"
   stroke-miterlimit="10"
   d="     M539.396,188.354c-0.205-0.754-0.642-1.313-1.015-1.326l12.963-6.65c0.377-0.193,0.973,0.294,1.332,1.093     c0.356,0.793,0.345,1.599-0.033,1.792l-13.487,6.833C539.5,189.9,539.605,189.154,539.396,188.354z"
   id="path48" />
			
				<path
   fill="#CCCCCC"
   stroke="#231815"
   stroke-width="0.5"
   stroke-linecap="round"
   stroke-linejoin="round"
   stroke-miterlimit="10"
   d="     M537.948,188.802c-0.099-0.365-0.133-0.721-0.099-1.015c0.032-0.318,0.129-0.563,0.286-0.678l0.24-0.078l0.005-0.003     c0.373,0.013,0.81,0.572,1.014,1.326c0.211,0.799,0.104,1.545-0.239,1.742l-0.113,0.028l-0.136,0.008     C538.543,190.071,538.146,189.538,537.948,188.802z"
   id="path50" />
			
				<path
   fill="#CCCCCC"
   stroke="#231815"
   stroke-width="0.5"
   stroke-linecap="round"
   stroke-linejoin="round"
   stroke-miterlimit="10"
   d="     M539.084,190.122c-0.015,0.009-0.024,0.002-0.042,0.002l0.113-0.028C539.134,190.106,539.107,190.12,539.084,190.122z"
   id="path52" />
		</g>
		<g
   id="g62">
			
				<path
   fill="#CCCCCC"
   stroke="#231815"
   stroke-width="0.5"
   stroke-linecap="round"
   stroke-linejoin="round"
   stroke-miterlimit="10"
   d="     M552.045,190.328c-0.206-0.753-0.641-1.312-1.014-1.326l12.962-6.65c0.379-0.192,0.973,0.294,1.334,1.094     c0.354,0.792,0.344,1.598-0.035,1.791l-13.487,6.833C552.149,191.875,552.255,191.128,552.045,190.328z"
   id="path56" />
			
				<path
   fill="#CCCCCC"
   stroke="#231815"
   stroke-width="0.5"
   stroke-linecap="round"
   stroke-linejoin="round"
   stroke-miterlimit="10"
   d="     M550.598,190.776c-0.099-0.364-0.133-0.72-0.099-1.013c0.033-0.318,0.13-0.563,0.286-0.68l0.24-0.077l0.006-0.004     c0.373,0.014,0.808,0.573,1.014,1.326c0.21,0.8,0.104,1.546-0.24,1.742l-0.111,0.029l-0.138,0.008     C551.192,192.045,550.795,191.511,550.598,190.776z"
   id="path58" />
			
				<path
   fill="#CCCCCC"
   stroke="#231815"
   stroke-width="0.5"
   stroke-linecap="round"
   stroke-linejoin="round"
   stroke-miterlimit="10"
   d="     M551.732,192.096c-0.015,0.009-0.023,0.002-0.04,0.002l0.111-0.029C551.783,192.08,551.757,192.093,551.732,192.096z"
   id="path60" />
		</g>
		<g
   id="g70">
			
				<path
   fill="#CCCCCC"
   stroke="#231815"
   stroke-width="0.5"
   stroke-linecap="round"
   stroke-linejoin="round"
   stroke-miterlimit="10"
   d="     M564.694,192.558c-0.206-0.754-0.642-1.313-1.015-1.326l12.962-6.65c0.38-0.193,0.974,0.293,1.333,1.093     c0.356,0.793,0.346,1.599-0.033,1.792l-13.487,6.833C564.799,194.104,564.904,193.357,564.694,192.558z"
   id="path64" />
			
				<path
   fill="#CCCCCC"
   stroke="#231815"
   stroke-width="0.5"
   stroke-linecap="round"
   stroke-linejoin="round"
   stroke-miterlimit="10"
   d="     M563.246,193.005c-0.098-0.365-0.132-0.721-0.098-1.014c0.032-0.318,0.13-0.563,0.285-0.679l0.24-0.078l0.006-0.003     c0.373,0.013,0.809,0.572,1.015,1.326c0.21,0.799,0.104,1.547-0.24,1.742l-0.112,0.029l-0.137,0.007     C563.842,194.274,563.444,193.741,563.246,193.005z"
   id="path66" />
			
				<path
   fill="#CCCCCC"
   stroke="#231815"
   stroke-width="0.5"
   stroke-linecap="round"
   stroke-linejoin="round"
   stroke-miterlimit="10"
   d="     M564.382,194.325c-0.014,0.009-0.022,0.003-0.04,0.003l0.112-0.029C564.432,194.31,564.406,194.323,564.382,194.325z"
   id="path68" />
		</g>
		<g
   id="g78">
			
				<path
   fill="#CCCCCC"
   stroke="#231815"
   stroke-width="0.5"
   stroke-linecap="round"
   stroke-linejoin="round"
   stroke-miterlimit="10"
   d="     M526.746,186.38c-0.205-0.754-0.643-1.312-1.014-1.326l12.963-6.65c0.378-0.193,0.973,0.294,1.332,1.094     c0.355,0.792,0.345,1.598-0.033,1.791l-13.489,6.833C526.851,187.926,526.956,187.18,526.746,186.38z"
   id="path72" />
			
				<path
   fill="#CCCCCC"
   stroke="#231815"
   stroke-width="0.5"
   stroke-linecap="round"
   stroke-linejoin="round"
   stroke-miterlimit="10"
   d="     M525.299,186.828c-0.098-0.364-0.134-0.72-0.098-1.013c0.032-0.318,0.129-0.563,0.286-0.68l0.239-0.077l0.006-0.004     c0.371,0.014,0.809,0.572,1.014,1.326c0.21,0.8,0.104,1.546-0.241,1.742l-0.111,0.029l-0.137,0.008     C525.894,188.097,525.497,187.563,525.299,186.828z"
   id="path74" />
			
				<path
   fill="#CCCCCC"
   stroke="#231815"
   stroke-width="0.5"
   stroke-linecap="round"
   stroke-linejoin="round"
   stroke-miterlimit="10"
   d="     M526.435,188.148c-0.015,0.008-0.024,0.002-0.041,0.002l0.111-0.029C526.484,188.131,526.458,188.145,526.435,188.148z"
   id="path76" />
		</g>
		
			<path
   fill="#CCCCCC"
   stroke="#231815"
   stroke-width="0.5"
   stroke-linecap="round"
   stroke-linejoin="round"
   stroke-miterlimit="10"
   d="    M581.259,194.482c-0.19,1.235,0.072,2.356,0.599,2.649l-70.453-10.585c-0.669,0-1.207-1.134-1.207-2.548    c0-1.401,0.538-2.548,1.207-2.548l71.326,10.713C582.106,192.189,581.474,193.182,581.259,194.482z"
   id="path80" />
		
			<path
   fill="#CCCCCC"
   stroke="#231815"
   stroke-width="0.5"
   stroke-linecap="round"
   stroke-linejoin="round"
   stroke-miterlimit="10"
   d="    M583.626,194.902c-0.096,0.599-0.275,1.133-0.516,1.529c-0.25,0.432-0.55,0.713-0.85,0.764l-0.394-0.064h-0.012    c-0.525-0.293-0.789-1.414-0.599-2.649c0.215-1.301,0.849-2.293,1.471-2.319l0.18,0.039l0.202,0.09    C583.589,192.647,583.816,193.704,583.626,194.902z"
   id="path82" />
		
			<path
   fill="#CCCCCC"
   stroke="#231815"
   stroke-width="0.5"
   stroke-linecap="round"
   stroke-linejoin="round"
   stroke-miterlimit="10"
   d="    M582.849,192.176c0.023,0,0.035,0.013,0.061,0.025l-0.179-0.039C582.765,192.163,582.813,192.163,582.849,192.176z"
   id="path84" />
		<g
   id="g92">
			
				<path
   fill="#CCCCCC"
   stroke="#231815"
   stroke-width="0.5"
   stroke-linecap="round"
   stroke-linejoin="round"
   stroke-miterlimit="10"
   d="     M512.554,194.036c-0.227-0.833-0.707-1.449-1.118-1.465l14.305-7.339c0.419-0.212,1.072,0.325,1.472,1.208     c0.394,0.875,0.381,1.764-0.038,1.977l-14.885,7.54C512.669,195.741,512.786,194.917,512.554,194.036z"
   id="path86" />
			
				<path
   fill="#CCCCCC"
   stroke="#231815"
   stroke-width="0.5"
   stroke-linecap="round"
   stroke-linejoin="round"
   stroke-miterlimit="10"
   d="     M510.956,194.529c-0.107-0.402-0.146-0.795-0.107-1.119c0.035-0.352,0.144-0.621,0.315-0.75l0.265-0.085l0.007-0.004     c0.411,0.016,0.893,0.632,1.118,1.465c0.232,0.881,0.115,1.705-0.266,1.92l-0.123,0.032l-0.151,0.009     C511.613,195.928,511.175,195.34,510.956,194.529z"
   id="path88" />
			
				<path
   fill="#CCCCCC"
   stroke="#231815"
   stroke-width="0.5"
   stroke-linecap="round"
   stroke-linejoin="round"
   stroke-miterlimit="10"
   d="     M512.209,195.986c-0.015,0.009-0.026,0.002-0.044,0.002l0.123-0.032C512.266,195.967,512.235,195.982,512.209,195.986z"
   id="path90" />
		</g>
		<g
   id="g100">
			
				<path
   fill="#CCCCCC"
   stroke="#231815"
   stroke-width="0.5"
   stroke-linecap="round"
   stroke-linejoin="round"
   stroke-miterlimit="10"
   d="     M525.203,195.846c-0.229-0.832-0.708-1.449-1.118-1.464l14.305-7.339c0.418-0.213,1.072,0.325,1.472,1.208     c0.393,0.874,0.38,1.764-0.037,1.977l-14.887,7.54C525.318,197.552,525.435,196.729,525.203,195.846z"
   id="path94" />
			
				<path
   fill="#CCCCCC"
   stroke="#231815"
   stroke-width="0.5"
   stroke-linecap="round"
   stroke-linejoin="round"
   stroke-miterlimit="10"
   d="     M523.605,196.341c-0.107-0.404-0.146-0.795-0.107-1.12c0.035-0.35,0.143-0.621,0.314-0.749l0.266-0.086l0.007-0.003     c0.41,0.015,0.891,0.632,1.118,1.464c0.23,0.882,0.115,1.706-0.268,1.921l-0.12,0.032l-0.152,0.009     C524.263,197.74,523.825,197.151,523.605,196.341z"
   id="path96" />
			
				<path
   fill="#CCCCCC"
   stroke="#231815"
   stroke-width="0.5"
   stroke-linecap="round"
   stroke-linejoin="round"
   stroke-miterlimit="10"
   d="     M524.858,197.797c-0.016,0.009-0.026,0.002-0.044,0.002l0.121-0.032C524.915,197.779,524.885,197.793,524.858,197.797z"
   id="path98" />
		</g>
		<g
   id="g108">
			
				<path
   fill="#CCCCCC"
   stroke="#231815"
   stroke-width="0.5"
   stroke-linecap="round"
   stroke-linejoin="round"
   stroke-miterlimit="10"
   d="     M537.854,197.658c-0.229-0.833-0.707-1.449-1.118-1.464l14.305-7.339c0.417-0.213,1.072,0.325,1.47,1.208     c0.396,0.875,0.381,1.764-0.037,1.977l-14.886,7.54C537.968,199.363,538.085,198.539,537.854,197.658z"
   id="path102" />
			
				<path
   fill="#CCCCCC"
   stroke="#231815"
   stroke-width="0.5"
   stroke-linecap="round"
   stroke-linejoin="round"
   stroke-miterlimit="10"
   d="     M536.255,198.151c-0.106-0.403-0.146-0.795-0.106-1.119c0.033-0.351,0.143-0.621,0.314-0.75l0.264-0.085l0.009-0.004     c0.411,0.015,0.891,0.632,1.117,1.464c0.232,0.881,0.115,1.705-0.267,1.92l-0.122,0.032l-0.151,0.009     C536.912,199.551,536.474,198.963,536.255,198.151z"
   id="path104" />
			
				<path
   fill="#CCCCCC"
   stroke="#231815"
   stroke-width="0.5"
   stroke-linecap="round"
   stroke-linejoin="round"
   stroke-miterlimit="10"
   d="     M537.508,199.608c-0.016,0.009-0.025,0.002-0.044,0.002l0.122-0.032C537.564,199.589,537.534,199.604,537.508,199.608z"
   id="path106" />
		</g>
		<g
   id="g116">
			
				<path
   fill="#CCCCCC"
   stroke="#231815"
   stroke-width="0.5"
   stroke-linecap="round"
   stroke-linejoin="round"
   stroke-miterlimit="10"
   d="     M551.698,199.467c-0.229-0.832-0.707-1.449-1.118-1.463l14.305-7.34c0.417-0.213,1.072,0.325,1.471,1.208     c0.394,0.875,0.381,1.764-0.037,1.977l-14.887,7.54C551.813,201.173,551.931,200.35,551.698,199.467z"
   id="path110" />
			
				<path
   fill="#CCCCCC"
   stroke="#231815"
   stroke-width="0.5"
   stroke-linecap="round"
   stroke-linejoin="round"
   stroke-miterlimit="10"
   d="     M550.101,199.962c-0.106-0.404-0.146-0.795-0.106-1.12c0.034-0.35,0.142-0.621,0.313-0.749l0.267-0.086l0.007-0.003     c0.411,0.014,0.891,0.632,1.118,1.463c0.231,0.882,0.115,1.706-0.268,1.921l-0.122,0.032l-0.151,0.009     C550.757,201.361,550.32,200.772,550.101,199.962z"
   id="path112" />
			
				<path
   fill="#CCCCCC"
   stroke="#231815"
   stroke-width="0.5"
   stroke-linecap="round"
   stroke-linejoin="round"
   stroke-miterlimit="10"
   d="     M551.354,201.418c-0.016,0.009-0.026,0.002-0.045,0.002l0.122-0.032C551.41,201.4,551.379,201.414,551.354,201.418z"
   id="path114" />
		</g>
	</g>
</g>
</svg>
