<?xml version="1.0" encoding="UTF-8" standalone="no"?>
<svg
   xmlns:dc="http://purl.org/dc/elements/1.1/"
   xmlns:cc="http://creativecommons.org/ns#"
   xmlns:rdf="http://www.w3.org/1999/02/22-rdf-syntax-ns#"
   xmlns:svg="http://www.w3.org/2000/svg"
   xmlns="http://www.w3.org/2000/svg"
   xmlns:sodipodi="http://sodipodi.sourceforge.net/DTD/sodipodi-0.dtd"
   xmlns:inkscape="http://www.inkscape.org/namespaces/inkscape"
   version="1.1"
   id="图层_1"
   x="0px"
   y="0px"
   width="124.404px"
   height="98.737px"
   viewBox="0 0 124.404 98.737"
   enable-background="new 0 0 124.404 98.737"
   xml:space="preserve"
   sodipodi:docname="冷却处理-10.svg"><metadata
   id="metadata56"><rdf:RDF><cc:Work
       rdf:about=""><dc:format>image/svg+xml</dc:format><dc:type
         rdf:resource="http://purl.org/dc/dcmitype/StillImage" /></cc:Work></rdf:RDF></metadata><defs
   id="defs54" /><sodipodi:namedview
   pagecolor="#ffffff"
   bordercolor="#666666"
   borderopacity="1"
   objecttolerance="10"
   gridtolerance="10"
   guidetolerance="10"
   inkscape:pageopacity="0"
   inkscape:pageshadow="2"
   inkscape:window-width="640"
   inkscape:window-height="480"
   id="namedview52" />
<g
   id="g49">
	
		<rect
   x="102.195"
   y="15.915"
   fill="#808184"
   stroke="#1B1B1B"
   stroke-width="0.5"
   stroke-linecap="round"
   stroke-linejoin="round"
   stroke-miterlimit="10"
   width="19.361"
   height="19.361"
   id="rect2" />
	
		<rect
   x="45.266"
   y="34.425"
   fill="#D8D8CB"
   stroke="#1B1B1B"
   stroke-width="0.5"
   stroke-linecap="round"
   stroke-linejoin="round"
   stroke-miterlimit="10"
   width="20.393"
   height="15.006"
   id="rect4" />
	
		<path
   fill="#808184"
   stroke="#1B1B1B"
   stroke-width="0.5"
   stroke-linecap="round"
   stroke-linejoin="round"
   stroke-miterlimit="10"
   d="   M59.449,55.125h-8.543V16.063C50.822,14.708,50.725,8.89,54.67,4.58c1.809-1.974,5.164-4.326,10.893-4.326h36.754   c1.184-0.027,8.107-0.022,12.748,4.443c2.572,2.475,3.932,5.861,3.932,9.794v14.004h-8.543V14.491c0-2.129-0.748-3.097-1.311-3.639   c-1.92-1.847-5.666-2.114-6.594-2.059l-0.164,0.002H65.563c-2.115,0-3.609,0.499-4.568,1.526c-1.471,1.579-1.625,4.327-1.561,5.253   l0.016,0.339V55.125z"
   id="path6" />
	
		<rect
   x="0.25"
   y="10.108"
   fill="#808184"
   stroke="#1B1B1B"
   stroke-width="0.5"
   stroke-linecap="round"
   stroke-linejoin="round"
   stroke-miterlimit="10"
   width="45.016"
   height="45.017"
   id="rect8" />
	
		<rect
   x="2.445"
   y="12.304"
   fill="#D8D8CB"
   stroke="#1B1B1B"
   stroke-width="0.5"
   stroke-linecap="round"
   stroke-linejoin="round"
   stroke-miterlimit="10"
   width="40.627"
   height="40.626"
   id="rect10" />
	
		<line
   fill="none"
   stroke="#5B5B42"
   stroke-width="0.5"
   stroke-linecap="round"
   stroke-linejoin="round"
   stroke-miterlimit="10"
   x1="22.758"
   y1="12.304"
   x2="22.758"
   y2="52.93"
   id="line12" />
	<linearGradient
   id="SVGID_1_"
   gradientUnits="userSpaceOnUse"
   x1="60.1318"
   y1="91.3682"
   x2="60.1318"
   y2="55.125">
		<stop
   offset="0"
   style="stop-color:#6D7077"
   id="stop14" />
		<stop
   offset="0.2217"
   style="stop-color:#AEB0B2"
   id="stop16" />
		<stop
   offset="0.5"
   style="stop-color:#C8C8C8"
   id="stop18" />
		<stop
   offset="0.7685"
   style="stop-color:#AEB0B2"
   id="stop20" />
		<stop
   offset="1"
   style="stop-color:#6D7077"
   id="stop22" />
	</linearGradient>
	
		<rect
   x="0.25"
   y="55.125"
   fill="url(#SVGID_1_)"
   stroke="#1B1B1B"
   stroke-width="0.5"
   stroke-linecap="round"
   stroke-linejoin="round"
   stroke-miterlimit="10"
   width="119.764"
   height="36.243"
   id="rect25" />
	
		<rect
   x="2.445"
   y="55.125"
   fill="#D8D8CB"
   stroke="#1B1B1B"
   stroke-width="0.5"
   stroke-linecap="round"
   stroke-linejoin="round"
   stroke-miterlimit="10"
   width="2.195"
   height="43.362"
   id="rect27" />
	<rect
   x="0.25"
   y="55.125"
   fill="#1B1B1B"
   width="2.195"
   height="36.243"
   id="rect29" />
	
		<rect
   x="120.014"
   y="55.125"
   fill="#D8D8CB"
   stroke="#1B1B1B"
   stroke-width="0.5"
   stroke-linecap="round"
   stroke-linejoin="round"
   stroke-miterlimit="10"
   width="2.195"
   height="43.362"
   id="rect31" />
	<rect
   x="122.209"
   y="55.125"
   fill="#1B1B1B"
   width="2.195"
   height="36.243"
   id="rect33" />
	
		<rect
   x="65.658"
   y="20.66"
   fill="#D8D8CB"
   stroke="#1B1B1B"
   stroke-width="0.5"
   stroke-linecap="round"
   stroke-linejoin="round"
   stroke-miterlimit="10"
   width="52.674"
   height="37.371"
   id="rect35" />
	
		<rect
   x="85.586"
   y="28.495"
   fill="#E5E5E5"
   stroke="#1B1B1B"
   stroke-width="0.5"
   stroke-linecap="round"
   stroke-linejoin="round"
   stroke-miterlimit="10"
   width="12.816"
   height="18.796"
   id="rect37" />
	
		<line
   fill="none"
   stroke="#FF0000"
   stroke-width="0.5"
   stroke-linecap="round"
   stroke-linejoin="round"
   stroke-miterlimit="10"
   x1="85.586"
   y1="40.743"
   x2="98.402"
   y2="40.743"
   id="line39" />
	<rect
   x="65.658"
   y="52.041"
   fill="#808184"
   width="32.744"
   height="3.084"
   id="rect41" />
	<polyline
   fill="none"
   stroke="#808184"
   stroke-miterlimit="10"
   points="76.609,67.891 76.609,59.171 82.563,59.171 82.563,67.891     "
   id="polyline43" />
	<polyline
   fill="none"
   stroke="#808184"
   stroke-miterlimit="10"
   points="101.428,67.891 101.428,59.171 107.381,59.171    107.381,67.891  "
   id="polyline45" />
	<line
   fill="none"
   stroke="#5B5B42"
   stroke-width="0.5"
   stroke-miterlimit="10"
   x1="4.641"
   y1="80.217"
   x2="120.014"
   y2="80.217"
   id="line47" />
</g>
</svg>
