<?xml version="1.0" encoding="UTF-8" standalone="no"?>
<svg
   xmlns:dc="http://purl.org/dc/elements/1.1/"
   xmlns:cc="http://creativecommons.org/ns#"
   xmlns:rdf="http://www.w3.org/1999/02/22-rdf-syntax-ns#"
   xmlns:svg="http://www.w3.org/2000/svg"
   xmlns="http://www.w3.org/2000/svg"
   xmlns:sodipodi="http://sodipodi.sourceforge.net/DTD/sodipodi-0.dtd"
   xmlns:inkscape="http://www.inkscape.org/namespaces/inkscape"
   version="1.1"
   id="图层_1"
   x="0px"
   y="0px"
   width="69.115px"
   height="132.167px"
   viewBox="0 0 69.115 132.167"
   enable-background="new 0 0 69.115 132.167"
   xml:space="preserve"
   sodipodi:docname="冷却处理-02.svg"><metadata
   id="metadata113"><rdf:RDF><cc:Work
       rdf:about=""><dc:format>image/svg+xml</dc:format><dc:type
         rdf:resource="http://purl.org/dc/dcmitype/StillImage" /></cc:Work></rdf:RDF></metadata><defs
   id="defs111" /><sodipodi:namedview
   pagecolor="#ffffff"
   bordercolor="#666666"
   borderopacity="1"
   objecttolerance="10"
   gridtolerance="10"
   guidetolerance="10"
   inkscape:pageopacity="0"
   inkscape:pageshadow="2"
   inkscape:window-width="640"
   inkscape:window-height="480"
   id="namedview109" />
<g
   id="g106">
	
		<rect
   x="0.25"
   y="2.686"
   fill="#F7F7F0"
   stroke="#231815"
   stroke-width="0.5"
   stroke-linecap="round"
   stroke-linejoin="round"
   stroke-miterlimit="10"
   width="63.965"
   height="120.316"
   id="rect2" />
	
		<rect
   x="0.25"
   y="2.686"
   fill="#F7F7F0"
   stroke="#231815"
   stroke-width="0.5"
   stroke-linecap="round"
   stroke-linejoin="round"
   stroke-miterlimit="10"
   width="63.965"
   height="18.885"
   id="rect4" />
	
		<rect
   x="0.25"
   y="21.571"
   fill="#F7F7F0"
   stroke="#231815"
   stroke-width="0.5"
   stroke-linecap="round"
   stroke-linejoin="round"
   stroke-miterlimit="10"
   width="63.965"
   height="18.884"
   id="rect6" />
	
		<rect
   x="10.1"
   y="6.646"
   fill="#3F3F4C"
   stroke="#231815"
   stroke-width="0.5"
   stroke-miterlimit="10"
   width="44.266"
   height="10.965"
   id="rect8" />
	
		<rect
   x="10.1"
   y="6.646"
   fill="#F7F7F0"
   stroke="#231815"
   stroke-width="0.5"
   stroke-linecap="round"
   stroke-linejoin="round"
   stroke-miterlimit="10"
   width="22.133"
   height="10.965"
   id="rect10" />
	
		<line
   fill="none"
   stroke="#231815"
   stroke-width="0.5"
   stroke-linecap="round"
   stroke-linejoin="round"
   stroke-miterlimit="10"
   x1="14.82"
   y1="9.896"
   x2="27.512"
   y2="9.896"
   id="line12" />
	
		<rect
   x="22.992"
   y="47.156"
   fill="#3F3F4C"
   stroke="#231815"
   stroke-width="0.5"
   stroke-miterlimit="10"
   width="18.48"
   height="3.25"
   id="rect14" />
	<line
   fill="none"
   stroke="#231815"
   stroke-width="0.5"
   stroke-miterlimit="10"
   x1="22.992"
   y1="53.553"
   x2="41.473"
   y2="53.553"
   id="line16" />
	<g
   id="g24">
		<rect
   x="0.25"
   y="81.139"
   fill="#FFCC00"
   width="63.965"
   height="6.228"
   id="rect18" />
		<rect
   x="0.25"
   y="74.912"
   fill="#FF0000"
   width="63.965"
   height="6.227"
   id="rect20" />
		<rect
   x="0.25"
   y="68.684"
   fill="#990000"
   width="63.965"
   height="6.228"
   id="rect22" />
	</g>
	<g
   id="g60">
		
			<rect
   x="9.73"
   y="95.788"
   fill="#F7F7F0"
   stroke="#5E5D4E"
   stroke-width="0.5"
   stroke-linecap="round"
   stroke-linejoin="round"
   stroke-miterlimit="10"
   width="12.902"
   height="19.493"
   id="rect26" />
		
			<polyline
   fill="none"
   stroke="#5E5D4E"
   stroke-width="0.25"
   stroke-linecap="round"
   stroke-linejoin="round"
   stroke-miterlimit="10"
   points="    12.959,95.788 12.543,96.214 10.691,98.055 9.73,99.017   "
   id="polyline28" />
		
			<polyline
   fill="none"
   stroke="#5E5D4E"
   stroke-width="0.25"
   stroke-linecap="round"
   stroke-linejoin="round"
   stroke-miterlimit="10"
   points="    16.662,95.788 16.236,96.214 14.396,98.066 12.543,99.905 10.705,101.758 9.73,102.719   "
   id="polyline30" />
		
			<polyline
   fill="none"
   stroke="#5E5D4E"
   stroke-width="0.25"
   stroke-linecap="round"
   stroke-linejoin="round"
   stroke-miterlimit="10"
   points="    9.73,106.412 10.705,105.449 12.543,103.597 14.396,101.758 16.236,99.905 18.089,98.066 19.928,96.214 20.354,95.788   "
   id="polyline32" />
		
			<polyline
   fill="none"
   stroke="#5E5D4E"
   stroke-width="0.25"
   stroke-linecap="round"
   stroke-linejoin="round"
   stroke-miterlimit="10"
   points="    9.73,110.104 10.691,109.141 12.543,107.289 14.396,105.449 16.236,103.597 18.089,101.758 19.928,99.905 21.779,98.055     22.633,97.201   "
   id="polyline34" />
		
			<polyline
   fill="none"
   stroke="#5E5D4E"
   stroke-width="0.25"
   stroke-linecap="round"
   stroke-linejoin="round"
   stroke-miterlimit="10"
   points="    9.73,113.796 10.691,112.833 12.543,110.98 14.396,109.141 16.236,107.289 18.089,105.449 19.928,103.597 21.779,101.758     22.633,100.892   "
   id="polyline36" />
		
			<polyline
   fill="none"
   stroke="#5E5D4E"
   stroke-width="0.25"
   stroke-linecap="round"
   stroke-linejoin="round"
   stroke-miterlimit="10"
   points="    11.934,115.281 12.543,114.672 14.385,112.833 16.236,110.98 18.089,109.141 19.928,107.289 21.779,105.449 22.633,104.584   "
   id="polyline38" />
		
			<polyline
   fill="none"
   stroke="#5E5D4E"
   stroke-width="0.25"
   stroke-linecap="round"
   stroke-linejoin="round"
   stroke-miterlimit="10"
   points="    15.627,115.281 16.236,114.685 18.089,112.833 19.928,110.98 21.779,109.141 22.633,108.288   "
   id="polyline40" />
		
			<polyline
   fill="none"
   stroke="#5E5D4E"
   stroke-width="0.25"
   stroke-linecap="round"
   stroke-linejoin="round"
   stroke-miterlimit="10"
   points="    22.633,111.98 21.779,112.833 19.928,114.672 19.33,115.281   "
   id="polyline42" />
		
			<polyline
   fill="none"
   stroke="#5E5D4E"
   stroke-width="0.25"
   stroke-linecap="round"
   stroke-linejoin="round"
   stroke-miterlimit="10"
   points="    19.514,95.788 19.928,96.214 21.779,98.055 22.633,98.906   "
   id="polyline44" />
		
			<polyline
   fill="none"
   stroke="#5E5D4E"
   stroke-width="0.25"
   stroke-linecap="round"
   stroke-linejoin="round"
   stroke-miterlimit="10"
   points="    15.811,95.788 16.236,96.214 18.089,98.066 19.928,99.905 21.779,101.758 22.633,102.61   "
   id="polyline46" />
		
			<polyline
   fill="none"
   stroke="#5E5D4E"
   stroke-width="0.25"
   stroke-linecap="round"
   stroke-linejoin="round"
   stroke-miterlimit="10"
   points="    22.633,106.302 21.779,105.449 19.928,103.597 18.089,101.758 16.236,99.905 14.396,98.066 12.543,96.214 12.117,95.788   "
   id="polyline48" />
		
			<polyline
   fill="none"
   stroke="#5E5D4E"
   stroke-width="0.25"
   stroke-linecap="round"
   stroke-linejoin="round"
   stroke-miterlimit="10"
   points="    22.633,109.994 21.779,109.141 19.928,107.289 18.089,105.449 16.236,103.597 14.396,101.758 12.543,99.905 10.691,98.055     9.73,97.092   "
   id="polyline50" />
		
			<polyline
   fill="none"
   stroke="#5E5D4E"
   stroke-width="0.25"
   stroke-linecap="round"
   stroke-linejoin="round"
   stroke-miterlimit="10"
   points="    22.633,113.685 21.779,112.833 19.928,110.98 18.089,109.141 16.236,107.289 14.396,105.449 12.543,103.597 10.705,101.758     9.73,100.783   "
   id="polyline52" />
		
			<polyline
   fill="none"
   stroke="#5E5D4E"
   stroke-width="0.25"
   stroke-linecap="round"
   stroke-linejoin="round"
   stroke-miterlimit="10"
   points="    20.537,115.281 19.928,114.672 18.089,112.833 16.236,110.98 14.396,109.141 12.543,107.289 10.705,105.449 9.73,104.475   "
   id="polyline54" />
		
			<polyline
   fill="none"
   stroke="#5E5D4E"
   stroke-width="0.25"
   stroke-linecap="round"
   stroke-linejoin="round"
   stroke-miterlimit="10"
   points="    9.73,108.179 10.691,109.141 12.543,110.98 14.385,112.833 16.236,114.685 16.846,115.281   "
   id="polyline56" />
		
			<polyline
   fill="none"
   stroke="#5E5D4E"
   stroke-width="0.25"
   stroke-linecap="round"
   stroke-linejoin="round"
   stroke-miterlimit="10"
   points="    13.141,115.281 12.543,114.672 10.691,112.833 9.73,111.871   "
   id="polyline58" />
	</g>
	<g
   id="g96">
		
			<rect
   x="41.834"
   y="95.788"
   fill="#F7F7F0"
   stroke="#5E5D4E"
   stroke-width="0.5"
   stroke-linecap="round"
   stroke-linejoin="round"
   stroke-miterlimit="10"
   width="12.902"
   height="19.493"
   id="rect62" />
		
			<polyline
   fill="none"
   stroke="#5E5D4E"
   stroke-width="0.25"
   stroke-linecap="round"
   stroke-linejoin="round"
   stroke-miterlimit="10"
   points="    54.736,99.017 53.773,98.055 51.922,96.214 51.506,95.788   "
   id="polyline64" />
		
			<polyline
   fill="none"
   stroke="#5E5D4E"
   stroke-width="0.25"
   stroke-linecap="round"
   stroke-linejoin="round"
   stroke-miterlimit="10"
   points="    54.736,102.719 53.762,101.758 51.922,99.905 50.068,98.066 48.23,96.214 47.803,95.788   "
   id="polyline66" />
		
			<polyline
   fill="none"
   stroke="#5E5D4E"
   stroke-width="0.25"
   stroke-linecap="round"
   stroke-linejoin="round"
   stroke-miterlimit="10"
   points="    44.111,95.788 44.537,96.214 46.377,98.066 48.23,99.905 50.068,101.758 51.922,103.597 53.762,105.449 54.736,106.412   "
   id="polyline68" />
		
			<polyline
   fill="none"
   stroke="#5E5D4E"
   stroke-width="0.25"
   stroke-linecap="round"
   stroke-linejoin="round"
   stroke-miterlimit="10"
   points="    41.834,97.201 42.686,98.055 44.537,99.905 46.377,101.758 48.23,103.597 50.068,105.449 51.922,107.289 53.773,109.141     54.736,110.104   "
   id="polyline70" />
		
			<polyline
   fill="none"
   stroke="#5E5D4E"
   stroke-width="0.25"
   stroke-linecap="round"
   stroke-linejoin="round"
   stroke-miterlimit="10"
   points="    41.834,100.892 42.686,101.758 44.537,103.597 46.377,105.449 48.23,107.289 50.068,109.141 51.922,110.98 53.773,112.833     54.736,113.796   "
   id="polyline72" />
		
			<polyline
   fill="none"
   stroke="#5E5D4E"
   stroke-width="0.25"
   stroke-linecap="round"
   stroke-linejoin="round"
   stroke-miterlimit="10"
   points="    41.834,104.584 42.686,105.449 44.537,107.289 46.377,109.141 48.23,110.98 50.08,112.833 51.922,114.672 52.531,115.281   "
   id="polyline74" />
		
			<polyline
   fill="none"
   stroke="#5E5D4E"
   stroke-width="0.25"
   stroke-linecap="round"
   stroke-linejoin="round"
   stroke-miterlimit="10"
   points="    41.834,108.288 42.686,109.141 44.537,110.98 46.377,112.833 48.23,114.685 48.839,115.281   "
   id="polyline76" />
		
			<polyline
   fill="none"
   stroke="#5E5D4E"
   stroke-width="0.25"
   stroke-linecap="round"
   stroke-linejoin="round"
   stroke-miterlimit="10"
   points="    45.135,115.281 44.537,114.672 42.686,112.833 41.834,111.98   "
   id="polyline78" />
		
			<polyline
   fill="none"
   stroke="#5E5D4E"
   stroke-width="0.25"
   stroke-linecap="round"
   stroke-linejoin="round"
   stroke-miterlimit="10"
   points="    41.834,98.906 42.686,98.055 44.537,96.214 44.951,95.788   "
   id="polyline80" />
		
			<polyline
   fill="none"
   stroke="#5E5D4E"
   stroke-width="0.25"
   stroke-linecap="round"
   stroke-linejoin="round"
   stroke-miterlimit="10"
   points="    41.834,102.61 42.686,101.758 44.537,99.905 46.377,98.066 48.23,96.214 48.656,95.788   "
   id="polyline82" />
		
			<polyline
   fill="none"
   stroke="#5E5D4E"
   stroke-width="0.25"
   stroke-linecap="round"
   stroke-linejoin="round"
   stroke-miterlimit="10"
   points="    52.348,95.788 51.922,96.214 50.068,98.066 48.23,99.905 46.377,101.758 44.537,103.597 42.686,105.449 41.834,106.302   "
   id="polyline84" />
		
			<polyline
   fill="none"
   stroke="#5E5D4E"
   stroke-width="0.25"
   stroke-linecap="round"
   stroke-linejoin="round"
   stroke-miterlimit="10"
   points="    54.736,97.092 53.773,98.055 51.922,99.905 50.068,101.758 48.23,103.597 46.377,105.449 44.537,107.289 42.686,109.141     41.834,109.994   "
   id="polyline86" />
		
			<polyline
   fill="none"
   stroke="#5E5D4E"
   stroke-width="0.25"
   stroke-linecap="round"
   stroke-linejoin="round"
   stroke-miterlimit="10"
   points="    54.736,100.783 53.762,101.758 51.922,103.597 50.068,105.449 48.23,107.289 46.377,109.141 44.537,110.98 42.686,112.833     41.834,113.685   "
   id="polyline88" />
		
			<polyline
   fill="none"
   stroke="#5E5D4E"
   stroke-width="0.25"
   stroke-linecap="round"
   stroke-linejoin="round"
   stroke-miterlimit="10"
   points="    54.736,104.475 53.762,105.449 51.922,107.289 50.068,109.141 48.23,110.98 46.377,112.833 44.537,114.672 43.928,115.281   "
   id="polyline90" />
		
			<polyline
   fill="none"
   stroke="#5E5D4E"
   stroke-width="0.25"
   stroke-linecap="round"
   stroke-linejoin="round"
   stroke-miterlimit="10"
   points="    47.621,115.281 48.23,114.685 50.08,112.833 51.922,110.98 53.773,109.141 54.736,108.179   "
   id="polyline92" />
		
			<polyline
   fill="none"
   stroke="#5E5D4E"
   stroke-width="0.25"
   stroke-linecap="round"
   stroke-linejoin="round"
   stroke-miterlimit="10"
   points="    54.736,111.871 53.773,112.833 51.922,114.672 51.324,115.281   "
   id="polyline94" />
	</g>
	
		<polygon
   fill="#C9C8B1"
   stroke="#231815"
   stroke-width="0.5"
   stroke-linecap="round"
   stroke-linejoin="round"
   stroke-miterlimit="10"
   points="   68.865,120.566 64.215,123.002 64.215,2.686 68.865,0.25  "
   id="polygon98" />
	
		<polygon
   fill="#C9C8B1"
   stroke="#231815"
   stroke-width="0.5"
   stroke-linecap="round"
   stroke-linejoin="round"
   stroke-miterlimit="10"
   points="   68.865,0.25 4.9,0.25 0.25,2.686 64.215,2.686  "
   id="polygon100" />
	
		<polygon
   fill="#C9C8B1"
   stroke="#231815"
   stroke-width="0.5"
   stroke-linecap="round"
   stroke-linejoin="round"
   stroke-miterlimit="10"
   points="   10.074,131.917 7.561,131.917 7.559,123.001 12.586,123.001  "
   id="polygon102" />
	
		<polygon
   fill="#C9C8B1"
   stroke="#231815"
   stroke-width="0.5"
   stroke-linecap="round"
   stroke-linejoin="round"
   stroke-miterlimit="10"
   points="   54.391,131.917 56.904,131.917 56.906,123.001 51.881,123.001  "
   id="polygon104" />
</g>
</svg>
