<?xml version="1.0" encoding="UTF-8" standalone="no"?>
<svg
   xmlns:dc="http://purl.org/dc/elements/1.1/"
   xmlns:cc="http://creativecommons.org/ns#"
   xmlns:rdf="http://www.w3.org/1999/02/22-rdf-syntax-ns#"
   xmlns:svg="http://www.w3.org/2000/svg"
   xmlns="http://www.w3.org/2000/svg"
   xmlns:sodipodi="http://sodipodi.sourceforge.net/DTD/sodipodi-0.dtd"
   xmlns:inkscape="http://www.inkscape.org/namespaces/inkscape"
   version="1.1"
   id="图层_1"
   x="0px"
   y="0px"
   width="89.928px"
   height="115.073px"
   viewBox="0 0 89.928 115.073"
   enable-background="new 0 0 89.928 115.073"
   xml:space="preserve"
   sodipodi:docname="冷却处理-07.svg"><metadata
   id="metadata105"><rdf:RDF><cc:Work
       rdf:about=""><dc:format>image/svg+xml</dc:format><dc:type
         rdf:resource="http://purl.org/dc/dcmitype/StillImage" /></cc:Work></rdf:RDF></metadata><defs
   id="defs103" /><sodipodi:namedview
   pagecolor="#ffffff"
   bordercolor="#666666"
   borderopacity="1"
   objecttolerance="10"
   gridtolerance="10"
   guidetolerance="10"
   inkscape:pageopacity="0"
   inkscape:pageshadow="2"
   inkscape:window-width="640"
   inkscape:window-height="480"
   id="namedview101" />
<g
   id="g98">
	<linearGradient
   id="SVGID_1_"
   gradientUnits="userSpaceOnUse"
   x1="6.4902"
   y1="94.0938"
   x2="78.7773"
   y2="94.0938">
		<stop
   offset="0"
   style="stop-color:#9A9A9A"
   id="stop2" />
		<stop
   offset="0.2167"
   style="stop-color:#B0B0B0"
   id="stop4" />
		<stop
   offset="0.5"
   style="stop-color:#C8C8C8"
   id="stop6" />
		<stop
   offset="0.803"
   style="stop-color:#B0B0B0"
   id="stop8" />
		<stop
   offset="1"
   style="stop-color:#9A9A9A"
   id="stop10" />
	</linearGradient>
	<path
   fill="url(#SVGID_1_)"
   stroke="#1B1B1B"
   stroke-width="0.5"
   stroke-miterlimit="10"
   d="M78.777,75.547v32.457   c0,1.398-4.832,2.653-12.469,3.501l-0.365-3.467L64.23,91.908c-0.254-2.324-3.381-4.104-7.01-4.104c-3.627,0-6.754,1.779-7,4.104   l-1.467,13.74l-0.738,6.942c-1.754,0.034-3.551,0.05-5.383,0.05c-1.83,0-3.627-0.016-5.381-0.05l-0.73-6.9l-1.467-13.782   c-0.246-2.324-3.381-4.104-7.01-4.104c-3.627,0-6.756,1.779-7.002,4.104l-1.619,15.231l-0.465,4.367   c-7.629-0.848-12.469-2.104-12.469-3.501V75.547H78.777z"
   id="path13" />
	<linearGradient
   id="SVGID_2_"
   gradientUnits="userSpaceOnUse"
   x1="59.5195"
   y1="54.1445"
   x2="89.6777"
   y2="54.1445">
		<stop
   offset="0"
   style="stop-color:#9A9A9A"
   id="stop15" />
		<stop
   offset="0.2167"
   style="stop-color:#B0B0B0"
   id="stop17" />
		<stop
   offset="0.5"
   style="stop-color:#C8C8C8"
   id="stop19" />
		<stop
   offset="0.803"
   style="stop-color:#B0B0B0"
   id="stop21" />
		<stop
   offset="1"
   style="stop-color:#9A9A9A"
   id="stop23" />
	</linearGradient>
	<polygon
   fill="url(#SVGID_2_)"
   stroke="#1B1B1B"
   stroke-width="0.5"
   stroke-miterlimit="10"
   points="89.678,15.381 89.678,108.039    86.924,108.039 86.924,17.051 62.273,4.227 62.273,9.574 59.52,9.574 59.52,0.25 60.596,0.25 62.273,1.123 86.924,13.949  "
   id="polygon26" />
	<linearGradient
   id="SVGID_3_"
   gradientUnits="userSpaceOnUse"
   x1="0.25"
   y1="54.127"
   x2="85.0156"
   y2="54.127">
		<stop
   offset="0"
   style="stop-color:#9A9A9A"
   id="stop28" />
		<stop
   offset="0.2167"
   style="stop-color:#B0B0B0"
   id="stop30" />
		<stop
   offset="0.5"
   style="stop-color:#C8C8C8"
   id="stop32" />
		<stop
   offset="0.803"
   style="stop-color:#B0B0B0"
   id="stop34" />
		<stop
   offset="1"
   style="stop-color:#9A9A9A"
   id="stop36" />
	</linearGradient>
	<path
   fill="url(#SVGID_3_)"
   stroke="#1B1B1B"
   stroke-width="0.5"
   stroke-miterlimit="10"
   d="M85.016,25.002V77.81   c0,3.002-18.971,5.442-42.383,5.442c-11.639,0-22.182-0.602-29.846-1.577c-0.932-0.118-1.813-0.246-2.645-0.372   C3.971,80.362,0.25,79.142,0.25,77.81V25.002H85.016z"
   id="path39" />
	<path
   fill="#969696"
   stroke="#1B1B1B"
   stroke-width="0.5"
   stroke-miterlimit="10"
   d="M85.016,25.002c0,3-18.971,5.442-42.383,5.442   c-4.076,0-8.01-0.076-11.738-0.212c-0.967-0.034-1.918-0.076-2.857-0.119C11.822,29.351,0.25,27.342,0.25,25.002   c0-3,18.979-5.434,42.383-5.434C66.045,19.568,85.016,22.002,85.016,25.002z"
   id="path41" />
	<linearGradient
   id="SVGID_4_"
   gradientUnits="userSpaceOnUse"
   x1="14.9473"
   y1="16.4395"
   x2="70.3262"
   y2="16.4395">
		<stop
   offset="0"
   style="stop-color:#9A9A9A"
   id="stop43" />
		<stop
   offset="0.2167"
   style="stop-color:#B0B0B0"
   id="stop45" />
		<stop
   offset="0.5"
   style="stop-color:#C8C8C8"
   id="stop47" />
		<stop
   offset="0.803"
   style="stop-color:#B0B0B0"
   id="stop49" />
		<stop
   offset="1"
   style="stop-color:#9A9A9A"
   id="stop51" />
	</linearGradient>
	<path
   fill="url(#SVGID_4_)"
   stroke="#1B1B1B"
   stroke-width="0.5"
   stroke-miterlimit="10"
   d="M42.637,7.003   c-15.293,0-27.689,1.07-27.689,3.646v12.998c0,1.231,12.396,2.229,27.689,2.229s27.689-0.998,27.689-2.229V10.649   C70.326,8.074,57.93,7.003,42.637,7.003z"
   id="path54" />
	<linearGradient
   id="SVGID_5_"
   gradientUnits="userSpaceOnUse"
   x1="19.4238"
   y1="97.4717"
   x2="36.5215"
   y2="97.4717">
		<stop
   offset="0"
   style="stop-color:#494949"
   id="stop56" />
		<stop
   offset="0.5"
   style="stop-color:#888888"
   id="stop58" />
		<stop
   offset="1"
   style="stop-color:#494949"
   id="stop60" />
	</linearGradient>
	<path
   fill="url(#SVGID_5_)"
   stroke="#1B1B1B"
   stroke-width="0.5"
   stroke-miterlimit="10"
   d="M36.521,105.69   c-6.951,0.297-13.146,0.949-17.098,1.449l1.619-15.231c0.246-2.324,3.375-4.104,7.002-4.104c3.629,0,6.764,1.779,7.01,4.104   L36.521,105.69z"
   id="path63" />
	<linearGradient
   id="SVGID_6_"
   gradientUnits="userSpaceOnUse"
   x1="48.7539"
   y1="97.9214"
   x2="65.9434"
   y2="97.9214">
		<stop
   offset="0"
   style="stop-color:#494949"
   id="stop65" />
		<stop
   offset="0.5"
   style="stop-color:#888888"
   id="stop67" />
		<stop
   offset="1"
   style="stop-color:#494949"
   id="stop69" />
	</linearGradient>
	<path
   fill="url(#SVGID_6_)"
   stroke="#1B1B1B"
   stroke-width="0.5"
   stroke-miterlimit="10"
   d="M65.943,108.039   c-5.094-1.449-11.113-2.153-17.189-2.391l1.467-13.74c0.246-2.324,3.373-4.104,7-4.104c3.629,0,6.756,1.779,7.01,4.104   L65.943,108.039z"
   id="path72" />
	
		<rect
   x="24.557"
   y="7.7"
   fill="#C9C9C9"
   stroke="#1B1B1B"
   stroke-width="0.5"
   stroke-miterlimit="10"
   width="2.643"
   height="17.797"
   id="rect74" />
	<polyline
   fill="#C9C9C9"
   stroke="#1B1B1B"
   stroke-width="0.5"
   stroke-miterlimit="10"
   points="34.59,7.107 34.59,25.782    34.59,25.807 35.717,25.807 37.234,25.807 37.234,7.056  "
   id="polyline76" />
	<path
   fill="#C9C9C9"
   stroke="#1B1B1B"
   stroke-width="0.5"
   stroke-miterlimit="10"
   d="M12.787,28.57v84.225   c-0.932-0.188-1.813-0.39-2.645-0.591V28.57H12.787z"
   id="path78" />
	<path
   fill="#C9C9C9"
   stroke="#1B1B1B"
   stroke-width="0.5"
   stroke-miterlimit="10"
   d="M30.297,30.176v84.543   c-0.906,0.059-1.814,0.2-2.645,0V30.176H30.297z"
   id="path80" />
	
		<polygon
   fill="#C9C9C9"
   stroke="#1B1B1B"
   stroke-width="0.5"
   stroke-linecap="round"
   stroke-linejoin="round"
   stroke-miterlimit="10"
   points="   12.789,28.878 10.146,28.574 24.557,25.497 27.199,25.497  "
   id="polygon82" />
	
		<path
   fill="#C9C9C9"
   stroke="#1B1B1B"
   stroke-width="0.5"
   stroke-linecap="round"
   stroke-linejoin="round"
   stroke-miterlimit="10"
   d="   M37.23,25.686l-6.723,4.546c-0.967-0.033-1.916-0.073-2.855-0.113l6.934-4.433H37.23z"
   id="path84" />
	<polyline
   fill="#C9C9C9"
   stroke="#1B1B1B"
   stroke-width="0.5"
   stroke-miterlimit="10"
   points="48.033,7.056 48.033,25.807    49.551,25.807 50.678,25.807 50.678,25.782 50.678,7.107  "
   id="polyline86" />
	<path
   fill="#C9C9C9"
   stroke="#1B1B1B"
   stroke-width="0.5"
   stroke-miterlimit="10"
   d="M54.971,30.176v84.543   c0.904,0.059,1.813,0.2,2.645,0V30.176H54.971z"
   id="path88" />
	
		<path
   fill="#C9C9C9"
   stroke="#1B1B1B"
   stroke-width="0.5"
   stroke-linecap="round"
   stroke-linejoin="round"
   stroke-miterlimit="10"
   d="   M48.037,25.686l6.721,4.546c0.967-0.033,1.916-0.073,2.857-0.113l-6.934-4.433H48.037z"
   id="path90" />
	
		<rect
   x="58.066"
   y="7.7"
   fill="#C9C9C9"
   stroke="#1B1B1B"
   stroke-width="0.5"
   stroke-miterlimit="10"
   width="2.645"
   height="17.797"
   id="rect92" />
	<path
   fill="#C9C9C9"
   stroke="#1B1B1B"
   stroke-width="0.5"
   stroke-miterlimit="10"
   d="M72.479,28.57v84.225   c0.934-0.188,1.814-0.39,2.646-0.591V28.57H72.479z"
   id="path94" />
	
		<polygon
   fill="#C9C9C9"
   stroke="#1B1B1B"
   stroke-width="0.5"
   stroke-linecap="round"
   stroke-linejoin="round"
   stroke-miterlimit="10"
   points="   72.477,28.878 75.121,28.574 60.711,25.497 58.066,25.497  "
   id="polygon96" />
</g>
</svg>
