<?xml version="1.0" encoding="UTF-8" standalone="no"?>
<svg
   xmlns:a="http://ns.adobe.com/AdobeSVGViewerExtensions/3.0/"
   xmlns:dc="http://purl.org/dc/elements/1.1/"
   xmlns:cc="http://creativecommons.org/ns#"
   xmlns:rdf="http://www.w3.org/1999/02/22-rdf-syntax-ns#"
   xmlns:svg="http://www.w3.org/2000/svg"
   xmlns="http://www.w3.org/2000/svg"
   xmlns:sodipodi="http://sodipodi.sourceforge.net/DTD/sodipodi-0.dtd"
   xmlns:inkscape="http://www.inkscape.org/namespaces/inkscape"
   version="1.1"
   id="图层_1"
   x="0px"
   y="0px"
   width="63px"
   height="111px"
   viewBox="0 0 63 111"
   enable-background="new 0 0 63 111"
   xml:space="preserve"
   sodipodi:docname="搅拌机_10-01.svg"><metadata
   id="metadata276"><rdf:RDF><cc:Work
       rdf:about=""><dc:format>image/svg+xml</dc:format><dc:type
         rdf:resource="http://purl.org/dc/dcmitype/StillImage" /></cc:Work></rdf:RDF></metadata><defs
   id="defs274" /><sodipodi:namedview
   pagecolor="#ffffff"
   bordercolor="#666666"
   borderopacity="1"
   objecttolerance="10"
   gridtolerance="10"
   guidetolerance="10"
   inkscape:pageopacity="0"
   inkscape:pageshadow="2"
   inkscape:window-width="640"
   inkscape:window-height="480"
   id="namedview272" />
<g
   id="g269">
	<g
   id="g13">
		<linearGradient
   id="SVGID_1_"
   gradientUnits="userSpaceOnUse"
   x1="0.7451"
   y1="71.0771"
   x2="62.2559"
   y2="71.0771">
			<stop
   offset="0"
   style="stop-color:#666666"
   id="stop2" />
			<stop
   offset="0.5054"
   style="stop-color:#FFFFFF"
   id="stop4" />
			<stop
   offset="1"
   style="stop-color:#666666"
   id="stop6" />
			<a:midPointStop
   offset="0"
   style="stop-color:#666666" />
			<a:midPointStop
   offset="0.5"
   style="stop-color:#666666" />
			<a:midPointStop
   offset="0.5054"
   style="stop-color:#FFFFFF" />
			<a:midPointStop
   offset="0.5"
   style="stop-color:#FFFFFF" />
			<a:midPointStop
   offset="1"
   style="stop-color:#666666" />
		</linearGradient>
		<path
   fill="url(#SVGID_1_)"
   d="M0.745,31.934v64.287c0,7.732,13.77,14,30.754,14c16.987,0,30.756-6.268,30.756-14V31.934H0.745z"
   id="path9" />
		<path
   d="M31.5,110.721c-17.233,0-31.254-6.506-31.254-14.5V31.434h62.511v64.787C62.756,104.215,48.734,110.721,31.5,110.721z     M1.245,32.434v63.787c0,7.443,13.573,13.5,30.254,13.5c16.684,0,30.256-6.057,30.256-13.5V32.434H1.245z"
   id="path11" />
	</g>
	<g
   id="g40">
		<linearGradient
   id="SVGID_2_"
   gradientUnits="userSpaceOnUse"
   x1="69.3398"
   y1="3.9326"
   x2="-4.4689"
   y2="58.5511">
			<stop
   offset="0"
   style="stop-color:#666666"
   id="stop15" />
			<stop
   offset="0.0069"
   style="stop-color:#787878"
   id="stop17" />
			<stop
   offset="0.023"
   style="stop-color:#9C9C9C"
   id="stop19" />
			<stop
   offset="0.0407"
   style="stop-color:#BBBBBB"
   id="stop21" />
			<stop
   offset="0.0599"
   style="stop-color:#D4D4D4"
   id="stop23" />
			<stop
   offset="0.0812"
   style="stop-color:#E7E7E7"
   id="stop25" />
			<stop
   offset="0.1058"
   style="stop-color:#F5F5F5"
   id="stop27" />
			<stop
   offset="0.1367"
   style="stop-color:#FDFDFD"
   id="stop29" />
			<stop
   offset="0.1939"
   style="stop-color:#FFFFFF"
   id="stop31" />
			<stop
   offset="1"
   style="stop-color:#666666"
   id="stop33" />
			<a:midPointStop
   offset="0"
   style="stop-color:#666666" />
			<a:midPointStop
   offset="0.1836"
   style="stop-color:#666666" />
			<a:midPointStop
   offset="0.1939"
   style="stop-color:#FFFFFF" />
			<a:midPointStop
   offset="0.5"
   style="stop-color:#FFFFFF" />
			<a:midPointStop
   offset="1"
   style="stop-color:#666666" />
		</linearGradient>
		<ellipse
   fill="url(#SVGID_2_)"
   cx="31.5"
   cy="31.934"
   rx="30.755"
   ry="7.25"
   id="ellipse36" />
		<path
   d="M31.5,39.684c-15.15,0-31.254-2.716-31.254-7.75s16.104-7.75,31.254-7.75c15.153,0,31.256,2.716,31.256,7.75    S46.652,39.684,31.5,39.684z M31.5,25.184c-17.829,0-30.254,3.557-30.254,6.75s12.425,6.75,30.254,6.75    c17.831,0,30.256-3.557,30.256-6.75S49.33,25.184,31.5,25.184z"
   id="path38" />
	</g>
	<g
   id="g51">
		<linearGradient
   id="SVGID_3_"
   gradientUnits="userSpaceOnUse"
   x1="31.4995"
   y1="51.2935"
   x2="31.4995"
   y2="82.5338">
			<stop
   offset="0"
   style="stop-color:#58BBC7"
   id="stop42" />
			<stop
   offset="1"
   style="stop-color:#AEDEE4"
   id="stop44" />
			<a:midPointStop
   offset="0"
   style="stop-color:#58BBC7" />
			<a:midPointStop
   offset="0.5"
   style="stop-color:#58BBC7" />
			<a:midPointStop
   offset="1"
   style="stop-color:#AEDEE4" />
		</linearGradient>
		<rect
   x="11.75"
   y="48.434"
   fill="url(#SVGID_3_)"
   width="39.5"
   height="44"
   id="rect47" />
		<path
   fill="#808080"
   d="M51.75,92.934h-40.5v-45h40.5V92.934z M12.25,91.934h38.5v-43h-38.5V91.934z"
   id="path49" />
	</g>
	<g
   id="g62">
		<linearGradient
   id="SVGID_4_"
   gradientUnits="userSpaceOnUse"
   x1="47.042"
   y1="109.8457"
   x2="22.1024"
   y2="82.461">
			<stop
   offset="0"
   style="stop-color:#58BBC7"
   id="stop53" />
			<stop
   offset="1"
   style="stop-color:#AEDEE4"
   id="stop55" />
			<a:midPointStop
   offset="0"
   style="stop-color:#58BBC7" />
			<a:midPointStop
   offset="0.5"
   style="stop-color:#58BBC7" />
			<a:midPointStop
   offset="1"
   style="stop-color:#AEDEE4" />
		</linearGradient>
		<path
   fill="url(#SVGID_4_)"
   d="M51.25,92.434c0,3.037-8.842,5.5-19.75,5.5c-10.906,0-19.75-2.463-19.75-5.5"
   id="path58" />
		<path
   fill="#999999"
   d="M31.5,98.434c-9.816,0-20.25-2.104-20.25-6h1c0,2.365,7.906,5,19.25,5c11.344,0,19.25-2.635,19.25-5h1    C51.75,96.33,41.316,98.434,31.5,98.434z"
   id="path60" />
	</g>
	<g
   id="g73">
		<linearGradient
   id="SVGID_5_"
   gradientUnits="userSpaceOnUse"
   x1="46.9746"
   y1="109.0801"
   x2="22.035"
   y2="81.6954">
			<stop
   offset="0"
   style="stop-color:#58BBC7"
   id="stop64" />
			<stop
   offset="1"
   style="stop-color:#AEDEE4"
   id="stop66" />
			<a:midPointStop
   offset="0"
   style="stop-color:#58BBC7" />
			<a:midPointStop
   offset="0.5"
   style="stop-color:#58BBC7" />
			<a:midPointStop
   offset="1"
   style="stop-color:#AEDEE4" />
		</linearGradient>
		<path
   fill="url(#SVGID_5_)"
   d="M11.75,92.434c0-3.037,8.844-5.5,19.75-5.5c10.909,0,19.75,2.463,19.75,5.5"
   id="path69" />
		<path
   fill="#999999"
   d="M51.75,92.434h-1c0-2.365-7.906-5-19.25-5c-11.344,0-19.25,2.635-19.25,5h-1c0-3.896,10.434-6,20.25-6    C41.316,86.434,51.75,88.537,51.75,92.434z"
   id="path71" />
	</g>
	<g
   id="g194">
		<g
   id="g79">
			<rect
   x="30.595"
   y="22.655"
   fill="#666666"
   width="1.811"
   height="9.208"
   id="rect75" />
			<path
   d="M32.906,32.363h-2.811V22.155h2.811V32.363z M31.095,31.363h0.811v-8.208h-0.811V31.363z"
   id="path77" />
		</g>
		<g
   id="g89">
			<g
   id="g85">
				<polygon
   fill="#666666"
   points="20.037,31.863 18.226,31.863 21.837,22.655 23.648,22.655     "
   id="polygon81" />
				<path
   d="M20.376,32.363h-2.885l4.004-10.208h2.885L20.376,32.363z M18.958,31.363h0.736l3.219-8.208h-0.736L18.958,31.363z"
   id="path83" />
			</g>
			<rect
   x="14.226"
   y="31.446"
   width="5.973"
   height="0.833"
   id="rect87" />
		</g>
		<g
   id="g99">
			<g
   id="g95">
				<polygon
   fill="#666666"
   points="43.32,31.863 45.131,31.863 41.52,22.655 39.709,22.655     "
   id="polygon91" />
				<path
   d="M45.865,32.363H42.98l-4.004-10.208h2.885L45.865,32.363z M43.662,31.363h0.736l-3.219-8.208h-0.736L43.662,31.363z"
   id="path93" />
			</g>
			<rect
   x="43.158"
   y="31.446"
   width="5.973"
   height="0.833"
   id="rect97" />
		</g>
		<g
   id="g192">
			<g
   id="g112">
				<linearGradient
   id="SVGID_6_"
   gradientUnits="userSpaceOnUse"
   x1="20.8257"
   y1="15.2998"
   x2="42.25"
   y2="15.2998">
					<stop
   offset="0"
   style="stop-color:#666666"
   id="stop101" />
					<stop
   offset="0.5054"
   style="stop-color:#FFFFFF"
   id="stop103" />
					<stop
   offset="1"
   style="stop-color:#666666"
   id="stop105" />
					<a:midPointStop
   offset="0"
   style="stop-color:#666666" />
					<a:midPointStop
   offset="0.5"
   style="stop-color:#666666" />
					<a:midPointStop
   offset="0.5054"
   style="stop-color:#FFFFFF" />
					<a:midPointStop
   offset="0.5"
   style="stop-color:#FFFFFF" />
					<a:midPointStop
   offset="1"
   style="stop-color:#666666" />
				</linearGradient>
				<rect
   x="20.826"
   y="7.487"
   fill="url(#SVGID_6_)"
   width="21.424"
   height="15.625"
   id="rect108" />
				<path
   d="M42.75,23.612H20.326V6.987H42.75V23.612z M21.326,22.612H41.75V7.987H21.326V22.612z"
   id="path110" />
			</g>
			<g
   id="g131">
				
					<radialGradient
   id="SVGID_7_"
   cx="31.833"
   cy="168.4287"
   r="10.6915"
   gradientTransform="matrix(1 0 0 0.7054 0 -114.9522)"
   gradientUnits="userSpaceOnUse">
					<stop
   offset="0"
   style="stop-color:#FFFFFF"
   id="stop114" />
					<stop
   offset="0.2315"
   style="stop-color:#CECECE"
   id="stop116" />
					<stop
   offset="0.4754"
   style="stop-color:#A1A1A1"
   id="stop118" />
					<stop
   offset="0.6936"
   style="stop-color:#818181"
   id="stop120" />
					<stop
   offset="0.876"
   style="stop-color:#6D6D6D"
   id="stop122" />
					<stop
   offset="1"
   style="stop-color:#666666"
   id="stop124" />
					<a:midPointStop
   offset="0"
   style="stop-color:#FFFFFF" />
					<a:midPointStop
   offset="0.376"
   style="stop-color:#FFFFFF" />
					<a:midPointStop
   offset="1"
   style="stop-color:#666666" />
				</radialGradient>
				<path
   fill="url(#SVGID_7_)"
   d="M31.5,0.779c-5.938,0-10.75,3.395-10.75,7.583h21.5C42.25,4.174,37.438,0.779,31.5,0.779z"
   id="path127" />
				<path
   d="M42.75,8.862h-22.5v-0.5c0-4.457,5.047-8.083,11.25-8.083c6.204,0,11.25,3.626,11.25,8.083V8.862z M21.275,7.862h20.45      C41.354,4.189,36.908,1.279,31.5,1.279C26.091,1.279,21.648,4.189,21.275,7.862z"
   id="path129" />
			</g>
			<g
   id="g144">
				<linearGradient
   id="SVGID_8_"
   gradientUnits="userSpaceOnUse"
   x1="19.812"
   y1="8.3623"
   x2="43.3155"
   y2="8.3623">
					<stop
   offset="0"
   style="stop-color:#666666"
   id="stop133" />
					<stop
   offset="0.5054"
   style="stop-color:#FFFFFF"
   id="stop135" />
					<stop
   offset="1"
   style="stop-color:#666666"
   id="stop137" />
					<a:midPointStop
   offset="0"
   style="stop-color:#666666" />
					<a:midPointStop
   offset="0.5"
   style="stop-color:#666666" />
					<a:midPointStop
   offset="0.5054"
   style="stop-color:#FFFFFF" />
					<a:midPointStop
   offset="0.5"
   style="stop-color:#FFFFFF" />
					<a:midPointStop
   offset="1"
   style="stop-color:#666666" />
				</linearGradient>
				<rect
   x="18.937"
   y="7.487"
   fill="url(#SVGID_8_)"
   width="25.125"
   height="1.75"
   id="rect140" />
				<path
   d="M44.563,9.737H18.437v-2.75h26.125V9.737z M19.437,8.737h24.125v-0.75H19.437V8.737z"
   id="path142" />
			</g>
			<g
   id="g157">
				<linearGradient
   id="SVGID_9_"
   gradientUnits="userSpaceOnUse"
   x1="21.498"
   y1="23.9873"
   x2="41.6105"
   y2="23.9873">
					<stop
   offset="0"
   style="stop-color:#666666"
   id="stop146" />
					<stop
   offset="0.5054"
   style="stop-color:#FFFFFF"
   id="stop148" />
					<stop
   offset="1"
   style="stop-color:#666666"
   id="stop150" />
					<a:midPointStop
   offset="0"
   style="stop-color:#666666" />
					<a:midPointStop
   offset="0.5"
   style="stop-color:#666666" />
					<a:midPointStop
   offset="0.5054"
   style="stop-color:#FFFFFF" />
					<a:midPointStop
   offset="0.5"
   style="stop-color:#FFFFFF" />
					<a:midPointStop
   offset="1"
   style="stop-color:#666666" />
				</linearGradient>
				<rect
   x="20.75"
   y="23.112"
   fill="url(#SVGID_9_)"
   width="21.5"
   height="1.75"
   id="rect153" />
				<path
   d="M42.75,25.362h-22.5v-2.75h22.5V25.362z M21.25,24.362h20.5v-0.75h-20.5V24.362z"
   id="path155" />
			</g>
			<g
   id="g170">
				<linearGradient
   id="SVGID_10_"
   gradientUnits="userSpaceOnUse"
   x1="19.812"
   y1="25.7373"
   x2="43.3155"
   y2="25.7373">
					<stop
   offset="0"
   style="stop-color:#666666"
   id="stop159" />
					<stop
   offset="0.5054"
   style="stop-color:#FFFFFF"
   id="stop161" />
					<stop
   offset="1"
   style="stop-color:#666666"
   id="stop163" />
					<a:midPointStop
   offset="0"
   style="stop-color:#666666" />
					<a:midPointStop
   offset="0.5"
   style="stop-color:#666666" />
					<a:midPointStop
   offset="0.5054"
   style="stop-color:#FFFFFF" />
					<a:midPointStop
   offset="0.5"
   style="stop-color:#FFFFFF" />
					<a:midPointStop
   offset="1"
   style="stop-color:#666666" />
				</linearGradient>
				<rect
   x="18.937"
   y="24.862"
   fill="url(#SVGID_10_)"
   width="25.125"
   height="1.75"
   id="rect166" />
				<path
   d="M44.563,27.112H18.437v-2.75h26.125V27.112z M19.437,26.112h24.125v-0.75H19.437V26.112z"
   id="path168" />
			</g>
			<g
   id="g176">
				<rect
   x="22.687"
   y="11.446"
   fill="#D1D1D1"
   width="3.5"
   height="9.167"
   id="rect172" />
				<path
   d="M26.687,21.112h-4.5V10.946h4.5V21.112z M23.187,20.112h2.5v-8.167h-2.5V20.112z"
   id="path174" />
			</g>
			<rect
   x="29.728"
   y="9.237"
   width="1.75"
   height="13.417"
   id="rect178" />
			<rect
   x="32.764"
   y="9.237"
   width="1.75"
   height="13.417"
   id="rect180" />
			<rect
   x="35.799"
   y="9.237"
   width="1.75"
   height="13.417"
   id="rect182" />
			<rect
   x="38.834"
   y="9.237"
   width="1.75"
   height="13.417"
   id="rect184" />
			<g
   id="g190">
				<rect
   x="29.056"
   y="12.946"
   fill="#D1D1D1"
   width="11.528"
   height="6.166"
   id="rect186" />
				<path
   d="M41.084,19.612H28.556v-7.166h12.528V19.612z M29.556,18.612h10.528v-5.166H29.556V18.612z"
   id="path188" />
			</g>
		</g>
	</g>
	<g
   id="g267">
		<g
   id="g207">
			<linearGradient
   id="SVGID_11_"
   gradientUnits="userSpaceOnUse"
   x1="15.2671"
   y1="87.8984"
   x2="31.3931"
   y2="87.8984">
				<stop
   offset="0"
   style="stop-color:#666666"
   id="stop196" />
				<stop
   offset="0.5054"
   style="stop-color:#FFFFFF"
   id="stop198" />
				<stop
   offset="1"
   style="stop-color:#666666"
   id="stop200" />
				<a:midPointStop
   offset="0"
   style="stop-color:#666666" />
				<a:midPointStop
   offset="0.5"
   style="stop-color:#666666" />
				<a:midPointStop
   offset="0.5054"
   style="stop-color:#FFFFFF" />
				<a:midPointStop
   offset="0.5"
   style="stop-color:#FFFFFF" />
				<a:midPointStop
   offset="1"
   style="stop-color:#666666" />
			</linearGradient>
			<path
   fill="url(#SVGID_11_)"
   d="M29.222,84.082c0,0-2.639,0.871-5.123,1.521s-9.936,1.715-8.693,4.242s6.121,2.617,8.561,0.266     c2.439-2.35,6.254-4.752,7.229-5.592C32.171,83.682,29.222,84.082,29.222,84.082z"
   id="path203" />
			<path
   d="M19.42,92.311L19.42,92.311c-2.104,0-3.773-0.838-4.464-2.244c-0.242-0.494-0.252-1-0.027-1.465     c0.747-1.547,3.965-2.361,7.482-3.125c0.613-0.135,1.154-0.252,1.561-0.357c2.439-0.639,5.066-1.504,5.093-1.512     c0.12-0.025,0.833-0.121,1.466-0.121c0.557,0,1.15,0.063,1.322,0.529c0.077,0.207,0.082,0.527-0.333,0.885     c-0.337,0.289-0.966,0.734-1.763,1.299c-1.617,1.148-3.832,2.719-5.444,4.273C23.119,91.623,21.289,92.311,19.42,92.311z      M29.29,84.576c0.026,0-2.61,0.867-5.064,1.51c-0.417,0.109-0.972,0.23-1.602,0.367c-2.165,0.471-6.196,1.348-6.794,2.584     c-0.091,0.188-0.084,0.369,0.024,0.588c0.511,1.039,1.878,1.686,3.566,1.686c1.616,0,3.186-0.582,4.198-1.559     c1.667-1.605,3.918-3.203,5.561-4.367c0.496-0.352,0.926-0.656,1.25-0.898C29.899,84.496,29.316,84.572,29.29,84.576     L29.29,84.576z"
   id="path205" />
		</g>
		<g
   id="g220">
			<linearGradient
   id="SVGID_12_"
   gradientUnits="userSpaceOnUse"
   x1="32.125"
   y1="86.9961"
   x2="46.3193"
   y2="86.9961">
				<stop
   offset="0"
   style="stop-color:#666666"
   id="stop209" />
				<stop
   offset="0.5054"
   style="stop-color:#FFFFFF"
   id="stop211" />
				<stop
   offset="1"
   style="stop-color:#666666"
   id="stop213" />
				<a:midPointStop
   offset="0"
   style="stop-color:#666666" />
				<a:midPointStop
   offset="0.5"
   style="stop-color:#666666" />
				<a:midPointStop
   offset="0.5054"
   style="stop-color:#FFFFFF" />
				<a:midPointStop
   offset="0.5"
   style="stop-color:#FFFFFF" />
				<a:midPointStop
   offset="1"
   style="stop-color:#666666" />
			</linearGradient>
			<path
   fill="url(#SVGID_12_)"
   d="M32.304,84.922c0,0,2.663,2.094,3.417,2.977s5.145,4.342,9.27,2.035     c4.125-2.305-2.439-4.258-4.924-4.611c-2.484-0.355-5.766-1.258-6.785-1.76C32.259,83.061,31.861,83.061,32.304,84.922z"
   id="path216" />
			<path
   d="M41.996,91.215L41.996,91.215c-3.373,0-6.15-2.398-6.656-2.992c-0.713-0.836-3.319-2.887-3.345-2.906l-0.138-0.109     l-0.039-0.168c-0.262-1.096-0.258-1.629,0.01-1.969c0.322-0.406,0.909-0.332,1.674,0.043c0.982,0.486,4.238,1.371,6.635,1.713     c1.311,0.188,6.279,1.301,6.658,3.336c0.15,0.803-0.375,1.545-1.561,2.209C44.232,90.93,43.145,91.215,41.996,91.215z      M32.752,84.639c0.566,0.451,2.664,2.133,3.348,2.936c0.371,0.434,2.887,2.641,5.896,2.641l0,0c0.975,0,1.9-0.242,2.75-0.717     c0.434-0.242,1.148-0.715,1.066-1.152c-0.195-1.049-3.631-2.217-5.818-2.529c-2.551-0.363-5.881-1.285-6.936-1.805     c-0.205-0.102-0.342-0.16-0.434-0.193C32.629,83.961,32.656,84.209,32.752,84.639z"
   id="path218" />
		</g>
		<g
   id="g233">
			<linearGradient
   id="SVGID_13_"
   gradientUnits="userSpaceOnUse"
   x1="24.2397"
   y1="78.9463"
   x2="32.0796"
   y2="78.9463">
				<stop
   offset="0"
   style="stop-color:#666666"
   id="stop222" />
				<stop
   offset="0.5054"
   style="stop-color:#FFFFFF"
   id="stop224" />
				<stop
   offset="1"
   style="stop-color:#666666"
   id="stop226" />
				<a:midPointStop
   offset="0"
   style="stop-color:#666666" />
				<a:midPointStop
   offset="0.5"
   style="stop-color:#666666" />
				<a:midPointStop
   offset="0.5054"
   style="stop-color:#FFFFFF" />
				<a:midPointStop
   offset="0.5"
   style="stop-color:#FFFFFF" />
				<a:midPointStop
   offset="1"
   style="stop-color:#666666" />
			</linearGradient>
			<path
   fill="url(#SVGID_13_)"
   d="M30.082,83.563l-5.406-5.691c0,0-1.768-2.174,1.818-3.105c3.588-0.932,4.791-0.625,5.322,0.975     c0.533,1.598,0.17,5.949-0.316,7.111C31.013,84.016,30.082,83.563,30.082,83.563z"
   id="path229" />
			<path
   d="M30.501,84.15c-0.34,0-0.592-0.115-0.639-0.139l-0.145-0.105l-5.406-5.691c-0.059-0.068-0.834-1.041-0.48-2.117     c0.275-0.84,1.129-1.449,2.535-1.816c1.417-0.367,2.445-0.537,3.236-0.537c1.436,0,2.264,0.566,2.688,1.838     c0.569,1.709,0.201,6.191-0.33,7.463C31.558,84.006,30.874,84.15,30.501,84.15z M30.361,83.133     c0.037,0.008,0.086,0.018,0.141,0.018c0.082,0,0.332,0,0.536-0.49c0.446-1.068,0.784-5.32,0.304-6.762     c-0.243-0.732-0.605-1.154-1.738-1.154c-0.704,0-1.652,0.16-2.984,0.506c-1.041,0.271-1.678,0.672-1.837,1.158     c-0.183,0.557,0.276,1.141,0.28,1.146L30.361,83.133z"
   id="path231" />
		</g>
		<g
   id="g239">
			<ellipse
   fill="#B3B3B3"
   cx="31.5"
   cy="83.563"
   rx="3.369"
   ry="2.041"
   id="ellipse235" />
			<path
   d="M31.5,86.104c-2.17,0-3.869-1.117-3.869-2.541s1.699-2.541,3.869-2.541c2.168,0,3.87,1.117,3.87,2.541     S33.668,86.104,31.5,86.104z M31.5,82.021c-1.691,0-2.869,0.813-2.869,1.541s1.178,1.541,2.869,1.541     c1.69,0,2.87-0.813,2.87-1.541S33.189,82.021,31.5,82.021z"
   id="path237" />
		</g>
		<g
   id="g252">
			<linearGradient
   id="SVGID_14_"
   gradientUnits="userSpaceOnUse"
   x1="28.1304"
   y1="82.8516"
   x2="34.8691"
   y2="82.8516">
				<stop
   offset="0"
   style="stop-color:#666666"
   id="stop241" />
				<stop
   offset="0.5054"
   style="stop-color:#FFFFFF"
   id="stop243" />
				<stop
   offset="1"
   style="stop-color:#666666"
   id="stop245" />
				<a:midPointStop
   offset="0"
   style="stop-color:#666666" />
				<a:midPointStop
   offset="0.5"
   style="stop-color:#666666" />
				<a:midPointStop
   offset="0.5054"
   style="stop-color:#FFFFFF" />
				<a:midPointStop
   offset="0.5"
   style="stop-color:#FFFFFF" />
				<a:midPointStop
   offset="1"
   style="stop-color:#666666" />
			</linearGradient>
			<ellipse
   fill="url(#SVGID_14_)"
   cx="31.5"
   cy="82.852"
   rx="3.369"
   ry="1.668"
   id="ellipse248" />
			<path
   d="M31.5,85.02c-2.206,0-3.869-0.932-3.869-2.168c0-1.234,1.663-2.168,3.869-2.168c2.206,0,3.87,0.934,3.87,2.168     C35.369,84.088,33.705,85.02,31.5,85.02z M31.5,81.684c-1.752,0-2.869,0.693-2.869,1.168c0,0.477,1.117,1.168,2.869,1.168     c1.75,0,2.87-0.691,2.87-1.168C34.369,82.377,33.25,81.684,31.5,81.684z"
   id="path250" />
		</g>
		<g
   id="g265">
			<linearGradient
   id="SVGID_15_"
   gradientUnits="userSpaceOnUse"
   x1="30.0815"
   y1="65.6797"
   x2="32.9199"
   y2="65.6797">
				<stop
   offset="0"
   style="stop-color:#666666"
   id="stop254" />
				<stop
   offset="0.5054"
   style="stop-color:#FFFFFF"
   id="stop256" />
				<stop
   offset="1"
   style="stop-color:#666666"
   id="stop258" />
				<a:midPointStop
   offset="0"
   style="stop-color:#666666" />
				<a:midPointStop
   offset="0.5"
   style="stop-color:#666666" />
				<a:midPointStop
   offset="0.5054"
   style="stop-color:#FFFFFF" />
				<a:midPointStop
   offset="0.5"
   style="stop-color:#FFFFFF" />
				<a:midPointStop
   offset="1"
   style="stop-color:#666666" />
			</linearGradient>
			<polyline
   fill="url(#SVGID_15_)"
   points="30.082,82.926 30.082,48.434 32.92,48.434 32.92,82.926    "
   id="polyline261" />
			<polygon
   points="33.42,82.926 32.419,82.926 32.419,48.934 30.582,48.934 30.582,82.926 29.582,82.926 29.582,47.934      33.42,47.934    "
   id="polygon263" />
		</g>
	</g>
</g>
</svg>
