<?xml version="1.0" encoding="UTF-8" standalone="no"?>
<svg
   xmlns:a="http://ns.adobe.com/AdobeSVGViewerExtensions/3.0/"
   xmlns:dc="http://purl.org/dc/elements/1.1/"
   xmlns:cc="http://creativecommons.org/ns#"
   xmlns:rdf="http://www.w3.org/1999/02/22-rdf-syntax-ns#"
   xmlns:svg="http://www.w3.org/2000/svg"
   xmlns="http://www.w3.org/2000/svg"
   xmlns:sodipodi="http://sodipodi.sourceforge.net/DTD/sodipodi-0.dtd"
   xmlns:inkscape="http://www.inkscape.org/namespaces/inkscape"
   version="1.1"
   id="图层_1"
   x="0px"
   y="0px"
   width="63px"
   height="111px"
   viewBox="0 0 63 111"
   enable-background="new 0 0 63 111"
   xml:space="preserve"
   sodipodi:docname="搅拌机_11-01.svg"><metadata
   id="metadata270"><rdf:RDF><cc:Work
       rdf:about=""><dc:format>image/svg+xml</dc:format><dc:type
         rdf:resource="http://purl.org/dc/dcmitype/StillImage" /></cc:Work></rdf:RDF></metadata><defs
   id="defs268" /><sodipodi:namedview
   pagecolor="#ffffff"
   bordercolor="#666666"
   borderopacity="1"
   objecttolerance="10"
   gridtolerance="10"
   guidetolerance="10"
   inkscape:pageopacity="0"
   inkscape:pageshadow="2"
   inkscape:window-width="640"
   inkscape:window-height="480"
   id="namedview266" />
<g
   id="g263">
	<g
   id="g196">
		<g
   id="g13">
			<linearGradient
   id="SVGID_1_"
   gradientUnits="userSpaceOnUse"
   x1="0.7451"
   y1="71.0771"
   x2="62.2549"
   y2="71.0771">
				<stop
   offset="0"
   style="stop-color:#666666"
   id="stop2" />
				<stop
   offset="0.5054"
   style="stop-color:#FFFFFF"
   id="stop4" />
				<stop
   offset="1"
   style="stop-color:#666666"
   id="stop6" />
				<a:midPointStop
   offset="0"
   style="stop-color:#666666" />
				<a:midPointStop
   offset="0.5"
   style="stop-color:#666666" />
				<a:midPointStop
   offset="0.5054"
   style="stop-color:#FFFFFF" />
				<a:midPointStop
   offset="0.5"
   style="stop-color:#FFFFFF" />
				<a:midPointStop
   offset="1"
   style="stop-color:#666666" />
			</linearGradient>
			<path
   fill="url(#SVGID_1_)"
   d="M0.745,31.934v64.287c0,7.732,13.77,14,30.755,14s30.755-6.268,30.755-14V31.934H0.745z"
   id="path9" />
			<path
   d="M31.5,110.721c-17.233,0-31.255-6.506-31.255-14.5V31.434h62.51v64.787C62.755,104.215,48.733,110.721,31.5,110.721z      M1.245,32.434v63.787c0,7.443,13.572,13.5,30.255,13.5s30.255-6.057,30.255-13.5V32.434H1.245z"
   id="path11" />
		</g>
		<g
   id="g40">
			<linearGradient
   id="SVGID_2_"
   gradientUnits="userSpaceOnUse"
   x1="69.3389"
   y1="3.9331"
   x2="-4.4688"
   y2="58.5508">
				<stop
   offset="0"
   style="stop-color:#666666"
   id="stop15" />
				<stop
   offset="0.0069"
   style="stop-color:#787878"
   id="stop17" />
				<stop
   offset="0.023"
   style="stop-color:#9C9C9C"
   id="stop19" />
				<stop
   offset="0.0407"
   style="stop-color:#BBBBBB"
   id="stop21" />
				<stop
   offset="0.0599"
   style="stop-color:#D4D4D4"
   id="stop23" />
				<stop
   offset="0.0812"
   style="stop-color:#E7E7E7"
   id="stop25" />
				<stop
   offset="0.1058"
   style="stop-color:#F5F5F5"
   id="stop27" />
				<stop
   offset="0.1367"
   style="stop-color:#FDFDFD"
   id="stop29" />
				<stop
   offset="0.1939"
   style="stop-color:#FFFFFF"
   id="stop31" />
				<stop
   offset="1"
   style="stop-color:#666666"
   id="stop33" />
				<a:midPointStop
   offset="0"
   style="stop-color:#666666" />
				<a:midPointStop
   offset="0.1836"
   style="stop-color:#666666" />
				<a:midPointStop
   offset="0.1939"
   style="stop-color:#FFFFFF" />
				<a:midPointStop
   offset="0.5"
   style="stop-color:#FFFFFF" />
				<a:midPointStop
   offset="1"
   style="stop-color:#666666" />
			</linearGradient>
			<ellipse
   fill="url(#SVGID_2_)"
   cx="31.5"
   cy="31.934"
   rx="30.755"
   ry="7.25"
   id="ellipse36" />
			<path
   d="M31.5,39.684c-15.151,0-31.255-2.716-31.255-7.75s16.104-7.75,31.255-7.75s31.255,2.716,31.255,7.75     S46.651,39.684,31.5,39.684z M31.5,25.184c-17.829,0-30.255,3.557-30.255,6.75s12.426,6.75,30.255,6.75s30.255-3.557,30.255-6.75     S49.329,25.184,31.5,25.184z"
   id="path38" />
		</g>
		<g
   id="g51">
			<linearGradient
   id="SVGID_3_"
   gradientUnits="userSpaceOnUse"
   x1="31.4995"
   y1="51.2935"
   x2="31.4995"
   y2="82.5338">
				<stop
   offset="0"
   style="stop-color:#58BBC7"
   id="stop42" />
				<stop
   offset="1"
   style="stop-color:#AEDEE4"
   id="stop44" />
				<a:midPointStop
   offset="0"
   style="stop-color:#58BBC7" />
				<a:midPointStop
   offset="0.5"
   style="stop-color:#58BBC7" />
				<a:midPointStop
   offset="1"
   style="stop-color:#AEDEE4" />
			</linearGradient>
			<rect
   x="11.75"
   y="48.434"
   fill="url(#SVGID_3_)"
   width="39.5"
   height="44"
   id="rect47" />
			<path
   fill="#808080"
   d="M51.75,92.934h-40.5v-45h40.5V92.934z M12.25,91.934h38.5v-43h-38.5V91.934z"
   id="path49" />
		</g>
		<g
   id="g62">
			<linearGradient
   id="SVGID_4_"
   gradientUnits="userSpaceOnUse"
   x1="47.042"
   y1="109.8457"
   x2="22.1024"
   y2="82.461">
				<stop
   offset="0"
   style="stop-color:#58BBC7"
   id="stop53" />
				<stop
   offset="1"
   style="stop-color:#AEDEE4"
   id="stop55" />
				<a:midPointStop
   offset="0"
   style="stop-color:#58BBC7" />
				<a:midPointStop
   offset="0.5"
   style="stop-color:#58BBC7" />
				<a:midPointStop
   offset="1"
   style="stop-color:#AEDEE4" />
			</linearGradient>
			<path
   fill="url(#SVGID_4_)"
   d="M51.25,92.434c0,3.037-8.843,5.5-19.75,5.5s-19.75-2.463-19.75-5.5"
   id="path58" />
			<path
   fill="#999999"
   d="M31.5,98.434c-9.817,0-20.25-2.104-20.25-6h1c0,2.365,7.905,5,19.25,5s19.25-2.635,19.25-5h1     C51.75,96.33,41.317,98.434,31.5,98.434z"
   id="path60" />
		</g>
		<g
   id="g73">
			<linearGradient
   id="SVGID_5_"
   gradientUnits="userSpaceOnUse"
   x1="46.9746"
   y1="109.0801"
   x2="22.035"
   y2="81.6954">
				<stop
   offset="0"
   style="stop-color:#58BBC7"
   id="stop64" />
				<stop
   offset="1"
   style="stop-color:#AEDEE4"
   id="stop66" />
				<a:midPointStop
   offset="0"
   style="stop-color:#58BBC7" />
				<a:midPointStop
   offset="0.5"
   style="stop-color:#58BBC7" />
				<a:midPointStop
   offset="1"
   style="stop-color:#AEDEE4" />
			</linearGradient>
			<path
   fill="url(#SVGID_5_)"
   d="M11.75,92.434c0-3.037,8.843-5.5,19.75-5.5s19.75,2.463,19.75,5.5"
   id="path69" />
			<path
   fill="#999999"
   d="M51.75,92.434h-1c0-2.365-7.905-5-19.25-5s-19.25,2.635-19.25,5h-1c0-3.896,10.433-6,20.25-6     S51.75,88.537,51.75,92.434z"
   id="path71" />
		</g>
		<g
   id="g194">
			<g
   id="g79">
				<rect
   x="30.595"
   y="22.655"
   fill="#666666"
   width="1.811"
   height="9.208"
   id="rect75" />
				<path
   d="M32.905,32.363h-2.811V22.155h2.811V32.363z M31.095,31.363h0.811v-8.208h-0.811V31.363z"
   id="path77" />
			</g>
			<g
   id="g89">
				<g
   id="g85">
					<polygon
   fill="#666666"
   points="20.036,31.863 18.226,31.863 21.837,22.655 23.647,22.655      "
   id="polygon81" />
					<path
   d="M20.377,32.363h-2.885l4.004-10.208h2.885L20.377,32.363z M18.959,31.363h0.736l3.219-8.208h-0.736L18.959,31.363z"
   id="path83" />
				</g>
				<rect
   x="14.227"
   y="31.446"
   width="5.973"
   height="0.833"
   id="rect87" />
			</g>
			<g
   id="g99">
				<g
   id="g95">
					<polygon
   fill="#666666"
   points="43.32,31.863 45.131,31.863 41.52,22.655 39.709,22.655      "
   id="polygon91" />
					<path
   d="M45.864,32.363h-2.885l-4.004-10.208h2.885L45.864,32.363z M43.661,31.363h0.736l-3.219-8.208h-0.736L43.661,31.363z"
   id="path93" />
				</g>
				<rect
   x="43.157"
   y="31.446"
   width="5.973"
   height="0.833"
   id="rect97" />
			</g>
			<g
   id="g192">
				<g
   id="g112">
					<linearGradient
   id="SVGID_6_"
   gradientUnits="userSpaceOnUse"
   x1="20.8262"
   y1="15.2998"
   x2="42.25"
   y2="15.2998">
						<stop
   offset="0"
   style="stop-color:#666666"
   id="stop101" />
						<stop
   offset="0.5054"
   style="stop-color:#FFFFFF"
   id="stop103" />
						<stop
   offset="1"
   style="stop-color:#666666"
   id="stop105" />
						<a:midPointStop
   offset="0"
   style="stop-color:#666666" />
						<a:midPointStop
   offset="0.5"
   style="stop-color:#666666" />
						<a:midPointStop
   offset="0.5054"
   style="stop-color:#FFFFFF" />
						<a:midPointStop
   offset="0.5"
   style="stop-color:#FFFFFF" />
						<a:midPointStop
   offset="1"
   style="stop-color:#666666" />
					</linearGradient>
					<rect
   x="20.826"
   y="7.487"
   fill="url(#SVGID_6_)"
   width="21.424"
   height="15.625"
   id="rect108" />
					<path
   d="M42.75,23.612H20.326V6.987H42.75V23.612z M21.326,22.612H41.75V7.987H21.326V22.612z"
   id="path110" />
				</g>
				<g
   id="g131">
					
						<radialGradient
   id="SVGID_7_"
   cx="31.833"
   cy="168.4287"
   r="10.6915"
   gradientTransform="matrix(1 0 0 0.7054 0 -114.9522)"
   gradientUnits="userSpaceOnUse">
						<stop
   offset="0"
   style="stop-color:#FFFFFF"
   id="stop114" />
						<stop
   offset="0.2315"
   style="stop-color:#CECECE"
   id="stop116" />
						<stop
   offset="0.4754"
   style="stop-color:#A1A1A1"
   id="stop118" />
						<stop
   offset="0.6936"
   style="stop-color:#818181"
   id="stop120" />
						<stop
   offset="0.876"
   style="stop-color:#6D6D6D"
   id="stop122" />
						<stop
   offset="1"
   style="stop-color:#666666"
   id="stop124" />
						<a:midPointStop
   offset="0"
   style="stop-color:#FFFFFF" />
						<a:midPointStop
   offset="0.376"
   style="stop-color:#FFFFFF" />
						<a:midPointStop
   offset="1"
   style="stop-color:#666666" />
					</radialGradient>
					<path
   fill="url(#SVGID_7_)"
   d="M31.5,0.779c-5.938,0-10.75,3.395-10.75,7.583h21.5C42.25,4.174,37.438,0.779,31.5,0.779z"
   id="path127" />
					<path
   d="M42.75,8.862h-22.5v-0.5c0-4.457,5.047-8.083,11.25-8.083s11.25,3.626,11.25,8.083V8.862z M21.275,7.862h20.449       C41.353,4.189,36.909,1.279,31.5,1.279S21.647,4.189,21.275,7.862z"
   id="path129" />
				</g>
				<g
   id="g144">
					<linearGradient
   id="SVGID_8_"
   gradientUnits="userSpaceOnUse"
   x1="19.8125"
   y1="8.3623"
   x2="43.3155"
   y2="8.3623">
						<stop
   offset="0"
   style="stop-color:#666666"
   id="stop133" />
						<stop
   offset="0.5054"
   style="stop-color:#FFFFFF"
   id="stop135" />
						<stop
   offset="1"
   style="stop-color:#666666"
   id="stop137" />
						<a:midPointStop
   offset="0"
   style="stop-color:#666666" />
						<a:midPointStop
   offset="0.5"
   style="stop-color:#666666" />
						<a:midPointStop
   offset="0.5054"
   style="stop-color:#FFFFFF" />
						<a:midPointStop
   offset="0.5"
   style="stop-color:#FFFFFF" />
						<a:midPointStop
   offset="1"
   style="stop-color:#666666" />
					</linearGradient>
					<rect
   x="18.938"
   y="7.487"
   fill="url(#SVGID_8_)"
   width="25.125"
   height="1.75"
   id="rect140" />
					<path
   d="M44.563,9.737H18.438v-2.75h26.125V9.737z M19.438,8.737h24.125v-0.75H19.438V8.737z"
   id="path142" />
				</g>
				<g
   id="g157">
					<linearGradient
   id="SVGID_9_"
   gradientUnits="userSpaceOnUse"
   x1="21.4985"
   y1="23.9873"
   x2="41.6105"
   y2="23.9873">
						<stop
   offset="0"
   style="stop-color:#666666"
   id="stop146" />
						<stop
   offset="0.5054"
   style="stop-color:#FFFFFF"
   id="stop148" />
						<stop
   offset="1"
   style="stop-color:#666666"
   id="stop150" />
						<a:midPointStop
   offset="0"
   style="stop-color:#666666" />
						<a:midPointStop
   offset="0.5"
   style="stop-color:#666666" />
						<a:midPointStop
   offset="0.5054"
   style="stop-color:#FFFFFF" />
						<a:midPointStop
   offset="0.5"
   style="stop-color:#FFFFFF" />
						<a:midPointStop
   offset="1"
   style="stop-color:#666666" />
					</linearGradient>
					<rect
   x="20.75"
   y="23.112"
   fill="url(#SVGID_9_)"
   width="21.5"
   height="1.75"
   id="rect153" />
					<path
   d="M42.75,25.362h-22.5v-2.75h22.5V25.362z M21.25,24.362h20.5v-0.75h-20.5V24.362z"
   id="path155" />
				</g>
				<g
   id="g170">
					<linearGradient
   id="SVGID_10_"
   gradientUnits="userSpaceOnUse"
   x1="19.8125"
   y1="25.7373"
   x2="43.3155"
   y2="25.7373">
						<stop
   offset="0"
   style="stop-color:#666666"
   id="stop159" />
						<stop
   offset="0.5054"
   style="stop-color:#FFFFFF"
   id="stop161" />
						<stop
   offset="1"
   style="stop-color:#666666"
   id="stop163" />
						<a:midPointStop
   offset="0"
   style="stop-color:#666666" />
						<a:midPointStop
   offset="0.5"
   style="stop-color:#666666" />
						<a:midPointStop
   offset="0.5054"
   style="stop-color:#FFFFFF" />
						<a:midPointStop
   offset="0.5"
   style="stop-color:#FFFFFF" />
						<a:midPointStop
   offset="1"
   style="stop-color:#666666" />
					</linearGradient>
					<rect
   x="18.938"
   y="24.862"
   fill="url(#SVGID_10_)"
   width="25.125"
   height="1.75"
   id="rect166" />
					<path
   d="M44.563,27.112H18.438v-2.75h26.125V27.112z M19.438,26.112h24.125v-0.75H19.438V26.112z"
   id="path168" />
				</g>
				<g
   id="g176">
					<rect
   x="22.688"
   y="11.446"
   fill="#D1D1D1"
   width="3.5"
   height="9.167"
   id="rect172" />
					<path
   d="M26.688,21.112h-4.5V10.946h4.5V21.112z M23.188,20.112h2.5v-8.167h-2.5V20.112z"
   id="path174" />
				</g>
				<rect
   x="29.729"
   y="9.237"
   width="1.75"
   height="13.417"
   id="rect178" />
				<rect
   x="32.764"
   y="9.237"
   width="1.75"
   height="13.417"
   id="rect180" />
				<rect
   x="35.799"
   y="9.237"
   width="1.75"
   height="13.417"
   id="rect182" />
				<rect
   x="38.834"
   y="9.237"
   width="1.75"
   height="13.417"
   id="rect184" />
				<g
   id="g190">
					<rect
   x="29.056"
   y="12.946"
   fill="#D1D1D1"
   width="11.528"
   height="6.166"
   id="rect186" />
					<path
   d="M41.084,19.612H28.556v-7.166h12.528V19.612z M29.556,18.612h10.528v-5.166H29.556V18.612z"
   id="path188" />
				</g>
			</g>
		</g>
	</g>
	<g
   id="g261">
		<rect
   x="17.913"
   y="84.977"
   width="27.063"
   height="1.398"
   id="rect198" />
		<g
   id="g204">
			<rect
   x="18.151"
   y="77.932"
   fill="#E6E6E6"
   width="1.777"
   height="8.141"
   id="rect200" />
			<path
   d="M20.429,86.572h-2.777v-9.141h2.777V86.572z M18.651,85.572h0.777v-7.141h-0.777V85.572z"
   id="path202" />
		</g>
		<g
   id="g210">
			<rect
   x="43.197"
   y="77.932"
   fill="#E6E6E6"
   width="1.778"
   height="8.141"
   id="rect206" />
			<path
   d="M45.476,86.572h-2.778v-9.141h2.778V86.572z M43.697,85.572h0.778v-7.141h-0.778V85.572z"
   id="path208" />
		</g>
		<g
   id="g216">
			<polygon
   fill="#E6E6E6"
   points="37.29,82.457 23.241,91.895 23.219,89.738 37.29,80.191    "
   id="polygon212" />
			<path
   d="M23.241,92.395c-0.079,0-0.159-0.018-0.232-0.057c-0.162-0.086-0.266-0.254-0.268-0.438l-0.023-2.158     c-0.001-0.168,0.081-0.324,0.221-0.418l14.07-9.547c0.153-0.104,0.352-0.113,0.516-0.027s0.266,0.256,0.266,0.441v2.266     c0,0.166-0.082,0.322-0.221,0.416l-14.049,9.438C23.437,92.367,23.339,92.395,23.241,92.395z M23.722,90l0.01,0.963l13.059-8.773     v-1.055L23.722,90z"
   id="path214" />
		</g>
		<g
   id="g222">
			<polygon
   fill="#E6E6E6"
   points="25.354,82.457 39.874,91.867 39.893,89.738 25.354,80.191    "
   id="polygon218" />
			<path
   d="M39.874,92.367c-0.094,0-0.189-0.027-0.271-0.08l-14.52-9.41c-0.143-0.092-0.229-0.25-0.229-0.42v-2.266     c0-0.184,0.101-0.354,0.262-0.439c0.163-0.086,0.359-0.078,0.513,0.021l14.538,9.545c0.143,0.094,0.228,0.254,0.227,0.424     l-0.019,2.129c-0.002,0.184-0.103,0.35-0.263,0.438C40.038,92.348,39.956,92.367,39.874,92.367z M25.854,82.186l13.527,8.766     l0.008-0.945l-13.535-8.887V82.186z"
   id="path220" />
		</g>
		<g
   id="g228">
			<rect
   x="39.874"
   y="83.727"
   fill="#E6E6E6"
   width="1.778"
   height="8.141"
   id="rect224" />
			<path
   d="M42.152,92.367h-2.778v-9.141h2.778V92.367z M40.374,91.367h0.778v-7.141h-0.778V91.367z"
   id="path226" />
		</g>
		<g
   id="g234">
			<rect
   x="21.452"
   y="83.727"
   fill="#E6E6E6"
   width="1.778"
   height="8.141"
   id="rect230" />
			<path
   d="M23.73,92.367h-2.778v-9.141h2.778V92.367z M21.952,91.367h0.778v-7.141h-0.778V91.367z"
   id="path232" />
		</g>
		<g
   id="g240">
			<rect
   x="23.577"
   y="74.316"
   fill="#E6E6E6"
   width="1.777"
   height="8.141"
   id="rect236" />
			<path
   d="M25.854,82.957h-2.777v-9.141h2.777V82.957z M24.077,81.957h0.777v-7.141h-0.777V81.957z"
   id="path238" />
		</g>
		<g
   id="g246">
			<rect
   x="37.29"
   y="74.316"
   fill="#E6E6E6"
   width="1.777"
   height="8.141"
   id="rect242" />
			<path
   d="M39.567,82.957H36.79v-9.141h2.777V82.957z M37.79,81.957h0.777v-7.141H37.79V81.957z"
   id="path244" />
		</g>
		<g
   id="g259">
			<linearGradient
   id="SVGID_11_"
   gradientUnits="userSpaceOnUse"
   x1="29.7393"
   y1="67.0156"
   x2="33.0947"
   y2="67.0156">
				<stop
   offset="0"
   style="stop-color:#666666"
   id="stop248" />
				<stop
   offset="0.5054"
   style="stop-color:#FFFFFF"
   id="stop250" />
				<stop
   offset="1"
   style="stop-color:#666666"
   id="stop252" />
				<a:midPointStop
   offset="0"
   style="stop-color:#666666" />
				<a:midPointStop
   offset="0.5"
   style="stop-color:#666666" />
				<a:midPointStop
   offset="0.5054"
   style="stop-color:#FFFFFF" />
				<a:midPointStop
   offset="0.5"
   style="stop-color:#FFFFFF" />
				<a:midPointStop
   offset="1"
   style="stop-color:#666666" />
			</linearGradient>
			<rect
   x="29.739"
   y="48.434"
   fill="url(#SVGID_11_)"
   width="3.355"
   height="37.164"
   id="rect255" />
			<path
   d="M33.595,86.098h-4.355V47.934h4.355V86.098z M30.239,85.098h2.355V48.934h-2.355V85.098z"
   id="path257" />
		</g>
	</g>
</g>
</svg>
