<?xml version="1.0" encoding="UTF-8" standalone="no"?>
<svg
   xmlns:dc="http://purl.org/dc/elements/1.1/"
   xmlns:cc="http://creativecommons.org/ns#"
   xmlns:rdf="http://www.w3.org/1999/02/22-rdf-syntax-ns#"
   xmlns:svg="http://www.w3.org/2000/svg"
   xmlns="http://www.w3.org/2000/svg"
   xmlns:sodipodi="http://sodipodi.sourceforge.net/DTD/sodipodi-0.dtd"
   xmlns:inkscape="http://www.inkscape.org/namespaces/inkscape"
   version="1.1"
   id="图层_1"
   x="0px"
   y="0px"
   width="34px"
   height="85px"
   viewBox="0 0 34 85"
   enable-background="new 0 0 34 85"
   xml:space="preserve"
   sodipodi:docname="搅拌机_13-01.svg"><metadata
   id="metadata63"><rdf:RDF><cc:Work
       rdf:about=""><dc:format>image/svg+xml</dc:format><dc:type
         rdf:resource="http://purl.org/dc/dcmitype/StillImage" /></cc:Work></rdf:RDF></metadata><defs
   id="defs61" /><sodipodi:namedview
   pagecolor="#ffffff"
   bordercolor="#666666"
   borderopacity="1"
   objecttolerance="10"
   gridtolerance="10"
   guidetolerance="10"
   inkscape:pageopacity="0"
   inkscape:pageshadow="2"
   inkscape:window-width="640"
   inkscape:window-height="480"
   id="namedview59" />
<g
   id="g56">
	<g
   id="g6">
		<path
   fill="#7F7F7F"
   d="M0.913,79.466l5.16-5.033c0,0,0.341-0.466,1.169-0.718c0.455-0.139,1.33-0.055,1.33-0.055l9.05,3.48    l-2.423,4.282L0.913,79.466z"
   id="path2" />
		<path
   d="M15.199,81.924c-0.021,0-0.045-0.001-0.067-0.005L0.846,79.961c-0.189-0.026-0.348-0.157-0.408-0.339    c-0.06-0.182-0.011-0.381,0.127-0.516l5.16-5.031l0,0c-0.01,0,0.414-0.547,1.373-0.839c0.224-0.068,0.518-0.102,0.9-0.102    c0.338,0,0.622,0.027,0.622,0.027c0.045,0.005,0.089,0.015,0.132,0.031l9.05,3.48c0.136,0.052,0.242,0.161,0.291,0.298    c0.05,0.137,0.036,0.289-0.035,0.415l-2.423,4.282C15.545,81.828,15.379,81.924,15.199,81.924z M1.994,79.108l12.938,1.773    l1.969-3.482l-8.441-3.246c-0.09-0.008-0.266-0.018-0.461-0.018c-0.364,0-0.538,0.036-0.609,0.058    c-0.639,0.194-0.905,0.527-0.916,0.542L1.994,79.108z"
   id="path4" />
	</g>
	<g
   id="g12">
		<path
   fill="#B3B3B3"
   d="M15.199,81.423L4.508,77.739c-0.19-0.031-0.385-0.058-0.584-0.058c-1.891,0-3.424,1.526-3.424,3.409    S2.033,84.5,3.924,84.5c0.199,0,0.394-0.026,0.584-0.059L15.199,81.423z"
   id="path8" />
		<path
   d="M3.924,85C1.76,85,0,83.247,0,81.091s1.76-3.909,3.924-3.909c0.229,0,0.449,0.028,0.668,0.065l12.28,4.224L4.644,84.923    C4.375,84.972,4.152,85,3.924,85z M3.924,78.182C2.312,78.182,1,79.487,1,81.091S2.312,84,3.924,84c0.171,0,0.336-0.023,0.5-0.052    l9.104-2.572l-9.183-3.164C4.262,78.205,4.096,78.182,3.924,78.182z"
   id="path10" />
	</g>
	<g
   id="g18">
		<rect
   x="14.578"
   y="35.348"
   fill="#7F7F7F"
   width="4.844"
   height="46.075"
   id="rect14" />
		<path
   d="M19.922,81.923h-5.844V34.848h5.844V81.923z M15.078,80.923h3.844V35.848h-3.844V80.923z"
   id="path16" />
	</g>
	<g
   id="g24">
		<path
   fill="#7F7F7F"
   d="M8.104,2.496c0-1.103,0.898-1.996,2.006-1.996H28.4c1.107,0,2.005,0.894,2.005,1.996v29.566    c0,1.103-0.897,1.996-2.005,1.996H10.109c-1.107,0-2.006-0.894-2.006-1.996"
   id="path20" />
		<path
   d="M28.4,34.559H10.109c-1.382,0-2.506-1.12-2.506-2.496h1c0,0.825,0.676,1.496,1.506,1.496H28.4    c0.83,0,1.505-0.671,1.505-1.496V2.496C29.905,1.671,29.23,1,28.4,1H10.109c-0.83,0-1.506,0.671-1.506,1.496h-1    C7.604,1.12,8.728,0,10.109,0H28.4c1.381,0,2.505,1.12,2.505,2.496v29.566C30.905,33.439,29.781,34.559,28.4,34.559z"
   id="path22" />
	</g>
	<g
   id="g30">
		<polygon
   fill="#666666"
   points="24.936,38.354 30.211,32.86 30.211,1.412 24.936,5.707   "
   id="polygon26" />
		<path
   d="M24.936,38.854c-0.063,0-0.126-0.012-0.187-0.036c-0.189-0.077-0.313-0.26-0.313-0.464V5.707    c0-0.15,0.067-0.293,0.184-0.388l5.275-4.295c0.15-0.122,0.357-0.146,0.531-0.063c0.174,0.083,0.285,0.259,0.285,0.452V32.86    c0,0.129-0.051,0.253-0.14,0.347L25.297,38.7C25.2,38.8,25.068,38.854,24.936,38.854z M25.436,5.944V37.11l4.274-4.451V2.464    L25.436,5.944z"
   id="path28" />
	</g>
	<g
   id="g36">
		<polyline
   fill="#7F7F7F"
   points="8.661,1.012 3.387,5.307 3.387,37.954 8.661,32.46   "
   id="polyline32" />
		<polygon
   points="2.887,39.196 2.887,5.069 8.346,0.625 8.977,1.4 3.887,5.545 3.887,36.711 8.301,32.114 9.021,32.807   "
   id="polygon34" />
	</g>
	<g
   id="g42">
		<path
   fill="#B3B3B3"
   d="M25.08,36.803c0,1.103-0.896,1.996-2.004,1.996H4.784c-1.106,0-2.005-0.894-2.005-1.996V7.237    c0-1.103,0.898-1.996,2.005-1.996h18.292c1.107,0,2.004,0.894,2.004,1.996V36.803z"
   id="path38" />
		<path
   d="M23.076,39.299H4.784c-1.382,0-2.505-1.12-2.505-2.496V7.237c0-1.376,1.123-2.496,2.505-2.496h18.292    c1.381,0,2.504,1.12,2.504,2.496v29.566C25.58,38.18,24.457,39.299,23.076,39.299z M4.784,5.741c-0.829,0-1.505,0.671-1.505,1.496    v29.566c0,0.825,0.676,1.496,1.505,1.496h18.292c0.829,0,1.504-0.671,1.504-1.496V7.237c0-0.825-0.675-1.496-1.504-1.496H4.784z"
   id="path40" />
	</g>
	<g
   id="g48">
		<path
   fill="#7F7F7F"
   d="M20.273,76.288l10.064-2.869c0,0,3.717-0.438,3.091,3.617l-3.337,5.318l-14.453-1.264L20.273,76.288z"
   id="path44" />
		<path
   d="M30.354,82.88l-15.803-1.383l5.456-5.653l10.194-2.906c0.078-0.016,0.217-0.032,0.441-0.032    c0.646,0,1.848,0.138,2.641,1.063c0.633,0.738,0.848,1.797,0.64,3.145l-0.071,0.189L30.354,82.88z M16.726,80.685L29.83,81.83    l3.119-4.971c0.138-0.997-0.005-1.75-0.426-2.24c-0.553-0.646-1.499-0.714-1.881-0.714c-0.143,0-0.236,0.009-0.248,0.01    l-9.854,2.816L16.726,80.685z"
   id="path46" />
	</g>
	<g
   id="g54">
		<path
   fill="#B3B3B3"
   d="M15.639,81.423l10.691-3.684c0.19-0.031,0.385-0.058,0.584-0.058c1.891,0,3.424,1.526,3.424,3.409    S28.805,84.5,26.914,84.5c-0.199,0-0.394-0.026-0.584-0.059L15.639,81.423z"
   id="path50" />
		<path
   d="M26.914,85c-0.229,0-0.45-0.028-0.669-0.065l-12.279-3.464l12.2-4.204c0.299-0.057,0.52-0.085,0.748-0.085    c2.164,0,3.924,1.753,3.924,3.909S29.078,85,26.914,85z M17.309,81.376l9.156,2.584c0.112,0.017,0.278,0.04,0.449,0.04    c1.611,0,2.924-1.306,2.924-2.909s-1.313-2.909-2.924-2.909c-0.172,0-0.338,0.023-0.502,0.052L17.309,81.376z"
   id="path52" />
	</g>
</g>
</svg>
