<?xml version="1.0" encoding="UTF-8" standalone="no"?>
<svg
   xmlns:a="http://ns.adobe.com/AdobeSVGViewerExtensions/3.0/"
   xmlns:dc="http://purl.org/dc/elements/1.1/"
   xmlns:cc="http://creativecommons.org/ns#"
   xmlns:rdf="http://www.w3.org/1999/02/22-rdf-syntax-ns#"
   xmlns:svg="http://www.w3.org/2000/svg"
   xmlns="http://www.w3.org/2000/svg"
   xmlns:sodipodi="http://sodipodi.sourceforge.net/DTD/sodipodi-0.dtd"
   xmlns:inkscape="http://www.inkscape.org/namespaces/inkscape"
   version="1.1"
   id="图层_1"
   x="0px"
   y="0px"
   width="30px"
   height="88px"
   viewBox="0 0 30 88"
   enable-background="new 0 0 30 88"
   xml:space="preserve"
   sodipodi:docname="搅拌机_15-01.svg"><metadata
   id="metadata38"><rdf:RDF><cc:Work
       rdf:about=""><dc:format>image/svg+xml</dc:format><dc:type
         rdf:resource="http://purl.org/dc/dcmitype/StillImage" /></cc:Work></rdf:RDF></metadata><defs
   id="defs36" /><sodipodi:namedview
   pagecolor="#ffffff"
   bordercolor="#666666"
   borderopacity="1"
   objecttolerance="10"
   gridtolerance="10"
   guidetolerance="10"
   inkscape:pageopacity="0"
   inkscape:pageshadow="2"
   inkscape:window-width="640"
   inkscape:window-height="480"
   id="namedview34" />
<g
   id="g31">
	<rect
   x="14.5"
   y="38.336"
   width="1"
   height="45.891"
   id="rect2" />
	<g
   id="g15">
		<linearGradient
   id="SVGID_1_"
   gradientUnits="userSpaceOnUse"
   x1="5.5532"
   y1="19.9453"
   x2="24.6796"
   y2="19.9453">
			<stop
   offset="0"
   style="stop-color:#666666"
   id="stop4" />
			<stop
   offset="0.5054"
   style="stop-color:#FFFFFF"
   id="stop6" />
			<stop
   offset="1"
   style="stop-color:#666666"
   id="stop8" />
			<a:midPointStop
   offset="0"
   style="stop-color:#666666" />
			<a:midPointStop
   offset="0.5"
   style="stop-color:#666666" />
			<a:midPointStop
   offset="0.5054"
   style="stop-color:#FFFFFF" />
			<a:midPointStop
   offset="0.5"
   style="stop-color:#FFFFFF" />
			<a:midPointStop
   offset="1"
   style="stop-color:#666666" />
		</linearGradient>
		<path
   fill="url(#SVGID_1_)"
   d="M14.999,0.5C9.158,0.5,4.422,0.955,4.422,2.505v34.88c0,1.55,4.735,2.006,10.576,2.006    c5.843,0,10.578-0.456,10.578-2.006V2.505C25.576,0.955,20.842,0.5,14.999,0.5z"
   id="path11" />
		<path
   d="M14.999,39.891c-9.761,0-11.076-1.267-11.076-2.506V2.505C3.922,1.267,5.238,0,14.999,0    c9.761,0,11.078,1.267,11.078,2.505v34.88C26.076,38.624,24.76,39.891,14.999,39.891z M14.999,1C5.408,1,4.922,2.254,4.922,2.505    v34.88c0,0.252,0.485,1.506,10.076,1.506c9.593,0,10.078-1.254,10.078-1.506V2.505C25.076,2.254,24.592,1,14.999,1z"
   id="path13" />
	</g>
	<g
   id="g29">
		<g
   id="g21">
			<path
   fill="#808080"
   d="M15,83.893L4.676,80.349c-0.197-0.034-0.396-0.062-0.602-0.062c-1.975,0-3.574,1.615-3.574,3.605     c0,1.992,1.6,3.607,3.574,3.607c0.206,0,0.404-0.029,0.602-0.063L15,83.893z"
   id="path17" />
			<path
   d="M4.075,88C1.829,88,0,86.157,0,83.893c0-2.264,1.828-4.105,4.074-4.105c0.234,0,0.461,0.03,0.686,0.068l11.779,4.037     L4.838,87.91C4.536,87.969,4.309,88,4.075,88z M4.075,80.787C2.379,80.787,1,82.181,1,83.893C1,85.605,2.379,87,4.075,87     c0.178,0,0.348-0.026,0.518-0.055l8.869-3.052l-8.947-3.071C4.422,80.813,4.252,80.787,4.075,80.787z"
   id="path19" />
		</g>
		<g
   id="g27">
			<path
   fill="#808080"
   d="M15,83.893l10.324-3.544c0.197-0.034,0.395-0.062,0.6-0.062c1.975,0,3.576,1.615,3.576,3.605     c0,1.992-1.602,3.607-3.576,3.607c-0.205,0-0.402-0.029-0.6-0.063L15,83.893z"
   id="path23" />
			<path
   d="M25.924,88c-0.232,0-0.459-0.031-0.684-0.068l-11.78-4.039l11.702-4.018c0.303-0.058,0.527-0.088,0.762-0.088     c2.248,0,4.076,1.842,4.076,4.105C30,86.157,28.172,88,25.924,88z M16.539,83.893l8.947,3.072C25.576,86.974,25.748,87,25.924,87     C27.621,87,29,85.605,29,83.893c0-1.712-1.379-3.105-3.076-3.105c-0.176,0-0.346,0.025-0.516,0.055L16.539,83.893z"
   id="path25" />
		</g>
	</g>
</g>
</svg>
