<?xml version="1.0" encoding="UTF-8" standalone="no"?>
<svg
   xmlns:a="http://ns.adobe.com/AdobeSVGViewerExtensions/3.0/"
   xmlns:dc="http://purl.org/dc/elements/1.1/"
   xmlns:cc="http://creativecommons.org/ns#"
   xmlns:rdf="http://www.w3.org/1999/02/22-rdf-syntax-ns#"
   xmlns:svg="http://www.w3.org/2000/svg"
   xmlns="http://www.w3.org/2000/svg"
   xmlns:sodipodi="http://sodipodi.sourceforge.net/DTD/sodipodi-0.dtd"
   xmlns:inkscape="http://www.inkscape.org/namespaces/inkscape"
   version="1.1"
   id="图层_1"
   x="0px"
   y="0px"
   width="30px"
   height="92px"
   viewBox="0 0 30 92"
   enable-background="new 0 0 30 92"
   xml:space="preserve"
   sodipodi:docname="搅拌机_16-01.svg"><metadata
   id="metadata30"><rdf:RDF><cc:Work
       rdf:about=""><dc:format>image/svg+xml</dc:format><dc:type
         rdf:resource="http://purl.org/dc/dcmitype/StillImage" /></cc:Work></rdf:RDF></metadata><defs
   id="defs28" /><sodipodi:namedview
   pagecolor="#ffffff"
   bordercolor="#666666"
   borderopacity="1"
   objecttolerance="10"
   gridtolerance="10"
   guidetolerance="10"
   inkscape:pageopacity="0"
   inkscape:pageshadow="2"
   inkscape:window-width="640"
   inkscape:window-height="480"
   id="namedview26" />
<g
   id="g23">
	<rect
   x="14.5"
   y="38.345"
   width="1"
   height="41.962"
   id="rect2" />
	<g
   id="g15">
		<linearGradient
   id="SVGID_1_"
   gradientUnits="userSpaceOnUse"
   x1="5.5527"
   y1="19.9497"
   x2="24.6804"
   y2="19.9497">
			<stop
   offset="0"
   style="stop-color:#666666"
   id="stop4" />
			<stop
   offset="0.5054"
   style="stop-color:#FFFFFF"
   id="stop6" />
			<stop
   offset="1"
   style="stop-color:#666666"
   id="stop8" />
			<a:midPointStop
   offset="0"
   style="stop-color:#666666" />
			<a:midPointStop
   offset="0.5"
   style="stop-color:#666666" />
			<a:midPointStop
   offset="0.5054"
   style="stop-color:#FFFFFF" />
			<a:midPointStop
   offset="0.5"
   style="stop-color:#FFFFFF" />
			<a:midPointStop
   offset="1"
   style="stop-color:#666666" />
		</linearGradient>
		<path
   fill="url(#SVGID_1_)"
   d="M14.999,0.5C9.158,0.5,4.422,0.955,4.422,2.506v34.888c0,1.551,4.736,2.006,10.577,2.006    c5.843,0,10.578-0.455,10.578-2.006V2.506C25.577,0.955,20.842,0.5,14.999,0.5z"
   id="path11" />
		<path
   d="M14.999,39.899c-9.761,0-11.077-1.267-11.077-2.506V2.506C3.922,1.267,5.238,0,14.999,0    c9.762,0,11.078,1.267,11.078,2.506v34.888C26.077,38.633,24.761,39.899,14.999,39.899z M14.999,1    C5.408,1,4.922,2.254,4.922,2.506v34.888c0,0.252,0.486,1.506,10.077,1.506c9.593,0,10.078-1.254,10.078-1.506V2.506    C25.077,2.254,24.592,1,14.999,1z"
   id="path13" />
	</g>
	<g
   id="g21">
		<rect
   x="0.5"
   y="76.328"
   fill="#808080"
   width="29"
   height="15.172"
   id="rect17" />
		<path
   d="M30,92H0V75.828h30V92z M1,91h28V76.828H1V91z"
   id="path19" />
	</g>
</g>
</svg>
