<?xml version="1.0" encoding="UTF-8" standalone="no"?>
<svg
   xmlns:a="http://ns.adobe.com/AdobeSVGViewerExtensions/3.0/"
   xmlns:dc="http://purl.org/dc/elements/1.1/"
   xmlns:cc="http://creativecommons.org/ns#"
   xmlns:rdf="http://www.w3.org/1999/02/22-rdf-syntax-ns#"
   xmlns:svg="http://www.w3.org/2000/svg"
   xmlns="http://www.w3.org/2000/svg"
   xmlns:sodipodi="http://sodipodi.sourceforge.net/DTD/sodipodi-0.dtd"
   xmlns:inkscape="http://www.inkscape.org/namespaces/inkscape"
   version="1.1"
   id="图层_1"
   x="0px"
   y="0px"
   width="57px"
   height="85px"
   viewBox="0 0 57 85"
   enable-background="new 0 0 57 85"
   xml:space="preserve"
   sodipodi:docname="搅拌机_17-01.svg"><metadata
   id="metadata95"><rdf:RDF><cc:Work
       rdf:about=""><dc:format>image/svg+xml</dc:format><dc:type
         rdf:resource="http://purl.org/dc/dcmitype/StillImage" /></cc:Work></rdf:RDF></metadata><defs
   id="defs93" /><sodipodi:namedview
   pagecolor="#ffffff"
   bordercolor="#666666"
   borderopacity="1"
   objecttolerance="10"
   gridtolerance="10"
   guidetolerance="10"
   inkscape:pageopacity="0"
   inkscape:pageshadow="2"
   inkscape:window-width="640"
   inkscape:window-height="480"
   id="namedview91" />
<g
   id="g88">
	<g
   id="g12">
		<g
   id="g6">
			<ellipse
   fill="#666666"
   cx="20.422"
   cy="18.82"
   rx="7.701"
   ry="4.03"
   id="ellipse2" />
			<path
   d="M20.422,23.351c-4.598,0-8.201-1.99-8.201-4.53c0-2.54,3.604-4.529,8.201-4.529c4.6,0,8.201,1.99,8.201,4.529     C28.624,21.361,25.022,23.351,20.422,23.351z M20.422,15.291c-3.902,0-7.201,1.616-7.201,3.529c0,1.914,3.299,3.53,7.201,3.53     c3.904,0,7.201-1.617,7.201-3.53C27.624,16.907,24.327,15.291,20.422,15.291z"
   id="path4" />
		</g>
		<ellipse
   fill="#CCCCCC"
   cx="20.422"
   cy="17.948"
   rx="7.701"
   ry="3.157"
   id="ellipse8" />
		<path
   d="M20.422,23.351c-4.598,0-8.201-1.99-8.201-4.53c0-2.54,3.604-4.529,8.201-4.529c4.6,0,8.201,1.99,8.201,4.529    C28.624,21.361,25.022,23.351,20.422,23.351z M20.422,15.291c-3.902,0-7.201,1.616-7.201,3.529c0,1.914,3.299,3.53,7.201,3.53    c3.904,0,7.201-1.617,7.201-3.53C27.624,16.907,24.327,15.291,20.422,15.291z"
   id="path10" />
	</g>
	<g
   id="g24">
		<g
   id="g18">
			<ellipse
   fill="#666666"
   cx="37.75"
   cy="32.53"
   rx="7.701"
   ry="4.03"
   id="ellipse14" />
			<path
   d="M37.75,37.06c-4.6,0-8.201-1.99-8.201-4.53S33.15,28,37.75,28c4.598,0,8.201,1.99,8.201,4.53S42.348,37.06,37.75,37.06z      M37.75,29c-3.904,0-7.201,1.616-7.201,3.53s3.297,3.53,7.201,3.53c3.902,0,7.201-1.616,7.201-3.53S41.652,29,37.75,29z"
   id="path16" />
		</g>
		<ellipse
   fill="#CCCCCC"
   cx="37.75"
   cy="31.657"
   rx="7.701"
   ry="3.158"
   id="ellipse20" />
		<path
   d="M37.75,37.06c-4.6,0-8.201-1.99-8.201-4.53S33.15,28,37.75,28c4.598,0,8.201,1.99,8.201,4.53S42.348,37.06,37.75,37.06z     M37.75,29c-3.904,0-7.201,1.616-7.201,3.53s3.297,3.53,7.201,3.53c3.902,0,7.201-1.616,7.201-3.53S41.652,29,37.75,29z"
   id="path22" />
	</g>
	<g
   id="g36">
		<g
   id="g30">
			<ellipse
   fill="#666666"
   cx="37.75"
   cy="60.779"
   rx="7.701"
   ry="4.03"
   id="ellipse26" />
			<path
   d="M37.75,65.31c-4.6,0-8.201-1.99-8.201-4.53s3.602-4.53,8.201-4.53c4.598,0,8.201,1.99,8.201,4.53     S42.348,65.31,37.75,65.31z M37.75,57.249c-3.904,0-7.201,1.617-7.201,3.53s3.297,3.53,7.201,3.53     c3.902,0,7.201-1.617,7.201-3.53S41.652,57.249,37.75,57.249z"
   id="path28" />
		</g>
		<ellipse
   fill="#CCCCCC"
   cx="37.75"
   cy="59.907"
   rx="7.701"
   ry="3.157"
   id="ellipse32" />
		<path
   d="M37.75,65.31c-4.6,0-8.201-1.99-8.201-4.53s3.602-4.53,8.201-4.53c4.598,0,8.201,1.99,8.201,4.53    S42.348,65.31,37.75,65.31z M37.75,57.249c-3.904,0-7.201,1.617-7.201,3.53s3.297,3.53,7.201,3.53c3.902,0,7.201-1.617,7.201-3.53    S41.652,57.249,37.75,57.249z"
   id="path34" />
	</g>
	<g
   id="g48">
		<g
   id="g42">
			<ellipse
   fill="#666666"
   cx="20.422"
   cy="46.529"
   rx="7.701"
   ry="4.03"
   id="ellipse38" />
			<path
   d="M20.422,51.06c-4.598,0-8.201-1.99-8.201-4.53S15.825,42,20.422,42c4.6,0,8.201,1.989,8.201,4.529     S25.022,51.06,20.422,51.06z M20.422,43c-3.902,0-7.201,1.616-7.201,3.529s3.299,3.53,7.201,3.53c3.904,0,7.201-1.617,7.201-3.53     S24.327,43,20.422,43z"
   id="path40" />
		</g>
		<ellipse
   fill="#CCCCCC"
   cx="20.422"
   cy="45.657"
   rx="7.701"
   ry="3.158"
   id="ellipse44" />
		<path
   d="M20.422,51.06c-4.598,0-8.201-1.99-8.201-4.53S15.825,42,20.422,42c4.6,0,8.201,1.989,8.201,4.529    S25.022,51.06,20.422,51.06z M20.422,43c-3.902,0-7.201,1.616-7.201,3.529s3.299,3.53,7.201,3.53c3.904,0,7.201-1.617,7.201-3.53    S24.327,43,20.422,43z"
   id="path46" />
	</g>
	<g
   id="g60">
		<g
   id="g54">
			<ellipse
   fill="#666666"
   cx="20.422"
   cy="74.53"
   rx="7.701"
   ry="4.029"
   id="ellipse50" />
			<path
   d="M20.422,79.06c-4.598,0-8.201-1.99-8.201-4.529c0-2.541,3.604-4.53,8.201-4.53c4.6,0,8.201,1.989,8.201,4.53     C28.624,77.069,25.022,79.06,20.422,79.06z M20.422,71c-3.902,0-7.201,1.616-7.201,3.53c0,1.913,3.299,3.529,7.201,3.529     c3.904,0,7.201-1.616,7.201-3.529C27.624,72.616,24.327,71,20.422,71z"
   id="path52" />
		</g>
		<ellipse
   fill="#CCCCCC"
   cx="20.422"
   cy="73.657"
   rx="7.701"
   ry="3.158"
   id="ellipse56" />
		<path
   d="M20.422,79.06c-4.598,0-8.201-1.99-8.201-4.529c0-2.541,3.604-4.53,8.201-4.53c4.6,0,8.201,1.989,8.201,4.53    C28.624,77.069,25.022,79.06,20.422,79.06z M20.422,71c-3.902,0-7.201,1.616-7.201,3.53c0,1.913,3.299,3.529,7.201,3.529    c3.904,0,7.201-1.616,7.201-3.529C27.624,72.616,24.327,71,20.422,71z"
   id="path58" />
	</g>
	<g
   id="g73">
		<linearGradient
   id="SVGID_1_"
   gradientUnits="userSpaceOnUse"
   x1="26.8447"
   y1="42.5"
   x2="30.7037"
   y2="42.5">
			<stop
   offset="0"
   style="stop-color:#666666"
   id="stop62" />
			<stop
   offset="0.5054"
   style="stop-color:#FFFFFF"
   id="stop64" />
			<stop
   offset="1"
   style="stop-color:#666666"
   id="stop66" />
			<a:midPointStop
   offset="0"
   style="stop-color:#666666" />
			<a:midPointStop
   offset="0.5"
   style="stop-color:#666666" />
			<a:midPointStop
   offset="0.5054"
   style="stop-color:#FFFFFF" />
			<a:midPointStop
   offset="0.5"
   style="stop-color:#FFFFFF" />
			<a:midPointStop
   offset="1"
   style="stop-color:#666666" />
		</linearGradient>
		<rect
   x="26.617"
   y="2.245"
   fill="url(#SVGID_1_)"
   width="4.268"
   height="80.51"
   id="rect69" />
		<path
   d="M31.385,83.255h-5.268V1.745h5.268V83.255z M27.117,82.255h3.268V2.745h-3.268V82.255z"
   id="path71" />
	</g>
	<g
   id="g86">
		<linearGradient
   id="SVGID_2_"
   gradientUnits="userSpaceOnUse"
   x1="3.4937"
   y1="42.5"
   x2="54.1264"
   y2="42.5">
			<stop
   offset="0"
   style="stop-color:#666666"
   id="stop75" />
			<stop
   offset="0.5054"
   style="stop-color:#FFFFFF"
   id="stop77" />
			<stop
   offset="1"
   style="stop-color:#666666"
   id="stop79" />
			<a:midPointStop
   offset="0"
   style="stop-color:#666666" />
			<a:midPointStop
   offset="0.5"
   style="stop-color:#666666" />
			<a:midPointStop
   offset="0.5054"
   style="stop-color:#FFFFFF" />
			<a:midPointStop
   offset="0.5"
   style="stop-color:#FFFFFF" />
			<a:midPointStop
   offset="1"
   style="stop-color:#666666" />
		</linearGradient>
		<path
   fill="url(#SVGID_2_)"
   d="M0.5,0.5v84h56v-84H0.5z M54.24,81.11H2.76V3.89h51.48V81.11z"
   id="path82" />
		<path
   d="M57,85H0V0h57V85z M1,84h55V1H1V84z M54.74,81.61H2.26V3.39h52.48V81.61z M3.26,80.61h50.48V4.39H3.26V80.61z"
   id="path84" />
	</g>
</g>
</svg>
