<?xml version="1.0" encoding="UTF-8" standalone="no"?>
<svg
   xmlns:a="http://ns.adobe.com/AdobeSVGViewerExtensions/3.0/"
   xmlns:dc="http://purl.org/dc/elements/1.1/"
   xmlns:cc="http://creativecommons.org/ns#"
   xmlns:rdf="http://www.w3.org/1999/02/22-rdf-syntax-ns#"
   xmlns:svg="http://www.w3.org/2000/svg"
   xmlns="http://www.w3.org/2000/svg"
   xmlns:sodipodi="http://sodipodi.sourceforge.net/DTD/sodipodi-0.dtd"
   xmlns:inkscape="http://www.inkscape.org/namespaces/inkscape"
   version="1.1"
   id="图层_1"
   x="0px"
   y="0px"
   width="57px"
   height="77px"
   viewBox="0 0 57 77"
   enable-background="new 0 0 57 77"
   xml:space="preserve"
   sodipodi:docname="搅拌机_18-01.svg"><metadata
   id="metadata79"><rdf:RDF><cc:Work
       rdf:about=""><dc:format>image/svg+xml</dc:format><dc:type
         rdf:resource="http://purl.org/dc/dcmitype/StillImage" /></cc:Work></rdf:RDF></metadata><defs
   id="defs77" /><sodipodi:namedview
   pagecolor="#ffffff"
   bordercolor="#666666"
   borderopacity="1"
   objecttolerance="10"
   gridtolerance="10"
   guidetolerance="10"
   inkscape:pageopacity="0"
   inkscape:pageshadow="2"
   inkscape:window-width="640"
   inkscape:window-height="480"
   id="namedview75" />
<g
   id="g72">
	<g
   id="g6">
		<path
   fill="#E5E5E5"
   d="M0.5,20.128v47.408c0,4.951,12.536,8.964,28,8.964s28-4.013,28-8.964V20.128H0.5z"
   id="path2" />
		<path
   d="M28.5,77C12.519,77,0,72.843,0,67.536V19.628h57v47.908C57,72.843,44.481,77,28.5,77z M1,20.628v46.908    C1,72.124,13.594,76,28.5,76S56,72.124,56,67.536V20.628H1z"
   id="path4" />
	</g>
	<g
   id="g70">
		<g
   id="g37">
			<rect
   x="14.313"
   y="26.899"
   width="1"
   height="32.02"
   id="rect8" />
			<g
   id="g21">
				<linearGradient
   id="SVGID_1_"
   gradientUnits="userSpaceOnUse"
   x1="8.2104"
   y1="14.0674"
   x2="21.5803"
   y2="14.0674">
					<stop
   offset="0"
   style="stop-color:#666666"
   id="stop10" />
					<stop
   offset="0.5054"
   style="stop-color:#FFFFFF"
   id="stop12" />
					<stop
   offset="1"
   style="stop-color:#666666"
   id="stop14" />
					<a:midPointStop
   offset="0"
   style="stop-color:#666666" />
					<a:midPointStop
   offset="0.5"
   style="stop-color:#666666" />
					<a:midPointStop
   offset="0.5054"
   style="stop-color:#FFFFFF" />
					<a:midPointStop
   offset="0.5"
   style="stop-color:#FFFFFF" />
					<a:midPointStop
   offset="1"
   style="stop-color:#666666" />
				</linearGradient>
				<path
   fill="url(#SVGID_1_)"
   d="M14.813,0.5C10.73,0.5,7.42,0.818,7.42,1.899v24.337c0,1.082,3.311,1.399,7.393,1.399      c4.084,0,7.395-0.318,7.395-1.399V1.899C22.207,0.818,18.896,0.5,14.813,0.5z"
   id="path17" />
				<path
   d="M14.813,28.135c-5.605,0-7.893-0.55-7.893-1.899V1.899C6.92,0.55,9.207,0,14.813,0c5.607,0,7.895,0.55,7.895,1.899      v24.337C22.707,27.585,20.42,28.135,14.813,28.135z M14.813,1C8.107,1,7.92,1.89,7.92,1.899v24.337      c0,0.009,0.188,0.899,6.893,0.899c6.707,0,6.895-0.891,6.895-0.899V1.899C21.707,1.89,21.52,1,14.813,1z"
   id="path19" />
			</g>
			<g
   id="g35">
				<g
   id="g27">
					<path
   fill="#808080"
   d="M14.813,58.686l-7.216-2.473c-0.136-0.023-0.276-0.042-0.419-0.042c-1.381,0-2.499,1.126-2.499,2.515       c0,1.391,1.118,2.517,2.499,2.517c0.143,0,0.283-0.02,0.419-0.043L14.813,58.686z"
   id="path23" />
					<path
   d="M7.178,61.702c-1.654,0-2.999-1.354-2.999-3.017s1.345-3.015,2.999-3.015c0.172,0,0.341,0.021,0.504,0.049l8.673,2.966       l-8.596,2.946C7.518,61.68,7.349,61.702,7.178,61.702z M7.178,56.671c-1.102,0-1.999,0.903-1.999,2.015       c0,1.112,0.897,2.017,1.999,2.017c0.114,0,0.227-0.018,0.336-0.036l5.759-1.979l-5.838-2C7.4,56.686,7.291,56.671,7.178,56.671       z"
   id="path25" />
				</g>
				<g
   id="g33">
					<path
   fill="#808080"
   d="M14.813,58.686l7.217-2.473c0.137-0.023,0.277-0.042,0.42-0.042c1.38,0,2.499,1.126,2.499,2.515       c0,1.391-1.119,2.517-2.499,2.517c-0.143,0-0.283-0.02-0.42-0.043L14.813,58.686z"
   id="path29" />
					<path
   d="M22.449,61.702c-0.171,0-0.339-0.022-0.503-0.05l-8.676-2.967l8.597-2.946c0.242-0.047,0.411-0.068,0.582-0.068       c1.653,0,2.999,1.352,2.999,3.015S24.103,61.702,22.449,61.702z M22.196,60.687c0.036,0,0.144,0.016,0.253,0.016       c1.103,0,1.999-0.904,1.999-2.017c0-1.111-0.896-2.015-1.999-2.015c-0.114,0-0.227,0.016-0.335,0.035l-5.762,1.979l5.839,2.002       C22.192,60.687,22.194,60.687,22.196,60.687z"
   id="path31" />
				</g>
			</g>
		</g>
		<g
   id="g68">
			<rect
   x="41.686"
   y="26.899"
   width="1"
   height="32.02"
   id="rect39" />
			<g
   id="g52">
				<linearGradient
   id="SVGID_2_"
   gradientUnits="userSpaceOnUse"
   x1="35.582"
   y1="14.0674"
   x2="48.9519"
   y2="14.0674">
					<stop
   offset="0"
   style="stop-color:#666666"
   id="stop41" />
					<stop
   offset="0.5054"
   style="stop-color:#FFFFFF"
   id="stop43" />
					<stop
   offset="1"
   style="stop-color:#666666"
   id="stop45" />
					<a:midPointStop
   offset="0"
   style="stop-color:#666666" />
					<a:midPointStop
   offset="0.5"
   style="stop-color:#666666" />
					<a:midPointStop
   offset="0.5054"
   style="stop-color:#FFFFFF" />
					<a:midPointStop
   offset="0.5"
   style="stop-color:#FFFFFF" />
					<a:midPointStop
   offset="1"
   style="stop-color:#666666" />
				</linearGradient>
				<path
   fill="url(#SVGID_2_)"
   d="M42.186,0.5c-4.084,0-7.395,0.318-7.395,1.399v24.337c0,1.082,3.311,1.399,7.395,1.399      c4.082,0,7.393-0.318,7.393-1.399V1.899C49.578,0.818,46.268,0.5,42.186,0.5z"
   id="path48" />
				<path
   d="M42.186,28.135c-5.607,0-7.895-0.55-7.895-1.899V1.899C34.291,0.55,36.578,0,42.186,0c5.605,0,7.893,0.55,7.893,1.899      v24.337C50.078,27.585,47.791,28.135,42.186,28.135z M42.186,1c-6.707,0-6.895,0.89-6.895,0.899v24.337      c0,0.009,0.188,0.899,6.895,0.899c6.705,0,6.893-0.891,6.893-0.899V1.899C49.078,1.89,48.891,1,42.186,1z"
   id="path50" />
			</g>
			<g
   id="g66">
				<g
   id="g58">
					<path
   fill="#808080"
   d="M42.186,58.686l-7.217-2.473c-0.137-0.023-0.275-0.042-0.418-0.042c-1.38,0-2.501,1.126-2.501,2.515       c0,1.391,1.121,2.517,2.501,2.517c0.143,0,0.281-0.02,0.418-0.043L42.186,58.686z"
   id="path54" />
					<path
   d="M34.551,61.702c-1.654,0-3.001-1.354-3.001-3.017s1.347-3.015,3.001-3.015c0.171,0,0.338,0.021,0.503,0.049       l8.674,2.966l-8.597,2.946C34.888,61.68,34.722,61.702,34.551,61.702z M34.551,56.671c-1.104,0-2.001,0.903-2.001,2.015       c0,1.112,0.897,2.017,2.001,2.017c0.114,0,0.226-0.018,0.335-0.036l5.76-1.979l-5.839-2       C34.771,56.686,34.664,56.671,34.551,56.671z"
   id="path56" />
				</g>
				<g
   id="g64">
					<path
   fill="#808080"
   d="M42.186,58.686l7.218-2.473c0.136-0.023,0.274-0.042,0.417-0.042c1.381,0,2.501,1.126,2.501,2.515       c0,1.391-1.12,2.517-2.501,2.517c-0.143,0-0.281-0.02-0.417-0.043L42.186,58.686z"
   id="path60" />
					<path
   d="M49.82,61.702c-0.171,0-0.338-0.022-0.5-0.05l-8.678-2.967l8.599-2.946c0.24-0.047,0.407-0.068,0.579-0.068       c1.654,0,3.001,1.352,3.001,3.015S51.475,61.702,49.82,61.702z M49.57,60.687c0.035,0,0.141,0.016,0.25,0.016       c1.104,0,2.001-0.904,2.001-2.017c0-1.111-0.897-2.015-2.001-2.015c-0.113,0-0.224,0.016-0.332,0.035l-5.762,1.979l5.839,2.002       C49.566,60.687,49.568,60.687,49.57,60.687z"
   id="path62" />
				</g>
			</g>
		</g>
	</g>
</g>
</svg>
