<?xml version="1.0" encoding="UTF-8" standalone="no"?>
<svg
   xmlns:dc="http://purl.org/dc/elements/1.1/"
   xmlns:cc="http://creativecommons.org/ns#"
   xmlns:rdf="http://www.w3.org/1999/02/22-rdf-syntax-ns#"
   xmlns:svg="http://www.w3.org/2000/svg"
   xmlns="http://www.w3.org/2000/svg"
   xmlns:sodipodi="http://sodipodi.sourceforge.net/DTD/sodipodi-0.dtd"
   xmlns:inkscape="http://www.inkscape.org/namespaces/inkscape"
   version="1.1"
   id="图层_1"
   x="0px"
   y="0px"
   width="37px"
   height="91px"
   viewBox="0 0 37 91"
   enable-background="new 0 0 37 91"
   xml:space="preserve"
   sodipodi:docname="搅拌机_21-01.svg"><metadata
   id="metadata99"><rdf:RDF><cc:Work
       rdf:about=""><dc:format>image/svg+xml</dc:format><dc:type
         rdf:resource="http://purl.org/dc/dcmitype/StillImage" /></cc:Work></rdf:RDF></metadata><defs
   id="defs97" /><sodipodi:namedview
   pagecolor="#ffffff"
   bordercolor="#666666"
   borderopacity="1"
   objecttolerance="10"
   gridtolerance="10"
   guidetolerance="10"
   inkscape:pageopacity="0"
   inkscape:pageshadow="2"
   inkscape:window-width="640"
   inkscape:window-height="480"
   id="namedview95" />
<g
   id="g92">
	<g
   id="g6">
		<rect
   x="0.5"
   y="0.5"
   fill="#1B75BB"
   width="36"
   height="90"
   id="rect2" />
		<path
   d="M37,91H0V0h37V91z M1,90h35V1H1V90z"
   id="path4" />
	</g>
	<g
   id="g12">
		<rect
   x="5.862"
   y="4.717"
   fill="#B3B3B3"
   width="25.277"
   height="19.083"
   id="rect8" />
		<path
   d="M31.639,24.3H5.362V4.217h26.277V24.3z M6.362,23.3h24.277V5.217H6.362V23.3z"
   id="path10" />
	</g>
	<g
   id="g18">
		<rect
   x="5.862"
   y="28.29"
   fill="#B3B3B3"
   width="25.277"
   height="57.765"
   id="rect14" />
		<path
   d="M31.639,86.555H5.362V27.79h26.277V86.555z M6.362,85.555h24.277V28.79H6.362V85.555z"
   id="path16" />
	</g>
	<g
   id="g24">
		<rect
   x="5.862"
   y="57.172"
   fill="#CCCCCC"
   width="25.277"
   height="26.633"
   id="rect20" />
		<path
   d="M31.639,84.305H5.362V56.672h26.277V84.305z M6.362,83.305h24.277V57.672H6.362V83.305z"
   id="path22" />
	</g>
	<g
   id="g30">
		<rect
   x="9.619"
   y="7.554"
   fill="#CCCCCC"
   width="17.762"
   height="13.409"
   id="rect26" />
		<path
   d="M27.881,21.463H9.119V7.054h18.762V21.463z M10.119,20.463h16.762V8.054H10.119V20.463z"
   id="path28" />
	</g>
	<g
   id="g36">
		<rect
   x="12.689"
   y="33.359"
   fill="#AEDEE4"
   width="7.467"
   height="16.089"
   id="rect32" />
		<path
   d="M20.656,49.948h-8.467V32.859h8.467V49.948z M13.189,48.948h6.467V33.859h-6.467V48.948z"
   id="path34" />
	</g>
	<g
   id="g42">
		<rect
   x="8.557"
   y="63.057"
   fill="#AEDEE4"
   width="5.911"
   height="6.369"
   id="rect38" />
		<path
   d="M14.968,69.926H8.057v-7.369h6.911V69.926z M9.057,68.926h4.911v-5.369H9.057V68.926z"
   id="path40" />
	</g>
	<g
   id="g48">
		<rect
   x="15.585"
   y="63.057"
   fill="#AEDEE4"
   width="5.911"
   height="6.369"
   id="rect44" />
		<path
   d="M21.996,69.926h-6.911v-7.369h6.911V69.926z M16.085,68.926h4.911v-5.369h-4.911V68.926z"
   id="path46" />
	</g>
	<g
   id="g54">
		<rect
   x="22.613"
   y="63.057"
   fill="#AEDEE4"
   width="5.912"
   height="6.369"
   id="rect50" />
		<path
   d="M29.025,69.926h-6.912v-7.369h6.912V69.926z M23.113,68.926h4.912v-5.369h-4.912V68.926z"
   id="path52" />
	</g>
	<g
   id="g60">
		<rect
   x="8.557"
   y="72.106"
   fill="#AEDEE4"
   width="5.911"
   height="6.368"
   id="rect56" />
		<path
   d="M14.968,78.975H8.057v-7.368h6.911V78.975z M9.057,77.975h4.911v-5.368H9.057V77.975z"
   id="path58" />
	</g>
	<g
   id="g66">
		<rect
   x="15.585"
   y="72.106"
   fill="#AEDEE4"
   width="5.911"
   height="6.368"
   id="rect62" />
		<path
   d="M21.996,78.975h-6.911v-7.368h6.911V78.975z M16.085,77.975h4.911v-5.368h-4.911V77.975z"
   id="path64" />
	</g>
	<g
   id="g72">
		<rect
   x="22.613"
   y="72.106"
   fill="#AEDEE4"
   width="5.912"
   height="6.368"
   id="rect68" />
		<path
   d="M29.025,78.975h-6.912v-7.368h6.912V78.975z M23.113,77.975h4.912v-5.368h-4.912V77.975z"
   id="path70" />
	</g>
	<g
   id="g78">
		<rect
   x="12.689"
   y="33.359"
   fill="#00B0D8"
   width="7.467"
   height="7.039"
   id="rect74" />
		<path
   d="M20.656,40.898h-8.467v-8.039h8.467V40.898z M13.189,39.898h6.467v-6.039h-6.467V39.898z"
   id="path76" />
	</g>
	<g
   id="g84">
		<rect
   x="22.313"
   y="33.359"
   fill="#EC1C24"
   width="2.988"
   height="16.089"
   id="rect80" />
		<path
   d="M25.801,49.948h-3.988V32.859h3.988V49.948z M22.813,48.948h1.988V33.859h-1.988V48.948z"
   id="path82" />
	</g>
	<g
   id="g90">
		<rect
   x="22.313"
   y="33.359"
   fill="#8BC53F"
   width="2.988"
   height="7.039"
   id="rect86" />
		<path
   d="M25.801,40.898h-3.988v-8.039h3.988V40.898z M22.813,39.898h1.988v-6.039h-1.988V39.898z"
   id="path88" />
	</g>
</g>
</svg>
