<?xml version="1.0" encoding="UTF-8" standalone="no"?>
<svg
   xmlns:a="http://ns.adobe.com/AdobeSVGViewerExtensions/3.0/"
   xmlns:dc="http://purl.org/dc/elements/1.1/"
   xmlns:cc="http://creativecommons.org/ns#"
   xmlns:rdf="http://www.w3.org/1999/02/22-rdf-syntax-ns#"
   xmlns:svg="http://www.w3.org/2000/svg"
   xmlns="http://www.w3.org/2000/svg"
   xmlns:sodipodi="http://sodipodi.sourceforge.net/DTD/sodipodi-0.dtd"
   xmlns:inkscape="http://www.inkscape.org/namespaces/inkscape"
   version="1.1"
   id="图层_1"
   x="0px"
   y="0px"
   width="46px"
   height="86px"
   viewBox="0 0 46 86"
   enable-background="new 0 0 46 86"
   xml:space="preserve"
   sodipodi:docname="搅拌机_03-01.svg"><metadata
   id="metadata121"><rdf:RDF><cc:Work
       rdf:about=""><dc:format>image/svg+xml</dc:format><dc:type
         rdf:resource="http://purl.org/dc/dcmitype/StillImage" /></cc:Work></rdf:RDF></metadata><defs
   id="defs119" /><sodipodi:namedview
   pagecolor="#ffffff"
   bordercolor="#666666"
   borderopacity="1"
   objecttolerance="10"
   gridtolerance="10"
   guidetolerance="10"
   inkscape:pageopacity="0"
   inkscape:pageshadow="2"
   inkscape:window-width="640"
   inkscape:window-height="480"
   id="namedview117" />
<g
   id="g114">
	<g
   id="g13">
		<linearGradient
   id="SVGID_1_"
   gradientUnits="userSpaceOnUse"
   x1="1.5332"
   y1="67.752"
   x2="22.9248"
   y2="67.752">
			<stop
   offset="0"
   style="stop-color:#666666"
   id="stop2" />
			<stop
   offset="0.5054"
   style="stop-color:#FFFFFF"
   id="stop4" />
			<stop
   offset="1"
   style="stop-color:#666666"
   id="stop6" />
			<a:midPointStop
   offset="0"
   style="stop-color:#666666" />
			<a:midPointStop
   offset="0.5"
   style="stop-color:#666666" />
			<a:midPointStop
   offset="0.5054"
   style="stop-color:#FFFFFF" />
			<a:midPointStop
   offset="0.5"
   style="stop-color:#FFFFFF" />
			<a:midPointStop
   offset="1"
   style="stop-color:#666666" />
		</linearGradient>
		<polygon
   fill="url(#SVGID_1_)"
   points="1.533,70.668 22.925,70.668 7.814,64.836   "
   id="polygon9" />
		<path
   d="M22.925,71.17H1.533c-0.205,0-0.391-0.127-0.466-0.318s-0.025-0.41,0.126-0.549l6.281-5.834    c0.139-0.129,0.342-0.168,0.52-0.1l15.111,5.832c0.225,0.088,0.355,0.322,0.311,0.559C23.373,70.998,23.166,71.17,22.925,71.17z     M2.807,70.168h17.433L7.926,65.414L2.807,70.168z"
   id="path11" />
	</g>
	<g
   id="g26">
		<linearGradient
   id="SVGID_2_"
   gradientUnits="userSpaceOnUse"
   x1="1.5332"
   y1="76.165"
   x2="22.9248"
   y2="76.165">
			<stop
   offset="0"
   style="stop-color:#666666"
   id="stop15" />
			<stop
   offset="0.5054"
   style="stop-color:#FFFFFF"
   id="stop17" />
			<stop
   offset="1"
   style="stop-color:#666666"
   id="stop19" />
			<a:midPointStop
   offset="0"
   style="stop-color:#666666" />
			<a:midPointStop
   offset="0.5"
   style="stop-color:#666666" />
			<a:midPointStop
   offset="0.5054"
   style="stop-color:#FFFFFF" />
			<a:midPointStop
   offset="0.5"
   style="stop-color:#FFFFFF" />
			<a:midPointStop
   offset="1"
   style="stop-color:#666666" />
		</linearGradient>
		<polygon
   fill="url(#SVGID_2_)"
   points="1.533,76.555 12.229,81.1 22.925,71.23   "
   id="polygon22" />
		<path
   d="M12.229,81.602c-0.065,0-0.133-0.014-0.196-0.041L1.338,77.016c-0.198-0.084-0.32-0.285-0.303-0.5    c0.016-0.215,0.168-0.395,0.377-0.445l21.392-5.326c0.224-0.057,0.452,0.047,0.562,0.248c0.108,0.201,0.066,0.451-0.102,0.605    l-10.695,9.871C12.475,81.555,12.354,81.602,12.229,81.602z M3.105,76.68l9.022,3.834l9.021-8.326L3.105,76.68z"
   id="path24" />
	</g>
	<g
   id="g39">
		<linearGradient
   id="SVGID_3_"
   gradientUnits="userSpaceOnUse"
   x1="20.1543"
   y1="77.8301"
   x2="32.2998"
   y2="77.8301">
			<stop
   offset="0"
   style="stop-color:#666666"
   id="stop28" />
			<stop
   offset="0.5054"
   style="stop-color:#FFFFFF"
   id="stop30" />
			<stop
   offset="1"
   style="stop-color:#666666"
   id="stop32" />
			<a:midPointStop
   offset="0"
   style="stop-color:#666666" />
			<a:midPointStop
   offset="0.5"
   style="stop-color:#666666" />
			<a:midPointStop
   offset="0.5054"
   style="stop-color:#FFFFFF" />
			<a:midPointStop
   offset="0.5"
   style="stop-color:#FFFFFF" />
			<a:midPointStop
   offset="1"
   style="stop-color:#666666" />
		</linearGradient>
		<polygon
   fill="url(#SVGID_3_)"
   points="20.154,84.43 32.3,82.305 22.925,71.23   "
   id="polygon35" />
		<path
   d="M20.154,84.932c-0.135,0-0.265-0.055-0.359-0.154c-0.115-0.119-0.164-0.287-0.131-0.449l2.771-13.201    c0.039-0.188,0.182-0.334,0.367-0.381c0.184-0.047,0.381,0.016,0.504,0.16l9.375,11.076c0.115,0.137,0.149,0.324,0.088,0.494    c-0.061,0.168-0.207,0.291-0.383,0.322L20.24,84.924C20.212,84.928,20.184,84.932,20.154,84.932z M23.204,72.334l-2.408,11.477    l10.559-1.848L23.204,72.334z"
   id="path37" />
	</g>
	<g
   id="g52">
		<linearGradient
   id="SVGID_4_"
   gradientUnits="userSpaceOnUse"
   x1="23.5186"
   y1="74.249"
   x2="45.6748"
   y2="74.249">
			<stop
   offset="0"
   style="stop-color:#666666"
   id="stop41" />
			<stop
   offset="0.5054"
   style="stop-color:#FFFFFF"
   id="stop43" />
			<stop
   offset="1"
   style="stop-color:#666666"
   id="stop45" />
			<a:midPointStop
   offset="0"
   style="stop-color:#666666" />
			<a:midPointStop
   offset="0.5"
   style="stop-color:#666666" />
			<a:midPointStop
   offset="0.5054"
   style="stop-color:#FFFFFF" />
			<a:midPointStop
   offset="0.5"
   style="stop-color:#FFFFFF" />
			<a:midPointStop
   offset="1"
   style="stop-color:#666666" />
		</linearGradient>
		<polygon
   fill="url(#SVGID_4_)"
   points="37.925,77.83 45.675,71.23 23.519,70.668   "
   id="polygon48" />
		<path
   d="M37.925,78.33c-0.075,0-0.151-0.018-0.223-0.051l-14.406-7.162c-0.21-0.105-0.319-0.342-0.263-0.568    c0.056-0.229,0.244-0.412,0.498-0.381l22.156,0.563c0.207,0.004,0.39,0.137,0.459,0.332c0.069,0.197,0.011,0.414-0.147,0.549    l-7.75,6.6C38.156,78.289,38.041,78.33,37.925,78.33z M25.764,71.227l12.088,6.008l6.504-5.537L25.764,71.227z"
   id="path50" />
	</g>
	<g
   id="g65">
		<linearGradient
   id="SVGID_5_"
   gradientUnits="userSpaceOnUse"
   x1="23.5186"
   y1="66.2373"
   x2="43.2607"
   y2="66.2373">
			<stop
   offset="0"
   style="stop-color:#666666"
   id="stop54" />
			<stop
   offset="0.5054"
   style="stop-color:#FFFFFF"
   id="stop56" />
			<stop
   offset="1"
   style="stop-color:#666666"
   id="stop58" />
			<a:midPointStop
   offset="0"
   style="stop-color:#666666" />
			<a:midPointStop
   offset="0.5"
   style="stop-color:#666666" />
			<a:midPointStop
   offset="0.5054"
   style="stop-color:#FFFFFF" />
			<a:midPointStop
   offset="0.5"
   style="stop-color:#FFFFFF" />
			<a:midPointStop
   offset="1"
   style="stop-color:#666666" />
		</linearGradient>
		<polygon
   fill="url(#SVGID_5_)"
   points="32.829,61.807 43.261,63.889 23.519,70.668   "
   id="polygon61" />
		<path
   d="M23.519,71.17c-0.171,0-0.335-0.088-0.428-0.242c-0.122-0.201-0.087-0.459,0.083-0.621l9.311-8.861    c0.118-0.113,0.284-0.158,0.443-0.129l10.432,2.082c0.221,0.045,0.385,0.232,0.4,0.457s-0.123,0.434-0.336,0.506l-19.742,6.781    C23.627,71.16,23.572,71.17,23.519,71.17z M32.986,62.348l-7.463,7.104l15.824-5.434L32.986,62.348z"
   id="path63" />
	</g>
	<g
   id="g78">
		<linearGradient
   id="SVGID_6_"
   gradientUnits="userSpaceOnUse"
   x1="13.1992"
   y1="65.9736"
   x2="22.9248"
   y2="65.9736">
			<stop
   offset="0"
   style="stop-color:#666666"
   id="stop67" />
			<stop
   offset="0.5054"
   style="stop-color:#FFFFFF"
   id="stop69" />
			<stop
   offset="1"
   style="stop-color:#666666"
   id="stop71" />
			<a:midPointStop
   offset="0"
   style="stop-color:#666666" />
			<a:midPointStop
   offset="0.5"
   style="stop-color:#666666" />
			<a:midPointStop
   offset="0.5054"
   style="stop-color:#FFFFFF" />
			<a:midPointStop
   offset="0.5"
   style="stop-color:#FFFFFF" />
			<a:midPointStop
   offset="1"
   style="stop-color:#666666" />
		</linearGradient>
		<polygon
   fill="url(#SVGID_6_)"
   points="13.199,62.367 22.039,59.717 22.925,72.23   "
   id="polygon74" />
		<path
   d="M22.925,72.732c-0.131,0-0.261-0.053-0.356-0.15l-9.726-9.863c-0.123-0.125-0.172-0.305-0.128-0.475    c0.043-0.17,0.172-0.305,0.341-0.355l8.84-2.652c0.145-0.045,0.302-0.018,0.428,0.068c0.125,0.086,0.204,0.225,0.215,0.377    l0.886,12.514c0.015,0.209-0.102,0.406-0.293,0.492C23.064,72.717,22.994,72.732,22.925,72.732z M14.139,62.607l8.191,8.309    l-0.746-10.541L14.139,62.607z"
   id="path76" />
	</g>
	<g
   id="g112">
		<g
   id="g84">
			<ellipse
   fill="#B3B3B3"
   cx="22.925"
   cy="72.23"
   rx="4.747"
   ry="2.875"
   id="ellipse80" />
			<path
   d="M22.925,75.605c-2.942,0-5.247-1.482-5.247-3.375s2.305-3.375,5.247-3.375s5.247,1.482,5.247,3.375     S25.867,75.605,22.925,75.605z M22.925,69.855c-2.302,0-4.247,1.088-4.247,2.375c0,1.289,1.945,2.375,4.247,2.375     s4.247-1.086,4.247-2.375C27.172,70.943,25.227,69.855,22.925,69.855z"
   id="path82" />
		</g>
		<g
   id="g97">
			<linearGradient
   id="SVGID_7_"
   gradientUnits="userSpaceOnUse"
   x1="18.1777"
   y1="71.2305"
   x2="27.6719"
   y2="71.2305">
				<stop
   offset="0"
   style="stop-color:#666666"
   id="stop86" />
				<stop
   offset="0.5054"
   style="stop-color:#FFFFFF"
   id="stop88" />
				<stop
   offset="1"
   style="stop-color:#666666"
   id="stop90" />
				<a:midPointStop
   offset="0"
   style="stop-color:#666666" />
				<a:midPointStop
   offset="0.5"
   style="stop-color:#666666" />
				<a:midPointStop
   offset="0.5054"
   style="stop-color:#FFFFFF" />
				<a:midPointStop
   offset="0.5"
   style="stop-color:#FFFFFF" />
				<a:midPointStop
   offset="1"
   style="stop-color:#666666" />
			</linearGradient>
			<ellipse
   fill="url(#SVGID_7_)"
   cx="22.925"
   cy="71.23"
   rx="4.747"
   ry="2.35"
   id="ellipse93" />
			<path
   d="M22.925,74.08c-2.942,0-5.247-1.252-5.247-2.85s2.305-2.85,5.247-2.85s5.247,1.252,5.247,2.85S25.867,74.08,22.925,74.08     z M22.925,69.381c-2.503,0-4.247,0.975-4.247,1.85s1.744,1.85,4.247,1.85s4.247-0.975,4.247-1.85S25.428,69.381,22.925,69.381z"
   id="path95" />
		</g>
		<g
   id="g110">
			<linearGradient
   id="SVGID_8_"
   gradientUnits="userSpaceOnUse"
   x1="20.9248"
   y1="36.0029"
   x2="24.9248"
   y2="36.0029">
				<stop
   offset="0"
   style="stop-color:#666666"
   id="stop99" />
				<stop
   offset="0.5054"
   style="stop-color:#FFFFFF"
   id="stop101" />
				<stop
   offset="1"
   style="stop-color:#666666"
   id="stop103" />
				<a:midPointStop
   offset="0"
   style="stop-color:#666666" />
				<a:midPointStop
   offset="0.5"
   style="stop-color:#666666" />
				<a:midPointStop
   offset="0.5054"
   style="stop-color:#FFFFFF" />
				<a:midPointStop
   offset="0.5"
   style="stop-color:#FFFFFF" />
				<a:midPointStop
   offset="1"
   style="stop-color:#666666" />
			</linearGradient>
			<polyline
   fill="url(#SVGID_8_)"
   points="20.925,71.336 20.925,0.669 24.925,0.669 24.925,71.336    "
   id="polyline106" />
			<polygon
   points="25.425,71.336 24.425,71.336 24.425,1.169 21.425,1.169 21.425,71.336 20.425,71.336 20.425,0.169 25.425,0.169         "
   id="polygon108" />
		</g>
	</g>
</g>
</svg>
