<?xml version="1.0" encoding="UTF-8" standalone="no"?>
<svg
   xmlns:a="http://ns.adobe.com/AdobeSVGViewerExtensions/3.0/"
   xmlns:dc="http://purl.org/dc/elements/1.1/"
   xmlns:cc="http://creativecommons.org/ns#"
   xmlns:rdf="http://www.w3.org/1999/02/22-rdf-syntax-ns#"
   xmlns:svg="http://www.w3.org/2000/svg"
   xmlns="http://www.w3.org/2000/svg"
   xmlns:sodipodi="http://sodipodi.sourceforge.net/DTD/sodipodi-0.dtd"
   xmlns:inkscape="http://www.inkscape.org/namespaces/inkscape"
   version="1.1"
   id="图层_1"
   x="0px"
   y="0px"
   width="48px"
   height="85px"
   viewBox="0 0 48 85"
   enable-background="new 0 0 48 85"
   xml:space="preserve"
   sodipodi:docname="搅拌机_05-01.svg"><metadata
   id="metadata80"><rdf:RDF><cc:Work
       rdf:about=""><dc:format>image/svg+xml</dc:format><dc:type
         rdf:resource="http://purl.org/dc/dcmitype/StillImage" /></cc:Work></rdf:RDF></metadata><defs
   id="defs78" /><sodipodi:namedview
   pagecolor="#ffffff"
   bordercolor="#666666"
   borderopacity="1"
   objecttolerance="10"
   gridtolerance="10"
   guidetolerance="10"
   inkscape:pageopacity="0"
   inkscape:pageshadow="2"
   inkscape:window-width="640"
   inkscape:window-height="480"
   id="namedview76" />
<g
   id="g73">
	<g
   id="g13">
		<linearGradient
   id="SVGID_1_"
   gradientUnits="userSpaceOnUse"
   x1="23.3296"
   y1="78.0449"
   x2="36.5195"
   y2="78.0449">
			<stop
   offset="0"
   style="stop-color:#666666"
   id="stop2" />
			<stop
   offset="0.5054"
   style="stop-color:#FFFFFF"
   id="stop4" />
			<stop
   offset="1"
   style="stop-color:#666666"
   id="stop6" />
			<a:midPointStop
   offset="0"
   style="stop-color:#666666" />
			<a:midPointStop
   offset="0.5"
   style="stop-color:#666666" />
			<a:midPointStop
   offset="0.5054"
   style="stop-color:#FFFFFF" />
			<a:midPointStop
   offset="0.5"
   style="stop-color:#FFFFFF" />
			<a:midPointStop
   offset="1"
   style="stop-color:#666666" />
		</linearGradient>
		<path
   fill="url(#SVGID_1_)"
   d="M23.335,74.331c0,0-0.341,7.03,4.492,9.031c4.833,2.002,8.203,0.195,8.642-2.588    c0.438-2.782-2.096-3.367-3.27-4.002s-4.884-2.051-7.179-4.15S23.325,73.439,23.335,74.331z"
   id="path9" />
		<path
   d="M31.687,84.712L31.687,84.712c-1.266,0-2.629-0.298-4.051-0.887c-5.1-2.112-4.814-9.217-4.801-9.52    c-0.001-0.04-0.01-1.7,0.786-2.504c0.664-0.674,1.642-0.551,2.737,0.451c1.715,1.569,4.334,2.785,5.9,3.511    c0.496,0.229,0.904,0.421,1.178,0.568c0.176,0.095,0.385,0.188,0.609,0.29c1.251,0.564,3.346,1.511,2.917,4.23    C36.599,83.161,34.479,84.712,31.687,84.712z M24.61,72.378c-0.071,0-0.168,0.014-0.278,0.127    c-0.353,0.355-0.503,1.279-0.497,1.82c-0.004,0.096-0.264,6.734,4.184,8.576c1.301,0.538,2.535,0.811,3.668,0.811    c2.316,0.001,4-1.184,4.288-3.015c0.287-1.822-0.839-2.485-2.341-3.163c-0.248-0.113-0.478-0.217-0.672-0.322    c-0.262-0.141-0.651-0.322-1.125-0.541c-1.617-0.75-4.325-2.007-6.154-3.68C25.1,72.458,24.761,72.378,24.61,72.378z"
   id="path11" />
	</g>
	<g
   id="g26">
		<linearGradient
   id="SVGID_2_"
   gradientUnits="userSpaceOnUse"
   x1="23.9692"
   y1="66.6816"
   x2="45.7939"
   y2="66.6816">
			<stop
   offset="0"
   style="stop-color:#666666"
   id="stop15" />
			<stop
   offset="0.5054"
   style="stop-color:#FFFFFF"
   id="stop17" />
			<stop
   offset="1"
   style="stop-color:#666666"
   id="stop19" />
			<a:midPointStop
   offset="0"
   style="stop-color:#666666" />
			<a:midPointStop
   offset="0.5"
   style="stop-color:#666666" />
			<a:midPointStop
   offset="0.5054"
   style="stop-color:#FFFFFF" />
			<a:midPointStop
   offset="0.5"
   style="stop-color:#FFFFFF" />
			<a:midPointStop
   offset="1"
   style="stop-color:#666666" />
		</linearGradient>
		<path
   fill="url(#SVGID_2_)"
   d="M23.971,70.043c0,0,3.761-1.868,4.98-2.783c1.758-1.317,3.856-3.808,7.274-5.077    c1.548-0.574,4.003-1.367,6.062-0.406c1.028,0.48,2.873,1.92,3.312,3.092c0,0,1.563,2.88-4.149,3.661s-11.662,2.433-14.646,3.325    C23.818,72.749,23.971,70.043,23.971,70.043z"
   id="path22" />
		<path
   d="M25.714,72.536c-0.667,0-1.206-0.213-1.602-0.631c-0.697-0.738-0.644-1.844-0.641-1.891l0.016-0.29l0.261-0.13    c0.038-0.018,3.733-1.857,4.903-2.734c0.454-0.342,0.949-0.777,1.473-1.239c1.486-1.312,3.337-2.944,5.928-3.907    c1.182-0.438,2.588-0.887,4.061-0.887c0.877,0,1.681,0.166,2.387,0.496c1.143,0.533,3.07,2.04,3.568,3.369l0,0    c0.004,0,0.525,1.006-0.027,2.098c-0.583,1.152-2.105,1.904-4.523,2.234c-5.635,0.771-11.548,2.404-14.57,3.31    C26.499,72.468,26.084,72.536,25.714,72.536z M24.483,70.345c0.029,0.251,0.114,0.621,0.359,0.877    c0.346,0.361,0.963,0.41,1.816,0.154c3.051-0.914,9.02-2.563,14.723-3.342c2.582-0.354,3.474-1.117,3.768-1.696    c0.318-0.63,0.013-1.226,0.01-1.231c-0.407-1.074-2.117-2.426-3.084-2.877c-0.572-0.268-1.232-0.402-1.963-0.402    c-1.314,0-2.615,0.416-3.713,0.824c-2.416,0.897-4.189,2.463-5.614,3.719c-0.539,0.477-1.048,0.926-1.534,1.289    C28.197,68.45,25.401,69.883,24.483,70.345z"
   id="path24" />
	</g>
	<g
   id="g39">
		<linearGradient
   id="SVGID_3_"
   gradientUnits="userSpaceOnUse"
   x1="0.7212"
   y1="69.5889"
   x2="25.0488"
   y2="69.5889">
			<stop
   offset="0"
   style="stop-color:#666666"
   id="stop28" />
			<stop
   offset="0.5054"
   style="stop-color:#FFFFFF"
   id="stop30" />
			<stop
   offset="1"
   style="stop-color:#666666"
   id="stop32" />
			<a:midPointStop
   offset="0"
   style="stop-color:#666666" />
			<a:midPointStop
   offset="0.5"
   style="stop-color:#666666" />
			<a:midPointStop
   offset="0.5054"
   style="stop-color:#FFFFFF" />
			<a:midPointStop
   offset="0.5"
   style="stop-color:#FFFFFF" />
			<a:midPointStop
   offset="1"
   style="stop-color:#666666" />
		</linearGradient>
		<path
   fill="url(#SVGID_3_)"
   d="M4.588,72.351c0,0-5.582-0.229-3.332-2.875s4.645-2.896,9.459-2.496    c4.235,0.353,6.498,2.369,11.998,2.672s-0.438,2.227-0.438,2.227S7.338,72.351,4.588,72.351z"
   id="path35" />
		<path
   d="M4.588,72.851H4.567c-0.595-0.025-3.593-0.221-4.229-1.671c-0.268-0.612-0.088-1.295,0.536-2.028    c1.75-2.059,3.601-2.823,6.826-2.823c0.824,0,1.795,0.049,3.056,0.153c1.982,0.165,3.522,0.676,5.152,1.217    c1.916,0.636,3.896,1.293,6.831,1.455c1.931,0.105,2.717,0.404,2.803,1.066c0.034,0.268,0.14,1.08-3.113,2.133l-0.139,0.024    C22.142,72.382,7.314,72.851,4.588,72.851z M7.701,67.328c-2.926,0-4.513,0.646-6.064,2.472c-0.243,0.287-0.508,0.689-0.381,0.979    c0.283,0.648,2.157,1.021,3.343,1.072c2.64-0.001,16.465-0.436,17.59-0.471c0.928-0.307,1.835-0.721,2.212-0.996    c-0.237-0.076-0.728-0.178-1.715-0.232c-3.069-0.17-5.114-0.848-7.091-1.504c-1.572-0.521-3.058-1.014-4.922-1.17    C9.441,67.376,8.497,67.328,7.701,67.328z"
   id="path37" />
	</g>
	<g
   id="g45">
		<ellipse
   fill="#B3B3B3"
   cx="23.579"
   cy="72.351"
   rx="4.747"
   ry="2.875"
   id="ellipse41" />
		<path
   d="M23.579,75.726c-2.942,0-5.247-1.482-5.247-3.375s2.305-3.375,5.247-3.375s5.247,1.482,5.247,3.375    S26.521,75.726,23.579,75.726z M23.579,69.976c-2.303,0-4.247,1.088-4.247,2.375s1.944,2.375,4.247,2.375s4.247-1.088,4.247-2.375    S25.882,69.976,23.579,69.976z"
   id="path43" />
	</g>
	<g
   id="g58">
		<linearGradient
   id="SVGID_4_"
   gradientUnits="userSpaceOnUse"
   x1="18.832"
   y1="71.3496"
   x2="28.3262"
   y2="71.3496">
			<stop
   offset="0"
   style="stop-color:#666666"
   id="stop47" />
			<stop
   offset="0.5054"
   style="stop-color:#FFFFFF"
   id="stop49" />
			<stop
   offset="1"
   style="stop-color:#666666"
   id="stop51" />
			<a:midPointStop
   offset="0"
   style="stop-color:#666666" />
			<a:midPointStop
   offset="0.5"
   style="stop-color:#666666" />
			<a:midPointStop
   offset="0.5054"
   style="stop-color:#FFFFFF" />
			<a:midPointStop
   offset="0.5"
   style="stop-color:#FFFFFF" />
			<a:midPointStop
   offset="1"
   style="stop-color:#666666" />
		</linearGradient>
		<ellipse
   fill="url(#SVGID_4_)"
   cx="23.579"
   cy="71.35"
   rx="4.747"
   ry="2.351"
   id="ellipse54" />
		<path
   d="M23.579,74.2c-2.942,0-5.247-1.252-5.247-2.851s2.305-2.851,5.247-2.851s5.247,1.252,5.247,2.851S26.521,74.2,23.579,74.2    z M23.579,69.499c-2.503,0-4.247,0.976-4.247,1.851s1.744,1.851,4.247,1.851s4.247-0.976,4.247-1.851S26.082,69.499,23.579,69.499    z"
   id="path56" />
	</g>
	<g
   id="g71">
		<linearGradient
   id="SVGID_5_"
   gradientUnits="userSpaceOnUse"
   x1="21.5791"
   y1="36.1211"
   x2="25.5791"
   y2="36.1211">
			<stop
   offset="0"
   style="stop-color:#666666"
   id="stop60" />
			<stop
   offset="0.5054"
   style="stop-color:#FFFFFF"
   id="stop62" />
			<stop
   offset="1"
   style="stop-color:#666666"
   id="stop64" />
			<a:midPointStop
   offset="0"
   style="stop-color:#666666" />
			<a:midPointStop
   offset="0.5"
   style="stop-color:#666666" />
			<a:midPointStop
   offset="0.5054"
   style="stop-color:#FFFFFF" />
			<a:midPointStop
   offset="0.5"
   style="stop-color:#FFFFFF" />
			<a:midPointStop
   offset="1"
   style="stop-color:#666666" />
		</linearGradient>
		<polyline
   fill="url(#SVGID_5_)"
   points="21.579,71.454 21.579,0.788 25.579,0.788 25.579,71.454   "
   id="polyline67" />
		<polygon
   points="26.079,71.454 25.079,71.454 25.079,1.288 22.079,1.288 22.079,71.454 21.079,71.454 21.079,0.288 26.079,0.288       "
   id="polygon69" />
	</g>
</g>
</svg>
