<?xml version="1.0" encoding="UTF-8" standalone="no"?>
<svg
   xmlns:a="http://ns.adobe.com/AdobeSVGViewerExtensions/3.0/"
   xmlns:dc="http://purl.org/dc/elements/1.1/"
   xmlns:cc="http://creativecommons.org/ns#"
   xmlns:rdf="http://www.w3.org/1999/02/22-rdf-syntax-ns#"
   xmlns:svg="http://www.w3.org/2000/svg"
   xmlns="http://www.w3.org/2000/svg"
   xmlns:sodipodi="http://sodipodi.sourceforge.net/DTD/sodipodi-0.dtd"
   xmlns:inkscape="http://www.inkscape.org/namespaces/inkscape"
   version="1.1"
   id="图层_1"
   x="0px"
   y="0px"
   width="48px"
   height="85px"
   viewBox="0 0 48 85"
   enable-background="new 0 0 48 85"
   xml:space="preserve"
   sodipodi:docname="搅拌机_06-01.svg"><metadata
   id="metadata80"><rdf:RDF><cc:Work
       rdf:about=""><dc:format>image/svg+xml</dc:format><dc:type
         rdf:resource="http://purl.org/dc/dcmitype/StillImage" /></cc:Work></rdf:RDF></metadata><defs
   id="defs78" /><sodipodi:namedview
   pagecolor="#ffffff"
   bordercolor="#666666"
   borderopacity="1"
   objecttolerance="10"
   gridtolerance="10"
   guidetolerance="10"
   inkscape:pageopacity="0"
   inkscape:pageshadow="2"
   inkscape:window-width="640"
   inkscape:window-height="480"
   id="namedview76" />
<g
   id="g73">
	<g
   id="g13">
		<linearGradient
   id="SVGID_1_"
   gradientUnits="userSpaceOnUse"
   x1="0.7041"
   y1="78.459"
   x2="23.4282"
   y2="78.459">
			<stop
   offset="0"
   style="stop-color:#666666"
   id="stop2" />
			<stop
   offset="0.5054"
   style="stop-color:#FFFFFF"
   id="stop4" />
			<stop
   offset="1"
   style="stop-color:#666666"
   id="stop6" />
			<a:midPointStop
   offset="0"
   style="stop-color:#666666" />
			<a:midPointStop
   offset="0.5"
   style="stop-color:#666666" />
			<a:midPointStop
   offset="0.5054"
   style="stop-color:#FFFFFF" />
			<a:midPointStop
   offset="0.5"
   style="stop-color:#FFFFFF" />
			<a:midPointStop
   offset="1"
   style="stop-color:#666666" />
		</linearGradient>
		<path
   fill="url(#SVGID_1_)"
   d="M20.37,73.081c0,0-3.721,1.229-7.221,2.145s-14,2.416-12.25,5.979s8.625,3.688,12.063,0.375    s8.813-6.697,10.188-7.879C24.524,72.517,20.37,73.081,20.37,73.081z"
   id="path9" />
		<path
   d="M6.558,84.474C6.558,84.474,6.558,84.474,6.558,84.474c-2.887,0-5.17-1.141-6.107-3.049    c-0.313-0.637-0.326-1.288-0.038-1.883c1.097-2.271,6.476-3.441,10.401-4.295c0.869-0.188,1.635-0.354,2.209-0.506    c3.443-0.901,7.154-2.122,7.191-2.135c0.131-0.025,1.123-0.16,2-0.16c0.75,0,1.473,0.074,1.672,0.612    c0.125,0.335-0.014,0.679-0.41,1.021c-0.469,0.402-1.352,1.027-2.467,1.819c-2.285,1.62-5.416,3.84-7.701,6.041    C11.661,83.526,9.138,84.474,6.558,84.474z M20.437,73.577c0.027,0-3.697,1.225-7.16,2.133c-0.586,0.152-1.365,0.322-2.25,0.515    c-3.303,0.718-8.828,1.919-9.714,3.752c-0.155,0.321-0.144,0.642,0.036,1.008c0.754,1.535,2.75,2.489,5.208,2.489h0.001    c2.328,0,4.592-0.843,6.057-2.254c2.338-2.254,5.504-4.498,7.814-6.137c0.967-0.685,1.754-1.242,2.223-1.62    c-0.113-0.01-0.256-0.017-0.438-0.017C21.409,73.446,20.456,73.574,20.437,73.577L20.437,73.577z"
   id="path11" />
	</g>
	<g
   id="g26">
		<linearGradient
   id="SVGID_2_"
   gradientUnits="userSpaceOnUse"
   x1="24.459"
   y1="77.1875"
   x2="44.46"
   y2="77.1875">
			<stop
   offset="0"
   style="stop-color:#666666"
   id="stop15" />
			<stop
   offset="0.5054"
   style="stop-color:#FFFFFF"
   id="stop17" />
			<stop
   offset="1"
   style="stop-color:#666666"
   id="stop19" />
			<a:midPointStop
   offset="0"
   style="stop-color:#666666" />
			<a:midPointStop
   offset="0.5"
   style="stop-color:#666666" />
			<a:midPointStop
   offset="0.5054"
   style="stop-color:#FFFFFF" />
			<a:midPointStop
   offset="0.5"
   style="stop-color:#FFFFFF" />
			<a:midPointStop
   offset="1"
   style="stop-color:#666666" />
		</linearGradient>
		<path
   fill="url(#SVGID_2_)"
   d="M24.712,74.267c0,0,3.75,2.949,4.813,4.193s7.25,6.119,13.063,2.869s-3.438-6-6.938-6.5    s-8.125-1.77-9.563-2.479S24.087,71.642,24.712,74.267z"
   id="path22" />
		<path
   d="M38.37,82.929c0,0,0,0-0.002,0c-4.674-0.001-8.523-3.322-9.225-4.144c-1.018-1.192-4.705-4.096-4.742-4.125l-0.137-0.108    l-0.039-0.169c-0.346-1.453-0.354-2.183-0.023-2.599c0.121-0.153,0.346-0.336,0.729-0.336c0.379,0,0.824,0.182,1.377,0.454    c1.398,0.689,6.018,1.947,9.412,2.433c1.814,0.259,8.699,1.789,9.211,4.535c0.191,1.035-0.514,2.01-2.1,2.896    C41.452,82.537,39.95,82.929,38.37,82.929z M25.159,73.983c0.699,0.555,3.768,3.008,4.744,4.152    c0.865,1.013,4.479,3.792,8.465,3.793c0.002,0,0.002,0,0.002,0c1.408,0,2.744-0.349,3.973-1.035    c0.805-0.45,1.734-1.135,1.604-1.841c-0.295-1.589-5.154-3.269-8.367-3.728c-3.58-0.512-8.24-1.801-9.713-2.525    c-0.176-0.087-0.707-0.349-0.932-0.352C24.962,72.457,24.878,72.75,25.159,73.983z"
   id="path24" />
	</g>
	<g
   id="g39">
		<linearGradient
   id="SVGID_3_"
   gradientUnits="userSpaceOnUse"
   x1="13.3481"
   y1="65.8457"
   x2="24.3955"
   y2="65.8457">
			<stop
   offset="0"
   style="stop-color:#666666"
   id="stop28" />
			<stop
   offset="0.5054"
   style="stop-color:#FFFFFF"
   id="stop30" />
			<stop
   offset="1"
   style="stop-color:#666666"
   id="stop32" />
			<a:midPointStop
   offset="0"
   style="stop-color:#666666" />
			<a:midPointStop
   offset="0.5"
   style="stop-color:#666666" />
			<a:midPointStop
   offset="0.5054"
   style="stop-color:#FFFFFF" />
			<a:midPointStop
   offset="0.5"
   style="stop-color:#FFFFFF" />
			<a:midPointStop
   offset="1"
   style="stop-color:#666666" />
		</linearGradient>
		<path
   fill="url(#SVGID_3_)"
   d="M21.579,72.351l-7.617-8.021c0,0-2.49-3.063,2.563-4.375c5.055-1.313,6.75-0.881,7.5,1.373    c0.75,2.252,0.24,8.384-0.445,10.022S21.579,72.351,21.579,72.351z"
   id="path35" />
		<path
   d="M22.171,72.973c-0.443,0-0.773-0.155-0.811-0.173l-0.145-0.105l-7.617-8.021c-0.068-0.083-1.094-1.366-0.631-2.779    c0.365-1.112,1.52-1.927,3.43-2.424c1.979-0.514,3.41-0.753,4.508-0.753c1.92,0,3.029,0.756,3.594,2.451    c0.791,2.377,0.279,8.608-0.459,10.373C23.519,72.787,22.646,72.973,22.171,72.973z M21.864,71.925    c0.066,0.021,0.178,0.048,0.307,0.048c0.406,0,0.717-0.267,0.947-0.815c0.654-1.566,1.135-7.557,0.432-9.673    c-0.363-1.091-0.932-1.767-2.645-1.767c-1.01,0-2.361,0.229-4.256,0.721c-1.535,0.398-2.479,1.008-2.73,1.762    c-0.295,0.892,0.424,1.807,0.432,1.815L21.864,71.925z"
   id="path37" />
	</g>
	<g
   id="g45">
		<ellipse
   fill="#B3B3B3"
   cx="23.578"
   cy="72.351"
   rx="4.747"
   ry="2.875"
   id="ellipse41" />
		<path
   d="M23.579,75.726c-2.943,0-5.248-1.482-5.248-3.375s2.305-3.375,5.248-3.375c2.941,0,5.246,1.482,5.246,3.375    S26.521,75.726,23.579,75.726z M23.579,69.976c-2.303,0-4.248,1.088-4.248,2.375s1.945,2.375,4.248,2.375    c2.301,0,4.246-1.088,4.246-2.375S25.88,69.976,23.579,69.976z"
   id="path43" />
	</g>
	<g
   id="g58">
		<linearGradient
   id="SVGID_4_"
   gradientUnits="userSpaceOnUse"
   x1="18.8311"
   y1="71.3496"
   x2="28.3252"
   y2="71.3496">
			<stop
   offset="0"
   style="stop-color:#666666"
   id="stop47" />
			<stop
   offset="0.5054"
   style="stop-color:#FFFFFF"
   id="stop49" />
			<stop
   offset="1"
   style="stop-color:#666666"
   id="stop51" />
			<a:midPointStop
   offset="0"
   style="stop-color:#666666" />
			<a:midPointStop
   offset="0.5"
   style="stop-color:#666666" />
			<a:midPointStop
   offset="0.5054"
   style="stop-color:#FFFFFF" />
			<a:midPointStop
   offset="0.5"
   style="stop-color:#FFFFFF" />
			<a:midPointStop
   offset="1"
   style="stop-color:#666666" />
		</linearGradient>
		<ellipse
   fill="url(#SVGID_4_)"
   cx="23.578"
   cy="71.35"
   rx="4.747"
   ry="2.351"
   id="ellipse54" />
		<path
   d="M23.579,74.2c-2.943,0-5.248-1.252-5.248-2.851s2.305-2.851,5.248-2.851c2.941,0,5.246,1.252,5.246,2.851    S26.521,74.2,23.579,74.2z M23.579,69.499c-2.504,0-4.248,0.976-4.248,1.851s1.744,1.851,4.248,1.851    c2.502,0,4.246-0.976,4.246-1.851S26.081,69.499,23.579,69.499z"
   id="path56" />
	</g>
	<g
   id="g71">
		<linearGradient
   id="SVGID_5_"
   gradientUnits="userSpaceOnUse"
   x1="21.5791"
   y1="36.1211"
   x2="25.5791"
   y2="36.1211">
			<stop
   offset="0"
   style="stop-color:#666666"
   id="stop60" />
			<stop
   offset="0.5054"
   style="stop-color:#FFFFFF"
   id="stop62" />
			<stop
   offset="1"
   style="stop-color:#666666"
   id="stop64" />
			<a:midPointStop
   offset="0"
   style="stop-color:#666666" />
			<a:midPointStop
   offset="0.5"
   style="stop-color:#666666" />
			<a:midPointStop
   offset="0.5054"
   style="stop-color:#FFFFFF" />
			<a:midPointStop
   offset="0.5"
   style="stop-color:#FFFFFF" />
			<a:midPointStop
   offset="1"
   style="stop-color:#666666" />
		</linearGradient>
		<polyline
   fill="url(#SVGID_5_)"
   points="21.579,71.454 21.579,0.788 25.579,0.788 25.579,71.454   "
   id="polyline67" />
		<polygon
   points="26.079,71.454 25.079,71.454 25.079,1.288 22.079,1.288 22.079,71.454 21.079,71.454 21.079,0.288 26.079,0.288       "
   id="polygon69" />
	</g>
</g>
</svg>
