<?xml version="1.0" encoding="UTF-8" standalone="no"?>
<svg
   xmlns:dc="http://purl.org/dc/elements/1.1/"
   xmlns:cc="http://creativecommons.org/ns#"
   xmlns:rdf="http://www.w3.org/1999/02/22-rdf-syntax-ns#"
   xmlns:svg="http://www.w3.org/2000/svg"
   xmlns="http://www.w3.org/2000/svg"
   xmlns:sodipodi="http://sodipodi.sourceforge.net/DTD/sodipodi-0.dtd"
   xmlns:inkscape="http://www.inkscape.org/namespaces/inkscape"
   version="1.1"
   id="图层_1"
   x="0px"
   y="0px"
   width="61.423px"
   height="81.488px"
   viewBox="192.102 214.305 61.423 81.488"
   enable-background="new 192.102 214.305 61.423 81.488"
   xml:space="preserve"
   sodipodi:docname="泵-11.svg"><metadata
   id="metadata49"><rdf:RDF><cc:Work
       rdf:about=""><dc:format>image/svg+xml</dc:format><dc:type
         rdf:resource="http://purl.org/dc/dcmitype/StillImage" /></cc:Work></rdf:RDF></metadata><defs
   id="defs47" /><sodipodi:namedview
   pagecolor="#ffffff"
   bordercolor="#666666"
   borderopacity="1"
   objecttolerance="10"
   gridtolerance="10"
   guidetolerance="10"
   inkscape:pageopacity="0"
   inkscape:pageshadow="2"
   inkscape:window-width="640"
   inkscape:window-height="480"
   id="namedview45" />
<g
   id="g42">
	
		<polygon
   fill="#B25F14"
   stroke="#000000"
   stroke-width="0.5"
   stroke-linecap="round"
   stroke-linejoin="round"
   stroke-miterlimit="10"
   points="   245.329,292.019 200.431,292.019 200.629,276.125 245.13,276.125  "
   id="polygon2" />
	
		<rect
   x="214.536"
   y="288.774"
   fill="#FF8806"
   stroke="#000000"
   stroke-width="0.5"
   stroke-linecap="round"
   stroke-linejoin="round"
   stroke-miterlimit="10"
   width="16.688"
   height="3.178"
   id="rect4" />
	
		<polygon
   fill="#FF8806"
   stroke="#000000"
   stroke-width="0.5"
   stroke-linecap="round"
   stroke-linejoin="round"
   stroke-miterlimit="10"
   points="   246.653,294.469 246.653,296.853 236.852,296.853 236.852,294.469 227.184,285.065 238.707,279.834  "
   id="polygon6" />
	
		<polygon
   fill="#FF8806"
   stroke="#000000"
   stroke-width="0.5"
   stroke-linecap="round"
   stroke-linejoin="round"
   stroke-miterlimit="10"
   points="   198.51,294.469 198.51,296.853 208.245,296.853 208.245,294.469 217.913,285.065 206.391,279.834  "
   id="polygon8" />
	
		<path
   fill="#FF8806"
   stroke="#000000"
   stroke-width="0.5"
   stroke-linecap="round"
   stroke-linejoin="round"
   stroke-miterlimit="10"
   d="   M235.991,231.957L235.991,231.957c-2.317-0.663-4.04-2.715-4.04-5.231v-2.583h-18.21v6.225   c-12.383,3.841-21.389,15.429-21.389,29.071c0,16.82,13.641,30.461,30.461,30.461c16.82,0,30.461-13.642,30.461-30.461   C253.341,247.319,246.255,236.857,235.991,231.957z M222.879,278.046c-10.264,0-18.542-8.277-18.542-18.542   c0-10.066,8.079-18.277,18.078-18.542c1.523,0,1.788,0.066,2.715,0.066c0.332,0,0.994,0.199,0.861,0.199   c8.741,1.457,15.429,9.072,15.429,18.277C241.421,269.702,233.144,278.046,222.879,278.046z"
   id="path10" />
	
		<circle
   fill="#B25F14"
   stroke="#000000"
   stroke-width="0.5"
   stroke-linecap="round"
   stroke-linejoin="round"
   stroke-miterlimit="10"
   cx="222.879"
   cy="259.504"
   r="18.542"
   id="circle12" />
	
		<circle
   fill="#777777"
   stroke="#000000"
   stroke-width="0.5"
   stroke-linecap="round"
   stroke-linejoin="round"
   stroke-miterlimit="10"
   cx="198.577"
   cy="259.504"
   r="1.987"
   id="circle14" />
	
		<circle
   fill="#777777"
   stroke="#000000"
   stroke-width="0.5"
   stroke-linecap="round"
   stroke-linejoin="round"
   stroke-miterlimit="10"
   cx="247.249"
   cy="259.504"
   r="1.987"
   id="circle16" />
	
		<circle
   fill="#777777"
   stroke="#000000"
   stroke-width="0.5"
   stroke-linecap="round"
   stroke-linejoin="round"
   stroke-miterlimit="10"
   cx="222.879"
   cy="235.135"
   r="1.987"
   id="circle18" />
	
		<linearGradient
   id="SVGID_1_"
   gradientUnits="userSpaceOnUse"
   x1="210.1313"
   y1="317.6831"
   x2="210.1313"
   y2="363.6831"
   gradientTransform="matrix(0.6622 0 0 -0.6622 83.7294 500.3389)">
		<stop
   offset="0"
   style="stop-color:#B25F14;stop-opacity:0"
   id="stop20" />
		<stop
   offset="1"
   style="stop-color:#4C2909"
   id="stop22" />
	</linearGradient>
	<path
   fill="url(#SVGID_1_)"
   d="M231.224,259.504v29.27c-2.649,0.728-5.43,1.192-8.344,1.192c-2.914,0-5.695-0.397-8.344-1.192   v-29.27H231.224z"
   id="path25" />
	
		<circle
   fill="#777777"
   stroke="#000000"
   stroke-width="0.5"
   stroke-linecap="round"
   stroke-linejoin="round"
   stroke-miterlimit="10"
   cx="222.879"
   cy="283.807"
   r="1.987"
   id="circle27" />
	
		<circle
   fill="#D9D9D9"
   stroke="#000000"
   stroke-width="0.5"
   stroke-linecap="round"
   stroke-linejoin="round"
   stroke-miterlimit="10"
   cx="222.879"
   cy="259.504"
   r="8.344"
   id="circle29" />
	
		<circle
   fill="#333333"
   stroke="#000000"
   stroke-width="0.5"
   stroke-linecap="round"
   stroke-linejoin="round"
   stroke-miterlimit="10"
   cx="222.879"
   cy="259.504"
   r="6.49"
   id="circle31" />
	
		<linearGradient
   id="SVGID_2_"
   gradientUnits="userSpaceOnUse"
   x1="193.2681"
   y1="423.334"
   x2="227.0181"
   y2="423.334"
   gradientTransform="matrix(0.6622 0 0 -0.6622 83.7294 500.3389)">
		<stop
   offset="0"
   style="stop-color:#FF8806"
   id="stop33" />
		<stop
   offset="0.5"
   style="stop-color:#FFCF9A"
   id="stop35" />
		<stop
   offset="1"
   style="stop-color:#FF8806"
   id="stop37" />
	</linearGradient>
	
		<rect
   x="211.688"
   y="215.865"
   fill="url(#SVGID_2_)"
   stroke="#000000"
   stroke-width="0.5"
   stroke-linecap="round"
   stroke-linejoin="round"
   stroke-miterlimit="10"
   width="22.382"
   height="8.278"
   id="rect40" />
</g>
</svg>
