<?xml version="1.0" encoding="UTF-8" standalone="no"?>
<svg
   xmlns:dc="http://purl.org/dc/elements/1.1/"
   xmlns:cc="http://creativecommons.org/ns#"
   xmlns:rdf="http://www.w3.org/1999/02/22-rdf-syntax-ns#"
   xmlns:svg="http://www.w3.org/2000/svg"
   xmlns="http://www.w3.org/2000/svg"
   xmlns:sodipodi="http://sodipodi.sourceforge.net/DTD/sodipodi-0.dtd"
   xmlns:inkscape="http://www.inkscape.org/namespaces/inkscape"
   version="1.1"
   id="图层_1"
   x="0px"
   y="0px"
   width="61.423px"
   height="81.488px"
   viewBox="275.01 214.305 61.423 81.488"
   enable-background="new 275.01 214.305 61.423 81.488"
   xml:space="preserve"
   sodipodi:docname="泵-12.svg"><metadata
   id="metadata49"><rdf:RDF><cc:Work
       rdf:about=""><dc:format>image/svg+xml</dc:format><dc:type
         rdf:resource="http://purl.org/dc/dcmitype/StillImage" /></cc:Work></rdf:RDF></metadata><defs
   id="defs47" /><sodipodi:namedview
   pagecolor="#ffffff"
   bordercolor="#666666"
   borderopacity="1"
   objecttolerance="10"
   gridtolerance="10"
   guidetolerance="10"
   inkscape:pageopacity="0"
   inkscape:pageshadow="2"
   inkscape:window-width="640"
   inkscape:window-height="480"
   id="namedview45" />
<g
   id="g42">
	
		<polygon
   fill="#18B214"
   stroke="#000000"
   stroke-width="0.5"
   stroke-linecap="round"
   stroke-linejoin="round"
   stroke-miterlimit="10"
   points="   328.236,292.019 283.339,292.019 283.538,276.125 327.972,276.125  "
   id="polygon2" />
	
		<rect
   x="297.378"
   y="288.774"
   fill="#03FF16"
   stroke="#000000"
   stroke-width="0.5"
   stroke-linecap="round"
   stroke-linejoin="round"
   stroke-miterlimit="10"
   width="16.688"
   height="3.178"
   id="rect4" />
	
		<polygon
   fill="#03FF16"
   stroke="#000000"
   stroke-width="0.5"
   stroke-linecap="round"
   stroke-linejoin="round"
   stroke-miterlimit="10"
   points="   329.495,294.469 329.495,296.853 319.694,296.853 319.694,294.469 310.026,285.065 321.614,279.834  "
   id="polygon6" />
	
		<polygon
   fill="#03FF16"
   stroke="#000000"
   stroke-width="0.5"
   stroke-linecap="round"
   stroke-linejoin="round"
   stroke-miterlimit="10"
   points="   281.353,294.469 281.353,296.853 291.153,296.853 291.153,294.469 300.821,285.065 289.233,279.834  "
   id="polygon8" />
	
		<path
   fill="#03FF16"
   stroke="#000000"
   stroke-width="0.5"
   stroke-linecap="round"
   stroke-linejoin="round"
   stroke-miterlimit="10"
   d="   M318.899,231.957L318.899,231.957c-2.317-0.663-4.039-2.715-4.039-5.231v-2.583h-18.211v6.225   c-12.383,3.841-21.389,15.429-21.389,29.071c0,16.82,13.642,30.461,30.461,30.461c16.82,0,30.462-13.642,30.462-30.461   C336.25,247.319,329.164,236.857,318.899,231.957z M305.788,278.046c-10.264,0-18.542-8.277-18.542-18.542   c0-10.066,8.079-18.277,18.078-18.542c1.523,0,1.788,0.066,2.715,0.066c0.331,0,0.994,0.199,0.861,0.199   c8.741,1.457,15.43,9.072,15.43,18.277C324.33,269.702,315.986,278.046,305.788,278.046z"
   id="path10" />
	
		<circle
   fill="#18B214"
   stroke="#000000"
   stroke-width="0.5"
   stroke-linecap="round"
   stroke-linejoin="round"
   stroke-miterlimit="10"
   cx="305.788"
   cy="259.504"
   r="18.542"
   id="circle12" />
	
		<circle
   fill="#777777"
   stroke="#000000"
   stroke-width="0.5"
   stroke-linecap="round"
   stroke-linejoin="round"
   stroke-miterlimit="10"
   cx="281.419"
   cy="259.504"
   r="1.987"
   id="circle14" />
	
		<circle
   fill="#777777"
   stroke="#000000"
   stroke-width="0.5"
   stroke-linecap="round"
   stroke-linejoin="round"
   stroke-miterlimit="10"
   cx="330.091"
   cy="259.504"
   r="1.987"
   id="circle16" />
	
		<circle
   fill="#777777"
   stroke="#000000"
   stroke-width="0.5"
   stroke-linecap="round"
   stroke-linejoin="round"
   stroke-miterlimit="10"
   cx="305.788"
   cy="235.135"
   r="1.987"
   id="circle18" />
	
		<linearGradient
   id="SVGID_1_"
   gradientUnits="userSpaceOnUse"
   x1="335.332"
   y1="317.6831"
   x2="335.332"
   y2="363.6831"
   gradientTransform="matrix(0.6622 0 0 -0.6622 83.7294 500.3389)">
		<stop
   offset="0"
   style="stop-color:#18B214;stop-opacity:0"
   id="stop20" />
		<stop
   offset="1"
   style="stop-color:#0A4C09"
   id="stop22" />
	</linearGradient>
	<path
   fill="url(#SVGID_1_)"
   d="M314.132,259.504v29.27c-2.648,0.728-5.431,1.192-8.344,1.192c-2.914,0-5.695-0.397-8.344-1.192   v-29.27H314.132z"
   id="path25" />
	
		<circle
   fill="#777777"
   stroke="#000000"
   stroke-width="0.5"
   stroke-linecap="round"
   stroke-linejoin="round"
   stroke-miterlimit="10"
   cx="305.788"
   cy="283.807"
   r="1.987"
   id="circle27" />
	
		<circle
   fill="#D9D9D9"
   stroke="#000000"
   stroke-width="0.5"
   stroke-linecap="round"
   stroke-linejoin="round"
   stroke-miterlimit="10"
   cx="305.788"
   cy="259.504"
   r="8.344"
   id="circle29" />
	
		<circle
   fill="#333333"
   stroke="#000000"
   stroke-width="0.5"
   stroke-linecap="round"
   stroke-linejoin="round"
   stroke-miterlimit="10"
   cx="305.788"
   cy="259.504"
   r="6.49"
   id="circle31" />
	
		<linearGradient
   id="SVGID_2_"
   gradientUnits="userSpaceOnUse"
   x1="318.4316"
   y1="423.334"
   x2="352.1816"
   y2="423.334"
   gradientTransform="matrix(0.6622 0 0 -0.6622 83.7294 500.3389)">
		<stop
   offset="0"
   style="stop-color:#03FF16"
   id="stop33" />
		<stop
   offset="0.5"
   style="stop-color:#9AFFA2"
   id="stop35" />
		<stop
   offset="1"
   style="stop-color:#03FF16"
   id="stop37" />
	</linearGradient>
	
		<rect
   x="294.597"
   y="215.865"
   fill="url(#SVGID_2_)"
   stroke="#000000"
   stroke-width="0.5"
   stroke-linecap="round"
   stroke-linejoin="round"
   stroke-miterlimit="10"
   width="22.383"
   height="8.278"
   id="rect40" />
</g>
</svg>
