<?xml version="1.0" encoding="UTF-8" standalone="no"?>
<svg
   xmlns:dc="http://purl.org/dc/elements/1.1/"
   xmlns:cc="http://creativecommons.org/ns#"
   xmlns:rdf="http://www.w3.org/1999/02/22-rdf-syntax-ns#"
   xmlns:svg="http://www.w3.org/2000/svg"
   xmlns="http://www.w3.org/2000/svg"
   xmlns:sodipodi="http://sodipodi.sourceforge.net/DTD/sodipodi-0.dtd"
   xmlns:inkscape="http://www.inkscape.org/namespaces/inkscape"
   version="1.1"
   id="图层_1"
   x="0px"
   y="0px"
   width="61.423px"
   height="81.488px"
   viewBox="440.827 214.305 61.423 81.488"
   enable-background="new 440.827 214.305 61.423 81.488"
   xml:space="preserve"
   sodipodi:docname="泵-14.svg"><metadata
   id="metadata49"><rdf:RDF><cc:Work
       rdf:about=""><dc:format>image/svg+xml</dc:format><dc:type
         rdf:resource="http://purl.org/dc/dcmitype/StillImage" /></cc:Work></rdf:RDF></metadata><defs
   id="defs47" /><sodipodi:namedview
   pagecolor="#ffffff"
   bordercolor="#666666"
   borderopacity="1"
   objecttolerance="10"
   gridtolerance="10"
   guidetolerance="10"
   inkscape:pageopacity="0"
   inkscape:pageshadow="2"
   inkscape:window-width="640"
   inkscape:window-height="480"
   id="namedview45" />
<g
   id="g42">
	
		<polygon
   fill="#149DB2"
   stroke="#000000"
   stroke-width="0.5"
   stroke-linecap="round"
   stroke-linejoin="round"
   stroke-miterlimit="10"
   points="   493.987,292.019 449.09,292.019 449.288,276.125 493.723,276.125  "
   id="polygon2" />
	
		<rect
   x="463.194"
   y="288.774"
   fill="#00BEFF"
   stroke="#000000"
   stroke-width="0.5"
   stroke-linecap="round"
   stroke-linejoin="round"
   stroke-miterlimit="10"
   width="16.688"
   height="3.178"
   id="rect4" />
	
		<polygon
   fill="#00BEFF"
   stroke="#000000"
   stroke-width="0.5"
   stroke-linecap="round"
   stroke-linejoin="round"
   stroke-miterlimit="10"
   points="   495.245,294.469 495.245,296.853 485.445,296.853 485.445,294.469 475.776,285.065 487.365,279.834  "
   id="polygon6" />
	
		<polygon
   fill="#00BEFF"
   stroke="#000000"
   stroke-width="0.5"
   stroke-linecap="round"
   stroke-linejoin="round"
   stroke-miterlimit="10"
   points="   447.103,294.469 447.103,296.853 456.903,296.853 456.903,294.469 466.572,285.065 454.983,279.834  "
   id="polygon8" />
	
		<path
   fill="#00BEFF"
   stroke="#000000"
   stroke-width="0.5"
   stroke-linecap="round"
   stroke-linejoin="round"
   stroke-miterlimit="10"
   d="   M484.65,231.957L484.65,231.957c-2.318-0.663-3.974-2.715-3.974-5.231v-2.583h-18.211v6.225   c-12.383,3.841-21.389,15.429-21.389,29.071c0,16.82,13.642,30.461,30.461,30.461c16.82,0,30.462-13.642,30.462-30.461   C502,247.319,494.914,236.857,484.65,231.957z M471.538,278.046c-10.264,0-18.541-8.277-18.541-18.542   c0-10.066,8.078-18.277,18.078-18.542c1.522,0,1.788,0.066,2.715,0.066c0.331,0,0.993,0.199,0.86,0.199   c8.741,1.457,15.43,9.072,15.43,18.277C490.08,269.702,481.736,278.046,471.538,278.046z"
   id="path10" />
	
		<circle
   fill="#149DB2"
   stroke="#000000"
   stroke-width="0.5"
   stroke-linecap="round"
   stroke-linejoin="round"
   stroke-miterlimit="10"
   cx="471.538"
   cy="259.504"
   r="18.542"
   id="circle12" />
	
		<circle
   fill="#777777"
   stroke="#000000"
   stroke-width="0.5"
   stroke-linecap="round"
   stroke-linejoin="round"
   stroke-miterlimit="10"
   cx="447.169"
   cy="259.504"
   r="1.987"
   id="circle14" />
	
		<circle
   fill="#777777"
   stroke="#000000"
   stroke-width="0.5"
   stroke-linecap="round"
   stroke-linejoin="round"
   stroke-miterlimit="10"
   cx="495.842"
   cy="259.504"
   r="1.987"
   id="circle16" />
	
		<circle
   fill="#777777"
   stroke="#000000"
   stroke-width="0.5"
   stroke-linecap="round"
   stroke-linejoin="round"
   stroke-miterlimit="10"
   cx="471.538"
   cy="235.135"
   r="1.987"
   id="circle18" />
	
		<linearGradient
   id="SVGID_1_"
   gradientUnits="userSpaceOnUse"
   x1="585.6309"
   y1="317.6831"
   x2="585.6309"
   y2="363.6831"
   gradientTransform="matrix(0.6622 0 0 -0.6622 83.7294 500.3389)">
		<stop
   offset="0"
   style="stop-color:#149DB2;stop-opacity:0"
   id="stop20" />
		<stop
   offset="1"
   style="stop-color:#09434C"
   id="stop22" />
	</linearGradient>
	<path
   fill="url(#SVGID_1_)"
   d="M479.882,259.504v29.27c-2.648,0.728-5.43,1.192-8.344,1.192c-2.913,0-5.694-0.397-8.344-1.192   v-29.27H479.882z"
   id="path25" />
	
		<circle
   fill="#777777"
   stroke="#000000"
   stroke-width="0.5"
   stroke-linecap="round"
   stroke-linejoin="round"
   stroke-miterlimit="10"
   cx="471.538"
   cy="283.807"
   r="1.987"
   id="circle27" />
	
		<circle
   fill="#D9D9D9"
   stroke="#000000"
   stroke-width="0.5"
   stroke-linecap="round"
   stroke-linejoin="round"
   stroke-miterlimit="10"
   cx="471.538"
   cy="259.504"
   r="8.344"
   id="circle29" />
	
		<circle
   fill="#333333"
   stroke="#000000"
   stroke-width="0.5"
   stroke-linecap="round"
   stroke-linejoin="round"
   stroke-miterlimit="10"
   cx="471.538"
   cy="259.504"
   r="6.49"
   id="circle31" />
	
		<linearGradient
   id="SVGID_2_"
   gradientUnits="userSpaceOnUse"
   x1="568.7305"
   y1="423.334"
   x2="602.4805"
   y2="423.334"
   gradientTransform="matrix(0.6622 0 0 -0.6622 83.7294 500.3389)">
		<stop
   offset="0"
   style="stop-color:#00BEFF"
   id="stop33" />
		<stop
   offset="0.5"
   style="stop-color:#9AE5FF"
   id="stop35" />
		<stop
   offset="1"
   style="stop-color:#00BEFF"
   id="stop37" />
	</linearGradient>
	
		<rect
   x="460.347"
   y="215.865"
   fill="url(#SVGID_2_)"
   stroke="#000000"
   stroke-width="0.5"
   stroke-linecap="round"
   stroke-linejoin="round"
   stroke-miterlimit="10"
   width="22.383"
   height="8.278"
   id="rect40" />
</g>
</svg>
