<?xml version="1.0" encoding="UTF-8" standalone="no"?>
<svg
   xmlns:dc="http://purl.org/dc/elements/1.1/"
   xmlns:cc="http://creativecommons.org/ns#"
   xmlns:rdf="http://www.w3.org/1999/02/22-rdf-syntax-ns#"
   xmlns:svg="http://www.w3.org/2000/svg"
   xmlns="http://www.w3.org/2000/svg"
   xmlns:sodipodi="http://sodipodi.sourceforge.net/DTD/sodipodi-0.dtd"
   xmlns:inkscape="http://www.inkscape.org/namespaces/inkscape"
   version="1.1"
   id="图层_1"
   x="0px"
   y="0px"
   width="61.423px"
   height="81.488px"
   viewBox="109.26 315.822 61.423 81.488"
   enable-background="new 109.26 315.822 61.423 81.488"
   xml:space="preserve"
   sodipodi:docname="泵-15.svg"><metadata
   id="metadata49"><rdf:RDF><cc:Work
       rdf:about=""><dc:format>image/svg+xml</dc:format><dc:type
         rdf:resource="http://purl.org/dc/dcmitype/StillImage" /></cc:Work></rdf:RDF></metadata><defs
   id="defs47" /><sodipodi:namedview
   pagecolor="#ffffff"
   bordercolor="#666666"
   borderopacity="1"
   objecttolerance="10"
   gridtolerance="10"
   guidetolerance="10"
   inkscape:pageopacity="0"
   inkscape:pageshadow="2"
   inkscape:window-width="640"
   inkscape:window-height="480"
   id="namedview45" />
<g
   id="g42">
	
		<polygon
   fill="#7F7F7F"
   stroke="#000000"
   stroke-width="0.5"
   stroke-linecap="round"
   stroke-linejoin="round"
   stroke-miterlimit="10"
   points="   162.486,393.535 117.589,393.535 117.787,377.642 162.221,377.642  "
   id="polygon2" />
	
		<rect
   x="131.627"
   y="390.356"
   fill="#C6C3C2"
   stroke="#000000"
   stroke-width="0.5"
   stroke-linecap="round"
   stroke-linejoin="round"
   stroke-miterlimit="10"
   width="16.688"
   height="3.179"
   id="rect4" />
	
		<polygon
   fill="#C6C3C2"
   stroke="#000000"
   stroke-width="0.5"
   stroke-linecap="round"
   stroke-linejoin="round"
   stroke-miterlimit="10"
   points="   163.745,395.985 163.745,398.369 153.944,398.369 153.944,395.985 144.275,386.648 155.864,381.351  "
   id="polygon6" />
	
		<polygon
   fill="#C6C3C2"
   stroke="#000000"
   stroke-width="0.5"
   stroke-linecap="round"
   stroke-linejoin="round"
   stroke-miterlimit="10"
   points="   115.602,395.985 115.602,398.369 125.403,398.369 125.403,395.985 135.071,386.648 123.482,381.351  "
   id="polygon8" />
	
		<path
   fill="#E2E0E0"
   stroke="#000000"
   stroke-width="0.5"
   stroke-linecap="round"
   stroke-linejoin="round"
   stroke-miterlimit="10"
   d="   M153.149,333.539v-0.066c-2.318-0.596-4.04-2.649-4.04-5.165v-2.583h-18.211v6.225c-12.383,3.841-21.389,15.429-21.389,29.071   c0,16.82,13.642,30.461,30.461,30.461c16.82,0,30.461-13.641,30.461-30.461C170.499,348.902,163.347,338.439,153.149,333.539z    M140.038,379.563c-10.264,0-18.542-8.278-18.542-18.542c0-10.065,8.079-18.277,18.078-18.542c1.523,0,1.788,0.066,2.715,0.066   c0.331,0,0.993,0.199,0.861,0.199c8.741,1.457,15.429,9.072,15.429,18.277C158.579,371.285,150.235,379.563,140.038,379.563z"
   id="path10" />
	
		<circle
   fill="#CCCCCC"
   stroke="#000000"
   stroke-width="0.5"
   stroke-linecap="round"
   stroke-linejoin="round"
   stroke-miterlimit="10"
   cx="140.038"
   cy="361.021"
   r="18.542"
   id="circle12" />
	
		<circle
   fill="#777777"
   stroke="#000000"
   stroke-width="0.5"
   stroke-linecap="round"
   stroke-linejoin="round"
   stroke-miterlimit="10"
   cx="115.668"
   cy="361.021"
   r="1.987"
   id="circle14" />
	
		<circle
   fill="#777777"
   stroke="#000000"
   stroke-width="0.5"
   stroke-linecap="round"
   stroke-linejoin="round"
   stroke-miterlimit="10"
   cx="164.34"
   cy="361.021"
   r="1.987"
   id="circle16" />
	
		<circle
   fill="#777777"
   stroke="#000000"
   stroke-width="0.5"
   stroke-linecap="round"
   stroke-linejoin="round"
   stroke-miterlimit="10"
   cx="140.038"
   cy="336.718"
   r="1.987"
   id="circle18" />
	
		<linearGradient
   id="SVGID_1_"
   gradientUnits="userSpaceOnUse"
   x1="85.0313"
   y1="164.3843"
   x2="85.0313"
   y2="210.3833"
   gradientTransform="matrix(0.6622 0 0 -0.6622 83.7294 500.3389)">
		<stop
   offset="0"
   style="stop-color:#D9D7D7;stop-opacity:0"
   id="stop20" />
		<stop
   offset="1"
   style="stop-color:#777777"
   id="stop22" />
	</linearGradient>
	<path
   fill="url(#SVGID_1_)"
   d="M148.381,361.021v29.27c-2.649,0.795-5.43,1.192-8.344,1.192c-2.914,0-5.695-0.397-8.344-1.192   v-29.27H148.381z"
   id="path25" />
	
		<circle
   fill="#777777"
   stroke="#000000"
   stroke-width="0.5"
   stroke-linecap="round"
   stroke-linejoin="round"
   stroke-miterlimit="10"
   cx="140.038"
   cy="385.39"
   r="1.987"
   id="circle27" />
	
		<circle
   fill="#D9D9D9"
   stroke="#000000"
   stroke-width="0.5"
   stroke-linecap="round"
   stroke-linejoin="round"
   stroke-miterlimit="10"
   cx="140.038"
   cy="361.021"
   r="8.344"
   id="circle29" />
	
		<circle
   fill="#333333"
   stroke="#000000"
   stroke-width="0.5"
   stroke-linecap="round"
   stroke-linejoin="round"
   stroke-miterlimit="10"
   cx="140.038"
   cy="361.021"
   r="6.49"
   id="circle31" />
	
		<linearGradient
   id="SVGID_2_"
   gradientUnits="userSpaceOnUse"
   x1="68.1313"
   y1="270.0342"
   x2="101.8813"
   y2="270.0342"
   gradientTransform="matrix(0.6622 0 0 -0.6622 83.7294 500.3389)">
		<stop
   offset="0"
   style="stop-color:#87817F"
   id="stop33" />
		<stop
   offset="0.5123"
   style="stop-color:#FFFFFF"
   id="stop35" />
		<stop
   offset="1"
   style="stop-color:#87817F"
   id="stop37" />
	</linearGradient>
	
		<rect
   x="128.846"
   y="317.381"
   fill="url(#SVGID_2_)"
   stroke="#000000"
   stroke-width="0.5"
   stroke-linecap="round"
   stroke-linejoin="round"
   stroke-miterlimit="10"
   width="22.382"
   height="8.277"
   id="rect40" />
</g>
</svg>
