<?xml version="1.0" encoding="UTF-8" standalone="no"?>
<svg
   xmlns:dc="http://purl.org/dc/elements/1.1/"
   xmlns:cc="http://creativecommons.org/ns#"
   xmlns:rdf="http://www.w3.org/1999/02/22-rdf-syntax-ns#"
   xmlns:svg="http://www.w3.org/2000/svg"
   xmlns="http://www.w3.org/2000/svg"
   xmlns:sodipodi="http://sodipodi.sourceforge.net/DTD/sodipodi-0.dtd"
   xmlns:inkscape="http://www.inkscape.org/namespaces/inkscape"
   version="1.1"
   id="图层_1"
   x="0px"
   y="0px"
   width="61.423px"
   height="76.323px"
   viewBox="192.102 319.53 61.423 76.323"
   enable-background="new 192.102 319.53 61.423 76.323"
   xml:space="preserve"
   sodipodi:docname="泵-16.svg"><metadata
   id="metadata67"><rdf:RDF><cc:Work
       rdf:about=""><dc:format>image/svg+xml</dc:format><dc:type
         rdf:resource="http://purl.org/dc/dcmitype/StillImage" /></cc:Work></rdf:RDF></metadata><defs
   id="defs65" /><sodipodi:namedview
   pagecolor="#ffffff"
   bordercolor="#666666"
   borderopacity="1"
   objecttolerance="10"
   gridtolerance="10"
   guidetolerance="10"
   inkscape:pageopacity="0"
   inkscape:pageshadow="2"
   inkscape:window-width="640"
   inkscape:window-height="480"
   id="namedview63" />
<g
   id="g60">
	
		<path
   fill="#FF8806"
   stroke="#000000"
   stroke-width="0.5"
   stroke-linecap="round"
   stroke-linejoin="round"
   stroke-miterlimit="10"
   d="   M235.991,337.248v-0.066c-2.317-0.596-4.04-2.649-4.04-5.165v-2.583h-18.21v6.225c-12.383,3.841-21.389,15.429-21.389,29.071   c0,16.82,13.641,30.461,30.461,30.461c16.82,0,30.461-13.642,30.461-30.461C253.341,352.61,246.255,342.147,235.991,337.248z    M222.879,383.271c-10.264,0-18.542-8.278-18.542-18.542c0-10.065,8.079-18.277,18.078-18.542c1.523,0,1.788,0.066,2.715,0.066   c0.332,0,0.994,0.199,0.861,0.199c8.741,1.457,15.429,9.072,15.429,18.277C241.421,374.993,233.144,383.271,222.879,383.271z"
   id="path2" />
	<circle
   fill="#E57713"
   stroke="#E57713"
   stroke-miterlimit="10"
   cx="222.879"
   cy="364.729"
   r="18.542"
   id="circle4" />
	<path
   fill="none"
   stroke="#000000"
   stroke-width="0.5"
   stroke-miterlimit="10"
   d="M222.879,346.187   c10.265,0,18.542,8.278,18.542,18.542s-8.277,18.542-18.542,18.542"
   id="path6" />
	
		<circle
   fill="#B25F14"
   stroke="#000000"
   stroke-width="0.5"
   stroke-linecap="round"
   stroke-linejoin="round"
   stroke-miterlimit="10"
   cx="222.879"
   cy="364.729"
   r="14.039"
   id="circle8" />
	
		<circle
   fill="#FF8806"
   stroke="#000000"
   stroke-width="0.5"
   stroke-linecap="round"
   stroke-linejoin="round"
   stroke-miterlimit="10"
   cx="214.536"
   cy="356.915"
   r="1.523"
   id="circle10" />
	
		<circle
   fill="#FF8806"
   stroke="#000000"
   stroke-width="0.5"
   stroke-linecap="round"
   stroke-linejoin="round"
   stroke-miterlimit="10"
   cx="230.694"
   cy="356.385"
   r="1.523"
   id="circle12" />
	
		<linearGradient
   id="SVGID_1_"
   gradientUnits="userSpaceOnUse"
   x1="210.1313"
   y1="158.7837"
   x2="210.1313"
   y2="204.7837"
   gradientTransform="matrix(0.6622 0 0 -0.6622 83.7294 500.3389)">
		<stop
   offset="0"
   style="stop-color:#B25F14;stop-opacity:0"
   id="stop14" />
		<stop
   offset="1"
   style="stop-color:#4C2909"
   id="stop16" />
	</linearGradient>
	<path
   fill="url(#SVGID_1_)"
   d="M231.224,364.729v29.27c-2.649,0.794-5.43,1.192-8.344,1.192c-2.914,0-5.695-0.397-8.344-1.192   v-29.27H231.224z"
   id="path19" />
	
		<circle
   fill="#D9D9D9"
   stroke="#000000"
   stroke-width="0.5"
   stroke-linecap="round"
   stroke-linejoin="round"
   stroke-miterlimit="10"
   cx="222.879"
   cy="364.729"
   r="8.344"
   id="circle21" />
	
		<circle
   fill="#333333"
   stroke="#000000"
   stroke-width="0.5"
   stroke-linecap="round"
   stroke-linejoin="round"
   stroke-miterlimit="10"
   cx="222.879"
   cy="364.729"
   r="6.49"
   id="circle23" />
	
		<linearGradient
   id="SVGID_2_"
   gradientUnits="userSpaceOnUse"
   x1="193.2681"
   y1="264.4341"
   x2="227.0181"
   y2="264.4341"
   gradientTransform="matrix(0.6622 0 0 -0.6622 83.7294 500.3389)">
		<stop
   offset="0"
   style="stop-color:#FF8806"
   id="stop25" />
		<stop
   offset="0.5"
   style="stop-color:#FFCF9A"
   id="stop27" />
		<stop
   offset="1"
   style="stop-color:#FF8806"
   id="stop29" />
	</linearGradient>
	
		<rect
   x="211.688"
   y="321.089"
   fill="url(#SVGID_2_)"
   stroke="#000000"
   stroke-width="0.5"
   stroke-linecap="round"
   stroke-linejoin="round"
   stroke-miterlimit="10"
   width="22.382"
   height="8.278"
   id="rect32" />
	
		<path
   fill="#FF8806"
   stroke="#000000"
   stroke-width="0.5"
   stroke-linecap="round"
   stroke-linejoin="round"
   stroke-miterlimit="10"
   d="   M235.991,337.248L235.991,337.248c-2.317-0.663-4.04-2.782-4.04-5.298v-2.583h-18.21v6.291l0,0   c0.199,5.165,3.377,9.205,8.211,10.33c0.794,0.199,2.251,0.332,3.178,0.332c0.332,0,0.927,0.198,1.258,0.132"
   id="path34" />
	
		<circle
   fill="#FF8806"
   stroke="#000000"
   stroke-width="0.5"
   stroke-linecap="round"
   stroke-linejoin="round"
   stroke-miterlimit="10"
   cx="222.879"
   cy="383.271"
   r="4.238"
   id="circle36" />
	
		<circle
   fill="#FF8806"
   stroke="#000000"
   stroke-width="0.5"
   stroke-linecap="round"
   stroke-linejoin="round"
   stroke-miterlimit="10"
   cx="215.065"
   cy="373.073"
   r="1.523"
   id="circle38" />
	
		<circle
   fill="#FF8806"
   stroke="#000000"
   stroke-width="0.5"
   stroke-linecap="round"
   stroke-linejoin="round"
   stroke-miterlimit="10"
   cx="231.224"
   cy="372.543"
   r="1.523"
   id="circle40" />
	<g
   id="g48">
		
			<rect
   x="201.093"
   y="391.085"
   fill="#FF8806"
   stroke="#000000"
   stroke-width="0.5"
   stroke-linecap="round"
   stroke-linejoin="round"
   stroke-miterlimit="10"
   width="5.563"
   height="5.827"
   id="rect42" />
		
			<rect
   x="209.238"
   y="391.085"
   fill="#FF8806"
   stroke="#000000"
   stroke-width="0.5"
   stroke-linecap="round"
   stroke-linejoin="round"
   stroke-miterlimit="10"
   width="9.006"
   height="5.827"
   id="rect44" />
		
			<rect
   x="206.655"
   y="391.085"
   fill="#B25F14"
   stroke="#000000"
   stroke-width="0.5"
   stroke-linecap="round"
   stroke-linejoin="round"
   stroke-miterlimit="10"
   width="2.583"
   height="5.827"
   id="rect46" />
	</g>
	<g
   id="g56">
		
			<rect
   x="239.104"
   y="391.085"
   fill="#FF8806"
   stroke="#000000"
   stroke-width="0.5"
   stroke-linecap="round"
   stroke-linejoin="round"
   stroke-miterlimit="10"
   width="5.563"
   height="5.827"
   id="rect50" />
		
			<rect
   x="227.515"
   y="391.085"
   fill="#FF8806"
   stroke="#000000"
   stroke-width="0.5"
   stroke-linecap="round"
   stroke-linejoin="round"
   stroke-miterlimit="10"
   width="9.006"
   height="5.827"
   id="rect52" />
		
			<rect
   x="236.521"
   y="391.085"
   fill="#B25F14"
   stroke="#000000"
   stroke-width="0.5"
   stroke-linecap="round"
   stroke-linejoin="round"
   stroke-miterlimit="10"
   width="2.583"
   height="5.827"
   id="rect54" />
	</g>
	
		<rect
   x="218.311"
   y="393.204"
   fill="#B25F14"
   stroke="#000000"
   stroke-width="0.5"
   stroke-linecap="round"
   stroke-linejoin="round"
   stroke-miterlimit="10"
   width="9.205"
   height="3.708"
   id="rect58" />
</g>
</svg>
