<?xml version="1.0" encoding="UTF-8" standalone="no"?>
<svg
   xmlns:dc="http://purl.org/dc/elements/1.1/"
   xmlns:cc="http://creativecommons.org/ns#"
   xmlns:rdf="http://www.w3.org/1999/02/22-rdf-syntax-ns#"
   xmlns:svg="http://www.w3.org/2000/svg"
   xmlns="http://www.w3.org/2000/svg"
   xmlns:sodipodi="http://sodipodi.sourceforge.net/DTD/sodipodi-0.dtd"
   xmlns:inkscape="http://www.inkscape.org/namespaces/inkscape"
   version="1.1"
   id="图层_1"
   x="0px"
   y="0px"
   width="61.423px"
   height="76.323px"
   viewBox="275.01 319.53 61.423 76.323"
   enable-background="new 275.01 319.53 61.423 76.323"
   xml:space="preserve"
   sodipodi:docname="泵-17.svg"><metadata
   id="metadata67"><rdf:RDF><cc:Work
       rdf:about=""><dc:format>image/svg+xml</dc:format><dc:type
         rdf:resource="http://purl.org/dc/dcmitype/StillImage" /></cc:Work></rdf:RDF></metadata><defs
   id="defs65" /><sodipodi:namedview
   pagecolor="#ffffff"
   bordercolor="#666666"
   borderopacity="1"
   objecttolerance="10"
   gridtolerance="10"
   guidetolerance="10"
   inkscape:pageopacity="0"
   inkscape:pageshadow="2"
   inkscape:window-width="640"
   inkscape:window-height="480"
   id="namedview63" />
<g
   id="g60">
	
		<path
   fill="#03FF16"
   stroke="#000000"
   stroke-width="0.5"
   stroke-linecap="round"
   stroke-linejoin="round"
   stroke-miterlimit="10"
   d="   M318.899,337.248v-0.066c-2.317-0.596-4.039-2.649-4.039-5.165v-2.583h-18.211v6.225c-12.383,3.841-21.389,15.429-21.389,29.071   c0,16.82,13.642,30.461,30.461,30.461c16.82,0,30.462-13.642,30.462-30.461C336.25,352.61,329.164,342.147,318.899,337.248z    M305.788,383.271c-10.264,0-18.542-8.278-18.542-18.542c0-10.065,8.079-18.277,18.078-18.542c1.523,0,1.788,0.066,2.715,0.066   c0.331,0,0.994,0.199,0.861,0.199c8.741,1.457,15.43,9.072,15.43,18.277C324.33,374.993,315.986,383.271,305.788,383.271z"
   id="path2" />
	<circle
   fill="#18E513"
   stroke="#18E513"
   stroke-miterlimit="10"
   cx="305.788"
   cy="364.729"
   r="18.542"
   id="circle4" />
	<path
   fill="none"
   stroke="#000000"
   stroke-width="0.5"
   stroke-miterlimit="10"
   d="M305.788,346.187   c10.264,0,18.542,8.278,18.542,18.542s-8.278,18.542-18.542,18.542"
   id="path6" />
	
		<circle
   fill="#18B214"
   stroke="#000000"
   stroke-width="0.5"
   stroke-linecap="round"
   stroke-linejoin="round"
   stroke-miterlimit="10"
   cx="305.788"
   cy="364.729"
   r="14.039"
   id="circle8" />
	
		<circle
   fill="#03FF16"
   stroke="#000000"
   stroke-width="0.5"
   stroke-linecap="round"
   stroke-linejoin="round"
   stroke-miterlimit="10"
   cx="297.378"
   cy="356.915"
   r="1.523"
   id="circle10" />
	
		<circle
   fill="#03FF16"
   stroke="#000000"
   stroke-width="0.5"
   stroke-linecap="round"
   stroke-linejoin="round"
   stroke-miterlimit="10"
   cx="313.602"
   cy="356.385"
   r="1.523"
   id="circle12" />
	
		<linearGradient
   id="SVGID_1_"
   gradientUnits="userSpaceOnUse"
   x1="335.332"
   y1="158.7837"
   x2="335.332"
   y2="204.7837"
   gradientTransform="matrix(0.6622 0 0 -0.6622 83.7294 500.3389)">
		<stop
   offset="0"
   style="stop-color:#18B214;stop-opacity:0"
   id="stop14" />
		<stop
   offset="1"
   style="stop-color:#0A4C09"
   id="stop16" />
	</linearGradient>
	<path
   fill="url(#SVGID_1_)"
   d="M314.132,364.729v29.27c-2.648,0.794-5.431,1.192-8.344,1.192c-2.914,0-5.695-0.397-8.344-1.192   v-29.27H314.132z"
   id="path19" />
	
		<circle
   fill="#D9D9D9"
   stroke="#000000"
   stroke-width="0.5"
   stroke-linecap="round"
   stroke-linejoin="round"
   stroke-miterlimit="10"
   cx="305.788"
   cy="364.729"
   r="8.344"
   id="circle21" />
	
		<circle
   fill="#333333"
   stroke="#000000"
   stroke-width="0.5"
   stroke-linecap="round"
   stroke-linejoin="round"
   stroke-miterlimit="10"
   cx="305.788"
   cy="364.729"
   r="6.49"
   id="circle23" />
	
		<linearGradient
   id="SVGID_2_"
   gradientUnits="userSpaceOnUse"
   x1="318.4316"
   y1="264.4341"
   x2="352.1816"
   y2="264.4341"
   gradientTransform="matrix(0.6622 0 0 -0.6622 83.7294 500.3389)">
		<stop
   offset="0"
   style="stop-color:#03FF16"
   id="stop25" />
		<stop
   offset="0.5"
   style="stop-color:#9AFFA2"
   id="stop27" />
		<stop
   offset="1"
   style="stop-color:#03FF16"
   id="stop29" />
	</linearGradient>
	
		<rect
   x="294.597"
   y="321.089"
   fill="url(#SVGID_2_)"
   stroke="#000000"
   stroke-width="0.5"
   stroke-linecap="round"
   stroke-linejoin="round"
   stroke-miterlimit="10"
   width="22.383"
   height="8.278"
   id="rect32" />
	
		<path
   fill="#03FF16"
   stroke="#000000"
   stroke-width="0.5"
   stroke-linecap="round"
   stroke-linejoin="round"
   stroke-miterlimit="10"
   d="   M318.833,337.248L318.833,337.248c-2.317-0.663-4.039-2.782-4.039-5.298v-2.583h-18.211v6.291l0,0   c0.199,5.165,3.378,9.205,8.212,10.33c0.794,0.199,2.251,0.332,3.179,0.332c0.331,0,0.927,0.198,1.258,0.132"
   id="path34" />
	
		<circle
   fill="#03FF16"
   stroke="#000000"
   stroke-width="0.5"
   stroke-linecap="round"
   stroke-linejoin="round"
   stroke-miterlimit="10"
   cx="305.788"
   cy="383.271"
   r="4.238"
   id="circle36" />
	
		<circle
   fill="#03FF16"
   stroke="#000000"
   stroke-width="0.5"
   stroke-linecap="round"
   stroke-linejoin="round"
   stroke-miterlimit="10"
   cx="297.974"
   cy="373.073"
   r="1.523"
   id="circle38" />
	
		<circle
   fill="#03FF16"
   stroke="#000000"
   stroke-width="0.5"
   stroke-linecap="round"
   stroke-linejoin="round"
   stroke-miterlimit="10"
   cx="314.132"
   cy="372.543"
   r="1.523"
   id="circle40" />
	<g
   id="g48">
		
			<rect
   x="284.001"
   y="391.085"
   fill="#03FF16"
   stroke="#000000"
   stroke-width="0.5"
   stroke-linecap="round"
   stroke-linejoin="round"
   stroke-miterlimit="10"
   width="5.563"
   height="5.827"
   id="rect42" />
		
			<rect
   x="292.146"
   y="391.085"
   fill="#03FF16"
   stroke="#000000"
   stroke-width="0.5"
   stroke-linecap="round"
   stroke-linejoin="round"
   stroke-miterlimit="10"
   width="9.006"
   height="5.827"
   id="rect44" />
		
			<rect
   x="289.564"
   y="391.085"
   fill="#18B214"
   stroke="#000000"
   stroke-width="0.5"
   stroke-linecap="round"
   stroke-linejoin="round"
   stroke-miterlimit="10"
   width="2.583"
   height="5.827"
   id="rect46" />
	</g>
	<g
   id="g56">
		
			<rect
   x="321.946"
   y="391.085"
   fill="#03FF16"
   stroke="#000000"
   stroke-width="0.5"
   stroke-linecap="round"
   stroke-linejoin="round"
   stroke-miterlimit="10"
   width="5.563"
   height="5.827"
   id="rect50" />
		
			<rect
   x="310.357"
   y="391.085"
   fill="#03FF16"
   stroke="#000000"
   stroke-width="0.5"
   stroke-linecap="round"
   stroke-linejoin="round"
   stroke-miterlimit="10"
   width="9.006"
   height="5.827"
   id="rect52" />
		
			<rect
   x="319.43"
   y="391.085"
   fill="#18B214"
   stroke="#000000"
   stroke-width="0.5"
   stroke-linecap="round"
   stroke-linejoin="round"
   stroke-miterlimit="10"
   width="2.582"
   height="5.827"
   id="rect54" />
	</g>
	
		<rect
   x="301.152"
   y="393.204"
   fill="#18B214"
   stroke="#000000"
   stroke-width="0.5"
   stroke-linecap="round"
   stroke-linejoin="round"
   stroke-miterlimit="10"
   width="9.205"
   height="3.708"
   id="rect58" />
</g>
</svg>
