<?xml version="1.0" encoding="UTF-8" standalone="no"?>
<svg
   xmlns:dc="http://purl.org/dc/elements/1.1/"
   xmlns:cc="http://creativecommons.org/ns#"
   xmlns:rdf="http://www.w3.org/1999/02/22-rdf-syntax-ns#"
   xmlns:svg="http://www.w3.org/2000/svg"
   xmlns="http://www.w3.org/2000/svg"
   xmlns:sodipodi="http://sodipodi.sourceforge.net/DTD/sodipodi-0.dtd"
   xmlns:inkscape="http://www.inkscape.org/namespaces/inkscape"
   version="1.1"
   id="图层_1"
   x="0px"
   y="0px"
   width="70.363px"
   height="71.158px"
   viewBox="104.823 416.329 70.363 71.158"
   enable-background="new 104.823 416.329 70.363 71.158"
   xml:space="preserve"
   sodipodi:docname="泵-20.svg"><metadata
   id="metadata25"><rdf:RDF><cc:Work
       rdf:about=""><dc:format>image/svg+xml</dc:format><dc:type
         rdf:resource="http://purl.org/dc/dcmitype/StillImage" /></cc:Work></rdf:RDF></metadata><defs
   id="defs23" /><sodipodi:namedview
   pagecolor="#ffffff"
   bordercolor="#666666"
   borderopacity="1"
   objecttolerance="10"
   gridtolerance="10"
   guidetolerance="10"
   inkscape:pageopacity="0"
   inkscape:pageshadow="2"
   inkscape:window-width="640"
   inkscape:window-height="480"
   id="namedview21" />
<g
   id="g18">
	
		<polygon
   fill="#B2B2B2"
   stroke="#000000"
   stroke-width="0.5"
   stroke-linecap="round"
   stroke-linejoin="round"
   stroke-miterlimit="10"
   points="   161.957,487.237 107.655,487.237 118.648,470.55 150.964,470.55  "
   id="polygon2" />
	<path
   fill="#7F7F7F"
   d="M134.806,479.092c9.205,0,17.747,1.59,24.634,4.371l-8.41-12.913h-32.382l-8.476,12.847   C117.059,480.682,125.602,479.092,134.806,479.092z"
   id="path4" />
	
		<rect
   x="134.806"
   y="416.579"
   fill="#B2B2B2"
   stroke="#000000"
   stroke-width="0.5"
   stroke-linecap="round"
   stroke-linejoin="round"
   stroke-miterlimit="10"
   width="40.129"
   height="24.701"
   id="rect6" />
	<rect
   x="134.607"
   y="433.135"
   fill="#7F7F7F"
   width="40.13"
   height="8.013"
   id="rect8" />
	<rect
   x="134.607"
   y="424.129"
   fill="#A0A0A0"
   width="40.13"
   height="9.006"
   id="rect10" />
	
		<circle
   fill="#B2B2B2"
   stroke="#000000"
   stroke-width="0.5"
   stroke-linecap="round"
   stroke-linejoin="round"
   stroke-miterlimit="10"
   cx="134.806"
   cy="446.313"
   r="29.733"
   id="circle12" />
	
		<path
   fill="#E5E5E5"
   stroke="#000000"
   stroke-width="0.5"
   stroke-linecap="round"
   stroke-linejoin="round"
   stroke-miterlimit="10"
   d="   M158.381,446.313c0,12.979-10.529,23.575-23.575,23.575c-4.305,0-8.278-1.126-11.788-3.179l2.715-4.702   c2.649,1.523,5.761,2.45,9.072,2.45c9.999,0,18.145-8.145,18.145-18.145H158.381z"
   id="path14" />
	
		<path
   fill="#E5E5E5"
   stroke="#000000"
   stroke-width="0.5"
   stroke-linecap="round"
   stroke-linejoin="round"
   stroke-miterlimit="10"
   d="   M146.593,425.917l-2.715,4.701c-2.649-1.522-5.761-2.45-9.072-2.45c-10,0-18.145,8.146-18.145,18.145h-5.43   c0-12.979,10.529-23.574,23.575-23.574C139.11,422.738,143.083,423.931,146.593,425.917z"
   id="path16" />
</g>
</svg>
