<?xml version="1.0" encoding="UTF-8" standalone="no"?>
<svg
   xmlns:dc="http://purl.org/dc/elements/1.1/"
   xmlns:cc="http://creativecommons.org/ns#"
   xmlns:rdf="http://www.w3.org/1999/02/22-rdf-syntax-ns#"
   xmlns:svg="http://www.w3.org/2000/svg"
   xmlns="http://www.w3.org/2000/svg"
   xmlns:sodipodi="http://sodipodi.sourceforge.net/DTD/sodipodi-0.dtd"
   xmlns:inkscape="http://www.inkscape.org/namespaces/inkscape"
   version="1.1"
   id="图层_1"
   x="0px"
   y="0px"
   width="67.25px"
   height="61.224px"
   viewBox="218.524 58.554 67.25 61.224"
   enable-background="new 218.524 58.554 67.25 61.224"
   xml:space="preserve"
   sodipodi:docname="泵-03.svg"><metadata
   id="metadata21"><rdf:RDF><cc:Work
       rdf:about=""><dc:format>image/svg+xml</dc:format><dc:type
         rdf:resource="http://purl.org/dc/dcmitype/StillImage" /></cc:Work></rdf:RDF></metadata><defs
   id="defs19" /><sodipodi:namedview
   pagecolor="#ffffff"
   bordercolor="#666666"
   borderopacity="1"
   objecttolerance="10"
   gridtolerance="10"
   guidetolerance="10"
   inkscape:pageopacity="0"
   inkscape:pageshadow="2"
   inkscape:window-width="640"
   inkscape:window-height="480"
   id="namedview17" />
<g
   id="g14">
	
		<polygon
   fill="#7F7F7F"
   stroke="#000000"
   stroke-width="0.5"
   stroke-linecap="round"
   stroke-linejoin="round"
   stroke-miterlimit="10"
   points="   269.3,115.541 265.989,120.838 263.87,115.541 258.506,101.767 228.906,101.767 230.958,96.469 261.817,96.469  "
   id="polygon2" />
	
		<polygon
   fill="#BFBFBF"
   stroke="#000000"
   stroke-width="0.5"
   stroke-linecap="round"
   stroke-linejoin="round"
   stroke-miterlimit="10"
   points="   265.989,120.838 220.231,120.838 227.647,101.767 258.506,101.767 263.87,115.541  "
   id="polygon4" />
	
		<path
   fill="#7F7F7F"
   stroke="#000000"
   stroke-width="0.5"
   stroke-linecap="round"
   stroke-linejoin="round"
   stroke-miterlimit="10"
   d="   M285.524,60.114v17.217h-3.973V63.425H241.62c-4.636,0-9.006,1.391-12.582,3.774c4.172-4.371,10.065-7.085,16.555-7.085H285.524z"
   id="path6" />
	
		<path
   fill="#7F7F7F"
   stroke="#000000"
   stroke-width="0.5"
   stroke-linecap="round"
   stroke-linejoin="round"
   stroke-miterlimit="10"
   d="   M268.572,83.092c0,8.013-4.105,15.098-10.331,19.204c3.974-4.106,6.357-9.735,6.357-15.893c0-1.987-0.265-3.907-0.729-5.761h4.569   C268.506,81.437,268.572,82.231,268.572,83.092z"
   id="path8" />
	
		<path
   fill="#BFBFBF"
   stroke="#000000"
   stroke-width="0.5"
   stroke-linecap="round"
   stroke-linejoin="round"
   stroke-miterlimit="10"
   d="   M281.551,63.425v17.217H263.87c0.464,1.854,0.729,3.774,0.729,5.761c0,6.158-2.45,11.721-6.357,15.893   c-4.172,4.371-10.065,7.085-16.555,7.085c-12.648,0-22.913-10.264-22.913-22.913c0-8.013,4.105-15.098,10.331-19.138   c3.642-2.384,7.946-3.774,12.582-3.774h39.865V63.425z"
   id="path10" />
	
		<polygon
   fill="#7F7F7F"
   stroke="#000000"
   stroke-width="0.5"
   stroke-linecap="round"
   stroke-linejoin="round"
   stroke-miterlimit="10"
   points="   285.524,77.331 281.551,80.642 281.551,63.491 285.524,60.18  "
   id="polygon12" />
</g>
</svg>
