<?xml version="1.0" encoding="UTF-8" standalone="no"?>
<svg
   xmlns:dc="http://purl.org/dc/elements/1.1/"
   xmlns:cc="http://creativecommons.org/ns#"
   xmlns:rdf="http://www.w3.org/1999/02/22-rdf-syntax-ns#"
   xmlns:svg="http://www.w3.org/2000/svg"
   xmlns="http://www.w3.org/2000/svg"
   xmlns:sodipodi="http://sodipodi.sourceforge.net/DTD/sodipodi-0.dtd"
   xmlns:inkscape="http://www.inkscape.org/namespaces/inkscape"
   version="1.1"
   id="图层_1"
   x="0px"
   y="0px"
   width="66.787px"
   height="62.946px"
   viewBox="192.433 586.318 66.787 62.946"
   enable-background="new 192.433 586.318 66.787 62.946"
   xml:space="preserve"
   sodipodi:docname="泵-31.svg"><metadata
   id="metadata82"><rdf:RDF><cc:Work
       rdf:about=""><dc:format>image/svg+xml</dc:format><dc:type
         rdf:resource="http://purl.org/dc/dcmitype/StillImage" /></cc:Work></rdf:RDF></metadata><defs
   id="defs80" /><sodipodi:namedview
   pagecolor="#ffffff"
   bordercolor="#666666"
   borderopacity="1"
   objecttolerance="10"
   gridtolerance="10"
   guidetolerance="10"
   inkscape:pageopacity="0"
   inkscape:pageshadow="2"
   inkscape:window-width="640"
   inkscape:window-height="480"
   id="namedview78" />
<g
   id="g75">
	
		<linearGradient
   id="SVGID_1_"
   gradientUnits="userSpaceOnUse"
   x1="227.7808"
   y1="-224.5161"
   x2="227.7808"
   y2="-161.8159"
   gradientTransform="matrix(0.6622 0 0 -0.6622 83.7294 500.3389)">
		<stop
   offset="0"
   style="stop-color:#405473"
   id="stop2" />
		<stop
   offset="0.5123"
   style="stop-color:#BFD3F2"
   id="stop4" />
		<stop
   offset="1"
   style="stop-color:#405473"
   id="stop6" />
	</linearGradient>
	
		<rect
   x="217.582"
   y="607.494"
   fill="url(#SVGID_1_)"
   stroke="#000000"
   stroke-width="0.5"
   stroke-miterlimit="10"
   width="33.971"
   height="41.521"
   id="rect9" />
	
		<rect
   x="222.217"
   y="609.282"
   fill="#405473"
   stroke="#000000"
   stroke-width="0.5"
   stroke-miterlimit="10"
   width="24.701"
   height="36.62"
   id="rect11" />
	
		<linearGradient
   id="SVGID_2_"
   gradientUnits="userSpaceOnUse"
   x1="227.7813"
   y1="-207.1646"
   x2="227.7813"
   y2="-177.1646"
   gradientTransform="matrix(0.6622 0 0 -0.6622 83.7294 500.3389)">
		<stop
   offset="0"
   style="stop-color:#405473"
   id="stop13" />
		<stop
   offset="0.5123"
   style="stop-color:#BFD3F2"
   id="stop15" />
		<stop
   offset="1"
   style="stop-color:#405473"
   id="stop17" />
	</linearGradient>
	
		<rect
   x="214.47"
   y="617.626"
   fill="url(#SVGID_2_)"
   stroke="#000000"
   stroke-width="0.5"
   stroke-miterlimit="10"
   width="40.196"
   height="19.866"
   id="rect20" />
	
		<linearGradient
   id="SVGID_3_"
   gradientUnits="userSpaceOnUse"
   x1="-57.0479"
   y1="-211.6646"
   x2="-57.0479"
   y2="-172.6655"
   gradientTransform="matrix(-0.6622 0 0 -0.6622 174.5406 500.3389)">
		<stop
   offset="0"
   style="stop-color:#405473"
   id="stop22" />
		<stop
   offset="0.5123"
   style="stop-color:#BFD3F2"
   id="stop24" />
		<stop
   offset="1"
   style="stop-color:#405473"
   id="stop26" />
	</linearGradient>
	
		<rect
   x="210.165"
   y="614.646"
   fill="url(#SVGID_3_)"
   stroke="#000000"
   stroke-width="0.5"
   stroke-miterlimit="10"
   width="4.305"
   height="25.825"
   id="rect29" />
	
		<linearGradient
   id="SVGID_4_"
   gradientUnits="userSpaceOnUse"
   x1="-124.2476"
   y1="-211.6646"
   x2="-124.2476"
   y2="-172.6655"
   gradientTransform="matrix(-0.6622 0 0 -0.6622 174.5406 500.3389)">
		<stop
   offset="0"
   style="stop-color:#405473"
   id="stop31" />
		<stop
   offset="0.5123"
   style="stop-color:#BFD3F2"
   id="stop33" />
		<stop
   offset="1"
   style="stop-color:#405473"
   id="stop35" />
	</linearGradient>
	
		<rect
   x="254.666"
   y="614.646"
   fill="url(#SVGID_4_)"
   stroke="#000000"
   stroke-width="0.5"
   stroke-miterlimit="10"
   width="4.304"
   height="25.825"
   id="rect38" />
	<circle
   fill="#7387A6"
   stroke="#000000"
   stroke-width="0.5"
   stroke-miterlimit="10"
   cx="234.601"
   cy="627.559"
   r="17.019"
   id="circle40" />
	<path
   fill="#BFD3F2"
   d="M218.244,628.222c0-9.403,7.615-17.02,17.019-17.02c4.503,0,8.609,1.788,11.655,4.636   c-3.113-3.245-7.483-5.298-12.317-5.298c-9.403,0-17.019,7.615-17.019,17.019c0,4.835,2.053,9.271,5.297,12.317   C220.032,636.896,218.244,632.791,218.244,628.222z"
   id="path42" />
	<circle
   fill="#405473"
   stroke="#000000"
   stroke-width="0.5"
   stroke-miterlimit="10"
   cx="234.601"
   cy="627.559"
   r="9.933"
   id="circle44" />
	<path
   fill="#BFD3F2"
   d="M243.872,626.896c0,5.497-4.437,9.934-9.933,9.934c-2.583,0-4.9-0.993-6.688-2.583   c1.788,1.987,4.437,3.245,7.351,3.245c5.497,0,9.933-4.437,9.933-9.934c0-2.913-1.258-5.496-3.245-7.35   C242.878,621.996,243.872,624.381,243.872,626.896z"
   id="path46" />
	<circle
   fill="#7387A6"
   stroke="#000000"
   stroke-width="0.5"
   stroke-miterlimit="10"
   cx="234.601"
   cy="627.559"
   r="3.046"
   id="circle48" />
	
		<rect
   x="219.304"
   y="605.309"
   fill="#7387A6"
   stroke="#000000"
   stroke-width="0.5"
   stroke-miterlimit="10"
   width="30.528"
   height="2.186"
   id="rect50" />
	<path
   fill="#596E8E"
   stroke="#000000"
   stroke-width="0.5"
   stroke-miterlimit="10"
   d="M228.707,588.092h-2.053h-16.025v12.516   h13.244c1.523,0,2.715,1.258,2.715,2.715v1.92h15.827v-5.165C242.481,596.436,240.892,588.092,228.707,588.092z"
   id="path52" />
	<path
   fill="#213047"
   d="M226.654,601.336c0-1.523-1.258-2.715-2.715-2.715h-13.244v1.986h13.244c1.523,0,2.715,1.258,2.715,2.715   v1.92h15.827v-1.986h-15.827V601.336z"
   id="path54" />
	
		<rect
   x="207.848"
   y="586.568"
   fill="#7387A6"
   stroke="#000000"
   stroke-width="0.5"
   stroke-miterlimit="10"
   width="2.847"
   height="15.496"
   id="rect56" />
	
		<rect
   x="203.543"
   y="588.092"
   fill="#7387A6"
   stroke="#000000"
   stroke-width="0.5"
   stroke-miterlimit="10"
   width="4.305"
   height="12.516"
   id="rect58" />
	<rect
   x="203.676"
   y="597.098"
   fill="#213047"
   width="3.973"
   height="3.377"
   id="rect60" />
	<rect
   x="203.676"
   y="592.131"
   fill="#405473"
   width="3.973"
   height="4.967"
   id="rect62" />
	
		<linearGradient
   id="SVGID_5_"
   gradientUnits="userSpaceOnUse"
   x1="172.6812"
   y1="-145.582"
   x2="172.6812"
   y2="-138.3317"
   gradientTransform="matrix(0.6622 0 0 -0.6622 83.7294 500.3389)">
		<stop
   offset="0"
   style="stop-color:#405473"
   id="stop64" />
		<stop
   offset="0.5123"
   style="stop-color:#BFD3F2"
   id="stop66" />
		<stop
   offset="1"
   style="stop-color:#405473"
   id="stop68" />
	</linearGradient>
	
		<rect
   x="192.683"
   y="591.933"
   fill="url(#SVGID_5_)"
   stroke="#000000"
   stroke-width="0.5"
   stroke-miterlimit="10"
   width="10.794"
   height="4.834"
   id="rect71" />
	<path
   fill="#9FB4D3"
   d="M228.707,588.092h-2.053h-16.025v1.986h15.363h2.053c12.118,0,13.774,8.41,13.774,12.052v3.179h0.662   v-5.165C242.481,596.436,240.892,588.092,228.707,588.092z"
   id="path73" />
</g>
</svg>
