<?xml version="1.0" encoding="UTF-8" standalone="no"?>
<svg
   xmlns:dc="http://purl.org/dc/elements/1.1/"
   xmlns:cc="http://creativecommons.org/ns#"
   xmlns:rdf="http://www.w3.org/1999/02/22-rdf-syntax-ns#"
   xmlns:svg="http://www.w3.org/2000/svg"
   xmlns="http://www.w3.org/2000/svg"
   xmlns:sodipodi="http://sodipodi.sourceforge.net/DTD/sodipodi-0.dtd"
   xmlns:inkscape="http://www.inkscape.org/namespaces/inkscape"
   version="1.1"
   id="图层_1"
   x="0px"
   y="0px"
   width="71.754px"
   height="65.064px"
   viewBox="434.668 585.127 71.754 65.064"
   enable-background="new 434.668 585.127 71.754 65.064"
   xml:space="preserve"
   sodipodi:docname="泵-34.svg"><metadata
   id="metadata109"><rdf:RDF><cc:Work
       rdf:about=""><dc:format>image/svg+xml</dc:format><dc:type
         rdf:resource="http://purl.org/dc/dcmitype/StillImage" /></cc:Work></rdf:RDF></metadata><defs
   id="defs107" /><sodipodi:namedview
   pagecolor="#ffffff"
   bordercolor="#666666"
   borderopacity="1"
   objecttolerance="10"
   gridtolerance="10"
   guidetolerance="10"
   inkscape:pageopacity="0"
   inkscape:pageshadow="2"
   inkscape:window-width="640"
   inkscape:window-height="480"
   id="namedview105" />
<g
   id="g102">
	
		<polygon
   fill="#B2B2B2"
   stroke="#231815"
   stroke-width="0.5"
   stroke-linecap="round"
   stroke-linejoin="round"
   stroke-miterlimit="10"
   points="   496.305,641.664 494.186,644.909 489.551,638.485 491.67,635.307  "
   id="polygon2" />
	
		<polygon
   fill="#F0F0F0"
   stroke="#231815"
   stroke-width="0.5"
   stroke-linecap="round"
   stroke-linejoin="round"
   stroke-miterlimit="10"
   points="   494.186,644.909 434.918,644.909 439.554,638.485 489.551,638.485  "
   id="polygon4" />
	<g
   id="g54">
		<g
   id="g40">
			<path
   fill="#F47F16"
   stroke="#231815"
   stroke-width="0.5"
   stroke-miterlimit="10"
   d="M475.909,589.681v24.767     c0,2.119-0.861,2.517-2.649,2.517h-18.078c-1.125,0-1.986-0.927-1.986-1.986v-25.23h22.714V589.681z"
   id="path6" />
			<path
   stroke="#231815"
   stroke-width="0.5"
   stroke-miterlimit="10"
   d="M475.909,588.754v0.927h-22.714v-0.927     c0-1.854,1.523-3.377,3.377-3.377h15.96C474.386,585.442,475.909,586.899,475.909,588.754z"
   id="path8" />
			<g
   id="g38">
				
					<line
   fill="none"
   stroke="#231815"
   stroke-width="0.5"
   stroke-miterlimit="10"
   x1="474.452"
   y1="616.831"
   x2="474.452"
   y2="589.681"
   id="line10" />
				
					<line
   fill="none"
   stroke="#231815"
   stroke-width="0.5"
   stroke-miterlimit="10"
   x1="472.929"
   y1="616.897"
   x2="472.929"
   y2="589.681"
   id="line12" />
				
					<line
   fill="none"
   stroke="#231815"
   stroke-width="0.5"
   stroke-miterlimit="10"
   x1="471.406"
   y1="616.964"
   x2="471.406"
   y2="589.681"
   id="line14" />
				
					<line
   fill="none"
   stroke="#231815"
   stroke-width="0.5"
   stroke-miterlimit="10"
   x1="469.883"
   y1="616.964"
   x2="469.883"
   y2="589.681"
   id="line16" />
				
					<line
   fill="none"
   stroke="#231815"
   stroke-width="0.5"
   stroke-miterlimit="10"
   x1="468.359"
   y1="616.964"
   x2="468.359"
   y2="589.681"
   id="line18" />
				
					<line
   fill="none"
   stroke="#231815"
   stroke-width="0.5"
   stroke-miterlimit="10"
   x1="466.837"
   y1="616.964"
   x2="466.837"
   y2="589.681"
   id="line20" />
				
					<line
   fill="none"
   stroke="#231815"
   stroke-width="0.5"
   stroke-miterlimit="10"
   x1="465.313"
   y1="616.964"
   x2="465.313"
   y2="589.681"
   id="line22" />
				
					<line
   fill="none"
   stroke="#231815"
   stroke-width="0.5"
   stroke-miterlimit="10"
   x1="463.791"
   y1="616.964"
   x2="463.791"
   y2="589.681"
   id="line24" />
				
					<line
   fill="none"
   stroke="#231815"
   stroke-width="0.5"
   stroke-miterlimit="10"
   x1="462.268"
   y1="616.964"
   x2="462.268"
   y2="589.681"
   id="line26" />
				
					<line
   fill="none"
   stroke="#231815"
   stroke-width="0.5"
   stroke-miterlimit="10"
   x1="460.744"
   y1="616.964"
   x2="460.744"
   y2="589.681"
   id="line28" />
				
					<line
   fill="none"
   stroke="#231815"
   stroke-width="0.5"
   stroke-miterlimit="10"
   x1="459.222"
   y1="616.964"
   x2="459.222"
   y2="589.681"
   id="line30" />
				
					<line
   fill="none"
   stroke="#231815"
   stroke-width="0.5"
   stroke-miterlimit="10"
   x1="457.698"
   y1="616.964"
   x2="457.698"
   y2="589.681"
   id="line32" />
				
					<line
   fill="none"
   stroke="#231815"
   stroke-width="0.5"
   stroke-miterlimit="10"
   x1="456.175"
   y1="616.897"
   x2="456.175"
   y2="589.681"
   id="line34" />
				
					<line
   fill="none"
   stroke="#231815"
   stroke-width="0.5"
   stroke-miterlimit="10"
   x1="454.652"
   y1="616.831"
   x2="454.652"
   y2="589.681"
   id="line36" />
			</g>
		</g>
		
			<rect
   x="454.652"
   y="616.831"
   fill="#F47F16"
   stroke="#231815"
   stroke-width="0.5"
   stroke-miterlimit="10"
   width="19.8"
   height="1.391"
   id="rect42" />
		
			<rect
   x="452.136"
   y="618.222"
   fill="#F47F16"
   stroke="#231815"
   stroke-width="0.5"
   stroke-miterlimit="10"
   width="24.833"
   height="1.391"
   id="rect44" />
		<g
   id="g52">
			
				<line
   fill="none"
   stroke="#231815"
   stroke-width="0.5"
   stroke-miterlimit="10"
   x1="469.354"
   y1="616.964"
   x2="469.354"
   y2="618.222"
   id="line46" />
			
				<line
   fill="none"
   stroke="#231815"
   stroke-width="0.5"
   stroke-miterlimit="10"
   x1="464.585"
   y1="616.964"
   x2="464.585"
   y2="618.222"
   id="line48" />
			
				<line
   fill="none"
   stroke="#231815"
   stroke-width="0.5"
   stroke-miterlimit="10"
   x1="459.751"
   y1="616.964"
   x2="459.751"
   y2="618.222"
   id="line50" />
		</g>
	</g>
	<path
   fill="#7F7F7F"
   stroke="#231815"
   stroke-width="0.5"
   stroke-miterlimit="10"
   d="M489.551,638.485h-49.997v-14.635   c0-2.317,1.854-4.172,4.172-4.172h45.825V638.485z"
   id="path56" />
	<path
   fill="#B2B2B2"
   d="M445.514,619.877c-3.046,0-5.563,2.385-5.695,5.364l0,0v0.265v5.364h49.467v-5.629v-5.364H445.514z"
   id="path58" />
	<path
   fill="#FFFFFF"
   d="M489.285,623.056v1.391h-49.4c0.066-0.463,0.199-0.927,0.397-1.391H489.285z"
   id="path60" />
	<path
   fill="none"
   stroke="#231815"
   stroke-width="0.5"
   stroke-miterlimit="10"
   d="M443.659,638.485V625.44   c0-3.179,2.583-5.762,5.762-5.762"
   id="path62" />
	<path
   fill="none"
   stroke="#231815"
   stroke-width="0.5"
   stroke-miterlimit="10"
   d="M447.897,638.485V625.44   c0-3.179,2.583-5.762,5.762-5.762"
   id="path64" />
	<path
   fill="none"
   stroke="#231815"
   stroke-width="0.5"
   stroke-miterlimit="10"
   d="M452.136,638.485V625.44   c0-3.179,2.583-5.762,5.762-5.762"
   id="path66" />
	<path
   fill="none"
   stroke="#231815"
   stroke-width="0.5"
   stroke-miterlimit="10"
   d="M456.374,638.485V625.44   c0-3.179,2.582-5.762,5.761-5.762"
   id="path68" />
	<path
   fill="none"
   stroke="#231815"
   stroke-width="0.5"
   stroke-miterlimit="10"
   d="M460.612,638.485V625.44   c0-3.179,2.582-5.762,5.761-5.762"
   id="path70" />
	<path
   fill="none"
   stroke="#231815"
   stroke-width="0.5"
   stroke-miterlimit="10"
   d="M464.916,638.485V625.44   c0-3.179,2.583-5.762,5.762-5.762"
   id="path72" />
	<path
   fill="none"
   stroke="#231815"
   stroke-width="0.5"
   stroke-miterlimit="10"
   d="M469.154,638.485V625.44   c0-3.179,2.583-5.762,5.762-5.762"
   id="path74" />
	<path
   fill="none"
   stroke="#231815"
   stroke-width="0.5"
   stroke-miterlimit="10"
   d="M473.393,638.485V625.44   c0-3.179,2.583-5.762,5.762-5.762"
   id="path76" />
	<path
   fill="none"
   stroke="#231815"
   stroke-width="0.5"
   stroke-miterlimit="10"
   d="M477.631,638.485V625.44   c0-3.179,2.583-5.762,5.761-5.762"
   id="path78" />
	<path
   fill="none"
   stroke="#231815"
   stroke-width="0.5"
   stroke-miterlimit="10"
   d="M481.869,638.485V625.44   c0-3.179,2.582-5.762,5.761-5.762"
   id="path80" />
	<path
   fill="none"
   stroke="#231815"
   stroke-width="0.5"
   stroke-miterlimit="10"
   d="M486.173,638.485V625.44   c0-2.318,1.391-4.371,3.444-5.231"
   id="path82" />
	
		<rect
   x="489.551"
   y="617.56"
   fill="#F0F0F0"
   stroke="#231815"
   stroke-width="0.5"
   stroke-miterlimit="10"
   width="4.635"
   height="22.979"
   id="rect84" />
	
		<rect
   x="494.186"
   y="622.46"
   fill="#F47F16"
   stroke="#231815"
   stroke-width="0.5"
   stroke-miterlimit="10"
   width="6.49"
   height="13.244"
   id="rect86" />
	
		<rect
   x="500.676"
   y="620.143"
   fill="#FF0000"
   stroke="#231815"
   stroke-width="0.5"
   stroke-miterlimit="10"
   width="1.92"
   height="17.813"
   id="rect88" />
	
		<rect
   x="502.529"
   y="622.46"
   fill="#F47F16"
   stroke="#231815"
   stroke-width="0.5"
   stroke-miterlimit="10"
   width="3.643"
   height="3.643"
   id="rect90" />
	
		<rect
   x="496.305"
   y="615.309"
   fill="#F47F16"
   stroke="#231815"
   stroke-width="0.5"
   stroke-miterlimit="10"
   width="2.517"
   height="7.151"
   id="rect92" />
	
		<rect
   x="434.918"
   y="644.909"
   fill="#F0F0F0"
   stroke="#231815"
   stroke-width="0.5"
   stroke-linecap="round"
   stroke-linejoin="round"
   stroke-miterlimit="10"
   width="59.202"
   height="5.032"
   id="rect94" />
	
		<polygon
   fill="#B2B2B2"
   stroke="#231815"
   stroke-width="0.5"
   stroke-linecap="round"
   stroke-linejoin="round"
   stroke-miterlimit="10"
   points="   496.305,646.697 494.186,649.941 494.186,644.909 496.305,641.664  "
   id="polygon96" />
	<rect
   x="443.659"
   y="642.591"
   fill="#231815"
   width="4.438"
   height="2.318"
   id="rect98" />
	<rect
   x="481.008"
   y="642.591"
   fill="#231815"
   width="4.438"
   height="2.318"
   id="rect100" />
</g>
</svg>
