<?xml version="1.0" encoding="UTF-8" standalone="no"?>
<svg
   xmlns:dc="http://purl.org/dc/elements/1.1/"
   xmlns:cc="http://creativecommons.org/ns#"
   xmlns:rdf="http://www.w3.org/1999/02/22-rdf-syntax-ns#"
   xmlns:svg="http://www.w3.org/2000/svg"
   xmlns="http://www.w3.org/2000/svg"
   xmlns:sodipodi="http://sodipodi.sourceforge.net/DTD/sodipodi-0.dtd"
   xmlns:inkscape="http://www.inkscape.org/namespaces/inkscape"
   version="1.1"
   id="图层_1"
   x="0px"
   y="0px"
   width="63.675px"
   height="92.48px"
   viewBox="265.408 673.267 63.675 92.48"
   enable-background="new 265.408 673.267 63.675 92.48"
   xml:space="preserve"
   sodipodi:docname="泵-37.svg"><metadata
   id="metadata68"><rdf:RDF><cc:Work
       rdf:about=""><dc:format>image/svg+xml</dc:format><dc:type
         rdf:resource="http://purl.org/dc/dcmitype/StillImage" /></cc:Work></rdf:RDF></metadata><defs
   id="defs66" /><sodipodi:namedview
   pagecolor="#ffffff"
   bordercolor="#666666"
   borderopacity="1"
   objecttolerance="10"
   gridtolerance="10"
   guidetolerance="10"
   inkscape:pageopacity="0"
   inkscape:pageshadow="2"
   inkscape:window-width="640"
   inkscape:window-height="480"
   id="namedview64" />
<g
   id="g61">
	<polygon
   fill="#AF564B"
   stroke="#231815"
   stroke-width="0.5"
   stroke-miterlimit="10"
   points="272.148,763.51 282.412,763.51    290.094,750.332 281.154,750.332  "
   id="polygon2" />
	
		<rect
   x="269.499"
   y="763.51"
   fill="#AF564B"
   stroke="#231815"
   stroke-width="0.5"
   stroke-miterlimit="10"
   width="15.496"
   height="1.987"
   id="rect4" />
	
		<rect
   x="287.114"
   y="750.994"
   fill="#AF564B"
   stroke="#231815"
   stroke-width="0.5"
   stroke-miterlimit="10"
   width="23.442"
   height="7.086"
   id="rect6" />
	<polygon
   fill="#AF564B"
   stroke="#231815"
   stroke-width="0.5"
   stroke-miterlimit="10"
   points="322.409,763.51 312.079,763.51    304.397,750.332 313.403,750.332  "
   id="polygon8" />
	
		<linearGradient
   id="SVGID_1_"
   gradientUnits="userSpaceOnUse"
   x1="318.9473"
   y1="-308.79"
   x2="349.3419"
   y2="-291.2417"
   gradientTransform="matrix(0.6622 0 0 -0.6622 83.7294 500.3389)">
		<stop
   offset="0"
   style="stop-color:#AF3F31"
   id="stop10" />
		<stop
   offset="0.5123"
   style="stop-color:#E99D94"
   id="stop12" />
		<stop
   offset="1"
   style="stop-color:#AF3F31"
   id="stop14" />
	</linearGradient>
	<polygon
   fill="url(#SVGID_1_)"
   stroke="#231815"
   stroke-width="0.5"
   stroke-miterlimit="10"
   points="327.773,716.56    321.747,704.772 307.046,683.185 307.046,679.542 283.869,679.542 283.869,683.185 302.212,717.421 327.972,717.421  "
   id="polygon17" />
	
		<radialGradient
   id="SVGID_2_"
   cx="322.4326"
   cy="-338.8154"
   r="47.7002"
   gradientTransform="matrix(0.6622 0 0 -0.6622 83.7294 500.3389)"
   gradientUnits="userSpaceOnUse">
		<stop
   offset="0"
   style="stop-color:#AF3F31"
   id="stop19" />
		<stop
   offset="0.6552"
   style="stop-color:#E99D94"
   id="stop21" />
		<stop
   offset="1"
   style="stop-color:#AE3C2E"
   id="stop23" />
	</radialGradient>
	<circle
   fill="url(#SVGID_2_)"
   stroke="#231815"
   stroke-width="0.5"
   stroke-miterlimit="10"
   cx="297.245"
   cy="724.705"
   r="31.587"
   id="circle26" />
	<circle
   fill="#AF564B"
   stroke="#231815"
   stroke-width="0.5"
   stroke-miterlimit="10"
   cx="297.245"
   cy="724.705"
   r="19.933"
   id="circle28" />
	<circle
   fill="#A14337"
   stroke="#231815"
   stroke-width="0.5"
   stroke-miterlimit="10"
   cx="297.245"
   cy="724.705"
   r="13.84"
   id="circle30" />
	<circle
   fill="#890F00"
   stroke="#231815"
   stroke-width="0.5"
   stroke-miterlimit="10"
   cx="297.245"
   cy="724.705"
   r="11.258"
   id="circle32" />
	<path
   fill="#E07E72"
   stroke="#231815"
   stroke-width="0.5"
   stroke-miterlimit="10"
   d="M297.576,713.447h-0.596   c-0.331,0-0.596,0.265-0.596,0.596v10.132h1.722v-10.132C298.106,713.712,297.842,713.447,297.576,713.447z"
   id="path34" />
	<path
   fill="#E07E72"
   stroke="#231815"
   stroke-width="0.5"
   stroke-miterlimit="10"
   d="M287.378,730.068l0.265,0.53   c0.132,0.265,0.53,0.331,0.794,0.198l8.807-5.099l-0.86-1.457l-8.808,5.1C287.313,729.406,287.246,729.804,287.378,730.068z"
   id="path36" />
	<path
   fill="#E07E72"
   stroke="#231815"
   stroke-width="0.5"
   stroke-miterlimit="10"
   d="M306.848,730.532l0.265-0.529   c0.133-0.266,0.066-0.597-0.198-0.795l-8.808-5.099l-0.861,1.456l8.808,5.1C306.317,730.93,306.648,730.797,306.848,730.532z"
   id="path38" />
	<circle
   fill="#E07E72"
   stroke="#231815"
   stroke-width="0.5"
   stroke-miterlimit="10"
   cx="297.245"
   cy="724.705"
   r="2.649"
   id="circle40" />
	
		<linearGradient
   id="SVGID_3_"
   gradientUnits="userSpaceOnUse"
   x1="296.1313"
   y1="-266.0659"
   x2="343.3828"
   y2="-266.0659"
   gradientTransform="matrix(0.6622 0 0 -0.6622 83.7294 500.3389)">
		<stop
   offset="0"
   style="stop-color:#AF3F31"
   id="stop42" />
		<stop
   offset="0.5123"
   style="stop-color:#E99D94"
   id="stop44" />
		<stop
   offset="1"
   style="stop-color:#AF3F31"
   id="stop46" />
	</linearGradient>
	
		<rect
   x="279.83"
   y="673.517"
   fill="url(#SVGID_3_)"
   stroke="#000000"
   stroke-width="0.5"
   stroke-miterlimit="10"
   width="31.322"
   height="6.025"
   id="rect49" />
	<g
   id="g57">
		<circle
   fill="#E07E72"
   stroke="#231815"
   stroke-width="0.5"
   stroke-miterlimit="10"
   cx="281.617"
   cy="751.193"
   r="10.794"
   id="circle51" />
		<path
   fill="#A14337"
   stroke="#231815"
   stroke-width="0.5"
   stroke-miterlimit="10"
   d="M290.16,751.193    c0,0.662-0.066,1.258-0.198,1.854c-0.729,3.244-3.245,5.761-6.49,6.489c-0.596,0.133-1.192,0.198-1.854,0.198    c-0.662,0-1.258-0.065-1.854-0.198c-3.245-0.729-5.761-3.245-6.49-6.489c-0.132-0.597-0.198-1.259-0.198-1.854    s0.066-1.259,0.198-1.854c0.729-3.245,3.245-5.761,6.49-6.489c0.596-0.133,1.258-0.199,1.854-0.199    c0.663,0,1.258,0.066,1.854,0.199c3.245,0.729,5.761,3.244,6.49,6.489C290.094,749.935,290.16,750.531,290.16,751.193z"
   id="path53" />
		<path
   fill="#E07E72"
   stroke="#231815"
   stroke-width="0.5"
   stroke-miterlimit="10"
   d="M290.16,751.193v-0.53    c0-0.729-0.596-1.324-1.324-1.324h-3.907c-0.794,0-1.391-0.662-1.391-1.391v-3.907c0-0.729-0.596-1.324-1.324-1.324h-0.53h-0.53    c-0.729,0-1.324,0.596-1.324,1.324v3.907c0,0.795-0.663,1.391-1.391,1.391h-3.907c-0.729,0-1.391,0.596-1.391,1.391v0.53v0.529    c0,0.729,0.596,1.391,1.391,1.391h3.907c0.794,0,1.391,0.662,1.391,1.391v3.907c0,0.729,0.596,1.391,1.391,1.391h0.53h0.53    c0.728,0,1.324-0.596,1.324-1.324v-3.907c0-0.795,0.662-1.391,1.391-1.391h3.907c0.728,0,1.391-0.596,1.391-1.391L290.16,751.193z    "
   id="path55" />
	</g>
	
		<rect
   x="309.563"
   y="763.51"
   fill="#AF564B"
   stroke="#231815"
   stroke-width="0.5"
   stroke-miterlimit="10"
   width="15.496"
   height="1.987"
   id="rect59" />
</g>
</svg>
