<?xml version="1.0" encoding="UTF-8" standalone="no"?>
<svg
   xmlns:dc="http://purl.org/dc/elements/1.1/"
   xmlns:cc="http://creativecommons.org/ns#"
   xmlns:rdf="http://www.w3.org/1999/02/22-rdf-syntax-ns#"
   xmlns:svg="http://www.w3.org/2000/svg"
   xmlns="http://www.w3.org/2000/svg"
   xmlns:sodipodi="http://sodipodi.sourceforge.net/DTD/sodipodi-0.dtd"
   xmlns:inkscape="http://www.inkscape.org/namespaces/inkscape"
   version="1.1"
   id="图层_1"
   x="0px"
   y="0px"
   width="63.675px"
   height="92.48px"
   viewBox="349.376 673.267 63.675 92.48"
   enable-background="new 349.376 673.267 63.675 92.48"
   xml:space="preserve"
   sodipodi:docname="泵-38.svg"><metadata
   id="metadata68"><rdf:RDF><cc:Work
       rdf:about=""><dc:format>image/svg+xml</dc:format><dc:type
         rdf:resource="http://purl.org/dc/dcmitype/StillImage" /></cc:Work></rdf:RDF></metadata><defs
   id="defs66" /><sodipodi:namedview
   pagecolor="#ffffff"
   bordercolor="#666666"
   borderopacity="1"
   objecttolerance="10"
   gridtolerance="10"
   guidetolerance="10"
   inkscape:pageopacity="0"
   inkscape:pageshadow="2"
   inkscape:window-width="640"
   inkscape:window-height="480"
   id="namedview64" />
<g
   id="g61">
	<polygon
   fill="#AF9C59"
   stroke="#231815"
   stroke-width="0.5"
   stroke-miterlimit="10"
   points="356.05,763.51 366.38,763.51    374.062,750.332 365.056,750.332  "
   id="polygon2" />
	
		<rect
   x="353.4"
   y="763.51"
   fill="#AF9C59"
   stroke="#231815"
   stroke-width="0.5"
   stroke-miterlimit="10"
   width="15.496"
   height="1.987"
   id="rect4" />
	
		<rect
   x="371.016"
   y="750.994"
   fill="#AF9C59"
   stroke="#231815"
   stroke-width="0.5"
   stroke-miterlimit="10"
   width="23.441"
   height="7.086"
   id="rect6" />
	<polygon
   fill="#AF9C59"
   stroke="#231815"
   stroke-width="0.5"
   stroke-miterlimit="10"
   points="406.311,763.51 396.047,763.51    388.365,750.332 397.305,750.332  "
   id="polygon8" />
	
		<linearGradient
   id="SVGID_1_"
   gradientUnits="userSpaceOnUse"
   x1="445.7334"
   y1="-308.7686"
   x2="476.1297"
   y2="-291.2192"
   gradientTransform="matrix(0.6622 0 0 -0.6622 83.7294 500.3389)">
		<stop
   offset="0"
   style="stop-color:#AF963F"
   id="stop10" />
		<stop
   offset="0.5123"
   style="stop-color:#E9DAA7"
   id="stop12" />
		<stop
   offset="1"
   style="stop-color:#AF963F"
   id="stop14" />
	</linearGradient>
	<polygon
   fill="url(#SVGID_1_)"
   stroke="#231815"
   stroke-width="0.5"
   stroke-miterlimit="10"
   points="411.675,716.56    405.715,704.772 391.014,683.185 391.014,679.542 367.771,679.542 367.771,683.185 386.18,717.421 411.939,717.421  "
   id="polygon17" />
	
		<radialGradient
   id="SVGID_2_"
   cx="449.2314"
   cy="-338.8154"
   r="47.7002"
   gradientTransform="matrix(0.6622 0 0 -0.6622 83.7294 500.3389)"
   gradientUnits="userSpaceOnUse">
		<stop
   offset="0"
   style="stop-color:#AF963F"
   id="stop19" />
		<stop
   offset="0.6552"
   style="stop-color:#E9DAA7"
   id="stop21" />
		<stop
   offset="1"
   style="stop-color:#AE953C"
   id="stop23" />
	</radialGradient>
	<circle
   fill="url(#SVGID_2_)"
   stroke="#231815"
   stroke-width="0.5"
   stroke-miterlimit="10"
   cx="381.213"
   cy="724.705"
   r="31.587"
   id="circle26" />
	<circle
   fill="#AF9C59"
   stroke="#231815"
   stroke-width="0.5"
   stroke-miterlimit="10"
   cx="381.213"
   cy="724.705"
   r="19.933"
   id="circle28" />
	<circle
   fill="#A18C44"
   stroke="#231815"
   stroke-width="0.5"
   stroke-miterlimit="10"
   cx="381.213"
   cy="724.705"
   r="13.84"
   id="circle30" />
	<circle
   fill="#896D0B"
   stroke="#231815"
   stroke-width="0.5"
   stroke-miterlimit="10"
   cx="381.213"
   cy="724.705"
   r="11.258"
   id="circle32" />
	<path
   fill="#E0CC84"
   stroke="#231815"
   stroke-width="0.5"
   stroke-miterlimit="10"
   d="M381.479,713.447h-0.597   c-0.331,0-0.596,0.265-0.596,0.596v10.132h1.722v-10.132C382.074,713.712,381.81,713.447,381.479,713.447z"
   id="path34" />
	<path
   fill="#E0CC84"
   stroke="#231815"
   stroke-width="0.5"
   stroke-miterlimit="10"
   d="M371.347,730.068l0.265,0.53   c0.133,0.265,0.53,0.331,0.795,0.198l8.807-5.099l-0.86-1.457l-8.808,5.1C371.28,729.406,371.147,729.804,371.347,730.068z"
   id="path36" />
	<path
   fill="#E0CC84"
   stroke="#231815"
   stroke-width="0.5"
   stroke-miterlimit="10"
   d="M390.749,730.532l0.265-0.529   c0.133-0.266,0.066-0.597-0.198-0.795l-8.808-5.099l-0.86,1.456l8.807,5.1C390.22,730.93,390.617,730.797,390.749,730.532z"
   id="path38" />
	<circle
   fill="#E0CC84"
   stroke="#231815"
   stroke-width="0.5"
   stroke-miterlimit="10"
   cx="381.213"
   cy="724.705"
   r="2.649"
   id="circle40" />
	
		<linearGradient
   id="SVGID_3_"
   gradientUnits="userSpaceOnUse"
   x1="422.832"
   y1="-266.0659"
   x2="470.0801"
   y2="-266.0659"
   gradientTransform="matrix(0.6622 0 0 -0.6622 83.7294 500.3389)">
		<stop
   offset="0"
   style="stop-color:#AF963F"
   id="stop42" />
		<stop
   offset="0.5123"
   style="stop-color:#E9DAA7"
   id="stop44" />
		<stop
   offset="1"
   style="stop-color:#AF963F"
   id="stop46" />
	</linearGradient>
	
		<rect
   x="363.731"
   y="673.517"
   fill="url(#SVGID_3_)"
   stroke="#000000"
   stroke-width="0.5"
   stroke-miterlimit="10"
   width="31.322"
   height="6.025"
   id="rect49" />
	<g
   id="g57">
		<circle
   fill="#E0CC84"
   stroke="#231815"
   stroke-width="0.5"
   stroke-miterlimit="10"
   cx="365.52"
   cy="751.193"
   r="10.794"
   id="circle51" />
		<path
   fill="#A18C44"
   stroke="#231815"
   stroke-width="0.5"
   stroke-miterlimit="10"
   d="M374.062,751.193    c0,0.662-0.066,1.258-0.198,1.854c-0.729,3.244-3.245,5.761-6.49,6.489c-0.596,0.133-1.191,0.198-1.854,0.198    c-0.663,0-1.259-0.065-1.854-0.198c-3.245-0.729-5.762-3.245-6.489-6.489c-0.133-0.597-0.199-1.259-0.199-1.854    s0.066-1.259,0.199-1.854c0.728-3.245,3.244-5.761,6.489-6.489c0.596-0.133,1.258-0.199,1.854-0.199    c0.662,0,1.258,0.066,1.854,0.199c3.245,0.729,5.762,3.244,6.49,6.489C373.995,749.935,374.062,750.531,374.062,751.193z"
   id="path53" />
		<path
   fill="#E0CC84"
   stroke="#231815"
   stroke-width="0.5"
   stroke-miterlimit="10"
   d="M374.062,751.193v-0.53    c0-0.729-0.596-1.324-1.324-1.324h-3.907c-0.795,0-1.391-0.662-1.391-1.391v-3.907c0-0.729-0.596-1.324-1.324-1.324h-0.53h-0.529    c-0.729,0-1.324,0.596-1.324,1.324v3.907c0,0.795-0.662,1.391-1.391,1.391h-3.907c-0.729,0-1.391,0.596-1.391,1.391v0.53v0.529    c0,0.729,0.596,1.391,1.391,1.391h3.907c0.794,0,1.391,0.662,1.391,1.391v3.907c0,0.729,0.596,1.391,1.391,1.391h0.529h0.53    c0.729,0,1.324-0.596,1.324-1.324v-3.907c0-0.795,0.662-1.391,1.391-1.391h3.907c0.729,0,1.391-0.596,1.391-1.391L374.062,751.193    z"
   id="path55" />
	</g>
	
		<rect
   x="393.464"
   y="763.51"
   fill="#AF9C59"
   stroke="#231815"
   stroke-width="0.5"
   stroke-miterlimit="10"
   width="15.496"
   height="1.987"
   id="rect59" />
</g>
</svg>
