<?xml version="1.0" encoding="UTF-8" standalone="no"?>
<svg
   xmlns:dc="http://purl.org/dc/elements/1.1/"
   xmlns:cc="http://creativecommons.org/ns#"
   xmlns:rdf="http://www.w3.org/1999/02/22-rdf-syntax-ns#"
   xmlns:svg="http://www.w3.org/2000/svg"
   xmlns="http://www.w3.org/2000/svg"
   xmlns:sodipodi="http://sodipodi.sourceforge.net/DTD/sodipodi-0.dtd"
   xmlns:inkscape="http://www.inkscape.org/namespaces/inkscape"
   version="1.1"
   id="图层_1"
   x="0px"
   y="0px"
   width="61.423px"
   height="81.488px"
   viewBox="450.429 38.291 61.423 81.488"
   enable-background="new 450.429 38.291 61.423 81.488"
   xml:space="preserve"
   sodipodi:docname="泵-05.svg"><metadata
   id="metadata47"><rdf:RDF><cc:Work
       rdf:about=""><dc:format>image/svg+xml</dc:format><dc:type
         rdf:resource="http://purl.org/dc/dcmitype/StillImage" /></cc:Work></rdf:RDF></metadata><defs
   id="defs45" /><sodipodi:namedview
   pagecolor="#ffffff"
   bordercolor="#666666"
   borderopacity="1"
   objecttolerance="10"
   gridtolerance="10"
   guidetolerance="10"
   inkscape:pageopacity="0"
   inkscape:pageshadow="2"
   inkscape:window-width="640"
   inkscape:window-height="480"
   id="namedview43" />
<g
   id="g40">
	
		<polygon
   fill="#7F7F7F"
   stroke="#000000"
   stroke-width="0.5"
   stroke-linecap="round"
   stroke-linejoin="round"
   stroke-miterlimit="10"
   points="   506.238,118.653 456.241,118.653 464.52,106.468 497.961,106.468  "
   id="polygon2" />
	
		<path
   fill="#E2E0E0"
   stroke="#000000"
   stroke-width="0.5"
   stroke-linecap="round"
   stroke-linejoin="round"
   stroke-miterlimit="10"
   d="   M494.318,55.941L494.318,55.941c-2.317-0.662-4.039-2.715-4.039-5.231v-2.583h-18.211v6.225   c-12.384,3.841-21.39,15.429-21.39,29.071c0,16.82,13.642,30.461,30.462,30.461s30.461-13.642,30.461-30.461   C511.668,71.305,504.583,60.842,494.318,55.941z M481.207,102.031c-10.265,0-18.542-8.277-18.542-18.542   c0-10.065,8.079-18.277,18.078-18.542c1.523,0,1.788,0.066,2.715,0.066c0.331,0,0.993,0.199,0.861,0.199   c8.741,1.457,15.429,9.072,15.429,18.277C499.748,93.688,491.471,102.031,481.207,102.031z"
   id="path4" />
	
		<circle
   fill="#CCCCCC"
   stroke="#000000"
   stroke-width="0.5"
   stroke-linecap="round"
   stroke-linejoin="round"
   stroke-miterlimit="10"
   cx="481.272"
   cy="83.49"
   r="18.542"
   id="circle6" />
	
		<circle
   fill="#777777"
   stroke="#000000"
   stroke-width="0.5"
   stroke-linecap="round"
   stroke-linejoin="round"
   stroke-miterlimit="10"
   cx="456.903"
   cy="83.49"
   r="1.987"
   id="circle8" />
	
		<circle
   fill="#777777"
   stroke="#000000"
   stroke-width="0.5"
   stroke-linecap="round"
   stroke-linejoin="round"
   stroke-miterlimit="10"
   cx="505.576"
   cy="83.49"
   r="1.987"
   id="circle10" />
	
		<circle
   fill="#777777"
   stroke="#000000"
   stroke-width="0.5"
   stroke-linecap="round"
   stroke-linejoin="round"
   stroke-miterlimit="10"
   cx="481.272"
   cy="59.12"
   r="1.987"
   id="circle12" />
	
		<linearGradient
   id="SVGID_1_"
   gradientUnits="userSpaceOnUse"
   x1="600.3311"
   y1="583.4834"
   x2="600.3311"
   y2="629.4834"
   gradientTransform="matrix(0.6622 0 0 -0.6622 83.7294 500.3389)">
		<stop
   offset="0"
   style="stop-color:#D9D7D7;stop-opacity:0"
   id="stop14" />
		<stop
   offset="1"
   style="stop-color:#777777"
   id="stop16" />
	</linearGradient>
	<path
   fill="url(#SVGID_1_)"
   d="M489.617,83.489v29.27c-2.649,0.794-5.431,1.192-8.345,1.192c-2.913,0-5.694-0.397-8.344-1.192   v-29.27H489.617z"
   id="path19" />
	
		<circle
   fill="#777777"
   stroke="#000000"
   stroke-width="0.5"
   stroke-linecap="round"
   stroke-linejoin="round"
   stroke-miterlimit="10"
   cx="481.272"
   cy="107.792"
   r="1.987"
   id="circle21" />
	
		<circle
   fill="#D9D9D9"
   stroke="#000000"
   stroke-width="0.5"
   stroke-linecap="round"
   stroke-linejoin="round"
   stroke-miterlimit="10"
   cx="481.272"
   cy="83.49"
   r="8.344"
   id="circle23" />
	
		<circle
   fill="#333333"
   stroke="#000000"
   stroke-width="0.5"
   stroke-linecap="round"
   stroke-linejoin="round"
   stroke-miterlimit="10"
   cx="481.272"
   cy="83.49"
   r="6.49"
   id="circle25" />
	
		<path
   fill="#E2E0E0"
   stroke="#000000"
   stroke-width="0.5"
   stroke-linecap="round"
   stroke-linejoin="round"
   stroke-miterlimit="10"
   d="   M494.385,55.941L494.385,55.941c-2.318-0.662-4.04-2.715-4.04-5.231v-2.583h-18.21v6.291l0,0c0.198,5.166,3.377,9.139,8.211,10.264   c0.795,0.199,2.252,0.331,3.179,0.331c0.331,0,0.927,0.199,1.258,0.133"
   id="path27" />
	
		<linearGradient
   id="SVGID_2_"
   gradientUnits="userSpaceOnUse"
   x1="583.4316"
   y1="689.1348"
   x2="617.1816"
   y2="689.1348"
   gradientTransform="matrix(0.6622 0 0 -0.6622 83.7294 500.3389)">
		<stop
   offset="0"
   style="stop-color:#87817F"
   id="stop29" />
		<stop
   offset="0.5123"
   style="stop-color:#FFFFFF"
   id="stop31" />
		<stop
   offset="1"
   style="stop-color:#87817F"
   id="stop33" />
	</linearGradient>
	
		<rect
   x="470.082"
   y="39.85"
   fill="url(#SVGID_2_)"
   stroke="#000000"
   stroke-width="0.5"
   stroke-linecap="round"
   stroke-linejoin="round"
   stroke-miterlimit="10"
   width="22.382"
   height="8.277"
   id="rect36" />
	
		<rect
   x="452.6"
   y="118.653"
   fill="#333333"
   stroke="#000000"
   stroke-width="0.5"
   stroke-linecap="round"
   stroke-linejoin="round"
   stroke-miterlimit="10"
   width="57.28"
   height="2.185"
   id="rect38" />
</g>
</svg>
