<?xml version="1.0" encoding="UTF-8" standalone="no"?>
<svg
   xmlns:dc="http://purl.org/dc/elements/1.1/"
   xmlns:cc="http://creativecommons.org/ns#"
   xmlns:rdf="http://www.w3.org/1999/02/22-rdf-syntax-ns#"
   xmlns:svg="http://www.w3.org/2000/svg"
   xmlns="http://www.w3.org/2000/svg"
   xmlns:sodipodi="http://sodipodi.sourceforge.net/DTD/sodipodi-0.dtd"
   xmlns:inkscape="http://www.inkscape.org/namespaces/inkscape"
   version="1.1"
   id="图层_1"
   x="0px"
   y="0px"
   width="70.146px"
   height="118.213px"
   viewBox="48.385 349.176 70.146 118.213"
   enable-background="new 48.385 349.176 70.146 118.213"
   xml:space="preserve"
   sodipodi:docname="化学设备-06.svg"><metadata
   id="metadata24"><rdf:RDF><cc:Work
       rdf:about=""><dc:format>image/svg+xml</dc:format><dc:type
         rdf:resource="http://purl.org/dc/dcmitype/StillImage" /></cc:Work></rdf:RDF></metadata><defs
   id="defs22" /><sodipodi:namedview
   pagecolor="#ffffff"
   bordercolor="#666666"
   borderopacity="1"
   objecttolerance="10"
   gridtolerance="10"
   guidetolerance="10"
   inkscape:pageopacity="0"
   inkscape:pageshadow="2"
   inkscape:window-width="640"
   inkscape:window-height="480"
   id="namedview20" />
<g
   id="g17">
	<path
   fill="#E5E5E5"
   stroke="#231815"
   stroke-width="0.4053"
   stroke-miterlimit="10"
   d="M118.098,452.634   c-0.264,2.371-0.615,3.776-0.615,3.776H49.434c0,0-0.351-1.405-0.615-3.776c-0.263-2.37-0.351-5.795,0-9.922   c0.176-2.02,0.439-4.302,0.791-6.585c0.175-1.142,0.439-2.371,0.702-3.601c0.264-1.229,0.527-2.458,0.966-3.775   c0.791-2.546,2.02-5.181,3.512-7.902s3.073-5.444,4.654-8.165c0.791-1.406,1.493-2.723,2.371-4.127   c0.791-1.317,1.668-2.723,2.458-4.039c1.668-2.723,3.337-5.356,5.005-7.902c0.878-1.493,1.756-2.898,2.546-4.215h-0.087v-39.424   h23.268V392.4h-0.088c0.791,1.405,1.668,2.81,2.546,4.215c1.581,2.546,3.249,5.18,5.005,7.902c0.878,1.316,1.668,2.722,2.546,4.039   c0.79,1.316,1.581,2.721,2.371,4.127c1.581,2.721,3.073,5.443,4.654,8.165c1.493,2.722,2.81,5.356,3.512,7.902   c0.439,1.317,0.703,2.547,0.966,3.775c0.263,1.229,0.527,2.459,0.703,3.601c0.351,2.37,0.702,4.565,0.878,6.585   C118.449,446.839,118.361,450.264,118.098,452.634z"
   id="path2" />
	
		<ellipse
   fill="#E5E5E5"
   stroke="#231815"
   stroke-width="0.5351"
   stroke-miterlimit="10"
   cx="83.502"
   cy="456.41"
   rx="34.068"
   ry="10.712"
   id="ellipse4" />
	
		<ellipse
   fill="#E5E5E5"
   stroke="#231815"
   stroke-width="0.3986"
   stroke-miterlimit="10"
   cx="83.502"
   cy="352.976"
   rx="12.38"
   ry="2.722"
   id="ellipse6" />
	
		<linearGradient
   id="SVGID_1_"
   gradientUnits="userSpaceOnUse"
   x1="85.5327"
   y1="534.6299"
   x2="85.5327"
   y2="519.545"
   gradientTransform="matrix(0.878 0 0 -0.878 8.4008 817.9401)">
		<stop
   offset="0"
   style="stop-color:#FFFFFF"
   id="stop8" />
		<stop
   offset="1"
   style="stop-color:#807A78"
   id="stop10" />
	</linearGradient>
	
		<ellipse
   fill="url(#SVGID_1_)"
   stroke="#231815"
   stroke-width="0.3986"
   stroke-miterlimit="10"
   cx="83.502"
   cy="352.097"
   rx="12.38"
   ry="2.722"
   id="ellipse13" />
	
		<ellipse
   fill="#E5E5E5"
   stroke="#231815"
   stroke-width="0.4833"
   stroke-miterlimit="10"
   cx="83.502"
   cy="381.688"
   rx="11.678"
   ry="4.215"
   id="ellipse15" />
</g>
</svg>
