<?xml version="1.0" encoding="UTF-8" standalone="no"?>
<svg
   xmlns:dc="http://purl.org/dc/elements/1.1/"
   xmlns:cc="http://creativecommons.org/ns#"
   xmlns:rdf="http://www.w3.org/1999/02/22-rdf-syntax-ns#"
   xmlns:svg="http://www.w3.org/2000/svg"
   xmlns="http://www.w3.org/2000/svg"
   xmlns:sodipodi="http://sodipodi.sourceforge.net/DTD/sodipodi-0.dtd"
   xmlns:inkscape="http://www.inkscape.org/namespaces/inkscape"
   version="1.1"
   id="图层_1"
   x="0px"
   y="0px"
   width="104.408px"
   height="107.879px"
   viewBox="32.997 271.662 104.408 107.879"
   enable-background="new 32.997 271.662 104.408 107.879"
   xml:space="preserve"
   sodipodi:docname="化学制剂-08.svg"><metadata
   id="metadata170"><rdf:RDF><cc:Work
       rdf:about=""><dc:format>image/svg+xml</dc:format><dc:type
         rdf:resource="http://purl.org/dc/dcmitype/StillImage" /></cc:Work></rdf:RDF></metadata><defs
   id="defs168" /><sodipodi:namedview
   pagecolor="#ffffff"
   bordercolor="#666666"
   borderopacity="1"
   objecttolerance="10"
   gridtolerance="10"
   guidetolerance="10"
   inkscape:pageopacity="0"
   inkscape:pageshadow="2"
   inkscape:window-width="640"
   inkscape:window-height="480"
   id="namedview166" />
<g
   id="g163">
	
		<rect
   x="42.542"
   y="284.352"
   fill="#7F5542"
   stroke="#231815"
   stroke-width="0.5"
   stroke-miterlimit="10"
   width="85.318"
   height="4.056"
   id="rect2" />
	
		<linearGradient
   id="SVGID_1_"
   gradientUnits="userSpaceOnUse"
   x1="49.2251"
   y1="242.8809"
   x2="104.4971"
   y2="242.8809"
   gradientTransform="matrix(1 0 0 -1 8.3398 523.04)">
		<stop
   offset="0"
   style="stop-color:#009CDD"
   id="stop4" />
		<stop
   offset="0.2414"
   style="stop-color:#77BBE1"
   id="stop6" />
		<stop
   offset="0.5148"
   style="stop-color:#BED8FF"
   id="stop8" />
		<stop
   offset="0.7882"
   style="stop-color:#77BBE1"
   id="stop10" />
		<stop
   offset="1"
   style="stop-color:#009CDD"
   id="stop12" />
	</linearGradient>
	<polygon
   fill="url(#SVGID_1_)"
   stroke="#231815"
   stroke-width="0.5"
   stroke-miterlimit="10"
   points="108.488,282.952    92.951,271.912 76.941,271.912 61.404,282.952 57.565,282.952 57.565,288.406 112.837,288.406 112.837,282.952  "
   id="polygon15" />
	<polygon
   fill="#CBC8C7"
   stroke="#231815"
   stroke-width="0.5"
   stroke-miterlimit="10"
   points="42.542,288.406 42.542,289.65    48.059,291.081 42.542,292.511 42.542,292.785 48.059,294.215 42.542,295.645 42.542,295.919 48.059,297.35 42.542,298.777    42.542,299.053 48.059,300.482 42.542,301.912 42.542,302.188 48.059,303.616 42.542,305.046 42.542,375.518 57.565,375.518    57.565,288.406  "
   id="polygon17" />
	<polygon
   fill="#CBC8C7"
   stroke="#231815"
   stroke-width="0.5"
   stroke-miterlimit="10"
   points="127.86,288.406 127.86,289.65    122.344,291.081 127.86,292.511 127.86,292.785 122.344,294.215 127.86,295.645 127.86,295.919 122.344,297.35 127.86,298.777    127.86,299.053 122.344,300.482 127.86,301.912 127.86,302.188 122.344,303.616 127.86,305.046 127.86,375.518 112.837,375.518    112.837,288.406  "
   id="polygon19" />
	
		<linearGradient
   id="SVGID_2_"
   gradientUnits="userSpaceOnUse"
   x1="49.2251"
   y1="190.5786"
   x2="104.4961"
   y2="190.5786"
   gradientTransform="matrix(1 0 0 -1 8.3398 523.04)">
		<stop
   offset="0"
   style="stop-color:#009CDD"
   id="stop21" />
		<stop
   offset="0.2414"
   style="stop-color:#77BBE1"
   id="stop23" />
		<stop
   offset="0.5148"
   style="stop-color:#BED8FF"
   id="stop25" />
		<stop
   offset="0.7882"
   style="stop-color:#77BBE1"
   id="stop27" />
		<stop
   offset="1"
   style="stop-color:#009CDD"
   id="stop29" />
	</linearGradient>
	
		<rect
   x="57.565"
   y="305.739"
   fill="url(#SVGID_2_)"
   stroke="#231815"
   stroke-width="0.5"
   stroke-miterlimit="10"
   width="55.271"
   height="53.444"
   id="rect32" />
	
		<linearGradient
   id="SVGID_3_"
   gradientUnits="userSpaceOnUse"
   x1="49.2251"
   y1="159.7241"
   x2="104.4961"
   y2="159.7241"
   gradientTransform="matrix(1 0 0 -1 8.3398 523.04)">
		<stop
   offset="0"
   style="stop-color:#0070DD"
   id="stop34" />
		<stop
   offset="0.2414"
   style="stop-color:#77A6E1"
   id="stop36" />
		<stop
   offset="0.5148"
   style="stop-color:#BECCFF"
   id="stop38" />
		<stop
   offset="0.7882"
   style="stop-color:#77A6E1"
   id="stop40" />
		<stop
   offset="1"
   style="stop-color:#0070DD"
   id="stop42" />
	</linearGradient>
	
		<rect
   x="57.565"
   y="359.184"
   fill="url(#SVGID_3_)"
   stroke="#231815"
   stroke-width="0.5"
   stroke-miterlimit="10"
   width="55.271"
   height="8.265"
   id="rect45" />
	<rect
   x="48.035"
   y="346.518"
   fill="#231815"
   width="74.332"
   height="3"
   id="rect47" />
	
		<linearGradient
   id="SVGID_4_"
   gradientUnits="userSpaceOnUse"
   x1="49.2251"
   y1="168.6895"
   x2="52.7773"
   y2="168.6895"
   gradientTransform="matrix(1 0 0 -1 8.3398 523.04)">
		<stop
   offset="0"
   style="stop-color:#009CDD"
   id="stop49" />
		<stop
   offset="0.2414"
   style="stop-color:#77BBE1"
   id="stop51" />
		<stop
   offset="0.5148"
   style="stop-color:#BED8FF"
   id="stop53" />
		<stop
   offset="0.7882"
   style="stop-color:#77BBE1"
   id="stop55" />
		<stop
   offset="1"
   style="stop-color:#009CDD"
   id="stop57" />
	</linearGradient>
	
		<rect
   x="57.565"
   y="349.518"
   fill="url(#SVGID_4_)"
   stroke="#231815"
   stroke-width="0.5"
   stroke-miterlimit="10"
   width="3.552"
   height="9.666"
   id="rect60" />
	
		<linearGradient
   id="SVGID_5_"
   gradientUnits="userSpaceOnUse"
   x1="59.5693"
   y1="168.6895"
   x2="63.1211"
   y2="168.6895"
   gradientTransform="matrix(1 0 0 -1 8.3398 523.04)">
		<stop
   offset="0"
   style="stop-color:#009CDD"
   id="stop62" />
		<stop
   offset="0.2414"
   style="stop-color:#77BBE1"
   id="stop64" />
		<stop
   offset="0.5148"
   style="stop-color:#BED8FF"
   id="stop66" />
		<stop
   offset="0.7882"
   style="stop-color:#77BBE1"
   id="stop68" />
		<stop
   offset="1"
   style="stop-color:#009CDD"
   id="stop70" />
	</linearGradient>
	
		<rect
   x="67.909"
   y="349.518"
   fill="url(#SVGID_5_)"
   stroke="#231815"
   stroke-width="0.5"
   stroke-miterlimit="10"
   width="3.552"
   height="9.666"
   id="rect73" />
	
		<linearGradient
   id="SVGID_6_"
   gradientUnits="userSpaceOnUse"
   x1="69.9131"
   y1="168.6895"
   x2="73.4653"
   y2="168.6895"
   gradientTransform="matrix(1 0 0 -1 8.3398 523.04)">
		<stop
   offset="0"
   style="stop-color:#009CDD"
   id="stop75" />
		<stop
   offset="0.2414"
   style="stop-color:#77BBE1"
   id="stop77" />
		<stop
   offset="0.5148"
   style="stop-color:#BED8FF"
   id="stop79" />
		<stop
   offset="0.7882"
   style="stop-color:#77BBE1"
   id="stop81" />
		<stop
   offset="1"
   style="stop-color:#009CDD"
   id="stop83" />
	</linearGradient>
	
		<rect
   x="78.253"
   y="349.518"
   fill="url(#SVGID_6_)"
   stroke="#231815"
   stroke-width="0.5"
   stroke-miterlimit="10"
   width="3.552"
   height="9.666"
   id="rect86" />
	
		<linearGradient
   id="SVGID_7_"
   gradientUnits="userSpaceOnUse"
   x1="80.2583"
   y1="168.6895"
   x2="83.8101"
   y2="168.6895"
   gradientTransform="matrix(1 0 0 -1 8.3398 523.04)">
		<stop
   offset="0"
   style="stop-color:#009CDD"
   id="stop88" />
		<stop
   offset="0.2414"
   style="stop-color:#77BBE1"
   id="stop90" />
		<stop
   offset="0.5148"
   style="stop-color:#BED8FF"
   id="stop92" />
		<stop
   offset="0.7882"
   style="stop-color:#77BBE1"
   id="stop94" />
		<stop
   offset="1"
   style="stop-color:#009CDD"
   id="stop96" />
	</linearGradient>
	
		<rect
   x="88.598"
   y="349.518"
   fill="url(#SVGID_7_)"
   stroke="#231815"
   stroke-width="0.5"
   stroke-miterlimit="10"
   width="3.552"
   height="9.666"
   id="rect99" />
	
		<linearGradient
   id="SVGID_8_"
   gradientUnits="userSpaceOnUse"
   x1="90.6011"
   y1="168.6895"
   x2="94.1533"
   y2="168.6895"
   gradientTransform="matrix(1 0 0 -1 8.3398 523.04)">
		<stop
   offset="0"
   style="stop-color:#009CDD"
   id="stop101" />
		<stop
   offset="0.2414"
   style="stop-color:#77BBE1"
   id="stop103" />
		<stop
   offset="0.5148"
   style="stop-color:#BED8FF"
   id="stop105" />
		<stop
   offset="0.7882"
   style="stop-color:#77BBE1"
   id="stop107" />
		<stop
   offset="1"
   style="stop-color:#009CDD"
   id="stop109" />
	</linearGradient>
	
		<rect
   x="98.941"
   y="349.518"
   fill="url(#SVGID_8_)"
   stroke="#231815"
   stroke-width="0.5"
   stroke-miterlimit="10"
   width="3.552"
   height="9.666"
   id="rect112" />
	
		<linearGradient
   id="SVGID_9_"
   gradientUnits="userSpaceOnUse"
   x1="100.9453"
   y1="168.6895"
   x2="104.4971"
   y2="168.6895"
   gradientTransform="matrix(1 0 0 -1 8.3398 523.04)">
		<stop
   offset="0"
   style="stop-color:#009CDD"
   id="stop114" />
		<stop
   offset="0.2414"
   style="stop-color:#77BBE1"
   id="stop116" />
		<stop
   offset="0.5148"
   style="stop-color:#BED8FF"
   id="stop118" />
		<stop
   offset="0.7882"
   style="stop-color:#77BBE1"
   id="stop120" />
		<stop
   offset="1"
   style="stop-color:#009CDD"
   id="stop122" />
	</linearGradient>
	
		<rect
   x="109.285"
   y="349.518"
   fill="url(#SVGID_9_)"
   stroke="#231815"
   stroke-width="0.5"
   stroke-miterlimit="10"
   width="3.552"
   height="9.666"
   id="rect125" />
	<rect
   x="57.565"
   y="357.684"
   fill="#231815"
   width="55.271"
   height="1.5"
   id="rect127" />
	
		<rect
   x="48.035"
   y="363.314"
   fill="#437282"
   stroke="#231815"
   stroke-width="0.5"
   stroke-miterlimit="10"
   width="74.332"
   height="12.203"
   id="rect129" />
	
		<line
   fill="none"
   stroke="#231815"
   stroke-width="0.5"
   stroke-miterlimit="10"
   x1="48.035"
   y1="369.416"
   x2="122.367"
   y2="369.416"
   id="line131" />
	<g
   id="g137">
		
			<rect
   x="66.918"
   y="366.881"
   fill="#FFFFFF"
   stroke="#231815"
   stroke-width="0.5"
   stroke-miterlimit="10"
   width="3.967"
   height="8.637"
   id="rect133" />
		
			<rect
   x="99.518"
   y="366.881"
   fill="#FFFFFF"
   stroke="#231815"
   stroke-width="0.5"
   stroke-miterlimit="10"
   width="3.967"
   height="8.637"
   id="rect135" />
	</g>
	<polygon
   fill="#DDD5D3"
   stroke="#231815"
   stroke-width="0.5"
   stroke-miterlimit="10"
   points="66.918,327.518 70.885,324.85    74.117,329.518 67.909,331.963  "
   id="polygon139" />
	<polygon
   fill="#DDD5D3"
   stroke="#231815"
   stroke-width="0.5"
   stroke-miterlimit="10"
   points="78.205,337.754 81.035,335.85    83.342,339.18 78.912,340.924  "
   id="polygon141" />
	<polygon
   fill="#DDD5D3"
   stroke="#231815"
   stroke-width="0.5"
   stroke-miterlimit="10"
   points="88.46,325.883 89.955,324.852    91.775,327.344 87.246,331.967  "
   id="polygon143" />
	<polygon
   fill="#DDD5D3"
   stroke="#231815"
   stroke-width="0.5"
   stroke-miterlimit="10"
   points="69.457,312.078 70.297,311.5    71.319,312.9 68.775,315.496  "
   id="polygon145" />
	<polygon
   fill="#DDD5D3"
   stroke="#231815"
   stroke-width="0.5"
   stroke-miterlimit="10"
   points="83.666,315.582 83.398,314.598    85.06,314.098 86.663,317.359  "
   id="polygon147" />
	<polygon
   fill="#DDD5D3"
   stroke="#231815"
   stroke-width="0.5"
   stroke-miterlimit="10"
   points="103.544,335.26 102.049,334.229    100.229,336.723 104.758,341.344  "
   id="polygon149" />
	<polygon
   fill="#DDD5D3"
   stroke="#231815"
   stroke-width="0.5"
   stroke-miterlimit="10"
   points="96.533,317.172 95.962,315.457    98.557,315.057 101.557,318.115  "
   id="polygon151" />
	<polygon
   fill="#DDD5D3"
   stroke="#231815"
   stroke-width="0.5"
   stroke-miterlimit="10"
   points="89.741,339.951 89.452,339.084    90.763,338.883 92.278,340.428  "
   id="polygon153" />
	<polygon
   fill="#DDD5D3"
   stroke="#231815"
   stroke-width="0.5"
   stroke-miterlimit="10"
   points="106.748,308.768 106.459,307.9    107.77,307.699 109.285,309.244  "
   id="polygon155" />
	<polygon
   fill="#DDD5D3"
   stroke="#231815"
   stroke-width="0.5"
   stroke-miterlimit="10"
   points="70.337,344.586 70.048,343.719    71.358,343.518 72.874,345.063  "
   id="polygon157" />
	<polygon
   fill="#7F5542"
   stroke="#231815"
   stroke-width="0.5"
   stroke-miterlimit="10"
   points="48.271,359.541 48.271,360.787    42.754,362.217 48.271,363.646 48.271,363.92 42.754,365.35 48.271,366.779 48.271,367.055 42.754,368.484 48.271,369.914    48.271,370.188 42.754,371.617 48.271,373.047 59.072,373.322 53.556,374.752 59.072,376.182 62.822,379.291 33.247,379.291    33.247,359.541  "
   id="polygon159" />
	<polygon
   fill="#7F5542"
   stroke="#231815"
   stroke-width="0.5"
   stroke-miterlimit="10"
   points="122.132,359.541 122.132,360.787    127.648,362.217 122.132,363.646 122.132,363.92 127.648,365.35 122.132,366.779 122.132,367.055 127.648,368.484 122.132,369.914    122.132,370.188 127.648,371.617 122.132,373.047 111.33,373.322 116.847,374.752 111.33,376.182 107.58,379.291 137.155,379.291    137.155,359.541  "
   id="polygon161" />
</g>
</svg>
