<?xml version="1.0" encoding="UTF-8" standalone="no"?>
<svg
   xmlns:dc="http://purl.org/dc/elements/1.1/"
   xmlns:cc="http://creativecommons.org/ns#"
   xmlns:rdf="http://www.w3.org/1999/02/22-rdf-syntax-ns#"
   xmlns:svg="http://www.w3.org/2000/svg"
   xmlns="http://www.w3.org/2000/svg"
   xmlns:sodipodi="http://sodipodi.sourceforge.net/DTD/sodipodi-0.dtd"
   xmlns:inkscape="http://www.inkscape.org/namespaces/inkscape"
   version="1.1"
   id="图层_1"
   x="0px"
   y="0px"
   width="124.104px"
   height="86.839px"
   viewBox="447.919 380.727 124.104 86.839"
   enable-background="new 447.919 380.727 124.104 86.839"
   xml:space="preserve"
   sodipodi:docname="化学设备-09.svg"><metadata
   id="metadata19"><rdf:RDF><cc:Work
       rdf:about=""><dc:format>image/svg+xml</dc:format><dc:type
         rdf:resource="http://purl.org/dc/dcmitype/StillImage" /></cc:Work></rdf:RDF></metadata><defs
   id="defs17" /><sodipodi:namedview
   pagecolor="#ffffff"
   bordercolor="#666666"
   borderopacity="1"
   objecttolerance="10"
   gridtolerance="10"
   guidetolerance="10"
   inkscape:pageopacity="0"
   inkscape:pageshadow="2"
   inkscape:window-width="640"
   inkscape:window-height="480"
   id="namedview15" />
<g
   id="g12">
	
		<rect
   x="498.907"
   y="380.985"
   fill="#596D8C"
   stroke="#231815"
   stroke-width="0.5177"
   stroke-miterlimit="10"
   width="22.039"
   height="6.585"
   id="rect2" />
	<path
   fill="#F8F8F8"
   stroke="#231815"
   stroke-width="0.8876"
   stroke-miterlimit="10"
   d="M558.79,467.122h-97.639   c-7.552,0-13.435-6.498-12.731-13.961l4.829-50.839c0.614-6.586,6.146-11.591,12.731-11.591c0,0,16.42-5.18,43.99-5.18   s43.99,5.18,43.99,5.18c6.585,0,12.117,5.005,12.731,11.591l4.829,50.839C572.225,460.624,566.342,467.122,558.79,467.122z"
   id="path4" />
	<path
   fill="#596D8C"
   stroke="#231815"
   stroke-width="0.7186"
   stroke-miterlimit="10"
   d="M549.482,459.834h-79.023   c-6.059,0-10.889-5.269-10.273-11.327l3.951-41.181c0.526-5.268,4.917-9.395,10.273-9.395h71.209c5.356,0,9.747,4.039,10.273,9.395   l3.951,41.181C560.371,454.565,555.541,459.834,549.482,459.834z"
   id="path6" />
	<polyline
   fill="none"
   stroke="#D4D4D4"
   stroke-width="0.8207"
   stroke-miterlimit="10"
   points="552.995,401.093 509.971,428.487    464.137,457.727  "
   id="polyline8" />
	<polyline
   fill="none"
   stroke="#D4D4D4"
   stroke-width="0.8207"
   stroke-miterlimit="10"
   points="466.946,401.093 509.971,428.487    555.717,457.727  "
   id="polyline10" />
</g>
</svg>
