<?xml version="1.0" encoding="UTF-8" standalone="no"?>
<svg
   xmlns:dc="http://purl.org/dc/elements/1.1/"
   xmlns:cc="http://creativecommons.org/ns#"
   xmlns:rdf="http://www.w3.org/1999/02/22-rdf-syntax-ns#"
   xmlns:svg="http://www.w3.org/2000/svg"
   xmlns="http://www.w3.org/2000/svg"
   xmlns:sodipodi="http://sodipodi.sourceforge.net/DTD/sodipodi-0.dtd"
   xmlns:inkscape="http://www.inkscape.org/namespaces/inkscape"
   version="1.1"
   id="图层_1"
   x="0px"
   y="0px"
   width="100.101px"
   height="63.995px"
   viewBox="175.872 554.065 100.101 63.995"
   enable-background="new 175.872 554.065 100.101 63.995"
   xml:space="preserve"
   sodipodi:docname="化学设备-11.svg"><metadata
   id="metadata17"><rdf:RDF><cc:Work
       rdf:about=""><dc:format>image/svg+xml</dc:format><dc:type
         rdf:resource="http://purl.org/dc/dcmitype/StillImage" /></cc:Work></rdf:RDF></metadata><defs
   id="defs15" /><sodipodi:namedview
   pagecolor="#ffffff"
   bordercolor="#666666"
   borderopacity="1"
   objecttolerance="10"
   gridtolerance="10"
   guidetolerance="10"
   inkscape:pageopacity="0"
   inkscape:pageshadow="2"
   inkscape:window-width="640"
   inkscape:window-height="480"
   id="namedview13" />
<g
   id="g10">
	<path
   fill="#E5E5E5"
   stroke="#231815"
   stroke-width="0.5305"
   stroke-miterlimit="10"
   d="M275.708,571.961   c0,25.288-22.303,45.834-49.786,45.834s-49.785-20.458-49.785-45.834c0,9.746,22.302,17.736,49.785,17.736   S275.708,581.707,275.708,571.961z"
   id="path2" />
	<path
   fill="#E5E5E5"
   stroke="#231815"
   stroke-width="0.3181"
   stroke-miterlimit="10"
   d="M275.708,571.961   c0-9.746-22.303-17.736-49.786-17.736s-49.785,7.902-49.785,17.736c0,9.308,20.02,16.858,45.571,17.648v0.088   c0,2.283,1.844,4.215,4.214,4.215c2.283,0,4.215-1.844,4.215-4.215v-0.088C255.688,588.819,275.708,581.269,275.708,571.961z"
   id="path4" />
	<path
   fill="#E5E5E5"
   stroke="#231815"
   stroke-width="0.3181"
   stroke-miterlimit="10"
   d="M275.005,571.873   c0-9.22-21.951-16.683-48.995-16.683s-48.995,7.463-48.995,16.683c0,8.868,20.195,16.068,45.746,16.683c0,0.088,0,0.176,0,0.264   c0,2.283,1.844,4.215,4.215,4.215c2.283,0,4.215-1.844,4.215-4.215c0-0.088,0-0.176,0-0.352   C255.688,587.59,275.005,580.478,275.005,571.873z"
   id="path6" />
	
		<line
   fill="none"
   stroke="#231815"
   stroke-width="0.5"
   stroke-miterlimit="10"
   x1="221.708"
   y1="589.697"
   x2="222.673"
   y2="588.468"
   id="line8" />
</g>
</svg>
