<?xml version="1.0" encoding="utf-8"?>
<!-- Generator: Adobe Illustrator 15.0.0, SVG Export Plug-In . SVG Version: 6.00 Build 0)  -->
<!DOCTYPE svg PUBLIC "-//W3C//DTD SVG 1.1 Tiny//EN" "http://www.w3.org/Graphics/SVG/1.1/DTD/svg11-tiny.dtd">
<svg version="1.1" baseProfile="tiny" id="_x31_3-16"
	 xmlns="http://www.w3.org/2000/svg" xmlns:xlink="http://www.w3.org/1999/xlink" x="0px" y="0px" width="78.35px"
	 height="96.536px" viewBox="0 0 78.35 96.536" xml:space="preserve">
<g>
	<linearGradient id="SVGID_1_" gradientUnits="userSpaceOnUse" x1="38.9736" y1="34.8164" x2="39.4737" y2="94.8158">
		<stop  offset="0" style="stop-color:#FF0000"/>
		<stop  offset="0.2144" style="stop-color:#F60000"/>
		<stop  offset="0.565" style="stop-color:#DD0000"/>
		<stop  offset="0.8132" style="stop-color:#C80000"/>
	</linearGradient>
	<path fill-rule="evenodd" fill="url(#SVGID_1_)" d="M56.857,95.386c-0.373,0.114-0.791,0.074-1.205,0.111
		c-8.656,0.775-22.615,1.605-35.537,0.515c0,0-12.494-6.524-16.207-16.88S4.885,54.122,0,48.651c0,0,2.736,1.563,3.908,4.299
		s3.713,5.079,3.908,1.953s-2.541-18.758,2.734-23.251c0,0,0.001,2.541,2.346,6.448c2.344,3.907,3.711,8.793,3.125,12.7
		s1.172,13.482,3.127,15.24c0,0-3.322-7.815-0.195-15.631c0,0-0.391,6.838,3.321,8.597c0,0,1.563-5.666,0-13.677
		S19.539,8.011,31.262,0c0,0-4.298,1.758,0,15.436c4.299,13.678,12.701,16.413,13.287,38.101c0,0,4.885-7.229,4.103-15.24
		c0,0,4.884,11.919,0.781,25.205c0,0,1.759-0.782,3.712-3.713c1.955-2.931,1.368-14.85,3.518-18.366c0,0,0.977,3.518,2.931,4.299
		c0,0-2.149-17.78,1.173-20.711c0,0,1.758,6.446,6.447,11.918s7.425,7.816,6.643,13.678c-0.781,5.861-9.77,24.813-7.424,24.423
		c2.344-0.391,6.838-6.643,11.918-5.666c0,0-2.54-1.563-6.643,6.447C67.604,83.82,62.719,93.59,56.857,95.386z"/>
	<linearGradient id="SVGID_2_" gradientUnits="userSpaceOnUse" x1="37.0674" y1="47.3877" x2="38.0674" y2="92.3877">
		<stop  offset="0" style="stop-color:#FFAA00"/>
		<stop  offset="0.1353" style="stop-color:#FF8600"/>
		<stop  offset="0.3353" style="stop-color:#FF5600"/>
		<stop  offset="0.5258" style="stop-color:#FF3100"/>
		<stop  offset="0.7017" style="stop-color:#FF1600"/>
		<stop  offset="0.8578" style="stop-color:#FF0600"/>
		<stop  offset="0.978" style="stop-color:#FF0000"/>
	</linearGradient>
	<path fill-rule="evenodd" fill="url(#SVGID_2_)" d="M56.076,93.785c0,0-17.389,2.148-35.17,0.781c0,0-20.125-11.724-16.607-31.848
		c0,0,2.344,4.69,4.299,3.713c1.953-0.978,0.195-18.562,2.734-22.86c0,0-1.367,3.127,0.196,9.379s6.447,15.436,8.792,16.803
		c0,0,2.149-2.15,1.954-6.839c0,0,1.759,2.346,1.759,3.908c0,0,4.298-8.012,2.734-17.39c-1.563-9.378-5.275-27.94,0.195-36.537
		c0,0-0.781,4.69,4.104,11.333s11.919,18.952,11.919,34.583c0,0,5.079-2.345,6.057-6.839c0,0-0.001,10.355-2.149,14.85
		c0,0,10.746-0.781,10.941-16.217c0,0,2.346,1.758,2.541,3.712c0,0,4.885-15.24,1.367-21.102c0,0,3.321,6.448,5.471,8.597
		c2.3,2.299,4.494,6.448,3.126,11.528c-1.96,7.282-9.77,20.71-10.355,25.009c0,0,4.495,1.759,8.206-1.367
		C68.189,76.982,61.547,91.636,56.076,93.785z"/>
	<radialGradient id="SVGID_3_" cx="34.7188" cy="75.4766" r="37.1139" gradientUnits="userSpaceOnUse">
		<stop  offset="0" style="stop-color:#FFFFFF"/>
		<stop  offset="0.1563" style="stop-color:#FFFFDD"/>
		<stop  offset="0.5031" style="stop-color:#FFFF86"/>
		<stop  offset="1" style="stop-color:#FFFF00"/>
	</radialGradient>
	<path fill-rule="evenodd" fill="url(#SVGID_3_)" d="M53.57,92.759c0,0-20.441,2.425-31.182,0.692c0,0,0.347-0.347-3.984-3.984
		c-4.33-3.638-10.566-9.873-10.566-14.204c0,0,2.252,0.865,4.33-0.347c2.08-1.212,1.387-7.969,0-11.779c0,0,4.158,4.504,5.197,7.275
		s5.197,7.795,6.756,7.275s7.969-10.74,7.103-19.401s-3.118-15.07-2.944-18.188c0,0,1.385,5.024,3.983,6.063
		c0,0-5.89-13.166-4.677-17.67c0,0-0.52,3.638,2.598,9.354c3.119,5.717,9.701,16.804,10.395,30.488c0,0,2.944-2.772,3.984-5.197
		c0,0-0.174,7.796-1.732,10.567c0,0,15.07-1.905,19.921-12.992c0,0-4.157,16.109-10.913,21.479c0,0,8.142,1.905,10.74,0.347
		C62.578,82.538,58.767,90.16,53.57,92.759z"/>
</g>
</svg>
