<?xml version="1.0" encoding="utf-8"?>
<!-- Generator: Adobe Illustrator 15.0.0, SVG Export Plug-In . SVG Version: 6.00 Build 0)  -->
<!DOCTYPE svg PUBLIC "-//W3C//DTD SVG 1.1 Tiny//EN" "http://www.w3.org/Graphics/SVG/1.1/DTD/svg11-tiny.dtd">
<svg version="1.1" baseProfile="tiny" id="_x30_2-08"
	 xmlns="http://www.w3.org/2000/svg" xmlns:xlink="http://www.w3.org/1999/xlink" x="0px" y="0px" width="88.239px"
	 height="167.9px" viewBox="0 0 88.239 167.9" xml:space="preserve">
<g>
	<g>
		<linearGradient id="SVGID_1_" gradientUnits="userSpaceOnUse" x1="41.7842" y1="66.8213" x2="45.3252" y2="168.3198">
			<stop  offset="0" style="stop-color:#FF0000"/>
			<stop  offset="1" style="stop-color:#D70000"/>
		</linearGradient>
		<path fill="url(#SVGID_1_)" d="M67.101,165.261c20.52-9.105,22.518-28.786,20.543-41.898c-2.16-14.41-10.271-30.822-17.935-42.99
			c-7.663-12.169-14.34-27.534-11.981-48.515C60.085,10.886,65.976,0,65.976,0S47.902,18.412,41.619,38.906
			c-6.287,20.491-4.888,35.691-0.2,47.871c1.883,4.884-0.034,4.992-1.811,0.558C32.667,69.981,19.22,66.605,19.22,66.605
			s4.873,7.281,4.48,15.928c-0.397,8.645-5.896,15.61-13.559,26.178c-7.662,10.566-15.085,29.138-5.853,42.427
			c3.868,5.569,9.692,10.667,17.094,14.18C21.383,165.317,42.63,170.888,67.101,165.261z"/>
		<linearGradient id="SVGID_2_" gradientUnits="userSpaceOnUse" x1="41.7275" y1="85.7778" x2="49.8741" y2="167.7009">
			<stop  offset="0" style="stop-color:#FFBF00"/>
			<stop  offset="1" style="stop-color:#FF6D00"/>
		</linearGradient>
		<path fill="url(#SVGID_2_)" d="M59.734,166.494c20.52-9.105,24.514-26.084,22.538-39.196c-2.16-14.41-2.939-18.128-12.249-32.337
			c-7.881-12.029-17.329-20.656-19.599-41.646c-1.959-18.128,4.9-32.827,4.9-32.827s-7.473,6.541-12.25,27.438
			c-3.919,17.148,4.116,31.166,5.88,44.096c1.47,10.779-5.88,14.208-9.31,6.369c-6.895-15.762-12.738-20.578-12.738-20.578
			s3.155,3.668,1.188,13.896c-1.634,8.498-4.533,11.463-12.195,22.031c-7.662,10.566-8.287,28.096,1.574,40.915
			c3.934,5.114,10.695,8.683,18.096,12.195C35.569,166.849,46.995,169.434,59.734,166.494z"/>
		<linearGradient id="SVGID_3_" gradientUnits="userSpaceOnUse" x1="44.6729" y1="102.938" x2="50.1806" y2="175.3238">
			<stop  offset="0" style="stop-color:#FFFF00"/>
			<stop  offset="1" style="stop-color:#FFBF00"/>
		</linearGradient>
		<path fill="url(#SVGID_3_)" d="M32.816,93.676c0,0-1.573,7.474-10.622,20.063s-9.441,46.029,19.67,53.503
			c0,0,10.456,0.749,14.163,0c0,0,34.226-9.441,16.522-49.962S46.192,77.939,46.585,58.663c0,0-1.574,10.622,5.901,31.472
			S44.226,125.542,32.816,93.676z"/>
		<linearGradient id="SVGID_4_" gradientUnits="userSpaceOnUse" x1="47.7197" y1="143.0591" x2="53.1808" y2="178.5604">
			<stop  offset="0" style="stop-color:#FFFFB4"/>
			<stop  offset="0.114" style="stop-color:#FFFFAE"/>
			<stop  offset="0.272" style="stop-color:#FFFF9C"/>
			<stop  offset="0.4556" style="stop-color:#FFFF7E"/>
			<stop  offset="0.6586" style="stop-color:#FFFF55"/>
			<stop  offset="0.875" style="stop-color:#FFFF21"/>
			<stop  offset="1" style="stop-color:#FFFF00"/>
		</linearGradient>
		<path fill="url(#SVGID_4_)" d="M53.491,135.169c3.929,5.625,11.536,9.706,11.536,18.289c0,17.172-31.423,17.172-31.423,0
			c0-17.166,15.71-31.084,15.71-31.084S49.563,129.543,53.491,135.169z"/>
	</g>
</g>
</svg>
