<?xml version="1.0" encoding="utf-8"?>
<!-- Generator: Adobe Illustrator 15.0.0, SVG Export Plug-In . SVG Version: 6.00 Build 0)  -->
<!DOCTYPE svg PUBLIC "-//W3C//DTD SVG 1.1 Tiny//EN" "http://www.w3.org/Graphics/SVG/1.1/DTD/svg11-tiny.dtd">
<svg version="1.1" baseProfile="tiny" id="_x30_9-12"
	 xmlns="http://www.w3.org/2000/svg" xmlns:xlink="http://www.w3.org/1999/xlink" x="0px" y="0px" width="134.729px"
	 height="88.971px" viewBox="0 0 134.729 88.971" xml:space="preserve">
<g>
	<linearGradient id="SVGID_1_" gradientUnits="userSpaceOnUse" x1="67.7295" y1="79.1509" x2="66.3955" y2="35.8174">
		<stop  offset="0" style="stop-color:#000078"/>
		<stop  offset="0.3498" style="stop-color:#000092"/>
		<stop  offset="0.753" style="stop-color:#0000AB"/>
		<stop  offset="1" style="stop-color:#0000B4"/>
	</linearGradient>
	<path fill="url(#SVGID_1_)" d="M133.087,85.358c0,0-74.913,8.129-133.087,0c0,0,10.431-8.345,13.227-18.667
		S9.355,38.09,16.452,31.638c0,0-2.892,2.334-1.769,9.446s5.572,7.371,10.337-0.178c0,0,3.905,2.989,4.55,9.226
		s1.29,15.699,5.376,15.699s8.603-6.667,5.807-23.01s-3.011-22.795,0.215-24.731c0,0-3.227,4.947,4.516,9.893
		s13.764-3.656,12.688-13.548s3.011-14.838,7.097-14.408c0,0-4.087,1.505-1.506,6.451s9.247,23.871,7.097,31.397
		c0,0,4.945-3.656,5.376-9.462c0,0,3.441,3.011,1.506,10.107s-2.796,19.14,0.215,22.365s7.957-3.656,9.247-10.107
		s1.721-17.204,7.097-17.634c0,0-4.946,0.645-3.011,10.107s9.085,11.129,9.893,20.43c0,0-1.015-11.357,4.224-17.184
		s7.444-13.896,5.589-19.431c0,0,3.621,2.541,4.969,7.32s0.272,0.693,0.272,0.693s6.021-13.979,1.505-18.924
		c0,0,5.161,1.076,6.236,16.129s-0.215,35.698,1.936,34.838s-0.645-15.484,8.817-17.849c0,0-5.592,1.076-3.441,9.462
		S135.961,78.004,133.087,85.358z"/>
	<linearGradient id="SVGID_2_" gradientUnits="userSpaceOnUse" x1="66.5566" y1="90.6484" x2="66.5566" y2="46.982">
		<stop  offset="0" style="stop-color:#CCF2FF"/>
		<stop  offset="0.1073" style="stop-color:#C3E2FF"/>
		<stop  offset="0.3487" style="stop-color:#B1C2FF"/>
		<stop  offset="0.5829" style="stop-color:#A4ABFF"/>
		<stop  offset="0.8045" style="stop-color:#9C9EFF"/>
		<stop  offset="1" style="stop-color:#9999FF"/>
	</linearGradient>
	<path fill="url(#SVGID_2_)" d="M133.087,85.357c0,0-74.913,8.129-133.087,0c0,0,11.01-3.076,14.446-12.24
		s-0.19-16.228,2.291-23.101c0,0-1.336,5.727,1.527,8.4s7.446,3.054,8.019-0.955c0,0,2.672,4.582,2.863,7.637
		s2.482,7.828,5.537,8.019s9.354-6.301,9.354-14.892s-2.481-19.473,0.191-22.528c0,0-0.955,12.41,6.682,14.892
		s9.928-3.055,9.164-11.837s-1.528-15.464,2.1-19.665c0,0-2.1,3.627-0.19,10.5s7.827,16.61,6.3,22.528c0,0,3.246-4.773,4.773-11.455
		c0,0,0.191,6.109-1.146,10.5s-0.955,14.127,4.391,15.464s13.555-4.963,15.273-12.791c0,0,9.355,9.927,9.928,16.991
		c0,0,1.336-9.928,5.154-14.51s6.873-13.173,6.873-16.8c0,0,3.055,11.837,2.673,15.655c0,0,4.964-15.464,4.964-23.292
		c0,0,1.528,16.037,0.573,26.537s4.009,18.71,6.3,10.31C128.041,68.726,133.551,73.924,133.087,85.357z"/>
	<linearGradient id="SVGID_3_" gradientUnits="userSpaceOnUse" x1="66.168" y1="71.8843" x2="66.168" y2="102.2881">
		<stop  offset="0" style="stop-color:#CCF2FF"/>
		<stop  offset="0.115" style="stop-color:#D6F5FF"/>
		<stop  offset="0.4325" style="stop-color:#EDFAFF"/>
		<stop  offset="0.7339" style="stop-color:#FAFEFF"/>
		<stop  offset="1" style="stop-color:#FFFFFF"/>
	</linearGradient>
	<path fill="url(#SVGID_3_)" d="M128.423,75.113c1.021-2.992-3.437,5.537-3.437,5.537c-9.355-6.873-5.536-25.583-5.536-25.583
		c-3.627,3.818-4.773,12.6-4.773,12.6c1.146-3.818-0.954-11.455-0.954-11.455c-0.19,3.245-1.337,7.828-6.301,13.173
		s-4.582,11.264-4.582,11.264c-1.337-4.582-9.545-11.264-9.545-11.264c-4.2,9.737-16.61,8.973-16.61,8.973
		c0.19-4.391-10.5-18.71-12.982-24.819s-0.382-9.737-0.382-9.737c-4.582,7.637,0.573,24.246,0.573,24.246
		c-2.1-3.437-5.346-2.291-5.346-2.291c4.964,5.346,1.527,14.51,1.527,14.51C42.129,66.903,50.529,57.93,50.529,57.93
		c-8.209,4.963-0.191,23.292-13.937,24.819S20.746,69.576,20.746,69.576C16.736,87.331,1.805,85.881,1.805,85.881
		c25.734,3.429,56.525,1.79,80.572,1.101c22.668-0.649,39.12-0.235,46.826-0.962c0.486-0.046,0.93-0.088,1.328-0.127
		C130.531,85.893,125.559,83.513,128.423,75.113z"/>
</g>
</svg>
