<?xml version="1.0" encoding="utf-8"?>
<!-- Generator: Adobe Illustrator 15.0.0, SVG Export Plug-In . SVG Version: 6.00 Build 0)  -->
<!DOCTYPE svg PUBLIC "-//W3C//DTD SVG 1.1 Tiny//EN" "http://www.w3.org/Graphics/SVG/1.1/DTD/svg11-tiny.dtd">
<svg version="1.1" baseProfile="tiny" id="_x31_7-20"
	 xmlns="http://www.w3.org/2000/svg" xmlns:xlink="http://www.w3.org/1999/xlink" x="0px" y="0px" width="108.833px"
	 height="99.782px" viewBox="0 0 108.833 99.782" xml:space="preserve">
<g>
	<linearGradient id="SVGID_1_" gradientUnits="userSpaceOnUse" x1="54.417" y1="58.3125" x2="54.417" y2="93.9775">
		<stop  offset="0" style="stop-color:#FF0000"/>
		<stop  offset="0.2625" style="stop-color:#F40000"/>
		<stop  offset="0.7224" style="stop-color:#D70000"/>
		<stop  offset="1" style="stop-color:#C20000"/>
	</linearGradient>
	<path fill-rule="evenodd" fill="url(#SVGID_1_)" d="M49.596,99.282c-12.804-0.344-37.964-1.144-41.395-3.202
		C2.043,92.385-2.091,71.381,1.111,64.52s5.489-18.753,3.431-25.157c0,0,4.345,5.489,6.632,12.121s4.804,15.551,7.776,15.094
		s6.861-10.749,6.861-17.839s-2.059-24.242,2.973-28.13c0,0,0.687,11.663,5.718,17.152s5.718-2.287,5.946-8.233
		S45.479-0.889,53.713,0.025c0,0-4.117-0.001-4.346,6.632s2.975,16.009,6.404,20.583s4.573,9.606,4.345,13.723
		s1.829,12.121,4.803,12.35s10.521-5.718,13.036-21.27c0,0,2.744,16.468,2.287,25.387s-1.83,18.296-0.687,18.296
		s4.346-10.292,9.377-14.18s20.126-17.61,19.897-21.498c0,0-2.744,45.74-12.35,56.032C96.48,96.08,83.672,100.197,49.596,99.282z"/>
	<linearGradient id="SVGID_2_" gradientUnits="userSpaceOnUse" x1="53.8262" y1="69.8828" x2="54.3828" y2="100.5322">
		<stop  offset="0" style="stop-color:#FF7300"/>
		<stop  offset="0.0659" style="stop-color:#FA6A00"/>
		<stop  offset="0.3186" style="stop-color:#EB4A00"/>
		<stop  offset="0.5636" style="stop-color:#DF3300"/>
		<stop  offset="0.7954" style="stop-color:#D82600"/>
		<stop  offset="1" style="stop-color:#D62100"/>
	</linearGradient>
	<path fill-rule="evenodd" fill="url(#SVGID_2_)" d="M90.29,97.353c-6.604,1.893-19.743,2.498-40.924,1.93
		c-9.58-0.257-26.078-0.77-35.216-1.874c0,0-5.948-7.73-7.55-16.193s3.888-19.668,1.601-24.929c0,0,3.658,7.09,5.488,10.749
		s4.346,6.402,8.005,5.717s6.633-12.121,7.09-16.924s-0.457-12.808,0.915-16.695c0,0,2.516,16.696,8.69,20.584
		c0,0,4.346-31.104,9.605-31.333c0,0,0.229,2.745,2.287,6.633s8.69,15.553,8.69,23.557s2.059,12.806,4.346,13.035
		s10.749-8.919,13.036-19.668c0,0,1.601,20.812,0.229,26.301s0,6.404,3.659,1.83s18.755-16.01,21.041-21.956
		C101.283,58.115,97.822,95.194,90.29,97.353z"/>
	<linearGradient id="SVGID_3_" gradientUnits="userSpaceOnUse" x1="53.8896" y1="69.8691" x2="55.0074" y2="116.8271">
		<stop  offset="0" style="stop-color:#FFFF00"/>
		<stop  offset="0.1784" style="stop-color:#FFF500"/>
		<stop  offset="0.4777" style="stop-color:#FFDB00"/>
		<stop  offset="0.8589" style="stop-color:#FFB100"/>
		<stop  offset="1" style="stop-color:#FFA000"/>
	</linearGradient>
	<path fill-rule="evenodd" fill="url(#SVGID_3_)" d="M82.521,98.738c0.004,0.296-0.595,0.06-0.9,0.088
		c-7.416,0.693-19.185,1.206-33.266,0.828c-7.751-0.208-18.55-0.769-27.796-1.489c0,0-4.601-6.14-5.583-12.313
		s-0.28-7.646-2.104-9.821c0,0,4.771,3.367,7.787,9.541s6.665,8.699,8.559,5.963s-0.07-20.415,4.7-22.8
		c0,0-1.467,8.842,6.033,15.842c0,0,1.249-32.667,8.416-36.75c0,0-2.75,3.167,1,13.417s7.5,15.832,7.667,20.666
		s-0.916,11.833,2.917,11.25s13.75-18.5,13.833-25.25c0,0,0.501,12.916-2.083,17.5s-3,5.5,1,4.417s14.916-13.001,22.5-13.834
		C95.2,75.993,82.283,81.743,82.521,98.738z"/>
</g>
</svg>
