<?xml version="1.0" encoding="utf-8"?>
<!-- Generator: Adobe Illustrator 15.0.0, SVG Export Plug-In . SVG Version: 6.00 Build 0)  -->
<!DOCTYPE svg PUBLIC "-//W3C//DTD SVG 1.1 Tiny//EN" "http://www.w3.org/Graphics/SVG/1.1/DTD/svg11-tiny.dtd">
<svg version="1.1" baseProfile="tiny" id="_x31_7-20"
	 xmlns="http://www.w3.org/2000/svg" xmlns:xlink="http://www.w3.org/1999/xlink" x="0px" y="0px" width="133.166px"
	 height="87.77px" viewBox="0 0 133.166 87.77" xml:space="preserve">
<g>
	<linearGradient id="SVGID_1_" gradientUnits="userSpaceOnUse" x1="66.2554" y1="22.4971" x2="66.5884" y2="85.1624">
		<stop  offset="0" style="stop-color:#E60000"/>
		<stop  offset="0.2459" style="stop-color:#E10000"/>
		<stop  offset="0.5173" style="stop-color:#D40000"/>
		<stop  offset="0.7999" style="stop-color:#BE0000"/>
		<stop  offset="1" style="stop-color:#AA0000"/>
	</linearGradient>
	<path fill="url(#SVGID_1_)" d="M133.166,84.361c0,0-85.756,5.926-133.166-0.349c0,0,10.806-9.762,13.247-22.659
		S8.715,38.694,14.99,29.631c0,0-1.743,3.487,0.349,9.413s6.973,8.366,8.367-1.395c0,0,3.834,5.229,4.532,9.412
		s3.486,17.081,6.624,17.081s4.88-14.293,4.532-23.705s-5.229-16.034-1.743-23.704c0,0,0,9.064,7.669,10.807S50.896,1.395,63.794,0
		c0,0-2.789,4.88,0.349,10.458s6.275,16.036,5.926,26.146c0,0,3.835-3.138,2.44-13.247c0,0,3.486,9.063,3.486,21.962
		s1.743,16.731,4.88,16.035s3.137-23.007,11.504-26.842c0,0-3.138,3.485-1.743,9.412s8.715,18.128,9.413,23.356
		c0,0,1.046-15.688,5.578-25.797s4.183-12.549,4.183-16.384c0,0,4.532,8.019,4.532,12.898c0,0-2.092-16.734,5.229-20.568
		c0,0-2.789,1.047-1.046,8.367s6.972,23.356,7.669,33.117c0,0,3.137-5.577,3.137-9.412c0,0,2.44,6.274,2.092,12.2
		S131.771,79.132,133.166,84.361z"/>
	<linearGradient id="SVGID_2_" gradientUnits="userSpaceOnUse" x1="65.147" y1="42.4814" x2="65.8135" y2="87.4814">
		<stop  offset="0" style="stop-color:#FF4600"/>
		<stop  offset="0.2435" style="stop-color:#F93A00"/>
		<stop  offset="0.68" style="stop-color:#E91B00"/>
		<stop  offset="1" style="stop-color:#DC0000"/>
	</linearGradient>
	<path fill="url(#SVGID_2_)" d="M131.53,84.469c0,0-1.054,0.066-1.725,0.108c-16.297,1.011-87.975,4.972-129.804-0.564
		c0,0,23.316-11.191,16.863-35.071c0,0,2.366,11.401,4.733,11.187s0.215-11.833,3.227-13.769c0,0-0.86,1.723-0.215,5.164
		s4.99,17.824,11.187,17.425c6.669-0.43,12.048-11.187,6.239-38.724c0,0,3.227,4.732,6.454,8.82s6.239,12.908,8.821,10.972
		c4.725-3.545-7.745-29.472,1.936-37.002c0,0-3.442,3.228-1.291,10.111s10.542,15.489,10.757,21.943c0,0,1.506-7.314,4.303-8.391
		c0,0-1.506,6.239-1.076,12.263s3.012,19.793,9.036,18.071s4.302-10.972,8.175-15.92c0,0-0.645,2.15,0.646,5.378
		s7.744,7.96,10.756,14.414c0,0,2.366-8.604,4.733-12.692s5.809-13.555,6.024-17.642c0,0,3.872,6.455,4.518,11.188
		c0,0-0.215-13.983,2.582-16.78c0,0-1.721,1.722-0.645,8.605s7.099,14.628,7.099,27.536c0,0,3.442-8.39,4.303-11.187
		C129.163,59.913,126.152,72.452,131.53,84.469z"/>
	<linearGradient id="SVGID_3_" gradientUnits="userSpaceOnUse" x1="64.3062" y1="65.1729" x2="64.9842" y2="86.8751">
		<stop  offset="0" style="stop-color:#FFC800"/>
		<stop  offset="0.1973" style="stop-color:#FFCA04"/>
		<stop  offset="0.3985" style="stop-color:#FFD110"/>
		<stop  offset="0.6015" style="stop-color:#FFDC25"/>
		<stop  offset="0.8044" style="stop-color:#FFEC41"/>
		<stop  offset="1" style="stop-color:#FFFF64"/>
	</linearGradient>
	<path fill="url(#SVGID_3_)" d="M0.001,84.013c0,0,6.967,0.641,9.979-0.65s12.047-7.314,13.338-18.286
		c0,0,4.949,20.652,23.45,13.123c0,0-4.088-18.071,6.454-21.943c0,0-3.442,1.507-1.936,8.391s5.809,12.478,9.681,12.478
		s-5.163-19.792,2.582-32.7c0,0-4.088,6.454-1.291,11.832s12.048,18.071,15.49,23.234c0,0,8.82-4.304,12.047-14.199
		c0,0,3.227,0.646,9.25,11.402c0,0,10.972-5.809,13.123-21.083c0,0,2.796,4.519,3.657,10.542c0,0,1.721-1.937,2.367-3.442
		c0,0,6.884,12.692,6.884,18.501c0,0,1.506-4.731,1.506-7.099c0,0,2.158,4.225,3.224,10.465c0.023,0.137-0.81,0.221-1.602,0.328
		C128.203,84.905,43.581,91.909,0.001,84.013z"/>
</g>
</svg>
