<?xml version="1.0" encoding="utf-8"?>
<!-- Generator: Adobe Illustrator 15.0.0, SVG Export Plug-In . SVG Version: 6.00 Build 0)  -->
<!DOCTYPE svg PUBLIC "-//W3C//DTD SVG 1.1 Tiny//EN" "http://www.w3.org/Graphics/SVG/1.1/DTD/svg11-tiny.dtd">
<svg version="1.1" baseProfile="tiny" id="_x30_9-12"
	 xmlns="http://www.w3.org/2000/svg" xmlns:xlink="http://www.w3.org/1999/xlink" x="0px" y="0px" width="82.196px"
	 height="102.004px" viewBox="0 0 82.196 102.004" xml:space="preserve">
<g>
	<linearGradient id="SVGID_1_" gradientUnits="userSpaceOnUse" x1="40.8066" y1="25.7036" x2="41.4731" y2="97.0372">
		<stop  offset="0" style="stop-color:#FFB400"/>
		<stop  offset="0.2733" style="stop-color:#FF8600"/>
		<stop  offset="0.5" style="stop-color:#FF6400"/>
		<stop  offset="0.5949" style="stop-color:#FF6000"/>
		<stop  offset="0.697" style="stop-color:#FF5300"/>
		<stop  offset="0.8025" style="stop-color:#FF3D00"/>
		<stop  offset="0.9095" style="stop-color:#FF1F00"/>
		<stop  offset="1" style="stop-color:#FF0000"/>
	</linearGradient>
	<path fill="url(#SVGID_1_)" d="M78.809,102.004L5.14,102.003c0,0-4.789-3.977,0.449-20.958C9.646,67.894,2.515,61.482,0,59.526
		c0,0,7.825-0.279,15.371,15.65c0,0-5.31-15.65-8.943-19.563s-7.825-15.37-5.03-23.195c0,0-2.016,5.629,3.074,10.899
		c5.918,6.128,21.559,15.548,22.448,30.655c0,0-0.371-15.564-5.401-25.346s-6.148-15.929-3.354-23.195S23.754,4.75,20.68,0
		c0,0,12.576,15.091,12.576,29.344s-4.472,20.121-3.633,24.313s4.191,5.869,7.545,5.031s3.075-9.223,0.28-14.253
		s-2.795-14.811,1.956-18.444c0,0-2.236,3.354-2.236,7.545s-0.279,7.825,3.913,7.545s7.267-10.339,5.31-16.208
		s-9.222-12.017-6.428-22.916c0,0-0.069,8.919,4.197,14.607s12.975,15.819,7.287,29.327S41.85,59.397,44.16,71.839
		c0,0-0.533-4.266,3.377-9.242s12.086-13.686,9.775-21.862c0,0,2.666,7.821-0.178,13.686s-7.109,13.686-4.266,18.84
		s14.396,2.488,12.975-13.152s-11.02-27.905-7.109-37.325c0,0-0.355,6.576,3.732,14.574s12.975,25.95,6.576,44.257
		c0,0,2.488-2.844,3.377-6.043s1.956-16.352,9.776-21.328c0,0-5.332,4.443-4.799,15.996S83.775,93.422,78.809,102.004z"/>
	<linearGradient id="SVGID_2_" gradientUnits="userSpaceOnUse" x1="41.5918" y1="24.2573" x2="41.9868" y2="103.6719">
		<stop  offset="0" style="stop-color:#FF9600"/>
		<stop  offset="0.107" style="stop-color:#FF7700"/>
		<stop  offset="0.411" style="stop-color:#FF2200"/>
		<stop  offset="0.5495" style="stop-color:#FF0000"/>
		<stop  offset="0.7496" style="stop-color:#E00000"/>
		<stop  offset="1" style="stop-color:#B40000"/>
	</linearGradient>
	<path fill="url(#SVGID_2_)" d="M72.067,102.003H10.647c0,0-3.101-5.28-2.568-12.923s2.133-16.174,0.355-18.84
		c0,0,5.865,4.977,7.465,14.93c0,0,6.043-12.619-8.176-32.348c0,0,15.818,7.109,17.596,27.371c0,0,9.598-10.664,0.178-28.971
		s-2.666-26.838-0.711-33.77c0,0,5.865,10.309,4.977,17.773s-3.377,15.286-0.533,22.04s18.308,5.866,11.198-12.441
		c0,0,7.109,0.533,8.709-9.42c0,0,1.6,10.309-4.266,20.262s-6.932,19.017,1.6,23.994c0,0-1.422-12.797,5.332-18.484
		c0,0-2.488,2.844-2.488,7.643s1.777,10.309,7.287,10.486s12.441-4.799,11.73-17.951c0,0,4.088,16.174-6.043,31.282
		c0,0,10.664-3.022,12.797-17.241C75.086,75.394,78.288,95.071,72.067,102.003z"/>
</g>
</svg>
