<?xml version="1.0" encoding="utf-8"?>
<!-- Generator: Adobe Illustrator 15.0.0, SVG Export Plug-In . SVG Version: 6.00 Build 0)  -->
<!DOCTYPE svg PUBLIC "-//W3C//DTD SVG 1.1 Tiny//EN" "http://www.w3.org/Graphics/SVG/1.1/DTD/svg11-tiny.dtd">
<svg version="1.1" baseProfile="tiny" id="_x30_9-12"
	 xmlns="http://www.w3.org/2000/svg" xmlns:xlink="http://www.w3.org/1999/xlink" x="0px" y="0px" width="81.691px"
	 height="100.629px" viewBox="0 0 81.691 100.629" xml:space="preserve">
<g>
	<linearGradient id="SVGID_1_" gradientUnits="userSpaceOnUse" x1="40.8457" y1="2.6279" x2="40.8457" y2="91.4433">
		<stop  offset="0" style="stop-color:#FFDC00"/>
		<stop  offset="0.0551" style="stop-color:#FFCB00"/>
		<stop  offset="0.2521" style="stop-color:#FF9400"/>
		<stop  offset="0.3989" style="stop-color:#FF7100"/>
		<stop  offset="0.478" style="stop-color:#FF6400"/>
		<stop  offset="0.5771" style="stop-color:#FE6000"/>
		<stop  offset="0.6837" style="stop-color:#FC5300"/>
		<stop  offset="0.7938" style="stop-color:#F73D00"/>
		<stop  offset="0.9055" style="stop-color:#F11F00"/>
		<stop  offset="1" style="stop-color:#EB0000"/>
	</linearGradient>
	<path fill="url(#SVGID_1_)" d="M2.316,100.629l78.021-0.001c0,0,2.115-10.989,1.057-18.571c-1.057-7.582-5.111-13.928-4.055-22.567
		c0,0-2.645,4.231-1.41,9.344s2.645,20.804-4.231,20.452s-4.407-8.463-2.116-12.871c2.293-4.408,2.998-8.991-0.705-14.281
		c-3.702-5.29-9.873-10.226-7.404-19.042c0,0-2.82,5.29,0.353,12.342s6.171,8.992,4.056,14.104
		c-2.116,5.113-12.871,7.405-14.811,0.705S48.955,54.2,51.6,45.561S55.738,12.165,48.51,0c0,0,2.115,6.877-0.354,12.519
		C45.688,18.16,37.142,28.107,37.318,36.57c0.176,8.463,5.289,14.634,7.934,18.865s3.702,18.336-1.764,22.743
		c-5.465,4.408-12.518-2.468-7.934-10.226s3.174-13.224,1.059-17.631c-2.116-4.407-7.229-7.934-5.643-14.457
		c0,0-2.645,6.347,1.41,11.989c4.056,5.642,2.469,16.22-3.879,15.339c-6.346-0.881-3.525-8.992-2.115-11.284
		s3.351-11.813-1.939-18.16c-5.289-6.347-8.991-14.986-3.879-18.16c0,0-3.702,0.881-3.525,5.465
		c0.176,4.584,3.702,11.46,5.642,15.339s1.763,13.399-3.174,13.576s-4.761-6.347-3.35-10.226s2.116-11.989-2.997-14.281
		c0,0,3.234,1.255,2.82,6.523c-0.457,5.811-4.407,8.816-4.584,14.105c-0.176,5.289,3.351,9.521,9.168,16.044
		c5.818,6.523,4.137,32.29-4.468,31.759c-4.998-0.309-2.493-7.02-1.702-9.543c1.702-5.434,1.41-10.755-2.293-14.811
		c-3.702-4.055-7.082-6.364-7.757-10.931c0,0,0.177,4.055,2.468,7.229c2.293,3.174,5.994,9.168,5.289,13.046
		c-0.705,3.879-2.997,8.641-6.523,7.935c-3.525-0.706-1.701-6.525-0.847-8.858c0.824-2.251,1.905-6.658-1.093-9.831
		c0,0,2.117,2.997,0.706,6.523C2.938,78.178-3.326,90.022,2.316,100.629z"/>
	<linearGradient id="SVGID_2_" gradientUnits="userSpaceOnUse" x1="40.7422" y1="41.4146" x2="40.4087" y2="98.7478">
		<stop  offset="0" style="stop-color:#FF6400"/>
		<stop  offset="0.2231" style="stop-color:#FF4100"/>
		<stop  offset="0.5824" style="stop-color:#FF0000"/>
		<stop  offset="0.7158" style="stop-color:#EB0000"/>
		<stop  offset="0.9885" style="stop-color:#B60000"/>
		<stop  offset="1" style="stop-color:#B40000"/>
	</linearGradient>
	<path fill="url(#SVGID_2_)" d="M73.108,100.628H6.396c0,0-5.271-4.921-4.689-14.039c0,0-0.542,3.12,2.009,4.088
		c3.096,1.175,5.231-0.854,6.722-3.7c0,0-2.521,4.268,1.164,7.955c3.686,3.686,10.864,2.327,13.774-6.402
		c2.91-8.73,2.134-26.968-10.477-37.056c0,0,6.208,4.462,9.507-2.328c0,0-6.014,14.939,7.178,17.849c0,0-3.88,10.477,3.104,15.133
		s15.521-4.463,14.356-12.029c0,0-0.388,6.208,4.269,7.955s13.968-0.389,15.521-11.059c0,0,0.582,5.433-1.939,9.895
		c-2.523,4.462-3.881,11.252-1.164,14.356c2.715,3.104,11.252,4.074,13.58-7.179C79.311,84.067,79.129,97.99,73.108,100.628z"/>
</g>
</svg>
