<?xml version="1.0" encoding="utf-8"?>
<!-- Generator: Adobe Illustrator 15.0.0, SVG Export Plug-In . SVG Version: 6.00 Build 0)  -->
<!DOCTYPE svg PUBLIC "-//W3C//DTD SVG 1.1//EN" "http://www.w3.org/Graphics/SVG/1.1/DTD/svg11.dtd">
<svg version="1.1" id="_x30_2-08" xmlns="http://www.w3.org/2000/svg" xmlns:xlink="http://www.w3.org/1999/xlink" x="0px" y="0px"
	 width="72.079px" height="170.463px" viewBox="0 0 72.079 170.463" enable-background="new 0 0 72.079 170.463"
	 xml:space="preserve">
<g>
	
		<linearGradient id="SVGID_1_" gradientUnits="userSpaceOnUse" x1="154.0591" y1="-163.8555" x2="137.2036" y2="-32.3565" gradientTransform="matrix(1 0 0 -1 -113.3501 5.4434)">
		<stop  offset="0" style="stop-color:#E50012"/>
		<stop  offset="1" style="stop-color:#EF8200"/>
	</linearGradient>
	<path fill="url(#SVGID_1_)" d="M22.333,167.625c18.02,6.64,34.619,0.948,42.679-9.958c5.271-6.71,7.318-16.688,1.6-27.518
		c-1.701-1.75-4.141-9.85-2.005-14.68c-1.868,1.989-3.347,5.414-3.181,9.377c0.109,2.995,0.873,5.188,0.406,6.738
		c-3.234,10.77-13.727-8.786-6.869-17.99c6.543-11.359,9.31-21.539-6.463-37.532c4.006,7.848,6.131,13.883,4.922,19.719
		c-3.963,12.959-13.689-0.379-10.354-12.234c2.693-9.569,7.646-17.287,9.686-24.057c4.65-15.449,3.248-24.996-9.821-33.49
		c8.735,11.798,12.698,17.564-1.954,39.505c-4.318,5.831-7.801,9.902-9.653,18.596c-6.109-3.83-10.423-3.408-14.101-2.333
		c14.137,3.117,13.543,15.333,12.397,18.382c-1.257,3.349-5.229,3.859-7.747,1.957C10.236,92.093,7.619,82.745,14.883,71.909
		C7.859,78.69,6.05,85.757,10.971,95.474c3.294,7.475,13.254,17.381,7.818,18.447c-3.166-0.318-3.409-2.406-7.067-5.73
		c-2.846-2.588-6.47-3.428-8.699-2.864c3.099,1.044,8.819,6.272,11.508,12.821c9.565,26.16,5.032,36.14,0.183,34.195
		c-10.853-11.299,1.701-23.304-7.297-35.963C13.344,129.937-9.439,153.872,22.333,167.625z"/>
	
		<linearGradient id="SVGID_2_" gradientUnits="userSpaceOnUse" x1="159.9399" y1="-165.9048" x2="132.4398" y2="-37.4043" gradientTransform="matrix(1 0 0 -1 -113.3501 5.4434)">
		<stop  offset="0" style="stop-color:#EF8200"/>
		<stop  offset="0.0114" style="stop-color:#EF8400"/>
		<stop  offset="0.1551" style="stop-color:#F4A000"/>
		<stop  offset="0.3105" style="stop-color:#F8B500"/>
		<stop  offset="0.4841" style="stop-color:#FAC400"/>
		<stop  offset="0.6885" style="stop-color:#FCCC00"/>
		<stop  offset="1" style="stop-color:#FCCF00"/>
	</linearGradient>
	<path fill="url(#SVGID_2_)" d="M21.859,163.831c29.401,7.113,40.782-9.958,41.586-11.063c4.484-5.709,6.521-12.623,1.657-21.836
		c-1.049-1.49-3.491-6.498-1.946-10.604c-2.903,5.958,1.564,9.896,0.263,12.188c-4.117,16.018-19.576-5.637-12.504-19.649
		c4.791-7.729,13.094-16.146,0.891-31.832c3.671,6.843,4.666,10.979,3.563,16.776c-5.609,13.502-18.193,1.289-15.074-10.875
		c2.004-7.816,5.373-15.201,8.357-21.465c2.038-7.115,9.193-18.624,1.785-30.041c4.316,12.26,0.1,19.259-9.544,35.521
		c-3.675,4.96-6.513,7.795-8.089,15.19c-4.873-2.619-8.174-4.759-11.376-3.992c12.024,2.651,10.988,15.83,10.309,18.518
		c-0.939,3.726-6.692,5.424-8.832,3.808c-3.374-1.593-15.89-13.736-12.953-23.521c-2.412,6.047,1.393,12.734,3.92,16.747
		c2.803,6.358,10.278,16.042,5.911,17.825c-2.693-0.271-2.382-0.051-5.5-2.873c-2.298-2.078-4.912-5.319-7.667-5.691
		c2.636,0.889,7.755,5.961,10.042,11.53c10.992,22.913,5.737,38.989-2.562,36.366c-11.79-8.691-0.839-17.657-5.209-31.473
		C12.953,133.233-3.376,155.97,21.859,163.831z"/>
	
		<linearGradient id="SVGID_3_" gradientUnits="userSpaceOnUse" x1="165.1411" y1="-153.4302" x2="124.1409" y2="-36.4296" gradientTransform="matrix(1 0 0 -1 -113.3501 5.4434)">
		<stop  offset="0" style="stop-color:#FCCF00"/>
		<stop  offset="0.0933" style="stop-color:#FDDB00"/>
		<stop  offset="0.2444" style="stop-color:#FEE700"/>
		<stop  offset="0.4539" style="stop-color:#FFEE00"/>
		<stop  offset="1" style="stop-color:#FFF000"/>
	</linearGradient>
	<path fill="url(#SVGID_3_)" d="M18.54,158.614c34.105,13.847,49.503-10.309,47.478-23.6c-0.68-3.41-2.477-4.807-2.355-5.744
		c2.115,9.654-5.562,14.041-11.267,8.285c-10.21-10.307-5.784-22.527,0.258-30.404c2.371-3.094,3.119-4.955,3.063-7.002
		c-0.707,2.511-1.043,3.392-3.323,5.25c-5.735,3.281-11.036,0.648-13.296-6.446C34.182,83.527,46.542,71.53,49.366,57.33
		c-3.074,10.497-5.174,9.341-11.977,22.243c-2.816,3.8-2.335,10.971-1.8,14.625c-0.855-2.663-4.385-10.444-7.504-9.706
		c12.779,12.989,3.037,33.972-11.333,15.757c1.907,4.363,2.922,5.493,4.859,8.568c3.155,7.072,2.85,11.881-6.318,6.35
		C26.281,127.767,32.292,155.295,18.54,158.614z"/>
	
		<linearGradient id="SVGID_4_" gradientUnits="userSpaceOnUse" x1="149.4058" y1="-134.0586" x2="115.9057" y2="-35.5586" gradientTransform="matrix(1 0 0 -1 -113.3501 5.4434)">
		<stop  offset="0" style="stop-color:#E50012"/>
		<stop  offset="1" style="stop-color:#FFF000"/>
	</linearGradient>
	<path fill="url(#SVGID_4_)" d="M27.288,132.149c-2.501-5.941-1.42-7.678,0.321-12.754c0.43-1.35-0.135-2.83-0.9-3.31
		c0.945-0.169,2.362,1.211,2.243,3.8c-0.215,1.072-0.638,3.772-0.076,5.522c0.6,1.862,1.855,2.687,3.311,0.091
		c0.898-1.604,0.599-8.051-0.311-9.12c-1.48-3.233-3.171-5.12-1.397-8.3c0.216-0.387-0.858,2.02,0.493,3.626
		c8.639,10.265,4.132,13.969,1.837,27.174C30.287,136.515,28.611,134.494,27.288,132.149z"/>
	
		<linearGradient id="SVGID_5_" gradientUnits="userSpaceOnUse" x1="155.5024" y1="-115.7256" x2="144.502" y2="-77.2242" gradientTransform="matrix(1 0 0 -1 -113.3501 5.4434)">
		<stop  offset="0" style="stop-color:#E50012"/>
		<stop  offset="1" style="stop-color:#FFF000"/>
	</linearGradient>
	<path fill="url(#SVGID_5_)" d="M39.724,120.458c0.469-0.406,0.853-1.096,0.692-2.253c-0.418-2.358-4.063-4.419-1.705-9.245
		c0.183-0.369,1.535-2.744,1.479-2.425c-0.412,2.379-0.256,4.043,0.453,5.063C44.665,117.931,39.808,120.989,39.724,120.458z"/>
	<g>
		<path fill="#E50012" d="M30.56,54.08c-3.943-9.367-2.238-12.104,0.508-20.104c0.675-2.128-0.216-4.461-1.419-5.216
			c1.49-0.268,3.72,1.907,3.536,5.987c-0.341,1.693-1.007,5.948-0.121,8.707c0.943,2.937,2.924,4.233,5.216,0.144
			c1.418-2.528,0.948-12.689-0.486-14.375c-2.333-5.098-5-8.07-2.204-13.084c0.34-0.608-1.353,3.184,0.777,5.714
			c13.617,16.183,6.514,22.02,2.896,42.835C35.286,60.961,32.645,57.775,30.56,54.08z"/>
		<path fill="#EF8200" d="M30.442,38.554c0.517-1.63,2.076-5.935,1.154-6.513c1.141-0.205-0.017,4.233-0.159,7.356
			c-0.261,1.295-0.398,3.801,0.28,5.913c3.349,10.336,12.09-2.73,8.622-12.929c-0.526-3.491-2.688-4.558-4.438-9.127
			c-0.191-0.498,0.965,1.801,2.596,3.739c9.06,11.944,2.201,18.659,0.098,34.818C31.999,56.955,27.269,49.155,30.442,38.554z"/>
		<path fill="#FCCF00" d="M30.157,44.063c-0.016,1.175,4.944,18.58,11.193-1.333c0.686-2.184,0.529-2.292,0.513-2.041
			c-0.084,1.293,0.63,3.021-4.853,18.5C28.379,49.79,30.168,43.964,30.157,44.063z"/>
	</g>
	<g>
		<path fill="#E50012" d="M65.338,121.853c1.002-0.34,1.975-1.129,2.182-2.875c0.264-3.604-5.326-8.453,0.9-14.16
			c0.476-0.437,3.879-3.147,3.646-2.717c-1.738,3.203-2.167,5.672-1.343,7.506C75.163,120.784,65.263,122.659,65.338,121.853z"/>
		<path fill="#EF8200" d="M67.853,120.308c0.537-0.412,1.021-1.162,0.991-2.529c-0.154-2.799-3.715-5.68-0.676-10.979
			c0.232-0.403,1.929-2.987,1.832-2.624c-0.713,2.711-0.75,4.667-0.131,5.949C73.312,118.022,67.875,120.935,67.853,120.308z"/>
		<path fill="#FCCF00" d="M69.181,118.001c0.235-0.314,0.417-0.84,0.291-1.703c-0.308-1.758-2.334-3.221-1.242-6.888
			c0.083-0.281,0.724-2.089,0.705-1.851c-0.136,1.791,0.008,3.033,0.423,3.783C71.737,115.998,69.245,118.397,69.181,118.001z"/>
	</g>
	<g>
		<path fill="#E50012" d="M14.519,77.484c1.291-0.439,2.544-1.459,2.812-3.708c0.337-4.648-6.867-10.898,1.16-18.257
			c0.612-0.562,5.001-4.056,4.701-3.502c-2.24,4.13-2.792,7.313-1.731,9.679C27.181,76.105,14.419,78.524,14.519,77.484z"/>
		<path fill="#EF8200" d="M17.757,75.489c0.693-0.53,1.316-1.496,1.279-3.26c-0.197-3.609-4.789-7.322-0.871-14.154
			c0.299-0.521,2.487-3.851,2.363-3.383c-0.919,3.497-0.967,6.018-0.169,7.669C24.795,72.545,17.789,76.301,17.757,75.489z"/>
		<path fill="#FCCF00" d="M19.47,72.518c0.305-0.405,0.539-1.081,0.375-2.194c-0.396-2.268-3.01-4.152-1.601-8.881
			c0.107-0.361,0.933-2.694,0.909-2.384c-0.175,2.309,0.009,3.913,0.545,4.877C22.766,69.936,19.552,73.03,19.47,72.518z"/>
	</g>
	<g>
		<path fill="#E50012" d="M2.688,129.476c0.586-0.481,1.051-1.397,0.796-3.129c-0.638-3.552-5.428-7.438-2.594-13.933
			c0.217-0.496,1.859-3.647,1.802-3.192c-0.428,3.379-0.157,5.85,0.802,7.514C8.947,126.961,2.818,130.272,2.688,129.476z"/>
		<path fill="#EF8200" d="M4.002,127.592c0.263-0.481,0.413-1.284,0.086-2.61c-0.731-2.707-3.737-4.978-2.92-10.596
			c0.062-0.43,0.604-3.201,0.622-2.832c0.139,2.748,0.555,4.659,1.254,5.815C7.101,124.547,4.159,128.2,4.002,127.592z"/>
		<path fill="#FCCF00" d="M4.362,125.146c0.085-0.342,0.088-0.879-0.19-1.703c-0.599-1.666-2.27-2.787-2.373-6.523
			c-0.007-0.285,0.008-2.145,0.05-1.906c0.315,1.766,0.688,2.954,1.132,3.621C5.602,122.812,4.494,125.524,4.362,125.146z"/>
	</g>
	<g>
		<path fill="#E50012" d="M41.348,20.764c0.91-0.542,1.697-1.517,1.537-3.266c-0.49-3.581-6.962-7.166-2.055-14.04
			c0.375-0.525,3.144-3.882,3.004-3.414c-1.035,3.493-0.944,5.999,0.244,7.622C50.735,17.682,41.441,21.569,41.348,20.764z"/>
		<path fill="#EF8200" d="M43.486,18.729c0.44-0.514,0.759-1.348,0.446-2.679c-0.73-2.707-4.813-4.787-2.938-10.601
			c0.143-0.443,1.267-3.323,1.25-2.947c-0.137,2.8,0.233,4.721,1.104,5.848C48.352,15.363,43.64,19.339,43.486,18.729z"/>
		<path fill="#FCCF00" d="M44.307,16.199c0.167-0.357,0.234-0.908-0.069-1.726c-0.666-1.656-2.95-2.666-2.643-6.481
			c0.022-0.291,0.274-2.193,0.307-1.955c0.238,1.781,0.636,2.966,1.197,3.613C46.392,13.71,44.452,16.574,44.307,16.199z"/>
	</g>
</g>
</svg>
