<?xml version="1.0" encoding="utf-8"?>
<!-- Generator: Adobe Illustrator 15.0.0, SVG Export Plug-In . SVG Version: 6.00 Build 0)  -->
<!DOCTYPE svg PUBLIC "-//W3C//DTD SVG 1.1 Tiny//EN" "http://www.w3.org/Graphics/SVG/1.1/DTD/svg11-tiny.dtd">
<svg version="1.1" baseProfile="tiny" id="_x30_9-12"
	 xmlns="http://www.w3.org/2000/svg" xmlns:xlink="http://www.w3.org/1999/xlink" x="0px" y="0px" width="70.227px"
	 height="173.662px" viewBox="0 0 70.227 173.662" xml:space="preserve">
<g>
	<path fill-rule="evenodd" fill="#E60012" d="M9.823,145.487c3.175-34.326-21.954-50.289-2.133-73.603
		c-7.635,20.962,0.783,27.461,5.9,26.838c5.813-0.707,8.878-14.11,4.683-26.573c-5.363-15.931,0.916-29.552,5.383-36.414
		C37.966,13.746,34.253,7.422,30.124,0c14.588,7.56,0.275,39.722-2.754,50.168c-3.026,10.446,0.964,18.006,6.47,10.033
		c5.506-7.972-3.855-24.053,11.562-31.887c-8.516,9.607-3.282,18.724-3.729,31.699c-0.382,11.021-6.833,18.923-2.053,23.005
		c2.927,2.497,9.063,2.552,10.999-5.619c1.505-6.358-6.001-21.829,5.515-31.08c-7.797,12.764,4.777,30.612-0.469,43.606
		c-4.545,11.252-10.396,17.85-6.273,22.506c3.065,3.46,9.002,1.118,13.115-8.474c2.813-6.565,3.657-16.991,4.224-28.775
		c10.183,38.072-5.317,52.685-3.278,64.071C65.494,150.642,9.823,145.487,9.823,145.487L9.823,145.487z"/>
	<linearGradient id="SVGID_1_" gradientUnits="userSpaceOnUse" x1="35.4111" y1="95.3032" x2="37.4111" y2="117.9697">
		<stop  offset="0" style="stop-color:#EC9100"/>
		<stop  offset="0.1281" style="stop-color:#EB7104"/>
		<stop  offset="0.3171" style="stop-color:#E94909"/>
		<stop  offset="0.5027" style="stop-color:#E8290D"/>
		<stop  offset="0.6816" style="stop-color:#E71210"/>
		<stop  offset="0.8508" style="stop-color:#E60511"/>
		<stop  offset="1" style="stop-color:#E60012"/>
	</linearGradient>
	<path fill-rule="evenodd" fill="url(#SVGID_1_)" d="M39.608,171.227c-9.805,1.541-26.155-3.607-25.253-30.063
		s-3.908-34.872-9.62-40.284c0,0,8.117,2.103,13.228,9.319s16.234-18.939,7.215-37.277c0,0,7.816,6.013,8.117,21.645
		s13.228,1.804,17.136-7.516c0,0-1.503,10.523-8.417,21.044s2.405,17.436,12.626,10.221s11.423-11.123,12.325-18.639
		c0,0,0.301,11.423-3.307,18.338s-3.608,15.032-3.006,24.051S60.652,167.92,39.608,171.227z"/>
	<path fill-rule="evenodd" fill="#E60012" d="M9.81,146.373c0-15.07,12.221-27.291,27.29-27.291s27.29,12.221,27.29,27.291
		c0,15.068-12.221,27.289-27.29,27.289S9.81,161.441,9.81,146.373L9.81,146.373z"/>
	<g>
		<path fill-rule="evenodd" fill="#E60012" d="M13.386,155.838c-5.027-14.768,0.343-21.287,4.019-24.55
			c4.882-4.354,2.277,4.71,5.957,13.333c3.678,8.627,9.959-2.879,17.015-8.181c7.058-5.303,15.973-3.217,18.762,0.017
			c3.112,6.77,5.722,20.838-8.029,30.592C37.361,176.804,18.415,170.606,13.386,155.838L13.386,155.838z"/>
		<path fill-rule="evenodd" fill="#E70B11" d="M13.662,156.101c-4.968-14.304-0.004-20.904,3.637-24.186
			c4.563-4.113,2.218,4.821,5.867,13.156c3.804,8.69,10.476-2.194,17.651-7.586c6.938-5.213,16.087-3.878,18.264-0.625
			c4.144,6.195,5.367,20.596-8.046,30.123C37.485,176.616,18.793,170.623,13.662,156.101L13.662,156.101z"/>
		<path fill-rule="evenodd" fill="#E81710" d="M13.938,156.364c-4.909-13.84-0.365-20.527,3.256-23.823
			c4.251-3.87,2.164,4.931,5.778,12.979c3.931,8.754,10.991-1.509,18.286-6.991c6.818-5.123,15.152-3.698,17.766-1.266
			c2.932,6.856,5.011,20.354-8.063,29.654C37.609,176.429,19.172,170.638,13.938,156.364L13.938,156.364z"/>
		<path fill-rule="evenodd" fill="#EA220F" d="M14.213,156.627c-4.849-13.376-0.737-20.153,2.874-23.459
			c3.952-3.619,2.114,5.04,5.688,12.801c4.061,8.818,11.507-0.824,18.922-6.396c6.699-5.033,14.742-3.938,17.269-1.906
			c2.841,6.899,4.655,20.112-8.081,29.186C37.733,176.242,19.551,170.654,14.213,156.627L14.213,156.627z"/>
		<path fill-rule="evenodd" fill="#EB2E0F" d="M14.489,156.891c-4.79-12.914-1.121-19.784,2.492-23.096
			c3.666-3.361,2.07,5.146,5.6,12.625c4.192,8.882,12.022-0.14,19.557-5.801c6.579-4.943,14.333-4.178,16.771-2.547
			c2.751,6.942,4.3,19.87-8.098,28.717C37.857,176.055,19.93,170.67,14.489,156.891L14.489,156.891z"/>
		<path fill-rule="evenodd" fill="#EC390E" d="M14.765,157.154c-4.731-12.45-1.518-19.419,2.111-22.732
			c3.393-3.098,2.03,5.251,5.51,12.447c4.327,8.946,12.538,0.546,20.193-5.206c6.459-4.853,13.922-4.419,16.272-3.188
			c2.661,6.986,3.944,19.628-8.115,28.248C37.981,175.867,20.309,170.686,14.765,157.154L14.765,157.154z"/>
		<path fill-rule="evenodd" fill="#ED450D" d="M15.041,157.417c-4.671-11.986-1.194-18.398,1.729-22.369
			c3.64-2.144,1.995,5.356,5.421,12.27c4.464,9.009,13.054,1.23,20.829-4.611c6.338-4.763,13.512-4.659,15.774-3.83
			c2.57,7.029,3.589,19.386-8.132,27.779C38.105,175.68,20.688,170.702,15.041,157.417L15.041,157.417z"/>
		<path fill-rule="evenodd" fill="#EE500C" d="M15.316,157.681c-4.612-11.522-1.451-17.917,1.348-22.005
			c3.433-1.775,1.963,5.458,5.332,12.093c4.604,9.071,13.57,1.915,21.464-4.017c6.219-4.673,13.102-4.899,15.276-4.471
			c2.48,7.072,3.233,19.144-8.149,27.311C38.229,175.493,21.066,170.718,15.316,157.681L15.316,157.681z"/>
		<path fill-rule="evenodd" fill="#F05C0B" d="M15.592,157.944c-4.553-11.059-1.708-17.435,0.966-21.642
			c3.226-1.407,1.936,5.558,5.242,11.916c4.749,9.132,14.085,2.601,22.1-3.421c6.099-4.583,12.691-5.14,14.778-5.111
			c2.39,7.115,2.877,18.902-8.167,26.842C38.354,175.306,21.445,170.734,15.592,157.944L15.592,157.944z"/>
		<path fill-rule="evenodd" fill="#F1670A" d="M15.868,158.207c-4.493-10.595-1.963-16.953,0.585-21.278
			c3.019-1.039,1.913,5.656,5.153,11.738c4.896,9.192,14.601,3.285,22.735-2.827c5.979-4.493,12.281-5.38,14.28-5.752
			c2.299,7.159,2.522,18.66-8.184,26.373C38.478,175.118,21.824,170.75,15.868,158.207L15.868,158.207z"/>
		<path fill-rule="evenodd" fill="#F27309" d="M16.144,158.47c-4.434-10.131-2.22-16.472,0.203-20.915
			c2.813-0.67,1.895,5.752,5.064,11.562c5.047,9.25,15.117,3.97,23.371-2.232c5.859-4.403,11.871-5.621,13.782-6.394
			c2.209,7.202,2.167,18.418-8.201,25.904C38.602,174.931,22.203,170.766,16.144,158.47L16.144,158.47z"/>
		<path fill-rule="evenodd" fill="#F37E09" d="M16.419,158.734c-4.375-9.668-2.476-15.99-0.178-20.552
			c2.605-0.302,1.878,5.847,4.974,11.384c5.203,9.306,15.632,4.655,24.006-1.637c5.739-4.312,11.461-5.861,13.284-7.034
			c2.119,7.245,1.811,18.176-8.218,25.436C38.726,174.744,22.581,170.781,16.419,158.734L16.419,158.734z"/>
		<path fill-rule="evenodd" fill="#F48A08" d="M16.695,158.997c-4.316-9.205-2.732-15.509-0.56-20.188
			c2.398,0.067,1.867,5.94,4.885,11.207c5.364,9.359,16.148,5.34,24.642-1.042c5.62-4.222,11.051-6.101,12.786-7.675
			c2.028,7.289,1.455,17.934-8.235,24.967C38.85,174.557,22.96,170.797,16.695,158.997L16.695,158.997z"/>
		<path fill-rule="evenodd" fill="#F59507" d="M16.971,159.26c-4.256-8.741-2.988-15.027-0.941-19.825
			c2.191,0.435,1.858,6.031,4.796,11.03c5.531,9.41,16.664,6.024,25.277-0.448c5.5-4.132,10.641-6.341,12.288-8.316
			c1.938,7.332,1.1,17.692-8.252,24.498C38.974,174.369,23.339,170.813,16.971,159.26L16.971,159.26z"/>
		<path fill-rule="evenodd" fill="#F7A106" d="M17.247,159.523c-4.197-8.277-3.245-14.545-1.323-19.461
			c1.984,0.804,1.852,6.12,4.707,10.853c5.705,9.456,17.179,6.71,25.913,0.147c5.38-4.042,10.231-6.582,11.791-8.957
			c1.848,7.375,0.744,17.45-8.27,24.029C39.098,174.182,23.718,170.829,17.247,159.523L17.247,159.523z"/>
		<path fill-rule="evenodd" fill="#F8AC05" d="M17.522,159.787c-4.138-7.813-3.501-14.064-1.705-19.098
			c1.777,1.172,1.849,6.207,4.617,10.675c5.885,9.498,17.695,7.395,26.548,0.742c5.26-3.952,9.821-6.822,11.292-9.598
			c1.757,7.418,0.388,17.208-8.287,23.561C39.222,173.995,24.096,170.845,17.522,159.787L17.522,159.787z"/>
		<path fill-rule="evenodd" fill="#F9B804" d="M17.798,160.05c-4.078-7.35-3.757-13.583-2.086-18.734
			c1.571,1.541,1.849,6.293,4.528,10.499c6.073,9.533,18.211,8.079,27.184,1.337c5.14-3.862,9.41-7.063,10.794-10.239
			c1.667,7.461,0.033,16.966-8.304,23.092C39.346,173.808,24.475,170.861,17.798,160.05L17.798,160.05z"/>
		<path fill-rule="evenodd" fill="#FAC303" d="M18.074,160.313c-4.019-6.886-4.014-13.101-2.467-18.371
			c1.363,1.909,1.852,6.376,4.438,10.321c6.271,9.563,18.727,8.765,27.82,1.932c5.02-3.772,9-7.303,10.296-10.88
			c1.577,7.505-0.323,16.724-8.321,22.623C39.47,173.62,24.854,170.877,18.074,160.313L18.074,160.313z"/>
		<path fill-rule="evenodd" fill="#FBCF03" d="M18.35,160.577c-3.96-6.423-4.27-12.62-2.849-18.008
			c1.157,2.278,1.856,6.457,4.35,10.144c6.48,9.583,19.242,9.449,28.455,2.527c4.9-3.682,8.59-7.543,9.798-11.521
			c1.486,7.548-0.678,16.482-8.338,22.154C39.594,173.433,25.233,170.893,18.35,160.577L18.35,160.577z"/>
		<path fill-rule="evenodd" fill="#FDDA02" d="M18.625,160.84c-3.9-5.959-4.527-12.138-3.231-17.644
			c0.95,2.646,1.863,6.535,4.26,9.967c6.702,9.594,19.758,10.134,29.091,3.122c4.78-3.592,8.18-7.784,9.3-12.162
			c1.396,7.591-1.034,16.24-8.355,21.686C39.718,173.246,25.611,170.909,18.625,160.84L18.625,160.84z"/>
		<path fill-rule="evenodd" fill="#FEE601" d="M18.901,161.103c-3.841-5.496-4.783-11.656-3.612-17.281
			c0.743,3.015,1.872,6.611,4.171,9.79c6.939,9.591,20.273,10.819,29.726,3.717c4.66-3.502,7.77-8.024,8.802-12.803
			c1.306,7.634-1.39,15.998-8.373,21.217C39.842,173.059,25.99,170.924,18.901,161.103L18.901,161.103z"/>
		<path fill-rule="evenodd" fill="#FFF100" d="M19.177,161.366c-3.782-5.032-5.039-11.175-3.994-16.917
			c0.536,3.383,1.882,6.685,4.082,9.612c7.192,9.573,20.79,11.504,30.362,4.312c4.541-3.412,7.36-8.265,8.304-13.444
			c1.215,7.678-1.745,15.756-8.39,20.748C39.966,172.871,26.369,170.94,19.177,161.366L19.177,161.366z"/>
	</g>
</g>
</svg>
