<?xml version="1.0" encoding="utf-8"?>
<!-- Generator: Adobe Illustrator 15.0.0, SVG Export Plug-In . SVG Version: 6.00 Build 0)  -->
<!DOCTYPE svg PUBLIC "-//W3C//DTD SVG 1.1 Tiny//EN" "http://www.w3.org/Graphics/SVG/1.1/DTD/svg11-tiny.dtd">
<svg version="1.1" baseProfile="tiny" id="_x31_3-16"
	 xmlns="http://www.w3.org/2000/svg" xmlns:xlink="http://www.w3.org/1999/xlink" x="0px" y="0px" width="89.663px"
	 height="104.662px" viewBox="0 0 89.663 104.662" xml:space="preserve">
<g>
	<linearGradient id="SVGID_1_" gradientUnits="userSpaceOnUse" x1="45.5586" y1="-35.2617" x2="44.3945" y2="107.9284">
		<stop  offset="0" style="stop-color:#FFC800"/>
		<stop  offset="0.1042" style="stop-color:#FFBD00"/>
		<stop  offset="0.2875" style="stop-color:#FFA000"/>
		<stop  offset="0.5282" style="stop-color:#FF7000"/>
		<stop  offset="0.814" style="stop-color:#FF2E00"/>
		<stop  offset="1" style="stop-color:#FF0000"/>
	</linearGradient>
	<path fill-rule="evenodd" fill="url(#SVGID_1_)" d="M18.772,102.71c0,0-14.743-7.842-17.879-30.74s2.976-27.947,3.29-38.926
		c0,0,3.193,4.085,4.866,13.204c1.384,7.546,5.056,10.465,7.134,9.546c3.229-1.428,6.981-11.115,8.549-19.584
		s0.313-24.467,9.41-27.917c0,0-1.987,2.694-2.241,7.585c-0.492,9.478,2.462,22.894,4.751,25.352c0,0,5.959-8.784,5.019-14.116
		c0,0,2.196,1.255,3.137,5.96s0.941,17.565,3.764,16.938s2.615-10.014,2.196-14.742c-0.65-7.33,3.81-16.187,7.843-20.623
		C63.533,9.231,63.903,4.308,61.687,0c0,0,8.616,5.17,11.201,26.955c0.896,7.555-2.436,17.839-3.692,27.447
		c-1.211,9.258-0.479,16.774,3.215,16.313c7.528-0.941,5.022-17.671,17.252-22.271c0,0-4.48,1.101-3.764,12.233
		c0.665,10.335,2.509,33.878-12.547,42.033C73.352,102.71,41.043,107.102,18.772,102.71z"/>
	<linearGradient id="SVGID_2_" gradientUnits="userSpaceOnUse" x1="42.9194" y1="47.1699" x2="43.981" y2="91.7715">
		<stop  offset="0" style="stop-color:#FF0000"/>
		<stop  offset="0.3683" style="stop-color:#E90000"/>
		<stop  offset="1" style="stop-color:#C80000"/>
	</linearGradient>
	<path fill-rule="evenodd" fill="url(#SVGID_2_)" d="M73.183,101.044c0,0-34.794,7.5-54.75-1.5c0,0-15.5-16-14.75-26.75
		s3.5-24,2.75-27.75c0,0,2.5,13.75,8.25,14s7.75-6,10.25-12.25s3-19,5.25-22.75c0,0-1,15,6,22.25c0,0,5.5-3.5,6.5-10.25
		c0,0,2,3,2,9.75s3.75,9.5,6.25,8.5s3.25-6.25,3.25-12s-0.54-11.687,4-16.75c6.5-7.25,8.25-11.75,8.25-15.5
		c0,0,4.25,17.25,1.25,30.5s-3,25.75-1.25,31.25c1.899,5.97,11,6,16.75-7.25C83.183,64.544,85.183,91.794,73.183,101.044z"/>
	<radialGradient id="SVGID_3_" cx="45.9634" cy="64.8672" r="44.5284" gradientUnits="userSpaceOnUse">
		<stop  offset="0" style="stop-color:#FFFF64"/>
		<stop  offset="0.1734" style="stop-color:#FFEA56"/>
		<stop  offset="0.532" style="stop-color:#FFB333"/>
		<stop  offset="1" style="stop-color:#FF6400"/>
	</radialGradient>
	<path fill-rule="evenodd" fill="url(#SVGID_3_)" d="M69.389,99.294c0,0-19.25,5.25-46.5,0c0,0-16.206-14.5-11.956-31.25
		c0,0,4.25,9.5,9.25,7.75s8.75-9,7.75-30.5c0,0,6.75,10.5,6.75,18.25c0,0,1.25-9.5,6-13.5c0,0-3.5,22.25,6.25,23s8.75-31.5,17.5-36
		c0,0-3.5,2.75-4.25,14.5s-1.25,29.25,5.75,29.75s8.75-5.25,13.75-5c0,0-2.5,0.25-4.75,6.25S73.139,98.044,69.389,99.294z"/>
</g>
</svg>
