<?xml version="1.0" encoding="utf-8"?>
<!-- Generator: Adobe Illustrator 15.0.0, SVG Export Plug-In . SVG Version: 6.00 Build 0)  -->
<!DOCTYPE svg PUBLIC "-//W3C//DTD SVG 1.1 Tiny//EN" "http://www.w3.org/Graphics/SVG/1.1/DTD/svg11-tiny.dtd">
<svg version="1.1" baseProfile="tiny" id="_x30_1-04"
	 xmlns="http://www.w3.org/2000/svg" xmlns:xlink="http://www.w3.org/1999/xlink" x="0px" y="0px" width="81.548px"
	 height="87.61px" viewBox="0 0 81.548 87.61" xml:space="preserve">
<g>
	<radialGradient id="SVGID_1_" cx="42.3857" cy="45.3633" r="64.5441" gradientUnits="userSpaceOnUse">
		<stop  offset="0" style="stop-color:#D6E3FF"/>
		<stop  offset="0.4121" style="stop-color:#A3D6FF"/>
		<stop  offset="0.8077" style="stop-color:#BFD6FF"/>
		<stop  offset="0.9176" style="stop-color:#A9D6FF"/>
		<stop  offset="1" style="stop-color:#96D6FF"/>
	</radialGradient>
	<path fill-rule="evenodd" fill="url(#SVGID_1_)" stroke="#D6E3FF" stroke-width="2" d="M36.784,86.61l0.286-1.69
		c0.593-3.547,0.879-7.036,0.544-10.494l-0.247-1.641l-0.86,0.395c-2.432,1.334-4.626,3.192-6.62,5.535L28.7,80.107l-4.991-6.828
		l1.534-0.771c3.763-1.888,6.947-4.062,9.644-6.454l2.243-2.174l0.444-3.488c0.009-0.603-0.029-1.177-0.1-1.739l-0.018-0.059
		l-0.92,0.385c-2.282,1.177-4.181,2.886-5.812,5.03l-4.704,6.176l2.165-7.46c0.75-2.59,1.195-5.159,1.224-7.689l-0.037-0.84
		l-0.169,0.041c-1.146,0.385-2.185,0.938-3.094,1.709l-1.096,1.146l-0.799,3.41c-0.773,3.716-1.14,7.373-0.743,10.989l0.198,1.79
		l-8.619-0.939l0.763-1.788c1.205-2.807,1.858-5.494,1.689-8.124l-0.218-1.195l-1.808,0.514c-3.113,1.146-5.861,3.014-8.242,5.653
		l-1.345,1.482l-4.15-7.253l11.69-6.691l-0.7-0.513c-2.521-1.542-5.139-2.441-7.856-2.797L2.947,51.38l3.499-7.935l-3.46-7.827
		l1.938-0.247c2.589-0.317,5.06-1.106,7.392-2.57l0.938-0.691l-1.265-1.097c-2.639-2.016-5.504-3.399-8.607-4.17l-1.857-0.465
		l4.3-7.51l1.332,1.245c2.569,2.381,5.446,4.171,8.579,5.514l1.422,0.544l0.06-1.117c0.03-2.965-0.404-5.781-1.402-8.43
		l-0.651-1.739l8.724-0.948l-0.029-0.021l5.121-6.977l1.165,1.602c1.512,2.075,3.566,3.794,6.146,5.188l0.919,0.435l0.366-4.765
		c0.009-2.241-0.138-4.485-0.504-6.708L36.793,1h8.38l-0.344,1.739c-0.653,3.291-0.841,6.572-0.506,9.854l0.229,1.472l0.573-0.257
		c2.154-1.215,4.229-3.063,6.324-5.297l1.196-1.274l5.05,6.907l-1.769,0.672c-3.163,1.226-6.137,2.886-8.806,5.446l-2.423,2.717
		l-0.502,1.65c-0.259,1.226-0.287,2.422-0.04,3.608l0.118,0.354l0.711-0.335c2.085-1.126,4.063-2.678,5.89-4.862l6.009-7.194
		l-3.556,8.667c-1.118,2.728-1.554,5.277-1.425,7.688l0.118,0.889l0.188-0.039c1.047-0.375,2.076-0.998,3.094-1.828l1.274-1.167
		l0.8-3.221c0.741-3.617,1.009-7.353,0.712-11.226l-0.128-1.74l8.391,0.919l-0.555,1.691c-0.919,2.846-1.462,5.632-1.443,8.379
		l0.08,0.949l1.066-0.395c2.827-1.255,5.851-3.251,9.053-5.782l1.323-1.037l4.181,7.293l-1.737,0.533
		c-3.511,1.067-6.594,2.4-9.014,4.279l-1.027,0.979l1.008,0.721c2.332,1.423,4.655,2.125,6.994,2.431l1.919,0.256l-3.537,8.015
		l-1.483-1.226c-2.778-2.292-5.888-3.795-9.27-4.772l-3.182-0.751l-1.778,0.444c-1.267,0.406-2.343,0.959-3.213,1.721l-0.226,0.266
		l0.769,0.544c2.086,1.225,4.538,2.006,7.234,2.628l6.543,1.542l-6.592,1.294c-2.351,0.464-4.686,1.206-7.006,2.549l-1,0.672
		l0.169,0.188c0.869,0.742,1.878,1.266,3.016,1.631l1.501,0.375l3.173-0.889c3.438-1.136,6.749-2.807,9.971-4.96l1.433-0.959
		l3.42,7.759l-1.799,0.325c-3.044,0.563-5.721,1.374-7.877,2.738l-0.691,0.533l1.374,1.137c2.807,2.015,5.89,3.498,9.21,4.596
		l1.69,0.553l-4.23,7.382l-1.335-1.236c-2.489-2.302-5.227-4.2-8.369-5.534l-1.76-0.612l-0.177,1.107
		c-0.108,2.608,0.624,5.119,1.62,7.766l0.643,1.74l-8.448,0.919l0.118-1.729c0.237-3.43,0.068-6.958-0.652-10.624l-0.84-3.449
		l-0.949-1.038c-0.83-0.702-1.896-1.235-3.174-1.69l-0.395-0.119l-0.079,0.939c-0.048,2.589,0.415,5.049,1.314,7.401l2.985,7.836
		l-5.436-6.384c-1.521-1.778-3.389-3.329-5.67-4.653l-0.873-0.455l-0.028,0.108c-0.207,1.166-0.197,2.323,0.009,3.489l0.387,1.482
		l2.242,2.272c2.57,2.422,5.484,4.527,9.172,6.028l1.709,0.702l-5.029,6.869l-1.187-1.275c-1.957-2.085-4.012-3.903-6.334-5.248
		l-0.752-0.366l-0.247,1.561c-0.336,3.399-0.039,6.83,0.553,10.336l0.288,1.69H36.784z M21.416,50.54l1.365-0.366
		c1.088-0.364,2.094-0.878,3.044-1.64l0.246-0.258l-0.603-0.434c-2.036-1.245-4.527-2.115-7.382-2.698l-6.257-1.275l6.187-1.551
		c2.551-0.633,4.941-1.403,7.125-2.639l0.723-0.475l-0.109-0.109c-0.929-0.799-1.936-1.472-3.141-1.916l-1.751-0.456l-3.28,0.791
		c-3.479,1.027-6.702,2.589-9.586,4.921l-1.395,1.117l1.307,0.988c2.904,2.193,6.246,3.854,9.971,5.04L21.416,50.54z M29.431,33.374
		l0.042-0.701c-0.031-2.451-0.574-5.129-1.306-8.004l-1.463-5.832l3.961,4.526c2.136,2.441,4.231,4.111,6.286,5.208l0.356,0.159
		l0.257-2.085l-0.435-3.499l-2.323-2.263c-2.747-2.461-5.828-4.567-9.348-6.216l-1.502-0.702l-0.494,1.976
		c-0.899,3.597-0.614,7.254,0.406,10.999l1.165,3.519l1.037,1.048c0.86,0.74,1.868,1.343,3.043,1.787L29.431,33.374z"/>
</g>
</svg>
