<?xml version="1.0" encoding="utf-8"?>
<!-- Generator: Adobe Illustrator 15.0.0, SVG Export Plug-In . SVG Version: 6.00 Build 0)  -->
<!DOCTYPE svg PUBLIC "-//W3C//DTD SVG 1.1 Tiny//EN" "http://www.w3.org/Graphics/SVG/1.1/DTD/svg11-tiny.dtd">
<svg version="1.1" baseProfile="tiny" id="_x31_3-16"
	 xmlns="http://www.w3.org/2000/svg" xmlns:xlink="http://www.w3.org/1999/xlink" x="0px" y="0px" width="100.76px"
	 height="96.75px" viewBox="0 0 100.76 96.75" xml:space="preserve">
<g>
	<linearGradient id="SVGID_1_" gradientUnits="userSpaceOnUse" x1="50.3931" y1="50.8242" x2="50.2329" y2="88.8862">
		<stop  offset="0" style="stop-color:#0000B4"/>
		<stop  offset="1" style="stop-color:#000078"/>
	</linearGradient>
	<path fill-rule="evenodd" fill="url(#SVGID_1_)" d="M88.875,92.224c0,0-34.128,9.012-79.38-0.191c0,0-5.116-3.627-6.902-7.861
		c-0.897-2.127-3.451-15.147-2.301-20.516S5.661,51.577,2.21,38.539c0,0,5.368,6.519,6.71,12.846s2.109,11.312,5.752,12.846
		c0,0-2.685-6.518-1.15-10.736s4.602-3.068,6.327-6.52c0,0-2.109,7.669,4.793,9.203c0,0-0.958-10.354,5.369-18.598
		c0,0,1.534,9.395,3.643,10.929s0.575-3.067,2.684-3.451s1.534,2.877,4.026,2.685s2.109-15.915,0.767-21.475
		c0,0,1.15,5.562,3.067,4.794s-1.342-18.982,4.602-20.133c0,0-3.067,1.151-2.109,8.82s2.3,18.79,2.684,22.241
		s1.342,7.86,2.876,7.094s2.301-6.52,4.41-7.286c0,0-2.301,1.726-1.917,5.752s2.301,16.873,6.902,16.873s1.342-25.693,7.094-30.103
		c0,0,0.383,7.287,3.259,7.67s-0.575-17.641,3.835-20.324c0,0-2.109,3.068-0.767,6.711s7.094,12.079,7.286,15.53
		s-2.492,13.037-2.492,17.447S80.629,71.9,82.738,71.9s8.244-17.448,7.286-23.2c0,0,0.192,5.752,1.917,5.752
		s3.834-12.845,8.819-13.612c0,0-2.685,0.575-3.451,9.395S101.721,83.979,88.875,92.224z"/>
	<linearGradient id="SVGID_2_" gradientUnits="userSpaceOnUse" x1="29.498" y1="23.6875" x2="29.498" y2="40.3535">
		<stop  offset="0" style="stop-color:#0000B4"/>
		<stop  offset="1" style="stop-color:#000078"/>
	</linearGradient>
	<path fill-rule="evenodd" fill="url(#SVGID_2_)" d="M28.288,11.313c0,0-5.944,15.722,1.917,24.733c0,0-0.191-0.958,1.342-4.409
		s1.726-8.628,0.575-11.313S28.48,15.723,28.288,11.313z"/>
	<linearGradient id="SVGID_3_" gradientUnits="userSpaceOnUse" x1="76.2856" y1="9.6826" x2="82.085" y2="9.6826">
		<stop  offset="0" style="stop-color:#0000B4"/>
		<stop  offset="1" style="stop-color:#000078"/>
	</linearGradient>
	<path fill="url(#SVGID_3_)" d="M78.33,19.365c0,0-0.959-5.56-1.917-7.094S80.248,3.451,80.056,0
		C80.056,0,85.616,10.737,78.33,19.365z"/>
	<linearGradient id="SVGID_4_" gradientUnits="userSpaceOnUse" x1="60.5859" y1="39.3623" x2="62.5859" y2="67.6964">
		<stop  offset="0" style="stop-color:#0000B4"/>
		<stop  offset="1" style="stop-color:#000078"/>
	</linearGradient>
	<path fill="url(#SVGID_4_)" d="M59.349,25.885c0,0-4.602,13.804,1.534,22.24c0,0,0.993-3.376,1.917-6.519
		C64.717,35.088,60.116,29.912,59.349,25.885z"/>
	<linearGradient id="SVGID_5_" gradientUnits="userSpaceOnUse" x1="49.3423" y1="65.8076" x2="49.0225" y2="96.1934">
		<stop  offset="0" style="stop-color:#9999FF"/>
		<stop  offset="1" style="stop-color:#CCF2FF"/>
	</linearGradient>
	<path fill-rule="evenodd" fill="url(#SVGID_5_)" d="M86.746,92.719c-0.246,0.207-0.662,0.142-1.042,0.22
		c-9.451,1.935-37.966,6.644-75.087-0.906c0,0-1.962-3.012-4.068-5.408c0,0-4.377-8.438-2.652-14.189s3.492-16.832,2.149-20.858
		c0,0,1.534,2.492,2.301,6.902s3.834,10.929,8.436,12.654c0,0-2.684-11.504,0.959-15.722c0,0,1.534,5.943,8.053,6.327
		c0,0,0.958-12.654,4.026-16.681c0,0-0.192,5.177,1.534,8.628c0,0,0.767-0.959,1.917-1.534c0,0-0.192,5.369,4.026,8.82
		c0,0-0.958-7.669,1.15-9.778c0,0,0,3.451,2.493,5.943s3.835-8.436,4.026-11.695s-0.383-9.778,1.15-12.654
		c0,0-0.575,3.068,0.383,7.478s3.067,14.764,2.684,18.981s2.876-1.15,4.793-4.985c0,0-0.767,6.52,1.342,11.888
		s6.71,8.628,9.778-2.685s2.301-13.229,3.643-15.722c0,0,0.191,6.135,3.643,7.669c0,0,5.177-11.505,4.026-18.215
		c0,0,3.259,8.053,1.726,14.764s-1.15,23.008,2.876,23.583s8.437-11.888,9.587-16.681c0,0-0.768,4.219,0.191,4.41
		s2.876-6.52,4.41-8.245c0,0-2.876,5.944-2.301,14.188S92.094,88.229,86.746,92.719z"/>
	<linearGradient id="SVGID_6_" gradientUnits="userSpaceOnUse" x1="47.9785" y1="79.9287" x2="47.9785" y2="91.9238">
		<stop  offset="0" style="stop-color:#C3EBFF"/>
		<stop  offset="0.7741" style="stop-color:#D6EFFF"/>
		<stop  offset="1" style="stop-color:#DCF0FF"/>
	</linearGradient>
	<path fill-rule="evenodd" fill="url(#SVGID_6_)" d="M83.55,93.937c-0.356,0.369-1.042,0.19-1.612,0.289
		c-12.2,2.103-37.591,5.114-70.681-1.616c0,0-1.8-2.672-3.63-4.758c0,0-3.525-5.115-1.792-12.152
		c1.697-6.888,1.554-9.167,1.554-11.468c0,0,1.342,12.078,4.218,14.763c0,0,0-2.492,0.767-4.218c0,0,0.191,5.368,2.492,7.669
		c0,0-0.767-4.409,1.726-6.519s3.643-9.395,3.068-11.695c0,0,3.451,3.835,4.41,8.053c0,0,5.56-4.219,5.177-13.613
		c0,0,1.534,6.136,2.109,9.203s1.917,5.177,3.643,5.177s6.711-6.326,5.752-11.12c0,0,2.301,6.136,2.109,7.478
		c0,0,3.451-13.996,3.259-18.79c0,0,1.726,7.861,1.15,11.504s-2.109,18.98-1.15,19.173s2.109-11.695,5.944-16.872
		c0,0-1.151,2.876-0.192,7.478s5.369,8.819,7.286,8.053s8.628-9.586,10.354-16.872c0,0,0.383,6.52,2.109,6.902
		s0.191-11.888,3.834-15.914c0,0-1.726,2.877-0.958,8.437s2.876,9.778,2.876,14.571s3.068,8.244,5.944,2.876
		s4.985-8.437,7.286-8.628c0,0-3.067,0.767-3.643,6.519S88.567,88.745,83.55,93.937z"/>
	<linearGradient id="SVGID_7_" gradientUnits="userSpaceOnUse" x1="46.3125" y1="80.5469" x2="46.3125" y2="94.1416">
		<stop  offset="0" style="stop-color:#FFFFFF"/>
		<stop  offset="0.1807" style="stop-color:#F8FCFF"/>
		<stop  offset="1" style="stop-color:#DCF0FF"/>
	</linearGradient>
	<path fill-rule="evenodd" fill="url(#SVGID_7_)" d="M76.351,93.503c-0.43,0.143-0.907,0.121-1.377,0.181
		c-13.366,1.692-35.339,2.88-61.342-1.854c0,0-4.259-4.874-4.259-11.369c0,0,1.88,4.614,7.862,6.152c0,0-0.171-1.879,1.025-5.469
		s3.76-5.641,3.589-9.571c0,0,2.734,5.982,2.905,10.255s1.197,1.539,2.564-1.709s1.879-5.641,3.418-6.837
		c0,0-1.709,2.735,0.342,8.546s6.837,7.862,6.666,7.35c-0.342-1.025-3.418-9.571,0.854-16.579c0,0-1.88,5.298,1.538,8.546
		c0,0,3.418-6.324,3.76-11.451c0,0,0,5.981-0.513,9.229s1.196,7.349,2.734,7.007s2.564-7.008,4.444-8.888
		c0,0-0.854,7.35,3.077,9.059s4.443-2.563,8.204-4.272c0,0-2.222,1.538-0.684,4.272s2.222,0.513,3.418-2.222s2.393-8.033,5.64-8.717
		c0,0-3.59,0.854-1.539,7.691s8.375,8.375,14.528,0.513C83.208,83.365,84.233,90.886,76.351,93.503z"/>
	<linearGradient id="SVGID_8_" gradientUnits="userSpaceOnUse" x1="29.811" y1="36.7109" x2="30.1441" y2="25.7105">
		<stop  offset="0" style="stop-color:#9999FF"/>
		<stop  offset="1" style="stop-color:#CCF2FF"/>
	</linearGradient>
	<path fill-rule="evenodd" fill="url(#SVGID_8_)" d="M29.247,21.283c0,0-2.301,8.244,0.767,11.695c0,0,0.767-2.684,1.534-4.218
		S30.972,23.584,29.247,21.283z"/>
	<linearGradient id="SVGID_9_" gradientUnits="userSpaceOnUse" x1="60.3433" y1="44.0205" x2="60.3433" y2="33.3535">
		<stop  offset="0" style="stop-color:#CCF2FF"/>
		<stop  offset="0.2594" style="stop-color:#D1F3FF"/>
		<stop  offset="0.5846" style="stop-color:#E1F7FF"/>
		<stop  offset="0.9437" style="stop-color:#FAFEFF"/>
		<stop  offset="1" style="stop-color:#FFFFFF"/>
	</linearGradient>
	<path fill-rule="evenodd" fill="url(#SVGID_9_)" d="M59.732,31.253c0,0-2.685,6.519,0.767,13.805c0,0,0.191-2.108,1.15-4.793
		S61.075,33.938,59.732,31.253z"/>
	<linearGradient id="SVGID_10_" gradientUnits="userSpaceOnUse" x1="77.8989" y1="9.9707" x2="81.1411" y2="9.9707">
		<stop  offset="0" style="stop-color:#9999FF"/>
		<stop  offset="1" style="stop-color:#CCF2FF"/>
	</linearGradient>
	<path fill-rule="evenodd" fill="url(#SVGID_10_)" d="M80.248,4.219c0,0-0.958,3.644-1.726,4.985s-0.958,3.259,0.192,6.519
		C78.714,15.723,82.932,11.313,80.248,4.219z"/>
</g>
</svg>
