<?xml version="1.0" encoding="utf-8"?>
<!-- Generator: Adobe Illustrator 15.0.0, SVG Export Plug-In . SVG Version: 6.00 Build 0)  -->
<!DOCTYPE svg PUBLIC "-//W3C//DTD SVG 1.1 Tiny//EN" "http://www.w3.org/Graphics/SVG/1.1/DTD/svg11-tiny.dtd">
<svg version="1.1" baseProfile="tiny" id="_x31_3-16"
	 xmlns="http://www.w3.org/2000/svg" xmlns:xlink="http://www.w3.org/1999/xlink" x="0px" y="0px" width="134.141px"
	 height="75.256px" viewBox="0 0 134.141 75.256" xml:space="preserve">
<g>
	<linearGradient id="SVGID_1_" gradientUnits="userSpaceOnUse" x1="66.4951" y1="24.5957" x2="67.8086" y2="77.999">
		<stop  offset="0" style="stop-color:#FFFF96"/>
		<stop  offset="0.0248" style="stop-color:#FFFF80"/>
		<stop  offset="0.0905" style="stop-color:#FFFF49"/>
		<stop  offset="0.1473" style="stop-color:#FFFF21"/>
		<stop  offset="0.1922" style="stop-color:#FFFF09"/>
		<stop  offset="0.2198" style="stop-color:#FFFF00"/>
		<stop  offset="0.4037" style="stop-color:#FFED00"/>
		<stop  offset="0.7687" style="stop-color:#FFC000"/>
		<stop  offset="1" style="stop-color:#FFA000"/>
	</linearGradient>
	<path fill="url(#SVGID_1_)" d="M125.682,71.583c0,0-84.082,8.806-118.169-0.853c0,0-10.227-21.021-6.817-32.667
		c0,0,1.705,4.261,3.693,5.113c0,0,2.84-2.272,3.124-4.829s0-11.078,2.272-12.782c0,0-1.419,1.705-0.567,7.386
		s2.272,17.328,4.829,20.736c0,0-2.558-11.931,3.124-15.056c0,0-5.682,9.941,8.806,24.997c0,0-2.271-20.451-5.396-23.86
		c0,0,3.977,0.284,6.249,1.42c0,0,0.854-14.202,7.954-17.611c0,0-2.273,2.841-1.421,6.817s9.658,17.895,7.67,25.849
		c0,0,6.249-7.386,4.545-13.919s-5.113-19.031-0.284-23.576c0,0,4.261,5.112,6.533,6.249c0,0-1.704-13.92,7.102-19.032
		c0,0-3.409,2.842-2.841,8.238s4.829,22.441,2.272,32.667c0,0,3.693-2.558,3.693-9.091c0,0,3.408,7.387,3.408,13.636
		c0,0,1.705,0.567,1.421-7.954s-2.273-16.191,0.567-22.44s3.978-7.67,3.978-11.931c0,0,3.693,3.976,4.261,10.51
		s7.953,18.749,7.953,24.714c0,0,1.421-7.955,5.113-10.795s11.078-3.976,13.635-7.385c0,0,4.545,18.181,2.272,25.281
		c0,0,3.125-4.545,4.829-11.646s2.841-11.078,7.102-13.635c0,0-3.125,3.124-2.841,7.953s4.829,15.055,4.545,20.168
		c0,0,4.544-3.693,6.249-13.919s-6.248-18.463-0.567-24.145c0,0-2.84,7.386,4.829,13.351c0,0,0-7.67,1.704-9.374
		c0,0-1.421,3.693,1.136,14.203S137.612,65.902,125.682,71.583z"/>
	<linearGradient id="SVGID_2_" gradientUnits="userSpaceOnUse" x1="66.8828" y1="42.6543" x2="66.8828" y2="72.1543">
		<stop  offset="0" style="stop-color:#FFA000"/>
		<stop  offset="0.1753" style="stop-color:#FF9B00"/>
		<stop  offset="0.3898" style="stop-color:#FF8C00"/>
		<stop  offset="0.6246" style="stop-color:#FF7300"/>
		<stop  offset="0.8724" style="stop-color:#FF5100"/>
		<stop  offset="1" style="stop-color:#FF3C00"/>
	</linearGradient>
	<path fill="url(#SVGID_2_)" d="M122.561,71.89c-0.38,0.346-1.082,0.103-1.708,0.16c-18.062,1.66-82.116,6.784-111.944-0.942
		c-0.474-0.122-0.938-0.248-1.395-0.377c0,0-6.533-16.76-4.829-22.725c0,0,1.988,4.261,3.977,4.829c0,0,0.568-8.237,2.272-13.066
		c0,0-0.285,13.636,5.681,18.464c0,0,1.137-2.842,1.137-6.534c0,0,4.261,11.079,11.078,12.499c0,0,5.396-11.93,1.704-17.327
		c0,0,2.273,0.567,3.978,3.408c0,0-3.977-10.511-0.284-14.487c0,0-1.705,3.978,0.852,8.522s7.386,8.521,7.386,13.066
		c0,0,4.26,0.853,8.521-7.102s-3.692-16.759-1.42-22.156c0,0,0.284,5.682,4.545,9.09c0,0-0.568-8.807,2.272-12.215
		c0,0-0.283,3.408,1.137,6.249s3.125,13.919,2.272,16.76c0,0,2.271-0.853,4.828-3.125c0,0,2.272,4.829,2.272,7.954
		c0,0,4.545-1.704,5.397-7.102s-1.988-21.872,2.272-24.997c0,0-1.987,3.409,1.137,9.374s8.521,16.475,8.237,22.156
		c0,0,3.126-4.828,7.954-7.953s7.67-2.84,10.794-9.09c0,0,3.976,5.965,3.124,17.327c0,0,7.669-4.26,9.09-10.51
		c0,0,3.692,5.397,4.545,13.351c0,0,13.636-7.669,10.511-22.725C127.954,32.667,138.472,57.426,122.561,71.89z"/>
	<linearGradient id="SVGID_3_" gradientUnits="userSpaceOnUse" x1="17.7383" y1="17.6504" x2="18.0781" y2="36.3447">
		<stop  offset="0" style="stop-color:#FF6400"/>
		<stop  offset="0.449" style="stop-color:#EC3900"/>
		<stop  offset="1" style="stop-color:#D20000"/>
	</linearGradient>
	<path fill="url(#SVGID_3_)" d="M17.171,4.829c0,0-4.829,5.397-4.261,11.362s6.534,15.624,5.397,19.032c0,0,5.397-4.83,4.261-10.511
		S13.478,13.351,17.171,4.829z"/>
	<linearGradient id="SVGID_4_" gradientUnits="userSpaceOnUse" x1="38.9248" y1="3.4482" x2="38.4902" y2="16.686">
		<stop  offset="0" style="stop-color:#FFFF96"/>
		<stop  offset="0.1303" style="stop-color:#FFFB8B"/>
		<stop  offset="0.3594" style="stop-color:#FFEF6E"/>
		<stop  offset="0.6604" style="stop-color:#FFDD3E"/>
		<stop  offset="1" style="stop-color:#FFC500"/>
	</linearGradient>
	<path fill="url(#SVGID_4_)" d="M38.76,0c0,0-0.001,5.966-1.137,7.67s-3.125,5.396-0.284,8.521C37.339,16.191,45.577,14.487,38.76,0
		z"/>
	<linearGradient id="SVGID_5_" gradientUnits="userSpaceOnUse" x1="87.1455" y1="16.7314" x2="72.7002" y2="29.8174">
		<stop  offset="0" style="stop-color:#FFB200"/>
		<stop  offset="1" style="stop-color:#FF1400"/>
	</linearGradient>
	<path fill="url(#SVGID_5_)" d="M84.209,25.565c0,0-4.546-6.533,1.42-13.635c0,0,1.296,2.541,1.421,4.545
		C87.334,21.021,84.493,20.736,84.209,25.565z"/>
	<linearGradient id="SVGID_6_" gradientUnits="userSpaceOnUse" x1="102.959" y1="12.0723" x2="111.9766" y2="12.0723">
		<stop  offset="0" style="stop-color:#FF9600"/>
		<stop  offset="0.1303" style="stop-color:#FF8B00"/>
		<stop  offset="0.3594" style="stop-color:#FF6E00"/>
		<stop  offset="0.6604" style="stop-color:#FF3E00"/>
		<stop  offset="1" style="stop-color:#FF0000"/>
	</linearGradient>
	<path fill="url(#SVGID_6_)" d="M109.774,1.704c0,0,1.136,2.841-3.125,7.386s-4.261,8.522-2.841,13.351c0,0-0.184-2.952,1.989-4.545
		C110.059,14.771,114.888,8.521,109.774,1.704z"/>
	<linearGradient id="SVGID_7_" gradientUnits="userSpaceOnUse" x1="69.2959" y1="56.6924" x2="69.2959" y2="73.2676">
		<stop  offset="0" style="stop-color:#FF0000"/>
		<stop  offset="0.4586" style="stop-color:#F60000"/>
		<stop  offset="1" style="stop-color:#E60000"/>
	</linearGradient>
	<path fill="url(#SVGID_7_)" d="M69.722,73.287c-7.084-0.497-16.759,0.284-28.121,0.568s-24.431-2.272-29.543-4.545
		c0,0-0.284-9.09-4.545-11.646c0,0,6.534,3.407,8.522,7.669c0,0-0.569-1.704,0.852-3.977c0,0,7.103,7.669,17.328,8.521
		c0,0-2.84-10.794,0.568-15.055c0,0-1.988,10.227,9.09,9.374s6.533-21.588,10.51-24.997c0,0-5.396,10.795,5.113,19.032
		s19.032-5.967,15.623-15.908c0,0,4.261,7.671,2.557,13.352s-1.705,15.34,3.124,11.646s11.078-18.464,16.476-18.464
		c0,0-10.226,7.954-3.124,20.452c0,0,6.532-2.842,5.681-8.522c0,0,0.569,4.261,3.693,5.113s17.327-0.284,24.713-15.907
		c0,0,1.136,5.114-1.137,8.238c0,0,3.694-2.557,3.978-4.829c0,0-1.704,11.077-9.09,16.475
		C121.989,69.878,85.913,74.424,69.722,73.287z"/>
</g>
</svg>
