<?xml version="1.0" encoding="UTF-8" standalone="no"?>
<svg
   xmlns:a="http://ns.adobe.com/AdobeSVGViewerExtensions/3.0/"
   xmlns:dc="http://purl.org/dc/elements/1.1/"
   xmlns:cc="http://creativecommons.org/ns#"
   xmlns:rdf="http://www.w3.org/1999/02/22-rdf-syntax-ns#"
   xmlns:svg="http://www.w3.org/2000/svg"
   xmlns="http://www.w3.org/2000/svg"
   xmlns:sodipodi="http://sodipodi.sourceforge.net/DTD/sodipodi-0.dtd"
   xmlns:inkscape="http://www.inkscape.org/namespaces/inkscape"
   version="1.1"
   id="图层_1"
   x="0px"
   y="0px"
   width="45px"
   height="45px"
   viewBox="0 0 45 45"
   enable-background="new 0 0 45 45"
   xml:space="preserve"
   sodipodi:docname="圆形按钮指示灯_01-01.svg"><metadata
   id="metadata98"><rdf:RDF><cc:Work
       rdf:about=""><dc:format>image/svg+xml</dc:format><dc:type
         rdf:resource="http://purl.org/dc/dcmitype/StillImage" /></cc:Work></rdf:RDF></metadata><defs
   id="defs96" /><sodipodi:namedview
   pagecolor="#ffffff"
   bordercolor="#666666"
   borderopacity="1"
   objecttolerance="10"
   gridtolerance="10"
   guidetolerance="10"
   inkscape:pageopacity="0"
   inkscape:pageshadow="2"
   inkscape:window-width="640"
   inkscape:window-height="480"
   id="namedview94" />
<g
   id="g91">
	<linearGradient
   id="SVGID_1_"
   gradientUnits="userSpaceOnUse"
   x1="6.5923"
   y1="6.5879"
   x2="38.4121"
   y2="38.4077">
		<stop
   offset="0"
   style="stop-color:#C6C6C6"
   id="stop2" />
		<stop
   offset="0.1227"
   style="stop-color:#D1D1D1"
   id="stop4" />
		<stop
   offset="0.421"
   style="stop-color:#E5E5E5"
   id="stop6" />
		<stop
   offset="0.7156"
   style="stop-color:#F2F2F2"
   id="stop8" />
		<stop
   offset="1"
   style="stop-color:#F6F6F6"
   id="stop10" />
		<a:midPointStop
   offset="0"
   style="stop-color:#C6C6C6" />
		<a:midPointStop
   offset="0.3"
   style="stop-color:#C6C6C6" />
		<a:midPointStop
   offset="1"
   style="stop-color:#F6F6F6" />
	</linearGradient>
	<path
   fill="url(#SVGID_1_)"
   d="M45,22.491C45,34.919,34.932,45,22.501,45C10.076,45,0,34.919,0,22.491C0,10.072,10.076,0,22.501,0   C34.932,0,45,10.072,45,22.491z"
   id="path13" />
	<linearGradient
   id="SVGID_2_"
   gradientUnits="userSpaceOnUse"
   x1="6.8105"
   y1="6.8018"
   x2="38.1939"
   y2="38.1851">
		<stop
   offset="0"
   style="stop-color:#F6F6F6"
   id="stop15" />
		<stop
   offset="0.0328"
   style="stop-color:#ECECEC"
   id="stop17" />
		<stop
   offset="0.1968"
   style="stop-color:#BFBFC0"
   id="stop19" />
		<stop
   offset="0.3618"
   style="stop-color:#99999B"
   id="stop21" />
		<stop
   offset="0.5254"
   style="stop-color:#7C7C7E"
   id="stop23" />
		<stop
   offset="0.6872"
   style="stop-color:#686869"
   id="stop25" />
		<stop
   offset="0.8464"
   style="stop-color:#5B5B5D"
   id="stop27" />
		<stop
   offset="1"
   style="stop-color:#575759"
   id="stop29" />
		<a:midPointStop
   offset="0"
   style="stop-color:#F6F6F6" />
		<a:midPointStop
   offset="0.3"
   style="stop-color:#F6F6F6" />
		<a:midPointStop
   offset="1"
   style="stop-color:#575759" />
	</linearGradient>
	<path
   fill="url(#SVGID_2_)"
   d="M44.691,22.491c0,12.261-9.934,22.192-22.19,22.192c-12.254,0-22.191-9.932-22.191-22.192   c0-12.252,9.937-22.192,22.191-22.192C34.758,0.299,44.691,10.239,44.691,22.491z"
   id="path32" />
	<linearGradient
   id="SVGID_3_"
   gradientUnits="userSpaceOnUse"
   x1="8.5537"
   y1="8.5469"
   x2="36.4506"
   y2="36.4438">
		<stop
   offset="0"
   style="stop-color:#575759"
   id="stop34" />
		<stop
   offset="0.1536"
   style="stop-color:#5B5B5D"
   id="stop36" />
		<stop
   offset="0.3128"
   style="stop-color:#686869"
   id="stop38" />
		<stop
   offset="0.4746"
   style="stop-color:#7C7C7E"
   id="stop40" />
		<stop
   offset="0.6382"
   style="stop-color:#99999B"
   id="stop42" />
		<stop
   offset="0.8032"
   style="stop-color:#BFBFC0"
   id="stop44" />
		<stop
   offset="0.9672"
   style="stop-color:#ECECEC"
   id="stop46" />
		<stop
   offset="1"
   style="stop-color:#F6F6F6"
   id="stop48" />
		<a:midPointStop
   offset="0"
   style="stop-color:#575759" />
		<a:midPointStop
   offset="0.7"
   style="stop-color:#575759" />
		<a:midPointStop
   offset="1"
   style="stop-color:#F6F6F6" />
	</linearGradient>
	<path
   fill="url(#SVGID_3_)"
   d="M42.229,22.491c0,10.898-8.834,19.731-19.727,19.731c-10.892,0-19.726-8.833-19.726-19.731   c0-10.89,8.834-19.723,19.726-19.723C33.395,2.769,42.229,11.602,42.229,22.491z"
   id="path51" />
	<g
   id="g89">
		<path
   fill="#282827"
   d="M41.303,22.491c0,10.389-8.418,18.809-18.801,18.809c-10.38,0-18.8-8.42-18.8-18.809    c0-10.38,8.42-18.8,18.8-18.8C32.885,3.691,41.303,12.111,41.303,22.491z"
   id="path53" />
		<g
   id="g87">
			
				<radialGradient
   id="SVGID_4_"
   cx="179.3965"
   cy="-40.498"
   r="43.8398"
   gradientTransform="matrix(0.3909 0 0 0.3859 -46.445 39.2025)"
   gradientUnits="userSpaceOnUse">
				<stop
   offset="0.3"
   style="stop-color:#F8F8F8"
   id="stop55" />
				<stop
   offset="0.3934"
   style="stop-color:#F4F4F4"
   id="stop57" />
				<stop
   offset="0.4902"
   style="stop-color:#E7E7E7"
   id="stop59" />
				<stop
   offset="0.5887"
   style="stop-color:#D3D3D3"
   id="stop61" />
				<stop
   offset="0.6882"
   style="stop-color:#B6B6B6"
   id="stop63" />
				<stop
   offset="0.7886"
   style="stop-color:#919190"
   id="stop65" />
				<stop
   offset="0.8898"
   style="stop-color:#636362"
   id="stop67" />
				<stop
   offset="0.9897"
   style="stop-color:#2E2E2D"
   id="stop69" />
				<stop
   offset="1"
   style="stop-color:#282827"
   id="stop71" />
				<a:midPointStop
   offset="0.3"
   style="stop-color:#F8F8F8" />
				<a:midPointStop
   offset="0.7"
   style="stop-color:#F8F8F8" />
				<a:midPointStop
   offset="1"
   style="stop-color:#282827" />
			</radialGradient>
			<path
   fill="url(#SVGID_4_)"
   d="M40.822,23.572c0,9.343-7.676,16.919-17.139,16.919c-9.459,0-17.138-7.576-17.138-16.919     S14.225,6.653,23.684,6.653C33.146,6.653,40.822,14.229,40.822,23.572z"
   id="path74" />
			<linearGradient
   id="SVGID_5_"
   gradientUnits="userSpaceOnUse"
   x1="21.0679"
   y1="23.2119"
   x2="12.0903"
   y2="7.6624">
				<stop
   offset="0"
   style="stop-color:#E4E3E4"
   id="stop76" />
				<stop
   offset="0.3822"
   style="stop-color:#E8E7E8"
   id="stop78" />
				<stop
   offset="0.7479"
   style="stop-color:#F3F2F3"
   id="stop80" />
				<stop
   offset="1"
   style="stop-color:#FFFFFF"
   id="stop82" />
				<a:midPointStop
   offset="0"
   style="stop-color:#E4E3E4" />
				<a:midPointStop
   offset="0.7159"
   style="stop-color:#E4E3E4" />
				<a:midPointStop
   offset="1"
   style="stop-color:#FFFFFF" />
			</linearGradient>
			<path
   fill="url(#SVGID_5_)"
   d="M30.23,8.895c-1.568,0.624-7.406,3.384-12.391,8.341c-4.213,4.192-6.326,11.962-9.362,13.219     c-1.079,0.448-4.418-0.949-4.418-7.963c0-9.703,8.577-18,18.108-18C31.701,4.491,31.26,8.481,30.23,8.895z"
   id="path85" />
		</g>
	</g>
</g>
</svg>
