<?xml version="1.0" encoding="UTF-8" standalone="no"?>
<svg
   xmlns:dc="http://purl.org/dc/elements/1.1/"
   xmlns:cc="http://creativecommons.org/ns#"
   xmlns:rdf="http://www.w3.org/1999/02/22-rdf-syntax-ns#"
   xmlns:svg="http://www.w3.org/2000/svg"
   xmlns="http://www.w3.org/2000/svg"
   xmlns:sodipodi="http://sodipodi.sourceforge.net/DTD/sodipodi-0.dtd"
   xmlns:inkscape="http://www.inkscape.org/namespaces/inkscape"
   version="1.0"
   id="图层_1"
   x="0px"
   y="0px"
   width="45px"
   height="45px"
   viewBox="0 0 45 45"
   enable-background="new 0 0 45 45"
   xml:space="preserve"
   sodipodi:docname="圆形按钮指示灯_100-01.svg"><metadata
   id="metadata219"><rdf:RDF><cc:Work
       rdf:about=""><dc:format>image/svg+xml</dc:format><dc:type
         rdf:resource="http://purl.org/dc/dcmitype/StillImage" /></cc:Work></rdf:RDF></metadata><defs
   id="defs217" /><sodipodi:namedview
   pagecolor="#ffffff"
   bordercolor="#666666"
   borderopacity="1"
   objecttolerance="10"
   gridtolerance="10"
   guidetolerance="10"
   inkscape:pageopacity="0"
   inkscape:pageshadow="2"
   inkscape:window-width="640"
   inkscape:window-height="480"
   id="namedview215" />
<g
   id="g212">
	
		<radialGradient
   id="SVGID_1_"
   cx="-11.8721"
   cy="-15.8916"
   r="83.2304"
   gradientTransform="matrix(0.9794 0 0 -0.9847 34.1805 -11.1164)"
   gradientUnits="userSpaceOnUse">
		<stop
   offset="0"
   style="stop-color:#FFFFFF"
   id="stop2" />
		<stop
   offset="0.002"
   style="stop-color:#FFF5FC"
   id="stop4" />
		<stop
   offset="0.0054"
   style="stop-color:#FFD9F3"
   id="stop6" />
		<stop
   offset="0.0097"
   style="stop-color:#FFACE4"
   id="stop8" />
		<stop
   offset="0.0109"
   style="stop-color:#FF9FE0"
   id="stop10" />
		<stop
   offset="0.0477"
   style="stop-color:#FC99DB"
   id="stop12" />
		<stop
   offset="0.0958"
   style="stop-color:#F289CD"
   id="stop14" />
		<stop
   offset="0.1502"
   style="stop-color:#E16EB7"
   id="stop16" />
		<stop
   offset="0.2093"
   style="stop-color:#CA4897"
   id="stop18" />
		<stop
   offset="0.2714"
   style="stop-color:#AE186F"
   id="stop20" />
		<stop
   offset="0.2993"
   style="stop-color:#9F005B"
   id="stop22" />
		<stop
   offset="0.3399"
   style="stop-color:#8E0050"
   id="stop24" />
		<stop
   offset="0.4194"
   style="stop-color:#640035"
   id="stop26" />
		<stop
   offset="0.4795"
   style="stop-color:#3F001D"
   id="stop28" />
		<stop
   offset="0.5244"
   style="stop-color:#330019"
   id="stop30" />
		<stop
   offset="0.5997"
   style="stop-color:#280015"
   id="stop32" />
		<stop
   offset="0.7057"
   style="stop-color:#210013"
   id="stop34" />
		<stop
   offset="1"
   style="stop-color:#1F0012"
   id="stop36" />
	</radialGradient>
	<path
   fill="url(#SVGID_1_)"
   d="M41.43,22.405c0,10.509-8.479,19.032-18.928,19.032c-10.457,0-18.927-8.523-18.927-19.032   c0-10.51,8.47-19.03,18.927-19.03C32.949,3.375,41.43,11.895,41.43,22.405z"
   id="path39" />
	<g
   id="g210">
		
			<linearGradient
   id="SVGID_2_"
   gradientUnits="userSpaceOnUse"
   x1="8.397"
   y1="37.5967"
   x2="53.0159"
   y2="-7.0219"
   gradientTransform="matrix(1 0 0 -1 0 46)">
			<stop
   offset="0"
   style="stop-color:#E5E6E7"
   id="stop41" />
			<stop
   offset="0"
   style="stop-color:#D6D8D9"
   id="stop43" />
			<stop
   offset="0"
   style="stop-color:#D0D2D3"
   id="stop45" />
			<stop
   offset="0.0663"
   style="stop-color:#ECEDED"
   id="stop47" />
			<stop
   offset="0.1067"
   style="stop-color:#FFFFFF"
   id="stop49" />
			<stop
   offset="0.13"
   style="stop-color:#F5F6F6"
   id="stop51" />
			<stop
   offset="0.1693"
   style="stop-color:#DBDCDD"
   id="stop53" />
			<stop
   offset="0.2193"
   style="stop-color:#B1B3B4"
   id="stop55" />
			<stop
   offset="0.2472"
   style="stop-color:#96999B"
   id="stop57" />
			<stop
   offset="0.2718"
   style="stop-color:#999B9D"
   id="stop59" />
			<stop
   offset="0.2866"
   style="stop-color:#A1A4A6"
   id="stop61" />
			<stop
   offset="0.2987"
   style="stop-color:#AFB2B3"
   id="stop63" />
			<stop
   offset="0.3095"
   style="stop-color:#C3C6C7"
   id="stop65" />
			<stop
   offset="0.3146"
   style="stop-color:#D0D2D3"
   id="stop67" />
			<stop
   offset="0.364"
   style="stop-color:#C6C8C9"
   id="stop69" />
			<stop
   offset="0.4472"
   style="stop-color:#ACAEAF"
   id="stop71" />
			<stop
   offset="0.5532"
   style="stop-color:#828485"
   id="stop73" />
			<stop
   offset="0.6461"
   style="stop-color:#58595B"
   id="stop75" />
			<stop
   offset="0.6783"
   style="stop-color:#616265"
   id="stop77" />
			<stop
   offset="0.7323"
   style="stop-color:#7B7C7F"
   id="stop79" />
			<stop
   offset="0.7416"
   style="stop-color:#808184"
   id="stop81" />
			<stop
   offset="0.7429"
   style="stop-color:#7A7A7D"
   id="stop83" />
			<stop
   offset="0.75"
   style="stop-color:#5A595C"
   id="stop85" />
			<stop
   offset="0.7573"
   style="stop-color:#424041"
   id="stop87" />
			<stop
   offset="0.7648"
   style="stop-color:#312D2F"
   id="stop89" />
			<stop
   offset="0.7725"
   style="stop-color:#262324"
   id="stop91" />
			<stop
   offset="0.7809"
   style="stop-color:#231F20"
   id="stop93" />
			<stop
   offset="0.7899"
   style="stop-color:#4B4848"
   id="stop95" />
			<stop
   offset="0.8021"
   style="stop-color:#7A7878"
   id="stop97" />
			<stop
   offset="0.8146"
   style="stop-color:#A3A1A2"
   id="stop99" />
			<stop
   offset="0.8274"
   style="stop-color:#C4C3C3"
   id="stop101" />
			<stop
   offset="0.8403"
   style="stop-color:#DEDEDE"
   id="stop103" />
			<stop
   offset="0.8535"
   style="stop-color:#F0F0F0"
   id="stop105" />
			<stop
   offset="0.8672"
   style="stop-color:#FBFBFB"
   id="stop107" />
			<stop
   offset="0.882"
   style="stop-color:#FFFFFF"
   id="stop109" />
			<stop
   offset="0.8978"
   style="stop-color:#E9EAEB"
   id="stop111" />
			<stop
   offset="0.9218"
   style="stop-color:#CFD1D2"
   id="stop113" />
			<stop
   offset="0.9466"
   style="stop-color:#BDBEC1"
   id="stop115" />
			<stop
   offset="0.9722"
   style="stop-color:#B2B4B6"
   id="stop117" />
			<stop
   offset="1"
   style="stop-color:#AEB0B3"
   id="stop119" />
		</linearGradient>
		<path
   fill="url(#SVGID_2_)"
   d="M0.133,22.504c0-12.356,10.009-22.367,22.368-22.367l0,0c12.345,0,22.358,10.011,22.358,22.367l0,0    c0,12.355-10.014,22.366-22.358,22.367l0,0C10.142,44.87,0.133,34.859,0.133,22.504L0.133,22.504z M8.387,8.397    C4.784,12.011,2.55,16.992,2.55,22.504l0,0c0,5.512,2.233,10.492,5.837,14.105l0,0c3.623,3.609,8.599,5.841,14.114,5.841l0,0    c5.517,0,10.489-2.23,14.099-5.841l0,0c3.616-3.613,5.836-8.596,5.842-14.105l0,0c-0.006-5.512-2.226-10.493-5.842-14.106l0,0    c-3.609-3.613-8.582-5.84-14.099-5.84l0,0C16.986,2.558,12.01,4.784,8.387,8.397L8.387,8.397z"
   id="path122" />
		<g
   id="g165">
			
				<linearGradient
   id="SVGID_3_"
   gradientUnits="userSpaceOnUse"
   x1="1.2695"
   y1="23.5"
   x2="40.0976"
   y2="23.5"
   gradientTransform="matrix(1 0 0 -1 0 46)">
				<stop
   offset="0"
   style="stop-color:#231F20"
   id="stop124" />
				<stop
   offset="0.0344"
   style="stop-color:#3D3B3C"
   id="stop126" />
				<stop
   offset="0.0824"
   style="stop-color:#666769"
   id="stop128" />
				<stop
   offset="0.108"
   style="stop-color:#828385"
   id="stop130" />
				<stop
   offset="0.1629"
   style="stop-color:#C9CACC"
   id="stop132" />
				<stop
   offset="0.1703"
   style="stop-color:#D3D4D6"
   id="stop134" />
				<stop
   offset="0.2147"
   style="stop-color:#DEDFE1"
   id="stop136" />
				<stop
   offset="0.3081"
   style="stop-color:#F1F1F2"
   id="stop138" />
				<stop
   offset="0.4063"
   style="stop-color:#FBFCFC"
   id="stop140" />
				<stop
   offset="0.5165"
   style="stop-color:#FFFFFF"
   id="stop142" />
				<stop
   offset="0.6418"
   style="stop-color:#FCFCFD"
   id="stop144" />
				<stop
   offset="0.7189"
   style="stop-color:#F4F4F5"
   id="stop146" />
				<stop
   offset="0.7827"
   style="stop-color:#E6E6E7"
   id="stop148" />
				<stop
   offset="0.8352"
   style="stop-color:#D3D4D6"
   id="stop150" />
				<stop
   offset="0.8607"
   style="stop-color:#B7B8BA"
   id="stop152" />
				<stop
   offset="0.9157"
   style="stop-color:#707173"
   id="stop154" />
				<stop
   offset="0.9231"
   style="stop-color:#666769"
   id="stop156" />
				<stop
   offset="0.9552"
   style="stop-color:#4C4B4D"
   id="stop158" />
				<stop
   offset="1"
   style="stop-color:#231F20"
   id="stop160" />
			</linearGradient>
			<path
   fill="url(#SVGID_3_)"
   d="M22.501,0C10.07,0,0,10.075,0,22.504C0,34.932,10.07,45,22.497,45     C34.926,45,44.998,34.932,45,22.504C44.998,10.075,34.926,0,22.501,0z M22.497,44.734c-12.274,0-22.229-9.953-22.229-22.23     c0-12.284,9.955-22.232,22.234-22.232c12.271,0,22.223,9.948,22.223,22.232C44.725,34.781,34.773,44.734,22.497,44.734z"
   id="path163" />
		</g>
		<g
   id="g208">
			
				<linearGradient
   id="SVGID_4_"
   gradientUnits="userSpaceOnUse"
   x1="22.4976"
   y1="42.333"
   x2="22.4976"
   y2="4.0478"
   gradientTransform="matrix(1 0 0 -1 0 46)">
				<stop
   offset="0"
   style="stop-color:#231F20"
   id="stop167" />
				<stop
   offset="0.0344"
   style="stop-color:#3D3B3C"
   id="stop169" />
				<stop
   offset="0.0824"
   style="stop-color:#666769"
   id="stop171" />
				<stop
   offset="0.108"
   style="stop-color:#828385"
   id="stop173" />
				<stop
   offset="0.1629"
   style="stop-color:#C9CACC"
   id="stop175" />
				<stop
   offset="0.1703"
   style="stop-color:#D3D4D6"
   id="stop177" />
				<stop
   offset="0.2147"
   style="stop-color:#DEDFE1"
   id="stop179" />
				<stop
   offset="0.3081"
   style="stop-color:#F1F1F2"
   id="stop181" />
				<stop
   offset="0.4063"
   style="stop-color:#FBFCFC"
   id="stop183" />
				<stop
   offset="0.5165"
   style="stop-color:#FFFFFF"
   id="stop185" />
				<stop
   offset="0.6418"
   style="stop-color:#FCFCFD"
   id="stop187" />
				<stop
   offset="0.7189"
   style="stop-color:#F4F4F5"
   id="stop189" />
				<stop
   offset="0.7827"
   style="stop-color:#E6E6E7"
   id="stop191" />
				<stop
   offset="0.8352"
   style="stop-color:#D3D4D6"
   id="stop193" />
				<stop
   offset="0.8607"
   style="stop-color:#B7B8BA"
   id="stop195" />
				<stop
   offset="0.9157"
   style="stop-color:#707173"
   id="stop197" />
				<stop
   offset="0.9231"
   style="stop-color:#666769"
   id="stop199" />
				<stop
   offset="0.9552"
   style="stop-color:#4C4B4D"
   id="stop201" />
				<stop
   offset="1"
   style="stop-color:#231F20"
   id="stop203" />
			</linearGradient>
			<path
   fill="url(#SVGID_4_)"
   d="M36.697,8.302c-3.633-3.637-8.648-5.883-14.196-5.883c-5.555,0-10.572,2.246-14.205,5.883     c-3.637,3.64-5.879,8.651-5.879,14.202s2.242,10.563,5.879,14.203c3.633,3.636,8.65,5.882,14.2,5.882     c5.552,0,10.568-2.246,14.201-5.882c3.635-3.641,5.881-8.652,5.881-14.203S40.332,11.941,36.697,8.302z M36.504,36.516     c-3.586,3.586-8.529,5.801-14.007,5.801c-5.47,0-10.413-2.215-14.006-5.801c-3.59-3.593-5.808-8.533-5.808-14.012     c0-5.477,2.218-10.421,5.808-14.014l0,0c3.593-3.584,8.536-5.801,14.011-5.801c5.473,0,10.417,2.217,14.002,5.801     c3.588,3.593,5.799,8.537,5.799,14.014C42.303,27.982,40.092,32.923,36.504,36.516z"
   id="path206" />
		</g>
	</g>
</g>
</svg>
