<?xml version="1.0" encoding="UTF-8" standalone="no"?>
<svg
   xmlns:dc="http://purl.org/dc/elements/1.1/"
   xmlns:cc="http://creativecommons.org/ns#"
   xmlns:rdf="http://www.w3.org/1999/02/22-rdf-syntax-ns#"
   xmlns:svg="http://www.w3.org/2000/svg"
   xmlns="http://www.w3.org/2000/svg"
   xmlns:sodipodi="http://sodipodi.sourceforge.net/DTD/sodipodi-0.dtd"
   xmlns:inkscape="http://www.inkscape.org/namespaces/inkscape"
   version="1.0"
   id="图层_1"
   x="0px"
   y="0px"
   width="45px"
   height="45px"
   viewBox="0 0 45 45"
   enable-background="new 0 0 45 45"
   xml:space="preserve"
   sodipodi:docname="圆形按钮指示灯_101-01.svg"><metadata
   id="metadata217"><rdf:RDF><cc:Work
       rdf:about=""><dc:format>image/svg+xml</dc:format><dc:type
         rdf:resource="http://purl.org/dc/dcmitype/StillImage" /></cc:Work></rdf:RDF></metadata><defs
   id="defs215" /><sodipodi:namedview
   pagecolor="#ffffff"
   bordercolor="#666666"
   borderopacity="1"
   objecttolerance="10"
   gridtolerance="10"
   guidetolerance="10"
   inkscape:pageopacity="0"
   inkscape:pageshadow="2"
   inkscape:window-width="640"
   inkscape:window-height="480"
   id="namedview213" />
<g
   id="g210">
	
		<radialGradient
   id="SVGID_1_"
   cx="-14.5781"
   cy="-17.4395"
   r="83.317"
   gradientTransform="matrix(0.9785 0 0 -0.9785 36.8183 -12.3434)"
   gradientUnits="userSpaceOnUse">
		<stop
   offset="0"
   style="stop-color:#FFFFFF"
   id="stop2" />
		<stop
   offset="0.0027"
   style="stop-color:#F5FEFF"
   id="stop4" />
		<stop
   offset="0.0073"
   style="stop-color:#D9FDFF"
   id="stop6" />
		<stop
   offset="0.0109"
   style="stop-color:#BFFBFF"
   id="stop8" />
		<stop
   offset="0.0242"
   style="stop-color:#B9FBFF"
   id="stop10" />
		<stop
   offset="0.0416"
   style="stop-color:#A9FCFD"
   id="stop12" />
		<stop
   offset="0.0613"
   style="stop-color:#8EFDFB"
   id="stop14" />
		<stop
   offset="0.0825"
   style="stop-color:#68FEF8"
   id="stop16" />
		<stop
   offset="0.1021"
   style="stop-color:#3FFFF4"
   id="stop18" />
		<stop
   offset="0.1461"
   style="stop-color:#3DEEE4"
   id="stop20" />
		<stop
   offset="0.2327"
   style="stop-color:#39C3BB"
   id="stop22" />
		<stop
   offset="0.3524"
   style="stop-color:#317E79"
   id="stop24" />
		<stop
   offset="0.465"
   style="stop-color:#2A3736"
   id="stop26" />
		<stop
   offset="0.4781"
   style="stop-color:#253433"
   id="stop28" />
		<stop
   offset="0.5372"
   style="stop-color:#142A2A"
   id="stop30" />
		<stop
   offset="0.6104"
   style="stop-color:#092324"
   id="stop32" />
		<stop
   offset="0.7136"
   style="stop-color:#021F20"
   id="stop34" />
		<stop
   offset="1"
   style="stop-color:#001E1F"
   id="stop36" />
	</radialGradient>
	<path
   fill="url(#SVGID_1_)"
   d="M41.432,22.496c0,10.454-8.477,18.928-18.931,18.928c-10.461,0-18.93-8.474-18.93-18.928   c0-10.456,8.469-18.93,18.93-18.93C32.955,3.566,41.432,12.04,41.432,22.496z"
   id="path39" />
	
		<linearGradient
   id="SVGID_2_"
   gradientUnits="userSpaceOnUse"
   x1="8.397"
   y1="37.6035"
   x2="57.8424"
   y2="-11.8416"
   gradientTransform="matrix(1 0 0 -1 0 46)">
		<stop
   offset="0"
   style="stop-color:#E5E6E7"
   id="stop41" />
		<stop
   offset="0"
   style="stop-color:#D6D8D9"
   id="stop43" />
		<stop
   offset="0"
   style="stop-color:#D0D2D3"
   id="stop45" />
		<stop
   offset="0.0663"
   style="stop-color:#ECEDED"
   id="stop47" />
		<stop
   offset="0.1067"
   style="stop-color:#FFFFFF"
   id="stop49" />
		<stop
   offset="0.13"
   style="stop-color:#F5F6F6"
   id="stop51" />
		<stop
   offset="0.1693"
   style="stop-color:#DBDCDD"
   id="stop53" />
		<stop
   offset="0.2193"
   style="stop-color:#B1B3B4"
   id="stop55" />
		<stop
   offset="0.2472"
   style="stop-color:#96999B"
   id="stop57" />
		<stop
   offset="0.2718"
   style="stop-color:#999B9D"
   id="stop59" />
		<stop
   offset="0.2866"
   style="stop-color:#A1A4A6"
   id="stop61" />
		<stop
   offset="0.2987"
   style="stop-color:#AFB2B3"
   id="stop63" />
		<stop
   offset="0.3095"
   style="stop-color:#C3C6C7"
   id="stop65" />
		<stop
   offset="0.3146"
   style="stop-color:#D0D2D3"
   id="stop67" />
		<stop
   offset="0.364"
   style="stop-color:#C6C8C9"
   id="stop69" />
		<stop
   offset="0.4472"
   style="stop-color:#ACAEAF"
   id="stop71" />
		<stop
   offset="0.5532"
   style="stop-color:#828485"
   id="stop73" />
		<stop
   offset="0.6461"
   style="stop-color:#58595B"
   id="stop75" />
		<stop
   offset="0.6783"
   style="stop-color:#616265"
   id="stop77" />
		<stop
   offset="0.7323"
   style="stop-color:#7B7C7F"
   id="stop79" />
		<stop
   offset="0.7416"
   style="stop-color:#808184"
   id="stop81" />
		<stop
   offset="0.7429"
   style="stop-color:#7A7A7D"
   id="stop83" />
		<stop
   offset="0.75"
   style="stop-color:#5A595C"
   id="stop85" />
		<stop
   offset="0.7573"
   style="stop-color:#424041"
   id="stop87" />
		<stop
   offset="0.7648"
   style="stop-color:#312D2F"
   id="stop89" />
		<stop
   offset="0.7725"
   style="stop-color:#262324"
   id="stop91" />
		<stop
   offset="0.7809"
   style="stop-color:#231F20"
   id="stop93" />
		<stop
   offset="0.7899"
   style="stop-color:#4B4848"
   id="stop95" />
		<stop
   offset="0.8021"
   style="stop-color:#7A7878"
   id="stop97" />
		<stop
   offset="0.8146"
   style="stop-color:#A3A1A2"
   id="stop99" />
		<stop
   offset="0.8274"
   style="stop-color:#C4C3C3"
   id="stop101" />
		<stop
   offset="0.8403"
   style="stop-color:#DEDEDE"
   id="stop103" />
		<stop
   offset="0.8535"
   style="stop-color:#F0F0F0"
   id="stop105" />
		<stop
   offset="0.8672"
   style="stop-color:#FBFBFB"
   id="stop107" />
		<stop
   offset="0.882"
   style="stop-color:#FFFFFF"
   id="stop109" />
		<stop
   offset="0.8978"
   style="stop-color:#E9EAEB"
   id="stop111" />
		<stop
   offset="0.9218"
   style="stop-color:#CFD1D2"
   id="stop113" />
		<stop
   offset="0.9466"
   style="stop-color:#BDBEC1"
   id="stop115" />
		<stop
   offset="0.9722"
   style="stop-color:#B2B4B6"
   id="stop117" />
		<stop
   offset="1"
   style="stop-color:#AEB0B3"
   id="stop119" />
	</linearGradient>
	<path
   fill="url(#SVGID_2_)"
   d="M0.137,22.496c0-12.35,10.008-22.361,22.364-22.361l0,0c12.349,0,22.356,10.012,22.356,22.361l0,0   c0,12.355-10.01,22.363-22.356,22.363l0,0C10.145,44.859,0.137,34.854,0.137,22.496L0.137,22.496z M8.397,8.39   c-3.613,3.612-5.846,8.597-5.846,14.106l0,0c0,5.514,2.232,10.494,5.846,14.105l0,0c3.615,3.607,8.585,5.836,14.104,5.84l0,0   c5.511-0.004,10.485-2.231,14.099-5.84l0,0c3.616-3.611,5.848-8.593,5.848-14.105l0,0c0-5.51-2.23-10.494-5.848-14.106l0,0   c-3.611-3.607-8.588-5.837-14.099-5.841l0,0C16.982,2.553,12.013,4.782,8.397,8.39L8.397,8.39z"
   id="path122" />
	<g
   id="g165">
		
			<linearGradient
   id="SVGID_3_"
   gradientUnits="userSpaceOnUse"
   x1="1.27"
   y1="23.5"
   x2="40.0977"
   y2="23.5"
   gradientTransform="matrix(1 0 0 -1 0 46)">
			<stop
   offset="0"
   style="stop-color:#231F20"
   id="stop124" />
			<stop
   offset="0.0344"
   style="stop-color:#3D3B3C"
   id="stop126" />
			<stop
   offset="0.0824"
   style="stop-color:#666769"
   id="stop128" />
			<stop
   offset="0.108"
   style="stop-color:#828385"
   id="stop130" />
			<stop
   offset="0.1629"
   style="stop-color:#C9CACC"
   id="stop132" />
			<stop
   offset="0.1703"
   style="stop-color:#D3D4D6"
   id="stop134" />
			<stop
   offset="0.2147"
   style="stop-color:#DEDFE1"
   id="stop136" />
			<stop
   offset="0.3081"
   style="stop-color:#F1F1F2"
   id="stop138" />
			<stop
   offset="0.4063"
   style="stop-color:#FBFCFC"
   id="stop140" />
			<stop
   offset="0.5165"
   style="stop-color:#FFFFFF"
   id="stop142" />
			<stop
   offset="0.6418"
   style="stop-color:#FCFCFD"
   id="stop144" />
			<stop
   offset="0.7189"
   style="stop-color:#F4F4F5"
   id="stop146" />
			<stop
   offset="0.7827"
   style="stop-color:#E6E6E7"
   id="stop148" />
			<stop
   offset="0.8352"
   style="stop-color:#D3D4D6"
   id="stop150" />
			<stop
   offset="0.8607"
   style="stop-color:#B7B8BA"
   id="stop152" />
			<stop
   offset="0.9157"
   style="stop-color:#707173"
   id="stop154" />
			<stop
   offset="0.9231"
   style="stop-color:#666769"
   id="stop156" />
			<stop
   offset="0.9552"
   style="stop-color:#4C4B4D"
   id="stop158" />
			<stop
   offset="1"
   style="stop-color:#231F20"
   id="stop160" />
		</linearGradient>
		<path
   fill="url(#SVGID_3_)"
   d="M22.501,0C10.067,0,0,10.07,0,22.496C0,34.922,10.067,45,22.501,45C34.922,45,45,34.922,45,22.496    C45,10.07,34.922,0,22.501,0z M22.501,44.727c-12.283,0-22.23-9.955-22.23-22.229c0-12.276,9.947-22.231,22.23-22.231    c12.269,0,22.228,9.955,22.228,22.231C44.729,34.771,34.77,44.727,22.501,44.727z"
   id="path163" />
	</g>
	<g
   id="g208">
		
			<linearGradient
   id="SVGID_4_"
   gradientUnits="userSpaceOnUse"
   x1="22.5"
   y1="42.335"
   x2="22.5"
   y2="4.0619"
   gradientTransform="matrix(1 0 0 -1 0 46)">
			<stop
   offset="0"
   style="stop-color:#231F20"
   id="stop167" />
			<stop
   offset="0.0344"
   style="stop-color:#3D3B3C"
   id="stop169" />
			<stop
   offset="0.0824"
   style="stop-color:#666769"
   id="stop171" />
			<stop
   offset="0.108"
   style="stop-color:#828385"
   id="stop173" />
			<stop
   offset="0.1629"
   style="stop-color:#C9CACC"
   id="stop175" />
			<stop
   offset="0.1703"
   style="stop-color:#D3D4D6"
   id="stop177" />
			<stop
   offset="0.2147"
   style="stop-color:#DEDFE1"
   id="stop179" />
			<stop
   offset="0.3081"
   style="stop-color:#F1F1F2"
   id="stop181" />
			<stop
   offset="0.4063"
   style="stop-color:#FBFCFC"
   id="stop183" />
			<stop
   offset="0.5165"
   style="stop-color:#FFFFFF"
   id="stop185" />
			<stop
   offset="0.6418"
   style="stop-color:#FCFCFD"
   id="stop187" />
			<stop
   offset="0.7189"
   style="stop-color:#F4F4F5"
   id="stop189" />
			<stop
   offset="0.7827"
   style="stop-color:#E6E6E7"
   id="stop191" />
			<stop
   offset="0.8352"
   style="stop-color:#D3D4D6"
   id="stop193" />
			<stop
   offset="0.8607"
   style="stop-color:#B7B8BA"
   id="stop195" />
			<stop
   offset="0.9157"
   style="stop-color:#707173"
   id="stop197" />
			<stop
   offset="0.9231"
   style="stop-color:#666769"
   id="stop199" />
			<stop
   offset="0.9552"
   style="stop-color:#4C4B4D"
   id="stop201" />
			<stop
   offset="1"
   style="stop-color:#231F20"
   id="stop203" />
		</linearGradient>
		<path
   fill="url(#SVGID_4_)"
   d="M36.7,8.296C33.055,4.66,28.044,2.42,22.501,2.418C16.948,2.42,11.939,4.66,8.298,8.296    c-3.641,3.639-5.879,8.651-5.879,14.2c0,5.547,2.238,10.561,5.879,14.203c3.642,3.636,8.65,5.877,14.203,5.877    c5.543,0,10.554-2.241,14.199-5.877c3.635-3.643,5.881-8.656,5.881-14.203C42.581,16.947,40.335,11.935,36.7,8.296z     M36.509,36.508c-3.588,3.586-8.534,5.797-14.008,5.797c-5.479,0-10.424-2.211-14.01-5.801C4.903,32.916,2.69,27.973,2.69,22.496    c0-5.477,2.213-10.418,5.801-14.005l0,0c3.586-3.592,8.53-5.805,14.01-5.805c5.474,0,10.42,2.213,14.008,5.805    c3.587,3.587,5.802,8.528,5.802,14.005C42.311,27.973,40.096,32.916,36.509,36.508z"
   id="path206" />
	</g>
</g>
</svg>
