<?xml version="1.0" encoding="UTF-8" standalone="no"?>
<svg
   xmlns:dc="http://purl.org/dc/elements/1.1/"
   xmlns:cc="http://creativecommons.org/ns#"
   xmlns:rdf="http://www.w3.org/1999/02/22-rdf-syntax-ns#"
   xmlns:svg="http://www.w3.org/2000/svg"
   xmlns="http://www.w3.org/2000/svg"
   xmlns:sodipodi="http://sodipodi.sourceforge.net/DTD/sodipodi-0.dtd"
   xmlns:inkscape="http://www.inkscape.org/namespaces/inkscape"
   version="1.0"
   id="图层_1"
   x="0px"
   y="0px"
   width="45px"
   height="45px"
   viewBox="0 0 45 45"
   enable-background="new 0 0 45 45"
   xml:space="preserve"
   sodipodi:docname="圆形按钮指示灯_102-01.svg"><metadata
   id="metadata213"><rdf:RDF><cc:Work
       rdf:about=""><dc:format>image/svg+xml</dc:format><dc:type
         rdf:resource="http://purl.org/dc/dcmitype/StillImage" /></cc:Work></rdf:RDF></metadata><defs
   id="defs211" /><sodipodi:namedview
   pagecolor="#ffffff"
   bordercolor="#666666"
   borderopacity="1"
   objecttolerance="10"
   gridtolerance="10"
   guidetolerance="10"
   inkscape:pageopacity="0"
   inkscape:pageshadow="2"
   inkscape:window-width="640"
   inkscape:window-height="480"
   id="namedview209" />
<g
   id="g206">
	
		<radialGradient
   id="SVGID_1_"
   cx="-36.2861"
   cy="46.251"
   r="77.0725"
   gradientTransform="matrix(1.0576 0 0 -1.0577 60.9287 53.6422)"
   gradientUnits="userSpaceOnUse">
		<stop
   offset="0"
   style="stop-color:#FFFFFF"
   id="stop2" />
		<stop
   offset="0.002"
   style="stop-color:#FFFEF5"
   id="stop4" />
		<stop
   offset="0.0054"
   style="stop-color:#FFFCD9"
   id="stop6" />
		<stop
   offset="0.0097"
   style="stop-color:#FFF9AC"
   id="stop8" />
		<stop
   offset="0.0109"
   style="stop-color:#FFF89F"
   id="stop10" />
		<stop
   offset="0.0446"
   style="stop-color:#FDF599"
   id="stop12" />
		<stop
   offset="0.0887"
   style="stop-color:#F6EE89"
   id="stop14" />
		<stop
   offset="0.1386"
   style="stop-color:#EBE26E"
   id="stop16" />
		<stop
   offset="0.1927"
   style="stop-color:#DCD248"
   id="stop18" />
		<stop
   offset="0.2496"
   style="stop-color:#C9BD18"
   id="stop20" />
		<stop
   offset="0.2752"
   style="stop-color:#BFB200"
   id="stop22" />
		<stop
   offset="0.3052"
   style="stop-color:#AFA100"
   id="stop24" />
		<stop
   offset="0.3639"
   style="stop-color:#857700"
   id="stop26" />
		<stop
   offset="0.4119"
   style="stop-color:#5F4F00"
   id="stop28" />
		<stop
   offset="0.495"
   style="stop-color:#5F4D00"
   id="stop30" />
		<stop
   offset="1"
   style="stop-color:#5F4B00"
   id="stop32" />
	</radialGradient>
	<path
   fill="url(#SVGID_1_)"
   d="M41.43,22.498c0,10.453-8.473,18.929-18.929,18.929c-10.45,0-18.928-8.476-18.928-18.929   c0-10.449,8.478-18.926,18.928-18.926C32.957,3.572,41.43,12.049,41.43,22.498z"
   id="path35" />
	<g
   id="g78">
		
			<linearGradient
   id="SVGID_2_"
   gradientUnits="userSpaceOnUse"
   x1="22.5"
   y1="42.3311"
   x2="22.5"
   y2="4.0579"
   gradientTransform="matrix(1 0 0 -1 0 46)">
			<stop
   offset="0"
   style="stop-color:#231F20"
   id="stop37" />
			<stop
   offset="0.0344"
   style="stop-color:#3D3B3C"
   id="stop39" />
			<stop
   offset="0.0824"
   style="stop-color:#666769"
   id="stop41" />
			<stop
   offset="0.108"
   style="stop-color:#828385"
   id="stop43" />
			<stop
   offset="0.1629"
   style="stop-color:#C9CACC"
   id="stop45" />
			<stop
   offset="0.1703"
   style="stop-color:#D3D4D6"
   id="stop47" />
			<stop
   offset="0.2147"
   style="stop-color:#DEDFE1"
   id="stop49" />
			<stop
   offset="0.3081"
   style="stop-color:#F1F1F2"
   id="stop51" />
			<stop
   offset="0.4063"
   style="stop-color:#FBFCFC"
   id="stop53" />
			<stop
   offset="0.5165"
   style="stop-color:#FFFFFF"
   id="stop55" />
			<stop
   offset="0.6418"
   style="stop-color:#FCFCFD"
   id="stop57" />
			<stop
   offset="0.7189"
   style="stop-color:#F4F4F5"
   id="stop59" />
			<stop
   offset="0.7827"
   style="stop-color:#E6E6E7"
   id="stop61" />
			<stop
   offset="0.8352"
   style="stop-color:#D3D4D6"
   id="stop63" />
			<stop
   offset="0.8607"
   style="stop-color:#B7B8BA"
   id="stop65" />
			<stop
   offset="0.9157"
   style="stop-color:#707173"
   id="stop67" />
			<stop
   offset="0.9231"
   style="stop-color:#666769"
   id="stop69" />
			<stop
   offset="0.9552"
   style="stop-color:#4C4B4D"
   id="stop71" />
			<stop
   offset="1"
   style="stop-color:#231F20"
   id="stop73" />
		</linearGradient>
		<path
   fill="url(#SVGID_2_)"
   d="M36.7,8.302c-3.638-3.632-8.648-5.88-14.199-5.88c-5.549,0-10.561,2.248-14.195,5.88    c-3.636,3.637-5.884,8.65-5.884,14.196c0,5.55,2.248,10.561,5.884,14.195c3.635,3.636,8.646,5.886,14.195,5.886    c5.551,0,10.562-2.25,14.196-5.886c3.637-3.635,5.881-8.646,5.881-14.195C42.578,16.952,40.334,11.938,36.7,8.302z M36.504,36.51    c-3.585,3.583-8.533,5.801-14.003,5.801c-5.476,0-10.421-2.218-14.009-5.804c-3.586-3.591-5.799-8.532-5.805-14.009    c0.006-5.474,2.219-10.412,5.805-14.005l0,0c3.588-3.586,8.533-5.8,14.009-5.804c5.47,0.004,10.418,2.218,14.003,5.804    c3.592,3.593,5.807,8.531,5.807,14.005C42.311,27.975,40.096,32.916,36.504,36.51z"
   id="path76" />
	</g>
	
		<linearGradient
   id="SVGID_3_"
   gradientUnits="userSpaceOnUse"
   x1="8.4043"
   y1="37.5977"
   x2="57.8998"
   y2="-11.8976"
   gradientTransform="matrix(1 0 0 -1 0 46)">
		<stop
   offset="0"
   style="stop-color:#E5E6E7"
   id="stop80" />
		<stop
   offset="0"
   style="stop-color:#D6D8D9"
   id="stop82" />
		<stop
   offset="0"
   style="stop-color:#D0D2D3"
   id="stop84" />
		<stop
   offset="0.0663"
   style="stop-color:#ECEDED"
   id="stop86" />
		<stop
   offset="0.1067"
   style="stop-color:#FFFFFF"
   id="stop88" />
		<stop
   offset="0.13"
   style="stop-color:#F5F6F6"
   id="stop90" />
		<stop
   offset="0.1693"
   style="stop-color:#DBDCDD"
   id="stop92" />
		<stop
   offset="0.2193"
   style="stop-color:#B1B3B4"
   id="stop94" />
		<stop
   offset="0.2472"
   style="stop-color:#96999B"
   id="stop96" />
		<stop
   offset="0.2718"
   style="stop-color:#999B9D"
   id="stop98" />
		<stop
   offset="0.2866"
   style="stop-color:#A1A4A6"
   id="stop100" />
		<stop
   offset="0.2987"
   style="stop-color:#AFB2B3"
   id="stop102" />
		<stop
   offset="0.3095"
   style="stop-color:#C3C6C7"
   id="stop104" />
		<stop
   offset="0.3146"
   style="stop-color:#D0D2D3"
   id="stop106" />
		<stop
   offset="0.364"
   style="stop-color:#C6C8C9"
   id="stop108" />
		<stop
   offset="0.4472"
   style="stop-color:#ACAEAF"
   id="stop110" />
		<stop
   offset="0.5532"
   style="stop-color:#828485"
   id="stop112" />
		<stop
   offset="0.6461"
   style="stop-color:#58595B"
   id="stop114" />
		<stop
   offset="0.6783"
   style="stop-color:#616265"
   id="stop116" />
		<stop
   offset="0.7323"
   style="stop-color:#7B7C7F"
   id="stop118" />
		<stop
   offset="0.7416"
   style="stop-color:#808184"
   id="stop120" />
		<stop
   offset="0.7429"
   style="stop-color:#7A7A7D"
   id="stop122" />
		<stop
   offset="0.75"
   style="stop-color:#5A595C"
   id="stop124" />
		<stop
   offset="0.7573"
   style="stop-color:#424041"
   id="stop126" />
		<stop
   offset="0.7648"
   style="stop-color:#312D2F"
   id="stop128" />
		<stop
   offset="0.7725"
   style="stop-color:#262324"
   id="stop130" />
		<stop
   offset="0.7809"
   style="stop-color:#231F20"
   id="stop132" />
		<stop
   offset="0.7899"
   style="stop-color:#4B4848"
   id="stop134" />
		<stop
   offset="0.8021"
   style="stop-color:#7A7878"
   id="stop136" />
		<stop
   offset="0.8146"
   style="stop-color:#A3A1A2"
   id="stop138" />
		<stop
   offset="0.8274"
   style="stop-color:#C4C3C3"
   id="stop140" />
		<stop
   offset="0.8403"
   style="stop-color:#DEDEDE"
   id="stop142" />
		<stop
   offset="0.8535"
   style="stop-color:#F0F0F0"
   id="stop144" />
		<stop
   offset="0.8672"
   style="stop-color:#FBFBFB"
   id="stop146" />
		<stop
   offset="0.882"
   style="stop-color:#FFFFFF"
   id="stop148" />
		<stop
   offset="0.8978"
   style="stop-color:#E9EAEB"
   id="stop150" />
		<stop
   offset="0.9218"
   style="stop-color:#CFD1D2"
   id="stop152" />
		<stop
   offset="0.9466"
   style="stop-color:#BDBEC1"
   id="stop154" />
		<stop
   offset="0.9722"
   style="stop-color:#B2B4B6"
   id="stop156" />
		<stop
   offset="1"
   style="stop-color:#AEB0B3"
   id="stop158" />
	</linearGradient>
	<path
   fill="url(#SVGID_3_)"
   d="M0.141,22.498c0-12.349,10.009-22.359,22.36-22.359l0,0c12.349,0,22.362,10.011,22.362,22.359l0,0   c0,12.352-10.014,22.361-22.362,22.368l0,0C10.149,44.859,0.141,34.85,0.141,22.498L0.141,22.498z M8.397,8.4   c-3.608,3.61-5.841,8.585-5.841,14.098l0,0c0,5.516,2.232,10.491,5.841,14.102l0,0c3.614,3.612,8.591,5.846,14.104,5.846l0,0   c5.511,0,10.487-2.232,14.103-5.846l0,0c3.617-3.609,5.84-8.586,5.84-14.102l0,0c0-5.513-2.223-10.487-5.84-14.098l0,0   c-3.615-3.613-8.592-5.845-14.103-5.845l0,0C16.988,2.556,12.012,4.787,8.397,8.4L8.397,8.4z"
   id="path161" />
	<g
   id="g204">
		
			<linearGradient
   id="SVGID_4_"
   gradientUnits="userSpaceOnUse"
   x1="1.27"
   y1="23.5"
   x2="40.0977"
   y2="23.5"
   gradientTransform="matrix(1 0 0 -1 0 46)">
			<stop
   offset="0"
   style="stop-color:#231F20"
   id="stop163" />
			<stop
   offset="0.0344"
   style="stop-color:#3D3B3C"
   id="stop165" />
			<stop
   offset="0.0824"
   style="stop-color:#666769"
   id="stop167" />
			<stop
   offset="0.108"
   style="stop-color:#828385"
   id="stop169" />
			<stop
   offset="0.1629"
   style="stop-color:#C9CACC"
   id="stop171" />
			<stop
   offset="0.1703"
   style="stop-color:#D3D4D6"
   id="stop173" />
			<stop
   offset="0.2147"
   style="stop-color:#DEDFE1"
   id="stop175" />
			<stop
   offset="0.3081"
   style="stop-color:#F1F1F2"
   id="stop177" />
			<stop
   offset="0.4063"
   style="stop-color:#FBFCFC"
   id="stop179" />
			<stop
   offset="0.5165"
   style="stop-color:#FFFFFF"
   id="stop181" />
			<stop
   offset="0.6418"
   style="stop-color:#FCFCFD"
   id="stop183" />
			<stop
   offset="0.7189"
   style="stop-color:#F4F4F5"
   id="stop185" />
			<stop
   offset="0.7827"
   style="stop-color:#E6E6E7"
   id="stop187" />
			<stop
   offset="0.8352"
   style="stop-color:#D3D4D6"
   id="stop189" />
			<stop
   offset="0.8607"
   style="stop-color:#B7B8BA"
   id="stop191" />
			<stop
   offset="0.9157"
   style="stop-color:#707173"
   id="stop193" />
			<stop
   offset="0.9231"
   style="stop-color:#666769"
   id="stop195" />
			<stop
   offset="0.9552"
   style="stop-color:#4C4B4D"
   id="stop197" />
			<stop
   offset="1"
   style="stop-color:#231F20"
   id="stop199" />
		</linearGradient>
		<path
   fill="url(#SVGID_4_)"
   d="M22.501,0C10.073,0.006,0,10.077,0,22.498C0,34.925,10.073,45,22.501,45    C34.926,45,45,34.925,45,22.498C45,10.077,34.926,0.006,22.501,0z M22.501,44.725c-12.275,0-22.226-9.947-22.226-22.227    c0-12.274,9.95-22.226,22.226-22.226c12.274,0,22.229,9.951,22.229,22.226C44.73,34.775,34.775,44.725,22.501,44.725z"
   id="path202" />
	</g>
</g>
</svg>
