<?xml version="1.0" encoding="UTF-8" standalone="no"?>
<svg
   xmlns:dc="http://purl.org/dc/elements/1.1/"
   xmlns:cc="http://creativecommons.org/ns#"
   xmlns:rdf="http://www.w3.org/1999/02/22-rdf-syntax-ns#"
   xmlns:svg="http://www.w3.org/2000/svg"
   xmlns="http://www.w3.org/2000/svg"
   xmlns:sodipodi="http://sodipodi.sourceforge.net/DTD/sodipodi-0.dtd"
   xmlns:inkscape="http://www.inkscape.org/namespaces/inkscape"
   version="1.0"
   id="图层_1"
   x="0px"
   y="0px"
   width="45px"
   height="45px"
   viewBox="0 0 45 45"
   enable-background="new 0 0 45 45"
   xml:space="preserve"
   sodipodi:docname="圆形按钮指示灯_105-01.svg"><metadata
   id="metadata217"><rdf:RDF><cc:Work
       rdf:about=""><dc:format>image/svg+xml</dc:format><dc:type
         rdf:resource="http://purl.org/dc/dcmitype/StillImage" /></cc:Work></rdf:RDF></metadata><defs
   id="defs215" /><sodipodi:namedview
   pagecolor="#ffffff"
   bordercolor="#666666"
   borderopacity="1"
   objecttolerance="10"
   gridtolerance="10"
   guidetolerance="10"
   inkscape:pageopacity="0"
   inkscape:pageshadow="2"
   inkscape:window-width="640"
   inkscape:window-height="480"
   id="namedview213" />
<g
   id="g210">
	
		<radialGradient
   id="SVGID_1_"
   cx="-30.2979"
   cy="16.7168"
   r="100.0053"
   gradientTransform="matrix(0.9584 -0.0105 -0.0106 -0.9487 50.8202 16.9154)"
   gradientUnits="userSpaceOnUse">
		<stop
   offset="0"
   style="stop-color:#FFFFFF"
   id="stop2" />
		<stop
   offset="0.0123"
   style="stop-color:#F5FCFE"
   id="stop4" />
		<stop
   offset="0.0334"
   style="stop-color:#D9F4FD"
   id="stop6" />
		<stop
   offset="0.0609"
   style="stop-color:#ACE7FA"
   id="stop8" />
		<stop
   offset="0.0932"
   style="stop-color:#6ED6F6"
   id="stop10" />
		<stop
   offset="0.1212"
   style="stop-color:#33C5F3"
   id="stop12" />
		<stop
   offset="0.1528"
   style="stop-color:#30BFEF"
   id="stop14" />
		<stop
   offset="0.1942"
   style="stop-color:#29AFE2"
   id="stop16" />
		<stop
   offset="0.241"
   style="stop-color:#1D94CD"
   id="stop18" />
		<stop
   offset="0.2915"
   style="stop-color:#0C6EB0"
   id="stop20" />
		<stop
   offset="0.3187"
   style="stop-color:#01579E"
   id="stop22" />
		<stop
   offset="0.3651"
   style="stop-color:#0E4E8D"
   id="stop24" />
		<stop
   offset="0.4562"
   style="stop-color:#303662"
   id="stop26" />
		<stop
   offset="0.465"
   style="stop-color:#34335E"
   id="stop28" />
		<stop
   offset="0.5143"
   style="stop-color:#2F2E5D"
   id="stop30" />
		<stop
   offset="0.6428"
   style="stop-color:#28285B"
   id="stop32" />
		<stop
   offset="1"
   style="stop-color:#26265B"
   id="stop34" />
	</radialGradient>
	<path
   fill="url(#SVGID_1_)"
   d="M22.714,41.5c10.536-0.119,19.03-8.719,18.913-19.146C41.516,11.926,32.826,3.519,22.29,3.634   C11.757,3.751,3.261,12.351,3.378,22.776C3.493,33.204,12.181,41.61,22.714,41.5z"
   id="path37" />
	<g
   id="g208">
		
			<linearGradient
   id="SVGID_2_"
   gradientUnits="userSpaceOnUse"
   x1="8.4019"
   y1="37.6025"
   x2="50.3768"
   y2="-4.3722"
   gradientTransform="matrix(1 0 0 -1 0 46)">
			<stop
   offset="0"
   style="stop-color:#E5E6E7"
   id="stop39" />
			<stop
   offset="0"
   style="stop-color:#D6D8D9"
   id="stop41" />
			<stop
   offset="0"
   style="stop-color:#D0D2D3"
   id="stop43" />
			<stop
   offset="0.0663"
   style="stop-color:#ECEDED"
   id="stop45" />
			<stop
   offset="0.1067"
   style="stop-color:#FFFFFF"
   id="stop47" />
			<stop
   offset="0.13"
   style="stop-color:#F5F6F6"
   id="stop49" />
			<stop
   offset="0.1693"
   style="stop-color:#DBDCDD"
   id="stop51" />
			<stop
   offset="0.2193"
   style="stop-color:#B1B3B4"
   id="stop53" />
			<stop
   offset="0.2472"
   style="stop-color:#96999B"
   id="stop55" />
			<stop
   offset="0.2718"
   style="stop-color:#999B9D"
   id="stop57" />
			<stop
   offset="0.2866"
   style="stop-color:#A1A4A6"
   id="stop59" />
			<stop
   offset="0.2987"
   style="stop-color:#AFB2B3"
   id="stop61" />
			<stop
   offset="0.3095"
   style="stop-color:#C3C6C7"
   id="stop63" />
			<stop
   offset="0.3146"
   style="stop-color:#D0D2D3"
   id="stop65" />
			<stop
   offset="0.364"
   style="stop-color:#C6C8C9"
   id="stop67" />
			<stop
   offset="0.4472"
   style="stop-color:#ACAEAF"
   id="stop69" />
			<stop
   offset="0.5532"
   style="stop-color:#828485"
   id="stop71" />
			<stop
   offset="0.6461"
   style="stop-color:#58595B"
   id="stop73" />
			<stop
   offset="0.6783"
   style="stop-color:#616265"
   id="stop75" />
			<stop
   offset="0.7323"
   style="stop-color:#7B7C7F"
   id="stop77" />
			<stop
   offset="0.7416"
   style="stop-color:#808184"
   id="stop79" />
			<stop
   offset="0.7429"
   style="stop-color:#7A7A7D"
   id="stop81" />
			<stop
   offset="0.75"
   style="stop-color:#5A595C"
   id="stop83" />
			<stop
   offset="0.7573"
   style="stop-color:#424041"
   id="stop85" />
			<stop
   offset="0.7648"
   style="stop-color:#312D2F"
   id="stop87" />
			<stop
   offset="0.7725"
   style="stop-color:#262324"
   id="stop89" />
			<stop
   offset="0.7809"
   style="stop-color:#231F20"
   id="stop91" />
			<stop
   offset="0.7899"
   style="stop-color:#4B4848"
   id="stop93" />
			<stop
   offset="0.8021"
   style="stop-color:#7A7878"
   id="stop95" />
			<stop
   offset="0.8146"
   style="stop-color:#A3A1A2"
   id="stop97" />
			<stop
   offset="0.8274"
   style="stop-color:#C4C3C3"
   id="stop99" />
			<stop
   offset="0.8403"
   style="stop-color:#DEDEDE"
   id="stop101" />
			<stop
   offset="0.8535"
   style="stop-color:#F0F0F0"
   id="stop103" />
			<stop
   offset="0.8672"
   style="stop-color:#FBFBFB"
   id="stop105" />
			<stop
   offset="0.882"
   style="stop-color:#FFFFFF"
   id="stop107" />
			<stop
   offset="0.8978"
   style="stop-color:#E9EAEB"
   id="stop109" />
			<stop
   offset="0.9218"
   style="stop-color:#CFD1D2"
   id="stop111" />
			<stop
   offset="0.9466"
   style="stop-color:#BDBEC1"
   id="stop113" />
			<stop
   offset="0.9722"
   style="stop-color:#B2B4B6"
   id="stop115" />
			<stop
   offset="1"
   style="stop-color:#AEB0B3"
   id="stop117" />
		</linearGradient>
		<path
   fill="url(#SVGID_2_)"
   d="M0.137,22.495c0-12.351,10.011-22.357,22.363-22.357l0,0c12.352,0,22.365,10.007,22.365,22.357l0,0    c0,12.351-10.016,22.362-22.365,22.362l0,0C10.147,44.857,0.137,34.846,0.137,22.495L0.137,22.495z M8.396,8.396    C4.787,12.007,2.55,16.985,2.55,22.495l0,0c0,5.512,2.236,10.487,5.846,14.104l0,0c3.612,3.612,8.595,5.84,14.104,5.84l0,0    c5.516,0,10.488-2.228,14.104-5.84l0,0c3.615-3.617,5.842-8.594,5.845-14.104l0,0c-0.003-5.51-2.229-10.487-5.845-14.099l0,0    c-3.615-3.612-8.59-5.841-14.104-5.841l0,0C16.991,2.556,12.009,4.784,8.396,8.396L8.396,8.396z"
   id="path120" />
		<g
   id="g163">
			
				<linearGradient
   id="SVGID_3_"
   gradientUnits="userSpaceOnUse"
   x1="1.27"
   y1="23.5"
   x2="40.0977"
   y2="23.5"
   gradientTransform="matrix(1 0 0 -1 0 46)">
				<stop
   offset="0"
   style="stop-color:#231F20"
   id="stop122" />
				<stop
   offset="0.0344"
   style="stop-color:#3D3B3C"
   id="stop124" />
				<stop
   offset="0.0824"
   style="stop-color:#666769"
   id="stop126" />
				<stop
   offset="0.108"
   style="stop-color:#828385"
   id="stop128" />
				<stop
   offset="0.1629"
   style="stop-color:#C9CACC"
   id="stop130" />
				<stop
   offset="0.1703"
   style="stop-color:#D3D4D6"
   id="stop132" />
				<stop
   offset="0.2147"
   style="stop-color:#DEDFE1"
   id="stop134" />
				<stop
   offset="0.3081"
   style="stop-color:#F1F1F2"
   id="stop136" />
				<stop
   offset="0.4063"
   style="stop-color:#FBFCFC"
   id="stop138" />
				<stop
   offset="0.5165"
   style="stop-color:#FFFFFF"
   id="stop140" />
				<stop
   offset="0.6418"
   style="stop-color:#FCFCFD"
   id="stop142" />
				<stop
   offset="0.7189"
   style="stop-color:#F4F4F5"
   id="stop144" />
				<stop
   offset="0.7827"
   style="stop-color:#E6E6E7"
   id="stop146" />
				<stop
   offset="0.8352"
   style="stop-color:#D3D4D6"
   id="stop148" />
				<stop
   offset="0.8607"
   style="stop-color:#B7B8BA"
   id="stop150" />
				<stop
   offset="0.9157"
   style="stop-color:#707173"
   id="stop152" />
				<stop
   offset="0.9231"
   style="stop-color:#666769"
   id="stop154" />
				<stop
   offset="0.9552"
   style="stop-color:#4C4B4D"
   id="stop156" />
				<stop
   offset="1"
   style="stop-color:#231F20"
   id="stop158" />
			</linearGradient>
			<path
   fill="url(#SVGID_3_)"
   d="M22.5,0C10.071,0,0,10.074,0,22.495C0,34.918,10.071,44.989,22.5,45     C34.93,44.989,45,34.918,45,22.495C45,10.074,34.93,0,22.5,0z M22.5,44.727c-12.28,0-22.226-9.951-22.234-22.23     C0.274,10.221,10.22,0.271,22.5,0.271c12.277,0,22.23,9.95,22.23,22.225C44.73,34.775,34.777,44.727,22.5,44.727z"
   id="path161" />
		</g>
		<g
   id="g206">
			
				<linearGradient
   id="SVGID_4_"
   gradientUnits="userSpaceOnUse"
   x1="22.5029"
   y1="42.335"
   x2="22.5029"
   y2="4.0629"
   gradientTransform="matrix(1 0 0 -1 0 46)">
				<stop
   offset="0"
   style="stop-color:#231F20"
   id="stop165" />
				<stop
   offset="0.0344"
   style="stop-color:#3D3B3C"
   id="stop167" />
				<stop
   offset="0.0824"
   style="stop-color:#666769"
   id="stop169" />
				<stop
   offset="0.108"
   style="stop-color:#828385"
   id="stop171" />
				<stop
   offset="0.1629"
   style="stop-color:#C9CACC"
   id="stop173" />
				<stop
   offset="0.1703"
   style="stop-color:#D3D4D6"
   id="stop175" />
				<stop
   offset="0.2147"
   style="stop-color:#DEDFE1"
   id="stop177" />
				<stop
   offset="0.3081"
   style="stop-color:#F1F1F2"
   id="stop179" />
				<stop
   offset="0.4063"
   style="stop-color:#FBFCFC"
   id="stop181" />
				<stop
   offset="0.5165"
   style="stop-color:#FFFFFF"
   id="stop183" />
				<stop
   offset="0.6418"
   style="stop-color:#FCFCFD"
   id="stop185" />
				<stop
   offset="0.7189"
   style="stop-color:#F4F4F5"
   id="stop187" />
				<stop
   offset="0.7827"
   style="stop-color:#E6E6E7"
   id="stop189" />
				<stop
   offset="0.8352"
   style="stop-color:#D3D4D6"
   id="stop191" />
				<stop
   offset="0.8607"
   style="stop-color:#B7B8BA"
   id="stop193" />
				<stop
   offset="0.9157"
   style="stop-color:#707173"
   id="stop195" />
				<stop
   offset="0.9231"
   style="stop-color:#666769"
   id="stop197" />
				<stop
   offset="0.9552"
   style="stop-color:#4C4B4D"
   id="stop199" />
				<stop
   offset="1"
   style="stop-color:#231F20"
   id="stop201" />
			</linearGradient>
			<path
   fill="url(#SVGID_4_)"
   d="M36.7,8.299c-3.638-3.634-8.648-5.882-14.2-5.882c-5.548,0-10.561,2.248-14.202,5.882     c-3.635,3.632-5.879,8.652-5.879,14.196c0,5.547,2.244,10.562,5.879,14.2c3.642,3.634,8.654,5.879,14.202,5.879     c5.552,0,10.563-2.245,14.2-5.879c3.641-3.639,5.881-8.653,5.887-14.2C42.581,16.951,40.341,11.931,36.7,8.299z M36.507,36.506     c-3.586,3.585-8.528,5.801-14.007,5.801c-5.473,0-10.415-2.216-14.011-5.801C4.903,32.915,2.69,27.975,2.69,22.495     c0-5.48,2.213-10.42,5.801-14.007l0,0c3.594-3.585,8.536-5.801,14.009-5.801c5.479,0,10.421,2.216,14.007,5.801     c3.591,3.587,5.808,8.527,5.808,14.007C42.314,27.975,40.098,32.915,36.507,36.506z"
   id="path204" />
		</g>
	</g>
</g>
</svg>
