<?xml version="1.0" encoding="UTF-8" standalone="no"?>
<svg
   xmlns:a="http://ns.adobe.com/AdobeSVGViewerExtensions/3.0/"
   xmlns:dc="http://purl.org/dc/elements/1.1/"
   xmlns:cc="http://creativecommons.org/ns#"
   xmlns:rdf="http://www.w3.org/1999/02/22-rdf-syntax-ns#"
   xmlns:svg="http://www.w3.org/2000/svg"
   xmlns="http://www.w3.org/2000/svg"
   xmlns:sodipodi="http://sodipodi.sourceforge.net/DTD/sodipodi-0.dtd"
   xmlns:inkscape="http://www.inkscape.org/namespaces/inkscape"
   version="1.1"
   id="图层_1"
   x="0px"
   y="0px"
   width="45px"
   height="45px"
   viewBox="0 0 45 45"
   enable-background="new 0 0 45 45"
   xml:space="preserve"
   sodipodi:docname="圆形按钮指示灯_14-01.svg"><metadata
   id="metadata140"><rdf:RDF><cc:Work
       rdf:about=""><dc:format>image/svg+xml</dc:format><dc:type
         rdf:resource="http://purl.org/dc/dcmitype/StillImage" /></cc:Work></rdf:RDF></metadata><defs
   id="defs138" /><sodipodi:namedview
   pagecolor="#ffffff"
   bordercolor="#666666"
   borderopacity="1"
   objecttolerance="10"
   gridtolerance="10"
   guidetolerance="10"
   inkscape:pageopacity="0"
   inkscape:pageshadow="2"
   inkscape:window-width="640"
   inkscape:window-height="480"
   id="namedview136" />
<g
   id="g133">
	<linearGradient
   id="SVGID_1_"
   gradientUnits="userSpaceOnUse"
   x1="22.4966"
   y1="0.1719"
   x2="22.4966"
   y2="44.8296">
		<stop
   offset="0"
   style="stop-color:#FFFFFF"
   id="stop2" />
		<stop
   offset="1"
   style="stop-color:#969696"
   id="stop4" />
		<a:midPointStop
   offset="0"
   style="stop-color:#FFFFFF" />
		<a:midPointStop
   offset="0.5"
   style="stop-color:#FFFFFF" />
		<a:midPointStop
   offset="1"
   style="stop-color:#969696" />
	</linearGradient>
	<circle
   fill="url(#SVGID_1_)"
   cx="22.497"
   cy="22.5"
   r="22.329"
   id="circle7" />
	<linearGradient
   id="SVGID_2_"
   gradientUnits="userSpaceOnUse"
   x1="22.4995"
   y1="0"
   x2="22.4995"
   y2="45.0005">
		<stop
   offset="0"
   style="stop-color:#FFFFFF"
   id="stop9" />
		<stop
   offset="1"
   style="stop-color:#242424"
   id="stop11" />
		<a:midPointStop
   offset="0"
   style="stop-color:#FFFFFF" />
		<a:midPointStop
   offset="0.5"
   style="stop-color:#FFFFFF" />
		<a:midPointStop
   offset="1"
   style="stop-color:#242424" />
	</linearGradient>
	<path
   fill="url(#SVGID_2_)"
   d="M0,22.5C0,10.072,10.072,0,22.5,0l0,0C34.926,0,45,10.072,45,22.5l0,0l0,0   C45,34.926,34.926,45,22.5,45l0,0C10.072,45,0,34.926,0,22.5L0,22.5z M6.833,6.831C2.822,10.841,0.34,16.381,0.34,22.5l0,0   c0,6.119,2.481,11.657,6.492,15.669l0,0c4.008,4.007,9.548,6.488,15.667,6.488l0,0c6.118,0,11.655-2.481,15.665-6.488l0,0   c4.012-4.012,6.494-9.55,6.494-15.669l0,0c0-6.119-2.482-11.659-6.494-15.669l0,0c-4.01-4.009-9.547-6.489-15.665-6.49l0,0   C16.38,0.342,10.84,2.822,6.833,6.831L6.833,6.831z"
   id="path14" />
	
		<radialGradient
   id="SVGID_3_"
   cx="-18.2842"
   cy="37.5254"
   r="18.2839"
   gradientTransform="matrix(1.0577 0 0 1.0577 41.7535 -16.9331)"
   gradientUnits="userSpaceOnUse">
		<stop
   offset="0"
   style="stop-color:#C0D500"
   id="stop16" />
		<stop
   offset="0.1963"
   style="stop-color:#BCD200"
   id="stop18" />
		<stop
   offset="0.386"
   style="stop-color:#B1C801"
   id="stop20" />
		<stop
   offset="0.5731"
   style="stop-color:#9DB802"
   id="stop22" />
		<stop
   offset="0.7585"
   style="stop-color:#82A203"
   id="stop24" />
		<stop
   offset="0.941"
   style="stop-color:#5F8505"
   id="stop26" />
		<stop
   offset="1"
   style="stop-color:#527A06"
   id="stop28" />
		<a:midPointStop
   offset="0"
   style="stop-color:#C0D500" />
		<a:midPointStop
   offset="0.7143"
   style="stop-color:#C0D500" />
		<a:midPointStop
   offset="1"
   style="stop-color:#527A06" />
	</radialGradient>
	<circle
   fill="url(#SVGID_3_)"
   cx="22.415"
   cy="22.756"
   r="19.337"
   id="circle31" />
	<linearGradient
   id="SVGID_4_"
   gradientUnits="userSpaceOnUse"
   x1="22.4141"
   y1="42.4365"
   x2="22.4141"
   y2="3.0767">
		<stop
   offset="0"
   style="stop-color:#FFFFFF"
   id="stop33" />
		<stop
   offset="1"
   style="stop-color:#6E6E6E"
   id="stop35" />
		<a:midPointStop
   offset="0"
   style="stop-color:#FFFFFF" />
		<a:midPointStop
   offset="0.5"
   style="stop-color:#FFFFFF" />
		<a:midPointStop
   offset="1"
   style="stop-color:#6E6E6E" />
	</linearGradient>
	<path
   fill="url(#SVGID_4_)"
   d="M2.734,22.756c0-10.867,8.813-19.68,19.681-19.68l0,0c10.867,0,19.679,8.813,19.679,19.68l0,0   c0,10.868-8.813,19.681-19.679,19.681l0,0C11.546,42.437,2.734,33.624,2.734,22.756L2.734,22.756z M8.982,9.322   c-3.438,3.439-5.566,8.187-5.566,13.434l0,0c0,5.246,2.128,9.993,5.566,13.433l0,0c3.438,3.438,8.187,5.563,13.433,5.563l0,0   c5.246,0,9.994-2.126,13.431-5.563l0,0c3.436-3.439,5.563-8.187,5.563-13.433l0,0c0-5.248-2.127-9.993-5.563-13.434l0,0   c-3.438-3.437-8.186-5.563-13.431-5.563l0,0C17.168,3.759,12.419,5.886,8.982,9.322L8.982,9.322z"
   id="path38" />
	<linearGradient
   id="SVGID_5_"
   gradientUnits="userSpaceOnUse"
   x1="22.3267"
   y1="4.3018"
   x2="22.3267"
   y2="21.4736">
		<stop
   offset="0"
   style="stop-color:#E9F2D8"
   id="stop40" />
		<stop
   offset="0.0959"
   style="stop-color:#E7F1CF"
   id="stop42" />
		<stop
   offset="0.2505"
   style="stop-color:#E2EDB8"
   id="stop44" />
		<stop
   offset="0.4444"
   style="stop-color:#DAE891"
   id="stop46" />
		<stop
   offset="0.6702"
   style="stop-color:#CFE05B"
   id="stop48" />
		<stop
   offset="0.9199"
   style="stop-color:#C1D617"
   id="stop50" />
		<stop
   offset="1"
   style="stop-color:#BCD300"
   id="stop52" />
		<a:midPointStop
   offset="0"
   style="stop-color:#E9F2D8" />
		<a:midPointStop
   offset="0.6028"
   style="stop-color:#E9F2D8" />
		<a:midPointStop
   offset="1"
   style="stop-color:#BCD300" />
	</linearGradient>
	<path
   fill="url(#SVGID_5_)"
   d="M40.225,21.474c-0.029-9.489-8.031-17.172-17.897-17.172c-9.865,0-17.865,7.683-17.898,17.172   c4.533-2.947,10.873-4.784,17.898-4.784C29.352,16.689,35.699,18.526,40.225,21.474z"
   id="path55" />
	<g
   opacity="0.4"
   id="g131">
		<g
   id="g92">
			
				<radialGradient
   id="SVGID_6_"
   cx="227.6611"
   cy="31.377"
   r="24.1616"
   gradientTransform="matrix(-0.7874 0.7479 -0.7874 -0.7479 235.6594 -104.4175)"
   gradientUnits="userSpaceOnUse">
				<stop
   offset="0"
   style="stop-color:#FFFFFF"
   id="stop57" />
				<stop
   offset="0.0972"
   style="stop-color:#FEFFF5"
   id="stop59" />
				<stop
   offset="0.2643"
   style="stop-color:#FCFFD9"
   id="stop61" />
				<stop
   offset="0.4799"
   style="stop-color:#F8FFAC"
   id="stop63" />
				<stop
   offset="0.5385"
   style="stop-color:#F7FF9F"
   id="stop65" />
				<stop
   offset="0.5756"
   style="stop-color:#F5FC99"
   id="stop67" />
				<stop
   offset="0.6242"
   style="stop-color:#EFF389"
   id="stop69" />
				<stop
   offset="0.6791"
   style="stop-color:#E6E56E"
   id="stop71" />
				<stop
   offset="0.7387"
   style="stop-color:#D8D148"
   id="stop73" />
				<stop
   offset="0.8015"
   style="stop-color:#C7B818"
   id="stop75" />
				<stop
   offset="0.8297"
   style="stop-color:#BFAB00"
   id="stop77" />
				<stop
   offset="0.8481"
   style="stop-color:#AE9D00"
   id="stop79" />
				<stop
   offset="0.8844"
   style="stop-color:#837900"
   id="stop81" />
				<stop
   offset="0.9341"
   style="stop-color:#3F3F00"
   id="stop83" />
				<stop
   offset="0.9478"
   style="stop-color:#3F3B00"
   id="stop85" />
				<stop
   offset="1"
   style="stop-color:#3F3900"
   id="stop87" />
				<a:midPointStop
   offset="0"
   style="stop-color:#FFFFFF" />
				<a:midPointStop
   offset="0.5876"
   style="stop-color:#FFFFFF" />
				<a:midPointStop
   offset="0.5385"
   style="stop-color:#F7FF9F" />
				<a:midPointStop
   offset="0.65"
   style="stop-color:#F7FF9F" />
				<a:midPointStop
   offset="0.8297"
   style="stop-color:#BFAB00" />
				<a:midPointStop
   offset="0.5556"
   style="stop-color:#BFAB00" />
				<a:midPointStop
   offset="0.9341"
   style="stop-color:#3F3F00" />
				<a:midPointStop
   offset="0.13"
   style="stop-color:#3F3F00" />
				<a:midPointStop
   offset="1"
   style="stop-color:#3F3900" />
			</radialGradient>
			<path
   fill="url(#SVGID_6_)"
   d="M35.438,34.953c-7.486,7.114-19.624,7.114-27.118,0c-1.742-1.655-3.076-3.556-4.002-5.574     c0.909,2.483,2.406,4.813,4.49,6.802c7.402,7.022,19.393,7.022,26.792,0c4.201-4.001,6.02-9.405,5.441-14.624     C41.186,26.394,39.322,31.264,35.438,34.953z"
   id="path90" />
		</g>
		<g
   id="g129">
			
				<radialGradient
   id="SVGID_7_"
   cx="227.6611"
   cy="31.377"
   r="24.1616"
   gradientTransform="matrix(-0.7874 0.7479 -0.7874 -0.7479 235.6594 -104.4175)"
   gradientUnits="userSpaceOnUse">
				<stop
   offset="0"
   style="stop-color:#FFFFFF"
   id="stop94" />
				<stop
   offset="0.0972"
   style="stop-color:#FEFFF5"
   id="stop96" />
				<stop
   offset="0.2643"
   style="stop-color:#FCFFD9"
   id="stop98" />
				<stop
   offset="0.4799"
   style="stop-color:#F8FFAC"
   id="stop100" />
				<stop
   offset="0.5385"
   style="stop-color:#F7FF9F"
   id="stop102" />
				<stop
   offset="0.5756"
   style="stop-color:#F5FC99"
   id="stop104" />
				<stop
   offset="0.6242"
   style="stop-color:#EFF389"
   id="stop106" />
				<stop
   offset="0.6791"
   style="stop-color:#E6E56E"
   id="stop108" />
				<stop
   offset="0.7387"
   style="stop-color:#D8D148"
   id="stop110" />
				<stop
   offset="0.8015"
   style="stop-color:#C7B818"
   id="stop112" />
				<stop
   offset="0.8297"
   style="stop-color:#BFAB00"
   id="stop114" />
				<stop
   offset="0.8481"
   style="stop-color:#AE9D00"
   id="stop116" />
				<stop
   offset="0.8844"
   style="stop-color:#837900"
   id="stop118" />
				<stop
   offset="0.9341"
   style="stop-color:#3F3F00"
   id="stop120" />
				<stop
   offset="0.9478"
   style="stop-color:#3F3B00"
   id="stop122" />
				<stop
   offset="1"
   style="stop-color:#3F3900"
   id="stop124" />
				<a:midPointStop
   offset="0"
   style="stop-color:#FFFFFF" />
				<a:midPointStop
   offset="0.5876"
   style="stop-color:#FFFFFF" />
				<a:midPointStop
   offset="0.5385"
   style="stop-color:#F7FF9F" />
				<a:midPointStop
   offset="0.65"
   style="stop-color:#F7FF9F" />
				<a:midPointStop
   offset="0.8297"
   style="stop-color:#BFAB00" />
				<a:midPointStop
   offset="0.5556"
   style="stop-color:#BFAB00" />
				<a:midPointStop
   offset="0.9341"
   style="stop-color:#3F3F00" />
				<a:midPointStop
   offset="0.13"
   style="stop-color:#3F3F00" />
				<a:midPointStop
   offset="1"
   style="stop-color:#3F3900" />
			</radialGradient>
			<path
   fill="url(#SVGID_7_)"
   d="M35.438,34.953c-7.486,7.114-19.624,7.114-27.118,0c-1.742-1.655-3.076-3.556-4.002-5.574     c0.909,2.483,2.406,4.813,4.49,6.802c7.402,7.022,19.393,7.022,26.792,0c4.201-4.001,6.02-9.405,5.441-14.624     C41.186,26.394,39.322,31.264,35.438,34.953z"
   id="path127" />
		</g>
	</g>
</g>
</svg>
