<?xml version="1.0" encoding="UTF-8" standalone="no"?>
<svg
   xmlns:a="http://ns.adobe.com/AdobeSVGViewerExtensions/3.0/"
   xmlns:dc="http://purl.org/dc/elements/1.1/"
   xmlns:cc="http://creativecommons.org/ns#"
   xmlns:rdf="http://www.w3.org/1999/02/22-rdf-syntax-ns#"
   xmlns:svg="http://www.w3.org/2000/svg"
   xmlns="http://www.w3.org/2000/svg"
   xmlns:sodipodi="http://sodipodi.sourceforge.net/DTD/sodipodi-0.dtd"
   xmlns:inkscape="http://www.inkscape.org/namespaces/inkscape"
   version="1.1"
   id="图层_1"
   x="0px"
   y="0px"
   width="48px"
   height="48px"
   viewBox="0 0 48 48"
   enable-background="new 0 0 48 48"
   xml:space="preserve"
   sodipodi:docname="圆形按钮指示灯_24-01.svg"><metadata
   id="metadata106"><rdf:RDF><cc:Work
       rdf:about=""><dc:format>image/svg+xml</dc:format><dc:type
         rdf:resource="http://purl.org/dc/dcmitype/StillImage" /></cc:Work></rdf:RDF></metadata><defs
   id="defs104" /><sodipodi:namedview
   pagecolor="#ffffff"
   bordercolor="#666666"
   borderopacity="1"
   objecttolerance="10"
   gridtolerance="10"
   guidetolerance="10"
   inkscape:pageopacity="0"
   inkscape:pageshadow="2"
   inkscape:window-width="640"
   inkscape:window-height="480"
   id="namedview102" />
<g
   id="g99">
	
		<linearGradient
   id="SVGID_1_"
   gradientUnits="userSpaceOnUse"
   x1="44.8086"
   y1="-7.2881"
   x2="44.8086"
   y2="40.7124"
   gradientTransform="matrix(1 -0.0014 0.0014 1 -20.8308 7.3514)">
		<stop
   offset="0"
   style="stop-color:#E7E7E5"
   id="stop2" />
		<stop
   offset="0.0446"
   style="stop-color:#E1E1DF"
   id="stop4" />
		<stop
   offset="0.7015"
   style="stop-color:#8C8C89"
   id="stop6" />
		<stop
   offset="1"
   style="stop-color:#6B6A67"
   id="stop8" />
		<a:midPointStop
   offset="0"
   style="stop-color:#E7E7E5" />
		<a:midPointStop
   offset="0.4725"
   style="stop-color:#E7E7E5" />
		<a:midPointStop
   offset="1"
   style="stop-color:#6B6A67" />
	</linearGradient>
	<path
   fill="url(#SVGID_1_)"
   d="M48,23.965C48.018,37.219,37.289,47.977,24.034,48C10.78,48.018,0.018,37.283,0,24.029   C-0.016,10.775,10.713,0.018,23.969,0C37.223-0.023,47.984,10.711,48,23.965z"
   id="path11" />
	<g
   id="g48">
		
			<linearGradient
   id="SVGID_2_"
   gradientUnits="userSpaceOnUse"
   x1="44.8086"
   y1="40.3428"
   x2="44.8086"
   y2="-6.9243"
   gradientTransform="matrix(1 -0.0014 0.0014 1 -20.8308 7.3514)">
			<stop
   offset="0.0051"
   style="stop-color:#5A5856"
   id="stop13" />
			<stop
   offset="0.1343"
   style="stop-color:#9C9B9B"
   id="stop15" />
			<stop
   offset="0.1878"
   style="stop-color:#B9B8B9"
   id="stop17" />
			<stop
   offset="0.2363"
   style="stop-color:#B7B5B6"
   id="stop19" />
			<stop
   offset="0.277"
   style="stop-color:#B1ADAB"
   id="stop21" />
			<stop
   offset="0.2995"
   style="stop-color:#ABA5A2"
   id="stop23" />
			<stop
   offset="0.3276"
   style="stop-color:#A49F9C"
   id="stop25" />
			<stop
   offset="0.3674"
   style="stop-color:#928D8A"
   id="stop27" />
			<stop
   offset="0.4138"
   style="stop-color:#74706E"
   id="stop29" />
			<stop
   offset="0.4467"
   style="stop-color:#5A5856"
   id="stop31" />
			<stop
   offset="0.5178"
   style="stop-color:#211E1D"
   id="stop33" />
			<stop
   offset="0.5405"
   style="stop-color:#3C3A38"
   id="stop35" />
			<stop
   offset="0.5637"
   style="stop-color:#52504E"
   id="stop37" />
			<stop
   offset="0.5787"
   style="stop-color:#5A5856"
   id="stop39" />
			<stop
   offset="0.9391"
   style="stop-color:#F9F9FA"
   id="stop41" />
			<stop
   offset="1"
   style="stop-color:#FFFFFF"
   id="stop43" />
			<a:midPointStop
   offset="0.0051"
   style="stop-color:#5A5856" />
			<a:midPointStop
   offset="0.5135"
   style="stop-color:#5A5856" />
			<a:midPointStop
   offset="0.1878"
   style="stop-color:#B9B8B9" />
			<a:midPointStop
   offset="0.7414"
   style="stop-color:#B9B8B9" />
			<a:midPointStop
   offset="0.2995"
   style="stop-color:#ABA5A2" />
			<a:midPointStop
   offset="0.6327"
   style="stop-color:#ABA5A2" />
			<a:midPointStop
   offset="0.4467"
   style="stop-color:#5A5856" />
			<a:midPointStop
   offset="0.5"
   style="stop-color:#5A5856" />
			<a:midPointStop
   offset="0.5178"
   style="stop-color:#211E1D" />
			<a:midPointStop
   offset="0.3898"
   style="stop-color:#211E1D" />
			<a:midPointStop
   offset="0.5787"
   style="stop-color:#5A5856" />
			<a:midPointStop
   offset="0.5"
   style="stop-color:#5A5856" />
			<a:midPointStop
   offset="0.9391"
   style="stop-color:#F9F9FA" />
			<a:midPointStop
   offset="0.6316"
   style="stop-color:#F9F9FA" />
			<a:midPointStop
   offset="1"
   style="stop-color:#FFFFFF" />
		</linearGradient>
		<path
   fill="url(#SVGID_2_)"
   d="M23.969,0.363C10.917,0.387,0.351,10.98,0.368,24.029c0.02,13.055,10.615,23.619,23.664,23.602    C37.086,47.613,47.65,37.02,47.635,23.965C47.615,10.916,37.02,0.352,23.969,0.363z M24.03,44.895    C12.488,44.912,3.119,35.566,3.102,24.029C3.086,12.486,12.43,3.117,23.973,3.1c11.541-0.018,20.912,9.328,20.925,20.871    C44.916,35.514,35.572,44.883,24.03,44.895z"
   id="path46" />
	</g>
	<g
   id="g69">
		
			<linearGradient
   id="SVGID_3_"
   gradientUnits="userSpaceOnUse"
   x1="46.2764"
   y1="31.3994"
   x2="43.7852"
   y2="6.4876"
   gradientTransform="matrix(1 -0.0014 0.0014 1 -20.8308 7.3514)">
			<stop
   offset="0.0051"
   style="stop-color:#FCFCFD"
   id="stop50" />
			<stop
   offset="0.139"
   style="stop-color:#F7F7F9"
   id="stop52" />
			<stop
   offset="0.2947"
   style="stop-color:#EAE9EC"
   id="stop54" />
			<stop
   offset="0.4614"
   style="stop-color:#D3D2D6"
   id="stop56" />
			<stop
   offset="0.6356"
   style="stop-color:#B4B1B9"
   id="stop58" />
			<stop
   offset="0.8159"
   style="stop-color:#8B8792"
   id="stop60" />
			<stop
   offset="0.9987"
   style="stop-color:#5A5464"
   id="stop62" />
			<stop
   offset="1"
   style="stop-color:#5A5464"
   id="stop64" />
			<a:midPointStop
   offset="0.0051"
   style="stop-color:#FCFCFD" />
			<a:midPointStop
   offset="0.6758"
   style="stop-color:#FCFCFD" />
			<a:midPointStop
   offset="1"
   style="stop-color:#5A5464" />
		</linearGradient>
		<path
   fill="url(#SVGID_3_)"
   d="M24.03,44.895C12.488,44.912,3.119,35.566,3.102,24.029C3.086,12.486,12.43,3.117,23.973,3.1    c11.541-0.018,20.912,9.328,20.925,20.871C44.916,35.514,35.572,44.883,24.03,44.895z"
   id="path67" />
	</g>
	<g
   id="g90">
		
			<linearGradient
   id="SVGID_4_"
   gradientUnits="userSpaceOnUse"
   x1="44.5967"
   y1="36.9199"
   x2="44.653"
   y2="-3.2983"
   gradientTransform="matrix(1 -0.0014 0.0014 1 -20.8308 7.3514)">
			<stop
   offset="0"
   style="stop-color:#8DC21F"
   id="stop71" />
			<stop
   offset="0.0992"
   style="stop-color:#7DB821"
   id="stop73" />
			<stop
   offset="0.5288"
   style="stop-color:#3A8D2B"
   id="stop75" />
			<stop
   offset="0.8405"
   style="stop-color:#107332"
   id="stop77" />
			<stop
   offset="1"
   style="stop-color:#006934"
   id="stop79" />
			<a:midPointStop
   offset="0"
   style="stop-color:#8DC21F" />
			<a:midPointStop
   offset="0.4424"
   style="stop-color:#8DC21F" />
			<a:midPointStop
   offset="1"
   style="stop-color:#006934" />
		</linearGradient>
		<path
   fill="url(#SVGID_4_)"
   d="M43.928,24.076c0.016,11.104-8.977,20.121-20.083,20.133C12.737,44.227,3.72,35.238,3.706,24.129    C3.69,13.02,12.682,4.008,23.789,3.99C34.895,3.979,43.912,12.967,43.928,24.076z"
   id="path82" />
		<g
   id="g88">
			<path
   fill="#0D180D"
   d="M23.936,41.742C14.17,41.754,6.215,33.82,6.202,24.059C6.189,14.291,14.124,6.34,23.887,6.322     c9.763-0.012,17.72,7.922,17.732,17.684C41.633,33.773,33.699,41.73,23.936,41.742L23.936,41.742z"
   id="path84" />
			<path
   fill="#231815"
   d="M23.842,42.451C14.078,42.463,6.122,34.529,6.11,24.768C6.097,15,14.029,7.049,23.793,7.031     c9.765-0.012,17.718,7.922,17.732,17.689C41.539,34.482,33.605,42.439,23.842,42.451L23.842,42.451z"
   id="path86" />
		</g>
	</g>
	<linearGradient
   id="SVGID_5_"
   gradientUnits="userSpaceOnUse"
   x1="23.8164"
   y1="42.0586"
   x2="23.8164"
   y2="6.5688">
		<stop
   offset="0.3333"
   style="stop-color:#CCCED1"
   id="stop92" />
		<stop
   offset="0.8447"
   style="stop-color:#F1F2F3"
   id="stop94" />
		<a:midPointStop
   offset="0.3333"
   style="stop-color:#CCCED1" />
		<a:midPointStop
   offset="0.5"
   style="stop-color:#CCCED1" />
		<a:midPointStop
   offset="0.8447"
   style="stop-color:#F1F2F3" />
	</linearGradient>
	<path
   fill="url(#SVGID_5_)"
   d="M6.072,24.311c0-9.797,7.944-17.742,17.743-17.742c9.8,0,17.746,7.945,17.746,17.742   c0,9.803-7.945,17.748-17.746,17.748C14.016,42.059,6.072,34.113,6.072,24.311z"
   id="path97" />
</g>
</svg>
