<?xml version="1.0" encoding="UTF-8" standalone="no"?>
<svg
   xmlns:a="http://ns.adobe.com/AdobeSVGViewerExtensions/3.0/"
   xmlns:dc="http://purl.org/dc/elements/1.1/"
   xmlns:cc="http://creativecommons.org/ns#"
   xmlns:rdf="http://www.w3.org/1999/02/22-rdf-syntax-ns#"
   xmlns:svg="http://www.w3.org/2000/svg"
   xmlns="http://www.w3.org/2000/svg"
   xmlns:xlink="http://www.w3.org/1999/xlink"
   xmlns:sodipodi="http://sodipodi.sourceforge.net/DTD/sodipodi-0.dtd"
   xmlns:inkscape="http://www.inkscape.org/namespaces/inkscape"
   version="1.1"
   id="图层_1"
   x="0px"
   y="0px"
   width="50px"
   height="50px"
   viewBox="0 0 50 50"
   enable-background="new 0 0 50 50"
   xml:space="preserve"
   sodipodi:docname="圆形按钮指示灯_31-01.svg"><metadata
   id="metadata172"><rdf:RDF><cc:Work
       rdf:about=""><dc:format>image/svg+xml</dc:format><dc:type
         rdf:resource="http://purl.org/dc/dcmitype/StillImage" /></cc:Work></rdf:RDF></metadata><defs
   id="defs170" /><sodipodi:namedview
   pagecolor="#ffffff"
   bordercolor="#666666"
   borderopacity="1"
   objecttolerance="10"
   gridtolerance="10"
   guidetolerance="10"
   inkscape:pageopacity="0"
   inkscape:pageshadow="2"
   inkscape:window-width="640"
   inkscape:window-height="480"
   id="namedview168" />
<g
   id="g165">
	<g
   id="g40">
		<g
   id="g38">
			<linearGradient
   id="SVGID_1_"
   gradientUnits="userSpaceOnUse"
   x1="25.2466"
   y1="48.1445"
   x2="25.2466"
   y2="1.0259">
				<stop
   offset="0"
   style="stop-color:#FFFFFF"
   id="stop2" />
				<stop
   offset="0.2147"
   style="stop-color:#BABABA"
   id="stop4" />
				<stop
   offset="0.4724"
   style="stop-color:#757575"
   id="stop6" />
				<stop
   offset="0.4829"
   style="stop-color:#777777"
   id="stop8" />
				<stop
   offset="0.4887"
   style="stop-color:#7F7F7F"
   id="stop10" />
				<stop
   offset="0.4933"
   style="stop-color:#8D8D8D"
   id="stop12" />
				<stop
   offset="0.4969"
   style="stop-color:#9E9E9E"
   id="stop14" />
				<stop
   offset="0.9816"
   style="stop-color:#FFFFFF"
   id="stop16" />
				<a:midPointStop
   offset="0"
   style="stop-color:#FFFFFF" />
				<a:midPointStop
   offset="0.5"
   style="stop-color:#FFFFFF" />
				<a:midPointStop
   offset="0.2147"
   style="stop-color:#BABABA" />
				<a:midPointStop
   offset="0.5"
   style="stop-color:#BABABA" />
				<a:midPointStop
   offset="0.4724"
   style="stop-color:#757575" />
				<a:midPointStop
   offset="0.814"
   style="stop-color:#757575" />
				<a:midPointStop
   offset="0.4969"
   style="stop-color:#9E9E9E" />
				<a:midPointStop
   offset="0.5"
   style="stop-color:#9E9E9E" />
				<a:midPointStop
   offset="0.9816"
   style="stop-color:#FFFFFF" />
			</linearGradient>
			<path
   fill="url(#SVGID_1_)"
   d="M25.249,48.145c-13.212,0-23.961-10.571-23.961-23.56s10.749-23.56,23.961-23.56     c13.208,0,23.957,10.571,23.957,23.56S38.457,48.145,25.249,48.145z"
   id="path19" />
			<g
   opacity="0.35"
   id="g23">
				<path
   fill="#FFFFFF"
   d="M25,0.836c-13.785,0-25,11.029-25,24.579C0,38.971,11.215,50,25,50c13.787,0,25-11.029,25-24.585      C50,11.865,38.787,0.836,25,0.836L25,0.836z"
   id="path21" />
			</g>
			<g
   id="g27">
				<path
   fill="#100504"
   d="M25,0C11.215,0,0,11.029,0,24.585C0,38.135,11.215,49.17,25,49.17c13.787,0,25-11.035,25-24.585      C50,11.029,38.787,0,25,0L25,0z"
   id="path25" />
			</g>
			<g
   id="g36">
				<linearGradient
   id="SVGID_2_"
   gradientUnits="userSpaceOnUse"
   x1="25.001"
   y1="48.334"
   x2="25.001"
   y2="0.8364">
					<stop
   offset="0"
   style="stop-color:#464646"
   id="stop29" />
					<stop
   offset="1"
   style="stop-color:#363636"
   id="stop31" />
					<a:midPointStop
   offset="0"
   style="stop-color:#464646" />
					<a:midPointStop
   offset="0.5"
   style="stop-color:#464646" />
					<a:midPointStop
   offset="1"
   style="stop-color:#363636" />
				</linearGradient>
				<path
   fill="url(#SVGID_2_)"
   d="M25,0.836c-13.318,0-24.153,10.65-24.153,23.749c0,13.092,10.835,23.749,24.153,23.749      c13.316,0,24.154-10.657,24.154-23.749C49.154,11.486,38.316,0.836,25,0.836L25,0.836z"
   id="path34" />
			</g>
		</g>
	</g>
	<g
   a:adobe-knockout="true"
   id="g56">
		<path
   opacity="0.2"
   fill="#100504"
   a:adobe-knockout="false"
   d="M48.309,25.836c0,12.652-10.438,22.913-23.308,22.913    c-12.87,0-23.307-10.261-23.307-22.913C1.694,13.178,12.13,2.918,25,2.918C37.871,2.918,48.309,13.178,48.309,25.836z"
   id="path42" />
		<path
   opacity="0.3333"
   fill="#100504"
   a:adobe-knockout="false"
   d="M47.885,25.627c0,12.422-10.248,22.497-22.884,22.497    S2.118,38.05,2.118,25.627C2.118,13.199,12.364,3.126,25,3.126S47.885,13.199,47.885,25.627z"
   id="path44" />
		<path
   opacity="0.4667"
   fill="#100504"
   a:adobe-knockout="false"
   d="M47.46,25.419C47.46,37.611,37.403,47.5,25,47.5    c-12.402,0-22.458-9.889-22.458-22.081C2.542,13.22,12.598,3.335,25,3.335C37.403,3.335,47.46,13.22,47.46,25.419z"
   id="path46" />
		<path
   opacity="0.6"
   fill="#100504"
   a:adobe-knockout="false"
   d="M47.036,25.21c0,11.963-9.867,21.665-22.036,21.665    S2.966,37.174,2.966,25.21C2.966,13.242,12.832,3.543,25,3.543S47.036,13.242,47.036,25.21z"
   id="path48" />
		<path
   opacity="0.7333"
   fill="#100504"
   a:adobe-knockout="false"
   d="M46.612,25.002c0,11.733-9.678,21.248-21.612,21.248    c-11.935,0-21.61-9.515-21.61-21.248c0-11.739,9.675-21.25,21.61-21.25C36.935,3.752,46.612,13.263,46.612,25.002z"
   id="path50" />
		<path
   opacity="0.8667"
   fill="#100504"
   a:adobe-knockout="false"
   d="M46.188,24.793c0,11.503-9.486,20.833-21.187,20.833    S3.814,36.297,3.814,24.793C3.814,13.284,13.3,3.96,25,3.96S46.188,13.284,46.188,24.793z"
   id="path52" />
		<path
   fill="#100504"
   a:adobe-knockout="false"
   d="M45.764,24.585c0,11.273-9.297,20.416-20.763,20.416    c-11.467,0-20.762-9.143-20.762-20.416C4.239,13.306,13.534,4.169,25,4.169C36.467,4.169,45.764,13.306,45.764,24.585z"
   id="path54" />
	</g>
	<g
   id="g64">
		<defs
   id="defs59">
			<path
   id="SVGID_3_"
   d="M49.143,24.39c0,13.227-10.809,23.944-24.142,23.944l0,0c-13.334,0-24.144-10.718-24.144-23.944l0,0     C0.857,11.17,11.667,0.451,25,0.451l0,0C38.334,0.451,49.143,11.17,49.143,24.39L49.143,24.39z" />
		</defs>
		<clipPath
   id="SVGID_4_">
			<use
   xlink:href="#SVGID_3_"
   overflow="visible"
   id="use61" />
		</clipPath>
	</g>
	<ellipse
   fill="#100504"
   cx="25.001"
   cy="24.585"
   rx="21.188"
   ry="20.831"
   id="ellipse66" />
	
		<radialGradient
   id="SVGID_5_"
   cx="24.2471"
   cy="-9.3584"
   r="30.8957"
   gradientTransform="matrix(1.2812 0 0 1.2598 -6.5843 22.5287)"
   gradientUnits="userSpaceOnUse">
		<stop
   offset="0.4388"
   style="stop-color:#F2A200"
   id="stop68" />
		<stop
   offset="1"
   style="stop-color:#805500"
   id="stop70" />
		<a:midPointStop
   offset="0.4388"
   style="stop-color:#F2A200" />
		<a:midPointStop
   offset="0.5"
   style="stop-color:#F2A200" />
		<a:midPointStop
   offset="1"
   style="stop-color:#805500" />
	</radialGradient>
	<ellipse
   fill="url(#SVGID_5_)"
   cx="25"
   cy="24.585"
   rx="20.34"
   ry="20.001"
   id="ellipse73" />
	<g
   id="g98">
		<defs
   id="defs76">
			<path
   id="SVGID_6_"
   d="M25.245,3.992c-11.249,0-20.698,9.619-20.698,20.678c0,11.061,9.117,20.026,20.366,20.026     c11.246,0,20.363-8.966,20.363-20.026C45.275,13.611,36.492,3.992,25.245,3.992z M24.577,44.696     c-12.02,0-19.365-9.724-19.365-19.696S15.104,5.304,25.245,5.304c10.14,0,19.363,9.724,19.363,19.696     S37.281,44.696,24.577,44.696z" />
		</defs>
		<clipPath
   id="SVGID_7_">
			<use
   xlink:href="#SVGID_6_"
   overflow="visible"
   id="use78" />
		</clipPath>
		<defs
   id="defs84">
			<filter
   id="Adobe_OpacityMaskFilter"
   filterUnits="userSpaceOnUse"
   x="-0.375"
   y="-19.508"
   width="49.321"
   height="48.343">
				<feColorMatrix
   type="matrix"
   values="1 0 0 0 0  0 1 0 0 0  0 0 1 0 0  0 0 0 1 0"
   id="feColorMatrix81" />
			</filter>
		</defs>
		<mask
   maskUnits="userSpaceOnUse"
   x="-0.375"
   y="-19.508"
   width="49.321"
   height="48.343"
   id="SVGID_8_">
			<g
   filter="url(#Adobe_OpacityMaskFilter)"
   id="g93">
				
					<radialGradient
   id="SVGID_9_"
   cx="292.6875"
   cy="2793.9521"
   r="25.9565"
   gradientTransform="matrix(0.9502 0.0315 0.0071 0.9306 -273.7617 -2604.532)"
   gradientUnits="userSpaceOnUse">
					<stop
   offset="0"
   style="stop-color:#BDBDBD"
   id="stop86" />
					<stop
   offset="1"
   style="stop-color:#000000"
   id="stop88" />
					<a:midPointStop
   offset="0"
   style="stop-color:#BDBDBD" />
					<a:midPointStop
   offset="0.5"
   style="stop-color:#BDBDBD" />
					<a:midPointStop
   offset="1"
   style="stop-color:#000000" />
				</radialGradient>
				<path
   clip-path="url(#SVGID_7_)"
   fill="url(#SVGID_9_)"
   d="M48.945,5.487c0.098,13.336-10.859,23.791-24.477,23.333      C10.851,28.369-0.275,17.182-0.375,3.846C-0.478-9.497,10.483-19.94,24.099-19.494C37.715-19.037,48.838-7.855,48.945,5.487z"
   id="path91" />
			</g>
		</mask>
		<path
   clip-path="url(#SVGID_7_)"
   mask="url(#SVGID_8_)"
   d="M48.945,5.487c0.098,13.336-10.859,23.791-24.477,23.333    C10.851,28.369-0.275,17.182-0.375,3.846C-0.478-9.497,10.483-19.94,24.099-19.494C37.715-19.037,48.838-7.855,48.945,5.487z"
   id="path96" />
	</g>
	<linearGradient
   id="SVGID_10_"
   gradientUnits="userSpaceOnUse"
   x1="24.9102"
   y1="7.5488"
   x2="24.9102"
   y2="41.5009">
		<stop
   offset="0.3939"
   style="stop-color:#F9D100"
   id="stop100" />
		<stop
   offset="0.5924"
   style="stop-color:#F7D003"
   id="stop102" />
		<stop
   offset="0.7516"
   style="stop-color:#F1CB0D"
   id="stop104" />
		<stop
   offset="0.897"
   style="stop-color:#E6C41E"
   id="stop106" />
		<a:midPointStop
   offset="0.3939"
   style="stop-color:#F9D100" />
		<a:midPointStop
   offset="0.75"
   style="stop-color:#F9D100" />
		<a:midPointStop
   offset="0.897"
   style="stop-color:#E6C41E" />
	</linearGradient>
	<path
   fill="url(#SVGID_10_)"
   d="M42.605,24.67c0,9.613-7.922,17.401-17.693,17.401c-9.777,0-17.697-7.788-17.697-17.401   c0-9.606,7.92-17.395,17.697-17.395C34.684,7.275,42.605,15.063,42.605,24.67z"
   id="path109" />
	<path
   fill="#FFFFFF"
   a:adobe-blending-mode="overlay"
   d="M24.913,7.275c-9.777,0-17.697,7.788-17.697,17.395   c0,9.613,7.92,17.401,17.697,17.401c9.771,0,17.693-7.788,17.693-17.401C42.605,15.063,34.684,7.275,24.913,7.275z M24.913,41.412   c-9.405,0-17.029-7.495-17.029-16.742c0-9.246,7.624-16.741,17.029-16.741c9.4,0,17.023,7.495,17.023,16.741   C41.936,33.917,34.313,41.412,24.913,41.412z"
   id="path111" />
	<linearGradient
   id="SVGID_11_"
   gradientUnits="userSpaceOnUse"
   x1="24.9106"
   y1="42.0713"
   x2="24.9106"
   y2="7.2759">
		<stop
   offset="0.3939"
   style="stop-color:#FFFF02"
   id="stop113" />
		<stop
   offset="0.476"
   style="stop-color:#FFFF05"
   id="stop115" />
		<stop
   offset="0.542"
   style="stop-color:#FFFF0F"
   id="stop117" />
		<stop
   offset="0.6023"
   style="stop-color:#FFFF20"
   id="stop119" />
		<stop
   offset="0.6593"
   style="stop-color:#FFFF38"
   id="stop121" />
		<stop
   offset="0.714"
   style="stop-color:#FEFE57"
   id="stop123" />
		<stop
   offset="0.767"
   style="stop-color:#FEFE7D"
   id="stop125" />
		<stop
   offset="0.8185"
   style="stop-color:#FEFEA9"
   id="stop127" />
		<stop
   offset="0.8677"
   style="stop-color:#FDFDDC"
   id="stop129" />
		<stop
   offset="0.897"
   style="stop-color:#FDFDFE"
   id="stop131" />
		<a:midPointStop
   offset="0.3939"
   style="stop-color:#FFFF02" />
		<a:midPointStop
   offset="0.75"
   style="stop-color:#FFFF02" />
		<a:midPointStop
   offset="0.897"
   style="stop-color:#FDFDFE" />
	</linearGradient>
	<path
   opacity="0.5"
   fill="url(#SVGID_11_)"
   d="M24.913,7.275c-9.777,0-17.697,7.788-17.697,17.395   c0,9.613,7.92,17.401,17.697,17.401c9.771,0,17.693-7.788,17.693-17.401C42.605,15.063,34.684,7.275,24.913,7.275z M24.913,41.412   c-9.405,0-17.029-7.495-17.029-16.742c0-9.246,7.624-16.741,17.029-16.741c9.4,0,17.023,7.495,17.023,16.741   C41.936,33.917,34.313,41.412,24.913,41.412z"
   id="path134" />
	<linearGradient
   id="SVGID_12_"
   gradientUnits="userSpaceOnUse"
   x1="11.5151"
   y1="41.0703"
   x2="38.4883"
   y2="41.0703">
		<stop
   offset="0"
   style="stop-color:#854E00"
   id="stop136" />
		<stop
   offset="0.503"
   style="stop-color:#EA8901"
   id="stop138" />
		<stop
   offset="1"
   style="stop-color:#814B00"
   id="stop140" />
		<a:midPointStop
   offset="0"
   style="stop-color:#854E00" />
		<a:midPointStop
   offset="0.5"
   style="stop-color:#854E00" />
		<a:midPointStop
   offset="0.503"
   style="stop-color:#EA8901" />
		<a:midPointStop
   offset="0.5"
   style="stop-color:#EA8901" />
		<a:midPointStop
   offset="1"
   style="stop-color:#814B00" />
	</linearGradient>
	<path
   opacity="0.5"
   fill="url(#SVGID_12_)"
   d="M11.515,37.977c0,0,3.37,6.188,13.485,6.188c10.115,0,13.488-6.188,13.488-6.188   S35.791,43.481,25,43.481C14.211,43.481,11.515,37.977,11.515,37.977z"
   id="path143" />
	<linearGradient
   id="SVGID_13_"
   gradientUnits="userSpaceOnUse"
   x1="24.9893"
   y1="41.3887"
   x2="24.9893"
   y2="38.3846">
		<stop
   offset="0"
   style="stop-color:#FDFDFE"
   id="stop145" />
		<stop
   offset="0.8434"
   style="stop-color:#FDFDFE;stop-opacity:0.0896"
   id="stop147" />
		<stop
   offset="0.9264"
   style="stop-color:#FDFDFE;stop-opacity:0"
   id="stop149" />
		<a:midPointStop
   offset="0"
   style="stop-color:#FDFDFE" />
		<a:midPointStop
   offset="0.75"
   style="stop-color:#FDFDFE" />
		<a:midPointStop
   offset="0.9264"
   style="stop-color:#FDFDFE;stop-opacity:0" />
	</linearGradient>
	<path
   opacity="0.6"
   fill="url(#SVGID_13_)"
   d="M24.716,42.071c-5.183,0-8.87-1.946-9.71-3.771   c-0.137-0.293-0.202-0.458-0.164-0.519c0.009-0.013,0.037-0.062,0.206-0.062c0.161,0,0.42,0.036,0.812,0.085   c1.23,0.165,3.781,0.495,8.713,0.495c5.88,0,8.642-0.739,9.824-1.05c0.299-0.08,0.496-0.135,0.6-0.135h0.063l0.088,0.116   c-0.002-0.006-0.004-0.006-0.006-0.006c-0.025,0-0.074,0.128-0.164,0.323C34.299,39.025,30.895,42.071,24.716,42.071z"
   id="path152" />
	<linearGradient
   id="SVGID_14_"
   gradientUnits="userSpaceOnUse"
   x1="24.9985"
   y1="7.7393"
   x2="24.9985"
   y2="32.5305">
		<stop
   offset="0.0848"
   style="stop-color:#FAEE97;stop-opacity:0.9"
   id="stop154" />
		<stop
   offset="0.2136"
   style="stop-color:#FAEF9D;stop-opacity:0.9141"
   id="stop156" />
		<stop
   offset="0.5636"
   style="stop-color:#F9F0A7;stop-opacity:0.9523"
   id="stop158" />
		<stop
   offset="1"
   style="stop-color:#F9F0AA"
   id="stop160" />
		<a:midPointStop
   offset="0.0848"
   style="stop-color:#FAEE97;stop-opacity:0.9" />
		<a:midPointStop
   offset="0.25"
   style="stop-color:#FAEE97;stop-opacity:0.9" />
		<a:midPointStop
   offset="1"
   style="stop-color:#F9F0AA" />
	</linearGradient>
	<path
   opacity="0.9"
   fill="url(#SVGID_14_)"
   d="M25.335,7.495c-17.282,0-16.618,19.043-13.295,21.015   c3.214,1.904,7.762,3.937,12.964,3.937c4.501,0,9.296-1.801,12.298-3.277C41.289,27.197,42.617,7.495,25.335,7.495z"
   id="path163" />
</g>
</svg>
