<?xml version="1.0" encoding="UTF-8" standalone="no"?>
<svg
   xmlns:a="http://ns.adobe.com/AdobeSVGViewerExtensions/3.0/"
   xmlns:dc="http://purl.org/dc/elements/1.1/"
   xmlns:cc="http://creativecommons.org/ns#"
   xmlns:rdf="http://www.w3.org/1999/02/22-rdf-syntax-ns#"
   xmlns:svg="http://www.w3.org/2000/svg"
   xmlns="http://www.w3.org/2000/svg"
   xmlns:xlink="http://www.w3.org/1999/xlink"
   xmlns:sodipodi="http://sodipodi.sourceforge.net/DTD/sodipodi-0.dtd"
   xmlns:inkscape="http://www.inkscape.org/namespaces/inkscape"
   version="1.1"
   id="图层_1"
   x="0px"
   y="0px"
   width="50px"
   height="50px"
   viewBox="0 0 50 50"
   enable-background="new 0 0 50 50"
   xml:space="preserve"
   sodipodi:docname="圆形按钮指示灯_33-01.svg"><metadata
   id="metadata189"><rdf:RDF><cc:Work
       rdf:about=""><dc:format>image/svg+xml</dc:format><dc:type
         rdf:resource="http://purl.org/dc/dcmitype/StillImage" /></cc:Work></rdf:RDF></metadata><defs
   id="defs187" /><sodipodi:namedview
   pagecolor="#ffffff"
   bordercolor="#666666"
   borderopacity="1"
   objecttolerance="10"
   gridtolerance="10"
   guidetolerance="10"
   inkscape:pageopacity="0"
   inkscape:pageshadow="2"
   inkscape:window-width="640"
   inkscape:window-height="480"
   id="namedview185" />
<g
   id="g182">
	<g
   id="g40">
		<g
   id="g38">
			<linearGradient
   id="SVGID_1_"
   gradientUnits="userSpaceOnUse"
   x1="25.2485"
   y1="48.1426"
   x2="25.2485"
   y2="1.0259">
				<stop
   offset="0"
   style="stop-color:#FFFFFF"
   id="stop2" />
				<stop
   offset="0.2147"
   style="stop-color:#BABABA"
   id="stop4" />
				<stop
   offset="0.4724"
   style="stop-color:#757575"
   id="stop6" />
				<stop
   offset="0.4829"
   style="stop-color:#777777"
   id="stop8" />
				<stop
   offset="0.4887"
   style="stop-color:#7F7F7F"
   id="stop10" />
				<stop
   offset="0.4933"
   style="stop-color:#8D8D8D"
   id="stop12" />
				<stop
   offset="0.4969"
   style="stop-color:#9E9E9E"
   id="stop14" />
				<stop
   offset="0.9816"
   style="stop-color:#FFFFFF"
   id="stop16" />
				<a:midPointStop
   offset="0"
   style="stop-color:#FFFFFF" />
				<a:midPointStop
   offset="0.5"
   style="stop-color:#FFFFFF" />
				<a:midPointStop
   offset="0.2147"
   style="stop-color:#BABABA" />
				<a:midPointStop
   offset="0.5"
   style="stop-color:#BABABA" />
				<a:midPointStop
   offset="0.4724"
   style="stop-color:#757575" />
				<a:midPointStop
   offset="0.814"
   style="stop-color:#757575" />
				<a:midPointStop
   offset="0.4969"
   style="stop-color:#9E9E9E" />
				<a:midPointStop
   offset="0.5"
   style="stop-color:#9E9E9E" />
				<a:midPointStop
   offset="0.9816"
   style="stop-color:#FFFFFF" />
			</linearGradient>
			<path
   fill="url(#SVGID_1_)"
   d="M25.251,48.143c-13.211,0-23.96-10.566-23.96-23.56c0-12.99,10.749-23.558,23.96-23.558     c13.208,0,23.954,10.567,23.954,23.558C49.205,37.576,38.459,48.143,25.251,48.143z"
   id="path19" />
			<g
   opacity="0.35"
   id="g23">
				<path
   fill="#FFFFFF"
   d="M25.004,0.833C11.217,0.833,0,11.861,0,25.418C0,38.97,11.217,50,25.004,50S50,38.97,50,25.418      C50,11.861,38.791,0.833,25.004,0.833L25.004,0.833z"
   id="path21" />
			</g>
			<g
   id="g27">
				<path
   fill="#100504"
   d="M25.004,0C11.217,0,0,11.028,0,24.583c0,13.556,11.217,24.584,25.004,24.584S50,38.139,50,24.583      C50,11.028,38.791,0,25.004,0L25.004,0z"
   id="path25" />
			</g>
			<g
   id="g36">
				<linearGradient
   id="SVGID_2_"
   gradientUnits="userSpaceOnUse"
   x1="25.0024"
   y1="48.3311"
   x2="25.0024"
   y2="0.8335">
					<stop
   offset="0"
   style="stop-color:#464646"
   id="stop29" />
					<stop
   offset="1"
   style="stop-color:#363636"
   id="stop31" />
					<a:midPointStop
   offset="0"
   style="stop-color:#464646" />
					<a:midPointStop
   offset="0.5"
   style="stop-color:#464646" />
					<a:midPointStop
   offset="1"
   style="stop-color:#363636" />
				</linearGradient>
				<path
   fill="url(#SVGID_2_)"
   d="M25.004,0.833c-13.319,0-24.152,10.655-24.152,23.75c0,13.097,10.833,23.748,24.152,23.748      c13.316,0,24.148-10.651,24.148-23.748C49.152,11.488,38.32,0.833,25.004,0.833L25.004,0.833z"
   id="path34" />
			</g>
		</g>
	</g>
	<g
   a:adobe-knockout="true"
   id="g56">
		<ellipse
   opacity="0.2"
   fill="#100504"
   a:adobe-knockout="false"
   cx="25.002"
   cy="25.833"
   rx="23.307"
   ry="22.917"
   id="ellipse42" />
		<ellipse
   opacity="0.3333"
   fill="#100504"
   a:adobe-knockout="false"
   cx="25.002"
   cy="25.625"
   rx="22.883"
   ry="22.5"
   id="ellipse44" />
		<ellipse
   opacity="0.4667"
   fill="#100504"
   a:adobe-knockout="false"
   cx="25.002"
   cy="25.417"
   rx="22.459"
   ry="22.083"
   id="ellipse46" />
		<ellipse
   opacity="0.6"
   fill="#100504"
   a:adobe-knockout="false"
   cx="25.002"
   cy="25.208"
   rx="22.036"
   ry="21.667"
   id="ellipse48" />
		<ellipse
   opacity="0.7333"
   fill="#100504"
   a:adobe-knockout="false"
   cx="25.002"
   cy="25"
   rx="21.612"
   ry="21.25"
   id="ellipse50" />
		<ellipse
   opacity="0.8667"
   fill="#100504"
   a:adobe-knockout="false"
   cx="25.002"
   cy="24.792"
   rx="21.188"
   ry="20.833"
   id="ellipse52" />
		<ellipse
   fill="#100504"
   a:adobe-knockout="false"
   cx="25.002"
   cy="24.583"
   rx="20.764"
   ry="20.417"
   id="ellipse54" />
	</g>
	<g
   id="g64">
		<defs
   id="defs59">
			<path
   id="SVGID_3_"
   d="M49.146,24.393c0,13.223-10.809,23.938-24.142,23.938l0,0c-13.334,0-24.146-10.716-24.146-23.938l0,0     c0-13.222,10.812-23.939,24.146-23.939l0,0C38.337,0.453,49.146,11.171,49.146,24.393L49.146,24.393z" />
		</defs>
		<clipPath
   id="SVGID_4_">
			<use
   xlink:href="#SVGID_3_"
   overflow="visible"
   id="use61" />
		</clipPath>
	</g>
	<path
   fill="#100504"
   d="M46.188,24.583c0,11.506-9.487,20.833-21.185,20.833c-11.701,0-21.188-9.327-21.188-20.833   S13.303,3.75,25.004,3.75C36.701,3.75,46.188,13.077,46.188,24.583z"
   id="path66" />
	
		<radialGradient
   id="SVGID_5_"
   cx="5.688"
   cy="8.3516"
   r="26.2731"
   gradientTransform="matrix(1.2408 0 0 1.2201 17.4251 0.5512)"
   gradientUnits="userSpaceOnUse">
		<stop
   offset="0.4424"
   style="stop-color:#00DE94"
   id="stop68" />
		<stop
   offset="1"
   style="stop-color:#008055"
   id="stop70" />
		<a:midPointStop
   offset="0.4424"
   style="stop-color:#00DE94" />
		<a:midPointStop
   offset="0.5"
   style="stop-color:#00DE94" />
		<a:midPointStop
   offset="1"
   style="stop-color:#008055" />
	</radialGradient>
	<ellipse
   fill="url(#SVGID_5_)"
   cx="25.002"
   cy="24.583"
   rx="20.339"
   ry="20.001"
   id="ellipse73" />
	<g
   id="g98">
		<defs
   id="defs76">
			<path
   id="SVGID_6_"
   d="M25.244,3.991C14,3.991,4.548,13.612,4.548,24.672s9.117,20.024,20.365,20.024s20.365-8.965,20.365-20.024     S36.496,3.991,25.244,3.991z M24.582,44.696c-12.022,0-19.364-9.725-19.364-19.697c0-9.97,9.892-19.695,20.026-19.695     c10.143,0,19.367,9.726,19.367,19.695C44.611,34.972,37.284,44.696,24.582,44.696z" />
		</defs>
		<clipPath
   id="SVGID_7_">
			<use
   xlink:href="#SVGID_6_"
   overflow="visible"
   id="use78" />
		</clipPath>
		<defs
   id="defs84">
			<filter
   id="Adobe_OpacityMaskFilter"
   filterUnits="userSpaceOnUse"
   x="-0.37"
   y="-19.509"
   width="49.314"
   height="48.346">
				<feColorMatrix
   type="matrix"
   values="1 0 0 0 0  0 1 0 0 0  0 0 1 0 0  0 0 0 1 0"
   id="feColorMatrix81" />
			</filter>
		</defs>
		<mask
   maskUnits="userSpaceOnUse"
   x="-0.37"
   y="-19.509"
   width="49.314"
   height="48.346"
   id="SVGID_8_">
			<g
   filter="url(#Adobe_OpacityMaskFilter)"
   id="g93">
				
					<radialGradient
   id="SVGID_9_"
   cx="267.5391"
   cy="2818.8389"
   r="26.8018"
   gradientTransform="matrix(0.9202 0.0306 0.0069 0.9012 -241.4044 -2543.8313)"
   gradientUnits="userSpaceOnUse">
					<stop
   offset="0"
   style="stop-color:#BDBDBD"
   id="stop86" />
					<stop
   offset="1"
   style="stop-color:#000000"
   id="stop88" />
					<a:midPointStop
   offset="0"
   style="stop-color:#BDBDBD" />
					<a:midPointStop
   offset="0.5"
   style="stop-color:#BDBDBD" />
					<a:midPointStop
   offset="1"
   style="stop-color:#000000" />
				</radialGradient>
				<path
   clip-path="url(#SVGID_7_)"
   fill="url(#SVGID_9_)"
   d="M48.943,5.485C49.048,18.826,38.09,29.278,24.47,28.822      C10.854,28.369-0.269,17.183-0.369,3.841C-0.474-9.498,10.484-19.942,24.104-19.495C37.72-19.038,48.843-7.854,48.943,5.485z"
   id="path91" />
			</g>
		</mask>
		<path
   clip-path="url(#SVGID_7_)"
   mask="url(#SVGID_8_)"
   d="M48.943,5.485C49.048,18.826,38.09,29.278,24.47,28.822    C10.854,28.369-0.269,17.183-0.369,3.841C-0.474-9.498,10.484-19.942,24.104-19.495C37.72-19.038,48.843-7.854,48.943,5.485z"
   id="path96" />
	</g>
	
		<radialGradient
   id="SVGID_10_"
   cx="-20.2764"
   cy="50.0742"
   r="16.4745"
   gradientTransform="matrix(1.0651 0 0 1.0651 46.5092 -28.6637)"
   gradientUnits="userSpaceOnUse">
		<stop
   offset="0"
   style="stop-color:#3BCF9F"
   id="stop100" />
		<stop
   offset="0.9844"
   style="stop-color:#3EB48E"
   id="stop102" />
		<a:midPointStop
   offset="0"
   style="stop-color:#3BCF9F" />
		<a:midPointStop
   offset="0.4898"
   style="stop-color:#3BCF9F" />
		<a:midPointStop
   offset="0.9844"
   style="stop-color:#3EB48E" />
	</radialGradient>
	<ellipse
   fill="url(#SVGID_10_)"
   cx="24.913"
   cy="24.672"
   rx="17.693"
   ry="17.399"
   id="ellipse105" />
	<path
   fill="#FFFFFF"
   a:adobe-blending-mode="overlay"
   d="M24.913,7.272c-9.772,0-17.693,7.79-17.693,17.399   c0,9.61,7.921,17.399,17.693,17.399s17.693-7.789,17.693-17.399C42.606,15.063,34.686,7.272,24.913,7.272z M24.913,41.416   c-9.406,0-17.03-7.499-17.03-16.744c0-9.247,7.624-16.742,17.03-16.742c9.399,0,17.027,7.495,17.027,16.742   C41.94,33.917,34.313,41.416,24.913,41.416z"
   id="path107" />
	<linearGradient
   id="SVGID_11_"
   gradientUnits="userSpaceOnUse"
   x1="24.9136"
   y1="42.0713"
   x2="24.9136"
   y2="7.2729">
		<stop
   offset="0.3939"
   style="stop-color:#100504"
   id="stop109" />
		<stop
   offset="0.4763"
   style="stop-color:#130807"
   id="stop111" />
		<stop
   offset="0.5424"
   style="stop-color:#1D1211"
   id="stop113" />
		<stop
   offset="0.603"
   style="stop-color:#2D2322"
   id="stop115" />
		<stop
   offset="0.6602"
   style="stop-color:#433B3A"
   id="stop117" />
		<stop
   offset="0.7151"
   style="stop-color:#605959"
   id="stop119" />
		<stop
   offset="0.7682"
   style="stop-color:#847F7F"
   id="stop121" />
		<stop
   offset="0.8199"
   style="stop-color:#AFABAC"
   id="stop123" />
		<stop
   offset="0.8693"
   style="stop-color:#DFDDDE"
   id="stop125" />
		<stop
   offset="0.897"
   style="stop-color:#FDFDFE"
   id="stop127" />
		<a:midPointStop
   offset="0.3939"
   style="stop-color:#100504" />
		<a:midPointStop
   offset="0.75"
   style="stop-color:#100504" />
		<a:midPointStop
   offset="0.897"
   style="stop-color:#FDFDFE" />
	</linearGradient>
	<path
   opacity="0.5"
   fill="url(#SVGID_11_)"
   a:adobe-blending-mode="screen"
   d="M24.913,7.272c-9.772,0-17.693,7.79-17.693,17.399   c0,9.61,7.921,17.399,17.693,17.399s17.693-7.789,17.693-17.399C42.606,15.063,34.686,7.272,24.913,7.272z M24.913,41.416   c-9.406,0-17.03-7.499-17.03-16.744c0-9.247,7.624-16.742,17.03-16.742c9.399,0,17.027,7.495,17.027,16.742   C41.94,33.917,34.313,41.416,24.913,41.416z"
   id="path130" />
	<linearGradient
   id="SVGID_12_"
   gradientUnits="userSpaceOnUse"
   x1="11.5166"
   y1="41.0703"
   x2="38.4912"
   y2="41.0703">
		<stop
   offset="0"
   style="stop-color:#065138"
   id="stop132" />
		<stop
   offset="0.503"
   style="stop-color:#21D08D"
   id="stop134" />
		<stop
   offset="1"
   style="stop-color:#065138"
   id="stop136" />
		<a:midPointStop
   offset="0"
   style="stop-color:#065138" />
		<a:midPointStop
   offset="0.5"
   style="stop-color:#065138" />
		<a:midPointStop
   offset="0.503"
   style="stop-color:#21D08D" />
		<a:midPointStop
   offset="0.5"
   style="stop-color:#21D08D" />
		<a:midPointStop
   offset="1"
   style="stop-color:#065138" />
	</linearGradient>
	<path
   opacity="0.5"
   fill="url(#SVGID_12_)"
   d="M11.517,37.975c0,0,3.369,6.191,13.487,6.191c10.114,0,13.487-6.191,13.487-6.191   s-2.7,5.503-13.487,5.503C14.213,43.478,11.517,37.975,11.517,37.975z"
   id="path139" />
	<linearGradient
   id="SVGID_13_"
   gradientUnits="userSpaceOnUse"
   x1="24.9917"
   y1="41.3887"
   x2="24.9917"
   y2="38.3852">
		<stop
   offset="0"
   style="stop-color:#FDFDFE"
   id="stop141" />
		<stop
   offset="0.8434"
   style="stop-color:#FDFDFE;stop-opacity:0.0896"
   id="stop143" />
		<stop
   offset="0.9264"
   style="stop-color:#FDFDFE;stop-opacity:0"
   id="stop145" />
		<a:midPointStop
   offset="0"
   style="stop-color:#FDFDFE" />
		<a:midPointStop
   offset="0.75"
   style="stop-color:#FDFDFE" />
		<a:midPointStop
   offset="0.9264"
   style="stop-color:#FDFDFE;stop-opacity:0" />
	</linearGradient>
	<path
   opacity="0.5"
   fill="url(#SVGID_13_)"
   d="M24.718,42.071c-5.183,0-8.869-1.941-9.71-3.77   c-0.136-0.293-0.202-0.461-0.164-0.521c0.011-0.015,0.039-0.058,0.206-0.058c0.16,0,0.419,0.034,0.813,0.085   c1.231,0.161,3.781,0.493,8.713,0.493c5.88,0,8.643-0.737,9.824-1.053c0.297-0.08,0.495-0.133,0.601-0.133h0.063l0.087,0.113   c-0.003-0.002-0.003-0.003-0.007-0.003c-0.024,0-0.073,0.128-0.164,0.323C34.299,39.024,30.898,42.071,24.718,42.071z"
   id="path148" />
	<linearGradient
   id="SVGID_14_"
   gradientUnits="userSpaceOnUse"
   x1="25.0024"
   y1="7.7422"
   x2="25.0024"
   y2="32.5335">
		<stop
   offset="0.0848"
   style="stop-color:#C2F5E5"
   id="stop150" />
		<stop
   offset="0.1378"
   style="stop-color:#BAF2E0"
   id="stop152" />
		<stop
   offset="0.3221"
   style="stop-color:#A2E9D2"
   id="stop154" />
		<stop
   offset="0.5183"
   style="stop-color:#91E3C9"
   id="stop156" />
		<stop
   offset="0.7329"
   style="stop-color:#87DFC3"
   id="stop158" />
		<stop
   offset="1"
   style="stop-color:#84DEC1"
   id="stop160" />
		<a:midPointStop
   offset="0.0848"
   style="stop-color:#C2F5E5" />
		<a:midPointStop
   offset="0.25"
   style="stop-color:#C2F5E5" />
		<a:midPointStop
   offset="1"
   style="stop-color:#84DEC1" />
	</linearGradient>
	<path
   fill="url(#SVGID_14_)"
   d="M25.339,7.498c-17.282,0-16.616,19.041-13.296,21.009c3.216,1.908,7.764,3.942,12.964,3.942   c4.503,0,9.295-1.801,12.295-3.284C41.295,27.195,42.62,7.498,25.339,7.498z"
   id="path163" />
	<linearGradient
   id="SVGID_15_"
   gradientUnits="userSpaceOnUse"
   x1="7.5664"
   y1="24.583"
   x2="42.5862"
   y2="24.583">
		<stop
   offset="0.0338"
   style="stop-color:#66E6D4"
   id="stop165" />
		<stop
   offset="0.4545"
   style="stop-color:#C5FCF9"
   id="stop167" />
		<stop
   offset="0.616"
   style="stop-color:#C2FCF8"
   id="stop169" />
		<stop
   offset="0.7456"
   style="stop-color:#B8FAF6"
   id="stop171" />
		<stop
   offset="0.8642"
   style="stop-color:#A7F8F2"
   id="stop173" />
		<stop
   offset="0.9755"
   style="stop-color:#8FF5EC"
   id="stop175" />
		<stop
   offset="1"
   style="stop-color:#89F4EB"
   id="stop177" />
		<a:midPointStop
   offset="0.0338"
   style="stop-color:#66E6D4" />
		<a:midPointStop
   offset="0.5"
   style="stop-color:#66E6D4" />
		<a:midPointStop
   offset="0.4545"
   style="stop-color:#C5FCF9" />
		<a:midPointStop
   offset="0.75"
   style="stop-color:#C5FCF9" />
		<a:midPointStop
   offset="1"
   style="stop-color:#89F4EB" />
	</linearGradient>
	<path
   fill="url(#SVGID_15_)"
   d="M7.22,24.583c0,9.667,7.963,17.5,17.791,17.5c9.821,0,17.791-7.833,17.791-17.5   c0-9.664-7.97-17.5-17.791-17.5C15.183,7.083,7.22,14.919,7.22,24.583z M8.032,24.583c0-9.223,7.6-16.7,16.979-16.7   c9.375,0,16.975,7.478,16.975,16.7c0,9.225-7.6,16.702-16.975,16.702C15.632,41.285,8.032,33.808,8.032,24.583z"
   id="path180" />
</g>
</svg>
