<?xml version="1.0" encoding="UTF-8" standalone="no"?>
<svg
   xmlns:a="http://ns.adobe.com/AdobeSVGViewerExtensions/3.0/"
   xmlns:dc="http://purl.org/dc/elements/1.1/"
   xmlns:cc="http://creativecommons.org/ns#"
   xmlns:rdf="http://www.w3.org/1999/02/22-rdf-syntax-ns#"
   xmlns:svg="http://www.w3.org/2000/svg"
   xmlns="http://www.w3.org/2000/svg"
   xmlns:sodipodi="http://sodipodi.sourceforge.net/DTD/sodipodi-0.dtd"
   xmlns:inkscape="http://www.inkscape.org/namespaces/inkscape"
   version="1.1"
   id="图层_1"
   x="0px"
   y="0px"
   width="45px"
   height="45px"
   viewBox="0 0 45 45"
   enable-background="new 0 0 45 45"
   xml:space="preserve"
   sodipodi:docname="圆形按钮指示灯_42-01.svg"><metadata
   id="metadata23"><rdf:RDF><cc:Work
       rdf:about=""><dc:format>image/svg+xml</dc:format><dc:type
         rdf:resource="http://purl.org/dc/dcmitype/StillImage" /></cc:Work></rdf:RDF></metadata><defs
   id="defs21" /><sodipodi:namedview
   pagecolor="#ffffff"
   bordercolor="#666666"
   borderopacity="1"
   objecttolerance="10"
   gridtolerance="10"
   guidetolerance="10"
   inkscape:pageopacity="0"
   inkscape:pageshadow="2"
   inkscape:window-width="640"
   inkscape:window-height="480"
   id="namedview19" />
<g
   id="g16">
	<linearGradient
   id="SVGID_1_"
   gradientUnits="userSpaceOnUse"
   x1="43.375"
   y1="22.5005"
   x2="0.1902"
   y2="22.5005">
		<stop
   offset="0"
   style="stop-color:#99FFFF"
   id="stop2" />
		<stop
   offset="1"
   style="stop-color:#4479FF"
   id="stop4" />
		<a:midPointStop
   offset="0"
   style="stop-color:#99FFFF" />
		<a:midPointStop
   offset="0.5"
   style="stop-color:#99FFFF" />
		<a:midPointStop
   offset="1"
   style="stop-color:#4479FF" />
	</linearGradient>
	<circle
   fill="url(#SVGID_1_)"
   cx="22.502"
   cy="22.501"
   r="17.656"
   id="circle7" />
	<linearGradient
   id="SVGID_2_"
   gradientUnits="userSpaceOnUse"
   x1="43.375"
   y1="22.4995"
   x2="0.1921"
   y2="22.4995">
		<stop
   offset="0"
   style="stop-color:#99FFFF"
   id="stop9" />
		<stop
   offset="1"
   style="stop-color:#4479FF"
   id="stop11" />
		<a:midPointStop
   offset="0"
   style="stop-color:#99FFFF" />
		<a:midPointStop
   offset="0.5"
   style="stop-color:#99FFFF" />
		<a:midPointStop
   offset="1"
   style="stop-color:#4479FF" />
	</linearGradient>
	<path
   fill="url(#SVGID_2_)"
   d="M22.501,0C10.095,0,0,10.094,0,22.501C0,34.907,10.095,45,22.501,45C34.906,45,45,34.907,45,22.501   C45,10.094,34.906,0,22.501,0z M22.501,42.295c-10.914,0-19.795-8.879-19.795-19.794c0-10.916,8.881-19.797,19.795-19.797   c10.915,0,19.793,8.881,19.793,19.797C42.295,33.416,33.416,42.295,22.501,42.295z"
   id="path14" />
</g>
</svg>
