<?xml version="1.0" encoding="UTF-8" standalone="no"?>
<svg
   xmlns:a="http://ns.adobe.com/AdobeSVGViewerExtensions/3.0/"
   xmlns:dc="http://purl.org/dc/elements/1.1/"
   xmlns:cc="http://creativecommons.org/ns#"
   xmlns:rdf="http://www.w3.org/1999/02/22-rdf-syntax-ns#"
   xmlns:svg="http://www.w3.org/2000/svg"
   xmlns="http://www.w3.org/2000/svg"
   xmlns:sodipodi="http://sodipodi.sourceforge.net/DTD/sodipodi-0.dtd"
   xmlns:inkscape="http://www.inkscape.org/namespaces/inkscape"
   version="1.1"
   id="图层_1"
   x="0px"
   y="0px"
   width="45px"
   height="45px"
   viewBox="0 0 45 45"
   enable-background="new 0 0 45 45"
   xml:space="preserve"
   sodipodi:docname="圆形按钮指示灯_43-01.svg"><metadata
   id="metadata23"><rdf:RDF><cc:Work
       rdf:about=""><dc:format>image/svg+xml</dc:format><dc:type
         rdf:resource="http://purl.org/dc/dcmitype/StillImage" /></cc:Work></rdf:RDF></metadata><defs
   id="defs21" /><sodipodi:namedview
   pagecolor="#ffffff"
   bordercolor="#666666"
   borderopacity="1"
   objecttolerance="10"
   gridtolerance="10"
   guidetolerance="10"
   inkscape:pageopacity="0"
   inkscape:pageshadow="2"
   inkscape:window-width="640"
   inkscape:window-height="480"
   id="namedview19" />
<g
   id="g16">
	<linearGradient
   id="SVGID_1_"
   gradientUnits="userSpaceOnUse"
   x1="42.6191"
   y1="22.4995"
   x2="1.7448"
   y2="22.4995">
		<stop
   offset="0"
   style="stop-color:#67C5CA"
   id="stop2" />
		<stop
   offset="1"
   style="stop-color:#036276"
   id="stop4" />
		<a:midPointStop
   offset="0"
   style="stop-color:#67C5CA" />
		<a:midPointStop
   offset="0.5"
   style="stop-color:#67C5CA" />
		<a:midPointStop
   offset="1"
   style="stop-color:#036276" />
	</linearGradient>
	<path
   fill="url(#SVGID_1_)"
   d="M22.5,0C10.091,0,0,10.095,0,22.5C0,34.908,10.091,45,22.5,45C34.906,45,45,34.908,45,22.5   C45,10.095,34.906,0,22.5,0z M22.5,42.295c-10.917,0-19.798-8.878-19.798-19.795c0-10.915,8.881-19.794,19.798-19.794   c10.916,0,19.794,8.879,19.794,19.794C42.295,33.417,33.416,42.295,22.5,42.295z"
   id="path7" />
	<linearGradient
   id="SVGID_2_"
   gradientUnits="userSpaceOnUse"
   x1="42.6201"
   y1="22.5005"
   x2="1.7425"
   y2="22.5005">
		<stop
   offset="0"
   style="stop-color:#67C5CA"
   id="stop9" />
		<stop
   offset="1"
   style="stop-color:#036276"
   id="stop11" />
		<a:midPointStop
   offset="0"
   style="stop-color:#67C5CA" />
		<a:midPointStop
   offset="0.5"
   style="stop-color:#67C5CA" />
		<a:midPointStop
   offset="1"
   style="stop-color:#036276" />
	</linearGradient>
	<circle
   fill="url(#SVGID_2_)"
   cx="22.501"
   cy="22.5"
   r="17.657"
   id="circle14" />
</g>
</svg>
