<?xml version="1.0" encoding="UTF-8" standalone="no"?>
<svg
   xmlns:a="http://ns.adobe.com/AdobeSVGViewerExtensions/3.0/"
   xmlns:dc="http://purl.org/dc/elements/1.1/"
   xmlns:cc="http://creativecommons.org/ns#"
   xmlns:rdf="http://www.w3.org/1999/02/22-rdf-syntax-ns#"
   xmlns:svg="http://www.w3.org/2000/svg"
   xmlns="http://www.w3.org/2000/svg"
   xmlns:sodipodi="http://sodipodi.sourceforge.net/DTD/sodipodi-0.dtd"
   xmlns:inkscape="http://www.inkscape.org/namespaces/inkscape"
   version="1.1"
   id="图层_1"
   x="0px"
   y="0px"
   width="45px"
   height="45px"
   viewBox="0 0 45 45"
   enable-background="new 0 0 45 45"
   xml:space="preserve"
   sodipodi:docname="圆形按钮指示灯_44-01.svg"><metadata
   id="metadata23"><rdf:RDF><cc:Work
       rdf:about=""><dc:format>image/svg+xml</dc:format><dc:type
         rdf:resource="http://purl.org/dc/dcmitype/StillImage" /></cc:Work></rdf:RDF></metadata><defs
   id="defs21" /><sodipodi:namedview
   pagecolor="#ffffff"
   bordercolor="#666666"
   borderopacity="1"
   objecttolerance="10"
   gridtolerance="10"
   guidetolerance="10"
   inkscape:pageopacity="0"
   inkscape:pageshadow="2"
   inkscape:window-width="640"
   inkscape:window-height="480"
   id="namedview19" />
<g
   id="g16">
	<linearGradient
   id="SVGID_1_"
   gradientUnits="userSpaceOnUse"
   x1="42.6191"
   y1="22.4995"
   x2="1.7452"
   y2="22.4995">
		<stop
   offset="0"
   style="stop-color:#FF9900"
   id="stop2" />
		<stop
   offset="1"
   style="stop-color:#FF2B00"
   id="stop4" />
		<a:midPointStop
   offset="0"
   style="stop-color:#FF9900" />
		<a:midPointStop
   offset="0.5"
   style="stop-color:#FF9900" />
		<a:midPointStop
   offset="1"
   style="stop-color:#FF2B00" />
	</linearGradient>
	<path
   fill="url(#SVGID_1_)"
   d="M22.5,0C10.094,0,0,10.094,0,22.501C0,34.907,10.094,45,22.5,45C34.909,45,45,34.907,45,22.501   C45,10.094,34.909,0,22.5,0z M22.5,42.295c-10.914,0-19.796-8.879-19.796-19.794c0-10.916,8.882-19.796,19.796-19.796   c10.918,0,19.797,8.88,19.797,19.796C42.297,33.416,33.418,42.295,22.5,42.295z"
   id="path7" />
	<linearGradient
   id="SVGID_2_"
   gradientUnits="userSpaceOnUse"
   x1="42.6172"
   y1="22.5005"
   x2="1.7424"
   y2="22.5005">
		<stop
   offset="0"
   style="stop-color:#FF9900"
   id="stop9" />
		<stop
   offset="1"
   style="stop-color:#FF2B00"
   id="stop11" />
		<a:midPointStop
   offset="0"
   style="stop-color:#FF9900" />
		<a:midPointStop
   offset="0.5"
   style="stop-color:#FF9900" />
		<a:midPointStop
   offset="1"
   style="stop-color:#FF2B00" />
	</linearGradient>
	<circle
   fill="url(#SVGID_2_)"
   cx="22.5"
   cy="22.501"
   r="17.656"
   id="circle14" />
</g>
</svg>
