<?xml version="1.0" encoding="UTF-8" standalone="no"?>
<svg
   xmlns:a="http://ns.adobe.com/AdobeSVGViewerExtensions/3.0/"
   xmlns:dc="http://purl.org/dc/elements/1.1/"
   xmlns:cc="http://creativecommons.org/ns#"
   xmlns:rdf="http://www.w3.org/1999/02/22-rdf-syntax-ns#"
   xmlns:svg="http://www.w3.org/2000/svg"
   xmlns="http://www.w3.org/2000/svg"
   xmlns:sodipodi="http://sodipodi.sourceforge.net/DTD/sodipodi-0.dtd"
   xmlns:inkscape="http://www.inkscape.org/namespaces/inkscape"
   version="1.1"
   id="图层_1"
   x="0px"
   y="0px"
   width="45px"
   height="45px"
   viewBox="0 0 45 45"
   enable-background="new 0 0 45 45"
   xml:space="preserve"
   sodipodi:docname="圆形按钮指示灯_09-01.svg"><metadata
   id="metadata140"><rdf:RDF><cc:Work
       rdf:about=""><dc:format>image/svg+xml</dc:format><dc:type
         rdf:resource="http://purl.org/dc/dcmitype/StillImage" /></cc:Work></rdf:RDF></metadata><defs
   id="defs138" /><sodipodi:namedview
   pagecolor="#ffffff"
   bordercolor="#666666"
   borderopacity="1"
   objecttolerance="10"
   gridtolerance="10"
   guidetolerance="10"
   inkscape:pageopacity="0"
   inkscape:pageshadow="2"
   inkscape:window-width="640"
   inkscape:window-height="480"
   id="namedview136" />
<g
   id="g133">
	<linearGradient
   id="SVGID_1_"
   gradientUnits="userSpaceOnUse"
   x1="22.5015"
   y1="0.1729"
   x2="22.5015"
   y2="44.8296">
		<stop
   offset="0"
   style="stop-color:#FFFFFF"
   id="stop2" />
		<stop
   offset="1"
   style="stop-color:#969696"
   id="stop4" />
		<a:midPointStop
   offset="0"
   style="stop-color:#FFFFFF" />
		<a:midPointStop
   offset="0.5"
   style="stop-color:#FFFFFF" />
		<a:midPointStop
   offset="1"
   style="stop-color:#969696" />
	</linearGradient>
	<circle
   fill="url(#SVGID_1_)"
   cx="22.502"
   cy="22.501"
   r="22.328"
   id="circle7" />
	<linearGradient
   id="SVGID_2_"
   gradientUnits="userSpaceOnUse"
   x1="22.4995"
   y1="0"
   x2="22.4995"
   y2="45.0005">
		<stop
   offset="0"
   style="stop-color:#FFFFFF"
   id="stop9" />
		<stop
   offset="1"
   style="stop-color:#242424"
   id="stop11" />
		<a:midPointStop
   offset="0"
   style="stop-color:#FFFFFF" />
		<a:midPointStop
   offset="0.5"
   style="stop-color:#FFFFFF" />
		<a:midPointStop
   offset="1"
   style="stop-color:#242424" />
	</linearGradient>
	<path
   fill="url(#SVGID_2_)"
   d="M0,22.5C0,10.074,10.072,0,22.5,0l0,0C34.928,0,45,10.074,45,22.5l0,0l0,0   C45,34.927,34.928,45,22.5,45l0,0C10.072,45,0,34.927,0,22.5L0,22.5z M6.833,6.833C2.822,10.842,0.344,16.381,0.344,22.5l0,0   c0,6.12,2.479,11.658,6.489,15.669l0,0c4.011,4.011,9.548,6.488,15.667,6.488l0,0c6.12,0,11.657-2.478,15.668-6.488l0,0   c4.011-4.011,6.488-9.549,6.488-15.669l0,0c0-6.119-2.478-11.657-6.488-15.667l0,0c-4.011-4.01-9.548-6.49-15.668-6.491l0,0   C16.381,0.343,10.844,2.823,6.833,6.833L6.833,6.833z"
   id="path14" />
	
		<radialGradient
   id="SVGID_3_"
   cx="-14.2031"
   cy="50.6738"
   r="18.8811"
   gradientTransform="matrix(1.0242 0 0 1.0242 36.962 -29.1457)"
   gradientUnits="userSpaceOnUse">
		<stop
   offset="0"
   style="stop-color:#E50012"
   id="stop16" />
		<stop
   offset="0.2225"
   style="stop-color:#E10011"
   id="stop18" />
		<stop
   offset="0.4374"
   style="stop-color:#D6000F"
   id="stop20" />
		<stop
   offset="0.6493"
   style="stop-color:#C2000B"
   id="stop22" />
		<stop
   offset="0.858"
   style="stop-color:#A70005"
   id="stop24" />
		<stop
   offset="1"
   style="stop-color:#900000"
   id="stop26" />
		<a:midPointStop
   offset="0"
   style="stop-color:#E50012" />
		<a:midPointStop
   offset="0.7143"
   style="stop-color:#E50012" />
		<a:midPointStop
   offset="1"
   style="stop-color:#900000" />
	</radialGradient>
	<circle
   fill="url(#SVGID_3_)"
   cx="22.415"
   cy="22.757"
   r="19.339"
   id="circle29" />
	<linearGradient
   id="SVGID_4_"
   gradientUnits="userSpaceOnUse"
   x1="22.4155"
   y1="42.4375"
   x2="22.4155"
   y2="3.0776">
		<stop
   offset="0"
   style="stop-color:#FFFFFF"
   id="stop31" />
		<stop
   offset="1"
   style="stop-color:#6E6E6E"
   id="stop33" />
		<a:midPointStop
   offset="0"
   style="stop-color:#FFFFFF" />
		<a:midPointStop
   offset="0.5"
   style="stop-color:#FFFFFF" />
		<a:midPointStop
   offset="1"
   style="stop-color:#6E6E6E" />
	</linearGradient>
	<path
   fill="url(#SVGID_4_)"
   d="M2.734,22.756c0-10.867,8.813-19.679,19.681-19.679l0,0c10.869,0,19.681,8.812,19.681,19.679l0,0   c0,10.87-8.812,19.681-19.681,19.682l0,0C11.547,42.437,2.734,33.626,2.734,22.756L2.734,22.756z M8.982,9.322   C5.544,12.763,3.42,17.51,3.42,22.756l0,0c0,5.247,2.124,9.994,5.563,13.434l0,0c3.439,3.438,8.186,5.563,13.433,5.563l0,0   c5.247,0,9.993-2.126,13.433-5.563l0,0c3.436-3.439,5.564-8.187,5.564-13.434l0,0c0-5.247-2.129-9.993-5.564-13.434l0,0   c-3.439-3.437-8.186-5.562-13.433-5.562l0,0C17.168,3.761,12.422,5.886,8.982,9.322L8.982,9.322z"
   id="path36" />
	<linearGradient
   id="SVGID_5_"
   gradientUnits="userSpaceOnUse"
   x1="22.3276"
   y1="4.3018"
   x2="22.3276"
   y2="21.4756">
		<stop
   offset="0"
   style="stop-color:#F6C1A7"
   id="stop38" />
		<stop
   offset="0.1041"
   style="stop-color:#F5B8A0"
   id="stop40" />
		<stop
   offset="0.2719"
   style="stop-color:#F3A18E"
   id="stop42" />
		<stop
   offset="0.4825"
   style="stop-color:#F07A70"
   id="stop44" />
		<stop
   offset="0.7274"
   style="stop-color:#EB4447"
   id="stop46" />
		<stop
   offset="1"
   style="stop-color:#E50012"
   id="stop48" />
		<a:midPointStop
   offset="0"
   style="stop-color:#F6C1A7" />
		<a:midPointStop
   offset="0.6028"
   style="stop-color:#F6C1A7" />
		<a:midPointStop
   offset="1"
   style="stop-color:#E50012" />
	</linearGradient>
	<path
   fill="url(#SVGID_5_)"
   d="M40.227,21.476C40.195,11.986,32.194,4.302,22.33,4.302c-9.867,0-17.864,7.685-17.9,17.174   c4.533-2.949,10.875-4.784,17.9-4.784S35.699,18.526,40.227,21.476z"
   id="path51" />
	<g
   opacity="0.3"
   id="g131">
		<g
   id="g90">
			
				<radialGradient
   id="SVGID_6_"
   cx="227.4521"
   cy="35.4463"
   r="24.1649"
   gradientTransform="matrix(-0.7478 0.7479 -0.7478 -0.7479 228.4023 -101.5303)"
   gradientUnits="userSpaceOnUse">
				<stop
   offset="0"
   style="stop-color:#FFFFFF"
   id="stop53" />
				<stop
   offset="0.0657"
   style="stop-color:#FFFEF5"
   id="stop55" />
				<stop
   offset="0.1788"
   style="stop-color:#FFFBD9"
   id="stop57" />
				<stop
   offset="0.3256"
   style="stop-color:#FFF6AC"
   id="stop59" />
				<stop
   offset="0.4987"
   style="stop-color:#FFF06E"
   id="stop61" />
				<stop
   offset="0.5385"
   style="stop-color:#FFEE5F"
   id="stop63" />
				<stop
   offset="0.5896"
   style="stop-color:#FFE859"
   id="stop65" />
				<stop
   offset="0.6564"
   style="stop-color:#FFD949"
   id="stop67" />
				<stop
   offset="0.732"
   style="stop-color:#FFBE2E"
   id="stop69" />
				<stop
   offset="0.8135"
   style="stop-color:#FF9A08"
   id="stop71" />
				<stop
   offset="0.8297"
   style="stop-color:#FF9200"
   id="stop73" />
				<stop
   offset="0.8412"
   style="stop-color:#EE8800"
   id="stop75" />
				<stop
   offset="0.8638"
   style="stop-color:#C36F00"
   id="stop77" />
				<stop
   offset="0.8955"
   style="stop-color:#7D4500"
   id="stop79" />
				<stop
   offset="0.9341"
   style="stop-color:#1F0E00"
   id="stop81" />
				<stop
   offset="0.9459"
   style="stop-color:#1F0B00"
   id="stop83" />
				<stop
   offset="1"
   style="stop-color:#1F0900"
   id="stop85" />
				<a:midPointStop
   offset="0"
   style="stop-color:#FFFFFF" />
				<a:midPointStop
   offset="0.5876"
   style="stop-color:#FFFFFF" />
				<a:midPointStop
   offset="0.5385"
   style="stop-color:#FFEE5F" />
				<a:midPointStop
   offset="0.65"
   style="stop-color:#FFEE5F" />
				<a:midPointStop
   offset="0.8297"
   style="stop-color:#FF9200" />
				<a:midPointStop
   offset="0.5556"
   style="stop-color:#FF9200" />
				<a:midPointStop
   offset="0.9341"
   style="stop-color:#1F0E00" />
				<a:midPointStop
   offset="0.13"
   style="stop-color:#1F0E00" />
				<a:midPointStop
   offset="1"
   style="stop-color:#1F0900" />
			</radialGradient>
			<path
   fill="url(#SVGID_6_)"
   d="M35.381,34.65c-7.109,7.113-18.643,7.113-25.754,0c-1.656-1.656-2.914-3.556-3.809-5.579     c0.873,2.489,2.287,4.814,4.281,6.799c7.021,7.031,18.408,7.031,25.434,0c3.996-3.996,5.707-9.4,5.168-14.621     C40.836,26.087,39.066,30.962,35.381,34.65z"
   id="path88" />
		</g>
		<g
   id="g129">
			
				<radialGradient
   id="SVGID_7_"
   cx="227.4521"
   cy="35.4463"
   r="24.1649"
   gradientTransform="matrix(-0.7478 0.7479 -0.7478 -0.7479 228.4023 -101.5303)"
   gradientUnits="userSpaceOnUse">
				<stop
   offset="0"
   style="stop-color:#FFFFFF"
   id="stop92" />
				<stop
   offset="0.0657"
   style="stop-color:#FFFEF5"
   id="stop94" />
				<stop
   offset="0.1788"
   style="stop-color:#FFFBD9"
   id="stop96" />
				<stop
   offset="0.3256"
   style="stop-color:#FFF6AC"
   id="stop98" />
				<stop
   offset="0.4987"
   style="stop-color:#FFF06E"
   id="stop100" />
				<stop
   offset="0.5385"
   style="stop-color:#FFEE5F"
   id="stop102" />
				<stop
   offset="0.5896"
   style="stop-color:#FFE859"
   id="stop104" />
				<stop
   offset="0.6564"
   style="stop-color:#FFD949"
   id="stop106" />
				<stop
   offset="0.732"
   style="stop-color:#FFBE2E"
   id="stop108" />
				<stop
   offset="0.8135"
   style="stop-color:#FF9A08"
   id="stop110" />
				<stop
   offset="0.8297"
   style="stop-color:#FF9200"
   id="stop112" />
				<stop
   offset="0.8412"
   style="stop-color:#EE8800"
   id="stop114" />
				<stop
   offset="0.8638"
   style="stop-color:#C36F00"
   id="stop116" />
				<stop
   offset="0.8955"
   style="stop-color:#7D4500"
   id="stop118" />
				<stop
   offset="0.9341"
   style="stop-color:#1F0E00"
   id="stop120" />
				<stop
   offset="0.9459"
   style="stop-color:#1F0B00"
   id="stop122" />
				<stop
   offset="1"
   style="stop-color:#1F0900"
   id="stop124" />
				<a:midPointStop
   offset="0"
   style="stop-color:#FFFFFF" />
				<a:midPointStop
   offset="0.5876"
   style="stop-color:#FFFFFF" />
				<a:midPointStop
   offset="0.5385"
   style="stop-color:#FFEE5F" />
				<a:midPointStop
   offset="0.65"
   style="stop-color:#FFEE5F" />
				<a:midPointStop
   offset="0.8297"
   style="stop-color:#FF9200" />
				<a:midPointStop
   offset="0.5556"
   style="stop-color:#FF9200" />
				<a:midPointStop
   offset="0.9341"
   style="stop-color:#1F0E00" />
				<a:midPointStop
   offset="0.13"
   style="stop-color:#1F0E00" />
				<a:midPointStop
   offset="1"
   style="stop-color:#1F0900" />
			</radialGradient>
			<path
   fill="url(#SVGID_7_)"
   d="M35.381,34.65c-7.109,7.113-18.643,7.113-25.754,0c-1.656-1.656-2.914-3.556-3.809-5.579     c0.873,2.489,2.287,4.814,4.281,6.799c7.021,7.031,18.408,7.031,25.434,0c3.996-3.996,5.707-9.4,5.168-14.621     C40.836,26.087,39.066,30.962,35.381,34.65z"
   id="path127" />
		</g>
	</g>
</g>
</svg>
