<?xml version="1.0" encoding="utf-8"?>
<!-- Generator: Adobe Illustrator 15.0.0, SVG Export Plug-In . SVG Version: 6.00 Build 0)  -->
<!DOCTYPE svg PUBLIC "-//W3C//DTD SVG 1.1 Tiny//EN" "http://www.w3.org/Graphics/SVG/1.1/DTD/svg11-tiny.dtd">
<svg version="1.1" baseProfile="tiny" id="_x31_5_x7E_21"
	 xmlns="http://www.w3.org/2000/svg" xmlns:xlink="http://www.w3.org/1999/xlink" x="0px" y="0px" width="115.875px"
	 height="89.544px" viewBox="0 0 115.875 89.544" xml:space="preserve">
<g>
	<polygon fill="#576670" points="115.875,21.46 115.61,22.538 40.167,53.627 0,51.085 0,21.46 77.633,0 	"/>
	<polygon fill="#B5C8D1" points="115.875,57.46 38.727,89.531 36.46,86.92 35.944,50.96 38.727,51.112 115.875,21.46 	"/>
	<polygon fill="#323232" points="87.42,51.523 85.54,62.354 45,79.125 45,77.773 45,66.472 86.346,50.63 87.42,50.251 	"/>
	<polygon fill="#323232" points="106.227,61.505 91.618,67.501 91.618,50.934 106.227,44.885 	"/>
	<linearGradient id="SVGID_1_" gradientUnits="userSpaceOnUse" x1="110.3901" y1="48.8804" x2="90.7462" y2="61.628">
		<stop  offset="0" style="stop-color:#AAAAAA"/>
		<stop  offset="0.5056" style="stop-color:#EBEBEB"/>
		<stop  offset="1" style="stop-color:#B4B4B4"/>
	</linearGradient>
	<polygon fill="url(#SVGID_1_)" points="105.743,61.179 92.256,66.776 92.256,51.366 105.743,45.716 	"/>
	<g>
		<polygon fill="#646464" points="99.157,64.397 98.643,64.179 98.643,48.686 99.282,48.413 		"/>
		<polygon fill="#646464" points="105.75,53.085 105.735,53.913 92.235,59.68 92.235,58.866 		"/>
		<polygon fill="#323232" points="105.938,52.647 106.034,53.422 91.907,59.43 91.907,58.616 		"/>
		<polygon fill="#323232" points="99.77,64.147 99.018,64.476 99.018,48.342 99.77,48.116 		"/>
	</g>
	<linearGradient id="SVGID_2_" gradientUnits="userSpaceOnUse" x1="78.5952" y1="54.7764" x2="43.0681" y2="86.7507">
		<stop  offset="0" style="stop-color:#AAAAAA"/>
		<stop  offset="0.5056" style="stop-color:#EBEBEB"/>
		<stop  offset="1" style="stop-color:#B4B4B4"/>
	</linearGradient>
	<polygon fill="url(#SVGID_2_)" points="87,63.876 46.017,79.835 46.017,67.431 87,51.759 	"/>
	<polygon fill="#787878" points="87.333,64.376 45,80.229 45,79.125 86.167,63.543 86.223,51.912 87.401,51.46 	"/>
	<polygon fill="#8A96A3" points="38.716,89.544 0,58.709 0,21.425 38.716,51.125 	"/>
</g>
</svg>
