<?xml version="1.0" encoding="utf-8"?>
<!-- Generator: Adobe Illustrator 15.0.0, SVG Export Plug-In . SVG Version: 6.00 Build 0)  -->
<!DOCTYPE svg PUBLIC "-//W3C//DTD SVG 1.1 Tiny//EN" "http://www.w3.org/Graphics/SVG/1.1/DTD/svg11-tiny.dtd">
<svg version="1.1" baseProfile="tiny" id="_x32_2_x7E_28"
	 xmlns="http://www.w3.org/2000/svg" xmlns:xlink="http://www.w3.org/1999/xlink" x="0px" y="0px" width="52.854px"
	 height="93.301px" viewBox="0 0 52.854 93.301" xml:space="preserve">
<g>
	<polygon fill="#4A5A4A" points="52.854,81.796 30.18,93.297 27.053,92.483 27.053,33.796 30.18,32.311 52.854,24.921 	"/>
	<polygon fill="#96A096" points="30.18,32.312 30.18,35.297 0,35.297 0,32.312 22.642,24.921 52.822,24.921 	"/>
	<rect y="32.311" fill="#DCDCD2" width="30.18" height="60.986"/>
	<rect x="1.527" y="38.112" fill="#003200" width="26.949" height="5.722"/>
	<polygon fill="#003200" points="52.038,35.471 31.667,43.834 31.667,38.112 52.038,29.749 	"/>
	<polygon fill="#003200" points="52.038,42.908 31.667,51.271 31.667,45.55 52.038,37.187 	"/>
	<polygon fill="#003200" points="52.038,78.428 31.667,88.354 31.667,82.633 52.038,72.705 	"/>
	<rect x="1.527" y="45.62" fill="#003200" width="26.949" height="5.723"/>
	<g>
		<polygon fill="#D2D2D2" points="51.526,35.101 32.246,43.025 32.246,38.488 51.526,30.473 		"/>
		<polygon fill="#D2D2D2" points="51.526,42.538 32.246,50.463 32.246,45.926 51.526,37.91 		"/>
		<polygon fill="#D2D2D2" points="51.526,78.058 32.246,87.546 32.246,83.009 51.526,73.429 		"/>
		<g>
			<rect x="2.105" y="38.729" fill="#D2D2D2" width="25.792" height="4.412"/>
			<rect x="2.105" y="46.237" fill="#D2D2D2" width="25.792" height="4.412"/>
		</g>
	</g>
	<g>
		<rect x="6.511" y="56.792" fill="#003200" width="8.234" height="6.741"/>
		<rect x="15.567" y="56.792" fill="#003200" width="8.234" height="6.741"/>
		<rect x="6.511" y="64.354" fill="#003200" width="8.234" height="6.741"/>
		<rect x="15.567" y="64.354" fill="#003200" width="8.234" height="6.741"/>
		<rect x="6.511" y="71.854" fill="#003200" width="8.234" height="6.741"/>
		<rect x="15.567" y="71.854" fill="#003200" width="8.234" height="6.741"/>
	</g>
	<g>
		<linearGradient id="SVGID_1_" gradientUnits="userSpaceOnUse" x1="13.2188" y1="57.4053" x2="7.6237" y2="63.4168">
			<stop  offset="0" style="stop-color:#DBD2D2"/>
			<stop  offset="0.1451" style="stop-color:#E6E0E0"/>
			<stop  offset="0.3846" style="stop-color:#FFFFFF"/>
			<stop  offset="0.7418" style="stop-color:#D9D2D2"/>
			<stop  offset="1" style="stop-color:#FFFFFF"/>
		</linearGradient>
		<rect x="7.283" y="57.564" fill="url(#SVGID_1_)" width="6.69" height="5.248"/>
		<linearGradient id="SVGID_2_" gradientUnits="userSpaceOnUse" x1="24.0151" y1="55.8203" x2="17.0516" y2="62.8435">
			<stop  offset="0" style="stop-color:#DBD2D2"/>
			<stop  offset="0.1451" style="stop-color:#E6E0E0"/>
			<stop  offset="0.3846" style="stop-color:#FFFFFF"/>
			<stop  offset="0.7418" style="stop-color:#D9D2D2"/>
			<stop  offset="1" style="stop-color:#FFFFFF"/>
		</linearGradient>
		<rect x="16.339" y="57.564" fill="url(#SVGID_2_)" width="6.69" height="5.248"/>
		<linearGradient id="SVGID_3_" gradientUnits="userSpaceOnUse" x1="12.6821" y1="64.6563" x2="8.4562" y2="71.0247">
			<stop  offset="0" style="stop-color:#DBD2D2"/>
			<stop  offset="0.1451" style="stop-color:#E6E0E0"/>
			<stop  offset="0.3846" style="stop-color:#FFFFFF"/>
			<stop  offset="0.7418" style="stop-color:#D9D2D2"/>
			<stop  offset="1" style="stop-color:#FFFFFF"/>
		</linearGradient>
		<rect x="7.283" y="65.127" fill="url(#SVGID_3_)" width="6.69" height="5.248"/>
		<linearGradient id="SVGID_4_" gradientUnits="userSpaceOnUse" x1="23.2813" y1="64.2539" x2="16.8533" y2="70.5036">
			<stop  offset="0" style="stop-color:#DBD2D2"/>
			<stop  offset="0.1451" style="stop-color:#E6E0E0"/>
			<stop  offset="0.3846" style="stop-color:#FFFFFF"/>
			<stop  offset="0.7418" style="stop-color:#D9D2D2"/>
			<stop  offset="1" style="stop-color:#FFFFFF"/>
		</linearGradient>
		<rect x="16.339" y="65.127" fill="url(#SVGID_4_)" width="6.69" height="5.248"/>
		<linearGradient id="SVGID_5_" gradientUnits="userSpaceOnUse" x1="12.3418" y1="72.6133" x2="9.2468" y2="77.3747">
			<stop  offset="0" style="stop-color:#DBD2D2"/>
			<stop  offset="0.1451" style="stop-color:#E6E0E0"/>
			<stop  offset="0.3846" style="stop-color:#FFFFFF"/>
			<stop  offset="0.7418" style="stop-color:#D9D2D2"/>
			<stop  offset="1" style="stop-color:#FFFFFF"/>
		</linearGradient>
		<rect x="7.283" y="72.627" fill="url(#SVGID_5_)" width="6.69" height="5.248"/>
		<linearGradient id="SVGID_6_" gradientUnits="userSpaceOnUse" x1="22.9946" y1="72.001" x2="16.5071" y2="78.3694">
			<stop  offset="0" style="stop-color:#DBD2D2"/>
			<stop  offset="0.1451" style="stop-color:#E6E0E0"/>
			<stop  offset="0.3846" style="stop-color:#FFFFFF"/>
			<stop  offset="0.7418" style="stop-color:#D9D2D2"/>
			<stop  offset="1" style="stop-color:#FFFFFF"/>
		</linearGradient>
		<rect x="16.339" y="72.627" fill="url(#SVGID_6_)" width="6.69" height="5.248"/>
	</g>
	<rect x="10.247" y="83.796" width="9.798" height="9.505"/>
	<g>
		<rect x="11.039" y="84.57" fill="#74888B" width="3.789" height="8.266"/>
		<rect x="15.533" y="84.57" fill="#74888B" width="3.771" height="8.266"/>
	</g>
	<g>
		<linearGradient id="SVGID_7_" gradientUnits="userSpaceOnUse" x1="28.4316" y1="14.1191" x2="33.7412" y2="14.1191">
			<stop  offset="0.0056" style="stop-color:#231E2C"/>
			<stop  offset="0.5056" style="stop-color:#888D8D"/>
			<stop  offset="1" style="stop-color:#1E212C"/>
		</linearGradient>
		<polygon fill="url(#SVGID_7_)" points="33.259,0.796 28.915,0.796 28.432,27.442 33.741,27.442 		"/>
		<rect x="28.951" y="0.602" fill="#231E2C" width="4.341" height="1.45"/>
		<linearGradient id="SVGID_8_" gradientUnits="userSpaceOnUse" x1="28.522" y1="0.75" x2="33.6958" y2="0.75">
			<stop  offset="0.0056" style="stop-color:#231E2C"/>
			<stop  offset="0.0853" style="stop-color:#282431"/>
			<stop  offset="0.1895" style="stop-color:#37343F"/>
			<stop  offset="0.3074" style="stop-color:#504F57"/>
			<stop  offset="0.4344" style="stop-color:#727578"/>
			<stop  offset="0.5056" style="stop-color:#888D8D"/>
			<stop  offset="0.5688" style="stop-color:#73787A"/>
			<stop  offset="0.6965" style="stop-color:#4E5258"/>
			<stop  offset="0.8151" style="stop-color:#343740"/>
			<stop  offset="0.9199" style="stop-color:#242731"/>
			<stop  offset="1" style="stop-color:#1E212C"/>
		</linearGradient>
		<rect x="28.522" fill="url(#SVGID_8_)" width="5.174" height="1.5"/>
	</g>
	<g>
		<linearGradient id="SVGID_9_" gradientUnits="userSpaceOnUse" x1="18.6523" y1="16.5586" x2="24.4355" y2="16.5586">
			<stop  offset="0.0056" style="stop-color:#231E2C"/>
			<stop  offset="0.5056" style="stop-color:#888D8D"/>
			<stop  offset="1" style="stop-color:#1E212C"/>
		</linearGradient>
		<polygon fill="url(#SVGID_9_)" points="23.91,2.047 19.178,2.047 18.652,31.07 24.436,31.07 		"/>
		<rect x="19.183" y="2.251" fill="#231E2C" width="4.732" height="1.363"/>
		<linearGradient id="SVGID_10_" gradientUnits="userSpaceOnUse" x1="18.6089" y1="2.1289" x2="24.3589" y2="2.1289">
			<stop  offset="0.0056" style="stop-color:#231E2C"/>
			<stop  offset="0.0853" style="stop-color:#282431"/>
			<stop  offset="0.1895" style="stop-color:#37343F"/>
			<stop  offset="0.3074" style="stop-color:#504F57"/>
			<stop  offset="0.4344" style="stop-color:#727578"/>
			<stop  offset="0.5056" style="stop-color:#888D8D"/>
			<stop  offset="0.5688" style="stop-color:#73787A"/>
			<stop  offset="0.6965" style="stop-color:#4E5258"/>
			<stop  offset="0.8151" style="stop-color:#343740"/>
			<stop  offset="0.9199" style="stop-color:#242731"/>
			<stop  offset="1" style="stop-color:#1E212C"/>
		</linearGradient>
		<rect x="18.609" y="1.296" fill="url(#SVGID_10_)" width="5.75" height="1.667"/>
	</g>
</g>
</svg>
