<?xml version="1.0" encoding="utf-8"?>
<!-- Generator: Adobe Illustrator 15.0.0, SVG Export Plug-In . SVG Version: 6.00 Build 0)  -->
<!DOCTYPE svg PUBLIC "-//W3C//DTD SVG 1.1 Tiny//EN" "http://www.w3.org/Graphics/SVG/1.1/DTD/svg11-tiny.dtd">
<svg version="1.1" baseProfile="tiny" id="_x30_1_x7E_07"
	 xmlns="http://www.w3.org/2000/svg" xmlns:xlink="http://www.w3.org/1999/xlink" x="0px" y="0px" width="69.646px"
	 height="91.124px" viewBox="0 0 69.646 91.124" xml:space="preserve">
<g>
	<polygon fill="#E8E3DE" points="69.271,2.344 55.557,7.842 55.557,10.44 0,10.44 0,7.487 14.027,0 69.584,0 	"/>
	<polygon fill="#ABA39C" points="69.637,83.741 55.609,91.124 51.549,91.124 51.539,8.082 55.609,7.513 69.637,0.13 	"/>
	<polyline fill="#999387" points="55.578,85.285 55.578,91.098 69.646,83.785 69.646,14.001 	"/>
	<rect y="7.487" fill="#D4C9C4" width="55.557" height="83.61"/>
	<g>
		<rect x="3.51" y="17.367" fill="#5C3840" width="6.838" height="10.998"/>
		<linearGradient id="SVGID_1_" gradientUnits="userSpaceOnUse" x1="10.3721" y1="19.4653" x2="1.4954" y2="28.1803">
			<stop  offset="0" style="stop-color:#AAAAAA"/>
			<stop  offset="0.5056" style="stop-color:#EBEBEB"/>
			<stop  offset="1" style="stop-color:#B4B4B4"/>
		</linearGradient>
		<rect x="3.891" y="17.731" fill="url(#SVGID_1_)" width="6.055" height="10.247"/>
	</g>
	<g>
		<rect x="14.01" y="17.367" fill="#5C3840" width="6.838" height="10.998"/>
		<linearGradient id="SVGID_2_" gradientUnits="userSpaceOnUse" x1="20.8711" y1="19.4648" x2="11.9945" y2="28.1798">
			<stop  offset="0" style="stop-color:#AAAAAA"/>
			<stop  offset="0.5056" style="stop-color:#EBEBEB"/>
			<stop  offset="1" style="stop-color:#B4B4B4"/>
		</linearGradient>
		<rect x="14.391" y="17.731" fill="url(#SVGID_2_)" width="6.055" height="10.247"/>
	</g>
	<g>
		<rect x="24.51" y="17.367" fill="#5C3840" width="6.838" height="10.998"/>
		<linearGradient id="SVGID_3_" gradientUnits="userSpaceOnUse" x1="31.3711" y1="19.4644" x2="22.4945" y2="28.1793">
			<stop  offset="0" style="stop-color:#AAAAAA"/>
			<stop  offset="0.5056" style="stop-color:#EBEBEB"/>
			<stop  offset="1" style="stop-color:#B4B4B4"/>
		</linearGradient>
		<rect x="24.891" y="17.731" fill="url(#SVGID_3_)" width="6.055" height="10.247"/>
	</g>
	<g>
		<rect x="34.344" y="17.367" fill="#5C3840" width="6.838" height="10.998"/>
		<linearGradient id="SVGID_4_" gradientUnits="userSpaceOnUse" x1="41.2031" y1="19.4648" x2="32.3276" y2="28.1787">
			<stop  offset="0" style="stop-color:#AAAAAA"/>
			<stop  offset="0.5056" style="stop-color:#EBEBEB"/>
			<stop  offset="1" style="stop-color:#B4B4B4"/>
		</linearGradient>
		<rect x="34.725" y="17.731" fill="url(#SVGID_4_)" width="6.053" height="10.247"/>
	</g>
	<g>
		<rect x="44.51" y="17.367" fill="#5C3840" width="6.838" height="10.998"/>
		<linearGradient id="SVGID_5_" gradientUnits="userSpaceOnUse" x1="51.3701" y1="19.4658" x2="42.4946" y2="28.1797">
			<stop  offset="0" style="stop-color:#AAAAAA"/>
			<stop  offset="0.5056" style="stop-color:#EBEBEB"/>
			<stop  offset="1" style="stop-color:#B4B4B4"/>
		</linearGradient>
		<rect x="44.891" y="17.731" fill="url(#SVGID_5_)" width="6.053" height="10.247"/>
	</g>
	<g>
		<g>
			<polygon fill="#5C3840" points="59.199,27.689 57.439,28.365 57.439,17.078 59.199,16.175 			"/>
			<linearGradient id="SVGID_6_" gradientUnits="userSpaceOnUse" x1="60.2178" y1="22.3062" x2="57.5928" y2="22.3062">
				<stop  offset="0" style="stop-color:#AAAAAA"/>
				<stop  offset="0.5056" style="stop-color:#EBEBEB"/>
				<stop  offset="1" style="stop-color:#B4B4B4"/>
			</linearGradient>
			<polygon fill="url(#SVGID_6_)" points="58.961,27.496 57.82,27.872 57.82,17.331 58.932,16.74 			"/>
		</g>
		<g>
			<polygon fill="#5C3840" points="61.928,26.282 60.168,27.079 60.168,15.837 61.928,14.879 			"/>
			<linearGradient id="SVGID_7_" gradientUnits="userSpaceOnUse" x1="62.9463" y1="21.0146" x2="60.3213" y2="21.0146">
				<stop  offset="0" style="stop-color:#AAAAAA"/>
				<stop  offset="0.5056" style="stop-color:#EBEBEB"/>
				<stop  offset="1" style="stop-color:#B4B4B4"/>
			</linearGradient>
			<polygon fill="url(#SVGID_7_)" points="61.689,26.089 60.549,26.585 60.549,16.089 61.66,15.444 			"/>
		</g>
		<g>
			<polygon fill="#5C3840" points="64.865,24.68 63.105,25.477 63.105,14.268 64.865,13.354 			"/>
			<linearGradient id="SVGID_8_" gradientUnits="userSpaceOnUse" x1="65.8838" y1="19.4512" x2="63.2588" y2="19.4512">
				<stop  offset="0" style="stop-color:#AAAAAA"/>
				<stop  offset="0.5056" style="stop-color:#EBEBEB"/>
				<stop  offset="1" style="stop-color:#B4B4B4"/>
			</linearGradient>
			<polygon fill="url(#SVGID_8_)" points="64.627,24.487 63.486,24.983 63.486,14.521 64.598,13.919 			"/>
		</g>
		<g>
			<polygon fill="#5C3840" points="67.666,23.133 65.906,23.923 65.906,12.639 67.666,11.699 			"/>
			<linearGradient id="SVGID_9_" gradientUnits="userSpaceOnUse" x1="68.6846" y1="17.8506" x2="66.0596" y2="17.8506">
				<stop  offset="0" style="stop-color:#AAAAAA"/>
				<stop  offset="0.5056" style="stop-color:#EBEBEB"/>
				<stop  offset="1" style="stop-color:#B4B4B4"/>
			</linearGradient>
			<polygon fill="url(#SVGID_9_)" points="67.428,22.94 66.287,23.437 66.287,12.891 67.398,12.264 			"/>
		</g>
	</g>
	<g>
		<g>
			<polygon fill="#5C3840" points="59.199,45.439 57.439,46.115 57.439,34.828 59.199,33.925 			"/>
			<linearGradient id="SVGID_10_" gradientUnits="userSpaceOnUse" x1="60.2178" y1="40.0562" x2="57.5928" y2="40.0562">
				<stop  offset="0" style="stop-color:#AAAAAA"/>
				<stop  offset="0.5056" style="stop-color:#EBEBEB"/>
				<stop  offset="1" style="stop-color:#B4B4B4"/>
			</linearGradient>
			<polygon fill="url(#SVGID_10_)" points="58.961,45.246 57.82,45.622 57.82,35.081 58.932,34.49 			"/>
		</g>
		<g>
			<polygon fill="#5C3840" points="61.928,44.032 60.168,44.829 60.168,33.587 61.928,32.629 			"/>
			<linearGradient id="SVGID_11_" gradientUnits="userSpaceOnUse" x1="62.9463" y1="38.7646" x2="60.3213" y2="38.7646">
				<stop  offset="0" style="stop-color:#AAAAAA"/>
				<stop  offset="0.5056" style="stop-color:#EBEBEB"/>
				<stop  offset="1" style="stop-color:#B4B4B4"/>
			</linearGradient>
			<polygon fill="url(#SVGID_11_)" points="61.689,43.839 60.549,44.335 60.549,33.839 61.66,33.194 			"/>
		</g>
		<g>
			<polygon fill="#5C3840" points="64.865,42.43 63.105,43.227 63.105,32.018 64.865,31.104 			"/>
			<linearGradient id="SVGID_12_" gradientUnits="userSpaceOnUse" x1="65.8838" y1="37.2012" x2="63.2588" y2="37.2012">
				<stop  offset="0" style="stop-color:#AAAAAA"/>
				<stop  offset="0.5056" style="stop-color:#EBEBEB"/>
				<stop  offset="1" style="stop-color:#B4B4B4"/>
			</linearGradient>
			<polygon fill="url(#SVGID_12_)" points="64.627,42.237 63.486,42.733 63.486,32.271 64.598,31.669 			"/>
		</g>
		<g>
			<polygon fill="#5C3840" points="67.666,40.883 65.906,41.673 65.906,30.389 67.666,29.449 			"/>
			<linearGradient id="SVGID_13_" gradientUnits="userSpaceOnUse" x1="68.6846" y1="35.6006" x2="66.0596" y2="35.6006">
				<stop  offset="0" style="stop-color:#AAAAAA"/>
				<stop  offset="0.5056" style="stop-color:#EBEBEB"/>
				<stop  offset="1" style="stop-color:#B4B4B4"/>
			</linearGradient>
			<polygon fill="url(#SVGID_13_)" points="67.428,40.69 66.287,41.187 66.287,30.641 67.398,30.014 			"/>
		</g>
	</g>
	<g>
		<g>
			<polygon fill="#5C3840" points="59.199,62.939 57.439,63.615 57.439,52.328 59.199,51.425 			"/>
			<linearGradient id="SVGID_14_" gradientUnits="userSpaceOnUse" x1="60.2178" y1="57.5562" x2="57.5928" y2="57.5562">
				<stop  offset="0" style="stop-color:#AAAAAA"/>
				<stop  offset="0.5056" style="stop-color:#EBEBEB"/>
				<stop  offset="1" style="stop-color:#B4B4B4"/>
			</linearGradient>
			<polygon fill="url(#SVGID_14_)" points="58.961,62.746 57.82,63.122 57.82,52.581 58.932,51.99 			"/>
		</g>
		<g>
			<polygon fill="#5C3840" points="61.928,61.532 60.168,62.329 60.168,51.087 61.928,50.129 			"/>
			<linearGradient id="SVGID_15_" gradientUnits="userSpaceOnUse" x1="62.9463" y1="56.2646" x2="60.3213" y2="56.2646">
				<stop  offset="0" style="stop-color:#AAAAAA"/>
				<stop  offset="0.5056" style="stop-color:#EBEBEB"/>
				<stop  offset="1" style="stop-color:#B4B4B4"/>
			</linearGradient>
			<polygon fill="url(#SVGID_15_)" points="61.689,61.339 60.549,61.835 60.549,51.339 61.66,50.694 			"/>
		</g>
		<g>
			<polygon fill="#5C3840" points="64.865,59.93 63.105,60.727 63.105,49.518 64.865,48.604 			"/>
			<linearGradient id="SVGID_16_" gradientUnits="userSpaceOnUse" x1="65.8838" y1="54.7012" x2="63.2588" y2="54.7012">
				<stop  offset="0" style="stop-color:#AAAAAA"/>
				<stop  offset="0.5056" style="stop-color:#EBEBEB"/>
				<stop  offset="1" style="stop-color:#B4B4B4"/>
			</linearGradient>
			<polygon fill="url(#SVGID_16_)" points="64.627,59.737 63.486,60.233 63.486,49.771 64.598,49.169 			"/>
		</g>
		<g>
			<polygon fill="#5C3840" points="67.666,58.383 65.906,59.173 65.906,47.889 67.666,46.949 			"/>
			<linearGradient id="SVGID_17_" gradientUnits="userSpaceOnUse" x1="68.6846" y1="53.1006" x2="66.0596" y2="53.1006">
				<stop  offset="0" style="stop-color:#AAAAAA"/>
				<stop  offset="0.5056" style="stop-color:#EBEBEB"/>
				<stop  offset="1" style="stop-color:#B4B4B4"/>
			</linearGradient>
			<polygon fill="url(#SVGID_17_)" points="67.428,58.19 66.287,58.687 66.287,48.141 67.398,47.514 			"/>
		</g>
	</g>
	<g>
		<g>
			<polygon fill="#5C3840" points="59.199,79.689 57.439,80.365 57.439,69.078 59.199,68.175 			"/>
			<linearGradient id="SVGID_18_" gradientUnits="userSpaceOnUse" x1="60.2178" y1="74.3062" x2="57.5928" y2="74.3062">
				<stop  offset="0" style="stop-color:#AAAAAA"/>
				<stop  offset="0.5056" style="stop-color:#EBEBEB"/>
				<stop  offset="1" style="stop-color:#B4B4B4"/>
			</linearGradient>
			<polygon fill="url(#SVGID_18_)" points="58.961,79.496 57.82,79.872 57.82,69.331 58.932,68.74 			"/>
		</g>
		<g>
			<polygon fill="#5C3840" points="61.928,78.282 60.168,79.079 60.168,67.837 61.928,66.879 			"/>
			<linearGradient id="SVGID_19_" gradientUnits="userSpaceOnUse" x1="62.9463" y1="73.0146" x2="60.3213" y2="73.0146">
				<stop  offset="0" style="stop-color:#AAAAAA"/>
				<stop  offset="0.5056" style="stop-color:#EBEBEB"/>
				<stop  offset="1" style="stop-color:#B4B4B4"/>
			</linearGradient>
			<polygon fill="url(#SVGID_19_)" points="61.689,78.089 60.549,78.585 60.549,68.089 61.66,67.444 			"/>
		</g>
		<g>
			<polygon fill="#5C3840" points="64.865,76.68 63.105,77.477 63.105,66.268 64.865,65.354 			"/>
			<linearGradient id="SVGID_20_" gradientUnits="userSpaceOnUse" x1="65.8838" y1="71.4512" x2="63.2588" y2="71.4512">
				<stop  offset="0" style="stop-color:#AAAAAA"/>
				<stop  offset="0.5056" style="stop-color:#EBEBEB"/>
				<stop  offset="1" style="stop-color:#B4B4B4"/>
			</linearGradient>
			<polygon fill="url(#SVGID_20_)" points="64.627,76.487 63.486,76.983 63.486,66.521 64.598,65.919 			"/>
		</g>
		<g>
			<polygon fill="#5C3840" points="67.666,75.133 65.906,75.923 65.906,64.639 67.666,63.699 			"/>
			<linearGradient id="SVGID_21_" gradientUnits="userSpaceOnUse" x1="68.6846" y1="69.8506" x2="66.0596" y2="69.8506">
				<stop  offset="0" style="stop-color:#AAAAAA"/>
				<stop  offset="0.5056" style="stop-color:#EBEBEB"/>
				<stop  offset="1" style="stop-color:#B4B4B4"/>
			</linearGradient>
			<polygon fill="url(#SVGID_21_)" points="67.428,74.94 66.287,75.437 66.287,64.891 67.398,64.264 			"/>
		</g>
	</g>
	<g>
		<rect x="3.51" y="34.701" fill="#5C3840" width="6.838" height="10.998"/>
		<linearGradient id="SVGID_22_" gradientUnits="userSpaceOnUse" x1="10.3701" y1="36.7979" x2="1.4935" y2="45.5128">
			<stop  offset="0" style="stop-color:#AAAAAA"/>
			<stop  offset="0.5056" style="stop-color:#EBEBEB"/>
			<stop  offset="1" style="stop-color:#B4B4B4"/>
		</linearGradient>
		<rect x="3.891" y="35.064" fill="url(#SVGID_22_)" width="6.055" height="10.247"/>
	</g>
	<g>
		<rect x="14.01" y="34.701" fill="#5C3840" width="6.838" height="10.998"/>
		<linearGradient id="SVGID_23_" gradientUnits="userSpaceOnUse" x1="20.8711" y1="36.7988" x2="11.9945" y2="45.5138">
			<stop  offset="0" style="stop-color:#AAAAAA"/>
			<stop  offset="0.5056" style="stop-color:#EBEBEB"/>
			<stop  offset="1" style="stop-color:#B4B4B4"/>
		</linearGradient>
		<rect x="14.391" y="35.064" fill="url(#SVGID_23_)" width="6.055" height="10.247"/>
	</g>
	<g>
		<rect x="24.51" y="34.701" fill="#5C3840" width="6.838" height="10.998"/>
		<linearGradient id="SVGID_24_" gradientUnits="userSpaceOnUse" x1="31.3711" y1="36.7983" x2="22.4945" y2="45.5133">
			<stop  offset="0" style="stop-color:#AAAAAA"/>
			<stop  offset="0.5056" style="stop-color:#EBEBEB"/>
			<stop  offset="1" style="stop-color:#B4B4B4"/>
		</linearGradient>
		<rect x="24.891" y="35.064" fill="url(#SVGID_24_)" width="6.055" height="10.247"/>
	</g>
	<g>
		<rect x="34.344" y="34.701" fill="#5C3840" width="6.838" height="10.998"/>
		<linearGradient id="SVGID_25_" gradientUnits="userSpaceOnUse" x1="41.2031" y1="36.7988" x2="32.3276" y2="45.5127">
			<stop  offset="0" style="stop-color:#AAAAAA"/>
			<stop  offset="0.5056" style="stop-color:#EBEBEB"/>
			<stop  offset="1" style="stop-color:#B4B4B4"/>
		</linearGradient>
		<rect x="34.725" y="35.064" fill="url(#SVGID_25_)" width="6.053" height="10.247"/>
	</g>
	<g>
		<rect x="44.51" y="34.701" fill="#5C3840" width="6.838" height="10.998"/>
		<linearGradient id="SVGID_26_" gradientUnits="userSpaceOnUse" x1="51.3701" y1="36.7988" x2="42.4946" y2="45.5127">
			<stop  offset="0" style="stop-color:#AAAAAA"/>
			<stop  offset="0.5056" style="stop-color:#EBEBEB"/>
			<stop  offset="1" style="stop-color:#B4B4B4"/>
		</linearGradient>
		<rect x="44.891" y="35.064" fill="url(#SVGID_26_)" width="6.053" height="10.247"/>
	</g>
	<g>
		<rect x="3.51" y="52.631" fill="#5C3840" width="6.838" height="10.998"/>
		<linearGradient id="SVGID_27_" gradientUnits="userSpaceOnUse" x1="10.3701" y1="54.7285" x2="1.4935" y2="63.4435">
			<stop  offset="0" style="stop-color:#AAAAAA"/>
			<stop  offset="0.5056" style="stop-color:#EBEBEB"/>
			<stop  offset="1" style="stop-color:#B4B4B4"/>
		</linearGradient>
		<rect x="3.891" y="52.995" fill="url(#SVGID_27_)" width="6.055" height="10.247"/>
	</g>
	<g>
		<rect x="14.01" y="52.631" fill="#5C3840" width="6.838" height="10.998"/>
		<linearGradient id="SVGID_28_" gradientUnits="userSpaceOnUse" x1="20.8711" y1="54.7295" x2="11.9945" y2="63.4444">
			<stop  offset="0" style="stop-color:#AAAAAA"/>
			<stop  offset="0.5056" style="stop-color:#EBEBEB"/>
			<stop  offset="1" style="stop-color:#B4B4B4"/>
		</linearGradient>
		<rect x="14.391" y="52.995" fill="url(#SVGID_28_)" width="6.055" height="10.247"/>
	</g>
	<g>
		<rect x="24.51" y="52.631" fill="#5C3840" width="6.838" height="10.998"/>
		<linearGradient id="SVGID_29_" gradientUnits="userSpaceOnUse" x1="31.3711" y1="54.729" x2="22.4945" y2="63.4439">
			<stop  offset="0" style="stop-color:#AAAAAA"/>
			<stop  offset="0.5056" style="stop-color:#EBEBEB"/>
			<stop  offset="1" style="stop-color:#B4B4B4"/>
		</linearGradient>
		<rect x="24.891" y="52.995" fill="url(#SVGID_29_)" width="6.055" height="10.247"/>
	</g>
	<g>
		<rect x="34.344" y="52.631" fill="#5C3840" width="6.838" height="10.998"/>
		<linearGradient id="SVGID_30_" gradientUnits="userSpaceOnUse" x1="41.2041" y1="54.7295" x2="32.3286" y2="63.4434">
			<stop  offset="0" style="stop-color:#AAAAAA"/>
			<stop  offset="0.5056" style="stop-color:#EBEBEB"/>
			<stop  offset="1" style="stop-color:#B4B4B4"/>
		</linearGradient>
		<rect x="34.725" y="52.995" fill="url(#SVGID_30_)" width="6.053" height="10.247"/>
	</g>
	<g>
		<rect x="44.51" y="52.631" fill="#5C3840" width="6.838" height="10.998"/>
		<linearGradient id="SVGID_31_" gradientUnits="userSpaceOnUse" x1="51.3701" y1="54.7295" x2="42.4946" y2="63.4434">
			<stop  offset="0" style="stop-color:#AAAAAA"/>
			<stop  offset="0.5056" style="stop-color:#EBEBEB"/>
			<stop  offset="1" style="stop-color:#B4B4B4"/>
		</linearGradient>
		<rect x="44.891" y="52.995" fill="url(#SVGID_31_)" width="6.053" height="10.247"/>
	</g>
	<g>
		<rect x="3.51" y="69.631" fill="#5C3840" width="6.838" height="10.998"/>
		<linearGradient id="SVGID_32_" gradientUnits="userSpaceOnUse" x1="10.3711" y1="71.7285" x2="1.4945" y2="80.4435">
			<stop  offset="0" style="stop-color:#AAAAAA"/>
			<stop  offset="0.5056" style="stop-color:#EBEBEB"/>
			<stop  offset="1" style="stop-color:#B4B4B4"/>
		</linearGradient>
		<rect x="3.891" y="69.995" fill="url(#SVGID_32_)" width="6.055" height="10.247"/>
	</g>
	<g>
		<rect x="14.01" y="69.631" fill="#5C3840" width="6.838" height="10.998"/>
		<linearGradient id="SVGID_33_" gradientUnits="userSpaceOnUse" x1="20.8721" y1="71.7295" x2="11.9955" y2="80.4444">
			<stop  offset="0" style="stop-color:#AAAAAA"/>
			<stop  offset="0.5056" style="stop-color:#EBEBEB"/>
			<stop  offset="1" style="stop-color:#B4B4B4"/>
		</linearGradient>
		<rect x="14.391" y="69.995" fill="url(#SVGID_33_)" width="6.055" height="10.247"/>
	</g>
	<g>
		<rect x="24.51" y="69.631" fill="#5C3840" width="6.838" height="10.998"/>
		<linearGradient id="SVGID_34_" gradientUnits="userSpaceOnUse" x1="31.3711" y1="71.729" x2="22.4945" y2="80.4439">
			<stop  offset="0" style="stop-color:#AAAAAA"/>
			<stop  offset="0.5056" style="stop-color:#EBEBEB"/>
			<stop  offset="1" style="stop-color:#B4B4B4"/>
		</linearGradient>
		<rect x="24.891" y="69.995" fill="url(#SVGID_34_)" width="6.055" height="10.247"/>
	</g>
	<g>
		<rect x="34.344" y="69.631" fill="#5C3840" width="6.838" height="10.998"/>
		<linearGradient id="SVGID_35_" gradientUnits="userSpaceOnUse" x1="41.2041" y1="71.7295" x2="32.3286" y2="80.4434">
			<stop  offset="0" style="stop-color:#AAAAAA"/>
			<stop  offset="0.5056" style="stop-color:#EBEBEB"/>
			<stop  offset="1" style="stop-color:#B4B4B4"/>
		</linearGradient>
		<rect x="34.725" y="69.995" fill="url(#SVGID_35_)" width="6.053" height="10.247"/>
	</g>
	<g>
		<rect x="44.51" y="69.631" fill="#5C3840" width="6.838" height="10.998"/>
		<linearGradient id="SVGID_36_" gradientUnits="userSpaceOnUse" x1="51.3701" y1="71.7295" x2="42.4946" y2="80.4434">
			<stop  offset="0" style="stop-color:#AAAAAA"/>
			<stop  offset="0.5056" style="stop-color:#EBEBEB"/>
			<stop  offset="1" style="stop-color:#B4B4B4"/>
		</linearGradient>
		<rect x="44.891" y="69.995" fill="url(#SVGID_36_)" width="6.053" height="10.247"/>
	</g>
</g>
</svg>
