<?xml version="1.0" encoding="utf-8"?>
<!-- Generator: Adobe Illustrator 15.0.0, SVG Export Plug-In . SVG Version: 6.00 Build 0)  -->
<!DOCTYPE svg PUBLIC "-//W3C//DTD SVG 1.1 Tiny//EN" "http://www.w3.org/Graphics/SVG/1.1/DTD/svg11-tiny.dtd">
<svg version="1.1" baseProfile="tiny" id="_x32_2_x7E_28"
	 xmlns="http://www.w3.org/2000/svg" xmlns:xlink="http://www.w3.org/1999/xlink" x="0px" y="0px" width="60.256px"
	 height="90.373px" viewBox="0 0 60.256 90.373" xml:space="preserve">
<g>
	<polygon fill="#E8DEB0" points="45.465,7.334 44.225,9.539 1.482,9.539 0,7.334 14.791,0 60.256,0 	"/>
	<polygon fill="#CFBA6B" points="60.205,83.099 45.465,90.373 40.275,88.427 40.275,9.766 45.465,7.334 60.205,0.06 	"/>
	<g>
		<polygon points="57.033,33.852 49.264,37.852 49.264,17.763 57.033,13.763 		"/>
		<polygon fill="#CBE5E5" points="56.27,33.086 49.98,36.442 49.98,18.337 56.27,15.224 		"/>
		<polygon fill="#646464" points="56.27,33.472 49.98,36.583 49.98,35.913 56.27,32.802 		"/>
		<polygon fill="#B3D9D9" points="56.27,16.615 49.98,23.716 49.98,18.315 56.27,15.016 		"/>
	</g>
	<g>
		<polygon points="57.033,63.684 49.264,67.684 49.264,47.596 57.033,43.596 		"/>
		<polygon fill="#CBE5E5" points="56.27,62.919 49.98,66.275 49.98,48.17 56.27,45.057 		"/>
		<polygon fill="#646464" points="56.27,63.305 49.98,66.416 49.98,65.746 56.27,62.635 		"/>
		<polygon fill="#B3D9D9" points="56.27,46.448 49.98,53.549 49.98,48.148 56.27,44.849 		"/>
	</g>
	<rect y="7.334" fill="#FFFFE3" width="45.465" height="83.039"/>
	<rect x="16.322" y="17.763" width="12.771" height="20.089"/>
	<rect x="17.041" y="18.337" fill="#CBE5E5" width="11.287" height="18.749"/>
	<rect x="17.041" y="36.416" fill="#646464" width="11.287" height="0.67"/>
	<polygon fill="#B3D9D9" points="28.328,19.915 17.041,23.716 17.041,18.315 28.328,18.315 	"/>
	<rect x="16.322" y="48.263" width="12.771" height="20.089"/>
	<rect x="17.041" y="48.837" fill="#CBE5E5" width="11.287" height="18.749"/>
	<rect x="17.041" y="66.916" fill="#646464" width="11.287" height="0.67"/>
	<polygon fill="#B3D9D9" points="28.328,50.415 17.041,54.216 17.041,48.815 28.328,48.815 	"/>
</g>
</svg>
