<?xml version="1.0" encoding="utf-8"?>
<!-- Generator: Adobe Illustrator 15.0.0, SVG Export Plug-In . SVG Version: 6.00 Build 0)  -->
<!DOCTYPE svg PUBLIC "-//W3C//DTD SVG 1.1 Tiny//EN" "http://www.w3.org/Graphics/SVG/1.1/DTD/svg11-tiny.dtd">
<svg version="1.1" baseProfile="tiny" id="_x33_6_x7E_42"
	 xmlns="http://www.w3.org/2000/svg" xmlns:xlink="http://www.w3.org/1999/xlink" x="0px" y="0px" width="159.058px"
	 height="78.423px" viewBox="0 0 159.058 78.423" xml:space="preserve">
<g>
	<polygon fill="#AD9685" points="158.567,2.034 133.036,13 133.036,17.423 0,17.423 0,13.034 26.022,0 159.058,0 	"/>
	<polygon fill="#E6D1A6" points="159.058,65.423 133.036,78.423 127.198,74.275 127.198,15.983 133.036,13 159.058,0 	"/>
	<rect y="13" fill="#F2F2E5" width="133.036" height="65.423"/>
	<rect x="52.922" y="13" fill="#B5917D" width="0.739" height="65.423"/>
	<rect x="79.173" y="13" fill="#B5917D" width="0.738" height="65.423"/>
	<rect y="13.994" fill="#B5917D" width="133.036" height="0.746"/>
	<polygon fill="#B5917D" points="159.056,1.898 133.036,14.74 131.021,14.74 131.021,13.994 133.036,13.994 159.056,1.152 	"/>
	<polygon fill="#B5917D" points="143.661,73.097 142.911,73.456 142.911,8.097 143.661,7.706 	"/>
	<polygon fill="#B5917D" points="148.942,70.425 148.192,70.784 148.192,5.425 148.942,5.034 	"/>
	<g>
		<linearGradient id="SVGID_1_" gradientUnits="userSpaceOnUse" x1="137.1172" y1="27.8193" x2="148.7137" y2="41.7461">
			<stop  offset="0" style="stop-color:#D1FFFF"/>
			<stop  offset="0.1242" style="stop-color:#DFFFFF"/>
			<stop  offset="0.3352" style="stop-color:#FFFFFF"/>
			<stop  offset="0.6813" style="stop-color:#D1FFFF"/>
			<stop  offset="1" style="stop-color:#FFFFFF"/>
		</linearGradient>
		<polygon fill="url(#SVGID_1_)" points="143.108,46.429 139.329,48.332 139.329,19.061 143.108,17.157 		"/>
		<polygon fill="#C8C8C8" points="139.501,48.104 142.794,46.558 142.765,16.786 143.595,16.422 143.595,46.886 139.501,48.789 		
			"/>
		<polygon points="142.765,17.615 139.702,19.207 139.673,48.79 138.958,49.118 138.958,18.718 142.765,16.814 		"/>
	</g>
	<g>
		<linearGradient id="SVGID_2_" gradientUnits="userSpaceOnUse" x1="141.5361" y1="25.6484" x2="153.1321" y2="39.5746">
			<stop  offset="0" style="stop-color:#D1FFFF"/>
			<stop  offset="0.1242" style="stop-color:#DFFFFF"/>
			<stop  offset="0.3352" style="stop-color:#FFFFFF"/>
			<stop  offset="0.6813" style="stop-color:#D1FFFF"/>
			<stop  offset="1" style="stop-color:#FFFFFF"/>
		</linearGradient>
		<polygon fill="url(#SVGID_2_)" points="147.526,44.258 143.747,46.161 143.747,16.89 147.526,14.986 		"/>
		<polygon fill="#C8C8C8" points="143.919,45.933 147.212,44.387 147.183,14.615 148.013,14.251 148.013,44.715 143.919,46.618 		
			"/>
		<polygon points="147.183,15.444 144.12,17.036 144.091,46.619 143.376,46.947 143.376,16.547 147.183,14.644 		"/>
	</g>
	<g>
		<linearGradient id="SVGID_3_" gradientUnits="userSpaceOnUse" x1="145.8027" y1="23.5518" x2="157.3992" y2="37.4785">
			<stop  offset="0" style="stop-color:#D1FFFF"/>
			<stop  offset="0.1242" style="stop-color:#DFFFFF"/>
			<stop  offset="0.3352" style="stop-color:#FFFFFF"/>
			<stop  offset="0.6813" style="stop-color:#D1FFFF"/>
			<stop  offset="1" style="stop-color:#FFFFFF"/>
		</linearGradient>
		<polygon fill="url(#SVGID_3_)" points="151.794,42.161 148.015,44.064 148.015,14.793 151.794,12.89 		"/>
		<polygon fill="#C8C8C8" points="148.187,43.836 151.479,42.29 151.45,12.519 152.28,12.154 152.28,42.618 148.187,44.521 		"/>
		<polygon points="151.45,13.348 148.388,14.939 148.358,44.522 147.644,44.851 147.644,14.45 151.45,12.547 		"/>
	</g>
	<g>
		<rect x="29.883" y="21.749" width="19.337" height="31.059"/>
		<g>
			<linearGradient id="SVGID_4_" gradientUnits="userSpaceOnUse" x1="33.7095" y1="29.9219" x2="50.6886" y2="50.3129">
				<stop  offset="0" style="stop-color:#D1FFFF"/>
				<stop  offset="0.1242" style="stop-color:#DFFFFF"/>
				<stop  offset="0.3352" style="stop-color:#FFFFFF"/>
				<stop  offset="0.6813" style="stop-color:#D1FFFF"/>
				<stop  offset="1" style="stop-color:#FFFFFF"/>
			</linearGradient>
			<rect x="30.546" y="22.427" fill="url(#SVGID_4_)" width="18.335" height="29.413"/>
			<polygon points="48.539,22.885 30.918,22.913 30.89,52.298 30.175,52.298 30.175,22.084 48.539,22.084 			"/>
			<polygon fill="#969696" points="30.89,50.968 48.567,51.024 48.539,22.056 49.368,22.056 49.368,52.297 30.89,52.297 			"/>
		</g>
	</g>
	<g>
		<rect x="57.042" y="21.749" width="19.337" height="31.059"/>
		<g>
			<linearGradient id="SVGID_5_" gradientUnits="userSpaceOnUse" x1="60.8691" y1="29.9219" x2="77.8488" y2="50.3135">
				<stop  offset="0" style="stop-color:#D1FFFF"/>
				<stop  offset="0.1242" style="stop-color:#DFFFFF"/>
				<stop  offset="0.3352" style="stop-color:#FFFFFF"/>
				<stop  offset="0.6813" style="stop-color:#D1FFFF"/>
				<stop  offset="1" style="stop-color:#FFFFFF"/>
			</linearGradient>
			<rect x="57.706" y="22.427" fill="url(#SVGID_5_)" width="18.335" height="29.413"/>
			<polygon points="75.698,22.885 58.078,22.913 58.05,52.298 57.335,52.298 57.335,22.084 75.698,22.084 			"/>
			<polygon fill="#969696" points="58.05,50.968 75.727,51.024 75.698,22.056 76.528,22.056 76.528,52.297 58.05,52.297 			"/>
		</g>
	</g>
	<g>
		<rect x="83.7" y="21.749" width="19.336" height="31.059"/>
		<g>
			<linearGradient id="SVGID_6_" gradientUnits="userSpaceOnUse" x1="87.5254" y1="29.9219" x2="104.505" y2="50.3135">
				<stop  offset="0" style="stop-color:#D1FFFF"/>
				<stop  offset="0.1242" style="stop-color:#DFFFFF"/>
				<stop  offset="0.3352" style="stop-color:#FFFFFF"/>
				<stop  offset="0.6813" style="stop-color:#D1FFFF"/>
				<stop  offset="1" style="stop-color:#FFFFFF"/>
			</linearGradient>
			<rect x="84.362" y="22.427" fill="url(#SVGID_6_)" width="18.336" height="29.413"/>
			<polygon points="102.354,22.885 84.735,22.913 84.706,52.298 83.991,52.298 83.991,22.084 102.354,22.084 			"/>
			<polygon fill="#969696" points="84.706,50.968 102.384,51.024 102.354,22.056 103.185,22.056 103.185,52.297 84.706,52.297 			
				"/>
		</g>
	</g>
</g>
</svg>
