<?xml version="1.0" encoding="utf-8"?>
<!-- Generator: Adobe Illustrator 15.0.0, SVG Export Plug-In . SVG Version: 6.00 Build 0)  -->
<!DOCTYPE svg PUBLIC "-//W3C//DTD SVG 1.1 Tiny//EN" "http://www.w3.org/Graphics/SVG/1.1/DTD/svg11-tiny.dtd">
<svg version="1.1" baseProfile="tiny" id="_x32_2_x7E_28"
	 xmlns="http://www.w3.org/2000/svg" xmlns:xlink="http://www.w3.org/1999/xlink" x="0px" y="0px" width="80.56px"
	 height="92.848px" viewBox="0 0 80.56 92.848" xml:space="preserve">
<g>
	<polygon fill="#7D9EBA" points="33.571,41.335 46.642,35.147 13.07,35.147 0,41.335 0,43.11 33.571,43.11 	"/>
	<polygon fill="#87A6C7" points="67.47,15.812 80.54,9.667 46.969,9.667 33.898,15.812 33.898,17.586 67.47,17.586 	"/>
	<polygon fill="#404F70" points="64.374,92.013 67.447,92.848 80.56,86.2 80.56,9.667 67.447,15.812 64.374,17.534 	"/>
	<polygon fill="#BFD3F2" points="0.04,41.325 0.04,92.848 67.447,92.848 67.447,15.812 33.912,15.812 33.952,41.367 	"/>
	<g>
		<rect x="39.585" y="24.542" width="9.68" height="6.78"/>
		<linearGradient id="SVGID_1_" gradientUnits="userSpaceOnUse" x1="46.353" y1="24.9814" x2="42.1478" y2="31.3584">
			<stop  offset="0" style="stop-color:#DBD2D2"/>
			<stop  offset="0.1451" style="stop-color:#E6E0E0"/>
			<stop  offset="0.3846" style="stop-color:#FFFFFF"/>
			<stop  offset="0.7418" style="stop-color:#D9D2D2"/>
			<stop  offset="1" style="stop-color:#FFFFFF"/>
		</linearGradient>
		<rect x="40.299" y="25.257" fill="url(#SVGID_1_)" width="8.247" height="5.307"/>
	</g>
	<g>
		<rect x="39.585" y="32.813" width="9.68" height="6.78"/>
		<linearGradient id="SVGID_2_" gradientUnits="userSpaceOnUse" x1="46.354" y1="33.252" x2="42.1483" y2="39.6296">
			<stop  offset="0" style="stop-color:#DBD2D2"/>
			<stop  offset="0.1451" style="stop-color:#E6E0E0"/>
			<stop  offset="0.3846" style="stop-color:#FFFFFF"/>
			<stop  offset="0.7418" style="stop-color:#D9D2D2"/>
			<stop  offset="1" style="stop-color:#FFFFFF"/>
		</linearGradient>
		<rect x="40.299" y="33.526" fill="url(#SVGID_2_)" width="8.247" height="5.308"/>
	</g>
	<g>
		<rect x="39.585" y="41.083" width="9.68" height="6.779"/>
		<linearGradient id="SVGID_3_" gradientUnits="userSpaceOnUse" x1="46.354" y1="41.5215" x2="42.1481" y2="47.8995">
			<stop  offset="0" style="stop-color:#DBD2D2"/>
			<stop  offset="0.1451" style="stop-color:#E6E0E0"/>
			<stop  offset="0.3846" style="stop-color:#FFFFFF"/>
			<stop  offset="0.7418" style="stop-color:#D9D2D2"/>
			<stop  offset="1" style="stop-color:#FFFFFF"/>
		</linearGradient>
		<rect x="40.299" y="41.796" fill="url(#SVGID_3_)" width="8.247" height="5.309"/>
	</g>
	<g>
		<rect x="52.761" y="24.542" width="9.68" height="6.78"/>
		<linearGradient id="SVGID_4_" gradientUnits="userSpaceOnUse" x1="59.5293" y1="24.9814" x2="55.3241" y2="31.3584">
			<stop  offset="0" style="stop-color:#DBD2D2"/>
			<stop  offset="0.1451" style="stop-color:#E6E0E0"/>
			<stop  offset="0.3846" style="stop-color:#FFFFFF"/>
			<stop  offset="0.7418" style="stop-color:#D9D2D2"/>
			<stop  offset="1" style="stop-color:#FFFFFF"/>
		</linearGradient>
		<rect x="53.475" y="25.257" fill="url(#SVGID_4_)" width="8.247" height="5.307"/>
	</g>
	<g>
		<rect x="52.761" y="32.813" width="9.68" height="6.78"/>
		<linearGradient id="SVGID_5_" gradientUnits="userSpaceOnUse" x1="59.5303" y1="33.252" x2="55.3247" y2="39.6294">
			<stop  offset="0" style="stop-color:#DBD2D2"/>
			<stop  offset="0.1451" style="stop-color:#E6E0E0"/>
			<stop  offset="0.3846" style="stop-color:#FFFFFF"/>
			<stop  offset="0.7418" style="stop-color:#D9D2D2"/>
			<stop  offset="1" style="stop-color:#FFFFFF"/>
		</linearGradient>
		<rect x="53.475" y="33.526" fill="url(#SVGID_5_)" width="8.247" height="5.308"/>
	</g>
	<g>
		<rect x="52.761" y="41.083" width="9.68" height="6.779"/>
		<linearGradient id="SVGID_6_" gradientUnits="userSpaceOnUse" x1="59.5303" y1="41.5215" x2="55.3242" y2="47.8996">
			<stop  offset="0" style="stop-color:#DBD2D2"/>
			<stop  offset="0.1451" style="stop-color:#E6E0E0"/>
			<stop  offset="0.3846" style="stop-color:#FFFFFF"/>
			<stop  offset="0.7418" style="stop-color:#D9D2D2"/>
			<stop  offset="1" style="stop-color:#FFFFFF"/>
		</linearGradient>
		<rect x="53.475" y="41.796" fill="url(#SVGID_6_)" width="8.247" height="5.309"/>
	</g>
	<g>
		<polygon fill="#000032" points="74.029,81.989 70.277,83.99 70.277,24.714 74.029,22.712 		"/>
		<polygon fill="#000032" points="78.601,80.293 76.121,81.435 76.121,22.157 78.601,21.017 		"/>
	</g>
	<g>
		<linearGradient id="SVGID_7_" gradientUnits="userSpaceOnUse" x1="24.502" y1="20.6064" x2="17.002" y2="20.4399">
			<stop  offset="0.1515" style="stop-color:#304561"/>
			<stop  offset="0.2424" style="stop-color:#465A76"/>
			<stop  offset="0.4305" style="stop-color:#7E91AB"/>
			<stop  offset="0.5055" style="stop-color:#96A8C2"/>
			<stop  offset="0.8606" style="stop-color:#304561"/>
		</linearGradient>
		<polygon fill="url(#SVGID_7_)" points="24.718,1.251 19.271,1.251 18.02,39.821 25.969,39.821 		"/>
		<rect x="19.206" y="2.163" fill="#24384F" width="5.561" height="1.061"/>
		<linearGradient id="SVGID_8_" gradientUnits="userSpaceOnUse" x1="18.3706" y1="1.2881" x2="25.5278" y2="1.2881">
			<stop  offset="0" style="stop-color:#24384F"/>
			<stop  offset="0.5055" style="stop-color:#96A1A6"/>
			<stop  offset="1" style="stop-color:#24384F"/>
		</linearGradient>
		<rect x="18.371" fill="url(#SVGID_8_)" width="7.157" height="2.576"/>
	</g>
	<rect x="3.493" y="85.7" fill="#000032" width="4.125" height="4.125"/>
	<rect x="9.243" y="85.7" fill="#000032" width="4.125" height="4.125"/>
	<rect x="15.056" y="85.7" fill="#000032" width="4.125" height="4.125"/>
	<rect x="20.806" y="85.7" fill="#000032" width="4.125" height="4.125"/>
	<rect x="26.556" y="85.7" fill="#000032" width="4.125" height="4.125"/>
</g>
</svg>
