<?xml version="1.0" encoding="utf-8"?>
<!-- Generator: Adobe Illustrator 15.0.0, SVG Export Plug-In . SVG Version: 6.00 Build 0)  -->
<!DOCTYPE svg PUBLIC "-//W3C//DTD SVG 1.1 Tiny//EN" "http://www.w3.org/Graphics/SVG/1.1/DTD/svg11-tiny.dtd">
<svg version="1.1" baseProfile="tiny" id="_x31_5_x7E_21"
	 xmlns="http://www.w3.org/2000/svg" xmlns:xlink="http://www.w3.org/1999/xlink" x="0px" y="0px" width="91.146px"
	 height="91.486px" viewBox="0 0 91.146 91.486" xml:space="preserve">
<g>
	<polygon fill="#B0A19C" points="76.061,37.72 76.061,40.232 0,40.232 0,37.72 15.088,30.303 91.146,30.303 	"/>
	<polygon fill="#A88C8F" points="91.139,84.107 76.061,91.482 73.377,90.095 73.377,39.428 76.061,37.72 91.139,30.345 	"/>
	<polygon points="89.922,44.275 77.289,50.442 77.289,41.463 89.922,35.296 	"/>
	<polygon points="85.805,82.755 76.791,87.961 76.791,81.979 85.805,76.773 	"/>
	<polygon points="90.303,80.234 86.68,82.299 86.68,76.317 90.303,74.253 	"/>
	<linearGradient id="SVGID_1_" gradientUnits="userSpaceOnUse" x1="82.5586" y1="75.9629" x2="80.8088" y2="85.087">
		<stop  offset="0" style="stop-color:#AAAAAA"/>
		<stop  offset="0.5056" style="stop-color:#EBEBEB"/>
		<stop  offset="1" style="stop-color:#B4B4B4"/>
	</linearGradient>
	<polygon fill="url(#SVGID_1_)" points="85.047,82.416 77.615,86.526 77.615,82.3 85.047,77.84 	"/>
	<linearGradient id="SVGID_2_" gradientUnits="userSpaceOnUse" x1="90.9561" y1="75.3643" x2="86.3316" y2="80.9886">
		<stop  offset="0" style="stop-color:#AAAAAA"/>
		<stop  offset="0.5056" style="stop-color:#EBEBEB"/>
		<stop  offset="1" style="stop-color:#B4B4B4"/>
	</linearGradient>
	<polygon fill="url(#SVGID_2_)" points="89.791,79.701 87.506,81.02 87.506,76.638 89.752,75.279 	"/>
	<polygon points="82.15,84.315 81.453,84.781 81.453,79.817 82.15,79.352 	"/>
	<linearGradient id="SVGID_3_" gradientUnits="userSpaceOnUse" x1="89.6299" y1="38.5317" x2="77.7547" y2="47.2819">
		<stop  offset="0" style="stop-color:#AAAAAA"/>
		<stop  offset="0.5056" style="stop-color:#EBEBEB"/>
		<stop  offset="1" style="stop-color:#B4B4B4"/>
	</linearGradient>
	<polygon fill="url(#SVGID_3_)" points="89.225,43.897 78.047,49.278 78.047,42 89.225,36.48 	"/>
	<rect y="37.72" fill="#DBD1CC" width="76.061" height="53.763"/>
	<rect x="1.266" y="41.57" width="73.455" height="8.979"/>
	<linearGradient id="SVGID_4_" gradientUnits="userSpaceOnUse" x1="37.9404" y1="39.1777" x2="37.9404" y2="49.0534">
		<stop  offset="0" style="stop-color:#AAAAAA"/>
		<stop  offset="0.5056" style="stop-color:#EBEBEB"/>
		<stop  offset="1" style="stop-color:#B4B4B4"/>
	</linearGradient>
	<rect x="2.023" y="42.327" fill="url(#SVGID_4_)" width="71.834" height="7.249"/>
	<g>
		<rect x="14.68" y="42.003" width="0.865" height="7.897"/>
		<rect x="29.609" y="42.003" width="0.865" height="7.897"/>
		<rect x="45.404" y="42.003" width="0.865" height="7.897"/>
		<rect x="60.334" y="42.003" width="0.865" height="7.897"/>
	</g>
	<rect x="8.715" y="64.655" width="9.006" height="6.806"/>
	<rect x="18.477" y="64.655" width="8.318" height="6.806"/>
	<g>
		<rect x="9.539" y="65.48" fill="#806363" width="7.424" height="5.225"/>
		<rect x="19.303" y="65.48" fill="#806363" width="6.736" height="5.225"/>
	</g>
	<g>
		<rect x="18.477" y="81.979" width="8.318" height="5.981"/>
		<rect x="28.17" y="81.979" width="8.318" height="5.981"/>
		<rect x="47.006" y="81.979" width="8.318" height="5.981"/>
		<rect x="56.494" y="81.979" width="8.318" height="5.981"/>
		<rect x="37.244" y="81.979" width="9.014" height="5.981"/>
		<rect x="65.705" y="81.979" width="9.014" height="5.981"/>
	</g>
	<rect x="4.941" y="81.973" width="10.531" height="9.514"/>
	<rect x="5.691" y="82.67" fill="#422926" width="4.529" height="8.308"/>
	<rect x="10.945" y="82.67" fill="#422926" width="3.83" height="8.308"/>
	<g>
		<linearGradient id="SVGID_5_" gradientUnits="userSpaceOnUse" x1="26.1943" y1="87.0083" x2="19.8193" y2="83.3833">
			<stop  offset="0" style="stop-color:#AAAAAA"/>
			<stop  offset="0.5056" style="stop-color:#EBEBEB"/>
			<stop  offset="1" style="stop-color:#B4B4B4"/>
		</linearGradient>
		<rect x="19.303" y="82.805" fill="url(#SVGID_5_)" width="6.736" height="4.399"/>
		<linearGradient id="SVGID_6_" gradientUnits="userSpaceOnUse" x1="29.9961" y1="83.998" x2="34.9961" y2="86.123">
			<stop  offset="0" style="stop-color:#AAAAAA"/>
			<stop  offset="0.5056" style="stop-color:#EBEBEB"/>
			<stop  offset="1" style="stop-color:#B4B4B4"/>
		</linearGradient>
		<rect x="28.996" y="82.805" fill="url(#SVGID_6_)" width="6.736" height="4.399"/>
		<linearGradient id="SVGID_7_" gradientUnits="userSpaceOnUse" x1="47.5723" y1="83.6855" x2="53.0723" y2="85.6855">
			<stop  offset="0" style="stop-color:#AAAAAA"/>
			<stop  offset="0.5056" style="stop-color:#EBEBEB"/>
			<stop  offset="1" style="stop-color:#B4B4B4"/>
		</linearGradient>
		<rect x="47.832" y="82.805" fill="url(#SVGID_7_)" width="6.736" height="4.399"/>
		<linearGradient id="SVGID_8_" gradientUnits="userSpaceOnUse" x1="57.5508" y1="83.5791" x2="61.6758" y2="85.4541">
			<stop  offset="0" style="stop-color:#AAAAAA"/>
			<stop  offset="0.5056" style="stop-color:#EBEBEB"/>
			<stop  offset="1" style="stop-color:#B4B4B4"/>
		</linearGradient>
		<rect x="57.318" y="82.805" fill="url(#SVGID_8_)" width="6.736" height="4.399"/>
		<linearGradient id="SVGID_9_" gradientUnits="userSpaceOnUse" x1="39.4951" y1="83.7041" x2="44.1196" y2="86.3288">
			<stop  offset="0" style="stop-color:#AAAAAA"/>
			<stop  offset="0.5056" style="stop-color:#EBEBEB"/>
			<stop  offset="1" style="stop-color:#B4B4B4"/>
		</linearGradient>
		<rect x="38.07" y="82.805" fill="url(#SVGID_9_)" width="7.432" height="4.399"/>
		<linearGradient id="SVGID_10_" gradientUnits="userSpaceOnUse" x1="66.2305" y1="83.3198" x2="73.9805" y2="86.5698">
			<stop  offset="0" style="stop-color:#AAAAAA"/>
			<stop  offset="0.5056" style="stop-color:#EBEBEB"/>
			<stop  offset="1" style="stop-color:#B4B4B4"/>
		</linearGradient>
		<rect x="66.531" y="82.805" fill="url(#SVGID_10_)" width="7.432" height="4.399"/>
	</g>
	<g>
		<path fill="#64403D" d="M31.107,35.23c0,0,7.066-4.02,9.916-4.917H29.361l-0.713,4.25L31.107,35.23z"/>
		<rect x="23.082" y="34.091" fill="#64403D" width="8.025" height="1.14"/>
		<linearGradient id="SVGID_11_" gradientUnits="userSpaceOnUse" x1="28.0898" y1="17.3613" x2="23.7568" y2="17.3613">
			<stop  offset="0" style="stop-color:#4D3824"/>
			<stop  offset="0.6209" style="stop-color:#B09C85"/>
			<stop  offset="1" style="stop-color:#4D3824"/>
		</linearGradient>
		<polygon fill="url(#SVGID_11_)" points="29.67,0 24.518,0 23.756,34.723 30.434,34.723 		"/>
	</g>
	<g>
		<path fill="#64403D" d="M66.273,35.23c0,0,6.725-4.02,9.576-4.917H64.527l-0.713,4.25L66.273,35.23z"/>
		<rect x="58.248" y="34.091" fill="#64403D" width="8.025" height="1.14"/>
		<linearGradient id="SVGID_12_" gradientUnits="userSpaceOnUse" x1="64.0068" y1="17.3613" x2="59.3398" y2="17.3613">
			<stop  offset="0" style="stop-color:#4D3824"/>
			<stop  offset="0.6209" style="stop-color:#B09C85"/>
			<stop  offset="1" style="stop-color:#4D3824"/>
		</linearGradient>
		<polygon fill="url(#SVGID_12_)" points="64.836,0 59.684,0 58.922,34.723 65.6,34.723 		"/>
	</g>
</g>
</svg>
