<?xml version="1.0" encoding="utf-8"?>
<!-- Generator: Adobe Illustrator 15.0.0, SVG Export Plug-In . SVG Version: 6.00 Build 0)  -->
<!DOCTYPE svg PUBLIC "-//W3C//DTD SVG 1.1 Tiny//EN" "http://www.w3.org/Graphics/SVG/1.1/DTD/svg11-tiny.dtd">
<svg version="1.1" baseProfile="tiny" id="_x32_9_x7E_35"
	 xmlns="http://www.w3.org/2000/svg" xmlns:xlink="http://www.w3.org/1999/xlink" x="0px" y="0px" width="159.014px"
	 height="79.541px" viewBox="0 0 159.014 79.541" xml:space="preserve">
<g>
	<polygon fill="#59242E" points="158.926,69.272 138.77,79.491 137.797,79.107 137.412,46.915 138.77,45.992 152.932,35.851 
		158.957,35.345 	"/>
	<polygon fill="#59242E" points="89.504,49.098 68.455,49.098 67.891,25.323 89.504,22.222 	"/>
	<polygon fill="#87454A" points="69.715,32.729 89.574,22.329 19.926,22.329 0.064,32.729 0.064,35.432 69.715,35.432 	"/>
	<polygon fill="#87454A" points="138.795,45.688 159.014,35.288 89.365,35.288 69.504,45.688 69.504,48.391 136.566,48.391 	"/>
	<polygon fill="#C7B3B5" points="138.77,45.967 138.77,79.501 0,79.501 0,32.729 69.715,32.729 69.494,45.746 	"/>
	<rect x="92.547" y="61.638" width="20.729" height="17.903"/>
	<rect x="93.65" y="62.729" fill="#CCCCCC" width="18.434" height="16.812"/>
	<rect x="3.439" y="35.625" fill="#572E29" width="13.525" height="10.513"/>
	<linearGradient id="SVGID_1_" gradientUnits="userSpaceOnUse" x1="13.4541" y1="37.3174" x2="6.2512" y2="45.1666">
		<stop  offset="0" style="stop-color:#DBD2D2"/>
		<stop  offset="0.1451" style="stop-color:#E6E0E0"/>
		<stop  offset="0.3846" style="stop-color:#FFFFFF"/>
		<stop  offset="0.7418" style="stop-color:#D9D2D2"/>
		<stop  offset="1" style="stop-color:#FFFFFF"/>
	</linearGradient>
	<rect x="4.453" y="36.485" fill="url(#SVGID_1_)" width="11.502" height="8.747"/>
	<rect x="19.424" y="35.625" fill="#572E29" width="13.525" height="10.513"/>
	<linearGradient id="SVGID_2_" gradientUnits="userSpaceOnUse" x1="29.4385" y1="37.3174" x2="22.2356" y2="45.1665">
		<stop  offset="0" style="stop-color:#DBD2D2"/>
		<stop  offset="0.1451" style="stop-color:#E6E0E0"/>
		<stop  offset="0.3846" style="stop-color:#FFFFFF"/>
		<stop  offset="0.7418" style="stop-color:#D9D2D2"/>
		<stop  offset="1" style="stop-color:#FFFFFF"/>
	</linearGradient>
	<rect x="20.438" y="36.485" fill="url(#SVGID_2_)" width="11.502" height="8.747"/>
	<rect x="35.424" y="35.625" fill="#572E29" width="13.525" height="10.513"/>
	<linearGradient id="SVGID_3_" gradientUnits="userSpaceOnUse" x1="45.4395" y1="37.3174" x2="38.2365" y2="45.1666">
		<stop  offset="0" style="stop-color:#DBD2D2"/>
		<stop  offset="0.1451" style="stop-color:#E6E0E0"/>
		<stop  offset="0.3846" style="stop-color:#FFFFFF"/>
		<stop  offset="0.7418" style="stop-color:#D9D2D2"/>
		<stop  offset="1" style="stop-color:#FFFFFF"/>
	</linearGradient>
	<rect x="36.438" y="36.485" fill="url(#SVGID_3_)" width="11.502" height="8.747"/>
	<rect x="51.424" y="35.625" fill="#572E29" width="13.525" height="10.513"/>
	<linearGradient id="SVGID_4_" gradientUnits="userSpaceOnUse" x1="61.4385" y1="37.3174" x2="54.2356" y2="45.1665">
		<stop  offset="0" style="stop-color:#DBD2D2"/>
		<stop  offset="0.1451" style="stop-color:#E6E0E0"/>
		<stop  offset="0.3846" style="stop-color:#FFFFFF"/>
		<stop  offset="0.7418" style="stop-color:#D9D2D2"/>
		<stop  offset="1" style="stop-color:#FFFFFF"/>
	</linearGradient>
	<rect x="52.438" y="36.485" fill="url(#SVGID_4_)" width="11.502" height="8.747"/>
	<polygon fill="#59242E" points="34.648,27.26 23.244,27.26 29.146,22.316 43.396,22.316 	"/>
	<polygon fill="#59242E" points="67.816,27.26 56.41,27.26 63.146,22.316 77.396,22.316 	"/>
	<g>
		<linearGradient id="SVGID_5_" gradientUnits="userSpaceOnUse" x1="31.3926" y1="15.3877" x2="23.894" y2="15.3877">
			<stop  offset="0" style="stop-color:#646464"/>
			<stop  offset="0.5" style="stop-color:#AAAAAA"/>
			<stop  offset="1" style="stop-color:#646464"/>
		</linearGradient>
		<rect x="24.592" y="4.189" fill="url(#SVGID_5_)" width="8.377" height="22.396"/>
		<rect x="24.592" y="0.531" fill="#35373B" width="8.377" height="5.876"/>
		<linearGradient id="SVGID_6_" gradientUnits="userSpaceOnUse" x1="31.3916" y1="2.7637" x2="20.4185" y2="2.7637">
			<stop  offset="0.0056" style="stop-color:#35373B"/>
			<stop  offset="0.4888" style="stop-color:#747477"/>
			<stop  offset="1" style="stop-color:#38373B"/>
		</linearGradient>
		<rect x="23.195" fill="url(#SVGID_6_)" width="11.053" height="5.527"/>
	</g>
	<g>
		<linearGradient id="SVGID_7_" gradientUnits="userSpaceOnUse" x1="65.8105" y1="19.5547" x2="57.7168" y2="19.5547">
			<stop  offset="0" style="stop-color:#646464"/>
			<stop  offset="0.5" style="stop-color:#AAAAAA"/>
			<stop  offset="1" style="stop-color:#646464"/>
		</linearGradient>
		<rect x="58.342" y="12.522" fill="url(#SVGID_7_)" width="8.377" height="14.063"/>
		<rect x="58.342" y="11.553" fill="#35373B" width="8.377" height="4.072"/>
		<linearGradient id="SVGID_8_" gradientUnits="userSpaceOnUse" x1="66.1543" y1="11.8926" x2="54.2798" y2="12.0176">
			<stop  offset="0.0056" style="stop-color:#35373B"/>
			<stop  offset="0.4888" style="stop-color:#747477"/>
			<stop  offset="1" style="stop-color:#38373B"/>
		</linearGradient>
		<rect x="56.945" y="9.167" fill="url(#SVGID_8_)" width="11.053" height="5.526"/>
	</g>
	<rect x="94.686" y="71.529" width="1.541" height="2.137"/>
</g>
</svg>
