<?xml version="1.0" encoding="utf-8"?>
<!-- Generator: Adobe Illustrator 15.0.0, SVG Export Plug-In . SVG Version: 6.00 Build 0)  -->
<!DOCTYPE svg PUBLIC "-//W3C//DTD SVG 1.1 Tiny//EN" "http://www.w3.org/Graphics/SVG/1.1/DTD/svg11-tiny.dtd">
<svg version="1.1" baseProfile="tiny" id="_x30_8_x7E_14"
	 xmlns="http://www.w3.org/2000/svg" xmlns:xlink="http://www.w3.org/1999/xlink" x="0px" y="0px" width="127.667px"
	 height="91.714px" viewBox="0 0 127.667 91.714" xml:space="preserve">
<g>
	<g>
		<linearGradient id="SVGID_1_" gradientUnits="userSpaceOnUse" x1="20.6416" y1="44.0771" x2="26.3477" y2="44.0771">
			<stop  offset="0" style="stop-color:#644646"/>
			<stop  offset="0.3155" style="stop-color:#9F8181"/>
			<stop  offset="0.522" style="stop-color:#C8AAAA"/>
			<stop  offset="1" style="stop-color:#644646"/>
		</linearGradient>
		<polygon fill="url(#SVGID_1_)" points="25.621,27.44 20.809,27.44 19.105,60.714 26.867,60.714 		"/>
		<path fill="#463232" d="M21.045,27.792l-0.229,0.368l-0.092,0.414c0,0,2.575,0.598,4.919,0l-0.046-0.598L21.045,27.792z"/>
		<linearGradient id="SVGID_2_" gradientUnits="userSpaceOnUse" x1="20.8091" y1="27.2627" x2="25.6211" y2="27.2627">
			<stop  offset="0" style="stop-color:#463232"/>
			<stop  offset="0.2879" style="stop-color:#816D6D"/>
			<stop  offset="0.522" style="stop-color:#B4A0A0"/>
			<stop  offset="1" style="stop-color:#463232"/>
		</linearGradient>
		<rect x="19.74" y="26.354" fill="url(#SVGID_2_)" width="6.737" height="1.818"/>
	</g>
	<g>
		<linearGradient id="SVGID_3_" gradientUnits="userSpaceOnUse" x1="40.7085" y1="44.0776" x2="32.9585" y2="44.0776">
			<stop  offset="0" style="stop-color:#644646"/>
			<stop  offset="0.3155" style="stop-color:#9F8181"/>
			<stop  offset="0.522" style="stop-color:#C8AAAA"/>
			<stop  offset="1" style="stop-color:#644646"/>
		</linearGradient>
		<polygon fill="url(#SVGID_3_)" points="37.371,27.44 32.559,27.44 30.855,60.714 38.617,60.714 		"/>
		<path fill="#463232" d="M32.795,27.792l-0.229,0.368l-0.092,0.414c0,0,2.575,0.598,4.919,0l-0.046-0.598L32.795,27.792z"/>
		<linearGradient id="SVGID_4_" gradientUnits="userSpaceOnUse" x1="37.8335" y1="27.2622" x2="32.7085" y2="27.2622">
			<stop  offset="0" style="stop-color:#463232"/>
			<stop  offset="0.2879" style="stop-color:#816D6D"/>
			<stop  offset="0.522" style="stop-color:#B4A0A0"/>
			<stop  offset="1" style="stop-color:#463232"/>
		</linearGradient>
		<rect x="31.49" y="26.354" fill="url(#SVGID_4_)" width="6.737" height="1.818"/>
	</g>
	<g>
		<linearGradient id="SVGID_5_" gradientUnits="userSpaceOnUse" x1="52.2417" y1="43.9819" x2="45.3667" y2="44.1069">
			<stop  offset="0" style="stop-color:#644646"/>
			<stop  offset="0.3155" style="stop-color:#9F8181"/>
			<stop  offset="0.522" style="stop-color:#C8AAAA"/>
			<stop  offset="1" style="stop-color:#644646"/>
		</linearGradient>
		<polygon fill="url(#SVGID_5_)" points="48.746,27.44 43.934,27.44 42.23,60.714 49.992,60.714 		"/>
		<path fill="#463232" d="M44.17,27.792L43.94,28.16l-0.092,0.414c0,0,2.575,0.598,4.919,0l-0.046-0.598L44.17,27.792z"/>
		<linearGradient id="SVGID_6_" gradientUnits="userSpaceOnUse" x1="50.082" y1="27.4507" x2="44.957" y2="27.2007">
			<stop  offset="0" style="stop-color:#463232"/>
			<stop  offset="0.2879" style="stop-color:#816D6D"/>
			<stop  offset="0.522" style="stop-color:#B4A0A0"/>
			<stop  offset="1" style="stop-color:#463232"/>
		</linearGradient>
		<rect x="42.865" y="26.354" fill="url(#SVGID_6_)" width="6.737" height="1.818"/>
	</g>
	<rect x="9.167" y="59.714" fill="#6B5954" width="118.5" height="29.5"/>
	<path fill="#646464" d="M25.105,23.92c-0.443-0.613-3.101-7.485-1.497-12.404s3.85-1.818,5.561-3.208s1.069-9.624,8.234-8.127
		s5.881,5.561,10.693,4.277c1.558-0.416,3.557-1.401,6.202-2.459c3.743-1.497,6.416,2.139,11.228,0.749
		c3.28-0.948,4.597-2.414,6.844-2.459c5.24-0.107,2.353,4.812,9.303,4.705s12.725,1.604,6.523,2.994s-7.165,0.855-10.052,3.743
		s-7.913,3.85-14.543,2.246s-8.982,0.642-10.8,3.208s-2.994,6.737-4.705,6.737s-1.925-4.384-1.176-6.63s-0.535-3.101-2.459-2.887
		s-2.032,1.176-2.353,2.994s-1.711,1.283-2.566,2.459s-0.749,3.208-3.636,3.636s1.176-3.529-0.535-6.951s-6.63-5.133-6.63-1.818
		s0.962,1.39,0.428,3.101s-2.246,2.246-2.246,3.636S26.496,25.845,25.105,23.92z"/>
	<path fill="#E5E5E5" d="M22.841,25.284c-0.443-0.613-3.101-7.485-1.497-12.404s3.85-1.818,5.561-3.208s1.069-9.624,8.234-8.127
		s5.881,5.561,10.693,4.277c1.558-0.416,3.557-1.401,6.202-2.459c3.743-1.497,6.416,2.139,11.228,0.749
		c3.28-0.948,4.597-2.414,6.844-2.459c5.24-0.107,2.353,4.812,9.303,4.705s12.725,1.604,6.523,2.994s-7.165,0.855-10.052,3.743
		s-7.913,3.85-14.543,2.246s-8.982,0.642-10.8,3.208s-2.994,6.737-4.705,6.737s-1.925-4.384-1.176-6.63s-0.535-3.101-2.459-2.887
		s-2.032,1.176-2.353,2.994s-1.711,1.283-2.566,2.459s-0.749,3.208-3.636,3.636s1.176-3.529-0.535-6.951s-6.63-5.133-6.63-1.818
		s0.962,1.39,0.428,3.101s-2.246,2.246-2.246,3.636S24.231,27.209,22.841,25.284z"/>
	<path fill="#B2B2B2" d="M22.839,23.332c-0.385-0.533-1.172-5.451-0.339-9.451c0.917-4.405,4.346-1.791,5.833-3
		S28.77,1.745,35,3.047c6.23,1.302,4.815,6.45,9,5.333c1.354-0.361,5.867-1.58,8.167-2.5c3.255-1.302,5.815,1.542,10,0.333
		c2.852-0.824,5.546-2.96,7.5-3c4.556-0.093,0.456,4.926,6.5,4.833c6.044-0.093,10.335,0.22,4.942,1.429s-6.23,0.744-8.741,3.255
		s-5.936,1.711-11.701,0.316c-5.765-1.396-9.919,1.768-11.5,4c-1.581,2.231-1.441,6.284-2.929,6.284S45.849,17.5,46.5,15.547
		s-1.659-3.019-3.333-2.833c-1.674,0.186-3.721,2.586-4,4.167c-0.279,1.582-1.756,2.144-2.5,3.167c-0.744,1.022-1.304,3.422-2,3.667
		c-2.394,0.843,1.6-3.417,0-6.333c-2.833-5.167-9.333-5.549-9.333-2.667c0,2.883,0.503,1.829,0.039,3.317
		c-0.465,1.487-1.953,1.953-1.953,3.162C23.419,22.402,24.047,25.005,22.839,23.332z"/>
	<path fill="#787878" d="M22.662,21.04c-0.306-0.423,0.047-3.917,0.708-7.091c0.729-3.497,4.588-1.553,5.769-2.513
		c1.181-0.96,1.204-8.241,6.149-7.207c4.945,1.033,3.818,5.174,7.251,5.346c3.722,0.187,8.411-1.41,10.236-2.14
		c2.583-1.033,5.611,1.331,8.933,0.372c2.263-0.654,4.776-2.48,6.328-2.512c3.616-0.074,1.345,3.33,6.142,3.257
		c4.797-0.074,7.631-0.029,3.35,0.931s-5.08,0.613-7.072,2.605c-1.993,1.993-6.813,0.092-11.446-0.745
		c-7.724-1.396-9.864,3.723-10.98,5.863c-1.004,1.924-0.837,5.304-1.675,5.118c-0.363-0.081,0.507-5.336,1.023-6.886
		s-0.744-4.56-3.815-4.374c-1.334,0.081-3.908,1.117-5.025,4.374c-0.413,1.206-0.712,1.979-1.303,2.792
		c-0.591,0.812-1.964,4.727-2.513,4.932c-0.744,0.279,2.582-4.13,1.117-6.328c-3.908-5.863-11.167-5.266-11.167-2.978
		c0,2.288-0.003,2.355-0.373,3.536c-0.369,1.181-1.177,0.992-1.177,1.952C23.123,20.302,23.621,22.369,22.662,21.04z"/>
	<rect x="80.333" y="78.047" fill="#212400" width="45" height="5.667"/>
	<rect x="82.833" y="81.214" fill="#B2B2B2" width="41.667" height="1.334"/>
	<rect x="9.33" y="67.165" fill="#4A3B30" width="74.17" height="22.208"/>
	<rect y="68.381" fill="#A38F91" width="82.5" height="23.333"/>
	<rect x="59.667" y="82.214" fill="#453333" width="4.667" height="9.5"/>
	<g>
		<rect x="1.833" y="70.636" fill="#280000" width="79" height="5.465"/>
		<linearGradient id="SVGID_7_" gradientUnits="userSpaceOnUse" x1="4.4121" y1="73.5029" x2="77.0439" y2="73.8303">
			<stop  offset="0" style="stop-color:#C4A8A8"/>
			<stop  offset="0.4945" style="stop-color:#E6E3E3"/>
			<stop  offset="1" style="stop-color:#BD9996"/>
		</linearGradient>
		<rect x="2.608" y="71.881" fill="url(#SVGID_7_)" width="77.539" height="3.577"/>
		<g>
			<rect x="10.639" y="71.881" fill="#280000" width="0.885" height="3.667"/>
			<rect x="19.446" y="71.881" fill="#280000" width="0.885" height="3.667"/>
			<rect x="27.681" y="71.881" fill="#280000" width="0.885" height="3.667"/>
			<rect x="36.83" y="71.881" fill="#280000" width="0.885" height="3.667"/>
			<rect x="45.065" y="71.881" fill="#280000" width="0.885" height="3.667"/>
			<rect x="53.986" y="71.881" fill="#280000" width="0.885" height="3.667"/>
			<rect x="63.021" y="71.881" fill="#280000" width="0.885" height="3.667"/>
			<rect x="71.256" y="71.881" fill="#280000" width="0.885" height="3.667"/>
		</g>
		<rect x="1.833" y="70.776" fill="#280000" width="79" height="2.105"/>
	</g>
	<path fill="#B2B2B2" d="M80.822,15.288c1.371,0.294,1.521,0,5.171-0.304s-0.304,0.913,2.281,2.282s2.738,0.304,4.259,0.456
		s6.54,2.282,0.152,2.282s-4.563-1.521-9.125-0.913s-8.669,0.456-6.084-0.761s-0.608-1.673-0.456-2.89S78.692,14.832,80.822,15.288z
		"/>
	<path fill="#E5E5E5" d="M81.886,15.745c1.371,0.294,1.521,0,5.171-0.304s-0.304,0.913,2.281,2.282s2.738,0.304,4.259,0.456
		s6.54,2.282,0.152,2.282s-4.563-1.521-9.125-0.913s-8.669,0.456-6.084-0.761s-0.608-1.673-0.456-2.89S79.757,15.289,81.886,15.745z
		"/>
	<path fill="#787878" d="M83.027,16.24c1.094,0.234,0.199,0.035,3.113-0.208c2.914-0.243-0.315,1.122,1.749,2.215
		s3.565,0.461,4.779,0.583c1.214,0.121,5.274,0.991,0.175,0.991c-5.099,0-4.576-1.768-8.218-1.282s-6.333,1.102-4.269,0.13
		c2.064-0.971-0.485-1.335-0.364-2.307C80.113,15.39,81.327,15.875,83.027,16.24z"/>
</g>
</svg>
