<?xml version="1.0" encoding="utf-8"?>
<!-- Generator: Adobe Illustrator 15.0.0, SVG Export Plug-In . SVG Version: 6.00 Build 0)  -->
<!DOCTYPE svg PUBLIC "-//W3C//DTD SVG 1.1 Tiny//EN" "http://www.w3.org/Graphics/SVG/1.1/DTD/svg11-tiny.dtd">
<svg version="1.1" baseProfile="tiny" id="_x31_5_x7E_21"
	 xmlns="http://www.w3.org/2000/svg" xmlns:xlink="http://www.w3.org/1999/xlink" x="0px" y="0px" width="158.898px"
	 height="61.908px" viewBox="0 0 158.898 61.908" xml:space="preserve">
<g>
	<polygon fill="#AEBFA7" points="158.898,55.158 132.048,61.908 121.55,60.404 121.55,37 132.048,35.387 158.898,28.637 	"/>
	<polygon fill="#304138" points="132.048,35.388 132.048,38.908 0,38.908 0,35.388 26.85,28.637 158.898,28.637 	"/>
	<g>
		<ellipse fill="#041703" cx="43.343" cy="31.31" rx="4.536" ry="1.258"/>
		<linearGradient id="SVGID_1_" gradientUnits="userSpaceOnUse" x1="39.6982" y1="15.9556" x2="46.9702" y2="15.9556">
			<stop  offset="0.1152" style="stop-color:#284044"/>
			<stop  offset="0.3552" style="stop-color:#648980"/>
			<stop  offset="0.5" style="stop-color:#85B0A1"/>
			<stop  offset="0.759" style="stop-color:#53746F"/>
			<stop  offset="1" style="stop-color:#284044"/>
		</linearGradient>
		<path fill="url(#SVGID_1_)" d="M45.607,0.846l1.363,30.257c0,0-3.571,1.818-7.272,0l0.779-30.257
			C40.478,0.846,42.806-1.057,45.607,0.846z"/>
	</g>
	<g>
		<ellipse fill="#041703" cx="63.242" cy="31.31" rx="4.536" ry="1.258"/>
		<linearGradient id="SVGID_2_" gradientUnits="userSpaceOnUse" x1="59.5977" y1="15.9556" x2="66.8696" y2="15.9556">
			<stop  offset="0.1152" style="stop-color:#284044"/>
			<stop  offset="0.3552" style="stop-color:#648980"/>
			<stop  offset="0.5" style="stop-color:#85B0A1"/>
			<stop  offset="0.759" style="stop-color:#53746F"/>
			<stop  offset="1" style="stop-color:#284044"/>
		</linearGradient>
		<path fill="url(#SVGID_2_)" d="M65.506,0.846l1.363,30.257c0,0-3.571,1.818-7.272,0l0.779-30.257
			C60.377,0.846,62.706-1.057,65.506,0.846z"/>
	</g>
	<g>
		<ellipse fill="#041703" cx="82.893" cy="31.31" rx="4.536" ry="1.258"/>
		<linearGradient id="SVGID_3_" gradientUnits="userSpaceOnUse" x1="79.2485" y1="15.9556" x2="86.5205" y2="15.9556">
			<stop  offset="0.1152" style="stop-color:#284044"/>
			<stop  offset="0.3552" style="stop-color:#648980"/>
			<stop  offset="0.5" style="stop-color:#85B0A1"/>
			<stop  offset="0.759" style="stop-color:#53746F"/>
			<stop  offset="1" style="stop-color:#284044"/>
		</linearGradient>
		<path fill="url(#SVGID_3_)" d="M85.157,0.846l1.363,30.257c0,0-3.571,1.818-7.272,0l0.779-30.257
			C80.028,0.846,82.356-1.057,85.157,0.846z"/>
	</g>
	<g>
		<ellipse fill="#041703" cx="103.041" cy="31.31" rx="4.536" ry="1.258"/>
		<linearGradient id="SVGID_4_" gradientUnits="userSpaceOnUse" x1="99.397" y1="15.9556" x2="106.6689" y2="15.9556">
			<stop  offset="0.1152" style="stop-color:#284044"/>
			<stop  offset="0.3552" style="stop-color:#648980"/>
			<stop  offset="0.5" style="stop-color:#85B0A1"/>
			<stop  offset="0.759" style="stop-color:#53746F"/>
			<stop  offset="1" style="stop-color:#284044"/>
		</linearGradient>
		<path fill="url(#SVGID_4_)" d="M105.306,0.846l1.363,30.257c0,0-3.571,1.818-7.272,0l0.779-30.257
			C100.176,0.846,102.505-1.057,105.306,0.846z"/>
	</g>
	<g>
		<ellipse fill="#041703" cx="122.692" cy="31.31" rx="4.536" ry="1.258"/>
		<linearGradient id="SVGID_5_" gradientUnits="userSpaceOnUse" x1="119.0474" y1="15.9556" x2="126.3193" y2="15.9556">
			<stop  offset="0.1152" style="stop-color:#284044"/>
			<stop  offset="0.3552" style="stop-color:#648980"/>
			<stop  offset="0.5" style="stop-color:#85B0A1"/>
			<stop  offset="0.759" style="stop-color:#53746F"/>
			<stop  offset="1" style="stop-color:#284044"/>
		</linearGradient>
		<path fill="url(#SVGID_5_)" d="M124.956,0.846l1.363,30.257c0,0-3.571,1.818-7.272,0l0.779-30.257
			C119.827,0.846,122.155-1.057,124.956,0.846z"/>
	</g>
	<rect y="35.387" fill="#D6E0CC" width="132.048" height="26.521"/>
	<g>
		<rect x="12.492" y="45.451" width="10.207" height="10.207"/>
		<g>
			<rect x="13.041" y="45.835" fill="#FFFFFF" width="9" height="9.164"/>
			<polygon fill="#6B7F00" points="12.107,45.012 22.095,45.012 22.095,46.604 13.671,46.576 13.645,54.999 12.107,54.999 			"/>
		</g>
	</g>
	<g>
		<rect x="29.064" y="45.451" width="10.207" height="10.207"/>
		<g>
			<rect x="29.613" y="45.835" fill="#FFFFFF" width="9" height="9.164"/>
			<polygon fill="#6B7F00" points="28.68,45.012 38.667,45.012 38.667,46.604 30.244,46.576 30.217,54.999 28.68,54.999 			"/>
		</g>
	</g>
	<g>
		<rect x="61.992" y="45.451" width="10.207" height="10.207"/>
		<g>
			<rect x="62.541" y="45.835" fill="#FFFFFF" width="9" height="9.164"/>
			<polygon fill="#6B7F00" points="61.607,45.012 71.595,45.012 71.595,46.604 63.171,46.576 63.145,54.999 61.607,54.999 			"/>
		</g>
	</g>
	<g>
		<rect x="78.564" y="45.451" width="10.207" height="10.207"/>
		<g>
			<rect x="79.113" y="45.835" fill="#FFFFFF" width="9" height="9.164"/>
			<polygon fill="#6B7F00" points="78.18,45.012 88.167,45.012 88.167,46.604 79.744,46.576 79.717,54.999 78.18,54.999 			"/>
		</g>
	</g>
	<g>
		<rect x="94.659" y="45.451" width="10.207" height="10.207"/>
		<g>
			<rect x="95.208" y="45.835" fill="#FFFFFF" width="9" height="9.164"/>
			<polygon fill="#6B7F00" points="94.274,45.012 104.262,45.012 104.262,46.604 95.838,46.576 95.812,54.999 94.274,54.999 			"/>
		</g>
	</g>
	<g>
		<rect x="111.231" y="45.451" width="10.207" height="10.207"/>
		<g>
			<rect x="111.78" y="45.835" fill="#FFFFFF" width="9" height="9.164"/>
			<polygon fill="#6B7F00" points="110.847,45.012 120.834,45.012 120.834,46.604 112.411,46.576 112.384,54.999 110.847,54.999 			
				"/>
		</g>
	</g>
	<g>
		<rect x="44.544" y="44.459" width="11.298" height="17.446"/>
		<rect x="46.022" y="46.02" fill="#D2D2D2" width="9.134" height="15.879"/>
		<polygon fill="#707F7F" points="55.156,46.248 46.698,46.221 46.671,61.898 45.15,61.898 45.15,45.016 55.156,45.016 		"/>
	</g>
	<polygon fill="#042E03" points="154.84,54.061 157.09,53.519 157.09,51.269 154.84,51.811 	"/>
	<polygon fill="#042E03" points="151.59,54.811 153.84,54.269 153.84,52.019 151.59,52.561 	"/>
	<polygon fill="#042E03" points="148.256,55.644 150.506,55.103 150.506,52.853 148.256,53.394 	"/>
</g>
</svg>
