<?xml version="1.0" encoding="utf-8"?>
<!-- Generator: Adobe Illustrator 15.0.0, SVG Export Plug-In . SVG Version: 6.00 Build 0)  -->
<!DOCTYPE svg PUBLIC "-//W3C//DTD SVG 1.1 Tiny//EN" "http://www.w3.org/Graphics/SVG/1.1/DTD/svg11-tiny.dtd">
<svg version="1.1" baseProfile="tiny" id="_x30_8_x7E_14"
	 xmlns="http://www.w3.org/2000/svg" xmlns:xlink="http://www.w3.org/1999/xlink" x="0px" y="0px" width="150.267px"
	 height="88.384px" viewBox="0 0 150.267 88.384" xml:space="preserve">
<g>
	<polygon fill="#828282" points="150.205,75.912 125.183,88.384 118.42,86.776 120.028,17.496 125.183,12.472 145.968,0.574 
		150.205,0 	"/>
	<polygon fill="#7A7A7A" points="150.205,75.911 125.183,88.383 125.059,14.588 150.205,70.588 	"/>
	<polygon fill="#C8C8C8" points="125.183,12.472 121.989,20.207 2.368,20.207 0,12.472 25.084,0.154 150.267,0.154 	"/>
	<g>
		<polygon fill="#CFF0FF" points="141.493,39.179 134.282,42.141 134.282,18.437 141.493,15.475 		"/>
		<polygon fill="#BFD4EB" points="141.493,16.825 134.282,23.03 134.282,18.437 141.493,15.475 		"/>
		<polygon fill="#7F757F" points="141.493,38.666 141.493,40.134 134.063,43.095 134.063,18.437 134.985,18.107 134.985,41.627 		
			"/>
	</g>
	<g>
		<polygon fill="#CFF0FF" points="141.493,70.929 134.282,73.891 134.282,50.187 141.493,47.225 		"/>
		<polygon fill="#BFD4EB" points="141.493,48.575 134.282,54.78 134.282,50.187 141.493,47.225 		"/>
		<polygon fill="#7F757F" points="141.493,70.416 141.493,71.884 134.063,74.845 134.063,50.187 134.985,49.857 134.985,73.377 		
			"/>
	</g>
	<rect y="12.472" fill="#AAAAAA" width="125.183" height="75.912"/>
	<g>
		<g>
			<rect x="12.836" y="21.572" fill="#CFF0FF" width="11.522" height="23.704"/>
			<polygon fill="#BFD4EB" points="24.358,22.922 12.836,26.166 12.836,21.572 24.358,21.572 			"/>
			<polygon fill="#7F757F" points="24.358,44.763 24.358,46.231 12.469,46.231 12.469,21.572 14.01,21.572 14.01,44.763 			"/>
		</g>
		<g>
			<rect x="12.836" y="53.322" fill="#CFF0FF" width="11.522" height="23.704"/>
			<polygon fill="#BFD4EB" points="24.358,54.672 12.836,57.916 12.836,53.322 24.358,53.322 			"/>
			<polygon fill="#7F757F" points="24.358,76.513 24.358,77.981 12.469,77.981 12.469,53.322 14.01,53.322 14.01,76.513 			"/>
		</g>
		<g>
			<rect x="34.336" y="21.572" fill="#CFF0FF" width="11.522" height="23.704"/>
			<polygon fill="#BFD4EB" points="45.858,22.922 34.336,26.166 34.336,21.572 45.858,21.572 			"/>
			<polygon fill="#7F757F" points="45.858,44.763 45.858,46.231 33.969,46.231 33.969,21.572 35.51,21.572 35.51,44.763 			"/>
		</g>
		<g>
			<rect x="34.336" y="53.322" fill="#CFF0FF" width="11.522" height="23.704"/>
			<polygon fill="#BFD4EB" points="45.858,54.672 34.336,57.916 34.336,53.322 45.858,53.322 			"/>
			<polygon fill="#7F757F" points="45.858,76.513 45.858,77.981 33.969,77.981 33.969,53.322 35.51,53.322 35.51,76.513 			"/>
		</g>
		<g>
			<rect x="56.586" y="21.572" fill="#CFF0FF" width="11.522" height="23.704"/>
			<polygon fill="#BFD4EB" points="68.108,22.922 56.586,26.166 56.586,21.572 68.108,21.572 			"/>
			<polygon fill="#7F757F" points="68.108,44.763 68.108,46.231 56.219,46.231 56.219,21.572 57.76,21.572 57.76,44.763 			"/>
		</g>
		<g>
			<rect x="56.586" y="53.322" fill="#CFF0FF" width="11.522" height="23.704"/>
			<polygon fill="#BFD4EB" points="68.108,54.672 56.586,57.916 56.586,53.322 68.108,53.322 			"/>
			<polygon fill="#7F757F" points="68.108,76.513 68.108,77.981 56.219,77.981 56.219,53.322 57.76,53.322 57.76,76.513 			"/>
		</g>
		<g>
			<rect x="78.336" y="21.572" fill="#CFF0FF" width="11.522" height="23.704"/>
			<polygon fill="#BFD4EB" points="89.858,22.922 78.336,26.166 78.336,21.572 89.858,21.572 			"/>
			<polygon fill="#7F757F" points="89.858,44.763 89.858,46.231 77.969,46.231 77.969,21.572 79.51,21.572 79.51,44.763 			"/>
		</g>
		<g>
			<rect x="78.336" y="53.322" fill="#CFF0FF" width="11.522" height="23.704"/>
			<polygon fill="#BFD4EB" points="89.858,54.672 78.336,57.916 78.336,53.322 89.858,53.322 			"/>
			<polygon fill="#7F757F" points="89.858,76.513 89.858,77.981 77.969,77.981 77.969,53.322 79.51,53.322 79.51,76.513 			"/>
		</g>
		<g>
			<rect x="100.586" y="21.572" fill="#CFF0FF" width="11.522" height="23.704"/>
			<polygon fill="#BFD4EB" points="112.108,22.922 100.586,26.166 100.586,21.572 112.108,21.572 			"/>
			<polygon fill="#7F757F" points="112.108,44.763 112.108,46.231 100.219,46.231 100.219,21.572 101.76,21.572 101.76,44.763 			
				"/>
		</g>
		<g>
			<rect x="100.586" y="53.322" fill="#CFF0FF" width="11.522" height="23.704"/>
			<polygon fill="#BFD4EB" points="112.108,54.672 100.586,57.916 100.586,53.322 112.108,53.322 			"/>
			<polygon fill="#7F757F" points="112.108,76.513 112.108,77.981 100.219,77.981 100.219,53.322 101.76,53.322 101.76,76.513 			
				"/>
		</g>
	</g>
</g>
</svg>
