<?xml version="1.0" encoding="utf-8"?>
<!-- Generator: Adobe Illustrator 15.0.0, SVG Export Plug-In . SVG Version: 6.00 Build 0)  -->
<!DOCTYPE svg PUBLIC "-//W3C//DTD SVG 1.1 Tiny//EN" "http://www.w3.org/Graphics/SVG/1.1/DTD/svg11-tiny.dtd">
<svg version="1.1" baseProfile="tiny" id="_x30_8_x7E_14"
	 xmlns="http://www.w3.org/2000/svg" xmlns:xlink="http://www.w3.org/1999/xlink" x="0px" y="0px" width="94.889px"
	 height="91.495px" viewBox="0 0 94.889 91.495" xml:space="preserve">
<g>
	<path fill="#E5E5E5" d="M86.094,9.002c0,0,1.551-3.408-1.549-4.802c-3.098-1.395-4.184-1.704-7.9-2.014
		c-3.719-0.31,0.619-1.394-7.127-1.859c-7.744-0.465-11.309,5.887-15.182,5.887s1.084-1.239-4.338-4.647
		c-5.421-3.408-9.294-0.465-11.153,1.394s-2.324,0.62-6.352-0.774s-6.661,0.62-8.52,1.549s-6.042,0.774-8.831,1.394
		s-2.324,1.239-2.479,1.859s-3.099-0.775-6.197,0s-5.576,3.563,2.479,3.563s11.773-1.705,10.844-0.155s-0.774,4.028,2.479,2.324
		s0.774,3.253,4.183,2.169s5.731-3.408,7.746-2.479s-0.31,2.324,3.099,1.859s5.422-1.859,9.915-2.634
		c4.492-0.774,6.041,0,10.225-0.774c4.182-0.774,11.617,0.155,12.082,0.155s9.449-1.084,10.07-1.084
		C80.207,9.932,86.094,9.002,86.094,9.002z"/>
	<path fill="#969696" d="M78.969,23.564L75.404,23.1c0,0-1.395-2.168-1.238-3.718c0.154-1.549-1.086-4.028-3.408-4.028
		c-2.324,0-6.662-0.31-6.662-2.324s-2.479-1.395-4.182-0.775c-1.705,0.62-7.59,1.084-9.605-0.31
		c-2.014-1.394-4.336-1.859-7.281-0.465c-2.944,1.395-7.437,3.409-9.915,1.395s-4.803-2.014-6.352-0.93s-3.253-1.085-1.859-2.014
		s-3.718,0.155-7.126,1.704s-12.239,0-16.576,0.62s4.338-3.718,6.197-4.337s5.577,0,7.281-0.62s4.338-1.859,7.746-1.704
		s3.563-2.324,6.816-2.324s6.662,2.479,8.056,2.169s3.563-2.789,7.436-2.789c3.874,0,8.211,2.478,10.225,2.014
		s7.744-2.633,11.617-2.633S72.152,4.51,74.785,4.2c2.635-0.31,3.408,1.858,7.127,0.929c3.717-0.929,5.73-0.155,7.281,2.479
		c1.549,2.633,4.338,3.409,0.773,3.718c-3.563,0.31,4.338,2.324,1.395,11.929L88.107,23.1c0,0-0.619-1.549-0.619-3.873
		s-4.492-7.591-6.971-6.507s-1.859,2.169-1.24,3.873C79.898,18.297,77.885,21.086,78.969,23.564z"/>
	<g>
		<linearGradient id="SVGID_1_" gradientUnits="userSpaceOnUse" x1="79.8926" y1="42.7822" x2="71.8935" y2="42.7822">
			<stop  offset="0" style="stop-color:#4D3824"/>
			<stop  offset="0.6209" style="stop-color:#B09C85"/>
			<stop  offset="1" style="stop-color:#4D3824"/>
		</linearGradient>
		<polygon fill="url(#SVGID_1_)" points="80.363,22.495 73.547,22.495 72.773,63.07 81.293,63.07 		"/>
		<polygon fill="#4D3824" points="73.951,22.405 73.533,23.128 73.533,23.699 80.348,23.661 80.348,22.976 		"/>
		<linearGradient id="SVGID_2_" gradientUnits="userSpaceOnUse" x1="72.7266" y1="22.2134" x2="81.3516" y2="22.2134">
			<stop  offset="0" style="stop-color:#463232"/>
			<stop  offset="0.2879" style="stop-color:#816D6D"/>
			<stop  offset="0.522" style="stop-color:#B4A0A0"/>
			<stop  offset="1" style="stop-color:#463232"/>
		</linearGradient>
		<rect x="72.727" y="21.343" fill="url(#SVGID_2_)" width="8.625" height="1.74"/>
	</g>
	<g>
		<linearGradient id="SVGID_3_" gradientUnits="userSpaceOnUse" x1="92.3926" y1="42.7822" x2="84.3935" y2="42.7822">
			<stop  offset="0" style="stop-color:#4D3824"/>
			<stop  offset="0.6209" style="stop-color:#B09C85"/>
			<stop  offset="1" style="stop-color:#4D3824"/>
		</linearGradient>
		<polygon fill="url(#SVGID_3_)" points="92.863,22.495 86.047,22.495 85.273,63.07 93.793,63.07 		"/>
		<polygon fill="#4D3824" points="86.451,22.405 86.033,23.128 86.033,23.699 92.848,23.661 92.848,22.976 		"/>
		<linearGradient id="SVGID_4_" gradientUnits="userSpaceOnUse" x1="85.2266" y1="22.2134" x2="93.8516" y2="22.2134">
			<stop  offset="0" style="stop-color:#463232"/>
			<stop  offset="0.2879" style="stop-color:#816D6D"/>
			<stop  offset="0.522" style="stop-color:#B4A0A0"/>
			<stop  offset="1" style="stop-color:#463232"/>
		</linearGradient>
		<rect x="85.227" y="21.343" fill="url(#SVGID_4_)" width="8.625" height="1.74"/>
	</g>
	<rect x="9.893" y="61.995" fill="#CFC7A8" width="84.996" height="29.5"/>
	<rect x="41.779" y="67.835" fill="#280000" width="11.248" height="11.196"/>
	<rect x="41.728" y="79.857" fill="#280000" width="11.299" height="7.429"/>
	<polygon fill="#CFC7A8" points="18.962,54.421 9.876,61.995 10.339,62.413 18.962,62.413 	"/>
	<polygon fill="#CFC7A8" points="28.09,54.421 19.004,61.995 19.467,62.413 28.09,62.413 	"/>
	<g>
		<linearGradient id="SVGID_5_" gradientUnits="userSpaceOnUse" x1="42.5532" y1="69.7446" x2="44.8237" y2="69.7446">
			<stop  offset="0" style="stop-color:#D9C7C7"/>
			<stop  offset="0.1038" style="stop-color:#DFD2D2"/>
			<stop  offset="0.3582" style="stop-color:#EBE8E8"/>
			<stop  offset="0.522" style="stop-color:#F0F0F0"/>
			<stop  offset="0.6652" style="stop-color:#ECE9E9"/>
			<stop  offset="0.8676" style="stop-color:#E2D7D7"/>
			<stop  offset="1" style="stop-color:#D9C7C7"/>
		</linearGradient>
		<rect x="42.553" y="68.609" fill="url(#SVGID_5_)" width="2.271" height="2.27"/>
		<linearGradient id="SVGID_6_" gradientUnits="userSpaceOnUse" x1="42.5532" y1="73.4595" x2="44.8237" y2="73.4595">
			<stop  offset="0" style="stop-color:#D9C7C7"/>
			<stop  offset="0.1038" style="stop-color:#DFD2D2"/>
			<stop  offset="0.3582" style="stop-color:#EBE8E8"/>
			<stop  offset="0.522" style="stop-color:#F0F0F0"/>
			<stop  offset="0.6652" style="stop-color:#ECE9E9"/>
			<stop  offset="0.8676" style="stop-color:#E2D7D7"/>
			<stop  offset="1" style="stop-color:#D9C7C7"/>
		</linearGradient>
		<rect x="42.553" y="72.324" fill="url(#SVGID_6_)" width="2.271" height="2.27"/>
		<linearGradient id="SVGID_7_" gradientUnits="userSpaceOnUse" x1="42.5532" y1="77.1733" x2="44.8237" y2="77.1733">
			<stop  offset="0" style="stop-color:#D9C7C7"/>
			<stop  offset="0.1038" style="stop-color:#DFD2D2"/>
			<stop  offset="0.3582" style="stop-color:#EBE8E8"/>
			<stop  offset="0.522" style="stop-color:#F0F0F0"/>
			<stop  offset="0.6652" style="stop-color:#ECE9E9"/>
			<stop  offset="0.8676" style="stop-color:#E2D7D7"/>
			<stop  offset="1" style="stop-color:#D9C7C7"/>
		</linearGradient>
		<rect x="42.553" y="76.039" fill="url(#SVGID_7_)" width="2.271" height="2.27"/>
		<linearGradient id="SVGID_8_" gradientUnits="userSpaceOnUse" x1="46.2676" y1="69.7446" x2="48.5371" y2="69.7446">
			<stop  offset="0" style="stop-color:#D9C7C7"/>
			<stop  offset="0.1038" style="stop-color:#DFD2D2"/>
			<stop  offset="0.3582" style="stop-color:#EBE8E8"/>
			<stop  offset="0.522" style="stop-color:#F0F0F0"/>
			<stop  offset="0.6652" style="stop-color:#ECE9E9"/>
			<stop  offset="0.8676" style="stop-color:#E2D7D7"/>
			<stop  offset="1" style="stop-color:#D9C7C7"/>
		</linearGradient>
		<rect x="46.268" y="68.609" fill="url(#SVGID_8_)" width="2.27" height="2.27"/>
		<linearGradient id="SVGID_9_" gradientUnits="userSpaceOnUse" x1="46.2676" y1="73.4595" x2="48.5371" y2="73.4595">
			<stop  offset="0" style="stop-color:#D9C7C7"/>
			<stop  offset="0.1038" style="stop-color:#DFD2D2"/>
			<stop  offset="0.3582" style="stop-color:#EBE8E8"/>
			<stop  offset="0.522" style="stop-color:#F0F0F0"/>
			<stop  offset="0.6652" style="stop-color:#ECE9E9"/>
			<stop  offset="0.8676" style="stop-color:#E2D7D7"/>
			<stop  offset="1" style="stop-color:#D9C7C7"/>
		</linearGradient>
		<rect x="46.268" y="72.324" fill="url(#SVGID_9_)" width="2.27" height="2.27"/>
		<linearGradient id="SVGID_10_" gradientUnits="userSpaceOnUse" x1="46.2676" y1="77.1733" x2="48.5371" y2="77.1733">
			<stop  offset="0" style="stop-color:#D9C7C7"/>
			<stop  offset="0.1038" style="stop-color:#DFD2D2"/>
			<stop  offset="0.3582" style="stop-color:#EBE8E8"/>
			<stop  offset="0.522" style="stop-color:#F0F0F0"/>
			<stop  offset="0.6652" style="stop-color:#ECE9E9"/>
			<stop  offset="0.8676" style="stop-color:#E2D7D7"/>
			<stop  offset="1" style="stop-color:#D9C7C7"/>
		</linearGradient>
		<rect x="46.268" y="76.039" fill="url(#SVGID_10_)" width="2.27" height="2.27"/>
		<linearGradient id="SVGID_11_" gradientUnits="userSpaceOnUse" x1="50.0332" y1="69.7446" x2="52.3027" y2="69.7446">
			<stop  offset="0" style="stop-color:#D9C7C7"/>
			<stop  offset="0.1038" style="stop-color:#DFD2D2"/>
			<stop  offset="0.3582" style="stop-color:#EBE8E8"/>
			<stop  offset="0.522" style="stop-color:#F0F0F0"/>
			<stop  offset="0.6652" style="stop-color:#ECE9E9"/>
			<stop  offset="0.8676" style="stop-color:#E2D7D7"/>
			<stop  offset="1" style="stop-color:#D9C7C7"/>
		</linearGradient>
		<rect x="50.033" y="68.609" fill="url(#SVGID_11_)" width="2.27" height="2.27"/>
		<linearGradient id="SVGID_12_" gradientUnits="userSpaceOnUse" x1="50.0332" y1="73.4595" x2="52.3027" y2="73.4595">
			<stop  offset="0" style="stop-color:#D9C7C7"/>
			<stop  offset="0.1038" style="stop-color:#DFD2D2"/>
			<stop  offset="0.3582" style="stop-color:#EBE8E8"/>
			<stop  offset="0.522" style="stop-color:#F0F0F0"/>
			<stop  offset="0.6652" style="stop-color:#ECE9E9"/>
			<stop  offset="0.8676" style="stop-color:#E2D7D7"/>
			<stop  offset="1" style="stop-color:#D9C7C7"/>
		</linearGradient>
		<rect x="50.033" y="72.324" fill="url(#SVGID_12_)" width="2.27" height="2.27"/>
		<linearGradient id="SVGID_13_" gradientUnits="userSpaceOnUse" x1="50.0332" y1="77.1733" x2="52.3027" y2="77.1733">
			<stop  offset="0" style="stop-color:#D9C7C7"/>
			<stop  offset="0.1038" style="stop-color:#DFD2D2"/>
			<stop  offset="0.3582" style="stop-color:#EBE8E8"/>
			<stop  offset="0.522" style="stop-color:#F0F0F0"/>
			<stop  offset="0.6652" style="stop-color:#ECE9E9"/>
			<stop  offset="0.8676" style="stop-color:#E2D7D7"/>
			<stop  offset="1" style="stop-color:#D9C7C7"/>
		</linearGradient>
		<rect x="50.033" y="76.039" fill="url(#SVGID_13_)" width="2.27" height="2.27"/>
	</g>
	<g>
		<linearGradient id="SVGID_14_" gradientUnits="userSpaceOnUse" x1="42.605" y1="81.7144" x2="44.8745" y2="81.7144">
			<stop  offset="0" style="stop-color:#D9C7C7"/>
			<stop  offset="0.1038" style="stop-color:#DFD2D2"/>
			<stop  offset="0.3582" style="stop-color:#EBE8E8"/>
			<stop  offset="0.522" style="stop-color:#F0F0F0"/>
			<stop  offset="0.6652" style="stop-color:#ECE9E9"/>
			<stop  offset="0.8676" style="stop-color:#E2D7D7"/>
			<stop  offset="1" style="stop-color:#D9C7C7"/>
		</linearGradient>
		<rect x="42.605" y="80.579" fill="url(#SVGID_14_)" width="2.27" height="2.27"/>
		<linearGradient id="SVGID_15_" gradientUnits="userSpaceOnUse" x1="46.2695" y1="81.7144" x2="48.5391" y2="81.7144">
			<stop  offset="0" style="stop-color:#D9C7C7"/>
			<stop  offset="0.1038" style="stop-color:#DFD2D2"/>
			<stop  offset="0.3582" style="stop-color:#EBE8E8"/>
			<stop  offset="0.522" style="stop-color:#F0F0F0"/>
			<stop  offset="0.6652" style="stop-color:#ECE9E9"/>
			<stop  offset="0.8676" style="stop-color:#E2D7D7"/>
			<stop  offset="1" style="stop-color:#D9C7C7"/>
		</linearGradient>
		<rect x="46.27" y="80.579" fill="url(#SVGID_15_)" width="2.27" height="2.27"/>
		<linearGradient id="SVGID_16_" gradientUnits="userSpaceOnUse" x1="50.0332" y1="81.7144" x2="52.3047" y2="81.7144">
			<stop  offset="0" style="stop-color:#D9C7C7"/>
			<stop  offset="0.1038" style="stop-color:#DFD2D2"/>
			<stop  offset="0.3582" style="stop-color:#EBE8E8"/>
			<stop  offset="0.522" style="stop-color:#F0F0F0"/>
			<stop  offset="0.6652" style="stop-color:#ECE9E9"/>
			<stop  offset="0.8676" style="stop-color:#E2D7D7"/>
			<stop  offset="1" style="stop-color:#D9C7C7"/>
		</linearGradient>
		<rect x="50.033" y="80.579" fill="url(#SVGID_16_)" width="2.271" height="2.27"/>
		<linearGradient id="SVGID_17_" gradientUnits="userSpaceOnUse" x1="42.605" y1="85.3774" x2="44.8745" y2="85.3774">
			<stop  offset="0" style="stop-color:#D9C7C7"/>
			<stop  offset="0.1038" style="stop-color:#DFD2D2"/>
			<stop  offset="0.3582" style="stop-color:#EBE8E8"/>
			<stop  offset="0.522" style="stop-color:#F0F0F0"/>
			<stop  offset="0.6652" style="stop-color:#ECE9E9"/>
			<stop  offset="0.8676" style="stop-color:#E2D7D7"/>
			<stop  offset="1" style="stop-color:#D9C7C7"/>
		</linearGradient>
		<rect x="42.605" y="84.242" fill="url(#SVGID_17_)" width="2.27" height="2.27"/>
		<linearGradient id="SVGID_18_" gradientUnits="userSpaceOnUse" x1="46.2695" y1="85.3774" x2="48.5391" y2="85.3774">
			<stop  offset="0" style="stop-color:#D9C7C7"/>
			<stop  offset="0.1038" style="stop-color:#DFD2D2"/>
			<stop  offset="0.3582" style="stop-color:#EBE8E8"/>
			<stop  offset="0.522" style="stop-color:#F0F0F0"/>
			<stop  offset="0.6652" style="stop-color:#ECE9E9"/>
			<stop  offset="0.8676" style="stop-color:#E2D7D7"/>
			<stop  offset="1" style="stop-color:#D9C7C7"/>
		</linearGradient>
		<rect x="46.27" y="84.242" fill="url(#SVGID_18_)" width="2.27" height="2.27"/>
		<linearGradient id="SVGID_19_" gradientUnits="userSpaceOnUse" x1="50.0332" y1="85.3774" x2="52.3047" y2="85.3774">
			<stop  offset="0" style="stop-color:#D9C7C7"/>
			<stop  offset="0.1038" style="stop-color:#DFD2D2"/>
			<stop  offset="0.3582" style="stop-color:#EBE8E8"/>
			<stop  offset="0.522" style="stop-color:#F0F0F0"/>
			<stop  offset="0.6652" style="stop-color:#ECE9E9"/>
			<stop  offset="0.8676" style="stop-color:#E2D7D7"/>
			<stop  offset="1" style="stop-color:#D9C7C7"/>
		</linearGradient>
		<rect x="50.033" y="84.242" fill="url(#SVGID_19_)" width="2.271" height="2.27"/>
	</g>
	<rect x="53.781" y="67.835" fill="#280000" width="11.248" height="11.196"/>
	<rect x="53.73" y="79.857" fill="#280000" width="11.299" height="7.429"/>
	<g>
		<linearGradient id="SVGID_20_" gradientUnits="userSpaceOnUse" x1="54.5566" y1="69.7446" x2="56.8262" y2="69.7446">
			<stop  offset="0" style="stop-color:#D9C7C7"/>
			<stop  offset="0.1038" style="stop-color:#DFD2D2"/>
			<stop  offset="0.3582" style="stop-color:#EBE8E8"/>
			<stop  offset="0.522" style="stop-color:#F0F0F0"/>
			<stop  offset="0.6652" style="stop-color:#ECE9E9"/>
			<stop  offset="0.8676" style="stop-color:#E2D7D7"/>
			<stop  offset="1" style="stop-color:#D9C7C7"/>
		</linearGradient>
		<rect x="54.557" y="68.609" fill="url(#SVGID_20_)" width="2.27" height="2.27"/>
		<linearGradient id="SVGID_21_" gradientUnits="userSpaceOnUse" x1="54.5566" y1="73.4595" x2="56.8262" y2="73.4595">
			<stop  offset="0" style="stop-color:#D9C7C7"/>
			<stop  offset="0.1038" style="stop-color:#DFD2D2"/>
			<stop  offset="0.3582" style="stop-color:#EBE8E8"/>
			<stop  offset="0.522" style="stop-color:#F0F0F0"/>
			<stop  offset="0.6652" style="stop-color:#ECE9E9"/>
			<stop  offset="0.8676" style="stop-color:#E2D7D7"/>
			<stop  offset="1" style="stop-color:#D9C7C7"/>
		</linearGradient>
		<rect x="54.557" y="72.324" fill="url(#SVGID_21_)" width="2.27" height="2.27"/>
		<linearGradient id="SVGID_22_" gradientUnits="userSpaceOnUse" x1="54.5566" y1="77.1733" x2="56.8262" y2="77.1733">
			<stop  offset="0" style="stop-color:#D9C7C7"/>
			<stop  offset="0.1038" style="stop-color:#DFD2D2"/>
			<stop  offset="0.3582" style="stop-color:#EBE8E8"/>
			<stop  offset="0.522" style="stop-color:#F0F0F0"/>
			<stop  offset="0.6652" style="stop-color:#ECE9E9"/>
			<stop  offset="0.8676" style="stop-color:#E2D7D7"/>
			<stop  offset="1" style="stop-color:#D9C7C7"/>
		</linearGradient>
		<rect x="54.557" y="76.039" fill="url(#SVGID_22_)" width="2.27" height="2.27"/>
		<linearGradient id="SVGID_23_" gradientUnits="userSpaceOnUse" x1="58.2695" y1="69.7446" x2="60.541" y2="69.7446">
			<stop  offset="0" style="stop-color:#D9C7C7"/>
			<stop  offset="0.1038" style="stop-color:#DFD2D2"/>
			<stop  offset="0.3582" style="stop-color:#EBE8E8"/>
			<stop  offset="0.522" style="stop-color:#F0F0F0"/>
			<stop  offset="0.6652" style="stop-color:#ECE9E9"/>
			<stop  offset="0.8676" style="stop-color:#E2D7D7"/>
			<stop  offset="1" style="stop-color:#D9C7C7"/>
		</linearGradient>
		<rect x="58.27" y="68.609" fill="url(#SVGID_23_)" width="2.271" height="2.27"/>
		<linearGradient id="SVGID_24_" gradientUnits="userSpaceOnUse" x1="58.2695" y1="73.4595" x2="60.541" y2="73.4595">
			<stop  offset="0" style="stop-color:#D9C7C7"/>
			<stop  offset="0.1038" style="stop-color:#DFD2D2"/>
			<stop  offset="0.3582" style="stop-color:#EBE8E8"/>
			<stop  offset="0.522" style="stop-color:#F0F0F0"/>
			<stop  offset="0.6652" style="stop-color:#ECE9E9"/>
			<stop  offset="0.8676" style="stop-color:#E2D7D7"/>
			<stop  offset="1" style="stop-color:#D9C7C7"/>
		</linearGradient>
		<rect x="58.27" y="72.324" fill="url(#SVGID_24_)" width="2.271" height="2.27"/>
		<linearGradient id="SVGID_25_" gradientUnits="userSpaceOnUse" x1="58.2695" y1="77.1733" x2="60.541" y2="77.1733">
			<stop  offset="0" style="stop-color:#D9C7C7"/>
			<stop  offset="0.1038" style="stop-color:#DFD2D2"/>
			<stop  offset="0.3582" style="stop-color:#EBE8E8"/>
			<stop  offset="0.522" style="stop-color:#F0F0F0"/>
			<stop  offset="0.6652" style="stop-color:#ECE9E9"/>
			<stop  offset="0.8676" style="stop-color:#E2D7D7"/>
			<stop  offset="1" style="stop-color:#D9C7C7"/>
		</linearGradient>
		<rect x="58.27" y="76.039" fill="url(#SVGID_25_)" width="2.271" height="2.27"/>
		<linearGradient id="SVGID_26_" gradientUnits="userSpaceOnUse" x1="62.0371" y1="69.7446" x2="64.3066" y2="69.7446">
			<stop  offset="0" style="stop-color:#D9C7C7"/>
			<stop  offset="0.1038" style="stop-color:#DFD2D2"/>
			<stop  offset="0.3582" style="stop-color:#EBE8E8"/>
			<stop  offset="0.522" style="stop-color:#F0F0F0"/>
			<stop  offset="0.6652" style="stop-color:#ECE9E9"/>
			<stop  offset="0.8676" style="stop-color:#E2D7D7"/>
			<stop  offset="1" style="stop-color:#D9C7C7"/>
		</linearGradient>
		<rect x="62.037" y="68.609" fill="url(#SVGID_26_)" width="2.27" height="2.27"/>
		<linearGradient id="SVGID_27_" gradientUnits="userSpaceOnUse" x1="62.0371" y1="73.4595" x2="64.3066" y2="73.4595">
			<stop  offset="0" style="stop-color:#D9C7C7"/>
			<stop  offset="0.1038" style="stop-color:#DFD2D2"/>
			<stop  offset="0.3582" style="stop-color:#EBE8E8"/>
			<stop  offset="0.522" style="stop-color:#F0F0F0"/>
			<stop  offset="0.6652" style="stop-color:#ECE9E9"/>
			<stop  offset="0.8676" style="stop-color:#E2D7D7"/>
			<stop  offset="1" style="stop-color:#D9C7C7"/>
		</linearGradient>
		<rect x="62.037" y="72.324" fill="url(#SVGID_27_)" width="2.27" height="2.27"/>
		<linearGradient id="SVGID_28_" gradientUnits="userSpaceOnUse" x1="62.0371" y1="77.1733" x2="64.3066" y2="77.1733">
			<stop  offset="0" style="stop-color:#D9C7C7"/>
			<stop  offset="0.1038" style="stop-color:#DFD2D2"/>
			<stop  offset="0.3582" style="stop-color:#EBE8E8"/>
			<stop  offset="0.522" style="stop-color:#F0F0F0"/>
			<stop  offset="0.6652" style="stop-color:#ECE9E9"/>
			<stop  offset="0.8676" style="stop-color:#E2D7D7"/>
			<stop  offset="1" style="stop-color:#D9C7C7"/>
		</linearGradient>
		<rect x="62.037" y="76.039" fill="url(#SVGID_28_)" width="2.27" height="2.27"/>
	</g>
	<g>
		<linearGradient id="SVGID_29_" gradientUnits="userSpaceOnUse" x1="54.6074" y1="81.7144" x2="56.877" y2="81.7144">
			<stop  offset="0" style="stop-color:#D9C7C7"/>
			<stop  offset="0.1038" style="stop-color:#DFD2D2"/>
			<stop  offset="0.3582" style="stop-color:#EBE8E8"/>
			<stop  offset="0.522" style="stop-color:#F0F0F0"/>
			<stop  offset="0.6652" style="stop-color:#ECE9E9"/>
			<stop  offset="0.8676" style="stop-color:#E2D7D7"/>
			<stop  offset="1" style="stop-color:#D9C7C7"/>
		</linearGradient>
		<rect x="54.607" y="80.579" fill="url(#SVGID_29_)" width="2.27" height="2.27"/>
		<linearGradient id="SVGID_30_" gradientUnits="userSpaceOnUse" x1="58.2715" y1="81.7144" x2="60.541" y2="81.7144">
			<stop  offset="0" style="stop-color:#D9C7C7"/>
			<stop  offset="0.1038" style="stop-color:#DFD2D2"/>
			<stop  offset="0.3582" style="stop-color:#EBE8E8"/>
			<stop  offset="0.522" style="stop-color:#F0F0F0"/>
			<stop  offset="0.6652" style="stop-color:#ECE9E9"/>
			<stop  offset="0.8676" style="stop-color:#E2D7D7"/>
			<stop  offset="1" style="stop-color:#D9C7C7"/>
		</linearGradient>
		<rect x="58.271" y="80.579" fill="url(#SVGID_30_)" width="2.27" height="2.27"/>
		<linearGradient id="SVGID_31_" gradientUnits="userSpaceOnUse" x1="62.0371" y1="81.7144" x2="64.3066" y2="81.7144">
			<stop  offset="0" style="stop-color:#D9C7C7"/>
			<stop  offset="0.1038" style="stop-color:#DFD2D2"/>
			<stop  offset="0.3582" style="stop-color:#EBE8E8"/>
			<stop  offset="0.522" style="stop-color:#F0F0F0"/>
			<stop  offset="0.6652" style="stop-color:#ECE9E9"/>
			<stop  offset="0.8676" style="stop-color:#E2D7D7"/>
			<stop  offset="1" style="stop-color:#D9C7C7"/>
		</linearGradient>
		<rect x="62.037" y="80.579" fill="url(#SVGID_31_)" width="2.27" height="2.27"/>
		<linearGradient id="SVGID_32_" gradientUnits="userSpaceOnUse" x1="54.6074" y1="85.3774" x2="56.877" y2="85.3774">
			<stop  offset="0" style="stop-color:#D9C7C7"/>
			<stop  offset="0.1038" style="stop-color:#DFD2D2"/>
			<stop  offset="0.3582" style="stop-color:#EBE8E8"/>
			<stop  offset="0.522" style="stop-color:#F0F0F0"/>
			<stop  offset="0.6652" style="stop-color:#ECE9E9"/>
			<stop  offset="0.8676" style="stop-color:#E2D7D7"/>
			<stop  offset="1" style="stop-color:#D9C7C7"/>
		</linearGradient>
		<rect x="54.607" y="84.242" fill="url(#SVGID_32_)" width="2.27" height="2.27"/>
		<linearGradient id="SVGID_33_" gradientUnits="userSpaceOnUse" x1="58.2715" y1="85.3774" x2="60.541" y2="85.3774">
			<stop  offset="0" style="stop-color:#D9C7C7"/>
			<stop  offset="0.1038" style="stop-color:#DFD2D2"/>
			<stop  offset="0.3582" style="stop-color:#EBE8E8"/>
			<stop  offset="0.522" style="stop-color:#F0F0F0"/>
			<stop  offset="0.6652" style="stop-color:#ECE9E9"/>
			<stop  offset="0.8676" style="stop-color:#E2D7D7"/>
			<stop  offset="1" style="stop-color:#D9C7C7"/>
		</linearGradient>
		<rect x="58.271" y="84.242" fill="url(#SVGID_33_)" width="2.27" height="2.27"/>
		<linearGradient id="SVGID_34_" gradientUnits="userSpaceOnUse" x1="62.0371" y1="85.3774" x2="64.3066" y2="85.3774">
			<stop  offset="0" style="stop-color:#D9C7C7"/>
			<stop  offset="0.1038" style="stop-color:#DFD2D2"/>
			<stop  offset="0.3582" style="stop-color:#EBE8E8"/>
			<stop  offset="0.522" style="stop-color:#F0F0F0"/>
			<stop  offset="0.6652" style="stop-color:#ECE9E9"/>
			<stop  offset="0.8676" style="stop-color:#E2D7D7"/>
			<stop  offset="1" style="stop-color:#D9C7C7"/>
		</linearGradient>
		<rect x="62.037" y="84.242" fill="url(#SVGID_34_)" width="2.27" height="2.27"/>
	</g>
	<g>
		<rect x="22.742" y="68.182" width="4.097" height="4.345"/>
		<rect x="31.184" y="75.631" width="3.973" height="4.966"/>
		<rect x="14.92" y="68.182" width="4.47" height="4.469"/>
		<rect x="14.92" y="76.003" width="4.47" height="4.718"/>
		<rect x="14.92" y="83.949" width="4.47" height="3.973"/>
		<rect x="23.114" y="83.949" width="3.601" height="4.097"/>
		<rect x="23.238" y="75.631" width="3.6" height="4.966"/>
		<rect x="31.184" y="68.182" width="4.221" height="4.345"/>
		<rect x="31.06" y="83.949" width="4.345" height="4.345"/>
	</g>
	<g>
		<rect x="72.506" y="68.18" width="4.096" height="4.346"/>
		<rect x="72.506" y="76.001" width="4.096" height="4.346"/>
		<rect x="80.195" y="68.304" width="4.096" height="4.221"/>
		<rect x="87.689" y="68.304" width="4.594" height="4.097"/>
		<rect x="87.689" y="83.947" width="4.344" height="4.097"/>
		<rect x="80.443" y="83.947" width="3.725" height="4.097"/>
		<rect x="87.689" y="75.877" width="4.344" height="4.842"/>
		<rect x="80.443" y="76.001" width="3.848" height="4.47"/>
		<rect x="72.506" y="84.071" width="3.973" height="3.849"/>
	</g>
	<rect x="22.302" y="67.907" fill="#7A4A29" width="4.097" height="4.345"/>
	<rect x="30.744" y="75.356" fill="#7A4A29" width="3.973" height="4.966"/>
	<rect x="14.48" y="67.907" fill="#7F7F7F" width="4.47" height="4.469"/>
	<rect x="14.48" y="75.729" fill="#7F7F7F" width="4.47" height="4.718"/>
	<rect x="14.48" y="83.674" fill="#7F7F7F" width="4.47" height="3.973"/>
	<rect x="22.674" y="83.674" fill="#7F7F7F" width="3.601" height="4.097"/>
	<rect x="22.799" y="75.356" fill="#7F7F7F" width="3.6" height="4.966"/>
	<rect x="30.744" y="67.907" fill="#7F7F7F" width="4.221" height="4.345"/>
	<rect x="30.62" y="83.674" fill="#7F7F7F" width="4.345" height="4.345"/>
	<g>
		<rect x="72.832" y="67.907" fill="#7F7F7F" width="4.096" height="4.346"/>
		<rect x="72.832" y="75.729" fill="#7F7F7F" width="4.096" height="4.346"/>
		<rect x="80.521" y="68.031" fill="#7F7F7F" width="4.096" height="4.221"/>
		<rect x="88.016" y="68.031" fill="#7F7F7F" width="4.594" height="4.097"/>
		<rect x="88.016" y="83.674" fill="#7F7F7F" width="4.344" height="4.097"/>
		<rect x="80.77" y="83.674" fill="#7F7F7F" width="3.725" height="4.097"/>
		<rect x="88.016" y="75.604" fill="#7A4A29" width="4.344" height="4.842"/>
		<rect x="80.77" y="75.729" fill="#7A4A29" width="3.848" height="4.47"/>
		<rect x="72.832" y="83.798" fill="#7A4A29" width="3.973" height="3.849"/>
	</g>
</g>
</svg>
