<?xml version="1.0" encoding="utf-8"?>
<!-- Generator: Adobe Illustrator 15.0.0, SVG Export Plug-In . SVG Version: 6.00 Build 0)  -->
<!DOCTYPE svg PUBLIC "-//W3C//DTD SVG 1.1 Tiny//EN" "http://www.w3.org/Graphics/SVG/1.1/DTD/svg11-tiny.dtd">
<svg version="1.1" baseProfile="tiny" id="_x30_1_x7E_07"
	 xmlns="http://www.w3.org/2000/svg" xmlns:xlink="http://www.w3.org/1999/xlink" x="0px" y="0px" width="57.354px"
	 height="91.328px" viewBox="0 0 57.354 91.328" xml:space="preserve">
<g>
	<polygon fill="#D9DEE0" points="56.854,2.344 45.93,7.842 45.93,10.44 0,10.44 0,7.487 14.027,0 57.166,0 	"/>
	<polygon fill="#727F72" points="57.219,83.741 45.982,91.124 41.922,91.124 41.912,8.082 45.982,7.513 57.219,0.13 	"/>
	<rect y="7.487" fill="#B8C7C2" width="45.93" height="83.832"/>
	<polyline fill="none" stroke="#B1BAB1" stroke-width="0.25" points="45.951,85.285 45.951,91.098 57.229,83.785 57.229,14.001 	"/>
	<g>
		<rect x="3.896" y="11.2" fill="#C8C8C8" width="11.018" height="7.526"/>
		<polygon fill="#9B9B9B" points="15.131,12.028 3.824,14.081 3.859,11.272 15.166,11.272 		"/>
		<polygon fill="#FFFFFF" points="3.609,18.473 14.412,18.473 14.447,11.667 15.168,11.667 15.168,19.193 3.609,19.193 		"/>
		<polygon points="15.166,11.669 4.363,11.668 4.328,18.474 3.607,18.474 3.607,10.948 15.166,10.948 		"/>
	</g>
	<g>
		<rect x="17.533" y="11.2" fill="#C8C8C8" width="11.02" height="7.526"/>
		<polygon fill="#9B9B9B" points="28.768,12.028 17.461,14.081 17.498,11.272 28.805,11.272 		"/>
		<polygon fill="#FFFFFF" points="17.246,18.473 28.049,18.473 28.086,11.667 28.807,11.667 28.807,19.193 17.246,19.193 		"/>
		<polygon points="28.805,11.669 18.002,11.668 17.965,18.474 17.244,18.474 17.244,10.948 28.805,10.948 		"/>
	</g>
	<g>
		<rect x="30.85" y="11.2" fill="#C8C8C8" width="11.02" height="7.526"/>
		<polygon fill="#9B9B9B" points="42.084,12.028 30.777,14.081 30.814,11.272 42.121,11.272 		"/>
		<polygon fill="#FFFFFF" points="30.563,18.473 41.365,18.473 41.402,11.667 42.123,11.667 42.123,19.193 30.563,19.193 		"/>
		<polygon points="42.121,11.669 31.318,11.668 31.281,18.474 30.561,18.474 30.561,10.948 42.121,10.948 		"/>
	</g>
	<g>
		<polygon fill="#C8C8C8" points="49.414,17.034 47.395,18.583 47.395,11.058 49.414,9.508 		"/>
		<polygon fill="#9B9B9B" points="49.629,10.336 47.322,13.938 47.359,11.13 49.666,9.58 		"/>
		<polygon fill="#FFFFFF" points="47.107,18.33 49.045,17.102 49.08,9.859 49.668,9.975 49.668,17.501 47.107,19.051 		"/>
		<polygon points="49.666,9.977 47.863,11.15 47.826,17.875 47.105,18.332 47.105,10.806 49.666,9.256 		"/>
	</g>
	<g>
		<polygon fill="#C8C8C8" points="52.768,15.056 50.748,16.606 50.748,9.08 52.768,7.53 		"/>
		<polygon fill="#9B9B9B" points="52.982,8.358 50.676,11.961 50.713,9.152 53.02,7.603 		"/>
		<polygon fill="#FFFFFF" points="50.461,16.353 52.398,15.125 52.434,7.881 53.021,7.998 53.021,15.523 50.461,17.073 		"/>
		<polygon points="53.02,7.999 51.217,9.172 51.18,15.897 50.459,16.354 50.459,8.828 53.02,7.278 		"/>
	</g>
	<g>
		<polygon fill="#C8C8C8" points="55.973,13.228 53.953,14.778 53.953,7.252 55.973,5.702 		"/>
		<polygon fill="#9B9B9B" points="56.188,6.53 53.881,10.133 53.918,7.324 56.225,5.774 		"/>
		<polygon fill="#FFFFFF" points="53.666,14.524 55.604,13.296 55.639,6.053 56.227,6.169 56.227,13.695 53.666,15.245 		"/>
		<polygon points="56.225,6.171 54.422,7.344 54.385,14.069 53.664,14.526 53.664,7 56.225,5.45 		"/>
	</g>
	<g>
		<polygon fill="#C8C8C8" points="49.414,26.367 47.395,27.917 47.395,20.391 49.414,18.841 		"/>
		<polygon fill="#9B9B9B" points="49.629,19.669 47.322,23.272 47.359,20.463 49.666,18.914 		"/>
		<polygon fill="#FFFFFF" points="47.107,27.664 49.045,26.436 49.08,19.192 49.668,19.309 49.668,26.834 47.107,28.384 		"/>
		<polygon points="49.666,19.31 47.863,20.483 47.826,27.208 47.105,27.665 47.105,20.139 49.666,18.589 		"/>
	</g>
	<g>
		<polygon fill="#C8C8C8" points="52.768,24.39 50.748,25.939 50.748,18.414 52.768,16.864 		"/>
		<polygon fill="#9B9B9B" points="52.982,17.692 50.676,21.294 50.713,18.486 53.02,16.936 		"/>
		<polygon fill="#FFFFFF" points="50.461,25.686 52.398,24.458 52.434,17.215 53.021,17.331 53.021,24.857 50.461,26.407 		"/>
		<polygon points="53.02,17.333 51.217,18.506 51.18,25.231 50.459,25.688 50.459,18.162 53.02,16.612 		"/>
	</g>
	<g>
		<polygon fill="#C8C8C8" points="55.973,22.562 53.953,24.111 53.953,16.585 55.973,15.036 		"/>
		<polygon fill="#9B9B9B" points="56.188,15.864 53.881,19.466 53.918,16.658 56.225,15.108 		"/>
		<polygon fill="#FFFFFF" points="53.666,23.858 55.604,22.63 55.639,15.387 56.227,15.503 56.227,23.029 53.666,24.579 		"/>
		<polygon points="56.225,15.504 54.422,16.678 54.385,23.403 53.664,23.859 53.664,16.333 56.225,14.784 		"/>
	</g>
	<g>
		<polygon fill="#C8C8C8" points="49.414,35.784 47.395,37.333 47.395,29.808 49.414,28.258 		"/>
		<polygon fill="#9B9B9B" points="49.629,29.086 47.322,32.688 47.359,29.88 49.666,28.33 		"/>
		<polygon fill="#FFFFFF" points="47.107,37.08 49.045,35.852 49.08,28.609 49.668,28.725 49.668,36.251 47.107,37.801 		"/>
		<polygon points="49.666,28.727 47.863,29.9 47.826,36.625 47.105,37.082 47.105,29.556 49.666,28.006 		"/>
	</g>
	<g>
		<polygon fill="#C8C8C8" points="52.768,33.806 50.748,35.356 50.748,27.83 52.768,26.28 		"/>
		<polygon fill="#9B9B9B" points="52.982,27.108 50.676,30.711 50.713,27.902 53.02,26.353 		"/>
		<polygon fill="#FFFFFF" points="50.461,35.103 52.398,33.875 52.434,26.631 53.021,26.748 53.021,34.273 50.461,35.823 		"/>
		<polygon points="53.02,26.749 51.217,27.922 51.18,34.647 50.459,35.104 50.459,27.578 53.02,26.028 		"/>
	</g>
	<g>
		<polygon fill="#C8C8C8" points="55.973,31.978 53.953,33.528 53.953,26.002 55.973,24.452 		"/>
		<polygon fill="#9B9B9B" points="56.188,25.28 53.881,28.883 53.918,26.074 56.225,24.524 		"/>
		<polygon fill="#FFFFFF" points="53.666,33.274 55.604,32.046 55.639,24.803 56.227,24.919 56.227,32.445 53.666,33.995 		"/>
		<polygon points="56.225,24.921 54.422,26.094 54.385,32.819 53.664,33.276 53.664,25.75 56.225,24.2 		"/>
	</g>
	<g>
		<polygon fill="#C8C8C8" points="49.414,45.617 47.395,47.167 47.395,39.641 49.414,38.091 		"/>
		<polygon fill="#9B9B9B" points="49.629,38.919 47.322,42.522 47.359,39.713 49.666,38.164 		"/>
		<polygon fill="#FFFFFF" points="47.107,46.914 49.045,45.686 49.08,38.442 49.668,38.559 49.668,46.084 47.107,47.634 		"/>
		<polygon points="49.666,38.56 47.863,39.733 47.826,46.458 47.105,46.915 47.105,39.389 49.666,37.839 		"/>
	</g>
	<g>
		<polygon fill="#C8C8C8" points="52.768,43.64 50.748,45.189 50.748,37.664 52.768,36.114 		"/>
		<polygon fill="#9B9B9B" points="52.982,36.942 50.676,40.544 50.713,37.736 53.02,36.186 		"/>
		<polygon fill="#FFFFFF" points="50.461,44.936 52.398,43.708 52.434,36.465 53.021,36.581 53.021,44.107 50.461,45.657 		"/>
		<polygon points="53.02,36.583 51.217,37.756 51.18,44.481 50.459,44.938 50.459,37.412 53.02,35.862 		"/>
	</g>
	<g>
		<polygon fill="#C8C8C8" points="55.973,41.812 53.953,43.361 53.953,35.835 55.973,34.286 		"/>
		<polygon fill="#9B9B9B" points="56.188,35.114 53.881,38.716 53.918,35.908 56.225,34.358 		"/>
		<polygon fill="#FFFFFF" points="53.666,43.108 55.604,41.88 55.639,34.637 56.227,34.753 56.227,42.279 53.666,43.829 		"/>
		<polygon points="56.225,34.754 54.422,35.928 54.385,42.653 53.664,43.109 53.664,35.583 56.225,34.034 		"/>
	</g>
	<g>
		<polygon fill="#C8C8C8" points="49.414,55.034 47.395,56.583 47.395,49.058 49.414,47.508 		"/>
		<polygon fill="#9B9B9B" points="49.629,48.336 47.322,51.938 47.359,49.13 49.666,47.58 		"/>
		<polygon fill="#FFFFFF" points="47.107,56.33 49.045,55.102 49.08,47.859 49.668,47.975 49.668,55.501 47.107,57.051 		"/>
		<polygon points="49.666,47.977 47.863,49.15 47.826,55.875 47.105,56.332 47.105,48.806 49.666,47.256 		"/>
	</g>
	<g>
		<polygon fill="#C8C8C8" points="52.768,53.056 50.748,54.606 50.748,47.08 52.768,45.53 		"/>
		<polygon fill="#9B9B9B" points="52.982,46.358 50.676,49.961 50.713,47.152 53.02,45.603 		"/>
		<polygon fill="#FFFFFF" points="50.461,54.353 52.398,53.125 52.434,45.881 53.021,45.998 53.021,53.523 50.461,55.073 		"/>
		<polygon points="53.02,45.999 51.217,47.172 51.18,53.897 50.459,54.354 50.459,46.828 53.02,45.278 		"/>
	</g>
	<g>
		<polygon fill="#C8C8C8" points="55.973,51.228 53.953,52.778 53.953,45.252 55.973,43.702 		"/>
		<polygon fill="#9B9B9B" points="56.188,44.53 53.881,48.133 53.918,45.324 56.225,43.774 		"/>
		<polygon fill="#FFFFFF" points="53.666,52.524 55.604,51.296 55.639,44.053 56.227,44.169 56.227,51.695 53.666,53.245 		"/>
		<polygon points="56.225,44.171 54.422,45.344 54.385,52.069 53.664,52.526 53.664,45 56.225,43.45 		"/>
	</g>
	<g>
		<polygon fill="#C8C8C8" points="49.414,64.534 47.395,66.083 47.395,58.558 49.414,57.008 		"/>
		<polygon fill="#9B9B9B" points="49.629,57.836 47.322,61.438 47.359,58.63 49.666,57.08 		"/>
		<polygon fill="#FFFFFF" points="47.107,65.83 49.045,64.602 49.08,57.359 49.668,57.475 49.668,65.001 47.107,66.551 		"/>
		<polygon points="49.666,57.477 47.863,58.65 47.826,65.375 47.105,65.832 47.105,58.306 49.666,56.756 		"/>
	</g>
	<g>
		<polygon fill="#C8C8C8" points="52.768,62.556 50.748,64.106 50.748,56.58 52.768,55.03 		"/>
		<polygon fill="#9B9B9B" points="52.982,55.858 50.676,59.461 50.713,56.652 53.02,55.103 		"/>
		<polygon fill="#FFFFFF" points="50.461,63.853 52.398,62.625 52.434,55.381 53.021,55.498 53.021,63.023 50.461,64.573 		"/>
		<polygon points="53.02,55.499 51.217,56.672 51.18,63.397 50.459,63.854 50.459,56.328 53.02,54.778 		"/>
	</g>
	<g>
		<polygon fill="#C8C8C8" points="55.973,60.728 53.953,62.278 53.953,54.752 55.973,53.202 		"/>
		<polygon fill="#9B9B9B" points="56.188,54.03 53.881,57.633 53.918,54.824 56.225,53.274 		"/>
		<polygon fill="#FFFFFF" points="53.666,62.024 55.604,60.796 55.639,53.553 56.227,53.669 56.227,61.195 53.666,62.745 		"/>
		<polygon points="56.225,53.671 54.422,54.844 54.385,61.569 53.664,62.026 53.664,54.5 56.225,52.95 		"/>
	</g>
	<g>
		<polygon fill="#C8C8C8" points="49.414,74.367 47.395,75.917 47.395,68.391 49.414,66.841 		"/>
		<polygon fill="#9B9B9B" points="49.629,67.669 47.322,71.272 47.359,68.463 49.666,66.914 		"/>
		<polygon fill="#FFFFFF" points="47.107,75.664 49.045,74.436 49.08,67.192 49.668,67.309 49.668,74.834 47.107,76.384 		"/>
		<polygon points="49.666,67.31 47.863,68.483 47.826,75.208 47.105,75.665 47.105,68.139 49.666,66.589 		"/>
	</g>
	<g>
		<polygon fill="#C8C8C8" points="52.768,72.39 50.748,73.939 50.748,66.414 52.768,64.864 		"/>
		<polygon fill="#9B9B9B" points="52.982,65.692 50.676,69.294 50.713,66.486 53.02,64.936 		"/>
		<polygon fill="#FFFFFF" points="50.461,73.686 52.398,72.458 52.434,65.215 53.021,65.331 53.021,72.857 50.461,74.407 		"/>
		<polygon points="53.02,65.333 51.217,66.506 51.18,73.231 50.459,73.688 50.459,66.162 53.02,64.612 		"/>
	</g>
	<g>
		<polygon fill="#C8C8C8" points="55.973,70.562 53.953,72.111 53.953,64.585 55.973,63.036 		"/>
		<polygon fill="#9B9B9B" points="56.188,63.864 53.881,67.466 53.918,64.658 56.225,63.108 		"/>
		<polygon fill="#FFFFFF" points="53.666,71.858 55.604,70.63 55.639,63.387 56.227,63.503 56.227,71.029 53.666,72.579 		"/>
		<polygon points="56.225,63.504 54.422,64.678 54.385,71.403 53.664,71.859 53.664,64.333 56.225,62.784 		"/>
	</g>
	<g>
		<polygon fill="#C8C8C8" points="49.414,83.784 47.395,85.333 47.395,77.808 49.414,76.258 		"/>
		<polygon fill="#9B9B9B" points="49.629,77.086 47.322,80.688 47.359,77.88 49.666,76.33 		"/>
		<polygon fill="#FFFFFF" points="47.107,85.08 49.045,83.852 49.08,76.609 49.668,76.725 49.668,84.251 47.107,85.801 		"/>
		<polygon points="49.666,76.727 47.863,77.9 47.826,84.625 47.105,85.082 47.105,77.556 49.666,76.006 		"/>
	</g>
	<g>
		<polygon fill="#C8C8C8" points="52.768,81.806 50.748,83.356 50.748,75.83 52.768,74.28 		"/>
		<polygon fill="#9B9B9B" points="52.982,75.108 50.676,78.711 50.713,75.902 53.02,74.353 		"/>
		<polygon fill="#FFFFFF" points="50.461,83.103 52.398,81.875 52.434,74.631 53.021,74.748 53.021,82.273 50.461,83.823 		"/>
		<polygon points="53.02,74.749 51.217,75.922 51.18,82.647 50.459,83.104 50.459,75.578 53.02,74.028 		"/>
	</g>
	<g>
		<polygon fill="#C8C8C8" points="55.973,79.978 53.953,81.528 53.953,74.002 55.973,72.452 		"/>
		<polygon fill="#9B9B9B" points="56.188,73.28 53.881,76.883 53.918,74.074 56.225,72.524 		"/>
		<polygon fill="#FFFFFF" points="53.666,81.274 55.604,80.046 55.639,72.803 56.227,72.919 56.227,80.445 53.666,81.995 		"/>
		<polygon points="56.225,72.921 54.422,74.094 54.385,80.819 53.664,81.276 53.664,73.75 56.225,72.2 		"/>
	</g>
	<g>
		<rect x="3.896" y="20.623" fill="#C8C8C8" width="11.018" height="7.526"/>
		<polygon fill="#9B9B9B" points="15.131,21.451 3.824,23.504 3.859,20.695 15.166,20.695 		"/>
		<polygon fill="#FFFFFF" points="3.609,27.896 14.412,27.896 14.447,21.09 15.168,21.09 15.168,28.616 3.609,28.616 		"/>
		<polygon points="15.166,21.092 4.363,21.091 4.328,27.897 3.607,27.897 3.607,20.371 15.166,20.371 		"/>
	</g>
	<g>
		<rect x="17.533" y="20.623" fill="#C8C8C8" width="11.02" height="7.526"/>
		<polygon fill="#9B9B9B" points="28.768,21.451 17.461,23.504 17.498,20.695 28.805,20.695 		"/>
		<polygon fill="#FFFFFF" points="17.246,27.896 28.049,27.896 28.086,21.09 28.807,21.09 28.807,28.616 17.246,28.616 		"/>
		<polygon points="28.805,21.092 18.002,21.091 17.965,27.897 17.244,27.897 17.244,20.371 28.805,20.371 		"/>
	</g>
	<g>
		<rect x="30.85" y="20.623" fill="#C8C8C8" width="11.02" height="7.526"/>
		<polygon fill="#9B9B9B" points="42.084,21.451 30.777,23.504 30.814,20.695 42.121,20.695 		"/>
		<polygon fill="#FFFFFF" points="30.563,27.896 41.365,27.896 41.402,21.09 42.123,21.09 42.123,28.616 30.563,28.616 		"/>
		<polygon points="42.121,21.092 31.318,21.091 31.281,27.897 30.561,27.897 30.561,20.371 42.121,20.371 		"/>
	</g>
	<g>
		<rect x="3.896" y="29.858" fill="#C8C8C8" width="11.018" height="7.526"/>
		<polygon fill="#9B9B9B" points="15.131,30.687 3.824,32.739 3.859,29.931 15.166,29.931 		"/>
		<polygon fill="#FFFFFF" points="3.609,37.131 14.412,37.131 14.447,30.326 15.168,30.326 15.168,37.852 3.609,37.852 		"/>
		<polygon points="15.166,30.327 4.363,30.327 4.328,37.132 3.607,37.132 3.607,29.606 15.166,29.606 		"/>
	</g>
	<g>
		<rect x="17.533" y="29.858" fill="#C8C8C8" width="11.02" height="7.526"/>
		<polygon fill="#9B9B9B" points="28.768,30.687 17.461,32.739 17.498,29.931 28.805,29.931 		"/>
		<polygon fill="#FFFFFF" points="17.246,37.131 28.049,37.131 28.086,30.326 28.807,30.326 28.807,37.852 17.246,37.852 		"/>
		<polygon points="28.805,30.327 18.002,30.327 17.965,37.132 17.244,37.132 17.244,29.606 28.805,29.606 		"/>
	</g>
	<g>
		<rect x="30.85" y="29.858" fill="#C8C8C8" width="11.02" height="7.526"/>
		<polygon fill="#9B9B9B" points="42.084,30.687 30.777,32.739 30.814,29.931 42.121,29.931 		"/>
		<polygon fill="#FFFFFF" points="30.563,37.131 41.365,37.131 41.402,30.326 42.123,30.326 42.123,37.852 30.563,37.852 		"/>
		<polygon points="42.121,30.327 31.318,30.327 31.281,37.132 30.561,37.132 30.561,29.606 42.121,29.606 		"/>
	</g>
	<g>
		<rect x="3.896" y="39.631" fill="#C8C8C8" width="11.018" height="7.526"/>
		<polygon fill="#9B9B9B" points="15.131,40.459 3.824,42.512 3.859,39.703 15.166,39.703 		"/>
		<polygon fill="#FFFFFF" points="3.609,46.903 14.412,46.904 14.447,40.098 15.168,40.098 15.168,47.624 3.609,47.624 		"/>
		<polygon points="15.166,40.1 4.363,40.099 4.328,46.905 3.607,46.905 3.607,39.379 15.166,39.379 		"/>
	</g>
	<g>
		<rect x="17.533" y="39.631" fill="#C8C8C8" width="11.02" height="7.526"/>
		<polygon fill="#9B9B9B" points="28.768,40.459 17.461,42.512 17.498,39.703 28.805,39.703 		"/>
		<polygon fill="#FFFFFF" points="17.246,46.903 28.049,46.904 28.086,40.098 28.807,40.098 28.807,47.624 17.246,47.624 		"/>
		<polygon points="28.805,40.1 18.002,40.099 17.965,46.905 17.244,46.905 17.244,39.379 28.805,39.379 		"/>
	</g>
	<g>
		<rect x="30.85" y="39.631" fill="#C8C8C8" width="11.02" height="7.526"/>
		<polygon fill="#9B9B9B" points="42.084,40.459 30.777,42.512 30.814,39.703 42.121,39.703 		"/>
		<polygon fill="#FFFFFF" points="30.563,46.903 41.365,46.904 41.402,40.098 42.123,40.098 42.123,47.624 30.563,47.624 		"/>
		<polygon points="42.121,40.1 31.318,40.099 31.281,46.905 30.561,46.905 30.561,39.379 42.121,39.379 		"/>
	</g>
	<g>
		<rect x="3.896" y="49.296" fill="#C8C8C8" width="11.018" height="7.526"/>
		<polygon fill="#9B9B9B" points="15.131,50.124 3.824,52.177 3.859,49.368 15.166,49.368 		"/>
		<polygon fill="#FFFFFF" points="3.609,56.568 14.412,56.569 14.447,49.763 15.168,49.763 15.168,57.289 3.609,57.289 		"/>
		<polygon points="15.166,49.765 4.363,49.764 4.328,56.57 3.607,56.57 3.607,49.044 15.166,49.044 		"/>
	</g>
	<g>
		<rect x="17.533" y="49.296" fill="#C8C8C8" width="11.02" height="7.526"/>
		<polygon fill="#9B9B9B" points="28.768,50.124 17.461,52.177 17.498,49.368 28.805,49.368 		"/>
		<polygon fill="#FFFFFF" points="17.246,56.568 28.049,56.569 28.086,49.763 28.807,49.763 28.807,57.289 17.246,57.289 		"/>
		<polygon points="28.805,49.765 18.002,49.764 17.965,56.57 17.244,56.57 17.244,49.044 28.805,49.044 		"/>
	</g>
	<g>
		<rect x="30.85" y="49.296" fill="#C8C8C8" width="11.02" height="7.526"/>
		<polygon fill="#9B9B9B" points="42.084,50.124 30.777,52.177 30.814,49.368 42.121,49.368 		"/>
		<polygon fill="#FFFFFF" points="30.563,56.568 41.365,56.569 41.402,49.763 42.123,49.763 42.123,57.289 30.563,57.289 		"/>
		<polygon points="42.121,49.765 31.318,49.764 31.281,56.57 30.561,56.57 30.561,49.044 42.121,49.044 		"/>
	</g>
	<g>
		<rect x="3.896" y="58.424" fill="#C8C8C8" width="11.018" height="7.526"/>
		<polygon fill="#9B9B9B" points="15.131,59.252 3.824,61.305 3.859,58.496 15.166,58.496 		"/>
		<polygon fill="#FFFFFF" points="3.609,65.696 14.412,65.697 14.447,58.891 15.168,58.891 15.168,66.417 3.609,66.417 		"/>
		<polygon points="15.166,58.893 4.363,58.892 4.328,65.698 3.607,65.698 3.607,58.172 15.166,58.172 		"/>
	</g>
	<g>
		<rect x="17.533" y="58.424" fill="#C8C8C8" width="11.02" height="7.526"/>
		<polygon fill="#9B9B9B" points="28.768,59.252 17.461,61.305 17.498,58.496 28.805,58.496 		"/>
		<polygon fill="#FFFFFF" points="17.246,65.696 28.049,65.697 28.086,58.891 28.807,58.891 28.807,66.417 17.246,66.417 		"/>
		<polygon points="28.805,58.893 18.002,58.892 17.965,65.698 17.244,65.698 17.244,58.172 28.805,58.172 		"/>
	</g>
	<g>
		<rect x="30.85" y="58.424" fill="#C8C8C8" width="11.02" height="7.526"/>
		<polygon fill="#9B9B9B" points="42.084,59.252 30.777,61.305 30.814,58.496 42.121,58.496 		"/>
		<polygon fill="#FFFFFF" points="30.563,65.696 41.365,65.697 41.402,58.891 42.123,58.891 42.123,66.417 30.563,66.417 		"/>
		<polygon points="42.121,58.893 31.318,58.892 31.281,65.698 30.561,65.698 30.561,58.172 42.121,58.172 		"/>
	</g>
	<g>
		<rect x="3.896" y="67.981" fill="#C8C8C8" width="11.018" height="7.526"/>
		<polygon fill="#9B9B9B" points="15.131,68.81 3.824,70.862 3.859,68.054 15.166,68.054 		"/>
		<polygon fill="#FFFFFF" points="3.609,75.254 14.412,75.254 14.447,68.449 15.168,68.449 15.168,75.975 3.609,75.975 		"/>
		<polygon points="15.166,68.45 4.363,68.45 4.328,75.255 3.607,75.255 3.607,67.729 15.166,67.729 		"/>
	</g>
	<g>
		<rect x="17.533" y="67.981" fill="#C8C8C8" width="11.02" height="7.526"/>
		<polygon fill="#9B9B9B" points="28.768,68.81 17.461,70.862 17.498,68.054 28.805,68.054 		"/>
		<polygon fill="#FFFFFF" points="17.246,75.254 28.049,75.254 28.086,68.449 28.807,68.449 28.807,75.975 17.246,75.975 		"/>
		<polygon points="28.805,68.45 18.002,68.45 17.965,75.255 17.244,75.255 17.244,67.729 28.805,67.729 		"/>
	</g>
	<g>
		<rect x="30.85" y="67.981" fill="#C8C8C8" width="11.02" height="7.526"/>
		<polygon fill="#9B9B9B" points="42.084,68.81 30.777,70.862 30.814,68.054 42.121,68.054 		"/>
		<polygon fill="#FFFFFF" points="30.563,75.254 41.365,75.254 41.402,68.449 42.123,68.449 42.123,75.975 30.563,75.975 		"/>
		<polygon points="42.121,68.45 31.318,68.45 31.281,75.255 30.561,75.255 30.561,67.729 42.121,67.729 		"/>
	</g>
	<g>
		<rect x="3.896" y="77.646" fill="#C8C8C8" width="11.018" height="7.526"/>
		<polygon fill="#9B9B9B" points="15.131,78.474 3.824,80.527 3.859,77.718 15.166,77.718 		"/>
		<polygon fill="#FFFFFF" points="3.609,84.918 14.412,84.919 14.447,78.113 15.168,78.113 15.168,85.639 3.609,85.639 		"/>
		<polygon points="15.166,78.115 4.363,78.114 4.328,84.92 3.607,84.92 3.607,77.394 15.166,77.394 		"/>
	</g>
	<g>
		<rect x="17.533" y="77.646" fill="#C8C8C8" width="11.02" height="7.526"/>
		<polygon fill="#9B9B9B" points="28.768,78.474 17.461,80.527 17.498,77.718 28.805,77.718 		"/>
		<polygon fill="#FFFFFF" points="17.246,84.918 28.049,84.919 28.086,78.113 28.807,78.113 28.807,85.639 17.246,85.639 		"/>
		<polygon points="28.805,78.115 18.002,78.114 17.965,84.92 17.244,84.92 17.244,77.394 28.805,77.394 		"/>
	</g>
	<g>
		<rect x="30.85" y="77.646" fill="#C8C8C8" width="11.02" height="7.526"/>
		<polygon fill="#9B9B9B" points="42.084,78.474 30.777,80.527 30.814,77.718 42.121,77.718 		"/>
		<polygon fill="#FFFFFF" points="30.563,84.918 41.365,84.919 41.402,78.113 42.123,78.113 42.123,85.639 30.563,85.639 		"/>
		<polygon points="42.121,78.115 31.318,78.114 31.281,84.92 30.561,84.92 30.561,77.394 42.121,77.394 		"/>
	</g>
</g>
</svg>
