<?xml version="1.0" encoding="utf-8"?>
<!-- Generator: Adobe Illustrator 15.0.0, SVG Export Plug-In . SVG Version: 6.00 Build 0)  -->
<!DOCTYPE svg PUBLIC "-//W3C//DTD SVG 1.1 Tiny//EN" "http://www.w3.org/Graphics/SVG/1.1/DTD/svg11-tiny.dtd">
<svg version="1.1" baseProfile="tiny" id="_x34_3_x7E_45"
	 xmlns="http://www.w3.org/2000/svg" xmlns:xlink="http://www.w3.org/1999/xlink" x="0px" y="0px" width="98.675px"
	 height="91.469px" viewBox="0 0 98.675 91.469" xml:space="preserve">
<g>
	<linearGradient id="SVGID_1_" gradientUnits="userSpaceOnUse" x1="43.4229" y1="10.1895" x2="77.6729" y2="59.4394">
		<stop  offset="0" style="stop-color:#5C7361"/>
		<stop  offset="0.063" style="stop-color:#697F6E"/>
		<stop  offset="0.2593" style="stop-color:#8B9F92"/>
		<stop  offset="0.4193" style="stop-color:#A0B3A8"/>
		<stop  offset="0.522" style="stop-color:#A8BAB0"/>
		<stop  offset="0.6148" style="stop-color:#A2B4A9"/>
		<stop  offset="0.7464" style="stop-color:#90A397"/>
		<stop  offset="0.9003" style="stop-color:#738879"/>
		<stop  offset="1" style="stop-color:#5C7361"/>
	</linearGradient>
	<polygon fill="url(#SVGID_1_)" points="95.293,19.117 91.322,23.087 7.794,23.087 3.971,19.117 49.705,2.939 	"/>
	<linearGradient id="SVGID_2_" gradientUnits="userSpaceOnUse" x1="26.4307" y1="33.9375" x2="98.6807" y2="100.4374">
		<stop  offset="0" style="stop-color:#5C7361"/>
		<stop  offset="0.063" style="stop-color:#697F6E"/>
		<stop  offset="0.2593" style="stop-color:#8B9F92"/>
		<stop  offset="0.4193" style="stop-color:#A0B3A8"/>
		<stop  offset="0.522" style="stop-color:#A8BAB0"/>
		<stop  offset="0.6148" style="stop-color:#A2B4A9"/>
		<stop  offset="0.7464" style="stop-color:#90A397"/>
		<stop  offset="0.9003" style="stop-color:#738879"/>
		<stop  offset="1" style="stop-color:#5C7361"/>
	</linearGradient>
	<rect x="3.971" y="19.116" fill="url(#SVGID_2_)" width="91.322" height="72.353"/>
	<g>
		<linearGradient id="SVGID_3_" gradientUnits="userSpaceOnUse" x1="47.9243" y1="9.7832" x2="52.4319" y2="15.1966">
			<stop  offset="0" style="stop-color:#D1FFFF"/>
			<stop  offset="0.1242" style="stop-color:#DFFFFF"/>
			<stop  offset="0.3352" style="stop-color:#FFFFFF"/>
			<stop  offset="0.6813" style="stop-color:#D1FFFF"/>
			<stop  offset="1" style="stop-color:#FFFFFF"/>
		</linearGradient>
		<rect x="46.828" y="8.006" fill="url(#SVGID_3_)" width="5.381" height="7.382"/>
		<polygon points="51.866,8.464 47.2,8.492 47.171,15.846 46.457,15.846 46.457,7.663 51.866,7.663 		"/>
		<polygon fill="#C8C8C8" points="47.171,15.159 51.894,15.216 51.866,7.635 52.695,7.635 52.695,15.845 47.171,15.845 		"/>
	</g>
	<g>
		<linearGradient id="SVGID_4_" gradientUnits="userSpaceOnUse" x1="8.2241" y1="54.5576" x2="15.7075" y2="54.5576">
			<stop  offset="0" style="stop-color:#0F361A"/>
			<stop  offset="0.5165" style="stop-color:#4A5E59"/>
			<stop  offset="0.7142" style="stop-color:#2B4938"/>
			<stop  offset="0.8883" style="stop-color:#173B22"/>
			<stop  offset="1" style="stop-color:#0F361A"/>
		</linearGradient>
		<polygon fill="url(#SVGID_4_)" points="8.224,89.263 8.224,90.033 15.708,90.033 15.708,19.083 14.972,19.083 14.933,89.259 		"/>
		<linearGradient id="SVGID_5_" gradientUnits="userSpaceOnUse" x1="7.459" y1="54.5576" x2="8.2339" y2="54.5576">
			<stop  offset="0" style="stop-color:#C8C8AA"/>
			<stop  offset="0.5" style="stop-color:#E6E6F0"/>
			<stop  offset="1" style="stop-color:#C8C8AA"/>
		</linearGradient>
		<polygon fill="url(#SVGID_5_)" points="8.234,90.033 8.234,19.083 7.499,19.083 7.459,90.028 		"/>
	</g>
	<g>
		<linearGradient id="SVGID_6_" gradientUnits="userSpaceOnUse" x1="19.5576" y1="54.5576" x2="27.041" y2="54.5576">
			<stop  offset="0" style="stop-color:#0F361A"/>
			<stop  offset="0.5165" style="stop-color:#4A5E59"/>
			<stop  offset="0.7142" style="stop-color:#2B4938"/>
			<stop  offset="0.8883" style="stop-color:#173B22"/>
			<stop  offset="1" style="stop-color:#0F361A"/>
		</linearGradient>
		<polygon fill="url(#SVGID_6_)" points="19.558,89.263 19.558,90.033 27.041,90.033 27.041,19.083 26.306,19.083 26.266,89.259 		
			"/>
		<linearGradient id="SVGID_7_" gradientUnits="userSpaceOnUse" x1="18.7925" y1="54.5576" x2="19.5674" y2="54.5576">
			<stop  offset="0" style="stop-color:#C8C8AA"/>
			<stop  offset="0.5" style="stop-color:#E6E6F0"/>
			<stop  offset="1" style="stop-color:#C8C8AA"/>
		</linearGradient>
		<polygon fill="url(#SVGID_7_)" points="19.567,90.033 19.567,19.083 18.832,19.083 18.792,90.028 		"/>
	</g>
	<g>
		<linearGradient id="SVGID_8_" gradientUnits="userSpaceOnUse" x1="84.0576" y1="54.5576" x2="91.541" y2="54.5576">
			<stop  offset="0" style="stop-color:#0F361A"/>
			<stop  offset="0.5165" style="stop-color:#4A5E59"/>
			<stop  offset="0.7142" style="stop-color:#2B4938"/>
			<stop  offset="0.8883" style="stop-color:#173B22"/>
			<stop  offset="1" style="stop-color:#0F361A"/>
		</linearGradient>
		<polygon fill="url(#SVGID_8_)" points="84.058,89.263 84.058,90.033 91.541,90.033 91.541,19.083 90.806,19.083 90.766,89.259 		
			"/>
		<linearGradient id="SVGID_9_" gradientUnits="userSpaceOnUse" x1="83.2925" y1="54.5576" x2="84.0674" y2="54.5576">
			<stop  offset="0" style="stop-color:#C8C8AA"/>
			<stop  offset="0.5" style="stop-color:#E6E6F0"/>
			<stop  offset="1" style="stop-color:#C8C8AA"/>
		</linearGradient>
		<polygon fill="url(#SVGID_9_)" points="84.067,90.033 84.067,19.083 83.332,19.083 83.292,90.028 		"/>
	</g>
	<g>
		<linearGradient id="SVGID_10_" gradientUnits="userSpaceOnUse" x1="72.5576" y1="54.5576" x2="80.041" y2="54.5576">
			<stop  offset="0" style="stop-color:#0F361A"/>
			<stop  offset="0.5165" style="stop-color:#4A5E59"/>
			<stop  offset="0.7142" style="stop-color:#2B4938"/>
			<stop  offset="0.8883" style="stop-color:#173B22"/>
			<stop  offset="1" style="stop-color:#0F361A"/>
		</linearGradient>
		<polygon fill="url(#SVGID_10_)" points="72.558,89.263 72.558,90.033 80.041,90.033 80.041,19.083 79.306,19.083 79.266,89.259 		
			"/>
		<linearGradient id="SVGID_11_" gradientUnits="userSpaceOnUse" x1="71.7925" y1="54.5576" x2="72.5674" y2="54.5576">
			<stop  offset="0" style="stop-color:#C8C8AA"/>
			<stop  offset="0.5" style="stop-color:#E6E6F0"/>
			<stop  offset="1" style="stop-color:#C8C8AA"/>
		</linearGradient>
		<polygon fill="url(#SVGID_11_)" points="72.567,90.033 72.567,19.083 71.832,19.083 71.792,90.028 		"/>
	</g>
	<linearGradient id="SVGID_12_" gradientUnits="userSpaceOnUse" x1="68.2925" y1="54.5576" x2="69.0674" y2="54.5576">
		<stop  offset="0" style="stop-color:#0F361A"/>
		<stop  offset="0.5165" style="stop-color:#4A5E59"/>
		<stop  offset="0.7142" style="stop-color:#2B4938"/>
		<stop  offset="0.8883" style="stop-color:#173B22"/>
		<stop  offset="1" style="stop-color:#0F361A"/>
	</linearGradient>
	<polygon fill="url(#SVGID_12_)" points="69.067,90.033 69.067,19.083 68.332,19.083 68.292,90.028 	"/>
	<linearGradient id="SVGID_13_" gradientUnits="userSpaceOnUse" x1="29.959" y1="54.5576" x2="30.7339" y2="54.5576">
		<stop  offset="0" style="stop-color:#0F361A"/>
		<stop  offset="0.5165" style="stop-color:#4A5E59"/>
		<stop  offset="0.7142" style="stop-color:#2B4938"/>
		<stop  offset="0.8883" style="stop-color:#173B22"/>
		<stop  offset="1" style="stop-color:#0F361A"/>
	</linearGradient>
	<polygon fill="url(#SVGID_13_)" points="30.734,90.033 30.734,19.083 29.999,19.083 29.959,90.028 	"/>
	<linearGradient id="SVGID_14_" gradientUnits="userSpaceOnUse" x1="61.459" y1="80.6572" x2="37.4593" y2="29.6579">
		<stop  offset="0.0056" style="stop-color:#516464"/>
		<stop  offset="0.1854" style="stop-color:#5E7171"/>
		<stop  offset="0.3652" style="stop-color:#6F8282"/>
		<stop  offset="0.7247" style="stop-color:#566464"/>
		<stop  offset="1" style="stop-color:#263C3C"/>
	</linearGradient>
	<rect x="33.986" y="22.638" fill="url(#SVGID_14_)" width="30.75" height="64.625"/>
	<polygon points="65.229,23.236 65.229,22.466 33.713,22.466 33.713,86.997 34.449,86.997 34.488,23.24 	"/>
	<polygon fill="#DCDCDC" points="33.713,87.039 33.713,87.81 65.228,87.81 65.228,23.278 64.493,23.278 64.453,87.035 	"/>
	<polygon points="38.213,83.164 38.213,83.935 61.486,83.935 61.486,26.138 60.751,26.138 60.711,83.16 	"/>
	<polygon fill="#DCDCDC" points="60.611,26.908 60.611,26.138 37.338,26.138 37.338,83.935 38.073,83.935 38.113,26.912 	"/>
	<linearGradient id="SVGID_15_" gradientUnits="userSpaceOnUse" x1="67.0542" y1="33.9336" x2="67.0542" y2="37.501">
		<stop  offset="0" style="stop-color:#3C3C3C"/>
		<stop  offset="0.5" style="stop-color:#8C8C8C"/>
		<stop  offset="1" style="stop-color:#3C3C3C"/>
	</linearGradient>
	<rect x="61.434" y="33.897" fill="url(#SVGID_15_)" width="11.24" height="4.182"/>
	<linearGradient id="SVGID_16_" gradientUnits="userSpaceOnUse" x1="66.9292" y1="72.3066" x2="66.9292" y2="75.584">
		<stop  offset="0" style="stop-color:#3C3C3C"/>
		<stop  offset="0.5" style="stop-color:#8C8C8C"/>
		<stop  offset="1" style="stop-color:#3C3C3C"/>
	</linearGradient>
	<rect x="61.184" y="72.086" fill="url(#SVGID_16_)" width="11.49" height="4.182"/>
	<linearGradient id="SVGID_17_" gradientUnits="userSpaceOnUse" x1="33.9712" y1="55.0898" x2="37.9253" y2="55.0898">
		<stop  offset="0.1966" style="stop-color:#284044"/>
		<stop  offset="0.2684" style="stop-color:#446260"/>
		<stop  offset="0.3713" style="stop-color:#678C83"/>
		<stop  offset="0.4521" style="stop-color:#7DA699"/>
		<stop  offset="0.5" style="stop-color:#85B0A1"/>
		<stop  offset="0.5548" style="stop-color:#7EA79A"/>
		<stop  offset="0.6428" style="stop-color:#6A9086"/>
		<stop  offset="0.7525" style="stop-color:#4A6A66"/>
		<stop  offset="0.8539" style="stop-color:#284044"/>
	</linearGradient>
	<rect x="33.971" y="51.258" fill="url(#SVGID_17_)" width="3.954" height="7.664"/>
	<linearGradient id="SVGID_18_" gradientUnits="userSpaceOnUse" x1="35.3164" y1="59.9199" x2="37.1914" y2="59.9199">
		<stop  offset="0" style="stop-color:#0F361A"/>
		<stop  offset="0.5165" style="stop-color:#4A5E59"/>
		<stop  offset="0.7142" style="stop-color:#2B4938"/>
		<stop  offset="0.8883" style="stop-color:#173B22"/>
		<stop  offset="1" style="stop-color:#0F361A"/>
	</linearGradient>
	<rect x="35.316" y="54.886" fill="url(#SVGID_18_)" width="1.875" height="10.068"/>
	<linearGradient id="SVGID_19_" gradientUnits="userSpaceOnUse" x1="4.8467" y1="18.8115" x2="92.5" y2="18.8115">
		<stop  offset="0" style="stop-color:#0F361A"/>
		<stop  offset="0.5165" style="stop-color:#4A5E59"/>
		<stop  offset="0.7142" style="stop-color:#2B4938"/>
		<stop  offset="0.8883" style="stop-color:#173B22"/>
		<stop  offset="1" style="stop-color:#0F361A"/>
	</linearGradient>
	<rect x="4.847" y="18.444" fill="url(#SVGID_19_)" width="87.653" height="0.735"/>
	<linearGradient id="SVGID_20_" gradientUnits="userSpaceOnUse" x1="45.3354" y1="17.9912" x2="112.3362" y2="42.9915">
		<stop  offset="0" style="stop-color:#0F361A"/>
		<stop  offset="0.5165" style="stop-color:#4A5E59"/>
		<stop  offset="0.7142" style="stop-color:#2B4938"/>
		<stop  offset="0.8883" style="stop-color:#173B22"/>
		<stop  offset="1" style="stop-color:#0F361A"/>
	</linearGradient>
	<polygon fill="url(#SVGID_20_)" points="98.675,21.617 49.559,4.411 0,21.617 0,17.353 50,0 98.675,17.353 	"/>
</g>
</svg>
