<?xml version="1.0" encoding="utf-8"?>
<!-- Generator: Adobe Illustrator 15.0.0, SVG Export Plug-In . SVG Version: 6.00 Build 0)  -->
<!DOCTYPE svg PUBLIC "-//W3C//DTD SVG 1.1 Tiny//EN" "http://www.w3.org/Graphics/SVG/1.1/DTD/svg11-tiny.dtd">
<svg version="1.1" baseProfile="tiny" id="_x33_6_x7E_42"
	 xmlns="http://www.w3.org/2000/svg" xmlns:xlink="http://www.w3.org/1999/xlink" x="0px" y="0px" width="125.94px"
	 height="89.809px" viewBox="0 0 125.94 89.809" xml:space="preserve">
<g>
	<polygon fill="#737373" points="122.242,4.408 63.171,29.271 63.171,34.809 0.048,34.809 0.048,29.271 68.131,0 125.853,0 	"/>
	<linearGradient id="SVGID_1_" gradientUnits="userSpaceOnUse" x1="106.4136" y1="10.0938" x2="83.8951" y2="70.8408">
		<stop  offset="0.3571" style="stop-color:#8C8C8C"/>
		<stop  offset="1" style="stop-color:#3C3C3C"/>
	</linearGradient>
	<polygon fill="url(#SVGID_1_)" points="125.864,60.631 63.171,89.809 60.371,86.464 60.371,31.291 63.171,29.271 125.864,0.093 	
		"/>
	<linearGradient id="SVGID_2_" gradientUnits="userSpaceOnUse" x1="40.334" y1="38.0068" x2="14.001" y2="103.0068">
		<stop  offset="0" style="stop-color:#C9C6C1"/>
		<stop  offset="0.1387" style="stop-color:#B5B3AF"/>
		<stop  offset="0.3794" style="stop-color:#989694"/>
		<stop  offset="0.5169" style="stop-color:#8D8B8A"/>
		<stop  offset="0.9099" style="stop-color:#7F7E7F"/>
		<stop  offset="0.9607" style="stop-color:#7D7C7D"/>
	</linearGradient>
	<rect x="0.048" y="29.271" fill="url(#SVGID_2_)" width="63.123" height="60.538"/>
	<linearGradient id="SVGID_3_" gradientUnits="userSpaceOnUse" x1="5.2344" y1="59.5391" x2="5.8188" y2="59.5391">
		<stop  offset="0.0056" style="stop-color:#646464"/>
		<stop  offset="1" style="stop-color:#969696"/>
	</linearGradient>
	<rect x="5.234" y="29.271" fill="url(#SVGID_3_)" width="0.584" height="60.538"/>
	<linearGradient id="SVGID_4_" gradientUnits="userSpaceOnUse" x1="10.3594" y1="59.5391" x2="10.9438" y2="59.5391">
		<stop  offset="0.0056" style="stop-color:#646464"/>
		<stop  offset="1" style="stop-color:#969696"/>
	</linearGradient>
	<rect x="10.359" y="29.271" fill="url(#SVGID_4_)" width="0.584" height="60.538"/>
	<linearGradient id="SVGID_5_" gradientUnits="userSpaceOnUse" x1="15.6094" y1="59.5391" x2="16.1938" y2="59.5391">
		<stop  offset="0.0056" style="stop-color:#646464"/>
		<stop  offset="1" style="stop-color:#969696"/>
	</linearGradient>
	<rect x="15.609" y="29.271" fill="url(#SVGID_5_)" width="0.584" height="60.538"/>
	<linearGradient id="SVGID_6_" gradientUnits="userSpaceOnUse" x1="20.9844" y1="59.5391" x2="21.5688" y2="59.5391">
		<stop  offset="0.0056" style="stop-color:#646464"/>
		<stop  offset="1" style="stop-color:#969696"/>
	</linearGradient>
	<rect x="20.984" y="29.271" fill="url(#SVGID_6_)" width="0.584" height="60.538"/>
	<linearGradient id="SVGID_7_" gradientUnits="userSpaceOnUse" x1="25.9844" y1="59.5391" x2="26.5688" y2="59.5391">
		<stop  offset="0.0056" style="stop-color:#646464"/>
		<stop  offset="1" style="stop-color:#969696"/>
	</linearGradient>
	<rect x="25.984" y="29.271" fill="url(#SVGID_7_)" width="0.584" height="60.538"/>
	<linearGradient id="SVGID_8_" gradientUnits="userSpaceOnUse" x1="31.2344" y1="59.5391" x2="31.8188" y2="59.5391">
		<stop  offset="0.0056" style="stop-color:#646464"/>
		<stop  offset="1" style="stop-color:#969696"/>
	</linearGradient>
	<rect x="31.234" y="29.271" fill="url(#SVGID_8_)" width="0.584" height="60.538"/>
	<linearGradient id="SVGID_9_" gradientUnits="userSpaceOnUse" x1="36.3594" y1="59.5391" x2="36.9438" y2="59.5391">
		<stop  offset="0.0056" style="stop-color:#646464"/>
		<stop  offset="1" style="stop-color:#969696"/>
	</linearGradient>
	<rect x="36.359" y="29.271" fill="url(#SVGID_9_)" width="0.584" height="60.538"/>
	<linearGradient id="SVGID_10_" gradientUnits="userSpaceOnUse" x1="41.7344" y1="59.5391" x2="42.3188" y2="59.5391">
		<stop  offset="0.0056" style="stop-color:#646464"/>
		<stop  offset="1" style="stop-color:#969696"/>
	</linearGradient>
	<rect x="41.734" y="29.271" fill="url(#SVGID_10_)" width="0.584" height="60.538"/>
	<linearGradient id="SVGID_11_" gradientUnits="userSpaceOnUse" x1="47.0845" y1="59.5391" x2="47.6689" y2="59.5391">
		<stop  offset="0.0056" style="stop-color:#646464"/>
		<stop  offset="1" style="stop-color:#969696"/>
	</linearGradient>
	<rect x="47.084" y="29.271" fill="url(#SVGID_11_)" width="0.584" height="60.538"/>
	<linearGradient id="SVGID_12_" gradientUnits="userSpaceOnUse" x1="52.4595" y1="59.5391" x2="53.0439" y2="59.5391">
		<stop  offset="0.0056" style="stop-color:#646464"/>
		<stop  offset="1" style="stop-color:#969696"/>
	</linearGradient>
	<rect x="52.459" y="29.271" fill="url(#SVGID_12_)" width="0.584" height="60.538"/>
	<linearGradient id="SVGID_13_" gradientUnits="userSpaceOnUse" x1="57.9595" y1="59.5391" x2="58.5439" y2="59.5391">
		<stop  offset="0.0056" style="stop-color:#646464"/>
		<stop  offset="1" style="stop-color:#969696"/>
	</linearGradient>
	<rect x="57.959" y="29.271" fill="url(#SVGID_13_)" width="0.584" height="60.538"/>
	<linearGradient id="SVGID_14_" gradientUnits="userSpaceOnUse" x1="62.5845" y1="59.5264" x2="63.2715" y2="59.5264">
		<stop  offset="0.4888" style="stop-color:#747477"/>
		<stop  offset="1" style="stop-color:#38373B"/>
	</linearGradient>
	<rect x="62.584" y="29.271" fill="url(#SVGID_14_)" width="0.687" height="60.512"/>
	<linearGradient id="SVGID_15_" gradientUnits="userSpaceOnUse" x1="0" y1="59.5391" x2="0.5845" y2="59.5391">
		<stop  offset="0.0056" style="stop-color:#646464"/>
		<stop  offset="1" style="stop-color:#969696"/>
	</linearGradient>
	<rect y="29.271" fill="url(#SVGID_15_)" width="0.584" height="60.538"/>
	<rect x="33.427" y="38.127" fill="#282828" width="26.744" height="49.509"/>
	<rect x="34.464" y="39.004" fill="#AECF96" width="24.751" height="47.755"/>
	<rect x="55.113" y="65.552" fill="#043303" width="2.313" height="2.313"/>
	<g>
		<rect x="36.551" y="41.824" width="21.803" height="21.803"/>
		<linearGradient id="SVGID_16_" gradientUnits="userSpaceOnUse" x1="53.3232" y1="44.667" x2="40.0361" y2="61.4707">
			<stop  offset="0" style="stop-color:#D1FFFF"/>
			<stop  offset="0.1242" style="stop-color:#DFFFFF"/>
			<stop  offset="0.3352" style="stop-color:#FFFFFF"/>
			<stop  offset="0.6813" style="stop-color:#D1FFFF"/>
			<stop  offset="1" style="stop-color:#FFFFFF"/>
		</linearGradient>
		<rect x="37.645" y="41.824" fill="url(#SVGID_16_)" width="19.849" height="20.24"/>
		<polygon fill="#7F7F7F" points="57.572,61.361 57.572,62.924 37.332,62.924 37.332,41.824 38.349,41.824 38.27,61.361 		"/>
	</g>
	<g>
		<rect x="3.718" y="37.491" width="25.803" height="31.803"/>
		<linearGradient id="SVGID_17_" gradientUnits="userSpaceOnUse" x1="32.6079" y1="38.4824" x2="0.5629" y2="67.0099">
			<stop  offset="0" style="stop-color:#D1FFFF"/>
			<stop  offset="0.1242" style="stop-color:#DFFFFF"/>
			<stop  offset="0.3352" style="stop-color:#FFFFFF"/>
			<stop  offset="0.6813" style="stop-color:#D1FFFF"/>
			<stop  offset="1" style="stop-color:#FFFFFF"/>
		</linearGradient>
		<rect x="4.812" y="37.491" fill="url(#SVGID_17_)" width="23.849" height="30.24"/>
		<polygon fill="#7F7F7F" points="28.739,67.028 28.739,68.591 4.499,68.591 4.499,37.491 5.516,37.491 5.437,67.028 		"/>
	</g>
	<linearGradient id="SVGID_18_" gradientUnits="userSpaceOnUse" x1="66.1567" y1="57.9717" x2="66.7915" y2="57.9717">
		<stop  offset="0.4888" style="stop-color:#747477"/>
		<stop  offset="1" style="stop-color:#38373B"/>
	</linearGradient>
	<polygon fill="url(#SVGID_18_)" points="66.741,88.127 66.157,88.396 66.207,27.828 66.792,27.547 	"/>
	<linearGradient id="SVGID_19_" gradientUnits="userSpaceOnUse" x1="69.5527" y1="56.4316" x2="70.1372" y2="56.4316">
		<stop  offset="0.4888" style="stop-color:#747477"/>
		<stop  offset="1" style="stop-color:#38373B"/>
	</linearGradient>
	<polygon fill="url(#SVGID_19_)" points="70.137,86.563 69.553,86.832 69.553,26.266 70.137,26.031 	"/>
	<linearGradient id="SVGID_20_" gradientUnits="userSpaceOnUse" x1="72.7446" y1="54.918" x2="73.3291" y2="54.918">
		<stop  offset="0.4888" style="stop-color:#747477"/>
		<stop  offset="1" style="stop-color:#38373B"/>
	</linearGradient>
	<polygon fill="url(#SVGID_20_)" points="73.329,85.047 72.745,85.316 72.745,24.8 73.329,24.519 	"/>
	<linearGradient id="SVGID_21_" gradientUnits="userSpaceOnUse" x1="75.873" y1="53.4863" x2="76.4575" y2="53.4863">
		<stop  offset="0.4888" style="stop-color:#747477"/>
		<stop  offset="1" style="stop-color:#38373B"/>
	</linearGradient>
	<polygon fill="url(#SVGID_21_)" points="76.458,83.644 75.873,83.913 75.873,23.34 76.458,23.059 	"/>
	<linearGradient id="SVGID_22_" gradientUnits="userSpaceOnUse" x1="78.9692" y1="52.0352" x2="79.5537" y2="52.0352">
		<stop  offset="0.4888" style="stop-color:#747477"/>
		<stop  offset="1" style="stop-color:#38373B"/>
	</linearGradient>
	<polygon fill="url(#SVGID_22_)" points="79.554,82.193 78.969,82.463 78.969,21.89 79.554,21.608 	"/>
	<linearGradient id="SVGID_23_" gradientUnits="userSpaceOnUse" x1="81.9814" y1="50.6094" x2="82.5659" y2="50.6094">
		<stop  offset="0.4888" style="stop-color:#747477"/>
		<stop  offset="1" style="stop-color:#38373B"/>
	</linearGradient>
	<polygon fill="url(#SVGID_23_)" points="82.566,80.734 81.981,81.004 81.981,20.495 82.566,20.214 	"/>
	<linearGradient id="SVGID_24_" gradientUnits="userSpaceOnUse" x1="84.938" y1="49.2539" x2="85.5225" y2="49.2539">
		<stop  offset="0.4888" style="stop-color:#747477"/>
		<stop  offset="1" style="stop-color:#38373B"/>
	</linearGradient>
	<polygon fill="url(#SVGID_24_)" points="85.522,79.391 84.938,79.66 84.938,19.129 85.522,18.848 	"/>
	<linearGradient id="SVGID_25_" gradientUnits="userSpaceOnUse" x1="88.0063" y1="47.8379" x2="88.5908" y2="47.8379">
		<stop  offset="0.4888" style="stop-color:#747477"/>
		<stop  offset="1" style="stop-color:#38373B"/>
	</linearGradient>
	<polygon fill="url(#SVGID_25_)" points="88.591,77.953 88.006,78.223 88.006,17.734 88.591,17.453 	"/>
	<linearGradient id="SVGID_26_" gradientUnits="userSpaceOnUse" x1="90.9907" y1="46.4316" x2="91.5752" y2="46.4316">
		<stop  offset="0.4888" style="stop-color:#747477"/>
		<stop  offset="1" style="stop-color:#38373B"/>
	</linearGradient>
	<polygon fill="url(#SVGID_26_)" points="91.575,76.563 90.991,76.832 90.991,16.312 91.575,16.03 	"/>
	<linearGradient id="SVGID_27_" gradientUnits="userSpaceOnUse" x1="93.9692" y1="45.0537" x2="94.5537" y2="45.0537">
		<stop  offset="0.4888" style="stop-color:#747477"/>
		<stop  offset="1" style="stop-color:#38373B"/>
	</linearGradient>
	<polygon fill="url(#SVGID_27_)" points="94.554,75.188 93.969,75.457 93.969,14.932 94.554,14.65 	"/>
	<linearGradient id="SVGID_28_" gradientUnits="userSpaceOnUse" x1="96.9814" y1="43.6533" x2="97.5659" y2="43.6533">
		<stop  offset="0.4888" style="stop-color:#747477"/>
		<stop  offset="1" style="stop-color:#38373B"/>
	</linearGradient>
	<polygon fill="url(#SVGID_28_)" points="97.566,73.781 96.981,74.051 96.981,13.537 97.566,13.256 	"/>
	<linearGradient id="SVGID_29_" gradientUnits="userSpaceOnUse" x1="99.938" y1="42.2832" x2="100.5225" y2="42.2832">
		<stop  offset="0.4888" style="stop-color:#747477"/>
		<stop  offset="1" style="stop-color:#38373B"/>
	</linearGradient>
	<polygon fill="url(#SVGID_29_)" points="100.522,72.406 99.938,72.676 99.938,12.171 100.522,11.89 	"/>
	<linearGradient id="SVGID_30_" gradientUnits="userSpaceOnUse" x1="103.0063" y1="40.8828" x2="103.5908" y2="40.8828">
		<stop  offset="0.4888" style="stop-color:#747477"/>
		<stop  offset="1" style="stop-color:#38373B"/>
	</linearGradient>
	<polygon fill="url(#SVGID_30_)" points="103.591,71 103.006,71.27 103.006,10.776 103.591,10.495 	"/>
	<linearGradient id="SVGID_31_" gradientUnits="userSpaceOnUse" x1="105.9907" y1="39.4756" x2="106.5752" y2="39.4756">
		<stop  offset="0.4888" style="stop-color:#747477"/>
		<stop  offset="1" style="stop-color:#38373B"/>
	</linearGradient>
	<polygon fill="url(#SVGID_31_)" points="106.575,69.609 105.991,69.879 105.991,9.354 106.575,9.072 	"/>
	<linearGradient id="SVGID_32_" gradientUnits="userSpaceOnUse" x1="109.0552" y1="38.0371" x2="109.6396" y2="38.0371">
		<stop  offset="0.4888" style="stop-color:#747477"/>
		<stop  offset="1" style="stop-color:#38373B"/>
	</linearGradient>
	<polygon fill="url(#SVGID_32_)" points="109.64,68.194 109.055,68.464 109.055,7.891 109.64,7.609 	"/>
	<linearGradient id="SVGID_33_" gradientUnits="userSpaceOnUse" x1="112.0337" y1="36.6328" x2="112.6182" y2="36.6328">
		<stop  offset="0.4888" style="stop-color:#747477"/>
		<stop  offset="1" style="stop-color:#38373B"/>
	</linearGradient>
	<polygon fill="url(#SVGID_33_)" points="112.618,66.766 112.034,67.035 112.034,6.511 112.618,6.229 	"/>
	<linearGradient id="SVGID_34_" gradientUnits="userSpaceOnUse" x1="115.0459" y1="35.2324" x2="115.6304" y2="35.2324">
		<stop  offset="0.4888" style="stop-color:#747477"/>
		<stop  offset="1" style="stop-color:#38373B"/>
	</linearGradient>
	<polygon fill="url(#SVGID_34_)" points="115.63,65.359 115.046,65.629 115.046,5.116 115.63,4.835 	"/>
	<linearGradient id="SVGID_35_" gradientUnits="userSpaceOnUse" x1="118.0024" y1="33.8691" x2="118.5869" y2="33.8691">
		<stop  offset="0.4888" style="stop-color:#747477"/>
		<stop  offset="1" style="stop-color:#38373B"/>
	</linearGradient>
	<polygon fill="url(#SVGID_35_)" points="118.587,64 118.002,64.27 118.002,3.75 118.587,3.469 	"/>
	<linearGradient id="SVGID_36_" gradientUnits="userSpaceOnUse" x1="120.729" y1="32.5742" x2="121.3135" y2="32.5742">
		<stop  offset="0.4888" style="stop-color:#747477"/>
		<stop  offset="1" style="stop-color:#38373B"/>
	</linearGradient>
	<polygon fill="url(#SVGID_36_)" points="121.313,62.703 120.729,62.973 120.729,2.458 121.313,2.177 	"/>
	<linearGradient id="SVGID_37_" gradientUnits="userSpaceOnUse" x1="123.3018" y1="31.4121" x2="123.8862" y2="31.4121">
		<stop  offset="0.4888" style="stop-color:#747477"/>
		<stop  offset="1" style="stop-color:#38373B"/>
	</linearGradient>
	<polygon fill="url(#SVGID_37_)" points="123.886,61.527 123.302,61.797 123.302,1.31 123.886,1.028 	"/>
	<linearGradient id="SVGID_38_" gradientUnits="userSpaceOnUse" x1="125.356" y1="30.4297" x2="125.9404" y2="30.4297">
		<stop  offset="0.4888" style="stop-color:#747477"/>
		<stop  offset="1" style="stop-color:#38373B"/>
	</linearGradient>
	<polygon fill="url(#SVGID_38_)" points="125.94,60.587 125.356,60.856 125.356,0.283 125.94,0.002 	"/>
	<g>
		<polygon points="92.786,46.589 69.433,57.257 69.433,33.297 92.786,22.629 		"/>
		<polygon fill="#7F7F7F" points="91.94,45.938 69.433,56.15 69.433,33.644 91.94,23.431 		"/>
		<linearGradient id="SVGID_39_" gradientUnits="userSpaceOnUse" x1="75.7998" y1="34.9404" x2="86.7422" y2="47.0562">
			<stop  offset="0" style="stop-color:#D1FFFF"/>
			<stop  offset="0.1242" style="stop-color:#DFFFFF"/>
			<stop  offset="0.3352" style="stop-color:#FFFFFF"/>
			<stop  offset="0.6813" style="stop-color:#D1FFFF"/>
			<stop  offset="1" style="stop-color:#FFFFFF"/>
		</linearGradient>
		<polygon fill="url(#SVGID_39_)" points="90.574,45.547 69.433,55.174 69.433,33.644 90.574,24.017 		"/>
		<polygon fill="#C4FFFF" points="90.574,25.122 69.433,40.864 69.433,33.644 90.574,24.017 		"/>
	</g>
	<g>
		<polygon points="119.786,35.256 96.433,45.924 96.433,21.964 119.786,11.296 		"/>
		<polygon fill="#7F7F7F" points="118.94,34.604 96.433,44.817 96.433,22.311 118.94,12.098 		"/>
		<linearGradient id="SVGID_40_" gradientUnits="userSpaceOnUse" x1="103.1641" y1="24.7568" x2="121.1408" y2="41.1706">
			<stop  offset="0" style="stop-color:#D1FFFF"/>
			<stop  offset="0.1242" style="stop-color:#DFFFFF"/>
			<stop  offset="0.3352" style="stop-color:#FFFFFF"/>
			<stop  offset="0.6813" style="stop-color:#D1FFFF"/>
			<stop  offset="1" style="stop-color:#FFFFFF"/>
		</linearGradient>
		<polygon fill="url(#SVGID_40_)" points="117.574,34.214 96.433,43.841 96.433,22.311 117.574,12.684 		"/>
		<polygon fill="#C4FFFF" points="117.574,13.789 96.433,29.531 96.433,22.311 117.574,12.684 		"/>
	</g>
</g>
</svg>
