<?xml version="1.0" encoding="utf-8"?>
<!-- Generator: Adobe Illustrator 15.0.0, SVG Export Plug-In . SVG Version: 6.00 Build 0)  -->
<!DOCTYPE svg PUBLIC "-//W3C//DTD SVG 1.1 Tiny//EN" "http://www.w3.org/Graphics/SVG/1.1/DTD/svg11-tiny.dtd">
<svg version="1.1" baseProfile="tiny" id="_x30_8_x7E_14"
	 xmlns="http://www.w3.org/2000/svg" xmlns:xlink="http://www.w3.org/1999/xlink" x="0px" y="0px" width="158.416px"
	 height="62.557px" viewBox="0 0 158.416 62.557" xml:space="preserve">
<g>
	<g>
		<linearGradient id="SVGID_1_" gradientUnits="userSpaceOnUse" x1="79.6953" y1="15.0747" x2="72.2578" y2="15.0747">
			<stop  offset="0" style="stop-color:#304561"/>
			<stop  offset="0.0849" style="stop-color:#364B66"/>
			<stop  offset="0.1959" style="stop-color:#465B76"/>
			<stop  offset="0.3215" style="stop-color:#617590"/>
			<stop  offset="0.4569" style="stop-color:#8799B3"/>
			<stop  offset="0.5055" style="stop-color:#96A8C2"/>
			<stop  offset="0.5531" style="stop-color:#8799B3"/>
			<stop  offset="0.6855" style="stop-color:#617590"/>
			<stop  offset="0.8083" style="stop-color:#465B76"/>
			<stop  offset="0.917" style="stop-color:#364B66"/>
			<stop  offset="1" style="stop-color:#304561"/>
		</linearGradient>
		<polygon fill="url(#SVGID_1_)" points="82.51,28.847 80.383,0.869 74.758,0.869 72.609,28.934 72.609,29.28 82.51,29.28 		"/>
		<rect x="74.637" y="0.5" fill="#24384F" width="5.869" height="1.938"/>
		<linearGradient id="SVGID_2_" gradientUnits="userSpaceOnUse" x1="80.0078" y1="0.9688" x2="73.3203" y2="0.9687">
			<stop  offset="0" style="stop-color:#24384F"/>
			<stop  offset="0.5055" style="stop-color:#96A1A6"/>
			<stop  offset="1" style="stop-color:#24384F"/>
		</linearGradient>
		<rect x="73.883" fill="url(#SVGID_2_)" width="7.25" height="1.938"/>
	</g>
	<g>
		<linearGradient id="SVGID_3_" gradientUnits="userSpaceOnUse" x1="96.5703" y1="15.0747" x2="89.1328" y2="15.0747">
			<stop  offset="0" style="stop-color:#304561"/>
			<stop  offset="0.0849" style="stop-color:#364B66"/>
			<stop  offset="0.1959" style="stop-color:#465B76"/>
			<stop  offset="0.3215" style="stop-color:#617590"/>
			<stop  offset="0.4569" style="stop-color:#8799B3"/>
			<stop  offset="0.5055" style="stop-color:#96A8C2"/>
			<stop  offset="0.5531" style="stop-color:#8799B3"/>
			<stop  offset="0.6855" style="stop-color:#617590"/>
			<stop  offset="0.8083" style="stop-color:#465B76"/>
			<stop  offset="0.917" style="stop-color:#364B66"/>
			<stop  offset="1" style="stop-color:#304561"/>
		</linearGradient>
		<polygon fill="url(#SVGID_3_)" points="99.385,28.847 97.258,0.869 91.633,0.869 89.484,28.934 89.484,29.28 99.385,29.28 		"/>
		<rect x="91.512" y="0.5" fill="#24384F" width="5.869" height="1.938"/>
		<linearGradient id="SVGID_4_" gradientUnits="userSpaceOnUse" x1="96.3828" y1="0.9688" x2="90.5078" y2="0.9687">
			<stop  offset="0" style="stop-color:#24384F"/>
			<stop  offset="0.5055" style="stop-color:#96A1A6"/>
			<stop  offset="1" style="stop-color:#24384F"/>
		</linearGradient>
		<rect x="90.758" fill="url(#SVGID_4_)" width="7.25" height="1.938"/>
	</g>
	<rect y="41.815" fill="#BFD3F2" width="158.416" height="20.741"/>
	<rect y="28.89" fill="#BFD3F2" width="114.527" height="20.741"/>
	<polygon fill="#BFD3F2" points="3.607,28.904 3.607,30.393 13.488,30.393 13.488,28.904 3.607,17.805 	"/>
	<polygon fill="#BFD3F2" points="23.846,28.904 23.846,30.393 33.727,30.393 33.727,28.904 23.846,17.805 	"/>
	<polygon fill="#BFD3F2" points="44.252,28.904 44.252,30.393 54.133,30.393 54.133,28.904 44.252,17.805 	"/>
	<polygon fill="#BFD3F2" points="13.473,28.904 13.473,30.393 24.027,30.393 24.027,28.904 13.473,17.805 	"/>
	<polygon fill="#BFD3F2" points="33.656,28.904 33.656,30.393 44.211,30.393 44.211,28.904 33.656,17.805 	"/>
	<rect x="6.313" y="35.021" fill="#000032" width="101.967" height="7.463"/>
	<rect x="6.313" y="48.521" fill="#000032" width="145.539" height="7.463"/>
	<linearGradient id="SVGID_5_" gradientUnits="userSpaceOnUse" x1="115.0684" y1="39.3291" x2="10.5685" y2="38.329">
		<stop  offset="0" style="stop-color:#CDD2E3"/>
		<stop  offset="1" style="stop-color:#FFFFFF"/>
	</linearGradient>
	<rect x="7.109" y="35.74" fill="url(#SVGID_5_)" width="100.42" height="6.073"/>
	<g>
		<rect x="21.348" y="35.579" fill="#000032" width="0.764" height="6.626"/>
		<rect x="35.535" y="35.579" fill="#000032" width="0.764" height="6.626"/>
		<rect x="49.848" y="35.579" fill="#000032" width="0.764" height="6.626"/>
		<rect x="64.035" y="35.579" fill="#000032" width="0.764" height="6.626"/>
		<rect x="79.035" y="35.579" fill="#000032" width="0.764" height="6.626"/>
		<rect x="93.285" y="35.579" fill="#000032" width="0.764" height="6.626"/>
	</g>
	<linearGradient id="SVGID_6_" gradientUnits="userSpaceOnUse" x1="114.9404" y1="52.6191" x2="10.4412" y2="51.6191">
		<stop  offset="0" style="stop-color:#CDD2E3"/>
		<stop  offset="1" style="stop-color:#FFFFFF"/>
	</linearGradient>
	<rect x="7.109" y="49.24" fill="url(#SVGID_6_)" width="143.992" height="6.073"/>
	<g>
		<rect x="21.348" y="49.079" fill="#000032" width="0.764" height="6.626"/>
		<rect x="35.535" y="49.079" fill="#000032" width="0.764" height="6.626"/>
		<rect x="49.848" y="49.079" fill="#000032" width="0.764" height="6.626"/>
		<rect x="64.035" y="49.079" fill="#000032" width="0.764" height="6.626"/>
		<rect x="79.035" y="49.079" fill="#000032" width="0.764" height="6.626"/>
		<rect x="93.285" y="49.079" fill="#000032" width="0.764" height="6.626"/>
		<rect x="107.639" y="49.079" fill="#000032" width="0.764" height="6.626"/>
		<rect x="122.539" y="49.079" fill="#000032" width="0.764" height="6.626"/>
		<rect x="136.801" y="49.079" fill="#000032" width="0.764" height="6.626"/>
	</g>
</g>
</svg>
