<?xml version="1.0" encoding="utf-8"?>
<!-- Generator: Adobe Illustrator 15.0.0, SVG Export Plug-In . SVG Version: 6.00 Build 0)  -->
<!DOCTYPE svg PUBLIC "-//W3C//DTD SVG 1.1 Tiny//EN" "http://www.w3.org/Graphics/SVG/1.1/DTD/svg11-tiny.dtd">
<svg version="1.1" baseProfile="tiny" id="_x32_2_x7E_28"
	 xmlns="http://www.w3.org/2000/svg" xmlns:xlink="http://www.w3.org/1999/xlink" x="0px" y="0px" width="127.766px"
	 height="88.641px" viewBox="0 0 127.766 88.641" xml:space="preserve">
<g>
	<polygon fill="#3F5B5C" points="127.75,76.058 101.954,88.641 94.5,84.891 94.5,17.725 102,12.641 127.75,0.058 	"/>
	<polygon fill="#6F9487" points="102,12.641 102,17.141 0,17.141 0,12.641 25.766,0 127.766,0 	"/>
	<rect y="12.641" fill="#A6B8B0" width="102" height="76"/>
	<g>
		<rect x="16.644" y="32.295" fill="#CBE5E5" width="25.391" height="25.047"/>
		<polygon fill="#B3C7C7" points="16.644,39.697 16.644,32.811 42.034,32.811 		"/>
		<polygon points="42.453,57.083 41.26,57.083 41.346,33.241 17.418,33.155 17.418,31.953 42.453,31.953 		"/>
		<polygon fill="#7F7F7F" points="42.465,56.566 42.465,58.029 15.955,58.029 15.955,31.95 17.504,31.95 17.418,56.652 		"/>
	</g>
	<g>
		<rect x="58.644" y="32.295" fill="#CBE5E5" width="25.39" height="25.047"/>
		<polygon fill="#B3C7C7" points="58.644,39.697 58.644,32.811 84.034,32.811 		"/>
		<polygon points="84.454,57.083 83.26,57.083 83.346,33.241 59.418,33.155 59.418,31.953 84.454,31.953 		"/>
		<polygon fill="#7F7F7F" points="84.465,56.566 84.465,58.029 57.955,58.029 57.955,31.95 59.504,31.95 59.418,56.652 		"/>
	</g>
	<g>
		<polygon fill="#CBE5E5" points="124.633,41.689 108.116,50.062 108.116,28.93 124.633,20.559 		"/>
		<polygon fill="#B3C7C7" points="108.116,35.176 108.116,29.365 124.633,20.994 		"/>
		<polygon points="124.989,41.473 124.1,41.777 124.055,21.357 108.77,29.656 108.77,28.643 124.989,20.271 		"/>
		<polygon fill="#7F7F7F" points="124.999,41.035 124.999,42.271 107.536,50.643 107.502,29.238 108.842,28.639 108.868,48.859 		
			"/>
	</g>
</g>
</svg>
