<?xml version="1.0" encoding="utf-8"?>
<!-- Generator: Adobe Illustrator 15.0.0, SVG Export Plug-In . SVG Version: 6.00 Build 0)  -->
<!DOCTYPE svg PUBLIC "-//W3C//DTD SVG 1.1 Tiny//EN" "http://www.w3.org/Graphics/SVG/1.1/DTD/svg11-tiny.dtd">
<svg version="1.1" baseProfile="tiny" id="_x33_6_x7E_42"
	 xmlns="http://www.w3.org/2000/svg" xmlns:xlink="http://www.w3.org/1999/xlink" x="0px" y="0px" width="73.385px"
	 height="88.162px" viewBox="0 0 73.385 88.162" xml:space="preserve">
<g>
	<polygon fill="#485E66" points="72.439,41.74 67.163,45.688 63.43,49.771 3.188,49.771 0,45.688 6.222,38.848 73.345,38.865 	"/>
	<polygon fill="#646464" points="73.385,81.305 67.164,88.146 64.235,86.916 64.235,48.476 67.164,45.767 73.385,38.926 	"/>
	<rect y="45.688" fill="#BDC4C9" width="67.163" height="42.457"/>
	<g>
		<rect x="2.179" y="51.311" width="62.335" height="7.076"/>
		<linearGradient id="SVGID_1_" gradientUnits="userSpaceOnUse" x1="13.356" y1="51.3467" x2="6.1129" y2="59.3584">
			<stop  offset="0" style="stop-color:#DBD2D2"/>
			<stop  offset="0.1451" style="stop-color:#E6E0E0"/>
			<stop  offset="0.3846" style="stop-color:#FFFFFF"/>
			<stop  offset="0.7418" style="stop-color:#D9D2D2"/>
			<stop  offset="1" style="stop-color:#FFFFFF"/>
		</linearGradient>
		<rect x="3.055" y="51.831" fill="url(#SVGID_1_)" width="15.303" height="4.892"/>
		<linearGradient id="SVGID_2_" gradientUnits="userSpaceOnUse" x1="30.6064" y1="49.6484" x2="22.903" y2="57.0222">
			<stop  offset="0" style="stop-color:#DBD2D2"/>
			<stop  offset="0.1451" style="stop-color:#E6E0E0"/>
			<stop  offset="0.3846" style="stop-color:#FFFFFF"/>
			<stop  offset="0.7418" style="stop-color:#D9D2D2"/>
			<stop  offset="1" style="stop-color:#FFFFFF"/>
		</linearGradient>
		<rect x="18.119" y="51.831" fill="url(#SVGID_2_)" width="15.303" height="4.892"/>
		<linearGradient id="SVGID_3_" gradientUnits="userSpaceOnUse" x1="43.9229" y1="51.1904" x2="35.2408" y2="59.7635">
			<stop  offset="0" style="stop-color:#DBD2D2"/>
			<stop  offset="0.1451" style="stop-color:#E6E0E0"/>
			<stop  offset="0.3846" style="stop-color:#FFFFFF"/>
			<stop  offset="0.7418" style="stop-color:#D9D2D2"/>
			<stop  offset="1" style="stop-color:#FFFFFF"/>
		</linearGradient>
		<rect x="33.534" y="51.752" fill="url(#SVGID_3_)" width="14.69" height="4.892"/>
		<linearGradient id="SVGID_4_" gradientUnits="userSpaceOnUse" x1="62.269" y1="50.582" x2="46.9565" y2="59.4586">
			<stop  offset="0" style="stop-color:#DBD2D2"/>
			<stop  offset="0.1451" style="stop-color:#E6E0E0"/>
			<stop  offset="0.3846" style="stop-color:#FFFFFF"/>
			<stop  offset="0.7418" style="stop-color:#D9D2D2"/>
			<stop  offset="1" style="stop-color:#FFFFFF"/>
		</linearGradient>
		<rect x="48.335" y="51.752" fill="url(#SVGID_4_)" width="15.391" height="4.892"/>
		<g>
			<rect x="2.963" y="51.311" width="0.676" height="3.119"/>
			<rect x="18.591" y="51.426" width="6.224" height="0.819"/>
			<rect x="3.576" y="51.426" width="6.224" height="0.819"/>
			<rect x="33.55" y="51.426" width="6.988" height="0.819"/>
			<rect x="48.456" y="51.426" width="6.988" height="0.819"/>
		</g>
		<g>
			<rect x="18.032" y="51.311" fill="#7F7F7F" width="0.676" height="5.412"/>
			<rect x="33.009" y="51.311" fill="#7F7F7F" width="0.676" height="5.412"/>
			<rect x="47.898" y="51.311" fill="#7F7F7F" width="0.676" height="5.412"/>
		</g>
	</g>
	<rect x="50.149" y="73.94" width="12.749" height="14.222"/>
	<linearGradient id="SVGID_5_" gradientUnits="userSpaceOnUse" x1="57.4707" y1="75.9941" x2="52.0331" y2="83.9318">
		<stop  offset="0" style="stop-color:#DBD2D2"/>
		<stop  offset="0.1451" style="stop-color:#E6E0E0"/>
		<stop  offset="0.3846" style="stop-color:#FFFFFF"/>
		<stop  offset="0.7418" style="stop-color:#D9D2D2"/>
		<stop  offset="1" style="stop-color:#FFFFFF"/>
	</linearGradient>
	<rect x="50.901" y="74.752" fill="url(#SVGID_5_)" width="5.653" height="13.41"/>
	<linearGradient id="SVGID_6_" gradientUnits="userSpaceOnUse" x1="61.2974" y1="78.6152" x2="55.86" y2="86.5526">
		<stop  offset="0" style="stop-color:#DBD2D2"/>
		<stop  offset="0.1451" style="stop-color:#E6E0E0"/>
		<stop  offset="0.3846" style="stop-color:#FFFFFF"/>
		<stop  offset="0.7418" style="stop-color:#D9D2D2"/>
		<stop  offset="1" style="stop-color:#FFFFFF"/>
	</linearGradient>
	<rect x="56.524" y="74.752" fill="url(#SVGID_6_)" width="5.653" height="13.41"/>
	<rect x="56.193" y="73.94" fill="#7F7F7F" width="0.751" height="14.222"/>
	<path fill="#24384F" d="M65,41.298c0,0.991-2.333,1.794-5.212,1.794s-5.212-0.803-5.212-1.794c0-0.99,2.315-1.382,5.193-1.382
		S65,40.308,65,41.298z"/>
	<linearGradient id="SVGID_7_" gradientUnits="userSpaceOnUse" x1="61.6265" y1="21.167" x2="56.3765" y2="21.167">
		<stop  offset="0" style="stop-color:#24384F"/>
		<stop  offset="0.5055" style="stop-color:#96A1A6"/>
		<stop  offset="1" style="stop-color:#24384F"/>
	</linearGradient>
	<path fill="url(#SVGID_7_)" d="M56.751,0.537l-1.25,40.625c0,0,4.269,2.341,8.375,0l-1.5-40.625
		C62.376,0.537,59.667-0.378,56.751,0.537z"/>
	<ellipse fill="#24384F" cx="59.57" cy="0.591" rx="2.818" ry="0.591"/>
</g>
</svg>
