<?xml version="1.0" encoding="utf-8"?>
<!-- Generator: Adobe Illustrator 15.0.0, SVG Export Plug-In . SVG Version: 6.00 Build 0)  -->
<!DOCTYPE svg PUBLIC "-//W3C//DTD SVG 1.1 Tiny//EN" "http://www.w3.org/Graphics/SVG/1.1/DTD/svg11-tiny.dtd">
<svg version="1.1" baseProfile="tiny" id="_x31_5_x7E_21"
	 xmlns="http://www.w3.org/2000/svg" xmlns:xlink="http://www.w3.org/1999/xlink" x="0px" y="0px" width="150.795px"
	 height="89.215px" viewBox="0 0 150.795 89.215" xml:space="preserve">
<g>
	<rect x="70.068" y="38.841" fill="#96A8C2" width="80.625" height="13.75"/>
	<polygon fill="#304561" points="150.795,76.341 125.412,89.183 121.49,88.169 121.49,52.518 125.418,51.655 150.795,38.814 	"/>
	<polygon fill="#304561" points="63.002,38.782 37.164,39.181 37.229,26.215 63.002,14.189 	"/>
	<polygon fill="#304561" points="87.76,45.619 75.934,51.653 75.934,39.034 87.76,32.84 	"/>
	<polygon fill="#00003B" points="148.168,54.963 128.814,64.733 128.814,57.51 148.168,47.74 	"/>
	<linearGradient id="SVGID_1_" gradientUnits="userSpaceOnUse" x1="138.4043" y1="52.292" x2="138.5557" y2="59.1096">
		<stop  offset="0" style="stop-color:#AAAAAA"/>
		<stop  offset="0.5056" style="stop-color:#EBEBEB"/>
		<stop  offset="1" style="stop-color:#B4B4B4"/>
	</linearGradient>
	<polygon fill="url(#SVGID_1_)" points="147.566,54.592 129.416,63.761 129.416,57.88 147.566,48.711 	"/>
	<polygon fill="#96A8C2" points="87.76,32.84 49.168,32.84 37.352,39.04 75.945,39.04 	"/>
	<polygon fill="#96A8C2" points="37.328,26.215 63.008,14.111 25.68,14.111 0,26.215 0,27.801 37.328,27.801 	"/>
	<g>
		<rect x="99.479" y="45.109" fill="#00003B" width="10.229" height="1.746"/>
		<linearGradient id="SVGID_2_" gradientUnits="userSpaceOnUse" x1="107.1924" y1="23.5444" x2="99.9432" y2="23.5444">
			<stop  offset="0" style="stop-color:#00034E"/>
			<stop  offset="0.1734" style="stop-color:#0D155A"/>
			<stop  offset="0.519" style="stop-color:#2F437A"/>
			<stop  offset="0.5337" style="stop-color:#31457B"/>
			<stop  offset="0.5613" style="stop-color:#2D3F77"/>
			<stop  offset="0.7469" style="stop-color:#141D61"/>
			<stop  offset="0.8998" style="stop-color:#050853"/>
			<stop  offset="1" style="stop-color:#00004E"/>
		</linearGradient>
		<polygon fill="url(#SVGID_2_)" points="107.799,1.121 101.549,1.121 100.191,45.968 109.014,45.968 		"/>
		<linearGradient id="SVGID_3_" gradientUnits="userSpaceOnUse" x1="106.6982" y1="1.0674" x2="99.4482" y2="1.1924">
			<stop  offset="0" style="stop-color:#30304D"/>
			<stop  offset="0.5055" style="stop-color:#9699B3"/>
			<stop  offset="1" style="stop-color:#30304D"/>
		</linearGradient>
		<rect x="100.969" fill="url(#SVGID_3_)" width="7.375" height="2.205"/>
	</g>
	<g>
		<rect x="117.479" y="45.109" fill="#00003B" width="10.229" height="1.746"/>
		<linearGradient id="SVGID_4_" gradientUnits="userSpaceOnUse" x1="125.1924" y1="23.5444" x2="117.9432" y2="23.5444">
			<stop  offset="0" style="stop-color:#00034E"/>
			<stop  offset="0.1734" style="stop-color:#0D155A"/>
			<stop  offset="0.519" style="stop-color:#2F437A"/>
			<stop  offset="0.5337" style="stop-color:#31457B"/>
			<stop  offset="0.5613" style="stop-color:#2D3F77"/>
			<stop  offset="0.7469" style="stop-color:#141D61"/>
			<stop  offset="0.8998" style="stop-color:#050853"/>
			<stop  offset="1" style="stop-color:#00004E"/>
		</linearGradient>
		<polygon fill="url(#SVGID_4_)" points="125.799,1.121 119.549,1.121 118.191,45.968 127.014,45.968 		"/>
		<linearGradient id="SVGID_5_" gradientUnits="userSpaceOnUse" x1="124.6982" y1="1.0679" x2="117.4482" y2="1.1929">
			<stop  offset="0" style="stop-color:#30304D"/>
			<stop  offset="0.5055" style="stop-color:#9699B3"/>
			<stop  offset="1" style="stop-color:#30304D"/>
		</linearGradient>
		<rect x="118.969" fill="url(#SVGID_5_)" width="7.375" height="2.205"/>
	</g>
	<polygon fill="#486680" points="125.418,89.214 0.104,89.214 0.104,26.215 37.328,26.215 37.352,39.04 75.934,39.04 75.934,51.716 
		125.418,51.66 	"/>
	<g>
		<rect x="5.822" y="45.684" fill="#00003B" width="9.846" height="6.893"/>
		<linearGradient id="SVGID_6_" gradientUnits="userSpaceOnUse" x1="14.668" y1="45.7158" x2="6.5098" y2="52.7402">
			<stop  offset="0" style="stop-color:#AAAAAA"/>
			<stop  offset="0.5056" style="stop-color:#EBEBEB"/>
			<stop  offset="1" style="stop-color:#B4B4B4"/>
		</linearGradient>
		<rect x="6.459" y="46.185" fill="url(#SVGID_6_)" width="8.613" height="5.781"/>
	</g>
	<g>
		<rect x="29.154" y="45.684" fill="#00003B" width="9.848" height="6.893"/>
		<linearGradient id="SVGID_7_" gradientUnits="userSpaceOnUse" x1="38.002" y1="45.7153" x2="29.8438" y2="52.7397">
			<stop  offset="0" style="stop-color:#AAAAAA"/>
			<stop  offset="0.5056" style="stop-color:#EBEBEB"/>
			<stop  offset="1" style="stop-color:#B4B4B4"/>
		</linearGradient>
		<rect x="29.793" y="46.185" fill="url(#SVGID_7_)" width="8.613" height="5.781"/>
	</g>
	<rect x="12.645" y="78.737" fill="#282828" width="12.799" height="10.479"/>
	<rect x="75.625" y="57.656" fill="#00003B" width="46.707" height="7.042"/>
	<linearGradient id="SVGID_8_" gradientUnits="userSpaceOnUse" x1="99.7158" y1="58.2437" x2="98.0489" y2="65.2122">
		<stop  offset="0" style="stop-color:#AAAAAA"/>
		<stop  offset="0.5056" style="stop-color:#EBEBEB"/>
		<stop  offset="1" style="stop-color:#B4B4B4"/>
	</linearGradient>
	<rect x="76.303" y="58.237" fill="url(#SVGID_8_)" width="45.447" height="5.783"/>
	<g>
		<rect x="17.988" y="45.684" fill="#00003B" width="9.104" height="6.893"/>
		<linearGradient id="SVGID_9_" gradientUnits="userSpaceOnUse" x1="26.2334" y1="45.9209" x2="18.5722" y2="52.5174">
			<stop  offset="0" style="stop-color:#AAAAAA"/>
			<stop  offset="0.5056" style="stop-color:#EBEBEB"/>
			<stop  offset="1" style="stop-color:#B4B4B4"/>
		</linearGradient>
		<rect x="18.676" y="46.185" fill="url(#SVGID_9_)" width="7.785" height="5.781"/>
	</g>
	<g>
		<rect x="41.238" y="45.684" fill="#00003B" width="9.104" height="6.893"/>
		<linearGradient id="SVGID_10_" gradientUnits="userSpaceOnUse" x1="49.4834" y1="45.9204" x2="41.8222" y2="52.5169">
			<stop  offset="0" style="stop-color:#AAAAAA"/>
			<stop  offset="0.5056" style="stop-color:#EBEBEB"/>
			<stop  offset="1" style="stop-color:#B4B4B4"/>
		</linearGradient>
		<rect x="41.926" y="46.185" fill="url(#SVGID_10_)" width="7.785" height="5.781"/>
	</g>
	<g>
		<rect x="5.822" y="57.35" fill="#00003B" width="9.846" height="6.893"/>
		<linearGradient id="SVGID_11_" gradientUnits="userSpaceOnUse" x1="14.668" y1="57.3818" x2="6.5097" y2="64.4063">
			<stop  offset="0" style="stop-color:#AAAAAA"/>
			<stop  offset="0.5056" style="stop-color:#EBEBEB"/>
			<stop  offset="1" style="stop-color:#B4B4B4"/>
		</linearGradient>
		<rect x="6.459" y="57.852" fill="url(#SVGID_11_)" width="8.613" height="5.781"/>
	</g>
	<g>
		<rect x="29.154" y="57.35" fill="#00003B" width="9.848" height="6.893"/>
		<linearGradient id="SVGID_12_" gradientUnits="userSpaceOnUse" x1="38.002" y1="57.3818" x2="29.8437" y2="64.4063">
			<stop  offset="0" style="stop-color:#AAAAAA"/>
			<stop  offset="0.5056" style="stop-color:#EBEBEB"/>
			<stop  offset="1" style="stop-color:#B4B4B4"/>
		</linearGradient>
		<rect x="29.793" y="57.852" fill="url(#SVGID_12_)" width="8.613" height="5.781"/>
	</g>
	<g>
		<rect x="17.988" y="57.35" fill="#00003B" width="9.104" height="6.893"/>
		<linearGradient id="SVGID_13_" gradientUnits="userSpaceOnUse" x1="26.2324" y1="57.5864" x2="18.5713" y2="64.1829">
			<stop  offset="0" style="stop-color:#AAAAAA"/>
			<stop  offset="0.5056" style="stop-color:#EBEBEB"/>
			<stop  offset="1" style="stop-color:#B4B4B4"/>
		</linearGradient>
		<rect x="18.676" y="57.852" fill="url(#SVGID_13_)" width="7.785" height="5.781"/>
	</g>
	<g>
		<rect x="41.238" y="57.35" fill="#00003B" width="9.104" height="6.893"/>
		<linearGradient id="SVGID_14_" gradientUnits="userSpaceOnUse" x1="49.4834" y1="57.5869" x2="41.8223" y2="64.1833">
			<stop  offset="0" style="stop-color:#AAAAAA"/>
			<stop  offset="0.5056" style="stop-color:#EBEBEB"/>
			<stop  offset="1" style="stop-color:#B4B4B4"/>
		</linearGradient>
		<rect x="41.926" y="57.852" fill="url(#SVGID_14_)" width="7.785" height="5.781"/>
	</g>
</g>
</svg>
