<?xml version="1.0" encoding="utf-8"?>
<!-- Generator: Adobe Illustrator 15.0.0, SVG Export Plug-In . SVG Version: 6.00 Build 0)  -->
<!DOCTYPE svg PUBLIC "-//W3C//DTD SVG 1.1 Tiny//EN" "http://www.w3.org/Graphics/SVG/1.1/DTD/svg11-tiny.dtd">
<svg version="1.1" baseProfile="tiny" id="_x32_2_x7E_28"
	 xmlns="http://www.w3.org/2000/svg" xmlns:xlink="http://www.w3.org/1999/xlink" x="0px" y="0px" width="91.584px" height="90.6px"
	 viewBox="0 0 91.584 90.6" xml:space="preserve">
<g>
	<polygon fill="#AAAAAA" points="76.854,29.783 74.037,33.441 2.23,33.441 0.531,29.816 15.261,22.316 91.584,22.316 	"/>
	<polygon fill="#8C8C8C" points="91.521,83.004 76.322,90.6 71.313,88.91 71.313,32.008 76.322,29.976 91.521,22.38 	"/>
	<rect y="29.976" fill="#D2D2D2" width="76.323" height="60.624"/>
	<g>
		<linearGradient id="SVGID_1_" gradientUnits="userSpaceOnUse" x1="18.6816" y1="39.249" x2="4.878" y2="53.8651">
			<stop  offset="0" style="stop-color:#DBD2D2"/>
			<stop  offset="0.1451" style="stop-color:#E6E0E0"/>
			<stop  offset="0.3846" style="stop-color:#FFFFFF"/>
			<stop  offset="0.7418" style="stop-color:#D9D2D2"/>
			<stop  offset="1" style="stop-color:#FFFFFF"/>
		</linearGradient>
		<rect x="5.754" y="40.314" fill="url(#SVGID_1_)" width="11.756" height="12.798"/>
		<polygon points="18.003,40.78 6.636,40.754 6.658,53.551 5.206,53.551 5.206,39.41 18.003,39.41 		"/>
		<polygon fill="#B4B4B4" points="17.985,40.77 17.217,40.77 17.191,52.776 6.658,52.776 6.658,53.551 17.985,53.551 		"/>
	</g>
	<g>
		<linearGradient id="SVGID_2_" gradientUnits="userSpaceOnUse" x1="36.4312" y1="39.249" x2="22.6276" y2="53.8651">
			<stop  offset="0" style="stop-color:#DBD2D2"/>
			<stop  offset="0.1451" style="stop-color:#E6E0E0"/>
			<stop  offset="0.3846" style="stop-color:#FFFFFF"/>
			<stop  offset="0.7418" style="stop-color:#D9D2D2"/>
			<stop  offset="1" style="stop-color:#FFFFFF"/>
		</linearGradient>
		<rect x="23.504" y="40.314" fill="url(#SVGID_2_)" width="11.756" height="12.798"/>
		<polygon points="35.753,40.78 24.386,40.754 24.408,53.551 22.956,53.551 22.956,39.41 35.753,39.41 		"/>
		<polygon fill="#B4B4B4" points="35.735,40.77 34.967,40.77 34.941,52.776 24.408,52.776 24.408,53.551 35.735,53.551 		"/>
	</g>
	<g>
		<linearGradient id="SVGID_3_" gradientUnits="userSpaceOnUse" x1="54.0562" y1="39.249" x2="40.2526" y2="53.8651">
			<stop  offset="0" style="stop-color:#DBD2D2"/>
			<stop  offset="0.1451" style="stop-color:#E6E0E0"/>
			<stop  offset="0.3846" style="stop-color:#FFFFFF"/>
			<stop  offset="0.7418" style="stop-color:#D9D2D2"/>
			<stop  offset="1" style="stop-color:#FFFFFF"/>
		</linearGradient>
		<rect x="41.129" y="40.314" fill="url(#SVGID_3_)" width="11.756" height="12.798"/>
		<polygon points="53.378,40.78 42.011,40.754 42.033,53.551 40.581,53.551 40.581,39.41 53.378,39.41 		"/>
		<polygon fill="#B4B4B4" points="53.36,40.77 52.592,40.77 52.566,52.776 42.033,52.776 42.033,53.551 53.36,53.551 		"/>
	</g>
	<g>
		<linearGradient id="SVGID_4_" gradientUnits="userSpaceOnUse" x1="71.8066" y1="39.249" x2="58.0031" y2="53.8651">
			<stop  offset="0" style="stop-color:#DBD2D2"/>
			<stop  offset="0.1451" style="stop-color:#E6E0E0"/>
			<stop  offset="0.3846" style="stop-color:#FFFFFF"/>
			<stop  offset="0.7418" style="stop-color:#D9D2D2"/>
			<stop  offset="1" style="stop-color:#FFFFFF"/>
		</linearGradient>
		<rect x="58.879" y="40.314" fill="url(#SVGID_4_)" width="11.756" height="12.798"/>
		<polygon points="71.128,40.78 59.761,40.754 59.783,53.551 58.331,53.551 58.331,39.41 71.128,39.41 		"/>
		<polygon fill="#B4B4B4" points="71.11,40.77 70.342,40.77 70.316,52.776 59.783,52.776 59.783,53.551 71.11,53.551 		"/>
	</g>
	<rect x="32.24" y="73.629" fill="#463232" width="11.188" height="16.949"/>
	<rect x="33.115" y="74.379" fill="#ADA1A3" width="9.429" height="16.216"/>
	<polygon fill="#756464" points="34.68,27.26 23.275,27.26 29.178,22.316 43.428,22.316 	"/>
	<polygon fill="#756464" points="67.847,27.26 56.442,27.26 63.178,22.316 77.428,22.316 	"/>
	<g>
		<linearGradient id="SVGID_5_" gradientUnits="userSpaceOnUse" x1="31.4233" y1="15.3877" x2="23.9248" y2="15.3877">
			<stop  offset="0" style="stop-color:#87454A"/>
			<stop  offset="0.5" style="stop-color:#D1C4B8"/>
			<stop  offset="1" style="stop-color:#87454A"/>
		</linearGradient>
		<rect x="24.623" y="4.189" fill="url(#SVGID_5_)" width="8.377" height="22.396"/>
		<rect x="24.623" y="0.531" fill="#6B454A" width="8.377" height="5.876"/>
		<linearGradient id="SVGID_6_" gradientUnits="userSpaceOnUse" x1="31.4233" y1="2.7637" x2="20.4497" y2="2.7637">
			<stop  offset="0" style="stop-color:#6B454A"/>
			<stop  offset="0.489" style="stop-color:#B18886"/>
			<stop  offset="1" style="stop-color:#6E454A"/>
		</linearGradient>
		<rect x="23.227" fill="url(#SVGID_6_)" width="11.053" height="5.527"/>
	</g>
	<g>
		<linearGradient id="SVGID_7_" gradientUnits="userSpaceOnUse" x1="65.0527" y1="19.5537" x2="53.9277" y2="19.5537">
			<stop  offset="0" style="stop-color:#87454A"/>
			<stop  offset="0.5" style="stop-color:#D1C4B8"/>
			<stop  offset="1" style="stop-color:#87454A"/>
		</linearGradient>
		<rect x="58.373" y="12.522" fill="url(#SVGID_7_)" width="8.377" height="14.063"/>
		<rect x="58.373" y="11.553" fill="#6B454A" width="8.377" height="4.072"/>
		<linearGradient id="SVGID_8_" gradientUnits="userSpaceOnUse" x1="66.186" y1="11.8916" x2="54.311" y2="12.0166">
			<stop  offset="0" style="stop-color:#6B454A"/>
			<stop  offset="0.489" style="stop-color:#B18886"/>
			<stop  offset="1" style="stop-color:#6E454A"/>
		</linearGradient>
		<rect x="56.977" y="9.167" fill="url(#SVGID_8_)" width="11.053" height="5.526"/>
	</g>
</g>
</svg>
