<?xml version="1.0" encoding="utf-8"?>
<!-- Generator: Adobe Illustrator 15.0.0, SVG Export Plug-In . SVG Version: 6.00 Build 0)  -->
<!DOCTYPE svg PUBLIC "-//W3C//DTD SVG 1.1 Tiny//EN" "http://www.w3.org/Graphics/SVG/1.1/DTD/svg11-tiny.dtd">
<svg version="1.1" baseProfile="tiny" id="_x33_6_x7E_42"
	 xmlns="http://www.w3.org/2000/svg" xmlns:xlink="http://www.w3.org/1999/xlink" x="0px" y="0px" width="90.711px"
	 height="93.232px" viewBox="0 0 90.711 93.232" xml:space="preserve">
<g>
	<polygon fill="#5C6685" points="86.443,20.827 73.148,22.826 36.434,20.327 36.262,8.932 55.271,0 90.699,11.25 	"/>
	<polygon fill="#697587" points="36.303,11.106 55.271,0 16.854,11.5 0,19.632 0.938,21.037 34.438,21.037 	"/>
	<polygon fill="#30304D" points="90.699,83.871 72.926,93.232 64.949,90.749 64.949,22.127 72.926,19.632 90.699,11.25 	"/>
	<polygon fill="#94A8BF" points="72.926,93.232 0.008,93.232 0.008,19.632 36.434,11.116 72.926,19.632 	"/>
	<g>
		<rect x="0.008" y="87.997" fill="#6A7599" width="72.918" height="0.728"/>
		<polygon fill="#6A7599" points="90.711,79.219 72.926,87.997 71.496,87.997 71.496,88.725 72.926,88.725 90.711,79.946 		"/>
		<rect x="0.008" y="19.638" fill="#6A7599" width="72.918" height="0.728"/>
		<rect x="4.277" y="19.956" fill="#6A7599" width="0.705" height="68.563"/>
		<rect x="13.277" y="19.956" fill="#6A7599" width="0.705" height="68.563"/>
		<rect x="22.246" y="19.956" fill="#6A7599" width="0.705" height="68.563"/>
		<rect x="31.246" y="19.956" fill="#6A7599" width="0.705" height="68.563"/>
		<rect x="40.246" y="19.956" fill="#6A7599" width="0.705" height="68.563"/>
		<rect x="49.934" y="19.956" fill="#6A7599" width="0.705" height="68.563"/>
		<rect x="58.996" y="19.956" fill="#6A7599" width="0.705" height="68.563"/>
		<rect x="67.893" y="19.956" fill="#6A7599" width="0.703" height="68.563"/>
		<polygon fill="#6A7599" points="76.492,86.894 75.787,86.894 75.787,18.33 76.537,17.953 		"/>
		<polygon fill="#6A7599" points="79.189,85.581 78.484,85.581 78.484,17.018 79.234,16.641 		"/>
		<polygon fill="#6A7599" points="81.461,84.553 80.758,84.553 80.758,15.989 81.506,15.612 		"/>
		<polygon fill="#6A7599" points="83.697,83.452 82.992,83.452 82.992,14.889 83.742,14.512 		"/>
		<polygon fill="#6A7599" points="85.648,82.565 84.943,82.565 84.943,14.002 85.693,13.625 		"/>
		<polygon fill="#6A7599" points="87.529,81.713 86.824,81.713 86.824,13.149 87.574,12.772 		"/>
		<polygon fill="#6A7599" points="89.41,80.79 88.705,80.79 88.705,12.227 89.455,11.85 		"/>
	</g>
	<rect x="24.529" y="33.075" fill="#1E1E1E" width="23.943" height="53.573"/>
	<rect x="25.529" y="33.992" fill="#D6E8FF" width="21.943" height="51.739"/>
	<rect x="29.445" y="37.825" fill="#30304D" width="14.74" height="44.239"/>
	<rect x="30.178" y="38.575" fill="#D2D9E3" width="13.277" height="42.656"/>
	<rect x="26.52" y="56.5" fill="#30304D" width="1.334" height="4.334"/>
	<linearGradient id="SVGID_1_" gradientUnits="userSpaceOnUse" x1="47.0195" y1="42.167" x2="48.3535" y2="42.167">
		<stop  offset="0.0056" style="stop-color:#2D2C32"/>
		<stop  offset="0.0463" style="stop-color:#333337"/>
		<stop  offset="0.1399" style="stop-color:#3C3C3E"/>
		<stop  offset="0.2697" style="stop-color:#3F3F40"/>
		<stop  offset="0.3669" style="stop-color:#555457"/>
		<stop  offset="0.4641" style="stop-color:#656367"/>
		<stop  offset="0.5393" style="stop-color:#6A686D"/>
		<stop  offset="0.7809" style="stop-color:#3D3F40"/>
		<stop  offset="0.963" style="stop-color:#2C2F34"/>
		<stop  offset="0.9944" style="stop-color:#282C32"/>
	</linearGradient>
	<rect x="47.02" y="40" fill="url(#SVGID_1_)" width="1.334" height="4.334"/>
	<linearGradient id="SVGID_2_" gradientUnits="userSpaceOnUse" x1="47.0195" y1="60.834" x2="48.3535" y2="60.834">
		<stop  offset="0.0056" style="stop-color:#2D2C32"/>
		<stop  offset="0.0463" style="stop-color:#333337"/>
		<stop  offset="0.1399" style="stop-color:#3C3C3E"/>
		<stop  offset="0.2697" style="stop-color:#3F3F40"/>
		<stop  offset="0.3669" style="stop-color:#555457"/>
		<stop  offset="0.4641" style="stop-color:#656367"/>
		<stop  offset="0.5393" style="stop-color:#6A686D"/>
		<stop  offset="0.7809" style="stop-color:#3D3F40"/>
		<stop  offset="0.963" style="stop-color:#2C2F34"/>
		<stop  offset="0.9944" style="stop-color:#282C32"/>
	</linearGradient>
	<rect x="47.02" y="58.667" fill="url(#SVGID_2_)" width="1.334" height="4.334"/>
	<linearGradient id="SVGID_3_" gradientUnits="userSpaceOnUse" x1="47.0195" y1="76.751" x2="48.3535" y2="76.751">
		<stop  offset="0.0056" style="stop-color:#2D2C32"/>
		<stop  offset="0.0463" style="stop-color:#333337"/>
		<stop  offset="0.1399" style="stop-color:#3C3C3E"/>
		<stop  offset="0.2697" style="stop-color:#3F3F40"/>
		<stop  offset="0.3669" style="stop-color:#555457"/>
		<stop  offset="0.4641" style="stop-color:#656367"/>
		<stop  offset="0.5393" style="stop-color:#6A686D"/>
		<stop  offset="0.7809" style="stop-color:#3D3F40"/>
		<stop  offset="0.963" style="stop-color:#2C2F34"/>
		<stop  offset="0.9944" style="stop-color:#282C32"/>
	</linearGradient>
	<rect x="47.02" y="74.584" fill="url(#SVGID_3_)" width="1.334" height="4.334"/>
	<polygon fill="#505050" points="71.559,93.232 0.008,93.232 0.008,88.615 73.531,88.615 	"/>
	<polygon fill="#505050" points="90.699,83.871 72.926,93.232 65.494,93.232 65.494,88.615 72.926,88.615 90.699,79.946 	"/>
</g>
</svg>
