<?xml version="1.0" encoding="utf-8"?>
<!-- Generator: Adobe Illustrator 15.0.0, SVG Export Plug-In . SVG Version: 6.00 Build 0)  -->
<!DOCTYPE svg PUBLIC "-//W3C//DTD SVG 1.1 Tiny//EN" "http://www.w3.org/Graphics/SVG/1.1/DTD/svg11-tiny.dtd">
<svg version="1.1" baseProfile="tiny" id="_x32_9_x7E_35"
	 xmlns="http://www.w3.org/2000/svg" xmlns:xlink="http://www.w3.org/1999/xlink" x="0px" y="0px" width="159.129px"
	 height="79.716px" viewBox="0 0 159.129 79.716" xml:space="preserve">
<g>
	<polygon fill="#6B454A" points="159.129,69.91 138.879,79.716 134.508,78.117 136.107,41.983 138.879,39.639 159.129,29.833 	"/>
	<polygon fill="#D1B8B8" points="138.879,39.639 135.469,42.091 93.898,42.091 93.047,39.639 113.289,29.801 159.121,29.801 	"/>
	<polygon fill="#9E8070" points="46.371,13.625 44.125,18.65 2.564,18.65 0,13.625 26.848,0 73.217,0 	"/>
	<polygon fill="#826E63" points="73.24,66.037 46.371,79.65 43.914,78.453 43.914,14.734 46.371,13.625 73.24,0.012 	"/>
	<rect y="13.625" fill="#B5A685" width="46.371" height="66.025"/>
	<g>
		<rect x="2.461" y="20.032" width="41.461" height="6.796"/>
		<linearGradient id="SVGID_1_" gradientUnits="userSpaceOnUse" x1="24.0693" y1="20.0801" x2="22.0283" y2="28.2441">
			<stop  offset="0" style="stop-color:#D9C7C7"/>
			<stop  offset="0.1038" style="stop-color:#DFD2D2"/>
			<stop  offset="0.3582" style="stop-color:#EBE8E8"/>
			<stop  offset="0.522" style="stop-color:#F0F0F0"/>
			<stop  offset="0.6652" style="stop-color:#ECE9E9"/>
			<stop  offset="0.8676" style="stop-color:#E2D7D7"/>
			<stop  offset="1" style="stop-color:#D9C7C7"/>
		</linearGradient>
		<rect x="3.287" y="20.794" fill="url(#SVGID_1_)" width="39.873" height="5.335"/>
		<polygon points="70.281,17.403 49.785,26.578 49.785,19.782 70.281,10.607 		"/>
		<linearGradient id="SVGID_2_" gradientUnits="userSpaceOnUse" x1="59.4883" y1="15.7891" x2="60.7383" y2="21.7891">
			<stop  offset="0" style="stop-color:#D9C7C7"/>
			<stop  offset="0.1038" style="stop-color:#DFD2D2"/>
			<stop  offset="0.3582" style="stop-color:#EBE8E8"/>
			<stop  offset="0.522" style="stop-color:#F0F0F0"/>
			<stop  offset="0.6652" style="stop-color:#ECE9E9"/>
			<stop  offset="0.8676" style="stop-color:#E2D7D7"/>
			<stop  offset="1" style="stop-color:#D9C7C7"/>
		</linearGradient>
		<polygon fill="url(#SVGID_2_)" points="69.518,16.704 50.609,25.291 50.609,20.544 69.518,11.809 		"/>
		<polygon points="70.281,30.312 49.785,39.486 49.785,32.69 70.281,23.516 		"/>
		<linearGradient id="SVGID_3_" gradientUnits="userSpaceOnUse" x1="59.8594" y1="27.8574" x2="60.2343" y2="34.4819">
			<stop  offset="0" style="stop-color:#D9C7C7"/>
			<stop  offset="0.1038" style="stop-color:#DFD2D2"/>
			<stop  offset="0.3582" style="stop-color:#EBE8E8"/>
			<stop  offset="0.522" style="stop-color:#F0F0F0"/>
			<stop  offset="0.6652" style="stop-color:#ECE9E9"/>
			<stop  offset="0.8676" style="stop-color:#E2D7D7"/>
			<stop  offset="1" style="stop-color:#D9C7C7"/>
		</linearGradient>
		<polygon fill="url(#SVGID_3_)" points="69.518,29.612 50.609,38.199 50.609,33.452 69.518,24.717 		"/>
		<rect x="2.461" y="32.878" width="41.461" height="6.796"/>
		<linearGradient id="SVGID_4_" gradientUnits="userSpaceOnUse" x1="24.0693" y1="32.9248" x2="22.0283" y2="41.0889">
			<stop  offset="0" style="stop-color:#D9C7C7"/>
			<stop  offset="0.1038" style="stop-color:#DFD2D2"/>
			<stop  offset="0.3582" style="stop-color:#EBE8E8"/>
			<stop  offset="0.522" style="stop-color:#F0F0F0"/>
			<stop  offset="0.6652" style="stop-color:#ECE9E9"/>
			<stop  offset="0.8676" style="stop-color:#E2D7D7"/>
			<stop  offset="1" style="stop-color:#D9C7C7"/>
		</linearGradient>
		<rect x="3.287" y="33.64" fill="url(#SVGID_4_)" width="39.873" height="5.335"/>
	</g>
	<polygon fill="#7A6E78" points="98.73,48.91 59.98,48.91 59.98,46.488 73.26,39.867 98.73,39.867 	"/>
	<rect x="59.98" y="46.488" fill="#9C9696" width="38.75" height="26.125"/>
	<rect x="73.941" y="62.724" width="12.734" height="9.877"/>
	<g>
		<rect x="74.662" y="63.5" fill="#C8C8C8" width="5.299" height="9.128"/>
		<rect x="80.684" y="63.5" fill="#C8C8C8" width="5.271" height="9.128"/>
	</g>
	<rect x="16.279" y="69.783" width="12.736" height="9.877"/>
	<g>
		<rect x="17.002" y="70.56" fill="#B59685" width="5.299" height="9.128"/>
		<rect x="23.023" y="70.56" fill="#B59685" width="5.27" height="9.128"/>
	</g>
	<rect x="93.047" y="39.639" fill="#B18886" width="45.832" height="40.077"/>
	<g>
		<g>
			<rect x="95.717" y="46.259" fill="#572E29" width="8.939" height="6.669"/>
			<linearGradient id="SVGID_5_" gradientUnits="userSpaceOnUse" x1="101.9404" y1="47.6855" x2="98.3792" y2="51.4294">
				<stop  offset="0" style="stop-color:#DBD2D2"/>
				<stop  offset="0.1451" style="stop-color:#E6E0E0"/>
				<stop  offset="0.3846" style="stop-color:#FFFFFF"/>
				<stop  offset="0.7418" style="stop-color:#D9D2D2"/>
				<stop  offset="1" style="stop-color:#FFFFFF"/>
			</linearGradient>
			<rect x="96.471" y="46.871" fill="url(#SVGID_5_)" width="7.389" height="5.357"/>
		</g>
		<g>
			<rect x="106.342" y="46.259" fill="#572E29" width="8.939" height="6.669"/>
			<linearGradient id="SVGID_6_" gradientUnits="userSpaceOnUse" x1="112.5645" y1="47.6846" x2="109.0032" y2="51.4284">
				<stop  offset="0" style="stop-color:#DBD2D2"/>
				<stop  offset="0.1451" style="stop-color:#E6E0E0"/>
				<stop  offset="0.3846" style="stop-color:#FFFFFF"/>
				<stop  offset="0.7418" style="stop-color:#D9D2D2"/>
				<stop  offset="1" style="stop-color:#FFFFFF"/>
			</linearGradient>
			<rect x="107.096" y="46.871" fill="url(#SVGID_6_)" width="7.389" height="5.357"/>
		</g>
		<g>
			<rect x="116.717" y="46.259" fill="#572E29" width="8.939" height="6.669"/>
			<linearGradient id="SVGID_7_" gradientUnits="userSpaceOnUse" x1="122.9395" y1="47.6846" x2="119.3782" y2="51.4284">
				<stop  offset="0" style="stop-color:#DBD2D2"/>
				<stop  offset="0.1451" style="stop-color:#E6E0E0"/>
				<stop  offset="0.3846" style="stop-color:#FFFFFF"/>
				<stop  offset="0.7418" style="stop-color:#D9D2D2"/>
				<stop  offset="1" style="stop-color:#FFFFFF"/>
			</linearGradient>
			<rect x="117.471" y="46.871" fill="url(#SVGID_7_)" width="7.389" height="5.357"/>
		</g>
		<g>
			<rect x="127.217" y="46.259" fill="#572E29" width="8.939" height="6.669"/>
			<linearGradient id="SVGID_8_" gradientUnits="userSpaceOnUse" x1="133.4395" y1="47.6846" x2="129.8782" y2="51.4284">
				<stop  offset="0" style="stop-color:#DBD2D2"/>
				<stop  offset="0.1451" style="stop-color:#E6E0E0"/>
				<stop  offset="0.3846" style="stop-color:#FFFFFF"/>
				<stop  offset="0.7418" style="stop-color:#D9D2D2"/>
				<stop  offset="1" style="stop-color:#FFFFFF"/>
			</linearGradient>
			<rect x="127.971" y="46.871" fill="url(#SVGID_8_)" width="7.389" height="5.357"/>
		</g>
		<g>
			<polygon fill="#572E29" points="155.727,46.333 142.217,52.928 142.217,46.259 155.727,39.664 			"/>
			<linearGradient id="SVGID_9_" gradientUnits="userSpaceOnUse" x1="152.1875" y1="42.8789" x2="145.7803" y2="49.6147">
				<stop  offset="0" style="stop-color:#DBD2D2"/>
				<stop  offset="0.1451" style="stop-color:#E6E0E0"/>
				<stop  offset="0.3846" style="stop-color:#FFFFFF"/>
				<stop  offset="0.7418" style="stop-color:#D9D2D2"/>
				<stop  offset="1" style="stop-color:#FFFFFF"/>
			</linearGradient>
			<polygon fill="url(#SVGID_9_)" points="154.932,45.863 142.971,51.646 142.971,46.697 154.932,40.74 			"/>
		</g>
		<g>
			<rect x="95.717" y="69.384" fill="#572E29" width="8.939" height="6.669"/>
			<linearGradient id="SVGID_10_" gradientUnits="userSpaceOnUse" x1="101.9395" y1="70.8096" x2="98.3782" y2="74.5534">
				<stop  offset="0" style="stop-color:#DBD2D2"/>
				<stop  offset="0.1451" style="stop-color:#E6E0E0"/>
				<stop  offset="0.3846" style="stop-color:#FFFFFF"/>
				<stop  offset="0.7418" style="stop-color:#D9D2D2"/>
				<stop  offset="1" style="stop-color:#FFFFFF"/>
			</linearGradient>
			<rect x="96.471" y="69.996" fill="url(#SVGID_10_)" width="7.389" height="5.357"/>
		</g>
		<g>
			<rect x="106.342" y="69.384" fill="#572E29" width="8.939" height="6.669"/>
			<linearGradient id="SVGID_11_" gradientUnits="userSpaceOnUse" x1="112.5654" y1="70.8105" x2="109.0042" y2="74.5544">
				<stop  offset="0" style="stop-color:#DBD2D2"/>
				<stop  offset="0.1451" style="stop-color:#E6E0E0"/>
				<stop  offset="0.3846" style="stop-color:#FFFFFF"/>
				<stop  offset="0.7418" style="stop-color:#D9D2D2"/>
				<stop  offset="1" style="stop-color:#FFFFFF"/>
			</linearGradient>
			<rect x="107.096" y="69.996" fill="url(#SVGID_11_)" width="7.389" height="5.357"/>
		</g>
		<g>
			<rect x="116.717" y="69.384" fill="#572E29" width="8.939" height="6.669"/>
			<linearGradient id="SVGID_12_" gradientUnits="userSpaceOnUse" x1="122.9395" y1="70.8096" x2="119.3782" y2="74.5534">
				<stop  offset="0" style="stop-color:#DBD2D2"/>
				<stop  offset="0.1451" style="stop-color:#E6E0E0"/>
				<stop  offset="0.3846" style="stop-color:#FFFFFF"/>
				<stop  offset="0.7418" style="stop-color:#D9D2D2"/>
				<stop  offset="1" style="stop-color:#FFFFFF"/>
			</linearGradient>
			<rect x="117.471" y="69.996" fill="url(#SVGID_12_)" width="7.389" height="5.357"/>
		</g>
		<g>
			<rect x="127.217" y="69.384" fill="#572E29" width="8.939" height="6.669"/>
			<linearGradient id="SVGID_13_" gradientUnits="userSpaceOnUse" x1="133.4404" y1="70.8105" x2="129.8792" y2="74.5544">
				<stop  offset="0" style="stop-color:#DBD2D2"/>
				<stop  offset="0.1451" style="stop-color:#E6E0E0"/>
				<stop  offset="0.3846" style="stop-color:#FFFFFF"/>
				<stop  offset="0.7418" style="stop-color:#D9D2D2"/>
				<stop  offset="1" style="stop-color:#FFFFFF"/>
			</linearGradient>
			<rect x="127.971" y="69.996" fill="url(#SVGID_13_)" width="7.389" height="5.357"/>
		</g>
		<rect x="147.623" y="43.753" fill="#572E29" width="0.684" height="5.679"/>
		<rect x="152" y="41.773" fill="#572E29" width="0.684" height="5.679"/>
		<g>
			<polygon fill="#572E29" points="155.727,69.167 142.217,75.762 142.217,69.093 155.727,62.498 			"/>
			<linearGradient id="SVGID_14_" gradientUnits="userSpaceOnUse" x1="152.1875" y1="65.7129" x2="145.7803" y2="72.4487">
				<stop  offset="0" style="stop-color:#DBD2D2"/>
				<stop  offset="0.1451" style="stop-color:#E6E0E0"/>
				<stop  offset="0.3846" style="stop-color:#FFFFFF"/>
				<stop  offset="0.7418" style="stop-color:#D9D2D2"/>
				<stop  offset="1" style="stop-color:#FFFFFF"/>
			</linearGradient>
			<polygon fill="url(#SVGID_14_)" points="154.932,68.697 142.971,74.48 142.971,69.531 154.932,63.574 			"/>
		</g>
		<rect x="147.623" y="66.587" fill="#572E29" width="0.684" height="5.679"/>
		<rect x="152" y="64.607" fill="#572E29" width="0.684" height="5.679"/>
	</g>
</g>
</svg>
