<?xml version="1.0" encoding="utf-8"?>
<!-- Generator: Adobe Illustrator 15.0.0, SVG Export Plug-In . SVG Version: 6.00 Build 0)  -->
<!DOCTYPE svg PUBLIC "-//W3C//DTD SVG 1.1 Tiny//EN" "http://www.w3.org/Graphics/SVG/1.1/DTD/svg11-tiny.dtd">
<svg version="1.1" baseProfile="tiny" id="_x33_6_x7E_42"
	 xmlns="http://www.w3.org/2000/svg" xmlns:xlink="http://www.w3.org/1999/xlink" x="0px" y="0px" width="86.973px"
	 height="91.25px" viewBox="0 0 86.973 91.25" xml:space="preserve">
<g>
	<polygon fill="#A18270" points="83.189,3.854 68.098,9.25 68.098,12 9.848,12 9.848,9.25 28.723,0 86.973,0 	"/>
	<polygon fill="#876345" points="86.973,77.625 68.098,86.875 64.223,85.125 64.223,11.125 68.098,9.25 86.973,0 	"/>
	<rect x="9.848" y="9.25" fill="#E0CFA3" width="58.25" height="77.625"/>
	<g>
		<rect x="28.654" y="9.25" fill="#572E29" width="0.738" height="77.625"/>
		<rect x="48.068" y="9.25" fill="#572E29" width="0.738" height="77.625"/>
		<polygon fill="#572E29" points="74.365,83.766 73.627,84.125 73.627,6.547 74.365,6.156 		"/>
		<polygon fill="#572E29" points="81.115,80.484 80.377,80.844 80.377,3.266 81.115,2.875 		"/>
		<rect x="9.848" y="47.875" fill="#572E29" width="58.25" height="0.75"/>
		<polygon fill="#572E29" points="86.973,40.649 68.098,48.414 64.848,48.625 64.848,47.875 68.098,47.664 86.973,39.899 		"/>
	</g>
	<linearGradient id="SVGID_1_" gradientUnits="userSpaceOnUse" x1="27.3008" y1="63.6875" x2="28.9678" y2="66.0205">
		<stop  offset="0" style="stop-color:#A0A0A0"/>
		<stop  offset="0.9945" style="stop-color:#DCDCDC"/>
	</linearGradient>
	<polygon fill="url(#SVGID_1_)" points="48.283,49.149 9.658,86.774 9.658,83.774 48.283,45.274 	"/>
	<linearGradient id="SVGID_2_" gradientUnits="userSpaceOnUse" x1="52.3193" y1="53.1895" x2="58.5057" y2="39.3734">
		<stop  offset="0" style="stop-color:#C8C8C8"/>
		<stop  offset="0.9945" style="stop-color:#FFFFFF"/>
	</linearGradient>
	<polygon fill="url(#SVGID_2_)" points="68.098,47.875 48.848,47.875 38.723,53.625 58.598,53.625 	"/>
	<g>
		<linearGradient id="SVGID_3_" gradientUnits="userSpaceOnUse" x1="15.917" y1="19.1455" x2="26.0864" y2="31.3584">
			<stop  offset="0" style="stop-color:#D1FFFF"/>
			<stop  offset="0.1242" style="stop-color:#DFFFFF"/>
			<stop  offset="0.3352" style="stop-color:#FFFFFF"/>
			<stop  offset="0.6813" style="stop-color:#D1FFFF"/>
			<stop  offset="1" style="stop-color:#FFFFFF"/>
		</linearGradient>
		<rect x="12.283" y="16.105" fill="url(#SVGID_3_)" width="14.461" height="14.719"/>
		<polygon points="26.402,16.563 12.654,16.592 12.627,31.282 11.912,31.282 11.912,15.763 26.402,15.763 		"/>
		<polygon fill="#C8C8C8" points="12.455,30.596 26.43,30.652 26.402,15.734 27.23,15.734 27.23,31.281 12.455,31.281 		"/>
	</g>
	<g>
		<linearGradient id="SVGID_4_" gradientUnits="userSpaceOnUse" x1="35.001" y1="19.1455" x2="45.1704" y2="31.3584">
			<stop  offset="0" style="stop-color:#D1FFFF"/>
			<stop  offset="0.1242" style="stop-color:#DFFFFF"/>
			<stop  offset="0.3352" style="stop-color:#FFFFFF"/>
			<stop  offset="0.6813" style="stop-color:#D1FFFF"/>
			<stop  offset="1" style="stop-color:#FFFFFF"/>
		</linearGradient>
		<rect x="31.367" y="16.105" fill="url(#SVGID_4_)" width="14.461" height="14.719"/>
		<polygon points="45.486,16.563 31.738,16.592 31.711,31.282 30.996,31.282 30.996,15.763 45.486,15.763 		"/>
		<polygon fill="#C8C8C8" points="31.539,30.596 45.514,30.652 45.486,15.734 46.314,15.734 46.314,31.281 31.539,31.281 		"/>
	</g>
	<g>
		<linearGradient id="SVGID_5_" gradientUnits="userSpaceOnUse" x1="15.917" y1="57.7139" x2="26.0864" y2="69.9268">
			<stop  offset="0" style="stop-color:#D1FFFF"/>
			<stop  offset="0.1242" style="stop-color:#DFFFFF"/>
			<stop  offset="0.3352" style="stop-color:#FFFFFF"/>
			<stop  offset="0.6813" style="stop-color:#D1FFFF"/>
			<stop  offset="1" style="stop-color:#FFFFFF"/>
		</linearGradient>
		<rect x="12.283" y="54.674" fill="url(#SVGID_5_)" width="14.461" height="14.719"/>
		<polygon points="26.402,55.132 12.654,55.16 12.627,69.851 11.912,69.851 11.912,54.331 26.402,54.331 		"/>
		<polygon fill="#C8C8C8" points="12.455,69.164 26.43,69.221 26.402,54.303 27.23,54.303 27.23,69.85 12.455,69.85 		"/>
	</g>
	<g>
		<linearGradient id="SVGID_6_" gradientUnits="userSpaceOnUse" x1="35.001" y1="57.7139" x2="45.1704" y2="69.9268">
			<stop  offset="0" style="stop-color:#D1FFFF"/>
			<stop  offset="0.1242" style="stop-color:#DFFFFF"/>
			<stop  offset="0.3352" style="stop-color:#FFFFFF"/>
			<stop  offset="0.6813" style="stop-color:#D1FFFF"/>
			<stop  offset="1" style="stop-color:#FFFFFF"/>
		</linearGradient>
		<rect x="31.367" y="54.674" fill="url(#SVGID_6_)" width="14.461" height="14.719"/>
		<polygon points="45.486,55.132 31.738,55.16 31.711,69.851 30.996,69.851 30.996,54.331 45.486,54.331 		"/>
		<polygon fill="#C8C8C8" points="31.539,69.164 45.514,69.221 45.486,54.303 46.314,54.303 46.314,69.85 31.539,69.85 		"/>
	</g>
	<rect x="50.201" y="15.3" fill="#572E29" width="16.348" height="32.558"/>
	<rect x="51.014" y="16.236" fill="#FAF0CF" width="14.66" height="31.245"/>
	<g>
		<rect x="52.006" y="31.084" fill="#333333" width="0.766" height="2.25"/>
		<rect x="51.303" y="31.834" fill="#333333" width="0.922" height="0.734"/>
	</g>
	<g>
		<linearGradient id="SVGID_7_" gradientUnits="userSpaceOnUse" x1="55.3604" y1="20.3398" x2="63.1239" y2="29.6634">
			<stop  offset="0" style="stop-color:#D1FFFF"/>
			<stop  offset="0.1242" style="stop-color:#DFFFFF"/>
			<stop  offset="0.3352" style="stop-color:#FFFFFF"/>
			<stop  offset="0.6813" style="stop-color:#D1FFFF"/>
			<stop  offset="1" style="stop-color:#FFFFFF"/>
		</linearGradient>
		<rect x="52.875" y="17.777" fill="url(#SVGID_7_)" width="10.461" height="11.719"/>
		<polygon points="62.994,18.235 53.246,18.264 53.219,29.954 52.504,29.954 52.504,17.435 62.994,17.435 		"/>
		<polygon fill="#C8C8C8" points="53.047,29.268 63.021,29.324 62.994,17.406 63.822,17.406 63.822,29.953 53.047,29.953 		"/>
	</g>
	<rect x="50.201" y="54.425" fill="#572E29" width="16.348" height="32.371"/>
	<rect x="51.014" y="55.361" fill="#FAF0CF" width="14.66" height="31.493"/>
	<g>
		<rect x="52.006" y="70.209" fill="#333333" width="0.766" height="2.25"/>
		<rect x="51.303" y="70.959" fill="#333333" width="0.922" height="0.734"/>
	</g>
	<g>
		<linearGradient id="SVGID_8_" gradientUnits="userSpaceOnUse" x1="55.3604" y1="59.4648" x2="63.1239" y2="68.7884">
			<stop  offset="0" style="stop-color:#D1FFFF"/>
			<stop  offset="0.1242" style="stop-color:#DFFFFF"/>
			<stop  offset="0.3352" style="stop-color:#FFFFFF"/>
			<stop  offset="0.6813" style="stop-color:#D1FFFF"/>
			<stop  offset="1" style="stop-color:#FFFFFF"/>
		</linearGradient>
		<rect x="52.875" y="56.902" fill="url(#SVGID_8_)" width="10.461" height="11.719"/>
		<polygon points="62.994,57.36 53.246,57.389 53.219,69.079 52.504,69.079 52.504,56.56 62.994,56.56 		"/>
		<polygon fill="#C8C8C8" points="53.047,68.393 63.021,68.449 62.994,56.531 63.822,56.531 63.822,69.078 53.047,69.078 		"/>
	</g>
	<g>
		<linearGradient id="SVGID_9_" gradientUnits="userSpaceOnUse" x1="69.6543" y1="19.7246" x2="75.9174" y2="27.2462">
			<stop  offset="0" style="stop-color:#D1FFFF"/>
			<stop  offset="0.1242" style="stop-color:#DFFFFF"/>
			<stop  offset="0.3352" style="stop-color:#FFFFFF"/>
			<stop  offset="0.6813" style="stop-color:#D1FFFF"/>
			<stop  offset="1" style="stop-color:#FFFFFF"/>
		</linearGradient>
		<polygon fill="url(#SVGID_9_)" points="74.1,28.767 69.639,30.72 69.639,16.001 74.1,14.048 		"/>
		<polygon points="73.758,14.506 70.01,16.091 69.982,31.178 69.268,31.535 69.268,15.658 73.758,13.705 		"/>
		<polygon fill="#C8C8C8" points="69.975,30.324 73.75,28.761 73.758,13.677 74.586,13.202 74.588,29.119 69.975,31.01 		"/>
	</g>
	<g>
		<linearGradient id="SVGID_10_" gradientUnits="userSpaceOnUse" x1="74.9287" y1="17.3496" x2="81.1913" y2="24.8706">
			<stop  offset="0" style="stop-color:#D1FFFF"/>
			<stop  offset="0.1242" style="stop-color:#DFFFFF"/>
			<stop  offset="0.3352" style="stop-color:#FFFFFF"/>
			<stop  offset="0.6813" style="stop-color:#D1FFFF"/>
			<stop  offset="1" style="stop-color:#FFFFFF"/>
		</linearGradient>
		<polygon fill="url(#SVGID_10_)" points="79.373,26.392 74.912,28.345 74.912,13.626 79.373,11.673 		"/>
		<polygon points="79.031,12.131 75.283,13.716 75.256,28.803 74.541,29.16 74.541,13.283 79.031,11.33 		"/>
		<polygon fill="#C8C8C8" points="75.248,27.949 79.023,26.386 79.031,11.302 79.859,10.827 79.861,26.744 75.248,28.635 		"/>
	</g>
	<g>
		<linearGradient id="SVGID_11_" gradientUnits="userSpaceOnUse" x1="80.1211" y1="15.0146" x2="86.3837" y2="22.5356">
			<stop  offset="0" style="stop-color:#D1FFFF"/>
			<stop  offset="0.1242" style="stop-color:#DFFFFF"/>
			<stop  offset="0.3352" style="stop-color:#FFFFFF"/>
			<stop  offset="0.6813" style="stop-color:#D1FFFF"/>
			<stop  offset="1" style="stop-color:#FFFFFF"/>
		</linearGradient>
		<polygon fill="url(#SVGID_11_)" points="84.566,24.057 80.105,26.01 80.105,11.291 84.566,9.338 		"/>
		<polygon points="84.225,9.796 80.477,11.381 80.449,26.468 79.734,26.825 79.734,10.948 84.225,8.995 		"/>
		<polygon fill="#C8C8C8" points="80.441,25.614 84.217,24.051 84.225,8.967 85.053,8.492 85.055,24.409 80.441,26.3 		"/>
	</g>
	<g>
		<linearGradient id="SVGID_12_" gradientUnits="userSpaceOnUse" x1="69.6553" y1="58.0908" x2="75.9178" y2="65.6118">
			<stop  offset="0" style="stop-color:#D1FFFF"/>
			<stop  offset="0.1242" style="stop-color:#DFFFFF"/>
			<stop  offset="0.3352" style="stop-color:#FFFFFF"/>
			<stop  offset="0.6813" style="stop-color:#D1FFFF"/>
			<stop  offset="1" style="stop-color:#FFFFFF"/>
		</linearGradient>
		<polygon fill="url(#SVGID_12_)" points="74.1,67.133 69.639,69.086 69.639,54.367 74.1,52.414 		"/>
		<polygon points="73.758,52.872 70.01,54.457 69.982,69.544 69.268,69.901 69.268,54.024 73.758,52.071 		"/>
		<polygon fill="#C8C8C8" points="69.975,68.69 73.75,67.127 73.758,52.043 74.586,51.568 74.588,67.485 69.975,69.376 		"/>
	</g>
	<g>
		<linearGradient id="SVGID_13_" gradientUnits="userSpaceOnUse" x1="74.9277" y1="55.7158" x2="81.1908" y2="63.2374">
			<stop  offset="0" style="stop-color:#D1FFFF"/>
			<stop  offset="0.1242" style="stop-color:#DFFFFF"/>
			<stop  offset="0.3352" style="stop-color:#FFFFFF"/>
			<stop  offset="0.6813" style="stop-color:#D1FFFF"/>
			<stop  offset="1" style="stop-color:#FFFFFF"/>
		</linearGradient>
		<polygon fill="url(#SVGID_13_)" points="79.373,64.758 74.912,66.711 74.912,51.992 79.373,50.039 		"/>
		<polygon points="79.031,50.497 75.283,52.082 75.256,67.169 74.541,67.526 74.541,51.649 79.031,49.696 		"/>
		<polygon fill="#C8C8C8" points="75.248,66.315 79.023,64.752 79.031,49.668 79.859,49.193 79.861,65.11 75.248,67.001 		"/>
	</g>
	<g>
		<linearGradient id="SVGID_14_" gradientUnits="userSpaceOnUse" x1="80.1221" y1="53.3809" x2="86.3846" y2="60.9019">
			<stop  offset="0" style="stop-color:#D1FFFF"/>
			<stop  offset="0.1242" style="stop-color:#DFFFFF"/>
			<stop  offset="0.3352" style="stop-color:#FFFFFF"/>
			<stop  offset="0.6813" style="stop-color:#D1FFFF"/>
			<stop  offset="1" style="stop-color:#FFFFFF"/>
		</linearGradient>
		<polygon fill="url(#SVGID_14_)" points="84.566,62.423 80.105,64.376 80.105,49.657 84.566,47.704 		"/>
		<polygon points="84.225,48.162 80.477,49.747 80.449,64.834 79.734,65.191 79.734,49.314 84.225,47.361 		"/>
		<polygon fill="#C8C8C8" points="80.441,63.98 84.217,62.417 84.225,47.333 85.053,46.858 85.055,62.775 80.441,64.666 		"/>
	</g>
	<linearGradient id="SVGID_15_" gradientUnits="userSpaceOnUse" x1="58.1143" y1="72.6875" x2="56.3643" y2="72.6875">
		<stop  offset="0.0056" style="stop-color:#35373B"/>
		<stop  offset="0.4888" style="stop-color:#747477"/>
		<stop  offset="1" style="stop-color:#38373B"/>
	</linearGradient>
	<rect x="55.723" y="54.125" fill="url(#SVGID_15_)" width="2.5" height="37.125"/>
	<polygon fill="#690000" points="68.088,48.414 66.088,48.414 66.088,29.292 67.23,29.292 68.088,30.02 	"/>
	<rect x="65.23" y="29.292" fill="#9E5947" width="2" height="19.122"/>
	<linearGradient id="SVGID_16_" gradientUnits="userSpaceOnUse" x1="26.5742" y1="69.0391" x2="32.0742" y2="74.5391">
		<stop  offset="0.0056" style="stop-color:#2D2C32"/>
		<stop  offset="0.0903" style="stop-color:#333337"/>
		<stop  offset="0.285" style="stop-color:#3C3C3E"/>
		<stop  offset="0.5549" style="stop-color:#3F3F40"/>
		<stop  offset="0.6255" style="stop-color:#2F2F30"/>
		<stop  offset="0.7681" style="stop-color:#151516"/>
		<stop  offset="0.8956" style="stop-color:#060606"/>
		<stop  offset="0.9944" style="stop-color:#000000"/>
	</linearGradient>
	<polygon fill="url(#SVGID_16_)" points="46.973,54.5 41.223,54.5 9.473,86.875 14.723,86.875 	"/>
	<linearGradient id="SVGID_17_" gradientUnits="userSpaceOnUse" x1="36.0674" y1="54.541" x2="3.2334" y2="86.8741">
		<stop  offset="0" style="stop-color:#A0A0A0"/>
		<stop  offset="0.5659" style="stop-color:#DCDCDC"/>
		<stop  offset="1" style="stop-color:#AAAAAA"/>
	</linearGradient>
	<polygon fill="url(#SVGID_17_)" points="39.473,53.125 0.848,90.75 0.848,87.75 39.473,49.25 	"/>
	<g>
		<polygon fill="#690000" points="2.762,90.705 1.721,90.912 1.043,90.757 1.043,68.054 1.721,67.689 2.762,68.158 		"/>
		<rect y="67.689" fill="#9E5947" width="1.719" height="23.223"/>
		<polygon fill="#690000" points="66.484,34.473 58.287,37.754 58.287,36.191 66.484,32.077 		"/>
		<polygon fill="#9E5947" points="66.484,33.553 58.287,36.868 58.287,35.306 66.484,31.99 		"/>
		<polygon fill="#690000" points="66.596,40.689 58.287,44.005 58.287,42.442 66.615,38.531 		"/>
		<polygon fill="#9E5947" points="66.709,39.75 58.287,43.119 58.287,41.557 66.709,38.188 		"/>
		<polygon fill="#690000" points="59.328,52.706 58.287,53.227 57.609,52.758 57.609,34.055 58.287,33.69 59.328,34.159 		"/>
		<rect x="56.566" y="33.69" fill="#9E5947" width="1.719" height="19.536"/>
		<polygon fill="#690000" points="13.23,62.846 2.307,73.561 2.307,72.102 13.23,61.387 		"/>
		<polygon fill="#9E5947" points="13.23,61.784 2.307,72.499 2.307,70.427 13.23,59.712 		"/>
		<polygon fill="#690000" points="13.23,69.57 2.307,80.285 2.307,78.826 13.23,68.111 		"/>
		<polygon fill="#9E5947" points="13.23,68.509 2.307,79.224 2.307,77.151 13.23,66.437 		"/>
		<polygon fill="#690000" points="28.26,66.289 27.219,66.81 26.541,66.341 26.541,43.638 27.219,43.273 28.26,43.742 		"/>
		<rect x="25.5" y="43.273" fill="#9E5947" width="1.719" height="23.536"/>
		<polygon fill="#690000" points="15.428,78.705 14.387,79.226 13.709,78.757 13.709,56.054 14.387,55.689 15.428,56.158 		"/>
		<rect x="12.666" y="55.689" fill="#9E5947" width="1.719" height="23.536"/>
		<polygon fill="#690000" points="25.814,50.846 14.889,61.561 14.889,60.102 25.814,49.387 		"/>
		<polygon fill="#9E5947" points="25.814,49.784 14.889,60.499 14.889,58.427 25.814,47.712 		"/>
		<polygon fill="#690000" points="25.814,57.57 14.889,68.285 14.889,66.826 25.814,56.111 		"/>
		<polygon fill="#9E5947" points="25.814,56.509 14.889,67.224 14.889,65.151 25.814,54.437 		"/>
		<polygon fill="#690000" points="41.094,53.272 40.053,53.793 39.375,52.758 39.375,34.055 40.053,33.69 41.094,34.159 		"/>
		<rect x="38.332" y="33.69" fill="#9E5947" width="1.719" height="19.899"/>
		<polygon fill="#690000" points="38.564,38.679 27.639,49.394 27.639,47.935 38.564,37.22 		"/>
		<polygon fill="#9E5947" points="38.564,37.617 27.639,48.332 27.639,46.26 38.564,35.545 		"/>
		<polygon fill="#690000" points="38.564,45.403 27.639,56.118 27.639,54.659 38.564,43.944 		"/>
		<polygon fill="#9E5947" points="38.564,44.342 27.639,55.057 27.639,52.984 38.564,42.27 		"/>
		<rect x="40.621" y="36.243" fill="#690000" width="15.943" height="1.459"/>
		<rect x="40.621" y="35.462" fill="#9E5947" width="15.943" height="1.459"/>
		<rect x="40.621" y="42.495" fill="#690000" width="15.943" height="1.459"/>
		<rect x="40.621" y="41.714" fill="#9E5947" width="15.943" height="1.459"/>
	</g>
	<linearGradient id="SVGID_18_" gradientUnits="userSpaceOnUse" x1="54.8594" y1="50.2637" x2="8.9609" y2="94.1611">
		<stop  offset="0.0056" style="stop-color:#35373B"/>
		<stop  offset="0.4888" style="stop-color:#747477"/>
		<stop  offset="1" style="stop-color:#38373B"/>
	</linearGradient>
	<polygon fill="url(#SVGID_18_)" points="68.098,50.625 68.098,47.875 58.348,53 38.385,53 0.348,91 5.223,91 41.098,55.125 
		58.973,55 	"/>
</g>
</svg>
