<?xml version="1.0" encoding="utf-8"?>
<!-- Generator: Adobe Illustrator 15.0.0, SVG Export Plug-In . SVG Version: 6.00 Build 0)  -->
<!DOCTYPE svg PUBLIC "-//W3C//DTD SVG 1.1 Tiny//EN" "http://www.w3.org/Graphics/SVG/1.1/DTD/svg11-tiny.dtd">
<svg version="1.1" baseProfile="tiny" id="_x30_8_x7E_14"
	 xmlns="http://www.w3.org/2000/svg" xmlns:xlink="http://www.w3.org/1999/xlink" x="0px" y="0px" width="105.725px"
	 height="91.031px" viewBox="0 0 105.725 91.031" xml:space="preserve">
<g>
	<polygon fill="#EBDBE3" points="87.621,46.948 87.621,51.531 0,51.531 0,46.948 11.006,41.528 59.813,41.528 65.127,38.614 
		105.701,38.614 	"/>
	<polygon fill="#A88886" points="105.725,38.614 105.725,81.933 87.621,91.031 80.002,89.503 80.002,49.032 87.621,46.947 
		102.959,39.257 	"/>
	<rect y="46.947" fill="#B8999E" width="87.621" height="44.083"/>
	<g>
		<polygon fill="#463232" points="25.762,0 21.248,0 20.48,43.882 26.145,43.882 		"/>
		<rect x="21.084" y="5.025" fill="#33171C" width="4.801" height="1.5"/>
		<rect x="20.984" y="8.86" fill="#33171C" width="4.934" height="1.5"/>
	</g>
	<rect x="6.428" y="54.961" fill="#5E4752" width="76.691" height="26.428"/>
	<polygon fill="#524042" points="85.303,81.389 87.602,81.389 105.705,71.951 105.705,45.522 87.602,54.961 85.303,54.961 	"/>
	<polygon points="93.611,78.257 91.82,79.218 91.82,52.773 93.611,51.813 	"/>
	<polygon points="101.924,73.897 100.133,74.858 100.133,48.414 101.924,47.453 	"/>
	<g>
		<rect x="22.334" y="54.961" fill="#3C0000" width="4.111" height="26.428"/>
		<rect x="4.334" y="54.961" fill="#3C0000" width="4.111" height="26.428"/>
		<rect x="42" y="54.961" fill="#3C0000" width="4.779" height="26.428"/>
		<rect x="61.416" y="54.961" fill="#3C0000" width="4.779" height="26.428"/>
		<rect x="21.084" y="54.961" fill="#997573" width="4.111" height="26.428"/>
		<rect x="40.75" y="54.961" fill="#997573" width="4.779" height="26.428"/>
		<rect x="60.166" y="54.961" fill="#997573" width="4.779" height="26.428"/>
		<rect x="81.666" y="54.961" fill="#997573" width="5.936" height="26.428"/>
		<polygon fill="#7A4F4D" points="89.393,80.444 87.602,81.405 87.602,54.961 89.393,54 		"/>
		<polygon fill="#7A4F4D" points="97.783,76.069 95.992,77.03 95.992,50.586 97.783,49.625 		"/>
		<polygon fill="#7A4F4D" points="105.705,71.944 103.914,72.905 103.914,46.461 105.705,45.5 		"/>
		<rect x="0.053" y="54.961" fill="#997573" width="6.941" height="26.428"/>
	</g>
	<g>
		<polygon fill="#A88886" points="105.717,63.298 87.621,72.406 84.75,72.406 84.75,63.197 87.621,63.197 105.717,54.09 		"/>
		<rect y="63.197" fill="#B8999E" width="87.621" height="9.208"/>
	</g>
	<g>
		<linearGradient id="SVGID_1_" gradientUnits="userSpaceOnUse" x1="19.3262" y1="22.7905" x2="24.9902" y2="22.7905">
			<stop  offset="0" style="stop-color:#463232"/>
			<stop  offset="0.2879" style="stop-color:#816D6D"/>
			<stop  offset="0.522" style="stop-color:#B4A0A0"/>
			<stop  offset="1" style="stop-color:#463232"/>
		</linearGradient>
		<polygon fill="url(#SVGID_1_)" points="24.607,0.85 20.094,0.85 19.326,44.731 24.99,44.731 		"/>
		<rect x="19.93" y="5.875" fill="#463232" width="4.801" height="1.5"/>
		<rect x="19.83" y="9.709" fill="#463232" width="4.934" height="1.5"/>
	</g>
	<g>
		<polygon fill="#463232" points="46.262,0 41.748,0 40.98,43.882 46.645,43.882 		"/>
		<rect x="41.584" y="5.025" fill="#33171C" width="4.801" height="1.5"/>
		<rect x="41.484" y="8.86" fill="#33171C" width="4.934" height="1.5"/>
	</g>
	<g>
		<linearGradient id="SVGID_2_" gradientUnits="userSpaceOnUse" x1="39.8262" y1="22.7905" x2="45.4902" y2="22.7905">
			<stop  offset="0" style="stop-color:#463232"/>
			<stop  offset="0.2879" style="stop-color:#816D6D"/>
			<stop  offset="0.522" style="stop-color:#B4A0A0"/>
			<stop  offset="1" style="stop-color:#463232"/>
		</linearGradient>
		<polygon fill="url(#SVGID_2_)" points="45.107,0.85 40.594,0.85 39.826,44.731 45.49,44.731 		"/>
		<rect x="40.43" y="5.875" fill="#463232" width="4.801" height="1.5"/>
		<rect x="40.33" y="9.709" fill="#463232" width="4.934" height="1.5"/>
	</g>
</g>
</svg>
