<?xml version="1.0" encoding="utf-8"?>
<!-- Generator: Adobe Illustrator 15.0.0, SVG Export Plug-In . SVG Version: 6.00 Build 0)  -->
<!DOCTYPE svg PUBLIC "-//W3C//DTD SVG 1.1 Tiny//EN" "http://www.w3.org/Graphics/SVG/1.1/DTD/svg11-tiny.dtd">
<svg version="1.1" baseProfile="tiny" id="_x32_9_x7E_35"
	 xmlns="http://www.w3.org/2000/svg" xmlns:xlink="http://www.w3.org/1999/xlink" x="0px" y="0px" width="159.485px"
	 height="27.097px" viewBox="0 0 159.485 27.097" xml:space="preserve">
<g>
	<polygon fill="#AAAAAA" points="159.396,16.5 146.132,27.097 142.724,25.748 142.633,8.163 146.132,6.775 152.856,1.438 159.396,0 
			"/>
	<polygon fill="#5C7A91" points="159.485,0.002 152.861,1.438 151.681,2.363 6.729,2.363 6.729,1.453 13.354,0.043 	"/>
	<polygon fill="#304561" points="152.545,1.703 152.938,1.438 153.345,1.328 153.345,21.313 152.545,21.969 	"/>
	<polygon fill="#304561" points="146.132,6.734 146.132,9.097 0,9.097 0,6.775 6.72,1.406 152.856,1.438 	"/>
	<rect y="6.775" fill="#E5E5E5" width="146.132" height="20.321"/>
	<polygon fill="#A10000" points="25.412,11.645 2.791,11.645 2.009,13.121 24.631,13.121 	"/>
	<g>
		<linearGradient id="SVGID_1_" gradientUnits="userSpaceOnUse" x1="10.2334" y1="15.707" x2="0.7993" y2="23.4209">
			<stop  offset="0" style="stop-color:#DBD2D2"/>
			<stop  offset="0.1451" style="stop-color:#E6E0E0"/>
			<stop  offset="0.3846" style="stop-color:#FFFFFF"/>
			<stop  offset="0.7418" style="stop-color:#D9D2D2"/>
			<stop  offset="1" style="stop-color:#FFFFFF"/>
		</linearGradient>
		<rect x="3.231" y="14.338" fill="url(#SVGID_1_)" width="8.572" height="7.18"/>
		<rect x="3.541" y="20.679" fill="#87454A" width="8.262" height="2.23"/>
		<polygon fill="#4C4C4C" points="11.803,14.647 3.542,14.669 3.541,22.931 2.833,22.931 2.833,13.939 11.803,13.939 		"/>
	</g>
	<g>
		<linearGradient id="SVGID_2_" gradientUnits="userSpaceOnUse" x1="21.4834" y1="15.707" x2="12.0493" y2="23.4209">
			<stop  offset="0" style="stop-color:#DBD2D2"/>
			<stop  offset="0.1451" style="stop-color:#E6E0E0"/>
			<stop  offset="0.3846" style="stop-color:#FFFFFF"/>
			<stop  offset="0.7418" style="stop-color:#D9D2D2"/>
			<stop  offset="1" style="stop-color:#FFFFFF"/>
		</linearGradient>
		<rect x="14.481" y="14.338" fill="url(#SVGID_2_)" width="8.572" height="7.18"/>
		<rect x="14.791" y="20.679" fill="#87454A" width="8.262" height="2.23"/>
		<polygon fill="#4C4C4C" points="23.053,14.647 14.792,14.669 14.791,22.931 14.083,22.931 14.083,13.939 23.053,13.939 		"/>
	</g>
	<g>
		<linearGradient id="SVGID_3_" gradientUnits="userSpaceOnUse" x1="47.6504" y1="15.707" x2="38.2163" y2="23.4209">
			<stop  offset="0" style="stop-color:#DBD2D2"/>
			<stop  offset="0.1451" style="stop-color:#E6E0E0"/>
			<stop  offset="0.3846" style="stop-color:#FFFFFF"/>
			<stop  offset="0.7418" style="stop-color:#D9D2D2"/>
			<stop  offset="1" style="stop-color:#FFFFFF"/>
		</linearGradient>
		<rect x="40.648" y="14.338" fill="url(#SVGID_3_)" width="8.572" height="7.18"/>
		<rect x="40.958" y="20.679" fill="#87454A" width="8.262" height="2.23"/>
		<polygon fill="#4C4C4C" points="49.22,14.647 40.958,14.669 40.958,22.931 40.25,22.931 40.25,13.939 49.22,13.939 		"/>
	</g>
	<g>
		<linearGradient id="SVGID_4_" gradientUnits="userSpaceOnUse" x1="141.5913" y1="16.3213" x2="134.7701" y2="21.8987">
			<stop  offset="0" style="stop-color:#DBD2D2"/>
			<stop  offset="0.1451" style="stop-color:#E6E0E0"/>
			<stop  offset="0.3846" style="stop-color:#FFFFFF"/>
			<stop  offset="0.7418" style="stop-color:#D9D2D2"/>
			<stop  offset="1" style="stop-color:#FFFFFF"/>
		</linearGradient>
		<rect x="137.342" y="14.338" fill="url(#SVGID_4_)" width="4.572" height="7.18"/>
		<rect x="137.651" y="20.679" fill="#87454A" width="4.262" height="2.23"/>
		<polygon fill="#4C4C4C" points="141.914,14.647 137.652,14.669 137.651,22.931 136.944,22.931 136.944,13.939 141.914,13.939 		
			"/>
	</g>
	<rect x="27.995" y="7.69" fill="#FFFFFF" width="0.97" height="18.734"/>
	<rect x="27.467" y="7.69" fill="#304561" width="0.734" height="18.734"/>
	<rect x="61.052" y="7.69" fill="#FFFFFF" width="0.97" height="18.734"/>
	<rect x="60.524" y="7.69" fill="#304561" width="0.734" height="18.734"/>
	<rect x="88.218" y="7.69" fill="#FFFFFF" width="0.97" height="18.734"/>
	<rect x="87.69" y="7.69" fill="#304561" width="0.734" height="18.734"/>
	<rect x="106.771" y="7.69" fill="#FFFFFF" width="0.97" height="18.734"/>
	<rect x="106.243" y="7.69" fill="#304561" width="0.734" height="18.734"/>
	<rect x="132.438" y="7.69" fill="#FFFFFF" width="0.97" height="18.734"/>
	<rect x="131.91" y="7.69" fill="#304561" width="0.734" height="18.734"/>
	<rect x="92.807" y="13.947" fill="#4C4C4C" width="9.689" height="12.527"/>
	<rect x="93.36" y="14.523" fill="#9CA4B0" width="8.536" height="11.946"/>
	<rect x="96.567" y="24.422" width="1.5" height="0.761"/>
	<rect x="112.28" y="16.126" width="8.304" height="10.207"/>
	<rect x="112.842" y="16.688" fill="#9CA4B0" width="7.179" height="9.666"/>
	<rect x="115.329" y="24.429" width="2.27" height="0.757"/>
</g>
</svg>
