<?xml version="1.0" encoding="utf-8"?>
<!-- Generator: Adobe Illustrator 15.0.0, SVG Export Plug-In . SVG Version: 6.00 Build 0)  -->
<!DOCTYPE svg PUBLIC "-//W3C//DTD SVG 1.1 Tiny//EN" "http://www.w3.org/Graphics/SVG/1.1/DTD/svg11-tiny.dtd">
<svg version="1.1" baseProfile="tiny" id="_x30_1_x7E_07"
	 xmlns="http://www.w3.org/2000/svg" xmlns:xlink="http://www.w3.org/1999/xlink" x="0px" y="0px" width="112.174px"
	 height="126.848px" viewBox="0 0 112.174 126.848" xml:space="preserve">
<g>
	<polygon fill="#54696B" points="102.667,48.576 86.1,68.403 85.988,49.267 68.206,68.294 68.445,48.576 43.186,77.364 
		43.186,119.194 102.667,119.194 	"/>
	<linearGradient id="SVGID_1_" gradientUnits="userSpaceOnUse" x1="46.5483" y1="86.3701" x2="100.5483" y2="86.3701">
		<stop  offset="0" style="stop-color:#637566"/>
		<stop  offset="0.0412" style="stop-color:#6A7C6E"/>
		<stop  offset="0.2468" style="stop-color:#8B9D92"/>
		<stop  offset="0.4144" style="stop-color:#9FB1A8"/>
		<stop  offset="0.522" style="stop-color:#A6B8B0"/>
		<stop  offset="0.6189" style="stop-color:#A0B2A9"/>
		<stop  offset="0.7562" style="stop-color:#8FA197"/>
		<stop  offset="0.9169" style="stop-color:#748679"/>
		<stop  offset="1" style="stop-color:#637566"/>
	</linearGradient>
	<polygon fill="url(#SVGID_1_)" points="100.548,55.88 83.882,76.547 83.382,56.88 65.548,75.213 65.548,57.213 46.548,78.213 
		46.548,116.86 99.882,116.86 	"/>
	<path fill="#54696B" d="M29.063,112.592c0,1.096-0.888,1.984-1.984,1.984h-14.5c-1.096,0-1.984-0.888-1.984-1.984V26.116
		c0-1.096,0.888-1.984,1.984-1.984h14.5c1.096,0,1.984,0.889,1.984,1.984V112.592z"/>
	<linearGradient id="SVGID_2_" gradientUnits="userSpaceOnUse" x1="12.3281" y1="69.4961" x2="27.5723" y2="69.4961">
		<stop  offset="0" style="stop-color:#637566"/>
		<stop  offset="0.0412" style="stop-color:#6A7C6E"/>
		<stop  offset="0.2468" style="stop-color:#8B9D92"/>
		<stop  offset="0.4144" style="stop-color:#9FB1A8"/>
		<stop  offset="0.522" style="stop-color:#A6B8B0"/>
		<stop  offset="0.6189" style="stop-color:#A0B2A9"/>
		<stop  offset="0.7562" style="stop-color:#8FA197"/>
		<stop  offset="0.9169" style="stop-color:#748679"/>
		<stop  offset="1" style="stop-color:#637566"/>
	</linearGradient>
	<path fill="url(#SVGID_2_)" d="M27.572,111.567c0,0.972-0.733,1.76-1.638,1.76H13.966c-0.904,0-1.638-0.788-1.638-1.76V27.425
		c0-0.972,0.733-1.76,1.638-1.76h11.969c0.904,0,1.638,0.788,1.638,1.76V111.567z"/>
	<polygon fill="#B8C7C2" points="26.026,86.882 13.558,95.38 13.558,114.577 26.026,114.577 	"/>
	<path fill="#3D4735" d="M26.683,16.88c0,0,7.014-5.877,16.083-9.255s20.283-7.27,28.463-2.469s17.427,7.113,29.875-2.49
		c0,0-0.711,17.427-12.981,19.917s-23.171-7.259-28.808-8.891C52.557,11.736,40.02,11.369,26.683,16.88z"/>
	<path fill="#8A96AD" d="M27.05,16.852c0,0,11.025-10.671,20.094-14.049s16.359-4.268,24.54,0.534s17.427,7.113,29.875-2.49
		c0,0-0.711,17.427-12.981,19.917s-23.171-7.259-28.808-8.891C53.012,9.916,40.387,11.34,27.05,16.852z"/>
	<rect x="42.919" y="110.418" fill="#B8C7C2" width="59.697" height="6.233"/>
	<path fill="#041703" d="M111.8,119.996c0,3.785-3.118,6.853-6.963,6.853H7.345c-3.845,0-6.963-3.067-6.963-6.853l0,0
		c0-3.785,3.118-6.853,6.963-6.853h97.492C108.682,113.143,111.8,116.21,111.8,119.996L111.8,119.996z"/>
	<linearGradient id="SVGID_3_" gradientUnits="userSpaceOnUse" x1="56.0869" y1="108.2603" x2="56.0869" y2="122.4053">
		<stop  offset="0.0056" style="stop-color:#516464"/>
		<stop  offset="0.1854" style="stop-color:#5E7171"/>
		<stop  offset="0.3652" style="stop-color:#6F8282"/>
		<stop  offset="0.7247" style="stop-color:#566464"/>
		<stop  offset="1" style="stop-color:#263C3C"/>
	</linearGradient>
	<path fill="url(#SVGID_3_)" d="M112.174,118.54c0,3.539-3.139,6.407-7.011,6.407H7.011c-3.872,0-7.011-2.869-7.011-6.407l0,0
		c0-3.539,3.139-6.408,7.011-6.408h98.152C109.035,112.132,112.174,115,112.174,118.54L112.174,118.54z"/>
</g>
</svg>
