<?xml version="1.0" encoding="utf-8"?>
<!-- Generator: Adobe Illustrator 15.0.0, SVG Export Plug-In . SVG Version: 6.00 Build 0)  -->
<!DOCTYPE svg PUBLIC "-//W3C//DTD SVG 1.1 Tiny//EN" "http://www.w3.org/Graphics/SVG/1.1/DTD/svg11-tiny.dtd">
<svg version="1.1" baseProfile="tiny" id="_x30_1_x7E_07"
	 xmlns="http://www.w3.org/2000/svg" xmlns:xlink="http://www.w3.org/1999/xlink" x="0px" y="0px" width="128.138px"
	 height="123.186px" viewBox="0 0 128.138 123.186" xml:space="preserve">
<g>
	<polygon fill="#A38F91" points="127.876,66.875 127.876,93.25 71.45,121 70.501,119.5 70.501,95.25 70.501,92.75 124.626,65.875 	
		"/>
	<polygon fill="#231E2C" points="128.138,94.69 71.563,123.186 70.876,122.406 70.923,121.281 71.563,120.466 128.138,91.971 	"/>
	<g>
		<polygon fill="#E6E6E6" points="80.106,101.33 77.151,102.83 77.151,97.875 80.106,96.375 		"/>
		<polygon fill="#828282" points="80.106,101.424 77.151,102.924 77.151,101.938 80.106,100.438 		"/>
		<polygon fill="#A0A0A0" points="80.136,101.348 79.055,101.016 79.008,96.906 80.106,96.375 		"/>
	</g>
	<g>
		<polygon fill="#E6E6E6" points="80.106,111.455 77.151,112.955 77.151,108 80.106,106.5 		"/>
		<polygon fill="#828282" points="80.106,111.549 77.151,113.049 77.151,112.063 80.106,110.563 		"/>
		<polygon fill="#A0A0A0" points="80.136,111.473 79.055,111.141 79.008,107.031 80.106,106.5 		"/>
	</g>
	<g>
		<polygon fill="#E6E6E6" points="86.606,98.143 83.651,99.643 83.651,94.688 86.606,93.188 		"/>
		<polygon fill="#828282" points="86.606,98.236 83.651,99.736 83.651,98.75 86.606,97.25 		"/>
		<polygon fill="#A0A0A0" points="86.636,98.16 85.555,97.828 85.508,93.719 86.606,93.188 		"/>
	</g>
	<g>
		<polygon fill="#E6E6E6" points="86.606,108.268 83.651,109.768 83.651,104.813 86.606,103.313 		"/>
		<polygon fill="#828282" points="86.606,108.361 83.651,109.861 83.651,108.875 86.606,107.375 		"/>
		<polygon fill="#A0A0A0" points="86.636,108.285 85.555,107.953 85.508,103.844 86.606,103.313 		"/>
	</g>
	<g>
		<polygon fill="#E6E6E6" points="94.168,94.33 91.213,95.83 91.213,90.875 94.168,89.375 		"/>
		<polygon fill="#828282" points="94.168,94.424 91.213,95.924 91.213,94.938 94.168,93.438 		"/>
		<polygon fill="#A0A0A0" points="94.198,94.348 93.117,94.016 93.07,89.906 94.168,89.375 		"/>
	</g>
	<g>
		<polygon fill="#E6E6E6" points="94.168,104.455 91.213,105.955 91.213,101 94.168,99.5 		"/>
		<polygon fill="#828282" points="94.168,104.549 91.213,106.049 91.213,105.063 94.168,103.563 		"/>
		<polygon fill="#A0A0A0" points="94.198,104.473 93.117,104.141 93.07,100.031 94.168,99.5 		"/>
	</g>
	<g>
		<polygon fill="#E6E6E6" points="100.668,91.143 97.713,92.643 97.713,87.688 100.668,86.188 		"/>
		<polygon fill="#828282" points="100.668,91.236 97.713,92.736 97.713,91.75 100.668,90.25 		"/>
		<polygon fill="#A0A0A0" points="100.698,91.16 99.617,90.828 99.57,86.719 100.668,86.188 		"/>
	</g>
	<g>
		<polygon fill="#E6E6E6" points="100.668,101.268 97.713,102.768 97.713,97.813 100.668,96.313 		"/>
		<polygon fill="#828282" points="100.668,101.361 97.713,102.861 97.713,101.875 100.668,100.375 		"/>
		<polygon fill="#A0A0A0" points="100.698,101.285 99.617,100.953 99.57,96.844 100.668,96.313 		"/>
	</g>
	<g>
		<polygon fill="#E6E6E6" points="108.231,87.33 105.276,88.83 105.276,83.875 108.231,82.375 		"/>
		<polygon fill="#828282" points="108.231,87.424 105.276,88.924 105.276,87.938 108.231,86.438 		"/>
		<polygon fill="#A0A0A0" points="108.261,87.348 107.18,87.016 107.133,82.906 108.231,82.375 		"/>
	</g>
	<g>
		<polygon fill="#E6E6E6" points="108.231,97.455 105.276,98.955 105.276,94 108.231,92.5 		"/>
		<polygon fill="#828282" points="108.231,97.549 105.276,99.049 105.276,98.063 108.231,96.563 		"/>
		<polygon fill="#A0A0A0" points="108.261,97.473 107.18,97.141 107.133,93.031 108.231,92.5 		"/>
	</g>
	<g>
		<polygon fill="#E6E6E6" points="114.731,84.143 111.776,85.643 111.776,80.688 114.731,79.188 		"/>
		<polygon fill="#828282" points="114.731,84.236 111.776,85.736 111.776,84.75 114.731,83.25 		"/>
		<polygon fill="#A0A0A0" points="114.761,84.16 113.68,83.828 113.633,79.719 114.731,79.188 		"/>
	</g>
	<g>
		<polygon fill="#E6E6E6" points="114.731,94.268 111.776,95.768 111.776,90.813 114.731,89.313 		"/>
		<polygon fill="#828282" points="114.731,94.361 111.776,95.861 111.776,94.875 114.731,93.375 		"/>
		<polygon fill="#A0A0A0" points="114.761,94.285 113.68,93.953 113.633,89.844 114.731,89.313 		"/>
	</g>
	<g>
		<polygon fill="#E6E6E6" points="122.418,80.33 119.463,81.83 119.463,76.875 122.418,75.375 		"/>
		<polygon fill="#828282" points="122.418,80.424 119.463,81.924 119.463,80.938 122.418,79.438 		"/>
		<polygon fill="#A0A0A0" points="122.448,80.348 121.367,80.016 121.32,75.906 122.418,75.375 		"/>
	</g>
	<g>
		<polygon fill="#E6E6E6" points="122.418,90.455 119.463,91.955 119.463,87 122.418,85.5 		"/>
		<polygon fill="#828282" points="122.418,90.549 119.463,92.049 119.463,91.063 122.418,89.563 		"/>
		<polygon fill="#A0A0A0" points="122.448,90.473 121.367,90.141 121.32,86.031 122.418,85.5 		"/>
	</g>
	<polygon fill="#6B454A" points="0.301,51.1 58.055,22.333 106.366,48.246 58.494,86.016 5.132,62.739 	"/>
	<polygon fill="#CCBDBA" points="52.255,69.71 71.451,95.594 71.451,121.146 0.301,86.568 0.301,51.1 49.142,76.014 49.133,69.784 	
		"/>
	<polygon fill="#633842" points="48.587,69.676 48.585,71.831 71.033,97.124 127.972,67.796 127.879,66.571 105.104,42.411 	"/>
	<g>
		<polygon fill="#E6E6E6" points="50.296,95.625 53.251,97.125 53.251,88.833 50.296,87.333 		"/>
		<polygon fill="#828282" points="50.296,95.599 53.251,97.099 53.251,95.962 50.296,94.462 		"/>
		<polygon fill="#A0A0A0" points="50.251,95.58 51.326,94.981 51.34,87.772 50.251,87.288 		"/>
	</g>
	<g>
		<polygon fill="#E6E6E6" points="50.296,106 53.251,107.5 53.251,99.208 50.296,97.708 		"/>
		<polygon fill="#828282" points="50.296,105.974 53.251,107.474 53.251,106.337 50.296,104.837 		"/>
		<polygon fill="#A0A0A0" points="50.251,105.955 51.326,105.356 51.34,98.147 50.251,97.663 		"/>
	</g>
	<g>
		<polygon fill="#E6E6E6" points="56.859,98.688 59.814,100.188 59.814,91.896 56.859,90.396 		"/>
		<polygon fill="#828282" points="56.859,98.662 59.814,100.162 59.814,99.025 56.859,97.525 		"/>
		<polygon fill="#A0A0A0" points="56.813,98.643 57.889,98.044 57.902,90.834 56.813,90.351 		"/>
	</g>
	<g>
		<polygon fill="#E6E6E6" points="56.859,109.063 59.814,110.563 59.814,102.271 56.859,100.771 		"/>
		<polygon fill="#828282" points="56.859,109.037 59.814,110.537 59.814,109.4 56.859,107.9 		"/>
		<polygon fill="#A0A0A0" points="56.813,109.018 57.889,108.419 57.902,101.209 56.813,100.726 		"/>
	</g>
	<g>
		<polygon fill="#E6E6E6" points="63.484,102.25 66.439,103.75 66.439,95.458 63.484,93.958 		"/>
		<polygon fill="#828282" points="63.484,102.224 66.439,103.724 66.439,102.587 63.484,101.087 		"/>
		<polygon fill="#A0A0A0" points="63.438,102.205 64.514,101.606 64.527,94.397 63.438,93.913 		"/>
	</g>
	<g>
		<polygon fill="#E6E6E6" points="63.484,112.625 66.439,114.125 66.439,105.833 63.484,104.333 		"/>
		<polygon fill="#828282" points="63.484,112.599 66.439,114.099 66.439,112.962 63.484,111.462 		"/>
		<polygon fill="#A0A0A0" points="63.438,112.58 64.514,111.981 64.527,104.772 63.438,104.288 		"/>
	</g>
	<g>
		<polygon fill="#E6E6E6" points="34.963,97.292 41.001,100.208 41.001,80 34.88,77.42 		"/>
		<polygon fill="#A0A0A0" points="34.917,97.247 35.98,97.719 35.924,77.859 34.835,77.375 		"/>
		<polygon fill="#828282" points="34.861,86.946 41.038,89.859 41.057,88.525 35.945,86.375 		"/>
		<polygon fill="#828282" points="34.861,97.019 41.038,99.931 41.057,98.598 35.945,96.447 		"/>
		<polygon fill="#231E2C" points="34.486,87.962 41.335,91.089 41.335,89.749 34.501,86.708 		"/>
		<polygon fill="#231E2C" points="34.126,97.906 41.522,101.308 41.522,99.968 34.142,96.653 		"/>
	</g>
	<g>
		<polygon fill="#E6E6E6" points="21.65,90.604 27.689,93.521 27.689,73.312 21.568,70.732 		"/>
		<polygon fill="#A0A0A0" points="21.605,90.559 22.668,91.032 22.611,71.171 21.522,70.688 		"/>
		<polygon fill="#828282" points="21.549,80.259 27.725,83.171 27.744,81.838 22.633,79.688 		"/>
		<polygon fill="#828282" points="21.549,90.331 27.725,93.244 27.744,91.91 22.633,89.76 		"/>
		<polygon fill="#231E2C" points="21.173,81.274 28.022,84.402 28.022,83.062 21.189,80.021 		"/>
		<polygon fill="#231E2C" points="20.814,91.219 28.21,94.621 28.21,93.28 20.83,89.965 		"/>
	</g>
	<g>
		<polygon fill="#E6E6E6" points="8.4,84.104 14.439,87.021 14.439,66.812 8.318,64.232 		"/>
		<polygon fill="#A0A0A0" points="8.355,84.059 9.418,84.532 9.361,64.671 8.272,64.188 		"/>
		<polygon fill="#828282" points="8.299,73.759 14.475,76.671 14.494,75.338 9.383,73.188 		"/>
		<polygon fill="#828282" points="8.299,83.831 14.475,86.744 14.494,85.41 9.383,83.26 		"/>
		<polygon fill="#231E2C" points="7.923,74.774 14.772,77.902 14.772,76.562 7.939,73.521 		"/>
		<polygon fill="#231E2C" points="7.564,84.719 14.96,88.121 14.96,86.78 7.58,83.465 		"/>
	</g>
	<polygon fill="#4F5469" points="71.5,123.159 0,87.739 0,85.02 71.5,120.44 	"/>
	<polygon fill="#806966" points="48.585,69.626 71.451,95.594 127.879,66.571 105.521,40.88 	"/>
	<polygon fill="#542E2B" points="49.372,77.269 0.301,52.238 0.301,51.1 49.372,76.131 	"/>
	<polygon fill="#542E2B" points="49.667,77.462 48.598,76.798 48.598,71.854 49.717,73.019 	"/>
	<path fill="#572E29" d="M67.182,38.688l1.708,0.394c0,0,2.234-7.623,3.417-8.805l-13.011-7.754l1.446,16.165l-1.971-9.725
		c0,0-5.52,11.696-5.783,17.742s0,0.395,0,0.395l-9.068,0.131l-1.183-13.799c0,0-5.389,11.433-6.834,20.501l-7.754,0.263
		l1.972-17.479L58.64,21.866l3.943,13.273L67.182,38.688z"/>
	<g>
		<linearGradient id="SVGID_1_" gradientUnits="userSpaceOnUse" x1="58.959" y1="38.9395" x2="71.4482" y2="38.6924">
			<stop  offset="0.011" style="stop-color:#572E29"/>
			<stop  offset="0.0949" style="stop-color:#684038"/>
			<stop  offset="0.2617" style="stop-color:#936D5F"/>
			<stop  offset="0.3791" style="stop-color:#B5917D"/>
			<stop  offset="0.6209" style="stop-color:#B08A70"/>
			<stop  offset="0.9835" style="stop-color:#52382E"/>
		</linearGradient>
		<path fill="url(#SVGID_1_)" d="M69.817,38.782c0,1.511-3.043,2.478-6.798,2.478c-3.755,0-6.798-0.966-6.798-2.478
			c0-1.511,3.043-2.323,6.798-2.323C66.774,36.459,69.817,37.271,69.817,38.782z"/>
		<linearGradient id="SVGID_2_" gradientUnits="userSpaceOnUse" x1="59.7788" y1="23.4375" x2="67.9453" y2="23.4375">
			<stop  offset="0.011" style="stop-color:#572E29"/>
			<stop  offset="0.0949" style="stop-color:#684038"/>
			<stop  offset="0.2617" style="stop-color:#936D5F"/>
			<stop  offset="0.3791" style="stop-color:#B5917D"/>
			<stop  offset="0.6209" style="stop-color:#B08A70"/>
			<stop  offset="0.9835" style="stop-color:#52382E"/>
		</linearGradient>
		<path fill="url(#SVGID_2_)" d="M68.584,37.375c0,1.174-2.481,2.125-5.542,2.125s-5.542-0.951-5.542-2.125L59.126,7.5l6.75-0.125
			l1.375,0.5L68.584,37.375z"/>
		<path fill="#57403B" d="M59.844,7.511l-0.823,0.823v0.48c0,0,3.155,2.263,8.161,0.206l0.069-1.145L59.844,7.511z"/>
		<linearGradient id="SVGID_3_" gradientUnits="userSpaceOnUse" x1="58.3765" y1="5.625" x2="67.8765" y2="5.625">
			<stop  offset="0" style="stop-color:#7A6354"/>
			<stop  offset="0.2143" style="stop-color:#927967"/>
			<stop  offset="0.5055" style="stop-color:#B99C85"/>
			<stop  offset="0.9835" style="stop-color:#7A5F50"/>
		</linearGradient>
		<path fill="url(#SVGID_3_)" d="M67.876,7.125c0,1.243-2.126,2.25-4.75,2.25s-4.75-1.007-4.75-2.25V2.25l2-0.375l6,0.125l1.5,0.25
			V7.125z"/>
		<ellipse fill="#4D3824" cx="63.126" cy="2.25" rx="4.75" ry="2.25"/>
	</g>
	<g>
		<linearGradient id="SVGID_4_" gradientUnits="userSpaceOnUse" x1="43.4648" y1="47.0229" x2="59.4161" y2="46.2808">
			<stop  offset="0.011" style="stop-color:#572E29"/>
			<stop  offset="0.0949" style="stop-color:#684038"/>
			<stop  offset="0.2617" style="stop-color:#936D5F"/>
			<stop  offset="0.3791" style="stop-color:#B5917D"/>
			<stop  offset="0.6209" style="stop-color:#B08A70"/>
			<stop  offset="0.9835" style="stop-color:#52382E"/>
		</linearGradient>
		<path fill="url(#SVGID_4_)" d="M53.817,46.782c0,1.511-3.043,2.478-6.798,2.478c-3.755,0-6.798-0.966-6.798-2.478
			c0-1.511,3.043-2.323,6.798-2.323C50.774,44.459,53.817,45.271,53.817,46.782z"/>
		<linearGradient id="SVGID_5_" gradientUnits="userSpaceOnUse" x1="43.7788" y1="31.4375" x2="51.9453" y2="31.4375">
			<stop  offset="0.011" style="stop-color:#572E29"/>
			<stop  offset="0.0949" style="stop-color:#684038"/>
			<stop  offset="0.2617" style="stop-color:#936D5F"/>
			<stop  offset="0.3791" style="stop-color:#B5917D"/>
			<stop  offset="0.6209" style="stop-color:#B08A70"/>
			<stop  offset="0.9835" style="stop-color:#52382E"/>
		</linearGradient>
		<path fill="url(#SVGID_5_)" d="M52.584,45.375c0,1.174-2.481,2.125-5.542,2.125s-5.542-0.951-5.542-2.125L43.126,15.5l6.75-0.125
			l1.375,0.5L52.584,45.375z"/>
		<path fill="#57403B" d="M43.844,15.511l-0.823,0.823v0.48c0,0,3.155,2.263,8.161,0.206l0.069-1.145L43.844,15.511z"/>
		<linearGradient id="SVGID_6_" gradientUnits="userSpaceOnUse" x1="42.3765" y1="13.625" x2="51.8765" y2="13.625">
			<stop  offset="0" style="stop-color:#7A6354"/>
			<stop  offset="0.2143" style="stop-color:#927967"/>
			<stop  offset="0.5055" style="stop-color:#B99C85"/>
			<stop  offset="0.9835" style="stop-color:#7A5F50"/>
		</linearGradient>
		<path fill="url(#SVGID_6_)" d="M51.876,15.125c0,1.243-2.126,2.25-4.75,2.25s-4.75-1.007-4.75-2.25V10.25l2-0.375l6,0.125
			l1.5,0.25V15.125z"/>
		<ellipse fill="#4D3824" cx="47.126" cy="10.25" rx="4.75" ry="2.25"/>
	</g>
	<g>
		<linearGradient id="SVGID_7_" gradientUnits="userSpaceOnUse" x1="27.3408" y1="54.6455" x2="44.6535" y2="55.6348">
			<stop  offset="0.011" style="stop-color:#572E29"/>
			<stop  offset="0.0949" style="stop-color:#684038"/>
			<stop  offset="0.2617" style="stop-color:#936D5F"/>
			<stop  offset="0.3791" style="stop-color:#B5917D"/>
			<stop  offset="0.6209" style="stop-color:#B08A70"/>
			<stop  offset="0.9835" style="stop-color:#52382E"/>
		</linearGradient>
		<path fill="url(#SVGID_7_)" d="M37.817,54.782c0,1.511-3.043,2.478-6.798,2.478c-3.755,0-6.798-0.966-6.798-2.478
			c0-1.511,3.043-2.323,6.798-2.323C34.774,52.459,37.817,53.271,37.817,54.782z"/>
		<linearGradient id="SVGID_8_" gradientUnits="userSpaceOnUse" x1="27.7788" y1="39.4375" x2="35.9453" y2="39.4375">
			<stop  offset="0.011" style="stop-color:#572E29"/>
			<stop  offset="0.0949" style="stop-color:#684038"/>
			<stop  offset="0.2617" style="stop-color:#936D5F"/>
			<stop  offset="0.3791" style="stop-color:#B5917D"/>
			<stop  offset="0.6209" style="stop-color:#B08A70"/>
			<stop  offset="0.9835" style="stop-color:#52382E"/>
		</linearGradient>
		<path fill="url(#SVGID_8_)" d="M36.584,53.375c0,1.174-2.481,2.125-5.542,2.125s-5.542-0.951-5.542-2.125L27.126,23.5l6.75-0.125
			l1.375,0.5L36.584,53.375z"/>
		<path fill="#57403B" d="M27.844,23.511l-0.823,0.823v0.48c0,0,3.155,2.263,8.161,0.206l0.069-1.145L27.844,23.511z"/>
		<linearGradient id="SVGID_9_" gradientUnits="userSpaceOnUse" x1="26.3765" y1="21.625" x2="35.8765" y2="21.625">
			<stop  offset="0" style="stop-color:#7A6354"/>
			<stop  offset="0.2143" style="stop-color:#927967"/>
			<stop  offset="0.5055" style="stop-color:#B99C85"/>
			<stop  offset="0.9835" style="stop-color:#7A5F50"/>
		</linearGradient>
		<path fill="url(#SVGID_9_)" d="M35.876,23.125c0,1.243-2.126,2.25-4.75,2.25s-4.75-1.007-4.75-2.25V18.25l2-0.375l6,0.125
			l1.5,0.25V23.125z"/>
		<ellipse fill="#4D3824" cx="31.126" cy="18.25" rx="4.75" ry="2.25"/>
	</g>
</g>
</svg>
