<?xml version="1.0" encoding="utf-8"?>
<!-- Generator: Adobe Illustrator 15.0.0, SVG Export Plug-In . SVG Version: 6.00 Build 0)  -->
<!DOCTYPE svg PUBLIC "-//W3C//DTD SVG 1.1 Tiny//EN" "http://www.w3.org/Graphics/SVG/1.1/DTD/svg11-tiny.dtd">
<svg version="1.1" baseProfile="tiny" id="_x30_2" xmlns="http://www.w3.org/2000/svg" xmlns:xlink="http://www.w3.org/1999/xlink"
	 x="0px" y="0px" width="83.707px" height="168.981px" viewBox="0 0 83.707 168.981" xml:space="preserve">
<g>
	<g>
		<rect x="40.537" y="162.644" width="2.613" height="1.828"/>
		<rect x="34.957" y="163.971" fill="#463232" width="13.77" height="2.112"/>
	</g>
	<linearGradient id="SVGID_1_" gradientUnits="userSpaceOnUse" x1="11.3672" y1="63.1206" x2="72.2637" y2="63.1206">
		<stop  offset="0" style="stop-color:#9C6667"/>
		<stop  offset="0.0369" style="stop-color:#A87777"/>
		<stop  offset="0.1313" style="stop-color:#C29C9C"/>
		<stop  offset="0.2258" style="stop-color:#D6B9B9"/>
		<stop  offset="0.3193" style="stop-color:#E4CDCE"/>
		<stop  offset="0.4112" style="stop-color:#EDDADA"/>
		<stop  offset="0.5" style="stop-color:#F0DEDE"/>
		<stop  offset="0.5783" style="stop-color:#EDDADA"/>
		<stop  offset="0.6595" style="stop-color:#E5CDCE"/>
		<stop  offset="0.742" style="stop-color:#D6B9BA"/>
		<stop  offset="0.8254" style="stop-color:#C29C9E"/>
		<stop  offset="0.9096" style="stop-color:#A9767A"/>
		<stop  offset="0.9932" style="stop-color:#8A494E"/>
		<stop  offset="1" style="stop-color:#87454A"/>
	</linearGradient>
	<polygon fill="url(#SVGID_1_)" points="72.264,60.656 54.758,123.733 28.875,123.733 11.367,60.646 11.367,2.508 72.264,2.508 	"/>
	<linearGradient id="SVGID_2_" gradientUnits="userSpaceOnUse" x1="72.2646" y1="60.8916" x2="13.9702" y2="60.8021">
		<stop  offset="0" style="stop-color:#320000"/>
		<stop  offset="0.354" style="stop-color:#340202"/>
		<stop  offset="0.5426" style="stop-color:#3C0809"/>
		<stop  offset="0.6922" style="stop-color:#4A1315"/>
		<stop  offset="0.8213" style="stop-color:#5D2325"/>
		<stop  offset="0.9361" style="stop-color:#76373B"/>
		<stop  offset="1" style="stop-color:#87454A"/>
	</linearGradient>
	<rect x="11.367" y="60.323" fill="url(#SVGID_2_)" width="60.896" height="1.044"/>
	<rect x="11.367" y="6.625" fill="#925D5C" width="60.896" height="2.202"/>
	<linearGradient id="SVGID_3_" gradientUnits="userSpaceOnUse" x1="37.7988" y1="154.5698" x2="45.8887" y2="154.5698">
		<stop  offset="0" style="stop-color:#463232"/>
		<stop  offset="0.1374" style="stop-color:#6B5757"/>
		<stop  offset="0.3057" style="stop-color:#937F7F"/>
		<stop  offset="0.4398" style="stop-color:#AB9797"/>
		<stop  offset="0.522" style="stop-color:#B4A0A0"/>
		<stop  offset="0.5973" style="stop-color:#AB9797"/>
		<stop  offset="0.7201" style="stop-color:#937F7F"/>
		<stop  offset="0.8741" style="stop-color:#6B5757"/>
		<stop  offset="1" style="stop-color:#463232"/>
	</linearGradient>
	<rect x="37.799" y="146.145" fill="url(#SVGID_3_)" width="8.09" height="16.85"/>
	<linearGradient id="SVGID_4_" gradientUnits="userSpaceOnUse" x1="6.8555" y1="3.7241" x2="76.832" y2="3.7241">
		<stop  offset="0" style="stop-color:#733232"/>
		<stop  offset="0.099" style="stop-color:#935E5E"/>
		<stop  offset="0.2341" style="stop-color:#BB9595"/>
		<stop  offset="0.3508" style="stop-color:#D8BDBD"/>
		<stop  offset="0.4433" style="stop-color:#E9D5D5"/>
		<stop  offset="0.5" style="stop-color:#F0DEDE"/>
		<stop  offset="0.5567" style="stop-color:#E9D5D5"/>
		<stop  offset="0.6492" style="stop-color:#D8BDBD"/>
		<stop  offset="0.7659" style="stop-color:#BB9595"/>
		<stop  offset="0.901" style="stop-color:#935E5E"/>
		<stop  offset="1" style="stop-color:#733232"/>
	</linearGradient>
	<rect x="6.855" fill="url(#SVGID_4_)" width="69.977" height="7.448"/>
	<radialGradient id="SVGID_5_" cx="41.8867" cy="124.5806" r="26.3933" gradientUnits="userSpaceOnUse">
		<stop  offset="0" style="stop-color:#FFFFFF"/>
		<stop  offset="1" style="stop-color:#DCC8C8"/>
	</radialGradient>
	<path fill="url(#SVGID_5_)" d="M67.316,133.015c2.314,12.229-11.533,18.647-20.209,18.647H36.578
		c-9.387,0-21.993-6.641-20.207-18.647c0,0,2.277-16.84,25.475-35.516C41.846,97.499,63.213,113.708,67.316,133.015z"/>
	<polygon fill="#786E78" points="11.405,60.721 4.463,71.643 18.18,71.643 	"/>
	<polygon fill="#E6E1E6" points="19.365,62.5 12.421,73.421 26.139,73.421 	"/>
	<polygon fill="#786E78" points="72.283,60.721 79.229,71.643 65.51,71.643 	"/>
	<polygon fill="#E6E1E6" points="64.328,62.5 71.271,73.421 57.553,73.421 	"/>
	<path d="M46.543,150.109c0,2.597-2.102,4.698-4.697,4.698c-2.598,0-4.701-2.101-4.701-4.698c0-2.599,2.104-4.701,4.701-4.701
		C44.441,145.408,46.543,147.511,46.543,150.109z"/>
	<g>
		<linearGradient id="SVGID_6_" gradientUnits="userSpaceOnUse" x1="38.8652" y1="153.3867" x2="41.582" y2="153.3867">
			<stop  offset="0" style="stop-color:#463232"/>
			<stop  offset="0.1374" style="stop-color:#6B5757"/>
			<stop  offset="0.3057" style="stop-color:#937F7F"/>
			<stop  offset="0.4398" style="stop-color:#AB9797"/>
			<stop  offset="0.522" style="stop-color:#B4A0A0"/>
			<stop  offset="0.5973" style="stop-color:#AB9797"/>
			<stop  offset="0.7201" style="stop-color:#937F7F"/>
			<stop  offset="0.8741" style="stop-color:#6B5757"/>
			<stop  offset="1" style="stop-color:#463232"/>
		</linearGradient>
		<rect x="38.865" y="151.27" fill="url(#SVGID_6_)" width="2.717" height="4.233"/>
		<path d="M41.582,155.588c0,0.754-0.605,1.362-1.359,1.362c-0.75,0-1.357-0.607-1.357-1.362c0-0.747,0.607-1.358,1.357-1.358
			C40.977,154.229,41.582,154.841,41.582,155.588z"/>
		<linearGradient id="SVGID_7_" gradientUnits="userSpaceOnUse" x1="42.1035" y1="153.3867" x2="44.8223" y2="153.3867">
			<stop  offset="0" style="stop-color:#463232"/>
			<stop  offset="0.1374" style="stop-color:#6B5757"/>
			<stop  offset="0.3057" style="stop-color:#937F7F"/>
			<stop  offset="0.4398" style="stop-color:#AB9797"/>
			<stop  offset="0.522" style="stop-color:#B4A0A0"/>
			<stop  offset="0.5973" style="stop-color:#AB9797"/>
			<stop  offset="0.7201" style="stop-color:#937F7F"/>
			<stop  offset="0.8741" style="stop-color:#6B5757"/>
			<stop  offset="1" style="stop-color:#463232"/>
		</linearGradient>
		<rect x="42.104" y="151.27" fill="url(#SVGID_7_)" width="2.719" height="4.233"/>
		<path d="M44.822,155.588c0,0.754-0.607,1.362-1.357,1.362c-0.752,0-1.361-0.607-1.361-1.362c0-0.747,0.609-1.358,1.361-1.358
			C44.215,154.229,44.822,154.841,44.822,155.588z"/>
	</g>
	<radialGradient id="SVGID_8_" cx="25.8003" cy="128.2881" r="39.6873" gradientUnits="userSpaceOnUse">
		<stop  offset="0" style="stop-color:#D2AAAA"/>
		<stop  offset="0.1844" style="stop-color:#CFA7A7"/>
		<stop  offset="0.3305" style="stop-color:#C59D9E"/>
		<stop  offset="0.4631" style="stop-color:#B58C8E"/>
		<stop  offset="0.5824" style="stop-color:#9F7679"/>
		<stop  offset="0.7692" style="stop-color:#91686C"/>
	</radialGradient>
	<path fill="url(#SVGID_8_)" d="M54.783,138.932c-0.498,6.688-6.121,11.926-12.938,11.926c-6.772,0-12.369-5.2-12.934-11.824
		l-0.012-0.136v-15.175h25.883v15.175V138.932z"/>
	<rect x="28.9" y="138.305" width="25.885" height="0.582"/>
	<linearGradient id="SVGID_9_" gradientUnits="userSpaceOnUse" x1="37.7988" y1="98.5957" x2="45.8887" y2="98.5957">
		<stop  offset="0" style="stop-color:#463232"/>
		<stop  offset="0.1374" style="stop-color:#6B5757"/>
		<stop  offset="0.3057" style="stop-color:#937F7F"/>
		<stop  offset="0.4398" style="stop-color:#AB9797"/>
		<stop  offset="0.522" style="stop-color:#B4A0A0"/>
		<stop  offset="0.5973" style="stop-color:#AB9797"/>
		<stop  offset="0.7201" style="stop-color:#937F7F"/>
		<stop  offset="0.8741" style="stop-color:#6B5757"/>
		<stop  offset="1" style="stop-color:#463232"/>
	</linearGradient>
	<rect x="37.799" y="73.393" fill="url(#SVGID_9_)" width="8.09" height="50.405"/>
	<rect x="37.799" y="72.513" width="8.09" height="1.732"/>
	<rect x="35.855" y="71.565" fill="#463232" width="11.975" height="2.173"/>
	<rect x="8.837" y="90.748" fill="#040204" width="66.015" height="7.448"/>
	<rect x="75.516" y="165.827" width="2.615" height="1.825"/>
	<linearGradient id="SVGID_10_" gradientUnits="userSpaceOnUse" x1="72.7773" y1="121.4673" x2="80.8691" y2="121.4673">
		<stop  offset="0" style="stop-color:#463232"/>
		<stop  offset="0.1374" style="stop-color:#6B5757"/>
		<stop  offset="0.3057" style="stop-color:#937F7F"/>
		<stop  offset="0.4398" style="stop-color:#AB9797"/>
		<stop  offset="0.522" style="stop-color:#B4A0A0"/>
		<stop  offset="0.5973" style="stop-color:#AB9797"/>
		<stop  offset="0.7201" style="stop-color:#937F7F"/>
		<stop  offset="0.8741" style="stop-color:#6B5757"/>
		<stop  offset="1" style="stop-color:#463232"/>
	</linearGradient>
	<rect x="72.777" y="76.675" fill="url(#SVGID_10_)" width="8.092" height="89.584"/>
	<rect x="72.777" y="75.794" width="8.092" height="1.73"/>
	<rect x="70.838" y="74.661" fill="#463232" width="11.973" height="2.359"/>
	<rect x="69.939" y="167.154" fill="#463232" width="13.768" height="1.827"/>
	<rect x="5.574" y="165.827" width="2.617" height="1.825"/>
	<linearGradient id="SVGID_11_" gradientUnits="userSpaceOnUse" x1="2.8379" y1="121.4673" x2="10.9297" y2="121.4673">
		<stop  offset="0" style="stop-color:#463232"/>
		<stop  offset="0.1374" style="stop-color:#6B5757"/>
		<stop  offset="0.3057" style="stop-color:#937F7F"/>
		<stop  offset="0.4398" style="stop-color:#AB9797"/>
		<stop  offset="0.522" style="stop-color:#B4A0A0"/>
		<stop  offset="0.5973" style="stop-color:#AB9797"/>
		<stop  offset="0.7201" style="stop-color:#937F7F"/>
		<stop  offset="0.8741" style="stop-color:#6B5757"/>
		<stop  offset="1" style="stop-color:#463232"/>
	</linearGradient>
	<rect x="2.838" y="76.675" fill="url(#SVGID_11_)" width="8.092" height="89.584"/>
	<rect x="2.838" y="75.794" width="8.092" height="1.73"/>
	<rect x="0.896" y="74.661" fill="#463232" width="11.975" height="2.359"/>
	<rect y="167.154" fill="#463232" width="13.768" height="1.827"/>
</g>
</svg>
