<?xml version="1.0" encoding="utf-8"?>
<!-- Generator: Adobe Illustrator 15.0.0, SVG Export Plug-In . SVG Version: 6.00 Build 0)  -->
<!DOCTYPE svg PUBLIC "-//W3C//DTD SVG 1.1 Tiny//EN" "http://www.w3.org/Graphics/SVG/1.1/DTD/svg11-tiny.dtd">
<svg version="1.1" baseProfile="tiny" id="_x30_5" xmlns="http://www.w3.org/2000/svg" xmlns:xlink="http://www.w3.org/1999/xlink"
	 x="0px" y="0px" width="70.002px" height="58.477px" viewBox="0 0 70.002 58.477" xml:space="preserve">
<g>
	<linearGradient id="SVGID_1_" gradientUnits="userSpaceOnUse" x1="20.4766" y1="52.4385" x2="49.5254" y2="52.4385">
		<stop  offset="0" style="stop-color:#BACEF5"/>
		<stop  offset="0.1648" style="stop-color:#D2E1E1"/>
		<stop  offset="0.2014" style="stop-color:#CBDBE1"/>
		<stop  offset="0.3445" style="stop-color:#B7C9E1"/>
		<stop  offset="0.4856" style="stop-color:#AABEE1"/>
		<stop  offset="0.6209" style="stop-color:#A6BAE1"/>
	</linearGradient>
	<path fill="url(#SVGID_1_)" d="M20.477,54.252c0,2.334,6.504,4.225,14.527,4.225c8.02,0,14.521-1.891,14.521-4.225v-7.853H20.477
		V54.252z"/>
	<linearGradient id="SVGID_2_" gradientUnits="userSpaceOnUse" x1="15.8535" y1="36.9756" x2="63.0834" y2="11.863">
		<stop  offset="0" style="stop-color:#98B1E2"/>
		<stop  offset="0.0451" style="stop-color:#BBC9D6"/>
		<stop  offset="0.06" style="stop-color:#C8D2D2"/>
		<stop  offset="0.0975" style="stop-color:#B5C2CE"/>
		<stop  offset="0.1549" style="stop-color:#9FB0CA"/>
		<stop  offset="0.2226" style="stop-color:#8EA2C6"/>
		<stop  offset="0.3063" style="stop-color:#8398C4"/>
		<stop  offset="0.4238" style="stop-color:#7C93C2"/>
		<stop  offset="0.75" style="stop-color:#7A91C2"/>
	</linearGradient>
	<path fill="url(#SVGID_2_)" d="M49.523,46.579c-1.26,2.258-6.775,3.799-14.52,3.799c-7.746,0-13.311-1.445-14.527-3.797
		l-0.006-0.007L0,17.438l0.443-0.413h69.004l0.555,0.413L49.529,46.574L49.523,46.579z"/>
	<linearGradient id="SVGID_3_" gradientUnits="userSpaceOnUse" x1="0.0879" y1="13.9502" x2="69.9121" y2="13.9502">
		<stop  offset="0" style="stop-color:#BACEF5"/>
		<stop  offset="0.1648" style="stop-color:#D2E1E1"/>
		<stop  offset="0.188" style="stop-color:#CBDADF"/>
		<stop  offset="0.2859" style="stop-color:#B2C3D7"/>
		<stop  offset="0.3881" style="stop-color:#A0B3D1"/>
		<stop  offset="0.4964" style="stop-color:#95A9CE"/>
		<stop  offset="0.6209" style="stop-color:#92A6CD"/>
	</linearGradient>
	<path fill="url(#SVGID_3_)" d="M69.912,17.444V6.133l-3.404-1.814H3.492L0.088,6.131v11.313v0.01
		c0,3.385,15.629,6.129,34.916,6.129c19.279,0,34.908-2.744,34.908-6.129V17.444z"/>
	<linearGradient id="SVGID_4_" gradientUnits="userSpaceOnUse" x1="35" y1="18.6357" x2="35" y2="-0.4963">
		<stop  offset="0" style="stop-color:#141432"/>
		<stop  offset="0.2118" style="stop-color:#1A1A37"/>
		<stop  offset="0.491" style="stop-color:#2A2A45"/>
		<stop  offset="0.8064" style="stop-color:#46465D"/>
		<stop  offset="1" style="stop-color:#5A5A6E"/>
	</linearGradient>
	<path fill="url(#SVGID_4_)" d="M69.912,6.131c0,3.386-15.629,6.126-34.908,6.126c-19.287,0-34.916-2.74-34.916-6.126
		C0.088,2.743,15.717,0,35.004,0C54.283,0,69.912,2.743,69.912,6.131z"/>
</g>
</svg>
