<?xml version="1.0" encoding="utf-8"?>
<!-- Generator: Adobe Illustrator 15.0.0, SVG Export Plug-In . SVG Version: 6.00 Build 0)  -->
<!DOCTYPE svg PUBLIC "-//W3C//DTD SVG 1.1 Tiny//EN" "http://www.w3.org/Graphics/SVG/1.1/DTD/svg11-tiny.dtd">
<svg version="1.1" baseProfile="tiny" id="_x30_1" xmlns="http://www.w3.org/2000/svg" xmlns:xlink="http://www.w3.org/1999/xlink"
	 x="0px" y="0px" width="83.613px" height="155.732px" viewBox="0 0 83.613 155.732" xml:space="preserve">
<g>
	<rect x="7.766" y="146.427" width="1.402" height="2.688"/>
	<rect x="74.438" y="146.427" width="1.4" height="2.688"/>
	<rect x="2.205" y="1.857" fill="#0E400A" width="6.307" height="4.246"/>
	<rect x="74.58" y="1.857" fill="#0E400A" width="6.313" height="4.246"/>
	<rect x="4.43" y="3.827" width="74.516" height="8.057"/>
	<linearGradient id="SVGID_1_" gradientUnits="userSpaceOnUse" x1="9.9658" y1="107.9863" x2="6.7811" y2="107.9863">
		<stop  offset="0" style="stop-color:#D1E3C4"/>
		<stop  offset="0.3342" style="stop-color:#D3E4C7"/>
		<stop  offset="0.5607" style="stop-color:#DAE9D0"/>
		<stop  offset="0.7553" style="stop-color:#E6F0DF"/>
		<stop  offset="0.9308" style="stop-color:#F7FAF4"/>
		<stop  offset="1" style="stop-color:#FFFFFF"/>
	</linearGradient>
	<rect x="6.945" y="68.936" fill="url(#SVGID_1_)" width="3.043" height="78.101"/>
	<rect x="6.314" y="148.449" fill="#0E400A" width="4.305" height="3.064"/>
	<linearGradient id="SVGID_2_" gradientUnits="userSpaceOnUse" x1="73.6191" y1="107.9858" x2="76.6621" y2="107.9858">
		<stop  offset="0" style="stop-color:#D1E3C4"/>
		<stop  offset="0.3342" style="stop-color:#D3E4C7"/>
		<stop  offset="0.5607" style="stop-color:#DAE9D0"/>
		<stop  offset="0.7553" style="stop-color:#E6F0DF"/>
		<stop  offset="0.9308" style="stop-color:#F7FAF4"/>
		<stop  offset="1" style="stop-color:#FFFFFF"/>
	</linearGradient>
	<rect x="73.619" y="68.936" fill="url(#SVGID_2_)" width="3.043" height="78.101"/>
	<rect x="72.988" y="148.449" fill="#0E400A" width="4.305" height="3.064"/>
	<polygon fill="#0E400A" points="8.941,136.922 75.688,86.667 75.682,84.45 8.906,134.73 	"/>
	<polygon fill="#0E400A" points="75.695,136.922 8.945,86.667 8.955,84.45 75.734,134.73 	"/>
	<linearGradient id="SVGID_3_" gradientUnits="userSpaceOnUse" x1="7.7695" y1="59.606" x2="74.9727" y2="59.8769">
		<stop  offset="0" style="stop-color:#508632"/>
		<stop  offset="0.0216" style="stop-color:#5B8F3F"/>
		<stop  offset="0.1563" style="stop-color:#9AC68C"/>
		<stop  offset="0.2524" style="stop-color:#C2E8BC"/>
		<stop  offset="0.3" style="stop-color:#D1F5CE"/>
		<stop  offset="0.3677" style="stop-color:#C9EEC5"/>
		<stop  offset="0.4782" style="stop-color:#B3DCAD"/>
		<stop  offset="0.6168" style="stop-color:#90BF85"/>
		<stop  offset="0.68" style="stop-color:#7EB071"/>
		<stop  offset="0.7476" style="stop-color:#73A765"/>
		<stop  offset="0.8687" style="stop-color:#578E46"/>
		<stop  offset="1" style="stop-color:#326D1E"/>
	</linearGradient>
	<polygon fill="url(#SVGID_3_)" points="76.857,71.774 57.227,114.748 26.377,114.748 6.744,70.93 6.744,4.817 76.857,4.817 	"/>
	<linearGradient id="SVGID_4_" gradientUnits="userSpaceOnUse" x1="13.71" y1="70.7178" x2="72.0642" y2="70.522">
		<stop  offset="0" style="stop-color:#7CAE5A"/>
		<stop  offset="0.0707" style="stop-color:#5D8F43"/>
		<stop  offset="0.1527" style="stop-color:#40722E"/>
		<stop  offset="0.2448" style="stop-color:#285A1D"/>
		<stop  offset="0.3496" style="stop-color:#164810"/>
		<stop  offset="0.4744" style="stop-color:#0A3C07"/>
		<stop  offset="0.639" style="stop-color:#023402"/>
		<stop  offset="1" style="stop-color:#003200"/>
	</linearGradient>
	<rect x="6.744" y="70.317" fill="url(#SVGID_4_)" width="70.113" height="0.613"/>
	<rect x="6.744" y="11.624" fill="#5A5A5A" width="70.113" height="1.557"/>
	<linearGradient id="SVGID_5_" gradientUnits="userSpaceOnUse" x1="6.4023" y1="8.0869" x2="77.2012" y2="8.0869">
		<stop  offset="0" style="stop-color:#508632"/>
		<stop  offset="0.0216" style="stop-color:#5B8F3F"/>
		<stop  offset="0.1563" style="stop-color:#9AC68C"/>
		<stop  offset="0.2524" style="stop-color:#C2E8BC"/>
		<stop  offset="0.3" style="stop-color:#D1F5CE"/>
		<stop  offset="0.3677" style="stop-color:#C9EEC5"/>
		<stop  offset="0.4782" style="stop-color:#B3DCAD"/>
		<stop  offset="0.6168" style="stop-color:#90BF85"/>
		<stop  offset="0.68" style="stop-color:#7EB071"/>
		<stop  offset="0.7476" style="stop-color:#73A765"/>
		<stop  offset="0.8687" style="stop-color:#578E46"/>
		<stop  offset="1" style="stop-color:#326D1E"/>
	</linearGradient>
	<rect x="6.402" y="3.827" fill="url(#SVGID_5_)" width="70.799" height="8.521"/>
	<polygon fill="#2C5E21" points="5.5,146.109 78.949,90.808 79.139,90.808 79.139,88.404 78.949,88.404 5.5,143.708 	"/>
	<polygon fill="#45773A" points="79.139,146.109 5.686,90.808 5.5,90.808 5.5,88.404 5.686,88.404 79.139,143.708 	"/>
	<g>
		<rect x="79.281" y="150.646" width="1.648" height="2.69"/>
		<rect x="76.6" y="152.667" fill="#2C5E21" width="7.014" height="3.065"/>
		<linearGradient id="SVGID_6_" gradientUnits="userSpaceOnUse" x1="77.9199" y1="77.0879" x2="82.291" y2="77.0879">
			<stop  offset="0" style="stop-color:#DBEDCE"/>
			<stop  offset="0.4897" style="stop-color:#DCEED0"/>
			<stop  offset="0.6862" style="stop-color:#E2F0D7"/>
			<stop  offset="0.8302" style="stop-color:#EBF5E3"/>
			<stop  offset="0.9477" style="stop-color:#F7FBF4"/>
			<stop  offset="1" style="stop-color:#FFFFFF"/>
		</linearGradient>
		<rect x="77.92" y="3.207" fill="url(#SVGID_6_)" width="4.371" height="147.762"/>
		<rect x="76.953" fill="#2C5E21" width="6.307" height="4.247"/>
	</g>
	<g>
		<rect x="2.68" y="150.646" width="1.646" height="2.69"/>
		<linearGradient id="SVGID_7_" gradientUnits="userSpaceOnUse" x1="4.5078" y1="77.0879" x2="1.3299" y2="77.0879">
			<stop  offset="0" style="stop-color:#DBEDCE"/>
			<stop  offset="0.4897" style="stop-color:#DCEED0"/>
			<stop  offset="0.6862" style="stop-color:#E2F0D7"/>
			<stop  offset="0.8302" style="stop-color:#EBF5E3"/>
			<stop  offset="0.9477" style="stop-color:#F7FBF4"/>
			<stop  offset="1" style="stop-color:#FFFFFF"/>
		</linearGradient>
		<rect x="1.316" y="3.207" fill="url(#SVGID_7_)" width="4.375" height="147.762"/>
		<rect y="152.667" fill="#2C5E21" width="7.006" height="3.065"/>
		<rect x="0.348" fill="#2C5E21" width="6.307" height="4.247"/>
	</g>
</g>
</svg>
