<?xml version="1.0" encoding="utf-8"?>
<!-- Generator: Adobe Illustrator 15.0.0, SVG Export Plug-In . SVG Version: 6.00 Build 0)  -->
<!DOCTYPE svg PUBLIC "-//W3C//DTD SVG 1.1 Tiny//EN" "http://www.w3.org/Graphics/SVG/1.1/DTD/svg11-tiny.dtd">
<svg version="1.1" baseProfile="tiny" id="_x30_4" xmlns="http://www.w3.org/2000/svg" xmlns:xlink="http://www.w3.org/1999/xlink"
	 x="0px" y="0px" width="70px" height="47.272px" viewBox="0 0 70 47.272" xml:space="preserve">
<g>
	<linearGradient id="SVGID_1_" gradientUnits="userSpaceOnUse" x1="20.4395" y1="41.2197" x2="49.5625" y2="41.2197">
		<stop  offset="0" style="stop-color:#BACEF5"/>
		<stop  offset="0.1648" style="stop-color:#CDD7D7"/>
		<stop  offset="0.2142" style="stop-color:#C3D0D9"/>
		<stop  offset="0.3292" style="stop-color:#B3C4DE"/>
		<stop  offset="0.4569" style="stop-color:#A9BCE0"/>
		<stop  offset="0.6209" style="stop-color:#A6BAE1"/>
	</linearGradient>
	<path fill="url(#SVGID_1_)" d="M20.439,43.041c0,2.335,6.521,4.231,14.563,4.231s14.561-1.896,14.561-4.231v-7.873H20.439V43.041z"
		/>
	<linearGradient id="SVGID_2_" gradientUnits="userSpaceOnUse" x1="11.54" y1="27.9893" x2="65.9845" y2="-0.9593">
		<stop  offset="0.0165" style="stop-color:#98B1E2"/>
		<stop  offset="0.0992" style="stop-color:#BBC9D6"/>
		<stop  offset="0.1264" style="stop-color:#C8D2D2"/>
		<stop  offset="0.1603" style="stop-color:#B5C2CE"/>
		<stop  offset="0.2121" style="stop-color:#9FB0CA"/>
		<stop  offset="0.2733" style="stop-color:#8EA2C6"/>
		<stop  offset="0.349" style="stop-color:#8398C4"/>
		<stop  offset="0.4552" style="stop-color:#7C93C2"/>
		<stop  offset="0.75" style="stop-color:#7A91C2"/>
	</linearGradient>
	<path fill="url(#SVGID_2_)" d="M49.561,35.348c-1.26,2.262-6.797,3.81-14.559,3.81c-7.764,0-13.34-1.453-14.561-3.808l-0.008-0.007
		L0.357,6.958V5.719h69.178l-0.002,1.438L49.566,35.343L49.561,35.348z"/>
	<linearGradient id="SVGID_3_" gradientUnits="userSpaceOnUse" x1="35" y1="18.6914" x2="35" y2="-0.4971">
		<stop  offset="0" style="stop-color:#141432"/>
		<stop  offset="0.2118" style="stop-color:#1A1A37"/>
		<stop  offset="0.491" style="stop-color:#2A2A45"/>
		<stop  offset="0.8064" style="stop-color:#46465D"/>
		<stop  offset="1" style="stop-color:#5A5A6E"/>
	</linearGradient>
	<ellipse fill="url(#SVGID_3_)" cx="35" cy="6.146" rx="35" ry="6.146"/>
</g>
</svg>
