<?xml version="1.0" encoding="utf-8"?>
<!-- Generator: Adobe Illustrator 15.0.0, SVG Export Plug-In . SVG Version: 6.00 Build 0)  -->
<!DOCTYPE svg PUBLIC "-//W3C//DTD SVG 1.1 Tiny//EN" "http://www.w3.org/Graphics/SVG/1.1/DTD/svg11-tiny.dtd">
<svg version="1.1" baseProfile="tiny" id="_x30_1" xmlns="http://www.w3.org/2000/svg" xmlns:xlink="http://www.w3.org/1999/xlink"
	 x="0px" y="0px" width="83.613px" height="155.732px" viewBox="0 0 83.613 155.732" xml:space="preserve">
<g>
	<rect x="7.767" y="146.427" width="1.402" height="2.688"/>
	<rect x="74.439" y="146.427" width="1.402" height="2.688"/>
	<rect x="2.206" y="1.857" fill="#463232" width="6.308" height="4.246"/>
	<rect x="74.588" y="1.857" fill="#463232" width="6.309" height="4.246"/>
	<rect x="4.431" y="3.827" width="74.515" height="8.057"/>
	<linearGradient id="SVGID_1_" gradientUnits="userSpaceOnUse" x1="9.9678" y1="107.9863" x2="6.782" y2="107.9863">
		<stop  offset="0" style="stop-color:#BFA3A3"/>
		<stop  offset="1" style="stop-color:#E1DEDE"/>
	</linearGradient>
	<rect x="6.946" y="68.936" fill="url(#SVGID_1_)" width="3.044" height="78.101"/>
	<rect x="6.316" y="148.449" fill="#463232" width="4.303" height="3.064"/>
	<linearGradient id="SVGID_2_" gradientUnits="userSpaceOnUse" x1="73.6172" y1="107.9858" x2="76.666" y2="107.9858">
		<stop  offset="0" style="stop-color:#BFA3A3"/>
		<stop  offset="1" style="stop-color:#E1DEDE"/>
	</linearGradient>
	<rect x="73.617" y="68.936" fill="url(#SVGID_2_)" width="3.049" height="78.101"/>
	<rect x="72.99" y="148.449" fill="#463232" width="4.303" height="3.064"/>
	<polygon fill="#463232" points="8.944,136.922 75.691,86.667 75.684,84.45 8.909,134.73 	"/>
	<polygon fill="#463232" points="75.699,136.922 8.949,86.667 8.957,84.45 75.732,134.73 	"/>
	<linearGradient id="SVGID_3_" gradientUnits="userSpaceOnUse" x1="7.7729" y1="59.6055" x2="74.977" y2="59.8764">
		<stop  offset="0" style="stop-color:#733232"/>
		<stop  offset="0.044" style="stop-color:#884F4F"/>
		<stop  offset="0.1678" style="stop-color:#C09B9B"/>
		<stop  offset="0.2562" style="stop-color:#E3CCCC"/>
		<stop  offset="0.3" style="stop-color:#F0DEDE"/>
		<stop  offset="0.3694" style="stop-color:#EAD5D5"/>
		<stop  offset="0.4825" style="stop-color:#D8BDBD"/>
		<stop  offset="0.6245" style="stop-color:#BC9595"/>
		<stop  offset="0.68" style="stop-color:#AF8484"/>
		<stop  offset="1" style="stop-color:#733232"/>
	</linearGradient>
	<polygon fill="url(#SVGID_3_)" points="76.861,71.774 57.23,114.748 26.379,114.748 6.747,70.93 6.747,4.817 76.861,4.817 	"/>
	<linearGradient id="SVGID_4_" gradientUnits="userSpaceOnUse" x1="74.8232" y1="70.6821" x2="7.9664" y2="70.5632">
		<stop  offset="0" style="stop-color:#320000"/>
		<stop  offset="0.354" style="stop-color:#340202"/>
		<stop  offset="0.5426" style="stop-color:#3C0809"/>
		<stop  offset="0.6922" style="stop-color:#4A1315"/>
		<stop  offset="0.8213" style="stop-color:#5D2325"/>
		<stop  offset="0.9361" style="stop-color:#76373B"/>
		<stop  offset="1" style="stop-color:#87454A"/>
	</linearGradient>
	<rect x="6.747" y="70.317" fill="url(#SVGID_4_)" width="70.114" height="0.613"/>
	<rect x="6.747" y="11.624" fill="#87454A" width="70.114" height="1.557"/>
	<linearGradient id="SVGID_5_" gradientUnits="userSpaceOnUse" x1="6.4014" y1="8.0869" x2="77.2051" y2="8.0869">
		<stop  offset="0" style="stop-color:#733232"/>
		<stop  offset="0.044" style="stop-color:#884F4F"/>
		<stop  offset="0.1678" style="stop-color:#C09B9B"/>
		<stop  offset="0.2562" style="stop-color:#E3CCCC"/>
		<stop  offset="0.3" style="stop-color:#F0DEDE"/>
		<stop  offset="0.3694" style="stop-color:#EAD5D5"/>
		<stop  offset="0.4825" style="stop-color:#D8BDBD"/>
		<stop  offset="0.6245" style="stop-color:#BC9595"/>
		<stop  offset="0.68" style="stop-color:#AF8484"/>
		<stop  offset="1" style="stop-color:#733232"/>
	</linearGradient>
	<rect x="6.401" y="3.827" fill="url(#SVGID_5_)" width="70.804" height="8.521"/>
	<polygon fill="#685454" points="5.5,146.109 78.953,90.808 79.141,90.808 79.141,88.404 78.953,88.404 5.5,143.708 	"/>
	<polygon fill="#7C6868" points="79.141,146.109 5.688,90.808 5.5,90.808 5.5,88.404 5.688,88.404 79.141,143.708 	"/>
	<g>
		<rect x="79.283" y="150.646" width="1.652" height="2.69"/>
		<rect x="76.605" y="152.667" fill="#816D6D" width="7.008" height="3.065"/>
		<linearGradient id="SVGID_6_" gradientUnits="userSpaceOnUse" x1="77.9199" y1="77.0879" x2="82.2969" y2="77.0879">
			<stop  offset="0" style="stop-color:#C4A8A8"/>
			<stop  offset="1" style="stop-color:#E6E3E3"/>
		</linearGradient>
		<rect x="77.92" y="3.207" fill="url(#SVGID_6_)" width="4.377" height="147.762"/>
		<rect x="76.953" fill="#816D6D" width="6.309" height="4.247"/>
	</g>
	<g>
		<rect x="2.679" y="150.646" width="1.65" height="2.69"/>
		<linearGradient id="SVGID_7_" gradientUnits="userSpaceOnUse" x1="4.5088" y1="77.0879" x2="1.3308" y2="77.0879">
			<stop  offset="0" style="stop-color:#C4A8A8"/>
			<stop  offset="1" style="stop-color:#E6E3E3"/>
		</linearGradient>
		<rect x="1.317" y="3.207" fill="url(#SVGID_7_)" width="4.375" height="147.762"/>
		<rect y="152.667" fill="#816D6D" width="7.01" height="3.065"/>
		<rect x="0.351" fill="#816D6D" width="6.309" height="4.247"/>
	</g>
</g>
</svg>
