<?xml version="1.0" encoding="utf-8"?>
<!-- Generator: Adobe Illustrator 15.0.0, SVG Export Plug-In . SVG Version: 6.00 Build 0)  -->
<!DOCTYPE svg PUBLIC "-//W3C//DTD SVG 1.1 Tiny//EN" "http://www.w3.org/Graphics/SVG/1.1/DTD/svg11-tiny.dtd">
<svg version="1.1" baseProfile="tiny" id="_x30_2" xmlns="http://www.w3.org/2000/svg" xmlns:xlink="http://www.w3.org/1999/xlink"
	 x="0px" y="0px" width="83.707px" height="168.981px" viewBox="0 0 83.707 168.981" xml:space="preserve">
<g>
	<g>
		<rect x="40.537" y="162.644" width="2.617" height="1.828"/>
		<rect x="34.961" y="163.971" fill="#77777F" width="13.769" height="2.112"/>
	</g>
	<linearGradient id="SVGID_1_" gradientUnits="userSpaceOnUse" x1="11.3662" y1="63.1206" x2="72.2622" y2="63.1206">
		<stop  offset="0" style="stop-color:#828282"/>
		<stop  offset="0.0157" style="stop-color:#898989"/>
		<stop  offset="0.1145" style="stop-color:#AEAEAE"/>
		<stop  offset="0.2133" style="stop-color:#CBCBCB"/>
		<stop  offset="0.311" style="stop-color:#DFDFDF"/>
		<stop  offset="0.4072" style="stop-color:#ECECEC"/>
		<stop  offset="0.5" style="stop-color:#F0F0F0"/>
		<stop  offset="0.5928" style="stop-color:#ECECEC"/>
		<stop  offset="0.689" style="stop-color:#DFDFDF"/>
		<stop  offset="0.7867" style="stop-color:#CBCBCB"/>
		<stop  offset="0.8855" style="stop-color:#AEAEAE"/>
		<stop  offset="0.9843" style="stop-color:#898989"/>
		<stop  offset="1" style="stop-color:#828282"/>
	</linearGradient>
	<polygon fill="url(#SVGID_1_)" points="72.262,60.656 54.756,123.733 28.874,123.733 11.366,60.646 11.366,2.508 72.262,2.508 	"/>
	<linearGradient id="SVGID_2_" gradientUnits="userSpaceOnUse" x1="72.2627" y1="60.8916" x2="13.9687" y2="60.8021">
		<stop  offset="0" style="stop-color:#000000"/>
		<stop  offset="0.1995" style="stop-color:#0C0C0C"/>
		<stop  offset="0.5586" style="stop-color:#2B2B2B"/>
		<stop  offset="1" style="stop-color:#5A5A5A"/>
	</linearGradient>
	<rect x="11.366" y="60.323" fill="url(#SVGID_2_)" width="60.896" height="1.044"/>
	<rect x="11.366" y="6.625" fill="#6E6E6E" width="60.896" height="2.202"/>
	<linearGradient id="SVGID_3_" gradientUnits="userSpaceOnUse" x1="37.7998" y1="154.5698" x2="45.8906" y2="154.5698">
		<stop  offset="0.0056" style="stop-color:#77777F"/>
		<stop  offset="0.1105" style="stop-color:#8F909A"/>
		<stop  offset="0.2834" style="stop-color:#B0B4C2"/>
		<stop  offset="0.4211" style="stop-color:#C5CADA"/>
		<stop  offset="0.5056" style="stop-color:#CDD2E3"/>
		<stop  offset="0.5891" style="stop-color:#C5CADA"/>
		<stop  offset="0.7254" style="stop-color:#B0B4C2"/>
		<stop  offset="0.8963" style="stop-color:#8F909A"/>
		<stop  offset="1" style="stop-color:#77777F"/>
	</linearGradient>
	<rect x="37.8" y="146.145" fill="url(#SVGID_3_)" width="8.091" height="16.85"/>
	<linearGradient id="SVGID_4_" gradientUnits="userSpaceOnUse" x1="6.8579" y1="3.7241" x2="76.833" y2="3.7241">
		<stop  offset="0" style="stop-color:#5A5A5A"/>
		<stop  offset="0.0564" style="stop-color:#707070"/>
		<stop  offset="0.2059" style="stop-color:#A7A7A7"/>
		<stop  offset="0.335" style="stop-color:#CFCFCF"/>
		<stop  offset="0.4373" style="stop-color:#E7E7E7"/>
		<stop  offset="0.5" style="stop-color:#F0F0F0"/>
		<stop  offset="0.5627" style="stop-color:#E7E7E7"/>
		<stop  offset="0.665" style="stop-color:#CFCFCF"/>
		<stop  offset="0.7941" style="stop-color:#A7A7A7"/>
		<stop  offset="0.9436" style="stop-color:#707070"/>
		<stop  offset="1" style="stop-color:#5A5A5A"/>
	</linearGradient>
	<rect x="6.858" fill="url(#SVGID_4_)" width="69.975" height="7.448"/>
	<radialGradient id="SVGID_5_" cx="42.0518" cy="128.3472" r="31.5706" gradientUnits="userSpaceOnUse">
		<stop  offset="0" style="stop-color:#DCDCDC"/>
		<stop  offset="0.2249" style="stop-color:#D8D8D8"/>
		<stop  offset="0.4482" style="stop-color:#CCCCCC"/>
		<stop  offset="0.6708" style="stop-color:#B8B8B8"/>
		<stop  offset="0.8919" style="stop-color:#9C9C9C"/>
		<stop  offset="1" style="stop-color:#8C8C8C"/>
	</radialGradient>
	<path fill="url(#SVGID_5_)" d="M67.317,133.015c2.313,12.229-11.533,18.647-20.208,18.647H36.58
		c-9.388,0-21.995-6.641-20.207-18.647c0,0,2.277-16.84,25.473-35.516C41.845,97.499,63.216,113.708,67.317,133.015z"/>
	<polygon fill="#787882" points="11.406,60.721 4.462,71.643 18.179,71.643 	"/>
	<polygon fill="#EBE6E6" points="19.364,62.5 12.421,73.421 26.138,73.421 	"/>
	<polygon fill="#787882" points="72.286,60.721 79.229,71.643 65.513,71.643 	"/>
	<polygon fill="#EBE6E6" points="64.327,62.5 71.27,73.421 57.553,73.421 	"/>
	<path d="M46.546,150.109c0,2.597-2.104,4.698-4.701,4.698c-2.596,0-4.702-2.101-4.702-4.698c0-2.599,2.105-4.701,4.702-4.701
		C44.442,145.408,46.546,147.511,46.546,150.109z"/>
	<g>
		<linearGradient id="SVGID_6_" gradientUnits="userSpaceOnUse" x1="38.8638" y1="153.3867" x2="41.5845" y2="153.3867">
			<stop  offset="0" style="stop-color:#646464"/>
			<stop  offset="0.5" style="stop-color:#AAAAAA"/>
			<stop  offset="1" style="stop-color:#646464"/>
		</linearGradient>
		<rect x="38.864" y="151.27" fill="url(#SVGID_6_)" width="2.721" height="4.233"/>
		<path d="M41.584,155.588c0,0.754-0.609,1.362-1.359,1.362c-0.751,0-1.361-0.607-1.361-1.362c0-0.747,0.61-1.358,1.361-1.358
			C40.976,154.229,41.584,154.841,41.584,155.588z"/>
		<linearGradient id="SVGID_7_" gradientUnits="userSpaceOnUse" x1="42.106" y1="153.3867" x2="44.8247" y2="153.3867">
			<stop  offset="0" style="stop-color:#646464"/>
			<stop  offset="0.5" style="stop-color:#AAAAAA"/>
			<stop  offset="1" style="stop-color:#646464"/>
		</linearGradient>
		<rect x="42.106" y="151.27" fill="url(#SVGID_7_)" width="2.719" height="4.233"/>
		<path d="M44.827,155.588c0,0.754-0.613,1.362-1.362,1.362c-0.751,0-1.358-0.607-1.358-1.362c0-0.747,0.607-1.358,1.358-1.358
			C44.213,154.229,44.827,154.841,44.827,155.588z"/>
	</g>
	<radialGradient id="SVGID_8_" cx="14.7031" cy="129.3013" r="44.8684" gradientUnits="userSpaceOnUse">
		<stop  offset="0" style="stop-color:#B4B4B4"/>
		<stop  offset="0.3041" style="stop-color:#B2B2B2"/>
		<stop  offset="0.4168" style="stop-color:#ABABAB"/>
		<stop  offset="0.4975" style="stop-color:#9F9F9F"/>
		<stop  offset="0.522" style="stop-color:#9A9A9A"/>
		<stop  offset="0.6512" style="stop-color:#888888"/>
		<stop  offset="0.7418" style="stop-color:#787878"/>
	</radialGradient>
	<path fill="url(#SVGID_8_)" d="M54.786,138.932c-0.502,6.688-6.122,11.926-12.94,11.926c-6.771,0-12.366-5.2-12.93-11.824
		l-0.011-0.136v-15.175h25.882v15.175L54.786,138.932z"/>
	<rect x="28.904" y="138.305" width="25.883" height="0.582"/>
	<linearGradient id="SVGID_9_" gradientUnits="userSpaceOnUse" x1="37.7998" y1="98.5957" x2="45.8906" y2="98.5957">
		<stop  offset="0.0056" style="stop-color:#77777F"/>
		<stop  offset="0.1105" style="stop-color:#8F909A"/>
		<stop  offset="0.2834" style="stop-color:#B0B4C2"/>
		<stop  offset="0.4211" style="stop-color:#C5CADA"/>
		<stop  offset="0.5056" style="stop-color:#CDD2E3"/>
		<stop  offset="0.5891" style="stop-color:#C5CADA"/>
		<stop  offset="0.7254" style="stop-color:#B0B4C2"/>
		<stop  offset="0.8963" style="stop-color:#8F909A"/>
		<stop  offset="1" style="stop-color:#77777F"/>
	</linearGradient>
	<rect x="37.8" y="73.393" fill="url(#SVGID_9_)" width="8.091" height="50.405"/>
	<rect x="37.8" y="72.513" fill="#454F57" width="8.091" height="1.732"/>
	<rect x="35.859" y="71.565" fill="#77777F" width="11.972" height="2.173"/>
	<rect x="8.837" y="90.748" fill="#040204" width="66.017" height="7.448"/>
	<rect x="75.515" y="165.827" width="2.615" height="1.825"/>
	<linearGradient id="SVGID_10_" gradientUnits="userSpaceOnUse" x1="72.7788" y1="121.4673" x2="80.8682" y2="121.4673">
		<stop  offset="0.0056" style="stop-color:#77777F"/>
		<stop  offset="0.1105" style="stop-color:#8F909A"/>
		<stop  offset="0.2834" style="stop-color:#B0B4C2"/>
		<stop  offset="0.4211" style="stop-color:#C5CADA"/>
		<stop  offset="0.5056" style="stop-color:#CDD2E3"/>
		<stop  offset="0.5891" style="stop-color:#C5CADA"/>
		<stop  offset="0.7254" style="stop-color:#B0B4C2"/>
		<stop  offset="0.8963" style="stop-color:#8F909A"/>
		<stop  offset="1" style="stop-color:#77777F"/>
	</linearGradient>
	<rect x="72.779" y="76.675" fill="url(#SVGID_10_)" width="8.089" height="89.584"/>
	<rect x="72.779" y="75.794" fill="#454F57" width="8.089" height="1.73"/>
	<rect x="70.837" y="74.661" fill="#77777F" width="11.973" height="2.359"/>
	<rect x="69.94" y="167.154" fill="#77777F" width="13.767" height="1.827"/>
	<rect x="5.577" y="165.827" width="2.616" height="1.825"/>
	<linearGradient id="SVGID_11_" gradientUnits="userSpaceOnUse" x1="2.8398" y1="121.4673" x2="10.9307" y2="121.4673">
		<stop  offset="0.0056" style="stop-color:#77777F"/>
		<stop  offset="0.1105" style="stop-color:#8F909A"/>
		<stop  offset="0.2834" style="stop-color:#B0B4C2"/>
		<stop  offset="0.4211" style="stop-color:#C5CADA"/>
		<stop  offset="0.5056" style="stop-color:#CDD2E3"/>
		<stop  offset="0.5891" style="stop-color:#C5CADA"/>
		<stop  offset="0.7254" style="stop-color:#B0B4C2"/>
		<stop  offset="0.8963" style="stop-color:#8F909A"/>
		<stop  offset="1" style="stop-color:#77777F"/>
	</linearGradient>
	<rect x="2.84" y="76.675" fill="url(#SVGID_11_)" width="8.091" height="89.584"/>
	<rect x="2.84" y="75.794" fill="#454F57" width="8.091" height="1.73"/>
	<rect x="0.896" y="74.661" fill="#77777F" width="11.975" height="2.359"/>
	<rect y="167.154" fill="#77777F" width="13.768" height="1.827"/>
</g>
</svg>
