<?xml version="1.0" encoding="utf-8"?>
<!-- Generator: Adobe Illustrator 15.0.0, SVG Export Plug-In . SVG Version: 6.00 Build 0)  -->
<!DOCTYPE svg PUBLIC "-//W3C//DTD SVG 1.1 Tiny//EN" "http://www.w3.org/Graphics/SVG/1.1/DTD/svg11-tiny.dtd">
<svg version="1.1" baseProfile="tiny" id="_x30_5" xmlns="http://www.w3.org/2000/svg" xmlns:xlink="http://www.w3.org/1999/xlink"
	 x="0px" y="0px" width="70px" height="58.477px" viewBox="0 0 70 58.477" xml:space="preserve">
<g>
	<linearGradient id="SVGID_1_" gradientUnits="userSpaceOnUse" x1="20.4756" y1="52.4385" x2="49.5244" y2="52.4385">
		<stop  offset="0" style="stop-color:#EBCCD2"/>
		<stop  offset="0.0973" style="stop-color:#F0DADD"/>
		<stop  offset="0.1648" style="stop-color:#F5E6E6"/>
		<stop  offset="0.2775" style="stop-color:#F0D9DC"/>
		<stop  offset="0.4277" style="stop-color:#ECCFD4"/>
		<stop  offset="0.6209" style="stop-color:#EBCCD2"/>
	</linearGradient>
	<path fill="url(#SVGID_1_)" d="M20.476,54.252c0,2.334,6.503,4.225,14.525,4.225s14.523-1.891,14.523-4.225v-7.853H20.476V54.252z"
		/>
	<linearGradient id="SVGID_2_" gradientUnits="userSpaceOnUse" x1="15.854" y1="36.9766" x2="63.0827" y2="11.8646">
		<stop  offset="0" style="stop-color:#DCAFAF"/>
		<stop  offset="0.06" style="stop-color:#DCCDCD"/>
		<stop  offset="0.0832" style="stop-color:#D7C2C2"/>
		<stop  offset="0.1418" style="stop-color:#CEACAC"/>
		<stop  offset="0.211" style="stop-color:#C79B9B"/>
		<stop  offset="0.2965" style="stop-color:#C29090"/>
		<stop  offset="0.4166" style="stop-color:#BF8989"/>
		<stop  offset="0.75" style="stop-color:#BE8787"/>
	</linearGradient>
	<path fill="url(#SVGID_2_)" d="M49.522,46.579c-1.255,2.258-6.777,3.799-14.521,3.799c-7.743,0-13.307-1.445-14.523-3.797
		l-0.007-0.007L0,17.438l0.442-0.413h69.005L70,17.438L49.53,46.574L49.522,46.579z"/>
	<linearGradient id="SVGID_3_" gradientUnits="userSpaceOnUse" x1="0.0869" y1="13.9502" x2="69.9141" y2="13.9502">
		<stop  offset="0" style="stop-color:#EBCCD2"/>
		<stop  offset="0.1648" style="stop-color:#F5E6E6"/>
		<stop  offset="0.1745" style="stop-color:#F3E3E3"/>
		<stop  offset="0.2442" style="stop-color:#E6D0D3"/>
		<stop  offset="0.3252" style="stop-color:#DEC2C7"/>
		<stop  offset="0.4277" style="stop-color:#D9BAC0"/>
		<stop  offset="0.6209" style="stop-color:#D7B8BE"/>
	</linearGradient>
	<path fill="url(#SVGID_3_)" d="M69.914,17.444V6.133l-3.408-1.814H3.492L0.087,6.131v11.313v0.01
		c0,3.385,15.632,6.129,34.914,6.129s34.913-2.744,34.913-6.129V17.444z"/>
	<linearGradient id="SVGID_4_" gradientUnits="userSpaceOnUse" x1="35.0005" y1="18.6357" x2="35.0005" y2="-0.4963">
		<stop  offset="0" style="stop-color:#321414"/>
		<stop  offset="0.2118" style="stop-color:#371A1A"/>
		<stop  offset="0.491" style="stop-color:#452A2A"/>
		<stop  offset="0.8064" style="stop-color:#5D4646"/>
		<stop  offset="1" style="stop-color:#6E5A5A"/>
	</linearGradient>
	<path fill="url(#SVGID_4_)" d="M69.914,6.131c0,3.386-15.631,6.126-34.913,6.126S0.087,9.517,0.087,6.131
		C0.087,2.743,15.719,0,35.001,0S69.914,2.743,69.914,6.131z"/>
</g>
</svg>
