<?xml version="1.0" encoding="utf-8"?>
<!-- Generator: Adobe Illustrator 15.0.0, SVG Export Plug-In . SVG Version: 6.00 Build 0)  -->
<!DOCTYPE svg PUBLIC "-//W3C//DTD SVG 1.1 Tiny//EN" "http://www.w3.org/Graphics/SVG/1.1/DTD/svg11-tiny.dtd">
<svg version="1.1" baseProfile="tiny" id="_x30_4" xmlns="http://www.w3.org/2000/svg" xmlns:xlink="http://www.w3.org/1999/xlink"
	 x="0px" y="0px" width="70.001px" height="47.272px" viewBox="0 0 70.001 47.272" xml:space="preserve">
<g>
	<linearGradient id="SVGID_1_" gradientUnits="userSpaceOnUse" x1="20.4395" y1="41.2197" x2="49.5615" y2="41.2197">
		<stop  offset="0" style="stop-color:#EBCCD2"/>
		<stop  offset="0.1648" style="stop-color:#EBE1E1"/>
		<stop  offset="0.2466" style="stop-color:#EBD9DB"/>
		<stop  offset="0.4103" style="stop-color:#EBCFD4"/>
		<stop  offset="0.6209" style="stop-color:#EBCCD2"/>
	</linearGradient>
	<path fill="url(#SVGID_1_)" d="M20.439,43.041c0,2.335,6.52,4.231,14.562,4.231c8.041,0,14.561-1.896,14.561-4.231v-7.873H20.439
		V43.041z"/>
	<linearGradient id="SVGID_2_" gradientUnits="userSpaceOnUse" x1="11.5396" y1="27.9893" x2="65.9835" y2="-0.9591">
		<stop  offset="0.0165" style="stop-color:#DCAFAF"/>
		<stop  offset="0.1264" style="stop-color:#DCCDCD"/>
		<stop  offset="0.1474" style="stop-color:#D7C2C2"/>
		<stop  offset="0.2003" style="stop-color:#CEACAC"/>
		<stop  offset="0.2628" style="stop-color:#C79B9B"/>
		<stop  offset="0.3402" style="stop-color:#C29090"/>
		<stop  offset="0.4487" style="stop-color:#BF8989"/>
		<stop  offset="0.75" style="stop-color:#BE8787"/>
	</linearGradient>
	<path fill="url(#SVGID_2_)" d="M49.56,35.348c-1.26,2.262-6.797,3.81-14.559,3.81c-7.763,0-13.341-1.453-14.56-3.808l-0.008-0.007
		L0.357,6.958V5.719h69.177l-0.002,1.438L49.565,35.343L49.56,35.348z"/>
	<linearGradient id="SVGID_3_" gradientUnits="userSpaceOnUse" x1="35.0005" y1="18.6914" x2="35.0005" y2="-0.4971">
		<stop  offset="0" style="stop-color:#321414"/>
		<stop  offset="0.2118" style="stop-color:#371A1A"/>
		<stop  offset="0.491" style="stop-color:#452A2A"/>
		<stop  offset="0.8064" style="stop-color:#5D4646"/>
		<stop  offset="1" style="stop-color:#6E5A5A"/>
	</linearGradient>
	<ellipse fill="url(#SVGID_3_)" cx="35" cy="6.146" rx="35" ry="6.146"/>
</g>
</svg>
