<?xml version="1.0" encoding="utf-8"?>
<!-- Generator: Adobe Illustrator 15.0.0, SVG Export Plug-In . SVG Version: 6.00 Build 0)  -->
<!DOCTYPE svg PUBLIC "-//W3C//DTD SVG 1.1 Tiny//EN" "http://www.w3.org/Graphics/SVG/1.1/DTD/svg11-tiny.dtd">
<svg version="1.1" baseProfile="tiny" id="_x30_1" xmlns="http://www.w3.org/2000/svg" xmlns:xlink="http://www.w3.org/1999/xlink"
	 x="0px" y="0px" width="83.613px" height="155.732px" viewBox="0 0 83.613 155.732" xml:space="preserve">
<g>
	<rect x="7.767" y="146.427" width="1.401" height="2.688"/>
	<rect x="74.442" y="146.427" width="1.402" height="2.688"/>
	<rect x="2.206" y="1.857" fill="#464646" width="6.309" height="4.246"/>
	<rect x="74.587" y="1.857" fill="#464646" width="6.307" height="4.246"/>
	<rect x="4.432" y="3.827" width="74.513" height="8.057"/>
	<linearGradient id="SVGID_1_" gradientUnits="userSpaceOnUse" x1="9.9688" y1="107.9863" x2="6.7825" y2="107.9863">
		<stop  offset="0" style="stop-color:#878787"/>
		<stop  offset="1" style="stop-color:#BEBEBE"/>
	</linearGradient>
	<rect x="6.947" y="68.936" fill="url(#SVGID_1_)" width="3.044" height="78.101"/>
	<rect x="6.315" y="148.449" fill="#5A5A5A" width="4.305" height="3.064"/>
	<linearGradient id="SVGID_2_" gradientUnits="userSpaceOnUse" x1="73.6182" y1="107.9858" x2="76.665" y2="107.9858">
		<stop  offset="0" style="stop-color:#878787"/>
		<stop  offset="1" style="stop-color:#BEBEBE"/>
	</linearGradient>
	<rect x="73.618" y="68.936" fill="url(#SVGID_2_)" width="3.047" height="78.101"/>
	<rect x="72.99" y="148.449" fill="#5A5A5A" width="4.304" height="3.064"/>
	<polygon fill="#505050" points="8.944,136.922 75.692,86.667 75.685,84.45 8.909,134.73 	"/>
	<polygon fill="#505050" points="75.698,136.922 8.95,86.667 8.957,84.45 75.733,134.73 	"/>
	<linearGradient id="SVGID_3_" gradientUnits="userSpaceOnUse" x1="7.772" y1="59.606" x2="74.9756" y2="59.8769">
		<stop  offset="0" style="stop-color:#5A5A5A"/>
		<stop  offset="0.012" style="stop-color:#616161"/>
		<stop  offset="0.1514" style="stop-color:#AEAEAE"/>
		<stop  offset="0.2507" style="stop-color:#DEDEDE"/>
		<stop  offset="0.3" style="stop-color:#F0F0F0"/>
		<stop  offset="0.3835" style="stop-color:#E7E7E7"/>
		<stop  offset="0.5196" style="stop-color:#CFCFCF"/>
		<stop  offset="0.68" style="stop-color:#AAAAAA"/>
		<stop  offset="1" style="stop-color:#5A5A5A"/>
	</linearGradient>
	<polygon fill="url(#SVGID_3_)" points="76.86,71.774 57.229,114.748 26.379,114.748 6.747,70.93 6.747,4.817 76.86,4.817 	"/>
	<linearGradient id="SVGID_4_" gradientUnits="userSpaceOnUse" x1="74.8228" y1="70.6821" x2="7.9659" y2="70.5632">
		<stop  offset="0" style="stop-color:#000000"/>
		<stop  offset="0.2728" style="stop-color:#030303"/>
		<stop  offset="0.4698" style="stop-color:#0C0C0C"/>
		<stop  offset="0.6429" style="stop-color:#1C1C1C"/>
		<stop  offset="0.8023" style="stop-color:#323232"/>
		<stop  offset="0.9509" style="stop-color:#4F4F4F"/>
		<stop  offset="1" style="stop-color:#5A5A5A"/>
	</linearGradient>
	<rect x="6.747" y="70.317" fill="url(#SVGID_4_)" width="70.114" height="0.613"/>
	<rect x="6.747" y="11.624" fill="#5A5A5A" width="70.114" height="1.557"/>
	<linearGradient id="SVGID_5_" gradientUnits="userSpaceOnUse" x1="6.4033" y1="8.0869" x2="77.2046" y2="8.0869">
		<stop  offset="0" style="stop-color:#464646"/>
		<stop  offset="0.0276" style="stop-color:#575757"/>
		<stop  offset="0.1594" style="stop-color:#A4A4A4"/>
		<stop  offset="0.2534" style="stop-color:#D4D4D4"/>
		<stop  offset="0.3" style="stop-color:#E6E6E6"/>
		<stop  offset="0.3826" style="stop-color:#DCDCDC"/>
		<stop  offset="0.5243" style="stop-color:#C0C0C0"/>
		<stop  offset="0.68" style="stop-color:#9B9B9B"/>
		<stop  offset="1" style="stop-color:#464646"/>
	</linearGradient>
	<rect x="6.403" y="3.827" fill="url(#SVGID_5_)" width="70.801" height="8.521"/>
	<polygon fill="#6E6E6E" points="5.501,146.109 78.954,90.808 79.14,90.808 79.14,88.404 78.954,88.404 5.501,143.708 	"/>
	<polygon fill="#828282" points="79.14,146.109 5.689,90.808 5.501,90.808 5.501,88.404 5.689,88.404 79.14,143.708 	"/>
	<g>
		<rect x="79.284" y="150.646" width="1.649" height="2.69"/>
		<rect x="76.604" y="152.667" fill="#6E6E6E" width="7.009" height="3.065"/>
		<linearGradient id="SVGID_6_" gradientUnits="userSpaceOnUse" x1="77.9194" y1="77.0879" x2="82.2949" y2="77.0879">
			<stop  offset="0" style="stop-color:#AAAAAA"/>
			<stop  offset="1" style="stop-color:#E6E6E6"/>
		</linearGradient>
		<rect x="77.919" y="3.207" fill="url(#SVGID_6_)" width="4.375" height="147.762"/>
		<rect x="76.955" fill="#6E6E6E" width="6.308" height="4.247"/>
	</g>
	<g>
		<rect x="2.68" y="150.646" width="1.65" height="2.69"/>
		<linearGradient id="SVGID_7_" gradientUnits="userSpaceOnUse" x1="4.5093" y1="77.0879" x2="1.3324" y2="77.0879">
			<stop  offset="0" style="stop-color:#AAAAAA"/>
			<stop  offset="1" style="stop-color:#E6E6E6"/>
		</linearGradient>
		<rect x="1.319" y="3.207" fill="url(#SVGID_7_)" width="4.374" height="147.762"/>
		<rect y="152.667" fill="#6E6E6E" width="7.01" height="3.065"/>
		<rect x="0.351" fill="#6E6E6E" width="6.308" height="4.247"/>
	</g>
</g>
</svg>
