<?xml version="1.0" encoding="utf-8"?>
<!-- Generator: Adobe Illustrator 15.0.0, SVG Export Plug-In . SVG Version: 6.00 Build 0)  -->
<!DOCTYPE svg PUBLIC "-//W3C//DTD SVG 1.1 Tiny//EN" "http://www.w3.org/Graphics/SVG/1.1/DTD/svg11-tiny.dtd">
<svg version="1.1" baseProfile="tiny" id="_x30_3" xmlns="http://www.w3.org/2000/svg" xmlns:xlink="http://www.w3.org/1999/xlink"
	 x="0px" y="0px" width="85.116px" height="111.957px" viewBox="0 0 85.116 111.957" xml:space="preserve">
<g>
	<rect x="10.784" y="98.596" fill="#281414" width="63.727" height="6.619"/>
	<rect x="17.026" y="83.085" fill="#55140A" width="49.896" height="5.258"/>
	<linearGradient id="SVGID_1_" gradientUnits="userSpaceOnUse" x1="72.3135" y1="73.2061" x2="79.3018" y2="73.2061">
		<stop  offset="0" style="stop-color:#463232"/>
		<stop  offset="0.2879" style="stop-color:#816D6D"/>
		<stop  offset="0.522" style="stop-color:#B4A0A0"/>
		<stop  offset="1" style="stop-color:#463232"/>
	</linearGradient>
	<rect x="72.313" y="43.997" fill="url(#SVGID_1_)" width="6.988" height="58.419"/>
	<linearGradient id="SVGID_2_" gradientUnits="userSpaceOnUse" x1="61.9795" y1="83.3809" x2="80.5049" y2="83.3809">
		<stop  offset="0" style="stop-color:#E6E6E6"/>
		<stop  offset="1" style="stop-color:#B1B1B1"/>
	</linearGradient>
	<polygon fill="url(#SVGID_2_)" points="61.979,81.232 66.087,77.064 80.505,77.064 80.505,89.697 61.979,89.697 	"/>
	<linearGradient id="SVGID_3_" gradientUnits="userSpaceOnUse" x1="24.6001" y1="81.0371" x2="61.4484" y2="81.0371">
		<stop  offset="0" style="stop-color:#996D60"/>
		<stop  offset="1" style="stop-color:#5F1E14"/>
	</linearGradient>
	<polygon fill="url(#SVGID_3_)" points="67.087,79.564 62.181,84.438 22.936,84.438 18.028,79.579 18.519,77.637 66.597,77.637 	"/>
	<g>
		<linearGradient id="SVGID_4_" gradientUnits="userSpaceOnUse" x1="14.208" y1="20.8662" x2="45.3221" y2="9.5416">
			<stop  offset="0" style="stop-color:#9C6667"/>
			<stop  offset="0.35" style="stop-color:#C49E9C"/>
			<stop  offset="0.4963" style="stop-color:#CFB3B5"/>
			<stop  offset="0.6925" style="stop-color:#DCC9D0"/>
			<stop  offset="0.8668" style="stop-color:#E3D7E0"/>
			<stop  offset="1" style="stop-color:#E6DCE6"/>
		</linearGradient>
		<polygon fill="url(#SVGID_4_)" points="42.556,36.586 17.318,36.586 16.804,35.359 0,0 42.558,0 		"/>
		<linearGradient id="SVGID_5_" gradientUnits="userSpaceOnUse" x1="40.6367" y1="9.8501" x2="70.7059" y2="20.7944">
			<stop  offset="0" style="stop-color:#E6DCE6"/>
			<stop  offset="0.123" style="stop-color:#E3D7E0"/>
			<stop  offset="0.2838" style="stop-color:#DCC9D0"/>
			<stop  offset="0.4649" style="stop-color:#CFB3B5"/>
			<stop  offset="0.6" style="stop-color:#C49E9C"/>
			<stop  offset="1" style="stop-color:#9C6667"/>
		</linearGradient>
		<polygon fill="url(#SVGID_5_)" points="68.312,35.359 67.796,36.586 42.553,36.586 42.555,0 85.116,0 		"/>
	</g>
	<linearGradient id="SVGID_6_" gradientUnits="userSpaceOnUse" x1="5.7773" y1="71.8955" x2="12.7656" y2="71.8955">
		<stop  offset="0" style="stop-color:#463232"/>
		<stop  offset="0.2879" style="stop-color:#816D6D"/>
		<stop  offset="0.522" style="stop-color:#B4A0A0"/>
		<stop  offset="1" style="stop-color:#463232"/>
	</linearGradient>
	<rect x="5.777" y="43.997" fill="url(#SVGID_6_)" width="6.988" height="55.798"/>
	<rect x="5.777" y="42.427" fill="#463232" width="6.479" height="4.688"/>
	<linearGradient id="SVGID_7_" gradientUnits="userSpaceOnUse" x1="4.2534" y1="33.7061" x2="14.7322" y2="47.1788">
		<stop  offset="0" style="stop-color:#E6E6E6"/>
		<stop  offset="1" style="stop-color:#B1B1B1"/>
	</linearGradient>
	<rect x="2.283" y="35.061" fill="url(#SVGID_7_)" width="13.978" height="10.196"/>
	<rect x="72.823" y="42.427" fill="#463232" width="6.479" height="4.688"/>
	<linearGradient id="SVGID_8_" gradientUnits="userSpaceOnUse" x1="70.4082" y1="33.7256" x2="81.2044" y2="46.592">
		<stop  offset="0" style="stop-color:#E6E6E6"/>
		<stop  offset="1" style="stop-color:#B1B1B1"/>
	</linearGradient>
	<rect x="68.817" y="35.061" fill="url(#SVGID_8_)" width="13.979" height="10.196"/>
	<linearGradient id="SVGID_9_" gradientUnits="userSpaceOnUse" x1="4.5557" y1="99.3936" x2="13.9863" y2="99.3936">
		<stop  offset="0" style="stop-color:#E6E6E6"/>
		<stop  offset="1" style="stop-color:#B1B1B1"/>
	</linearGradient>
	<rect x="4.556" y="96.701" fill="url(#SVGID_9_)" width="9.431" height="5.385"/>
	<linearGradient id="SVGID_10_" gradientUnits="userSpaceOnUse" x1="6.0068" y1="63.7646" x2="18.6243" y2="76.8098">
		<stop  offset="0" style="stop-color:#E6E6E6"/>
		<stop  offset="1" style="stop-color:#B1B1B1"/>
	</linearGradient>
	<polygon fill="url(#SVGID_10_)" points="19.927,72.64 16.201,76.422 5.49,76.422 5.49,64.965 19.927,64.965 	"/>
	<linearGradient id="SVGID_11_" gradientUnits="userSpaceOnUse" x1="6.356" y1="80.625" x2="17.2592" y2="91.8959">
		<stop  offset="0" style="stop-color:#E6E6E6"/>
		<stop  offset="1" style="stop-color:#B1B1B1"/>
	</linearGradient>
	<polygon fill="url(#SVGID_11_)" points="19.927,89.141 16.201,92.92 5.49,92.92 5.49,81.463 19.927,81.463 	"/>
	<linearGradient id="SVGID_12_" gradientUnits="userSpaceOnUse" x1="56.4092" y1="78.5605" x2="60.4724" y2="94.5994">
		<stop  offset="0" style="stop-color:#E6DCE6"/>
		<stop  offset="0.5604" style="stop-color:#C49E9C"/>
		<stop  offset="1" style="stop-color:#9C6667"/>
	</linearGradient>
	<rect x="50.146" y="85.748" fill="url(#SVGID_12_)" width="20.359" height="16.541"/>
	<rect x="2.816" y="102.033" fill="#140000" width="79.659" height="9.924"/>
	<linearGradient id="SVGID_13_" gradientUnits="userSpaceOnUse" x1="20.5059" y1="62.0938" x2="58.5585" y2="62.0938">
		<stop  offset="0" style="stop-color:#AD8174"/>
		<stop  offset="1" style="stop-color:#733228"/>
	</linearGradient>
	<rect x="18.028" y="44.608" fill="url(#SVGID_13_)" width="49.059" height="34.971"/>
	<rect x="18.028" y="43.151" fill="#5F1E14" width="49.059" height="4.977"/>
	<rect x="22.392" y="49.381" fill="#FFF0FF" width="1.718" height="28.156"/>
	<linearGradient id="SVGID_14_" gradientUnits="userSpaceOnUse" x1="16.8018" y1="40.4268" x2="68.3135" y2="40.4268">
		<stop  offset="0" style="stop-color:#AD8174"/>
		<stop  offset="1" style="stop-color:#733228"/>
	</linearGradient>
	<rect x="16.802" y="35.359" fill="url(#SVGID_14_)" width="51.512" height="10.136"/>
	<rect x="19.984" y="36.778" fill="#FFF0FF" width="1.718" height="7.219"/>
</g>
</svg>
