<?xml version="1.0" encoding="utf-8"?>
<!-- Generator: Adobe Illustrator 15.0.0, SVG Export Plug-In . SVG Version: 6.00 Build 0)  -->
<!DOCTYPE svg PUBLIC "-//W3C//DTD SVG 1.1 Tiny//EN" "http://www.w3.org/Graphics/SVG/1.1/DTD/svg11-tiny.dtd">
<svg version="1.1" baseProfile="tiny" id="_x31_8" xmlns="http://www.w3.org/2000/svg" xmlns:xlink="http://www.w3.org/1999/xlink"
	 x="0px" y="0px" width="44.917px" height="91.583px" viewBox="0 0 44.917 91.583" xml:space="preserve">
<g>
	<path fill="#040303" d="M29.209,74.521v10.625c0,4.107-3.05,6.438-6.813,6.438l0,0c-3.763,0-6.813-2.33-6.813-6.438V74.521H29.209z
		"/>
	<path fill="#C2BFB9" d="M38.959,44.583v22.204c0,5.479-4.51,9.921-10.073,9.921H16.032c-5.563,0-10.073-4.442-10.073-9.921V44.583
		l-3.875-3.5l1.5-4.125l38.75,2.75l0.375,1.375L38.959,44.583z"/>
	<path fill="#DFDDD7" d="M38.114,42.602l-2.959,2.761v21.518c0,4.323-4.559,8.328-8.947,8.328h-8.141
		c-4.391,0-8.948-4.004-8.948-8.328V45.363l-3.058-2.761H38.114z"/>
	<path fill="#DE8600" d="M30.084,65.499V46.043c0-1.565-1.371-3.834-3.063-3.834H16.397c-1.692,0-3.063,2.269-3.063,3.834v19.456
		l-0.875,1.584h19.125L30.084,65.499z"/>
	<polygon fill="#8A8280" points="28.209,68.958 28.209,73.521 15.834,73.521 15.834,68.958 12.098,68.999 12.098,66.781 
		32.084,66.833 32.084,68.958 	"/>
	<rect x="1.771" y="25.566" fill="#50474B" width="41.499" height="15.402"/>
	<g>
		<rect x="1.756" y="28.564" fill="#8A8280" width="7.318" height="0.718"/>
		<rect x="1.756" y="34.536" fill="#8A8280" width="7.318" height="0.718"/>
		<rect x="1.756" y="38.262" fill="#8A8280" width="7.318" height="0.718"/>
		<rect x="1.756" y="32.335" fill="#8A8280" width="7.318" height="0.718"/>
		<rect x="35.969" y="30.135" fill="#8A8280" width="7.318" height="0.718"/>
		<rect x="35.969" y="32.335" fill="#8A8280" width="7.318" height="0.718"/>
		<rect x="35.969" y="36.151" fill="#8A8280" width="7.318" height="0.718"/>
		<rect x="35.969" y="38.441" fill="#8A8280" width="7.318" height="0.718"/>
		<rect x="1.756" y="30.045" fill="#8A8280" width="10.103" height="0.718"/>
		<rect x="32.916" y="28.608" fill="#8A8280" width="10.372" height="0.718"/>
		<rect x="32.916" y="34.625" fill="#8A8280" width="10.372" height="0.718"/>
		<rect x="9.029" y="27.935" fill="#8A8280" width="13.425" height="0.718"/>
		<rect x="22.499" y="27.126" fill="#8A8280" width="13.425" height="0.718"/>
		<rect x="22.499" y="30.898" fill="#8A8280" width="13.425" height="0.718"/>
		<rect x="22.499" y="33.188" fill="#8A8280" width="13.425" height="0.718"/>
		<rect x="22.499" y="36.869" fill="#8A8280" width="13.425" height="0.718"/>
		<rect x="22.499" y="39.159" fill="#8A8280" width="13.425" height="0.718"/>
		<rect x="11.858" y="29.371" fill="#8A8280" width="21.103" height="0.718"/>
		<rect x="11.858" y="35.387" fill="#8A8280" width="21.103" height="0.718"/>
		<rect x="9.029" y="31.616" fill="#8A8280" width="13.425" height="0.718"/>
		<rect x="9.029" y="33.906" fill="#8A8280" width="13.425" height="0.718"/>
		<rect x="9.029" y="37.633" fill="#8A8280" width="13.425" height="0.718"/>
		<rect x="9.029" y="39.877" fill="#8A8280" width="13.425" height="0.718"/>
		<rect x="1.756" y="36.062" fill="#8A8280" width="10.103" height="0.718"/>
	</g>
	<linearGradient id="SVGID_1_" gradientUnits="userSpaceOnUse" x1="10.9619" y1="13.5913" x2="45.7129" y2="13.4663">
		<stop  offset="0.2528" style="stop-color:#323232"/>
		<stop  offset="0.2572" style="stop-color:#323232"/>
		<stop  offset="0.4018" style="stop-color:#3D3D3D"/>
		<stop  offset="0.5618" style="stop-color:#414141"/>
		<stop  offset="0.7069" style="stop-color:#3D3D3D"/>
		<stop  offset="0.8427" style="stop-color:#323232"/>
	</linearGradient>
	<path fill="url(#SVGID_1_)" d="M44.917,27.082V4.868C44.917,2.179,42.738,0,40.049,0H4.867C2.179,0,0,2.179,0,4.868v22.214H44.917z
		"/>
	<path fill="#E87C00" d="M6.834,11.125c0,5.057-1.176,8.042-2.625,8.042s-2.625-2.984-2.625-8.042c0-5.058,1.176-8.042,2.625-8.042
		S6.834,6.068,6.834,11.125z"/>
	<path fill="#BB5E0A" d="M6.959,11.339c0,3.292-0.766,5.234-1.708,5.234c-0.943,0-1.709-1.942-1.709-5.234
		c0-3.292,0.766-5.233,1.709-5.233C6.193,6.106,6.959,8.048,6.959,11.339z"/>
	<path fill="#FFDE00" d="M27.738,65.3l-1-18.107c0-1.457-0.925-3.569-2.067-3.569h-5.166c-1.143,0-2.067,2.112-2.067,3.569
		l-1,18.107l-0.59,1.475H28.75L27.738,65.3z"/>
	<g>
		<polygon fill="#FFFFFF" points="17.329,53.517 16.471,53.517 16.585,60.9 17.329,61.015 17.387,65.364 17.901,65.479 
			18.073,70.687 20.076,72.232 20.248,71.488 18.76,70.401 18.76,63.075 18.245,63.075 17.959,57.924 17.501,57.924 		"/>
		<rect x="20.306" y="72.919" fill="#FFFFFF" width="0.801" height="0.858"/>
	</g>
	<polygon fill="#969696" points="7.599,0.183 7.548,0.801 8.269,0.852 8.319,1.367 9.761,1.624 9.864,3.117 10.533,3.271 
		10.585,27.053 11.46,27.053 11.563,3.375 10.842,3.065 10.688,1.83 10.225,1.521 10.019,0.852 8.68,0.852 8.475,0.131 	"/>
</g>
</svg>
