<?xml version="1.0" encoding="utf-8"?>
<!-- Generator: Adobe Illustrator 15.0.0, SVG Export Plug-In . SVG Version: 6.00 Build 0)  -->
<!DOCTYPE svg PUBLIC "-//W3C//DTD SVG 1.1 Tiny//EN" "http://www.w3.org/Graphics/SVG/1.1/DTD/svg11-tiny.dtd">
<svg version="1.1" baseProfile="tiny" id="_x31_" xmlns="http://www.w3.org/2000/svg" xmlns:xlink="http://www.w3.org/1999/xlink"
	 x="0px" y="0px" width="116.49px" height="88.157px" viewBox="0 0 116.49 88.157" xml:space="preserve">
<g>
	<path fill="#6D6366" d="M6.893,23.536c0,0,13.434-19.091,35-23.51h74.597v26.515l-6.894,7.778L88.56,33.314
		c0,0,7.248,33.354-30.404,51.561L6.893,23.536z"/>
	<polyline fill="#746D70" points="109.596,34.319 116.49,26.541 116.49,0.026 107.798,8.719 107.237,32.668 109.358,34.612 
		109.358,34.612 109.358,34.612 	"/>
	<radialGradient id="SVGID_1_" cx="42.3369" cy="48.2998" r="76.5387" gradientUnits="userSpaceOnUse">
		<stop  offset="0.0056" style="stop-color:#C7C7C7"/>
		<stop  offset="0.2973" style="stop-color:#ABABAB"/>
		<stop  offset="0.4831" style="stop-color:#9E9E9E"/>
		<stop  offset="0.6433" style="stop-color:#A3A3A3"/>
		<stop  offset="0.8243" style="stop-color:#B0B0B0"/>
		<stop  offset="0.9944" style="stop-color:#C4C4C4"/>
	</radialGradient>
	<path fill="url(#SVGID_1_)" d="M79.545,34.496l30.051-0.177V6.92L35.53,6.566c0,0-16.97,0.884-29.521,18.207
		s-4.95,51.97,18.207,60.278s42.778-1.237,50.91-14.672S83.964,41.92,79.545,34.496z"/>
</g>
</svg>
