<?xml version="1.0" encoding="utf-8"?>
<!-- Generator: Adobe Illustrator 15.0.0, SVG Export Plug-In . SVG Version: 6.00 Build 0)  -->
<!DOCTYPE svg PUBLIC "-//W3C//DTD SVG 1.1 Tiny//EN" "http://www.w3.org/Graphics/SVG/1.1/DTD/svg11-tiny.dtd">
<svg version="1.1" baseProfile="tiny" id="_x32_0" xmlns="http://www.w3.org/2000/svg" xmlns:xlink="http://www.w3.org/1999/xlink"
	 x="0px" y="0px" width="159.875px" height="83.418px" viewBox="0 0 159.875 83.418" xml:space="preserve">
<g>
	<polygon fill="#7E86AC" points="101.729,0 58.2,0 43.497,12.188 116.046,12.188 	"/>
	<polygon fill="#FFFFFF" points="97.625,4.146 61.971,4.183 54.992,11.275 53.963,11.275 61.627,3.354 97.625,3.354 	"/>
	<polygon fill="#0A1417" points="56.792,71.812 103.688,71.812 119.528,59.647 41.369,59.647 	"/>
	<polygon fill="#082856" points="58.135,79.656 62.069,79.634 62.069,83.418 47.577,83.418 47.577,79.423 51.536,79.497 
		51.577,60.167 58.069,60.167 	"/>
	<polygon fill="#082856" points="108.135,79.656 112.069,79.634 112.069,83.418 97.577,83.418 97.577,79.423 101.536,79.497 
		101.577,60.167 108.069,60.167 	"/>
	<rect x="33.875" y="11.021" fill="#5E6F95" width="93" height="50.5"/>
	<rect x="34.75" y="17.521" fill="#B0BEB5" width="90.25" height="40.375"/>
	<rect x="34.875" y="13.771" fill="#3F3F6D" width="89.625" height="4.625"/>
	<g>
		<rect x="43.375" y="13.896" fill="#232B44" width="7.5" height="44.125"/>
		<rect x="54" y="13.896" fill="#232B44" width="7.5" height="44.125"/>
		<rect x="75.75" y="13.896" fill="#232B44" width="7.5" height="44.125"/>
		<rect x="97.375" y="13.896" fill="#232B44" width="7.5" height="44.125"/>
		<rect x="108" y="13.896" fill="#232B44" width="7.5" height="44.125"/>
		<rect x="87" y="13.896" fill="#232B44" width="6.75" height="44.125"/>
		<rect x="65.125" y="13.896" fill="#232B44" width="6.75" height="44.125"/>
	</g>
	<linearGradient id="SVGID_1_" gradientUnits="userSpaceOnUse" x1="9.4966" y1="19.3916" x2="9.7465" y2="51.6408">
		<stop  offset="0" style="stop-color:#606364"/>
		<stop  offset="0.0693" style="stop-color:#696C6C"/>
		<stop  offset="0.1822" style="stop-color:#808483"/>
		<stop  offset="0.3248" style="stop-color:#A6ACA7"/>
		<stop  offset="0.4901" style="stop-color:#DAE2DA"/>
		<stop  offset="0.5" style="stop-color:#DDE6DD"/>
		<stop  offset="0.5573" style="stop-color:#C3CAC3"/>
		<stop  offset="0.6475" style="stop-color:#9FA5A1"/>
		<stop  offset="0.7379" style="stop-color:#848886"/>
		<stop  offset="0.8272" style="stop-color:#707473"/>
		<stop  offset="0.9152" style="stop-color:#646768"/>
		<stop  offset="1" style="stop-color:#606364"/>
	</linearGradient>
	<rect y="17.771" fill="url(#SVGID_1_)" width="19.25" height="36.375"/>
	<linearGradient id="SVGID_2_" gradientUnits="userSpaceOnUse" x1="150.1133" y1="18.3037" x2="150.3633" y2="50.5529">
		<stop  offset="0" style="stop-color:#606364"/>
		<stop  offset="0.0693" style="stop-color:#696C6C"/>
		<stop  offset="0.1822" style="stop-color:#808483"/>
		<stop  offset="0.3248" style="stop-color:#A6ACA7"/>
		<stop  offset="0.4901" style="stop-color:#DAE2DA"/>
		<stop  offset="0.5" style="stop-color:#DDE6DD"/>
		<stop  offset="0.5573" style="stop-color:#C3CAC3"/>
		<stop  offset="0.6475" style="stop-color:#9FA5A1"/>
		<stop  offset="0.7379" style="stop-color:#848886"/>
		<stop  offset="0.8272" style="stop-color:#707473"/>
		<stop  offset="0.9152" style="stop-color:#646768"/>
		<stop  offset="1" style="stop-color:#606364"/>
	</linearGradient>
	<rect x="140.625" y="17.771" fill="url(#SVGID_2_)" width="19.25" height="36.375"/>
	<linearGradient id="SVGID_3_" gradientUnits="userSpaceOnUse" x1="26.0615" y1="10.1426" x2="25.5615" y2="62.3918">
		<stop  offset="0.0056" style="stop-color:#606364"/>
		<stop  offset="0.5" style="stop-color:#D5DDD5"/>
		<stop  offset="1" style="stop-color:#606364"/>
	</linearGradient>
	<rect x="15.25" y="3.271" fill="url(#SVGID_3_)" width="21.125" height="65.75"/>
	<linearGradient id="SVGID_4_" gradientUnits="userSpaceOnUse" x1="134.3018" y1="11.1855" x2="133.8017" y2="63.4347">
		<stop  offset="0.0056" style="stop-color:#606364"/>
		<stop  offset="0.5" style="stop-color:#D5DDD5"/>
		<stop  offset="1" style="stop-color:#606364"/>
	</linearGradient>
	<rect x="123.5" y="3.271" fill="url(#SVGID_4_)" width="21.125" height="65.75"/>
</g>
</svg>
