<?xml version="1.0" encoding="utf-8"?>
<!-- Generator: Adobe Illustrator 15.0.0, SVG Export Plug-In . SVG Version: 6.00 Build 0)  -->
<!DOCTYPE svg PUBLIC "-//W3C//DTD SVG 1.1 Tiny//EN" "http://www.w3.org/Graphics/SVG/1.1/DTD/svg11-tiny.dtd">
<svg version="1.1" baseProfile="tiny" id="_x33_1" xmlns="http://www.w3.org/2000/svg" xmlns:xlink="http://www.w3.org/1999/xlink"
	 x="0px" y="0px" width="92.666px" height="91.667px" viewBox="0 0 92.666 91.667" xml:space="preserve">
<g>
	<radialGradient id="SVGID_1_" cx="42.9902" cy="43.0645" r="57.7519" gradientUnits="userSpaceOnUse">
		<stop  offset="0" style="stop-color:#DCDCDC"/>
		<stop  offset="1" style="stop-color:#505050"/>
	</radialGradient>
	<path fill="url(#SVGID_1_)" d="M69.363,14.493c-7.102-4.367-15.647-7.16-24.863-7.16C19.923,7.333,0,25.466,0,47.832
		c0,22.367,19.923,40.5,44.5,40.5c24.577,0,44.5-18.133,44.5-40.5l1.833-45.499l-21.667-1L69.5,14.666L69.363,14.493z"/>
	<linearGradient id="SVGID_2_" gradientUnits="userSpaceOnUse" x1="26.6226" y1="89.0918" x2="62.6226" y2="88.0918">
		<stop  offset="0.0056" style="stop-color:#231E2C"/>
		<stop  offset="0.5056" style="stop-color:#949999"/>
		<stop  offset="1" style="stop-color:#1E212C"/>
	</linearGradient>
	<rect x="23" y="85.5" fill="url(#SVGID_2_)" width="43.833" height="6.167"/>
	<polygon fill="#63625F" points="60.906,85.522 28.378,85.522 23.871,83.792 29.815,84.305 36.476,84.51 45.084,84.611 
		51.746,84.51 58.817,84.305 65.478,83.689 	"/>
	<circle fill="#544747" cx="43.333" cy="45.334" r="30.512"/>
	<polygon fill="#5D6161" points="90.711,4.646 69.217,4.557 69.217,2.841 90.8,2.841 	"/>
	<linearGradient id="SVGID_3_" gradientUnits="userSpaceOnUse" x1="68.1035" y1="1.75" x2="91.1035" y2="1.75">
		<stop  offset="0.0056" style="stop-color:#231E2C"/>
		<stop  offset="0.5056" style="stop-color:#949999"/>
		<stop  offset="1" style="stop-color:#1E212C"/>
	</linearGradient>
	<rect x="66.5" fill="url(#SVGID_3_)" width="26.167" height="3.5"/>
	<polygon points="73.718,8.69 71.581,8.69 71.489,6.422 73.718,6.422 	"/>
	<polygon points="73.718,12.094 71.704,12.094 71.581,9.825 73.718,9.825 	"/>
	<polygon points="73.718,15.585 71.795,15.585 71.734,13.316 73.718,13.316 	"/>
	<circle fill="#D1CEC9" cx="43.333" cy="45.333" r="29.333"/>
	<g>
		<polygon fill="#544747" points="35.17,16.535 31.602,17.689 32.621,20.857 36.189,19.703 		"/>
		<polygon fill="#544747" points="52.568,69.859 49,71.014 50.065,74.634 53.633,73.479 		"/>
		<polygon fill="#544747" points="51.222,16.374 47.557,15.58 46.765,19.284 50.43,20.077 		"/>
		
			<rect x="59.782" y="22.717" transform="matrix(0.7434 0.6688 -0.6688 0.7434 32.2862 -34.9198)" fill="#544747" width="3.75" height="3.808"/>
		
			<rect x="67.684" y="34.963" transform="matrix(0.2953 0.9554 -0.9554 0.2953 84.2419 -40.4767)" fill="#544747" width="3.75" height="3.808"/>
		
			<rect x="68.239" y="49.674" transform="matrix(-0.2369 0.9715 -0.9715 -0.2369 136.8325 -4.3218)" fill="#544747" width="3.749" height="3.808"/>
		
			<rect x="61.617" y="62.237" transform="matrix(-0.6601 0.7512 -0.7512 -0.6601 153.584 58.7812)" fill="#544747" width="3.749" height="3.808"/>
		<polygon fill="#544747" points="20.093,26.677 22.6,23.887 25.264,26.262 22.758,29.051 		"/>
		<polygon fill="#544747" points="13.626,40.269 14.417,36.603 18.729,37.805 17.937,41.471 		"/>
		<polygon fill="#544747" points="15.49,56.161 14.29,52.608 18.442,51.404 19.642,54.958 		"/>
		<polygon fill="#544747" points="25.245,69.314 22.392,66.883 25.213,63.374 28.065,65.81 		"/>
		<polygon fill="#544747" points="39.403,75.028 35.748,74.195 36.726,70.071 40.381,70.908 		"/>
	</g>
	<circle fill="#3C3C3C" cx="43.011" cy="45.358" r="26.833"/>
	<circle fill="#98928E" cx="43.165" cy="45.5" r="21"/>
	<g>
		<rect x="41.9" y="25.798" fill="#2D2D2D" width="3.503" height="12.333"/>
		
			<rect x="40.714" y="52.741" transform="matrix(1 -0.0017 0.0017 1 -0.0985 0.0711)" fill="#2D2D2D" width="3.503" height="12.334"/>
		
			<rect x="50.985" y="30.387" transform="matrix(0.6601 0.7511 -0.7511 0.6601 45.3799 -27.1902)" fill="#2D2D2D" width="3.504" height="12.333"/>
		
			<rect x="54.591" y="40.161" transform="matrix(0.0169 0.9999 -0.9999 0.0169 101.7137 -10.7874)" fill="#2D2D2D" width="3.503" height="12.333"/>
		
			<rect x="28.335" y="38.989" transform="matrix(0.017 0.9999 -0.9999 0.017 74.7241 14.3059)" fill="#2D2D2D" width="3.503" height="12.334"/>
		
			<rect x="49.928" y="48.924" transform="matrix(-0.74 0.6726 -0.6726 -0.74 126.9762 61.0935)" fill="#2D2D2D" width="3.503" height="12.333"/>
		
			<rect x="32.199" y="29.728" transform="matrix(-0.74 0.6726 -0.6726 -0.74 83.2169 39.6186)" fill="#2D2D2D" width="3.503" height="12.332"/>
		
			<rect x="31.74" y="48.639" transform="matrix(0.6602 0.7511 -0.7511 0.6602 52.5445 -6.5316)" fill="#2D2D2D" width="3.503" height="12.334"/>
	</g>
	<circle fill="#2D2D2D" cx="43.081" cy="45.25" r="9.083"/>
	<radialGradient id="SVGID_4_" cx="43.0117" cy="45.3594" r="16.9459" gradientUnits="userSpaceOnUse">
		<stop  offset="0" style="stop-color:#505050"/>
		<stop  offset="1" style="stop-color:#DCDCDC"/>
	</radialGradient>
	<circle fill="url(#SVGID_4_)" cx="43.08" cy="45.25" r="8.04"/>
	<g>
		
			<rect x="44.099" y="37.163" transform="matrix(0.9311 0.3647 -0.3647 0.9311 18.009 -13.3754)" fill="#2D2D2D" width="0.632" height="7.653"/>
		
			<rect x="40.904" y="45.682" transform="matrix(0.9307 0.3658 -0.3658 0.9307 20.9667 -11.6472)" fill="#2D2D2D" width="0.633" height="7.654"/>
		
			<rect x="44.583" y="45.477" transform="matrix(0.928 -0.3725 0.3725 0.928 -15.133 20.2705)" fill="#2D2D2D" width="0.632" height="7.654"/>
		
			<rect x="47.419" y="42.913" transform="matrix(0.352 -0.936 0.936 0.352 -12.8161 74.9689)" fill="#2D2D2D" width="0.631" height="7.654"/>
		
			<rect x="38.275" y="39.555" transform="matrix(0.3513 -0.9363 0.9363 0.3513 -15.5829 64.2731)" fill="#2D2D2D" width="0.631" height="7.654"/>
		
			<rect x="38.543" y="42.842" transform="matrix(-0.3552 -0.9348 0.9348 -0.3552 9.0354 99.5704)" fill="#2D2D2D" width="0.631" height="7.654"/>
		
			<rect x="46.687" y="39.783" transform="matrix(-0.3552 -0.9348 0.9348 -0.3552 22.9315 103.0366)" fill="#2D2D2D" width="0.631" height="7.654"/>
		
			<rect x="40.915" y="37.236" transform="matrix(0.9215 -0.3884 0.3884 0.9215 -12.7117 19.2381)" fill="#2D2D2D" width="0.631" height="7.654"/>
	</g>
	<circle fill="#2D2D2D" cx="43.085" cy="44.761" r="1.791"/>
</g>
</svg>
