<?xml version="1.0" encoding="utf-8"?>
<!-- Generator: Adobe Illustrator 15.0.0, SVG Export Plug-In . SVG Version: 6.00 Build 0)  -->
<!DOCTYPE svg PUBLIC "-//W3C//DTD SVG 1.1 Tiny//EN" "http://www.w3.org/Graphics/SVG/1.1/DTD/svg11-tiny.dtd">
<svg version="1.1" baseProfile="tiny" id="_x39__x5F_修改"
	 xmlns="http://www.w3.org/2000/svg" xmlns:xlink="http://www.w3.org/1999/xlink" x="0px" y="0px" width="99.833px"
	 height="91.514px" viewBox="0 0 99.833 91.514" xml:space="preserve">
<g>
	<linearGradient id="SVGID_1_" gradientUnits="userSpaceOnUse" x1="50.6133" y1="-13.354" x2="49.8193" y2="8.0725">
		<stop  offset="0.3242" style="stop-color:#B09C85"/>
		<stop  offset="0.9835" style="stop-color:#614F3D"/>
	</linearGradient>
	<polygon fill="url(#SVGID_1_)" points="90.688,7.971 99.212,1.97 99.833,0 13.976,0 0.094,8.358 0.155,10.471 85.188,10.471 	"/>
	<linearGradient id="SVGID_2_" gradientUnits="userSpaceOnUse" x1="76.0938" y1="37.0566" x2="102.4892" y2="52.2995">
		<stop  offset="0.1923" style="stop-color:#634F3A"/>
		<stop  offset="0.3736" style="stop-color:#4D3824"/>
		<stop  offset="1" style="stop-color:#4D3824"/>
	</linearGradient>
	<polygon fill="url(#SVGID_2_)" points="99.833,83.13 82.599,91.514 82.599,8.449 99.833,0.064 	"/>
	<linearGradient id="SVGID_3_" gradientUnits="userSpaceOnUse" x1="20.8555" y1="9.4292" x2="36.8172" y2="41.1183">
		<stop  offset="0" style="stop-color:#DED1BA"/>
		<stop  offset="0.5549" style="stop-color:#B3A081"/>
		<stop  offset="1" style="stop-color:#8F7A5C"/>
	</linearGradient>
	<polygon fill="url(#SVGID_3_)" points="82.599,91.514 0.005,91.514 0.005,8.449 82.558,8.449 	"/>
	<linearGradient id="SVGID_4_" gradientUnits="userSpaceOnUse" x1="1.9409" y1="60.3555" x2="1.9409" y2="20.9477">
		<stop  offset="0" style="stop-color:#D9C7A8"/>
		<stop  offset="0.5604" style="stop-color:#B3A081"/>
		<stop  offset="1" style="stop-color:#8F7A5C"/>
	</linearGradient>
	<polygon fill="url(#SVGID_4_)" points="3.881,87.478 0,91.514 0,8.449 3.881,12.951 	"/>
	<linearGradient id="SVGID_5_" gradientUnits="userSpaceOnUse" x1="82.9355" y1="22.5371" x2="80.7046" y2="53.7663">
		<stop  offset="0" style="stop-color:#D9C7A8"/>
		<stop  offset="0.5604" style="stop-color:#B3A081"/>
		<stop  offset="1" style="stop-color:#8F7A5C"/>
	</linearGradient>
	<polygon fill="url(#SVGID_5_)" points="82.599,91.514 79.029,87.478 79.029,12.951 82.599,8.449 	"/>
	<g>
		<polyline fill="none" stroke="#3C0000" points="3.881,87.867 3.881,12.951 79.358,12.951 		"/>
		<polyline fill="none" stroke="#FFFFFF" stroke-width="0.75" points="79.029,12.577 79.029,87.478 3.502,87.478 		"/>
	</g>
	<g>
		<polyline fill="none" stroke="#E6E6E6" stroke-width="0.75" points="6.21,85.992 6.21,14.814 77.003,14.814 		"/>
		<polyline fill="none" stroke="#252525" stroke-width="0.75" points="76.7,14.437 76.7,85.614 5.831,85.614 		"/>
	</g>
	<circle fill="#4A3626" cx="41.515" cy="50.114" r="31.262"/>
	<circle cx="98.172" cy="3.296" r="0.61"/>
	<circle cx="85.003" cy="9.636" r="0.61"/>
	<circle cx="98.172" cy="81.8" r="0.61"/>
	<circle cx="85.003" cy="88.14" r="0.61"/>
	<radialGradient id="SVGID_6_" cx="41.5156" cy="50.1143" r="30.0435" gradientUnits="userSpaceOnUse">
		<stop  offset="0" style="stop-color:#634F3D"/>
		<stop  offset="0.3571" style="stop-color:#B5A685"/>
		<stop  offset="0.8022" style="stop-color:#887561"/>
		<stop  offset="0.9835" style="stop-color:#614F3D"/>
	</radialGradient>
	<circle fill="url(#SVGID_6_)" cx="41.516" cy="50.114" r="30.043"/>
	<radialGradient id="SVGID_7_" cx="41.5156" cy="50.1143" r="24.5312" gradientUnits="userSpaceOnUse">
		<stop  offset="0" style="stop-color:#D9C7A8"/>
		<stop  offset="0.2941" style="stop-color:#D6C4A5"/>
		<stop  offset="0.5461" style="stop-color:#CFBC9A"/>
		<stop  offset="0.6264" style="stop-color:#CBB895"/>
		<stop  offset="1" style="stop-color:#BDA982"/>
	</radialGradient>
	<circle fill="url(#SVGID_7_)" cx="41.515" cy="50.114" r="24.531"/>
	<radialGradient id="SVGID_8_" cx="41.9033" cy="49.8818" r="9.1062" gradientUnits="userSpaceOnUse">
		<stop  offset="0.033" style="stop-color:#80614F"/>
		<stop  offset="0.297" style="stop-color:#7B5C4B"/>
		<stop  offset="0.6142" style="stop-color:#6C4F41"/>
		<stop  offset="0.9576" style="stop-color:#543A30"/>
		<stop  offset="0.9835" style="stop-color:#52382E"/>
	</radialGradient>
	<circle fill="url(#SVGID_8_)" cx="41.516" cy="50.114" r="14.284"/>
	<circle fill="#A59F9A" stroke="#422525" stroke-width="0.75" cx="41.516" cy="50.114" r="5.822"/>
	<radialGradient id="SVGID_9_" cx="41.5156" cy="50.1143" r="3.1257" gradientUnits="userSpaceOnUse">
		<stop  offset="0.0604" style="stop-color:#A79387"/>
		<stop  offset="0.7527" style="stop-color:#87726A"/>
		<stop  offset="1" style="stop-color:#6D5651"/>
	</radialGradient>
	<circle fill="url(#SVGID_9_)" cx="41.515" cy="50.114" r="3.726"/>
	<g>
		<rect x="8.056" y="81.244" fill="#300000" width="2.691" height="2.691"/>
		<rect x="11.794" y="81.244" fill="#300000" width="2.691" height="2.691"/>
		<rect x="15.575" y="81.244" fill="#300000" width="2.691" height="2.691"/>
	</g>
	<circle fill="#B09B85" stroke="#877562" stroke-width="0.5" cx="33.897" cy="23.867" r="1.434"/>
	<circle fill="#B09B85" stroke="#877562" stroke-width="0.5" cx="17.345" cy="37.048" r="1.434"/>
	<circle fill="#B09B85" stroke="#877562" stroke-width="0.5" cx="15.105" cy="57.411" r="1.434"/>
	<circle fill="#B09B85" stroke="#877562" stroke-width="0.5" cx="27.98" cy="73.945" r="1.434"/>
	<circle fill="#B09B85" stroke="#877562" stroke-width="0.5" cx="48.573" cy="76.8" r="1.434"/>
	<circle fill="#B09B85" stroke="#877562" stroke-width="0.5" cx="64.966" cy="63.775" r="1.434"/>
	<circle fill="#B09B85" stroke="#877562" stroke-width="0.5" cx="67.637" cy="42.352" r="1.434"/>
	<circle fill="#B09B85" stroke="#877562" stroke-width="0.5" cx="54.407" cy="26.422" r="1.434"/>
</g>
</svg>
