<?xml version="1.0" encoding="utf-8"?>
<!-- Generator: Adobe Illustrator 15.0.0, SVG Export Plug-In . SVG Version: 6.00 Build 0)  -->
<!DOCTYPE svg PUBLIC "-//W3C//DTD SVG 1.1 Tiny//EN" "http://www.w3.org/Graphics/SVG/1.1/DTD/svg11-tiny.dtd">
<svg version="1.1" baseProfile="tiny" id="_x31_1" xmlns="http://www.w3.org/2000/svg" xmlns:xlink="http://www.w3.org/1999/xlink"
	 x="0px" y="0px" width="90.933px" height="91.285px" viewBox="0 0 90.933 91.285" xml:space="preserve">
<g>
	<rect fill="#BDCFFF" width="90.933" height="91.285"/>
	<rect x="5.066" y="88.265" fill="#1C1E53" width="6.09" height="2.987"/>
	<rect x="12.606" y="88.265" fill="#1C1E53" width="6.09" height="2.987"/>
	<rect x="26.066" y="88.265" fill="#1C1E53" width="6.09" height="2.987"/>
	<rect x="58.266" y="88.265" fill="#1C1E53" width="6.09" height="2.987"/>
	<rect x="71.764" y="88.265" fill="#1C1E53" width="6.09" height="2.987"/>
	<rect x="79.267" y="88.265" fill="#1C1E53" width="6.09" height="2.987"/>
	<circle fill="#5D7290" cx="45.665" cy="45.913" r="42.25"/>
	<circle fill="#1C1E53" cx="45.664" cy="45.913" r="39.751"/>
	<g>
		<path fill="#B1C5FF" d="M54.56,46.493c0,0,2.088,3.086,8.235,1c6.146-2.086,14.309-5.717,18.75-15.648l-6.208-10.378
			L49.904,36.414L54.56,46.493z"/>
		<path fill="#7E8DC0" d="M49.281,36.598l26.056-15.132C75.337,21.466,69.292,39.171,49.281,36.598z"/>
	</g>
	<g>
		<path fill="#B1C5FF" d="M40.863,52.266c0,0-3.721,0.206-5.088,6.553c-1.367,6.344-2.445,15.214,3.794,24.125l12.093,0.006
			l0.24-29.5L40.863,52.266z"/>
		<path fill="#7E8DC0" d="M52.063,52.819l-0.401,30.13C51.662,82.949,39.577,68.667,52.063,52.819z"/>
	</g>
	<g>
		<path fill="#CDDCFF" d="M50.67,38.533c0,0,3.719-0.244,5.02-6.604c1.301-6.359,2.286-15.239-4.047-24.085L39.55,7.966l0.07,29.5
			L50.67,38.533z"/>
		<path fill="#7E8DC0" d="M39.464,38.097L39.55,7.966C39.55,7.966,51.784,22.12,39.464,38.097z"/>
	</g>
	<g>
		<path fill="#B1C5FF" d="M41.749,38.162c0,0,1.666-3.333-3.167-7.667s-12-9.667-22.833-8.667l-6,10.5l25.5,14.833L41.749,38.162z"
			/>
		<path fill="#7E8DC0" d="M35.715,47.615L9.749,32.329C9.749,32.329,28.143,28.914,35.715,47.615z"/>
	</g>
	<g>
		<path fill="#CDDCFF" d="M49.445,53.753c0,0-1.673,3.33,3.153,7.673c4.823,4.342,11.981,9.689,22.815,8.71l6.021-10.487
			L55.963,44.765L49.445,53.753z"/>
		<path fill="#7E8DC0" d="M55.497,44.312l25.938,15.337C81.435,59.649,63.034,63.028,55.497,44.312z"/>
	</g>
	<g>
		<path fill="#CDDCFF" d="M36.761,44.574c0,0-2.078-3.093-8.233-1.024c-6.151,2.067-14.326,5.674-18.796,15.591l6.175,10.397
			l25.479-14.871L36.761,44.574z"/>
		<path fill="#7E8DC0" d="M42.01,54.484L15.906,69.538C15.906,69.538,22.006,51.852,42.01,54.484z"/>
	</g>
	<g>
		<circle fill="#1C1E53" cx="45.664" cy="45.913" r="11.167"/>
		<circle fill="#DFDDD7" cx="45.664" cy="45.913" r="9.333"/>
		<circle fill="#5D7290" cx="45.664" cy="45.912" r="3.25"/>
	</g>
</g>
</svg>
