<?xml version="1.0" encoding="utf-8"?>
<!-- Generator: Adobe Illustrator 15.0.0, SVG Export Plug-In . SVG Version: 6.00 Build 0)  -->
<!DOCTYPE svg PUBLIC "-//W3C//DTD SVG 1.1 Tiny//EN" "http://www.w3.org/Graphics/SVG/1.1/DTD/svg11-tiny.dtd">
<svg version="1.1" baseProfile="tiny" id="_x31_7" xmlns="http://www.w3.org/2000/svg" xmlns:xlink="http://www.w3.org/1999/xlink"
	 x="0px" y="0px" width="126.422px" height="89.85px" viewBox="0 0 126.422 89.85" xml:space="preserve">
<g>
	<polygon fill="#2B4949" points="105.07,89.85 126.422,79.091 126.422,0.048 105.07,10.807 	"/>
	<polygon fill="#687977" points="0,10.813 105.28,10.813 126.374,0 21.094,0 	"/>
	<rect y="10.812" fill="#3F6062" width="105.445" height="79.037"/>
	<ellipse fill="#3F6062" cx="62.743" cy="5.569" rx="31.465" ry="2.809"/>
	<line fill="none" stroke="#000000" stroke-width="0.75" x1="10.368" y1="86.614" x2="94.052" y2="86.614"/>
	<g>
		<g>
			<line fill="none" stroke="#000000" stroke-width="0.75" x1="10.362" y1="21.249" x2="26.04" y2="21.249"/>
			<line fill="none" stroke="#000000" stroke-width="0.75" x1="10.362" y1="23.503" x2="26.04" y2="23.503"/>
		</g>
		<g>
			<line fill="none" stroke="#000000" stroke-width="0.75" x1="10.362" y1="26.44" x2="26.04" y2="26.44"/>
			<line fill="none" stroke="#000000" stroke-width="0.75" x1="10.362" y1="28.695" x2="26.04" y2="28.695"/>
		</g>
		<g>
			<line fill="none" stroke="#000000" stroke-width="0.75" x1="10.362" y1="31.788" x2="26.04" y2="31.788"/>
			<line fill="none" stroke="#000000" stroke-width="1.2" x1="10.362" y1="34.043" x2="26.04" y2="34.043"/>
		</g>
		<g>
			<line fill="none" stroke="#000000" stroke-width="0.75" x1="10.362" y1="36.979" x2="26.04" y2="36.979"/>
			<line fill="none" stroke="#000000" stroke-width="0.75" x1="10.362" y1="39.234" x2="26.04" y2="39.234"/>
		</g>
		<g>
			<line fill="none" stroke="#000000" stroke-width="0.75" x1="10.362" y1="42.275" x2="26.04" y2="42.275"/>
			<line fill="none" stroke="#000000" stroke-width="0.75" x1="10.362" y1="44.53" x2="26.04" y2="44.53"/>
		</g>
		<g>
			<line fill="none" stroke="#000000" stroke-width="0.75" x1="10.362" y1="47.467" x2="26.04" y2="47.467"/>
			<line fill="none" stroke="#000000" stroke-width="0.75" x1="10.362" y1="49.722" x2="26.04" y2="49.722"/>
		</g>
		<g>
			<line fill="none" stroke="#000000" stroke-width="0.75" x1="10.362" y1="52.815" x2="26.04" y2="52.815"/>
			<line fill="none" stroke="#000000" stroke-width="0.75" x1="10.362" y1="55.07" x2="26.04" y2="55.07"/>
		</g>
		<g>
			<line fill="none" stroke="#000000" stroke-width="0.75" x1="10.362" y1="58.006" x2="26.04" y2="58.006"/>
			<line fill="none" stroke="#000000" stroke-width="0.75" x1="10.362" y1="60.261" x2="26.04" y2="60.261"/>
		</g>
		<g>
			<line fill="none" stroke="#000000" stroke-width="1.2" x1="10.362" y1="63.277" x2="26.04" y2="63.277"/>
			<line fill="none" stroke="#000000" stroke-width="0.75" x1="10.362" y1="65.532" x2="26.04" y2="65.532"/>
		</g>
		<g>
			<line fill="none" stroke="#000000" stroke-width="0.75" x1="10.362" y1="68.468" x2="26.04" y2="68.468"/>
			<line fill="none" stroke="#000000" stroke-width="0.75" x1="10.362" y1="70.723" x2="26.04" y2="70.723"/>
		</g>
		<g>
			<line fill="none" stroke="#000000" stroke-width="0.75" x1="10.362" y1="73.816" x2="26.04" y2="73.816"/>
			<line fill="none" stroke="#000000" stroke-width="0.75" x1="10.362" y1="76.071" x2="26.04" y2="76.071"/>
		</g>
		<g>
			<line fill="none" stroke="#000000" stroke-width="0.75" x1="10.362" y1="79.008" x2="26.04" y2="79.008"/>
			<line fill="none" stroke="#000000" stroke-width="1.2" x1="10.362" y1="81.263" x2="26.04" y2="81.263"/>
			<line fill="none" stroke="#000000" stroke-width="0.75" x1="10.362" y1="84.449" x2="26.04" y2="84.449"/>
		</g>
	</g>
	<g>
		<g>
			<line fill="none" stroke="#000000" stroke-width="0.75" x1="33.487" y1="21.249" x2="49.165" y2="21.249"/>
			<line fill="none" stroke="#000000" stroke-width="0.75" x1="33.487" y1="23.503" x2="49.165" y2="23.503"/>
		</g>
		<g>
			<line fill="none" stroke="#000000" stroke-width="0.75" x1="33.487" y1="26.44" x2="49.165" y2="26.44"/>
			<line fill="none" stroke="#000000" stroke-width="0.75" x1="33.487" y1="28.695" x2="49.165" y2="28.695"/>
		</g>
		<g>
			<line fill="none" stroke="#000000" stroke-width="0.75" x1="33.487" y1="31.788" x2="49.165" y2="31.788"/>
			<line fill="none" stroke="#000000" stroke-width="1.2" x1="33.487" y1="34.043" x2="49.165" y2="34.043"/>
		</g>
		<g>
			<line fill="none" stroke="#000000" stroke-width="0.75" x1="33.487" y1="36.979" x2="49.165" y2="36.979"/>
			<line fill="none" stroke="#000000" stroke-width="0.75" x1="33.487" y1="39.234" x2="49.165" y2="39.234"/>
		</g>
		<g>
			<line fill="none" stroke="#000000" stroke-width="0.75" x1="33.487" y1="42.275" x2="49.165" y2="42.275"/>
			<line fill="none" stroke="#000000" stroke-width="0.75" x1="33.487" y1="44.53" x2="49.165" y2="44.53"/>
		</g>
		<g>
			<line fill="none" stroke="#000000" stroke-width="0.75" x1="33.487" y1="47.467" x2="49.165" y2="47.467"/>
			<line fill="none" stroke="#000000" stroke-width="0.75" x1="33.487" y1="49.722" x2="49.165" y2="49.722"/>
		</g>
		<g>
			<line fill="none" stroke="#000000" stroke-width="0.75" x1="33.487" y1="52.815" x2="49.165" y2="52.815"/>
			<line fill="none" stroke="#000000" stroke-width="0.75" x1="33.487" y1="55.07" x2="49.165" y2="55.07"/>
		</g>
		<g>
			<line fill="none" stroke="#000000" stroke-width="0.75" x1="33.487" y1="58.006" x2="49.165" y2="58.006"/>
			<line fill="none" stroke="#000000" stroke-width="0.75" x1="33.487" y1="60.261" x2="49.165" y2="60.261"/>
		</g>
		<g>
			<line fill="none" stroke="#000000" stroke-width="1.2" x1="33.487" y1="63.277" x2="49.165" y2="63.277"/>
			<line fill="none" stroke="#000000" stroke-width="0.75" x1="33.487" y1="65.532" x2="49.165" y2="65.532"/>
		</g>
		<g>
			<line fill="none" stroke="#000000" stroke-width="0.75" x1="33.487" y1="68.468" x2="49.165" y2="68.468"/>
			<line fill="none" stroke="#000000" stroke-width="0.75" x1="33.487" y1="70.723" x2="49.165" y2="70.723"/>
		</g>
		<g>
			<line fill="none" stroke="#000000" stroke-width="0.75" x1="33.487" y1="73.816" x2="49.165" y2="73.816"/>
			<line fill="none" stroke="#000000" stroke-width="0.75" x1="33.487" y1="76.071" x2="49.165" y2="76.071"/>
		</g>
		<g>
			<line fill="none" stroke="#000000" stroke-width="0.75" x1="33.487" y1="79.008" x2="49.165" y2="79.008"/>
			<line fill="none" stroke="#000000" stroke-width="1.2" x1="33.487" y1="81.263" x2="49.165" y2="81.263"/>
			<line fill="none" stroke="#000000" stroke-width="0.75" x1="33.487" y1="84.449" x2="49.165" y2="84.449"/>
		</g>
	</g>
	<g>
		<g>
			<line fill="none" stroke="#000000" stroke-width="0.75" x1="55.862" y1="21.249" x2="71.54" y2="21.249"/>
			<line fill="none" stroke="#000000" stroke-width="0.75" x1="55.862" y1="23.503" x2="71.54" y2="23.503"/>
		</g>
		<g>
			<line fill="none" stroke="#000000" stroke-width="0.75" x1="55.862" y1="26.44" x2="71.54" y2="26.44"/>
			<line fill="none" stroke="#000000" stroke-width="0.75" x1="55.862" y1="28.695" x2="71.54" y2="28.695"/>
		</g>
		<g>
			<line fill="none" stroke="#000000" stroke-width="0.75" x1="55.862" y1="31.788" x2="71.54" y2="31.788"/>
			<line fill="none" stroke="#000000" stroke-width="1.2" x1="55.862" y1="34.043" x2="71.54" y2="34.043"/>
		</g>
		<g>
			<line fill="none" stroke="#000000" stroke-width="0.75" x1="55.862" y1="36.979" x2="71.54" y2="36.979"/>
			<line fill="none" stroke="#000000" stroke-width="0.75" x1="55.862" y1="39.234" x2="71.54" y2="39.234"/>
		</g>
		<g>
			<line fill="none" stroke="#000000" stroke-width="0.75" x1="55.862" y1="42.275" x2="71.54" y2="42.275"/>
			<line fill="none" stroke="#000000" stroke-width="0.75" x1="55.862" y1="44.53" x2="71.54" y2="44.53"/>
		</g>
		<g>
			<line fill="none" stroke="#000000" stroke-width="0.75" x1="55.862" y1="47.467" x2="71.54" y2="47.467"/>
			<line fill="none" stroke="#000000" stroke-width="0.75" x1="55.862" y1="49.722" x2="71.54" y2="49.722"/>
		</g>
		<g>
			<line fill="none" stroke="#000000" stroke-width="0.75" x1="55.862" y1="52.815" x2="71.54" y2="52.815"/>
			<line fill="none" stroke="#000000" stroke-width="0.75" x1="55.862" y1="55.07" x2="71.54" y2="55.07"/>
		</g>
		<g>
			<line fill="none" stroke="#000000" stroke-width="0.75" x1="55.862" y1="58.006" x2="71.54" y2="58.006"/>
			<line fill="none" stroke="#000000" stroke-width="0.75" x1="55.862" y1="60.261" x2="71.54" y2="60.261"/>
		</g>
		<g>
			<line fill="none" stroke="#000000" stroke-width="1.2" x1="55.862" y1="63.277" x2="71.54" y2="63.277"/>
			<line fill="none" stroke="#000000" stroke-width="0.75" x1="55.862" y1="65.532" x2="71.54" y2="65.532"/>
		</g>
		<g>
			<line fill="none" stroke="#000000" stroke-width="0.75" x1="55.862" y1="68.468" x2="71.54" y2="68.468"/>
			<line fill="none" stroke="#000000" stroke-width="0.75" x1="55.862" y1="70.723" x2="71.54" y2="70.723"/>
		</g>
		<g>
			<line fill="none" stroke="#000000" stroke-width="0.75" x1="55.862" y1="73.816" x2="71.54" y2="73.816"/>
			<line fill="none" stroke="#000000" stroke-width="0.75" x1="55.862" y1="76.071" x2="71.54" y2="76.071"/>
		</g>
		<g>
			<line fill="none" stroke="#000000" stroke-width="0.75" x1="55.862" y1="79.008" x2="71.54" y2="79.008"/>
			<line fill="none" stroke="#000000" stroke-width="1.2" x1="55.862" y1="81.263" x2="71.54" y2="81.263"/>
			<line fill="none" stroke="#000000" stroke-width="0.75" x1="55.862" y1="84.449" x2="71.54" y2="84.449"/>
		</g>
	</g>
	<g>
		<g>
			<line fill="none" stroke="#000000" stroke-width="0.75" x1="78.737" y1="21.249" x2="94.415" y2="21.249"/>
			<line fill="none" stroke="#000000" stroke-width="0.75" x1="78.737" y1="23.503" x2="94.415" y2="23.503"/>
		</g>
		<g>
			<line fill="none" stroke="#000000" stroke-width="0.75" x1="78.737" y1="26.44" x2="94.415" y2="26.44"/>
			<line fill="none" stroke="#000000" stroke-width="0.75" x1="78.737" y1="28.695" x2="94.415" y2="28.695"/>
		</g>
		<g>
			<line fill="none" stroke="#000000" stroke-width="0.75" x1="78.737" y1="31.788" x2="94.415" y2="31.788"/>
			<line fill="none" stroke="#000000" stroke-width="1.2" x1="78.737" y1="34.043" x2="94.415" y2="34.043"/>
		</g>
		<g>
			<line fill="none" stroke="#000000" stroke-width="0.75" x1="78.737" y1="36.979" x2="94.415" y2="36.979"/>
			<line fill="none" stroke="#000000" stroke-width="0.75" x1="78.737" y1="39.234" x2="94.415" y2="39.234"/>
		</g>
		<g>
			<line fill="none" stroke="#000000" stroke-width="0.75" x1="78.737" y1="42.275" x2="94.415" y2="42.275"/>
			<line fill="none" stroke="#000000" stroke-width="0.75" x1="78.737" y1="44.53" x2="94.415" y2="44.53"/>
		</g>
		<g>
			<line fill="none" stroke="#000000" stroke-width="0.75" x1="78.737" y1="47.467" x2="94.415" y2="47.467"/>
			<line fill="none" stroke="#000000" stroke-width="0.75" x1="78.737" y1="49.722" x2="94.415" y2="49.722"/>
		</g>
		<g>
			<line fill="none" stroke="#000000" stroke-width="0.75" x1="78.737" y1="52.815" x2="94.415" y2="52.815"/>
			<line fill="none" stroke="#000000" stroke-width="0.75" x1="78.737" y1="55.07" x2="94.415" y2="55.07"/>
		</g>
		<g>
			<line fill="none" stroke="#000000" stroke-width="0.75" x1="78.737" y1="58.006" x2="94.415" y2="58.006"/>
			<line fill="none" stroke="#000000" stroke-width="0.75" x1="78.737" y1="60.261" x2="94.415" y2="60.261"/>
		</g>
		<g>
			<line fill="none" stroke="#000000" stroke-width="1.2" x1="78.737" y1="63.277" x2="94.415" y2="63.277"/>
			<line fill="none" stroke="#000000" stroke-width="0.75" x1="78.737" y1="65.532" x2="94.415" y2="65.532"/>
		</g>
		<g>
			<line fill="none" stroke="#000000" stroke-width="0.75" x1="78.737" y1="68.468" x2="94.415" y2="68.468"/>
			<line fill="none" stroke="#000000" stroke-width="0.75" x1="78.737" y1="70.723" x2="94.415" y2="70.723"/>
		</g>
		<g>
			<line fill="none" stroke="#000000" stroke-width="0.75" x1="78.737" y1="73.816" x2="94.415" y2="73.816"/>
			<line fill="none" stroke="#000000" stroke-width="0.75" x1="78.737" y1="76.071" x2="94.415" y2="76.071"/>
		</g>
		<g>
			<line fill="none" stroke="#000000" stroke-width="0.75" x1="78.737" y1="79.008" x2="94.415" y2="79.008"/>
			<line fill="none" stroke="#000000" stroke-width="1.2" x1="78.737" y1="81.263" x2="94.415" y2="81.263"/>
			<line fill="none" stroke="#000000" stroke-width="0.75" x1="78.737" y1="84.449" x2="94.415" y2="84.449"/>
		</g>
	</g>
	<g>
		<line fill="none" stroke="#000000" stroke-width="0.75" x1="123.051" y1="13.297" x2="120.589" y2="14.64"/>
		<line fill="none" stroke="#000000" stroke-width="0.75" x1="123.051" y1="15.759" x2="120.589" y2="17.103"/>
		<line fill="none" stroke="#000000" stroke-width="0.75" x1="123.051" y1="18.558" x2="120.589" y2="19.901"/>
		<line fill="none" stroke="#000000" stroke-width="0.75" x1="123.051" y1="21.02" x2="120.589" y2="22.363"/>
		<line fill="none" stroke="#000000" stroke-width="0.75" x1="123.051" y1="23.594" x2="120.589" y2="24.938"/>
		<line fill="none" stroke="#000000" stroke-width="0.75" x1="123.051" y1="26.057" x2="120.589" y2="27.4"/>
		<line fill="none" stroke="#000000" stroke-width="0.75" x1="123.051" y1="28.855" x2="120.589" y2="30.198"/>
		<line fill="none" stroke="#000000" stroke-width="0.75" x1="123.051" y1="31.317" x2="120.589" y2="32.661"/>
		<line fill="none" stroke="#000000" stroke-width="0.75" x1="123.051" y1="34.34" x2="120.589" y2="35.683"/>
		<line fill="none" stroke="#000000" stroke-width="0.75" x1="123.051" y1="36.802" x2="120.589" y2="38.146"/>
		<line fill="none" stroke="#000000" stroke-width="0.75" x1="123.051" y1="39.601" x2="120.589" y2="40.944"/>
		<line fill="none" stroke="#000000" stroke-width="0.75" x1="123.051" y1="42.063" x2="120.589" y2="43.406"/>
		<line fill="none" stroke="#000000" stroke-width="0.75" x1="123.051" y1="44.637" x2="120.589" y2="45.98"/>
		<line fill="none" stroke="#000000" stroke-width="0.75" x1="123.051" y1="47.1" x2="120.589" y2="48.443"/>
		<line fill="none" stroke="#000000" stroke-width="0.75" x1="123.051" y1="49.898" x2="120.589" y2="51.241"/>
		<line fill="none" stroke="#000000" stroke-width="0.75" x1="123.051" y1="52.36" x2="120.589" y2="53.704"/>
		<line fill="none" stroke="#000000" stroke-width="0.75" x1="123.051" y1="55.159" x2="120.589" y2="56.502"/>
		<line fill="none" stroke="#000000" stroke-width="0.75" x1="123.051" y1="57.621" x2="120.589" y2="58.964"/>
		<line fill="none" stroke="#000000" stroke-width="0.75" x1="123.051" y1="60.419" x2="120.589" y2="61.763"/>
		<line fill="none" stroke="#000000" stroke-width="0.75" x1="123.051" y1="62.882" x2="120.589" y2="64.225"/>
		<line fill="none" stroke="#000000" stroke-width="0.75" x1="123.051" y1="65.456" x2="120.589" y2="66.799"/>
		<line fill="none" stroke="#000000" stroke-width="0.75" x1="123.051" y1="67.918" x2="120.589" y2="69.262"/>
		<line fill="none" stroke="#000000" stroke-width="0.75" x1="123.051" y1="70.717" x2="120.589" y2="72.06"/>
		<line fill="none" stroke="#000000" stroke-width="0.75" x1="123.051" y1="73.179" x2="120.589" y2="74.522"/>
		<line fill="none" stroke="#000000" stroke-width="0.75" x1="123.051" y1="76.313" x2="120.589" y2="77.657"/>
		<line fill="none" stroke="#000000" stroke-width="0.75" x1="123.051" y1="78.776" x2="120.589" y2="80.119"/>
	</g>
	<g>
		<line fill="none" stroke="#000000" stroke-width="0.75" x1="118.798" y1="15.423" x2="116.336" y2="16.767"/>
		<line fill="none" stroke="#000000" stroke-width="0.75" x1="118.798" y1="17.886" x2="116.336" y2="19.229"/>
		<line fill="none" stroke="#000000" stroke-width="0.75" x1="118.798" y1="20.684" x2="116.336" y2="22.027"/>
		<line fill="none" stroke="#000000" stroke-width="0.75" x1="118.798" y1="23.146" x2="116.336" y2="24.49"/>
		<line fill="none" stroke="#000000" stroke-width="0.75" x1="118.798" y1="25.721" x2="116.336" y2="27.064"/>
		<line fill="none" stroke="#000000" stroke-width="0.75" x1="118.798" y1="28.183" x2="116.336" y2="29.526"/>
		<line fill="none" stroke="#000000" stroke-width="0.75" x1="118.798" y1="30.981" x2="116.336" y2="32.325"/>
		<line fill="none" stroke="#000000" stroke-width="0.75" x1="118.798" y1="33.444" x2="116.336" y2="34.787"/>
		<line fill="none" stroke="#000000" stroke-width="0.75" x1="118.798" y1="36.466" x2="116.336" y2="37.81"/>
		<line fill="none" stroke="#000000" stroke-width="0.75" x1="118.798" y1="38.929" x2="116.336" y2="40.272"/>
		<line fill="none" stroke="#000000" stroke-width="0.75" x1="118.798" y1="41.727" x2="116.336" y2="43.07"/>
		<line fill="none" stroke="#000000" stroke-width="0.75" x1="118.798" y1="44.189" x2="116.336" y2="45.533"/>
		<line fill="none" stroke="#000000" stroke-width="0.75" x1="118.798" y1="46.764" x2="116.336" y2="48.107"/>
		<line fill="none" stroke="#000000" stroke-width="0.75" x1="118.798" y1="49.226" x2="116.336" y2="50.569"/>
		<line fill="none" stroke="#000000" stroke-width="0.75" x1="118.798" y1="52.024" x2="116.336" y2="53.368"/>
		<line fill="none" stroke="#000000" stroke-width="0.75" x1="118.798" y1="54.487" x2="116.336" y2="55.83"/>
		<line fill="none" stroke="#000000" stroke-width="0.75" x1="118.798" y1="57.285" x2="116.336" y2="58.628"/>
		<line fill="none" stroke="#000000" stroke-width="0.75" x1="118.798" y1="59.748" x2="116.336" y2="61.091"/>
		<line fill="none" stroke="#000000" stroke-width="0.75" x1="118.798" y1="62.546" x2="116.336" y2="63.889"/>
		<line fill="none" stroke="#000000" stroke-width="0.75" x1="118.798" y1="65.008" x2="116.336" y2="66.352"/>
		<line fill="none" stroke="#000000" stroke-width="0.75" x1="118.798" y1="67.583" x2="116.336" y2="68.926"/>
		<line fill="none" stroke="#000000" stroke-width="0.75" x1="118.798" y1="70.045" x2="116.336" y2="71.388"/>
		<line fill="none" stroke="#000000" stroke-width="0.75" x1="118.798" y1="72.843" x2="116.336" y2="74.187"/>
		<line fill="none" stroke="#000000" stroke-width="0.75" x1="118.798" y1="75.306" x2="116.336" y2="76.649"/>
		<line fill="none" stroke="#000000" stroke-width="0.75" x1="118.798" y1="78.44" x2="116.336" y2="79.783"/>
		<line fill="none" stroke="#000000" stroke-width="0.75" x1="118.798" y1="80.902" x2="116.336" y2="82.246"/>
	</g>
	<g>
		<line fill="none" stroke="#000000" stroke-width="0.75" x1="114.097" y1="17.998" x2="111.635" y2="19.341"/>
		<line fill="none" stroke="#000000" stroke-width="0.75" x1="114.097" y1="20.46" x2="111.635" y2="21.804"/>
		<line fill="none" stroke="#000000" stroke-width="0.75" x1="114.097" y1="23.259" x2="111.635" y2="24.602"/>
		<line fill="none" stroke="#000000" stroke-width="0.75" x1="114.097" y1="25.721" x2="111.635" y2="27.064"/>
		<line fill="none" stroke="#000000" stroke-width="0.75" x1="114.097" y1="28.295" x2="111.635" y2="29.639"/>
		<line fill="none" stroke="#000000" stroke-width="0.75" x1="114.097" y1="30.758" x2="111.635" y2="32.101"/>
		<line fill="none" stroke="#000000" stroke-width="0.75" x1="114.097" y1="33.556" x2="111.635" y2="34.899"/>
		<line fill="none" stroke="#000000" stroke-width="0.75" x1="114.097" y1="36.019" x2="111.635" y2="37.362"/>
		<line fill="none" stroke="#000000" stroke-width="0.75" x1="114.097" y1="39.041" x2="111.635" y2="40.384"/>
		<line fill="none" stroke="#000000" stroke-width="0.75" x1="114.097" y1="41.503" x2="111.635" y2="42.847"/>
		<line fill="none" stroke="#000000" stroke-width="0.75" x1="114.097" y1="44.302" x2="111.635" y2="45.645"/>
		<line fill="none" stroke="#000000" stroke-width="0.75" x1="114.097" y1="46.764" x2="111.635" y2="48.107"/>
		<line fill="none" stroke="#000000" stroke-width="0.75" x1="114.097" y1="49.338" x2="111.635" y2="50.682"/>
		<line fill="none" stroke="#000000" stroke-width="0.75" x1="114.097" y1="51.801" x2="111.635" y2="53.144"/>
		<line fill="none" stroke="#000000" stroke-width="0.75" x1="114.097" y1="54.599" x2="111.635" y2="55.942"/>
		<line fill="none" stroke="#000000" stroke-width="0.75" x1="114.097" y1="57.062" x2="111.635" y2="58.405"/>
		<line fill="none" stroke="#000000" stroke-width="0.75" x1="114.097" y1="59.86" x2="111.635" y2="61.203"/>
		<line fill="none" stroke="#000000" stroke-width="0.75" x1="114.097" y1="62.322" x2="111.635" y2="63.666"/>
		<line fill="none" stroke="#000000" stroke-width="0.75" x1="114.097" y1="65.121" x2="111.635" y2="66.464"/>
		<line fill="none" stroke="#000000" stroke-width="0.75" x1="114.097" y1="67.583" x2="111.635" y2="68.926"/>
		<line fill="none" stroke="#000000" stroke-width="0.75" x1="114.097" y1="70.157" x2="111.635" y2="71.5"/>
		<line fill="none" stroke="#000000" stroke-width="0.75" x1="114.097" y1="72.62" x2="111.635" y2="73.963"/>
		<line fill="none" stroke="#000000" stroke-width="0.75" x1="114.097" y1="75.418" x2="111.635" y2="76.761"/>
		<line fill="none" stroke="#000000" stroke-width="0.75" x1="114.097" y1="77.88" x2="111.635" y2="79.224"/>
		<line fill="none" stroke="#000000" stroke-width="0.75" x1="114.097" y1="81.015" x2="111.635" y2="82.358"/>
		<line fill="none" stroke="#000000" stroke-width="0.75" x1="114.097" y1="83.477" x2="111.635" y2="84.82"/>
	</g>
	<g>
		<line fill="none" stroke="#000000" stroke-width="0.75" x1="109.955" y1="19.789" x2="108.389" y2="20.236"/>
		<line fill="none" stroke="#000000" stroke-width="0.75" x1="109.955" y1="22.251" x2="108.389" y2="22.699"/>
		<line fill="none" stroke="#000000" stroke-width="0.75" x1="109.955" y1="25.05" x2="108.389" y2="25.497"/>
		<line fill="none" stroke="#000000" stroke-width="0.75" x1="109.955" y1="27.512" x2="108.389" y2="27.959"/>
		<line fill="none" stroke="#000000" stroke-width="0.75" x1="109.955" y1="30.086" x2="108.389" y2="30.534"/>
		<line fill="none" stroke="#000000" stroke-width="0.75" x1="109.955" y1="32.549" x2="108.389" y2="32.996"/>
		<line fill="none" stroke="#000000" stroke-width="0.75" x1="109.955" y1="35.347" x2="108.389" y2="35.794"/>
		<line fill="none" stroke="#000000" stroke-width="0.75" x1="109.955" y1="37.81" x2="108.389" y2="38.257"/>
		<line fill="none" stroke="#000000" stroke-width="0.75" x1="109.955" y1="40.832" x2="108.389" y2="41.279"/>
		<line fill="none" stroke="#000000" stroke-width="0.75" x1="109.955" y1="43.294" x2="108.389" y2="43.742"/>
		<line fill="none" stroke="#000000" stroke-width="0.75" x1="109.955" y1="46.093" x2="108.389" y2="46.54"/>
		<line fill="none" stroke="#000000" stroke-width="0.75" x1="109.955" y1="48.555" x2="108.389" y2="49.002"/>
		<line fill="none" stroke="#000000" stroke-width="0.75" x1="109.955" y1="51.129" x2="108.389" y2="51.577"/>
		<line fill="none" stroke="#000000" stroke-width="0.75" x1="109.955" y1="53.592" x2="108.389" y2="54.039"/>
		<line fill="none" stroke="#000000" stroke-width="0.75" x1="109.955" y1="56.39" x2="108.389" y2="56.837"/>
		<line fill="none" stroke="#000000" stroke-width="0.75" x1="109.955" y1="58.853" x2="108.389" y2="59.3"/>
		<line fill="none" stroke="#000000" stroke-width="0.75" x1="109.955" y1="61.651" x2="108.389" y2="62.098"/>
		<line fill="none" stroke="#000000" stroke-width="0.75" x1="109.955" y1="64.113" x2="108.389" y2="64.561"/>
		<line fill="none" stroke="#000000" stroke-width="0.75" x1="109.955" y1="66.912" x2="108.389" y2="67.359"/>
		<line fill="none" stroke="#000000" stroke-width="0.75" x1="109.955" y1="69.374" x2="108.389" y2="69.821"/>
		<line fill="none" stroke="#000000" stroke-width="0.75" x1="109.955" y1="71.948" x2="108.389" y2="72.396"/>
		<line fill="none" stroke="#000000" stroke-width="0.75" x1="109.955" y1="74.411" x2="108.389" y2="74.858"/>
		<line fill="none" stroke="#000000" stroke-width="0.75" x1="109.955" y1="77.209" x2="108.389" y2="77.656"/>
		<line fill="none" stroke="#000000" stroke-width="0.75" x1="109.955" y1="79.671" x2="108.389" y2="80.119"/>
		<line fill="none" stroke="#000000" stroke-width="0.75" x1="109.955" y1="82.806" x2="108.389" y2="83.253"/>
		<line fill="none" stroke="#000000" stroke-width="0.75" x1="109.955" y1="85.268" x2="108.389" y2="85.715"/>
	</g>
</g>
</svg>
