<?xml version="1.0" encoding="utf-8"?>
<!-- Generator: Adobe Illustrator 15.0.0, SVG Export Plug-In . SVG Version: 6.00 Build 0)  -->
<!DOCTYPE svg PUBLIC "-//W3C//DTD SVG 1.1 Tiny//EN" "http://www.w3.org/Graphics/SVG/1.1/DTD/svg11-tiny.dtd">
<svg version="1.1" baseProfile="tiny" id="_x32_3_x5F_修改"
	 xmlns="http://www.w3.org/2000/svg" xmlns:xlink="http://www.w3.org/1999/xlink" x="0px" y="0px" width="85.836px"
	 height="104.92px" viewBox="0 0 85.836 104.92" xml:space="preserve">
<g>
	<linearGradient id="SVGID_1_" gradientUnits="userSpaceOnUse" x1="52.3477" y1="104.7354" x2="40.0146" y2="76.0694">
		<stop  offset="0" style="stop-color:#A1ADBA"/>
		<stop  offset="0.188" style="stop-color:#9BA6B4"/>
		<stop  offset="0.4543" style="stop-color:#8A94A2"/>
		<stop  offset="0.7659" style="stop-color:#6E7685"/>
		<stop  offset="1" style="stop-color:#545A6B"/>
	</linearGradient>
	<rect x="16.077" y="55.915" fill="url(#SVGID_1_)" width="50.391" height="46.157"/>
	<rect x="14.868" y="69.621" fill="#323242" width="3.225" height="32.451"/>
	<rect x="65.573" y="56.722" fill="#787878" width="2.106" height="45.351"/>
	<linearGradient id="SVGID_2_" gradientUnits="userSpaceOnUse" x1="17.1582" y1="102.542" x2="64.1582" y2="102.542">
		<stop  offset="0.0056" style="stop-color:#35373B"/>
		<stop  offset="0.4888" style="stop-color:#747477"/>
		<stop  offset="1" style="stop-color:#38373B"/>
	</linearGradient>
	<rect x="12.662" y="100.164" fill="url(#SVGID_2_)" width="57.768" height="4.756"/>
	<g>
		<polygon points="26.745,85.278 25.037,85.278 25.037,86.133 24.141,86.152 24.141,87.008 26.745,87.008 		"/>
		<polygon points="26.745,93.861 25.037,93.861 25.037,94.716 24.141,94.735 24.141,95.591 26.745,95.591 		"/>
	</g>
	<path fill="#8C8F8F" d="M14.953,71.043l-0.092,2.496c0,0,6.288,7.074,22.354,6.949c16.125-0.125,27.443-11.518,30.447-18.96v-2.476
		L14.953,71.043z"/>
	<radialGradient id="SVGID_3_" cx="36.3916" cy="46.2178" r="41.6962" gradientUnits="userSpaceOnUse">
		<stop  offset="0" style="stop-color:#656462"/>
		<stop  offset="0.2244" style="stop-color:#7B7B79"/>
		<stop  offset="0.4944" style="stop-color:#9B9B9A"/>
		<stop  offset="1" style="stop-color:#D2D2D2"/>
	</radialGradient>
	<path fill="url(#SVGID_3_)" d="M36.453,7.4C16.642,7.082,0.323,22.882,0.005,42.694c-0.319,19.812,15.48,36.128,35.292,36.447
		c19.813,0.319,36.13-15.48,36.448-35.293L83.6,43.822V7.34L36.453,7.4z"/>
	<linearGradient id="SVGID_4_" gradientUnits="userSpaceOnUse" x1="72.5957" y1="24.1514" x2="74.9287" y2="39.4844">
		<stop  offset="0" style="stop-color:#96A0A8"/>
		<stop  offset="0.2104" style="stop-color:#9099A2"/>
		<stop  offset="0.5084" style="stop-color:#7E8792"/>
		<stop  offset="0.8572" style="stop-color:#626978"/>
		<stop  offset="1" style="stop-color:#545A6B"/>
	</linearGradient>
	<path fill="url(#SVGID_4_)" d="M71.745,43.849c0,0-0.103-17.056-10.207-24.802l21.05,3.2L83.6,43.822L71.745,43.849z"/>
	<radialGradient id="SVGID_5_" cx="34.4922" cy="40.8047" r="28.4466" gradientUnits="userSpaceOnUse">
		<stop  offset="0" style="stop-color:#9699B3"/>
		<stop  offset="1" style="stop-color:#30304D"/>
	</radialGradient>
	<circle fill="url(#SVGID_5_)" cx="35.94" cy="43.296" r="28.797"/>
	<radialGradient id="SVGID_6_" cx="35.7734" cy="43.2959" r="19.1127" gradientUnits="userSpaceOnUse">
		<stop  offset="0" style="stop-color:#FFFFFF"/>
		<stop  offset="1" style="stop-color:#9BA2AF"/>
	</radialGradient>
	<circle fill="url(#SVGID_6_)" cx="35.773" cy="43.296" r="20.882"/>
	<circle fill="#332E29" cx="36.026" cy="43.044" r="11.999"/>
	<g>
		
			<rect x="16.695" y="26.672" transform="matrix(0.673 -0.7397 0.7397 0.673 -14.9424 22.1072)" fill="#FFFFFF" width="1.669" height="2.559"/>
		
			<rect x="10.823" y="42.025" transform="matrix(-0.0076 -1 1 -0.0076 -31.558 55.2915)" fill="#FFFFFF" width="1.669" height="2.56"/>
		
			<rect x="58.823" y="41.525" transform="matrix(-0.0076 -1 1 -0.0076 17.3071 102.7863)" fill="#FFFFFF" width="1.669" height="2.56"/>
		
			<rect x="50.652" y="25.187" transform="matrix(0.6733 -0.7394 0.7394 0.6733 -2.2737 46.896)" fill="#FFFFFF" width="2.558" height="1.668"/>
		
			<rect x="34.712" y="18.971" transform="matrix(0.0221 -0.9998 0.9998 0.0221 15.394 55.3491)" fill="#FFFFFF" width="2.558" height="1.668"/>
		
			<rect x="35.379" y="66.471" transform="matrix(0.0221 -0.9998 0.9998 0.0221 -31.4421 102.4642)" fill="#FFFFFF" width="2.558" height="1.668"/>
		
			<rect x="52.619" y="59.422" transform="matrix(0.6731 -0.7395 0.7395 0.6731 -27.2347 59.3393)" fill="#FFFFFF" width="1.78" height="2.113"/>
		
			<rect x="18.416" y="61.017" transform="matrix(-0.6733 0.7394 -0.7394 -0.6733 78.2123 89.3669)" fill="#FFFFFF" width="1.891" height="1.893"/>
	</g>
	<rect x="80.383" y="7.264" fill="#718587" width="1.679" height="36.49"/>
	<linearGradient id="SVGID_7_" gradientUnits="userSpaceOnUse" x1="83.7578" y1="2.915" x2="83.7578" y2="47.1972">
		<stop  offset="0" style="stop-color:#24384F"/>
		<stop  offset="0.5055" style="stop-color:#96A1A6"/>
		<stop  offset="1" style="stop-color:#24384F"/>
	</linearGradient>
	<rect x="81.681" fill="url(#SVGID_7_)" width="4.155" height="50.848"/>
	<circle fill="#50474B" cx="36.026" cy="43.044" r="10.863"/>
	<g>
		<path d="M38.195,34.107c0,0,4.679,1.513,6.181,5.702L38.9,42.009c0,0-0.914-1.563-2.681-1.875L38.195,34.107z"/>
		<path d="M32.227,42.511c0,0,0.379-1.908,1.875-2.681l-1.952-5.446c0,0-4.487,2.317-5.26,7.085L32.227,42.511z"/>
		<path d="M32.505,43.947c0,0,0.316,1.542,2.421,2.796l-0.405,5.463c0,0-5.859-0.854-7.394-6.449L32.505,43.947z"/>
		<path d="M36.392,46.218l2.379,5.646c0,0,5.072-1.345,5.926-7.205l-4.918-1.191C39.778,43.468,39.01,45.279,36.392,46.218z"/>
	</g>
	<circle cx="78.491" cy="8.888" r="0.75"/>
	<circle cx="78.491" cy="42.138" r="0.75"/>
	<circle cx="68.659" cy="103.346" r="0.601"/>
	<circle cx="14.534" cy="103.346" r="0.601"/>
</g>
</svg>
