<?xml version="1.0" encoding="utf-8"?>
<!-- Generator: Adobe Illustrator 15.0.0, SVG Export Plug-In . SVG Version: 6.00 Build 0)  -->
<!DOCTYPE svg PUBLIC "-//W3C//DTD SVG 1.1 Tiny//EN" "http://www.w3.org/Graphics/SVG/1.1/DTD/svg11-tiny.dtd">
<svg version="1.1" baseProfile="tiny" id="_x31_5" xmlns="http://www.w3.org/2000/svg" xmlns:xlink="http://www.w3.org/1999/xlink"
	 x="0px" y="0px" width="102.176px" height="92.313px" viewBox="0 0 102.176 92.313" xml:space="preserve">
<g>
	<polygon fill="#474963" points="9.331,81.031 0,81.031 0,13.736 11.383,13.736 10.176,17.771 3.985,17.649 3.985,77.153 
		10.296,77.032 	"/>
	<linearGradient id="SVGID_1_" gradientUnits="userSpaceOnUse" x1="54.752" y1="7.8682" x2="57.2521" y2="76.3719">
		<stop  offset="0.05" style="stop-color:#6D777F"/>
		<stop  offset="0.5056" style="stop-color:#DBE0F2"/>
		<stop  offset="0.95" style="stop-color:#6D777F"/>
	</linearGradient>
	<polygon fill="url(#SVGID_1_)" points="102.176,73.063 83.625,78.563 79.01,82.063 32.676,82.063 28.069,78.54 9.843,73.063 
		9.843,11.563 32.676,5.063 79.51,5.063 102.176,11.563 	"/>
	<polygon fill="#495660" points="99.172,73.439 99.172,81.849 82.968,81.849 82.968,79.983 97.29,79.983 97.311,73.445 	"/>
	<circle fill="#8A8280" stroke="#000000" stroke-width="0.5" cx="29.776" cy="72.059" r="1.882"/>
	<circle fill="#8A8280" stroke="#000000" stroke-width="0.5" cx="82.363" cy="72.059" r="1.882"/>
	<rect x="43.336" fill="#474C68" width="4.044" height="64.915"/>
	<rect x="53.973" fill="#474C68" width="4.044" height="64.915"/>
	<rect x="64.665" fill="#474C68" width="4.044" height="64.915"/>
	<rect x="19.165" y="6.375" fill="#5D6172" width="3.669" height="72.415"/>
	<rect x="79.093" y="76.938" fill="#A4B3C2" width="4.688" height="12.25"/>
	<g>
		<rect x="11.093" y="63.563" fill="#A7AFB8" width="6.188" height="4.875"/>
		<rect x="11.593" y="48.125" fill="#A7AFB8" width="5.5" height="4.25"/>
		<rect x="11.593" y="33" fill="#A7AFB8" width="5.5" height="4.25"/>
		<rect x="11.593" y="17.875" fill="#A7AFB8" width="5.5" height="4.25"/>
		<rect x="94.451" y="17.676" fill="#A7AFB8" width="5.648" height="4.222"/>
		<rect x="94.451" y="32.865" fill="#A7AFB8" width="5.648" height="4.222"/>
		<rect x="94.451" y="48.115" fill="#A7AFB8" width="5.648" height="4.222"/>
		<rect x="94.451" y="63.49" fill="#A7AFB8" width="5.648" height="4.222"/>
	</g>
	<rect x="97.246" y="72.974" fill="#040303" width="1.917" height="1.332"/>
	<rect x="35.718" y="19.313" fill="#77819A" width="42.75" height="63"/>
	<rect x="28.093" y="76.938" fill="#A4B3C2" width="4.688" height="12.25"/>
	<rect x="39.992" y="22.646" fill="#FFFFFF" width="31.083" height="0.782"/>
	<rect x="39.992" y="78.263" fill="#5B5355" width="31.083" height="0.782"/>
	<rect x="88.415" y="6.375" fill="#5D6172" width="3.669" height="72.415"/>
	<g>
		<polyline fill="none" stroke="#1A1A1A" stroke-width="0.75" points="11.218,67.5 11.218,63 17.905,63 		"/>
		<polyline fill="none" stroke="#1A1A1A" stroke-width="0.75" points="11.218,52.313 11.218,47.813 17.905,47.813 		"/>
		<polyline fill="none" stroke="#1A1A1A" stroke-width="0.75" points="11.218,37.188 11.218,32.688 17.905,32.688 		"/>
		<polyline fill="none" stroke="#1A1A1A" stroke-width="0.75" points="11.218,22.063 11.218,17.563 17.905,17.563 		"/>
		<polyline fill="none" stroke="#1A1A1A" stroke-width="0.75" points="94.451,21.898 94.451,17.676 100.099,17.676 		"/>
		<polyline fill="none" stroke="#1A1A1A" stroke-width="0.75" points="94.451,37.087 94.451,32.865 100.099,32.865 		"/>
		<polyline fill="none" stroke="#1A1A1A" stroke-width="0.75" points="94.451,52.337 94.451,48.115 100.099,48.115 		"/>
		<polyline fill="none" stroke="#1A1A1A" stroke-width="0.75" points="94.451,67.712 94.451,63.49 100.099,63.49 		"/>
	</g>
	<rect x="75.322" fill="#383863" width="3.938" height="90"/>
	<rect x="76.572" y="0.02" fill="#040303" width="0.563" height="77.73"/>
	<rect x="32.655" fill="#383863" width="3.938" height="90"/>
	<rect x="34.78" y="0.02" fill="#040303" width="0.563" height="77.73"/>
	<circle fill="#BDC5D7" cx="55.885" cy="50.188" r="23.209"/>
	<g>
		<circle fill="#040319" cx="39.218" cy="40.271" r="1.458"/>
		<circle fill="#040319" cx="37.302" cy="55.063" r="1.458"/>
		<circle fill="#040319" cx="45.968" cy="66.563" r="1.458"/>
		<circle fill="#040319" cx="60.635" cy="68.479" r="1.458"/>
		<circle fill="#040319" cx="72.385" cy="59.729" r="1.458"/>
		<circle fill="#040319" cx="74.302" cy="44.979" r="1.458"/>
		<circle fill="#040319" cx="65.552" cy="33.396" r="1.458"/>
		<circle fill="#040319" cx="50.885" cy="31.396" r="1.458"/>
	</g>
	<circle fill="#352B3F" cx="55.884" cy="50.187" r="13.583"/>
	<rect x="25.78" y="89.188" fill="#2B2841" width="10.813" height="3.125"/>
	<rect x="75.28" y="89.188" fill="#2B2841" width="9.188" height="3.125"/>
	<rect x="6.03" y="72.375" fill="#262649" width="20.688" height="19.938"/>
	<polyline fill="none" stroke="#FFFFFF" stroke-width="0.75" points="9.28,89.625 9.28,74.688 23.968,74.688 	"/>
</g>
</svg>
