<?xml version="1.0" encoding="utf-8"?>
<!-- Generator: Adobe Illustrator 15.0.0, SVG Export Plug-In . SVG Version: 6.00 Build 0)  -->
<!DOCTYPE svg PUBLIC "-//W3C//DTD SVG 1.1//EN" "http://www.w3.org/Graphics/SVG/1.1/DTD/svg11.dtd">
<svg version="1.1" id="_x34_" xmlns="http://www.w3.org/2000/svg" xmlns:xlink="http://www.w3.org/1999/xlink" x="0px" y="0px"
	 width="131.691px" height="89.691px" viewBox="0 0 131.691 89.691" enable-background="new 0 0 131.691 89.691"
	 xml:space="preserve">
<g>
	
		<linearGradient id="SVGID_1_" gradientUnits="userSpaceOnUse" x1="230.2288" y1="-124.8782" x2="239.301" y2="-124.8782" gradientTransform="matrix(1 0 0 -1 -113.3501 -75.3276)">
		<stop  offset="0.0056" style="stop-color:#516464"/>
		<stop  offset="0.1854" style="stop-color:#5E7171"/>
		<stop  offset="0.3652" style="stop-color:#6F8282"/>
		<stop  offset="0.7247" style="stop-color:#566464"/>
		<stop  offset="1" style="stop-color:#263C3C"/>
	</linearGradient>
	<rect x="116.879" y="37.519" fill="url(#SVGID_1_)" width="9.072" height="24.063"/>
	
		<linearGradient id="SVGID_2_" gradientUnits="userSpaceOnUse" x1="224.2639" y1="-87.8557" x2="229.8167" y2="-87.8557" gradientTransform="matrix(1 0 0 -1 -113.3501 -75.3276)">
		<stop  offset="0.0056" style="stop-color:#516464"/>
		<stop  offset="0.1854" style="stop-color:#5E7171"/>
		<stop  offset="0.3652" style="stop-color:#6F8282"/>
		<stop  offset="0.7247" style="stop-color:#566464"/>
		<stop  offset="1" style="stop-color:#263C3C"/>
	</linearGradient>
	<rect x="110.914" y="0" fill="url(#SVGID_2_)" width="5.553" height="25.056"/>
	<rect x="22.266" y="27.625" fill="#1E1C1E" width="75.978" height="55.009"/>
	<rect x="19.491" y="24.666" fill="#4C5156" width="11.407" height="25.869"/>
	<rect x="20.779" y="26.884" fill="#0B171A" width="1.59" height="0.616"/>
	<rect x="20.762" y="32.85" fill="#0B171A" width="1.51" height="1.509"/>
	<rect x="20.762" y="40.302" fill="#0B171A" width="1.51" height="1.509"/>
	<rect x="20.762" y="47.093" fill="#0B171A" width="1.51" height="1.509"/>
	<rect x="27.478" y="26.884" fill="#0B171A" width="1.589" height="0.616"/>
	<rect x="27.46" y="32.85" fill="#0B171A" width="1.51" height="1.509"/>
	<rect x="27.46" y="40.302" fill="#0B171A" width="1.51" height="1.509"/>
	<rect x="27.46" y="47.093" fill="#0B171A" width="1.51" height="1.509"/>
	<polygon fill="#001200" points="88.243,58.439 88.243,43.439 50.743,43.439 50.743,74.564 75.493,74.564 75.568,58.559 	"/>
	<rect x="62.197" y="55.838" fill="#818883" width="9.74" height="15.722"/>
	<rect x="62.166" y="56.642" fill="#0B171A" width="1.546" height="1.484"/>
	<rect x="62.166" y="62.641" fill="#0B171A" width="1.546" height="1.484"/>
	<rect x="62.166" y="69.443" fill="#0B171A" width="1.546" height="1.484"/>
	<rect x="69.68" y="56.642" fill="#0B171A" width="1.546" height="1.484"/>
	<rect x="69.68" y="62.641" fill="#0B171A" width="1.546" height="1.484"/>
	<rect x="69.68" y="69.443" fill="#0B171A" width="1.546" height="1.484"/>
	<rect x="0" y="61.711" fill="#323538" width="44.996" height="27.94"/>
	
		<linearGradient id="SVGID_3_" gradientUnits="userSpaceOnUse" x1="125.844" y1="-142.697" x2="125.844" y2="-147.2949" gradientTransform="matrix(1 0 0 -1 -113.3501 -75.3276)">
		<stop  offset="0.0056" style="stop-color:#516464"/>
		<stop  offset="0.1854" style="stop-color:#5E7171"/>
		<stop  offset="0.3652" style="stop-color:#6F8282"/>
		<stop  offset="0.7247" style="stop-color:#566464"/>
		<stop  offset="1" style="stop-color:#263C3C"/>
	</linearGradient>
	<rect x="2.768" y="67.275" fill="url(#SVGID_3_)" width="19.453" height="5.47"/>
	<polygon fill="#191C19" points="43.251,69.712 33.548,69.667 33.548,77.79 22.221,77.79 22.221,67.275 43.251,67.275 	"/>
	<rect x="0.091" y="66.558" fill="#0B0000" width="43.113" height="0.908"/>
	<rect x="0.091" y="65.793" fill="#5C827A" width="43.113" height="0.859"/>
	
		<linearGradient id="SVGID_4_" gradientUnits="userSpaceOnUse" x1="144.5881" y1="-155.3386" x2="144.5881" y2="-164.0732" gradientTransform="matrix(1 0 0 -1 -113.3501 -75.3276)">
		<stop  offset="0.0056" style="stop-color:#516464"/>
		<stop  offset="0.1854" style="stop-color:#5E7171"/>
		<stop  offset="0.3652" style="stop-color:#6F8282"/>
		<stop  offset="0.7247" style="stop-color:#566464"/>
		<stop  offset="1" style="stop-color:#263C3C"/>
	</linearGradient>
	<rect x="5.91" y="80.604" fill="url(#SVGID_4_)" width="50.656" height="9.043"/>
	
		<linearGradient id="SVGID_5_" gradientUnits="userSpaceOnUse" x1="222.3948" y1="-138.2747" x2="222.5701" y2="-163.1227" gradientTransform="matrix(1 0 0 -1 -113.3501 -75.3276)">
		<stop  offset="0.0056" style="stop-color:#2D2C32"/>
		<stop  offset="0.0858" style="stop-color:#414046"/>
		<stop  offset="0.2003" style="stop-color:#58565B"/>
		<stop  offset="0.3093" style="stop-color:#656369"/>
		<stop  offset="0.4061" style="stop-color:#6A686D"/>
		<stop  offset="0.9944" style="stop-color:#282C32"/>
	</linearGradient>
	<rect x="86.576" y="61.647" fill="url(#SVGID_5_)" width="45.115" height="28.045"/>
	<rect x="93.492" y="61.647" fill="#1E201E" width="18.864" height="28.045"/>
	<rect x="129.581" y="61.713" fill="#101412" width="0.692" height="27.888"/>
	
		<linearGradient id="SVGID_6_" gradientUnits="userSpaceOnUse" x1="149.5569" y1="-83.9182" x2="166.1254" y2="-106.4804" gradientTransform="matrix(1 0 0 -1 -113.3501 -75.3276)">
		<stop  offset="0.0056" style="stop-color:#868089"/>
		<stop  offset="0.1312" style="stop-color:#827B82"/>
		<stop  offset="0.3179" style="stop-color:#766F6D"/>
		<stop  offset="0.3371" style="stop-color:#756D6B"/>
		<stop  offset="0.4246" style="stop-color:#716A68"/>
		<stop  offset="0.6742" style="stop-color:#6C6564"/>
		<stop  offset="0.7842" style="stop-color:#635C5B"/>
		<stop  offset="1" style="stop-color:#544E4E"/>
	</linearGradient>
	<rect x="33.743" y="5.439" fill="url(#SVGID_6_)" width="33.25" height="44.875"/>
	<rect x="42.457" y="9.622" fill="#FFFFFF" width="14.308" height="3.02"/>
	<rect x="41.665" y="16.306" fill="#C2BFB9" width="16.634" height="8.317"/>
	<rect x="55.229" y="20.118" fill="#F4BA1A" width="1.535" height="4.555"/>
	<rect x="55.181" y="23.138" fill="#5D0000" width="1.584" height="0.743"/>
	<rect x="52.26" y="20.167" fill="#352B30" width="2.277" height="4.505"/>
	<rect x="42.507" y="20.019" fill="#FFFFFF" width="3.812" height="4.555"/>
	<rect x="43.249" y="20.91" fill="#352B30" width="2.377" height="2.971"/>
	<rect x="42.457" y="17.791" fill="#171915" width="7.524" height="1.535"/>
	
		<linearGradient id="SVGID_7_" gradientUnits="userSpaceOnUse" x1="228.8157" y1="-101.5652" x2="228.8157" y2="-116.3328" gradientTransform="matrix(1 0 0 -1 -113.3501 -75.3276)">
		<stop  offset="0" style="stop-color:#323438"/>
		<stop  offset="0.1411" style="stop-color:#47494B"/>
		<stop  offset="0.4322" style="stop-color:#7E807B"/>
		<stop  offset="0.4944" style="stop-color:#8B8C86"/>
		<stop  offset="0.6021" style="stop-color:#787A75"/>
		<stop  offset="0.7472" style="stop-color:#585D58"/>
		<stop  offset="0.9944" style="stop-color:#353538"/>
	</linearGradient>
	<rect x="111.375" y="24.75" fill="url(#SVGID_7_)" width="8.182" height="17.53"/>
	
		<linearGradient id="SVGID_8_" gradientUnits="userSpaceOnUse" x1="236.2112" y1="-103.822" x2="236.2112" y2="-113.5779" gradientTransform="matrix(1 0 0 -1 -113.3501 -75.3276)">
		<stop  offset="0.1461" style="stop-color:#383438"/>
		<stop  offset="0.3681" style="stop-color:#6C6F6C"/>
		<stop  offset="0.4944" style="stop-color:#868C86"/>
		<stop  offset="0.5252" style="stop-color:#7E837E"/>
		<stop  offset="0.728" style="stop-color:#4C4B4C"/>
		<stop  offset="0.8258" style="stop-color:#383538"/>
	</linearGradient>
	<rect x="119.557" y="27.512" fill="url(#SVGID_8_)" width="6.609" height="11.581"/>
	
		<linearGradient id="SVGID_9_" gradientUnits="userSpaceOnUse" x1="216.1311" y1="-87.4011" x2="216.6877" y2="-126.2036" gradientTransform="matrix(1 0 0 -1 -113.3501 -75.3276)">
		<stop  offset="0.0056" style="stop-color:#231E2C"/>
		<stop  offset="0.1252" style="stop-color:#37343F"/>
		<stop  offset="0.3729" style="stop-color:#6A6C70"/>
		<stop  offset="0.5056" style="stop-color:#888D8D"/>
		<stop  offset="0.5934" style="stop-color:#767A7A"/>
		<stop  offset="0.7709" style="stop-color:#46494A"/>
		<stop  offset="0.8034" style="stop-color:#3D3F40"/>
		<stop  offset="0.9041" style="stop-color:#2B2D34"/>
		<stop  offset="1" style="stop-color:#1E212C"/>
	</linearGradient>
	<rect x="94.716" y="11.225" fill="url(#SVGID_9_)" width="16.744" height="44.52"/>
	<rect x="107.759" y="11.272" fill="#0B0F0D" width="0.78" height="44.464"/>
	
		<linearGradient id="SVGID_10_" gradientUnits="userSpaceOnUse" x1="184.552" y1="-148.8562" x2="184.552" y2="-162.4103" gradientTransform="matrix(1 0 0 -1 -113.3501 -75.3276)">
		<stop  offset="0.0056" style="stop-color:#35373B"/>
		<stop  offset="0.4888" style="stop-color:#747477"/>
		<stop  offset="1" style="stop-color:#38373B"/>
	</linearGradient>
	<rect x="55.736" y="72.073" fill="url(#SVGID_10_)" width="30.934" height="17.578"/>
	<rect x="58.239" y="75.025" width="24.782" height="2.753"/>
	
		<linearGradient id="SVGID_11_" gradientUnits="userSpaceOnUse" x1="216.6125" y1="-132.2395" x2="216.2659" y2="-163.1552" gradientTransform="matrix(1 0 0 -1 -113.3501 -75.3276)">
		<stop  offset="0" style="stop-color:#2B2C32"/>
		<stop  offset="0.5281" style="stop-color:#626062"/>
		<stop  offset="0.6126" style="stop-color:#585659"/>
		<stop  offset="0.9944" style="stop-color:#2D2C32"/>
	</linearGradient>
	<rect x="94.716" y="55.585" fill="url(#SVGID_11_)" width="16.744" height="33.979"/>
	<rect x="85.709" y="72.075" fill="#1E201E" width="0.854" height="17.617"/>
</g>
</svg>
