<?xml version="1.0" encoding="utf-8"?>
<!-- Generator: Adobe Illustrator 15.0.0, SVG Export Plug-In . SVG Version: 6.00 Build 0)  -->
<!DOCTYPE svg PUBLIC "-//W3C//DTD SVG 1.1 Tiny//EN" "http://www.w3.org/Graphics/SVG/1.1/DTD/svg11-tiny.dtd">
<svg version="1.1" baseProfile="tiny" id="_x32_2_x5F_修改"
	 xmlns="http://www.w3.org/2000/svg" xmlns:xlink="http://www.w3.org/1999/xlink" x="0px" y="0px" width="79.25px"
	 height="104.829px" viewBox="0 0 79.25 104.829" xml:space="preserve">
<g>
	<linearGradient id="SVGID_1_" gradientUnits="userSpaceOnUse" x1="37.0547" y1="80.2207" x2="33.3047" y2="94.2207">
		<stop  offset="0" style="stop-color:#A6B8B0"/>
		<stop  offset="0.0146" style="stop-color:#A5B7AF"/>
		<stop  offset="0.467" style="stop-color:#87998D"/>
		<stop  offset="1" style="stop-color:#637566"/>
	</linearGradient>
	<rect x="10.063" y="71.755" fill="url(#SVGID_1_)" width="49.928" height="32.07"/>
	<rect x="9.434" y="71.881" fill="#041703" width="1.761" height="31.944"/>
	<rect x="59" y="71.881" fill="#5C7059" width="1.98" height="31.944"/>
	<rect x="6.038" y="102.441" fill="#304138" width="58.103" height="2.388"/>
	<polygon fill="#E6E6E6" points="63.62,104.335 63.233,104.335 63.218,103.193 6.561,103.193 6.561,102.832 63.62,102.832 	"/>
	<rect x="34.778" y="83.567" fill="#131F1E" width="3.428" height="13.251"/>
	<rect x="33.911" y="83.152" fill="#3D4735" width="3.521" height="12.828"/>
	<g>
		<polygon points="52.604,87.93 51.703,87.926 51.717,87.025 50.83,87.025 50.83,87.892 49.997,87.892 49.997,88.77 52.604,88.77 		
			"/>
		<polygon points="52.604,96.586 51.703,96.582 51.717,95.682 50.83,95.682 50.83,96.548 49.997,96.548 49.997,97.426 
			52.604,97.426 		"/>
	</g>
	<path fill="#585C58" d="M10.492,71.461L9.45,73.527v2.262c0,0,9.735,10.685,24.953,10.971c15.814,0.297,23.05-6.534,26.583-9.784
		v-3.395L10.492,71.461z"/>
	<radialGradient id="SVGID_2_" cx="33.792" cy="48.2256" r="33.893" gradientUnits="userSpaceOnUse">
		<stop  offset="0" style="stop-color:#D6EBDE"/>
		<stop  offset="1" style="stop-color:#AEBFA7"/>
	</radialGradient>
	<path fill="url(#SVGID_2_)" d="M71.75,49.75c0,19.814-16.061,35.875-35.875,35.875S0,69.564,0,49.75s16.061-35.875,35.875-35.875
		L34.625,2.5L74.5,2.125l-2.5,9.75L71.75,49.75z"/>
	<polygon fill="#779296" points="73.812,4.777 34.874,4.777 34.39,0.902 74.858,0.902 	"/>
	<g>
		<polygon fill="#66875C" points="39.02,9.333 36.482,9.333 36.267,6.548 39.142,6.548 		"/>
		<polygon fill="#66875C" points="70.778,10.038 68.492,10.038 68.563,7.253 71.438,7.253 		"/>
		<rect x="68.641" y="19.803" fill="#66875C" width="1.5" height="3"/>
		<rect x="68.516" y="34.397" fill="#66875C" width="1.75" height="2"/>
		<rect x="68.391" y="51.269" fill="#66875C" width="2" height="1.625"/>
		
			<rect x="62.162" y="68.427" transform="matrix(0.7935 0.6085 -0.6085 0.7935 55.2742 -24.233)" fill="#66875C" width="2.375" height="1.828"/>
		
			<rect x="46.628" y="80.221" transform="matrix(0.4699 0.8827 -0.8827 0.4699 96.9641 0.8)" fill="#66875C" width="2.375" height="1.828"/>
		
			<rect x="6.933" y="68.139" transform="matrix(-0.7935 0.6085 -0.6085 -0.7935 56.5844 118.9073)" fill="#66875C" width="2.375" height="1.828"/>
		
			<rect x="23.041" y="79.933" transform="matrix(-0.4699 0.8827 -0.8827 -0.4699 106.9787 97.4516)" fill="#66875C" width="2.375" height="1.828"/>
		
			<rect x="29.387" y="15.462" transform="matrix(0.988 -0.1546 0.1546 0.988 -2.1888 4.8775)" fill="#66875C" width="1.75" height="2.097"/>
		
			<rect x="16.24" y="20.427" transform="matrix(0.8502 -0.5264 0.5264 0.8502 -8.656 12.2671)" fill="#66875C" width="1.981" height="1.838"/>
		
			<rect x="4.252" y="34.478" transform="matrix(0.4682 -0.8836 0.8836 0.4682 -28.4897 23.4573)" fill="#66875C" width="1.982" height="1.838"/>
		<rect x="1.43" y="52.132" fill="#66875C" width="1.875" height="1.625"/>
	</g>
	<linearGradient id="SVGID_3_" gradientUnits="userSpaceOnUse" x1="48.9336" y1="5.8877" x2="52.6007" y2="20.222">
		<stop  offset="0" style="stop-color:#E6E6F0"/>
		<stop  offset="0.4945" style="stop-color:#D6D6CC"/>
		<stop  offset="1" style="stop-color:#C8C8AA"/>
	</linearGradient>
	<rect x="41.25" y="6.042" fill="url(#SVGID_3_)" width="25.125" height="37.833"/>
	<g>
		<path fill="#FFFFFF" d="M14.298,72.449C8.41,66.756,4.75,58.774,4.75,49.938c0-17.293,14.02-31.313,31.313-31.313
			c8.645,0,16.471,3.503,22.137,9.167L14.298,72.449z"/>
		<path fill="#6D6366" d="M14.298,72.199C19.933,77.647,27.606,81,36.063,81c17.293,0,31.313-14.02,31.313-31.313
			c0-8.648-3.507-16.479-9.176-22.146L31.5,43.875L14.298,72.199z"/>
	</g>
	<radialGradient id="SVGID_4_" cx="35.5713" cy="48.4365" r="32.2161" gradientUnits="userSpaceOnUse">
		<stop  offset="0" style="stop-color:#E6E6F0"/>
		<stop  offset="0.4945" style="stop-color:#D6D6CC"/>
		<stop  offset="1" style="stop-color:#C8C8AA"/>
	</radialGradient>
	<circle fill="url(#SVGID_4_)" cx="36.188" cy="49.813" r="30.063"/>
	<g>
		
			<rect x="14.202" y="30.489" transform="matrix(0.7173 0.6967 -0.6967 0.7173 28.0969 -3.776)" fill="#3D4735" width="9" height="4.501"/>
		
			<rect x="18.93" y="35.089" transform="matrix(0.7173 0.6967 -0.6967 0.7173 32.6378 -5.7697)" fill="#142800" width="9" height="4.501"/>
		
			<rect x="49.259" y="64.545" transform="matrix(0.7173 0.6968 -0.6968 0.7173 61.7403 -18.5747)" fill="#3D4735" width="9.001" height="4.5"/>
		
			<rect x="44.851" y="60.202" transform="matrix(0.7173 0.6968 -0.6968 0.7173 57.4674 -16.7312)" fill="#142800" width="9.001" height="4.5"/>
		
			<rect x="50.913" y="27.384" transform="matrix(0.7171 0.6969 -0.6969 0.7171 37.2649 -27.6747)" fill="#3D4735" width="3.625" height="9.374"/>
		
			<rect x="46.377" y="32.111" transform="matrix(0.7171 0.6969 -0.6969 0.7171 39.2766 -23.176)" fill="#142800" width="3.625" height="9.374"/>
		
			<rect x="16.62" y="63.094" transform="matrix(0.7172 0.6969 -0.6969 0.7172 52.0735 6.1212)" fill="#3D4735" width="3.75" height="8.249"/>
		
			<rect x="21.085" y="58.493" transform="matrix(0.7172 0.6969 -0.6969 0.7172 50.1302 1.7086)" fill="#142800" width="3.75" height="8.249"/>
	</g>
	<radialGradient id="SVGID_5_" cx="36.9385" cy="50.9551" r="19.2333" gradientUnits="userSpaceOnUse">
		<stop  offset="0" style="stop-color:#A8BAB0"/>
		<stop  offset="0.1942" style="stop-color:#A2B4A9"/>
		<stop  offset="0.4694" style="stop-color:#90A397"/>
		<stop  offset="0.7913" style="stop-color:#738879"/>
		<stop  offset="1" style="stop-color:#5C7361"/>
	</radialGradient>
	<circle fill="url(#SVGID_5_)" cx="36.188" cy="49.813" r="21.688"/>
	<radialGradient id="SVGID_6_" cx="36.1875" cy="49.8125" r="14" gradientUnits="userSpaceOnUse">
		<stop  offset="0" style="stop-color:#4C5F4E"/>
		<stop  offset="1" style="stop-color:#1C2B1A"/>
	</radialGradient>
	<circle fill="url(#SVGID_6_)" cx="36.188" cy="49.813" r="14"/>
	<g>
		
			<rect x="36.875" y="37.875" transform="matrix(0.97 0.243 -0.243 0.97 11.6816 -7.9351)" fill="#7C8280" width="2.25" height="11"/>
		
			<rect x="33.625" y="50.625" transform="matrix(0.9804 0.197 -0.197 0.9804 11.7398 -5.7467)" fill="#7C8280" width="2.25" height="11"/>
		
			<rect x="41.875" y="42.999" transform="matrix(0.2152 0.9766 -0.9766 0.2152 81.1104 -3.9295)" fill="#7C8280" width="2.251" height="11"/>
		
			<rect x="28.125" y="46.624" transform="matrix(0.2152 0.9766 -0.9766 0.2152 73.8593 12.3434)" fill="#7C8280" width="2.251" height="11"/>
		
			<rect x="39.624" y="49.749" transform="matrix(-0.7204 0.6935 -0.6935 -0.7204 108.4247 66.7911)" fill="#7C8280" width="2.252" height="11"/>
		
			<rect x="29.502" y="39.69" transform="matrix(-0.7204 0.6935 -0.6935 -0.7204 84.0338 56.5044)" fill="#7C8280" width="2.252" height="11"/>
	</g>
	<radialGradient id="SVGID_7_" cx="36.1875" cy="49.8125" r="3.375" gradientUnits="userSpaceOnUse">
		<stop  offset="0" style="stop-color:#4C5F4E"/>
		<stop  offset="1" style="stop-color:#1C2B1A"/>
	</radialGradient>
	<circle fill="url(#SVGID_7_)" cx="36.188" cy="49.813" r="3.375"/>
	<linearGradient id="SVGID_8_" gradientUnits="userSpaceOnUse" x1="73.8809" y1="2.0029" x2="33.1306" y2="1.8691">
		<stop  offset="0" style="stop-color:#284044"/>
		<stop  offset="0.5" style="stop-color:#85B0A1"/>
		<stop  offset="1" style="stop-color:#284044"/>
	</linearGradient>
	<rect x="28.75" fill="url(#SVGID_8_)" width="50.5" height="3.875"/>
	<circle cx="12.84" cy="100.877" r="0.609"/>
	<g>
		<circle cx="16.293" cy="48.103" r="0.609"/>
		<circle cx="36.551" cy="70.151" r="0.609"/>
		<circle cx="56.517" cy="49.445" r="0.609"/>
		<circle cx="37.161" cy="29.787" r="0.609"/>
	</g>
	<circle cx="64.728" cy="7.724" r="0.609"/>
	<circle cx="43.147" cy="7.724" r="0.609"/>
	<circle cx="57.287" cy="100.877" r="0.609"/>
</g>
</svg>
