<?xml version="1.0" encoding="utf-8"?>
<!-- Generator: Adobe Illustrator 15.0.0, SVG Export Plug-In . SVG Version: 6.00 Build 0)  -->
<!DOCTYPE svg PUBLIC "-//W3C//DTD SVG 1.1 Tiny//EN" "http://www.w3.org/Graphics/SVG/1.1/DTD/svg11-tiny.dtd">
<svg version="1.1" baseProfile="tiny" id="_x32_4" xmlns="http://www.w3.org/2000/svg" xmlns:xlink="http://www.w3.org/1999/xlink"
	 x="0px" y="0px" width="97.595px" height="97.229px" viewBox="0 0 97.595 97.229" xml:space="preserve">
<g>
	<rect x="10.428" y="79.225" fill="#F8B94E" width="7.958" height="2.502"/>
	<rect x="10.428" y="80.696" fill="#9B5E0A" width="7.958" height="1.562"/>
	<path fill="#FFFFFF" stroke="#3C3C3C" stroke-width="1.2" d="M77.853,9.333c0,4.167-1.229,6.352-2.745,6.352
		c-1.517,0-2.118-2.748-2.118-6.915c0-4.166,0.602-8.17,2.118-8.17C76.623,0.6,77.853,5.167,77.853,9.333z"/>
	<linearGradient id="SVGID_1_" gradientUnits="userSpaceOnUse" x1="12.0967" y1="41.2656" x2="12.0967" y2="63.1148">
		<stop  offset="0" style="stop-color:#626262"/>
		<stop  offset="0.3588" style="stop-color:#404040"/>
		<stop  offset="0.5618" style="stop-color:#323232"/>
		<stop  offset="0.7973" style="stop-color:#1F1F1F"/>
		<stop  offset="1" style="stop-color:#141414"/>
	</linearGradient>
	<rect x="3.957" y="39.793" fill="url(#SVGID_1_)" width="16.279" height="25.796"/>
	<linearGradient id="SVGID_2_" gradientUnits="userSpaceOnUse" x1="30.1973" y1="10.4619" x2="67.4489" y2="86.0384">
		<stop  offset="0" style="stop-color:#626262"/>
		<stop  offset="0.3588" style="stop-color:#404040"/>
		<stop  offset="0.5618" style="stop-color:#323232"/>
		<stop  offset="0.7973" style="stop-color:#1F1F1F"/>
		<stop  offset="1" style="stop-color:#141414"/>
	</linearGradient>
	<path fill="url(#SVGID_2_)" d="M16.021,11.783c0,0,3.104-6.381,13.622-8.967s39.831-6.208,51.211,8.276v73.8
		c0,0-1.746,5.518-5,5.518c-3.794,0-54.833,0.518-54.833,0.518s-4.138-4.14-5-7.415V11.783z"/>
	<polygon fill="#040303" points="15.079,95.69 10.301,96.46 10.301,88.085 15.079,89.336 	"/>
	<polygon fill="#040303" points="83.044,95.662 87.998,96.46 87.998,87.776 83.044,89.073 	"/>
	<rect y="87.229" fill="#323232" width="11.897" height="10.001"/>
	<rect x="85.697" y="87.229" fill="#323232" width="11.897" height="10.001"/>
	<linearGradient id="SVGID_3_" gradientUnits="userSpaceOnUse" x1="48.8525" y1="88.8652" x2="49.3475" y2="95.5465">
		<stop  offset="0.2079" style="stop-color:#948F8B"/>
		<stop  offset="0.573" style="stop-color:#AAA39E"/>
		<stop  offset="0.9438" style="stop-color:#B8B1AB"/>
	</linearGradient>
	<rect x="14.456" y="89.115" fill="url(#SVGID_3_)" width="69.338" height="6.841"/>
	<rect x="31.131" y="43.049" fill="#969696" width="22.665" height="8.265"/>
	<rect x="32.133" y="44.677" fill="#FFFFFF" width="20.536" height="5.009"/>
	<rect x="30.254" y="60.705" fill="#FFFFFF" width="24.419" height="15.152"/>
	<rect x="30.95" y="76.858" fill="#646464" width="23.545" height="2.371"/>
	<rect x="31.23" y="62.603" fill="#C2BFB9" width="23.459" height="13.277"/>
	<rect x="31.23" y="61.644" fill="#C59700" width="23.459" height="1.696"/>
	<rect x="36.025" y="61.717" fill="#040303" width="12.835" height="0.737"/>
	<rect x="32.189" y="64.742" fill="#505050" width="20.604" height="9.663"/>
	<rect x="30.254" y="76.858" fill="#FFFFFF" width="1.035" height="3.256"/>
	<polyline fill="#C2BFB9" points="57.68,3.555 62.632,8.938 62.523,69.438 60.371,71.161 60.155,9.153 57.464,3.447 	"/>
	<circle fill="#43393D" cx="31.52" cy="17.336" r="4.522"/>
	<linearGradient id="SVGID_4_" gradientUnits="userSpaceOnUse" x1="38.1582" y1="13.752" x2="38.4082" y2="21.7523">
		<stop  offset="0.1461" style="stop-color:#8E5009"/>
		<stop  offset="0.2477" style="stop-color:#8E5009"/>
		<stop  offset="0.8652" style="stop-color:#8E5009"/>
	</linearGradient>
	<path fill="url(#SVGID_4_)" d="M34.937,21.823c-0.572,0.396,1.332,0.465,2.074,0.465c2.675,0,4.845-2.169,4.845-4.844
		c0-2.678-2.17-4.847-4.845-4.847c-0.711,0-1.386,0.153-1.994,0.429c0,0,1.133,0.647,1.778,2.263S36.846,20.499,34.937,21.823z"/>
	<linearGradient id="SVGID_5_" gradientUnits="userSpaceOnUse" x1="38.748" y1="14.2393" x2="38.9711" y2="21.3761">
		<stop  offset="0.3427" style="stop-color:#B27721"/>
		<stop  offset="0.3488" style="stop-color:#B87F26"/>
		<stop  offset="0.3665" style="stop-color:#C59030"/>
		<stop  offset="0.3886" style="stop-color:#CE9B38"/>
		<stop  offset="0.4196" style="stop-color:#D4A23C"/>
		<stop  offset="0.5056" style="stop-color:#D5A43D"/>
		<stop  offset="0.5887" style="stop-color:#D3A23C"/>
		<stop  offset="0.6207" style="stop-color:#CE9B37"/>
		<stop  offset="0.6439" style="stop-color:#C58F30"/>
		<stop  offset="0.6627" style="stop-color:#B77E25"/>
		<stop  offset="0.6685" style="stop-color:#B27721"/>
	</linearGradient>
	<path fill="url(#SVGID_5_)" d="M40.69,20.563c0,0,1.178-1.189,1.165-3.15c-0.01-1.508-0.764-2.612-0.764-2.612l-4.432,0.148
		c0,0,0.102,0.198,0.135,0.309c0.908,3.022-0.854,5.478-0.854,5.478L40.69,20.563z"/>
	<circle fill="#060506" cx="31.412" cy="17.336" r="0.969"/>
</g>
</svg>
