<?xml version="1.0" encoding="utf-8"?>
<!-- Generator: Adobe Illustrator 15.0.0, SVG Export Plug-In . SVG Version: 6.00 Build 0)  -->
<!DOCTYPE svg PUBLIC "-//W3C//DTD SVG 1.1 Tiny//EN" "http://www.w3.org/Graphics/SVG/1.1/DTD/svg11-tiny.dtd">
<svg version="1.1" baseProfile="tiny" id="_x31_9" xmlns="http://www.w3.org/2000/svg" xmlns:xlink="http://www.w3.org/1999/xlink"
	 x="0px" y="0px" width="92.225px" height="91.284px" viewBox="0 0 92.225 91.284" xml:space="preserve">
<g>
	<linearGradient id="SVGID_1_" gradientUnits="userSpaceOnUse" x1="66.9756" y1="6.8916" x2="72.7543" y2="18.9744">
		<stop  offset="0" style="stop-color:#7C7878"/>
		<stop  offset="0.3483" style="stop-color:#6C6C6C"/>
		<stop  offset="0.4753" style="stop-color:#636161"/>
		<stop  offset="0.618" style="stop-color:#5E5A5A"/>
		<stop  offset="0.8764" style="stop-color:#4F4B4B"/>
	</linearGradient>
	<rect x="68.135" y="5.61" fill="url(#SVGID_1_)" width="8.518" height="25.221"/>
	<rect x="40.955" y="16.485" fill="#323232" width="24.617" height="2.31"/>
	<path fill="#FFFFFF" stroke="#4B4B4B" stroke-width="0.5" d="M59.632,1.934c0-1.075-0.635-1.684-1.419-1.684
		s-1.419,0.608-1.419,1.684l0.066,1.18l2.81-0.289L59.632,1.934z"/>
	<linearGradient id="SVGID_2_" gradientUnits="userSpaceOnUse" x1="53.7441" y1="2.8047" x2="53.7441" y2="16.5796">
		<stop  offset="0.0449" style="stop-color:#A39E99"/>
		<stop  offset="0.0796" style="stop-color:#B3AFAB"/>
		<stop  offset="0.1508" style="stop-color:#CECCC9"/>
		<stop  offset="0.2258" style="stop-color:#E4E2E1"/>
		<stop  offset="0.3052" style="stop-color:#F3F2F2"/>
		<stop  offset="0.3919" style="stop-color:#FCFCFC"/>
		<stop  offset="0.5" style="stop-color:#FFFFFF"/>
		<stop  offset="0.5232" style="stop-color:#F9F8F8"/>
		<stop  offset="0.6698" style="stop-color:#D4D1CF"/>
		<stop  offset="0.8032" style="stop-color:#B9B5B1"/>
		<stop  offset="0.9177" style="stop-color:#A9A49F"/>
		<stop  offset="1" style="stop-color:#A39E99"/>
	</linearGradient>
	<rect x="40.413" y="2.56" fill="url(#SVGID_2_)" width="26.663" height="14.586"/>
	<rect x="50" y="3.274" fill="#323232" width="15.499" height="9.442"/>
	<g>
		<rect x="49.996" y="10.611" fill="#666666" width="15.509" height="0.66"/>
		<rect x="49.996" y="9.094" fill="#666666" width="15.509" height="0.66"/>
		<rect x="49.996" y="7.642" fill="#666666" width="15.509" height="0.66"/>
		<rect x="49.996" y="6.189" fill="#666666" width="15.509" height="0.66"/>
		<rect x="49.996" y="4.672" fill="#666666" width="15.509" height="0.66"/>
	</g>
	<g>
		<rect x="53.692" y="8.368" fill="#232632" width="8.184" height="7.457"/>
		<rect x="53.494" y="7.51" fill="#A7B1B8" width="7.656" height="7.59"/>
		<rect x="54.418" y="8.368" fill="#636D79" width="6.731" height="6.731"/>
	</g>
	<rect x="40.807" y="21.84" fill="#040303" width="26.5" height="1.42"/>
	<rect x="40.756" y="18.531" fill="#5A5A5A" width="25.409" height="1.452"/>
	<rect x="39.505" y="18.409" fill="#787878" width="2.011" height="8.399"/>
	<rect x="66.123" y="18.292" fill="#787878" width="2.366" height="10.883"/>
	<linearGradient id="SVGID_3_" gradientUnits="userSpaceOnUse" x1="45.9829" y1="32.3125" x2="46.2456" y2="84.588">
		<stop  offset="0" style="stop-color:#8C8C8C"/>
		<stop  offset="0.1493" style="stop-color:#AEAEAE"/>
		<stop  offset="0.3837" style="stop-color:#DFDFDF"/>
		<stop  offset="0.5" style="stop-color:#F2F2F2"/>
		<stop  offset="0.586" style="stop-color:#E8E8E8"/>
		<stop  offset="0.7334" style="stop-color:#CCCCCC"/>
		<stop  offset="0.9233" style="stop-color:#A0A0A0"/>
		<stop  offset="1" style="stop-color:#8C8C8C"/>
	</linearGradient>
	<rect y="28.772" fill="url(#SVGID_3_)" width="92.225" height="58.56"/>
	<rect x="2.527" y="28.727" fill="#737373" width="2.691" height="58.625"/>
	<rect x="87.018" y="28.727" fill="#737373" width="2.588" height="58.625"/>
	<linearGradient id="SVGID_4_" gradientUnits="userSpaceOnUse" x1="89.1831" y1="27.6494" x2="88.8495" y2="88.3192">
		<stop  offset="0" style="stop-color:#787878"/>
		<stop  offset="0.0801" style="stop-color:#7E7E7E"/>
		<stop  offset="0.1849" style="stop-color:#8E8E8E"/>
		<stop  offset="0.3035" style="stop-color:#A9A9A9"/>
		<stop  offset="0.4312" style="stop-color:#CFCFCF"/>
		<stop  offset="0.5" style="stop-color:#E6E6E6"/>
		<stop  offset="0.5688" style="stop-color:#CFCFCF"/>
		<stop  offset="0.6965" style="stop-color:#A9A9A9"/>
		<stop  offset="0.8151" style="stop-color:#8E8E8E"/>
		<stop  offset="0.9199" style="stop-color:#7E7E7E"/>
		<stop  offset="1" style="stop-color:#787878"/>
	</linearGradient>
	<rect x="87.773" y="25.271" fill="url(#SVGID_4_)" width="2.484" height="66.013"/>
	<g>
		<rect x="8.038" y="33.989" fill="#323232" width="2.475" height="4.109"/>
		<rect x="8.038" y="37.051" fill="#5A5A5A" width="3.355" height="4.109"/>
	</g>
	<g>
		<polygon fill="#323232" points="84.149,36.141 83.405,36.136 83.405,34.035 81.59,34.035 81.59,37.382 84.153,37.382 		"/>
		<rect x="80.878" y="37.132" fill="#5A5A5A" width="3.239" height="3.881"/>
	</g>
	<g>
		<rect x="8.038" y="76.552" fill="#323232" width="2.475" height="4.109"/>
		<rect x="8.038" y="73.49" fill="#5A5A5A" width="3.355" height="4.109"/>
	</g>
	<g>
		<polygon fill="#323232" points="84.149,78.51 83.405,78.515 83.405,80.615 81.59,80.615 81.59,77.269 84.153,77.269 		"/>
		<rect x="80.878" y="73.638" fill="#5A5A5A" width="3.239" height="3.881"/>
	</g>
	<linearGradient id="SVGID_5_" gradientUnits="userSpaceOnUse" x1="3.417" y1="27.1738" x2="3.0834" y2="87.8436">
		<stop  offset="0" style="stop-color:#787878"/>
		<stop  offset="0.0801" style="stop-color:#7E7E7E"/>
		<stop  offset="0.1849" style="stop-color:#8E8E8E"/>
		<stop  offset="0.3035" style="stop-color:#A9A9A9"/>
		<stop  offset="0.4312" style="stop-color:#CFCFCF"/>
		<stop  offset="0.5" style="stop-color:#E6E6E6"/>
		<stop  offset="0.5688" style="stop-color:#CFCFCF"/>
		<stop  offset="0.6965" style="stop-color:#A9A9A9"/>
		<stop  offset="0.8151" style="stop-color:#8E8E8E"/>
		<stop  offset="0.9199" style="stop-color:#7E7E7E"/>
		<stop  offset="1" style="stop-color:#787878"/>
	</linearGradient>
	<rect x="2.003" y="25.271" fill="url(#SVGID_5_)" width="2.484" height="66.013"/>
	<rect x="37.967" y="25.862" fill="#323232" width="31.113" height="6.861"/>
</g>
</svg>
