<?xml version="1.0" encoding="utf-8"?>
<!-- Generator: Adobe Illustrator 15.0.0, SVG Export Plug-In . SVG Version: 6.00 Build 0)  -->
<!DOCTYPE svg PUBLIC "-//W3C//DTD SVG 1.1 Tiny//EN" "http://www.w3.org/Graphics/SVG/1.1/DTD/svg11-tiny.dtd">
<svg version="1.1" baseProfile="tiny" id="_x33_3" xmlns="http://www.w3.org/2000/svg" xmlns:xlink="http://www.w3.org/1999/xlink"
	 x="0px" y="0px" width="99.724px" height="91.181px" viewBox="0 0 99.724 91.181" xml:space="preserve">
<g>
	<linearGradient id="SVGID_1_" gradientUnits="userSpaceOnUse" x1="35.936" y1="1.4678" x2="35.936" y2="16.6361">
		<stop  offset="0.0056" style="stop-color:#284044"/>
		<stop  offset="0.1624" style="stop-color:#426062"/>
		<stop  offset="0.5047" style="stop-color:#83B0AF"/>
		<stop  offset="0.5169" style="stop-color:#85B3B2"/>
		<stop  offset="0.6816" style="stop-color:#648B8B"/>
		<stop  offset="1" style="stop-color:#284044"/>
	</linearGradient>
	<rect x="20.97" y="0.968" fill="url(#SVGID_1_)" width="29.932" height="16.935"/>
	<rect x="47.059" y="0.89" fill="#323232" width="1.372" height="16.814"/>
	<linearGradient id="SVGID_2_" gradientUnits="userSpaceOnUse" x1="49.8574" y1="40.1484" x2="49.8574" y2="85.9816">
		<stop  offset="0.0225" style="stop-color:#284044"/>
		<stop  offset="0.2951" style="stop-color:#547677"/>
		<stop  offset="0.5169" style="stop-color:#7BA5A4"/>
		<stop  offset="0.6242" style="stop-color:#6B9292"/>
		<stop  offset="0.8409" style="stop-color:#436163"/>
		<stop  offset="0.9719" style="stop-color:#284044"/>
	</linearGradient>
	<rect x="1.411" y="37.205" fill="url(#SVGID_2_)" width="96.893" height="51.918"/>
	<g>
		<rect x="96.54" y="37.24" fill="#464646" width="1.615" height="51.904"/>
		<rect x="79.52" y="37.24" fill="#464646" width="1.816" height="51.904"/>
		<rect x="1.669" y="37.24" fill="#464646" width="1.773" height="51.904"/>
	</g>
	<linearGradient id="SVGID_3_" gradientUnits="userSpaceOnUse" x1="79.2046" y1="36.9531" x2="79.3618" y2="85.2889">
		<stop  offset="0.0225" style="stop-color:#284044"/>
		<stop  offset="0.5169" style="stop-color:#7BA5A4"/>
		<stop  offset="0.9719" style="stop-color:#284044"/>
	</linearGradient>
	<rect x="77.946" y="34.049" fill="url(#SVGID_3_)" width="2.684" height="57.126"/>
	<linearGradient id="SVGID_4_" gradientUnits="userSpaceOnUse" x1="1.4063" y1="37.2041" x2="1.5635" y2="85.5399">
		<stop  offset="0.0225" style="stop-color:#284044"/>
		<stop  offset="0.5169" style="stop-color:#7BA5A4"/>
		<stop  offset="0.9719" style="stop-color:#284044"/>
	</linearGradient>
	<rect x="0.148" y="34.049" fill="url(#SVGID_4_)" width="2.683" height="57.126"/>
	<rect x="20.09" y="12.061" fill="#040303" width="1.584" height="28.435"/>
	<linearGradient id="SVGID_5_" gradientUnits="userSpaceOnUse" x1="50.8823" y1="0.4932" x2="50.8387" y2="15.6636">
		<stop  offset="0.0056" style="stop-color:#284044"/>
		<stop  offset="0.1624" style="stop-color:#426062"/>
		<stop  offset="0.5047" style="stop-color:#83B0AF"/>
		<stop  offset="0.5169" style="stop-color:#85B3B2"/>
		<stop  offset="0.6816" style="stop-color:#648B8B"/>
		<stop  offset="1" style="stop-color:#284044"/>
	</linearGradient>
	<rect x="47.292" fill="url(#SVGID_5_)" width="7.131" height="17.704"/>
	<rect x="20.97" y="17.343" fill="#040303" width="33.453" height="2.112"/>
	<polygon fill="#040303" points="24.691,30.961 25.548,30.961 25.548,32.22 22.463,32.22 22.463,30.868 23.193,30.868 
		23.193,20.247 24.691,20.247 	"/>
	<polygon fill="#265623" points="52.968,30.961 53.825,30.961 53.825,32.22 50.741,32.22 50.741,30.868 51.47,30.868 51.47,20.247 
		52.968,20.247 	"/>
	<rect x="50.92" y="16.462" fill="#265623" width="2.729" height="4.49"/>
	<rect x="22.643" y="16.462" fill="#265623" width="2.729" height="4.49"/>
	<rect x="50.955" y="18.087" fill="#040303" width="2.716" height="1.357"/>
	<rect x="22.631" y="18.087" fill="#040303" width="2.763" height="1.357"/>
	<linearGradient id="SVGID_6_" gradientUnits="userSpaceOnUse" x1="98.2979" y1="36.8906" x2="98.4551" y2="85.2256">
		<stop  offset="0.0225" style="stop-color:#284044"/>
		<stop  offset="0.5169" style="stop-color:#7BA5A4"/>
		<stop  offset="0.9719" style="stop-color:#284044"/>
	</linearGradient>
	<rect x="97.04" y="34.049" fill="url(#SVGID_6_)" width="2.684" height="57.126"/>
	<linearGradient id="SVGID_7_" gradientUnits="userSpaceOnUse" x1="35.5688" y1="30.6816" x2="39.0368" y2="47.7735">
		<stop  offset="0.1573" style="stop-color:#7BA5A4"/>
		<stop  offset="0.52" style="stop-color:#5E8882"/>
		<stop  offset="0.7247" style="stop-color:#537C75"/>
	</linearGradient>
	<polyline fill="url(#SVGID_7_)" points="21.136,51.307 21.136,31.896 54.433,31.896 54.433,51.307 	"/>
	<polygon fill="#040303" points="3.03,38.454 2.296,38.454 2.28,34.688 0.78,34.688 0.764,36.204 0.03,36.204 0.03,33.938 
		3.03,33.938 	"/>
	<polygon fill="#040303" points="3,86.665 2.25,86.665 2.25,90.431 0.734,90.431 0.734,88.915 0,88.915 0,91.181 3,91.181 	"/>
</g>
</svg>
