<?xml version="1.0" encoding="utf-8"?>
<!-- Generator: Adobe Illustrator 15.0.0, SVG Export Plug-In . SVG Version: 6.00 Build 0)  -->
<!DOCTYPE svg PUBLIC "-//W3C//DTD SVG 1.1 Tiny//EN" "http://www.w3.org/Graphics/SVG/1.1/DTD/svg11-tiny.dtd">
<svg version="1.1" baseProfile="tiny" id="_x37_" xmlns="http://www.w3.org/2000/svg" xmlns:xlink="http://www.w3.org/1999/xlink"
	 x="0px" y="0px" width="113.04px" height="90.433px" viewBox="0 0 113.04 90.433" xml:space="preserve">
<g>
	<path fill="#464646" d="M90.433,45.216c0,24.973-20.244,45.217-45.217,45.217C20.244,90.433,0,70.188,0,45.216
		C0,20.244,20.244,0,45.216,0h67.824v40.496H90.432L90.433,45.216z"/>
	<circle fill="#5A5A5A" cx="45.093" cy="45.093" r="42.608"/>
	<path fill="#464646" d="M66.465,73.382c8.523-6.44,14.031-16.66,14.031-28.165c0-19.483-15.795-35.278-35.279-35.278
		c-8.34,0-16.005,2.895-22.044,7.735L66.465,73.382z"/>
	<path fill="#969696" d="M24.098,16.895C16.03,23.36,9.69,33.827,9.69,44.969c0,19.484,15.796,35.279,35.278,35.279
		c7.979,0,15.338-2.648,21.249-7.114L24.098,16.895z"/>
	<radialGradient id="SVGID_1_" cx="45.2173" cy="45.2173" r="29.5675" gradientUnits="userSpaceOnUse">
		<stop  offset="0" style="stop-color:#656462"/>
		<stop  offset="0.2244" style="stop-color:#7B7B79"/>
		<stop  offset="0.4944" style="stop-color:#9B9B9A"/>
		<stop  offset="1" style="stop-color:#D2D2D2"/>
	</radialGradient>
	<circle fill="url(#SVGID_1_)" cx="45.217" cy="45.217" r="32.794"/>
</g>
</svg>
