<?xml version="1.0" encoding="utf-8"?>
<!-- Generator: Adobe Illustrator 15.0.0, SVG Export Plug-In . SVG Version: 6.00 Build 0)  -->
<!DOCTYPE svg PUBLIC "-//W3C//DTD SVG 1.1 Tiny//EN" "http://www.w3.org/Graphics/SVG/1.1/DTD/svg11-tiny.dtd">
<svg version="1.1" baseProfile="tiny" id="_x33_2_x5F_修改"
	 xmlns="http://www.w3.org/2000/svg" xmlns:xlink="http://www.w3.org/1999/xlink" x="0px" y="0px" width="159.714px"
	 height="86.699px" viewBox="0 0 159.714 86.699" xml:space="preserve">
<g>
	<linearGradient id="SVGID_1_" gradientUnits="userSpaceOnUse" x1="64.707" y1="27.9063" x2="64.707" y2="38.2393">
		<stop  offset="0.0056" style="stop-color:#231E2C"/>
		<stop  offset="0.2344" style="stop-color:#5D5D64"/>
		<stop  offset="0.4143" style="stop-color:#85888A"/>
		<stop  offset="0.5056" style="stop-color:#949999"/>
		<stop  offset="0.6061" style="stop-color:#818688"/>
		<stop  offset="0.8088" style="stop-color:#51555B"/>
		<stop  offset="1" style="stop-color:#1E212C"/>
	</linearGradient>
	<rect x="61.682" y="26.489" fill="url(#SVGID_1_)" width="6.05" height="12.986"/>
	<polygon fill="#748881" points="133.398,34.606 124.987,49.511 66.107,49.511 66.107,22.211 82.192,22.211 82.34,27.671 
		91.637,27.523 91.785,23.687 133.398,23.687 	"/>
	<g>
		<rect x="70.196" y="25.913" fill="#040303" width="8.763" height="6.923"/>
		<polygon fill="#FFFFFF" points="70.606,32.01 78.157,26.801 78.157,25.903 69.845,25.903 69.845,32.836 70.606,32.836 		"/>
		<rect x="70.606" y="26.801" fill="#B1BFAE" width="7.551" height="5.209"/>
	</g>
	<g>
		<polygon fill="#FFFFFF" points="125.966,27.896 125.966,27.019 119.101,27.019 119.101,30.793 119.849,30.793 119.881,27.896 		
			"/>
		<polygon fill="#040303" points="126.617,27.019 125.836,27.019 125.803,30.077 120.597,30.109 120.597,30.793 126.617,30.793 		
			"/>
	</g>
	<rect x="150.074" y="17.932" width="3.984" height="38.662"/>
	<g>
		<rect x="156.964" y="4.739" fill="#83907E" width="2.75" height="5"/>
		<rect x="156.964" y="16.614" fill="#83907E" width="2.75" height="5"/>
		<rect x="156.964" y="28.614" fill="#83907E" width="2.75" height="5"/>
		<rect x="156.964" y="41.489" fill="#83907E" width="2.75" height="5"/>
		<rect x="156.964" y="53.364" fill="#83907E" width="2.75" height="5"/>
		<rect x="156.964" y="66.239" fill="#83907E" width="2.75" height="5"/>
	</g>
	<linearGradient id="SVGID_2_" gradientUnits="userSpaceOnUse" x1="155.3247" y1="1.5742" x2="154.9912" y2="70.5742">
		<stop  offset="0.0056" style="stop-color:#231E2C"/>
		<stop  offset="0.5056" style="stop-color:#949999"/>
		<stop  offset="1" style="stop-color:#1E212C"/>
	</linearGradient>
	<rect x="152.464" y="0.864" fill="url(#SVGID_2_)" width="5.375" height="73"/>
	<polygon fill="#B8C7C2" points="6.881,55.073 60.714,55.406 60.714,50.074 98.381,50.24 98.214,44.906 132.381,44.906 
		132.381,77.073 4.048,77.073 	"/>
	<g>
		<rect x="103.815" y="49.29" fill="#FFFFFF" width="7.835" height="6.522"/>
		<polygon fill="#8A8280" points="111.652,49.799 104.154,49.799 104.134,56.521 103.419,56.521 103.419,49.083 111.652,49.083 		
			"/>
	</g>
	<g>
		<rect x="103.906" y="57.7" fill="#FFFFFF" width="7.71" height="2.576"/>
		<rect x="104.917" y="57.909" fill="#780001" width="5.248" height="1.623"/>
		<polygon fill="#8A8280" points="111.632,58.023 104.135,58.023 104.115,61.04 103.399,61.04 103.399,57.308 111.632,57.308 		"/>
	</g>
	<g>
		<circle fill="#5C737A" cx="15.845" cy="64.543" r="4.354"/>
		<circle cx="15.844" cy="64.542" r="3.613"/>
	</g>
	<g>
		<circle fill="#5C737A" cx="51.638" cy="64.543" r="4.354"/>
		<circle cx="51.637" cy="64.542" r="3.613"/>
	</g>
	<g>
		<circle fill="#5C737A" cx="87.88" cy="64.543" r="4.354"/>
		<circle cx="87.88" cy="64.542" r="3.613"/>
	</g>
	<g>
		<circle fill="#5C737A" cx="121.882" cy="64.543" r="4.354"/>
		<circle cx="121.882" cy="64.542" r="3.613"/>
	</g>
	<rect x="1.921" y="74.691" fill="#74888B" width="141.585" height="11.385"/>
	<rect y="73.861" fill="#2E4045" width="145.206" height="1.623"/>
	<rect y="85.076" fill="#2E4045" width="145.206" height="1.623"/>
	<linearGradient id="SVGID_3_" gradientUnits="userSpaceOnUse" x1="31.7227" y1="17.0996" x2="31.8828" y2="47.7739">
		<stop  offset="0.0056" style="stop-color:#606364"/>
		<stop  offset="0.0831" style="stop-color:#656869"/>
		<stop  offset="0.1771" style="stop-color:#737776"/>
		<stop  offset="0.2797" style="stop-color:#8B8F8D"/>
		<stop  offset="0.3884" style="stop-color:#ACB2AD"/>
		<stop  offset="0.5" style="stop-color:#D5DDD5"/>
		<stop  offset="1" style="stop-color:#606364"/>
	</linearGradient>
	<polygon fill="url(#SVGID_3_)" points="63.441,17.633 50.445,15.376 7.033,15.376 0.174,17.633 0.174,49.221 7.033,50.395 
		50.625,50.395 63.441,48.048 	"/>
	<g>
		<rect x="6.997" y="15.452" fill="#140E11" width="0.483" height="34.88"/>
		<rect x="15.772" y="15.452" fill="#140E11" width="0.483" height="34.88"/>
		<rect x="50.339" y="15.452" fill="#140E11" width="0.483" height="34.88"/>
	</g>
	<polygon fill="#A59F9A" points="20.467,49.43 20.43,49.504 18.433,53.453 26.802,53.639 26.941,49.291 	"/>
	<polygon fill="#A59F9A" points="45.947,49.338 48.12,53.499 41.23,53.592 40.536,51.188 40.444,48.552 	"/>
	<rect x="17.138" y="48.136" fill="#1F181C" width="8.878" height="2.22"/>
	<rect x="41.6" y="48.136" fill="#1F181C" width="7.861" height="2.22"/>
	<polygon fill="#635F5D" points="50.71,52.761 41.692,52.807 41.646,46.933 25.831,46.933 25.831,52.714 15.981,52.714 
		15.981,55.164 50.71,55.164 	"/>
	<g>
		<rect x="17.232" y="22.687" fill="#1F181C" width="32.22" height="1.444"/>
		<rect x="17.232" y="25.033" fill="#1F181C" width="32.22" height="2.708"/>
		<rect x="17.232" y="39.925" fill="#1F181C" width="32.22" height="2.257"/>
		<rect x="17.232" y="42.903" fill="#1F181C" width="32.22" height="1.445"/>
		<polygon fill="#1F181C" points="49.452,46.426 41.781,46.426 41.781,47.506 25.625,47.506 25.646,46.378 17.232,46.426 
			17.232,45.882 49.452,45.882 		"/>
		<rect x="17.232" y="28.733" fill="#1F181C" width="32.22" height="3.069"/>
		<rect x="17.232" y="32.434" fill="#1F181C" width="32.22" height="3.069"/>
		<rect x="17.232" y="36.225" fill="#1F181C" width="32.22" height="3.069"/>
	</g>
	<rect x="6.749" y="54.95" fill="#808080" width="54.364" height="1.579"/>
	<rect x="60.703" y="49.235" fill="#808080" width="38.315" height="2.104"/>
	<rect x="98.257" y="45.175" fill="#808080" width="33.83" height="0.888"/>
	<g>
		<polygon fill="#DFDDD7" points="57.853,13.571 55.853,8.517 38.81,8.517 36.81,13.752 37.81,13.842 56.853,13.842 		"/>
		<polygon fill="#9A9F90" points="57.943,13.301 56.853,13.571 38.081,13.21 36.9,13.481 37.9,17.001 56.943,17.001 		"/>
		<rect x="34.47" y="12.849" fill="#3F4723" width="24.82" height="1.535"/>
	</g>
	<rect x="6.381" y="54.406" fill="#EFEDEA" width="54.364" height="1.667"/>
	<rect x="96.865" y="43.643" fill="#EFEDEA" width="35.184" height="1.906"/>
	<rect x="59.336" y="48.627" fill="#EFEDEA" width="39.222" height="2.199"/>
	<rect x="132.089" y="11.011" fill="#606064" width="19" height="60.294"/>
	<linearGradient id="SVGID_4_" gradientUnits="userSpaceOnUse" x1="141.5215" y1="4.9297" x2="141.7759" y2="63.2634">
		<stop  offset="0.1818" style="stop-color:#D5DDD5"/>
		<stop  offset="0.3235" style="stop-color:#C0C6BF"/>
		<stop  offset="0.6192" style="stop-color:#8A8C87"/>
		<stop  offset="0.6788" style="stop-color:#7E7F7B"/>
		<stop  offset="0.8565" style="stop-color:#6B6D6C"/>
		<stop  offset="1" style="stop-color:#606364"/>
	</linearGradient>
	<rect x="135.214" y="1.114" fill="url(#SVGID_4_)" width="12.875" height="67.375"/>
	<g>
		<rect x="133.339" y="20.724" fill="#3F3D3F" width="16.5" height="1.531"/>
		<rect x="133.339" y="39.349" fill="#3F3D3F" width="16.5" height="1.531"/>
		<rect x="133.339" y="57.474" fill="#3F3D3F" width="16.5" height="1.531"/>
		<rect x="133.339" fill="#3F3D3F" width="16.5" height="2.125"/>
	</g>
	<g>
		<rect x="4.048" y="77.073" fill="#031F1F" width="2.063" height="2.063"/>
		<rect x="22.885" y="77.073" fill="#031F1F" width="2.063" height="2.063"/>
		<rect x="43.113" y="77.073" fill="#031F1F" width="2.063" height="2.063"/>
		<rect x="63.042" y="77.073" fill="#031F1F" width="2.063" height="2.063"/>
		<rect x="81.908" y="77.073" fill="#031F1F" width="2.063" height="2.063"/>
		<rect x="100.746" y="77.073" fill="#031F1F" width="2.063" height="2.063"/>
		<rect x="119.849" y="77.073" fill="#031F1F" width="2.063" height="2.063"/>
		<rect x="138.686" y="77.073" fill="#031F1F" width="2.063" height="2.063"/>
	</g>
</g>
</svg>
