<?xml version="1.0" encoding="utf-8"?>
<!-- Generator: Adobe Illustrator 15.0.0, SVG Export Plug-In . SVG Version: 6.00 Build 0)  -->
<!DOCTYPE svg PUBLIC "-//W3C//DTD SVG 1.1 Tiny//EN" "http://www.w3.org/Graphics/SVG/1.1/DTD/svg11-tiny.dtd">
<svg version="1.1" baseProfile="tiny" id="_x32_1" xmlns="http://www.w3.org/2000/svg" xmlns:xlink="http://www.w3.org/1999/xlink"
	 x="0px" y="0px" width="80.706px" height="97.555px" viewBox="0 0 80.706 97.555" xml:space="preserve">
<g>
	<polygon fill="#3C3C3C" points="80.706,96.198 78.924,96.124 67.942,69.853 20.163,69.853 9.969,96.125 7.004,96.198 7.004,97.555 
		14.387,97.511 16.661,93.321 71.444,93.321 73.196,97.555 80.706,97.555 	"/>
	<path fill="#BEBEBE" d="M31.302,9.119c3.226-0.893,6.625-1.369,10.135-1.369c20.952,0,37.938,16.984,37.938,37.938
		S62.39,83.625,41.438,83.625S3.5,66.641,3.5,45.688V1.875l29.25,0.5L31.302,9.119z"/>
	<rect fill="#646464" width="35.875" height="3.125"/>
	<g>
		<path fill="#969696" d="M28.612,12.834l0.763-8.084H5.5l29.625,21.625L43,20.5L41.625,9.375
			C41.625,9.375,30.938,10.349,28.612,12.834z"/>
		<path fill="#969696" d="M5.5,8.125l27.125,21l-1.5,16l-22.5,13.5c0,0-2.75-6.5-2.875-10.375L5.5,8.125z"/>
		<path fill="#969696" d="M32.5,47.25L9.875,60.625c0,0,9,21.75,32.25,19.375V49.125L32.5,47.25z"/>
		<path fill="#969696" d="M45,48v31.875c0,0,20.625-1.375,29.25-20.25l-18.375-14.75L45,48z"/>
		<path fill="#969696" d="M58.5,42.5l16.375,13.375c0,0,5.25-18.375-5-31.25l-13.375,7L58.5,42.5z"/>
		<path fill="#969696" d="M45,9.5l0.625,14.125L55.75,29.25L68,22.625C68,22.625,60,11.25,45,9.5z"/>
	</g>
	<circle fill="none" stroke="#464646" stroke-width="0.75" cx="43.875" cy="38.125" r="21.375"/>
	<circle fill="#AAAAAA" stroke="#4D4D4D" stroke-width="0.75" cx="43.875" cy="38.125" r="18.813"/>
	<radialGradient id="SVGID_1_" cx="43.8755" cy="38.125" r="17.6752" gradientUnits="userSpaceOnUse">
		<stop  offset="0" style="stop-color:#7A7A7A"/>
		<stop  offset="0.4614" style="stop-color:#6A6A6A"/>
		<stop  offset="0.8371" style="stop-color:#646464"/>
	</radialGradient>
	<circle fill="url(#SVGID_1_)" cx="43.875" cy="38.125" r="16.375"/>
</g>
</svg>
