<?xml version="1.0" encoding="utf-8"?>
<!-- Generator: Adobe Illustrator 15.0.0, SVG Export Plug-In . SVG Version: 6.00 Build 0)  -->
<!DOCTYPE svg PUBLIC "-//W3C//DTD SVG 1.1 Tiny//EN" "http://www.w3.org/Graphics/SVG/1.1/DTD/svg11-tiny.dtd">
<svg version="1.1" baseProfile="tiny" id="_x31_4" xmlns="http://www.w3.org/2000/svg" xmlns:xlink="http://www.w3.org/1999/xlink"
	 x="0px" y="0px" width="98.278px" height="98.375px" viewBox="0 0 98.278 98.375" xml:space="preserve">
<g>
	<rect x="5.75" y="44.531" fill="#683D21" width="84.164" height="46.7"/>
	
		<rect x="14.716" y="10.485" transform="matrix(0.8835 0.4685 -0.4685 0.8835 16.2386 -10.4324)" fill="#EDE6DE" width="28.752" height="33.889"/>
	<path fill="#EDE6DE" d="M90.268,48.75c0,22.437-18.188,40.625-40.625,40.625S9.018,71.187,9.018,48.75S27.206,8.125,49.643,8.125
		l0.375-6.875h40.25V48.75z"/>
	<rect x="18.819" y="69.275" fill="#5D3D21" width="61.877" height="3.485"/>
	<rect x="17.773" y="71.018" fill="#796549" width="61.86" height="2.208"/>
	<g>
		<rect x="23.458" y="71.613" fill="#352B30" width="1.671" height="1.492"/>
		<rect x="31.456" y="71.613" fill="#352B30" width="1.671" height="1.492"/>
		<rect x="32.769" y="72.449" fill="#352B30" width="1.193" height="0.657"/>
		<rect x="40.348" y="71.554" fill="#352B30" width="0.776" height="1.552"/>
		<rect x="48.285" y="71.673" fill="#352B30" width="1.85" height="1.552"/>
		<rect x="56.401" y="71.613" fill="#352B30" width="1.731" height="1.492"/>
		<rect x="64.458" y="71.613" fill="#352B30" width="1.611" height="1.552"/>
		<rect x="72.516" y="71.612" fill="#352B30" width="1.671" height="1.492"/>
	</g>
	<rect x="46.768" fill="#654E3F" width="45.875" height="2.375"/>
	<circle fill="#6A5844" cx="50.204" cy="40.189" r="29.396"/>
	<radialGradient id="SVGID_1_" cx="50.9658" cy="40.2734" r="27.3583" gradientUnits="userSpaceOnUse">
		<stop  offset="0.3212" style="stop-color:#957460"/>
		<stop  offset="0.474" style="stop-color:#A68A74"/>
		<stop  offset="0.6" style="stop-color:#B69F88"/>
		<stop  offset="1" style="stop-color:#D2C2A9"/>
	</radialGradient>
	<circle fill="url(#SVGID_1_)" cx="50.206" cy="40.188" r="28.576"/>
	<path fill="#5D3D21" d="M60.075,29.505c2.734,2.734,4.425,6.51,4.425,10.682c0,3.942-1.509,7.531-3.981,10.221
		c-2.761,3.004-6.724,4.886-11.126,4.886c-4.369,0-8.305-1.855-11.063-4.821c-2.509-2.697-4.043-6.313-4.043-10.287
		c0-4.137,1.664-7.888,4.359-10.616c2.738-2.773,6.543-4.491,10.748-4.491C53.564,25.08,57.341,26.771,60.075,29.505z"/>
	<path fill="#7C5B51" d="M59.558,30.022c2.601,2.602,4.21,6.195,4.21,10.165c0,3.75-1.436,7.166-3.788,9.725
		c-2.627,2.858-6.398,4.65-10.587,4.65c-4.158,0-7.903-1.765-10.528-4.587c-2.387-2.566-3.847-6.007-3.847-9.788
		c0-3.938,1.583-7.506,4.148-10.102c2.606-2.638,6.226-4.273,10.227-4.273C53.363,25.812,56.957,27.421,59.558,30.022z"/>
	<path fill="#5D3D21" d="M59.958,50.747c2.352-2.726,3.788-6.364,3.788-10.359c0-4.228-1.609-8.056-4.21-10.827l-20.392,0.067
		c-2.564,2.766-4.148,6.567-4.148,10.76c0,4.028,1.46,7.693,3.847,10.426L59.958,50.747z"/>
	<rect x="10.978" y="85.481" fill="#7C6556" width="75.277" height="4.705"/>
	<rect x="49.407" y="9.732" fill="#5D3D21" width="26.064" height="2.296"/>
	<g>
		<rect x="23.342" y="86.847" fill="#352B30" width="1.756" height="2.296"/>
		<rect x="72.23" y="86.847" fill="#352B30" width="1.756" height="2.296"/>
		<rect x="48.191" y="86.847" fill="#352B30" width="1.756" height="2.296"/>
		<rect x="47.437" y="87.778" fill="#352B30" width="1.259" height="0.81"/>
	</g>
	<polygon fill="#795B49" points="89.787,89.683 84.115,89.683 73.716,9.462 77.768,9.462 	"/>
	<rect x="49.407" y="8.112" fill="#795B49" width="28.496" height="2.296"/>
	<polygon fill="#795B49" points="8.621,89.683 14.293,89.683 24.692,20.208 20.641,20.208 	"/>
	<g>
		<rect x="21.081" y="24.125" fill="#352B30" width="0.75" height="2.5"/>
		<rect x="20.331" y="24.938" fill="#352B30" width="2.25" height="0.75"/>
		<rect x="19.456" y="31.438" fill="#352B30" width="1.625" height="1.563"/>
		<rect x="17.768" y="39.563" fill="#352B30" width="1.688" height="1.563"/>
		<rect x="17.018" y="47.5" fill="#352B30" width="1.625" height="1.625"/>
		<rect x="15.456" y="55.625" fill="#352B30" width="1.625" height="1.563"/>
		<rect x="14.018" y="63.625" fill="#352B30" width="1.625" height="1.625"/>
		<rect x="12.456" y="71.875" fill="#352B30" width="1.75" height="1.875"/>
	</g>
	<rect x="2.091" y="91.231" fill="#3F2100" width="94.445" height="6.099"/>
	<rect y="89.314" fill="#D4C092" width="98.104" height="3.136"/>
	<rect x="0.174" y="95.762" fill="#D4C092" width="98.104" height="2.614"/>
	<path fill="#9F8874" d="M59.958,50.101c2.352-2.56,3.788-5.975,3.788-9.725c0-3.97-1.609-7.563-4.21-10.165l-20.392,0.063
		c-2.564,2.596-4.148,6.165-4.148,10.102c0,3.781,1.46,7.222,3.847,9.788L59.958,50.101z"/>
	<rect x="34.208" y="35.745" fill="#5D3D21" width="30.305" height="8.885"/>
	<rect x="34.208" y="36.437" fill="#7C5B51" width="30.305" height="7.5"/>
</g>
</svg>
