<?xml version="1.0" encoding="utf-8"?>
<!-- Generator: Adobe Illustrator 15.0.0, SVG Export Plug-In . SVG Version: 6.00 Build 0)  -->
<!DOCTYPE svg PUBLIC "-//W3C//DTD SVG 1.1 Tiny//EN" "http://www.w3.org/Graphics/SVG/1.1/DTD/svg11-tiny.dtd">
<svg version="1.1" baseProfile="tiny" id="_x38_" xmlns="http://www.w3.org/2000/svg" xmlns:xlink="http://www.w3.org/1999/xlink"
	 x="0px" y="0px" width="158.087px" height="82.601px" viewBox="0 0 158.087 82.601" xml:space="preserve">
<g>
	<path fill="#000028" d="M39.855,26.493c1.525-0.355,2.672-1.888,2.672-3.725c0-2.101-1.499-3.803-3.348-3.803
		c-1.849,0-3.348,1.703-3.348,3.803c0,1.686,0.966,3.116,2.304,3.614l-0.028,1.359l1.82,0.13L39.855,26.493z"/>
	<ellipse fill="#34A8BD" cx="39.245" cy="22.605" rx="1.658" ry="2.015"/>
	<rect x="87.277" y="37.432" fill="#000028" width="5.812" height="22.558"/>
	<rect x="68.856" y="32.113" fill="#000049" width="18.814" height="49.154"/>
	<rect x="68.955" y="32.027" fill="#354274" width="18.704" height="3.041"/>
	<rect x="66.689" y="42.751" fill="#000028" width="2.167" height="11.525"/>
	<path fill="#000032" d="M66.787,64.985c0,1.865-1.396,3.378-3.117,3.378H15.528c-1.721,0-3.117-1.513-3.117-3.378V30.769
		c0-1.866,1.396-3.378,3.117-3.378H63.67c1.721,0,3.117,1.512,3.117,3.378V64.985z"/>
	<polygon fill="#000026" points="22.598,75.144 58.39,75.039 58.354,81.186 17.043,81.116 17.043,82.601 105.895,82.601 
		105.895,81.116 98.408,81.116 98.408,73.289 92.793,73.19 92.793,81.116 64.522,81.116 64.424,75.259 65.449,75.25 65.484,71.983 
		42.724,71.948 42.67,68.307 38.168,68.377 38.123,72.205 17.083,72.124 17.013,81.854 22.598,82.046 	"/>
	<polygon fill="#23305B" points="65.557,45.519 16.912,45.519 16.912,43.699 63.406,43.699 	"/>
	<polygon fill="#23305B" points="65.392,42.872 17.078,42.872 17.078,39.645 62.579,39.645 	"/>
	<polygon fill="#23305B" points="66.054,49.573 16.416,49.573 16.416,48.083 63.985,48.083 	"/>
	<polygon fill="#23305B" points="65.475,53.296 16.995,53.296 16.995,50.979 62.083,50.979 	"/>
	<polygon fill="#23305B" points="65.351,57.929 17.119,57.929 17.119,54.785 62.703,54.785 	"/>
	<polygon fill="#23305B" points="65.309,61.568 17.16,61.568 17.16,58.673 62.91,58.673 	"/>
	<polygon fill="#23305B" points="64.937,65.954 17.533,65.954 17.533,62.728 61.711,62.728 	"/>
	<polygon fill="#23305B" points="65.309,38.239 17.16,38.239 17.16,36.005 63.406,36.005 	"/>
	<polygon fill="#23305B" points="17.491,31.951 62.828,31.951 64.979,34.681 17.491,34.681 	"/>
	<polygon fill="#23305B" points="64.068,28.394 17.574,28.394 17.574,31.207 64.896,31.124 	"/>
	<path fill="#000065" d="M136.407,35.767V11.215h-14.49v24.552c0,0-2.232,4.325-7.059,5.507h-10.245v13.594l13.889,0.197
		C118.503,55.065,135.2,50.454,136.407,35.767z"/>
	<rect x="91.316" y="24.035" fill="#23305B" width="15.071" height="49.45"/>
	<rect x="91.316" y="64.226" fill="#000049" width="15.071" height="9.258"/>
	<rect x="99.492" y="18.814" fill="#00003F" width="2.857" height="60.187"/>
	<rect x="99.492" y="18.813" fill="#000065" width="2.857" height="5.15"/>
	<rect x="99.492" y="67.377" fill="#000065" width="2.857" height="11.919"/>
	<rect x="99.492" y="73.43" fill="#23305B" width="2.857" height="5.933"/>
	<rect x="100.855" fill="#000049" width="54.671" height="10.836"/>
	<linearGradient id="SVGID_1_" gradientUnits="userSpaceOnUse" x1="120.8208" y1="5.084" x2="150.8224" y2="5.751">
		<stop  offset="0.4121" style="stop-color:#192757"/>
		<stop  offset="0.6854" style="stop-color:#31457B"/>
		<stop  offset="0.77" style="stop-color:#26386B"/>
		<stop  offset="0.9088" style="stop-color:#182656"/>
		<stop  offset="1" style="stop-color:#13204E"/>
	</linearGradient>
	<rect x="116.188" fill="url(#SVGID_1_)" width="39.338" height="10.836"/>
	<linearGradient id="SVGID_2_" gradientUnits="userSpaceOnUse" x1="8.7632" y1="29.0654" x2="9.3193" y2="65.5123">
		<stop  offset="0.2" style="stop-color:#13204E"/>
		<stop  offset="0.2747" style="stop-color:#1C2C60"/>
		<stop  offset="0.4236" style="stop-color:#354D8E"/>
		<stop  offset="0.5" style="stop-color:#435FA8"/>
		<stop  offset="0.5657" style="stop-color:#354C8D"/>
		<stop  offset="0.6648" style="stop-color:#22346B"/>
		<stop  offset="0.7465" style="stop-color:#172556"/>
		<stop  offset="0.8" style="stop-color:#13204E"/>
	</linearGradient>
	<path fill="url(#SVGID_2_)" d="M17.928,70.727H9.921C4.442,70.727,0,64.987,0,57.906V39.122C0,32.04,4.442,26.3,9.921,26.3h8.006
		V70.727z"/>
	<linearGradient id="SVGID_3_" gradientUnits="userSpaceOnUse" x1="100.8188" y1="10.8149" x2="154.8173" y2="11.1484">
		<stop  offset="0.33" style="stop-color:#13204E"/>
		<stop  offset="0.3807" style="stop-color:#1C2C60"/>
		<stop  offset="0.4818" style="stop-color:#354D8E"/>
		<stop  offset="0.5337" style="stop-color:#435FA8"/>
		<stop  offset="0.5855" style="stop-color:#354C8D"/>
		<stop  offset="0.6635" style="stop-color:#22346B"/>
		<stop  offset="0.7278" style="stop-color:#172556"/>
		<stop  offset="0.77" style="stop-color:#13204E"/>
	</linearGradient>
	<rect x="98.196" y="9.654" fill="url(#SVGID_3_)" width="59.891" height="2.66"/>
</g>
</svg>
