<?xml version="1.0" encoding="utf-8"?>
<!-- Generator: Adobe Illustrator 15.0.0, SVG Export Plug-In . SVG Version: 6.00 Build 0)  -->
<!DOCTYPE svg PUBLIC "-//W3C//DTD SVG 1.1 Tiny//EN" "http://www.w3.org/Graphics/SVG/1.1/DTD/svg11-tiny.dtd">
<svg version="1.1" baseProfile="tiny" id="_x33_4" xmlns="http://www.w3.org/2000/svg" xmlns:xlink="http://www.w3.org/1999/xlink"
	 x="0px" y="0px" width="77.768px" height="90.5px" viewBox="0 0 77.768 90.5" xml:space="preserve">
<g>
	<path fill="#D1CEC9" stroke="#000000" stroke-width="0.6" d="M29.674,15.139l0.456,0.584l-1.283,0.607c0,0-0.92-1.101-0.913-3.224
		c0.005-1.544,0.802-3.819,3.108-3.684c2.162,0.125,2.774,4.507,1.196,6.64l-0.614-0.719c0,0,0.805-1.814,0.414-3.28
		c-0.391-1.465-1.681-1.572-2.254-0.792C29.21,12.05,29.032,14.044,29.674,15.139z"/>
	<polygon fill="#D1CEC9" stroke="#000000" stroke-width="0.6" points="33.876,17.714 27.423,17.714 28.474,14.683 29.498,14.683 
		32.734,14.683 	"/>
	<linearGradient id="SVGID_1_" gradientUnits="userSpaceOnUse" x1="31.2568" y1="20.0605" x2="30.7138" y2="51.3294">
		<stop  offset="0.0056" style="stop-color:#2D2C32"/>
		<stop  offset="0.0663" style="stop-color:#37363B"/>
		<stop  offset="0.382" style="stop-color:#666667"/>
		<stop  offset="0.5393" style="stop-color:#787878"/>
		<stop  offset="0.6677" style="stop-color:#666668"/>
		<stop  offset="0.9252" style="stop-color:#36393E"/>
		<stop  offset="0.9944" style="stop-color:#282C32"/>
	</linearGradient>
	<rect x="1.474" y="18.744" fill="url(#SVGID_1_)" width="59.004" height="34.865"/>
	<linearGradient id="SVGID_2_" gradientUnits="userSpaceOnUse" x1="68.6904" y1="0.8018" x2="67.875" y2="68.7728">
		<stop  offset="0.0056" style="stop-color:#231E2C"/>
		<stop  offset="0.112" style="stop-color:#34303C"/>
		<stop  offset="0.3252" style="stop-color:#5F6066"/>
		<stop  offset="0.5056" style="stop-color:#888D8D"/>
		<stop  offset="0.6764" style="stop-color:#5F6367"/>
		<stop  offset="0.8923" style="stop-color:#30333D"/>
		<stop  offset="1" style="stop-color:#1E212C"/>
	</linearGradient>
	<rect x="58.768" fill="url(#SVGID_2_)" width="19" height="72"/>
	<rect x="59.101" y="1.548" fill="#90929D" width="6.513" height="69.068"/>
	<g>
		<rect x="57.404" y="1.045" fill="#040303" width="10.077" height="0.837"/>
		<rect x="57.404" y="2.584" fill="#040303" width="10.077" height="0.729"/>
		<rect x="57.404" y="5.637" fill="#040303" width="10.077" height="0.729"/>
		<rect x="57.404" y="8.564" fill="#040303" width="10.077" height="0.729"/>
		<rect x="57.404" y="11.574" fill="#040303" width="10.077" height="0.729"/>
		<rect x="57.404" y="16.843" fill="#040303" width="10.077" height="0.729"/>
		<rect x="57.404" y="21.358" fill="#040303" width="10.077" height="0.729"/>
		<rect x="57.404" y="25.833" fill="#040303" width="10.077" height="0.729"/>
		<rect x="57.404" y="31.06" fill="#040303" width="10.077" height="0.729"/>
		<rect x="57.404" y="35.534" fill="#040303" width="10.077" height="0.729"/>
		<rect x="57.404" y="40.049" fill="#040303" width="10.077" height="0.729"/>
		<rect x="57.404" y="44.523" fill="#040303" width="10.077" height="0.729"/>
		<rect x="57.404" y="49.875" fill="#040303" width="10.077" height="0.729"/>
		<rect x="57.404" y="54.35" fill="#040303" width="10.077" height="0.729"/>
		<rect x="57.404" y="58.824" fill="#040303" width="10.077" height="0.729"/>
		<rect x="57.404" y="62.504" fill="#040303" width="10.077" height="0.729"/>
		<rect x="57.404" y="65.557" fill="#040303" width="10.077" height="0.729"/>
		<rect x="57.404" y="68.608" fill="#040303" width="10.077" height="0.729"/>
		<rect x="57.404" y="70.114" fill="#040303" width="10.077" height="0.729"/>
		<rect x="56.951" y="1.031" fill="#040303" width="0.763" height="71.025"/>
		<rect x="58.451" y="1.031" fill="#040303" width="0.763" height="69.578"/>
		<rect x="65.201" y="1.031" fill="#040303" width="0.763" height="69.578"/>
	</g>
	<rect x="48.315" y="17.868" fill="#040303" width="0.975" height="35.306"/>
	<polygon fill="#4A4553" points="47.212,51.773 14.917,51.773 10.782,64.066 50.453,64.066 	"/>
	<g>
		<rect x="9.664" y="17.028" fill="#B4AFA9" stroke="#3C3C3C" stroke-width="0.75" width="41.795" height="6.247"/>
		<rect x="9.664" y="24.545" fill="#B4AFA9" stroke="#3C3C3C" stroke-width="0.75" width="41.795" height="1.816"/>
		<rect x="9.664" y="29.556" fill="#B4AFA9" stroke="#3C3C3C" stroke-width="0.75" width="41.795" height="2.05"/>
		<rect x="9.664" y="34.276" fill="#B4AFA9" stroke="#3C3C3C" stroke-width="0.75" width="41.795" height="1.991"/>
		<rect x="9.664" y="38.705" fill="#B4AFA9" stroke="#3C3C3C" stroke-width="0.75" width="41.795" height="2.049"/>
		<rect x="9.664" y="44.009" fill="#B4AFA9" stroke="#3C3C3C" stroke-width="0.75" width="41.795" height="1.873"/>
		<rect x="9.664" y="46.979" fill="#B4AFA9" stroke="#3C3C3C" stroke-width="0.75" width="41.795" height="4.03"/>
	</g>
	<g>
		<rect x="9.664" y="18.369" fill="#040303" width="41.795" height="1.525"/>
		<rect x="9.664" y="20.758" fill="#040303" width="41.795" height="1.176"/>
		<rect x="9.664" y="48.437" fill="#040303" width="41.795" height="1.466"/>
	</g>
	<rect x="15.253" y="50.638" fill="#040303" width="31.307" height="1.365"/>
	<polygon fill="#9D9FA9" points="41.849,62.837 19.498,62.837 22.627,49.763 38.72,49.763 	"/>
	<rect y="70.046" fill="#D1CED7" width="5.345" height="14.215"/>
	<rect y="77.773" fill="#5F5562" width="5.345" height="8.419"/>
	<rect y="74.038" fill="#8A8288" width="5.345" height="8.419"/>
	<rect x="8.432" y="62.667" fill="#847F86" width="44.417" height="7.083"/>
	<rect x="2.432" y="65.75" fill="#4B4753" width="56.5" height="24.75"/>
	<rect x="6.932" y="65.75" fill="#212335" width="47.5" height="22.084"/>
	<rect x="22.364" y="48.929" fill="#040303" width="16.661" height="1.679"/>
</g>
</svg>
