<?xml version="1.0" encoding="UTF-8" standalone="no"?>
<svg
   xmlns:dc="http://purl.org/dc/elements/1.1/"
   xmlns:cc="http://creativecommons.org/ns#"
   xmlns:rdf="http://www.w3.org/1999/02/22-rdf-syntax-ns#"
   xmlns:svg="http://www.w3.org/2000/svg"
   xmlns="http://www.w3.org/2000/svg"
   xmlns:sodipodi="http://sodipodi.sourceforge.net/DTD/sodipodi-0.dtd"
   xmlns:inkscape="http://www.inkscape.org/namespaces/inkscape"
   version="1.1"
   id="图层_1"
   x="0px"
   y="0px"
   width="132.217px"
   height="81.016px"
   viewBox="33.483 119.143 132.217 81.016"
   enable-background="new 33.483 119.143 132.217 81.016"
   xml:space="preserve"
   sodipodi:docname="电线与电缆-01.svg"><metadata
   id="metadata65"><rdf:RDF><cc:Work
       rdf:about=""><dc:format>image/svg+xml</dc:format><dc:type
         rdf:resource="http://purl.org/dc/dcmitype/StillImage" /></cc:Work></rdf:RDF></metadata><defs
   id="defs63" /><sodipodi:namedview
   pagecolor="#ffffff"
   bordercolor="#666666"
   borderopacity="1"
   objecttolerance="10"
   gridtolerance="10"
   guidetolerance="10"
   inkscape:pageopacity="0"
   inkscape:pageshadow="2"
   inkscape:window-width="640"
   inkscape:window-height="480"
   id="namedview61" />
<g
   id="g58">
	
		<rect
   x="103.514"
   y="160.761"
   fill="#B2B2B2"
   stroke="#231815"
   stroke-width="0.5"
   stroke-miterlimit="10"
   width="24.561"
   height="32.275"
   id="rect2" />
	<polygon
   fill="#B2B2B2"
   stroke="#231815"
   stroke-width="0.5"
   stroke-miterlimit="10"
   points="120.68,153.917 145.24,153.917    142.514,186.192 120.68,186.192  "
   id="polygon4" />
	<polygon
   fill="#B2B2B2"
   stroke="#231815"
   stroke-width="0.5"
   stroke-miterlimit="10"
   points="136.975,144.825 159.914,145.094    156.951,179.332 136.975,179.332  "
   id="polygon6" />
	<path
   fill="#B2B2B2"
   stroke="#231815"
   stroke-width="0.5"
   stroke-miterlimit="10"
   d="M75.104,119.579v0.002   c-3.77-0.318-8.229,6.956-8.285,16.392c-0.078,13.208,4.922,15.857,8.711,16.254c0,0-0.002,0,0,0l0.617,1.593l73.285-0.201   l2.963-34.225L75.104,119.579z"
   id="path8" />
	<path
   fill="#B2B2B2"
   stroke="#231815"
   stroke-width="0.5"
   stroke-miterlimit="10"
   d="M60.424,126.279v0.002   c-3.77-0.318-8.229,6.956-8.285,16.392c-0.078,13.207,4.922,15.856,8.711,16.253c0,0-0.002,0,0,0l0.617,1.593l73.285-0.201   l2.963-34.224L60.424,126.279z"
   id="path10" />
	<path
   fill="#B2B2B2"
   stroke="#231815"
   stroke-width="0.5"
   stroke-miterlimit="10"
   d="M46.082,132.997v0.002   c-3.77-0.318-8.23,6.956-8.285,16.392c-0.08,13.205,4.922,15.856,8.711,16.251c0,0-0.002,0,0,0l0.617,1.593l73.283-0.201   l2.965-34.222L46.082,132.997z"
   id="path12" />
	<path
   fill="#B2B2B2"
   stroke="#231815"
   stroke-width="0.5"
   stroke-miterlimit="10"
   d="M42.09,165.672v0.002   c-3.77-0.318-7.469,6.991-8.285,16.392c-0.816,9.449,5.541,17.433,9.328,17.828c0,0,0,0,0.002,0l-0.002,0.015h70.504l2.963-34.237   H42.09z"
   id="path14" />
	<g
   id="g20">
		<path
   fill="#B2B2B2"
   stroke="#231815"
   stroke-width="0.5"
   stroke-miterlimit="10"
   d="M121.977,183.502    c-0.818,9.449-4.553,16.789-8.34,16.392c-3.789-0.396-6.197-8.379-5.379-17.828c0.818-9.449,4.553-16.791,8.342-16.394    S122.797,174.051,121.977,183.502z"
   id="path16" />
		<path
   fill="#4C4C4C"
   stroke="#231815"
   stroke-width="0.5"
   stroke-miterlimit="10"
   d="M118.443,183.132    c-0.396,4.581-2.207,8.14-4.043,7.949c-1.838-0.193-3.004-4.064-2.609-8.645c0.396-4.583,2.207-8.14,4.045-7.947    C117.674,174.682,118.84,178.549,118.443,183.132z"
   id="path18" />
	</g>
	<g
   id="g26">
		<path
   fill="#B2B2B2"
   stroke="#231815"
   stroke-width="0.5"
   stroke-miterlimit="10"
   d="M128.75,150.64    c-0.818,9.449-4.553,16.791-8.342,16.394c-3.787-0.395-6.195-8.379-5.379-17.828c0.818-9.45,4.555-16.791,8.344-16.394    C127.158,133.208,129.568,141.19,128.75,150.64z"
   id="path22" />
		<path
   fill="#4C4C4C"
   stroke="#231815"
   stroke-width="0.5"
   stroke-miterlimit="10"
   d="M125.215,150.27    c-0.396,4.583-2.207,8.142-4.043,7.949c-1.836-0.191-3.006-4.062-2.607-8.645c0.396-4.582,2.207-8.138,4.045-7.946    C124.445,141.819,125.613,145.688,125.215,150.27z"
   id="path24" />
	</g>
	<g
   id="g32">
		<path
   fill="#B2B2B2"
   stroke="#231815"
   stroke-width="0.5"
   stroke-miterlimit="10"
   d="M143.396,143.939    c-0.82,9.45-4.555,16.79-8.34,16.393c-3.791-0.396-6.199-8.379-5.379-17.828c0.816-9.45,4.551-16.79,8.342-16.394    C141.807,126.506,144.215,134.489,143.396,143.939z"
   id="path28" />
		<path
   fill="#4C4C4C"
   stroke="#231815"
   stroke-width="0.5"
   stroke-miterlimit="10"
   d="M139.863,143.568    c-0.398,4.582-2.209,8.141-4.043,7.95c-1.84-0.193-3.006-4.064-2.609-8.646s2.207-8.139,4.045-7.946    C139.092,135.118,140.26,138.987,139.863,143.568z"
   id="path30" />
	</g>
	<g
   id="g38">
		<path
   fill="#B2B2B2"
   stroke="#231815"
   stroke-width="0.5"
   stroke-miterlimit="10"
   d="M158.043,137.237    c-0.818,9.45-4.553,16.79-8.342,16.395c-3.789-0.397-6.197-8.38-5.379-17.83c0.818-9.449,4.553-16.79,8.342-16.394    C156.453,119.805,158.861,127.788,158.043,137.237z"
   id="path34" />
		<path
   fill="#4C4C4C"
   stroke="#231815"
   stroke-width="0.5"
   stroke-miterlimit="10"
   d="M154.508,136.868    c-0.395,4.582-2.205,8.141-4.043,7.949c-1.838-0.193-3.004-4.063-2.609-8.645c0.398-4.583,2.209-8.139,4.045-7.947    C153.738,128.417,154.904,132.285,154.508,136.868z"
   id="path36" />
	</g>
	<g
   id="g44">
		<path
   fill="#B2B2B2"
   stroke="#231815"
   stroke-width="0.5"
   stroke-miterlimit="10"
   d="M136.416,176.642    c-0.818,9.449-4.555,16.789-8.342,16.394c-3.787-0.397-6.195-8.381-5.379-17.83c0.818-9.449,4.555-16.789,8.344-16.394    C134.824,159.209,137.232,167.193,136.416,176.642z"
   id="path40" />
		<path
   fill="#4C4C4C"
   stroke="#231815"
   stroke-width="0.5"
   stroke-miterlimit="10"
   d="M132.881,176.272    c-0.396,4.583-2.207,8.142-4.043,7.949c-1.838-0.193-3.006-4.062-2.607-8.645c0.396-4.583,2.207-8.14,4.045-7.947    C132.109,167.822,133.279,171.689,132.881,176.272z"
   id="path42" />
	</g>
	<g
   id="g50">
		<path
   fill="#B2B2B2"
   stroke="#231815"
   stroke-width="0.5"
   stroke-miterlimit="10"
   d="M150.854,169.783    c-0.818,9.449-4.553,16.789-8.34,16.394c-3.791-0.396-6.199-8.379-5.379-17.83c0.816-9.449,4.551-16.789,8.342-16.392    C149.264,152.35,151.672,160.333,150.854,169.783z"
   id="path46" />
		<path
   fill="#4C4C4C"
   stroke="#231815"
   stroke-width="0.5"
   stroke-miterlimit="10"
   d="M147.32,169.412    c-0.398,4.583-2.207,8.142-4.043,7.949c-1.84-0.193-3.006-4.062-2.609-8.645c0.398-4.583,2.207-8.138,4.045-7.947    C146.549,160.962,147.715,164.83,147.32,169.412z"
   id="path48" />
	</g>
	<g
   id="g56">
		<path
   fill="#B2B2B2"
   stroke="#231815"
   stroke-width="0.5"
   stroke-miterlimit="10"
   d="M165.291,162.923    c-0.818,9.449-4.553,16.791-8.34,16.394c-3.789-0.397-6.197-8.379-5.381-17.828c0.82-9.451,4.555-16.791,8.344-16.396    C163.703,145.491,166.109,153.474,165.291,162.923z"
   id="path52" />
		<path
   fill="#4C4C4C"
   stroke="#231815"
   stroke-width="0.5"
   stroke-miterlimit="10"
   d="M161.756,162.553    c-0.396,4.583-2.207,8.142-4.043,7.949c-1.836-0.191-3.002-4.062-2.607-8.645c0.396-4.581,2.207-8.138,4.045-7.945    C160.988,154.102,162.154,157.972,161.756,162.553z"
   id="path54" />
	</g>
</g>
</svg>
