<?xml version="1.0" encoding="UTF-8" standalone="no"?>
<svg
   xmlns:dc="http://purl.org/dc/elements/1.1/"
   xmlns:cc="http://creativecommons.org/ns#"
   xmlns:rdf="http://www.w3.org/1999/02/22-rdf-syntax-ns#"
   xmlns:svg="http://www.w3.org/2000/svg"
   xmlns="http://www.w3.org/2000/svg"
   xmlns:sodipodi="http://sodipodi.sourceforge.net/DTD/sodipodi-0.dtd"
   xmlns:inkscape="http://www.inkscape.org/namespaces/inkscape"
   version="1.1"
   id="图层_1"
   x="0px"
   y="0px"
   width="86.425px"
   height="77.187px"
   viewBox="40.989 68.813 86.425 77.187"
   enable-background="new 40.989 68.813 86.425 77.187"
   xml:space="preserve"
   sodipodi:docname="食物生产-01.svg"><metadata
   id="metadata87"><rdf:RDF><cc:Work
       rdf:about=""><dc:format>image/svg+xml</dc:format><dc:type
         rdf:resource="http://purl.org/dc/dcmitype/StillImage" /></cc:Work></rdf:RDF></metadata><defs
   id="defs85" /><sodipodi:namedview
   pagecolor="#ffffff"
   bordercolor="#666666"
   borderopacity="1"
   objecttolerance="10"
   gridtolerance="10"
   guidetolerance="10"
   inkscape:pageopacity="0"
   inkscape:pageshadow="2"
   inkscape:window-width="640"
   inkscape:window-height="480"
   id="namedview83" />
<g
   id="g80">
	
		<rect
   x="46.903"
   y="91.833"
   fill="#CCCCCC"
   stroke="#231815"
   stroke-width="0.5"
   stroke-miterlimit="10"
   width="52.917"
   height="19.222"
   id="rect2" />
	<polygon
   fill="#CCCCCC"
   stroke="#231815"
   stroke-width="0.5"
   stroke-miterlimit="10"
   points="105.32,121.5 41.403,121.5    46.903,111.055 99.82,111.055  "
   id="polygon4" />
	<polygon
   fill="#CCCCCC"
   stroke="#231815"
   stroke-width="0.5"
   stroke-miterlimit="10"
   points="99.82,91.716 46.903,91.716    49.903,84 96.82,84  "
   id="polygon6" />
	<g
   id="g12">
		
			<rect
   x="52.654"
   y="96.944"
   fill="#231815"
   stroke="#231815"
   stroke-width="0.5"
   stroke-miterlimit="10"
   width="17.667"
   height="9"
   id="rect8" />
		
			<rect
   x="54.655"
   y="98.728"
   fill="#CCCCCC"
   stroke="#231815"
   stroke-width="0.5"
   stroke-miterlimit="10"
   width="13.666"
   height="5.434"
   id="rect10" />
	</g>
	
		<rect
   x="82.82"
   y="91.833"
   fill="#CCCCCC"
   stroke="#231815"
   stroke-width="0.5"
   stroke-miterlimit="10"
   width="28"
   height="13.328"
   id="rect14" />
	<g
   id="g20">
		<path
   fill="#B7ACAC"
   stroke="#231815"
   stroke-width="0.5"
   stroke-miterlimit="10"
   d="M120.539,106.247    c3.659,0,6.625-3.47,6.625-7.75c0-4.28-2.966-7.75-6.625-7.75V106.247z"
   id="path16" />
		<ellipse
   stroke="#231815"
   stroke-width="0.5"
   stroke-miterlimit="10"
   cx="120.539"
   cy="98.497"
   rx="1.938"
   ry="7.75"
   id="ellipse18" />
	</g>
	<circle
   fill="#B7ACAC"
   stroke="#231815"
   stroke-width="0.5"
   stroke-miterlimit="10"
   cx="102.82"
   cy="98.497"
   r="6"
   id="circle22" />
	<path
   fill="#7A6F6F"
   d="M98.528,98.497c0-3.023,2.238-5.517,5.146-5.932c-0.279-0.04-0.563-0.068-0.854-0.068c-3.313,0-6,2.687-6,6   s2.687,6,6,6c0.291,0,0.574-0.028,0.854-0.068C100.767,104.014,98.528,101.52,98.528,98.497z"
   id="path24" />
	
		<rect
   x="110.82"
   y="96.25"
   fill="#CCCCCC"
   stroke="#231815"
   stroke-width="0.5"
   stroke-miterlimit="10"
   width="9.719"
   height="4.75"
   id="rect26" />
	
		<path
   fill="#CCCCCC"
   stroke="#231815"
   stroke-width="0.5"
   stroke-linecap="round"
   stroke-linejoin="round"
   stroke-miterlimit="10"
   d="   M98.987,69.063c-7.18,0-13,1.091-13,2.438v4h26v-4C111.987,70.154,106.167,69.063,98.987,69.063z"
   id="path28" />
	
		<polygon
   fill="#CCCCCC"
   stroke="#231815"
   stroke-width="0.5"
   stroke-linecap="round"
   stroke-linejoin="round"
   stroke-miterlimit="10"
   points="   85.987,75.5 97.216,88.5 97.216,91.716 100.759,91.716 100.759,88.5 111.987,75.5  "
   id="polygon30" />
	
		<rect
   x="103.674"
   y="88.583"
   fill="#CCCCCC"
   stroke="#231815"
   stroke-width="0.5"
   stroke-linecap="round"
   stroke-linejoin="round"
   stroke-miterlimit="10"
   width="6.147"
   height="3.25"
   id="rect32" />
	
		<rect
   x="41.403"
   y="121.5"
   fill="#CCCCCC"
   stroke="#231815"
   stroke-width="0.5"
   stroke-miterlimit="10"
   width="63.917"
   height="24.25"
   id="rect34" />
	<polygon
   opacity="0.6"
   fill="#E5E5E5"
   enable-background="new    "
   points="104.861,128.016 41.862,136.641 41.862,121.609    104.861,121.609  "
   id="polygon36" />
	<g
   id="g74">
		
			<rect
   x="46.464"
   y="128.113"
   fill="#231815"
   stroke="#231815"
   stroke-width="0.5"
   stroke-miterlimit="10"
   width="8"
   height="11.522"
   id="rect38" />
		<g
   id="g72">
			<g
   id="g46">
				<rect
   x="47.416"
   y="129.109"
   fill="#657FB2"
   width="1.715"
   height="2.032"
   id="rect40" />
				<rect
   x="49.606"
   y="129.109"
   fill="#657FB2"
   width="1.715"
   height="2.032"
   id="rect42" />
				<rect
   x="51.797"
   y="129.109"
   fill="#657FB2"
   width="1.715"
   height="2.032"
   id="rect44" />
			</g>
			<g
   id="g54">
				<rect
   x="47.416"
   y="131.609"
   fill="#657FB2"
   width="1.715"
   height="2.032"
   id="rect48" />
				<rect
   x="49.606"
   y="131.609"
   fill="#657FB2"
   width="1.715"
   height="2.032"
   id="rect50" />
				<rect
   x="51.797"
   y="131.609"
   fill="#657FB2"
   width="1.715"
   height="2.032"
   id="rect52" />
			</g>
			<g
   id="g62">
				<rect
   x="47.416"
   y="134.109"
   fill="#657FB2"
   width="1.715"
   height="2.032"
   id="rect56" />
				<rect
   x="49.606"
   y="134.109"
   fill="#657FB2"
   width="1.715"
   height="2.032"
   id="rect58" />
				<rect
   x="51.797"
   y="134.109"
   fill="#657FB2"
   width="1.715"
   height="2.032"
   id="rect60" />
			</g>
			<g
   id="g70">
				<rect
   x="47.416"
   y="136.609"
   fill="#657FB2"
   width="1.715"
   height="2.032"
   id="rect64" />
				<rect
   x="49.606"
   y="136.609"
   fill="#657FB2"
   width="1.715"
   height="2.032"
   id="rect66" />
				<rect
   x="51.797"
   y="136.609"
   fill="#657FB2"
   width="1.715"
   height="2.032"
   id="rect68" />
			</g>
		</g>
	</g>
	
		<rect
   x="81.403"
   y="128.113"
   fill="#231815"
   stroke="#231815"
   stroke-width="0.5"
   stroke-miterlimit="10"
   width="18.417"
   height="3.496"
   id="rect76" />
	
		<rect
   x="81.403"
   y="133.377"
   fill="#657FB2"
   stroke="#231815"
   stroke-width="0.5"
   stroke-miterlimit="10"
   width="18.417"
   height="3.496"
   id="rect78" />
</g>
</svg>
