<?xml version="1.0" encoding="UTF-8" standalone="no"?>
<svg
   xmlns:dc="http://purl.org/dc/elements/1.1/"
   xmlns:cc="http://creativecommons.org/ns#"
   xmlns:rdf="http://www.w3.org/1999/02/22-rdf-syntax-ns#"
   xmlns:svg="http://www.w3.org/2000/svg"
   xmlns="http://www.w3.org/2000/svg"
   xmlns:sodipodi="http://sodipodi.sourceforge.net/DTD/sodipodi-0.dtd"
   xmlns:inkscape="http://www.inkscape.org/namespaces/inkscape"
   version="1.1"
   id="图层_1"
   x="0px"
   y="0px"
   width="145.501px"
   height="122.946px"
   viewBox="38.379 458.766 145.501 122.946"
   enable-background="new 38.379 458.766 145.501 122.946"
   xml:space="preserve"
   sodipodi:docname="食物生产-19.svg"><metadata
   id="metadata115"><rdf:RDF><cc:Work
       rdf:about=""><dc:format>image/svg+xml</dc:format><dc:type
         rdf:resource="http://purl.org/dc/dcmitype/StillImage" /></cc:Work></rdf:RDF></metadata><defs
   id="defs113" /><sodipodi:namedview
   pagecolor="#ffffff"
   bordercolor="#666666"
   borderopacity="1"
   objecttolerance="10"
   gridtolerance="10"
   guidetolerance="10"
   inkscape:pageopacity="0"
   inkscape:pageshadow="2"
   inkscape:window-width="640"
   inkscape:window-height="480"
   id="namedview111" />
<g
   id="g108">
	
		<linearGradient
   id="SVGID_1_"
   gradientUnits="userSpaceOnUse"
   x1="57.7788"
   y1="514.2505"
   x2="57.7788"
   y2="522.9121"
   gradientTransform="matrix(1 0 0 -1 8.3398 1056.04)">
		<stop
   offset="0"
   style="stop-color:#7F7977"
   id="stop2" />
		<stop
   offset="0.2562"
   style="stop-color:#C9C6C5"
   id="stop4" />
		<stop
   offset="0.5369"
   style="stop-color:#F0EFEF"
   id="stop6" />
		<stop
   offset="0.803"
   style="stop-color:#C6C3C2"
   id="stop8" />
		<stop
   offset="1"
   style="stop-color:#7F7977"
   id="stop10" />
	</linearGradient>
	
		<rect
   x="60.023"
   y="533.128"
   fill="url(#SVGID_1_)"
   stroke="#231815"
   stroke-width="0.5"
   stroke-miterlimit="10"
   width="12.192"
   height="8.662"
   id="rect13" />
	
		<linearGradient
   id="SVGID_2_"
   gradientUnits="userSpaceOnUse"
   x1="43.6489"
   y1="511.7817"
   x2="43.6489"
   y2="525.3809"
   gradientTransform="matrix(1 0 0 -1 8.3398 1056.04)">
		<stop
   offset="0"
   style="stop-color:#7F7977"
   id="stop15" />
		<stop
   offset="0.2562"
   style="stop-color:#C9C6C5"
   id="stop17" />
		<stop
   offset="0.5369"
   style="stop-color:#F0EFEF"
   id="stop19" />
		<stop
   offset="0.803"
   style="stop-color:#C6C3C2"
   id="stop21" />
		<stop
   offset="1"
   style="stop-color:#7F7977"
   id="stop23" />
	</linearGradient>
	
		<rect
   x="43.956"
   y="530.659"
   fill="url(#SVGID_2_)"
   stroke="#231815"
   stroke-width="0.5"
   stroke-miterlimit="10"
   width="16.067"
   height="13.6"
   id="rect26" />
	
		<linearGradient
   id="SVGID_3_"
   gradientUnits="userSpaceOnUse"
   x1="32.9521"
   y1="501.5171"
   x2="32.9521"
   y2="535.6445"
   gradientTransform="matrix(1 0 0 -1 8.3398 1056.04)">
		<stop
   offset="0"
   style="stop-color:#7F7977"
   id="stop28" />
		<stop
   offset="0.2562"
   style="stop-color:#C9C6C5"
   id="stop30" />
		<stop
   offset="0.5369"
   style="stop-color:#F0EFEF"
   id="stop32" />
		<stop
   offset="0.803"
   style="stop-color:#C6C3C2"
   id="stop34" />
		<stop
   offset="1"
   style="stop-color:#7F7977"
   id="stop36" />
	</linearGradient>
	
		<rect
   x="38.629"
   y="520.396"
   fill="url(#SVGID_3_)"
   stroke="#231815"
   stroke-width="0.5"
   stroke-miterlimit="10"
   width="5.327"
   height="34.128"
   id="rect39" />
	
		<linearGradient
   id="SVGID_4_"
   gradientUnits="userSpaceOnUse"
   x1="-706.9985"
   y1="514.2495"
   x2="-706.9985"
   y2="522.9121"
   gradientTransform="matrix(-1 0 0 -1 -550.8594 1056.04)">
		<stop
   offset="0"
   style="stop-color:#7F7977"
   id="stop41" />
		<stop
   offset="0.2562"
   style="stop-color:#C9C6C5"
   id="stop43" />
		<stop
   offset="0.5369"
   style="stop-color:#F0EFEF"
   id="stop45" />
		<stop
   offset="0.803"
   style="stop-color:#C6C3C2"
   id="stop47" />
		<stop
   offset="1"
   style="stop-color:#7F7977"
   id="stop49" />
	</linearGradient>
	
		<rect
   x="150.043"
   y="533.128"
   fill="url(#SVGID_4_)"
   stroke="#231815"
   stroke-width="0.5"
   stroke-miterlimit="10"
   width="12.192"
   height="8.662"
   id="rect52" />
	
		<linearGradient
   id="SVGID_5_"
   gradientUnits="userSpaceOnUse"
   x1="-721.1274"
   y1="511.7808"
   x2="-721.1274"
   y2="525.3809"
   gradientTransform="matrix(-1 0 0 -1 -550.8594 1056.04)">
		<stop
   offset="0"
   style="stop-color:#7F7977"
   id="stop54" />
		<stop
   offset="0.2562"
   style="stop-color:#C9C6C5"
   id="stop56" />
		<stop
   offset="0.5369"
   style="stop-color:#F0EFEF"
   id="stop58" />
		<stop
   offset="0.803"
   style="stop-color:#C6C3C2"
   id="stop60" />
		<stop
   offset="1"
   style="stop-color:#7F7977"
   id="stop62" />
	</linearGradient>
	
		<rect
   x="162.235"
   y="530.659"
   fill="url(#SVGID_5_)"
   stroke="#231815"
   stroke-width="0.5"
   stroke-miterlimit="10"
   width="16.067"
   height="13.6"
   id="rect65" />
	
		<linearGradient
   id="SVGID_6_"
   gradientUnits="userSpaceOnUse"
   x1="-731.8257"
   y1="501.5161"
   x2="-731.8257"
   y2="535.6445"
   gradientTransform="matrix(-1 0 0 -1 -550.8594 1056.04)">
		<stop
   offset="0"
   style="stop-color:#7F7977"
   id="stop67" />
		<stop
   offset="0.2562"
   style="stop-color:#C9C6C5"
   id="stop69" />
		<stop
   offset="0.5369"
   style="stop-color:#F0EFEF"
   id="stop71" />
		<stop
   offset="0.803"
   style="stop-color:#C6C3C2"
   id="stop73" />
		<stop
   offset="1"
   style="stop-color:#7F7977"
   id="stop75" />
	</linearGradient>
	
		<rect
   x="178.303"
   y="520.396"
   fill="url(#SVGID_6_)"
   stroke="#231815"
   stroke-width="0.5"
   stroke-miterlimit="10"
   width="5.327"
   height="34.128"
   id="rect78" />
	<g
   id="g90">
		
			<rect
   x="84.97"
   y="459.016"
   fill="#ABC4ED"
   stroke="#231815"
   stroke-width="0.5"
   stroke-linecap="round"
   stroke-linejoin="round"
   stroke-miterlimit="10"
   width="52.319"
   height="52.318"
   id="rect80" />
		
			<path
   fill="#80A0CE"
   stroke="#231815"
   stroke-width="0.5"
   stroke-linecap="round"
   stroke-linejoin="round"
   stroke-miterlimit="10"
   d="    M137.289,485.175c0,14.45-11.71,26.159-26.16,26.159c-14.449,0-26.159-11.709-26.159-26.159c0-14.449,11.71-26.159,26.159-26.159    C125.579,459.016,137.289,470.726,137.289,485.175z"
   id="path82" />
		
			<path
   fill="#98B2E5"
   stroke="#231815"
   stroke-width="0.5"
   stroke-linecap="round"
   stroke-linejoin="round"
   stroke-miterlimit="10"
   d="    M135.036,488.293v-6.237h-7.053c-0.444-2.414-1.387-4.65-2.728-6.598l4.983-4.983l-4.411-4.409l-4.982,4.982    c-1.947-1.342-4.185-2.282-6.598-2.728v-7.053h-6.237v7.053c-2.415,0.444-4.651,1.387-6.599,2.728l-4.983-4.981l-4.409,4.408    l4.983,4.983c-1.341,1.946-2.283,4.184-2.728,6.599h-7.053v6.235h7.053c0.444,2.415,1.386,4.652,2.728,6.6l-4.983,4.982    l4.409,4.41l4.983-4.983c1.947,1.342,4.184,2.284,6.599,2.729v7.053h6.237v-7.053c2.413-0.444,4.651-1.388,6.598-2.729    l4.982,4.983l4.411-4.411l-4.983-4.982c1.341-1.945,2.283-4.185,2.728-6.599H135.036z"
   id="path84" />
		
			<circle
   fill="#98B2E5"
   stroke="#231815"
   stroke-width="0.5"
   stroke-linecap="round"
   stroke-linejoin="round"
   stroke-miterlimit="10"
   cx="111.129"
   cy="485.175"
   r="9.875"
   id="circle86" />
		
			<circle
   fill="#ABC4ED"
   stroke="#231815"
   stroke-width="0.5"
   stroke-linecap="round"
   stroke-linejoin="round"
   stroke-miterlimit="10"
   cx="111.129"
   cy="485.175"
   r="4.332"
   id="circle88" />
	</g>
	
		<rect
   x="101.255"
   y="511.334"
   fill="#80A0CE"
   stroke="#231815"
   stroke-width="0.5"
   stroke-linecap="round"
   stroke-linejoin="round"
   stroke-miterlimit="10"
   width="19.749"
   height="9.971"
   id="rect92" />
	
		<rect
   x="99.305"
   y="521.305"
   fill="#80A0CE"
   stroke="#231815"
   stroke-width="0.5"
   stroke-linecap="round"
   stroke-linejoin="round"
   stroke-miterlimit="10"
   width="23.649"
   height="5.197"
   id="rect94" />
	
		<polygon
   fill="#80A0CE"
   stroke="#231815"
   stroke-width="0.5"
   stroke-linecap="round"
   stroke-linejoin="round"
   stroke-miterlimit="10"
   points="   150.043,526.502 72.216,526.502 72.216,552.357 73.71,552.357 73.71,556.516 75.799,556.516 75.799,562.752 79.771,562.752    79.771,568.988 83.603,568.988 83.603,575.226 86.44,575.226 86.44,581.462 135.818,581.462 135.818,575.226 138.656,575.226    138.656,568.988 142.487,568.988 142.487,562.752 146.46,562.752 146.46,556.516 148.549,556.516 148.549,552.357 150.043,552.357     "
   id="polygon96" />
	
		<line
   fill="none"
   stroke="#231815"
   stroke-width="0.5"
   stroke-linecap="round"
   stroke-linejoin="round"
   stroke-miterlimit="10"
   x1="73.71"
   y1="552.357"
   x2="148.549"
   y2="552.357"
   id="line98" />
	
		<line
   fill="none"
   stroke="#231815"
   stroke-width="0.5"
   stroke-linecap="round"
   stroke-linejoin="round"
   stroke-miterlimit="10"
   x1="75.799"
   y1="556.516"
   x2="146.46"
   y2="556.516"
   id="line100" />
	
		<line
   fill="none"
   stroke="#231815"
   stroke-width="0.5"
   stroke-linecap="round"
   stroke-linejoin="round"
   stroke-miterlimit="10"
   x1="79.771"
   y1="562.752"
   x2="142.487"
   y2="562.752"
   id="line102" />
	
		<line
   fill="none"
   stroke="#231815"
   stroke-width="0.5"
   stroke-linecap="round"
   stroke-linejoin="round"
   stroke-miterlimit="10"
   x1="83.603"
   y1="568.988"
   x2="138.656"
   y2="568.988"
   id="line104" />
	
		<line
   fill="none"
   stroke="#231815"
   stroke-width="0.5"
   stroke-linecap="round"
   stroke-linejoin="round"
   stroke-miterlimit="10"
   x1="86.44"
   y1="575.226"
   x2="135.818"
   y2="575.226"
   id="line106" />
</g>
</svg>
