<?xml version="1.0" encoding="UTF-8" standalone="no"?>
<svg
   xmlns:dc="http://purl.org/dc/elements/1.1/"
   xmlns:cc="http://creativecommons.org/ns#"
   xmlns:rdf="http://www.w3.org/1999/02/22-rdf-syntax-ns#"
   xmlns:svg="http://www.w3.org/2000/svg"
   xmlns="http://www.w3.org/2000/svg"
   xmlns:sodipodi="http://sodipodi.sourceforge.net/DTD/sodipodi-0.dtd"
   xmlns:inkscape="http://www.inkscape.org/namespaces/inkscape"
   version="1.1"
   id="图层_1"
   x="0px"
   y="0px"
   width="120.178px"
   height="38.648px"
   viewBox="38.379 655.984 120.178 38.648"
   enable-background="new 38.379 655.984 120.178 38.648"
   xml:space="preserve"
   sodipodi:docname="食物生产-23.svg"><metadata
   id="metadata33"><rdf:RDF><cc:Work
       rdf:about=""><dc:format>image/svg+xml</dc:format><dc:type
         rdf:resource="http://purl.org/dc/dcmitype/StillImage" /></cc:Work></rdf:RDF></metadata><defs
   id="defs31" /><sodipodi:namedview
   pagecolor="#ffffff"
   bordercolor="#666666"
   borderopacity="1"
   objecttolerance="10"
   gridtolerance="10"
   guidetolerance="10"
   inkscape:pageopacity="0"
   inkscape:pageshadow="2"
   inkscape:window-width="640"
   inkscape:window-height="480"
   id="namedview29" />
<g
   id="g26">
	<polygon
   fill="#5579A5"
   stroke="#231815"
   stroke-width="0.5"
   stroke-miterlimit="10"
   points="125.149,692.273 147.699,673.547    151.175,657.672 128.788,668.049  "
   id="polygon2" />
	
		<polygon
   fill="#5579A5"
   stroke="#231815"
   stroke-width="0.5"
   stroke-linecap="round"
   stroke-linejoin="round"
   stroke-miterlimit="10"
   points="   57.106,693.383 77.103,669.703 83.132,659.709 60.745,669.158  "
   id="polygon4" />
	<polygon
   fill="#5579A5"
   points="64.947,657.299 64.947,668.049 60.678,668.049 41.641,668.049  "
   id="polygon6" />
	
		<polygon
   fill="#ACC8EA"
   stroke="#231815"
   stroke-width="0.5"
   stroke-linecap="round"
   stroke-linejoin="round"
   stroke-miterlimit="10"
   points="   88.571,656.234 67.307,666.035 67.307,656.234  "
   id="polygon8" />
	
		<polygon
   fill="#ACC8EA"
   stroke="#231815"
   stroke-width="0.5"
   stroke-linecap="round"
   stroke-linejoin="round"
   stroke-miterlimit="10"
   points="   41.641,668.049 38.629,668.049 64.078,656.234 67.307,656.234  "
   id="polygon10" />
	
		<polygon
   fill="#ACC8EA"
   stroke="#231815"
   stroke-width="0.5"
   stroke-linecap="round"
   stroke-linejoin="round"
   stroke-miterlimit="10"
   points="   128.974,668.049 66.48,668.049 91.755,656.234 154.248,656.234  "
   id="polygon12" />
	
		<path
   fill="#99B8DD"
   stroke="#231815"
   stroke-width="0.5"
   stroke-linecap="round"
   stroke-linejoin="round"
   stroke-miterlimit="10"
   d="   M41.641,668.049l3.259,23.58c0.292,1.576,1.859,2.754,3.524,2.754h6.231c1.665,0,3.234-1.178,3.525-2.754l2.533-19.662   l2.288,17.933c0.48,2.506,2.886,4.483,5.387,4.483h52.515c2.499,0,4.905-1.979,5.386-4.483l2.571-19.412   c0.166-0.871,0.128-1.697-0.072-2.438H41.641L41.641,668.049z"
   id="path14" />
	<polygon
   fill="#7DA2C6"
   points="67.307,667.736 64.275,667.736 64.275,657.924 67.307,656.408  "
   id="polygon16" />
	<polygon
   fill="#5579A5"
   points="91.393,657.299 91.662,667.779 68.355,667.779  "
   id="polygon18" />
	<polygon
   fill="#7DA2C6"
   points="93.752,667.736 90.721,667.736 90.721,657.924 93.752,656.408  "
   id="polygon20" />
	
		<polygon
   fill="#ACC8EA"
   stroke="#231815"
   stroke-width="0.5"
   stroke-linecap="round"
   stroke-linejoin="round"
   stroke-miterlimit="10"
   points="   67.922,668.049 62.935,668.049 88.571,656.234 93.822,656.234  "
   id="polygon22" />
	
		<polygon
   fill="#ACC8EA"
   stroke="#231815"
   stroke-width="0.5"
   stroke-linecap="round"
   stroke-linejoin="round"
   stroke-miterlimit="10"
   points="   133.952,668.049 128.965,668.049 154.248,656.234 158.307,656.234  "
   id="polygon24" />
</g>
</svg>
