<?xml version="1.0" encoding="UTF-8" standalone="no"?>
<svg
   xmlns:dc="http://purl.org/dc/elements/1.1/"
   xmlns:cc="http://creativecommons.org/ns#"
   xmlns:rdf="http://www.w3.org/1999/02/22-rdf-syntax-ns#"
   xmlns:svg="http://www.w3.org/2000/svg"
   xmlns="http://www.w3.org/2000/svg"
   xmlns:sodipodi="http://sodipodi.sourceforge.net/DTD/sodipodi-0.dtd"
   xmlns:inkscape="http://www.inkscape.org/namespaces/inkscape"
   version="1.1"
   id="图层_1"
   x="0px"
   y="0px"
   width="50.825px"
   height="74.867px"
   viewBox="416.606 71.451 50.825 74.867"
   enable-background="new 416.606 71.451 50.825 74.867"
   xml:space="preserve"
   sodipodi:docname="食物生产-05.svg"><metadata
   id="metadata62"><rdf:RDF><cc:Work
       rdf:about=""><dc:format>image/svg+xml</dc:format><dc:type
         rdf:resource="http://purl.org/dc/dcmitype/StillImage" /></cc:Work></rdf:RDF></metadata><defs
   id="defs60" /><sodipodi:namedview
   pagecolor="#ffffff"
   bordercolor="#666666"
   borderopacity="1"
   objecttolerance="10"
   gridtolerance="10"
   guidetolerance="10"
   inkscape:pageopacity="0"
   inkscape:pageshadow="2"
   inkscape:window-width="640"
   inkscape:window-height="480"
   id="namedview58" />
<g
   id="g55">
	<path
   fill="#969696"
   stroke="#1B1B1B"
   stroke-width="0.5"
   stroke-miterlimit="10"
   d="M466.209,75.964h-0.786   c0-2.354-9.832-4.263-21.962-4.263c-12.129,0-21.96,1.909-21.96,4.263h-0.785c-0.537,0-0.973,0.436-0.973,0.973   s0.436,0.973,0.973,0.973h1.729l5.997,32.997l-1.405,2.841h1.922l3.034,16.695h22.937l3.035-16.695h1.923l-1.405-2.842   l5.997-32.995h1.729c0.537,0,0.973-0.436,0.973-0.973S466.746,75.964,466.209,75.964z"
   id="path2" />
	
		<line
   fill="none"
   stroke="#1B1B1B"
   stroke-width="0.5"
   stroke-miterlimit="10"
   x1="428.959"
   y1="113.748"
   x2="457.965"
   y2="113.748"
   id="line4" />
	
		<line
   fill="none"
   stroke="#1B1B1B"
   stroke-width="0.5"
   stroke-miterlimit="10"
   x1="458.481"
   y1="110.905"
   x2="428.442"
   y2="110.907"
   id="line6" />
	<line
   fill="none"
   stroke="#1B1B1B"
   stroke-width="0.5"
   stroke-miterlimit="10"
   x1="422.445"
   y1="77.91"
   x2="464.479"
   y2="77.91"
   id="line8" />
	
		<line
   fill="none"
   stroke="#1B1B1B"
   stroke-width="0.5"
   stroke-miterlimit="10"
   x1="421.501"
   y1="75.964"
   x2="465.423"
   y2="75.964"
   id="line10" />
	<g
   id="g16">
		<circle
   fill="#6F6F6F"
   stroke="#1B1B1B"
   stroke-width="0.5"
   stroke-miterlimit="10"
   cx="435.094"
   cy="100.178"
   r="3.152"
   id="circle12" />
		<circle
   fill="#555555"
   stroke="#1B1B1B"
   stroke-width="0.5"
   stroke-miterlimit="10"
   cx="435.094"
   cy="100.178"
   r="1.909"
   id="circle14" />
	</g>
	<g
   id="g22">
		<circle
   fill="#6F6F6F"
   stroke="#1B1B1B"
   stroke-width="0.5"
   stroke-miterlimit="10"
   cx="438.67"
   cy="123.95"
   r="3.152"
   id="circle18" />
		<circle
   fill="#555555"
   stroke="#1B1B1B"
   stroke-width="0.5"
   stroke-miterlimit="10"
   cx="438.67"
   cy="123.95"
   r="1.908"
   id="circle20" />
	</g>
	
		<linearGradient
   id="SVGID_1_"
   gradientUnits="userSpaceOnUse"
   x1="419.665"
   y1="917.7852"
   x2="450.5791"
   y2="917.7852"
   gradientTransform="matrix(1 0 0 -1 8.3398 1056.04)">
		<stop
   offset="0"
   style="stop-color:#555555"
   id="stop24" />
		<stop
   offset="0.3202"
   style="stop-color:#838383"
   id="stop26" />
		<stop
   offset="0.5369"
   style="stop-color:#969696"
   id="stop28" />
		<stop
   offset="0.7734"
   style="stop-color:#797979"
   id="stop30" />
		<stop
   offset="1"
   style="stop-color:#555555"
   id="stop32" />
	</linearGradient>
	<path
   fill="url(#SVGID_1_)"
   stroke="#1B1B1B"
   stroke-width="0.5"
   stroke-miterlimit="10"
   d="M458.919,133.601h-3.989v-3.158   h-22.937v3.158h-3.988v5.391h3.988v4.219c0,1.578,5.135,2.857,11.468,2.857c6.335,0,11.469-1.279,11.469-2.857v-4.219h3.989   V133.601L458.919,133.601z"
   id="path35" />
	
		<line
   fill="none"
   stroke="#1B1B1B"
   stroke-width="0.5"
   stroke-miterlimit="10"
   x1="431.993"
   y1="133.601"
   x2="454.93"
   y2="133.601"
   id="line37" />
	
		<line
   fill="none"
   stroke="#1B1B1B"
   stroke-width="0.5"
   stroke-miterlimit="10"
   x1="454.93"
   y1="138.992"
   x2="431.993"
   y2="138.992"
   id="line39" />
	<path
   fill="#969696"
   stroke="#1B1B1B"
   stroke-width="0.5"
   stroke-miterlimit="10"
   d="M438.247,128.579   c0-0.966-0.782-1.75-1.747-1.75c-0.389,0-0.743,0.131-1.033,0.345l-0.003-0.003l-16.638,8.524l4.206,6.132l14.643-11.956   l-0.003-0.004C438.023,129.548,438.247,129.091,438.247,128.579z"
   id="path41" />
	<circle
   fill="#969696"
   stroke="#1B1B1B"
   stroke-width="0.5"
   stroke-miterlimit="10"
   cx="420.597"
   cy="138.992"
   r="3.741"
   id="circle43" />
	<path
   fill="#969696"
   stroke="#1B1B1B"
   stroke-width="0.5"
   stroke-miterlimit="10"
   d="M424.409,132.841   c0.438-0.238,0.939-0.373,1.475-0.373c1.708,0,3.092,1.385,3.092,3.093c0,0.783-0.291,1.499-0.771,2.043"
   id="path45" />
	
		<line
   fill="none"
   stroke="#1B1B1B"
   stroke-width="0.5"
   stroke-miterlimit="10"
   x1="426.948"
   y1="132.66"
   x2="436.993"
   y2="127.102"
   id="line47" />
	
		<line
   fill="none"
   stroke="#1B1B1B"
   stroke-width="0.5"
   stroke-miterlimit="10"
   x1="428.193"
   y1="133.508"
   x2="437.653"
   y2="127.274"
   id="line49" />
	
		<line
   fill="none"
   stroke="#1B1B1B"
   stroke-width="0.5"
   stroke-miterlimit="10"
   x1="428.976"
   y1="134.677"
   x2="438.083"
   y2="127.849"
   id="line51" />
	
		<line
   fill="none"
   stroke="#1B1B1B"
   stroke-width="0.5"
   stroke-miterlimit="10"
   x1="428.976"
   y1="136.024"
   x2="438.247"
   y2="128.579"
   id="line53" />
</g>
</svg>
