<?xml version="1.0" encoding="UTF-8" standalone="no"?>
<svg
   xmlns:dc="http://purl.org/dc/elements/1.1/"
   xmlns:cc="http://creativecommons.org/ns#"
   xmlns:rdf="http://www.w3.org/1999/02/22-rdf-syntax-ns#"
   xmlns:svg="http://www.w3.org/2000/svg"
   xmlns="http://www.w3.org/2000/svg"
   xmlns:sodipodi="http://sodipodi.sourceforge.net/DTD/sodipodi-0.dtd"
   xmlns:inkscape="http://www.inkscape.org/namespaces/inkscape"
   version="1.1"
   id="图层_1"
   x="0px"
   y="0px"
   width="91.315px"
   height="90.546px"
   viewBox="38.626 180.84 91.315 90.546"
   enable-background="new 38.626 180.84 91.315 90.546"
   xml:space="preserve"
   sodipodi:docname="食物生产-08.svg"><metadata
   id="metadata121"><rdf:RDF><cc:Work
       rdf:about=""><dc:format>image/svg+xml</dc:format><dc:type
         rdf:resource="http://purl.org/dc/dcmitype/StillImage" /></cc:Work></rdf:RDF></metadata><defs
   id="defs119" /><sodipodi:namedview
   pagecolor="#ffffff"
   bordercolor="#666666"
   borderopacity="1"
   objecttolerance="10"
   gridtolerance="10"
   guidetolerance="10"
   inkscape:pageopacity="0"
   inkscape:pageshadow="2"
   inkscape:window-width="640"
   inkscape:window-height="480"
   id="namedview117" />
<g
   id="g114">
	
		<rect
   x="108.063"
   y="245.329"
   fill="#BBBCBC"
   stroke="#231815"
   stroke-width="0.5"
   stroke-miterlimit="10"
   width="18.211"
   height="13.155"
   id="rect2" />
	
		<linearGradient
   id="SVGID_1_"
   gradientUnits="userSpaceOnUse"
   x1="119.6416"
   y1="793.1064"
   x2="119.6416"
   y2="815.1621"
   gradientTransform="matrix(1 0 0 -1 8.3398 1056.04)">
		<stop
   offset="0"
   style="stop-color:#2B5D99"
   id="stop4" />
		<stop
   offset="0.3202"
   style="stop-color:#5B89CD"
   id="stop6" />
		<stop
   offset="0.5369"
   style="stop-color:#90B2E9"
   id="stop8" />
		<stop
   offset="0.7734"
   style="stop-color:#5180C2"
   id="stop10" />
		<stop
   offset="1"
   style="stop-color:#2B5D99"
   id="stop12" />
	</linearGradient>
	
		<rect
   x="126.273"
   y="240.878"
   fill="url(#SVGID_1_)"
   stroke="#231815"
   stroke-width="0.5"
   stroke-miterlimit="10"
   width="3.418"
   height="22.055"
   id="rect15" />
	<polygon
   fill="#2F619E"
   stroke="#231815"
   stroke-width="0.5"
   stroke-miterlimit="10"
   points="108.293,264.756 78.604,253.066    48.916,264.756 42.939,234.404 114.268,234.404  "
   id="polygon17" />
	<g
   id="g81">
		
			<linearGradient
   id="SVGID_2_"
   gradientUnits="userSpaceOnUse"
   x1="80.8481"
   y1="861.8613"
   x2="107.6084"
   y2="861.8613"
   gradientTransform="matrix(1 0 0 -1 8.3398 1056.04)">
			<stop
   offset="0"
   style="stop-color:#2B5D99"
   id="stop19" />
			<stop
   offset="0.3202"
   style="stop-color:#5B89CD"
   id="stop21" />
			<stop
   offset="0.5369"
   style="stop-color:#90B2E9"
   id="stop23" />
			<stop
   offset="0.7734"
   style="stop-color:#5180C2"
   id="stop25" />
			<stop
   offset="1"
   style="stop-color:#2B5D99"
   id="stop27" />
		</linearGradient>
		
			<rect
   x="89.188"
   y="187.601"
   fill="url(#SVGID_2_)"
   stroke="#231815"
   stroke-width="0.5"
   stroke-miterlimit="10"
   width="26.76"
   height="13.157"
   id="rect30" />
		
			<linearGradient
   id="SVGID_3_"
   gradientUnits="userSpaceOnUse"
   x1="30.5361"
   y1="835.2227"
   x2="109.9922"
   y2="835.2227"
   gradientTransform="matrix(1 0 0 -1 8.3398 1056.04)">
			<stop
   offset="0"
   style="stop-color:#2B5D99"
   id="stop32" />
			<stop
   offset="0.3202"
   style="stop-color:#5B89CD"
   id="stop34" />
			<stop
   offset="0.5369"
   style="stop-color:#90B2E9"
   id="stop36" />
			<stop
   offset="0.7734"
   style="stop-color:#5180C2"
   id="stop38" />
			<stop
   offset="1"
   style="stop-color:#2B5D99"
   id="stop40" />
		</linearGradient>
		<circle
   fill="url(#SVGID_3_)"
   stroke="#231815"
   stroke-width="0.5"
   stroke-miterlimit="10"
   cx="78.604"
   cy="220.818"
   r="39.728"
   id="circle43" />
		<rect
   x="77.188"
   y="183.15"
   fill="#FFFFFF"
   width="2.834"
   height="2.834"
   id="rect45" />
		
			<rect
   x="64.788"
   y="185.345"
   transform="matrix(-0.9397 0.3421 -0.3421 -0.9397 192.3091 339.6044)"
   fill="#FFFFFF"
   width="2.833"
   height="2.834"
   id="rect47" />
		
			<rect
   x="53.889"
   y="191.636"
   transform="matrix(-0.7659 0.643 -0.643 -0.7659 221.7912 305.3504)"
   fill="#FFFFFF"
   width="2.833"
   height="2.834"
   id="rect49" />
		
			<rect
   x="45.793"
   y="201.273"
   transform="matrix(-0.5001 0.8659 -0.8659 -0.5001 246.3413 263.1812)"
   fill="#FFFFFF"
   width="2.835"
   height="2.833"
   id="rect51" />
		
			<rect
   x="41.488"
   y="213.114"
   transform="matrix(-0.1739 0.9848 -0.9848 -0.1739 261.6281 209.5778)"
   fill="#FFFFFF"
   width="2.834"
   height="2.834"
   id="rect53" />
		
			<rect
   x="41.488"
   y="225.704"
   transform="matrix(0.1736 0.9848 -0.9848 0.1736 259.1266 145.4309)"
   fill="#FFFFFF"
   width="2.835"
   height="2.834"
   id="rect55" />
		
			<rect
   x="45.785"
   y="237.537"
   transform="matrix(0.5002 0.8659 -0.8659 0.5002 230.5018 78.5537)"
   fill="#FFFFFF"
   width="2.835"
   height="2.835"
   id="rect57" />
		
			<rect
   x="53.887"
   y="247.167"
   transform="matrix(0.7659 0.643 -0.643 0.7659 172.7905 22.643)"
   fill="#FFFFFF"
   width="2.834"
   height="2.833"
   id="rect59" />
		
			<rect
   x="64.798"
   y="253.463"
   transform="matrix(0.9396 0.3423 -0.3423 0.9396 91.2523 -7.2675)"
   fill="#FFFFFF"
   width="2.833"
   height="2.834"
   id="rect61" />
		<rect
   x="77.188"
   y="255.651"
   fill="#FFFFFF"
   width="2.834"
   height="2.833"
   id="rect63" />
		
			<rect
   x="89.595"
   y="253.459"
   transform="matrix(0.9398 -0.3417 0.3417 0.9398 -81.6102 46.438)"
   fill="#FFFFFF"
   width="2.835"
   height="2.834"
   id="rect65" />
		
			<rect
   x="100.479"
   y="247.18"
   transform="matrix(0.7663 -0.6425 0.6425 0.7663 -135.9015 123.5543)"
   fill="#FFFFFF"
   width="2.834"
   height="2.834"
   id="rect67" />
		
			<rect
   x="108.59"
   y="237.536"
   transform="matrix(0.4998 -0.8661 0.8661 0.4998 -151.94 214.7912)"
   fill="#FFFFFF"
   width="2.833"
   height="2.834"
   id="rect69" />
		
			<rect
   x="112.889"
   y="225.701"
   transform="matrix(0.1737 -0.9848 0.9848 0.1737 -129.2172 300.2288)"
   fill="#FFFFFF"
   width="2.833"
   height="2.834"
   id="rect71" />
		
			<rect
   x="112.887"
   y="213.106"
   transform="matrix(-0.1737 -0.9848 0.9848 -0.1737 -77.1085 364.3464)"
   fill="#FFFFFF"
   width="2.834"
   height="2.834"
   id="rect73" />
		
			<rect
   x="108.574"
   y="201.285"
   transform="matrix(-0.4998 -0.8662 0.8662 -0.4998 -10.6101 399.2757)"
   fill="#FFFFFF"
   width="2.833"
   height="2.834"
   id="rect75" />
		
			<rect
   x="100.491"
   y="191.637"
   transform="matrix(-0.7659 -0.643 0.643 -0.7659 55.8223 406.4346)"
   fill="#FFFFFF"
   width="2.833"
   height="2.834"
   id="rect77" />
		
			<rect
   x="89.579"
   y="185.338"
   transform="matrix(-0.9396 -0.3423 0.3423 -0.9396 112.563 393.3774)"
   fill="#FFFFFF"
   width="2.833"
   height="2.834"
   id="rect79" />
	</g>
	
		<rect
   x="114.305"
   y="185.663"
   fill="#BBBCBC"
   stroke="#231815"
   stroke-width="0.5"
   stroke-miterlimit="10"
   width="2.385"
   height="17.03"
   id="rect83" />
	
		<rect
   x="116.689"
   y="187.601"
   fill="#BBBCBC"
   stroke="#231815"
   stroke-width="0.5"
   stroke-miterlimit="10"
   width="9.584"
   height="13.155"
   id="rect85" />
	
		<linearGradient
   id="SVGID_4_"
   gradientUnits="userSpaceOnUse"
   x1="119.6416"
   y1="850.834"
   x2="119.6416"
   y2="872.8896"
   gradientTransform="matrix(1 0 0 -1 8.3398 1056.04)">
		<stop
   offset="0"
   style="stop-color:#2B5D99"
   id="stop87" />
		<stop
   offset="0.3202"
   style="stop-color:#5B89CD"
   id="stop89" />
		<stop
   offset="0.5369"
   style="stop-color:#90B2E9"
   id="stop91" />
		<stop
   offset="0.7734"
   style="stop-color:#5180C2"
   id="stop93" />
		<stop
   offset="1"
   style="stop-color:#2B5D99"
   id="stop95" />
	</linearGradient>
	
		<rect
   x="126.273"
   y="183.15"
   fill="url(#SVGID_4_)"
   stroke="#231815"
   stroke-width="0.5"
   stroke-miterlimit="10"
   width="3.418"
   height="22.055"
   id="rect98" />
	<g
   id="g104">
		
			<rect
   x="53.307"
   y="215.344"
   fill="#E5E5E5"
   stroke="#231815"
   stroke-width="0.5"
   stroke-miterlimit="10"
   width="9.631"
   height="10.947"
   id="rect100" />
		
			<rect
   x="65.039"
   y="215.344"
   fill="#E5E5E5"
   stroke="#231815"
   stroke-width="0.5"
   stroke-miterlimit="10"
   width="9.629"
   height="10.947"
   id="rect102" />
	</g>
	<polygon
   fill="#CCCCCC"
   stroke="#231815"
   stroke-width="0.5"
   stroke-miterlimit="10"
   points="99.85,237.975 86.809,237.975    82.756,220.089 86.809,203.66 99.85,203.66 103.902,219.923  "
   id="polygon106" />
	<polygon
   fill="#2F619E"
   stroke="#231815"
   stroke-width="0.5"
   stroke-miterlimit="10"
   points="89.205,234.975 85.838,220.118    89.158,206.66 97.506,206.66 100.82,219.959 97.447,234.975  "
   id="polygon108" />
	<polygon
   fill="#7DA3DF"
   stroke="#231815"
   stroke-width="0.5"
   stroke-miterlimit="10"
   points="52.43,256.698 52.43,269.136    39.992,269.136 39.992,271.136 54.43,271.136 54.43,256.698  "
   id="polygon110" />
	<polygon
   fill="#7DA3DF"
   stroke="#231815"
   stroke-width="0.5"
   stroke-miterlimit="10"
   points="104.779,256.698 104.779,269.136    117.217,269.136 117.217,271.136 102.779,271.136 102.779,256.698  "
   id="polygon112" />
</g>
</svg>
