<?xml version="1.0" encoding="UTF-8" standalone="no"?>
<svg
   xmlns:dc="http://purl.org/dc/elements/1.1/"
   xmlns:cc="http://creativecommons.org/ns#"
   xmlns:rdf="http://www.w3.org/1999/02/22-rdf-syntax-ns#"
   xmlns:svg="http://www.w3.org/2000/svg"
   xmlns="http://www.w3.org/2000/svg"
   xmlns:sodipodi="http://sodipodi.sourceforge.net/DTD/sodipodi-0.dtd"
   xmlns:inkscape="http://www.inkscape.org/namespaces/inkscape"
   version="1.1"
   id="图层_1"
   x="0px"
   y="0px"
   width="91.315px"
   height="90.546px"
   viewBox="164.182 180.84 91.315 90.546"
   enable-background="new 164.182 180.84 91.315 90.546"
   xml:space="preserve"
   sodipodi:docname="食物生产-09.svg"><metadata
   id="metadata121"><rdf:RDF><cc:Work
       rdf:about=""><dc:format>image/svg+xml</dc:format><dc:type
         rdf:resource="http://purl.org/dc/dcmitype/StillImage" /></cc:Work></rdf:RDF></metadata><defs
   id="defs119" /><sodipodi:namedview
   pagecolor="#ffffff"
   bordercolor="#666666"
   borderopacity="1"
   objecttolerance="10"
   gridtolerance="10"
   guidetolerance="10"
   inkscape:pageopacity="0"
   inkscape:pageshadow="2"
   inkscape:window-width="640"
   inkscape:window-height="480"
   id="namedview117" />
<g
   id="g114">
	
		<rect
   x="233.618"
   y="245.329"
   fill="#BCBCBC"
   stroke="#1B1B1B"
   stroke-width="0.5"
   stroke-miterlimit="10"
   width="18.211"
   height="13.155"
   id="rect2" />
	
		<linearGradient
   id="SVGID_1_"
   gradientUnits="userSpaceOnUse"
   x1="245.1978"
   y1="793.1064"
   x2="245.1978"
   y2="815.1621"
   gradientTransform="matrix(1 0 0 -1 8.3398 1056.04)">
		<stop
   offset="0"
   style="stop-color:#555555"
   id="stop4" />
		<stop
   offset="0.3202"
   style="stop-color:#838383"
   id="stop6" />
		<stop
   offset="0.5369"
   style="stop-color:#AEAEAE"
   id="stop8" />
		<stop
   offset="0.7734"
   style="stop-color:#797979"
   id="stop10" />
		<stop
   offset="1"
   style="stop-color:#555555"
   id="stop12" />
	</linearGradient>
	
		<rect
   x="251.829"
   y="240.878"
   fill="url(#SVGID_1_)"
   stroke="#1B1B1B"
   stroke-width="0.5"
   stroke-miterlimit="10"
   width="3.418"
   height="22.055"
   id="rect15" />
	<polygon
   fill="#595959"
   stroke="#1B1B1B"
   stroke-width="0.5"
   stroke-miterlimit="10"
   points="233.849,264.756 204.159,253.066    174.472,264.756 168.495,234.404 239.823,234.404  "
   id="polygon17" />
	<g
   id="g81">
		
			<linearGradient
   id="SVGID_2_"
   gradientUnits="userSpaceOnUse"
   x1="206.4033"
   y1="861.8613"
   x2="233.1631"
   y2="861.8613"
   gradientTransform="matrix(1 0 0 -1 8.3398 1056.04)">
			<stop
   offset="0"
   style="stop-color:#555555"
   id="stop19" />
			<stop
   offset="0.3202"
   style="stop-color:#838383"
   id="stop21" />
			<stop
   offset="0.5369"
   style="stop-color:#AEAEAE"
   id="stop23" />
			<stop
   offset="0.7734"
   style="stop-color:#797979"
   id="stop25" />
			<stop
   offset="1"
   style="stop-color:#555555"
   id="stop27" />
		</linearGradient>
		
			<rect
   x="214.743"
   y="187.601"
   fill="url(#SVGID_2_)"
   stroke="#1B1B1B"
   stroke-width="0.5"
   stroke-miterlimit="10"
   width="26.76"
   height="13.157"
   id="rect30" />
		
			<linearGradient
   id="SVGID_3_"
   gradientUnits="userSpaceOnUse"
   x1="156.0923"
   y1="835.2227"
   x2="235.5483"
   y2="835.2227"
   gradientTransform="matrix(1 0 0 -1 8.3398 1056.04)">
			<stop
   offset="0"
   style="stop-color:#555555"
   id="stop32" />
			<stop
   offset="0.3202"
   style="stop-color:#838383"
   id="stop34" />
			<stop
   offset="0.5369"
   style="stop-color:#AEAEAE"
   id="stop36" />
			<stop
   offset="0.7734"
   style="stop-color:#797979"
   id="stop38" />
			<stop
   offset="1"
   style="stop-color:#555555"
   id="stop40" />
		</linearGradient>
		<circle
   fill="url(#SVGID_3_)"
   stroke="#1B1B1B"
   stroke-width="0.5"
   stroke-miterlimit="10"
   cx="204.16"
   cy="220.818"
   r="39.728"
   id="circle43" />
		<rect
   x="202.743"
   y="183.15"
   fill="#FFFFFF"
   width="2.834"
   height="2.834"
   id="rect45" />
		
			<rect
   x="190.349"
   y="185.347"
   transform="matrix(-0.9397 0.3421 -0.3421 -0.9397 435.8544 296.6528)"
   fill="#FFFFFF"
   width="2.833"
   height="2.834"
   id="rect47" />
		
			<rect
   x="179.448"
   y="191.636"
   transform="matrix(-0.7659 0.643 -0.643 -0.7659 443.5143 224.6166)"
   fill="#FFFFFF"
   width="2.833"
   height="2.834"
   id="rect49" />
		
			<rect
   x="171.347"
   y="201.274"
   transform="matrix(-0.5002 0.8659 -0.8659 -0.5002 434.6935 154.4828)"
   fill="#FFFFFF"
   width="2.835"
   height="2.833"
   id="rect51" />
		
			<rect
   x="167.048"
   y="213.114"
   transform="matrix(-0.1737 0.9848 -0.9848 -0.1737 408.9931 85.8824)"
   fill="#FFFFFF"
   width="2.834"
   height="2.834"
   id="rect53" />
		
			<rect
   x="167.048"
   y="225.705"
   transform="matrix(0.1736 0.9848 -0.9848 0.1736 362.8917 21.7848)"
   fill="#FFFFFF"
   width="2.835"
   height="2.834"
   id="rect55" />
		
			<rect
   x="171.345"
   y="237.543"
   transform="matrix(0.5001 0.8659 -0.8659 0.5001 293.2831 -30.1562)"
   fill="#FFFFFF"
   width="2.835"
   height="2.835"
   id="rect57" />
		
			<rect
   x="179.44"
   y="247.166"
   transform="matrix(0.7658 0.6431 -0.6431 0.7658 202.228 -58.0867)"
   fill="#FFFFFF"
   width="2.834"
   height="2.833"
   id="rect59" />
		
			<rect
   x="190.354"
   y="253.459"
   transform="matrix(0.9396 0.3423 -0.3423 0.9396 98.8187 -50.243)"
   fill="#FFFFFF"
   width="2.833"
   height="2.834"
   id="rect61" />
		<rect
   x="202.743"
   y="255.651"
   fill="#FFFFFF"
   width="2.834"
   height="2.833"
   id="rect63" />
		
			<rect
   x="215.151"
   y="253.453"
   transform="matrix(0.9398 -0.3417 0.3417 0.9398 -74.0612 89.3555)"
   fill="#FFFFFF"
   width="2.835"
   height="2.834"
   id="rect65" />
		
			<rect
   x="226.038"
   y="247.187"
   transform="matrix(0.7663 -0.6425 0.6425 0.7663 -106.5657 204.2212)"
   fill="#FFFFFF"
   width="2.834"
   height="2.834"
   id="rect67" />
		
			<rect
   x="234.152"
   y="237.533"
   transform="matrix(0.4998 -0.8661 0.8661 0.4998 -89.1377 323.541)"
   fill="#FFFFFF"
   width="2.833"
   height="2.834"
   id="rect69" />
		
			<rect
   x="238.448"
   y="225.702"
   transform="matrix(0.1737 -0.9848 0.9848 0.1737 -25.4723 423.8796)"
   fill="#FFFFFF"
   width="2.833"
   height="2.834"
   id="rect71" />
		
			<rect
   x="238.443"
   y="213.106"
   transform="matrix(-0.1737 -0.9848 0.9848 -0.1737 70.2527 487.9947)"
   fill="#FFFFFF"
   width="2.834"
   height="2.834"
   id="rect73" />
		
			<rect
   x="234.134"
   y="201.29"
   transform="matrix(-0.4998 -0.8662 0.8662 -0.4998 177.6952 508.0386)"
   fill="#FFFFFF"
   width="2.833"
   height="2.834"
   id="rect75" />
		
			<rect
   x="226.049"
   y="191.638"
   transform="matrix(-0.766 -0.6429 0.6429 -0.766 277.5811 487.1623)"
   fill="#FFFFFF"
   width="2.833"
   height="2.834"
   id="rect77" />
		
			<rect
   x="215.135"
   y="185.342"
   transform="matrix(-0.9396 -0.3423 0.3423 -0.9396 356.0872 436.3657)"
   fill="#FFFFFF"
   width="2.833"
   height="2.834"
   id="rect79" />
	</g>
	
		<rect
   x="239.86"
   y="185.663"
   fill="#BCBCBC"
   stroke="#1B1B1B"
   stroke-width="0.5"
   stroke-miterlimit="10"
   width="2.385"
   height="17.03"
   id="rect83" />
	
		<rect
   x="242.245"
   y="187.601"
   fill="#BCBCBC"
   stroke="#1B1B1B"
   stroke-width="0.5"
   stroke-miterlimit="10"
   width="9.584"
   height="13.155"
   id="rect85" />
	
		<linearGradient
   id="SVGID_4_"
   gradientUnits="userSpaceOnUse"
   x1="245.1978"
   y1="850.834"
   x2="245.1978"
   y2="872.8896"
   gradientTransform="matrix(1 0 0 -1 8.3398 1056.04)">
		<stop
   offset="0"
   style="stop-color:#555555"
   id="stop87" />
		<stop
   offset="0.3202"
   style="stop-color:#838383"
   id="stop89" />
		<stop
   offset="0.5369"
   style="stop-color:#AEAEAE"
   id="stop91" />
		<stop
   offset="0.7734"
   style="stop-color:#797979"
   id="stop93" />
		<stop
   offset="1"
   style="stop-color:#555555"
   id="stop95" />
	</linearGradient>
	
		<rect
   x="251.829"
   y="183.15"
   fill="url(#SVGID_4_)"
   stroke="#1B1B1B"
   stroke-width="0.5"
   stroke-miterlimit="10"
   width="3.418"
   height="22.055"
   id="rect98" />
	<g
   id="g104">
		
			<rect
   x="178.862"
   y="215.344"
   fill="#E5E5E5"
   stroke="#1B1B1B"
   stroke-width="0.5"
   stroke-miterlimit="10"
   width="9.631"
   height="10.947"
   id="rect100" />
		
			<rect
   x="190.595"
   y="215.344"
   fill="#E5E5E5"
   stroke="#1B1B1B"
   stroke-width="0.5"
   stroke-miterlimit="10"
   width="9.629"
   height="10.947"
   id="rect102" />
	</g>
	<polygon
   fill="#CCCCCC"
   stroke="#1B1B1B"
   stroke-width="0.5"
   stroke-miterlimit="10"
   points="225.405,237.975 212.364,237.975    208.312,220.089 212.364,203.66 225.405,203.66 229.458,219.923  "
   id="polygon106" />
	<polygon
   fill="#595959"
   stroke="#1B1B1B"
   stroke-width="0.5"
   stroke-miterlimit="10"
   points="214.761,234.975 211.394,220.118    214.714,206.66 223.062,206.66 226.376,219.959 223.003,234.975  "
   id="polygon108" />
	<polygon
   fill="#9E9E9E"
   stroke="#1B1B1B"
   stroke-width="0.5"
   stroke-miterlimit="10"
   points="177.985,256.698 177.985,269.136    165.548,269.136 165.548,271.136 179.985,271.136 179.985,256.698  "
   id="polygon110" />
	<polygon
   fill="#9E9E9E"
   stroke="#1B1B1B"
   stroke-width="0.5"
   stroke-miterlimit="10"
   points="230.335,256.698 230.335,269.136    242.772,269.136 242.772,271.136 228.335,271.136 228.335,256.698  "
   id="polygon112" />
</g>
</svg>
