<?xml version="1.0" encoding="UTF-8" standalone="no"?>
<svg
   xmlns:dc="http://purl.org/dc/elements/1.1/"
   xmlns:cc="http://creativecommons.org/ns#"
   xmlns:rdf="http://www.w3.org/1999/02/22-rdf-syntax-ns#"
   xmlns:svg="http://www.w3.org/2000/svg"
   xmlns="http://www.w3.org/2000/svg"
   xmlns:sodipodi="http://sodipodi.sourceforge.net/DTD/sodipodi-0.dtd"
   xmlns:inkscape="http://www.inkscape.org/namespaces/inkscape"
   version="1.1"
   id="图层_1"
   x="0px"
   y="0px"
   width="61.586px"
   height="84.838px"
   viewBox="526.282 511.82 61.586 84.838"
   enable-background="new 526.282 511.82 61.586 84.838"
   xml:space="preserve"
   sodipodi:docname="01-36.svg"><metadata
   id="metadata91"><rdf:RDF><cc:Work
       rdf:about=""><dc:format>image/svg+xml</dc:format><dc:type
         rdf:resource="http://purl.org/dc/dcmitype/StillImage" /></cc:Work></rdf:RDF></metadata><defs
   id="defs89" /><sodipodi:namedview
   pagecolor="#ffffff"
   bordercolor="#666666"
   borderopacity="1"
   objecttolerance="10"
   gridtolerance="10"
   guidetolerance="10"
   inkscape:pageopacity="0"
   inkscape:pageshadow="2"
   inkscape:window-width="640"
   inkscape:window-height="480"
   id="namedview87" />
<g
   id="g84">
	
		<rect
   x="526.532"
   y="593.415"
   fill="#F05A57"
   stroke="#231815"
   stroke-width="0.5"
   stroke-miterlimit="10"
   width="61.086"
   height="2.993"
   id="rect2" />
	<path
   fill="#F05A57"
   stroke="#231815"
   stroke-width="0.5"
   stroke-miterlimit="10"
   d="M585.464,542.07v51.342h-56.781V542.07   c0-13.221,9.686-24.256,22.572-26.847c0.539-0.11,1.08-0.207,1.633-0.284c0.56-0.076,1.131-0.142,1.704-0.192   c0.54-0.045,1.087-0.077,1.634-0.091c0.282-0.005,0.564-0.013,0.848-0.013c0.29,0,0.572,0.008,0.855,0.013   c0.547,0.014,1.094,0.046,1.634,0.091c0.571,0.052,1.138,0.116,1.698,0.192c0.553,0.077,1.1,0.174,1.639,0.284   C575.785,517.814,585.464,528.85,585.464,542.07z"
   id="path4" />
	
		<rect
   x="531.47"
   y="530.767"
   fill="#F47677"
   stroke="#231815"
   stroke-width="0.5"
   stroke-miterlimit="10"
   width="51.213"
   height="29.58"
   id="rect6" />
	<polygon
   fill="#A52327"
   points="581.397,530.767 581.397,559.061 531.47,559.061 531.47,560.347 582.683,560.347 582.683,530.767     "
   id="polygon8" />
	<polygon
   fill="#FFAEB0"
   points="532.112,531.41 582.683,531.41 582.683,530.767 531.47,530.767 531.47,560.347 532.112,560.347     "
   id="polygon10" />
	<g
   id="g18">
		<circle
   fill="#F05A57"
   stroke="#231815"
   stroke-width="0.5"
   stroke-miterlimit="10"
   cx="557.075"
   cy="572.068"
   r="10.239"
   id="circle12" />
		<circle
   fill="#FF7D7E"
   stroke="#231815"
   stroke-width="0.5"
   stroke-miterlimit="10"
   cx="557.075"
   cy="572.068"
   r="7.027"
   id="circle14" />
		
			<circle
   fill="#4C0100"
   stroke="#231815"
   stroke-width="0.5"
   stroke-linecap="round"
   stroke-linejoin="round"
   stroke-miterlimit="10"
   cx="557.075"
   cy="572.068"
   r="2.878"
   id="circle16" />
	</g>
	
		<rect
   x="531.47"
   y="576.635"
   fill="#F05A57"
   stroke="#231815"
   stroke-width="0.5"
   stroke-miterlimit="10"
   width="22.729"
   height="16.78"
   id="rect20" />
	<polygon
   fill="#A52327"
   points="552.91,576.635 552.91,592.13 531.47,592.13 531.47,593.415 554.198,593.415 554.198,576.635  "
   id="polygon22" />
	<polygon
   fill="#FF7D7E"
   points="532.755,577.921 552.91,577.921 554.198,576.635 531.47,576.635 531.47,593.415 532.755,592.13     "
   id="polygon24" />
	<g
   id="g44">
		<g
   id="g30">
			<rect
   x="534.781"
   y="580.313"
   fill="#A52327"
   width="16.827"
   height="1.875"
   id="rect26" />
			<polygon
   fill="#4C0100"
   points="534.909,580.44 551.608,580.44 551.608,580.313 534.781,580.313 534.781,582.188      534.909,582.188    "
   id="polygon28" />
		</g>
		<g
   id="g36">
			<rect
   x="534.781"
   y="584.109"
   fill="#A52327"
   width="16.827"
   height="1.876"
   id="rect32" />
			<polygon
   fill="#4C0100"
   points="534.909,584.238 551.608,584.238 551.608,584.109 534.781,584.109 534.781,585.985      534.909,585.985    "
   id="polygon34" />
		</g>
		<g
   id="g42">
			<rect
   x="534.781"
   y="587.86"
   fill="#A52327"
   width="16.827"
   height="1.876"
   id="rect38" />
			<polygon
   fill="#4C0100"
   points="534.909,587.989 551.608,587.989 551.608,587.86 534.781,587.86 534.781,589.736      534.909,589.736    "
   id="polygon40" />
		</g>
	</g>
	<g
   id="g54">
		<path
   fill="#FF7D7E"
   stroke="#231815"
   stroke-width="0.5"
   stroke-miterlimit="10"
   d="M552.888,514.939v11.382h-1.633v-11.098    C551.794,515.113,552.335,515.017,552.888,514.939z"
   id="path46" />
		<path
   fill="#FF7D7E"
   stroke="#231815"
   stroke-width="0.5"
   stroke-miterlimit="10"
   d="M556.226,514.656v11.665h-1.634v-11.574    C555.132,514.702,555.679,514.67,556.226,514.656z"
   id="path48" />
		<path
   fill="#FF7D7E"
   stroke="#231815"
   stroke-width="0.5"
   stroke-miterlimit="10"
   d="M559.563,514.747v11.574h-1.634v-11.665    C558.476,514.67,559.022,514.702,559.563,514.747z"
   id="path50" />
		<path
   fill="#FF7D7E"
   stroke="#231815"
   stroke-width="0.5"
   stroke-miterlimit="10"
   d="M562.899,515.224v11.098h-1.639V514.94    C561.813,515.017,562.36,515.113,562.899,515.224z"
   id="path52" />
	</g>
	
		<polygon
   fill="#4C0100"
   stroke="#231815"
   stroke-width="0.5"
   stroke-linecap="round"
   stroke-linejoin="round"
   stroke-miterlimit="10"
   points="   558.979,535.855 555.172,535.855 555.172,539.664 556.403,539.664 556.403,555.259 557.747,555.259 557.747,539.664    558.979,539.664  "
   id="polygon56" />
	
		<rect
   x="585.464"
   y="548.822"
   fill="#4C0100"
   stroke="#231815"
   stroke-width="0.5"
   stroke-linecap="round"
   stroke-linejoin="round"
   stroke-miterlimit="10"
   width="1.512"
   height="23.793"
   id="rect58" />
	
		<rect
   x="554.198"
   y="581.58"
   fill="#4C0100"
   stroke="#231815"
   stroke-width="0.5"
   stroke-linecap="round"
   stroke-linejoin="round"
   stroke-miterlimit="10"
   width="1.512"
   height="6.89"
   id="rect60" />
	<path
   fill="none"
   stroke="#231815"
   stroke-width="0.5"
   stroke-linecap="round"
   stroke-linejoin="round"
   stroke-miterlimit="10"
   d="   M554.953,581.58c0,0,3.514-4.464,15.945-4.464c9.898,0,15.32-1.238,15.32-4.501"
   id="path62" />
	<g
   id="g80">
		<g
   id="g70">
			
				<rect
   x="550.694"
   y="512.07"
   fill="#F05A57"
   stroke="#231815"
   stroke-width="0.5"
   stroke-miterlimit="10"
   width="5.146"
   height="5.147"
   id="rect64" />
			<polygon
   fill="#FF7D7E"
   points="551.238,512.615 555.84,512.615 555.84,512.07 550.694,512.07 550.694,517.219 551.238,517.219         "
   id="polygon66" />
			<polygon
   fill="#A52327"
   points="555.296,516.674 551.238,516.674 550.694,517.219 555.84,517.219 555.84,512.07 555.296,512.615         "
   id="polygon68" />
		</g>
		<g
   id="g78">
			
				<rect
   x="558.308"
   y="512.07"
   fill="#F05A57"
   stroke="#231815"
   stroke-width="0.5"
   stroke-miterlimit="10"
   width="5.146"
   height="5.147"
   id="rect72" />
			<polygon
   fill="#FF7D7E"
   points="558.853,512.615 563.453,512.615 563.453,512.07 558.308,512.07 558.308,517.219      558.853,517.219    "
   id="polygon74" />
			<polygon
   fill="#A52327"
   points="562.908,516.674 558.853,516.674 558.308,517.219 563.453,517.219 563.453,512.07      562.908,512.615    "
   id="polygon76" />
		</g>
	</g>
	<path
   fill="none"
   stroke="#231815"
   stroke-width="0.5"
   stroke-miterlimit="10"
   d="M560.384,514.25c0,0,11.628,2.063,13.81,9.408   c2.182,7.347,9.16-1.769,9.16,24.758"
   id="path82" />
</g>
</svg>
