<?xml version="1.0" encoding="UTF-8" standalone="no"?>
<svg
   xmlns:dc="http://purl.org/dc/elements/1.1/"
   xmlns:cc="http://creativecommons.org/ns#"
   xmlns:rdf="http://www.w3.org/1999/02/22-rdf-syntax-ns#"
   xmlns:svg="http://www.w3.org/2000/svg"
   xmlns="http://www.w3.org/2000/svg"
   xmlns:sodipodi="http://sodipodi.sourceforge.net/DTD/sodipodi-0.dtd"
   xmlns:inkscape="http://www.inkscape.org/namespaces/inkscape"
   version="1.1"
   id="图层_1"
   x="0px"
   y="0px"
   width="61.586px"
   height="84.838px"
   viewBox="603.753 511.82 61.586 84.838"
   enable-background="new 603.753 511.82 61.586 84.838"
   xml:space="preserve"
   sodipodi:docname="01-37.svg"><metadata
   id="metadata89"><rdf:RDF><cc:Work
       rdf:about=""><dc:format>image/svg+xml</dc:format><dc:type
         rdf:resource="http://purl.org/dc/dcmitype/StillImage" /></cc:Work></rdf:RDF></metadata><defs
   id="defs87" /><sodipodi:namedview
   pagecolor="#ffffff"
   bordercolor="#666666"
   borderopacity="1"
   objecttolerance="10"
   gridtolerance="10"
   guidetolerance="10"
   inkscape:pageopacity="0"
   inkscape:pageshadow="2"
   inkscape:window-width="640"
   inkscape:window-height="480"
   id="namedview85" />
<g
   id="g82">
	
		<rect
   x="604.003"
   y="593.415"
   fill="#AFAFAF"
   stroke="#1B1B1B"
   stroke-width="0.5"
   stroke-miterlimit="10"
   width="61.086"
   height="2.993"
   id="rect2" />
	<path
   fill="#AFAFAF"
   stroke="#1B1B1B"
   stroke-width="0.5"
   stroke-miterlimit="10"
   d="M662.934,542.07v51.342h-56.781V542.07   c0-13.221,9.686-24.256,22.571-26.847c0.54-0.11,1.08-0.207,1.633-0.284c0.562-0.076,1.132-0.142,1.705-0.192   c0.539-0.045,1.086-0.077,1.633-0.091c0.283-0.005,0.566-0.013,0.85-0.013c0.29,0,0.571,0.008,0.854,0.013   c0.547,0.014,1.093,0.046,1.634,0.091c0.571,0.052,1.139,0.116,1.697,0.192c0.553,0.077,1.1,0.174,1.64,0.284   C653.256,517.814,662.934,528.85,662.934,542.07z"
   id="path4" />
	
		<rect
   x="608.938"
   y="530.767"
   fill="#C3C3C3"
   stroke="#1B1B1B"
   stroke-width="0.5"
   stroke-miterlimit="10"
   width="51.214"
   height="29.58"
   id="rect6" />
	<polygon
   fill="#515151"
   points="658.865,530.767 658.865,559.061 608.938,559.061 608.938,560.347 660.152,560.347    660.152,530.767  "
   id="polygon8" />
	<polygon
   fill="#CACACA"
   points="609.581,531.41 660.152,531.41 660.152,530.767 608.938,530.767 608.938,560.347 609.581,560.347     "
   id="polygon10" />
	<circle
   fill="#C3C3C3"
   stroke="#1B1B1B"
   stroke-width="0.5"
   stroke-miterlimit="10"
   cx="634.545"
   cy="572.068"
   r="10.239"
   id="circle12" />
	<circle
   fill="#A9A9A9"
   stroke="#1B1B1B"
   stroke-width="0.5"
   stroke-miterlimit="10"
   cx="634.545"
   cy="572.068"
   r="7.027"
   id="circle14" />
	
		<circle
   fill="#171717"
   stroke="#1B1B1B"
   stroke-width="0.5"
   stroke-linecap="round"
   stroke-linejoin="round"
   stroke-miterlimit="10"
   cx="634.545"
   cy="572.068"
   r="2.878"
   id="circle16" />
	
		<rect
   x="608.938"
   y="576.635"
   fill="#868686"
   stroke="#1B1B1B"
   stroke-width="0.5"
   stroke-miterlimit="10"
   width="22.729"
   height="16.78"
   id="rect18" />
	<polygon
   fill="#515151"
   points="630.381,576.635 630.381,592.13 608.938,592.13 608.938,593.415 631.666,593.415 631.666,576.635     "
   id="polygon20" />
	<polygon
   fill="#A9A9A9"
   points="610.225,577.921 630.381,577.921 631.666,576.635 608.938,576.635 608.938,593.415 610.225,592.13     "
   id="polygon22" />
	<g
   id="g42">
		<g
   id="g28">
			<rect
   x="612.25"
   y="580.313"
   fill="#515151"
   width="16.826"
   height="1.875"
   id="rect24" />
			<polygon
   fill="#171717"
   points="612.38,580.44 629.076,580.44 629.076,580.313 612.25,580.313 612.25,582.188 612.38,582.188         "
   id="polygon26" />
		</g>
		<g
   id="g34">
			<rect
   x="612.25"
   y="584.109"
   fill="#515151"
   width="16.826"
   height="1.876"
   id="rect30" />
			<polygon
   fill="#171717"
   points="612.38,584.238 629.076,584.238 629.076,584.109 612.25,584.109 612.25,585.985 612.38,585.985         "
   id="polygon32" />
		</g>
		<g
   id="g40">
			<rect
   x="612.25"
   y="587.86"
   fill="#515151"
   width="16.826"
   height="1.876"
   id="rect36" />
			<polygon
   fill="#171717"
   points="612.38,587.989 629.076,587.989 629.076,587.86 612.25,587.86 612.25,589.736 612.38,589.736         "
   id="polygon38" />
		</g>
	</g>
	<g
   id="g52">
		<path
   fill="#A9A9A9"
   stroke="#1B1B1B"
   stroke-width="0.5"
   stroke-miterlimit="10"
   d="M630.356,514.939v11.382h-1.633v-11.098    C629.264,515.113,629.804,515.017,630.356,514.939z"
   id="path44" />
		<path
   fill="#A9A9A9"
   stroke="#1B1B1B"
   stroke-width="0.5"
   stroke-miterlimit="10"
   d="M633.694,514.656v11.665h-1.633v-11.574    C632.601,514.702,633.147,514.67,633.694,514.656z"
   id="path46" />
		<path
   fill="#A9A9A9"
   stroke="#1B1B1B"
   stroke-width="0.5"
   stroke-miterlimit="10"
   d="M637.031,514.747v11.574h-1.634v-11.665    C635.945,514.67,636.49,514.702,637.031,514.747z"
   id="path48" />
		<path
   fill="#A9A9A9"
   stroke="#1B1B1B"
   stroke-width="0.5"
   stroke-miterlimit="10"
   d="M640.368,515.224v11.098h-1.64V514.94    C639.281,515.017,639.828,515.113,640.368,515.224z"
   id="path50" />
	</g>
	
		<polygon
   fill="#171717"
   stroke="#1B1B1B"
   stroke-width="0.5"
   stroke-linecap="round"
   stroke-linejoin="round"
   stroke-miterlimit="10"
   points="   636.448,535.855 632.642,535.855 632.642,539.664 633.872,539.664 633.872,555.259 635.218,555.259 635.218,539.664    636.448,539.664  "
   id="polygon54" />
	
		<rect
   x="662.934"
   y="548.822"
   fill="#171717"
   stroke="#1B1B1B"
   stroke-width="0.5"
   stroke-linecap="round"
   stroke-linejoin="round"
   stroke-miterlimit="10"
   width="1.511"
   height="23.793"
   id="rect56" />
	
		<rect
   x="631.666"
   y="581.58"
   fill="#171717"
   stroke="#1B1B1B"
   stroke-width="0.5"
   stroke-linecap="round"
   stroke-linejoin="round"
   stroke-miterlimit="10"
   width="1.513"
   height="6.89"
   id="rect58" />
	<path
   fill="none"
   stroke="#1B1B1B"
   stroke-width="0.5"
   stroke-linecap="round"
   stroke-linejoin="round"
   stroke-miterlimit="10"
   d="   M632.423,581.58c0,0,3.514-4.464,15.944-4.464c9.898,0,15.321-1.238,15.321-4.501"
   id="path60" />
	<g
   id="g78">
		<g
   id="g68">
			
				<rect
   x="628.162"
   y="512.07"
   fill="#868686"
   stroke="#1B1B1B"
   stroke-width="0.5"
   stroke-miterlimit="10"
   width="5.146"
   height="5.147"
   id="rect62" />
			<polygon
   fill="#A9A9A9"
   points="628.707,512.615 633.31,512.615 633.31,512.07 628.162,512.07 628.162,517.219 628.707,517.219         "
   id="polygon64" />
			<polygon
   fill="#515151"
   points="632.765,516.674 628.707,516.674 628.162,517.219 633.31,517.219 633.31,512.07 632.765,512.615         "
   id="polygon66" />
		</g>
		<g
   id="g76">
			
				<rect
   x="635.777"
   y="512.07"
   fill="#868686"
   stroke="#1B1B1B"
   stroke-width="0.5"
   stroke-miterlimit="10"
   width="5.146"
   height="5.147"
   id="rect70" />
			<polygon
   fill="#A9A9A9"
   points="636.321,512.615 640.923,512.615 640.923,512.07 635.777,512.07 635.777,517.219      636.321,517.219    "
   id="polygon72" />
			<polygon
   fill="#515151"
   points="640.379,516.674 636.321,516.674 635.777,517.219 640.923,517.219 640.923,512.07      640.379,512.615    "
   id="polygon74" />
		</g>
	</g>
	<path
   fill="none"
   stroke="#1B1B1B"
   stroke-width="0.5"
   stroke-miterlimit="10"
   d="M637.853,514.25c0,0,11.629,2.063,13.811,9.408   c2.182,7.347,9.16-1.769,9.16,24.758"
   id="path80" />
</g>
</svg>
