<?xml version="1.0" encoding="UTF-8" standalone="no"?>
<svg
   xmlns:dc="http://purl.org/dc/elements/1.1/"
   xmlns:cc="http://creativecommons.org/ns#"
   xmlns:rdf="http://www.w3.org/1999/02/22-rdf-syntax-ns#"
   xmlns:svg="http://www.w3.org/2000/svg"
   xmlns="http://www.w3.org/2000/svg"
   xmlns:sodipodi="http://sodipodi.sourceforge.net/DTD/sodipodi-0.dtd"
   xmlns:inkscape="http://www.inkscape.org/namespaces/inkscape"
   version="1.1"
   id="图层_1"
   x="0px"
   y="0px"
   width="89.37px"
   height="63.249px"
   viewBox="28.2 823.169 89.37 63.249"
   enable-background="new 28.2 823.169 89.37 63.249"
   xml:space="preserve"
   sodipodi:docname="01-50.svg"><metadata
   id="metadata86"><rdf:RDF><cc:Work
       rdf:about=""><dc:format>image/svg+xml</dc:format><dc:type
         rdf:resource="http://purl.org/dc/dcmitype/StillImage" /></cc:Work></rdf:RDF></metadata><defs
   id="defs84" /><sodipodi:namedview
   pagecolor="#ffffff"
   bordercolor="#666666"
   borderopacity="1"
   objecttolerance="10"
   gridtolerance="10"
   guidetolerance="10"
   inkscape:pageopacity="0"
   inkscape:pageshadow="2"
   inkscape:window-width="640"
   inkscape:window-height="480"
   id="namedview82" />
<g
   id="g79">
	
		<polygon
   fill="#76A6F4"
   stroke="#231815"
   stroke-width="0.5"
   stroke-linecap="round"
   stroke-linejoin="round"
   stroke-miterlimit="10"
   points="   92.552,886.168 33.445,877.855 33.346,874.523 92.453,882.834  "
   id="polygon2" />
	
		<polygon
   fill="#76A6F4"
   stroke="#231815"
   stroke-width="0.5"
   stroke-linecap="round"
   stroke-linejoin="round"
   stroke-miterlimit="10"
   points="   113.644,879.513 92.552,886.168 92.453,882.834 113.544,876.181  "
   id="polygon4" />
	
		<polygon
   fill="#0B3C89"
   stroke="#231815"
   stroke-width="0.5"
   stroke-linecap="round"
   stroke-linejoin="round"
   stroke-miterlimit="10"
   points="   55.251,869.797 33.346,874.523 92.453,882.834 113.544,876.181  "
   id="polygon6" />
	
		<linearGradient
   id="SVGID_1_"
   gradientUnits="userSpaceOnUse"
   x1="54.9504"
   y1="663.1404"
   x2="52.2833"
   y2="614.1386"
   gradientTransform="matrix(1 0 0 -1 8.3999 1490.0991)">
		<stop
   offset="0"
   style="stop-color:#043BA9"
   id="stop8" />
		<stop
   offset="0.0606"
   style="stop-color:#2B5DC2"
   id="stop10" />
		<stop
   offset="0.1199"
   style="stop-color:#4B79D7"
   id="stop12" />
		<stop
   offset="0.1527"
   style="stop-color:#5784DF"
   id="stop14" />
		<stop
   offset="0.1623"
   style="stop-color:#5E8AE3"
   id="stop16" />
		<stop
   offset="0.2023"
   style="stop-color:#79A0EF"
   id="stop18" />
		<stop
   offset="0.2432"
   style="stop-color:#8CB0F8"
   id="stop20" />
		<stop
   offset="0.2853"
   style="stop-color:#97B9FD"
   id="stop22" />
		<stop
   offset="0.33"
   style="stop-color:#9BBCFF"
   id="stop24" />
		<stop
   offset="0.3957"
   style="stop-color:#96B8FD"
   id="stop26" />
		<stop
   offset="0.4739"
   style="stop-color:#87ACF6"
   id="stop28" />
		<stop
   offset="0.5583"
   style="stop-color:#7098EB"
   id="stop30" />
		<stop
   offset="0.6256"
   style="stop-color:#5784DF"
   id="stop32" />
		<stop
   offset="1"
   style="stop-color:#043BA9"
   id="stop34" />
	</linearGradient>
	
		<path
   fill="url(#SVGID_1_)"
   stroke="#231815"
   stroke-width="0.5"
   stroke-linecap="round"
   stroke-linejoin="round"
   stroke-miterlimit="10"
   d="   M46.205,827.084c-9.807,0-17.755,10.237-17.755,22.867c0,12.629,7.948,22.866,17.755,22.866l48,6.268v-52L46.205,827.084   L46.205,827.084z"
   id="path37" />
	<path
   fill="#76A6F4"
   stroke="#231815"
   stroke-width="0.5"
   stroke-miterlimit="10"
   d="M117.211,852.319   c0,13.938-9.833,25.896-22.322,26.734C81.983,879.922,71.2,868.654,71.2,853.864s10.782-26.78,23.688-26.78   C107.378,827.084,117.211,838.383,117.211,852.319z"
   id="path39" />
	<path
   fill="#A4C6F7"
   d="M73.494,853.843c0-14.002,9.946-25.415,22.057-25.992c-0.326-0.017-0.654-0.027-0.984-0.027   c-12.54,0-23.016,11.649-23.016,26.021c0,14.2,10.231,25.049,22.571,24.492C82.668,877.738,73.494,867.289,73.494,853.843z"
   id="path41" />
	
		<line
   fill="none"
   stroke="#231815"
   stroke-width="0.5"
   stroke-linecap="round"
   stroke-linejoin="round"
   stroke-miterlimit="10"
   x1="95.551"
   y1="827.1"
   x2="95.551"
   y2="879"
   id="line43" />
	
		<line
   fill="none"
   stroke="#231815"
   stroke-width="0.5"
   stroke-linecap="round"
   stroke-linejoin="round"
   stroke-miterlimit="10"
   x1="93.825"
   y1="839.604"
   x2="93.825"
   y2="843.043"
   id="line45" />
	
		<line
   fill="none"
   stroke="#231815"
   stroke-width="0.5"
   stroke-linecap="round"
   stroke-linejoin="round"
   stroke-miterlimit="10"
   x1="97.325"
   y1="839.782"
   x2="97.325"
   y2="842.864"
   id="line47" />
	
		<polyline
   fill="none"
   stroke="#231815"
   stroke-width="0.5"
   stroke-linecap="round"
   stroke-linejoin="round"
   stroke-miterlimit="10"
   points="   66.7,860.092 66.7,823.419 83.072,823.419 83.072,827.1  "
   id="polyline49" />
	<rect
   x="66.7"
   y="831.584"
   fill="#0A41AD"
   stroke="#231815"
   stroke-width="0.5"
   stroke-miterlimit="10"
   width="3"
   height="9.739"
   id="rect51" />
	<g
   id="g57">
		
			<polygon
   fill="#76A6F4"
   stroke="#231815"
   stroke-width="0.5"
   stroke-linecap="round"
   stroke-linejoin="round"
   stroke-miterlimit="10"
   points="    65.95,860.084 57.669,859.621 57.669,849.531 65.95,849.584   "
   id="polygon53" />
		
			<polygon
   fill="#2358A5"
   stroke="#231815"
   stroke-width="0.5"
   stroke-linecap="round"
   stroke-linejoin="round"
   stroke-miterlimit="10"
   points="    68.2,859.854 65.95,860.084 65.95,849.584 68.2,850.063   "
   id="polygon55" />
	</g>
	
		<ellipse
   fill="#0B41AD"
   stroke="#231815"
   stroke-width="0.5"
   stroke-linecap="round"
   stroke-linejoin="round"
   stroke-miterlimit="10"
   cx="95.551"
   cy="864.583"
   rx="6.944"
   ry="9.004"
   id="ellipse59" />
	
		<ellipse
   fill="#578AF0"
   stroke="#231815"
   stroke-width="0.5"
   stroke-miterlimit="10"
   cx="95.551"
   cy="864.583"
   rx="5.064"
   ry="6.566"
   id="ellipse61" />
	
		<ellipse
   fill="#A4C6F7"
   stroke="#231815"
   stroke-width="0.5"
   stroke-miterlimit="10"
   cx="95.551"
   cy="864.583"
   rx="2.479"
   ry="3.214"
   id="ellipse63" />
	<g
   id="g73">
		<path
   fill="#868686"
   stroke="#231815"
   stroke-width="0.5"
   stroke-miterlimit="10"
   d="M112.602,866.035    c0.35-3.864-1.301-7.403-4.029-9.43l0.223-1.121l-4.725-0.614c-5.225-0.472-9.878,3.763-10.392,9.456    c-0.458,5.066,2.519,9.572,6.859,10.84l-0.005,0.009l5.46,1.373l0.145-1.604C109.589,873.634,112.222,870.234,112.602,866.035z"
   id="path65" />
		
			<ellipse
   transform="matrix(0.0899 -0.9959 0.9959 0.0899 -764.5942 895.2282)"
   fill="#E5E5E5"
   stroke="#231815"
   stroke-width="0.5"
   stroke-miterlimit="10"
   cx="107.562"
   cy="865.992"
   rx="10.624"
   ry="9.75"
   id="ellipse67" />
		
			<ellipse
   transform="matrix(0.09 -0.9959 0.9959 0.09 -763.4092 896.7654)"
   fill="#868686"
   stroke="#231815"
   stroke-width="0.5"
   stroke-miterlimit="10"
   cx="109.026"
   cy="866.137"
   rx="5.458"
   ry="5.008"
   id="ellipse69" />
		
			<ellipse
   transform="matrix(0.0899 -0.996 0.996 0.0899 -761.8441 899.0859)"
   fill="#E5E5E5"
   stroke="#231815"
   stroke-width="0.5"
   stroke-miterlimit="10"
   cx="111.026"
   cy="866.397"
   rx="5.459"
   ry="5.01"
   id="ellipse71" />
	</g>
	<path
   fill="none"
   stroke="#231815"
   stroke-width="0.5"
   stroke-miterlimit="10"
   d="M61.328,859.825c0,0,3.975,3.324,3.063,7.973   c-0.911,4.647,0.059,6.827,1.559,7.599"
   id="path75" />
	<path
   fill="none"
   stroke="#231815"
   stroke-width="0.5"
   stroke-miterlimit="10"
   d="M65.95,859.825c0,0-0.539,3.324,0.371,7.973   c0.911,4.647-0.058,6.827-1.558,7.599"
   id="path77" />
</g>
</svg>
