<?xml version="1.0" encoding="UTF-8" standalone="no"?>
<svg
   xmlns:dc="http://purl.org/dc/elements/1.1/"
   xmlns:cc="http://creativecommons.org/ns#"
   xmlns:rdf="http://www.w3.org/1999/02/22-rdf-syntax-ns#"
   xmlns:svg="http://www.w3.org/2000/svg"
   xmlns="http://www.w3.org/2000/svg"
   xmlns:sodipodi="http://sodipodi.sourceforge.net/DTD/sodipodi-0.dtd"
   xmlns:inkscape="http://www.inkscape.org/namespaces/inkscape"
   version="1.1"
   id="图层_1"
   x="0px"
   y="0px"
   width="89.36px"
   height="63.249px"
   viewBox="237.1 823.169 89.36 63.249"
   enable-background="new 237.1 823.169 89.36 63.249"
   xml:space="preserve"
   sodipodi:docname="01-52.svg"><metadata
   id="metadata84"><rdf:RDF><cc:Work
       rdf:about=""><dc:format>image/svg+xml</dc:format><dc:type
         rdf:resource="http://purl.org/dc/dcmitype/StillImage" /></cc:Work></rdf:RDF></metadata><defs
   id="defs82" /><sodipodi:namedview
   pagecolor="#ffffff"
   bordercolor="#666666"
   borderopacity="1"
   objecttolerance="10"
   gridtolerance="10"
   guidetolerance="10"
   inkscape:pageopacity="0"
   inkscape:pageshadow="2"
   inkscape:window-width="640"
   inkscape:window-height="480"
   id="namedview80" />
<g
   id="g77">
	
		<polygon
   fill="#A1A1A1"
   stroke="#1B1B1B"
   stroke-width="0.5"
   stroke-linecap="round"
   stroke-linejoin="round"
   stroke-miterlimit="10"
   points="   301.452,886.168 242.346,877.855 242.246,874.523 301.353,882.834  "
   id="polygon2" />
	
		<polygon
   fill="#A1A1A1"
   stroke="#1B1B1B"
   stroke-width="0.5"
   stroke-linecap="round"
   stroke-linejoin="round"
   stroke-miterlimit="10"
   points="   322.544,879.513 301.452,886.168 301.353,882.834 322.444,876.181  "
   id="polygon4" />
	
		<polygon
   fill="#363636"
   stroke="#1B1B1B"
   stroke-width="0.5"
   stroke-linecap="round"
   stroke-linejoin="round"
   stroke-miterlimit="10"
   points="   264.152,869.797 242.246,874.523 301.353,882.834 322.444,876.181  "
   id="polygon6" />
	
		<linearGradient
   id="SVGID_1_"
   gradientUnits="userSpaceOnUse"
   x1="263.8494"
   y1="663.1404"
   x2="261.1823"
   y2="614.1395"
   gradientTransform="matrix(1 0 0 -1 8.3999 1490.0991)">
		<stop
   offset="0"
   style="stop-color:#3E3E3E"
   id="stop8" />
		<stop
   offset="0.0511"
   style="stop-color:#5B5B5B"
   id="stop10" />
		<stop
   offset="0.1165"
   style="stop-color:#7B7B7B"
   id="stop12" />
		<stop
   offset="0.1527"
   style="stop-color:#878787"
   id="stop14" />
		<stop
   offset="0.1895"
   style="stop-color:#9C9C9C"
   id="stop16" />
		<stop
   offset="0.2344"
   style="stop-color:#AFAFAF"
   id="stop18" />
		<stop
   offset="0.2807"
   style="stop-color:#BBBBBB"
   id="stop20" />
		<stop
   offset="0.33"
   style="stop-color:#BEBEBE"
   id="stop22" />
		<stop
   offset="0.4039"
   style="stop-color:#B9B9B9"
   id="stop24" />
		<stop
   offset="0.4919"
   style="stop-color:#ABABAB"
   id="stop26" />
		<stop
   offset="0.5869"
   style="stop-color:#939393"
   id="stop28" />
		<stop
   offset="0.6256"
   style="stop-color:#878787"
   id="stop30" />
		<stop
   offset="1"
   style="stop-color:#3E3E3E"
   id="stop32" />
	</linearGradient>
	
		<path
   fill="url(#SVGID_1_)"
   stroke="#1B1B1B"
   stroke-width="0.5"
   stroke-linecap="round"
   stroke-linejoin="round"
   stroke-miterlimit="10"
   d="   M255.105,827.084c-9.806,0-17.755,10.237-17.755,22.867c0,12.629,7.949,22.866,17.755,22.866l48,6.268v-52L255.105,827.084   L255.105,827.084z"
   id="path35" />
	<path
   fill="#A1A1A1"
   stroke="#1B1B1B"
   stroke-width="0.5"
   stroke-miterlimit="10"
   d="M326.111,852.319   c0,13.938-9.833,25.896-22.322,26.734c-12.905,0.867-23.688-10.399-23.688-25.189s10.783-26.78,23.688-26.78   C316.279,827.084,326.111,838.383,326.111,852.319z"
   id="path37" />
	<path
   fill="#C0C0C0"
   d="M282.395,853.843c0-14.002,9.947-25.415,22.057-25.992c-0.325-0.017-0.653-0.027-0.983-0.027   c-12.54,0-23.016,11.649-23.016,26.021c0,14.2,10.23,25.049,22.57,24.492C291.569,877.738,282.395,867.289,282.395,853.843z"
   id="path39" />
	
		<line
   fill="none"
   stroke="#1B1B1B"
   stroke-width="0.5"
   stroke-linecap="round"
   stroke-linejoin="round"
   stroke-miterlimit="10"
   x1="304.45"
   y1="827.1"
   x2="304.45"
   y2="879"
   id="line41" />
	
		<line
   fill="none"
   stroke="#1B1B1B"
   stroke-width="0.5"
   stroke-linecap="round"
   stroke-linejoin="round"
   stroke-miterlimit="10"
   x1="302.726"
   y1="839.604"
   x2="302.726"
   y2="843.043"
   id="line43" />
	
		<line
   fill="none"
   stroke="#1B1B1B"
   stroke-width="0.5"
   stroke-linecap="round"
   stroke-linejoin="round"
   stroke-miterlimit="10"
   x1="306.226"
   y1="839.782"
   x2="306.226"
   y2="842.864"
   id="line45" />
	
		<polyline
   fill="none"
   stroke="#1B1B1B"
   stroke-width="0.5"
   stroke-linecap="round"
   stroke-linejoin="round"
   stroke-miterlimit="10"
   points="   275.601,860.092 275.601,823.419 291.972,823.419 291.972,827.1  "
   id="polyline47" />
	
		<rect
   x="275.601"
   y="831.584"
   fill="#434343"
   stroke="#1B1B1B"
   stroke-width="0.5"
   stroke-miterlimit="10"
   width="3"
   height="9.739"
   id="rect49" />
	<g
   id="g55">
		
			<polygon
   fill="#A1A1A1"
   stroke="#1B1B1B"
   stroke-width="0.5"
   stroke-linecap="round"
   stroke-linejoin="round"
   stroke-miterlimit="10"
   points="    274.851,860.084 266.569,859.621 266.569,849.531 274.851,849.584   "
   id="polygon51" />
		
			<polygon
   fill="#4F4F4F"
   stroke="#1B1B1B"
   stroke-width="0.5"
   stroke-linecap="round"
   stroke-linejoin="round"
   stroke-miterlimit="10"
   points="    277.101,859.854 274.851,860.084 274.851,849.584 277.101,850.063   "
   id="polygon53" />
	</g>
	
		<ellipse
   fill="#444444"
   stroke="#1B1B1B"
   stroke-width="0.5"
   stroke-linecap="round"
   stroke-linejoin="round"
   stroke-miterlimit="10"
   cx="304.45"
   cy="864.583"
   rx="6.944"
   ry="9.004"
   id="ellipse57" />
	
		<ellipse
   fill="#8D8D8D"
   stroke="#1B1B1B"
   stroke-width="0.5"
   stroke-miterlimit="10"
   cx="304.45"
   cy="864.583"
   rx="5.064"
   ry="6.566"
   id="ellipse59" />
	
		<ellipse
   fill="#C0C0C0"
   stroke="#1B1B1B"
   stroke-width="0.5"
   stroke-miterlimit="10"
   cx="304.45"
   cy="864.583"
   rx="2.479"
   ry="3.214"
   id="ellipse61" />
	<g
   id="g71">
		<path
   fill="#868686"
   stroke="#1B1B1B"
   stroke-width="0.5"
   stroke-miterlimit="10"
   d="M321.502,866.035    c0.349-3.864-1.302-7.403-4.029-9.43l0.222-1.121l-4.724-0.614c-5.226-0.472-9.878,3.763-10.393,9.456    c-0.458,5.066,2.52,9.572,6.859,10.84l-0.005,0.009l5.46,1.373l0.145-1.604C318.489,873.634,321.122,870.234,321.502,866.035z"
   id="path63" />
		
			<ellipse
   transform="matrix(0.0899 -0.996 0.996 0.0899 -574.4727 1103.3044)"
   fill="#E5E5E5"
   stroke="#1B1B1B"
   stroke-width="0.5"
   stroke-miterlimit="10"
   cx="316.452"
   cy="865.983"
   rx="10.624"
   ry="9.749"
   id="ellipse65" />
		
			<ellipse
   transform="matrix(0.09 -0.9959 0.9959 0.09 -573.3215 1104.8118)"
   fill="#868686"
   stroke="#1B1B1B"
   stroke-width="0.5"
   stroke-miterlimit="10"
   cx="317.917"
   cy="866.14"
   rx="5.458"
   ry="5.008"
   id="ellipse67" />
		
			<ellipse
   transform="matrix(0.0899 -0.996 0.996 0.0899 -571.72 1107.1461)"
   fill="#E5E5E5"
   stroke="#1B1B1B"
   stroke-width="0.5"
   stroke-miterlimit="10"
   cx="319.936"
   cy="866.401"
   rx="5.458"
   ry="5.009"
   id="ellipse69" />
	</g>
	<path
   fill="none"
   stroke="#1B1B1B"
   stroke-width="0.5"
   stroke-miterlimit="10"
   d="M270.229,859.825c0,0,3.976,3.324,3.064,7.973   c-0.911,4.647,0.058,6.827,1.558,7.599"
   id="path73" />
	<path
   fill="none"
   stroke="#1B1B1B"
   stroke-width="0.5"
   stroke-miterlimit="10"
   d="M274.851,859.825c0,0-0.539,3.324,0.372,7.973   c0.911,4.647-0.058,6.827-1.558,7.599"
   id="path75" />
</g>
</svg>
