<?xml version="1.0" encoding="UTF-8" standalone="no"?>
<svg
   xmlns:dc="http://purl.org/dc/elements/1.1/"
   xmlns:cc="http://creativecommons.org/ns#"
   xmlns:rdf="http://www.w3.org/1999/02/22-rdf-syntax-ns#"
   xmlns:svg="http://www.w3.org/2000/svg"
   xmlns="http://www.w3.org/2000/svg"
   xmlns:sodipodi="http://sodipodi.sourceforge.net/DTD/sodipodi-0.dtd"
   xmlns:inkscape="http://www.inkscape.org/namespaces/inkscape"
   version="1.1"
   id="图层_1"
   x="0px"
   y="0px"
   width="55.937px"
   height="89.481px"
   viewBox="296.133 908.775 55.937 89.481"
   enable-background="new 296.133 908.775 55.937 89.481"
   xml:space="preserve"
   sodipodi:docname="01-59.svg"><metadata
   id="metadata116"><rdf:RDF><cc:Work
       rdf:about=""><dc:format>image/svg+xml</dc:format><dc:type
         rdf:resource="http://purl.org/dc/dcmitype/StillImage" /></cc:Work></rdf:RDF></metadata><defs
   id="defs114" /><sodipodi:namedview
   pagecolor="#ffffff"
   bordercolor="#666666"
   borderopacity="1"
   objecttolerance="10"
   gridtolerance="10"
   guidetolerance="10"
   inkscape:pageopacity="0"
   inkscape:pageshadow="2"
   inkscape:window-width="640"
   inkscape:window-height="480"
   id="namedview112" />
<g
   id="g109">
	
		<rect
   x="296.383"
   y="946.709"
   fill="#76A6F4"
   stroke="#231815"
   stroke-width="0.5"
   stroke-miterlimit="10"
   width="55.437"
   height="51.298"
   id="rect2" />
	<rect
   x="298.305"
   y="965.44"
   fill="#E5E5E5"
   width="51.593"
   height="29.994"
   id="rect4" />
	<rect
   x="298.305"
   y="994.22"
   fill="#E71F0D"
   width="51.593"
   height="1.215"
   id="rect6" />
	<rect
   x="298.305"
   y="993.006"
   fill="#FBC052"
   width="51.593"
   height="1.215"
   id="rect8" />
	
		<rect
   x="312.36"
   y="938.101"
   fill="#3C6CCD"
   stroke="#231815"
   stroke-width="0.5"
   stroke-miterlimit="10"
   width="23.484"
   height="8.813"
   id="rect10" />
	
		<rect
   x="303.748"
   y="931.979"
   fill="#76A6F4"
   stroke="#231815"
   stroke-width="0.5"
   stroke-linecap="round"
   stroke-linejoin="round"
   stroke-miterlimit="10"
   width="40.707"
   height="6.122"
   id="rect12" />
	
		<polygon
   fill="#76A6F4"
   stroke="#231815"
   stroke-width="0.5"
   stroke-linecap="round"
   stroke-linejoin="round"
   stroke-miterlimit="10"
   points="   335.844,925.858 312.36,925.858 303.748,931.979 344.456,931.979  "
   id="polygon14" />
	
		<path
   fill="#76A6F4"
   stroke="#231815"
   stroke-width="0.5"
   stroke-linecap="round"
   stroke-linejoin="round"
   stroke-miterlimit="10"
   d="   M324.071,914.881c0-3.233-2.621-5.855-5.854-5.855s-5.855,2.622-5.855,5.855v10.978h23.484v-10.978H324.071z"
   id="path16" />
	<circle
   fill="#3C6CCD"
   stroke="#231815"
   stroke-width="0.5"
   stroke-miterlimit="10"
   cx="329.989"
   cy="914.88"
   r="5.855"
   id="circle18" />
	<g
   id="g36">
		<circle
   fill="#3C6CCD"
   stroke="#231815"
   stroke-width="0.5"
   stroke-miterlimit="10"
   cx="301.19"
   cy="960.009"
   r="2.23"
   id="circle20" />
		<circle
   fill="#3C6CCD"
   stroke="#231815"
   stroke-width="0.5"
   stroke-miterlimit="10"
   cx="307.737"
   cy="960.009"
   r="2.23"
   id="circle22" />
		<circle
   fill="#3C6CCD"
   stroke="#231815"
   stroke-width="0.5"
   stroke-miterlimit="10"
   cx="314.282"
   cy="960.009"
   r="2.23"
   id="circle24" />
		<circle
   fill="#3C6CCD"
   stroke="#231815"
   stroke-width="0.5"
   stroke-miterlimit="10"
   cx="320.828"
   cy="960.009"
   r="2.231"
   id="circle26" />
		<circle
   fill="#3C6CCD"
   stroke="#231815"
   stroke-width="0.5"
   stroke-miterlimit="10"
   cx="327.375"
   cy="960.009"
   r="2.23"
   id="circle28" />
		<circle
   fill="#3C6CCD"
   stroke="#231815"
   stroke-width="0.5"
   stroke-miterlimit="10"
   cx="333.922"
   cy="960.009"
   r="2.23"
   id="circle30" />
		<circle
   fill="#3C6CCD"
   stroke="#231815"
   stroke-width="0.5"
   stroke-miterlimit="10"
   cx="340.469"
   cy="960.009"
   r="2.23"
   id="circle32" />
		<circle
   fill="#3C6CCD"
   stroke="#231815"
   stroke-width="0.5"
   stroke-miterlimit="10"
   cx="347.015"
   cy="960.009"
   r="2.23"
   id="circle34" />
	</g>
	
		<linearGradient
   id="SVGID_1_"
   gradientUnits="userSpaceOnUse"
   x1="315.7029"
   y1="497.0911"
   x2="315.7029"
   y2="524.6614"
   gradientTransform="matrix(1 0 0 -1 8.3999 1490.0991)">
		<stop
   offset="0"
   style="stop-color:#FFE361"
   id="stop38" />
		<stop
   offset="0.1581"
   style="stop-color:#FFE060"
   id="stop40" />
		<stop
   offset="0.2937"
   style="stop-color:#FDD55B"
   id="stop42" />
		<stop
   offset="0.4211"
   style="stop-color:#FBC353"
   id="stop44" />
		<stop
   offset="0.5434"
   style="stop-color:#F8AA49"
   id="stop46" />
		<stop
   offset="0.6622"
   style="stop-color:#F48A3B"
   id="stop48" />
		<stop
   offset="0.7783"
   style="stop-color:#EF632A"
   id="stop50" />
		<stop
   offset="0.89"
   style="stop-color:#EA3517"
   id="stop52" />
		<stop
   offset="1"
   style="stop-color:#E30000"
   id="stop54" />
	</linearGradient>
	<path
   fill="url(#SVGID_1_)"
   stroke="#231815"
   stroke-width="0.5"
   stroke-miterlimit="10"
   d="M349.904,965.438l-5.09,24.979h-0.01   c0,1.431-1.16,2.591-2.591,2.591s-2.591-1.16-2.591-2.591c0,1.431-1.159,2.591-2.59,2.591c-1.42,0-2.58-1.16-2.58-2.591   c0,1.431-1.159,2.591-2.59,2.591c-1.43,0-2.59-1.16-2.59-2.591c0,1.431-1.16,2.591-2.58,2.591c-1.43,0-2.59-1.16-2.59-2.591   c0,1.431-1.16,2.591-2.59,2.591s-2.59-1.16-2.59-2.591c0,1.431-1.15,2.591-2.58,2.591c-1.431,0-2.59-1.16-2.59-2.591   c0,1.431-1.16,2.591-2.591,2.591s-2.579-1.16-2.579-2.591c0,1.431-1.16,2.591-2.591,2.591s-2.591-1.16-2.591-2.591h-0.01   l-5.09-24.979H349.904z"
   id="path57" />
	
		<line
   fill="none"
   stroke="#231815"
   stroke-width="0.5"
   stroke-miterlimit="10"
   x1="302.227"
   y1="984.69"
   x2="345.981"
   y2="984.69"
   id="line59" />
	
		<line
   fill="none"
   stroke="#231815"
   stroke-width="0.5"
   stroke-miterlimit="10"
   x1="301.584"
   y1="965.438"
   x2="299.164"
   y2="969.67"
   id="line61" />
	
		<line
   fill="none"
   stroke="#231815"
   stroke-width="0.5"
   stroke-miterlimit="10"
   x1="304.554"
   y1="965.438"
   x2="299.944"
   y2="973.489"
   id="line63" />
	
		<line
   fill="none"
   stroke="#231815"
   stroke-width="0.5"
   stroke-miterlimit="10"
   x1="307.524"
   y1="965.438"
   x2="300.724"
   y2="977.319"
   id="line65" />
	
		<line
   fill="none"
   stroke="#231815"
   stroke-width="0.5"
   stroke-miterlimit="10"
   x1="310.494"
   y1="965.438"
   x2="301.504"
   y2="981.159"
   id="line67" />
	
		<line
   fill="none"
   stroke="#231815"
   stroke-width="0.5"
   stroke-miterlimit="10"
   x1="313.474"
   y1="965.438"
   x2="302.453"
   y2="984.688"
   id="line69" />
	
		<line
   fill="none"
   stroke="#231815"
   stroke-width="0.5"
   stroke-miterlimit="10"
   x1="316.444"
   y1="965.438"
   x2="305.424"
   y2="984.688"
   id="line71" />
	
		<line
   fill="none"
   stroke="#231815"
   stroke-width="0.5"
   stroke-miterlimit="10"
   x1="319.414"
   y1="965.438"
   x2="308.394"
   y2="984.688"
   id="line73" />
	
		<line
   fill="none"
   stroke="#231815"
   stroke-width="0.5"
   stroke-miterlimit="10"
   x1="322.383"
   y1="965.438"
   x2="311.373"
   y2="984.688"
   id="line75" />
	
		<line
   fill="none"
   stroke="#231815"
   stroke-width="0.5"
   stroke-miterlimit="10"
   x1="325.364"
   y1="965.438"
   x2="314.344"
   y2="984.688"
   id="line77" />
	
		<line
   fill="none"
   stroke="#231815"
   stroke-width="0.5"
   stroke-miterlimit="10"
   x1="313.664"
   y1="991.069"
   x2="313.674"
   y2="991.059"
   id="line79" />
	
		<line
   fill="none"
   stroke="#231815"
   stroke-width="0.5"
   stroke-miterlimit="10"
   x1="328.334"
   y1="965.438"
   x2="317.314"
   y2="984.688"
   id="line81" />
	
		<line
   fill="none"
   stroke="#231815"
   stroke-width="0.5"
   stroke-miterlimit="10"
   x1="313.793"
   y1="990.859"
   x2="313.793"
   y2="990.849"
   id="line83" />
	
		<line
   fill="none"
   stroke="#231815"
   stroke-width="0.5"
   stroke-miterlimit="10"
   x1="312.994"
   y1="992.25"
   x2="312.984"
   y2="992.26"
   id="line85" />
	
		<line
   fill="none"
   stroke="#231815"
   stroke-width="0.5"
   stroke-miterlimit="10"
   x1="331.304"
   y1="965.438"
   x2="320.293"
   y2="984.688"
   id="line87" />
	
		<line
   fill="none"
   stroke="#231815"
   stroke-width="0.5"
   stroke-miterlimit="10"
   x1="334.274"
   y1="965.438"
   x2="323.264"
   y2="984.688"
   id="line89" />
	
		<line
   fill="none"
   stroke="#231815"
   stroke-width="0.5"
   stroke-miterlimit="10"
   x1="337.254"
   y1="965.438"
   x2="326.234"
   y2="984.688"
   id="line91" />
	
		<line
   fill="none"
   stroke="#231815"
   stroke-width="0.5"
   stroke-miterlimit="10"
   x1="340.224"
   y1="965.438"
   x2="329.203"
   y2="984.688"
   id="line93" />
	
		<line
   fill="none"
   stroke="#231815"
   stroke-width="0.5"
   stroke-miterlimit="10"
   x1="324.873"
   y1="992.26"
   x2="324.804"
   y2="992.38"
   id="line95" />
	
		<line
   fill="none"
   stroke="#231815"
   stroke-width="0.5"
   stroke-miterlimit="10"
   x1="343.194"
   y1="965.438"
   x2="332.184"
   y2="984.688"
   id="line97" />
	
		<line
   fill="none"
   stroke="#231815"
   stroke-width="0.5"
   stroke-miterlimit="10"
   x1="346.174"
   y1="965.438"
   x2="335.154"
   y2="984.688"
   id="line99" />
	
		<line
   fill="none"
   stroke="#231815"
   stroke-width="0.5"
   stroke-miterlimit="10"
   x1="349.144"
   y1="965.438"
   x2="338.123"
   y2="984.688"
   id="line101" />
	<polyline
   fill="none"
   stroke="#231815"
   stroke-width="0.5"
   stroke-miterlimit="10"
   points="334.014,991.869 334.154,991.619    334.194,991.55  "
   id="polyline103" />
	<polyline
   fill="none"
   stroke="#231815"
   stroke-width="0.5"
   stroke-miterlimit="10"
   points="341.094,984.688 348.684,971.449    348.684,971.438  "
   id="polyline105" />
	
		<line
   fill="none"
   stroke="#231815"
   stroke-width="0.5"
   stroke-miterlimit="10"
   x1="347.033"
   y1="979.51"
   x2="344.073"
   y2="984.688"
   id="line107" />
</g>
</svg>
