<?xml version="1.0" encoding="UTF-8" standalone="no"?>
<svg
   xmlns:dc="http://purl.org/dc/elements/1.1/"
   xmlns:cc="http://creativecommons.org/ns#"
   xmlns:rdf="http://www.w3.org/1999/02/22-rdf-syntax-ns#"
   xmlns:svg="http://www.w3.org/2000/svg"
   xmlns="http://www.w3.org/2000/svg"
   xmlns:sodipodi="http://sodipodi.sourceforge.net/DTD/sodipodi-0.dtd"
   xmlns:inkscape="http://www.inkscape.org/namespaces/inkscape"
   version="1.1"
   id="图层_1"
   x="0px"
   y="0px"
   width="55.938px"
   height="89.481px"
   viewBox="375.314 908.775 55.938 89.481"
   enable-background="new 375.314 908.775 55.938 89.481"
   xml:space="preserve"
   sodipodi:docname="01-60.svg"><metadata
   id="metadata116"><rdf:RDF><cc:Work
       rdf:about=""><dc:format>image/svg+xml</dc:format><dc:type
         rdf:resource="http://purl.org/dc/dcmitype/StillImage" /></cc:Work></rdf:RDF></metadata><defs
   id="defs114" /><sodipodi:namedview
   pagecolor="#ffffff"
   bordercolor="#666666"
   borderopacity="1"
   objecttolerance="10"
   gridtolerance="10"
   guidetolerance="10"
   inkscape:pageopacity="0"
   inkscape:pageshadow="2"
   inkscape:window-width="640"
   inkscape:window-height="480"
   id="namedview112" />
<g
   id="g109">
	
		<rect
   x="375.564"
   y="946.709"
   fill="#76EDF4"
   stroke="#231815"
   stroke-width="0.5"
   stroke-miterlimit="10"
   width="55.438"
   height="51.298"
   id="rect2" />
	<rect
   x="377.486"
   y="965.44"
   fill="#E5E5E5"
   width="51.594"
   height="29.994"
   id="rect4" />
	<rect
   x="377.486"
   y="994.22"
   fill="#E70D55"
   width="51.594"
   height="1.215"
   id="rect6" />
	<rect
   x="377.486"
   y="993.006"
   fill="#FBA052"
   width="51.594"
   height="1.215"
   id="rect8" />
	
		<rect
   x="391.54"
   y="938.101"
   fill="#38BDCD"
   stroke="#231815"
   stroke-width="0.5"
   stroke-miterlimit="10"
   width="23.484"
   height="8.813"
   id="rect10" />
	
		<rect
   x="382.93"
   y="931.979"
   fill="#76EDF4"
   stroke="#231815"
   stroke-width="0.5"
   stroke-linecap="round"
   stroke-linejoin="round"
   stroke-miterlimit="10"
   width="40.707"
   height="6.122"
   id="rect12" />
	
		<polygon
   fill="#76EDF4"
   stroke="#231815"
   stroke-width="0.5"
   stroke-linecap="round"
   stroke-linejoin="round"
   stroke-miterlimit="10"
   points="   415.025,925.858 391.54,925.858 382.93,931.979 423.638,931.979  "
   id="polygon14" />
	
		<path
   fill="#76EDF4"
   stroke="#231815"
   stroke-width="0.5"
   stroke-linecap="round"
   stroke-linejoin="round"
   stroke-miterlimit="10"
   d="   M403.252,914.881c0-3.233-2.621-5.855-5.855-5.855c-3.233,0-5.855,2.622-5.855,5.855v10.978h23.484v-10.978H403.252z"
   id="path16" />
	<circle
   fill="#38BDCD"
   stroke="#231815"
   stroke-width="0.5"
   stroke-miterlimit="10"
   cx="409.17"
   cy="914.88"
   r="5.855"
   id="circle18" />
	<g
   id="g36">
		<circle
   fill="#38BDCD"
   stroke="#231815"
   stroke-width="0.5"
   stroke-miterlimit="10"
   cx="380.37"
   cy="960.009"
   r="2.23"
   id="circle20" />
		<circle
   fill="#38BDCD"
   stroke="#231815"
   stroke-width="0.5"
   stroke-miterlimit="10"
   cx="386.918"
   cy="960.009"
   r="2.23"
   id="circle22" />
		<circle
   fill="#38BDCD"
   stroke="#231815"
   stroke-width="0.5"
   stroke-miterlimit="10"
   cx="393.464"
   cy="960.009"
   r="2.23"
   id="circle24" />
		<circle
   fill="#38BDCD"
   stroke="#231815"
   stroke-width="0.5"
   stroke-miterlimit="10"
   cx="400.01"
   cy="960.009"
   r="2.231"
   id="circle26" />
		<circle
   fill="#38BDCD"
   stroke="#231815"
   stroke-width="0.5"
   stroke-miterlimit="10"
   cx="406.557"
   cy="960.009"
   r="2.23"
   id="circle28" />
		<circle
   fill="#38BDCD"
   stroke="#231815"
   stroke-width="0.5"
   stroke-miterlimit="10"
   cx="413.104"
   cy="960.009"
   r="2.23"
   id="circle30" />
		<circle
   fill="#38BDCD"
   stroke="#231815"
   stroke-width="0.5"
   stroke-miterlimit="10"
   cx="419.65"
   cy="960.009"
   r="2.23"
   id="circle32" />
		<circle
   fill="#38BDCD"
   stroke="#231815"
   stroke-width="0.5"
   stroke-miterlimit="10"
   cx="426.196"
   cy="960.009"
   r="2.23"
   id="circle34" />
	</g>
	
		<linearGradient
   id="SVGID_1_"
   gradientUnits="userSpaceOnUse"
   x1="394.885"
   y1="497.0911"
   x2="394.885"
   y2="524.6614"
   gradientTransform="matrix(1 0 0 -1 8.3999 1490.0991)">
		<stop
   offset="0"
   style="stop-color:#FFCA61"
   id="stop38" />
		<stop
   offset="0.1664"
   style="stop-color:#FFC761"
   id="stop40" />
		<stop
   offset="0.3091"
   style="stop-color:#FDBC63"
   id="stop42" />
		<stop
   offset="0.4432"
   style="stop-color:#FBAA65"
   id="stop44" />
		<stop
   offset="0.572"
   style="stop-color:#F79167"
   id="stop46" />
		<stop
   offset="0.697"
   style="stop-color:#F3716B"
   id="stop48" />
		<stop
   offset="0.8191"
   style="stop-color:#ED4A70"
   id="stop50" />
		<stop
   offset="0.9367"
   style="stop-color:#E71C75"
   id="stop52" />
		<stop
   offset="1"
   style="stop-color:#E30078"
   id="stop54" />
	</linearGradient>
	<path
   fill="url(#SVGID_1_)"
   stroke="#231815"
   stroke-width="0.5"
   stroke-miterlimit="10"
   d="M429.085,965.438l-5.091,24.979h-0.01   c0,1.431-1.16,2.591-2.591,2.591c-1.43,0-2.59-1.16-2.59-2.591c0,1.431-1.16,2.591-2.59,2.591c-1.42,0-2.58-1.16-2.58-2.591   c0,1.431-1.16,2.591-2.59,2.591c-1.431,0-2.591-1.16-2.591-2.591c0,1.431-1.159,2.591-2.58,2.591c-1.43,0-2.59-1.16-2.59-2.591   c0,1.431-1.16,2.591-2.59,2.591s-2.59-1.16-2.59-2.591c0,1.431-1.15,2.591-2.58,2.591s-2.59-1.16-2.59-2.591   c0,1.431-1.16,2.591-2.59,2.591c-1.432,0-2.58-1.16-2.58-2.591c0,1.431-1.16,2.591-2.59,2.591c-1.432,0-2.591-1.16-2.591-2.591   h-0.011l-5.09-24.979H429.085z"
   id="path57" />
	
		<line
   fill="none"
   stroke="#231815"
   stroke-width="0.5"
   stroke-miterlimit="10"
   x1="381.407"
   y1="984.69"
   x2="425.161"
   y2="984.69"
   id="line59" />
	
		<line
   fill="none"
   stroke="#231815"
   stroke-width="0.5"
   stroke-miterlimit="10"
   x1="380.766"
   y1="965.438"
   x2="378.346"
   y2="969.67"
   id="line61" />
	
		<line
   fill="none"
   stroke="#231815"
   stroke-width="0.5"
   stroke-miterlimit="10"
   x1="383.735"
   y1="965.438"
   x2="379.125"
   y2="973.489"
   id="line63" />
	
		<line
   fill="none"
   stroke="#231815"
   stroke-width="0.5"
   stroke-miterlimit="10"
   x1="386.704"
   y1="965.438"
   x2="379.905"
   y2="977.319"
   id="line65" />
	
		<line
   fill="none"
   stroke="#231815"
   stroke-width="0.5"
   stroke-miterlimit="10"
   x1="389.676"
   y1="965.438"
   x2="380.686"
   y2="981.159"
   id="line67" />
	
		<line
   fill="none"
   stroke="#231815"
   stroke-width="0.5"
   stroke-miterlimit="10"
   x1="392.655"
   y1="965.438"
   x2="381.635"
   y2="984.688"
   id="line69" />
	
		<line
   fill="none"
   stroke="#231815"
   stroke-width="0.5"
   stroke-miterlimit="10"
   x1="395.625"
   y1="965.438"
   x2="384.605"
   y2="984.688"
   id="line71" />
	
		<line
   fill="none"
   stroke="#231815"
   stroke-width="0.5"
   stroke-miterlimit="10"
   x1="398.596"
   y1="965.438"
   x2="387.574"
   y2="984.688"
   id="line73" />
	
		<line
   fill="none"
   stroke="#231815"
   stroke-width="0.5"
   stroke-miterlimit="10"
   x1="401.564"
   y1="965.438"
   x2="390.555"
   y2="984.688"
   id="line75" />
	
		<line
   fill="none"
   stroke="#231815"
   stroke-width="0.5"
   stroke-miterlimit="10"
   x1="404.545"
   y1="965.438"
   x2="393.525"
   y2="984.688"
   id="line77" />
	
		<line
   fill="none"
   stroke="#231815"
   stroke-width="0.5"
   stroke-miterlimit="10"
   x1="392.846"
   y1="991.069"
   x2="392.855"
   y2="991.059"
   id="line79" />
	
		<line
   fill="none"
   stroke="#231815"
   stroke-width="0.5"
   stroke-miterlimit="10"
   x1="407.516"
   y1="965.438"
   x2="396.494"
   y2="984.688"
   id="line81" />
	
		<line
   fill="none"
   stroke="#231815"
   stroke-width="0.5"
   stroke-miterlimit="10"
   x1="392.975"
   y1="990.859"
   x2="392.975"
   y2="990.849"
   id="line83" />
	
		<line
   fill="none"
   stroke="#231815"
   stroke-width="0.5"
   stroke-miterlimit="10"
   x1="392.176"
   y1="992.25"
   x2="392.164"
   y2="992.26"
   id="line85" />
	
		<line
   fill="none"
   stroke="#231815"
   stroke-width="0.5"
   stroke-miterlimit="10"
   x1="410.485"
   y1="965.438"
   x2="399.475"
   y2="984.688"
   id="line87" />
	
		<line
   fill="none"
   stroke="#231815"
   stroke-width="0.5"
   stroke-miterlimit="10"
   x1="413.454"
   y1="965.438"
   x2="402.445"
   y2="984.688"
   id="line89" />
	
		<line
   fill="none"
   stroke="#231815"
   stroke-width="0.5"
   stroke-miterlimit="10"
   x1="416.436"
   y1="965.438"
   x2="405.414"
   y2="984.688"
   id="line91" />
	
		<line
   fill="none"
   stroke="#231815"
   stroke-width="0.5"
   stroke-miterlimit="10"
   x1="419.405"
   y1="965.438"
   x2="408.385"
   y2="984.688"
   id="line93" />
	
		<line
   fill="none"
   stroke="#231815"
   stroke-width="0.5"
   stroke-miterlimit="10"
   x1="404.055"
   y1="992.26"
   x2="403.985"
   y2="992.38"
   id="line95" />
	
		<line
   fill="none"
   stroke="#231815"
   stroke-width="0.5"
   stroke-miterlimit="10"
   x1="422.375"
   y1="965.438"
   x2="411.365"
   y2="984.688"
   id="line97" />
	
		<line
   fill="none"
   stroke="#231815"
   stroke-width="0.5"
   stroke-miterlimit="10"
   x1="425.355"
   y1="965.438"
   x2="414.335"
   y2="984.688"
   id="line99" />
	
		<line
   fill="none"
   stroke="#231815"
   stroke-width="0.5"
   stroke-miterlimit="10"
   x1="428.324"
   y1="965.438"
   x2="417.305"
   y2="984.688"
   id="line101" />
	<polyline
   fill="none"
   stroke="#231815"
   stroke-width="0.5"
   stroke-miterlimit="10"
   points="413.195,991.869 413.335,991.619    413.375,991.55  "
   id="polyline103" />
	<polyline
   fill="none"
   stroke="#231815"
   stroke-width="0.5"
   stroke-miterlimit="10"
   points="420.275,984.688 427.865,971.449    427.865,971.438  "
   id="polyline105" />
	
		<line
   fill="none"
   stroke="#231815"
   stroke-width="0.5"
   stroke-miterlimit="10"
   x1="426.215"
   y1="979.51"
   x2="423.255"
   y2="984.688"
   id="line107" />
</g>
</svg>
