<?xml version="1.0" encoding="UTF-8" standalone="no"?>
<svg
   xmlns:dc="http://purl.org/dc/elements/1.1/"
   xmlns:cc="http://creativecommons.org/ns#"
   xmlns:rdf="http://www.w3.org/1999/02/22-rdf-syntax-ns#"
   xmlns:svg="http://www.w3.org/2000/svg"
   xmlns="http://www.w3.org/2000/svg"
   xmlns:sodipodi="http://sodipodi.sourceforge.net/DTD/sodipodi-0.dtd"
   xmlns:inkscape="http://www.inkscape.org/namespaces/inkscape"
   version="1.1"
   id="图层_1"
   x="0px"
   y="0px"
   width="55.938px"
   height="89.481px"
   viewBox="533.677 908.775 55.938 89.481"
   enable-background="new 533.677 908.775 55.938 89.481"
   xml:space="preserve"
   sodipodi:docname="01-62.svg"><metadata
   id="metadata116"><rdf:RDF><cc:Work
       rdf:about=""><dc:format>image/svg+xml</dc:format><dc:type
         rdf:resource="http://purl.org/dc/dcmitype/StillImage" /></cc:Work></rdf:RDF></metadata><defs
   id="defs114" /><sodipodi:namedview
   pagecolor="#ffffff"
   bordercolor="#666666"
   borderopacity="1"
   objecttolerance="10"
   gridtolerance="10"
   guidetolerance="10"
   inkscape:pageopacity="0"
   inkscape:pageshadow="2"
   inkscape:window-width="640"
   inkscape:window-height="480"
   id="namedview112" />
<g
   id="g109">
	
		<rect
   x="533.927"
   y="946.709"
   fill="#F4D876"
   stroke="#231815"
   stroke-width="0.5"
   stroke-miterlimit="10"
   width="55.438"
   height="51.298"
   id="rect2" />
	<rect
   x="535.849"
   y="965.44"
   fill="#E5E5E5"
   width="51.594"
   height="29.994"
   id="rect4" />
	<rect
   x="535.849"
   y="994.22"
   fill="#0DA6E7"
   width="51.594"
   height="1.215"
   id="rect6" />
	<rect
   x="535.849"
   y="993.006"
   fill="#8E52FB"
   width="51.594"
   height="1.215"
   id="rect8" />
	
		<rect
   x="549.903"
   y="938.101"
   fill="#CDA613"
   stroke="#231815"
   stroke-width="0.5"
   stroke-miterlimit="10"
   width="23.484"
   height="8.813"
   id="rect10" />
	
		<rect
   x="541.291"
   y="931.979"
   fill="#F4D876"
   stroke="#231815"
   stroke-width="0.5"
   stroke-linecap="round"
   stroke-linejoin="round"
   stroke-miterlimit="10"
   width="40.707"
   height="6.122"
   id="rect12" />
	
		<polygon
   fill="#F4D876"
   stroke="#231815"
   stroke-width="0.5"
   stroke-linecap="round"
   stroke-linejoin="round"
   stroke-miterlimit="10"
   points="   573.388,925.858 549.903,925.858 541.291,931.979 582,931.979  "
   id="polygon14" />
	
		<path
   fill="#F4D876"
   stroke="#231815"
   stroke-width="0.5"
   stroke-linecap="round"
   stroke-linejoin="round"
   stroke-miterlimit="10"
   d="   M561.614,914.881c0-3.233-2.621-5.855-5.854-5.855s-5.855,2.622-5.855,5.855v10.978h23.484v-10.978H561.614z"
   id="path16" />
	<circle
   fill="#CDA613"
   stroke="#231815"
   stroke-width="0.5"
   stroke-miterlimit="10"
   cx="567.531"
   cy="914.88"
   r="5.855"
   id="circle18" />
	<g
   id="g36">
		<circle
   fill="#CDA613"
   stroke="#231815"
   stroke-width="0.5"
   stroke-miterlimit="10"
   cx="538.733"
   cy="960.009"
   r="2.23"
   id="circle20" />
		<circle
   fill="#CDA613"
   stroke="#231815"
   stroke-width="0.5"
   stroke-miterlimit="10"
   cx="545.28"
   cy="960.009"
   r="2.23"
   id="circle22" />
		<circle
   fill="#CDA613"
   stroke="#231815"
   stroke-width="0.5"
   stroke-miterlimit="10"
   cx="551.825"
   cy="960.009"
   r="2.23"
   id="circle24" />
		<circle
   fill="#CDA613"
   stroke="#231815"
   stroke-width="0.5"
   stroke-miterlimit="10"
   cx="558.372"
   cy="960.009"
   r="2.231"
   id="circle26" />
		<circle
   fill="#CDA613"
   stroke="#231815"
   stroke-width="0.5"
   stroke-miterlimit="10"
   cx="564.919"
   cy="960.009"
   r="2.23"
   id="circle28" />
		<circle
   fill="#CDA613"
   stroke="#231815"
   stroke-width="0.5"
   stroke-miterlimit="10"
   cx="571.466"
   cy="960.009"
   r="2.23"
   id="circle30" />
		<circle
   fill="#CDA613"
   stroke="#231815"
   stroke-width="0.5"
   stroke-miterlimit="10"
   cx="578.013"
   cy="960.009"
   r="2.23"
   id="circle32" />
		<circle
   fill="#CDA613"
   stroke="#231815"
   stroke-width="0.5"
   stroke-miterlimit="10"
   cx="584.559"
   cy="960.009"
   r="2.23"
   id="circle34" />
	</g>
	
		<linearGradient
   id="SVGID_1_"
   gradientUnits="userSpaceOnUse"
   x1="553.2463"
   y1="497.0911"
   x2="553.2463"
   y2="524.6614"
   gradientTransform="matrix(1 0 0 -1 8.3999 1490.0991)">
		<stop
   offset="0"
   style="stop-color:#D961FF"
   id="stop38" />
		<stop
   offset="0.1613"
   style="stop-color:#D663FF"
   id="stop40" />
		<stop
   offset="0.2996"
   style="stop-color:#CB68FD"
   id="stop42" />
		<stop
   offset="0.4295"
   style="stop-color:#B971FB"
   id="stop44" />
		<stop
   offset="0.5542"
   style="stop-color:#A07DF8"
   id="stop46" />
		<stop
   offset="0.6753"
   style="stop-color:#808EF4"
   id="stop48" />
		<stop
   offset="0.7937"
   style="stop-color:#59A1EE"
   id="stop50" />
		<stop
   offset="0.9077"
   style="stop-color:#2BB8E9"
   id="stop52" />
		<stop
   offset="1"
   style="stop-color:#00CEE3"
   id="stop54" />
	</linearGradient>
	<path
   fill="url(#SVGID_1_)"
   stroke="#231815"
   stroke-width="0.5"
   stroke-miterlimit="10"
   d="M587.447,965.438l-5.09,24.979h-0.01   c0,1.431-1.16,2.591-2.591,2.591s-2.591-1.16-2.591-2.591c0,1.431-1.159,2.591-2.59,2.591c-1.42,0-2.58-1.16-2.58-2.591   c0,1.431-1.159,2.591-2.59,2.591c-1.43,0-2.59-1.16-2.59-2.591c0,1.431-1.16,2.591-2.58,2.591c-1.43,0-2.59-1.16-2.59-2.591   c0,1.431-1.16,2.591-2.59,2.591c-1.431,0-2.591-1.16-2.591-2.591c0,1.431-1.149,2.591-2.58,2.591c-1.43,0-2.59-1.16-2.59-2.591   c0,1.431-1.16,2.591-2.59,2.591c-1.431,0-2.58-1.16-2.58-2.591c0,1.431-1.16,2.591-2.59,2.591c-1.431,0-2.591-1.16-2.591-2.591   h-0.01l-5.091-24.979H587.447z"
   id="path57" />
	
		<line
   fill="none"
   stroke="#231815"
   stroke-width="0.5"
   stroke-miterlimit="10"
   x1="539.771"
   y1="984.69"
   x2="583.524"
   y2="984.69"
   id="line59" />
	
		<line
   fill="none"
   stroke="#231815"
   stroke-width="0.5"
   stroke-miterlimit="10"
   x1="539.128"
   y1="965.438"
   x2="536.707"
   y2="969.67"
   id="line61" />
	
		<line
   fill="none"
   stroke="#231815"
   stroke-width="0.5"
   stroke-miterlimit="10"
   x1="542.098"
   y1="965.438"
   x2="537.487"
   y2="973.489"
   id="line63" />
	
		<line
   fill="none"
   stroke="#231815"
   stroke-width="0.5"
   stroke-miterlimit="10"
   x1="545.067"
   y1="965.438"
   x2="538.268"
   y2="977.319"
   id="line65" />
	
		<line
   fill="none"
   stroke="#231815"
   stroke-width="0.5"
   stroke-miterlimit="10"
   x1="548.037"
   y1="965.438"
   x2="539.048"
   y2="981.159"
   id="line67" />
	
		<line
   fill="none"
   stroke="#231815"
   stroke-width="0.5"
   stroke-miterlimit="10"
   x1="551.018"
   y1="965.438"
   x2="539.996"
   y2="984.688"
   id="line69" />
	
		<line
   fill="none"
   stroke="#231815"
   stroke-width="0.5"
   stroke-miterlimit="10"
   x1="553.987"
   y1="965.438"
   x2="542.968"
   y2="984.688"
   id="line71" />
	
		<line
   fill="none"
   stroke="#231815"
   stroke-width="0.5"
   stroke-miterlimit="10"
   x1="556.957"
   y1="965.438"
   x2="545.938"
   y2="984.688"
   id="line73" />
	
		<line
   fill="none"
   stroke="#231815"
   stroke-width="0.5"
   stroke-miterlimit="10"
   x1="559.927"
   y1="965.438"
   x2="548.916"
   y2="984.688"
   id="line75" />
	
		<line
   fill="none"
   stroke="#231815"
   stroke-width="0.5"
   stroke-miterlimit="10"
   x1="562.906"
   y1="965.438"
   x2="551.888"
   y2="984.688"
   id="line77" />
	
		<line
   fill="none"
   stroke="#231815"
   stroke-width="0.5"
   stroke-miterlimit="10"
   x1="551.207"
   y1="991.069"
   x2="551.218"
   y2="991.059"
   id="line79" />
	
		<line
   fill="none"
   stroke="#231815"
   stroke-width="0.5"
   stroke-miterlimit="10"
   x1="565.878"
   y1="965.438"
   x2="554.857"
   y2="984.688"
   id="line81" />
	
		<line
   fill="none"
   stroke="#231815"
   stroke-width="0.5"
   stroke-miterlimit="10"
   x1="551.337"
   y1="990.859"
   x2="551.337"
   y2="990.849"
   id="line83" />
	
		<line
   fill="none"
   stroke="#231815"
   stroke-width="0.5"
   stroke-miterlimit="10"
   x1="550.537"
   y1="992.25"
   x2="550.527"
   y2="992.26"
   id="line85" />
	
		<line
   fill="none"
   stroke="#231815"
   stroke-width="0.5"
   stroke-miterlimit="10"
   x1="568.848"
   y1="965.438"
   x2="557.837"
   y2="984.688"
   id="line87" />
	
		<line
   fill="none"
   stroke="#231815"
   stroke-width="0.5"
   stroke-miterlimit="10"
   x1="571.817"
   y1="965.438"
   x2="560.808"
   y2="984.688"
   id="line89" />
	
		<line
   fill="none"
   stroke="#231815"
   stroke-width="0.5"
   stroke-miterlimit="10"
   x1="574.798"
   y1="965.438"
   x2="563.777"
   y2="984.688"
   id="line91" />
	
		<line
   fill="none"
   stroke="#231815"
   stroke-width="0.5"
   stroke-miterlimit="10"
   x1="577.768"
   y1="965.438"
   x2="566.746"
   y2="984.688"
   id="line93" />
	
		<line
   fill="none"
   stroke="#231815"
   stroke-width="0.5"
   stroke-miterlimit="10"
   x1="562.416"
   y1="992.26"
   x2="562.348"
   y2="992.38"
   id="line95" />
	
		<line
   fill="none"
   stroke="#231815"
   stroke-width="0.5"
   stroke-miterlimit="10"
   x1="580.737"
   y1="965.438"
   x2="569.728"
   y2="984.688"
   id="line97" />
	
		<line
   fill="none"
   stroke="#231815"
   stroke-width="0.5"
   stroke-miterlimit="10"
   x1="583.718"
   y1="965.438"
   x2="572.697"
   y2="984.688"
   id="line99" />
	
		<line
   fill="none"
   stroke="#231815"
   stroke-width="0.5"
   stroke-miterlimit="10"
   x1="586.688"
   y1="965.438"
   x2="575.666"
   y2="984.688"
   id="line101" />
	<polyline
   fill="none"
   stroke="#231815"
   stroke-width="0.5"
   stroke-miterlimit="10"
   points="571.558,991.869 571.697,991.619    571.737,991.55  "
   id="polyline103" />
	<polyline
   fill="none"
   stroke="#231815"
   stroke-width="0.5"
   stroke-miterlimit="10"
   points="578.638,984.688 586.228,971.449    586.228,971.438  "
   id="polyline105" />
	
		<line
   fill="none"
   stroke="#231815"
   stroke-width="0.5"
   stroke-miterlimit="10"
   x1="584.576"
   y1="979.51"
   x2="581.616"
   y2="984.688"
   id="line107" />
</g>
</svg>
