<?xml version="1.0" encoding="UTF-8" standalone="no"?>
<svg
   xmlns:dc="http://purl.org/dc/elements/1.1/"
   xmlns:cc="http://creativecommons.org/ns#"
   xmlns:rdf="http://www.w3.org/1999/02/22-rdf-syntax-ns#"
   xmlns:svg="http://www.w3.org/2000/svg"
   xmlns="http://www.w3.org/2000/svg"
   xmlns:sodipodi="http://sodipodi.sourceforge.net/DTD/sodipodi-0.dtd"
   xmlns:inkscape="http://www.inkscape.org/namespaces/inkscape"
   version="1.1"
   id="图层_1"
   x="0px"
   y="0px"
   width="55.938px"
   height="89.481px"
   viewBox="612.858 908.775 55.938 89.481"
   enable-background="new 612.858 908.775 55.938 89.481"
   xml:space="preserve"
   sodipodi:docname="01-63.svg"><metadata
   id="metadata118"><rdf:RDF><cc:Work
       rdf:about=""><dc:format>image/svg+xml</dc:format><dc:type
         rdf:resource="http://purl.org/dc/dcmitype/StillImage" /></cc:Work></rdf:RDF></metadata><defs
   id="defs116" /><sodipodi:namedview
   pagecolor="#ffffff"
   bordercolor="#666666"
   borderopacity="1"
   objecttolerance="10"
   gridtolerance="10"
   guidetolerance="10"
   inkscape:pageopacity="0"
   inkscape:pageshadow="2"
   inkscape:window-width="640"
   inkscape:window-height="480"
   id="namedview114" />
<g
   id="g111">
	
		<rect
   x="613.108"
   y="946.709"
   fill="#F47676"
   stroke="#231815"
   stroke-width="0.5"
   stroke-miterlimit="10"
   width="55.438"
   height="51.298"
   id="rect2" />
	<rect
   x="615.03"
   y="965.44"
   fill="#E5E5E5"
   width="51.594"
   height="29.994"
   id="rect4" />
	<rect
   x="615.03"
   y="994.22"
   fill="#A7E70D"
   width="51.594"
   height="1.215"
   id="rect6" />
	<rect
   x="615.03"
   y="993.006"
   fill="#52FBBF"
   width="51.594"
   height="1.215"
   id="rect8" />
	
		<rect
   x="629.085"
   y="938.101"
   fill="#CD0400"
   stroke="#231815"
   stroke-width="0.5"
   stroke-miterlimit="10"
   width="23.483"
   height="8.813"
   id="rect10" />
	
		<rect
   x="620.474"
   y="931.979"
   fill="#F47676"
   stroke="#231815"
   stroke-width="0.5"
   stroke-linecap="round"
   stroke-linejoin="round"
   stroke-miterlimit="10"
   width="40.707"
   height="6.122"
   id="rect12" />
	
		<polygon
   fill="#F47676"
   stroke="#231815"
   stroke-width="0.5"
   stroke-linecap="round"
   stroke-linejoin="round"
   stroke-miterlimit="10"
   points="   652.569,925.858 629.085,925.858 620.474,931.979 661.182,931.979  "
   id="polygon14" />
	
		<path
   fill="#F47676"
   stroke="#231815"
   stroke-width="0.5"
   stroke-linecap="round"
   stroke-linejoin="round"
   stroke-miterlimit="10"
   d="   M640.796,914.881c0-3.233-2.621-5.855-5.855-5.855c-3.232,0-5.854,2.622-5.854,5.855v10.978h23.483v-10.978H640.796z"
   id="path16" />
	<circle
   fill="#CD0400"
   stroke="#231815"
   stroke-width="0.5"
   stroke-miterlimit="10"
   cx="646.714"
   cy="914.88"
   r="5.855"
   id="circle18" />
	<g
   id="g36">
		<circle
   fill="#CD0400"
   stroke="#231815"
   stroke-width="0.5"
   stroke-miterlimit="10"
   cx="617.914"
   cy="960.009"
   r="2.23"
   id="circle20" />
		<circle
   fill="#CD0400"
   stroke="#231815"
   stroke-width="0.5"
   stroke-miterlimit="10"
   cx="624.462"
   cy="960.009"
   r="2.23"
   id="circle22" />
		<circle
   fill="#CD0400"
   stroke="#231815"
   stroke-width="0.5"
   stroke-miterlimit="10"
   cx="631.008"
   cy="960.009"
   r="2.23"
   id="circle24" />
		<circle
   fill="#CD0400"
   stroke="#231815"
   stroke-width="0.5"
   stroke-miterlimit="10"
   cx="637.554"
   cy="960.009"
   r="2.231"
   id="circle26" />
		<circle
   fill="#CD0400"
   stroke="#231815"
   stroke-width="0.5"
   stroke-miterlimit="10"
   cx="644.101"
   cy="960.009"
   r="2.23"
   id="circle28" />
		<circle
   fill="#CD0400"
   stroke="#231815"
   stroke-width="0.5"
   stroke-miterlimit="10"
   cx="650.647"
   cy="960.009"
   r="2.23"
   id="circle30" />
		<circle
   fill="#CD0400"
   stroke="#231815"
   stroke-width="0.5"
   stroke-miterlimit="10"
   cx="657.194"
   cy="960.009"
   r="2.23"
   id="circle32" />
		<circle
   fill="#CD0400"
   stroke="#231815"
   stroke-width="0.5"
   stroke-miterlimit="10"
   cx="663.74"
   cy="960.009"
   r="2.23"
   id="circle34" />
	</g>
	
		<linearGradient
   id="SVGID_1_"
   gradientUnits="userSpaceOnUse"
   x1="632.428"
   y1="497.0911"
   x2="632.428"
   y2="524.6614"
   gradientTransform="matrix(1 0 0 -1 8.3999 1490.0991)">
		<stop
   offset="0"
   style="stop-color:#61D9FF"
   id="stop38" />
		<stop
   offset="0.1503"
   style="stop-color:#62D9FC"
   id="stop40" />
		<stop
   offset="0.2791"
   style="stop-color:#67DAF1"
   id="stop42" />
		<stop
   offset="0.4002"
   style="stop-color:#6EDADF"
   id="stop44" />
		<stop
   offset="0.5165"
   style="stop-color:#78DBC6"
   id="stop46" />
		<stop
   offset="0.6294"
   style="stop-color:#85DCA6"
   id="stop48" />
		<stop
   offset="0.7397"
   style="stop-color:#94DE7F"
   id="stop50" />
		<stop
   offset="0.848"
   style="stop-color:#A7E050"
   id="stop52" />
		<stop
   offset="0.952"
   style="stop-color:#BCE21B"
   id="stop54" />
		<stop
   offset="1"
   style="stop-color:#C7E300"
   id="stop56" />
	</linearGradient>
	<path
   fill="url(#SVGID_1_)"
   stroke="#231815"
   stroke-width="0.5"
   stroke-miterlimit="10"
   d="M666.629,965.438l-5.091,24.979h-0.01   c0,1.431-1.16,2.591-2.591,2.591c-1.43,0-2.59-1.16-2.59-2.591c0,1.431-1.16,2.591-2.59,2.591c-1.42,0-2.58-1.16-2.58-2.591   c0,1.431-1.16,2.591-2.59,2.591c-1.431,0-2.591-1.16-2.591-2.591c0,1.431-1.159,2.591-2.58,2.591c-1.43,0-2.59-1.16-2.59-2.591   c0,1.431-1.16,2.591-2.59,2.591s-2.59-1.16-2.59-2.591c0,1.431-1.15,2.591-2.58,2.591s-2.59-1.16-2.59-2.591   c0,1.431-1.16,2.591-2.591,2.591s-2.579-1.16-2.579-2.591c0,1.431-1.16,2.591-2.591,2.591s-2.591-1.16-2.591-2.591h-0.01   l-5.09-24.979H666.629z"
   id="path59" />
	
		<line
   fill="none"
   stroke="#231815"
   stroke-width="0.5"
   stroke-miterlimit="10"
   x1="618.951"
   y1="984.69"
   x2="662.705"
   y2="984.69"
   id="line61" />
	<line
   fill="none"
   stroke="#231815"
   stroke-width="0.5"
   stroke-miterlimit="10"
   x1="618.31"
   y1="965.438"
   x2="615.89"
   y2="969.67"
   id="line63" />
	
		<line
   fill="none"
   stroke="#231815"
   stroke-width="0.5"
   stroke-miterlimit="10"
   x1="621.279"
   y1="965.438"
   x2="616.669"
   y2="973.489"
   id="line65" />
	
		<line
   fill="none"
   stroke="#231815"
   stroke-width="0.5"
   stroke-miterlimit="10"
   x1="624.248"
   y1="965.438"
   x2="617.448"
   y2="977.319"
   id="line67" />
	
		<line
   fill="none"
   stroke="#231815"
   stroke-width="0.5"
   stroke-miterlimit="10"
   x1="627.22"
   y1="965.438"
   x2="618.229"
   y2="981.159"
   id="line69" />
	
		<line
   fill="none"
   stroke="#231815"
   stroke-width="0.5"
   stroke-miterlimit="10"
   x1="630.198"
   y1="965.438"
   x2="619.179"
   y2="984.688"
   id="line71" />
	
		<line
   fill="none"
   stroke="#231815"
   stroke-width="0.5"
   stroke-miterlimit="10"
   x1="633.169"
   y1="965.438"
   x2="622.149"
   y2="984.688"
   id="line73" />
	
		<line
   fill="none"
   stroke="#231815"
   stroke-width="0.5"
   stroke-miterlimit="10"
   x1="636.14"
   y1="965.438"
   x2="625.118"
   y2="984.688"
   id="line75" />
	
		<line
   fill="none"
   stroke="#231815"
   stroke-width="0.5"
   stroke-miterlimit="10"
   x1="639.108"
   y1="965.438"
   x2="628.099"
   y2="984.688"
   id="line77" />
	
		<line
   fill="none"
   stroke="#231815"
   stroke-width="0.5"
   stroke-miterlimit="10"
   x1="642.089"
   y1="965.438"
   x2="631.069"
   y2="984.688"
   id="line79" />
	
		<line
   fill="none"
   stroke="#231815"
   stroke-width="0.5"
   stroke-miterlimit="10"
   x1="630.39"
   y1="991.069"
   x2="630.399"
   y2="991.059"
   id="line81" />
	
		<line
   fill="none"
   stroke="#231815"
   stroke-width="0.5"
   stroke-miterlimit="10"
   x1="645.06"
   y1="965.438"
   x2="634.038"
   y2="984.688"
   id="line83" />
	
		<line
   fill="none"
   stroke="#231815"
   stroke-width="0.5"
   stroke-miterlimit="10"
   x1="630.519"
   y1="990.859"
   x2="630.519"
   y2="990.849"
   id="line85" />
	<line
   fill="none"
   stroke="#231815"
   stroke-width="0.5"
   stroke-miterlimit="10"
   x1="629.72"
   y1="992.25"
   x2="629.709"
   y2="992.26"
   id="line87" />
	
		<line
   fill="none"
   stroke="#231815"
   stroke-width="0.5"
   stroke-miterlimit="10"
   x1="648.029"
   y1="965.438"
   x2="637.019"
   y2="984.688"
   id="line89" />
	
		<line
   fill="none"
   stroke="#231815"
   stroke-width="0.5"
   stroke-miterlimit="10"
   x1="650.998"
   y1="965.438"
   x2="639.989"
   y2="984.688"
   id="line91" />
	
		<line
   fill="none"
   stroke="#231815"
   stroke-width="0.5"
   stroke-miterlimit="10"
   x1="653.979"
   y1="965.438"
   x2="642.959"
   y2="984.688"
   id="line93" />
	
		<line
   fill="none"
   stroke="#231815"
   stroke-width="0.5"
   stroke-miterlimit="10"
   x1="656.948"
   y1="965.438"
   x2="645.929"
   y2="984.688"
   id="line95" />
	
		<line
   fill="none"
   stroke="#231815"
   stroke-width="0.5"
   stroke-miterlimit="10"
   x1="641.599"
   y1="992.26"
   x2="641.529"
   y2="992.38"
   id="line97" />
	
		<line
   fill="none"
   stroke="#231815"
   stroke-width="0.5"
   stroke-miterlimit="10"
   x1="659.919"
   y1="965.438"
   x2="648.908"
   y2="984.688"
   id="line99" />
	
		<line
   fill="none"
   stroke="#231815"
   stroke-width="0.5"
   stroke-miterlimit="10"
   x1="662.899"
   y1="965.438"
   x2="651.879"
   y2="984.688"
   id="line101" />
	
		<line
   fill="none"
   stroke="#231815"
   stroke-width="0.5"
   stroke-miterlimit="10"
   x1="665.868"
   y1="965.438"
   x2="654.849"
   y2="984.688"
   id="line103" />
	<polyline
   fill="none"
   stroke="#231815"
   stroke-width="0.5"
   stroke-miterlimit="10"
   points="650.739,991.869 650.879,991.619    650.919,991.55  "
   id="polyline105" />
	<polyline
   fill="none"
   stroke="#231815"
   stroke-width="0.5"
   stroke-miterlimit="10"
   points="657.819,984.688 665.408,971.449    665.408,971.438  "
   id="polyline107" />
	
		<line
   fill="none"
   stroke="#231815"
   stroke-width="0.5"
   stroke-miterlimit="10"
   x1="663.759"
   y1="979.51"
   x2="660.799"
   y2="984.688"
   id="line109" />
</g>
</svg>
