<?xml version="1.0" encoding="UTF-8" standalone="no"?>
<svg
   xmlns:dc="http://purl.org/dc/elements/1.1/"
   xmlns:cc="http://creativecommons.org/ns#"
   xmlns:rdf="http://www.w3.org/1999/02/22-rdf-syntax-ns#"
   xmlns:svg="http://www.w3.org/2000/svg"
   xmlns="http://www.w3.org/2000/svg"
   xmlns:sodipodi="http://sodipodi.sourceforge.net/DTD/sodipodi-0.dtd"
   xmlns:inkscape="http://www.inkscape.org/namespaces/inkscape"
   version="1.1"
   id="图层_1"
   x="0px"
   y="0px"
   width="84.2px"
   height="96.163px"
   viewBox="141.89 1014.591 84.2 96.163"
   enable-background="new 141.89 1014.591 84.2 96.163"
   xml:space="preserve"
   sodipodi:docname="01-65.svg"><metadata
   id="metadata134"><rdf:RDF><cc:Work
       rdf:about=""><dc:format>image/svg+xml</dc:format><dc:type
         rdf:resource="http://purl.org/dc/dcmitype/StillImage" /></cc:Work></rdf:RDF></metadata><defs
   id="defs132" /><sodipodi:namedview
   pagecolor="#ffffff"
   bordercolor="#666666"
   borderopacity="1"
   objecttolerance="10"
   gridtolerance="10"
   guidetolerance="10"
   inkscape:pageopacity="0"
   inkscape:pageshadow="2"
   inkscape:window-width="640"
   inkscape:window-height="480"
   id="namedview130" />
<g
   id="g127">
	
		<rect
   x="166.239"
   y="1055.354"
   fill="#76E1F4"
   stroke="#231815"
   stroke-width="0.5"
   stroke-miterlimit="10"
   width="59.602"
   height="55.149"
   id="rect2" />
	<rect
   x="168.305"
   y="1056.935"
   fill="#E5E5E5"
   width="55.469"
   height="50.805"
   id="rect4" />
	
		<rect
   x="168.305"
   y="1056.935"
   fill="#3CB0CD"
   stroke="#231815"
   stroke-width="0.5"
   stroke-miterlimit="10"
   width="55.469"
   height="18.559"
   id="rect6" />
	<g
   id="g62">
		<g
   id="g22">
			
				<line
   fill="none"
   stroke="#231815"
   stroke-width="0.5"
   stroke-miterlimit="10"
   x1="168.305"
   y1="1059.002"
   x2="223.774"
   y2="1059.002"
   id="line8" />
			
				<line
   fill="none"
   stroke="#231815"
   stroke-width="0.5"
   stroke-miterlimit="10"
   x1="168.305"
   y1="1061.405"
   x2="223.774"
   y2="1061.405"
   id="line10" />
			
				<line
   fill="none"
   stroke="#231815"
   stroke-width="0.5"
   stroke-miterlimit="10"
   x1="168.305"
   y1="1063.81"
   x2="223.774"
   y2="1063.81"
   id="line12" />
			
				<line
   fill="none"
   stroke="#231815"
   stroke-width="0.5"
   stroke-miterlimit="10"
   x1="168.305"
   y1="1066.214"
   x2="223.774"
   y2="1066.214"
   id="line14" />
			
				<line
   fill="none"
   stroke="#231815"
   stroke-width="0.5"
   stroke-miterlimit="10"
   x1="168.305"
   y1="1068.618"
   x2="223.774"
   y2="1068.618"
   id="line16" />
			
				<line
   fill="none"
   stroke="#231815"
   stroke-width="0.5"
   stroke-miterlimit="10"
   x1="168.305"
   y1="1071.021"
   x2="223.774"
   y2="1071.021"
   id="line18" />
			
				<line
   fill="none"
   stroke="#231815"
   stroke-width="0.5"
   stroke-miterlimit="10"
   x1="168.305"
   y1="1073.427"
   x2="223.774"
   y2="1073.427"
   id="line20" />
		</g>
		<g
   id="g60">
			<g
   id="g38">
				
					<line
   fill="none"
   stroke="#231815"
   stroke-width="0.5"
   stroke-miterlimit="10"
   x1="171.359"
   y1="1075.493"
   x2="171.359"
   y2="1056.935"
   id="line24" />
				
					<line
   fill="none"
   stroke="#231815"
   stroke-width="0.5"
   stroke-miterlimit="10"
   x1="174.651"
   y1="1075.493"
   x2="174.651"
   y2="1056.935"
   id="line26" />
				
					<line
   fill="none"
   stroke="#231815"
   stroke-width="0.5"
   stroke-miterlimit="10"
   x1="177.941"
   y1="1075.493"
   x2="177.941"
   y2="1056.935"
   id="line28" />
				
					<line
   fill="none"
   stroke="#231815"
   stroke-width="0.5"
   stroke-miterlimit="10"
   x1="181.232"
   y1="1075.493"
   x2="181.232"
   y2="1056.935"
   id="line30" />
				
					<line
   fill="none"
   stroke="#231815"
   stroke-width="0.5"
   stroke-miterlimit="10"
   x1="184.522"
   y1="1075.493"
   x2="184.522"
   y2="1056.935"
   id="line32" />
				
					<line
   fill="none"
   stroke="#231815"
   stroke-width="0.5"
   stroke-miterlimit="10"
   x1="187.813"
   y1="1075.493"
   x2="187.813"
   y2="1056.935"
   id="line34" />
				
					<line
   fill="none"
   stroke="#231815"
   stroke-width="0.5"
   stroke-miterlimit="10"
   x1="191.105"
   y1="1075.493"
   x2="191.105"
   y2="1056.935"
   id="line36" />
			</g>
			<g
   id="g54">
				
					<line
   fill="none"
   stroke="#231815"
   stroke-width="0.5"
   stroke-miterlimit="10"
   x1="194.368"
   y1="1075.493"
   x2="194.368"
   y2="1056.935"
   id="line40" />
				
					<line
   fill="none"
   stroke="#231815"
   stroke-width="0.5"
   stroke-miterlimit="10"
   x1="197.659"
   y1="1075.493"
   x2="197.659"
   y2="1056.935"
   id="line42" />
				
					<line
   fill="none"
   stroke="#231815"
   stroke-width="0.5"
   stroke-miterlimit="10"
   x1="200.949"
   y1="1075.493"
   x2="200.949"
   y2="1056.935"
   id="line44" />
				
					<line
   fill="none"
   stroke="#231815"
   stroke-width="0.5"
   stroke-miterlimit="10"
   x1="204.239"
   y1="1075.493"
   x2="204.239"
   y2="1056.935"
   id="line46" />
				
					<line
   fill="none"
   stroke="#231815"
   stroke-width="0.5"
   stroke-miterlimit="10"
   x1="207.532"
   y1="1075.493"
   x2="207.532"
   y2="1056.935"
   id="line48" />
				
					<line
   fill="none"
   stroke="#231815"
   stroke-width="0.5"
   stroke-miterlimit="10"
   x1="210.822"
   y1="1075.493"
   x2="210.822"
   y2="1056.935"
   id="line50" />
				
					<line
   fill="none"
   stroke="#231815"
   stroke-width="0.5"
   stroke-miterlimit="10"
   x1="214.113"
   y1="1075.493"
   x2="214.113"
   y2="1056.935"
   id="line52" />
			</g>
			
				<line
   fill="none"
   stroke="#231815"
   stroke-width="0.5"
   stroke-miterlimit="10"
   x1="217.428"
   y1="1075.493"
   x2="217.428"
   y2="1056.935"
   id="line56" />
			
				<line
   fill="none"
   stroke="#231815"
   stroke-width="0.5"
   stroke-miterlimit="10"
   x1="220.719"
   y1="1075.493"
   x2="220.719"
   y2="1056.935"
   id="line58" />
		</g>
	</g>
	<g
   id="g74">
		<path
   fill="#E9F0F2"
   stroke="#231815"
   stroke-width="0.5"
   stroke-miterlimit="10"
   d="M166.228,1086.514h-14.414    c-5.343,0-9.674,4.331-9.674,9.675s4.331,9.674,9.674,9.674c4.856,0,8.864-3.579,9.558-8.243h4.856V1086.514z"
   id="path64" />
		<circle
   fill="#E5E5E5"
   cx="151.813"
   cy="1096.188"
   r="7.897"
   id="circle66" />
		<circle
   fill="#231815"
   cx="151.813"
   cy="1096.188"
   r="3.554"
   id="circle68" />
		<circle
   fill="#E5E5E5"
   cx="151.813"
   cy="1096.188"
   r="1.432"
   id="circle70" />
		
			<rect
   x="166.228"
   y="1088.291"
   fill="#E9F0F2"
   stroke="#231815"
   stroke-width="0.5"
   stroke-miterlimit="10"
   width="2.078"
   height="7.553"
   id="rect72" />
	</g>
	<g
   id="g115">
		
			<linearGradient
   id="SVGID_1_"
   gradientUnits="userSpaceOnUse"
   x1="196.5798"
   y1="389.24"
   x2="199.1306"
   y2="389.24"
   gradientTransform="matrix(1 0 0 -1 8.3999 1490.0991)">
			<stop
   offset="0"
   style="stop-color:#FFCE61"
   id="stop76" />
			<stop
   offset="0.2453"
   style="stop-color:#F79562"
   id="stop78" />
			<stop
   offset="0.6115"
   style="stop-color:#EC4564"
   id="stop80" />
			<stop
   offset="0.872"
   style="stop-color:#E61365"
   id="stop82" />
			<stop
   offset="1"
   style="stop-color:#E30065"
   id="stop84" />
		</linearGradient>
		<path
   fill="url(#SVGID_1_)"
   stroke="#231815"
   stroke-width="0.5"
   stroke-miterlimit="10"
   d="M204.98,1100.566    c1.26,0.544,2.551,0.586,2.551,0.586S206.524,1100.911,204.98,1100.566z"
   id="path87" />
		
			<linearGradient
   id="SVGID_2_"
   gradientUnits="userSpaceOnUse"
   x1="196.5798"
   y1="406.8259"
   x2="199.1306"
   y2="406.8259"
   gradientTransform="matrix(1 0 0 -1 8.3999 1490.0991)">
			<stop
   offset="0"
   style="stop-color:#FFCE61"
   id="stop89" />
			<stop
   offset="0.2453"
   style="stop-color:#F79562"
   id="stop91" />
			<stop
   offset="0.6115"
   style="stop-color:#EC4564"
   id="stop93" />
			<stop
   offset="0.872"
   style="stop-color:#E61365"
   id="stop95" />
			<stop
   offset="1"
   style="stop-color:#E30065"
   id="stop97" />
		</linearGradient>
		<path
   fill="url(#SVGID_2_)"
   stroke="#231815"
   stroke-width="0.5"
   stroke-miterlimit="10"
   d="M204.98,1083.566    c1.543-0.344,2.551-0.586,2.551-0.586S206.241,1083.022,204.98,1083.566z"
   id="path100" />
		
			<linearGradient
   id="SVGID_3_"
   gradientUnits="userSpaceOnUse"
   x1="159.905"
   y1="398.0349"
   x2="213.4968"
   y2="398.0349"
   gradientTransform="matrix(1 0 0 -1 8.3999 1490.0991)">
			<stop
   offset="0"
   style="stop-color:#FFE361"
   id="stop102" />
			<stop
   offset="0.3061"
   style="stop-color:#F59540"
   id="stop104" />
			<stop
   offset="0.6425"
   style="stop-color:#EC451E"
   id="stop106" />
			<stop
   offset="0.8822"
   style="stop-color:#E51308"
   id="stop108" />
			<stop
   offset="1"
   style="stop-color:#E30000"
   id="stop110" />
		</linearGradient>
		<path
   fill="url(#SVGID_3_)"
   stroke="#231815"
   stroke-width="0.5"
   stroke-miterlimit="10"
   d="M212.805,1092.066    c2.918-2,9.092-0.684,9.092-0.684c-0.196-0.984-1.888-1.949-5.724-2.441c-0.422-0.054-0.812-0.095-1.174-0.13    c-1.933-0.66-3.425-1.673-1.69-3.143c0.321-0.272,0.508-0.45,0.599-0.563c1.751-0.998,3.521-0.788,3.521-0.788    c-6.346-0.906-11.809,3.901-13.546,1.03c-0.176-0.293-0.256-0.594-0.271-0.896c0.401-0.39,0.882-0.678,1.369-0.888    c-0.404,0.091-0.846,0.188-1.317,0.289c0.488-2.119,3.87-4.158,3.87-4.158c-6.272,0.221-9.92,4.707-14.263,5.693    c-4.345,0.984-1.58-5.474-1.58-5.474c-0.842,1.701-2.641,3.967-4.673,5.226c-2.052,0.907-4.929,1.734-2.495-2.162    c0,0-0.94,1.043-2.898,2.255c-1.447-1.077-0.392-2.352-0.392-2.352c-9.63-0.758-12.763,5.708-12.912,6.025    c-0.005,0-0.011,0.002-0.015,0.002v0.029v6.251v0.029c0.004,0,0.01,0,0.015,0c0.149,0.319,3.039,3.524,12.912,6.026    c0,0-1.056-1.272,0.392-2.352c1.958,1.212,2.898,2.255,2.898,2.255c-2.435-3.896,0.442-3.067,2.495-2.161    c2.033,1.26,3.831,3.524,4.673,5.226c0,0-2.765-6.458,1.58-5.474c4.342,0.985,7.99,5.474,14.263,5.692c0,0-3.381-2.04-3.87-4.157    c0.472,0.103,0.913,0.198,1.317,0.288c-0.487-0.211-0.968-0.497-1.369-0.886c0.016-0.305,0.095-0.604,0.271-0.896    c1.737-2.872,7.2,1.938,13.546,1.029c0,0-1.77,0.21-3.521-0.788c-0.091-0.11-0.277-0.289-0.599-0.561    c-1.733-1.472-0.242-2.483,1.69-3.146c0.362-0.033,0.751-0.074,1.174-0.128c3.836-0.492,5.526-1.457,5.724-2.442    C221.896,1092.75,215.723,1094.066,212.805,1092.066z"
   id="path113" />
	</g>
	
		<rect
   x="183.416"
   y="1046.1"
   fill="#3CB0CD"
   stroke="#231815"
   stroke-width="0.5"
   stroke-miterlimit="10"
   width="25.247"
   height="9.476"
   id="rect117" />
	
		<rect
   x="174.157"
   y="1039.518"
   fill="#76E1F4"
   stroke="#231815"
   stroke-width="0.5"
   stroke-linecap="round"
   stroke-linejoin="round"
   stroke-miterlimit="10"
   width="43.765"
   height="6.582"
   id="rect119" />
	
		<polygon
   fill="#76E1F4"
   stroke="#231815"
   stroke-width="0.5"
   stroke-linecap="round"
   stroke-linejoin="round"
   stroke-miterlimit="10"
   points="   208.664,1032.938 183.416,1032.938 174.158,1039.518 217.922,1039.518  "
   id="polygon121" />
	
		<path
   fill="#76E1F4"
   stroke="#231815"
   stroke-width="0.5"
   stroke-linecap="round"
   stroke-linejoin="round"
   stroke-miterlimit="10"
   d="   M196.006,1021.135c0-3.477-2.818-6.295-6.295-6.295c-3.479,0-6.295,2.818-6.295,6.295v11.803h25.248v-11.803H196.006z"
   id="path123" />
	<circle
   fill="#3CB0CD"
   stroke="#231815"
   stroke-width="0.5"
   stroke-miterlimit="10"
   cx="202.368"
   cy="1021.135"
   r="6.295"
   id="circle125" />
</g>
</svg>
