<?xml version="1.0" encoding="UTF-8" standalone="no"?>
<svg
   xmlns:dc="http://purl.org/dc/elements/1.1/"
   xmlns:cc="http://creativecommons.org/ns#"
   xmlns:rdf="http://www.w3.org/1999/02/22-rdf-syntax-ns#"
   xmlns:svg="http://www.w3.org/2000/svg"
   xmlns="http://www.w3.org/2000/svg"
   xmlns:sodipodi="http://sodipodi.sourceforge.net/DTD/sodipodi-0.dtd"
   xmlns:inkscape="http://www.inkscape.org/namespaces/inkscape"
   version="1.1"
   id="图层_1"
   x="0px"
   y="0px"
   width="84.201px"
   height="96.163px"
   viewBox="482.956 1014.591 84.201 96.163"
   enable-background="new 482.956 1014.591 84.201 96.163"
   xml:space="preserve"
   sodipodi:docname="01-68.svg"><metadata
   id="metadata134"><rdf:RDF><cc:Work
       rdf:about=""><dc:format>image/svg+xml</dc:format><dc:type
         rdf:resource="http://purl.org/dc/dcmitype/StillImage" /></cc:Work></rdf:RDF></metadata><defs
   id="defs132" /><sodipodi:namedview
   pagecolor="#ffffff"
   bordercolor="#666666"
   borderopacity="1"
   objecttolerance="10"
   gridtolerance="10"
   guidetolerance="10"
   inkscape:pageopacity="0"
   inkscape:pageshadow="2"
   inkscape:window-width="640"
   inkscape:window-height="480"
   id="namedview130" />
<g
   id="g127">
	
		<rect
   x="507.307"
   y="1055.354"
   fill="#A0A0A0"
   stroke="#1B1B1B"
   stroke-width="0.5"
   stroke-miterlimit="10"
   width="59.601"
   height="55.149"
   id="rect2" />
	<rect
   x="509.372"
   y="1056.935"
   fill="#E5E5E5"
   width="55.47"
   height="50.805"
   id="rect4" />
	
		<rect
   x="509.372"
   y="1056.935"
   fill="#686868"
   stroke="#1B1B1B"
   stroke-width="0.5"
   stroke-miterlimit="10"
   width="55.47"
   height="18.559"
   id="rect6" />
	<g
   id="g62">
		<g
   id="g22">
			
				<line
   fill="none"
   stroke="#1B1B1B"
   stroke-width="0.5"
   stroke-miterlimit="10"
   x1="509.372"
   y1="1059.002"
   x2="564.842"
   y2="1059.002"
   id="line8" />
			
				<line
   fill="none"
   stroke="#1B1B1B"
   stroke-width="0.5"
   stroke-miterlimit="10"
   x1="509.372"
   y1="1061.405"
   x2="564.842"
   y2="1061.405"
   id="line10" />
			
				<line
   fill="none"
   stroke="#1B1B1B"
   stroke-width="0.5"
   stroke-miterlimit="10"
   x1="509.372"
   y1="1063.81"
   x2="564.842"
   y2="1063.81"
   id="line12" />
			
				<line
   fill="none"
   stroke="#1B1B1B"
   stroke-width="0.5"
   stroke-miterlimit="10"
   x1="509.372"
   y1="1066.214"
   x2="564.842"
   y2="1066.214"
   id="line14" />
			
				<line
   fill="none"
   stroke="#1B1B1B"
   stroke-width="0.5"
   stroke-miterlimit="10"
   x1="509.372"
   y1="1068.618"
   x2="564.842"
   y2="1068.618"
   id="line16" />
			
				<line
   fill="none"
   stroke="#1B1B1B"
   stroke-width="0.5"
   stroke-miterlimit="10"
   x1="509.372"
   y1="1071.021"
   x2="564.842"
   y2="1071.021"
   id="line18" />
			
				<line
   fill="none"
   stroke="#1B1B1B"
   stroke-width="0.5"
   stroke-miterlimit="10"
   x1="509.372"
   y1="1073.427"
   x2="564.842"
   y2="1073.427"
   id="line20" />
		</g>
		<g
   id="g60">
			<g
   id="g38">
				
					<line
   fill="none"
   stroke="#1B1B1B"
   stroke-width="0.5"
   stroke-miterlimit="10"
   x1="512.426"
   y1="1075.493"
   x2="512.426"
   y2="1056.935"
   id="line24" />
				
					<line
   fill="none"
   stroke="#1B1B1B"
   stroke-width="0.5"
   stroke-miterlimit="10"
   x1="515.719"
   y1="1075.493"
   x2="515.719"
   y2="1056.935"
   id="line26" />
				
					<line
   fill="none"
   stroke="#1B1B1B"
   stroke-width="0.5"
   stroke-miterlimit="10"
   x1="519.009"
   y1="1075.493"
   x2="519.009"
   y2="1056.935"
   id="line28" />
				
					<line
   fill="none"
   stroke="#1B1B1B"
   stroke-width="0.5"
   stroke-miterlimit="10"
   x1="522.299"
   y1="1075.493"
   x2="522.299"
   y2="1056.935"
   id="line30" />
				
					<line
   fill="none"
   stroke="#1B1B1B"
   stroke-width="0.5"
   stroke-miterlimit="10"
   x1="525.59"
   y1="1075.493"
   x2="525.59"
   y2="1056.935"
   id="line32" />
				
					<line
   fill="none"
   stroke="#1B1B1B"
   stroke-width="0.5"
   stroke-miterlimit="10"
   x1="528.88"
   y1="1075.493"
   x2="528.88"
   y2="1056.935"
   id="line34" />
				
					<line
   fill="none"
   stroke="#1B1B1B"
   stroke-width="0.5"
   stroke-miterlimit="10"
   x1="532.173"
   y1="1075.493"
   x2="532.173"
   y2="1056.935"
   id="line36" />
			</g>
			<g
   id="g54">
				
					<line
   fill="none"
   stroke="#1B1B1B"
   stroke-width="0.5"
   stroke-miterlimit="10"
   x1="535.436"
   y1="1075.493"
   x2="535.436"
   y2="1056.935"
   id="line40" />
				
					<line
   fill="none"
   stroke="#1B1B1B"
   stroke-width="0.5"
   stroke-miterlimit="10"
   x1="538.727"
   y1="1075.493"
   x2="538.727"
   y2="1056.935"
   id="line42" />
				
					<line
   fill="none"
   stroke="#1B1B1B"
   stroke-width="0.5"
   stroke-miterlimit="10"
   x1="542.017"
   y1="1075.493"
   x2="542.017"
   y2="1056.935"
   id="line44" />
				
					<line
   fill="none"
   stroke="#1B1B1B"
   stroke-width="0.5"
   stroke-miterlimit="10"
   x1="545.307"
   y1="1075.493"
   x2="545.307"
   y2="1056.935"
   id="line46" />
				
					<line
   fill="none"
   stroke="#1B1B1B"
   stroke-width="0.5"
   stroke-miterlimit="10"
   x1="548.6"
   y1="1075.493"
   x2="548.6"
   y2="1056.935"
   id="line48" />
				
					<line
   fill="none"
   stroke="#1B1B1B"
   stroke-width="0.5"
   stroke-miterlimit="10"
   x1="551.89"
   y1="1075.493"
   x2="551.89"
   y2="1056.935"
   id="line50" />
				
					<line
   fill="none"
   stroke="#1B1B1B"
   stroke-width="0.5"
   stroke-miterlimit="10"
   x1="555.181"
   y1="1075.493"
   x2="555.181"
   y2="1056.935"
   id="line52" />
			</g>
			
				<line
   fill="none"
   stroke="#1B1B1B"
   stroke-width="0.5"
   stroke-miterlimit="10"
   x1="558.495"
   y1="1075.493"
   x2="558.495"
   y2="1056.935"
   id="line56" />
			
				<line
   fill="none"
   stroke="#1B1B1B"
   stroke-width="0.5"
   stroke-miterlimit="10"
   x1="561.785"
   y1="1075.493"
   x2="561.785"
   y2="1056.935"
   id="line58" />
		</g>
	</g>
	<g
   id="g74">
		<path
   fill="#ECECEC"
   stroke="#1B1B1B"
   stroke-width="0.5"
   stroke-miterlimit="10"
   d="M507.294,1086.514h-14.413    c-5.345,0-9.675,4.331-9.675,9.675s4.33,9.674,9.675,9.674c4.854,0,8.862-3.579,9.557-8.243h4.856V1086.514z"
   id="path64" />
		<circle
   fill="#E5E5E5"
   cx="492.881"
   cy="1096.188"
   r="7.897"
   id="circle66" />
		<circle
   fill="#1B1B1B"
   cx="492.88"
   cy="1096.188"
   r="3.554"
   id="circle68" />
		<circle
   fill="#E5E5E5"
   cx="492.881"
   cy="1096.188"
   r="1.432"
   id="circle70" />
		
			<rect
   x="507.294"
   y="1088.291"
   fill="#ECECEC"
   stroke="#1B1B1B"
   stroke-width="0.5"
   stroke-miterlimit="10"
   width="2.079"
   height="7.553"
   id="rect72" />
	</g>
	<g
   id="g115">
		
			<linearGradient
   id="SVGID_1_"
   gradientUnits="userSpaceOnUse"
   x1="537.6487"
   y1="389.24"
   x2="540.1995"
   y2="389.24"
   gradientTransform="matrix(1 0 0 -1 8.3999 1490.0991)">
			<stop
   offset="0"
   style="stop-color:#DDDDDD"
   id="stop76" />
			<stop
   offset="0.0233"
   style="stop-color:#D9D9D9"
   id="stop78" />
			<stop
   offset="0.4977"
   style="stop-color:#898989"
   id="stop80" />
			<stop
   offset="0.8344"
   style="stop-color:#575757"
   id="stop82" />
			<stop
   offset="1"
   style="stop-color:#444444"
   id="stop84" />
		</linearGradient>
		<path
   fill="url(#SVGID_1_)"
   stroke="#1B1B1B"
   stroke-width="0.5"
   stroke-miterlimit="10"
   d="M546.048,1100.566    c1.26,0.544,2.552,0.586,2.552,0.586S547.592,1100.911,546.048,1100.566z"
   id="path87" />
		
			<linearGradient
   id="SVGID_2_"
   gradientUnits="userSpaceOnUse"
   x1="537.6487"
   y1="406.8259"
   x2="540.1995"
   y2="406.8259"
   gradientTransform="matrix(1 0 0 -1 8.3999 1490.0991)">
			<stop
   offset="0"
   style="stop-color:#DDDDDD"
   id="stop89" />
			<stop
   offset="0.0233"
   style="stop-color:#D9D9D9"
   id="stop91" />
			<stop
   offset="0.4977"
   style="stop-color:#898989"
   id="stop93" />
			<stop
   offset="0.8344"
   style="stop-color:#575757"
   id="stop95" />
			<stop
   offset="1"
   style="stop-color:#444444"
   id="stop97" />
		</linearGradient>
		<path
   fill="url(#SVGID_2_)"
   stroke="#1B1B1B"
   stroke-width="0.5"
   stroke-miterlimit="10"
   d="M546.048,1083.566    c1.544-0.344,2.552-0.586,2.552-0.586S547.308,1083.022,546.048,1083.566z"
   id="path100" />
		
			<linearGradient
   id="SVGID_3_"
   gradientUnits="userSpaceOnUse"
   x1="500.9729"
   y1="398.0349"
   x2="554.5647"
   y2="398.0349"
   gradientTransform="matrix(1 0 0 -1 8.3999 1490.0991)">
			<stop
   offset="0"
   style="stop-color:#DDDDDD"
   id="stop102" />
			<stop
   offset="0.0233"
   style="stop-color:#D9D9D9"
   id="stop104" />
			<stop
   offset="0.4977"
   style="stop-color:#898989"
   id="stop106" />
			<stop
   offset="0.8344"
   style="stop-color:#575757"
   id="stop108" />
			<stop
   offset="1"
   style="stop-color:#444444"
   id="stop110" />
		</linearGradient>
		<path
   fill="url(#SVGID_3_)"
   stroke="#1B1B1B"
   stroke-width="0.5"
   stroke-miterlimit="10"
   d="M553.871,1092.066    c2.92-2,9.093-0.684,9.093-0.684c-0.197-0.984-1.889-1.949-5.725-2.441c-0.422-0.054-0.811-0.095-1.174-0.13    c-1.932-0.66-3.425-1.673-1.69-3.143c0.321-0.272,0.509-0.45,0.6-0.563c1.751-0.998,3.521-0.788,3.521-0.788    c-6.346-0.906-11.81,3.901-13.546,1.03c-0.177-0.293-0.257-0.594-0.271-0.896c0.4-0.39,0.88-0.678,1.369-0.888    c-0.405,0.091-0.847,0.188-1.318,0.289c0.489-2.119,3.87-4.158,3.87-4.158c-6.272,0.221-9.92,4.707-14.262,5.693    c-4.346,0.984-1.582-5.474-1.582-5.474c-0.843,1.701-2.64,3.967-4.672,5.226c-2.055,0.907-4.931,1.734-2.494-2.162    c0,0-0.943,1.043-2.9,2.255c-1.446-1.077-0.391-2.352-0.391-2.352c-9.629-0.758-12.763,5.708-12.911,6.025    c-0.007,0-0.011,0.002-0.016,0.002v0.029v6.251v0.029c0.005,0,0.009,0,0.016,0c0.148,0.319,3.038,3.524,12.911,6.026    c0,0-1.057-1.272,0.391-2.352c1.957,1.212,2.9,2.255,2.9,2.255c-2.437-3.896,0.439-3.067,2.494-2.161    c2.032,1.26,3.829,3.524,4.672,5.226c0,0-2.764-6.458,1.582-5.474c4.342,0.985,7.988,5.474,14.262,5.692    c0,0-3.381-2.04-3.87-4.157c0.473,0.103,0.913,0.198,1.318,0.288c-0.489-0.211-0.969-0.497-1.369-0.886    c0.015-0.305,0.095-0.604,0.271-0.896c1.736-2.872,7.2,1.938,13.546,1.029c0,0-1.771,0.21-3.521-0.788    c-0.091-0.11-0.277-0.289-0.6-0.561c-1.733-1.472-0.24-2.483,1.69-3.146c0.363-0.033,0.752-0.074,1.174-0.128    c3.836-0.492,5.526-1.457,5.725-2.442C562.964,1092.75,556.791,1094.066,553.871,1092.066z"
   id="path113" />
	</g>
	
		<rect
   x="524.483"
   y="1046.1"
   fill="#686868"
   stroke="#1B1B1B"
   stroke-width="0.5"
   stroke-miterlimit="10"
   width="25.246"
   height="9.476"
   id="rect117" />
	
		<rect
   x="515.223"
   y="1039.518"
   fill="#A0A0A0"
   stroke="#1B1B1B"
   stroke-width="0.5"
   stroke-linecap="round"
   stroke-linejoin="round"
   stroke-miterlimit="10"
   width="43.767"
   height="6.582"
   id="rect119" />
	
		<polygon
   fill="#A0A0A0"
   stroke="#1B1B1B"
   stroke-width="0.5"
   stroke-linecap="round"
   stroke-linejoin="round"
   stroke-miterlimit="10"
   points="   549.731,1032.938 524.483,1032.938 515.225,1039.518 558.989,1039.518  "
   id="polygon121" />
	
		<path
   fill="#A0A0A0"
   stroke="#1B1B1B"
   stroke-width="0.5"
   stroke-linecap="round"
   stroke-linejoin="round"
   stroke-miterlimit="10"
   d="   M537.073,1021.135c0-3.477-2.816-6.295-6.295-6.295c-3.478,0-6.295,2.818-6.295,6.295v11.803h25.248v-11.803H537.073z"
   id="path123" />
	<circle
   fill="#686868"
   stroke="#1B1B1B"
   stroke-width="0.5"
   stroke-miterlimit="10"
   cx="543.436"
   cy="1021.135"
   r="6.295"
   id="circle125" />
</g>
</svg>
