<?xml version="1.0" encoding="UTF-8" standalone="no"?>
<svg
   xmlns:dc="http://purl.org/dc/elements/1.1/"
   xmlns:cc="http://creativecommons.org/ns#"
   xmlns:rdf="http://www.w3.org/1999/02/22-rdf-syntax-ns#"
   xmlns:svg="http://www.w3.org/2000/svg"
   xmlns="http://www.w3.org/2000/svg"
   xmlns:sodipodi="http://sodipodi.sourceforge.net/DTD/sodipodi-0.dtd"
   xmlns:inkscape="http://www.inkscape.org/namespaces/inkscape"
   version="1.1"
   id="图层_1"
   x="0px"
   y="0px"
   width="60.101px"
   height="96.163px"
   viewBox="608.696 1014.591 60.101 96.163"
   enable-background="new 608.696 1014.591 60.101 96.163"
   xml:space="preserve"
   sodipodi:docname="01-69.svg"><metadata
   id="metadata114"><rdf:RDF><cc:Work
       rdf:about=""><dc:format>image/svg+xml</dc:format><dc:type
         rdf:resource="http://purl.org/dc/dcmitype/StillImage" /></cc:Work></rdf:RDF></metadata><defs
   id="defs112" /><sodipodi:namedview
   pagecolor="#ffffff"
   bordercolor="#666666"
   borderopacity="1"
   objecttolerance="10"
   gridtolerance="10"
   guidetolerance="10"
   inkscape:pageopacity="0"
   inkscape:pageshadow="2"
   inkscape:window-width="640"
   inkscape:window-height="480"
   id="namedview110" />
<g
   id="g107">
	
		<rect
   x="608.946"
   y="1055.354"
   fill="#A0A0A0"
   stroke="#1B1B1B"
   stroke-width="0.5"
   stroke-miterlimit="10"
   width="59.601"
   height="55.149"
   id="rect2" />
	<rect
   x="611.012"
   y="1075.493"
   fill="#E5E5E5"
   width="55.468"
   height="32.246"
   id="rect4" />
	<rect
   x="611.012"
   y="1106.434"
   fill="#595959"
   width="55.468"
   height="1.306"
   id="rect6" />
	<rect
   x="611.012"
   y="1105.127"
   fill="#C6C6C6"
   width="55.468"
   height="1.308"
   id="rect8" />
	
		<rect
   x="626.121"
   y="1046.1"
   fill="#686868"
   stroke="#1B1B1B"
   stroke-width="0.5"
   stroke-miterlimit="10"
   width="25.248"
   height="9.476"
   id="rect10" />
	
		<rect
   x="616.864"
   y="1039.518"
   fill="#A0A0A0"
   stroke="#1B1B1B"
   stroke-width="0.5"
   stroke-linecap="round"
   stroke-linejoin="round"
   stroke-miterlimit="10"
   width="43.766"
   height="6.582"
   id="rect12" />
	
		<polygon
   fill="#A0A0A0"
   stroke="#1B1B1B"
   stroke-width="0.5"
   stroke-linecap="round"
   stroke-linejoin="round"
   stroke-miterlimit="10"
   points="   651.369,1032.938 626.121,1032.938 616.864,1039.518 660.63,1039.518  "
   id="polygon14" />
	
		<path
   fill="#A0A0A0"
   stroke="#1B1B1B"
   stroke-width="0.5"
   stroke-linecap="round"
   stroke-linejoin="round"
   stroke-miterlimit="10"
   d="   M638.713,1021.135c0-3.477-2.818-6.295-6.295-6.295c-3.478,0-6.297,2.818-6.297,6.295v11.803h25.248v-11.803H638.713z"
   id="path16" />
	<circle
   fill="#686868"
   stroke="#1B1B1B"
   stroke-width="0.5"
   stroke-miterlimit="10"
   cx="645.074"
   cy="1021.135"
   r="6.295"
   id="circle18" />
	<g
   id="g36">
		<circle
   fill="#686868"
   stroke="#1B1B1B"
   stroke-width="0.5"
   stroke-miterlimit="10"
   cx="614.114"
   cy="1069.654"
   r="2.398"
   id="circle20" />
		<circle
   fill="#686868"
   stroke="#1B1B1B"
   stroke-width="0.5"
   stroke-miterlimit="10"
   cx="621.152"
   cy="1069.654"
   r="2.398"
   id="circle22" />
		<circle
   fill="#686868"
   stroke="#1B1B1B"
   stroke-width="0.5"
   stroke-miterlimit="10"
   cx="628.19"
   cy="1069.654"
   r="2.398"
   id="circle24" />
		<circle
   fill="#686868"
   stroke="#1B1B1B"
   stroke-width="0.5"
   stroke-miterlimit="10"
   cx="635.228"
   cy="1069.654"
   r="2.398"
   id="circle26" />
		<circle
   fill="#686868"
   stroke="#1B1B1B"
   stroke-width="0.5"
   stroke-miterlimit="10"
   cx="642.266"
   cy="1069.654"
   r="2.398"
   id="circle28" />
		<circle
   fill="#686868"
   stroke="#1B1B1B"
   stroke-width="0.5"
   stroke-miterlimit="10"
   cx="649.304"
   cy="1069.654"
   r="2.398"
   id="circle30" />
		<circle
   fill="#686868"
   stroke="#1B1B1B"
   stroke-width="0.5"
   stroke-miterlimit="10"
   cx="656.343"
   cy="1069.654"
   r="2.398"
   id="circle32" />
		<circle
   fill="#686868"
   stroke="#1B1B1B"
   stroke-width="0.5"
   stroke-miterlimit="10"
   cx="663.38"
   cy="1069.654"
   r="2.398"
   id="circle34" />
	</g>
	
		<linearGradient
   id="SVGID_1_"
   gradientUnits="userSpaceOnUse"
   x1="630.3499"
   y1="384.968"
   x2="630.3499"
   y2="414.6096"
   gradientTransform="matrix(1 0 0 -1 8.3999 1490.0991)">
		<stop
   offset="0"
   style="stop-color:#DDDDDD"
   id="stop38" />
		<stop
   offset="0.188"
   style="stop-color:#DADADA"
   id="stop40" />
		<stop
   offset="0.3492"
   style="stop-color:#CFCFCF"
   id="stop42" />
		<stop
   offset="0.5006"
   style="stop-color:#BDBDBD"
   id="stop44" />
		<stop
   offset="0.646"
   style="stop-color:#A5A5A5"
   id="stop46" />
		<stop
   offset="0.7871"
   style="stop-color:#848484"
   id="stop48" />
		<stop
   offset="0.9231"
   style="stop-color:#5E5E5E"
   id="stop50" />
		<stop
   offset="1"
   style="stop-color:#444444"
   id="stop52" />
	</linearGradient>
	<path
   fill="url(#SVGID_1_)"
   stroke="#1B1B1B"
   stroke-width="0.5"
   stroke-miterlimit="10"
   d="M666.486,1075.49l-5.473,26.857h-0.011   c0,1.537-1.247,2.784-2.785,2.784c-1.537,0-2.784-1.247-2.784-2.784c0,1.537-1.247,2.784-2.784,2.784   c-1.525,0-2.773-1.247-2.773-2.784c0,1.537-1.247,2.784-2.784,2.784s-2.784-1.247-2.784-2.784c0,1.537-1.247,2.784-2.773,2.784   c-1.537,0-2.783-1.247-2.783-2.784c0,1.537-1.248,2.784-2.785,2.784s-2.784-1.247-2.784-2.784c0,1.537-1.236,2.784-2.773,2.784   c-1.536,0-2.783-1.247-2.783-2.784c0,1.537-1.248,2.784-2.785,2.784c-1.538,0-2.773-1.247-2.773-2.784   c0,1.537-1.247,2.784-2.784,2.784c-1.538,0-2.784-1.247-2.784-2.784h-0.012l-5.473-26.857H666.486z"
   id="path55" />
	
		<line
   fill="none"
   stroke="#1B1B1B"
   stroke-width="0.5"
   stroke-miterlimit="10"
   x1="615.229"
   y1="1096.188"
   x2="662.269"
   y2="1096.188"
   id="line57" />
	
		<line
   fill="none"
   stroke="#1B1B1B"
   stroke-width="0.5"
   stroke-miterlimit="10"
   x1="614.537"
   y1="1075.49"
   x2="611.937"
   y2="1080.039"
   id="line59" />
	
		<line
   fill="none"
   stroke="#1B1B1B"
   stroke-width="0.5"
   stroke-miterlimit="10"
   x1="617.73"
   y1="1075.49"
   x2="612.773"
   y2="1084.146"
   id="line61" />
	
		<line
   fill="none"
   stroke="#1B1B1B"
   stroke-width="0.5"
   stroke-miterlimit="10"
   x1="620.923"
   y1="1075.49"
   x2="613.613"
   y2="1088.264"
   id="line63" />
	
		<line
   fill="none"
   stroke="#1B1B1B"
   stroke-width="0.5"
   stroke-miterlimit="10"
   x1="624.116"
   y1="1075.49"
   x2="614.45"
   y2="1092.393"
   id="line65" />
	
		<line
   fill="none"
   stroke="#1B1B1B"
   stroke-width="0.5"
   stroke-miterlimit="10"
   x1="627.32"
   y1="1075.49"
   x2="615.473"
   y2="1096.187"
   id="line67" />
	
		<line
   fill="none"
   stroke="#1B1B1B"
   stroke-width="0.5"
   stroke-miterlimit="10"
   x1="630.513"
   y1="1075.49"
   x2="618.666"
   y2="1096.187"
   id="line69" />
	
		<line
   fill="none"
   stroke="#1B1B1B"
   stroke-width="0.5"
   stroke-miterlimit="10"
   x1="633.706"
   y1="1075.49"
   x2="621.858"
   y2="1096.187"
   id="line71" />
	
		<line
   fill="none"
   stroke="#1B1B1B"
   stroke-width="0.5"
   stroke-miterlimit="10"
   x1="636.898"
   y1="1075.49"
   x2="625.062"
   y2="1096.187"
   id="line73" />
	
		<line
   fill="none"
   stroke="#1B1B1B"
   stroke-width="0.5"
   stroke-miterlimit="10"
   x1="640.103"
   y1="1075.49"
   x2="628.256"
   y2="1096.187"
   id="line75" />
	
		<line
   fill="none"
   stroke="#1B1B1B"
   stroke-width="0.5"
   stroke-miterlimit="10"
   x1="627.525"
   y1="1103.048"
   x2="627.534"
   y2="1103.035"
   id="line77" />
	
		<line
   fill="none"
   stroke="#1B1B1B"
   stroke-width="0.5"
   stroke-miterlimit="10"
   x1="643.297"
   y1="1075.49"
   x2="631.448"
   y2="1096.187"
   id="line79" />
	
		<line
   fill="none"
   stroke="#1B1B1B"
   stroke-width="0.5"
   stroke-miterlimit="10"
   x1="627.663"
   y1="1102.82"
   x2="627.663"
   y2="1102.81"
   id="line81" />
	
		<line
   fill="none"
   stroke="#1B1B1B"
   stroke-width="0.5"
   stroke-miterlimit="10"
   x1="626.805"
   y1="1104.314"
   x2="626.793"
   y2="1104.325"
   id="line83" />
	
		<line
   fill="none"
   stroke="#1B1B1B"
   stroke-width="0.5"
   stroke-miterlimit="10"
   x1="646.489"
   y1="1075.49"
   x2="634.651"
   y2="1096.187"
   id="line85" />
	
		<line
   fill="none"
   stroke="#1B1B1B"
   stroke-width="0.5"
   stroke-miterlimit="10"
   x1="649.683"
   y1="1075.49"
   x2="637.846"
   y2="1096.187"
   id="line87" />
	
		<line
   fill="none"
   stroke="#1B1B1B"
   stroke-width="0.5"
   stroke-miterlimit="10"
   x1="652.887"
   y1="1075.49"
   x2="641.037"
   y2="1096.187"
   id="line89" />
	
		<line
   fill="none"
   stroke="#1B1B1B"
   stroke-width="0.5"
   stroke-miterlimit="10"
   x1="656.078"
   y1="1075.49"
   x2="644.231"
   y2="1096.187"
   id="line91" />
	
		<line
   fill="none"
   stroke="#1B1B1B"
   stroke-width="0.5"
   stroke-miterlimit="10"
   x1="639.575"
   y1="1104.325"
   x2="639.5"
   y2="1104.454"
   id="line93" />
	
		<line
   fill="none"
   stroke="#1B1B1B"
   stroke-width="0.5"
   stroke-miterlimit="10"
   x1="659.272"
   y1="1075.49"
   x2="647.436"
   y2="1096.187"
   id="line95" />
	
		<line
   fill="none"
   stroke="#1B1B1B"
   stroke-width="0.5"
   stroke-miterlimit="10"
   x1="662.477"
   y1="1075.49"
   x2="650.628"
   y2="1096.187"
   id="line97" />
	
		<line
   fill="none"
   stroke="#1B1B1B"
   stroke-width="0.5"
   stroke-miterlimit="10"
   x1="665.669"
   y1="1075.49"
   x2="653.821"
   y2="1096.187"
   id="line99" />
	<polyline
   fill="none"
   stroke="#1B1B1B"
   stroke-width="0.5"
   stroke-miterlimit="10"
   points="649.403,1103.906 649.553,1103.638    649.596,1103.563  "
   id="polyline101" />
	<polyline
   fill="none"
   stroke="#1B1B1B"
   stroke-width="0.5"
   stroke-miterlimit="10"
   points="657.015,1096.187 665.175,1081.953    665.175,1081.941  "
   id="polyline103" />
	
		<line
   fill="none"
   stroke="#1B1B1B"
   stroke-width="0.5"
   stroke-miterlimit="10"
   x1="663.4"
   y1="1090.618"
   x2="660.218"
   y2="1096.187"
   id="line105" />
</g>
</svg>
