<?xml version="1.0" encoding="UTF-8" standalone="no"?>
<svg
   xmlns:dc="http://purl.org/dc/elements/1.1/"
   xmlns:cc="http://creativecommons.org/ns#"
   xmlns:rdf="http://www.w3.org/1999/02/22-rdf-syntax-ns#"
   xmlns:svg="http://www.w3.org/2000/svg"
   xmlns="http://www.w3.org/2000/svg"
   xmlns:sodipodi="http://sodipodi.sourceforge.net/DTD/sodipodi-0.dtd"
   xmlns:inkscape="http://www.inkscape.org/namespaces/inkscape"
   version="1.1"
   id="图层_1"
   x="0px"
   y="0px"
   width="128.018px"
   height="101.833px"
   viewBox="32.919 1134.716 128.018 101.833"
   enable-background="new 32.919 1134.716 128.018 101.833"
   xml:space="preserve"
   sodipodi:docname="01-70.svg"><metadata
   id="metadata252"><rdf:RDF><cc:Work
       rdf:about=""><dc:format>image/svg+xml</dc:format><dc:type
         rdf:resource="http://purl.org/dc/dcmitype/StillImage" /></cc:Work></rdf:RDF></metadata><defs
   id="defs250" /><sodipodi:namedview
   pagecolor="#ffffff"
   bordercolor="#666666"
   borderopacity="1"
   objecttolerance="10"
   gridtolerance="10"
   guidetolerance="10"
   inkscape:pageopacity="0"
   inkscape:pageshadow="2"
   inkscape:window-width="640"
   inkscape:window-height="480"
   id="namedview248" />
<g
   id="g245">
	
		<polygon
   fill="#76A6F4"
   stroke="#231815"
   stroke-width="0.5"
   stroke-linecap="round"
   stroke-linejoin="round"
   stroke-miterlimit="10"
   points="   127.013,1144.371 33.169,1167.2 33.169,1234.954 127.013,1234.954  "
   id="polygon2" />
	
		<linearGradient
   id="SVGID_1_"
   gradientUnits="userSpaceOnUse"
   x1="24.7693"
   y1="283.3953"
   x2="118.613"
   y2="283.3953"
   gradientTransform="matrix(1 0 0 -1 8.3999 1490.0991)">
		<stop
   offset="0"
   style="stop-color:#043BA9"
   id="stop4" />
		<stop
   offset="0.1036"
   style="stop-color:#2B5DC2"
   id="stop6" />
		<stop
   offset="0.205"
   style="stop-color:#4B79D7"
   id="stop8" />
		<stop
   offset="0.2611"
   style="stop-color:#5784DF"
   id="stop10" />
		<stop
   offset="0.3023"
   style="stop-color:#6792E9"
   id="stop12" />
		<stop
   offset="0.3679"
   style="stop-color:#7AA3F5"
   id="stop14" />
		<stop
   offset="0.4354"
   style="stop-color:#85ADFD"
   id="stop16" />
		<stop
   offset="0.5074"
   style="stop-color:#89B0FF"
   id="stop18" />
		<stop
   offset="0.5688"
   style="stop-color:#84ACFC"
   id="stop20" />
		<stop
   offset="0.642"
   style="stop-color:#759FF2"
   id="stop22" />
		<stop
   offset="0.7209"
   style="stop-color:#5E8AE3"
   id="stop24" />
		<stop
   offset="0.7389"
   style="stop-color:#5784DF"
   id="stop26" />
		<stop
   offset="1"
   style="stop-color:#043BA9"
   id="stop28" />
	</linearGradient>
	
		<rect
   x="33.169"
   y="1178.454"
   fill="url(#SVGID_1_)"
   stroke="#231815"
   stroke-width="0.5"
   stroke-linecap="round"
   stroke-linejoin="round"
   stroke-miterlimit="10"
   width="93.844"
   height="56.5"
   id="rect31" />
	
		<linearGradient
   id="SVGID_2_"
   gradientUnits="userSpaceOnUse"
   x1="28.7703"
   y1="283.3953"
   x2="114.6101"
   y2="283.3953"
   gradientTransform="matrix(1 0 0 -1 8.3999 1490.0991)">
		<stop
   offset="0"
   style="stop-color:#FFE361"
   id="stop33" />
		<stop
   offset="1"
   style="stop-color:#F69E43"
   id="stop35" />
	</linearGradient>
	
		<rect
   x="37.17"
   y="1182.454"
   fill="url(#SVGID_2_)"
   stroke="#231815"
   stroke-width="0.5"
   stroke-miterlimit="10"
   width="85.84"
   height="48.5"
   id="rect38" />
	<g
   id="g79">
		
			<linearGradient
   id="SVGID_3_"
   gradientUnits="userSpaceOnUse"
   x1="68.9041"
   y1="273.3386"
   x2="71.5261"
   y2="273.3386"
   gradientTransform="matrix(1 0 0 -1 8.3999 1490.0991)">
			<stop
   offset="0"
   style="stop-color:#FFE361"
   id="stop40" />
			<stop
   offset="0.3061"
   style="stop-color:#F59540"
   id="stop42" />
			<stop
   offset="0.6425"
   style="stop-color:#EC451E"
   id="stop44" />
			<stop
   offset="0.8822"
   style="stop-color:#E51308"
   id="stop46" />
			<stop
   offset="1"
   style="stop-color:#E30000"
   id="stop48" />
		</linearGradient>
		<path
   fill="url(#SVGID_3_)"
   stroke="#231815"
   stroke-width="0.5"
   stroke-miterlimit="10"
   d="M77.304,1216.426    c1.294,0.621,2.622,0.67,2.622,0.67S78.889,1216.817,77.304,1216.426z"
   id="path51" />
		
			<linearGradient
   id="SVGID_4_"
   gradientUnits="userSpaceOnUse"
   x1="68.9041"
   y1="293.45"
   x2="71.5261"
   y2="293.45"
   gradientTransform="matrix(1 0 0 -1 8.3999 1490.0991)">
			<stop
   offset="0"
   style="stop-color:#FFE361"
   id="stop53" />
			<stop
   offset="0.3061"
   style="stop-color:#F59540"
   id="stop55" />
			<stop
   offset="0.6425"
   style="stop-color:#EC451E"
   id="stop57" />
			<stop
   offset="0.8822"
   style="stop-color:#E51308"
   id="stop59" />
			<stop
   offset="1"
   style="stop-color:#E30000"
   id="stop61" />
		</linearGradient>
		<path
   fill="url(#SVGID_4_)"
   stroke="#231815"
   stroke-width="0.5"
   stroke-miterlimit="10"
   d="M77.304,1196.983    c1.585-0.393,2.622-0.668,2.622-0.668S78.598,1196.362,77.304,1196.983z"
   id="path64" />
		
			<linearGradient
   id="SVGID_5_"
   gradientUnits="userSpaceOnUse"
   x1="31.2166"
   y1="283.3938"
   x2="86.2878"
   y2="283.3938"
   gradientTransform="matrix(1 0 0 -1 8.3999 1490.0991)">
			<stop
   offset="0"
   style="stop-color:#FFE361"
   id="stop66" />
			<stop
   offset="0.3061"
   style="stop-color:#F59540"
   id="stop68" />
			<stop
   offset="0.6425"
   style="stop-color:#EC451E"
   id="stop70" />
			<stop
   offset="0.8822"
   style="stop-color:#E51308"
   id="stop72" />
			<stop
   offset="1"
   style="stop-color:#E30000"
   id="stop74" />
		</linearGradient>
		<path
   fill="url(#SVGID_5_)"
   stroke="#231815"
   stroke-width="0.5"
   stroke-miterlimit="10"
   d="M85.344,1206.704    c3-2.288,9.344-0.78,9.344-0.78c-0.203-1.127-1.938-2.229-5.882-2.793c-0.434-0.062-0.833-0.107-1.206-0.147    c-1.984-0.755-3.52-1.913-1.737-3.594c0.33-0.313,0.522-0.517,0.615-0.644c1.8-1.141,3.619-0.899,3.619-0.899    c-6.521-1.037-12.136,4.461-13.92,1.177c-0.181-0.334-0.264-0.678-0.279-1.025c0.412-0.442,0.905-0.772,1.407-1.014    c-0.417,0.104-0.87,0.215-1.354,0.331c0.503-2.423,3.978-4.754,3.978-4.754c-6.445,0.251-10.194,5.383-14.657,6.509    c-4.465,1.127-1.625-6.258-1.625-6.258c-0.865,1.946-2.713,4.537-4.802,5.975c-2.109,1.037-5.066,1.983-2.563-2.471    c0,0-0.968,1.191-2.979,2.577c-1.486-1.231-0.4-2.688-0.4-2.688c-9.896-0.866-13.115,6.525-13.27,6.893    c-0.006,0-0.011,0.001-0.015,0.001v0.033v7.147v0.033c0.004,0,0.009,0,0.015,0c0.153,0.367,3.124,4.029,13.27,6.893    c0,0-1.086-1.457,0.4-2.688c2.013,1.386,2.979,2.58,2.979,2.58c-2.502-4.456,0.454-3.511,2.563-2.474    c2.089,1.438,3.937,4.028,4.802,5.976c0,0-2.841-7.386,1.625-6.259c4.462,1.129,8.211,6.259,14.657,6.51    c0,0-3.475-2.333-3.978-4.754c0.484,0.115,0.938,0.227,1.354,0.33c-0.502-0.24-0.995-0.569-1.407-1.014    c0.016-0.348,0.099-0.691,0.279-1.025c1.784-3.282,7.399,2.215,13.92,1.178c0,0-1.819,0.24-3.619-0.9    c-0.093-0.128-0.286-0.33-0.615-0.641c-1.781-1.685-0.247-2.841,1.737-3.599c0.373-0.038,0.772-0.085,1.206-0.146    c3.943-0.563,5.679-1.666,5.882-2.793C94.688,1207.485,88.343,1208.991,85.344,1206.704z"
   id="path77" />
	</g>
	<g
   id="g144">
		
			<linearGradient
   id="SVGID_6_"
   gradientUnits="userSpaceOnUse"
   x1="55.6296"
   y1="278.0017"
   x2="57.3171"
   y2="278.0017"
   gradientTransform="matrix(1 0 0 -1 8.3999 1490.0991)">
			<stop
   offset="0"
   style="stop-color:#E30000"
   id="stop81" />
			<stop
   offset="0.0181"
   style="stop-color:#E40703"
   id="stop83" />
			<stop
   offset="0.1687"
   style="stop-color:#EB411C"
   id="stop85" />
			<stop
   offset="0.3196"
   style="stop-color:#F17231"
   id="stop87" />
			<stop
   offset="0.4673"
   style="stop-color:#F69B42"
   id="stop89" />
			<stop
   offset="0.6112"
   style="stop-color:#FABA50"
   id="stop91" />
			<stop
   offset="0.7502"
   style="stop-color:#FDD159"
   id="stop93" />
			<stop
   offset="0.8823"
   style="stop-color:#FEDE5F"
   id="stop95" />
			<stop
   offset="1"
   style="stop-color:#FFE361"
   id="stop97" />
		</linearGradient>
		<path
   fill="url(#SVGID_6_)"
   d="M64.03,1211.918c0.833,0.334,1.688,0.359,1.688,0.359S65.05,1212.131,64.03,1211.918z"
   id="path100" />
		
			<linearGradient
   id="SVGID_7_"
   gradientUnits="userSpaceOnUse"
   x1="55.6296"
   y1="288.7883"
   x2="57.3171"
   y2="288.7883"
   gradientTransform="matrix(1 0 0 -1 8.3999 1490.0991)">
			<stop
   offset="0"
   style="stop-color:#E30000"
   id="stop102" />
			<stop
   offset="0.0181"
   style="stop-color:#E40703"
   id="stop104" />
			<stop
   offset="0.1687"
   style="stop-color:#EB411C"
   id="stop106" />
			<stop
   offset="0.3196"
   style="stop-color:#F17231"
   id="stop108" />
			<stop
   offset="0.4673"
   style="stop-color:#F69B42"
   id="stop110" />
			<stop
   offset="0.6112"
   style="stop-color:#FABA50"
   id="stop112" />
			<stop
   offset="0.7502"
   style="stop-color:#FDD159"
   id="stop114" />
			<stop
   offset="0.8823"
   style="stop-color:#FEDE5F"
   id="stop116" />
			<stop
   offset="1"
   style="stop-color:#FFE361"
   id="stop118" />
		</linearGradient>
		<path
   fill="url(#SVGID_7_)"
   d="M64.03,1201.49c1.021-0.212,1.688-0.358,1.688-0.358S64.862,1201.155,64.03,1201.49z"
   id="path121" />
		
			<linearGradient
   id="SVGID_8_"
   gradientUnits="userSpaceOnUse"
   x1="31.3845"
   y1="283.3938"
   x2="66.8132"
   y2="283.3938"
   gradientTransform="matrix(1 0 0 -1 8.3999 1490.0991)">
			<stop
   offset="0"
   style="stop-color:#E30000"
   id="stop123" />
			<stop
   offset="0.0181"
   style="stop-color:#E40703"
   id="stop125" />
			<stop
   offset="0.1687"
   style="stop-color:#EB411C"
   id="stop127" />
			<stop
   offset="0.3196"
   style="stop-color:#F17231"
   id="stop129" />
			<stop
   offset="0.4673"
   style="stop-color:#F69B42"
   id="stop131" />
			<stop
   offset="0.6112"
   style="stop-color:#FABA50"
   id="stop133" />
			<stop
   offset="0.7502"
   style="stop-color:#FDD159"
   id="stop135" />
			<stop
   offset="0.8823"
   style="stop-color:#FEDE5F"
   id="stop137" />
			<stop
   offset="1"
   style="stop-color:#FFE361"
   id="stop139" />
		</linearGradient>
		<path
   fill="url(#SVGID_8_)"
   d="M69.202,1206.704c1.93-1.227,6.011-0.419,6.011-0.419c-0.13-0.604-1.248-1.196-3.784-1.499    c-0.279-0.031-0.536-0.058-0.776-0.077c-1.276-0.405-2.264-1.026-1.116-1.93c0.212-0.167,0.336-0.275,0.396-0.344    c1.157-0.612,2.328-0.484,2.328-0.484c-4.196-0.557-7.808,2.396-8.956,0.634c-0.117-0.181-0.169-0.364-0.179-0.551    c0.265-0.238,0.582-0.416,0.906-0.544c-0.27,0.056-0.561,0.114-0.872,0.178c0.322-1.301,2.559-2.552,2.559-2.552    c-4.147,0.137-6.558,2.889-9.429,3.492c-2.873,0.604-1.045-3.355-1.045-3.355c-0.558,1.042-1.746,2.432-3.09,3.204    c-1.356,0.557-3.259,1.063-1.648-1.325c0,0-0.623,0.64-1.917,1.383c-0.957-0.662-0.259-1.442-0.259-1.442    c-6.366-0.466-8.438,3.501-8.536,3.696c-0.003,0-0.007,0-0.01,0v0.019v3.837v0.019c0.003,0,0.006,0,0.01,0    c0.099,0.196,2.009,2.161,8.536,3.696c0,0-0.698-0.78,0.259-1.442c1.294,0.742,1.917,1.383,1.917,1.383    c-1.61-2.39,0.292-1.882,1.648-1.325c1.345,0.772,2.533,2.163,3.09,3.204c0,0-1.828-3.961,1.045-3.355    c2.871,0.604,5.281,3.355,9.429,3.492c0,0-2.235-1.251-2.559-2.551c0.312,0.062,0.604,0.12,0.872,0.177    c-0.324-0.129-0.642-0.306-0.906-0.544c0.01-0.187,0.063-0.37,0.179-0.551c1.148-1.762,4.76,1.189,8.956,0.634    c0,0-1.171,0.128-2.328-0.484c-0.06-0.067-0.184-0.177-0.396-0.344c-1.146-0.902-0.16-1.523,1.116-1.931    c0.24-0.021,0.497-0.045,0.776-0.076c2.537-0.303,3.654-0.896,3.784-1.499C75.212,1207.123,71.132,1207.931,69.202,1206.704z"
   id="path142" />
	</g>
	
		<rect
   x="37.169"
   y="1201.954"
   fill="#E9ECF2"
   stroke="#231815"
   stroke-width="0.5"
   stroke-miterlimit="10"
   width="2.614"
   height="9.5"
   id="rect146" />
	<rect
   x="87"
   y="1225.892"
   fill="#3CB0CD"
   stroke="#231815"
   stroke-width="0.5"
   stroke-miterlimit="10"
   width="24"
   height="5.063"
   id="rect148" />
	
		<polygon
   fill="#76E1F4"
   stroke="#231815"
   stroke-width="0.5"
   stroke-linecap="round"
   stroke-linejoin="round"
   stroke-miterlimit="10"
   points="   111,1225.892 87,1225.892 123,1197.74 123,1214.655  "
   id="polygon150" />
	<polygon
   fill="#197C8C"
   stroke="#231815"
   stroke-width="0.5"
   stroke-miterlimit="10"
   points="123,1224.371 116.583,1230.954    111,1230.954 111,1225.892 123,1214.655  "
   id="polygon152" />
	
		<path
   fill="#E5E5E5"
   stroke="#231815"
   stroke-width="0.5"
   stroke-linecap="round"
   stroke-linejoin="round"
   stroke-miterlimit="10"
   d="   M101.691,1182.454v40.352c0,0.288,0.741,0.521,1.655,0.521s1.654-0.232,1.654-0.521v-40.352H101.691z"
   id="path154" />
	
		<path
   fill="#DADCDD"
   stroke="#231815"
   stroke-width="0.5"
   stroke-linecap="round"
   stroke-linejoin="round"
   stroke-miterlimit="10"
   d="   M109.83,1182.454v36.21c0,0.29-0.74,0.53-1.65,0.53s-1.66-0.24-1.66-0.53v-36.21H109.83z"
   id="path156" />
	
		<path
   fill="#CFD4D5"
   stroke="#231815"
   stroke-width="0.5"
   stroke-linecap="round"
   stroke-linejoin="round"
   stroke-miterlimit="10"
   d="   M114.67,1182.454v32.08c0,0.29-0.74,0.521-1.66,0.521c-0.91,0-1.65-0.229-1.65-0.521v-32.08H114.67z"
   id="path158" />
	
		<path
   fill="#C3CBCC"
   stroke="#231815"
   stroke-width="0.5"
   stroke-linecap="round"
   stroke-linejoin="round"
   stroke-miterlimit="10"
   d="   M119.5,1182.454v27.94c0,0.29-0.74,0.52-1.65,0.52c-0.92,0-1.66-0.229-1.66-0.52v-27.94H119.5z"
   id="path160" />
	
		<path
   fill="#B8C2C4"
   stroke="#231815"
   stroke-width="0.5"
   stroke-linecap="round"
   stroke-linejoin="round"
   stroke-miterlimit="10"
   d="   M123.01,1182.454v24.32c-0.11,0.01-0.22,0.01-0.33,0.01c-0.91,0-1.66-0.239-1.66-0.53v-23.8H123.01L123.01,1182.454z"
   id="path162" />
	
		<line
   fill="none"
   stroke="#083EAB"
   stroke-width="0.5"
   stroke-linecap="round"
   stroke-linejoin="round"
   stroke-miterlimit="10"
   x1="37.129"
   y1="1178.454"
   x2="37.129"
   y2="1166.244"
   id="line164" />
	
		<line
   fill="none"
   stroke="#083EAB"
   stroke-width="0.5"
   stroke-linecap="round"
   stroke-linejoin="round"
   stroke-miterlimit="10"
   x1="41.533"
   y1="1178.454"
   x2="41.533"
   y2="1165.175"
   id="line166" />
	
		<line
   fill="none"
   stroke="#083EAB"
   stroke-width="0.5"
   stroke-linecap="round"
   stroke-linejoin="round"
   stroke-miterlimit="10"
   x1="45.947"
   y1="1178.454"
   x2="45.947"
   y2="1164.094"
   id="line168" />
	
		<line
   fill="none"
   stroke="#083EAB"
   stroke-width="0.5"
   stroke-linecap="round"
   stroke-linejoin="round"
   stroke-miterlimit="10"
   x1="50.362"
   y1="1178.454"
   x2="50.362"
   y2="1163.024"
   id="line170" />
	
		<line
   fill="none"
   stroke="#083EAB"
   stroke-width="0.5"
   stroke-linecap="round"
   stroke-linejoin="round"
   stroke-miterlimit="10"
   x1="54.766"
   y1="1178.454"
   x2="54.766"
   y2="1161.954"
   id="line172" />
	
		<line
   fill="none"
   stroke="#083EAB"
   stroke-width="0.5"
   stroke-linecap="round"
   stroke-linejoin="round"
   stroke-miterlimit="10"
   x1="59.18"
   y1="1178.454"
   x2="59.18"
   y2="1160.875"
   id="line174" />
	
		<line
   fill="none"
   stroke="#083EAB"
   stroke-width="0.5"
   stroke-linecap="round"
   stroke-linejoin="round"
   stroke-miterlimit="10"
   x1="63.584"
   y1="1178.454"
   x2="63.584"
   y2="1159.804"
   id="line176" />
	
		<line
   fill="none"
   stroke="#083EAB"
   stroke-width="0.5"
   stroke-linecap="round"
   stroke-linejoin="round"
   stroke-miterlimit="10"
   x1="67.999"
   y1="1178.454"
   x2="67.999"
   y2="1158.734"
   id="line178" />
	
		<line
   fill="none"
   stroke="#083EAB"
   stroke-width="0.5"
   stroke-linecap="round"
   stroke-linejoin="round"
   stroke-miterlimit="10"
   x1="72.403"
   y1="1178.454"
   x2="72.403"
   y2="1157.664"
   id="line180" />
	
		<line
   fill="none"
   stroke="#083EAB"
   stroke-width="0.5"
   stroke-linecap="round"
   stroke-linejoin="round"
   stroke-miterlimit="10"
   x1="76.817"
   y1="1178.454"
   x2="76.817"
   y2="1156.584"
   id="line182" />
	
		<line
   fill="none"
   stroke="#083EAB"
   stroke-width="0.5"
   stroke-linecap="round"
   stroke-linejoin="round"
   stroke-miterlimit="10"
   x1="81.231"
   y1="1178.454"
   x2="81.231"
   y2="1155.514"
   id="line184" />
	
		<line
   fill="none"
   stroke="#083EAB"
   stroke-width="0.5"
   stroke-linecap="round"
   stroke-linejoin="round"
   stroke-miterlimit="10"
   x1="85.636"
   y1="1178.454"
   x2="85.636"
   y2="1154.444"
   id="line186" />
	
		<line
   fill="none"
   stroke="#083EAB"
   stroke-width="0.5"
   stroke-linecap="round"
   stroke-linejoin="round"
   stroke-miterlimit="10"
   x1="90.05"
   y1="1178.454"
   x2="90.05"
   y2="1153.364"
   id="line188" />
	
		<line
   fill="none"
   stroke="#083EAB"
   stroke-width="0.5"
   stroke-linecap="round"
   stroke-linejoin="round"
   stroke-miterlimit="10"
   x1="94.454"
   y1="1178.454"
   x2="94.454"
   y2="1152.295"
   id="line190" />
	
		<line
   fill="none"
   stroke="#083EAB"
   stroke-width="0.5"
   stroke-linecap="round"
   stroke-linejoin="round"
   stroke-miterlimit="10"
   x1="98.868"
   y1="1178.454"
   x2="98.868"
   y2="1151.224"
   id="line192" />
	
		<line
   fill="none"
   stroke="#083EAB"
   stroke-width="0.5"
   stroke-linecap="round"
   stroke-linejoin="round"
   stroke-miterlimit="10"
   x1="103.272"
   y1="1178.454"
   x2="103.272"
   y2="1150.154"
   id="line194" />
	
		<line
   fill="none"
   stroke="#083EAB"
   stroke-width="0.5"
   stroke-linecap="round"
   stroke-linejoin="round"
   stroke-miterlimit="10"
   x1="107.687"
   y1="1178.454"
   x2="107.687"
   y2="1149.074"
   id="line196" />
	
		<line
   fill="none"
   stroke="#083EAB"
   stroke-width="0.5"
   stroke-linecap="round"
   stroke-linejoin="round"
   stroke-miterlimit="10"
   x1="112.091"
   y1="1178.454"
   x2="112.091"
   y2="1148.005"
   id="line198" />
	
		<line
   fill="none"
   stroke="#083EAB"
   stroke-width="0.5"
   stroke-linecap="round"
   stroke-linejoin="round"
   stroke-miterlimit="10"
   x1="116.505"
   y1="1178.454"
   x2="116.505"
   y2="1146.935"
   id="line200" />
	
		<line
   fill="none"
   stroke="#083EAB"
   stroke-width="0.5"
   stroke-linecap="round"
   stroke-linejoin="round"
   stroke-miterlimit="10"
   x1="120.92"
   y1="1178.454"
   x2="120.92"
   y2="1145.854"
   id="line202" />
	
		<line
   fill="none"
   stroke="#083EAB"
   stroke-width="0.5"
   stroke-linecap="round"
   stroke-linejoin="round"
   stroke-miterlimit="10"
   x1="125.324"
   y1="1178.454"
   x2="125.324"
   y2="1144.784"
   id="line204" />
	
		<polygon
   fill="#0D3882"
   stroke="#231815"
   stroke-width="0.5"
   stroke-linecap="round"
   stroke-linejoin="round"
   stroke-miterlimit="10"
   points="   131.923,1146.454 127.013,1144.371 127.013,1234.954 131.923,1231.146  "
   id="polygon206" />
	
		<rect
   x="129.052"
   y="1193.588"
   fill="#76A6F4"
   stroke="#231815"
   stroke-width="0.5"
   stroke-linecap="round"
   stroke-linejoin="round"
   stroke-miterlimit="10"
   width="11.031"
   height="26.233"
   id="rect208" />
	
		<polygon
   fill="#76A6F4"
   stroke="#231815"
   stroke-width="0.5"
   stroke-linecap="round"
   stroke-linejoin="round"
   stroke-miterlimit="10"
   points="   140.083,1193.588 129.052,1193.588 130.802,1192.579 141.833,1192.579  "
   id="polygon210" />
	
		<line
   fill="none"
   stroke="#231815"
   stroke-width="0.5"
   stroke-linecap="round"
   stroke-linejoin="round"
   stroke-miterlimit="10"
   x1="134.568"
   y1="1193.588"
   x2="134.568"
   y2="1219.821"
   id="line212" />
	
		<line
   fill="none"
   stroke="#231815"
   stroke-width="0.5"
   stroke-linecap="round"
   stroke-linejoin="round"
   stroke-miterlimit="10"
   x1="129.052"
   y1="1206.704"
   x2="140.083"
   y2="1206.704"
   id="line214" />
	
		<linearGradient
   id="SVGID_9_"
   gradientUnits="userSpaceOnUse"
   x1="131.6833"
   y1="304.467"
   x2="152.2869"
   y2="304.467"
   gradientTransform="matrix(1 0 0 -1 8.3999 1490.0991)">
		<stop
   offset="0"
   style="stop-color:#295CC1"
   id="stop216" />
		<stop
   offset="0.0096"
   style="stop-color:#2B5EC2"
   id="stop218" />
		<stop
   offset="0.1714"
   style="stop-color:#4B7AD7"
   id="stop220" />
		<stop
   offset="0.2611"
   style="stop-color:#5784DF"
   id="stop222" />
		<stop
   offset="0.3023"
   style="stop-color:#6792E9"
   id="stop224" />
		<stop
   offset="0.3679"
   style="stop-color:#7AA3F5"
   id="stop226" />
		<stop
   offset="0.4354"
   style="stop-color:#85ADFD"
   id="stop228" />
		<stop
   offset="0.5074"
   style="stop-color:#89B0FF"
   id="stop230" />
		<stop
   offset="0.5688"
   style="stop-color:#84ACFC"
   id="stop232" />
		<stop
   offset="0.642"
   style="stop-color:#759FF2"
   id="stop234" />
		<stop
   offset="0.7209"
   style="stop-color:#5E8AE3"
   id="stop236" />
		<stop
   offset="0.7389"
   style="stop-color:#5784DF"
   id="stop238" />
		<stop
   offset="1"
   style="stop-color:#2054BB"
   id="stop240" />
	</linearGradient>
	
		<path
   fill="url(#SVGID_9_)"
   stroke="#231815"
   stroke-width="0.5"
   stroke-linecap="round"
   stroke-linejoin="round"
   stroke-miterlimit="10"
   d="   M150.385,1134.966c-5.689,0-10.302,1.523-10.302,3.405v93.553c0,2.417,4.611,4.375,10.302,4.375s10.302-1.958,10.302-4.375v-93.553   C160.687,1136.489,156.075,1134.966,150.385,1134.966z"
   id="path243" />
</g>
</svg>
