<?xml version="1.0" encoding="UTF-8" standalone="no"?>
<svg
   xmlns:dc="http://purl.org/dc/elements/1.1/"
   xmlns:cc="http://creativecommons.org/ns#"
   xmlns:rdf="http://www.w3.org/1999/02/22-rdf-syntax-ns#"
   xmlns:svg="http://www.w3.org/2000/svg"
   xmlns="http://www.w3.org/2000/svg"
   xmlns:sodipodi="http://sodipodi.sourceforge.net/DTD/sodipodi-0.dtd"
   xmlns:inkscape="http://www.inkscape.org/namespaces/inkscape"
   version="1.1"
   id="图层_1"
   x="0px"
   y="0px"
   width="128.017px"
   height="101.833px"
   viewBox="202.206 1134.716 128.017 101.833"
   enable-background="new 202.206 1134.716 128.017 101.833"
   xml:space="preserve"
   sodipodi:docname="01-71.svg"><metadata
   id="metadata252"><rdf:RDF><cc:Work
       rdf:about=""><dc:format>image/svg+xml</dc:format><dc:type
         rdf:resource="http://purl.org/dc/dcmitype/StillImage" /></cc:Work></rdf:RDF></metadata><defs
   id="defs250" /><sodipodi:namedview
   pagecolor="#ffffff"
   bordercolor="#666666"
   borderopacity="1"
   objecttolerance="10"
   gridtolerance="10"
   guidetolerance="10"
   inkscape:pageopacity="0"
   inkscape:pageshadow="2"
   inkscape:window-width="640"
   inkscape:window-height="480"
   id="namedview248" />
<g
   id="g245">
	
		<polygon
   fill="#79F476"
   stroke="#231815"
   stroke-width="0.5"
   stroke-linecap="round"
   stroke-linejoin="round"
   stroke-miterlimit="10"
   points="   296.299,1144.371 202.456,1167.2 202.456,1234.954 296.299,1234.954  "
   id="polygon2" />
	
		<linearGradient
   id="SVGID_1_"
   gradientUnits="userSpaceOnUse"
   x1="194.0564"
   y1="283.3953"
   x2="287.9001"
   y2="283.3953"
   gradientTransform="matrix(1 0 0 -1 8.3999 1490.0991)">
		<stop
   offset="0"
   style="stop-color:#04A906"
   id="stop4" />
		<stop
   offset="0.1036"
   style="stop-color:#2BC22D"
   id="stop6" />
		<stop
   offset="0.205"
   style="stop-color:#4BD74D"
   id="stop8" />
		<stop
   offset="0.2611"
   style="stop-color:#57DF59"
   id="stop10" />
		<stop
   offset="0.3023"
   style="stop-color:#67E969"
   id="stop12" />
		<stop
   offset="0.3679"
   style="stop-color:#7AF57C"
   id="stop14" />
		<stop
   offset="0.4354"
   style="stop-color:#85FD87"
   id="stop16" />
		<stop
   offset="0.5074"
   style="stop-color:#89FF8B"
   id="stop18" />
		<stop
   offset="0.5688"
   style="stop-color:#84FC86"
   id="stop20" />
		<stop
   offset="0.642"
   style="stop-color:#75F277"
   id="stop22" />
		<stop
   offset="0.7209"
   style="stop-color:#5EE360"
   id="stop24" />
		<stop
   offset="0.7389"
   style="stop-color:#57DF59"
   id="stop26" />
		<stop
   offset="1"
   style="stop-color:#04A906"
   id="stop28" />
	</linearGradient>
	
		<rect
   x="202.456"
   y="1178.454"
   fill="url(#SVGID_1_)"
   stroke="#231815"
   stroke-width="0.5"
   stroke-linecap="round"
   stroke-linejoin="round"
   stroke-miterlimit="10"
   width="93.844"
   height="56.5"
   id="rect31" />
	
		<linearGradient
   id="SVGID_2_"
   gradientUnits="userSpaceOnUse"
   x1="198.0564"
   y1="283.3953"
   x2="283.8962"
   y2="283.3953"
   gradientTransform="matrix(1 0 0 -1 8.3999 1490.0991)">
		<stop
   offset="0"
   style="stop-color:#FF8A61"
   id="stop33" />
		<stop
   offset="1"
   style="stop-color:#F64385"
   id="stop35" />
	</linearGradient>
	
		<rect
   x="206.456"
   y="1182.454"
   fill="url(#SVGID_2_)"
   stroke="#231815"
   stroke-width="0.5"
   stroke-miterlimit="10"
   width="85.84"
   height="48.5"
   id="rect38" />
	<g
   id="g79">
		
			<linearGradient
   id="SVGID_3_"
   gradientUnits="userSpaceOnUse"
   x1="238.1902"
   y1="273.3386"
   x2="240.8123"
   y2="273.3386"
   gradientTransform="matrix(1 0 0 -1 8.3999 1490.0991)">
			<stop
   offset="0"
   style="stop-color:#FFE361"
   id="stop40" />
			<stop
   offset="0.3061"
   style="stop-color:#F59540"
   id="stop42" />
			<stop
   offset="0.6425"
   style="stop-color:#EC451E"
   id="stop44" />
			<stop
   offset="0.8822"
   style="stop-color:#E51308"
   id="stop46" />
			<stop
   offset="1"
   style="stop-color:#E30000"
   id="stop48" />
		</linearGradient>
		<path
   fill="url(#SVGID_3_)"
   stroke="#231815"
   stroke-width="0.5"
   stroke-miterlimit="10"
   d="M246.59,1216.426    c1.294,0.621,2.622,0.67,2.622,0.67S248.175,1216.817,246.59,1216.426z"
   id="path51" />
		
			<linearGradient
   id="SVGID_4_"
   gradientUnits="userSpaceOnUse"
   x1="238.1902"
   y1="293.45"
   x2="240.8123"
   y2="293.45"
   gradientTransform="matrix(1 0 0 -1 8.3999 1490.0991)">
			<stop
   offset="0"
   style="stop-color:#FFE361"
   id="stop53" />
			<stop
   offset="0.3061"
   style="stop-color:#F59540"
   id="stop55" />
			<stop
   offset="0.6425"
   style="stop-color:#EC451E"
   id="stop57" />
			<stop
   offset="0.8822"
   style="stop-color:#E51308"
   id="stop59" />
			<stop
   offset="1"
   style="stop-color:#E30000"
   id="stop61" />
		</linearGradient>
		<path
   fill="url(#SVGID_4_)"
   stroke="#231815"
   stroke-width="0.5"
   stroke-miterlimit="10"
   d="M246.59,1196.983    c1.585-0.393,2.622-0.668,2.622-0.668S247.884,1196.362,246.59,1196.983z"
   id="path64" />
		
			<linearGradient
   id="SVGID_5_"
   gradientUnits="userSpaceOnUse"
   x1="200.5017"
   y1="283.3938"
   x2="255.574"
   y2="283.3938"
   gradientTransform="matrix(1 0 0 -1 8.3999 1490.0991)">
			<stop
   offset="0"
   style="stop-color:#FFE361"
   id="stop66" />
			<stop
   offset="0.3061"
   style="stop-color:#F59540"
   id="stop68" />
			<stop
   offset="0.6425"
   style="stop-color:#EC451E"
   id="stop70" />
			<stop
   offset="0.8822"
   style="stop-color:#E51308"
   id="stop72" />
			<stop
   offset="1"
   style="stop-color:#E30000"
   id="stop74" />
		</linearGradient>
		<path
   fill="url(#SVGID_5_)"
   stroke="#231815"
   stroke-width="0.5"
   stroke-miterlimit="10"
   d="M254.63,1206.704    c3-2.288,9.344-0.78,9.344-0.78c-0.203-1.127-1.938-2.229-5.882-2.793c-0.434-0.062-0.833-0.107-1.206-0.147    c-1.985-0.755-3.52-1.913-1.737-3.594c0.33-0.313,0.522-0.517,0.615-0.644c1.8-1.141,3.619-0.899,3.619-0.899    c-6.521-1.037-12.136,4.461-13.92,1.177c-0.181-0.334-0.264-0.678-0.279-1.025c0.412-0.442,0.905-0.772,1.407-1.014    c-0.417,0.104-0.87,0.215-1.355,0.331c0.504-2.423,3.979-4.754,3.979-4.754c-6.445,0.251-10.194,5.383-14.657,6.509    c-4.465,1.127-1.625-6.258-1.625-6.258c-0.865,1.946-2.713,4.537-4.802,5.975c-2.109,1.037-5.066,1.983-2.563-2.471    c0,0-0.968,1.191-2.979,2.577c-1.486-1.231-0.4-2.688-0.4-2.688c-9.896-0.866-13.116,6.525-13.27,6.893    c-0.006,0-0.011,0.001-0.016,0.001v0.033v7.147v0.033c0.005,0,0.01,0,0.016,0c0.152,0.367,3.124,4.029,13.27,6.893    c0,0-1.086-1.457,0.4-2.688c2.013,1.386,2.979,2.58,2.979,2.58c-2.502-4.456,0.454-3.511,2.563-2.474    c2.089,1.438,3.937,4.028,4.802,5.976c0,0-2.841-7.386,1.625-6.259c4.462,1.129,8.211,6.259,14.657,6.51    c0,0-3.476-2.333-3.979-4.754c0.485,0.115,0.938,0.227,1.355,0.33c-0.502-0.24-0.995-0.569-1.407-1.014    c0.016-0.348,0.099-0.691,0.279-1.025c1.784-3.282,7.398,2.215,13.92,1.178c0,0-1.819,0.24-3.619-0.9    c-0.093-0.128-0.286-0.33-0.615-0.641c-1.781-1.685-0.248-2.841,1.737-3.599c0.373-0.038,0.772-0.085,1.206-0.146    c3.943-0.563,5.679-1.666,5.882-2.793C263.974,1207.485,257.629,1208.991,254.63,1206.704z"
   id="path77" />
	</g>
	<g
   id="g144">
		
			<linearGradient
   id="SVGID_6_"
   gradientUnits="userSpaceOnUse"
   x1="224.9158"
   y1="278.0017"
   x2="226.6033"
   y2="278.0017"
   gradientTransform="matrix(1 0 0 -1 8.3999 1490.0991)">
			<stop
   offset="0"
   style="stop-color:#E30000"
   id="stop81" />
			<stop
   offset="0.0181"
   style="stop-color:#E40703"
   id="stop83" />
			<stop
   offset="0.1687"
   style="stop-color:#EB411C"
   id="stop85" />
			<stop
   offset="0.3196"
   style="stop-color:#F17231"
   id="stop87" />
			<stop
   offset="0.4673"
   style="stop-color:#F69B42"
   id="stop89" />
			<stop
   offset="0.6112"
   style="stop-color:#FABA50"
   id="stop91" />
			<stop
   offset="0.7502"
   style="stop-color:#FDD159"
   id="stop93" />
			<stop
   offset="0.8823"
   style="stop-color:#FEDE5F"
   id="stop95" />
			<stop
   offset="1"
   style="stop-color:#FFE361"
   id="stop97" />
		</linearGradient>
		<path
   fill="url(#SVGID_6_)"
   d="M233.316,1211.918c0.833,0.334,1.688,0.359,1.688,0.359S234.336,1212.131,233.316,1211.918z"
   id="path100" />
		
			<linearGradient
   id="SVGID_7_"
   gradientUnits="userSpaceOnUse"
   x1="224.9158"
   y1="288.7883"
   x2="226.6033"
   y2="288.7883"
   gradientTransform="matrix(1 0 0 -1 8.3999 1490.0991)">
			<stop
   offset="0"
   style="stop-color:#E30000"
   id="stop102" />
			<stop
   offset="0.0181"
   style="stop-color:#E40703"
   id="stop104" />
			<stop
   offset="0.1687"
   style="stop-color:#EB411C"
   id="stop106" />
			<stop
   offset="0.3196"
   style="stop-color:#F17231"
   id="stop108" />
			<stop
   offset="0.4673"
   style="stop-color:#F69B42"
   id="stop110" />
			<stop
   offset="0.6112"
   style="stop-color:#FABA50"
   id="stop112" />
			<stop
   offset="0.7502"
   style="stop-color:#FDD159"
   id="stop114" />
			<stop
   offset="0.8823"
   style="stop-color:#FEDE5F"
   id="stop116" />
			<stop
   offset="1"
   style="stop-color:#FFE361"
   id="stop118" />
		</linearGradient>
		<path
   fill="url(#SVGID_7_)"
   d="M233.316,1201.49c1.021-0.212,1.688-0.358,1.688-0.358S234.148,1201.155,233.316,1201.49z"
   id="path121" />
		
			<linearGradient
   id="SVGID_8_"
   gradientUnits="userSpaceOnUse"
   x1="200.6697"
   y1="283.3938"
   x2="236.0994"
   y2="283.3938"
   gradientTransform="matrix(1 0 0 -1 8.3999 1490.0991)">
			<stop
   offset="0"
   style="stop-color:#E30000"
   id="stop123" />
			<stop
   offset="0.0181"
   style="stop-color:#E40703"
   id="stop125" />
			<stop
   offset="0.1687"
   style="stop-color:#EB411C"
   id="stop127" />
			<stop
   offset="0.3196"
   style="stop-color:#F17231"
   id="stop129" />
			<stop
   offset="0.4673"
   style="stop-color:#F69B42"
   id="stop131" />
			<stop
   offset="0.6112"
   style="stop-color:#FABA50"
   id="stop133" />
			<stop
   offset="0.7502"
   style="stop-color:#FDD159"
   id="stop135" />
			<stop
   offset="0.8823"
   style="stop-color:#FEDE5F"
   id="stop137" />
			<stop
   offset="1"
   style="stop-color:#FFE361"
   id="stop139" />
		</linearGradient>
		<path
   fill="url(#SVGID_8_)"
   d="M238.488,1206.704c1.931-1.227,6.012-0.419,6.012-0.419c-0.13-0.604-1.248-1.196-3.784-1.499    c-0.279-0.031-0.536-0.058-0.776-0.077c-1.276-0.405-2.264-1.026-1.117-1.93c0.213-0.167,0.337-0.275,0.396-0.344    c1.157-0.612,2.328-0.484,2.328-0.484c-4.196-0.557-7.809,2.396-8.956,0.634c-0.117-0.181-0.169-0.364-0.179-0.551    c0.265-0.238,0.582-0.416,0.905-0.544c-0.269,0.056-0.56,0.114-0.872,0.178c0.323-1.301,2.56-2.552,2.56-2.552    c-4.147,0.137-6.559,2.889-9.429,3.492c-2.873,0.604-1.046-3.355-1.046-3.355c-0.557,1.042-1.745,2.432-3.089,3.204    c-1.356,0.557-3.259,1.063-1.648-1.325c0,0-0.623,0.64-1.917,1.383c-0.957-0.662-0.259-1.442-0.259-1.442    c-6.366-0.466-8.438,3.501-8.536,3.696c-0.003,0-0.007,0-0.011,0v0.019v3.837v0.019c0.004,0,0.007,0,0.011,0    c0.099,0.196,2.009,2.161,8.536,3.696c0,0-0.698-0.78,0.259-1.442c1.294,0.742,1.917,1.383,1.917,1.383    c-1.61-2.39,0.292-1.882,1.648-1.325c1.345,0.772,2.533,2.163,3.089,3.204c0,0-1.827-3.961,1.046-3.355    c2.87,0.604,5.281,3.355,9.429,3.492c0,0-2.235-1.251-2.56-2.551c0.313,0.062,0.604,0.12,0.872,0.177    c-0.323-0.129-0.641-0.306-0.905-0.544c0.01-0.187,0.063-0.37,0.179-0.551c1.147-1.762,4.76,1.189,8.956,0.634    c0,0-1.171,0.128-2.328-0.484c-0.06-0.067-0.184-0.177-0.396-0.344c-1.146-0.902-0.159-1.523,1.117-1.931    c0.24-0.021,0.497-0.045,0.776-0.076c2.537-0.303,3.654-0.896,3.784-1.499C244.499,1207.123,240.418,1207.931,238.488,1206.704z"
   id="path142" />
	</g>
	
		<rect
   x="206.456"
   y="1201.954"
   fill="#E9F2E9"
   stroke="#231815"
   stroke-width="0.5"
   stroke-miterlimit="10"
   width="2.613"
   height="9.5"
   id="rect146" />
	
		<rect
   x="256.286"
   y="1225.892"
   fill="#72CD3C"
   stroke="#231815"
   stroke-width="0.5"
   stroke-miterlimit="10"
   width="24"
   height="5.063"
   id="rect148" />
	
		<polygon
   fill="#AAF476"
   stroke="#231815"
   stroke-width="0.5"
   stroke-linecap="round"
   stroke-linejoin="round"
   stroke-miterlimit="10"
   points="   280.286,1225.892 256.286,1225.892 292.286,1197.74 292.286,1214.655  "
   id="polygon150" />
	<polygon
   fill="#4A8C19"
   stroke="#231815"
   stroke-width="0.5"
   stroke-miterlimit="10"
   points="292.286,1224.371 285.87,1230.954    280.286,1230.954 280.286,1225.892 292.286,1214.655  "
   id="polygon152" />
	
		<path
   fill="#E5E5E5"
   stroke="#231815"
   stroke-width="0.5"
   stroke-linecap="round"
   stroke-linejoin="round"
   stroke-miterlimit="10"
   d="   M270.977,1182.454v40.352c0,0.288,0.741,0.521,1.655,0.521s1.654-0.232,1.654-0.521v-40.352H270.977z"
   id="path154" />
	
		<path
   fill="#DBDDDA"
   stroke="#231815"
   stroke-width="0.5"
   stroke-linecap="round"
   stroke-linejoin="round"
   stroke-miterlimit="10"
   d="   M279.116,1182.454v36.21c0,0.29-0.74,0.53-1.65,0.53s-1.66-0.24-1.66-0.53v-36.21H279.116z"
   id="path156" />
	
		<path
   fill="#D1D5CF"
   stroke="#231815"
   stroke-width="0.5"
   stroke-linecap="round"
   stroke-linejoin="round"
   stroke-miterlimit="10"
   d="   M283.956,1182.454v32.08c0,0.29-0.74,0.521-1.66,0.521c-0.91,0-1.65-0.229-1.65-0.521v-32.08H283.956z"
   id="path158" />
	
		<path
   fill="#C7CCC3"
   stroke="#231815"
   stroke-width="0.5"
   stroke-linecap="round"
   stroke-linejoin="round"
   stroke-miterlimit="10"
   d="   M288.786,1182.454v27.94c0,0.29-0.74,0.52-1.65,0.52c-0.92,0-1.66-0.229-1.66-0.52v-27.94H288.786z"
   id="path160" />
	
		<path
   fill="#BDC4B8"
   stroke="#231815"
   stroke-width="0.5"
   stroke-linecap="round"
   stroke-linejoin="round"
   stroke-miterlimit="10"
   d="   M292.296,1182.454v24.32c-0.11,0.01-0.22,0.01-0.33,0.01c-0.91,0-1.66-0.239-1.66-0.53v-23.8H292.296L292.296,1182.454z"
   id="path162" />
	
		<line
   fill="none"
   stroke="#08AB0B"
   stroke-width="0.5"
   stroke-linecap="round"
   stroke-linejoin="round"
   stroke-miterlimit="10"
   x1="206.415"
   y1="1178.454"
   x2="206.415"
   y2="1166.244"
   id="line164" />
	
		<line
   fill="none"
   stroke="#08AB0B"
   stroke-width="0.5"
   stroke-linecap="round"
   stroke-linejoin="round"
   stroke-miterlimit="10"
   x1="210.819"
   y1="1178.454"
   x2="210.819"
   y2="1165.175"
   id="line166" />
	
		<line
   fill="none"
   stroke="#08AB0B"
   stroke-width="0.5"
   stroke-linecap="round"
   stroke-linejoin="round"
   stroke-miterlimit="10"
   x1="215.233"
   y1="1178.454"
   x2="215.233"
   y2="1164.094"
   id="line168" />
	
		<line
   fill="none"
   stroke="#08AB0B"
   stroke-width="0.5"
   stroke-linecap="round"
   stroke-linejoin="round"
   stroke-miterlimit="10"
   x1="219.648"
   y1="1178.454"
   x2="219.648"
   y2="1163.024"
   id="line170" />
	
		<line
   fill="none"
   stroke="#08AB0B"
   stroke-width="0.5"
   stroke-linecap="round"
   stroke-linejoin="round"
   stroke-miterlimit="10"
   x1="224.052"
   y1="1178.454"
   x2="224.052"
   y2="1161.954"
   id="line172" />
	
		<line
   fill="none"
   stroke="#08AB0B"
   stroke-width="0.5"
   stroke-linecap="round"
   stroke-linejoin="round"
   stroke-miterlimit="10"
   x1="228.466"
   y1="1178.454"
   x2="228.466"
   y2="1160.875"
   id="line174" />
	
		<line
   fill="none"
   stroke="#08AB0B"
   stroke-width="0.5"
   stroke-linecap="round"
   stroke-linejoin="round"
   stroke-miterlimit="10"
   x1="232.871"
   y1="1178.454"
   x2="232.871"
   y2="1159.804"
   id="line176" />
	
		<line
   fill="none"
   stroke="#08AB0B"
   stroke-width="0.5"
   stroke-linecap="round"
   stroke-linejoin="round"
   stroke-miterlimit="10"
   x1="237.285"
   y1="1178.454"
   x2="237.285"
   y2="1158.734"
   id="line178" />
	
		<line
   fill="none"
   stroke="#08AB0B"
   stroke-width="0.5"
   stroke-linecap="round"
   stroke-linejoin="round"
   stroke-miterlimit="10"
   x1="241.689"
   y1="1178.454"
   x2="241.689"
   y2="1157.664"
   id="line180" />
	
		<line
   fill="none"
   stroke="#08AB0B"
   stroke-width="0.5"
   stroke-linecap="round"
   stroke-linejoin="round"
   stroke-miterlimit="10"
   x1="246.104"
   y1="1178.454"
   x2="246.104"
   y2="1156.584"
   id="line182" />
	
		<line
   fill="none"
   stroke="#08AB0B"
   stroke-width="0.5"
   stroke-linecap="round"
   stroke-linejoin="round"
   stroke-miterlimit="10"
   x1="250.518"
   y1="1178.454"
   x2="250.518"
   y2="1155.514"
   id="line184" />
	
		<line
   fill="none"
   stroke="#08AB0B"
   stroke-width="0.5"
   stroke-linecap="round"
   stroke-linejoin="round"
   stroke-miterlimit="10"
   x1="254.922"
   y1="1178.454"
   x2="254.922"
   y2="1154.444"
   id="line186" />
	
		<line
   fill="none"
   stroke="#08AB0B"
   stroke-width="0.5"
   stroke-linecap="round"
   stroke-linejoin="round"
   stroke-miterlimit="10"
   x1="259.336"
   y1="1178.454"
   x2="259.336"
   y2="1153.364"
   id="line188" />
	
		<line
   fill="none"
   stroke="#08AB0B"
   stroke-width="0.5"
   stroke-linecap="round"
   stroke-linejoin="round"
   stroke-miterlimit="10"
   x1="263.74"
   y1="1178.454"
   x2="263.74"
   y2="1152.295"
   id="line190" />
	
		<line
   fill="none"
   stroke="#08AB0B"
   stroke-width="0.5"
   stroke-linecap="round"
   stroke-linejoin="round"
   stroke-miterlimit="10"
   x1="268.154"
   y1="1178.454"
   x2="268.154"
   y2="1151.224"
   id="line192" />
	
		<line
   fill="none"
   stroke="#08AB0B"
   stroke-width="0.5"
   stroke-linecap="round"
   stroke-linejoin="round"
   stroke-miterlimit="10"
   x1="272.559"
   y1="1178.454"
   x2="272.559"
   y2="1150.154"
   id="line194" />
	
		<line
   fill="none"
   stroke="#08AB0B"
   stroke-width="0.5"
   stroke-linecap="round"
   stroke-linejoin="round"
   stroke-miterlimit="10"
   x1="276.973"
   y1="1178.454"
   x2="276.973"
   y2="1149.074"
   id="line196" />
	
		<line
   fill="none"
   stroke="#08AB0B"
   stroke-width="0.5"
   stroke-linecap="round"
   stroke-linejoin="round"
   stroke-miterlimit="10"
   x1="281.377"
   y1="1178.454"
   x2="281.377"
   y2="1148.005"
   id="line198" />
	
		<line
   fill="none"
   stroke="#08AB0B"
   stroke-width="0.5"
   stroke-linecap="round"
   stroke-linejoin="round"
   stroke-miterlimit="10"
   x1="285.792"
   y1="1178.454"
   x2="285.792"
   y2="1146.935"
   id="line200" />
	
		<line
   fill="none"
   stroke="#08AB0B"
   stroke-width="0.5"
   stroke-linecap="round"
   stroke-linejoin="round"
   stroke-miterlimit="10"
   x1="290.206"
   y1="1178.454"
   x2="290.206"
   y2="1145.854"
   id="line202" />
	
		<line
   fill="none"
   stroke="#08AB0B"
   stroke-width="0.5"
   stroke-linecap="round"
   stroke-linejoin="round"
   stroke-miterlimit="10"
   x1="294.61"
   y1="1178.454"
   x2="294.61"
   y2="1144.784"
   id="line204" />
	
		<polygon
   fill="#0F820D"
   stroke="#231815"
   stroke-width="0.5"
   stroke-linecap="round"
   stroke-linejoin="round"
   stroke-miterlimit="10"
   points="   301.209,1146.454 296.299,1144.371 296.299,1234.954 301.209,1231.146  "
   id="polygon206" />
	
		<rect
   x="298.338"
   y="1193.588"
   fill="#79F476"
   stroke="#231815"
   stroke-width="0.5"
   stroke-linecap="round"
   stroke-linejoin="round"
   stroke-miterlimit="10"
   width="11.03"
   height="26.233"
   id="rect208" />
	
		<polygon
   fill="#79F476"
   stroke="#231815"
   stroke-width="0.5"
   stroke-linecap="round"
   stroke-linejoin="round"
   stroke-miterlimit="10"
   points="   309.369,1193.588 298.338,1193.588 300.088,1192.579 311.119,1192.579  "
   id="polygon210" />
	
		<line
   fill="none"
   stroke="#231815"
   stroke-width="0.5"
   stroke-linecap="round"
   stroke-linejoin="round"
   stroke-miterlimit="10"
   x1="303.854"
   y1="1193.588"
   x2="303.854"
   y2="1219.821"
   id="line212" />
	
		<line
   fill="none"
   stroke="#231815"
   stroke-width="0.5"
   stroke-linecap="round"
   stroke-linejoin="round"
   stroke-miterlimit="10"
   x1="298.338"
   y1="1206.704"
   x2="309.369"
   y2="1206.704"
   id="line214" />
	
		<linearGradient
   id="SVGID_9_"
   gradientUnits="userSpaceOnUse"
   x1="300.9685"
   y1="304.467"
   x2="321.573"
   y2="304.467"
   gradientTransform="matrix(1 0 0 -1 8.3999 1490.0991)">
		<stop
   offset="0"
   style="stop-color:#29C12B"
   id="stop216" />
		<stop
   offset="0.0096"
   style="stop-color:#2BC22D"
   id="stop218" />
		<stop
   offset="0.1714"
   style="stop-color:#4BD74D"
   id="stop220" />
		<stop
   offset="0.2611"
   style="stop-color:#57DF59"
   id="stop222" />
		<stop
   offset="0.3023"
   style="stop-color:#67E969"
   id="stop224" />
		<stop
   offset="0.3679"
   style="stop-color:#7AF57C"
   id="stop226" />
		<stop
   offset="0.4354"
   style="stop-color:#85FD87"
   id="stop228" />
		<stop
   offset="0.5074"
   style="stop-color:#89FF8B"
   id="stop230" />
		<stop
   offset="0.5688"
   style="stop-color:#84FC86"
   id="stop232" />
		<stop
   offset="0.642"
   style="stop-color:#75F277"
   id="stop234" />
		<stop
   offset="0.7209"
   style="stop-color:#5EE360"
   id="stop236" />
		<stop
   offset="0.7389"
   style="stop-color:#57DF59"
   id="stop238" />
		<stop
   offset="1"
   style="stop-color:#20BB22"
   id="stop240" />
	</linearGradient>
	
		<path
   fill="url(#SVGID_9_)"
   stroke="#231815"
   stroke-width="0.5"
   stroke-linecap="round"
   stroke-linejoin="round"
   stroke-miterlimit="10"
   d="   M319.671,1134.966c-5.689,0-10.303,1.523-10.303,3.405v93.553c0,2.417,4.612,4.375,10.303,4.375c5.689,0,10.302-1.958,10.302-4.375   v-93.553C329.973,1136.489,325.361,1134.966,319.671,1134.966z"
   id="path243" />
</g>
</svg>
