<?xml version="1.0" encoding="UTF-8" standalone="no"?>
<svg
   xmlns:dc="http://purl.org/dc/elements/1.1/"
   xmlns:cc="http://creativecommons.org/ns#"
   xmlns:rdf="http://www.w3.org/1999/02/22-rdf-syntax-ns#"
   xmlns:svg="http://www.w3.org/2000/svg"
   xmlns="http://www.w3.org/2000/svg"
   xmlns:sodipodi="http://sodipodi.sourceforge.net/DTD/sodipodi-0.dtd"
   xmlns:inkscape="http://www.inkscape.org/namespaces/inkscape"
   version="1.1"
   id="图层_1"
   x="0px"
   y="0px"
   width="128.019px"
   height="101.833px"
   viewBox="371.491 1134.716 128.019 101.833"
   enable-background="new 371.491 1134.716 128.019 101.833"
   xml:space="preserve"
   sodipodi:docname="01-72.svg"><metadata
   id="metadata252"><rdf:RDF><cc:Work
       rdf:about=""><dc:format>image/svg+xml</dc:format><dc:type
         rdf:resource="http://purl.org/dc/dcmitype/StillImage" /></cc:Work></rdf:RDF></metadata><defs
   id="defs250" /><sodipodi:namedview
   pagecolor="#ffffff"
   bordercolor="#666666"
   borderopacity="1"
   objecttolerance="10"
   gridtolerance="10"
   guidetolerance="10"
   inkscape:pageopacity="0"
   inkscape:pageshadow="2"
   inkscape:window-width="640"
   inkscape:window-height="480"
   id="namedview248" />
<g
   id="g245">
	
		<polygon
   fill="#F47976"
   stroke="#231815"
   stroke-width="0.5"
   stroke-linecap="round"
   stroke-linejoin="round"
   stroke-miterlimit="10"
   points="   465.586,1144.371 371.741,1167.2 371.741,1234.954 465.586,1234.954  "
   id="polygon2" />
	
		<linearGradient
   id="SVGID_1_"
   gradientUnits="userSpaceOnUse"
   x1="363.342"
   y1="283.3953"
   x2="457.1858"
   y2="283.3953"
   gradientTransform="matrix(1 0 0 -1 8.3999 1490.0991)">
		<stop
   offset="0"
   style="stop-color:#A90B04"
   id="stop4" />
		<stop
   offset="0.1036"
   style="stop-color:#C2322B"
   id="stop6" />
		<stop
   offset="0.205"
   style="stop-color:#D7514B"
   id="stop8" />
		<stop
   offset="0.2611"
   style="stop-color:#DF5D57"
   id="stop10" />
		<stop
   offset="0.3023"
   style="stop-color:#E96D67"
   id="stop12" />
		<stop
   offset="0.3679"
   style="stop-color:#F57F7A"
   id="stop14" />
		<stop
   offset="0.4354"
   style="stop-color:#FD8A85"
   id="stop16" />
		<stop
   offset="0.5074"
   style="stop-color:#FF8E89"
   id="stop18" />
		<stop
   offset="0.5688"
   style="stop-color:#FC8984"
   id="stop20" />
		<stop
   offset="0.642"
   style="stop-color:#F27B75"
   id="stop22" />
		<stop
   offset="0.7209"
   style="stop-color:#E3635E"
   id="stop24" />
		<stop
   offset="0.7389"
   style="stop-color:#DF5D57"
   id="stop26" />
		<stop
   offset="1"
   style="stop-color:#A90B04"
   id="stop28" />
	</linearGradient>
	
		<rect
   x="371.741"
   y="1178.454"
   fill="url(#SVGID_1_)"
   stroke="#231815"
   stroke-width="0.5"
   stroke-linecap="round"
   stroke-linejoin="round"
   stroke-miterlimit="10"
   width="93.845"
   height="56.5"
   id="rect31" />
	
		<linearGradient
   id="SVGID_2_"
   gradientUnits="userSpaceOnUse"
   x1="367.342"
   y1="283.3953"
   x2="453.1819"
   y2="283.3953"
   gradientTransform="matrix(1 0 0 -1 8.3999 1490.0991)">
		<stop
   offset="0"
   style="stop-color:#61D0FF"
   id="stop33" />
		<stop
   offset="1"
   style="stop-color:#43F66F"
   id="stop35" />
	</linearGradient>
	
		<rect
   x="375.742"
   y="1182.454"
   fill="url(#SVGID_2_)"
   stroke="#231815"
   stroke-width="0.5"
   stroke-miterlimit="10"
   width="85.839"
   height="48.5"
   id="rect38" />
	<g
   id="g79">
		
			<linearGradient
   id="SVGID_3_"
   gradientUnits="userSpaceOnUse"
   x1="407.4768"
   y1="273.3386"
   x2="410.0979"
   y2="273.3386"
   gradientTransform="matrix(1 0 0 -1 8.3999 1490.0991)">
			<stop
   offset="0"
   style="stop-color:#FFE361"
   id="stop40" />
			<stop
   offset="0.3061"
   style="stop-color:#F59540"
   id="stop42" />
			<stop
   offset="0.6425"
   style="stop-color:#EC451E"
   id="stop44" />
			<stop
   offset="0.8822"
   style="stop-color:#E51308"
   id="stop46" />
			<stop
   offset="1"
   style="stop-color:#E30000"
   id="stop48" />
		</linearGradient>
		<path
   fill="url(#SVGID_3_)"
   stroke="#231815"
   stroke-width="0.5"
   stroke-miterlimit="10"
   d="M415.877,1216.426    c1.295,0.621,2.62,0.67,2.62,0.67S417.463,1216.817,415.877,1216.426z"
   id="path51" />
		
			<linearGradient
   id="SVGID_4_"
   gradientUnits="userSpaceOnUse"
   x1="407.4768"
   y1="293.45"
   x2="410.0979"
   y2="293.45"
   gradientTransform="matrix(1 0 0 -1 8.3999 1490.0991)">
			<stop
   offset="0"
   style="stop-color:#FFE361"
   id="stop53" />
			<stop
   offset="0.3061"
   style="stop-color:#F59540"
   id="stop55" />
			<stop
   offset="0.6425"
   style="stop-color:#EC451E"
   id="stop57" />
			<stop
   offset="0.8822"
   style="stop-color:#E51308"
   id="stop59" />
			<stop
   offset="1"
   style="stop-color:#E30000"
   id="stop61" />
		</linearGradient>
		<path
   fill="url(#SVGID_4_)"
   stroke="#231815"
   stroke-width="0.5"
   stroke-miterlimit="10"
   d="M415.877,1196.983    c1.586-0.393,2.62-0.668,2.62-0.668S417.172,1196.362,415.877,1196.983z"
   id="path64" />
		
			<linearGradient
   id="SVGID_5_"
   gradientUnits="userSpaceOnUse"
   x1="369.7874"
   y1="283.3938"
   x2="424.8596"
   y2="283.3938"
   gradientTransform="matrix(1 0 0 -1 8.3999 1490.0991)">
			<stop
   offset="0"
   style="stop-color:#FFE361"
   id="stop66" />
			<stop
   offset="0.3061"
   style="stop-color:#F59540"
   id="stop68" />
			<stop
   offset="0.6425"
   style="stop-color:#EC451E"
   id="stop70" />
			<stop
   offset="0.8822"
   style="stop-color:#E51308"
   id="stop72" />
			<stop
   offset="1"
   style="stop-color:#E30000"
   id="stop74" />
		</linearGradient>
		<path
   fill="url(#SVGID_5_)"
   stroke="#231815"
   stroke-width="0.5"
   stroke-miterlimit="10"
   d="M423.915,1206.704    c3-2.288,9.345-0.78,9.345-0.78c-0.203-1.127-1.939-2.229-5.881-2.793c-0.435-0.062-0.834-0.107-1.207-0.147    c-1.984-0.755-3.521-1.913-1.736-3.594c0.328-0.313,0.521-0.517,0.615-0.644c1.799-1.141,3.617-0.899,3.617-0.899    c-6.521-1.037-12.136,4.461-13.921,1.177c-0.182-0.334-0.264-0.678-0.278-1.025c0.412-0.442,0.905-0.772,1.408-1.014    c-0.419,0.104-0.871,0.215-1.355,0.331c0.502-2.423,3.977-4.754,3.977-4.754c-6.444,0.251-10.192,5.383-14.655,6.509    c-4.466,1.127-1.625-6.258-1.625-6.258c-0.863,1.946-2.713,4.537-4.802,5.975c-2.108,1.037-5.065,1.983-2.563-2.471    c0,0-0.967,1.191-2.98,2.577c-1.485-1.231-0.399-2.688-0.399-2.688c-9.896-0.866-13.115,6.525-13.27,6.893    c-0.006,0-0.011,0.001-0.016,0.001v0.033v7.147v0.033c0.005,0,0.01,0,0.016,0c0.153,0.367,3.123,4.029,13.27,6.893    c0,0-1.086-1.457,0.399-2.688c2.015,1.386,2.98,2.58,2.98,2.58c-2.502-4.456,0.455-3.511,2.563-2.474    c2.089,1.438,3.938,4.028,4.802,5.976c0,0-2.841-7.386,1.625-6.259c4.463,1.129,8.211,6.259,14.655,6.51    c0,0-3.475-2.333-3.977-4.754c0.484,0.115,0.938,0.227,1.355,0.33c-0.503-0.24-0.996-0.569-1.408-1.014    c0.016-0.348,0.098-0.691,0.278-1.025c1.785-3.282,7.398,2.215,13.921,1.178c0,0-1.818,0.24-3.617-0.9    c-0.095-0.128-0.287-0.33-0.615-0.641c-1.783-1.685-0.248-2.841,1.736-3.599c0.373-0.038,0.772-0.085,1.207-0.146    c3.94-0.563,5.678-1.666,5.881-2.793C433.26,1207.485,426.915,1208.991,423.915,1206.704z"
   id="path77" />
	</g>
	<g
   id="g144">
		
			<linearGradient
   id="SVGID_6_"
   gradientUnits="userSpaceOnUse"
   x1="394.2034"
   y1="278.0017"
   x2="395.8889"
   y2="278.0017"
   gradientTransform="matrix(1 0 0 -1 8.3999 1490.0991)">
			<stop
   offset="0"
   style="stop-color:#E30000"
   id="stop81" />
			<stop
   offset="0.0181"
   style="stop-color:#E40703"
   id="stop83" />
			<stop
   offset="0.1687"
   style="stop-color:#EB411C"
   id="stop85" />
			<stop
   offset="0.3196"
   style="stop-color:#F17231"
   id="stop87" />
			<stop
   offset="0.4673"
   style="stop-color:#F69B42"
   id="stop89" />
			<stop
   offset="0.6112"
   style="stop-color:#FABA50"
   id="stop91" />
			<stop
   offset="0.7502"
   style="stop-color:#FDD159"
   id="stop93" />
			<stop
   offset="0.8823"
   style="stop-color:#FEDE5F"
   id="stop95" />
			<stop
   offset="1"
   style="stop-color:#FFE361"
   id="stop97" />
		</linearGradient>
		<path
   fill="url(#SVGID_6_)"
   d="M402.604,1211.918c0.832,0.334,1.686,0.359,1.686,0.359S403.622,1212.131,402.604,1211.918z"
   id="path100" />
		
			<linearGradient
   id="SVGID_7_"
   gradientUnits="userSpaceOnUse"
   x1="394.2034"
   y1="288.7883"
   x2="395.8889"
   y2="288.7883"
   gradientTransform="matrix(1 0 0 -1 8.3999 1490.0991)">
			<stop
   offset="0"
   style="stop-color:#E30000"
   id="stop102" />
			<stop
   offset="0.0181"
   style="stop-color:#E40703"
   id="stop104" />
			<stop
   offset="0.1687"
   style="stop-color:#EB411C"
   id="stop106" />
			<stop
   offset="0.3196"
   style="stop-color:#F17231"
   id="stop108" />
			<stop
   offset="0.4673"
   style="stop-color:#F69B42"
   id="stop110" />
			<stop
   offset="0.6112"
   style="stop-color:#FABA50"
   id="stop112" />
			<stop
   offset="0.7502"
   style="stop-color:#FDD159"
   id="stop114" />
			<stop
   offset="0.8823"
   style="stop-color:#FEDE5F"
   id="stop116" />
			<stop
   offset="1"
   style="stop-color:#FFE361"
   id="stop118" />
		</linearGradient>
		<path
   fill="url(#SVGID_7_)"
   d="M402.604,1201.49c1.02-0.212,1.686-0.358,1.686-0.358S403.436,1201.155,402.604,1201.49z"
   id="path121" />
		
			<linearGradient
   id="SVGID_8_"
   gradientUnits="userSpaceOnUse"
   x1="369.9553"
   y1="283.3938"
   x2="405.385"
   y2="283.3938"
   gradientTransform="matrix(1 0 0 -1 8.3999 1490.0991)">
			<stop
   offset="0"
   style="stop-color:#E30000"
   id="stop123" />
			<stop
   offset="0.0181"
   style="stop-color:#E40703"
   id="stop125" />
			<stop
   offset="0.1687"
   style="stop-color:#EB411C"
   id="stop127" />
			<stop
   offset="0.3196"
   style="stop-color:#F17231"
   id="stop129" />
			<stop
   offset="0.4673"
   style="stop-color:#F69B42"
   id="stop131" />
			<stop
   offset="0.6112"
   style="stop-color:#FABA50"
   id="stop133" />
			<stop
   offset="0.7502"
   style="stop-color:#FDD159"
   id="stop135" />
			<stop
   offset="0.8823"
   style="stop-color:#FEDE5F"
   id="stop137" />
			<stop
   offset="1"
   style="stop-color:#FFE361"
   id="stop139" />
		</linearGradient>
		<path
   fill="url(#SVGID_8_)"
   d="M407.775,1206.704c1.93-1.227,6.01-0.419,6.01-0.419c-0.131-0.604-1.248-1.196-3.782-1.499    c-0.279-0.031-0.537-0.058-0.777-0.077c-1.275-0.405-2.264-1.026-1.117-1.93c0.213-0.167,0.336-0.275,0.396-0.344    c1.155-0.612,2.327-0.484,2.327-0.484c-4.194-0.557-7.809,2.396-8.954,0.634c-0.117-0.181-0.171-0.364-0.181-0.551    c0.267-0.238,0.582-0.416,0.906-0.544c-0.27,0.056-0.561,0.114-0.873,0.178c0.324-1.301,2.559-2.552,2.559-2.552    c-4.146,0.137-6.559,2.889-9.428,3.492c-2.873,0.604-1.045-3.355-1.045-3.355c-0.557,1.042-1.746,2.432-3.09,3.204    c-1.357,0.557-3.259,1.063-1.649-1.325c0,0-0.623,0.64-1.917,1.383c-0.956-0.662-0.259-1.442-0.259-1.442    c-6.366-0.466-8.437,3.501-8.535,3.696c-0.004,0-0.007,0-0.01,0v0.019v3.837v0.019c0.003,0,0.006,0,0.01,0    c0.1,0.196,2.01,2.161,8.535,3.696c0,0-0.697-0.78,0.259-1.442c1.294,0.742,1.917,1.383,1.917,1.383    c-1.608-2.39,0.292-1.882,1.649-1.325c1.344,0.772,2.533,2.163,3.09,3.204c0,0-1.828-3.961,1.045-3.355    c2.869,0.604,5.281,3.355,9.428,3.492c0,0-2.233-1.251-2.559-2.551c0.313,0.062,0.604,0.12,0.873,0.177    c-0.324-0.129-0.641-0.306-0.906-0.544c0.011-0.187,0.063-0.37,0.181-0.551c1.146-1.762,4.76,1.189,8.954,0.634    c0,0-1.172,0.128-2.327-0.484c-0.062-0.067-0.185-0.177-0.396-0.344c-1.146-0.902-0.158-1.523,1.117-1.931    c0.24-0.021,0.498-0.045,0.777-0.076c2.534-0.303,3.651-0.896,3.782-1.499C413.784,1207.123,409.704,1207.931,407.775,1206.704z"
   id="path142" />
	</g>
	
		<rect
   x="375.741"
   y="1201.954"
   fill="#F2E9E9"
   stroke="#231815"
   stroke-width="0.5"
   stroke-miterlimit="10"
   width="2.614"
   height="9.5"
   id="rect146" />
	
		<rect
   x="425.572"
   y="1225.892"
   fill="#3CB0CD"
   stroke="#231815"
   stroke-width="0.5"
   stroke-miterlimit="10"
   width="24"
   height="5.063"
   id="rect148" />
	
		<polygon
   fill="#76E1F4"
   stroke="#231815"
   stroke-width="0.5"
   stroke-linecap="round"
   stroke-linejoin="round"
   stroke-miterlimit="10"
   points="   449.572,1225.892 425.572,1225.892 461.572,1197.74 461.572,1214.655  "
   id="polygon150" />
	<polygon
   fill="#197C8C"
   stroke="#231815"
   stroke-width="0.5"
   stroke-miterlimit="10"
   points="461.572,1224.371 455.156,1230.954    449.572,1230.954 449.572,1225.892 461.572,1214.655  "
   id="polygon152" />
	
		<path
   fill="#E5E5E5"
   stroke="#231815"
   stroke-width="0.5"
   stroke-linecap="round"
   stroke-linejoin="round"
   stroke-miterlimit="10"
   d="   M440.264,1182.454v40.352c0,0.288,0.74,0.521,1.654,0.521c0.913,0,1.653-0.232,1.653-0.521v-40.352H440.264z"
   id="path154" />
	
		<path
   fill="#DDDADB"
   stroke="#231815"
   stroke-width="0.5"
   stroke-linecap="round"
   stroke-linejoin="round"
   stroke-miterlimit="10"
   d="   M448.402,1182.454v36.21c0,0.29-0.74,0.53-1.647,0.53c-0.91,0-1.66-0.24-1.66-0.53v-36.21H448.402z"
   id="path156" />
	
		<path
   fill="#D5CFD1"
   stroke="#231815"
   stroke-width="0.5"
   stroke-linecap="round"
   stroke-linejoin="round"
   stroke-miterlimit="10"
   d="   M453.241,1182.454v32.08c0,0.29-0.737,0.521-1.66,0.521c-0.907,0-1.647-0.229-1.647-0.521v-32.08H453.241z"
   id="path158" />
	
		<path
   fill="#CCC3C7"
   stroke="#231815"
   stroke-width="0.5"
   stroke-linecap="round"
   stroke-linejoin="round"
   stroke-miterlimit="10"
   d="   M458.072,1182.454v27.94c0,0.29-0.74,0.52-1.647,0.52c-0.92,0-1.66-0.229-1.66-0.52v-27.94H458.072z"
   id="path160" />
	
		<path
   fill="#C4B8BD"
   stroke="#231815"
   stroke-width="0.5"
   stroke-linecap="round"
   stroke-linejoin="round"
   stroke-miterlimit="10"
   d="   M461.581,1182.454v24.32c-0.108,0.01-0.219,0.01-0.327,0.01c-0.91,0-1.66-0.239-1.66-0.53v-23.8H461.581L461.581,1182.454z"
   id="path162" />
	
		<line
   fill="none"
   stroke="#AB0F08"
   stroke-width="0.5"
   stroke-linecap="round"
   stroke-linejoin="round"
   stroke-miterlimit="10"
   x1="375.701"
   y1="1178.454"
   x2="375.701"
   y2="1166.244"
   id="line164" />
	
		<line
   fill="none"
   stroke="#AB0F08"
   stroke-width="0.5"
   stroke-linecap="round"
   stroke-linejoin="round"
   stroke-miterlimit="10"
   x1="380.106"
   y1="1178.454"
   x2="380.106"
   y2="1165.175"
   id="line166" />
	
		<line
   fill="none"
   stroke="#AB0F08"
   stroke-width="0.5"
   stroke-linecap="round"
   stroke-linejoin="round"
   stroke-miterlimit="10"
   x1="384.521"
   y1="1178.454"
   x2="384.521"
   y2="1164.094"
   id="line168" />
	
		<line
   fill="none"
   stroke="#AB0F08"
   stroke-width="0.5"
   stroke-linecap="round"
   stroke-linejoin="round"
   stroke-miterlimit="10"
   x1="388.935"
   y1="1178.454"
   x2="388.935"
   y2="1163.024"
   id="line170" />
	
		<line
   fill="none"
   stroke="#AB0F08"
   stroke-width="0.5"
   stroke-linecap="round"
   stroke-linejoin="round"
   stroke-miterlimit="10"
   x1="393.34"
   y1="1178.454"
   x2="393.34"
   y2="1161.954"
   id="line172" />
	
		<line
   fill="none"
   stroke="#AB0F08"
   stroke-width="0.5"
   stroke-linecap="round"
   stroke-linejoin="round"
   stroke-miterlimit="10"
   x1="397.754"
   y1="1178.454"
   x2="397.754"
   y2="1160.875"
   id="line174" />
	
		<line
   fill="none"
   stroke="#AB0F08"
   stroke-width="0.5"
   stroke-linecap="round"
   stroke-linejoin="round"
   stroke-miterlimit="10"
   x1="402.157"
   y1="1178.454"
   x2="402.157"
   y2="1159.804"
   id="line176" />
	
		<line
   fill="none"
   stroke="#AB0F08"
   stroke-width="0.5"
   stroke-linecap="round"
   stroke-linejoin="round"
   stroke-miterlimit="10"
   x1="406.572"
   y1="1178.454"
   x2="406.572"
   y2="1158.734"
   id="line178" />
	
		<line
   fill="none"
   stroke="#AB0F08"
   stroke-width="0.5"
   stroke-linecap="round"
   stroke-linejoin="round"
   stroke-miterlimit="10"
   x1="410.977"
   y1="1178.454"
   x2="410.977"
   y2="1157.664"
   id="line180" />
	
		<line
   fill="none"
   stroke="#AB0F08"
   stroke-width="0.5"
   stroke-linecap="round"
   stroke-linejoin="round"
   stroke-miterlimit="10"
   x1="415.391"
   y1="1178.454"
   x2="415.391"
   y2="1156.584"
   id="line182" />
	
		<line
   fill="none"
   stroke="#AB0F08"
   stroke-width="0.5"
   stroke-linecap="round"
   stroke-linejoin="round"
   stroke-miterlimit="10"
   x1="419.805"
   y1="1178.454"
   x2="419.805"
   y2="1155.514"
   id="line184" />
	
		<line
   fill="none"
   stroke="#AB0F08"
   stroke-width="0.5"
   stroke-linecap="round"
   stroke-linejoin="round"
   stroke-miterlimit="10"
   x1="424.209"
   y1="1178.454"
   x2="424.209"
   y2="1154.444"
   id="line186" />
	
		<line
   fill="none"
   stroke="#AB0F08"
   stroke-width="0.5"
   stroke-linecap="round"
   stroke-linejoin="round"
   stroke-miterlimit="10"
   x1="428.622"
   y1="1178.454"
   x2="428.622"
   y2="1153.364"
   id="line188" />
	
		<line
   fill="none"
   stroke="#AB0F08"
   stroke-width="0.5"
   stroke-linecap="round"
   stroke-linejoin="round"
   stroke-miterlimit="10"
   x1="433.027"
   y1="1178.454"
   x2="433.027"
   y2="1152.295"
   id="line190" />
	
		<line
   fill="none"
   stroke="#AB0F08"
   stroke-width="0.5"
   stroke-linecap="round"
   stroke-linejoin="round"
   stroke-miterlimit="10"
   x1="437.441"
   y1="1178.454"
   x2="437.441"
   y2="1151.224"
   id="line192" />
	
		<line
   fill="none"
   stroke="#AB0F08"
   stroke-width="0.5"
   stroke-linecap="round"
   stroke-linejoin="round"
   stroke-miterlimit="10"
   x1="441.846"
   y1="1178.454"
   x2="441.846"
   y2="1150.154"
   id="line194" />
	
		<line
   fill="none"
   stroke="#AB0F08"
   stroke-width="0.5"
   stroke-linecap="round"
   stroke-linejoin="round"
   stroke-miterlimit="10"
   x1="446.26"
   y1="1178.454"
   x2="446.26"
   y2="1149.074"
   id="line196" />
	
		<line
   fill="none"
   stroke="#AB0F08"
   stroke-width="0.5"
   stroke-linecap="round"
   stroke-linejoin="round"
   stroke-miterlimit="10"
   x1="450.663"
   y1="1178.454"
   x2="450.663"
   y2="1148.005"
   id="line198" />
	
		<line
   fill="none"
   stroke="#AB0F08"
   stroke-width="0.5"
   stroke-linecap="round"
   stroke-linejoin="round"
   stroke-miterlimit="10"
   x1="455.077"
   y1="1178.454"
   x2="455.077"
   y2="1146.935"
   id="line200" />
	
		<line
   fill="none"
   stroke="#AB0F08"
   stroke-width="0.5"
   stroke-linecap="round"
   stroke-linejoin="round"
   stroke-miterlimit="10"
   x1="459.491"
   y1="1178.454"
   x2="459.491"
   y2="1145.854"
   id="line202" />
	
		<line
   fill="none"
   stroke="#AB0F08"
   stroke-width="0.5"
   stroke-linecap="round"
   stroke-linejoin="round"
   stroke-miterlimit="10"
   x1="463.896"
   y1="1178.454"
   x2="463.896"
   y2="1144.784"
   id="line204" />
	
		<polygon
   fill="#82100D"
   stroke="#231815"
   stroke-width="0.5"
   stroke-linecap="round"
   stroke-linejoin="round"
   stroke-miterlimit="10"
   points="   470.495,1146.454 465.586,1144.371 465.586,1234.954 470.495,1231.146  "
   id="polygon206" />
	
		<rect
   x="467.625"
   y="1193.588"
   fill="#F47976"
   stroke="#231815"
   stroke-width="0.5"
   stroke-linecap="round"
   stroke-linejoin="round"
   stroke-miterlimit="10"
   width="11.03"
   height="26.233"
   id="rect208" />
	
		<polygon
   fill="#F47976"
   stroke="#231815"
   stroke-width="0.5"
   stroke-linecap="round"
   stroke-linejoin="round"
   stroke-miterlimit="10"
   points="   478.656,1193.588 467.625,1193.588 469.375,1192.579 480.406,1192.579  "
   id="polygon210" />
	
		<line
   fill="none"
   stroke="#231815"
   stroke-width="0.5"
   stroke-linecap="round"
   stroke-linejoin="round"
   stroke-miterlimit="10"
   x1="473.141"
   y1="1193.588"
   x2="473.141"
   y2="1219.821"
   id="line212" />
	
		<line
   fill="none"
   stroke="#231815"
   stroke-width="0.5"
   stroke-linecap="round"
   stroke-linejoin="round"
   stroke-miterlimit="10"
   x1="467.625"
   y1="1206.704"
   x2="478.656"
   y2="1206.704"
   id="line214" />
	
		<linearGradient
   id="SVGID_9_"
   gradientUnits="userSpaceOnUse"
   x1="470.2561"
   y1="304.467"
   x2="490.8596"
   y2="304.467"
   gradientTransform="matrix(1 0 0 -1 8.3999 1490.0991)">
		<stop
   offset="0"
   style="stop-color:#C12F29"
   id="stop216" />
		<stop
   offset="0.0096"
   style="stop-color:#C2312B"
   id="stop218" />
		<stop
   offset="0.1714"
   style="stop-color:#D7514B"
   id="stop220" />
		<stop
   offset="0.2611"
   style="stop-color:#DF5D57"
   id="stop222" />
		<stop
   offset="0.3023"
   style="stop-color:#E96D67"
   id="stop224" />
		<stop
   offset="0.3679"
   style="stop-color:#F57F7A"
   id="stop226" />
		<stop
   offset="0.4354"
   style="stop-color:#FD8A85"
   id="stop228" />
		<stop
   offset="0.5074"
   style="stop-color:#FF8E89"
   id="stop230" />
		<stop
   offset="0.5688"
   style="stop-color:#FC8984"
   id="stop232" />
		<stop
   offset="0.642"
   style="stop-color:#F27B75"
   id="stop234" />
		<stop
   offset="0.7209"
   style="stop-color:#E3635E"
   id="stop236" />
		<stop
   offset="0.7389"
   style="stop-color:#DF5D57"
   id="stop238" />
		<stop
   offset="1"
   style="stop-color:#BB2620"
   id="stop240" />
	</linearGradient>
	
		<path
   fill="url(#SVGID_9_)"
   stroke="#231815"
   stroke-width="0.5"
   stroke-linecap="round"
   stroke-linejoin="round"
   stroke-miterlimit="10"
   d="   M488.959,1134.966c-5.689,0-10.304,1.523-10.304,3.405v93.553c0,2.417,4.613,4.375,10.304,4.375c5.689,0,10.301-1.958,10.301-4.375   v-93.553C499.26,1136.489,494.648,1134.966,488.959,1134.966z"
   id="path243" />
</g>
</svg>
