<?xml version="1.0" encoding="UTF-8" standalone="no"?>
<svg
   xmlns:dc="http://purl.org/dc/elements/1.1/"
   xmlns:cc="http://creativecommons.org/ns#"
   xmlns:rdf="http://www.w3.org/1999/02/22-rdf-syntax-ns#"
   xmlns:svg="http://www.w3.org/2000/svg"
   xmlns="http://www.w3.org/2000/svg"
   xmlns:sodipodi="http://sodipodi.sourceforge.net/DTD/sodipodi-0.dtd"
   xmlns:inkscape="http://www.inkscape.org/namespaces/inkscape"
   version="1.1"
   id="图层_1"
   x="0px"
   y="0px"
   width="128.019px"
   height="101.833px"
   viewBox="540.778 1134.716 128.019 101.833"
   enable-background="new 540.778 1134.716 128.019 101.833"
   xml:space="preserve"
   sodipodi:docname="01-73.svg"><metadata
   id="metadata238"><rdf:RDF><cc:Work
       rdf:about=""><dc:format>image/svg+xml</dc:format><dc:type
         rdf:resource="http://purl.org/dc/dcmitype/StillImage" /></cc:Work></rdf:RDF></metadata><defs
   id="defs236" /><sodipodi:namedview
   pagecolor="#ffffff"
   bordercolor="#666666"
   borderopacity="1"
   objecttolerance="10"
   gridtolerance="10"
   guidetolerance="10"
   inkscape:pageopacity="0"
   inkscape:pageshadow="2"
   inkscape:window-width="640"
   inkscape:window-height="480"
   id="namedview234" />
<g
   id="g231">
	
		<polygon
   fill="#9E9E9E"
   stroke="#1B1B1B"
   stroke-width="0.5"
   stroke-linecap="round"
   stroke-linejoin="round"
   stroke-miterlimit="10"
   points="   634.871,1144.371 541.028,1167.2 541.028,1234.954 634.871,1234.954  "
   id="polygon2" />
	
		<linearGradient
   id="SVGID_1_"
   gradientUnits="userSpaceOnUse"
   x1="532.6272"
   y1="283.3953"
   x2="626.4709"
   y2="283.3953"
   gradientTransform="matrix(1 0 0 -1 8.3999 1490.0991)">
		<stop
   offset="0"
   style="stop-color:#3A3A3A"
   id="stop4" />
		<stop
   offset="0.0885"
   style="stop-color:#575757"
   id="stop6" />
		<stop
   offset="0.1995"
   style="stop-color:#777777"
   id="stop8" />
		<stop
   offset="0.2611"
   style="stop-color:#838383"
   id="stop10" />
		<stop
   offset="0.2896"
   style="stop-color:#8D8D8D"
   id="stop12" />
		<stop
   offset="0.3592"
   style="stop-color:#A0A0A0"
   id="stop14" />
		<stop
   offset="0.431"
   style="stop-color:#ACACAC"
   id="stop16" />
		<stop
   offset="0.5074"
   style="stop-color:#AFAFAF"
   id="stop18" />
		<stop
   offset="0.5734"
   style="stop-color:#AAAAAA"
   id="stop20" />
		<stop
   offset="0.6522"
   style="stop-color:#9C9C9C"
   id="stop22" />
		<stop
   offset="0.7373"
   style="stop-color:#848484"
   id="stop24" />
		<stop
   offset="0.7389"
   style="stop-color:#838383"
   id="stop26" />
		<stop
   offset="1"
   style="stop-color:#3A3A3A"
   id="stop28" />
	</linearGradient>
	
		<rect
   x="541.028"
   y="1178.454"
   fill="url(#SVGID_1_)"
   stroke="#1B1B1B"
   stroke-width="0.5"
   stroke-linecap="round"
   stroke-linejoin="round"
   stroke-miterlimit="10"
   width="93.844"
   height="56.5"
   id="rect31" />
	
		<linearGradient
   id="SVGID_2_"
   gradientUnits="userSpaceOnUse"
   x1="536.6272"
   y1="283.3953"
   x2="622.467"
   y2="283.3953"
   gradientTransform="matrix(1 0 0 -1 8.3999 1490.0991)">
		<stop
   offset="0"
   style="stop-color:#B4B4B4"
   id="stop33" />
		<stop
   offset="1"
   style="stop-color:#B1B1B1"
   id="stop35" />
	</linearGradient>
	
		<rect
   x="545.028"
   y="1182.454"
   fill="url(#SVGID_2_)"
   stroke="#1B1B1B"
   stroke-width="0.5"
   stroke-miterlimit="10"
   width="85.84"
   height="48.5"
   id="rect38" />
	<g
   id="g79">
		
			<linearGradient
   id="SVGID_3_"
   gradientUnits="userSpaceOnUse"
   x1="576.762"
   y1="273.3386"
   x2="579.3831"
   y2="273.3386"
   gradientTransform="matrix(1 0 0 -1 8.3999 1490.0991)">
			<stop
   offset="0"
   style="stop-color:#DDDDDD"
   id="stop40" />
			<stop
   offset="0.0233"
   style="stop-color:#D9D9D9"
   id="stop42" />
			<stop
   offset="0.4977"
   style="stop-color:#898989"
   id="stop44" />
			<stop
   offset="0.8344"
   style="stop-color:#575757"
   id="stop46" />
			<stop
   offset="1"
   style="stop-color:#444444"
   id="stop48" />
		</linearGradient>
		<path
   fill="url(#SVGID_3_)"
   stroke="#1B1B1B"
   stroke-width="0.5"
   stroke-miterlimit="10"
   d="M585.162,1216.426    c1.295,0.621,2.621,0.67,2.621,0.67S586.747,1216.817,585.162,1216.426z"
   id="path51" />
		
			<linearGradient
   id="SVGID_4_"
   gradientUnits="userSpaceOnUse"
   x1="576.762"
   y1="293.45"
   x2="579.3831"
   y2="293.45"
   gradientTransform="matrix(1 0 0 -1 8.3999 1490.0991)">
			<stop
   offset="0"
   style="stop-color:#DDDDDD"
   id="stop53" />
			<stop
   offset="0.0233"
   style="stop-color:#D9D9D9"
   id="stop55" />
			<stop
   offset="0.4977"
   style="stop-color:#898989"
   id="stop57" />
			<stop
   offset="0.8344"
   style="stop-color:#575757"
   id="stop59" />
			<stop
   offset="1"
   style="stop-color:#444444"
   id="stop61" />
		</linearGradient>
		<path
   fill="url(#SVGID_4_)"
   stroke="#1B1B1B"
   stroke-width="0.5"
   stroke-miterlimit="10"
   d="M585.162,1196.983    c1.586-0.393,2.621-0.668,2.621-0.668S586.456,1196.362,585.162,1196.983z"
   id="path64" />
		
			<linearGradient
   id="SVGID_5_"
   gradientUnits="userSpaceOnUse"
   x1="539.0745"
   y1="283.3938"
   x2="594.1467"
   y2="283.3938"
   gradientTransform="matrix(1 0 0 -1 8.3999 1490.0991)">
			<stop
   offset="0"
   style="stop-color:#DDDDDD"
   id="stop66" />
			<stop
   offset="0.0233"
   style="stop-color:#D9D9D9"
   id="stop68" />
			<stop
   offset="0.4977"
   style="stop-color:#898989"
   id="stop70" />
			<stop
   offset="0.8344"
   style="stop-color:#575757"
   id="stop72" />
			<stop
   offset="1"
   style="stop-color:#444444"
   id="stop74" />
		</linearGradient>
		<path
   fill="url(#SVGID_5_)"
   stroke="#1B1B1B"
   stroke-width="0.5"
   stroke-miterlimit="10"
   d="M593.201,1206.704    c3-2.288,9.345-0.78,9.345-0.78c-0.203-1.127-1.939-2.229-5.883-2.793c-0.434-0.062-0.833-0.107-1.206-0.147    c-1.984-0.755-3.52-1.913-1.736-3.594c0.329-0.313,0.521-0.517,0.615-0.644c1.8-1.141,3.617-0.899,3.617-0.899    c-6.521-1.037-12.136,4.461-13.92,1.177c-0.182-0.334-0.264-0.678-0.278-1.025c0.411-0.442,0.904-0.772,1.407-1.014    c-0.418,0.104-0.87,0.215-1.354,0.331c0.502-2.423,3.977-4.754,3.977-4.754c-6.444,0.251-10.192,5.383-14.655,6.509    c-4.466,1.127-1.625-6.258-1.625-6.258c-0.864,1.946-2.713,4.537-4.802,5.975c-2.108,1.037-5.065,1.983-2.563-2.471    c0,0-0.967,1.191-2.98,2.577c-1.485-1.231-0.399-2.688-0.399-2.688c-9.896-0.866-13.115,6.525-13.271,6.893    c-0.006,0-0.01,0.001-0.015,0.001v0.033v7.147v0.033c0.005,0,0.009,0,0.015,0c0.154,0.367,3.124,4.029,13.271,6.893    c0,0-1.086-1.457,0.399-2.688c2.015,1.386,2.98,2.58,2.98,2.58c-2.502-4.456,0.455-3.511,2.563-2.474    c2.089,1.438,3.938,4.028,4.802,5.976c0,0-2.841-7.386,1.625-6.259c4.463,1.129,8.211,6.259,14.655,6.51    c0,0-3.475-2.333-3.977-4.754c0.484,0.115,0.938,0.227,1.354,0.33c-0.503-0.24-0.995-0.569-1.407-1.014    c0.016-0.348,0.098-0.691,0.278-1.025c1.784-3.282,7.398,2.215,13.92,1.178c0,0-1.817,0.24-3.617-0.9    c-0.094-0.128-0.286-0.33-0.615-0.641c-1.782-1.685-0.248-2.841,1.736-3.599c0.373-0.038,0.772-0.085,1.206-0.146    c3.942-0.563,5.68-1.666,5.883-2.793C602.546,1207.485,596.201,1208.991,593.201,1206.704z"
   id="path77" />
	</g>
	<g
   id="g132">
		
			<linearGradient
   id="SVGID_6_"
   gradientUnits="userSpaceOnUse"
   x1="563.4885"
   y1="278.0017"
   x2="565.176"
   y2="278.0017"
   gradientTransform="matrix(1 0 0 -1 8.3999 1490.0991)">
			<stop
   offset="0"
   style="stop-color:#444444"
   id="stop81" />
			<stop
   offset="0.1575"
   style="stop-color:#6D6D6D"
   id="stop83" />
			<stop
   offset="0.3388"
   style="stop-color:#959595"
   id="stop85" />
			<stop
   offset="0.5174"
   style="stop-color:#B5B5B5"
   id="stop87" />
			<stop
   offset="0.6899"
   style="stop-color:#CBCBCB"
   id="stop89" />
			<stop
   offset="0.8538"
   style="stop-color:#D8D8D8"
   id="stop91" />
			<stop
   offset="1"
   style="stop-color:#DDDDDD"
   id="stop93" />
		</linearGradient>
		<path
   fill="url(#SVGID_6_)"
   d="M571.889,1211.918c0.833,0.334,1.687,0.359,1.687,0.359S572.908,1212.131,571.889,1211.918z"
   id="path96" />
		
			<linearGradient
   id="SVGID_7_"
   gradientUnits="userSpaceOnUse"
   x1="563.4885"
   y1="288.7883"
   x2="565.176"
   y2="288.7883"
   gradientTransform="matrix(1 0 0 -1 8.3999 1490.0991)">
			<stop
   offset="0"
   style="stop-color:#444444"
   id="stop98" />
			<stop
   offset="0.1575"
   style="stop-color:#6D6D6D"
   id="stop100" />
			<stop
   offset="0.3388"
   style="stop-color:#959595"
   id="stop102" />
			<stop
   offset="0.5174"
   style="stop-color:#B5B5B5"
   id="stop104" />
			<stop
   offset="0.6899"
   style="stop-color:#CBCBCB"
   id="stop106" />
			<stop
   offset="0.8538"
   style="stop-color:#D8D8D8"
   id="stop108" />
			<stop
   offset="1"
   style="stop-color:#DDDDDD"
   id="stop110" />
		</linearGradient>
		<path
   fill="url(#SVGID_7_)"
   d="M571.889,1201.49c1.021-0.212,1.687-0.358,1.687-0.358S572.722,1201.155,571.889,1201.49z"
   id="path113" />
		
			<linearGradient
   id="SVGID_8_"
   gradientUnits="userSpaceOnUse"
   x1="539.2424"
   y1="283.3938"
   x2="574.6721"
   y2="283.3938"
   gradientTransform="matrix(1 0 0 -1 8.3999 1490.0991)">
			<stop
   offset="0"
   style="stop-color:#444444"
   id="stop115" />
			<stop
   offset="0.1575"
   style="stop-color:#6D6D6D"
   id="stop117" />
			<stop
   offset="0.3388"
   style="stop-color:#959595"
   id="stop119" />
			<stop
   offset="0.5174"
   style="stop-color:#B5B5B5"
   id="stop121" />
			<stop
   offset="0.6899"
   style="stop-color:#CBCBCB"
   id="stop123" />
			<stop
   offset="0.8538"
   style="stop-color:#D8D8D8"
   id="stop125" />
			<stop
   offset="1"
   style="stop-color:#DDDDDD"
   id="stop127" />
		</linearGradient>
		<path
   fill="url(#SVGID_8_)"
   d="M577.061,1206.704c1.931-1.227,6.011-0.419,6.011-0.419c-0.131-0.604-1.248-1.196-3.784-1.499    c-0.277-0.031-0.535-0.058-0.775-0.077c-1.276-0.405-2.265-1.026-1.117-1.93c0.213-0.167,0.336-0.275,0.396-0.344    c1.156-0.612,2.328-0.484,2.328-0.484c-4.195-0.557-7.809,2.396-8.956,0.634c-0.115-0.181-0.169-0.364-0.179-0.551    c0.265-0.238,0.582-0.416,0.905-0.544c-0.27,0.056-0.561,0.114-0.872,0.178c0.323-1.301,2.559-2.552,2.559-2.552    c-4.146,0.137-6.559,2.889-9.429,3.492c-2.872,0.604-1.045-3.355-1.045-3.355c-0.557,1.042-1.745,2.432-3.089,3.204    c-1.357,0.557-3.26,1.063-1.649-1.325c0,0-0.623,0.64-1.917,1.383c-0.957-0.662-0.259-1.442-0.259-1.442    c-6.366-0.466-8.437,3.501-8.536,3.696c-0.003,0-0.006,0-0.01,0v0.019v3.837v0.019c0.004,0,0.007,0,0.01,0    c0.101,0.196,2.01,2.161,8.536,3.696c0,0-0.698-0.78,0.259-1.442c1.294,0.742,1.917,1.383,1.917,1.383    c-1.609-2.39,0.292-1.882,1.649-1.325c1.344,0.772,2.532,2.163,3.089,3.204c0,0-1.827-3.961,1.045-3.355    c2.87,0.604,5.282,3.355,9.429,3.492c0,0-2.234-1.251-2.559-2.551c0.313,0.062,0.604,0.12,0.872,0.177    c-0.323-0.129-0.642-0.306-0.905-0.544c0.01-0.187,0.063-0.37,0.179-0.551c1.147-1.762,4.761,1.189,8.956,0.634    c0,0-1.172,0.128-2.328-0.484c-0.061-0.067-0.184-0.177-0.396-0.344c-1.146-0.902-0.159-1.523,1.117-1.931    c0.24-0.021,0.498-0.045,0.775-0.076c2.536-0.303,3.653-0.896,3.784-1.499C583.071,1207.123,578.99,1207.931,577.061,1206.704z"
   id="path130" />
	</g>
	
		<rect
   x="545.028"
   y="1201.954"
   fill="#ECECEC"
   stroke="#1B1B1B"
   stroke-width="0.5"
   stroke-miterlimit="10"
   width="2.613"
   height="9.5"
   id="rect134" />
	
		<rect
   x="594.858"
   y="1225.892"
   fill="#909090"
   stroke="#1B1B1B"
   stroke-width="0.5"
   stroke-miterlimit="10"
   width="24"
   height="5.063"
   id="rect136" />
	
		<polygon
   fill="#C3C3C3"
   stroke="#1B1B1B"
   stroke-width="0.5"
   stroke-linecap="round"
   stroke-linejoin="round"
   stroke-miterlimit="10"
   points="   618.858,1225.892 594.858,1225.892 630.858,1197.74 630.858,1214.655  "
   id="polygon138" />
	<polygon
   fill="#606060"
   stroke="#1B1B1B"
   stroke-width="0.5"
   stroke-miterlimit="10"
   points="630.858,1224.371 624.442,1230.954    618.858,1230.954 618.858,1225.892 630.858,1214.655  "
   id="polygon140" />
	
		<path
   fill="#E5E5E5"
   stroke="#1B1B1B"
   stroke-width="0.5"
   stroke-linecap="round"
   stroke-linejoin="round"
   stroke-miterlimit="10"
   d="   M609.55,1182.454v40.352c0,0.288,0.739,0.521,1.653,0.521s1.654-0.232,1.654-0.521v-40.352H609.55z"
   id="path142" />
	
		<path
   fill="#DBDBDB"
   stroke="#1B1B1B"
   stroke-width="0.5"
   stroke-linecap="round"
   stroke-linejoin="round"
   stroke-miterlimit="10"
   d="   M617.688,1182.454v36.21c0,0.29-0.74,0.53-1.649,0.53s-1.659-0.24-1.659-0.53v-36.21H617.688z"
   id="path144" />
	
		<path
   fill="#D1D1D1"
   stroke="#1B1B1B"
   stroke-width="0.5"
   stroke-linecap="round"
   stroke-linejoin="round"
   stroke-miterlimit="10"
   d="   M622.528,1182.454v32.08c0,0.29-0.739,0.521-1.66,0.521c-0.908,0-1.648-0.229-1.648-0.521v-32.08H622.528z"
   id="path146" />
	
		<path
   fill="#C6C6C6"
   stroke="#1B1B1B"
   stroke-width="0.5"
   stroke-linecap="round"
   stroke-linejoin="round"
   stroke-miterlimit="10"
   d="   M627.358,1182.454v27.94c0,0.29-0.74,0.52-1.648,0.52c-0.921,0-1.66-0.229-1.66-0.52v-27.94H627.358z"
   id="path148" />
	
		<path
   fill="#BCBCBC"
   stroke="#1B1B1B"
   stroke-width="0.5"
   stroke-linecap="round"
   stroke-linejoin="round"
   stroke-miterlimit="10"
   d="   M630.867,1182.454v24.32c-0.108,0.01-0.219,0.01-0.329,0.01c-0.909,0-1.659-0.239-1.659-0.53v-23.8H630.867L630.867,1182.454z"
   id="path150" />
	
		<line
   fill="none"
   stroke="#3D3D3D"
   stroke-width="0.5"
   stroke-linecap="round"
   stroke-linejoin="round"
   stroke-miterlimit="10"
   x1="544.987"
   y1="1178.454"
   x2="544.987"
   y2="1166.244"
   id="line152" />
	
		<line
   fill="none"
   stroke="#3D3D3D"
   stroke-width="0.5"
   stroke-linecap="round"
   stroke-linejoin="round"
   stroke-miterlimit="10"
   x1="549.392"
   y1="1178.454"
   x2="549.392"
   y2="1165.175"
   id="line154" />
	
		<line
   fill="none"
   stroke="#3D3D3D"
   stroke-width="0.5"
   stroke-linecap="round"
   stroke-linejoin="round"
   stroke-miterlimit="10"
   x1="553.806"
   y1="1178.454"
   x2="553.806"
   y2="1164.094"
   id="line156" />
	
		<line
   fill="none"
   stroke="#3D3D3D"
   stroke-width="0.5"
   stroke-linecap="round"
   stroke-linejoin="round"
   stroke-miterlimit="10"
   x1="558.221"
   y1="1178.454"
   x2="558.221"
   y2="1163.024"
   id="line158" />
	
		<line
   fill="none"
   stroke="#3D3D3D"
   stroke-width="0.5"
   stroke-linecap="round"
   stroke-linejoin="round"
   stroke-miterlimit="10"
   x1="562.625"
   y1="1178.454"
   x2="562.625"
   y2="1161.954"
   id="line160" />
	
		<line
   fill="none"
   stroke="#3D3D3D"
   stroke-width="0.5"
   stroke-linecap="round"
   stroke-linejoin="round"
   stroke-miterlimit="10"
   x1="567.038"
   y1="1178.454"
   x2="567.038"
   y2="1160.875"
   id="line162" />
	
		<line
   fill="none"
   stroke="#3D3D3D"
   stroke-width="0.5"
   stroke-linecap="round"
   stroke-linejoin="round"
   stroke-miterlimit="10"
   x1="571.443"
   y1="1178.454"
   x2="571.443"
   y2="1159.804"
   id="line164" />
	
		<line
   fill="none"
   stroke="#3D3D3D"
   stroke-width="0.5"
   stroke-linecap="round"
   stroke-linejoin="round"
   stroke-miterlimit="10"
   x1="575.857"
   y1="1178.454"
   x2="575.857"
   y2="1158.734"
   id="line166" />
	
		<line
   fill="none"
   stroke="#3D3D3D"
   stroke-width="0.5"
   stroke-linecap="round"
   stroke-linejoin="round"
   stroke-miterlimit="10"
   x1="580.262"
   y1="1178.454"
   x2="580.262"
   y2="1157.664"
   id="line168" />
	
		<line
   fill="none"
   stroke="#3D3D3D"
   stroke-width="0.5"
   stroke-linecap="round"
   stroke-linejoin="round"
   stroke-miterlimit="10"
   x1="584.677"
   y1="1178.454"
   x2="584.677"
   y2="1156.584"
   id="line170" />
	
		<line
   fill="none"
   stroke="#3D3D3D"
   stroke-width="0.5"
   stroke-linecap="round"
   stroke-linejoin="round"
   stroke-miterlimit="10"
   x1="589.091"
   y1="1178.454"
   x2="589.091"
   y2="1155.514"
   id="line172" />
	
		<line
   fill="none"
   stroke="#3D3D3D"
   stroke-width="0.5"
   stroke-linecap="round"
   stroke-linejoin="round"
   stroke-miterlimit="10"
   x1="593.494"
   y1="1178.454"
   x2="593.494"
   y2="1154.444"
   id="line174" />
	
		<line
   fill="none"
   stroke="#3D3D3D"
   stroke-width="0.5"
   stroke-linecap="round"
   stroke-linejoin="round"
   stroke-miterlimit="10"
   x1="597.908"
   y1="1178.454"
   x2="597.908"
   y2="1153.364"
   id="line176" />
	
		<line
   fill="none"
   stroke="#3D3D3D"
   stroke-width="0.5"
   stroke-linecap="round"
   stroke-linejoin="round"
   stroke-miterlimit="10"
   x1="602.313"
   y1="1178.454"
   x2="602.313"
   y2="1152.295"
   id="line178" />
	
		<line
   fill="none"
   stroke="#3D3D3D"
   stroke-width="0.5"
   stroke-linecap="round"
   stroke-linejoin="round"
   stroke-miterlimit="10"
   x1="606.728"
   y1="1178.454"
   x2="606.728"
   y2="1151.224"
   id="line180" />
	
		<line
   fill="none"
   stroke="#3D3D3D"
   stroke-width="0.5"
   stroke-linecap="round"
   stroke-linejoin="round"
   stroke-miterlimit="10"
   x1="611.132"
   y1="1178.454"
   x2="611.132"
   y2="1150.154"
   id="line182" />
	
		<line
   fill="none"
   stroke="#3D3D3D"
   stroke-width="0.5"
   stroke-linecap="round"
   stroke-linejoin="round"
   stroke-miterlimit="10"
   x1="615.546"
   y1="1178.454"
   x2="615.546"
   y2="1149.074"
   id="line184" />
	
		<line
   fill="none"
   stroke="#3D3D3D"
   stroke-width="0.5"
   stroke-linecap="round"
   stroke-linejoin="round"
   stroke-miterlimit="10"
   x1="619.949"
   y1="1178.454"
   x2="619.949"
   y2="1148.005"
   id="line186" />
	
		<line
   fill="none"
   stroke="#3D3D3D"
   stroke-width="0.5"
   stroke-linecap="round"
   stroke-linejoin="round"
   stroke-miterlimit="10"
   x1="624.364"
   y1="1178.454"
   x2="624.364"
   y2="1146.935"
   id="line188" />
	
		<line
   fill="none"
   stroke="#3D3D3D"
   stroke-width="0.5"
   stroke-linecap="round"
   stroke-linejoin="round"
   stroke-miterlimit="10"
   x1="628.778"
   y1="1178.454"
   x2="628.778"
   y2="1145.854"
   id="line190" />
	
		<line
   fill="none"
   stroke="#3D3D3D"
   stroke-width="0.5"
   stroke-linecap="round"
   stroke-linejoin="round"
   stroke-miterlimit="10"
   x1="633.183"
   y1="1178.454"
   x2="633.183"
   y2="1144.784"
   id="line192" />
	
		<polygon
   fill="#323232"
   stroke="#1B1B1B"
   stroke-width="0.5"
   stroke-linecap="round"
   stroke-linejoin="round"
   stroke-miterlimit="10"
   points="   639.781,1146.454 634.871,1144.371 634.871,1234.954 639.781,1231.146  "
   id="polygon194" />
	
		<rect
   x="636.91"
   y="1193.588"
   fill="#9E9E9E"
   stroke="#1B1B1B"
   stroke-width="0.5"
   stroke-linecap="round"
   stroke-linejoin="round"
   stroke-miterlimit="10"
   width="11.031"
   height="26.233"
   id="rect196" />
	
		<polygon
   fill="#9E9E9E"
   stroke="#1B1B1B"
   stroke-width="0.5"
   stroke-linecap="round"
   stroke-linejoin="round"
   stroke-miterlimit="10"
   points="   647.942,1193.588 636.91,1193.588 638.66,1192.579 649.692,1192.579  "
   id="polygon198" />
	
		<line
   fill="none"
   stroke="#1B1B1B"
   stroke-width="0.5"
   stroke-linecap="round"
   stroke-linejoin="round"
   stroke-miterlimit="10"
   x1="642.427"
   y1="1193.588"
   x2="642.427"
   y2="1219.821"
   id="line200" />
	
		<line
   fill="none"
   stroke="#1B1B1B"
   stroke-width="0.5"
   stroke-linecap="round"
   stroke-linejoin="round"
   stroke-miterlimit="10"
   x1="636.91"
   y1="1206.704"
   x2="647.942"
   y2="1206.704"
   id="line202" />
	
		<linearGradient
   id="SVGID_9_"
   gradientUnits="userSpaceOnUse"
   x1="639.5413"
   y1="304.467"
   x2="660.1467"
   y2="304.467"
   gradientTransform="matrix(1 0 0 -1 8.3999 1490.0991)">
		<stop
   offset="0"
   style="stop-color:#5A5A5A"
   id="stop204" />
		<stop
   offset="0.1632"
   style="stop-color:#777777"
   id="stop206" />
		<stop
   offset="0.2611"
   style="stop-color:#838383"
   id="stop208" />
		<stop
   offset="0.2896"
   style="stop-color:#8D8D8D"
   id="stop210" />
		<stop
   offset="0.3592"
   style="stop-color:#A0A0A0"
   id="stop212" />
		<stop
   offset="0.431"
   style="stop-color:#ACACAC"
   id="stop214" />
		<stop
   offset="0.5074"
   style="stop-color:#AFAFAF"
   id="stop216" />
		<stop
   offset="0.5734"
   style="stop-color:#AAAAAA"
   id="stop218" />
		<stop
   offset="0.6522"
   style="stop-color:#9C9C9C"
   id="stop220" />
		<stop
   offset="0.7373"
   style="stop-color:#848484"
   id="stop222" />
		<stop
   offset="0.7389"
   style="stop-color:#838383"
   id="stop224" />
		<stop
   offset="1"
   style="stop-color:#525252"
   id="stop226" />
	</linearGradient>
	
		<path
   fill="url(#SVGID_9_)"
   stroke="#1B1B1B"
   stroke-width="0.5"
   stroke-linecap="round"
   stroke-linejoin="round"
   stroke-miterlimit="10"
   d="   M658.243,1134.966c-5.688,0-10.302,1.523-10.302,3.405v93.553c0,2.417,4.612,4.375,10.302,4.375c5.69,0,10.303-1.958,10.303-4.375   v-93.553C668.546,1136.489,663.934,1134.966,658.243,1134.966z"
   id="path229" />
</g>
</svg>
