<?xml version="1.0" encoding="UTF-8" standalone="no"?>
<svg
   xmlns:dc="http://purl.org/dc/elements/1.1/"
   xmlns:cc="http://creativecommons.org/ns#"
   xmlns:rdf="http://www.w3.org/1999/02/22-rdf-syntax-ns#"
   xmlns:svg="http://www.w3.org/2000/svg"
   xmlns="http://www.w3.org/2000/svg"
   xmlns:sodipodi="http://sodipodi.sourceforge.net/DTD/sodipodi-0.dtd"
   xmlns:inkscape="http://www.inkscape.org/namespaces/inkscape"
   version="1.1"
   id="图层_1"
   x="0px"
   y="0px"
   width="103.5px"
   height="98px"
   viewBox="561.358 1260.664 103.5 98"
   enable-background="new 561.358 1260.664 103.5 98"
   xml:space="preserve"
   sodipodi:docname="01-78.svg"><metadata
   id="metadata131"><rdf:RDF><cc:Work
       rdf:about=""><dc:format>image/svg+xml</dc:format><dc:type
         rdf:resource="http://purl.org/dc/dcmitype/StillImage" /></cc:Work></rdf:RDF></metadata><defs
   id="defs129" /><sodipodi:namedview
   pagecolor="#ffffff"
   bordercolor="#666666"
   borderopacity="1"
   objecttolerance="10"
   gridtolerance="10"
   guidetolerance="10"
   inkscape:pageopacity="0"
   inkscape:pageshadow="2"
   inkscape:window-width="640"
   inkscape:window-height="480"
   id="namedview127" />
<g
   id="g124">
	
		<rect
   x="565.358"
   y="1261.164"
   fill="#14AF59"
   stroke="#231815"
   stroke-width="0.5"
   stroke-miterlimit="10"
   width="60"
   height="90"
   id="rect2" />
	
		<rect
   x="567.358"
   y="1263.164"
   fill="#004C28"
   stroke="#231815"
   stroke-width="0.5"
   stroke-miterlimit="10"
   width="56"
   height="86"
   id="rect4" />
	<g
   id="g84">
		<path
   fill="#1F774A"
   d="M570.233,1334.359c-0.552,0-1,0.447-1,1v12.133c0,0.554,0.448,1,1,1s1-0.446,1-1v-12.133    C571.233,1334.807,570.784,1334.359,570.233,1334.359z"
   id="path6" />
		<path
   fill="#1F774A"
   d="M574.358,1334.359c-0.552,0-1,0.447-1,1v12.133c0,0.554,0.448,1,1,1s1-0.446,1-1v-12.133    C575.358,1334.807,574.909,1334.359,574.358,1334.359z"
   id="path8" />
		<path
   fill="#1F774A"
   d="M578.483,1334.359c-0.552,0-1,0.447-1,1v12.133c0,0.554,0.448,1,1,1s1-0.446,1-1v-12.133    C579.483,1334.807,579.034,1334.359,578.483,1334.359z"
   id="path10" />
		<path
   fill="#1F774A"
   d="M582.608,1334.359c-0.552,0-1,0.447-1,1v12.133c0,0.554,0.448,1,1,1s1-0.446,1-1v-12.133    C583.608,1334.807,583.159,1334.359,582.608,1334.359z"
   id="path12" />
		<path
   fill="#1F774A"
   d="M586.733,1334.359c-0.552,0-1,0.447-1,1v12.133c0,0.554,0.448,1,1,1s1-0.446,1-1v-12.133    C587.733,1334.807,587.284,1334.359,586.733,1334.359z"
   id="path14" />
		<path
   fill="#1F774A"
   d="M590.858,1334.359c-0.552,0-1,0.447-1,1v12.133c0,0.554,0.448,1,1,1s1-0.446,1-1v-12.133    C591.858,1334.807,591.409,1334.359,590.858,1334.359z"
   id="path16" />
		<path
   fill="#1F774A"
   d="M594.983,1334.359c-0.552,0-1,0.447-1,1v12.133c0,0.554,0.448,1,1,1s1-0.446,1-1v-12.133    C595.983,1334.807,595.534,1334.359,594.983,1334.359z"
   id="path18" />
		<path
   fill="#1F774A"
   d="M599.108,1334.359c-0.552,0-1,0.447-1,1v12.133c0,0.554,0.448,1,1,1s1-0.446,1-1v-12.133    C600.108,1334.807,599.659,1334.359,599.108,1334.359z"
   id="path20" />
		<path
   fill="#1F774A"
   d="M603.233,1334.359c-0.552,0-1,0.447-1,1v12.133c0,0.554,0.448,1,1,1s1-0.446,1-1v-12.133    C604.233,1334.807,603.784,1334.359,603.233,1334.359z"
   id="path22" />
		<path
   fill="#1F774A"
   d="M607.358,1334.359c-0.552,0-1,0.447-1,1v12.133c0,0.554,0.448,1,1,1s1-0.446,1-1v-12.133    C608.358,1334.807,607.909,1334.359,607.358,1334.359z"
   id="path24" />
		<path
   fill="#1F774A"
   d="M611.483,1334.359c-0.552,0-1,0.447-1,1v12.133c0,0.554,0.448,1,1,1s1-0.446,1-1v-12.133    C612.483,1334.807,612.034,1334.359,611.483,1334.359z"
   id="path26" />
		<path
   fill="#1F774A"
   d="M615.608,1334.359c-0.552,0-1,0.447-1,1v12.133c0,0.554,0.448,1,1,1s1-0.446,1-1v-12.133    C616.608,1334.807,616.159,1334.359,615.608,1334.359z"
   id="path28" />
		<path
   fill="#1F774A"
   d="M619.733,1334.359c-0.552,0-1,0.447-1,1v12.133c0,0.554,0.448,1,1,1s1-0.446,1-1v-12.133    C620.733,1334.807,620.284,1334.359,619.733,1334.359z"
   id="path30" />
		<path
   fill="#1F774A"
   d="M570.233,1290.098c-0.552,0-1,0.447-1,1v12.133c0,0.553,0.448,1,1,1s1-0.447,1-1v-12.133    C571.233,1290.546,570.784,1290.098,570.233,1290.098z"
   id="path32" />
		<path
   fill="#1F774A"
   d="M574.358,1290.098c-0.552,0-1,0.447-1,1v12.133c0,0.553,0.448,1,1,1s1-0.447,1-1v-12.133    C575.358,1290.546,574.909,1290.098,574.358,1290.098z"
   id="path34" />
		<path
   fill="#1F774A"
   d="M578.483,1290.098c-0.552,0-1,0.447-1,1v12.133c0,0.553,0.448,1,1,1s1-0.447,1-1v-12.133    C579.483,1290.546,579.034,1290.098,578.483,1290.098z"
   id="path36" />
		<path
   fill="#1F774A"
   d="M582.608,1290.098c-0.552,0-1,0.447-1,1v12.133c0,0.553,0.448,1,1,1s1-0.447,1-1v-12.133    C583.608,1290.546,583.159,1290.098,582.608,1290.098z"
   id="path38" />
		<path
   fill="#1F774A"
   d="M586.733,1290.098c-0.552,0-1,0.447-1,1v12.133c0,0.553,0.448,1,1,1s1-0.447,1-1v-12.133    C587.733,1290.546,587.284,1290.098,586.733,1290.098z"
   id="path40" />
		<path
   fill="#1F774A"
   d="M590.858,1290.098c-0.552,0-1,0.447-1,1v12.133c0,0.553,0.448,1,1,1s1-0.447,1-1v-12.133    C591.858,1290.546,591.409,1290.098,590.858,1290.098z"
   id="path42" />
		<path
   fill="#1F774A"
   d="M594.983,1290.098c-0.552,0-1,0.447-1,1v12.133c0,0.553,0.448,1,1,1s1-0.447,1-1v-12.133    C595.983,1290.546,595.534,1290.098,594.983,1290.098z"
   id="path44" />
		<path
   fill="#1F774A"
   d="M599.108,1290.098c-0.552,0-1,0.447-1,1v12.133c0,0.553,0.448,1,1,1s1-0.447,1-1v-12.133    C600.108,1290.546,599.659,1290.098,599.108,1290.098z"
   id="path46" />
		<path
   fill="#1F774A"
   d="M603.233,1290.098c-0.552,0-1,0.447-1,1v12.133c0,0.553,0.448,1,1,1s1-0.447,1-1v-12.133    C604.233,1290.546,603.784,1290.098,603.233,1290.098z"
   id="path48" />
		<path
   fill="#1F774A"
   d="M607.358,1290.098c-0.552,0-1,0.447-1,1v12.133c0,0.553,0.448,1,1,1s1-0.447,1-1v-12.133    C608.358,1290.546,607.909,1290.098,607.358,1290.098z"
   id="path50" />
		<path
   fill="#1F774A"
   d="M611.483,1290.098c-0.552,0-1,0.447-1,1v12.133c0,0.553,0.448,1,1,1s1-0.447,1-1v-12.133    C612.483,1290.546,612.034,1290.098,611.483,1290.098z"
   id="path52" />
		<path
   fill="#1F774A"
   d="M615.608,1290.098c-0.552,0-1,0.447-1,1v12.133c0,0.553,0.448,1,1,1s1-0.447,1-1v-12.133    C616.608,1290.546,616.159,1290.098,615.608,1290.098z"
   id="path54" />
		<path
   fill="#1F774A"
   d="M619.733,1290.098c-0.552,0-1,0.447-1,1v12.133c0,0.553,0.448,1,1,1s1-0.447,1-1v-12.133    C620.733,1290.546,620.284,1290.098,619.733,1290.098z"
   id="path56" />
		<path
   fill="#1F774A"
   d="M570.233,1273.514c-0.552,0-1,0.447-1,1v12.133c0,0.553,0.448,1,1,1s1-0.447,1-1v-12.133    C571.233,1273.962,570.784,1273.514,570.233,1273.514z"
   id="path58" />
		<path
   fill="#1F774A"
   d="M574.358,1273.514c-0.552,0-1,0.447-1,1v12.133c0,0.553,0.448,1,1,1s1-0.447,1-1v-12.133    C575.358,1273.962,574.909,1273.514,574.358,1273.514z"
   id="path60" />
		<path
   fill="#1F774A"
   d="M578.483,1273.514c-0.552,0-1,0.447-1,1v12.133c0,0.553,0.448,1,1,1s1-0.447,1-1v-12.133    C579.483,1273.962,579.034,1273.514,578.483,1273.514z"
   id="path62" />
		<path
   fill="#1F774A"
   d="M582.608,1273.514c-0.552,0-1,0.447-1,1v12.133c0,0.553,0.448,1,1,1s1-0.447,1-1v-12.133    C583.608,1273.962,583.159,1273.514,582.608,1273.514z"
   id="path64" />
		<path
   fill="#1F774A"
   d="M586.733,1273.514c-0.552,0-1,0.447-1,1v12.133c0,0.553,0.448,1,1,1s1-0.447,1-1v-12.133    C587.733,1273.962,587.284,1273.514,586.733,1273.514z"
   id="path66" />
		<path
   fill="#1F774A"
   d="M590.858,1273.514c-0.552,0-1,0.447-1,1v12.133c0,0.553,0.448,1,1,1s1-0.447,1-1v-12.133    C591.858,1273.962,591.409,1273.514,590.858,1273.514z"
   id="path68" />
		<path
   fill="#1F774A"
   d="M594.983,1273.514c-0.552,0-1,0.447-1,1v12.133c0,0.553,0.448,1,1,1s1-0.447,1-1v-12.133    C595.983,1273.962,595.534,1273.514,594.983,1273.514z"
   id="path70" />
		<path
   fill="#1F774A"
   d="M599.108,1273.514c-0.552,0-1,0.447-1,1v12.133c0,0.553,0.448,1,1,1s1-0.447,1-1v-12.133    C600.108,1273.962,599.659,1273.514,599.108,1273.514z"
   id="path72" />
		<path
   fill="#1F774A"
   d="M603.233,1273.514c-0.552,0-1,0.447-1,1v12.133c0,0.553,0.448,1,1,1s1-0.447,1-1v-12.133    C604.233,1273.962,603.784,1273.514,603.233,1273.514z"
   id="path74" />
		<path
   fill="#1F774A"
   d="M607.358,1273.514c-0.552,0-1,0.447-1,1v12.133c0,0.553,0.448,1,1,1s1-0.447,1-1v-12.133    C608.358,1273.962,607.909,1273.514,607.358,1273.514z"
   id="path76" />
		<path
   fill="#1F774A"
   d="M611.483,1273.514c-0.552,0-1,0.447-1,1v12.133c0,0.553,0.448,1,1,1s1-0.447,1-1v-12.133    C612.483,1273.962,612.034,1273.514,611.483,1273.514z"
   id="path78" />
		<path
   fill="#1F774A"
   d="M615.608,1273.514c-0.552,0-1,0.447-1,1v12.133c0,0.553,0.448,1,1,1s1-0.447,1-1v-12.133    C616.608,1273.962,616.159,1273.514,615.608,1273.514z"
   id="path80" />
		<path
   fill="#1F774A"
   d="M619.733,1273.514c-0.552,0-1,0.447-1,1v12.133c0,0.553,0.448,1,1,1s1-0.447,1-1v-12.133    C620.733,1273.962,620.284,1273.514,619.733,1273.514z"
   id="path82" />
	</g>
	<polygon
   fill="#98E5BF"
   stroke="#231815"
   stroke-miterlimit="10"
   points="565.358,1261.164 565.358,1309.668 583.558,1275.164    598.058,1275.164 606.456,1261.164  "
   id="polygon86" />
	<circle
   fill="#004C28"
   stroke="#231815"
   stroke-miterlimit="10"
   cx="590.858"
   cy="1268.164"
   r="2"
   id="circle88" />
	<polygon
   fill="#4C9973"
   points="615.608,1294.666 599.108,1320.498 599.108,1351.164 625.358,1351.164 625.358,1313.997    625.358,1309.668 625.358,1275.498 625.358,1261.164 622.338,1291.81  "
   id="polygon90" />
	<polygon
   fill="#98E5BF"
   points="600.308,1321.697 616.808,1295.864 623.536,1293.01 625.358,1274.53 625.358,1261.164    622.338,1291.81 615.608,1294.666 599.108,1320.498 599.108,1351.164 600.308,1351.164  "
   id="polygon92" />
	<rect
   x="565.358"
   y="1351.164"
   fill="#004C28"
   width="95.5"
   height="7.5"
   id="rect94" />
	
		<line
   fill="none"
   stroke="#231815"
   stroke-width="0.5"
   stroke-miterlimit="10"
   x1="561.358"
   y1="1351.164"
   x2="664.858"
   y2="1351.164"
   id="line96" />
	
		<line
   fill="none"
   stroke="#231815"
   stroke-width="0.5"
   stroke-miterlimit="10"
   x1="561.358"
   y1="1358.664"
   x2="664.858"
   y2="1358.664"
   id="line98" />
	
		<line
   fill="none"
   stroke="#231815"
   stroke-width="0.5"
   stroke-miterlimit="10"
   x1="603.233"
   y1="1323.332"
   x2="603.233"
   y2="1335.359"
   id="line100" />
	
		<rect
   x="625.358"
   y="1272.332"
   fill="#8EDBB5"
   stroke="#231815"
   stroke-width="0.5"
   stroke-miterlimit="10"
   width="10.667"
   height="17.767"
   id="rect102" />
	<polyline
   fill="#004C28"
   stroke="#231815"
   stroke-width="0.5"
   stroke-miterlimit="10"
   points="640.389,1298.425 637.628,1300.255    632.028,1304.234 625.358,1304.234 625.358,1321.994 632.028,1321.994 642.287,1321.994 642.287,1316.334 642.287,1299.295  "
   id="polyline104" />
	
		<rect
   x="625.358"
   y="1262.582"
   fill="#004C28"
   stroke="#231815"
   stroke-width="0.5"
   stroke-miterlimit="10"
   width="5.333"
   height="7.166"
   id="rect106" />
	<polygon
   fill="#8EDBB5"
   stroke="#231815"
   stroke-width="0.5"
   stroke-miterlimit="10"
   points="648.957,1316.332 637.625,1316.332    637.625,1297.164 648.957,1302.332  "
   id="polygon108" />
	<g
   id="g120">
		
			<rect
   x="625.358"
   y="1338.748"
   fill="#004C28"
   stroke="#231815"
   stroke-width="0.5"
   stroke-miterlimit="10"
   width="4.232"
   height="8.639"
   id="rect110" />
		
			<rect
   x="629.591"
   y="1337.748"
   fill="#8EDBB5"
   stroke="#231815"
   stroke-width="0.5"
   stroke-miterlimit="10"
   width="6.435"
   height="9.639"
   id="rect112" />
		
			<rect
   x="636.025"
   y="1337.748"
   fill="#8EDBB5"
   stroke="#231815"
   stroke-width="0.5"
   stroke-miterlimit="10"
   width="6.435"
   height="9.639"
   id="rect114" />
		
			<rect
   x="642.459"
   y="1337.748"
   fill="#8EDBB5"
   stroke="#231815"
   stroke-width="0.5"
   stroke-miterlimit="10"
   width="6.434"
   height="9.639"
   id="rect116" />
		
			<rect
   x="648.959"
   y="1339.178"
   fill="#8EDBB5"
   stroke="#231815"
   stroke-width="0.5"
   stroke-miterlimit="10"
   width="3.217"
   height="6.777"
   id="rect118" />
	</g>
	<polygon
   fill="#8EDBB5"
   stroke="#231815"
   stroke-width="0.5"
   stroke-miterlimit="10"
   points="635.691,1324.703 633.823,1324.703    633.823,1321.994 625.358,1321.994 625.358,1341.427 633.823,1341.427 633.823,1338.718 635.691,1338.718  "
   id="polygon122" />
</g>
</svg>
