<?xml version="1.0" encoding="UTF-8" standalone="no"?>
<svg
   xmlns:dc="http://purl.org/dc/elements/1.1/"
   xmlns:cc="http://creativecommons.org/ns#"
   xmlns:rdf="http://www.w3.org/1999/02/22-rdf-syntax-ns#"
   xmlns:svg="http://www.w3.org/2000/svg"
   xmlns="http://www.w3.org/2000/svg"
   xmlns:sodipodi="http://sodipodi.sourceforge.net/DTD/sodipodi-0.dtd"
   xmlns:inkscape="http://www.inkscape.org/namespaces/inkscape"
   version="1.1"
   id="图层_1"
   x="0px"
   y="0px"
   width="103.5px"
   height="98px"
   viewBox="30.587 1383.427 103.5 98"
   enable-background="new 30.587 1383.427 103.5 98"
   xml:space="preserve"
   sodipodi:docname="01-79.svg"><metadata
   id="metadata131"><rdf:RDF><cc:Work
       rdf:about=""><dc:format>image/svg+xml</dc:format><dc:type
         rdf:resource="http://purl.org/dc/dcmitype/StillImage" /></cc:Work></rdf:RDF></metadata><defs
   id="defs129" /><sodipodi:namedview
   pagecolor="#ffffff"
   bordercolor="#666666"
   borderopacity="1"
   objecttolerance="10"
   gridtolerance="10"
   guidetolerance="10"
   inkscape:pageopacity="0"
   inkscape:pageshadow="2"
   inkscape:window-width="640"
   inkscape:window-height="480"
   id="namedview127" />
<g
   id="g124">
	
		<rect
   x="34.587"
   y="1383.927"
   fill="#149EAF"
   stroke="#231815"
   stroke-width="0.5"
   stroke-miterlimit="10"
   width="60"
   height="90"
   id="rect2" />
	
		<rect
   x="36.587"
   y="1385.927"
   fill="#003E4C"
   stroke="#231815"
   stroke-width="0.5"
   stroke-miterlimit="10"
   width="56"
   height="86"
   id="rect4" />
	<g
   id="g84">
		<path
   fill="#1F6A77"
   d="M39.462,1457.121c-0.552,0-1,0.447-1,1v12.134c0,0.553,0.448,1,1,1s1-0.447,1-1v-12.134    C40.462,1457.568,40.015,1457.121,39.462,1457.121z"
   id="path6" />
		<path
   fill="#1F6A77"
   d="M43.587,1457.121c-0.552,0-1,0.447-1,1v12.134c0,0.553,0.448,1,1,1s1-0.447,1-1v-12.134    C44.587,1457.568,44.14,1457.121,43.587,1457.121z"
   id="path8" />
		<path
   fill="#1F6A77"
   d="M47.712,1457.121c-0.552,0-1,0.447-1,1v12.134c0,0.553,0.448,1,1,1s1-0.447,1-1v-12.134    C48.712,1457.568,48.265,1457.121,47.712,1457.121z"
   id="path10" />
		<path
   fill="#1F6A77"
   d="M51.837,1457.121c-0.552,0-1,0.447-1,1v12.134c0,0.553,0.448,1,1,1s1-0.447,1-1v-12.134    C52.837,1457.568,52.39,1457.121,51.837,1457.121z"
   id="path12" />
		<path
   fill="#1F6A77"
   d="M55.962,1457.121c-0.552,0-1,0.447-1,1v12.134c0,0.553,0.448,1,1,1s1-0.447,1-1v-12.134    C56.962,1457.568,56.515,1457.121,55.962,1457.121z"
   id="path14" />
		<path
   fill="#1F6A77"
   d="M60.087,1457.121c-0.552,0-1,0.447-1,1v12.134c0,0.553,0.448,1,1,1s1-0.447,1-1v-12.134    C61.087,1457.568,60.64,1457.121,60.087,1457.121z"
   id="path16" />
		<path
   fill="#1F6A77"
   d="M64.212,1457.121c-0.552,0-1,0.447-1,1v12.134c0,0.553,0.448,1,1,1s1-0.447,1-1v-12.134    C65.212,1457.568,64.765,1457.121,64.212,1457.121z"
   id="path18" />
		<path
   fill="#1F6A77"
   d="M68.337,1457.121c-0.552,0-1,0.447-1,1v12.134c0,0.553,0.448,1,1,1s1-0.447,1-1v-12.134    C69.337,1457.568,68.89,1457.121,68.337,1457.121z"
   id="path20" />
		<path
   fill="#1F6A77"
   d="M72.462,1457.121c-0.552,0-1,0.447-1,1v12.134c0,0.553,0.448,1,1,1s1-0.447,1-1v-12.134    C73.462,1457.568,73.015,1457.121,72.462,1457.121z"
   id="path22" />
		<path
   fill="#1F6A77"
   d="M76.587,1457.121c-0.552,0-1,0.447-1,1v12.134c0,0.553,0.448,1,1,1s1-0.447,1-1v-12.134    C77.587,1457.568,77.14,1457.121,76.587,1457.121z"
   id="path24" />
		<path
   fill="#1F6A77"
   d="M80.712,1457.121c-0.552,0-1,0.447-1,1v12.134c0,0.553,0.448,1,1,1s1-0.447,1-1v-12.134    C81.712,1457.568,81.265,1457.121,80.712,1457.121z"
   id="path26" />
		<path
   fill="#1F6A77"
   d="M84.837,1457.121c-0.552,0-1,0.447-1,1v12.134c0,0.553,0.448,1,1,1s1-0.447,1-1v-12.134    C85.837,1457.568,85.39,1457.121,84.837,1457.121z"
   id="path28" />
		<path
   fill="#1F6A77"
   d="M88.962,1457.121c-0.552,0-1,0.447-1,1v12.134c0,0.553,0.448,1,1,1c0.553,0,1-0.447,1-1v-12.134    C89.962,1457.568,89.515,1457.121,88.962,1457.121z"
   id="path30" />
		<path
   fill="#1F6A77"
   d="M39.462,1412.859c-0.552,0-1,0.447-1,1v12.133c0,0.554,0.448,1,1,1s1-0.446,1-1v-12.133    C40.462,1413.307,40.015,1412.859,39.462,1412.859z"
   id="path32" />
		<path
   fill="#1F6A77"
   d="M43.587,1412.859c-0.552,0-1,0.447-1,1v12.133c0,0.554,0.448,1,1,1s1-0.446,1-1v-12.133    C44.587,1413.307,44.14,1412.859,43.587,1412.859z"
   id="path34" />
		<path
   fill="#1F6A77"
   d="M47.712,1412.859c-0.552,0-1,0.447-1,1v12.133c0,0.554,0.448,1,1,1s1-0.446,1-1v-12.133    C48.712,1413.307,48.265,1412.859,47.712,1412.859z"
   id="path36" />
		<path
   fill="#1F6A77"
   d="M51.837,1412.859c-0.552,0-1,0.447-1,1v12.133c0,0.554,0.448,1,1,1s1-0.446,1-1v-12.133    C52.837,1413.307,52.39,1412.859,51.837,1412.859z"
   id="path38" />
		<path
   fill="#1F6A77"
   d="M55.962,1412.859c-0.552,0-1,0.447-1,1v12.133c0,0.554,0.448,1,1,1s1-0.446,1-1v-12.133    C56.962,1413.307,56.515,1412.859,55.962,1412.859z"
   id="path40" />
		<path
   fill="#1F6A77"
   d="M60.087,1412.859c-0.552,0-1,0.447-1,1v12.133c0,0.554,0.448,1,1,1s1-0.446,1-1v-12.133    C61.087,1413.307,60.64,1412.859,60.087,1412.859z"
   id="path42" />
		<path
   fill="#1F6A77"
   d="M64.212,1412.859c-0.552,0-1,0.447-1,1v12.133c0,0.554,0.448,1,1,1s1-0.446,1-1v-12.133    C65.212,1413.307,64.765,1412.859,64.212,1412.859z"
   id="path44" />
		<path
   fill="#1F6A77"
   d="M68.337,1412.859c-0.552,0-1,0.447-1,1v12.133c0,0.554,0.448,1,1,1s1-0.446,1-1v-12.133    C69.337,1413.307,68.89,1412.859,68.337,1412.859z"
   id="path46" />
		<path
   fill="#1F6A77"
   d="M72.462,1412.859c-0.552,0-1,0.447-1,1v12.133c0,0.554,0.448,1,1,1s1-0.446,1-1v-12.133    C73.462,1413.307,73.015,1412.859,72.462,1412.859z"
   id="path48" />
		<path
   fill="#1F6A77"
   d="M76.587,1412.859c-0.552,0-1,0.447-1,1v12.133c0,0.554,0.448,1,1,1s1-0.446,1-1v-12.133    C77.587,1413.307,77.14,1412.859,76.587,1412.859z"
   id="path50" />
		<path
   fill="#1F6A77"
   d="M80.712,1412.859c-0.552,0-1,0.447-1,1v12.133c0,0.554,0.448,1,1,1s1-0.446,1-1v-12.133    C81.712,1413.307,81.265,1412.859,80.712,1412.859z"
   id="path52" />
		<path
   fill="#1F6A77"
   d="M84.837,1412.859c-0.552,0-1,0.447-1,1v12.133c0,0.554,0.448,1,1,1s1-0.446,1-1v-12.133    C85.837,1413.307,85.39,1412.859,84.837,1412.859z"
   id="path54" />
		<path
   fill="#1F6A77"
   d="M88.962,1412.859c-0.552,0-1,0.447-1,1v12.133c0,0.554,0.448,1,1,1c0.553,0,1-0.446,1-1v-12.133    C89.962,1413.307,89.515,1412.859,88.962,1412.859z"
   id="path56" />
		<path
   fill="#1F6A77"
   d="M39.462,1396.275c-0.552,0-1,0.447-1,1v12.133c0,0.554,0.448,1,1,1s1-0.446,1-1v-12.133    C40.462,1396.723,40.015,1396.275,39.462,1396.275z"
   id="path58" />
		<path
   fill="#1F6A77"
   d="M43.587,1396.275c-0.552,0-1,0.447-1,1v12.133c0,0.554,0.448,1,1,1s1-0.446,1-1v-12.133    C44.587,1396.723,44.14,1396.275,43.587,1396.275z"
   id="path60" />
		<path
   fill="#1F6A77"
   d="M47.712,1396.275c-0.552,0-1,0.447-1,1v12.133c0,0.554,0.448,1,1,1s1-0.446,1-1v-12.133    C48.712,1396.723,48.265,1396.275,47.712,1396.275z"
   id="path62" />
		<path
   fill="#1F6A77"
   d="M51.837,1396.275c-0.552,0-1,0.447-1,1v12.133c0,0.554,0.448,1,1,1s1-0.446,1-1v-12.133    C52.837,1396.723,52.39,1396.275,51.837,1396.275z"
   id="path64" />
		<path
   fill="#1F6A77"
   d="M55.962,1396.275c-0.552,0-1,0.447-1,1v12.133c0,0.554,0.448,1,1,1s1-0.446,1-1v-12.133    C56.962,1396.723,56.515,1396.275,55.962,1396.275z"
   id="path66" />
		<path
   fill="#1F6A77"
   d="M60.087,1396.275c-0.552,0-1,0.447-1,1v12.133c0,0.554,0.448,1,1,1s1-0.446,1-1v-12.133    C61.087,1396.723,60.64,1396.275,60.087,1396.275z"
   id="path68" />
		<path
   fill="#1F6A77"
   d="M64.212,1396.275c-0.552,0-1,0.447-1,1v12.133c0,0.554,0.448,1,1,1s1-0.446,1-1v-12.133    C65.212,1396.723,64.765,1396.275,64.212,1396.275z"
   id="path70" />
		<path
   fill="#1F6A77"
   d="M68.337,1396.275c-0.552,0-1,0.447-1,1v12.133c0,0.554,0.448,1,1,1s1-0.446,1-1v-12.133    C69.337,1396.723,68.89,1396.275,68.337,1396.275z"
   id="path72" />
		<path
   fill="#1F6A77"
   d="M72.462,1396.275c-0.552,0-1,0.447-1,1v12.133c0,0.554,0.448,1,1,1s1-0.446,1-1v-12.133    C73.462,1396.723,73.015,1396.275,72.462,1396.275z"
   id="path74" />
		<path
   fill="#1F6A77"
   d="M76.587,1396.275c-0.552,0-1,0.447-1,1v12.133c0,0.554,0.448,1,1,1s1-0.446,1-1v-12.133    C77.587,1396.723,77.14,1396.275,76.587,1396.275z"
   id="path76" />
		<path
   fill="#1F6A77"
   d="M80.712,1396.275c-0.552,0-1,0.447-1,1v12.133c0,0.554,0.448,1,1,1s1-0.446,1-1v-12.133    C81.712,1396.723,81.265,1396.275,80.712,1396.275z"
   id="path78" />
		<path
   fill="#1F6A77"
   d="M84.837,1396.275c-0.552,0-1,0.447-1,1v12.133c0,0.554,0.448,1,1,1s1-0.446,1-1v-12.133    C85.837,1396.723,85.39,1396.275,84.837,1396.275z"
   id="path80" />
		<path
   fill="#1F6A77"
   d="M88.962,1396.275c-0.552,0-1,0.447-1,1v12.133c0,0.554,0.448,1,1,1c0.553,0,1-0.446,1-1v-12.133    C89.962,1396.723,89.515,1396.275,88.962,1396.275z"
   id="path82" />
	</g>
	<polygon
   fill="#98D7E5"
   stroke="#231815"
   stroke-miterlimit="10"
   points="34.587,1383.927 34.587,1432.43 52.787,1397.927    67.287,1397.927 75.687,1383.927  "
   id="polygon86" />
	<circle
   fill="#003E4C"
   stroke="#231815"
   stroke-miterlimit="10"
   cx="60.087"
   cy="1390.927"
   r="2"
   id="circle88" />
	<polygon
   fill="#4C8B99"
   points="84.837,1417.427 68.337,1443.26 68.337,1473.927 94.587,1473.927 94.587,1436.76 94.587,1432.43    94.587,1398.26 94.587,1383.927 91.567,1414.571  "
   id="polygon90" />
	<polygon
   fill="#98D7E5"
   points="69.537,1444.459 86.036,1418.627 92.767,1415.771 94.587,1397.293 94.587,1383.927    91.567,1414.571 84.837,1417.427 68.337,1443.26 68.337,1473.927 69.537,1473.927  "
   id="polygon92" />
	<rect
   x="34.587"
   y="1473.927"
   fill="#003E4C"
   width="95.5"
   height="7.5"
   id="rect94" />
	
		<line
   fill="none"
   stroke="#231815"
   stroke-width="0.5"
   stroke-miterlimit="10"
   x1="30.587"
   y1="1473.927"
   x2="134.087"
   y2="1473.927"
   id="line96" />
	
		<line
   fill="none"
   stroke="#231815"
   stroke-width="0.5"
   stroke-miterlimit="10"
   x1="30.587"
   y1="1481.427"
   x2="134.087"
   y2="1481.427"
   id="line98" />
	
		<line
   fill="none"
   stroke="#231815"
   stroke-width="0.5"
   stroke-miterlimit="10"
   x1="72.462"
   y1="1446.094"
   x2="72.462"
   y2="1458.121"
   id="line100" />
	
		<rect
   x="94.587"
   y="1395.094"
   fill="#8ECDDB"
   stroke="#231815"
   stroke-width="0.5"
   stroke-miterlimit="10"
   width="10.667"
   height="17.767"
   id="rect102" />
	<polyline
   fill="#003E4C"
   stroke="#231815"
   stroke-width="0.5"
   stroke-miterlimit="10"
   points="109.617,1421.186 106.856,1423.016    101.257,1426.996 94.587,1426.996 94.587,1444.757 101.257,1444.757 111.517,1444.757 111.517,1439.096 111.517,1422.056  "
   id="polyline104" />
	
		<rect
   x="94.587"
   y="1385.344"
   fill="#003E4C"
   stroke="#231815"
   stroke-width="0.5"
   stroke-miterlimit="10"
   width="5.334"
   height="7.165"
   id="rect106" />
	<polygon
   fill="#8ECDDB"
   stroke="#231815"
   stroke-width="0.5"
   stroke-miterlimit="10"
   points="118.187,1439.094 106.854,1439.094    106.854,1419.927 118.187,1425.094  "
   id="polygon108" />
	<g
   id="g120">
		
			<rect
   x="94.587"
   y="1461.51"
   fill="#003E4C"
   stroke="#231815"
   stroke-width="0.5"
   stroke-miterlimit="10"
   width="4.231"
   height="8.638"
   id="rect110" />
		
			<rect
   x="98.819"
   y="1460.51"
   fill="#8ECDDB"
   stroke="#231815"
   stroke-width="0.5"
   stroke-miterlimit="10"
   width="6.436"
   height="9.638"
   id="rect112" />
		
			<rect
   x="105.254"
   y="1460.51"
   fill="#8ECDDB"
   stroke="#231815"
   stroke-width="0.5"
   stroke-miterlimit="10"
   width="6.435"
   height="9.638"
   id="rect114" />
		
			<rect
   x="111.688"
   y="1460.51"
   fill="#8ECDDB"
   stroke="#231815"
   stroke-width="0.5"
   stroke-miterlimit="10"
   width="6.435"
   height="9.638"
   id="rect116" />
		
			<rect
   x="118.188"
   y="1461.939"
   fill="#8ECDDB"
   stroke="#231815"
   stroke-width="0.5"
   stroke-miterlimit="10"
   width="3.218"
   height="6.778"
   id="rect118" />
	</g>
	<polygon
   fill="#8ECDDB"
   stroke="#231815"
   stroke-width="0.5"
   stroke-miterlimit="10"
   points="104.921,1447.466 103.052,1447.466    103.052,1444.757 94.587,1444.757 94.587,1464.188 103.052,1464.188 103.052,1461.479 104.921,1461.479  "
   id="polygon122" />
</g>
</svg>
