<?xml version="1.0" encoding="UTF-8" standalone="no"?>
<svg
   xmlns:a="http://ns.adobe.com/AdobeSVGViewerExtensions/3.0/"
   xmlns:dc="http://purl.org/dc/elements/1.1/"
   xmlns:cc="http://creativecommons.org/ns#"
   xmlns:rdf="http://www.w3.org/1999/02/22-rdf-syntax-ns#"
   xmlns:svg="http://www.w3.org/2000/svg"
   xmlns="http://www.w3.org/2000/svg"
   xmlns:sodipodi="http://sodipodi.sourceforge.net/DTD/sodipodi-0.dtd"
   xmlns:inkscape="http://www.inkscape.org/namespaces/inkscape"
   version="1.1"
   id="图层_1"
   x="0px"
   y="0px"
   width="61px"
   height="86px"
   viewBox="0 0 61 86"
   enable-background="new 0 0 61 86"
   xml:space="preserve"
   sodipodi:docname="罐体_01-01.svg"><metadata
   id="metadata52"><rdf:RDF><cc:Work
       rdf:about=""><dc:format>image/svg+xml</dc:format><dc:type
         rdf:resource="http://purl.org/dc/dcmitype/StillImage" /></cc:Work></rdf:RDF></metadata><defs
   id="defs50" /><sodipodi:namedview
   pagecolor="#ffffff"
   bordercolor="#666666"
   borderopacity="1"
   objecttolerance="10"
   gridtolerance="10"
   guidetolerance="10"
   inkscape:pageopacity="0"
   inkscape:pageshadow="2"
   inkscape:window-width="640"
   inkscape:window-height="480"
   id="namedview48" />
<g
   id="g45">
	<g
   id="g13">
		<linearGradient
   id="SVGID_1_"
   gradientUnits="userSpaceOnUse"
   x1="0.5"
   y1="36.1157"
   x2="60.5"
   y2="36.1157">
			<stop
   offset="0"
   style="stop-color:#666666"
   id="stop2" />
			<stop
   offset="0.5054"
   style="stop-color:#FFFFFF"
   id="stop4" />
			<stop
   offset="1"
   style="stop-color:#666666"
   id="stop6" />
			<a:midPointStop
   offset="0"
   style="stop-color:#666666" />
			<a:midPointStop
   offset="0.5"
   style="stop-color:#666666" />
			<a:midPointStop
   offset="0.5054"
   style="stop-color:#FFFFFF" />
			<a:midPointStop
   offset="0.5"
   style="stop-color:#FFFFFF" />
			<a:midPointStop
   offset="1"
   style="stop-color:#666666" />
		</linearGradient>
		<path
   fill="url(#SVGID_1_)"
   d="M30.5,0.5c-16.568,0-30,2.247-30,7.426v53.816l16.011,9.989h27.979L60.5,61.742V7.926    C60.5,2.747,47.068,0.5,30.5,0.5z"
   id="path9" />
		<path
   fill="#231F20"
   d="M44.632,72.231H16.368L0,62.02V7.926C0,0.772,21.329,0,30.5,0S61,0.772,61,7.926V62.02L44.632,72.231z     M16.654,71.231h27.691L60,61.465V7.926C60,3.653,48.696,1,30.5,1S1,3.653,1,7.926v53.539L16.654,71.231z"
   id="path11" />
	</g>
	<g
   id="g43">
		<linearGradient
   id="SVGID_2_"
   gradientUnits="userSpaceOnUse"
   x1="16.5107"
   y1="69.7705"
   x2="44.1279"
   y2="69.7705">
			<stop
   offset="0"
   style="stop-color:#666666"
   id="stop15" />
			<stop
   offset="0.5054"
   style="stop-color:#FFFFFF"
   id="stop17" />
			<stop
   offset="1"
   style="stop-color:#666666"
   id="stop19" />
			<a:midPointStop
   offset="0"
   style="stop-color:#666666" />
			<a:midPointStop
   offset="0.5"
   style="stop-color:#666666" />
			<a:midPointStop
   offset="0.5054"
   style="stop-color:#FFFFFF" />
			<a:midPointStop
   offset="0.5"
   style="stop-color:#FFFFFF" />
			<a:midPointStop
   offset="1"
   style="stop-color:#666666" />
		</linearGradient>
		<path
   fill="url(#SVGID_2_)"
   d="M44.128,71.732c0-2.266-6.182-3.924-13.809-3.924c-7.625,0-13.809,1.658-13.809,3.924"
   id="path22" />
		<g
   id="g35">
			<linearGradient
   id="SVGID_3_"
   gradientUnits="userSpaceOnUse"
   x1="16.5107"
   y1="76.5654"
   x2="44.1279"
   y2="76.5654">
				<stop
   offset="0"
   style="stop-color:#666666"
   id="stop24" />
				<stop
   offset="0.5054"
   style="stop-color:#FFFFFF"
   id="stop26" />
				<stop
   offset="1"
   style="stop-color:#666666"
   id="stop28" />
				<a:midPointStop
   offset="0"
   style="stop-color:#666666" />
				<a:midPointStop
   offset="0.5"
   style="stop-color:#666666" />
				<a:midPointStop
   offset="0.5054"
   style="stop-color:#FFFFFF" />
				<a:midPointStop
   offset="0.5"
   style="stop-color:#FFFFFF" />
				<a:midPointStop
   offset="1"
   style="stop-color:#666666" />
			</linearGradient>
			<path
   fill="url(#SVGID_3_)"
   d="M16.511,71.732v9.666h27.617v-9.666"
   id="path31" />
			<polygon
   fill="#231F20"
   points="44.628,81.898 16.011,81.898 16.011,71.732 17.011,71.732 17.011,80.898 43.628,80.898      43.628,71.732 44.628,71.732    "
   id="polygon33" />
		</g>
		<g
   id="g41">
			<ellipse
   fill="#F2F2F2"
   cx="30.319"
   cy="82.271"
   rx="13.809"
   ry="3.229"
   id="ellipse37" />
			<path
   fill="#231F20"
   d="M30.319,86c-7.109,0-14.309-1.281-14.309-3.729s7.199-3.729,14.309-3.729     c7.111,0,14.309,1.281,14.309,3.729S37.431,86,30.319,86z M30.319,79.543c-8.123,0-13.309,1.615-13.309,2.729     c0,1.111,5.186,2.729,13.309,2.729c8.125,0,13.309-1.617,13.309-2.729C43.628,81.158,38.444,79.543,30.319,79.543z"
   id="path39" />
		</g>
	</g>
</g>
</svg>
