<?xml version="1.0" encoding="UTF-8" standalone="no"?>
<svg
   xmlns:dc="http://purl.org/dc/elements/1.1/"
   xmlns:cc="http://creativecommons.org/ns#"
   xmlns:rdf="http://www.w3.org/1999/02/22-rdf-syntax-ns#"
   xmlns:svg="http://www.w3.org/2000/svg"
   xmlns="http://www.w3.org/2000/svg"
   xmlns:sodipodi="http://sodipodi.sourceforge.net/DTD/sodipodi-0.dtd"
   xmlns:inkscape="http://www.inkscape.org/namespaces/inkscape"
   version="1.1"
   id="图层_1"
   x="0px"
   y="0px"
   width="62px"
   height="86px"
   viewBox="0 0 62 86"
   enable-background="new 0 0 62 86"
   xml:space="preserve"
   sodipodi:docname="罐体_12-01.svg"><metadata
   id="metadata27"><rdf:RDF><cc:Work
       rdf:about=""><dc:format>image/svg+xml</dc:format><dc:type
         rdf:resource="http://purl.org/dc/dcmitype/StillImage" /></cc:Work></rdf:RDF></metadata><defs
   id="defs25" /><sodipodi:namedview
   pagecolor="#ffffff"
   bordercolor="#666666"
   borderopacity="1"
   objecttolerance="10"
   gridtolerance="10"
   guidetolerance="10"
   inkscape:pageopacity="0"
   inkscape:pageshadow="2"
   inkscape:window-width="640"
   inkscape:window-height="480"
   id="namedview23" />
<g
   id="g20">
	<g
   id="g6">
		<rect
   x="1.19"
   y="24.575"
   fill="#00FFFF"
   width="59.619"
   height="51.303"
   id="rect2" />
		<path
   d="M61.307,76.378H0.693V24.075h60.613V76.378z M1.688,75.378h58.625V25.075H1.688V75.378z"
   id="path4" />
	</g>
	<g
   id="g12">
		<polygon
   fill="#00FFFF"
   points="24.857,0.5 37.143,0.5 60.81,24.575 1.19,24.575   "
   id="polygon8" />
		<path
   d="M62,25.075H0L24.65,0H37.35L62,25.075z M2.381,24.075h57.238L36.935,1H25.065L2.381,24.075z"
   id="path10" />
	</g>
	<g
   id="g18">
		<ellipse
   fill="#00FFFF"
   cx="31"
   cy="75.878"
   rx="29.81"
   ry="9.623"
   id="ellipse14" />
		<path
   d="M31,86C14.006,86,0.693,81.555,0.693,75.878S14.006,65.755,31,65.755s30.307,4.446,30.307,10.123S47.994,86,31,86z     M31,66.755c-15.889,0-29.313,4.178-29.313,9.123C1.688,80.822,15.111,85,31,85s29.313-4.178,29.313-9.122    C60.313,70.933,46.889,66.755,31,66.755z"
   id="path16" />
	</g>
</g>
</svg>
