<?xml version="1.0" encoding="UTF-8" standalone="no"?>
<svg
   xmlns:dc="http://purl.org/dc/elements/1.1/"
   xmlns:cc="http://creativecommons.org/ns#"
   xmlns:rdf="http://www.w3.org/1999/02/22-rdf-syntax-ns#"
   xmlns:svg="http://www.w3.org/2000/svg"
   xmlns="http://www.w3.org/2000/svg"
   xmlns:sodipodi="http://sodipodi.sourceforge.net/DTD/sodipodi-0.dtd"
   xmlns:inkscape="http://www.inkscape.org/namespaces/inkscape"
   version="1.1"
   id="图层_1"
   x="0px"
   y="0px"
   width="62px"
   height="86px"
   viewBox="0 0 62 86"
   enable-background="new 0 0 62 86"
   xml:space="preserve"
   sodipodi:docname="罐体_13-01.svg"><metadata
   id="metadata27"><rdf:RDF><cc:Work
       rdf:about=""><dc:format>image/svg+xml</dc:format><dc:type
         rdf:resource="http://purl.org/dc/dcmitype/StillImage" /></cc:Work></rdf:RDF></metadata><defs
   id="defs25" /><sodipodi:namedview
   pagecolor="#ffffff"
   bordercolor="#666666"
   borderopacity="1"
   objecttolerance="10"
   gridtolerance="10"
   guidetolerance="10"
   inkscape:pageopacity="0"
   inkscape:pageshadow="2"
   inkscape:window-width="640"
   inkscape:window-height="480"
   id="namedview23" />
<g
   id="g20">
	<g
   id="g6">
		<ellipse
   fill="#00FFFF"
   cx="31"
   cy="75.878"
   rx="30"
   ry="9.623"
   id="ellipse2" />
		<path
   d="M31,86C13.897,86,0.5,81.555,0.5,75.878S13.897,65.755,31,65.755s30.5,4.446,30.5,10.123S48.103,86,31,86z M31,66.755    c-15.99,0-29.5,4.178-29.5,9.123C1.5,80.822,15.01,85,31,85s29.5-4.178,29.5-9.122C60.5,70.933,46.99,66.755,31,66.755z"
   id="path4" />
	</g>
	<g
   id="g12">
		<rect
   x="1"
   y="24.575"
   fill="#00FFFF"
   width="60"
   height="51.303"
   id="rect8" />
		<path
   d="M61.5,76.378h-61V24.075h61V76.378z M1.5,75.378h59V25.075h-59V75.378z"
   id="path10" />
	</g>
	<g
   id="g18">
		<polygon
   fill="#00FFFF"
   points="17.012,0.5 44.988,0.5 61,24.575 1,24.575   "
   id="polygon14" />
		<path
   d="M61.933,25.075H0.067L16.744,0h28.512L61.933,25.075z M1.933,24.075h58.135L44.721,1H17.279L1.933,24.075z"
   id="path16" />
	</g>
</g>
</svg>
