<?xml version="1.0" encoding="UTF-8" standalone="no"?>
<svg
   xmlns:a="http://ns.adobe.com/AdobeSVGViewerExtensions/3.0/"
   xmlns:dc="http://purl.org/dc/elements/1.1/"
   xmlns:cc="http://creativecommons.org/ns#"
   xmlns:rdf="http://www.w3.org/1999/02/22-rdf-syntax-ns#"
   xmlns:svg="http://www.w3.org/2000/svg"
   xmlns="http://www.w3.org/2000/svg"
   xmlns:sodipodi="http://sodipodi.sourceforge.net/DTD/sodipodi-0.dtd"
   xmlns:inkscape="http://www.inkscape.org/namespaces/inkscape"
   version="1.1"
   id="图层_1"
   x="0px"
   y="0px"
   width="86px"
   height="56px"
   viewBox="0 0 86 56"
   enable-background="new 0 0 86 56"
   xml:space="preserve"
   sodipodi:docname="罐体_14-01.svg"><metadata
   id="metadata90"><rdf:RDF><cc:Work
       rdf:about=""><dc:format>image/svg+xml</dc:format><dc:type
         rdf:resource="http://purl.org/dc/dcmitype/StillImage" /></cc:Work></rdf:RDF></metadata><defs
   id="defs88" /><sodipodi:namedview
   pagecolor="#ffffff"
   bordercolor="#666666"
   borderopacity="1"
   objecttolerance="10"
   gridtolerance="10"
   guidetolerance="10"
   inkscape:pageopacity="0"
   inkscape:pageshadow="2"
   inkscape:window-width="640"
   inkscape:window-height="480"
   id="namedview86" />
<g
   id="g83">
	<g
   id="g13">
		<linearGradient
   id="SVGID_1_"
   gradientUnits="userSpaceOnUse"
   x1="0.6025"
   y1="17.5605"
   x2="85.3965"
   y2="17.5605">
			<stop
   offset="0"
   style="stop-color:#666666"
   id="stop2" />
			<stop
   offset="0.5054"
   style="stop-color:#FFFFFF"
   id="stop4" />
			<stop
   offset="1"
   style="stop-color:#666666"
   id="stop6" />
			<a:midPointStop
   offset="0"
   style="stop-color:#666666" />
			<a:midPointStop
   offset="0.5"
   style="stop-color:#666666" />
			<a:midPointStop
   offset="0.5054"
   style="stop-color:#FFFFFF" />
			<a:midPointStop
   offset="0.5"
   style="stop-color:#FFFFFF" />
			<a:midPointStop
   offset="1"
   style="stop-color:#666666" />
		</linearGradient>
		<path
   fill="url(#SVGID_1_)"
   d="M85.396,23.75c0,0-1.921,5.981-42.355,5.981c-40.562,0-42.438-5.981-42.438-5.981L36.155,5.391    h13.771L85.396,23.75z"
   id="path9" />
		<path
   fill="#231F20"
   d="M43.041,30.23c-39.778,0-42.711-5.683-42.915-6.331L0,23.498L36.034,4.891h14.013L86,23.5l-0.13,0.403    C85.663,24.55,82.694,30.23,43.041,30.23z M1.363,23.919c1.319,1.193,8.294,5.312,41.678,5.312c33.44,0,40.314-4.104,41.604-5.307    L49.805,5.891H36.276L1.363,23.919z"
   id="path11" />
	</g>
	<g
   id="g26">
		<linearGradient
   id="SVGID_2_"
   gradientUnits="userSpaceOnUse"
   x1="0.6025"
   y1="39.625"
   x2="85.3965"
   y2="39.625">
			<stop
   offset="0"
   style="stop-color:#666666"
   id="stop15" />
			<stop
   offset="0.5054"
   style="stop-color:#FFFFFF"
   id="stop17" />
			<stop
   offset="1"
   style="stop-color:#666666"
   id="stop19" />
			<a:midPointStop
   offset="0"
   style="stop-color:#666666" />
			<a:midPointStop
   offset="0.5"
   style="stop-color:#666666" />
			<a:midPointStop
   offset="0.5054"
   style="stop-color:#FFFFFF" />
			<a:midPointStop
   offset="0.5"
   style="stop-color:#FFFFFF" />
			<a:midPointStop
   offset="1"
   style="stop-color:#666666" />
		</linearGradient>
		<path
   fill="url(#SVGID_2_)"
   d="M85.396,23.75c0,0-31.767,1.397-42.355,1.397c-10.61,0-42.438-1.397-42.438-1.397v27.58l0,0l0,0    C0.603,53.302,19.584,55.5,43,55.5c23.414,0,42.396-2.198,42.396-4.171l0,0l0,0V23.75z"
   id="path22" />
		<path
   fill="#231F20"
   d="M43,56c-17.3,0-42.896-1.484-42.896-4.671V23.227l0.521,0.023c0.318,0.014,31.938,1.397,42.417,1.397    c10.457,0,42.015-1.383,42.333-1.397l0.521-0.023v28.102C85.895,54.516,60.299,56,43,56z M1.101,24.271v27.058    C1.963,52.749,19.126,55,43,55c23.872,0,41.035-2.251,41.912-3.739l-0.014-26.989c-4.172,0.181-32.122,1.375-41.857,1.375    C33.285,25.647,5.277,24.452,1.101,24.271z"
   id="path24" />
	</g>
	<g
   id="g39">
		<linearGradient
   id="SVGID_3_"
   gradientUnits="userSpaceOnUse"
   x1="36.1553"
   y1="2.9453"
   x2="49.8633"
   y2="2.9453">
			<stop
   offset="0"
   style="stop-color:#666666"
   id="stop28" />
			<stop
   offset="0.5054"
   style="stop-color:#FFFFFF"
   id="stop30" />
			<stop
   offset="1"
   style="stop-color:#666666"
   id="stop32" />
			<a:midPointStop
   offset="0"
   style="stop-color:#666666" />
			<a:midPointStop
   offset="0.5"
   style="stop-color:#666666" />
			<a:midPointStop
   offset="0.5054"
   style="stop-color:#FFFFFF" />
			<a:midPointStop
   offset="0.5"
   style="stop-color:#FFFFFF" />
			<a:midPointStop
   offset="1"
   style="stop-color:#666666" />
		</linearGradient>
		<rect
   x="36.155"
   y="0.5"
   fill="url(#SVGID_3_)"
   width="13.708"
   height="4.891"
   id="rect35" />
		<path
   fill="#231F20"
   d="M50.362,5.891H35.656V0h14.706V5.891z M36.654,4.891h12.71V1h-12.71V4.891z"
   id="path37" />
	</g>
	<g
   id="g60">
		<g
   id="g52">
			
				<linearGradient
   id="SVGID_4_"
   gradientUnits="userSpaceOnUse"
   x1="-68.2642"
   y1="-233.7666"
   x2="-50.2319"
   y2="-221.0774"
   gradientTransform="matrix(0.8539 -0.5205 0.4629 0.7595 167.5673 159.5103)">
				<stop
   offset="0"
   style="stop-color:#666666"
   id="stop41" />
				<stop
   offset="0.5054"
   style="stop-color:#FFFFFF"
   id="stop43" />
				<stop
   offset="1"
   style="stop-color:#666666"
   id="stop45" />
				<a:midPointStop
   offset="0"
   style="stop-color:#666666" />
				<a:midPointStop
   offset="0.5"
   style="stop-color:#666666" />
				<a:midPointStop
   offset="0.5054"
   style="stop-color:#FFFFFF" />
				<a:midPointStop
   offset="0.5"
   style="stop-color:#FFFFFF" />
				<a:midPointStop
   offset="1"
   style="stop-color:#666666" />
			</linearGradient>
			<path
   fill="url(#SVGID_4_)"
   d="M24.427,12.703c-1.023-1.672-5.524-0.802-10.051,1.944c-4.526,2.747-7.364,6.329-6.34,8.001     c1.024,1.672,5.523,0.802,10.05-1.944C22.612,17.958,25.451,14.375,24.427,12.703z"
   id="path48" />
			<path
   fill="#231F20"
   d="M10.191,23.998C10.191,23.998,10.191,23.998,10.191,23.998c-1.581,0-2.276-0.592-2.58-1.088     c-0.294-0.479-0.36-1.064-0.196-1.738c0.496-2.054,3.128-4.783,6.704-6.953c2.958-1.795,6.005-2.867,8.153-2.867     c1.581,0,2.275,0.592,2.58,1.089c0.292,0.479,0.358,1.064,0.195,1.738c-0.497,2.055-3.129,4.784-6.703,6.952     C15.386,22.926,12.337,23.998,10.191,23.998z M22.272,12.352c-1.944,0-4.87,1.043-7.637,2.722     c-3.309,2.007-5.821,4.552-6.252,6.333c-0.099,0.406-0.072,0.736,0.077,0.979c0.241,0.395,0.856,0.612,1.729,0.612     c1.943,0,4.87-1.043,7.639-2.722c3.306-2.006,5.818-4.551,6.25-6.333c0.098-0.406,0.072-0.735-0.078-0.979     C23.76,12.57,23.146,12.352,22.272,12.352z"
   id="path50" />
		</g>
		<g
   id="g58">
			<path
   fill="#CCCCCC"
   d="M23.312,10.884c-1.022-1.672-5.522-0.801-10.048,1.944c-4.526,2.746-7.365,6.328-6.342,8     c1.024,1.674,5.525,0.802,10.052-1.944C21.498,16.139,24.336,12.557,23.312,10.884z"
   id="path54" />
			<path
   fill="#231F20"
   d="M9.076,22.179L9.076,22.179c-1.581,0-2.275-0.593-2.579-1.09c-0.293-0.479-0.358-1.063-0.196-1.737     c0.497-2.054,3.129-4.783,6.705-6.952c2.958-1.795,6.006-2.866,8.152-2.866c1.58,0,2.275,0.592,2.579,1.089     c0.293,0.479,0.359,1.063,0.195,1.737c-0.495,2.054-3.127,4.783-6.701,6.952C14.272,21.107,11.224,22.179,9.076,22.179z      M21.158,10.534c-1.942,0-4.869,1.043-7.637,2.722c-3.308,2.007-5.82,4.552-6.251,6.332c-0.099,0.406-0.072,0.735,0.077,0.979     c0.241,0.396,0.856,0.613,1.729,0.613c1.944,0,4.871-1.043,7.639-2.723c3.308-2.007,5.819-4.551,6.25-6.332     c0.098-0.406,0.072-0.735-0.078-0.979C22.646,10.751,22.031,10.534,21.158,10.534z"
   id="path56" />
		</g>
	</g>
	<g
   id="g81">
		<g
   id="g73">
			
				<linearGradient
   id="SVGID_5_"
   gradientUnits="userSpaceOnUse"
   x1="-45.2905"
   y1="-228.4883"
   x2="-36.6493"
   y2="-222.4075"
   gradientTransform="matrix(0.8539 -0.5205 0.4629 0.7595 167.5673 159.5103)">
				<stop
   offset="0"
   style="stop-color:#666666"
   id="stop62" />
				<stop
   offset="0.5054"
   style="stop-color:#FFFFFF"
   id="stop64" />
				<stop
   offset="1"
   style="stop-color:#666666"
   id="stop66" />
				<a:midPointStop
   offset="0"
   style="stop-color:#666666" />
				<a:midPointStop
   offset="0.5"
   style="stop-color:#666666" />
				<a:midPointStop
   offset="0.5054"
   style="stop-color:#FFFFFF" />
				<a:midPointStop
   offset="0.5"
   style="stop-color:#FFFFFF" />
				<a:midPointStop
   offset="1"
   style="stop-color:#666666" />
			</linearGradient>
			<path
   fill="url(#SVGID_5_)"
   d="M34.32,7.251c-0.491-0.801-2.648-0.384-4.815,0.931c-2.17,1.316-3.53,3.033-3.039,3.833     c0.491,0.801,2.648,0.385,4.816-0.932C33.449,9.769,34.811,8.052,34.32,7.251z"
   id="path69" />
			<path
   fill="#231F20"
   d="M27.499,12.923L27.499,12.923c-0.878,0-1.277-0.352-1.458-0.646c-0.122-0.2-0.243-0.541-0.125-1.029     c0.253-1.048,1.561-2.419,3.33-3.494c1.456-0.883,2.967-1.41,4.041-1.41c0.877,0,1.276,0.351,1.458,0.646     c0.122,0.2,0.243,0.541,0.124,1.03c-0.253,1.048-1.561,2.418-3.329,3.492C30.084,12.395,28.574,12.923,27.499,12.923z      M33.287,7.344c-0.887,0-2.236,0.485-3.524,1.266c-1.758,1.067-2.724,2.237-2.878,2.874c-0.017,0.07-0.039,0.198,0.006,0.271     c0.051,0.082,0.236,0.169,0.608,0.169l0,0c0.886,0,2.237-0.485,3.524-1.267C32.78,9.59,33.747,8.419,33.9,7.784     c0.017-0.07,0.039-0.198-0.006-0.271C33.845,7.431,33.658,7.344,33.287,7.344z"
   id="path71" />
		</g>
		<g
   id="g79">
			<path
   fill="#CCCCCC"
   d="M33.786,6.38c-0.491-0.801-2.646-0.385-4.814,0.931c-2.169,1.316-3.529,3.032-3.04,3.833     c0.492,0.801,2.648,0.385,4.815-0.932C32.916,8.897,34.277,7.181,33.786,6.38z"
   id="path75" />
			<path
   fill="#231F20"
   d="M26.965,12.052L26.965,12.052c-0.877,0-1.276-0.351-1.457-0.646c-0.123-0.201-0.244-0.542-0.125-1.031     c0.253-1.048,1.561-2.419,3.331-3.493c1.455-0.883,2.965-1.411,4.04-1.411c0.876,0,1.275,0.352,1.457,0.646     c0.123,0.2,0.243,0.541,0.125,1.03c-0.254,1.048-1.562,2.419-3.33,3.492C29.55,11.524,28.04,12.052,26.965,12.052z M32.754,6.472     c-0.887,0-2.237,0.485-3.524,1.266c-1.757,1.066-2.724,2.237-2.879,2.873c-0.016,0.07-0.037,0.199,0.006,0.271     c0.051,0.081,0.237,0.169,0.608,0.169l0,0c0.887,0,2.236-0.485,3.524-1.267c1.758-1.065,2.723-2.235,2.877-2.872     c0.017-0.07,0.039-0.199-0.006-0.271C33.311,6.56,33.125,6.472,32.754,6.472z"
   id="path77" />
		</g>
	</g>
</g>
</svg>
