<?xml version="1.0" encoding="UTF-8" standalone="no"?>
<svg
   xmlns:a="http://ns.adobe.com/AdobeSVGViewerExtensions/3.0/"
   xmlns:dc="http://purl.org/dc/elements/1.1/"
   xmlns:cc="http://creativecommons.org/ns#"
   xmlns:rdf="http://www.w3.org/1999/02/22-rdf-syntax-ns#"
   xmlns:svg="http://www.w3.org/2000/svg"
   xmlns="http://www.w3.org/2000/svg"
   xmlns:sodipodi="http://sodipodi.sourceforge.net/DTD/sodipodi-0.dtd"
   xmlns:inkscape="http://www.inkscape.org/namespaces/inkscape"
   version="1.1"
   id="图层_1"
   x="0px"
   y="0px"
   width="86px"
   height="66px"
   viewBox="0 0 86 66"
   enable-background="new 0 0 86 66"
   xml:space="preserve"
   sodipodi:docname="罐体_16-01.svg"><metadata
   id="metadata67"><rdf:RDF><cc:Work
       rdf:about=""><dc:format>image/svg+xml</dc:format><dc:type
         rdf:resource="http://purl.org/dc/dcmitype/StillImage" /></cc:Work></rdf:RDF></metadata><defs
   id="defs65" /><sodipodi:namedview
   pagecolor="#ffffff"
   bordercolor="#666666"
   borderopacity="1"
   objecttolerance="10"
   gridtolerance="10"
   guidetolerance="10"
   inkscape:pageopacity="0"
   inkscape:pageshadow="2"
   inkscape:window-width="640"
   inkscape:window-height="480"
   id="namedview63" />
<g
   id="g60">
	<g
   id="g6">
		<polygon
   fill="#999999"
   points="83.358,6.26 2.641,6.26 0.656,13.414 85.344,13.414   "
   id="polygon2" />
		<path
   fill="#231F20"
   d="M86,13.914H0L2.262,5.76h81.476L86,13.914z M1.312,12.914h83.377L82.979,6.76H3.02L1.312,12.914z"
   id="path4" />
	</g>
	<g
   id="g12">
		<path
   fill="#B3B3B3"
   d="M43,2.014c-23.387,0-42.344,6.771-42.344,12.122v15.244h84.688V14.135C85.344,8.784,66.386,2.014,43,2.014    z"
   id="path8" />
		<path
   fill="#231F20"
   d="M85.843,29.879H0.157V14.135C0.157,8.418,19.267,1.514,43,1.514c23.731,0,42.843,6.905,42.843,12.622    V29.879z M1.154,28.879h83.691V14.135C84.846,9.564,66.877,2.514,43,2.514S1.154,9.564,1.154,14.135V28.879z"
   id="path10" />
	</g>
	<g
   id="g18">
		<rect
   x="55.558"
   y="57.088"
   fill="#5D5D5D"
   width="18.49"
   height="6.122"
   id="rect14" />
		<path
   fill="#231F20"
   d="M74.546,63.71H55.06v-7.122h19.486V63.71z M56.056,62.71H73.55v-5.122H56.056V62.71z"
   id="path16" />
	</g>
	<g
   id="g24">
		<rect
   x="12.07"
   y="57.088"
   fill="#5D5D5D"
   width="18.488"
   height="6.122"
   id="rect20" />
		<path
   fill="#231F20"
   d="M31.057,63.71H11.571v-7.122h19.485V63.71z M12.568,62.71h17.492v-5.122H12.568V62.71z"
   id="path22" />
	</g>
	<g
   id="g37">
		<linearGradient
   id="SVGID_1_"
   gradientUnits="userSpaceOnUse"
   x1="0.6563"
   y1="42.5186"
   x2="85.3438"
   y2="42.5186">
			<stop
   offset="0"
   style="stop-color:#666666"
   id="stop26" />
			<stop
   offset="0.5054"
   style="stop-color:#FFFFFF"
   id="stop28" />
			<stop
   offset="1"
   style="stop-color:#666666"
   id="stop30" />
			<a:midPointStop
   offset="0"
   style="stop-color:#666666" />
			<a:midPointStop
   offset="0.5"
   style="stop-color:#666666" />
			<a:midPointStop
   offset="0.5054"
   style="stop-color:#FFFFFF" />
			<a:midPointStop
   offset="0.5"
   style="stop-color:#FFFFFF" />
			<a:midPointStop
   offset="1"
   style="stop-color:#666666" />
		</linearGradient>
		<polygon
   fill="url(#SVGID_1_)"
   points="0.656,19.538 0.656,65.5 16.174,65.5 16.174,61.237 35.948,61.237 35.948,65.5 50.05,65.5     50.05,61.237 69.823,61.237 69.823,65.5 85.344,65.5 85.344,19.538   "
   id="polygon33" />
		<path
   fill="#231F20"
   d="M85.843,66H69.325v-4.263H50.549V66h-15.1v-4.263H16.672V66H0.157V19.038h85.686V66z M70.321,65h14.524    V20.038H1.154V65h14.521v-4.263h20.771V65h13.105v-4.263h20.77V65z"
   id="path35" />
	</g>
	<g
   id="g50">
		<linearGradient
   id="SVGID_2_"
   gradientUnits="userSpaceOnUse"
   x1="0.6563"
   y1="14.4131"
   x2="85.3438"
   y2="14.4131">
			<stop
   offset="0"
   style="stop-color:#808080"
   id="stop39" />
			<stop
   offset="0.5054"
   style="stop-color:#FFFFFF"
   id="stop41" />
			<stop
   offset="1"
   style="stop-color:#808080"
   id="stop43" />
			<a:midPointStop
   offset="0"
   style="stop-color:#808080" />
			<a:midPointStop
   offset="0.5"
   style="stop-color:#808080" />
			<a:midPointStop
   offset="0.5054"
   style="stop-color:#FFFFFF" />
			<a:midPointStop
   offset="0.5"
   style="stop-color:#FFFFFF" />
			<a:midPointStop
   offset="1"
   style="stop-color:#808080" />
		</linearGradient>
		<polygon
   fill="url(#SVGID_2_)"
   points="51.886,16.617 50.394,9.289 35.605,9.289 34.114,16.617 0.656,16.617 0.656,19.538     85.344,19.538 85.344,16.617   "
   id="polygon46" />
		<path
   fill="#231F20"
   d="M85.843,20.038H0.157v-3.921h33.551l1.49-7.328h15.603l1.491,7.328h33.551V20.038z M1.154,19.038h83.691    v-1.921H51.479l-1.491-7.328H36.012l-1.49,7.328H1.154V19.038z"
   id="path48" />
	</g>
	<g
   id="g56">
		<polygon
   fill="#4C4C4C"
   points="37.394,0.5 35.605,9.289 50.394,9.289 48.605,0.5   "
   id="polygon52" />
		<path
   fill="#231F20"
   d="M51.004,9.789H34.995L36.987,0h12.024L51.004,9.789z M36.216,8.789h13.567L48.198,1H37.801L36.216,8.789z"
   id="path54" />
	</g>
	<rect
   x="36.361"
   y="12.443"
   fill="#231F20"
   width="13.276"
   height="2.249"
   id="rect58" />
</g>
</svg>
