<?xml version="1.0" encoding="UTF-8" standalone="no"?>
<svg
   xmlns:a="http://ns.adobe.com/AdobeSVGViewerExtensions/3.0/"
   xmlns:dc="http://purl.org/dc/elements/1.1/"
   xmlns:cc="http://creativecommons.org/ns#"
   xmlns:rdf="http://www.w3.org/1999/02/22-rdf-syntax-ns#"
   xmlns:svg="http://www.w3.org/2000/svg"
   xmlns="http://www.w3.org/2000/svg"
   xmlns:sodipodi="http://sodipodi.sourceforge.net/DTD/sodipodi-0.dtd"
   xmlns:inkscape="http://www.inkscape.org/namespaces/inkscape"
   version="1.1"
   id="图层_1"
   x="0px"
   y="0px"
   width="61px"
   height="86px"
   viewBox="0 0 61 86"
   enable-background="new 0 0 61 86"
   xml:space="preserve"
   sodipodi:docname="罐体_02-01.svg"><metadata
   id="metadata52"><rdf:RDF><cc:Work
       rdf:about=""><dc:format>image/svg+xml</dc:format><dc:type
         rdf:resource="http://purl.org/dc/dcmitype/StillImage" /></cc:Work></rdf:RDF></metadata><defs
   id="defs50" /><sodipodi:namedview
   pagecolor="#ffffff"
   bordercolor="#666666"
   borderopacity="1"
   objecttolerance="10"
   gridtolerance="10"
   guidetolerance="10"
   inkscape:pageopacity="0"
   inkscape:pageshadow="2"
   inkscape:window-width="640"
   inkscape:window-height="480"
   id="namedview48" />
<g
   id="g45">
	<g
   id="g13">
		
			<linearGradient
   id="SVGID_1_"
   gradientUnits="userSpaceOnUse"
   x1="-373.3916"
   y1="-892.2197"
   x2="-313.3921"
   y2="-892.2197"
   gradientTransform="matrix(-1 0 0 -1 -312.8916 -842.3359)">
			<stop
   offset="0"
   style="stop-color:#666666"
   id="stop2" />
			<stop
   offset="0.5054"
   style="stop-color:#FFFFFF"
   id="stop4" />
			<stop
   offset="1"
   style="stop-color:#666666"
   id="stop6" />
			<a:midPointStop
   offset="0"
   style="stop-color:#666666" />
			<a:midPointStop
   offset="0.5"
   style="stop-color:#666666" />
			<a:midPointStop
   offset="0.5054"
   style="stop-color:#FFFFFF" />
			<a:midPointStop
   offset="0.5"
   style="stop-color:#FFFFFF" />
			<a:midPointStop
   offset="1"
   style="stop-color:#666666" />
		</linearGradient>
		<path
   fill="url(#SVGID_1_)"
   d="M30.5,85.5c16.568,0,30-2.248,30-7.427V24.257l-16.012-9.99H16.511L0.5,24.257v53.816    C0.5,83.252,13.932,85.5,30.5,85.5z"
   id="path9" />
		<path
   fill="#231F20"
   d="M30.5,86C21.33,86,0,85.228,0,78.073V23.98l16.367-10.212h28.263L61,23.98v54.093    C61,85.228,39.67,86,30.5,86z M1,24.535v53.539C1,82.346,12.303,85,30.5,85C48.695,85,60,82.346,60,78.073V24.535l-15.654-9.767    H16.655L1,24.535z"
   id="path11" />
	</g>
	<g
   id="g43">
		
			<linearGradient
   id="SVGID_2_"
   gradientUnits="userSpaceOnUse"
   x1="-357.3799"
   y1="-858.5654"
   x2="-329.7632"
   y2="-858.5654"
   gradientTransform="matrix(-1 0 0 -1 -312.8916 -842.3359)">
			<stop
   offset="0"
   style="stop-color:#666666"
   id="stop15" />
			<stop
   offset="0.5054"
   style="stop-color:#FFFFFF"
   id="stop17" />
			<stop
   offset="1"
   style="stop-color:#666666"
   id="stop19" />
			<a:midPointStop
   offset="0"
   style="stop-color:#666666" />
			<a:midPointStop
   offset="0.5"
   style="stop-color:#666666" />
			<a:midPointStop
   offset="0.5054"
   style="stop-color:#FFFFFF" />
			<a:midPointStop
   offset="0.5"
   style="stop-color:#FFFFFF" />
			<a:midPointStop
   offset="1"
   style="stop-color:#666666" />
		</linearGradient>
		<path
   fill="url(#SVGID_2_)"
   d="M16.872,14.268c0,2.265,6.183,3.924,13.809,3.924c7.626,0,13.808-1.659,13.808-3.924"
   id="path22" />
		<g
   id="g35">
			
				<linearGradient
   id="SVGID_3_"
   gradientUnits="userSpaceOnUse"
   x1="-357.3799"
   y1="-851.7705"
   x2="-329.7632"
   y2="-851.7705"
   gradientTransform="matrix(-1 0 0 -1 -312.8916 -842.3359)">
				<stop
   offset="0"
   style="stop-color:#666666"
   id="stop24" />
				<stop
   offset="0.5054"
   style="stop-color:#FFFFFF"
   id="stop26" />
				<stop
   offset="1"
   style="stop-color:#666666"
   id="stop28" />
				<a:midPointStop
   offset="0"
   style="stop-color:#666666" />
				<a:midPointStop
   offset="0.5"
   style="stop-color:#666666" />
				<a:midPointStop
   offset="0.5054"
   style="stop-color:#FFFFFF" />
				<a:midPointStop
   offset="0.5"
   style="stop-color:#FFFFFF" />
				<a:midPointStop
   offset="1"
   style="stop-color:#666666" />
			</linearGradient>
			<path
   fill="url(#SVGID_3_)"
   d="M44.488,14.268V4.602H16.872v9.666"
   id="path31" />
			<polygon
   fill="#231F20"
   points="44.988,14.268 43.988,14.268 43.988,5.102 17.372,5.102 17.372,14.268 16.372,14.268      16.372,4.102 44.988,4.102    "
   id="polygon33" />
		</g>
		<g
   id="g41">
			<ellipse
   fill="#F2F2F2"
   cx="30.68"
   cy="3.729"
   rx="13.808"
   ry="3.229"
   id="ellipse37" />
			<path
   fill="#231F20"
   d="M30.68,7.456c-7.11,0-14.309-1.28-14.309-3.728C16.372,1.281,23.57,0,30.68,0     c7.111,0,14.308,1.281,14.308,3.729C44.988,6.176,37.791,7.456,30.68,7.456z M30.68,1c-8.124,0-13.309,1.616-13.309,2.729     s5.185,2.728,13.309,2.728c8.125,0,13.308-1.615,13.308-2.728S38.805,1,30.68,1z"
   id="path39" />
		</g>
	</g>
</g>
</svg>
