<?xml version="1.0" encoding="UTF-8" standalone="no"?>
<svg
   xmlns:a="http://ns.adobe.com/AdobeSVGViewerExtensions/3.0/"
   xmlns:dc="http://purl.org/dc/elements/1.1/"
   xmlns:cc="http://creativecommons.org/ns#"
   xmlns:rdf="http://www.w3.org/1999/02/22-rdf-syntax-ns#"
   xmlns:svg="http://www.w3.org/2000/svg"
   xmlns="http://www.w3.org/2000/svg"
   xmlns:sodipodi="http://sodipodi.sourceforge.net/DTD/sodipodi-0.dtd"
   xmlns:inkscape="http://www.inkscape.org/namespaces/inkscape"
   version="1.1"
   id="图层_1"
   x="0px"
   y="0px"
   width="113px"
   height="65.5px"
   viewBox="0 0 113 65.5"
   enable-background="new 0 0 113 65.5"
   xml:space="preserve"
   sodipodi:docname="罐体_20-01.svg"><metadata
   id="metadata88"><rdf:RDF><cc:Work
       rdf:about=""><dc:format>image/svg+xml</dc:format><dc:type
         rdf:resource="http://purl.org/dc/dcmitype/StillImage" /></cc:Work></rdf:RDF></metadata><defs
   id="defs86" /><sodipodi:namedview
   pagecolor="#ffffff"
   bordercolor="#666666"
   borderopacity="1"
   objecttolerance="10"
   gridtolerance="10"
   guidetolerance="10"
   inkscape:pageopacity="0"
   inkscape:pageshadow="2"
   inkscape:window-width="640"
   inkscape:window-height="480"
   id="namedview84" />
<g
   id="g81">
	<g
   id="g13">
		<linearGradient
   id="SVGID_1_"
   gradientUnits="userSpaceOnUse"
   x1="56.5283"
   y1="6.6841"
   x2="56.5283"
   y2="56.2044">
			<stop
   offset="0"
   style="stop-color:#666666"
   id="stop2" />
			<stop
   offset="0.5054"
   style="stop-color:#FFFFFF"
   id="stop4" />
			<stop
   offset="1"
   style="stop-color:#666666"
   id="stop6" />
			<a:midPointStop
   offset="0"
   style="stop-color:#666666" />
			<a:midPointStop
   offset="0.5"
   style="stop-color:#666666" />
			<a:midPointStop
   offset="0.5054"
   style="stop-color:#FFFFFF" />
			<a:midPointStop
   offset="0.5"
   style="stop-color:#FFFFFF" />
			<a:midPointStop
   offset="1"
   style="stop-color:#666666" />
		</linearGradient>
		<path
   fill="url(#SVGID_1_)"
   d="M101.295,4.418H11.764c-5.351,0-9.689,12.196-9.689,27.241S6.413,58.9,11.764,58.9h89.531    c5.35,0,9.688-12.196,9.688-27.241S106.645,4.418,101.295,4.418z"
   id="path9" />
		<path
   fill="#231F20"
   d="M101.295,59.4H11.764C6.05,59.4,1.575,47.215,1.575,31.659S6.05,3.918,11.764,3.918h89.531    c5.712,0,10.188,12.186,10.188,27.741S107.007,59.4,101.295,59.4z M11.764,4.918c-4.981,0-9.189,12.246-9.189,26.741    S6.783,58.4,11.764,58.4h89.531c4.979,0,9.188-12.246,9.188-26.741s-4.208-26.741-9.188-26.741H11.764z"
   id="path11" />
	</g>
	<g
   id="g26">
		<linearGradient
   id="SVGID_2_"
   gradientUnits="userSpaceOnUse"
   x1="24.248"
   y1="4.418"
   x2="47.6404"
   y2="4.418">
			<stop
   offset="0"
   style="stop-color:#666666"
   id="stop15" />
			<stop
   offset="0.5054"
   style="stop-color:#FFFFFF"
   id="stop17" />
			<stop
   offset="1"
   style="stop-color:#666666"
   id="stop19" />
			<a:midPointStop
   offset="0"
   style="stop-color:#666666" />
			<a:midPointStop
   offset="0.5"
   style="stop-color:#666666" />
			<a:midPointStop
   offset="0.5054"
   style="stop-color:#FFFFFF" />
			<a:midPointStop
   offset="0.5"
   style="stop-color:#FFFFFF" />
			<a:midPointStop
   offset="1"
   style="stop-color:#666666" />
		</linearGradient>
		<polyline
   fill="url(#SVGID_2_)"
   points="24.667,8.336 24.667,0.5 48.458,0.5 48.458,8.336   "
   id="polyline22" />
		<polygon
   fill="#231F20"
   points="48.958,8.336 47.958,8.336 47.958,1 25.167,1 25.167,8.336 24.167,8.336 24.167,0 48.958,0   "
   id="polygon24" />
	</g>
	<g
   id="g43">
		<g
   id="g39">
			<linearGradient
   id="SVGID_3_"
   gradientUnits="userSpaceOnUse"
   x1="17.5386"
   y1="1.4609"
   x2="17.5386"
   y2="60.1833">
				<stop
   offset="0"
   style="stop-color:#666666"
   id="stop28" />
				<stop
   offset="0.5054"
   style="stop-color:#FFFFFF"
   id="stop30" />
				<stop
   offset="1"
   style="stop-color:#666666"
   id="stop32" />
				<a:midPointStop
   offset="0"
   style="stop-color:#666666" />
				<a:midPointStop
   offset="0.5"
   style="stop-color:#666666" />
				<a:midPointStop
   offset="0.5054"
   style="stop-color:#FFFFFF" />
				<a:midPointStop
   offset="0.5"
   style="stop-color:#FFFFFF" />
				<a:midPointStop
   offset="1"
   style="stop-color:#666666" />
			</linearGradient>
			<rect
   x="14.281"
   y="0.5"
   fill="url(#SVGID_3_)"
   width="6.515"
   height="60.936"
   id="rect35" />
			<path
   fill="#231F20"
   d="M21.296,61.936h-7.515V0h7.515V61.936z M14.781,60.936h5.515V1h-5.515V60.936z"
   id="path37" />
		</g>
		<rect
   x="16.537"
   y="0.5"
   fill="#4D4D4D"
   width="2.004"
   height="60.936"
   id="rect41" />
	</g>
	<g
   id="g60">
		<g
   id="g56">
			<linearGradient
   id="SVGID_4_"
   gradientUnits="userSpaceOnUse"
   x1="56.2495"
   y1="1.4609"
   x2="56.2495"
   y2="60.1833">
				<stop
   offset="0"
   style="stop-color:#666666"
   id="stop45" />
				<stop
   offset="0.5054"
   style="stop-color:#FFFFFF"
   id="stop47" />
				<stop
   offset="1"
   style="stop-color:#666666"
   id="stop49" />
				<a:midPointStop
   offset="0"
   style="stop-color:#666666" />
				<a:midPointStop
   offset="0.5"
   style="stop-color:#666666" />
				<a:midPointStop
   offset="0.5054"
   style="stop-color:#FFFFFF" />
				<a:midPointStop
   offset="0.5"
   style="stop-color:#FFFFFF" />
				<a:midPointStop
   offset="1"
   style="stop-color:#666666" />
			</linearGradient>
			<rect
   x="52.992"
   y="0.5"
   fill="url(#SVGID_4_)"
   width="6.515"
   height="60.936"
   id="rect52" />
			<path
   fill="#231F20"
   d="M60.007,61.936h-7.515V0h7.515V61.936z M53.492,60.936h5.515V1h-5.515V60.936z"
   id="path54" />
		</g>
		<rect
   x="55.247"
   y="0.5"
   fill="#4D4D4D"
   width="2.005"
   height="60.936"
   id="rect58" />
	</g>
	<g
   id="g77">
		<g
   id="g73">
			<linearGradient
   id="SVGID_5_"
   gradientUnits="userSpaceOnUse"
   x1="94.96"
   y1="1.4609"
   x2="94.96"
   y2="60.1833">
				<stop
   offset="0"
   style="stop-color:#666666"
   id="stop62" />
				<stop
   offset="0.5054"
   style="stop-color:#FFFFFF"
   id="stop64" />
				<stop
   offset="1"
   style="stop-color:#666666"
   id="stop66" />
				<a:midPointStop
   offset="0"
   style="stop-color:#666666" />
				<a:midPointStop
   offset="0.5"
   style="stop-color:#666666" />
				<a:midPointStop
   offset="0.5054"
   style="stop-color:#FFFFFF" />
				<a:midPointStop
   offset="0.5"
   style="stop-color:#FFFFFF" />
				<a:midPointStop
   offset="1"
   style="stop-color:#666666" />
			</linearGradient>
			<rect
   x="91.703"
   y="0.5"
   fill="url(#SVGID_5_)"
   width="6.514"
   height="60.936"
   id="rect69" />
			<path
   fill="#231F20"
   d="M98.717,61.936h-7.514V0h7.514V61.936z M92.203,60.936h5.514V1h-5.514V60.936z"
   id="path71" />
		</g>
		<rect
   x="93.958"
   y="0.5"
   fill="#4D4D4D"
   width="2.005"
   height="60.936"
   id="rect75" />
	</g>
	<polygon
   fill="#231F20"
   points="113,65.5 0,65.5 6.729,61.233 106.271,61.233  "
   id="polygon79" />
</g>
</svg>
