<?xml version="1.0" encoding="UTF-8" standalone="no"?>
<svg
   xmlns:a="http://ns.adobe.com/AdobeSVGViewerExtensions/3.0/"
   xmlns:dc="http://purl.org/dc/elements/1.1/"
   xmlns:cc="http://creativecommons.org/ns#"
   xmlns:rdf="http://www.w3.org/1999/02/22-rdf-syntax-ns#"
   xmlns:svg="http://www.w3.org/2000/svg"
   xmlns="http://www.w3.org/2000/svg"
   xmlns:sodipodi="http://sodipodi.sourceforge.net/DTD/sodipodi-0.dtd"
   xmlns:inkscape="http://www.inkscape.org/namespaces/inkscape"
   version="1.1"
   id="图层_1"
   x="0px"
   y="0px"
   width="79px"
   height="91px"
   viewBox="0 0 79 91"
   enable-background="new 0 0 79 91"
   xml:space="preserve"
   sodipodi:docname="罐体_21-01.svg"><metadata
   id="metadata85"><rdf:RDF><cc:Work
       rdf:about=""><dc:format>image/svg+xml</dc:format><dc:type
         rdf:resource="http://purl.org/dc/dcmitype/StillImage" /></cc:Work></rdf:RDF></metadata><defs
   id="defs83" /><sodipodi:namedview
   pagecolor="#ffffff"
   bordercolor="#666666"
   borderopacity="1"
   objecttolerance="10"
   gridtolerance="10"
   guidetolerance="10"
   inkscape:pageopacity="0"
   inkscape:pageshadow="2"
   inkscape:window-width="640"
   inkscape:window-height="480"
   id="namedview81" />
<g
   id="g78">
	<g
   id="g13">
		
			<linearGradient
   id="SVGID_1_"
   gradientUnits="userSpaceOnUse"
   x1="2671.0234"
   y1="-1185.8838"
   x2="2744.6406"
   y2="-1185.8838"
   gradientTransform="matrix(-1 0 0 -1 2747.332 -1145.5947)">
			<stop
   offset="0"
   style="stop-color:#666666"
   id="stop2" />
			<stop
   offset="0.5054"
   style="stop-color:#FFFFFF"
   id="stop4" />
			<stop
   offset="1"
   style="stop-color:#666666"
   id="stop6" />
			<a:midPointStop
   offset="0"
   style="stop-color:#666666" />
			<a:midPointStop
   offset="0.5"
   style="stop-color:#666666" />
			<a:midPointStop
   offset="0.5054"
   style="stop-color:#FFFFFF" />
			<a:midPointStop
   offset="0.5"
   style="stop-color:#FFFFFF" />
			<a:midPointStop
   offset="1"
   style="stop-color:#666666" />
		</linearGradient>
		<path
   fill="url(#SVGID_1_)"
   d="M2.691,78.276c0,0,12.861,1.802,36.772,1.802c24.563,0,36.845-1.802,36.845-1.802V4.688l0,0l0,0    c0-1.98-16.48-4.188-36.81-4.188S2.691,2.707,2.691,4.688l0,0l0,0V78.276z"
   id="path9" />
		<path
   fill="#231F20"
   d="M39.464,80.578c-23.673,0-36.714-1.789-36.843-1.807l-0.43-0.061V4.688C2.191,1.489,24.453,0,39.499,0    s37.31,1.489,37.31,4.688v74.021l-0.428,0.063C76.258,78.789,63.783,80.578,39.464,80.578z M3.191,77.837    c2.43,0.304,15.063,1.741,36.272,1.741c21.742,0,33.971-1.432,36.345-1.738V4.688C75.118,3.244,60.278,1,39.499,1    C18.721,1,3.881,3.244,3.184,4.729L3.191,77.837z"
   id="path11" />
	</g>
	<g
   id="g19">
		<polygon
   fill="#231F20"
   points="40.33,89.271 11.696,68.482 12.364,67.265 40.996,88.054   "
   id="polygon15" />
		<path
   d="M40.496,90.01l-29.45-21.383l1.153-2.1l29.447,21.381L40.496,90.01z M12.347,68.336l27.817,20.197l0.182-0.334    L12.529,68.002L12.347,68.336z"
   id="path17" />
	</g>
	<g
   id="g25">
		<polygon
   fill="#231F20"
   points="40.33,89.271 11.696,68.482 12.364,67.265 40.996,88.054   "
   id="polygon21" />
		<path
   d="M40.496,90.01l-29.45-21.383l1.153-2.1l29.447,21.381L40.496,90.01z M12.347,68.336l27.817,20.197l0.182-0.334    L12.529,68.002L12.347,68.336z"
   id="path23" />
	</g>
	<g
   id="g31">
		<polygon
   fill="#231F20"
   points="39.355,89.271 67.988,68.482 67.321,67.265 38.689,88.054   "
   id="polygon27" />
		<path
   d="M39.189,90.01l-1.15-2.102l29.447-21.382l1.152,2.102L39.189,90.01z M39.339,88.199l0.183,0.334l27.816-20.197    l-0.182-0.333L39.339,88.199z"
   id="path29" />
	</g>
	<g
   id="g37">
		<rect
   x="10.375"
   y="67.907"
   fill="#231F20"
   width="5.25"
   height="20.722"
   id="rect33" />
		<path
   d="M16.125,89.129h-6.25V67.407h6.25V89.129z M10.875,88.129h4.25V68.407h-4.25V88.129z"
   id="path35" />
	</g>
	<g
   id="g43">
		<rect
   x="63.375"
   y="67.907"
   fill="#231F20"
   width="5.25"
   height="20.722"
   id="rect39" />
		<path
   d="M69.125,89.129h-6.25V67.407h6.25V89.129z M63.875,88.129h4.25V68.407h-4.25V88.129z"
   id="path41" />
	</g>
	<g
   id="g49">
		<rect
   x="36.876"
   y="67.907"
   fill="#231F20"
   width="5.248"
   height="20.722"
   id="rect45" />
		<path
   d="M42.624,89.129h-6.248V67.407h6.248V89.129z M37.376,88.129h4.248V68.407h-4.248V88.129z"
   id="path47" />
	</g>
	<g
   id="g55">
		<rect
   x="0.5"
   y="66.037"
   fill="#231F20"
   width="78"
   height="3.74"
   id="rect51" />
		<path
   d="M79,70.277H0v-4.74h79V70.277z M1,69.277h77v-2.74H1V69.277z"
   id="path53" />
	</g>
	<g
   id="g61">
		<rect
   x="0.5"
   y="86.76"
   fill="#231F20"
   width="78"
   height="3.74"
   id="rect57" />
		<path
   d="M79,91H0v-4.74h79V91z M1,90h77v-2.74H1V90z"
   id="path59" />
	</g>
	<g
   id="g74">
		<linearGradient
   id="SVGID_2_"
   gradientUnits="userSpaceOnUse"
   x1="35.4453"
   y1="84.7461"
   x2="43.5547"
   y2="84.7461">
			<stop
   offset="0"
   style="stop-color:#666666"
   id="stop63" />
			<stop
   offset="0.5054"
   style="stop-color:#FFFFFF"
   id="stop65" />
			<stop
   offset="1"
   style="stop-color:#666666"
   id="stop67" />
			<a:midPointStop
   offset="0"
   style="stop-color:#666666" />
			<a:midPointStop
   offset="0.5"
   style="stop-color:#666666" />
			<a:midPointStop
   offset="0.5054"
   style="stop-color:#FFFFFF" />
			<a:midPointStop
   offset="0.5"
   style="stop-color:#FFFFFF" />
			<a:midPointStop
   offset="1"
   style="stop-color:#666666" />
		</linearGradient>
		<rect
   x="35.445"
   y="80.078"
   fill="url(#SVGID_2_)"
   width="8.109"
   height="9.336"
   id="rect70" />
		<path
   fill="#231F20"
   d="M44.055,89.914h-9.109V79.578h9.109V89.914z M35.945,88.914h7.109v-8.336h-7.109V88.914z"
   id="path72" />
	</g>
	<rect
   x="2.691"
   y="4.188"
   fill="#CCCCCC"
   width="73.617"
   height="1"
   id="rect76" />
</g>
</svg>
