<?xml version="1.0" encoding="UTF-8" standalone="no"?>
<svg
   xmlns:dc="http://purl.org/dc/elements/1.1/"
   xmlns:cc="http://creativecommons.org/ns#"
   xmlns:rdf="http://www.w3.org/1999/02/22-rdf-syntax-ns#"
   xmlns:svg="http://www.w3.org/2000/svg"
   xmlns="http://www.w3.org/2000/svg"
   xmlns:sodipodi="http://sodipodi.sourceforge.net/DTD/sodipodi-0.dtd"
   xmlns:inkscape="http://www.inkscape.org/namespaces/inkscape"
   version="1.1"
   id="图层_1"
   x="0px"
   y="0px"
   width="53px"
   height="89px"
   viewBox="0 0 53 89"
   enable-background="new 0 0 53 89"
   xml:space="preserve"
   sodipodi:docname="罐体_24-01.svg"><metadata
   id="metadata157"><rdf:RDF><cc:Work
       rdf:about=""><dc:format>image/svg+xml</dc:format><dc:type
         rdf:resource="http://purl.org/dc/dcmitype/StillImage" /></cc:Work></rdf:RDF></metadata><defs
   id="defs155" /><sodipodi:namedview
   pagecolor="#ffffff"
   bordercolor="#666666"
   borderopacity="1"
   objecttolerance="10"
   gridtolerance="10"
   guidetolerance="10"
   inkscape:pageopacity="0"
   inkscape:pageshadow="2"
   inkscape:window-width="640"
   inkscape:window-height="480"
   id="namedview153" />
<g
   id="g150">
	<path
   fill-rule="evenodd"
   clip-rule="evenodd"
   fill="#020202"
   d="M2.062,26.007c0.863-1.723,3.372-1.971,4.061-1.791   c6.879,1.795,8.9-4.362,12.826-8.202c-2.355,0-4.709-0.015-7.063,0.006c-1.511,0.013-2.944,0.262-2.869-2.156   c0.06-1.973,0.269-3.085,2.659-2.932c1.375,0.089,2.786-0.656,4.203-0.907C19.021,9.47,19.026,9.5,17.45,6.748   c-1.375-2.401,0.795-6.662,3.469-6.718c2.812-0.059,5.625-0.013,8.438-0.013c3.346,0,2.603,1.286,4.247,2.244   c3.556,2.07,2.495,2.915,0.671,5.515c-2.189,3.119,1.863,9.111,3.248,12.397c2.939,6.971,9.998,1.451,13.246,5.743   c-0.628,0.876-1.559,1.109-2.547,1.227c-0.715,0.079-1.434,0.085-2.149,0.075c-0.7,0.018-1.402,0.001-2.104-0.011   c-0.691,0.017-1.383,0.005-2.074-0.003c-0.688,0.021-1.374,0.012-2.061,0.003c-0.911,0.011-1.822-0.002-2.733-0.003   c-0.682,0.021-1.36,0.008-2.041-0.004c-0.676,0.015-1.353,0-2.028-0.013c-0.673,0.016-1.346,0.003-2.018-0.008   c-0.669,0.017-1.338,0.004-2.006-0.005c-0.668,0.018-1.334,0.006-2.001-0.003c-0.665,0.019-1.329,0.008-1.995-0.001   c-0.665,0.019-1.33,0.008-1.994,0c-0.666,0.019-1.331,0.008-1.996,0c-0.666,0.019-1.334,0.01-2,0.002   c-0.671,0.02-1.34,0.011-2.01,0.004c-0.679,0.021-1.355,0.014-2.031,0.01c-0.688,0.022-1.375,0.02-2.063,0.019   c-0.704,0.027-1.406,0.027-2.111,0.026c-0.967,0.021-1.932,0.028-2.9,0.043c-0.757,0.032-1.512,0.029-2.271,0.003   C4.323,27.194,3.011,27.113,2.062,26.007z"
   id="path2" />
	<path
   fill-rule="evenodd"
   clip-rule="evenodd"
   fill="#828282"
   d="M2.075,87.964c-0.318-0.316-0.637-0.631-0.953-0.949   c-1.252-2.539,0.229-5.381-0.877-7.934C0.237,63.027,0.231,46.974,0.226,30.92c1.271-1.029,2.604-1.078,3.994-0.253   c1.257,1.632,1.961,3.563,2.875,5.387c0.781,13.936,0.777,27.869,0.031,41.803c-2.945,2.988,0.619,7.189-1.874,10.27   C4.171,88.519,3.101,88.69,2.075,87.964z"
   id="path4" />
	<path
   fill-rule="evenodd"
   clip-rule="evenodd"
   fill="#828282"
   d="M52.714,34.982c0,14.667,0,29.333,0,44.001   c-0.875,0.846-1.947,1.143-3.133,1.141c-0.908-0.014-1.766-0.221-2.557-0.691c-0.489-0.393-0.844-0.883-1.08-1.465   c-0.789-13.914-0.561-27.829-0.141-41.742c0.689-1.813,1.69-3.473,2.637-5.16c0.615-0.566,1.336-0.713,2.135-0.508   C52.4,31.486,51.413,33.792,52.714,34.982z"
   id="path6" />
	<path
   fill-rule="evenodd"
   clip-rule="evenodd"
   fill="#0C0C0C"
   d="M50.864,31.203c-0.663,0.001-1.327,0.001-1.992,0.002   c-0.857,0.657-1.834,0.965-2.902,1.026c-1.037,0.087-2.08,0.084-3.122,0.082c-0.79,0.025-1.581,0.025-2.372,0.028   c-1.881,0.05-3.76,0.04-5.641,0.036c-1.648,0.086-3.296,0.039-4.942,0.02c-2.755,0.06-5.51,0.05-8.263-0.021   c-1.061-0.016-2.125,0.033-3.185-0.043c-1.017-0.012-2.038-0.011-3.054-0.046c-0.736,0.011-1.474-0.006-2.211-0.024   c-0.955-0.003-1.912-0.026-2.869-0.035c-0.709,0.017-1.418,0-2.128-0.019c-0.712,0.007-1.421-0.037-2.127-0.139   c-0.724-0.115-1.345-0.458-1.927-0.883c-1.302-0.089-2.602-0.178-3.904-0.268c0.173-1.363-1.027-3.038,0.896-4.006   c1.416,1.2,2.943,2.102,4.902,1.839c0.683-0.023,1.365-0.016,2.051-0.004c0.919-0.004,1.838,0.017,2.758,0.024   c0.691-0.017,1.382,0,2.072,0.017c0.686-0.012,1.371,0.006,2.057,0.021c0.678-0.014,1.355,0.002,2.033,0.014   c0.672-0.017,1.346-0.003,2.016,0.007c0.669-0.018,1.338-0.006,2.004,0.003c0.667-0.018,1.332-0.007,1.998,0.002   c0.666-0.019,1.33-0.008,1.995,0c0.665-0.019,1.329-0.008,1.994,0c0.667-0.019,1.333-0.009,1.999-0.001   c0.668-0.02,1.337-0.011,2.004-0.004c0.672-0.02,1.344-0.012,2.016-0.006c0.676-0.021,1.351-0.016,2.026-0.012   c0.681-0.022,1.359-0.017,2.04-0.01c0.91-0.013,1.821-0.003,2.732-0.004c0.687-0.022,1.372-0.012,2.057-0.002   c0.686-0.019,1.371-0.007,2.055,0.001c0.679-0.02,1.359-0.011,2.037-0.005c0.662-0.022,1.326-0.016,1.985-0.025   c1.578,0.04,2.805-0.772,3.999-1.665c1.9,0.922,0.59,2.534,0.811,3.817C52.215,31.587,51.57,31.602,50.864,31.203z"
   id="path8" />
	<path
   fill-rule="evenodd"
   clip-rule="evenodd"
   d="M2.075,87.964c1.016-0.059,2.029-0.115,3.046-0.172   c0.791-0.625,1.7-0.926,2.694-0.99c0.718-0.068,1.438-0.07,2.158-0.061c0.711-0.02,1.421-0.008,2.133,0   c0.709-0.021,1.419-0.014,2.127-0.01c0.949-0.014,1.9-0.01,2.85-0.014c0.961-0.014,1.922-0.012,2.883-0.014   c0.73-0.023,1.46-0.02,2.191-0.012c0.987-0.02,1.973-0.012,2.959-0.016c1.002-0.035,2.002-0.023,3.004-0.023   c1.262-0.025,2.523-0.018,3.784-0.008c1.26-0.018,2.518-0.002,3.774,0.016c0.996-0.004,1.991,0.004,2.985,0.023   c0.737-0.014,1.475-0.002,2.212,0.01c0.732-0.016,1.465-0.006,2.197,0.004c1.221,0.004,2.444,0.01,3.668,0.014   c0.75-0.01,1.496,0.039,2.237,0.164c0.762,0.152,1.443,0.453,1.935,1.086c-0.375,1.389-1.528,0.982-2.419,0.984   c-14.663,0.023-29.327,0.023-43.992,0C3.607,88.946,2.458,89.341,2.075,87.964z"
   id="path10" />
	<path
   fill-rule="evenodd"
   clip-rule="evenodd"
   fill="#797979"
   d="M50.913,87.962c-0.674-0.053-1.351-0.105-2.025-0.158   c-1.262-1.326-1.223-2.912-0.908-4.555c0.418-1.523,0.749-3.09,1.912-4.279c0.94,0.004,1.881,0.008,2.822,0.014   C52.743,82.103,53.909,85.454,50.913,87.962z"
   id="path12" />
	<path
   fill-rule="evenodd"
   clip-rule="evenodd"
   fill="#858585"
   d="M6.119,29.816c-2.196-0.046-5.212,1.331-4.997-2.902   c0.314-0.302,0.627-0.605,0.939-0.906c1.352,0.053,2.703,0.106,4.054,0.16C7.142,27.382,7.162,28.599,6.119,29.816z"
   id="path14" />
	<path
   fill-rule="evenodd"
   clip-rule="evenodd"
   fill="#7C7C7C"
   d="M51.952,27.103c0.122,3.151-1.891,3.057-4.074,2.7   c-1.043-1.21-1.021-2.418,0.003-3.626c0.962-0.086,1.925-0.174,2.888-0.261C51.162,26.312,51.558,26.707,51.952,27.103z"
   id="path16" />
	<path
   fill-rule="evenodd"
   clip-rule="evenodd"
   fill="#797979"
   d="M50.864,31.203c0.633-0.095,1.266-0.189,1.898-0.283   c-0.016,1.354-0.033,2.708-0.049,4.063C50.247,34.635,51.073,32.664,50.864,31.203z"
   id="path18" />
	<path
   fill-rule="evenodd"
   clip-rule="evenodd"
   d="M0.245,79.081c1.807,2.475,0.554,5.293,0.877,7.934   C-0.96,84.569,0.555,81.724,0.245,79.081z"
   id="path20" />
	<path
   fill-rule="evenodd"
   clip-rule="evenodd"
   fill="#C9C9C9"
   d="M18.42,5.099c5.352-1.332,10.704-1.396,16.056-0.102   C29.149,6.469,23.786,6.078,18.42,5.099z"
   id="path22" />
	<path
   fill-rule="evenodd"
   clip-rule="evenodd"
   fill="#919191"
   d="M28.915,17.161c4.377-2.749,1.736-5.713,0.236-8.689   c2.934-1.212,4.249,0.061,3.62,2.859c-0.556,2.474,2.739,7.585-3.856,6.527C28.915,17.626,28.915,17.394,28.915,17.161z"
   id="path24" />
	<path
   fill-rule="evenodd"
   clip-rule="evenodd"
   fill="#C9C9C9"
   d="M24.716,15.864c-1.965,0.321-1.721-1.069-1.668-2.159   c0.054-1.144-0.602-2.83,1.717-2.567c1.382,0.156,2.007,0.766,2.035,2.18C26.829,14.864,26.397,15.888,24.716,15.864z"
   id="path26" />
	<path
   fill-rule="evenodd"
   clip-rule="evenodd"
   fill="#ABABAB"
   d="M23.065,17.847c-5.906-0.904-1.678-5.023-3.229-8.504   c3.772,2.486,0.554,6.184,3.229,7.829C23.065,17.397,23.065,17.622,23.065,17.847z"
   id="path28" />
	<path
   fill-rule="evenodd"
   clip-rule="evenodd"
   fill="#B7B7B7"
   d="M39.917,29.805c-0.994,0.005-1.988,0.009-2.982,0.013   c-1.045-1.217-1.029-2.432,0.002-3.648c0.994,0.004,1.989,0.007,2.982,0.011C40.984,27.39,40.995,28.598,39.917,29.805z"
   id="path30" />
	<path
   fill-rule="evenodd"
   clip-rule="evenodd"
   fill="#A1A1A1"
   d="M11.091,29.816c-0.992-0.005-1.986-0.009-2.979-0.014   c-1.091-1.205-1.079-2.412-0.004-3.621c0.995-0.004,1.989-0.008,2.981-0.012C12.118,27.385,12.136,28.6,11.091,29.816z"
   id="path32" />
	<path
   fill-rule="evenodd"
   clip-rule="evenodd"
   fill="#F4F4F4"
   d="M15.133,12.566c0.093-1.03,0.704-1.321,1.66-1.26   c0.834,0.054,1.134,0.575,1.156,1.261c0.03,0.915-0.374,1.561-1.401,1.559C15.523,14.125,15.162,13.491,15.133,12.566z"
   id="path34" />
	<path
   fill-rule="evenodd"
   clip-rule="evenodd"
   fill="#DCDCDC"
   d="M21.037,29.818c-0.663-0.001-1.325-0.002-1.988-0.003   c-1.07-1.213-1.062-2.426-0.001-3.64c0.662-0.001,1.326-0.001,1.988-0.002C22.073,27.388,22.084,28.603,21.037,29.818z"
   id="path36" />
	<path
   fill-rule="evenodd"
   clip-rule="evenodd"
   fill="#939393"
   d="M8.107,26.182c0.001,1.208,0.002,2.415,0.004,3.622   c-0.665,0.004-1.329,0.009-1.992,0.013c-0.002-1.217-0.002-2.433-0.004-3.649C6.78,26.172,7.444,26.177,8.107,26.182z"
   id="path38" />
	<path
   fill-rule="evenodd"
   clip-rule="evenodd"
   fill="#AFAFAF"
   d="M11.091,29.816c0-1.216,0-2.431-0.002-3.646   c0.664,0.001,1.325,0.002,1.987,0.003c1.034,1.213,1.048,2.427,0.002,3.641C12.415,29.814,11.755,29.815,11.091,29.816z"
   id="path40" />
	<path
   fill-rule="evenodd"
   clip-rule="evenodd"
   fill="#A9A9A9"
   d="M39.917,29.805c0-1.208,0.002-2.416,0.002-3.625   c0.665-0.002,1.33-0.004,1.994-0.007c1.062,1.213,1.072,2.425-0.002,3.637C41.247,29.809,40.582,29.807,39.917,29.805z"
   id="path42" />
	<path
   fill-rule="evenodd"
   clip-rule="evenodd"
   fill="#C5C5C5"
   d="M36.937,26.17c0,1.216-0.002,2.432-0.002,3.648   c-0.662-0.001-1.324-0.001-1.986-0.002c-1.047-1.215-1.033-2.429,0.002-3.643C35.611,26.172,36.274,26.171,36.937,26.17z"
   id="path44" />
	<path
   fill-rule="evenodd"
   clip-rule="evenodd"
   fill="#D1D1D1"
   d="M34.95,26.173c-0.002,1.214-0.002,2.429-0.002,3.643   c-0.662,0-1.326,0-1.989,0c-1.047-1.214-1.035-2.428,0.001-3.642C33.623,26.174,34.286,26.173,34.95,26.173z"
   id="path46" />
	<path
   fill-rule="evenodd"
   clip-rule="evenodd"
   fill="#DCDCDC"
   d="M32.96,26.174c0,1.214-0.001,2.428-0.001,3.642   c-0.664,0-1.327,0.001-1.989,0.001c-1.048-1.215-1.037-2.429,0-3.643C31.634,26.174,32.297,26.174,32.96,26.174z"
   id="path48" />
	<path
   fill-rule="evenodd"
   clip-rule="evenodd"
   fill="#E7E7E7"
   d="M30.97,26.174c0,1.214,0,2.429,0,3.643c-0.665,0-1.328,0-1.99,0   c-1.049-1.214-1.037-2.429,0-3.643C29.643,26.174,30.307,26.174,30.97,26.174z"
   id="path50" />
	<path
   fill-rule="evenodd"
   clip-rule="evenodd"
   fill="#F2F2F2"
   d="M28.979,26.174c0,1.215,0,2.429,0,3.643   c-0.664,0.002-1.326,0.004-1.989,0.006c-1.05-1.218-1.04-2.436,0.001-3.654C27.654,26.171,28.315,26.173,28.979,26.174z"
   id="path52" />
	<path
   fill-rule="evenodd"
   clip-rule="evenodd"
   fill="#FBFBFB"
   d="M26.991,26.169c-0.001,1.218-0.001,2.436-0.001,3.654   c-0.657,0-1.315-0.001-1.976-0.001c-1.063-1.217-1.057-2.434,0-3.652C25.673,26.17,26.333,26.17,26.991,26.169z"
   id="path54" />
	<path
   fill-rule="evenodd"
   clip-rule="evenodd"
   fill="#F3F3F3"
   d="M25.015,26.17c0,1.217,0,2.435,0,3.652   c-0.662-0.001-1.324-0.003-1.986-0.004c-1.076-1.214-1.068-2.429-0.002-3.644C23.689,26.172,24.353,26.171,25.015,26.17z"
   id="path56" />
	<path
   fill-rule="evenodd"
   clip-rule="evenodd"
   fill="#E8E8E8"
   d="M23.026,26.174c0,1.214,0,2.429,0.002,3.644   c-0.664,0-1.327,0-1.991,0c-0.001-1.215-0.001-2.43-0.001-3.645C21.699,26.173,22.364,26.173,23.026,26.174z"
   id="path58" />
	<path
   fill-rule="evenodd"
   clip-rule="evenodd"
   fill="#D1D1D1"
   d="M19.048,26.175c0,1.213,0,2.427,0.001,3.64   c-0.664,0-1.327,0-1.991,0c-1.069-1.213-1.061-2.427,0-3.641C17.72,26.174,18.383,26.174,19.048,26.175z"
   id="path60" />
	<path
   fill-rule="evenodd"
   clip-rule="evenodd"
   fill="#C6C6C6"
   d="M17.058,26.174c0,1.214,0,2.427,0,3.641   c-0.663,0-1.326-0.001-1.989-0.001c-1.081-1.213-1.071-2.426-0.001-3.64C15.729,26.174,16.394,26.174,17.058,26.174z"
   id="path62" />
	<path
   fill-rule="evenodd"
   clip-rule="evenodd"
   fill="#BBBBBB"
   d="M15.067,26.174c0,1.213,0.001,2.427,0.001,3.64   c-0.663,0-1.327,0-1.99,0c0-1.214-0.001-2.427-0.002-3.641C13.739,26.174,14.403,26.174,15.067,26.174z"
   id="path64" />
	<path
   fill-rule="evenodd"
   clip-rule="evenodd"
   fill="#878787"
   d="M47.881,26.177c0,1.209-0.002,2.417-0.003,3.626   c-0.662,0.001-1.324,0.003-1.987,0.005c-1.046-1.212-1.025-2.423,0.002-3.634C46.556,26.175,47.218,26.176,47.881,26.177z"
   id="path66" />
	<path
   fill-rule="evenodd"
   clip-rule="evenodd"
   fill="#939393"
   d="M45.893,26.174c-0.001,1.211-0.002,2.423-0.002,3.634   c-0.663,0-1.325,0.001-1.989,0.002c-1.051-1.213-1.037-2.425,0.002-3.636C44.567,26.174,45.229,26.174,45.893,26.174z"
   id="path68" />
	<path
   fill-rule="evenodd"
   clip-rule="evenodd"
   fill="#9E9E9E"
   d="M43.903,26.174c0,1.212-0.002,2.424-0.002,3.636   c-0.663,0-1.327,0-1.99,0.001c0-1.212,0.002-2.425,0.002-3.637C42.576,26.174,43.24,26.174,43.903,26.174z"
   id="path70" />
	<path
   fill-rule="evenodd"
   clip-rule="evenodd"
   fill="#E0E0E0"
   d="M23.065,17.847c-0.023-0.225-0.023-0.45,0-0.675   c1.949-0.004,3.899-0.007,5.85-0.011c0.055,0.232,0.055,0.465,0,0.697C26.965,17.854,25.015,17.851,23.065,17.847z"
   id="path72" />
	<path
   fill-rule="evenodd"
   clip-rule="evenodd"
   fill="#808080"
   d="M16.965,22.266c0.03,0.644,0.058,1.361-0.749,1.49   c-0.901,0.142-1.031-0.633-1.012-1.249c0.014-0.424,0.256-1.099,0.555-1.203C16.454,21.06,16.94,21.464,16.965,22.266z"
   id="path74" />
	<path
   fill-rule="evenodd"
   clip-rule="evenodd"
   fill="#DBDBDB"
   d="M23.986,22.295c0.04,0.675,0.062,1.425-0.739,1.587   c-0.807,0.163-1.13-0.413-1.167-1.172c-0.033-0.679-0.03-1.402,0.771-1.577C23.707,20.946,23.939,21.583,23.986,22.295z"
   id="path76" />
	<path
   fill-rule="evenodd"
   clip-rule="evenodd"
   fill="#D0D0D0"
   d="M30.944,22.314c-0.068,1.151-0.398,1.728-1.197,1.561   c-0.795-0.167-0.758-0.92-0.728-1.577c0.033-0.729,0.297-1.343,1.138-1.153C30.938,21.321,30.972,22.037,30.944,22.314z"
   id="path78" />
	<path
   fill-rule="evenodd"
   clip-rule="evenodd"
   fill="#747474"
   d="M36.796,23.752c-0.794-0.224-0.771-0.853-0.749-1.48   c0.029-0.791,0.515-1.179,1.193-0.942c0.294,0.103,0.534,0.763,0.548,1.179C37.806,23.113,37.671,23.789,36.796,23.752z"
   id="path80" />
	<path
   fill-rule="evenodd"
   clip-rule="evenodd"
   d="M46.771,35.058c0.006,14.619,0.014,29.238,0.02,43.855   c-0.882,0.619-1.645,0.416-2.326-0.338c-1.285-2.117-1.011-4.488-1.024-6.793c-0.053-8.304-0.081-16.609,0.007-24.912   c0.039-3.732-1.346-5.663-5.221-5.364c-0.327,0.025-0.66-0.002-0.991-0.01c-8.739-0.178-15.135-0.164-18.441-0.045   c-2.134,0.076-4.313,0.221-6.399-0.346c-1.064-0.289-2.819-0.32-1.974-2.359c10.728-0.517,21.452-0.09,29.915-0.236   c-8.559,0.355-19.381-0.678-30.193,0.458C10.751,51.96,11.226,64.95,9.96,77.935c-0.616,1.277-1.586,1.844-3.006,1.492   c-0.247-0.182-0.495-0.363-0.742-0.543C6.21,64.284,6.21,49.685,6.208,35.085c0.139-0.173,0.276-0.345,0.412-0.52   c0.578-0.36,1.217-0.519,1.886-0.592c0.665-0.081,1.335-0.106,2.007-0.118c0.912-0.035,1.824-0.047,2.738-0.068   c0.717-0.038,1.431-0.047,2.148-0.05c1-0.035,1.998-0.035,2.997-0.055c1.055-0.078,2.106-0.03,3.161-0.051   c2.744-0.074,5.487-0.089,8.23-0.027c1.637-0.016,3.275-0.069,4.912,0.019c1.852-0.005,3.707,0,5.561,0.042   c0.77,0.002,1.544,0.022,2.313,0.056c1.019,0.028,2.033,0.104,3.015,0.417C46.079,34.318,46.472,34.628,46.771,35.058z"
   id="path82" />
	<path
   fill-rule="evenodd"
   clip-rule="evenodd"
   fill="#909090"
   d="M8.104,87.804C7.11,87.8,6.115,87.796,5.121,87.792   c-0.06-1.775,0.044-3.535-0.652-5.277c-0.668-1.67-0.575-3.266,1.743-3.631l-0.087,0.029C7.689,81.673,10.645,84.124,8.104,87.804z   "
   id="path84" />
	<path
   fill-rule="evenodd"
   clip-rule="evenodd"
   fill="#919191"
   d="M4.13,31.188c0.662,0.002,1.322,0.005,1.983,0.007   c1.136,1.283,0.968,2.57,0.014,3.862l0.081,0.029C3.648,34.789,4.179,32.833,4.13,31.188z"
   id="path86" />
	<path
   fill-rule="evenodd"
   clip-rule="evenodd"
   fill="#959595"
   d="M44.974,78.983c0.605-0.023,1.213-0.047,1.818-0.07   c0.362,0.023,0.726,0.045,1.089,0.068c1.019,1.104,1.101,2.348,0.548,3.686c-0.909,1.588-0.004,3.734-1.561,5.121   c-1.32,0.006-2.642,0.01-3.963,0.016c-2.471-3.307,0.256-5.697,1.457-8.357C44.563,79.29,44.769,79.136,44.974,78.983z"
   id="path88" />
	<path
   fill-rule="evenodd"
   clip-rule="evenodd"
   fill="#8F8F8F"
   d="M46.771,35.058c-0.311-0.012-0.604-0.085-0.882-0.224   c-1.013-1.212-1.038-2.427-0.004-3.642c0.996,0.004,1.993,0.008,2.987,0.013C48.804,32.836,49.353,34.809,46.771,35.058z"
   id="path90" />
	<path
   fill-rule="evenodd"
   clip-rule="evenodd"
   fill="#878787"
   d="M47.891,82.96c-0.004-1.326-0.006-2.652-0.01-3.979   c0.671-0.004,1.339-0.008,2.011-0.012c-0.145,1.383,0.456,2.951-0.992,4.01C48.557,83.323,48.22,83.317,47.891,82.96z"
   id="path92" />
	<path
   fill-rule="evenodd"
   clip-rule="evenodd"
   fill="#EBEBEB"
   d="M29.979,34.832c-2.979,0-5.959,0-8.939,0   c-1.053-1.216-1.063-2.432,0.002-3.646c2.98-0.001,5.958-0.001,8.938-0.001C31.03,32.4,31.022,33.616,29.979,34.832z"
   id="path94" />
	<path
   fill-rule="evenodd"
   clip-rule="evenodd"
   fill="#B8B8B8"
   d="M40.916,34.826c-2,0.002-4.001,0.004-6.001,0.004   c-0.996-1.211-1.021-2.426-0.006-3.642c2.002,0.003,4.003,0.005,6.005,0.008C41.991,32.405,41.979,33.616,40.916,34.826z"
   id="path96" />
	<path
   fill-rule="evenodd"
   clip-rule="evenodd"
   fill="#E7E7E7"
   d="M34.909,31.188c0.002,1.214,0.004,2.428,0.006,3.642   c-1.645,0-3.289,0.002-4.936,0.002c0-1.215,0-2.432,0-3.646C31.622,31.187,33.267,31.188,34.909,31.188z"
   id="path98" />
	<path
   fill-rule="evenodd"
   clip-rule="evenodd"
   fill="#B2B2B2"
   d="M13.077,34.838c-0.994-0.004-1.99-0.008-2.984-0.01   c-1.061-1.211-1.074-2.423,0.004-3.633c0.994-0.004,1.988-0.008,2.983-0.012C14.126,32.402,14.108,33.621,13.077,34.838z"
   id="path100" />
	<path
   fill-rule="evenodd"
   clip-rule="evenodd"
   fill="#CCCCCC"
   d="M18.054,34.832c-0.994-0.002-1.99-0.004-2.985-0.006   c-1.069-1.211-1.081-2.423,0.002-3.633c0.995-0.002,1.991-0.004,2.985-0.006C19.093,32.402,19.075,33.618,18.054,34.832z"
   id="path102" />
	<path
   fill-rule="evenodd"
   clip-rule="evenodd"
   fill="#DCDCDC"
   d="M18.054,34.832c0-1.215,0.002-2.43,0.002-3.645   c0.996,0,1.991-0.001,2.986-0.001c0,1.215-0.001,2.43-0.002,3.646C20.045,34.832,19.05,34.832,18.054,34.832z"
   id="path104" />
	<path
   fill-rule="evenodd"
   clip-rule="evenodd"
   fill="#9E9E9E"
   d="M45.885,31.192c0.002,1.214,0.003,2.428,0.004,3.642   c-0.993,0.002-1.987,0.004-2.979,0.004c-1.041-1.216-1.057-2.435-0.004-3.653C43.897,31.188,44.892,31.189,45.885,31.192z"
   id="path106" />
	<path
   fill-rule="evenodd"
   clip-rule="evenodd"
   fill="#ABABAB"
   d="M42.905,31.185c0.002,1.218,0.002,2.436,0.004,3.653   c-0.666-0.004-1.328-0.008-1.993-0.012c0-1.209-0.002-2.42-0.002-3.63C41.577,31.192,42.241,31.188,42.905,31.185z"
   id="path108" />
	<path
   fill-rule="evenodd"
   clip-rule="evenodd"
   fill="#BFBFBF"
   d="M15.07,31.193c0,1.211-0.002,2.422-0.002,3.633   c-0.663,0.004-1.327,0.008-1.991,0.012c0.001-1.218,0.001-2.437,0.003-3.654C13.743,31.187,14.407,31.19,15.07,31.193z"
   id="path110" />
	<path
   fill-rule="evenodd"
   clip-rule="evenodd"
   fill="#A6A6A6"
   d="M10.097,31.195c-0.002,1.211-0.002,2.421-0.004,3.633   c-0.664,0.002-1.328,0.004-1.992,0.006c-1.068-1.215-1.082-2.43,0.003-3.643C8.769,31.192,9.431,31.194,10.097,31.195z"
   id="path112" />
	<path
   fill-rule="evenodd"
   clip-rule="evenodd"
   fill="#9B9B9B"
   d="M8.104,31.191c-0.001,1.214-0.002,2.428-0.003,3.643   c-0.658,0.074-1.316,0.146-1.974,0.22c-0.005-1.286-0.01-2.573-0.014-3.86C6.776,31.193,7.44,31.192,8.104,31.191z"
   id="path114" />
	<path
   fill-rule="evenodd"
   clip-rule="evenodd"
   fill="#FEFEFE"
   d="M9.012,78.983c0.022-11.822,0.002-23.645,0.131-35.465   c0.017-1.442-1.103-3.3,0.894-4.401l-0.037-0.063c2.285,1.884,4.969,0.83,7.445,0.882c7.562,0.16,7.563,0.059,7.563,7.87   c0,4.138-0.181,8.288,0.069,12.41c0.143,2.37-0.664,4.077-2.174,5.661c-0.788,2.338-3.041,2.145-4.801,2.822   c-0.986,0.381-2.506,0.143-2.583,1.713c-0.042,0.838,0.681,1.521,1.448,1.832c1.361,0.549,2.088-0.516,2.837-1.361   c1.282-1.449,2.175-3.332,4.313-3.795c2.63-1.035,5.259-2.07,7.888-3.107c0.604-0.864,1.623-1.066,2.459-1.561   c1.828-1.076,2.053-2.909,0.887-4.195c-1.641-1.806-2.412,0.477-3.291,1.377c-1.244,1.271-2.064,3.018-4.068,3.348   c-2.301-4.979-0.709-10.217-0.914-15.321c-0.306-7.625-0.079-7.633,7.67-7.633c10.166,0,10.158,0,10.168,10.174   c0.01,9.606,0.039,19.208,0.059,28.813l-0.076-0.252l-0.262,0.021c-0.584,1-1.563,1.248-2.6,1.389   c-0.762,0.094-1.528,0.109-2.294,0.111c-1.013,0.045-2.025,0.02-3.038,0.033c-1.234,0.043-2.471,0.029-3.703,0.041   c-2.352-0.076-3.625,0.967-3.705,3.428c-0.047,1.449-0.107,2.949-1.32,4.039c-0.985,0.002-1.971,0.004-2.957,0.006   c-2.556-1.834,0.399-5.986-3.104-7.412c-0.675-0.064-1.348-0.102-2.023-0.129c-0.928-0.004-1.854-0.016-2.779-0.023   c-1.171-0.002-2.34-0.029-3.51-0.047c-0.701,0.006-1.4-0.033-2.1-0.102c-0.707-0.064-1.385-0.236-2.008-0.592   C9.332,79.327,9.172,79.155,9.012,78.983z"
   id="path116" />
	<path
   fill-rule="evenodd"
   clip-rule="evenodd"
   fill="#E8E8E8"
   d="M27.976,87.794c0.004-1.326,0.178-2.682-0.016-3.979   c-0.615-4.127,1.284-5.424,5.063-4.791c1.821,3.193,0.684,6.021-1.071,8.773C30.626,87.798,29.301,87.796,27.976,87.794z"
   id="path118" />
	<path
   fill-rule="evenodd"
   clip-rule="evenodd"
   fill="#CECECE"
   d="M31.951,87.798c0.356-2.924,0.714-5.85,1.071-8.773   c1.322,0.02,2.646,0.037,3.967,0.057c1.826,3.17,0.642,5.973-1.051,8.713C34.61,87.796,33.28,87.798,31.951,87.798z"
   id="path120" />
	<path
   fill-rule="evenodd"
   clip-rule="evenodd"
   fill="#C3C3C3"
   d="M13.033,79.085c1.321,0,2.644-0.002,3.965-0.002   c2.036,2.889,2.05,5.793,0.063,8.713c-0.996-0.002-1.991-0.004-2.986-0.006C12.5,85.038,11.159,82.257,13.033,79.085z"
   id="path122" />
	<path
   fill-rule="evenodd"
   clip-rule="evenodd"
   fill="#BEBEBE"
   d="M35.938,87.794c0.352-2.904,0.701-5.809,1.051-8.713   c0.994,0.008,1.986,0.016,2.98,0.023c1.873,3.164,0.528,5.938-1.045,8.684C37.93,87.79,36.935,87.792,35.938,87.794z"
   id="path124" />
	<path
   fill-rule="evenodd"
   clip-rule="evenodd"
   fill="#F0F0F0"
   d="M22.011,78.983c2.035-0.154,3.102,0.648,3.008,2.844   c-0.083,1.988-0.006,3.982,0,5.973c-0.994-0.004-1.99-0.006-2.984-0.008C20.038,84.86,20.132,81.925,22.011,78.983z"
   id="path126" />
	<path
   fill-rule="evenodd"
   clip-rule="evenodd"
   fill="#D4D4D4"
   d="M17.062,87.796c-0.021-2.906-0.043-5.811-0.063-8.715   c1.002-0.02,2.004-0.041,3.007-0.063c1.536,2.922,1.509,5.848,0.037,8.781C19.05,87.798,18.056,87.796,17.062,87.796z"
   id="path128" />
	<path
   fill-rule="evenodd"
   clip-rule="evenodd"
   fill="#A4A4A4"
   d="M41.954,79.14c0.895-0.129,1.789-0.258,2.683-0.387   c1.28,3.375-2.906,5.695-1.731,9.051c-0.662-0.004-1.324-0.008-1.986-0.01C38.883,84.622,40.794,81.927,41.954,79.14z"
   id="path130" />
	<path
   fill-rule="evenodd"
   clip-rule="evenodd"
   fill="#9E9E9E"
   d="M8.104,87.804c1.004-3.338-2.686-5.621-1.979-8.891   c0.962,0.023,1.925,0.047,2.887,0.07l0.087-0.252l0.263,0.031c1.222,2.932,3.047,5.813,0.731,9.033   C9.429,87.798,8.767,87.802,8.104,87.804z"
   id="path132" />
	<path
   fill-rule="evenodd"
   clip-rule="evenodd"
   fill="#B5B5B5"
   d="M13.033,79.085c0.349,2.902,0.695,5.805,1.042,8.705   c-0.664,0.004-1.328,0.006-1.993,0.008c-0.91-2.824-2.73-5.539-1.033-8.676C11.71,79.11,12.372,79.099,13.033,79.085z"
   id="path134" />
	<path
   fill-rule="evenodd"
   clip-rule="evenodd"
   fill="#A9A9A9"
   d="M11.049,79.122c0.344,2.891,0.688,5.783,1.033,8.676   c-0.664,0-1.327-0.002-1.989-0.002c0.619-3.082-1.633-5.928-0.732-9.033C9.923,78.882,10.487,79.001,11.049,79.122z"
   id="path136" />
	<path
   fill-rule="evenodd"
   clip-rule="evenodd"
   fill="#E2E2E2"
   d="M20.043,87.8c-0.012-2.928-0.023-5.855-0.036-8.781   c0.668-0.012,1.336-0.023,2.004-0.037c0.008,2.938,0.016,5.873,0.023,8.811C21.37,87.794,20.706,87.796,20.043,87.8z"
   id="path138" />
	<path
   fill-rule="evenodd"
   clip-rule="evenodd"
   fill="#AFAFAF"
   d="M41.954,79.14c-0.345,2.885-0.689,5.77-1.035,8.654   c-0.664-0.002-1.33-0.004-1.994-0.006c0.348-2.895,0.695-5.789,1.044-8.684C40.63,79.116,41.292,79.128,41.954,79.14z"
   id="path140" />
	<path
   fill-rule="evenodd"
   clip-rule="evenodd"
   fill="#7E7E7E"
   d="M47.891,82.96c0.337,0.006,0.673,0.012,1.009,0.018   c-0.004,1.609-0.008,3.219-0.012,4.826c-0.674-0.006-1.346-0.01-2.02-0.016C47.142,86.165,46.25,84.294,47.891,82.96z"
   id="path142" />
	<path
   fill-rule="evenodd"
   clip-rule="evenodd"
   fill="#7D7D7D"
   d="M10.036,39.117c0.225-0.714,0.745-1.068,1.459-1.068   c10.883-0.01,21.766-0.006,32.654,1.006c-11.384,0-22.768,0-34.15,0L10.036,39.117z"
   id="path144" />
	<path
   fill-rule="evenodd"
   clip-rule="evenodd"
   fill="#FEFEFE"
   d="M27.575,36.226c5.527,0,11.053,0,16.58,0   c0.008,0.139,0.014,0.279,0.021,0.417c-5.468,0-10.936,0-16.402,0C27.708,36.505,27.642,36.364,27.575,36.226z"
   id="path146" />
	<path
   fill-rule="evenodd"
   clip-rule="evenodd"
   fill="#FEFEFE"
   d="M9.542,36.253c5.002,0,10.002,0,15.003,0   c0,0.164,0,0.326,0.001,0.49c-5,0-10.002,0-15.002,0C9.543,36.579,9.542,36.417,9.542,36.253z"
   id="path148" />
</g>
</svg>
