<?xml version="1.0" encoding="UTF-8" standalone="no"?>
<svg
   xmlns:dc="http://purl.org/dc/elements/1.1/"
   xmlns:cc="http://creativecommons.org/ns#"
   xmlns:rdf="http://www.w3.org/1999/02/22-rdf-syntax-ns#"
   xmlns:svg="http://www.w3.org/2000/svg"
   xmlns="http://www.w3.org/2000/svg"
   xmlns:sodipodi="http://sodipodi.sourceforge.net/DTD/sodipodi-0.dtd"
   xmlns:inkscape="http://www.inkscape.org/namespaces/inkscape"
   version="1.1"
   id="图层_1"
   x="0px"
   y="0px"
   width="93px"
   height="66px"
   viewBox="0 0 93 66"
   enable-background="new 0 0 93 66"
   xml:space="preserve"
   sodipodi:docname="罐体_25-01.svg"><metadata
   id="metadata159"><rdf:RDF><cc:Work
       rdf:about=""><dc:format>image/svg+xml</dc:format><dc:type
         rdf:resource="http://purl.org/dc/dcmitype/StillImage" /></cc:Work></rdf:RDF></metadata><defs
   id="defs157" /><sodipodi:namedview
   pagecolor="#ffffff"
   bordercolor="#666666"
   borderopacity="1"
   objecttolerance="10"
   gridtolerance="10"
   guidetolerance="10"
   inkscape:pageopacity="0"
   inkscape:pageshadow="2"
   inkscape:window-width="640"
   inkscape:window-height="480"
   id="namedview155" />
<g
   id="g152">
	<path
   fill-rule="evenodd"
   clip-rule="evenodd"
   fill="#040404"
   d="M25.419,14.115c2.581,0.486,1.926,2.087,1.932,3.403   c0.029,7.414,0.293,14.837-0.137,22.236c-0.15,2.566,2.666,2.512,3.727,3.874c0.575-1.92,5.797-0.584,4.512-4.042   c-1.131-3.041,0.369-4.83,5.053-4.132c1.416,0.21,3.006,0.313,2.92-1.59c-0.092-1.997-1.873-1.37-3.169-1.417   c-6.897-0.253-7.187-0.248-6.825-5.473c0.457-6.63-1.482-13.153-1.042-19.756c0.058-0.861-0.801-2.513,1.304-2.341   c5.857,0.479,11.165-2.956,16.902-1.519c3.479,0.872,6.794,1.707,10.47,1.46c0.758-0.051,1.303,0.272,1.309,0.856   c0.029,3.067,1.3,6.662-0.362,9.052c-1.644,2.362-1.225,4.412-1.558,6.61c-0.19,1.261-0.006,2.554-0.041,3.832   c-0.061,2.281,0.859,5.079-0.535,6.696c-1.369,1.587-5.245,0.391-8.01,0.542c-1.424,0.078-2.54,0.006-2.522,1.571   c0.017,1.583,1.222,1.689,2.573,1.485c5.284-0.802,6.356,1.347,5.461,4.635c-1.096,4.012,5.236,0.97,5.535,3.549   c0.584-1.532,3.84-0.997,3.668-3.609c-0.486-7.395-0.186-14.82-0.158-22.234c0.006-1.453-0.654-3.161,1.994-3.827   c1.213,0.022,2.207,0.335,2.777,1.215c1.4,5.542,0.343,11.145,0.658,16.717c0.072,1.27,0.006,2.542,0.012,3.813   c0.029,5.649,0.029,5.649,6.997,6.097c1.207,0.408,1.511,1.222,1.624,2.12c-0.324,1.497,0.872,3.328-1.638,4.341   c4.007,1.127,6.158-0.086,6.548-3.196c0.144-1.132,0.915-1.18,1.978-1.118c1.206,0.07,1.077,0.796,1.077,1.396   c0.014,6.257,0.01,12.513,0.002,18.771c0,0.656-0.088,1.252-1.25,1.295c-1.215,0.043-1.543-0.348-1.863-1.266   c-0.361-1.037-0.276-2.797-2.71-2.52c-2.03,0.23-1.044,1.6-1.127,2.457c-0.094,0.969-0.548,1.279-1.771,1.344   c-7.838,0.412-15.67,0.811-23.506-0.008c-0.816-0.084-1.928-0.01-1.766-0.889c0.75-4.064-3.113-2.836-5.708-2.932   c-2.661-0.096-5.333-0.045-8-0.008c-0.9,0.014-2.459-0.26-2.27,0.84c0.697,4.057-3.14,2.594-5.692,3.031   c-6.21,1.063-12.345,0.223-18.519-0.016c-1.85-0.072-3.335-0.041-2.973-1.971c0.201-1.072,0.082-1.916-1.962-1.953   c-1.928-0.037-3.127,0.385-3.646,1.771c-0.442,1.184-0.515,2.508-2.956,2.135c-2.428-0.371-1.352-1.795-1.372-2.715   c-0.117-5.359-0.117-10.726,0-16.087c0.02-0.923-1.044-2.344,1.354-2.723c2.409-0.381,2.682,0.892,2.936,2.119   c0.773,3.729,4.381,2.249,7.391,2.485c-2.766-1.754-1.789-3.553-0.756-5.355c1.192-0.45,2.148-1.217,3.467-1.516   c5.82-0.062,6.106-0.244,6.152-4.742c0.062-5.853-0.003-11.706,0.028-17.559c0.008-1.395-0.087-2.807,0.651-4.141   C23.135,14.241,24.375,14.325,25.419,14.115z"
   id="path2" />
	<path
   fill-rule="evenodd"
   clip-rule="evenodd"
   fill="#676767"
   d="M80.486,43.938c-1.102-0.229-0.977-0.938-1.049-1.569   c-1.145-1.064-0.209-1.902,0.571-2.705c0.987-1.018,2.259-1.865,3.188-2.92c1.574-1.783,4.65-3.131,4.818-5.178   c0.172-2.105-3.642-2.603-5.281-4.159c-1.408-1.335-2.805-2.577-1.471-4.406c1.135-1.091,0.994-2.444,1.267-3.712   c0.073-0.319,0.189-0.63,0.321-0.938c0.617-1.221,0.422-2.536,0.73-3.795c0.079-0.329,0.198-0.647,0.328-0.965   c0.635-1.29,0.182-2.758,1.116-4.001c0.36-0.291,0.786-0.375,1.285-0.255c0.396,0.265,0.599,0.594,0.62,0.995   c-0.217,1.759,0.508,3.563-0.459,5.281l0.059-0.085c-1.562,1.937,0.295,4.224-1.078,6.181c-1.189,3.907,2.865,5.623,5.714,7.73   c1.968,1.457,2.681,2.41,0.474,4.24C87.703,36.939,84.182,40.501,80.486,43.938z"
   id="path4" />
	<path
   fill-rule="evenodd"
   clip-rule="evenodd"
   fill="#676767"
   d="M14.337,42.368c0.198,1.592-0.97,1.128-2.049,0.799   c-3.711-3.446-7.304-6.971-11.189-10.298c-1.63-1.396-1.381-2.155,0.307-3.246c2.386-1.542,4.6-3.24,6.889-4.872   c1.184-0.596-0.296-2.361,1.883-2.522c2.512,0.975,1.877,2.417,0.909,3.85c-0.925,1.368-2.383,2.434-3.839,3.455   c-2.168,1.52-2.07,3.016-0.236,4.612c1.965,1.71,3.676,3.577,5.617,5.306C13.553,40.274,14.931,40.998,14.337,42.368z"
   id="path6" />
	<path
   fill-rule="evenodd"
   clip-rule="evenodd"
   fill="#676767"
   d="M70.47,14.777c-0.825-0.054-1.751,0.042-2.052-0.801   c5.395-4.294,9.711-9.365,16-13.014c2.615-0.479,5.435-1.161,4.06,2.371l0.102-0.017C87.766,3.682,86.631,3.5,86.023,4.22   c-3.654,3.284-7.797,6.194-11.775,9.225C73.246,14.206,72.264,15.231,70.47,14.777z"
   id="path8" />
	<path
   fill-rule="evenodd"
   clip-rule="evenodd"
   fill="#676767"
   d="M25.419,14.115c-0.463,0.672-1.313,0.622-2.112,0.662   c-1.802,0.454-2.79-0.573-3.789-1.341c-3.978-3.053-8.187-5.933-11.796-9.248C7.121,3.5,5.994,3.685,5.199,3.316L5.3,3.333   C4.304,1.158,4.966,0.139,8.187,0.898C13.562,5.585,19.328,9.975,25.419,14.115z"
   id="path10" />
	<path
   fill-rule="evenodd"
   clip-rule="evenodd"
   d="M7.356,15.52c-2.322-1.855-0.452-4.11-0.999-6.134   c-0.002-0.169-0.006-0.338-0.01-0.508c0.141-1.35-0.398-2.768,0.684-4.027c0.405-0.232,0.839-0.26,1.301-0.112   c1.822,1.602,1.115,3.484,1.023,5.299c-0.068,0.354-0.184,0.704-0.316,1.047c-0.717,1.299-0.339,2.791-1.188,4.069   C7.687,15.277,7.522,15.398,7.356,15.52z"
   id="path12" />
	<path
   fill-rule="evenodd"
   clip-rule="evenodd"
   d="M8.357,21.659c-2.324-1.855-0.448-4.113-1.001-6.139l-0.049,0.045   c1.342-1.419-0.251-3.222,1.036-4.649l-0.051,0.041c3.412,0.683,1.896,2.766,2.127,4.355c-0.06,0.379-0.174,0.753-0.314,1.119   c-0.859,1.542-0.232,3.314-1.232,4.839C8.703,21.401,8.53,21.53,8.357,21.659z"
   id="path14" />
	<path
   fill-rule="evenodd"
   clip-rule="evenodd"
   d="M85.452,3.291c1.077-2.482,2.086-0.15,3.127,0.026   c-0.817,1.973,1.191,4.263-1.155,6.064c-0.155-0.122-0.311-0.243-0.469-0.363c-0.786-1.067-0.484-2.305-0.924-3.425   c-0.127-0.312-0.211-0.631-0.275-0.952C85.716,4.183,85.984,3.685,85.452,3.291z"
   id="path16" />
	<path
   fill-rule="evenodd"
   clip-rule="evenodd"
   d="M5.199,3.316c1.04-0.174,2.049-2.509,3.127-0.026   C7.722,3.697,8.144,4.511,7.292,4.819l0.051-0.041C6.001,6.197,7.591,8,6.305,9.427l0.052-0.041   C4.005,7.583,6.015,5.291,5.199,3.316z"
   id="path18" />
	<path
   fill-rule="evenodd"
   clip-rule="evenodd"
   d="M10.189,22.388c-1.404,0.425-0.247,2.054-1.895,2.363   c0.02-1.03,0.041-2.062,0.063-3.092l-0.049,0.045c1.396-1.688-0.305-3.723,1.037-5.416l-0.051,0.041   C12.989,18.055,12.076,20.179,10.189,22.388z"
   id="path20" />
	<path
   fill-rule="evenodd"
   clip-rule="evenodd"
   d="M88.478,3.333c0.476-2.627-1.851-2.442-4.06-2.371   c1.35-1.385,3.354-1.048,4.619-0.396C89.85,0.984,90.148,2.568,88.478,3.333z"
   id="path22" />
	<path
   fill-rule="evenodd"
   clip-rule="evenodd"
   d="M86.473,15.61c0.006-2.077,0.01-4.153,0.014-6.23   c0.173-0.095,0.346-0.191,0.518-0.286c0.156,0.109,0.315,0.219,0.472,0.328L87.424,9.38C86.939,11.442,88.626,13.698,86.473,15.61z   "
   id="path24" />
	<path
   fill-rule="evenodd"
   clip-rule="evenodd"
   d="M85.453,21.706c0.539-2.041-1.213-4.318,1.078-6.181   C85.836,17.551,87.684,19.837,85.453,21.706z"
   id="path26" />
	<path
   fill-rule="evenodd"
   clip-rule="evenodd"
   d="M8.187,0.898C5.808,0.725,5.024,1.66,5.3,3.333   c-1.697-0.74-1.316-2.125-0.578-2.771C5.419-0.048,7.222-0.403,8.187,0.898z"
   id="path28" />
	<path
   fill-rule="evenodd"
   clip-rule="evenodd"
   fill="#FEFEFE"
   d="M10.189,22.388c-0.334-2.017,1.369-4.209-0.895-6.059   c-0.41-1.782,1.124-3.777-1.002-5.372C7.744,8.932,9.617,6.674,7.292,4.819C7.438,4.231,6.96,3.395,8.326,3.291   c4.603,4.127,9.609,7.947,14.981,11.486c0.012,8.041,0.03,16.081,0.032,24.123c0.002,3.651-0.945,4.217-5.51,3.523   c-1.125-0.17-2.326-0.045-3.492-0.055c-3.01-2.822-5.875-5.745-9.078-8.429c-2.22-1.858-1.898-3.137,0.508-4.589   c1.432-0.863,2.751-1.887,3.875-2.985C10.843,25.194,11.966,23.866,10.189,22.388z"
   id="path30" />
	<path
   fill-rule="evenodd"
   clip-rule="evenodd"
   fill="#FEFEFE"
   d="M85.452,3.291c1.363,0.104,0.887,0.939,1.034,1.528   c-0.3,1.535,0.621,3.247-1.131,4.571l0.074-0.052c-1.279,1.439,0.332,3.263-1.061,4.688l0.06-0.084   c-1.28,1.439,0.331,3.263-1.062,4.688l0.061-0.084c-1.26,1.439,0.283,3.236-1.013,4.671c-2.593,3.158,1.759,3.945,3.503,5.074   c4.896,3.167,4.809,2.806,0.885,6.699c-2.464,2.445-6.104,4.235-7.365,7.379c-1.71,0.455-4.05-0.938-5.239,1.047   c-1.155-1.187-4.028-0.727-3.904-3.372c0.394-8.412,0.164-16.843,0.176-25.266C75.842,11.236,80.849,7.418,85.452,3.291z"
   id="path32" />
	<path
   fill-rule="evenodd"
   clip-rule="evenodd"
   fill="#F9F9F9"
   d="M76.242,55.007c-0.002,6.494-0.002,6.494-8.465,6.561   c-9.351,0.074-9.351,0.074-9.351-7.027c0-6.75,0-6.75,8.714-6.757C76.244,47.775,76.244,47.775,76.242,55.007z"
   id="path34" />
	<path
   fill-rule="evenodd"
   clip-rule="evenodd"
   fill="#FAFAFA"
   d="M32.552,54.806c0,6.787,0,6.787-8.646,6.768   c-8.563-0.02-8.563-0.02-8.563-6.834c0-6.856,0-6.856,7.904-6.946C32.552,47.688,32.552,47.688,32.552,54.806z"
   id="path36" />
	<path
   fill-rule="evenodd"
   clip-rule="evenodd"
   fill="#F7F7F7"
   d="M45.871,49.661c1.326,0,2.656-0.002,3.984,0   c6.52,0,6.52,0,6.534,4.84c0.015,4.957,0.015,4.959-6.501,4.961c-3.32,0-6.662-0.182-9.955,0.049   c-3.6,0.252-4.796-0.926-4.486-3.457c0.031-0.252-0.03-0.51-0.039-0.764c-0.188-5.629-0.187-5.629,6.975-5.629   C43.544,49.661,44.707,49.661,45.871,49.661z"
   id="path38" />
	<path
   fill-rule="evenodd"
   clip-rule="evenodd"
   fill="#B8B8B8"
   d="M58.43,22.75c1.27,2.316,0.279,4.74,0.572,7.103   c0.182,1.463-1.111,1.64-2.541,1.643c-6.307,0.018-12.615,0.001-18.92,0.056c-2.061,0.018-3.135-0.504-2.846-2.209   c0.373-2.209-0.753-4.515,0.702-6.66c3.165,1.233,3.919,4.513,7.644,5.265c2.313,0.707,4.635,0.589,6.963,0.045   C54.059,27.417,55.328,24.217,58.43,22.75z"
   id="path40" />
	<path
   fill-rule="evenodd"
   clip-rule="evenodd"
   fill="#686868"
   d="M58.43,22.75c-1.006,3.32-3.694,5.273-8.088,5.839   c-2.639,0.597-5.277,0.597-7.915,0c-3.779-0.966-6.03-3-7.03-5.908c-0.044-0.841-0.088-1.683-0.133-2.525   c2.222-0.441,2.661,1.67,4.47,1.819c0.421,0.106,0.801,0.271,1.145,0.481c0.887,0.716,1.804,1.402,3.059,1.748   c1.992,0.504,3.966,0.571,5.91-0.115c2.024-0.706,3.247-2.135,4.871-3.198c2.248-1.311,1.413-3.9,3.674-5.202   C61.16,18.035,57.381,20.399,58.43,22.75z"
   id="path42" />
	<path
   fill-rule="evenodd"
   clip-rule="evenodd"
   fill="#C8C8C8"
   d="M7.171,54.226c0.998-1.632-1.873-5.205,3.991-4.717   c1.101,0.092,1.987,0.219,1.989,1.219c0.002,2.787-0.016,5.57-0.064,8.357c-0.027,1.523-1.521,1.352-2.844,1.389   c-1.445,0.041-2.652-0.072-2.71-1.52C7.472,57.433,7.305,55.917,7.171,54.226z"
   id="path44" />
	<path
   fill-rule="evenodd"
   clip-rule="evenodd"
   fill="#C6C6C6"
   d="M83.383,55.544c-1.039,1.238,1.895,4.678-2.268,4.75   c-4.848,0.086-1.803-3.5-2.662-5.342c-0.467-1.004,0.047-2.262,0.049-3.407c0-1.312,0.411-2.079,2.514-2.077   c2.24,0,2.352,0.98,2.365,2.188C83.395,52.801,83.383,53.944,83.383,55.544z"
   id="path46" />
	<path
   fill-rule="evenodd"
   clip-rule="evenodd"
   fill="#686868"
   d="M58.472,12.219c-0.329,0.095-0.657,0.189-0.985,0.283   c-2.739,0.707-3.736-2.243-6.364-1.77c-0.897-0.002-1.7-0.234-2.451-0.583c-1.316-0.65-2.789-0.614-4.264-0.559   c-3.157-0.258-4.933,2.203-7.88,2.35c-2.012-1-1.391-1.96,0.063-2.914c1.317-0.875,2.503-1.869,3.925-2.654   c4.38-0.747,8.714-1.021,12.854,0.725C56.869,7.752,58.119,9.724,58.472,12.219z"
   id="path48" />
	<path
   fill-rule="evenodd"
   clip-rule="evenodd"
   fill="#EFEFEF"
   d="M68.424,15.812c0,9.231,0,18.463,0,27.694   c-0.24-0.007-0.479-0.013-0.719-0.019c0-9.242,0-18.484,0-27.726C67.944,15.778,68.184,15.795,68.424,15.812z"
   id="path50" />
	<path
   fill-rule="evenodd"
   clip-rule="evenodd"
   fill="#E8E8E8"
   d="M25.394,15.812c0,9.216,0,18.432,0,27.648   c-0.266-0.003-0.531-0.007-0.797-0.01c0-9.228,0-18.457,0-27.686C24.863,15.78,25.128,15.795,25.394,15.812z"
   id="path52" />
	<path
   fill-rule="evenodd"
   clip-rule="evenodd"
   fill="#BCBCBC"
   d="M24.703,62.218c3.494,0.121,6.987,0.23,10.479,0.369   c0.837,0.035,1.728,0.137,1.597,1.051c-0.094,0.66-0.813,0.717-1.466,0.771c-0.827,0.066-1.685,0.211-2.486,0.115   c-5.696-0.695-11.374-0.465-17.078-0.043c-0.996,0.074-3.11,0.594-2.896-1.146c0.156-1.266,1.852-0.801,2.859-0.832   c2.99-0.092,5.99-0.033,8.986-0.033C24.701,62.386,24.701,62.302,24.703,62.218z"
   id="path54" />
	<path
   fill-rule="evenodd"
   clip-rule="evenodd"
   fill="#BCBCBC"
   d="M67.814,62.214c3.492,0.123,6.986,0.236,10.478,0.377   c0.845,0.033,1.71,0.152,1.565,1.064c-0.107,0.678-0.848,0.695-1.484,0.754c-0.826,0.074-1.686,0.217-2.486,0.117   c-5.695-0.705-11.374-0.471-17.072-0.031c-0.986,0.074-2.697,0.375-2.867-0.814c-0.244-1.719,1.809-1.123,2.881-1.166   c2.987-0.123,5.988-0.043,8.982-0.043C67.813,62.386,67.814,62.3,67.814,62.214z"
   id="path56" />
	<path
   fill-rule="evenodd"
   clip-rule="evenodd"
   fill="#717171"
   d="M36.24,11.679c2.7-1.093,4.631-3.424,8.266-3.012   c0.268,0.284,0.327,0.591,0.184,0.923c-0.725,1.033-1.936,1.755-2.885,2.646c-0.893,0.737-1.373,1.665-1.979,2.534   c-0.205,0.295-0.437,0.578-0.67,0.857c-0.889,1.47-0.67,2.909,0.205,4.33c0.436,0.83,1.025,1.662,0.018,2.493   c-2.672,0.604-2.443-1.844-4.113-2.294c-2.54-2.84,0.677-5.631,0.119-8.455C35.656,11.387,35.941,11.379,36.24,11.679z"
   id="path58" />
	<path
   fill-rule="evenodd"
   clip-rule="evenodd"
   fill="#C1C1C1"
   d="M35.855,46.271c-7.086,0.998-14.168,0.86-21.253,0.55   c-0.761-0.033-1.766,0.106-1.834-0.831c-0.04-0.548,0.171-0.996,1.089-0.893C21.162,45.926,28.623,44.523,35.855,46.271z"
   id="path60" />
	<path
   fill-rule="evenodd"
   clip-rule="evenodd"
   fill="#C1C1C1"
   d="M78.962,46.209c-7.192,1.087-14.405,0.905-21.624,0.602   c-0.918-0.039-1.646-0.224-1.483-1.087c0.123-0.656,0.609-0.589,1.385-0.535C64.469,45.689,71.773,44.813,78.962,46.209z"
   id="path62" />
	<path
   fill-rule="evenodd"
   clip-rule="evenodd"
   fill="#545454"
   d="M53.429,47.854c0-3.82-0.019-6.722,0.012-9.624   c0.008-0.87-0.072-1.929,1.69-1.78c1.359,0.115,1.092,1.043,1.254,1.76C57.107,41.399,55.312,44.159,53.429,47.854z"
   id="path64" />
	<path
   fill-rule="evenodd"
   clip-rule="evenodd"
   fill="#989898"
   d="M58.472,12.219c-1.196-2.001-3.308-3.469-5.103-5.123   c0.156-2.478,2.542-1.311,4.045-1.375c2.03-0.086,1.859,1.184,1.723,2.149C58.931,9.32,59.934,10.887,58.472,12.219z"
   id="path66" />
	<path
   fill-rule="evenodd"
   clip-rule="evenodd"
   fill="#F4F4F4"
   d="M45.435,33.32c0.486,0.038,1.363,0.003,1.4,0.122   c1.227,3.921,1.227,7.857,0.001,11.778c-0.038,0.12-0.915,0.086-1.401,0.123C44.55,41.335,44.552,37.328,45.435,33.32z"
   id="path68" />
	<path
   fill-rule="evenodd"
   clip-rule="evenodd"
   fill="#6E6E6E"
   d="M51.391,10.171c3.484-1.45,3.682,2.142,6.096,2.331   c0.053,1.104-0.691,2.341,0.905,3.188c-0.792,2.058-0.071,4.559-2.991,5.994c-0.569-0.382-0.712-0.881-0.678-1.428   c0.395-1.646,0.791-3.295,0.028-4.947c-0.182-0.3-0.347-0.604-0.531-0.903C53.614,12.862,50.703,12.217,51.391,10.171z"
   id="path70" />
	<path
   fill-rule="evenodd"
   clip-rule="evenodd"
   fill="#545454"
   d="M37.776,47.117c-1.001-3.447-2.198-6.898,0-10.528   C37.776,40.095,37.776,43.599,37.776,47.117z"
   id="path72" />
	<path
   fill-rule="evenodd"
   clip-rule="evenodd"
   fill="#878787"
   d="M36.24,11.679l-0.428-0.001l-0.428,0.024   c-1.839-1.482-1.059-3.362-0.715-4.904c0.428-1.912,2.322-1.406,3.861-0.458c1.094,1.308-0.52,2.032-1.096,2.979   C36.882,10.059,35.181,10.459,36.24,11.679z"
   id="path74" />
	<path
   fill-rule="evenodd"
   clip-rule="evenodd"
   fill="#5A5A5A"
   d="M42.441,38.155c1.125,2.58,1.194,5.164-0.021,7.76   C41.005,43.37,41.144,40.776,42.441,38.155z"
   id="path76" />
	<path
   fill-rule="evenodd"
   clip-rule="evenodd"
   fill="#C1C1C1"
   d="M45.435,33.32c0,4.008,0,8.015,0,12.023   C43.705,41.335,43.706,37.328,45.435,33.32z"
   id="path78" />
	<path
   fill-rule="evenodd"
   clip-rule="evenodd"
   fill="#767676"
   d="M52.308,45.71c-1.946-3.351,0.621-6.366-2.077-8.717   c-0.6-0.52-0.016-0.631,0.266-0.66c0.869-0.095,1.769,0.054,1.789,0.875C52.349,39.733,52.308,42.262,52.308,45.71z"
   id="path80" />
	<path
   fill-rule="evenodd"
   clip-rule="evenodd"
   fill="#7F7F7F"
   d="M40.357,36.516c0,2.826,0,5.654,0,8.481   c-0.203-0.008-0.406-0.014-0.609-0.02c0-2.819,0-5.639,0-8.458C39.951,36.519,40.154,36.517,40.357,36.516z"
   id="path82" />
	<path
   fill-rule="evenodd"
   clip-rule="evenodd"
   fill="#2C2C2C"
   d="M61.152,6.318c0,2.568,0,5.137,0,7.705c-0.16,0-0.321,0-0.48,0   c0-2.568,0-5.137,0-7.705C60.831,6.319,60.992,6.318,61.152,6.318z"
   id="path84" />
	<path
   fill-rule="evenodd"
   clip-rule="evenodd"
   fill="#5A5A5A"
   d="M49.617,45.612c0-2.333,0-4.665,0-6.999   c0.144-0.007,0.286-0.013,0.428-0.021c0,2.282,0,4.563,0,6.846C49.903,45.496,49.761,45.554,49.617,45.612z"
   id="path86" />
	<path
   fill-rule="evenodd"
   clip-rule="evenodd"
   fill="#F0F0F0"
   d="M4.148,52.4c0.002,1.264,0.004,2.528,0.006,3.792   c-0.559,0.465-1.113,0.465-1.671,0c0.002-1.264,0.003-2.528,0.005-3.792C3.042,51.933,3.595,51.933,4.148,52.4z"
   id="path88" />
	<path
   fill-rule="evenodd"
   clip-rule="evenodd"
   fill="#878787"
   d="M4.148,60.772c0.158,1.221,0.52,2.459-0.754,3.832   c-1.477-1.23-1.066-2.555-0.905-3.832C3.042,60.374,3.593,60.374,4.148,60.772z"
   id="path90" />
	<path
   fill-rule="evenodd"
   clip-rule="evenodd"
   fill="#D8D8D8"
   d="M41.304,47.105c2.401,0,4.804,0,7.207,0   c0.006,0.141,0.011,0.28,0.016,0.421c-2.484,0-4.966,0-7.449,0C41.152,47.386,41.229,47.246,41.304,47.105z"
   id="path92" />
	<path
   fill-rule="evenodd"
   clip-rule="evenodd"
   d="M37.435,9.319c0.365-0.994,0.73-1.986,1.096-2.979   c0.662,0.011,1.322,0.021,1.984,0.032C40.302,7.853,39.126,8.743,37.435,9.319z"
   id="path94" />
	<path
   fill-rule="evenodd"
   clip-rule="evenodd"
   fill="#CDCDCD"
   d="M4.148,52.4c-0.553,0-1.106,0-1.66,0   c0.001-0.766,0.001-1.532,0.002-2.298c0.553-0.469,1.104-0.469,1.656,0C4.148,50.868,4.148,51.635,4.148,52.4z"
   id="path96" />
	<path
   fill-rule="evenodd"
   clip-rule="evenodd"
   fill="#B5B5B5"
   d="M4.148,60.772c-0.555,0-1.105,0-1.659,0   c0.004-0.76,0.007-1.521,0.01-2.281c0.547-0.408,1.093-0.408,1.64,0C4.14,59.251,4.144,60.013,4.148,60.772z"
   id="path98" />
	<path
   fill-rule="evenodd"
   clip-rule="evenodd"
   fill="#D2D2D2"
   d="M4.138,58.491c-0.547,0-1.094,0-1.64,0   c-0.005-0.766-0.01-1.533-0.016-2.299c0.558,0,1.114,0,1.671,0C4.148,56.958,4.142,57.726,4.138,58.491z"
   id="path100" />
	<path
   fill-rule="evenodd"
   clip-rule="evenodd"
   fill="#B1B1B1"
   d="M28.925,43.949c0.045,0.454-0.494,0.647-1.145,0.741   c-0.68,0.1-1.287-0.001-1.402-0.605c-0.104-0.541,0.211-0.931,1.012-0.92C28.016,43.171,28.658,43.201,28.925,43.949z"
   id="path102" />
	<path
   fill-rule="evenodd"
   clip-rule="evenodd"
   fill="#B3B3B3"
   d="M71.173,44.746c-1.479-0.063-1.824-0.423-1.706-0.97   c0.131-0.596,0.752-0.692,1.426-0.596c0.655,0.091,1.277,0.313,1.082,0.915C71.802,44.628,71.146,44.743,71.173,44.746z"
   id="path104" />
	<path
   fill-rule="evenodd"
   clip-rule="evenodd"
   fill="#ABABAB"
   d="M4.146,50.103c-0.553,0-1.104,0-1.656,0   c-0.021-0.797-0.811-2.098,0.828-2.098C4.958,48.005,4.167,49.306,4.146,50.103z"
   id="path106" />
	<path
   fill-rule="evenodd"
   clip-rule="evenodd"
   d="M85.355,9.389c0.78-1.465-1.176-3.328,1.131-4.571l-0.051-0.041   c0.781,1.553,0.809,3.104-0.018,4.653l0.068-0.051C86.11,9.383,85.732,9.386,85.355,9.389z"
   id="path108" />
	<path
   fill-rule="evenodd"
   clip-rule="evenodd"
   d="M84.369,14.025c0.687-1.519-1.074-3.362,1.061-4.688   C84.995,10.889,86.512,12.7,84.369,14.025z"
   id="path110" />
	<path
   fill-rule="evenodd"
   clip-rule="evenodd"
   d="M83.367,18.629c0.688-1.518-1.074-3.362,1.062-4.688   C83.994,15.493,85.51,17.304,83.367,18.629z"
   id="path112" />
	<path
   fill-rule="evenodd"
   clip-rule="evenodd"
   d="M82.415,23.216c0.589-1.525-1.102-3.34,1.013-4.671   C83.006,20.092,84.473,21.878,82.415,23.216z"
   id="path114" />
	<path
   fill-rule="evenodd"
   clip-rule="evenodd"
   fill="#676767"
   d="M6.305,9.427c0.411-1.542-0.907-3.309,1.037-4.649   C6.931,6.318,8.25,8.086,6.305,9.427z"
   id="path116" />
	<path
   fill-rule="evenodd"
   clip-rule="evenodd"
   fill="#676767"
   d="M8.343,10.917c-0.41,1.542,0.908,3.309-1.036,4.649   C7.718,14.025,6.4,12.257,8.343,10.917z"
   id="path118" />
	<path
   fill-rule="evenodd"
   clip-rule="evenodd"
   fill="#676767"
   d="M9.345,16.288c-0.5,1.788,1.054,3.807-1.037,5.416   C8.81,19.916,7.255,17.897,9.345,16.288z"
   id="path120" />
	<path
   fill-rule="evenodd"
   clip-rule="evenodd"
   fill="#676767"
   d="M86.418,9.431c0.006-1.551,0.012-3.102,0.018-4.653   c1.943,1.337,0.621,3.105,1.04,4.644C87.123,9.424,86.771,9.428,86.418,9.431z"
   id="path122" />
	<path
   fill-rule="evenodd"
   clip-rule="evenodd"
   d="M42.427,28.59c2.638,0,5.276,0,7.915,0C47.703,29.642,45.065,29.662,42.427,28.59   z"
   id="path124" />
	<path
   fill-rule="evenodd"
   clip-rule="evenodd"
   fill="#676767"
   d="M55.436,20.062c-0.012,0.541-0.023,1.081-0.035,1.621   c-1.942,0.807-2.723,2.74-5.127,3.099c-2.256,0.544-4.512,0.543-6.768,0.001c-1.926-0.083-3.035-0.808-3.127-2.333   c0.189-2.011,2.047-0.608,3.082-0.894c2.359,0.537,4.673,0.721,6.79-0.545c3.508-1.365,2.476-4.174,3.441-6.347   c0.387-0.5,0.838-0.9,1.706-0.652c0.014,0.285,0.026,0.57,0.04,0.855C56.154,16.598,56.158,18.33,55.436,20.062z"
   id="path126" />
	<path
   fill-rule="evenodd"
   clip-rule="evenodd"
   fill="#6D6D6D"
   d="M43.486,22.414c-1.03,0.306-2.089-0.84-3.107,0.035   c-0.333,0-0.666,0.001-1,0.002c-0.345-0.792-0.689-1.586-1.034-2.379c-0.779-1.739-0.609-3.489-0.101-5.243   c0.377-0.018,0.753-0.036,1.131-0.053c0.162,0.113,0.324,0.227,0.49,0.339c0.947,1.612,0.498,3.714,2.889,4.823   C43.414,20.692,44,21.458,43.486,22.414z"
   id="path128" />
	<path
   fill-rule="evenodd"
   clip-rule="evenodd"
   d="M43.505,24.783c2.256-0.001,4.512-0.001,6.768-0.001   C48.018,25.962,45.761,25.956,43.505,24.783z"
   id="path130" />
	<path
   fill-rule="evenodd"
   clip-rule="evenodd"
   fill="#696969"
   d="M55.397,14.011c-0.333,0.255-0.665,0.511-0.997,0.766   c-1.859,0.434-2.285-1.141-3.588-1.486c-0.895-0.412-1.869-0.615-2.907-0.657c-0.875-0.024-1.745-0.018-2.619-0.02   c-0.701,0.011-1.396-0.021-2.087-0.11c-0.723-0.111-1.366-0.331-1.824-0.796c0.679-1.05,1.688-1.842,3.094-2.323   c1.605-0.583,3.23-0.459,4.86-0.077c0.426,0.654,1.187,0.84,2.062,0.863C52.727,11.451,54.063,12.73,55.397,14.011z"
   id="path132" />
	<path
   fill-rule="evenodd"
   clip-rule="evenodd"
   d="M49.329,9.308c-1.62,0.025-3.24,0.051-4.86,0.077   c-0.072-0.242-0.06-0.48,0.036-0.717C46.109,8.901,47.959,8.046,49.329,9.308z"
   id="path134" />
	<path
   fill-rule="evenodd"
   clip-rule="evenodd"
   fill="#707070"
   d="M41.375,11.707c0.712,0.011,1.423,0.022,2.134,0.034   c0.455,0.688,0.096,1.301-0.291,1.913c-0.227,0.29-0.513,0.541-0.852,0.756c-0.938,0.394-1.852,0.931-2.992,0.366v0   C39.285,13.463,39.552,12.287,41.375,11.707z"
   id="path136" />
	<path
   fill-rule="evenodd"
   clip-rule="evenodd"
   d="M38.244,14.829c0.033,1.747,0.067,3.496,0.101,5.243   C36.732,18.342,36.927,16.592,38.244,14.829z"
   id="path138" />
	<path
   fill-rule="evenodd"
   clip-rule="evenodd"
   d="M55.436,20.062c0-1.731,0.001-3.463,0.002-5.195   C56.992,16.598,57,18.33,55.436,20.062z"
   id="path140" />
	<path
   fill-rule="evenodd"
   clip-rule="evenodd"
   fill="#CACACA"
   d="M45.359,11.707c1.018,0,2.035,0,3.053,0   c1.232,0.802,2.739,1.336,3.805,2.303c2.624,2.962,1.756,5.483-1.654,7.683c-2.056,1.98-4.559,1.396-7.077,0.721   c-0.422-0.752-0.844-1.504-1.266-2.256c-2.438-2.074-3.09-4.102,0.277-6.019l-0.111-0.17C43.17,13.056,44.158,12.299,45.359,11.707   z"
   id="path142" />
	<path
   fill-rule="evenodd"
   clip-rule="evenodd"
   fill="#707070"
   d="M50.563,21.693c2.068-2.458,3.697-4.943,0.832-7.712   c-0.563-0.468-0.609-0.962-0.123-1.481c1.689,0.238,1.869,1.692,3.129,2.277C54.205,17.435,55.395,20.544,50.563,21.693z"
   id="path144" />
	<path
   fill-rule="evenodd"
   clip-rule="evenodd"
   fill="#757575"
   d="M42.498,14.139c-1.877,1.958-1.266,3.983-0.277,6.019   c-4.394-0.725-2.336-3.452-2.846-5.382C40.416,14.563,41.456,14.352,42.498,14.139z"
   id="path146" />
	<path
   fill-rule="evenodd"
   clip-rule="evenodd"
   d="M45.359,11.707c-0.574,1.075-1.542,1.847-2.973,2.262   c-0.219-0.918,0.629-1.521,1.123-2.228C44.126,11.729,44.742,11.718,45.359,11.707z"
   id="path148" />
	<path
   fill-rule="evenodd"
   clip-rule="evenodd"
   d="M51.271,12.499c0.041,0.494,0.082,0.988,0.123,1.481   c-1.423-0.428-2.402-1.197-2.982-2.274C49.365,11.971,50.318,12.234,51.271,12.499z"
   id="path150" />
</g>
</svg>
