<?xml version="1.0" encoding="UTF-8" standalone="no"?>
<svg
   xmlns:dc="http://purl.org/dc/elements/1.1/"
   xmlns:cc="http://creativecommons.org/ns#"
   xmlns:rdf="http://www.w3.org/1999/02/22-rdf-syntax-ns#"
   xmlns:svg="http://www.w3.org/2000/svg"
   xmlns="http://www.w3.org/2000/svg"
   xmlns:sodipodi="http://sodipodi.sourceforge.net/DTD/sodipodi-0.dtd"
   xmlns:inkscape="http://www.inkscape.org/namespaces/inkscape"
   version="1.1"
   id="图层_1"
   x="0px"
   y="0px"
   width="65px"
   height="75px"
   viewBox="0 0 65 75"
   enable-background="new 0 0 65 75"
   xml:space="preserve"
   sodipodi:docname="罐体_29-01.svg"><metadata
   id="metadata91"><rdf:RDF><cc:Work
       rdf:about=""><dc:format>image/svg+xml</dc:format><dc:type
         rdf:resource="http://purl.org/dc/dcmitype/StillImage" /></cc:Work></rdf:RDF></metadata><defs
   id="defs89" /><sodipodi:namedview
   pagecolor="#ffffff"
   bordercolor="#666666"
   borderopacity="1"
   objecttolerance="10"
   gridtolerance="10"
   guidetolerance="10"
   inkscape:pageopacity="0"
   inkscape:pageshadow="2"
   inkscape:window-width="640"
   inkscape:window-height="480"
   id="namedview87" />
<g
   id="g84">
	<path
   fill-rule="evenodd"
   clip-rule="evenodd"
   fill="#030303"
   d="M45.954,19.728c2.51,3.871,6.326,1.547,9.504,1.859   c4.41,0.433,5.52,1.467,4.508,5.608c-0.162,0.663-0.247,1.546-0.952,1.459c-6.098-0.757-3.673,3.82-4.01,6.54   c-0.224,1.813,0.002,3.678-0.055,5.515c-0.042,1.389,0.312,2.147,1.913,2.114c6.28-0.133,2.053,4.621,2.941,6.952   c0.625,1.642,1.088,4.677-2.692,4.099c-1.858-0.283-2.235,0.717-2.172,2.342c0.092,2.338,0.021,4.684,0.021,7.025   c0,7.193,0,7.197,7.305,7.707c1.249,0.086,2.636-0.377,2.729,1.811c0.101,2.355-1.235,2.24-2.815,2.238   c-19.763-0.018-39.525-0.014-59.29-0.01c-1.495,0.002-2.972,0.303-2.887-2.15c0.092-2.602,1.855-1.699,3.15-1.885   c1.926-0.277,5.023,0.969,5.574-0.641c1.07-3.129,3.506-6.121,2.334-9.877c-0.268-0.859-0.346-1.588-1.439-1.533   c-1.855,0.096-2.039-1.836-1.502-2.303c3.58-3.125,0.712-5.977-0.055-8.938c-0.161-0.622-0.219-1.796,0.057-1.931   c5.819-2.863,1.924-8.06,2.803-12.065c0.506-2.306,1.223-5.524-3.443-5.043c-2.428,0.25-1.169-2.195-1.402-3.44   c-0.271-1.445-0.01-2.606,1.971-2.512c2.485,0.119,4.997-0.151,7.468,0.075c2.517,0.231,2.677-1.156,2.532-2.998   C27.351,18.798,36.653,18.821,45.954,19.728z"
   id="path2" />
	<path
   fill-rule="evenodd"
   clip-rule="evenodd"
   fill="#EDEDED"
   d="M45.954,19.728c-9.301,1.486-18.602,1.565-27.904,0.019   c-1.662-5.334-3.326-10.668-4.988-16.002c0.275-2.985,2.678-2.559,4.483-2.584c9.31-0.13,18.622-0.133,27.931,0.002   c1.797,0.025,4.215-0.414,4.459,2.594C49.128,9.211,47.8,14.535,45.954,19.728z"
   id="path4" />
	<path
   fill-rule="evenodd"
   clip-rule="evenodd"
   d="M49.935,3.756c-0.816-1.632-2.344-0.927-3.523-0.937   c-9.945-0.081-19.893-0.088-29.839-0.021c-1.176,0.008-2.708-0.708-3.511,0.946C12.503,1.75,10.067,1.993,8.408,0   c16.309,0,31.869,0,48.515,0C54.276,2.247,50.924,0.889,49.935,3.756z"
   id="path6" />
	<path
   fill-rule="evenodd"
   clip-rule="evenodd"
   fill="#E3E3E3"
   d="M32.913,30.767c0.992,0,1.985-0.018,2.976,0.002   c10.509,0.206,10.433,0.204,9.831,10.975c-0.121,2.137-0.66,2.922-2.812,2.897c-6.942-0.08-13.886-0.062-20.827,0.032   c-2.103,0.029-2.725-0.664-2.85-2.852c-0.628-10.908-0.708-10.905,10.211-11.079c1.156-0.019,2.313-0.003,3.471-0.003   C32.913,30.748,32.913,30.757,32.913,30.767z"
   id="path8" />
	<path
   fill-rule="evenodd"
   clip-rule="evenodd"
   fill="#FEFEFE"
   d="M13.95,66.415c0.653-2.602-0.851-5.072,1.1-7.521   c3.977-4.994,9.357-4.449,14.583-3.877c2.602,0.285,1.016,2.973,1.333,4.547c0.844,4.191-0.555,5.805-5.146,5.52   C22.046,64.851,17.901,63.601,13.95,66.415z"
   id="path10" />
	<path
   fill-rule="evenodd"
   clip-rule="evenodd"
   fill="#7F7F7F"
   d="M1.373,72.431c20.751,0,41.502,0,62.253,0   c0.002,0.332,0.004,0.662,0.006,0.992c-20.752,0-41.504,0-62.255,0C1.376,73.093,1.375,72.763,1.373,72.431z"
   id="path12" />
	<path
   fill-rule="evenodd"
   clip-rule="evenodd"
   fill="#D3D3D3"
   d="M19.099,47.114c3.57-2.238,7.564-1.153,11.34-1.237   c5-0.111,10.086-0.617,15.014,0.903c0.439,1.021,0.35,1.919-0.604,2.613c-3.363,2.395-7.237,1.3-10.868,1.414   c-4.646,0.147-9.379,0.582-13.943-0.933C19.052,49.187,18.66,48.294,19.099,47.114z"
   id="path14" />
	<path
   fill-rule="evenodd"
   clip-rule="evenodd"
   fill="#F7F7F7"
   d="M39.005,55.042c6.75-0.102,6.75-0.102,6.746,9.357   c-0.002,6.49-0.002,6.49-6.746,6.387C36.781,65.538,36.781,60.29,39.005,55.042z"
   id="path16" />
	<path
   fill-rule="evenodd"
   clip-rule="evenodd"
   fill="#D9D9D9"
   d="M32.046,25.57c-3.479,0-6.957,0.021-10.435-0.013   c-1.109-0.011-2.304,0.189-2.403-1.645c-0.109-2.043,1.09-2.078,2.494-2.074c7.287,0.018,14.576,0.031,21.865,0.043   c1.255,0.002,2.201,0.159,2.184,1.871c-0.02,1.768-1.09,1.773-2.275,1.777c-3.809,0.012-7.619,0.004-11.43,0.004   C32.046,25.546,32.046,25.559,32.046,25.57z"
   id="path18" />
	<path
   fill-rule="evenodd"
   clip-rule="evenodd"
   fill="#C2C2C2"
   d="M53.364,29.06c0,13.522,0,27.045,0,40.566   c-0.291,0.004-0.582,0.01-0.873,0.014c0-13.541,0-27.082,0-40.621C52.782,29.032,53.073,29.046,53.364,29.06z"
   id="path20" />
	<path
   fill-rule="evenodd"
   clip-rule="evenodd"
   fill="#FEFEFE"
   d="M18.019,36.831c-0.001,1.986-0.045,3.973,0.014,5.957   c0.043,1.406-0.379,2.077-1.934,2.063c-1.422-0.013-2.103-0.355-2.077-1.923c0.065-4.136,0.066-8.272,0.002-12.408   c-0.026-1.676,0.894-1.762,2.183-1.808c1.654-0.059,1.848,0.862,1.822,2.163C17.989,32.86,18.019,34.847,18.019,36.831z"
   id="path22" />
	<path
   fill-rule="evenodd"
   clip-rule="evenodd"
   fill="#8E8E8E"
   d="M23.68,69.931c-1.823-0.002-3.645-0.02-5.466,0.004   c-1.338,0.018-2.16-0.352-2.172-1.949c-0.01-1.551,0.684-2.049,2.086-2.039c3.478,0.023,6.957,0.039,10.436-0.012   c1.566-0.023,2.506,0.352,2.42,2.215c-0.076,1.688-1.102,1.789-2.335,1.785C26.993,69.927,25.337,69.933,23.68,69.931z"
   id="path24" />
	<path
   fill-rule="evenodd"
   clip-rule="evenodd"
   fill="#FEFEFE"
   d="M50.954,36.513c-1.402,1.604,2.434,6.179-2.199,6.036   c-3.896-0.12-1.102-4.195-1.688-6.405c-0.45-1.697-0.036-3.613-0.104-5.428c-0.053-1.456,0.47-2.021,1.979-2.015   c1.459,0.005,2.093,0.447,2.03,1.963C50.896,32.479,50.954,34.298,50.954,36.513z"
   id="path26" />
	<path
   fill-rule="evenodd"
   clip-rule="evenodd"
   fill="#838383"
   d="M42.677,53.413c-8.117,0-16.234,0-24.352,0   c-0.006-0.331-0.012-0.663-0.02-0.994c8.121,0,16.242,0,24.361,0C42.671,52.75,42.675,53.082,42.677,53.413z"
   id="path28" />
	<path
   fill-rule="evenodd"
   clip-rule="evenodd"
   fill="#F4F4F4"
   d="M59.327,48.055c-1.337,1.571,1.407,4.567-2.165,4.703   c-3.56,0.134-1.989-2.835-1.942-4.326c0.047-1.521-1.722-4.391,1.77-4.513C60.757,43.788,57.81,47.012,59.327,48.055z"
   id="path30" />
	<path
   fill-rule="evenodd"
   clip-rule="evenodd"
   fill="#F6F6F6"
   d="M55.728,25.188c0.272,2.045-1.016,2.503-2.696,2.484   c-1.638-0.019-3.347,0.214-3.39-2.371c-0.033-2.075,1.049-2.618,2.725-2.554C53.949,22.807,55.911,22.484,55.728,25.188z"
   id="path32" />
	<path
   fill-rule="evenodd"
   clip-rule="evenodd"
   fill="#E0E0E0"
   d="M24.084,26.905c4.622-0.005,9.244-0.011,13.866-0.016   c0.623,0.559,0.623,1.118,0,1.678c-4.622-0.006-9.243-0.012-13.865-0.017C23.431,28.003,23.431,27.454,24.084,26.905z"
   id="path34" />
	<path
   fill-rule="evenodd"
   clip-rule="evenodd"
   fill="#FCFCFC"
   d="M14.92,27.603c-0.815,0.035-1.642,0.165-2.446,0.087   c-1.389-0.135-3.363,0.133-2.962-2.172c0.412-2.371,2.035-1.995,3.692-1.191c0.545,0.266,1.214,0.271,1.828,0.396   C15.659,25.708,15.817,26.676,14.92,27.603z"
   id="path36" />
	<path
   fill-rule="evenodd"
   clip-rule="evenodd"
   fill="#ECECEC"
   d="M13.031,49.795c-1.144-0.034-2.29-0.015-2.384-1.655   c-0.075-1.339,0.348-2.238,1.792-2.258c1.298-0.018,2.621-0.05,2.66,1.897C15.13,49.305,14.335,49.757,13.031,49.795z"
   id="path38" />
	<path
   fill-rule="evenodd"
   clip-rule="evenodd"
   fill="#5C5C5C"
   d="M33.042,70.788c-1.695-5.25-1.695-10.498,0-15.748   C35.167,60.29,35.167,65.538,33.042,70.788z"
   id="path40" />
	<path
   fill-rule="evenodd"
   clip-rule="evenodd"
   fill="#888888"
   d="M34.03,55.044c0.332,0,0.662,0,0.992,0   c2.148,5.248,2.148,10.494,0,15.742c-0.33,0-0.66,0-0.992,0C33.173,65.538,33.173,60.292,34.03,55.044z"
   id="path42" />
	<path
   fill-rule="evenodd"
   clip-rule="evenodd"
   fill="#9E9E9E"
   d="M35.022,70.786c0-5.248,0-10.494,0-15.742   c0.332,0,0.663,0,0.994,0c2.154,5.248,2.154,10.494,0,15.742C35.686,70.786,35.354,70.786,35.022,70.786z"
   id="path44" />
	<path
   fill-rule="evenodd"
   clip-rule="evenodd"
   fill="#B4B4B4"
   d="M36.017,70.786c0-5.248,0-10.494,0-15.742   c0.332,0,0.664,0,0.996,0c1.545,5.248,1.545,10.494,0,15.742C36.681,70.786,36.349,70.786,36.017,70.786z"
   id="path46" />
	<path
   fill-rule="evenodd"
   clip-rule="evenodd"
   fill="#CACACA"
   d="M37.013,70.786c0-5.248,0-10.494,0-15.742   c0.332,0,0.664-0.002,0.996-0.002c0.765,5.248,0.765,10.496,0,15.744C37.677,70.786,37.345,70.786,37.013,70.786z"
   id="path48" />
	<path
   fill-rule="evenodd"
   clip-rule="evenodd"
   fill="#737373"
   d="M34.03,55.044c0,5.248,0,10.494,0,15.742   c-0.329,0-0.658,0.002-0.988,0.002c0-5.25,0-10.498,0-15.748C33.372,55.042,33.701,55.042,34.03,55.044z"
   id="path50" />
	<path
   fill-rule="evenodd"
   clip-rule="evenodd"
   fill="#A8A8A8"
   d="M12.323,43.995c0-4.889,0-9.779,0-14.668   c0.163,0.003,0.326,0.006,0.49,0.009c0,4.942,0,9.885,0,14.828C12.649,44.107,12.486,44.052,12.323,43.995z"
   id="path52" />
	<path
   fill-rule="evenodd"
   clip-rule="evenodd"
   fill="#E0E0E0"
   d="M38.009,70.786c0-5.248,0-10.496,0-15.744   c0.332,0,0.664,0,0.996,0c0,5.248,0,10.496,0,15.744C38.673,70.786,38.341,70.786,38.009,70.786z"
   id="path54" />
	<path
   fill-rule="evenodd"
   clip-rule="evenodd"
   fill="#F4F4F4"
   d="M12.884,57.876c-0.967-0.193-2.133,0.117-2.337-1.26   c-0.205-1.379,0.782-1.633,1.78-1.658c1.071-0.025,2.432-0.24,2.51,1.424C14.899,57.759,13.71,57.675,12.884,57.876z"
   id="path56" />
	<path
   fill-rule="evenodd"
   clip-rule="evenodd"
   fill="#373737"
   d="M44.848,49.394c-0.333-0.997-0.922-2.053,0.604-2.613   c0.49-0.011,0.98-0.021,1.47-0.03c1.755,1.966,1.604,3.96,0.092,5.977C44.583,52.742,45.165,50.771,44.848,49.394z"
   id="path58" />
	<path
   fill-rule="evenodd"
   clip-rule="evenodd"
   fill="#FEFEFE"
   d="M50.485,64.454c-0.713-3.369-0.65-6.74-0.042-10.111   C51.157,57.712,51.093,61.081,50.485,64.454z"
   id="path60" />
	<path
   fill-rule="evenodd"
   clip-rule="evenodd"
   fill="#A0A0A0"
   d="M24.084,26.905c0,0.549,0.001,1.097,0.001,1.646   c-1.705,0.266-3.411,0.535-5.52-0.822C20.674,26.371,22.38,26.641,24.084,26.905z"
   id="path62" />
	<path
   fill-rule="evenodd"
   clip-rule="evenodd"
   fill="#FEFEFE"
   d="M19.099,47.114c0.313,0.92,0.625,1.841,0.938,2.761   c-0.619,1.71-2.017,0.716-3.076,0.899l0.143,0.143C17.072,49.279,16.532,47.37,19.099,47.114z"
   id="path64" />
	<path
   fill-rule="evenodd"
   clip-rule="evenodd"
   fill="#767676"
   d="M49.993,43.986c1.573,2.901,1.573,5.802,0,8.703   C48.014,49.788,48.014,46.888,49.993,43.986z"
   id="path66" />
	<path
   fill-rule="evenodd"
   clip-rule="evenodd"
   fill="#FEFEFE"
   d="M16.96,50.774c-0.16,1.256,0.945,3.223-1.717,3.07   c-0.775-0.043-1.143-0.41-1.188-1.192c-0.154-2.682,1.799-1.572,3.047-1.735L16.96,50.774z"
   id="path68" />
	<path
   fill-rule="evenodd"
   clip-rule="evenodd"
   fill="#676767"
   d="M49.993,43.986c0,2.901,0,5.802,0,8.703   c-0.33,0.001-0.66,0.002-0.991,0.003c-1.554-2.902-1.554-5.806,0-8.709C49.333,43.984,49.663,43.985,49.993,43.986z"
   id="path70" />
	<path
   fill-rule="evenodd"
   clip-rule="evenodd"
   fill="#575757"
   d="M49.002,43.983c0,2.903,0,5.807,0,8.71   c-0.331,0.003-0.663,0.007-0.994,0.01c-0.849-2.914-0.853-5.828,0.003-8.741C48.341,43.969,48.671,43.976,49.002,43.983z"
   id="path72" />
	<path
   fill-rule="evenodd"
   clip-rule="evenodd"
   fill="#474747"
   d="M48.011,43.962c-0.001,2.914-0.002,5.828-0.003,8.742   c-0.331,0.008-0.663,0.016-0.994,0.022c-0.031-1.992-0.061-3.984-0.092-5.977C47.153,45.769,46.563,44.462,48.011,43.962z"
   id="path74" />
	<path
   fill-rule="evenodd"
   clip-rule="evenodd"
   fill="#B8B8B8"
   d="M37.95,28.567c0-0.56,0-1.119,0-1.678   c1.719-0.152,3.576-0.776,4.705,1.419C41.06,28.993,39.503,28.757,37.95,28.567z"
   id="path76" />
	<path
   fill-rule="evenodd"
   clip-rule="evenodd"
   fill="#A8A8A8"
   d="M12.247,66.304c0-2.217,0-4.434,0-6.65   c0.149-0.01,0.298-0.02,0.445-0.029c0,2.178,0,4.357,0,6.535C12.545,66.208,12.396,66.255,12.247,66.304z"
   id="path78" />
	<path
   fill-rule="evenodd"
   clip-rule="evenodd"
   fill="#DDDDDD"
   d="M11.927,69.929c-0.607-0.213-1.493-0.123-1.338-1.092   c0.129-0.811,0.895-0.822,1.533-0.846c0.664-0.027,1.479,0.074,1.533,0.828C13.741,70.06,12.64,69.786,11.927,69.929z"
   id="path80" />
	<path
   fill-rule="evenodd"
   clip-rule="evenodd"
   fill="#7E7E7E"
   d="M14.92,27.603c0.037-0.96,0.075-1.92,0.112-2.881   c0.209-0.566,0.811-0.561,0.828-0.146C15.905,25.646,16.757,27.095,14.92,27.603z"
   id="path82" />
</g>
</svg>
