<?xml version="1.0" encoding="UTF-8" standalone="no"?>
<svg
   xmlns:a="http://ns.adobe.com/AdobeSVGViewerExtensions/3.0/"
   xmlns:dc="http://purl.org/dc/elements/1.1/"
   xmlns:cc="http://creativecommons.org/ns#"
   xmlns:rdf="http://www.w3.org/1999/02/22-rdf-syntax-ns#"
   xmlns:svg="http://www.w3.org/2000/svg"
   xmlns="http://www.w3.org/2000/svg"
   xmlns:sodipodi="http://sodipodi.sourceforge.net/DTD/sodipodi-0.dtd"
   xmlns:inkscape="http://www.inkscape.org/namespaces/inkscape"
   version="1.1"
   id="图层_1"
   x="0px"
   y="0px"
   width="61px"
   height="67px"
   viewBox="0 0 61 67"
   enable-background="new 0 0 61 67"
   xml:space="preserve"
   sodipodi:docname="罐体_04-01.svg"><metadata
   id="metadata20"><rdf:RDF><cc:Work
       rdf:about=""><dc:format>image/svg+xml</dc:format><dc:type
         rdf:resource="http://purl.org/dc/dcmitype/StillImage" /></cc:Work></rdf:RDF></metadata><defs
   id="defs18" /><sodipodi:namedview
   pagecolor="#ffffff"
   bordercolor="#666666"
   borderopacity="1"
   objecttolerance="10"
   gridtolerance="10"
   guidetolerance="10"
   inkscape:pageopacity="0"
   inkscape:pageshadow="2"
   inkscape:window-width="640"
   inkscape:window-height="480"
   id="namedview16" />
<g
   id="g13">
	<linearGradient
   id="SVGID_1_"
   gradientUnits="userSpaceOnUse"
   x1="0.5"
   y1="33.5"
   x2="60.5"
   y2="33.5">
		<stop
   offset="0"
   style="stop-color:#666666"
   id="stop2" />
		<stop
   offset="0.5054"
   style="stop-color:#FFFFFF"
   id="stop4" />
		<stop
   offset="1"
   style="stop-color:#666666"
   id="stop6" />
		<a:midPointStop
   offset="0"
   style="stop-color:#666666" />
		<a:midPointStop
   offset="0.5"
   style="stop-color:#666666" />
		<a:midPointStop
   offset="0.5054"
   style="stop-color:#FFFFFF" />
		<a:midPointStop
   offset="0.5"
   style="stop-color:#FFFFFF" />
		<a:midPointStop
   offset="1"
   style="stop-color:#666666" />
	</linearGradient>
	<path
   fill="url(#SVGID_1_)"
   d="M30.5,0.5c-16.568,0-30,2.287-30,7.558v50.885c0,5.271,13.432,7.558,30,7.558s30-2.287,30-7.558   V8.058C60.5,2.787,47.068,0.5,30.5,0.5z"
   id="path9" />
	<path
   fill="#231F20"
   d="M30.5,67C21.329,67,0,66.215,0,58.942V8.058C0,0.785,21.329,0,30.5,0S61,0.785,61,8.058v50.885   C61,66.215,39.671,67,30.5,67z M30.5,1C12.304,1,1,3.704,1,8.058v50.885C1,63.296,12.304,66,30.5,66S60,63.296,60,58.942V8.058   C60,3.704,48.696,1,30.5,1z"
   id="path11" />
</g>
</svg>
