<?xml version="1.0" encoding="UTF-8" standalone="no"?>
<svg
   xmlns:a="http://ns.adobe.com/AdobeSVGViewerExtensions/3.0/"
   xmlns:dc="http://purl.org/dc/elements/1.1/"
   xmlns:cc="http://creativecommons.org/ns#"
   xmlns:rdf="http://www.w3.org/1999/02/22-rdf-syntax-ns#"
   xmlns:svg="http://www.w3.org/2000/svg"
   xmlns="http://www.w3.org/2000/svg"
   xmlns:sodipodi="http://sodipodi.sourceforge.net/DTD/sodipodi-0.dtd"
   xmlns:inkscape="http://www.inkscape.org/namespaces/inkscape"
   version="1.1"
   id="图层_1"
   x="0px"
   y="0px"
   width="61px"
   height="88.5px"
   viewBox="0 0 61 88.5"
   enable-background="new 0 0 61 88.5"
   xml:space="preserve"
   sodipodi:docname="罐体_05-01.svg"><metadata
   id="metadata78"><rdf:RDF><cc:Work
       rdf:about=""><dc:format>image/svg+xml</dc:format><dc:type
         rdf:resource="http://purl.org/dc/dcmitype/StillImage" /></cc:Work></rdf:RDF></metadata><defs
   id="defs76" /><sodipodi:namedview
   pagecolor="#ffffff"
   bordercolor="#666666"
   borderopacity="1"
   objecttolerance="10"
   gridtolerance="10"
   guidetolerance="10"
   inkscape:pageopacity="0"
   inkscape:pageshadow="2"
   inkscape:window-width="640"
   inkscape:window-height="480"
   id="namedview74" />
<g
   id="g71">
	<g
   id="g56">
		<g
   id="g27">
			<g
   id="g6">
				<rect
   x="16.35"
   y="58.413"
   fill="#666666"
   width="7.522"
   height="22.289"
   id="rect2" />
				<path
   fill="#231F20"
   d="M24.372,81.202H15.85V57.913h8.522V81.202z M16.85,80.202h6.522V58.913H16.85V80.202z"
   id="path4" />
			</g>
			<rect
   x="13.654"
   y="80.226"
   fill="#231F20"
   width="12.913"
   height="1.512"
   id="rect8" />
			<g
   id="g25">
				<g
   id="g21">
					<linearGradient
   id="SVGID_1_"
   gradientUnits="userSpaceOnUse"
   x1="4.9492"
   y1="73.1074"
   x2="14.4561"
   y2="73.1074">
						<stop
   offset="0"
   style="stop-color:#666666"
   id="stop10" />
						<stop
   offset="0.5054"
   style="stop-color:#FFFFFF"
   id="stop12" />
						<stop
   offset="1"
   style="stop-color:#666666"
   id="stop14" />
						<a:midPointStop
   offset="0"
   style="stop-color:#666666" />
						<a:midPointStop
   offset="0.5"
   style="stop-color:#666666" />
						<a:midPointStop
   offset="0.5054"
   style="stop-color:#FFFFFF" />
						<a:midPointStop
   offset="0.5"
   style="stop-color:#FFFFFF" />
						<a:midPointStop
   offset="1"
   style="stop-color:#666666" />
					</linearGradient>
					<rect
   x="4.949"
   y="59.022"
   fill="url(#SVGID_1_)"
   width="9.507"
   height="28.169"
   id="rect17" />
					<path
   fill="#231F20"
   d="M14.956,87.691H4.449V58.522h10.507V87.691z M5.449,86.691h8.507V59.522H5.449V86.691z"
   id="path19" />
				</g>
				<rect
   x="1.543"
   y="86.59"
   fill="#231F20"
   width="16.32"
   height="1.91"
   id="rect23" />
			</g>
		</g>
		<g
   id="g54">
			<g
   id="g33">
				<rect
   x="37.128"
   y="58.413"
   fill="#666666"
   width="7.522"
   height="22.289"
   id="rect29" />
				<path
   fill="#231F20"
   d="M45.15,81.202h-8.522V57.913h8.522V81.202z M37.628,80.202h6.522V58.913h-6.522V80.202z"
   id="path31" />
			</g>
			<rect
   x="34.433"
   y="80.226"
   fill="#231F20"
   width="12.913"
   height="1.512"
   id="rect35" />
			<g
   id="g52">
				<g
   id="g48">
					
						<linearGradient
   id="SVGID_2_"
   gradientUnits="userSpaceOnUse"
   x1="132.8789"
   y1="73.1074"
   x2="142.3857"
   y2="73.1074"
   gradientTransform="matrix(-1 0 0 1 188.9297 0)">
						<stop
   offset="0"
   style="stop-color:#666666"
   id="stop37" />
						<stop
   offset="0.5054"
   style="stop-color:#FFFFFF"
   id="stop39" />
						<stop
   offset="1"
   style="stop-color:#666666"
   id="stop41" />
						<a:midPointStop
   offset="0"
   style="stop-color:#666666" />
						<a:midPointStop
   offset="0.5"
   style="stop-color:#666666" />
						<a:midPointStop
   offset="0.5054"
   style="stop-color:#FFFFFF" />
						<a:midPointStop
   offset="0.5"
   style="stop-color:#FFFFFF" />
						<a:midPointStop
   offset="1"
   style="stop-color:#666666" />
					</linearGradient>
					<rect
   x="46.544"
   y="59.022"
   fill="url(#SVGID_2_)"
   width="9.507"
   height="28.169"
   id="rect44" />
					<path
   fill="#231F20"
   d="M56.551,87.691H46.044V58.522h10.507V87.691z M47.044,86.691h8.507V59.522h-8.507V86.691z"
   id="path46" />
				</g>
				<rect
   x="43.137"
   y="86.59"
   fill="#231F20"
   width="16.32"
   height="1.91"
   id="rect50" />
			</g>
		</g>
	</g>
	<g
   id="g69">
		<linearGradient
   id="SVGID_3_"
   gradientUnits="userSpaceOnUse"
   x1="0.5"
   y1="33.7773"
   x2="60.5"
   y2="33.7773">
			<stop
   offset="0"
   style="stop-color:#666666"
   id="stop58" />
			<stop
   offset="0.5054"
   style="stop-color:#FFFFFF"
   id="stop60" />
			<stop
   offset="1"
   style="stop-color:#666666"
   id="stop62" />
			<a:midPointStop
   offset="0"
   style="stop-color:#666666" />
			<a:midPointStop
   offset="0.5"
   style="stop-color:#666666" />
			<a:midPointStop
   offset="0.5054"
   style="stop-color:#FFFFFF" />
			<a:midPointStop
   offset="0.5"
   style="stop-color:#FFFFFF" />
			<a:midPointStop
   offset="1"
   style="stop-color:#666666" />
		</linearGradient>
		<path
   fill="url(#SVGID_3_)"
   d="M30.5,0.5c-16.568,0-30,2.306-30,7.621v51.313c0,5.314,13.432,7.621,30,7.621s30-2.307,30-7.621    V8.121C60.5,2.806,47.068,0.5,30.5,0.5z"
   id="path65" />
		<path
   fill="#231F20"
   d="M30.5,67.555c-9.171,0-30.5-0.792-30.5-8.121V8.121C0,0.792,21.329,0,30.5,0S61,0.792,61,8.121v51.313    C61,66.763,39.671,67.555,30.5,67.555z M30.5,1C12.304,1,1,3.729,1,8.121v51.313c0,4.393,11.304,7.121,29.5,7.121    S60,63.826,60,59.434V8.121C60,3.729,48.696,1,30.5,1z"
   id="path67" />
	</g>
</g>
</svg>
