<?xml version="1.0" encoding="UTF-8" standalone="no"?>
<svg
   xmlns:a="http://ns.adobe.com/AdobeSVGViewerExtensions/3.0/"
   xmlns:dc="http://purl.org/dc/elements/1.1/"
   xmlns:cc="http://creativecommons.org/ns#"
   xmlns:rdf="http://www.w3.org/1999/02/22-rdf-syntax-ns#"
   xmlns:svg="http://www.w3.org/2000/svg"
   xmlns="http://www.w3.org/2000/svg"
   xmlns:sodipodi="http://sodipodi.sourceforge.net/DTD/sodipodi-0.dtd"
   xmlns:inkscape="http://www.inkscape.org/namespaces/inkscape"
   version="1.1"
   id="图层_1"
   x="0px"
   y="0px"
   width="61px"
   height="95px"
   viewBox="0 0 61 95"
   enable-background="new 0 0 61 95"
   xml:space="preserve"
   sodipodi:docname="罐体_07-01.svg"><metadata
   id="metadata119"><rdf:RDF><cc:Work
       rdf:about=""><dc:format>image/svg+xml</dc:format><dc:type
         rdf:resource="http://purl.org/dc/dcmitype/StillImage" /></cc:Work></rdf:RDF></metadata><defs
   id="defs117" /><sodipodi:namedview
   pagecolor="#ffffff"
   bordercolor="#666666"
   borderopacity="1"
   objecttolerance="10"
   gridtolerance="10"
   guidetolerance="10"
   inkscape:pageopacity="0"
   inkscape:pageshadow="2"
   inkscape:window-width="640"
   inkscape:window-height="480"
   id="namedview115" />
<g
   id="g112">
	<g
   id="g56">
		<g
   id="g27">
			<g
   id="g6">
				<rect
   x="16.35"
   y="54.692"
   fill="#666666"
   width="7.522"
   height="32.27"
   id="rect2" />
				<path
   fill="#231F20"
   d="M24.372,87.462H15.85v-33.27h8.522V87.462z M16.85,86.462h6.522v-31.27H16.85V86.462z"
   id="path4" />
			</g>
			<rect
   x="13.654"
   y="86.486"
   fill="#231F20"
   width="12.913"
   height="1.51"
   id="rect8" />
			<g
   id="g25">
				<g
   id="g21">
					<linearGradient
   id="SVGID_1_"
   gradientUnits="userSpaceOnUse"
   x1="4.9492"
   y1="74.3721"
   x2="14.4561"
   y2="74.3721">
						<stop
   offset="0"
   style="stop-color:#666666"
   id="stop10" />
						<stop
   offset="0.5054"
   style="stop-color:#FFFFFF"
   id="stop12" />
						<stop
   offset="1"
   style="stop-color:#666666"
   id="stop14" />
						<a:midPointStop
   offset="0"
   style="stop-color:#666666" />
						<a:midPointStop
   offset="0.5"
   style="stop-color:#666666" />
						<a:midPointStop
   offset="0.5054"
   style="stop-color:#FFFFFF" />
						<a:midPointStop
   offset="0.5"
   style="stop-color:#FFFFFF" />
						<a:midPointStop
   offset="1"
   style="stop-color:#666666" />
					</linearGradient>
					<rect
   x="4.949"
   y="55.3"
   fill="url(#SVGID_1_)"
   width="9.507"
   height="38.145"
   id="rect17" />
					<path
   fill="#231F20"
   d="M14.956,93.944H4.449V54.8h10.507V93.944z M5.449,92.944h8.507V55.8H5.449V92.944z"
   id="path19" />
				</g>
				<rect
   x="1.543"
   y="92.843"
   fill="#231F20"
   width="16.32"
   height="1.907"
   id="rect23" />
			</g>
		</g>
		<g
   id="g54">
			<g
   id="g33">
				<rect
   x="37.128"
   y="54.692"
   fill="#666666"
   width="7.522"
   height="32.27"
   id="rect29" />
				<path
   fill="#231F20"
   d="M45.15,87.462h-8.522v-33.27h8.522V87.462z M37.628,86.462h6.522v-31.27h-6.522V86.462z"
   id="path31" />
			</g>
			<rect
   x="34.433"
   y="86.486"
   fill="#231F20"
   width="12.913"
   height="1.51"
   id="rect35" />
			<g
   id="g52">
				<g
   id="g48">
					
						<linearGradient
   id="SVGID_2_"
   gradientUnits="userSpaceOnUse"
   x1="132.8789"
   y1="74.3721"
   x2="142.3857"
   y2="74.3721"
   gradientTransform="matrix(-1 0 0 1 188.9297 0)">
						<stop
   offset="0"
   style="stop-color:#666666"
   id="stop37" />
						<stop
   offset="0.5054"
   style="stop-color:#FFFFFF"
   id="stop39" />
						<stop
   offset="1"
   style="stop-color:#666666"
   id="stop41" />
						<a:midPointStop
   offset="0"
   style="stop-color:#666666" />
						<a:midPointStop
   offset="0.5"
   style="stop-color:#666666" />
						<a:midPointStop
   offset="0.5054"
   style="stop-color:#FFFFFF" />
						<a:midPointStop
   offset="0.5"
   style="stop-color:#FFFFFF" />
						<a:midPointStop
   offset="1"
   style="stop-color:#666666" />
					</linearGradient>
					<rect
   x="46.544"
   y="55.3"
   fill="url(#SVGID_2_)"
   width="9.507"
   height="38.145"
   id="rect44" />
					<path
   fill="#231F20"
   d="M56.551,93.944H46.044V54.8h10.507V93.944z M47.044,92.944h8.507V55.8h-8.507V92.944z"
   id="path46" />
				</g>
				<rect
   x="43.137"
   y="92.843"
   fill="#231F20"
   width="16.32"
   height="1.907"
   id="rect50" />
			</g>
		</g>
	</g>
	<g
   id="g110">
		<g
   id="g69">
			
				<linearGradient
   id="SVGID_3_"
   gradientUnits="userSpaceOnUse"
   x1="-213.8604"
   y1="-879.0059"
   x2="-197.9238"
   y2="-879.0059"
   gradientTransform="matrix(-1 0 0 -1 -175.3916 -799.6777)">
				<stop
   offset="0"
   style="stop-color:#666666"
   id="stop58" />
				<stop
   offset="0.5054"
   style="stop-color:#FFFFFF"
   id="stop60" />
				<stop
   offset="1"
   style="stop-color:#666666"
   id="stop62" />
				<a:midPointStop
   offset="0"
   style="stop-color:#666666" />
				<a:midPointStop
   offset="0.5"
   style="stop-color:#666666" />
				<a:midPointStop
   offset="0.5054"
   style="stop-color:#FFFFFF" />
				<a:midPointStop
   offset="0.5"
   style="stop-color:#FFFFFF" />
				<a:midPointStop
   offset="1"
   style="stop-color:#666666" />
			</linearGradient>
			<rect
   x="22.532"
   y="74.722"
   fill="url(#SVGID_3_)"
   width="15.937"
   height="9.213"
   id="rect65" />
			<path
   fill="#231F20"
   d="M38.969,84.435H22.032V74.222h16.937V84.435z M23.032,83.435h14.937v-8.213H23.032V83.435z"
   id="path67" />
		</g>
		<g
   id="g82">
			
				<linearGradient
   id="SVGID_4_"
   gradientUnits="userSpaceOnUse"
   x1="-217.2627"
   y1="-885.46"
   x2="-194.5215"
   y2="-885.46"
   gradientTransform="matrix(-1 0 0 -1 -175.3916 -799.6777)">
				<stop
   offset="0"
   style="stop-color:#666666"
   id="stop71" />
				<stop
   offset="0.5054"
   style="stop-color:#FFFFFF"
   id="stop73" />
				<stop
   offset="1"
   style="stop-color:#666666"
   id="stop75" />
				<a:midPointStop
   offset="0"
   style="stop-color:#666666" />
				<a:midPointStop
   offset="0.5"
   style="stop-color:#666666" />
				<a:midPointStop
   offset="0.5054"
   style="stop-color:#FFFFFF" />
				<a:midPointStop
   offset="0.5"
   style="stop-color:#FFFFFF" />
				<a:midPointStop
   offset="1"
   style="stop-color:#666666" />
			</linearGradient>
			<rect
   x="19.13"
   y="83.987"
   fill="url(#SVGID_4_)"
   width="22.741"
   height="3.59"
   id="rect78" />
			<path
   fill="#231F20"
   d="M42.371,88.077H18.63v-4.59h23.741V88.077z M19.63,87.077h21.741v-2.59H19.63V87.077z"
   id="path80" />
		</g>
		<g
   id="g95">
			<linearGradient
   id="SVGID_5_"
   gradientUnits="userSpaceOnUse"
   x1="0.5"
   y1="69.5098"
   x2="60.5"
   y2="69.5098">
				<stop
   offset="0"
   style="stop-color:#666666"
   id="stop84" />
				<stop
   offset="0.5054"
   style="stop-color:#FFFFFF"
   id="stop86" />
				<stop
   offset="1"
   style="stop-color:#666666"
   id="stop88" />
				<a:midPointStop
   offset="0"
   style="stop-color:#666666" />
				<a:midPointStop
   offset="0.5"
   style="stop-color:#666666" />
				<a:midPointStop
   offset="0.5054"
   style="stop-color:#FFFFFF" />
				<a:midPointStop
   offset="0.5"
   style="stop-color:#FFFFFF" />
				<a:midPointStop
   offset="1"
   style="stop-color:#666666" />
			</linearGradient>
			<polygon
   fill="url(#SVGID_5_)"
   points="38.484,76.733 22.516,76.733 0.5,62.285 60.5,62.285    "
   id="polygon91" />
			<path
   fill="#231F20"
   d="M38.484,77.234H22.516c-0.098,0-0.193-0.028-0.274-0.082L0.226,62.704     c-0.185-0.122-0.269-0.35-0.205-0.562s0.259-0.357,0.479-0.357h60c0.221,0,0.416,0.146,0.479,0.357s-0.021,0.439-0.205,0.562     L38.759,77.152C38.678,77.206,38.582,77.234,38.484,77.234z M22.665,76.233h15.67l20.491-13.447H2.174L22.665,76.233z"
   id="path93" />
		</g>
		<g
   id="g108">
			<linearGradient
   id="SVGID_6_"
   gradientUnits="userSpaceOnUse"
   x1="0.5"
   y1="33.2734"
   x2="60.5"
   y2="33.2734">
				<stop
   offset="0"
   style="stop-color:#666666"
   id="stop97" />
				<stop
   offset="0.5054"
   style="stop-color:#FFFFFF"
   id="stop99" />
				<stop
   offset="1"
   style="stop-color:#666666"
   id="stop101" />
				<a:midPointStop
   offset="0"
   style="stop-color:#666666" />
				<a:midPointStop
   offset="0.5"
   style="stop-color:#666666" />
				<a:midPointStop
   offset="0.5054"
   style="stop-color:#FFFFFF" />
				<a:midPointStop
   offset="0.5"
   style="stop-color:#FFFFFF" />
				<a:midPointStop
   offset="1"
   style="stop-color:#666666" />
			</linearGradient>
			<path
   fill="url(#SVGID_6_)"
   d="M60.489,8.675C60.258,4.288,46.924,0.75,30.5,0.75S0.742,4.288,0.511,8.675H0.5v53.61     c0,2.271,13.432,3.512,30,3.512s30-1.241,30-3.512V8.675H60.489z"
   id="path104" />
			<path
   fill="#231F20"
   d="M30.5,66.297c-9.171,0-30.5-0.391-30.5-4.012V8.175h0.078C1.227,3.203,16.18,0.25,30.5,0.25     s29.273,2.953,30.422,7.925h0.067L61,8.675v53.61C61,65.906,39.671,66.297,30.5,66.297z M1,8.892v53.394     c0,1.251,9.152,3.012,29.5,3.012S60,63.536,60,62.285L59.99,8.701C59.8,5.103,47.905,1.25,30.5,1.25S1.2,5.103,1.01,8.701     L1,8.892z"
   id="path106" />
		</g>
	</g>
</g>
</svg>
