<?xml version="1.0" encoding="UTF-8" standalone="no"?>
<svg
   xmlns:dc="http://purl.org/dc/elements/1.1/"
   xmlns:cc="http://creativecommons.org/ns#"
   xmlns:rdf="http://www.w3.org/1999/02/22-rdf-syntax-ns#"
   xmlns:svg="http://www.w3.org/2000/svg"
   xmlns="http://www.w3.org/2000/svg"
   xmlns:sodipodi="http://sodipodi.sourceforge.net/DTD/sodipodi-0.dtd"
   xmlns:inkscape="http://www.inkscape.org/namespaces/inkscape"
   version="1.1"
   id="图层_1"
   x="0px"
   y="0px"
   width="88.625px"
   height="64.5px"
   viewBox="172.391 304.742 88.625 64.5"
   enable-background="new 172.391 304.742 88.625 64.5"
   xml:space="preserve"
   sodipodi:docname="01-14.svg"><metadata
   id="metadata59"><rdf:RDF><cc:Work
       rdf:about=""><dc:format>image/svg+xml</dc:format><dc:type
         rdf:resource="http://purl.org/dc/dcmitype/StillImage" /></cc:Work></rdf:RDF></metadata><defs
   id="defs57" /><sodipodi:namedview
   pagecolor="#ffffff"
   bordercolor="#666666"
   borderopacity="1"
   objecttolerance="10"
   gridtolerance="10"
   guidetolerance="10"
   inkscape:pageopacity="0"
   inkscape:pageshadow="2"
   inkscape:window-width="640"
   inkscape:window-height="480"
   id="namedview55" />
<g
   id="g52">
	
		<rect
   x="172.641"
   y="315.657"
   fill="#D3B47F"
   stroke="#231815"
   stroke-width="0.5"
   stroke-linecap="round"
   stroke-linejoin="round"
   stroke-miterlimit="10"
   width="75.087"
   height="53.335"
   id="rect2" />
	
		<polygon
   fill="#AD8959"
   stroke="#231815"
   stroke-width="0.5"
   stroke-linecap="round"
   stroke-linejoin="round"
   stroke-miterlimit="10"
   points="   260.766,358.325 247.728,368.992 247.728,315.657 260.766,304.992  "
   id="polygon4" />
	
		<polygon
   fill="#E5C69A"
   stroke="#231815"
   stroke-width="0.5"
   stroke-linecap="round"
   stroke-linejoin="round"
   stroke-miterlimit="10"
   points="   260.766,304.992 191.395,304.992 172.641,315.657 247.728,315.657  "
   id="polygon6" />
	
		<line
   fill="none"
   stroke="#231815"
   stroke-width="0.5"
   stroke-linecap="round"
   stroke-linejoin="round"
   stroke-miterlimit="10"
   x1="183.992"
   y1="309.202"
   x2="255.619"
   y2="309.202"
   id="line8" />
	<g
   id="g34">
		<polygon
   fill="#FFFF00"
   points="174.238,337.439 172.911,338.561 172.911,337.439   "
   id="polygon10" />
		<polygon
   points="182.43,337.439 172.911,345.473 172.911,338.561 174.238,337.439   "
   id="polygon12" />
		<polygon
   fill="#FFFF00"
   points="190.621,337.439 179.041,347.211 172.911,347.211 172.911,345.473 182.43,337.439   "
   id="polygon14" />
		<polygon
   points="198.813,337.439 187.233,347.211 179.041,347.211 190.621,337.439   "
   id="polygon16" />
		<polygon
   fill="#FFFF00"
   points="207.005,337.439 195.425,347.211 187.233,347.211 198.813,337.439   "
   id="polygon18" />
		<polygon
   points="215.195,337.439 203.616,347.211 195.425,347.211 207.005,337.439   "
   id="polygon20" />
		<polygon
   fill="#FFFF00"
   points="223.386,337.439 211.807,347.211 203.616,347.211 215.195,337.439   "
   id="polygon22" />
		<polygon
   points="231.577,337.439 219.998,347.211 211.807,347.211 223.386,337.439   "
   id="polygon24" />
		<polygon
   fill="#FFFF00"
   points="239.769,337.439 228.188,347.211 219.998,347.211 231.577,337.439   "
   id="polygon26" />
		<polygon
   points="247.457,337.439 247.457,337.864 236.381,347.211 228.188,347.211 239.769,337.439   "
   id="polygon28" />
		<polygon
   fill="#FFFF00"
   points="247.457,337.864 247.457,344.776 244.571,347.211 236.381,347.211   "
   id="polygon30" />
		<polygon
   points="247.457,344.776 247.457,347.211 244.571,347.211   "
   id="polygon32" />
	</g>
	<g
   id="g50">
		<polygon
   fill="#FFFF00"
   points="248.261,337.313 248.046,338.561 248.046,337.439   "
   id="polygon36" />
		<polygon
   points="249.544,336.559 248.046,345.473 248.046,338.561 248.261,337.313   "
   id="polygon38" />
		<polygon
   fill="#D8D20E"
   points="250.756,335.846 249.022,346.424 248.046,347.211 248.046,345.473 249.544,336.559   "
   id="polygon40" />
		<polygon
   points="251.901,335.172 250.263,345.424 249.022,346.424 250.756,335.846   "
   id="polygon42" />
		<polygon
   fill="#D8D20E"
   points="252.986,334.535 251.436,344.479 250.263,345.424 251.901,335.172   "
   id="polygon44" />
		<polygon
   points="253.596,334.179 253.596,336.684 252.544,343.586 251.435,344.479 252.986,334.537   "
   id="polygon46" />
		<polygon
   fill="#D8D20E"
   points="253.596,336.684 253.596,342.738 252.544,343.586   "
   id="polygon48" />
	</g>
</g>
</svg>
