<?xml version="1.0" encoding="UTF-8" standalone="no"?>
<svg
   xmlns:dc="http://purl.org/dc/elements/1.1/"
   xmlns:cc="http://creativecommons.org/ns#"
   xmlns:rdf="http://www.w3.org/1999/02/22-rdf-syntax-ns#"
   xmlns:svg="http://www.w3.org/2000/svg"
   xmlns="http://www.w3.org/2000/svg"
   xmlns:sodipodi="http://sodipodi.sourceforge.net/DTD/sodipodi-0.dtd"
   xmlns:inkscape="http://www.inkscape.org/namespaces/inkscape"
   version="1.1"
   id="图层_1"
   x="0px"
   y="0px"
   width="34.971px"
   height="90.711px"
   viewBox="133.225 66.891 34.971 90.711"
   enable-background="new 133.225 66.891 34.971 90.711"
   xml:space="preserve"
   sodipodi:docname="01-02.svg"><metadata
   id="metadata54"><rdf:RDF><cc:Work
       rdf:about=""><dc:format>image/svg+xml</dc:format><dc:type
         rdf:resource="http://purl.org/dc/dcmitype/StillImage" /></cc:Work></rdf:RDF></metadata><defs
   id="defs52" /><sodipodi:namedview
   pagecolor="#ffffff"
   bordercolor="#666666"
   borderopacity="1"
   objecttolerance="10"
   gridtolerance="10"
   guidetolerance="10"
   inkscape:pageopacity="0"
   inkscape:pageshadow="2"
   inkscape:window-width="640"
   inkscape:window-height="480"
   id="namedview50" />
<g
   id="g47">
	
		<rect
   x="143.001"
   y="67.141"
   fill="#B28354"
   stroke="#231815"
   stroke-width="0.5"
   stroke-linecap="round"
   stroke-linejoin="round"
   stroke-miterlimit="10"
   width="15.421"
   height="7.711"
   id="rect2" />
	
		<linearGradient
   id="SVGID_1_"
   gradientUnits="userSpaceOnUse"
   x1="133.4351"
   y1="314.8801"
   x2="167.9058"
   y2="314.8801"
   gradientTransform="matrix(1 0 0 -1 0.04 430.981)">
		<stop
   offset="0"
   style="stop-color:#C3C0BE"
   id="stop4" />
		<stop
   offset="0.2906"
   style="stop-color:#F0EFEF"
   id="stop6" />
		<stop
   offset="0.5"
   style="stop-color:#FFFFFF"
   id="stop8" />
		<stop
   offset="0.734"
   style="stop-color:#F1F0F0"
   id="stop10" />
		<stop
   offset="0.9704"
   style="stop-color:#C3C0BE"
   id="stop12" />
	</linearGradient>
	
		<path
   fill="url(#SVGID_1_)"
   stroke="#231815"
   stroke-width="0.5"
   stroke-linecap="round"
   stroke-linejoin="round"
   stroke-miterlimit="10"
   d="   M156.239,74.851h-11.056l-11.708,7.709v70.778c0,2.217,7.717,4.014,17.235,4.014c9.52,0,17.236-1.797,17.236-4.014V82.56   L156.239,74.851z"
   id="path15" />
	<path
   fill="#FFFFFF"
   d="M154.466,85.585c-5.465,0.132-9.347-0.274-9.405-0.281c-0.453-0.048-0.776-0.429-0.723-0.85   c0.054-0.42,0.461-0.727,0.92-0.675c0.084,0.011,8.602,0.899,18.131-0.438c0.453-0.059,0.872,0.225,0.939,0.643   c0.066,0.42-0.246,0.811-0.697,0.874C160.365,85.316,157.215,85.519,154.466,85.585z"
   id="path17" />
	<circle
   fill="#FFFFFF"
   cx="141.353"
   cy="84.473"
   r="0.916"
   id="circle19" />
	<g
   id="g45">
		
			<line
   fill="none"
   stroke="#231815"
   stroke-width="0.25"
   stroke-miterlimit="10"
   x1="143.836"
   y1="67.141"
   x2="143.836"
   y2="74.852"
   id="line21" />
		
			<line
   fill="none"
   stroke="#231815"
   stroke-width="0.25"
   stroke-miterlimit="10"
   x1="145.086"
   y1="67.141"
   x2="145.086"
   y2="74.852"
   id="line23" />
		
			<line
   fill="none"
   stroke="#231815"
   stroke-width="0.25"
   stroke-miterlimit="10"
   x1="146.336"
   y1="67.141"
   x2="146.336"
   y2="74.852"
   id="line25" />
		
			<line
   fill="none"
   stroke="#231815"
   stroke-width="0.25"
   stroke-miterlimit="10"
   x1="147.586"
   y1="67.141"
   x2="147.586"
   y2="74.852"
   id="line27" />
		
			<line
   fill="none"
   stroke="#231815"
   stroke-width="0.25"
   stroke-miterlimit="10"
   x1="148.836"
   y1="67.141"
   x2="148.836"
   y2="74.852"
   id="line29" />
		
			<line
   fill="none"
   stroke="#231815"
   stroke-width="0.25"
   stroke-miterlimit="10"
   x1="150.086"
   y1="67.141"
   x2="150.086"
   y2="74.852"
   id="line31" />
		
			<line
   fill="none"
   stroke="#231815"
   stroke-width="0.25"
   stroke-miterlimit="10"
   x1="151.336"
   y1="67.141"
   x2="151.336"
   y2="74.852"
   id="line33" />
		
			<line
   fill="none"
   stroke="#231815"
   stroke-width="0.25"
   stroke-miterlimit="10"
   x1="152.586"
   y1="67.141"
   x2="152.586"
   y2="74.852"
   id="line35" />
		
			<line
   fill="none"
   stroke="#231815"
   stroke-width="0.25"
   stroke-miterlimit="10"
   x1="153.836"
   y1="67.141"
   x2="153.836"
   y2="74.852"
   id="line37" />
		
			<line
   fill="none"
   stroke="#231815"
   stroke-width="0.25"
   stroke-miterlimit="10"
   x1="155.086"
   y1="67.141"
   x2="155.086"
   y2="74.852"
   id="line39" />
		
			<line
   fill="none"
   stroke="#231815"
   stroke-width="0.25"
   stroke-miterlimit="10"
   x1="156.336"
   y1="67.141"
   x2="156.336"
   y2="74.852"
   id="line41" />
		
			<line
   fill="none"
   stroke="#231815"
   stroke-width="0.25"
   stroke-miterlimit="10"
   x1="157.586"
   y1="67.141"
   x2="157.586"
   y2="74.852"
   id="line43" />
	</g>
</g>
</svg>
