<?xml version="1.0" standalone="no"?><!DOCTYPE svg PUBLIC "-//W3C//DTD SVG 1.1//EN" "http://www.w3.org/Graphics/SVG/1.1/DTD/svg11.dtd"><svg t="1671079554368" class="icon" viewBox="0 0 1024 1024" version="1.1" xmlns="http://www.w3.org/2000/svg" p-id="2749" xmlns:xlink="http://www.w3.org/1999/xlink" width="16" height="16"><path d="M793.6 972.8l-563.2 0c-113.1008 0-204.8-91.6992-204.8-204.8L25.6 256c0-113.1008 91.6992-204.8 204.8-204.8l563.2 0c113.1008 0 204.8 91.6992 204.8 204.8l0 512C998.4 881.1008 906.7008 972.8 793.6 972.8zM947.2 286.72c0-101.7856-82.5344-184.32-184.32-184.32L261.12 102.4C159.3344 102.4 76.8 184.9344 76.8 286.72l0 450.56c0 101.7856 82.5344 184.32 184.32 184.32l501.76 0c101.7856 0 184.32-82.5344 184.32-184.32L947.2 286.72zM384 308.224l307.2 203.776-307.2 203.776L384 308.224z" fill="#ffffff" p-id="2750"></path></svg>