<?xml version="1.0" encoding="UTF-8" standalone="no"?>
<svg
   xmlns:a="http://ns.adobe.com/AdobeSVGViewerExtensions/3.0/"
   xmlns:dc="http://purl.org/dc/elements/1.1/"
   xmlns:cc="http://creativecommons.org/ns#"
   xmlns:rdf="http://www.w3.org/1999/02/22-rdf-syntax-ns#"
   xmlns:svg="http://www.w3.org/2000/svg"
   xmlns="http://www.w3.org/2000/svg"
   xmlns:sodipodi="http://sodipodi.sourceforge.net/DTD/sodipodi-0.dtd"
   xmlns:inkscape="http://www.inkscape.org/namespaces/inkscape"
   version="1.1"
   id="图层_1"
   x="0px"
   y="0px"
   width="45px"
   height="45px"
   viewBox="0 0 45 45"
   enable-background="new 0 0 45 45"
   xml:space="preserve"
   sodipodi:docname="阀门_45-01.svg"><metadata
   id="metadata338"><rdf:RDF><cc:Work
       rdf:about=""><dc:format>image/svg+xml</dc:format><dc:type
         rdf:resource="http://purl.org/dc/dcmitype/StillImage" /></cc:Work></rdf:RDF></metadata><defs
   id="defs336" /><sodipodi:namedview
   pagecolor="#ffffff"
   bordercolor="#666666"
   borderopacity="1"
   objecttolerance="10"
   gridtolerance="10"
   guidetolerance="10"
   inkscape:pageopacity="0"
   inkscape:pageshadow="2"
   inkscape:window-width="640"
   inkscape:window-height="480"
   id="namedview334" />
<g
   id="g331">
	<path
   fill="#640000"
   d="M17.67,43.504C8.535,41.582,1.868,34.861,0.319,26.053c-0.699-3.993-0.256-8.125,1.365-11.871   c1.759-4.07,4.767-7.386,8.639-9.755c16.771-10.271,38.39,4.063,34.134,22.67C41.811,38.667,29.771,46.005,17.67,43.504   L17.67,43.504z M18.553,39.641c15.854,3.276,28.155-13.522,19.375-26.596C29.138-0.038,8.008,3.58,4.532,18.771   C2.373,28.213,8.689,37.564,18.553,39.641z"
   id="path2" />
	
		<radialGradient
   id="SVGID_1_"
   cx="314.1309"
   cy="-356.8506"
   r="21.5143"
   gradientTransform="matrix(1.0521 0 0 -1.0052 -307.9978 -336.2108)"
   gradientUnits="userSpaceOnUse">
		<stop
   offset="0"
   style="stop-color:#B47736"
   id="stop4" />
		<stop
   offset="0.84"
   style="stop-color:#812000"
   id="stop6" />
		<stop
   offset="0.87"
   style="stop-color:#BB5E2F"
   id="stop8" />
		<stop
   offset="0.91"
   style="stop-color:#FACE91"
   id="stop10" />
		<stop
   offset="0.94"
   style="stop-color:#D37B3F"
   id="stop12" />
		<stop
   offset="1"
   style="stop-color:#640000"
   id="stop14" />
		<a:midPointStop
   offset="0"
   style="stop-color:#B47736" />
		<a:midPointStop
   offset="0.5"
   style="stop-color:#B47736" />
		<a:midPointStop
   offset="0.84"
   style="stop-color:#812000" />
		<a:midPointStop
   offset="0.5"
   style="stop-color:#812000" />
		<a:midPointStop
   offset="0.87"
   style="stop-color:#BB5E2F" />
		<a:midPointStop
   offset="0.5"
   style="stop-color:#BB5E2F" />
		<a:midPointStop
   offset="0.91"
   style="stop-color:#FACE91" />
		<a:midPointStop
   offset="0.5"
   style="stop-color:#FACE91" />
		<a:midPointStop
   offset="0.94"
   style="stop-color:#D37B3F" />
		<a:midPointStop
   offset="0.5"
   style="stop-color:#D37B3F" />
		<a:midPointStop
   offset="1"
   style="stop-color:#640000" />
	</radialGradient>
	<path
   fill="url(#SVGID_1_)"
   d="M17.729,43.245C29.725,45.724,41.562,38.5,44.183,27.04C48.387,8.654,27.062-5.506,10.473,4.654   c-3.824,2.343-6.792,5.613-8.529,9.633c-1.603,3.698-2.039,7.78-1.347,11.724C2.125,34.706,8.7,41.345,17.729,43.245L17.729,43.245   z M18.493,39.905L18.493,39.905C8.438,37.789,2.06,28.329,4.26,18.716C7.786,3.291,29.234-0.388,38.163,12.902   C47.098,26.205,34.661,43.245,18.493,39.905z"
   id="path17" />
	<path
   fill="#FFFFFF"
   d="M18.05,41.787c11.153,2.306,22.163-4.41,24.601-15.066C46.557,9.642,26.71-3.536,11.305,5.902   C-4.131,15.356,0.169,38.023,18.05,41.787L18.05,41.787z M18.15,41.354L18.15,41.354C7.257,39.061,0.344,28.81,2.726,18.394   c3.817-16.692,27.076-20.682,36.737-6.3C49.14,26.503,35.648,44.969,18.15,41.354z"
   id="path19" />
	<path
   fill="#640000"
   d="M20.67,18.308c-0.095,1.043,3.813,1.304,3.788,0.149c-0.742-4.264-0.564-8.279,0.445-12.491   c0.794-0.657,1.281-1.65,1.229-2.737c-0.09-1.869-1.732-3.314-3.668-3.226c-1.938,0.085-3.429,1.672-3.339,3.541   c0.046,0.969,0.509,1.824,1.216,2.412C21.069,10.118,21.77,14.077,20.67,18.308z"
   id="path21" />
	
		<linearGradient
   id="SVGID_2_"
   gradientUnits="userSpaceOnUse"
   x1="312.6133"
   y1="-338.6782"
   x2="312.6133"
   y2="-352.7955"
   gradientTransform="matrix(1 0 0 -1 -290 -333)">
		<stop
   offset="0"
   style="stop-color:#640000"
   id="stop23" />
		<stop
   offset="0.16"
   style="stop-color:#A06032"
   id="stop25" />
		<stop
   offset="0.24"
   style="stop-color:#C77D51"
   id="stop27" />
		<stop
   offset="0.33"
   style="stop-color:#FACE91"
   id="stop29" />
		<stop
   offset="0.4"
   style="stop-color:#FAF2DE"
   id="stop31" />
		<stop
   offset="0.52"
   style="stop-color:#F1BE74"
   id="stop33" />
		<stop
   offset="0.61"
   style="stop-color:#E99C62"
   id="stop35" />
		<stop
   offset="0.72"
   style="stop-color:#AF5800"
   id="stop37" />
		<stop
   offset="0.87"
   style="stop-color:#812000"
   id="stop39" />
		<stop
   offset="1"
   style="stop-color:#B47736"
   id="stop41" />
		<a:midPointStop
   offset="0"
   style="stop-color:#640000" />
		<a:midPointStop
   offset="0.5"
   style="stop-color:#640000" />
		<a:midPointStop
   offset="0.16"
   style="stop-color:#A06032" />
		<a:midPointStop
   offset="0.5"
   style="stop-color:#A06032" />
		<a:midPointStop
   offset="0.24"
   style="stop-color:#C77D51" />
		<a:midPointStop
   offset="0.5"
   style="stop-color:#C77D51" />
		<a:midPointStop
   offset="0.33"
   style="stop-color:#FACE91" />
		<a:midPointStop
   offset="0.5"
   style="stop-color:#FACE91" />
		<a:midPointStop
   offset="0.4"
   style="stop-color:#FAF2DE" />
		<a:midPointStop
   offset="0.5"
   style="stop-color:#FAF2DE" />
		<a:midPointStop
   offset="0.52"
   style="stop-color:#F1BE74" />
		<a:midPointStop
   offset="0.5"
   style="stop-color:#F1BE74" />
		<a:midPointStop
   offset="0.61"
   style="stop-color:#E99C62" />
		<a:midPointStop
   offset="0.5"
   style="stop-color:#E99C62" />
		<a:midPointStop
   offset="0.72"
   style="stop-color:#AF5800" />
		<a:midPointStop
   offset="0.5"
   style="stop-color:#AF5800" />
		<a:midPointStop
   offset="0.87"
   style="stop-color:#812000" />
		<a:midPointStop
   offset="0.5"
   style="stop-color:#812000" />
		<a:midPointStop
   offset="1"
   style="stop-color:#B47736" />
	</linearGradient>
	<path
   fill="url(#SVGID_2_)"
   d="M24.229,18.502c-0.808-4.402-0.576-8.34,0.408-12.336c-0.525,0.355-1.156,0.576-1.842,0.606   c-0.821,0.036-1.587-0.2-2.206-0.629c0.804,4.366,1.435,8.097,0.306,12.206C20.842,18.899,24.242,19.139,24.229,18.502z"
   id="path44" />
	<path
   fill="#640000"
   d="M17.785,21.916c0.899,0.6,3.09-2.504,2.03-3.06c-4.232-1.52-7.787-3.673-11.098-6.613   c-0.199-0.986-0.855-1.887-1.866-2.387c-1.738-0.859-3.873-0.224-4.757,1.422c-0.893,1.646-0.199,3.675,1.539,4.534   c0.899,0.447,1.909,0.49,2.795,0.199C10.563,17.491,14.501,18.891,17.785,21.916z"
   id="path46" />
	
		<linearGradient
   id="SVGID_3_"
   gradientUnits="userSpaceOnUse"
   x1="307.9268"
   y1="-347.4761"
   x2="298.5932"
   y2="-353.0841"
   gradientTransform="matrix(1 0 0 -1 -290 -333)">
		<stop
   offset="0"
   style="stop-color:#640000"
   id="stop48" />
		<stop
   offset="0.16"
   style="stop-color:#A06032"
   id="stop50" />
		<stop
   offset="0.24"
   style="stop-color:#C77D51"
   id="stop52" />
		<stop
   offset="0.33"
   style="stop-color:#FACE91"
   id="stop54" />
		<stop
   offset="0.4"
   style="stop-color:#FAF2DE"
   id="stop56" />
		<stop
   offset="0.52"
   style="stop-color:#F1BE74"
   id="stop58" />
		<stop
   offset="0.61"
   style="stop-color:#E99C62"
   id="stop60" />
		<stop
   offset="0.72"
   style="stop-color:#AF5800"
   id="stop62" />
		<stop
   offset="0.87"
   style="stop-color:#812000"
   id="stop64" />
		<stop
   offset="1"
   style="stop-color:#B47736"
   id="stop66" />
		<a:midPointStop
   offset="0"
   style="stop-color:#640000" />
		<a:midPointStop
   offset="0.5"
   style="stop-color:#640000" />
		<a:midPointStop
   offset="0.16"
   style="stop-color:#A06032" />
		<a:midPointStop
   offset="0.5"
   style="stop-color:#A06032" />
		<a:midPointStop
   offset="0.24"
   style="stop-color:#C77D51" />
		<a:midPointStop
   offset="0.5"
   style="stop-color:#C77D51" />
		<a:midPointStop
   offset="0.33"
   style="stop-color:#FACE91" />
		<a:midPointStop
   offset="0.5"
   style="stop-color:#FACE91" />
		<a:midPointStop
   offset="0.4"
   style="stop-color:#FAF2DE" />
		<a:midPointStop
   offset="0.5"
   style="stop-color:#FAF2DE" />
		<a:midPointStop
   offset="0.52"
   style="stop-color:#F1BE74" />
		<a:midPointStop
   offset="0.5"
   style="stop-color:#F1BE74" />
		<a:midPointStop
   offset="0.61"
   style="stop-color:#E99C62" />
		<a:midPointStop
   offset="0.5"
   style="stop-color:#E99C62" />
		<a:midPointStop
   offset="0.72"
   style="stop-color:#AF5800" />
		<a:midPointStop
   offset="0.5"
   style="stop-color:#AF5800" />
		<a:midPointStop
   offset="0.87"
   style="stop-color:#812000" />
		<a:midPointStop
   offset="0.5"
   style="stop-color:#812000" />
		<a:midPointStop
   offset="1"
   style="stop-color:#B47736" />
	</linearGradient>
	<path
   fill="url(#SVGID_3_)"
   d="M19.741,19.071c-4.395-1.533-7.847-3.694-10.976-6.508c0.059,0.612-0.056,1.245-0.372,1.829   c-0.376,0.695-0.974,1.211-1.673,1.51c4.362,1.519,8.056,2.861,11.216,5.852C18.405,22.069,20.325,19.375,19.741,19.071z"
   id="path69" />
	<path
   fill="#640000"
   d="M19.613,26.106c0.994-0.442-0.726-3.807-1.758-3.208c-3.493,2.745-7.222,4.607-11.543,5.877   c-0.994-0.329-2.138-0.234-3.096,0.353c-1.648,1.01-2.14,3.092-1.09,4.647c1.046,1.562,3.229,2.001,4.879,0.992   c0.854-0.521,1.399-1.335,1.579-2.212C11.991,29.871,15.229,27.313,19.613,26.106z"
   id="path71" />
	
		<linearGradient
   id="SVGID_4_"
   gradientUnits="userSpaceOnUse"
   x1="308.0713"
   y1="-363.4487"
   x2="298.5144"
   y2="-357.7063"
   gradientTransform="matrix(1 0 0 -1 -290 -333)">
		<stop
   offset="0"
   style="stop-color:#640000"
   id="stop73" />
		<stop
   offset="0.16"
   style="stop-color:#A06032"
   id="stop75" />
		<stop
   offset="0.24"
   style="stop-color:#C77D51"
   id="stop77" />
		<stop
   offset="0.33"
   style="stop-color:#FACE91"
   id="stop79" />
		<stop
   offset="0.4"
   style="stop-color:#FAF2DE"
   id="stop81" />
		<stop
   offset="0.52"
   style="stop-color:#F1BE74"
   id="stop83" />
		<stop
   offset="0.61"
   style="stop-color:#E99C62"
   id="stop85" />
		<stop
   offset="0.72"
   style="stop-color:#AF5800"
   id="stop87" />
		<stop
   offset="0.87"
   style="stop-color:#812000"
   id="stop89" />
		<stop
   offset="1"
   style="stop-color:#B47736"
   id="stop91" />
		<a:midPointStop
   offset="0"
   style="stop-color:#640000" />
		<a:midPointStop
   offset="0.5"
   style="stop-color:#640000" />
		<a:midPointStop
   offset="0.16"
   style="stop-color:#A06032" />
		<a:midPointStop
   offset="0.5"
   style="stop-color:#A06032" />
		<a:midPointStop
   offset="0.24"
   style="stop-color:#C77D51" />
		<a:midPointStop
   offset="0.5"
   style="stop-color:#C77D51" />
		<a:midPointStop
   offset="0.33"
   style="stop-color:#FACE91" />
		<a:midPointStop
   offset="0.5"
   style="stop-color:#FACE91" />
		<a:midPointStop
   offset="0.4"
   style="stop-color:#FAF2DE" />
		<a:midPointStop
   offset="0.5"
   style="stop-color:#FAF2DE" />
		<a:midPointStop
   offset="0.52"
   style="stop-color:#F1BE74" />
		<a:midPointStop
   offset="0.5"
   style="stop-color:#F1BE74" />
		<a:midPointStop
   offset="0.61"
   style="stop-color:#E99C62" />
		<a:midPointStop
   offset="0.5"
   style="stop-color:#E99C62" />
		<a:midPointStop
   offset="0.72"
   style="stop-color:#AF5800" />
		<a:midPointStop
   offset="0.5"
   style="stop-color:#AF5800" />
		<a:midPointStop
   offset="0.87"
   style="stop-color:#812000" />
		<a:midPointStop
   offset="0.5"
   style="stop-color:#812000" />
		<a:midPointStop
   offset="1"
   style="stop-color:#B47736" />
	</linearGradient>
	<path
   fill="url(#SVGID_4_)"
   d="M18.013,23.066c-3.586,2.869-7.271,4.647-11.385,5.83c0.585,0.257,1.099,0.669,1.471,1.224   c0.444,0.658,0.611,1.411,0.533,2.139c3.556-2.85,6.621-5.235,10.911-6.355C20.061,25.671,18.581,22.735,18.013,23.066z"
   id="path94" />
	<path
   fill="#640000"
   d="M24.325,26.689c0.095-1.043-3.813-1.303-3.785-0.147c0.739,4.262,0.563,8.277-0.446,12.49   c-0.795,0.656-1.282,1.649-1.229,2.735c0.092,1.87,1.732,3.316,3.668,3.229c1.938-0.085,3.43-1.674,3.339-3.542   c-0.045-0.97-0.51-1.825-1.215-2.413C23.928,34.88,23.227,30.921,24.325,26.689z"
   id="path96" />
	
		<linearGradient
   id="SVGID_5_"
   gradientUnits="userSpaceOnUse"
   x1="312.3838"
   y1="-372.7676"
   x2="312.3838"
   y2="-358.649"
   gradientTransform="matrix(1 0 0 -1 -290 -333)">
		<stop
   offset="0"
   style="stop-color:#640000"
   id="stop98" />
		<stop
   offset="0.16"
   style="stop-color:#A06032"
   id="stop100" />
		<stop
   offset="0.24"
   style="stop-color:#C77D51"
   id="stop102" />
		<stop
   offset="0.33"
   style="stop-color:#FACE91"
   id="stop104" />
		<stop
   offset="0.4"
   style="stop-color:#FAF2DE"
   id="stop106" />
		<stop
   offset="0.52"
   style="stop-color:#F1BE74"
   id="stop108" />
		<stop
   offset="0.61"
   style="stop-color:#E99C62"
   id="stop110" />
		<stop
   offset="0.72"
   style="stop-color:#AF5800"
   id="stop112" />
		<stop
   offset="0.87"
   style="stop-color:#812000"
   id="stop114" />
		<stop
   offset="1"
   style="stop-color:#B47736"
   id="stop116" />
		<a:midPointStop
   offset="0"
   style="stop-color:#640000" />
		<a:midPointStop
   offset="0.5"
   style="stop-color:#640000" />
		<a:midPointStop
   offset="0.16"
   style="stop-color:#A06032" />
		<a:midPointStop
   offset="0.5"
   style="stop-color:#A06032" />
		<a:midPointStop
   offset="0.24"
   style="stop-color:#C77D51" />
		<a:midPointStop
   offset="0.5"
   style="stop-color:#C77D51" />
		<a:midPointStop
   offset="0.33"
   style="stop-color:#FACE91" />
		<a:midPointStop
   offset="0.5"
   style="stop-color:#FACE91" />
		<a:midPointStop
   offset="0.4"
   style="stop-color:#FAF2DE" />
		<a:midPointStop
   offset="0.5"
   style="stop-color:#FAF2DE" />
		<a:midPointStop
   offset="0.52"
   style="stop-color:#F1BE74" />
		<a:midPointStop
   offset="0.5"
   style="stop-color:#F1BE74" />
		<a:midPointStop
   offset="0.61"
   style="stop-color:#E99C62" />
		<a:midPointStop
   offset="0.5"
   style="stop-color:#E99C62" />
		<a:midPointStop
   offset="0.72"
   style="stop-color:#AF5800" />
		<a:midPointStop
   offset="0.5"
   style="stop-color:#AF5800" />
		<a:midPointStop
   offset="0.87"
   style="stop-color:#812000" />
		<a:midPointStop
   offset="0.5"
   style="stop-color:#812000" />
		<a:midPointStop
   offset="1"
   style="stop-color:#B47736" />
	</linearGradient>
	<path
   fill="url(#SVGID_5_)"
   d="M20.768,26.495c0.808,4.401,0.577,8.341-0.408,12.337c0.524-0.355,1.155-0.575,1.842-0.607   c0.821-0.036,1.587,0.201,2.207,0.629c-0.806-4.367-1.436-8.098-0.306-12.206C24.154,26.101,20.755,25.859,20.768,26.495z"
   id="path119" />
	<path
   fill="#640000"
   d="M27.21,23.082c-0.898-0.601-3.087,2.504-2.029,3.059c4.234,1.521,7.786,3.673,11.098,6.615   c0.199,0.986,0.855,1.886,1.866,2.385c1.739,0.86,3.872,0.225,4.758-1.422c0.893-1.646,0.199-3.674-1.539-4.534   c-0.9-0.445-1.909-0.488-2.795-0.199C34.434,27.507,30.495,26.106,27.21,23.082z"
   id="path121" />
	
		<linearGradient
   id="SVGID_6_"
   gradientUnits="userSpaceOnUse"
   x1="316.874"
   y1="-363.5308"
   x2="326.3026"
   y2="-358.0872"
   gradientTransform="matrix(1 0 0 -1 -290 -333)">
		<stop
   offset="0"
   style="stop-color:#640000"
   id="stop123" />
		<stop
   offset="0.16"
   style="stop-color:#A06032"
   id="stop125" />
		<stop
   offset="0.24"
   style="stop-color:#C77D51"
   id="stop127" />
		<stop
   offset="0.33"
   style="stop-color:#FACE91"
   id="stop129" />
		<stop
   offset="0.4"
   style="stop-color:#FAF2DE"
   id="stop131" />
		<stop
   offset="0.52"
   style="stop-color:#F1BE74"
   id="stop133" />
		<stop
   offset="0.61"
   style="stop-color:#E99C62"
   id="stop135" />
		<stop
   offset="0.72"
   style="stop-color:#AF5800"
   id="stop137" />
		<stop
   offset="0.87"
   style="stop-color:#812000"
   id="stop139" />
		<stop
   offset="1"
   style="stop-color:#B47736"
   id="stop141" />
		<a:midPointStop
   offset="0"
   style="stop-color:#640000" />
		<a:midPointStop
   offset="0.5"
   style="stop-color:#640000" />
		<a:midPointStop
   offset="0.16"
   style="stop-color:#A06032" />
		<a:midPointStop
   offset="0.5"
   style="stop-color:#A06032" />
		<a:midPointStop
   offset="0.24"
   style="stop-color:#C77D51" />
		<a:midPointStop
   offset="0.5"
   style="stop-color:#C77D51" />
		<a:midPointStop
   offset="0.33"
   style="stop-color:#FACE91" />
		<a:midPointStop
   offset="0.5"
   style="stop-color:#FACE91" />
		<a:midPointStop
   offset="0.4"
   style="stop-color:#FAF2DE" />
		<a:midPointStop
   offset="0.5"
   style="stop-color:#FAF2DE" />
		<a:midPointStop
   offset="0.52"
   style="stop-color:#F1BE74" />
		<a:midPointStop
   offset="0.5"
   style="stop-color:#F1BE74" />
		<a:midPointStop
   offset="0.61"
   style="stop-color:#E99C62" />
		<a:midPointStop
   offset="0.5"
   style="stop-color:#E99C62" />
		<a:midPointStop
   offset="0.72"
   style="stop-color:#AF5800" />
		<a:midPointStop
   offset="0.5"
   style="stop-color:#AF5800" />
		<a:midPointStop
   offset="0.87"
   style="stop-color:#812000" />
		<a:midPointStop
   offset="0.5"
   style="stop-color:#812000" />
		<a:midPointStop
   offset="1"
   style="stop-color:#B47736" />
	</linearGradient>
	<path
   fill="url(#SVGID_6_)"
   d="M25.255,25.929c4.394,1.532,7.847,3.694,10.977,6.506c-0.061-0.611,0.057-1.244,0.371-1.828   c0.376-0.695,0.974-1.212,1.673-1.51c-4.36-1.518-8.056-2.861-11.215-5.852C26.59,22.928,24.672,25.623,25.255,25.929z"
   id="path144" />
	<path
   fill="#640000"
   d="M25.383,18.891c-0.992,0.443,0.725,3.808,1.758,3.209c3.493-2.745,7.223-4.606,11.543-5.878   c0.993,0.329,2.137,0.236,3.096-0.352c1.649-1.009,2.141-3.093,1.09-4.647c-1.045-1.562-3.229-2.002-4.879-0.993   c-0.854,0.521-1.397,1.335-1.576,2.214C33.005,15.126,29.767,17.684,25.383,18.891z"
   id="path146" />
	
		<linearGradient
   id="SVGID_7_"
   gradientUnits="userSpaceOnUse"
   x1="316.9863"
   y1="-347.7983"
   x2="326.733"
   y2="-353.201"
   gradientTransform="matrix(1 0 0 -1 -290 -333)">
		<stop
   offset="0"
   style="stop-color:#640000"
   id="stop148" />
		<stop
   offset="0.16"
   style="stop-color:#A06032"
   id="stop150" />
		<stop
   offset="0.24"
   style="stop-color:#C77D51"
   id="stop152" />
		<stop
   offset="0.33"
   style="stop-color:#FACE91"
   id="stop154" />
		<stop
   offset="0.4"
   style="stop-color:#FAF2DE"
   id="stop156" />
		<stop
   offset="0.52"
   style="stop-color:#F1BE74"
   id="stop158" />
		<stop
   offset="0.61"
   style="stop-color:#E99C62"
   id="stop160" />
		<stop
   offset="0.72"
   style="stop-color:#AF5800"
   id="stop162" />
		<stop
   offset="0.87"
   style="stop-color:#812000"
   id="stop164" />
		<stop
   offset="1"
   style="stop-color:#B47736"
   id="stop166" />
		<a:midPointStop
   offset="0"
   style="stop-color:#640000" />
		<a:midPointStop
   offset="0.5"
   style="stop-color:#640000" />
		<a:midPointStop
   offset="0.16"
   style="stop-color:#A06032" />
		<a:midPointStop
   offset="0.5"
   style="stop-color:#A06032" />
		<a:midPointStop
   offset="0.24"
   style="stop-color:#C77D51" />
		<a:midPointStop
   offset="0.5"
   style="stop-color:#C77D51" />
		<a:midPointStop
   offset="0.33"
   style="stop-color:#FACE91" />
		<a:midPointStop
   offset="0.5"
   style="stop-color:#FACE91" />
		<a:midPointStop
   offset="0.4"
   style="stop-color:#FAF2DE" />
		<a:midPointStop
   offset="0.5"
   style="stop-color:#FAF2DE" />
		<a:midPointStop
   offset="0.52"
   style="stop-color:#F1BE74" />
		<a:midPointStop
   offset="0.5"
   style="stop-color:#F1BE74" />
		<a:midPointStop
   offset="0.61"
   style="stop-color:#E99C62" />
		<a:midPointStop
   offset="0.5"
   style="stop-color:#E99C62" />
		<a:midPointStop
   offset="0.72"
   style="stop-color:#AF5800" />
		<a:midPointStop
   offset="0.5"
   style="stop-color:#AF5800" />
		<a:midPointStop
   offset="0.87"
   style="stop-color:#812000" />
		<a:midPointStop
   offset="0.5"
   style="stop-color:#812000" />
		<a:midPointStop
   offset="1"
   style="stop-color:#B47736" />
	</linearGradient>
	<path
   fill="url(#SVGID_7_)"
   d="M26.984,21.931c3.586-2.868,7.271-4.646,11.385-5.829c-0.584-0.258-1.099-0.669-1.472-1.222   c-0.442-0.66-0.609-1.412-0.532-2.139c-3.556,2.849-6.622,5.235-10.911,6.354C24.933,19.328,26.415,22.262,26.984,21.931z"
   id="path169" />
	<path
   fill="#640000"
   d="M20.745,17.508c7.564-2.302,11.188,8.56,3.623,10.864C16.807,30.678,13.184,19.814,20.745,17.508z"
   id="path171" />
	<path
   fill="#8E2F02"
   d="M20.831,17.767c3.023-0.921,6.247,0.649,7.2,3.507c0.954,2.859-0.723,5.922-3.748,6.843   c-3.021,0.922-6.247-0.649-7.199-3.509C16.13,21.751,17.81,18.687,20.831,17.767z"
   id="path173" />
	<path
   fill="#CA814B"
   d="M26.222,18.735c3.472,2.707,2.413,8.058-1.938,9.382c-1.945,0.592-3.975,0.149-5.43-1   C23.354,29.659,28.2,22.688,26.222,18.735z"
   id="path175" />
	
		<radialGradient
   id="SVGID_8_"
   cx="316.127"
   cy="-358.2617"
   r="8.6466"
   gradientTransform="matrix(1.0521 0 0 -1.0052 -307.9978 -336.2108)"
   gradientUnits="userSpaceOnUse">
		<stop
   offset="0"
   style="stop-color:#FDEFD9"
   id="stop177" />
		<stop
   offset="0.26"
   style="stop-color:#FACE91"
   id="stop179" />
		<stop
   offset="0.86"
   style="stop-color:#8C2D02"
   id="stop181" />
		<stop
   offset="1"
   style="stop-color:#B14F00"
   id="stop183" />
		<a:midPointStop
   offset="0"
   style="stop-color:#FDEFD9" />
		<a:midPointStop
   offset="0.5"
   style="stop-color:#FDEFD9" />
		<a:midPointStop
   offset="0.26"
   style="stop-color:#FACE91" />
		<a:midPointStop
   offset="0.5"
   style="stop-color:#FACE91" />
		<a:midPointStop
   offset="0.86"
   style="stop-color:#8C2D02" />
		<a:midPointStop
   offset="0.5"
   style="stop-color:#8C2D02" />
		<a:midPointStop
   offset="1"
   style="stop-color:#B14F00" />
	</radialGradient>
	<path
   fill="url(#SVGID_8_)"
   d="M21.163,18.401c2.569-0.782,5.313,0.556,6.123,2.985c0.811,2.43-0.615,5.037-3.188,5.82   c-2.568,0.781-5.313-0.555-6.123-2.984C17.165,21.792,18.594,19.183,21.163,18.401z"
   id="path186" />
	<path
   fill="#580000"
   d="M21.89,25.812l3.124-0.769c0.341-1.138,0.551-1.77,0.88-2.867l-0.166-0.48l-2.208-2.099l-3.122,0.769   l-0.882,2.864l0.166,0.48L21.89,25.812z"
   id="path188" />
	
		<linearGradient
   id="SVGID_9_"
   gradientUnits="userSpaceOnUse"
   x1="309.2646"
   y1="-355.9194"
   x2="315.4586"
   y2="-355.159"
   gradientTransform="matrix(1 0 0 -1 -290 -333)">
		<stop
   offset="0"
   style="stop-color:#240000"
   id="stop190" />
		<stop
   offset="1"
   style="stop-color:#6B2700"
   id="stop192" />
		<a:midPointStop
   offset="0"
   style="stop-color:#240000" />
		<a:midPointStop
   offset="0.5"
   style="stop-color:#240000" />
		<a:midPointStop
   offset="1"
   style="stop-color:#6B2700" />
	</linearGradient>
	<path
   fill="url(#SVGID_9_)"
   d="M20.433,19.92l-1.431,2.762c0.679,0.99,1.042,1.555,1.696,2.509l0.486,0.194l3.109-0.229   l1.429-2.763l-1.694-2.508l-0.488-0.195L20.433,19.92z"
   id="path195" />
	
		<linearGradient
   id="SVGID_10_"
   gradientUnits="userSpaceOnUse"
   x1="308.5977"
   y1="-352.5146"
   x2="313.585"
   y2="-356.5532"
   gradientTransform="matrix(1 0 0 -1 -290 -333)">
		<stop
   offset="0"
   style="stop-color:#640000"
   id="stop197" />
		<stop
   offset="0.14"
   style="stop-color:#8C2D02"
   id="stop199" />
		<stop
   offset="0.74"
   style="stop-color:#FACE91"
   id="stop201" />
		<stop
   offset="1"
   style="stop-color:#FDEFD9"
   id="stop203" />
		<a:midPointStop
   offset="0"
   style="stop-color:#640000" />
		<a:midPointStop
   offset="0.5"
   style="stop-color:#640000" />
		<a:midPointStop
   offset="0.14"
   style="stop-color:#8C2D02" />
		<a:midPointStop
   offset="0.5"
   style="stop-color:#8C2D02" />
		<a:midPointStop
   offset="0.74"
   style="stop-color:#FACE91" />
		<a:midPointStop
   offset="0.5"
   style="stop-color:#FACE91" />
		<a:midPointStop
   offset="1"
   style="stop-color:#FDEFD9" />
	</linearGradient>
	<polygon
   fill="url(#SVGID_10_)"
   points="19.24,22.688 20.596,20.06 23.639,19.872 25.324,22.312 23.97,24.941 20.929,25.129    20.191,24.065 20.284,23.994 20.139,23.732 19.904,23.649  "
   id="polygon206" />
	<polygon
   fill="#884520"
   points="24.386,20.953 24.686,20.995 24.975,21.444 24.674,21.37 22.342,22.826 20.191,24.065    20.284,23.994 20.139,23.732 19.904,23.649  "
   id="polygon208" />
	
		<linearGradient
   id="SVGID_11_"
   gradientUnits="userSpaceOnUse"
   x1="310.6904"
   y1="-355.6528"
   x2="314.4354"
   y2="-355.391"
   gradientTransform="matrix(1 0 0 -1 -290 -333)">
		<stop
   offset="0"
   style="stop-color:#240000"
   id="stop210" />
		<stop
   offset="1"
   style="stop-color:#6B2700"
   id="stop212" />
		<a:midPointStop
   offset="0"
   style="stop-color:#240000" />
		<a:midPointStop
   offset="0.5"
   style="stop-color:#240000" />
		<a:midPointStop
   offset="1"
   style="stop-color:#6B2700" />
	</linearGradient>
	<polygon
   fill="url(#SVGID_11_)"
   points="24.686,20.995 24.975,21.444 24.674,21.37 20.191,24.065 20.284,23.994 20.139,23.732  "
   id="polygon215" />
	<g
   id="g234">
		<path
   fill="#8E2F02"
   d="M2.425,14.563c0.956,1.47,2.99,1.912,4.545,0.987c1.553-0.924,2.043-2.864,1.088-4.334    c-0.954-1.471-2.987-1.913-4.542-0.99C1.962,11.151,1.474,13.093,2.425,14.563z"
   id="path217" />
		<path
   fill="#CA814B"
   d="M5.168,16.032c2.596,0.029,4.262-2.701,2.89-4.815C7.444,10.27,6.383,9.75,5.289,9.747    C8.268,10.208,7.608,14.986,5.168,16.032z"
   id="path219" />
		
			<radialGradient
   id="SVGID_12_"
   cx="297.1182"
   cy="-348.4199"
   r="3.8324"
   gradientTransform="matrix(1.0521 0 0 -1.0052 -307.9978 -336.2108)"
   gradientUnits="userSpaceOnUse">
			<stop
   offset="0"
   style="stop-color:#FDEFD9"
   id="stop221" />
			<stop
   offset="0.26"
   style="stop-color:#FACE91"
   id="stop223" />
			<stop
   offset="0.86"
   style="stop-color:#8C2D02"
   id="stop225" />
			<stop
   offset="1"
   style="stop-color:#B14F00"
   id="stop227" />
			<a:midPointStop
   offset="0"
   style="stop-color:#FDEFD9" />
			<a:midPointStop
   offset="0.5"
   style="stop-color:#FDEFD9" />
			<a:midPointStop
   offset="0.26"
   style="stop-color:#FACE91" />
			<a:midPointStop
   offset="0.5"
   style="stop-color:#FACE91" />
			<a:midPointStop
   offset="0.86"
   style="stop-color:#8C2D02" />
			<a:midPointStop
   offset="0.5"
   style="stop-color:#8C2D02" />
			<a:midPointStop
   offset="1"
   style="stop-color:#B14F00" />
		</radialGradient>
		<path
   fill="url(#SVGID_12_)"
   d="M2.76,14.44c0.833,1.283,2.609,1.669,3.97,0.862c1.358-0.81,1.784-2.506,0.95-3.789    s-2.611-1.67-3.968-0.863C2.354,11.458,1.927,13.155,2.76,14.44z"
   id="path230" />
		<path
   fill="#FFFFFF"
   d="M4.258,15.087c1.116,0.456,1.522-0.418,0.405-0.876C3.544,13.752,3.142,14.626,4.258,15.087z"
   id="path232" />
	</g>
	<g
   id="g253">
		<path
   fill="#8E2F02"
   d="M19.777,5.003c0.956,1.469,2.988,1.912,4.543,0.987c1.555-0.926,2.044-2.866,1.089-4.336    c-0.953-1.47-2.986-1.911-4.542-0.988C19.313,1.59,18.825,3.532,19.777,5.003z"
   id="path236" />
		<path
   fill="#CA814B"
   d="M22.52,6.471c2.594,0.03,4.262-2.701,2.89-4.814c-0.612-0.946-1.676-1.468-2.768-1.47    C25.619,0.649,24.96,5.426,22.52,6.471z"
   id="path238" />
		
			<radialGradient
   id="SVGID_13_"
   cx="313.6113"
   cy="-338.9092"
   r="3.8334"
   gradientTransform="matrix(1.0521 0 0 -1.0052 -307.9978 -336.2108)"
   gradientUnits="userSpaceOnUse">
			<stop
   offset="0"
   style="stop-color:#FDEFD9"
   id="stop240" />
			<stop
   offset="0.26"
   style="stop-color:#FACE91"
   id="stop242" />
			<stop
   offset="0.86"
   style="stop-color:#8C2D02"
   id="stop244" />
			<stop
   offset="1"
   style="stop-color:#B14F00"
   id="stop246" />
			<a:midPointStop
   offset="0"
   style="stop-color:#FDEFD9" />
			<a:midPointStop
   offset="0.5"
   style="stop-color:#FDEFD9" />
			<a:midPointStop
   offset="0.26"
   style="stop-color:#FACE91" />
			<a:midPointStop
   offset="0.5"
   style="stop-color:#FACE91" />
			<a:midPointStop
   offset="0.86"
   style="stop-color:#8C2D02" />
			<a:midPointStop
   offset="0.5"
   style="stop-color:#8C2D02" />
			<a:midPointStop
   offset="1"
   style="stop-color:#B14F00" />
		</radialGradient>
		<path
   fill="url(#SVGID_13_)"
   d="M20.113,4.879c0.832,1.283,2.608,1.67,3.969,0.862c1.357-0.81,1.783-2.506,0.951-3.788    c-0.835-1.285-2.611-1.67-3.969-0.863C19.706,1.897,19.278,3.594,20.113,4.879z"
   id="path249" />
		<path
   fill="#FFFFFF"
   d="M21.608,5.526c1.116,0.457,1.525-0.416,0.405-0.874C20.896,4.192,20.493,5.066,21.608,5.526z"
   id="path251" />
	</g>
	<g
   id="g272">
		<path
   fill="#8E2F02"
   d="M19.57,43.257c0.955,1.47,2.988,1.912,4.544,0.987c1.554-0.926,2.043-2.865,1.089-4.335    c-0.954-1.471-2.986-1.912-4.542-0.988C19.106,39.845,18.618,41.786,19.57,43.257z"
   id="path255" />
		<path
   fill="#CA814B"
   d="M22.313,44.727c2.595,0.029,4.262-2.703,2.891-4.816c-0.613-0.946-1.677-1.467-2.77-1.47    C25.413,38.902,24.752,43.68,22.313,44.727z"
   id="path257" />
		
			<radialGradient
   id="SVGID_14_"
   cx="313.415"
   cy="-376.9644"
   r="3.8316"
   gradientTransform="matrix(1.0521 0 0 -1.0052 -307.9978 -336.2108)"
   gradientUnits="userSpaceOnUse">
			<stop
   offset="0"
   style="stop-color:#FDEFD9"
   id="stop259" />
			<stop
   offset="0.26"
   style="stop-color:#FACE91"
   id="stop261" />
			<stop
   offset="0.86"
   style="stop-color:#8C2D02"
   id="stop263" />
			<stop
   offset="1"
   style="stop-color:#B14F00"
   id="stop265" />
			<a:midPointStop
   offset="0"
   style="stop-color:#FDEFD9" />
			<a:midPointStop
   offset="0.5"
   style="stop-color:#FDEFD9" />
			<a:midPointStop
   offset="0.26"
   style="stop-color:#FACE91" />
			<a:midPointStop
   offset="0.5"
   style="stop-color:#FACE91" />
			<a:midPointStop
   offset="0.86"
   style="stop-color:#8C2D02" />
			<a:midPointStop
   offset="0.5"
   style="stop-color:#8C2D02" />
			<a:midPointStop
   offset="1"
   style="stop-color:#B14F00" />
		</radialGradient>
		<path
   fill="url(#SVGID_14_)"
   d="M19.904,43.133c0.834,1.284,2.61,1.67,3.97,0.862c1.357-0.809,1.782-2.506,0.95-3.788    c-0.834-1.284-2.609-1.669-3.966-0.863C19.499,40.151,19.07,41.849,19.904,43.133z"
   id="path268" />
		<path
   fill="#FFFFFF"
   d="M21.4,43.78c1.117,0.455,1.526-0.418,0.405-0.877C20.688,42.444,20.286,43.319,21.4,43.78z"
   id="path270" />
	</g>
	<g
   id="g291">
		<path
   fill="#8E2F02"
   d="M2.331,33.611c0.954,1.472,2.987,1.914,4.544,0.989c1.554-0.924,2.042-2.866,1.089-4.336    c-0.955-1.47-2.989-1.912-4.542-0.988C1.865,30.201,1.378,32.142,2.331,33.611z"
   id="path274" />
		<path
   fill="#CA814B"
   d="M5.072,35.081c2.595,0.028,4.264-2.7,2.892-4.816c-0.615-0.945-1.678-1.466-2.771-1.469    C8.172,29.259,7.513,34.036,5.072,35.081z"
   id="path276" />
		
			<radialGradient
   id="SVGID_15_"
   cx="297.0264"
   cy="-367.3691"
   r="3.8329"
   gradientTransform="matrix(1.0521 0 0 -1.0052 -307.9978 -336.2108)"
   gradientUnits="userSpaceOnUse">
			<stop
   offset="0"
   style="stop-color:#FDEFD9"
   id="stop278" />
			<stop
   offset="0.26"
   style="stop-color:#FACE91"
   id="stop280" />
			<stop
   offset="0.86"
   style="stop-color:#8C2D02"
   id="stop282" />
			<stop
   offset="1"
   style="stop-color:#B14F00"
   id="stop284" />
			<a:midPointStop
   offset="0"
   style="stop-color:#FDEFD9" />
			<a:midPointStop
   offset="0.5"
   style="stop-color:#FDEFD9" />
			<a:midPointStop
   offset="0.26"
   style="stop-color:#FACE91" />
			<a:midPointStop
   offset="0.5"
   style="stop-color:#FACE91" />
			<a:midPointStop
   offset="0.86"
   style="stop-color:#8C2D02" />
			<a:midPointStop
   offset="0.5"
   style="stop-color:#8C2D02" />
			<a:midPointStop
   offset="1"
   style="stop-color:#B14F00" />
		</radialGradient>
		<path
   fill="url(#SVGID_15_)"
   d="M2.664,33.489c0.834,1.281,2.61,1.67,3.97,0.86c1.357-0.808,1.785-2.504,0.951-3.787    c-0.834-1.284-2.612-1.67-3.97-0.864C2.258,30.508,1.831,32.204,2.664,33.489z"
   id="path287" />
		<path
   fill="#FFFFFF"
   d="M4.161,34.137c1.116,0.457,1.524-0.417,0.404-0.876C3.446,32.802,3.045,33.677,4.161,34.137z"
   id="path289" />
	</g>
	<g
   id="g310">
		<path
   fill="#8E2F02"
   d="M36.916,33.828c0.954,1.47,2.987,1.911,4.543,0.987c1.553-0.924,2.043-2.867,1.089-4.335    c-0.953-1.47-2.988-1.913-4.544-0.989C36.45,30.417,35.963,32.358,36.916,33.828z"
   id="path293" />
		<path
   fill="#CA814B"
   d="M39.657,35.296c2.596,0.031,4.264-2.7,2.892-4.814c-0.615-0.945-1.679-1.467-2.771-1.469    C42.758,29.474,42.097,34.253,39.657,35.296z"
   id="path295" />
		
			<radialGradient
   id="SVGID_16_"
   cx="329.9004"
   cy="-367.5854"
   r="3.8338"
   gradientTransform="matrix(1.0521 0 0 -1.0052 -307.9978 -336.2108)"
   gradientUnits="userSpaceOnUse">
			<stop
   offset="0"
   style="stop-color:#FDEFD9"
   id="stop297" />
			<stop
   offset="0.26"
   style="stop-color:#FACE91"
   id="stop299" />
			<stop
   offset="0.86"
   style="stop-color:#8C2D02"
   id="stop301" />
			<stop
   offset="1"
   style="stop-color:#B14F00"
   id="stop303" />
			<a:midPointStop
   offset="0"
   style="stop-color:#FDEFD9" />
			<a:midPointStop
   offset="0.5"
   style="stop-color:#FDEFD9" />
			<a:midPointStop
   offset="0.26"
   style="stop-color:#FACE91" />
			<a:midPointStop
   offset="0.5"
   style="stop-color:#FACE91" />
			<a:midPointStop
   offset="0.86"
   style="stop-color:#8C2D02" />
			<a:midPointStop
   offset="0.5"
   style="stop-color:#8C2D02" />
			<a:midPointStop
   offset="1"
   style="stop-color:#B14F00" />
		</radialGradient>
		<path
   fill="url(#SVGID_16_)"
   d="M37.249,33.705c0.834,1.284,2.61,1.67,3.971,0.86c1.357-0.807,1.784-2.505,0.95-3.785    c-0.835-1.286-2.613-1.672-3.971-0.864C36.843,30.724,36.416,32.419,37.249,33.705z"
   id="path306" />
		<path
   fill="#FFFFFF"
   d="M38.745,34.353c1.116,0.457,1.523-0.418,0.403-0.876C38.033,33.017,37.629,33.892,38.745,34.353z"
   id="path308" />
	</g>
	<g
   id="g329">
		<path
   fill="#8E2F02"
   d="M37.063,14.707c0.956,1.47,2.989,1.912,4.546,0.987c1.554-0.925,2.04-2.866,1.087-4.336    c-0.952-1.469-2.987-1.912-4.541-0.987C36.599,11.294,36.112,13.236,37.063,14.707z"
   id="path312" />
		<path
   fill="#CA814B"
   d="M39.806,16.175c2.597,0.029,4.262-2.701,2.891-4.816c-0.612-0.944-1.676-1.466-2.77-1.469    C42.905,10.352,42.245,15.13,39.806,16.175z"
   id="path314" />
		
			<radialGradient
   id="SVGID_17_"
   cx="330.043"
   cy="-348.5625"
   r="3.8324"
   gradientTransform="matrix(1.0521 0 0 -1.0052 -307.9978 -336.2108)"
   gradientUnits="userSpaceOnUse">
			<stop
   offset="0"
   style="stop-color:#FDEFD9"
   id="stop316" />
			<stop
   offset="0.26"
   style="stop-color:#FACE91"
   id="stop318" />
			<stop
   offset="0.86"
   style="stop-color:#8C2D02"
   id="stop320" />
			<stop
   offset="1"
   style="stop-color:#B14F00"
   id="stop322" />
			<a:midPointStop
   offset="0"
   style="stop-color:#FDEFD9" />
			<a:midPointStop
   offset="0.5"
   style="stop-color:#FDEFD9" />
			<a:midPointStop
   offset="0.26"
   style="stop-color:#FACE91" />
			<a:midPointStop
   offset="0.5"
   style="stop-color:#FACE91" />
			<a:midPointStop
   offset="0.86"
   style="stop-color:#8C2D02" />
			<a:midPointStop
   offset="0.5"
   style="stop-color:#8C2D02" />
			<a:midPointStop
   offset="1"
   style="stop-color:#B14F00" />
		</radialGradient>
		<path
   fill="url(#SVGID_17_)"
   d="M37.397,14.583c0.834,1.284,2.611,1.671,3.971,0.861c1.357-0.808,1.784-2.504,0.95-3.786    c-0.834-1.286-2.611-1.671-3.969-0.865C36.992,11.601,36.565,13.298,37.397,14.583z"
   id="path325" />
		<path
   fill="#FFFFFF"
   d="M38.895,15.23c1.117,0.457,1.525-0.416,0.405-0.875C38.181,13.896,37.779,14.77,38.895,15.23z"
   id="path327" />
	</g>
</g>
</svg>
