<?xml version="1.0" encoding="UTF-8" standalone="no"?>
<svg
   xmlns:dc="http://purl.org/dc/elements/1.1/"
   xmlns:cc="http://creativecommons.org/ns#"
   xmlns:rdf="http://www.w3.org/1999/02/22-rdf-syntax-ns#"
   xmlns:svg="http://www.w3.org/2000/svg"
   xmlns="http://www.w3.org/2000/svg"
   xmlns:sodipodi="http://sodipodi.sourceforge.net/DTD/sodipodi-0.dtd"
   xmlns:inkscape="http://www.inkscape.org/namespaces/inkscape"
   version="1.1"
   id="图层_1"
   x="0px"
   y="0px"
   width="109.983px"
   height="109.834px"
   viewBox="179.307 293.975 109.983 109.834"
   enable-background="new 179.307 293.975 109.983 109.834"
   xml:space="preserve"
   sodipodi:docname="软管-10.svg"><metadata
   id="metadata41"><rdf:RDF><cc:Work
       rdf:about=""><dc:format>image/svg+xml</dc:format><dc:type
         rdf:resource="http://purl.org/dc/dcmitype/StillImage" /></cc:Work></rdf:RDF></metadata><defs
   id="defs39" /><sodipodi:namedview
   pagecolor="#ffffff"
   bordercolor="#666666"
   borderopacity="1"
   objecttolerance="10"
   gridtolerance="10"
   guidetolerance="10"
   inkscape:pageopacity="0"
   inkscape:pageshadow="2"
   inkscape:window-width="640"
   inkscape:window-height="480"
   id="namedview37" />
<g
   id="g34">
	<path
   fill="#55646B"
   stroke="#231815"
   stroke-width="0.5"
   stroke-miterlimit="10"
   d="M289.04,304.559c-54.676,0-99,44.324-99,99h49   c0-27.614,22.386-50,50-50V304.559z"
   id="path2" />
	
		<rect
   x="179.557"
   y="399.392"
   fill="#B4CBD1"
   stroke="#231815"
   stroke-width="0.5"
   stroke-miterlimit="10"
   width="59.483"
   height="4.167"
   id="rect4" />
	
		<rect
   x="180.205"
   y="391.084"
   transform="matrix(0.9945 0.1045 -0.1045 0.9945 42.2388 -19.7881)"
   fill="#B4CBD1"
   stroke="#231815"
   stroke-width="0.5"
   stroke-miterlimit="10"
   width="59.481"
   height="4.165"
   id="rect6" />
	
		<rect
   x="181.732"
   y="382.882"
   transform="matrix(0.9781 0.2079 -0.2079 0.9781 84.6607 -35.5553)"
   fill="#B4CBD1"
   stroke="#231815"
   stroke-width="0.5"
   stroke-miterlimit="10"
   width="59.48"
   height="4.166"
   id="rect8" />
	
		<rect
   x="184.08"
   y="374.84"
   transform="matrix(0.9511 0.309 -0.309 0.9511 126.9282 -47.624)"
   fill="#B4CBD1"
   stroke="#231815"
   stroke-width="0.5"
   stroke-miterlimit="10"
   width="59.484"
   height="4.166"
   id="rect10" />
	
		<rect
   x="187.324"
   y="367.143"
   transform="matrix(0.9135 0.4068 -0.4068 0.9135 168.9759 -56.3707)"
   fill="#B4CBD1"
   stroke="#231815"
   stroke-width="0.5"
   stroke-miterlimit="10"
   width="59.481"
   height="4.165"
   id="rect12" />
	
		<rect
   x="191.286"
   y="359.81"
   transform="matrix(0.866 0.5 -0.5 0.866 210.5658 -62.029)"
   fill="#B4CBD1"
   stroke="#231815"
   stroke-width="0.5"
   stroke-miterlimit="10"
   width="59.481"
   height="4.166"
   id="rect14" />
	
		<rect
   x="196.016"
   y="352.921"
   transform="matrix(0.809 0.5878 -0.5878 0.809 251.791 -64.896)"
   fill="#B4CBD1"
   stroke="#231815"
   stroke-width="0.5"
   stroke-miterlimit="10"
   width="59.481"
   height="4.166"
   id="rect16" />
	
		<rect
   x="201.431"
   y="346.591"
   transform="matrix(0.7431 0.6691 -0.6691 0.7431 292.6879 -65.1243)"
   fill="#B4CBD1"
   stroke="#231815"
   stroke-width="0.5"
   stroke-miterlimit="10"
   width="59.479"
   height="4.166"
   id="rect18" />
	
		<rect
   x="207.509"
   y="340.818"
   transform="matrix(0.6691 0.7432 -0.7432 0.6691 333.3489 -62.8503)"
   fill="#B4CBD1"
   stroke="#231815"
   stroke-width="0.5"
   stroke-miterlimit="10"
   width="59.482"
   height="4.165"
   id="rect20" />
	
		<rect
   x="214.098"
   y="335.735"
   transform="matrix(0.5878 0.809 -0.809 0.5878 373.8047 -58.0187)"
   fill="#B4CBD1"
   stroke="#231815"
   stroke-width="0.5"
   stroke-miterlimit="10"
   width="59.481"
   height="4.165"
   id="rect22" />
	
		<rect
   x="221.221"
   y="331.38"
   transform="matrix(0.5 0.866 -0.866 0.5 414.2606 -50.6093)"
   fill="#B4CBD1"
   stroke="#231815"
   stroke-width="0.5"
   stroke-miterlimit="10"
   width="59.479"
   height="4.164"
   id="rect24" />
	
		<rect
   x="228.788"
   y="327.774"
   transform="matrix(0.4067 0.9136 -0.9136 0.4067 454.7352 -40.4748)"
   fill="#B4CBD1"
   stroke="#231815"
   stroke-width="0.5"
   stroke-miterlimit="10"
   width="59.482"
   height="4.164"
   id="rect26" />
	
		<rect
   x="236.654"
   y="324.985"
   transform="matrix(0.309 0.9511 -0.9511 0.309 495.1446 -27.3525)"
   fill="#B4CBD1"
   stroke="#231815"
   stroke-width="0.5"
   stroke-miterlimit="10"
   width="59.482"
   height="4.165"
   id="rect28" />
	
		<rect
   x="244.771"
   y="323.027"
   transform="matrix(0.2079 0.9782 -0.9782 0.2079 535.452 -10.9914)"
   fill="#B4CBD1"
   stroke="#231815"
   stroke-width="0.5"
   stroke-miterlimit="10"
   width="59.483"
   height="4.165"
   id="rect30" />
	
		<rect
   x="253.031"
   y="321.962"
   transform="matrix(0.1045 0.9945 -0.9945 0.1045 575.4917 8.9599)"
   fill="#B4CBD1"
   stroke="#231815"
   stroke-width="0.5"
   stroke-miterlimit="10"
   width="59.478"
   height="4.165"
   id="rect32" />
</g>
</svg>
