<?xml version="1.0" encoding="UTF-8" standalone="no"?>
<svg
   xmlns:dc="http://purl.org/dc/elements/1.1/"
   xmlns:cc="http://creativecommons.org/ns#"
   xmlns:rdf="http://www.w3.org/1999/02/22-rdf-syntax-ns#"
   xmlns:svg="http://www.w3.org/2000/svg"
   xmlns="http://www.w3.org/2000/svg"
   xmlns:sodipodi="http://sodipodi.sourceforge.net/DTD/sodipodi-0.dtd"
   xmlns:inkscape="http://www.inkscape.org/namespaces/inkscape"
   version="1.1"
   id="图层_1"
   x="0px"
   y="0px"
   width="109.833px"
   height="109.983px"
   viewBox="312.689 293.907 109.833 109.983"
   enable-background="new 312.689 293.907 109.833 109.983"
   xml:space="preserve"
   sodipodi:docname="软管-11.svg"><metadata
   id="metadata41"><rdf:RDF><cc:Work
       rdf:about=""><dc:format>image/svg+xml</dc:format><dc:type
         rdf:resource="http://purl.org/dc/dcmitype/StillImage" /></cc:Work></rdf:RDF></metadata><defs
   id="defs39" /><sodipodi:namedview
   pagecolor="#ffffff"
   bordercolor="#666666"
   borderopacity="1"
   objecttolerance="10"
   gridtolerance="10"
   guidetolerance="10"
   inkscape:pageopacity="0"
   inkscape:pageshadow="2"
   inkscape:window-width="640"
   inkscape:window-height="480"
   id="namedview37" />
<g
   id="g34">
	<path
   fill="#55646B"
   stroke="#231815"
   stroke-width="0.5"
   stroke-miterlimit="10"
   d="M323.272,294.157c0,54.676,44.323,99,99,99   v-49c-27.614,0-50-22.386-50-50H323.272z"
   id="path2" />
	
		<rect
   x="418.105"
   y="344.157"
   fill="#B4CBD1"
   stroke="#231815"
   stroke-width="0.5"
   stroke-miterlimit="10"
   width="4.167"
   height="59.483"
   id="rect4" />
	
		<rect
   x="382.146"
   y="371.165"
   transform="matrix(0.1045 -0.9945 0.9945 0.1045 -2.3597 743.874)"
   fill="#B4CBD1"
   stroke="#231815"
   stroke-width="0.5"
   stroke-miterlimit="10"
   width="59.481"
   height="4.165"
   id="rect6" />
	
		<rect
   x="373.942"
   y="369.634"
   transform="matrix(0.2079 -0.9781 0.9781 0.2079 -43.8392 689.2972)"
   fill="#B4CBD1"
   stroke="#231815"
   stroke-width="0.5"
   stroke-miterlimit="10"
   width="59.48"
   height="4.166"
   id="rect8" />
	
		<rect
   x="365.902"
   y="367.3"
   transform="matrix(0.309 -0.9511 0.9511 0.309 -77.9132 631.5317)"
   fill="#B4CBD1"
   stroke="#231815"
   stroke-width="0.5"
   stroke-miterlimit="10"
   width="59.484"
   height="4.167"
   id="rect10" />
	
		<rect
   x="358.19"
   y="364.044"
   transform="matrix(0.4068 -0.9135 0.9135 0.4068 -104.3439 571.5627)"
   fill="#B4CBD1"
   stroke="#231815"
   stroke-width="0.5"
   stroke-miterlimit="10"
   width="59.481"
   height="4.165"
   id="rect12" />
	
		<rect
   x="350.868"
   y="360.085"
   transform="matrix(0.5 -0.866 0.866 0.5 -123.3451 510.6913)"
   fill="#B4CBD1"
   stroke="#231815"
   stroke-width="0.5"
   stroke-miterlimit="10"
   width="59.481"
   height="4.166"
   id="rect14" />
	
		<rect
   x="343.978"
   y="355.357"
   transform="matrix(0.5878 -0.809 0.809 0.5878 -135.1246 449.6754)"
   fill="#B4CBD1"
   stroke="#231815"
   stroke-width="0.5"
   stroke-miterlimit="10"
   width="59.481"
   height="4.166"
   id="rect16" />
	
		<rect
   x="337.655"
   y="349.941"
   transform="matrix(0.6691 -0.7431 0.7431 0.6691 -140.0461 389.4926)"
   fill="#B4CBD1"
   stroke="#231815"
   stroke-width="0.5"
   stroke-miterlimit="10"
   width="59.479"
   height="4.165"
   id="rect18" />
	
		<rect
   x="331.867"
   y="343.865"
   transform="matrix(0.7432 -0.6691 0.6691 0.7432 -138.6021 330.7902)"
   fill="#B4CBD1"
   stroke="#231815"
   stroke-width="0.5"
   stroke-miterlimit="10"
   width="59.482"
   height="4.165"
   id="rect20" />
	
		<rect
   x="326.794"
   y="337.282"
   transform="matrix(0.809 -0.5878 0.5878 0.809 -131.3832 274.389)"
   fill="#B4CBD1"
   stroke="#231815"
   stroke-width="0.5"
   stroke-miterlimit="10"
   width="59.481"
   height="4.165"
   id="rect22" />
	
		<rect
   x="322.44"
   y="330.154"
   transform="matrix(0.866 -0.5 0.5 0.866 -118.9365 220.6083)"
   fill="#B4CBD1"
   stroke="#231815"
   stroke-width="0.5"
   stroke-miterlimit="10"
   width="59.479"
   height="4.164"
   id="rect24" />
	
		<rect
   x="318.825"
   y="322.584"
   transform="matrix(0.9136 -0.4067 0.4067 0.9136 -101.9099 169.8186)"
   fill="#B4CBD1"
   stroke="#231815"
   stroke-width="0.5"
   stroke-miterlimit="10"
   width="59.483"
   height="4.164"
   id="rect26" />
	
		<rect
   x="316.039"
   y="314.716"
   transform="matrix(0.9511 -0.309 0.309 0.9511 -80.9661 122.3434)"
   fill="#B4CBD1"
   stroke="#231815"
   stroke-width="0.5"
   stroke-miterlimit="10"
   width="59.483"
   height="4.165"
   id="rect28" />
	
		<rect
   x="314.08"
   y="306.601"
   transform="matrix(0.9782 -0.2079 0.2079 0.9782 -56.6604 78.2209)"
   fill="#B4CBD1"
   stroke="#231815"
   stroke-width="0.5"
   stroke-miterlimit="10"
   width="59.482"
   height="4.165"
   id="rect30" />
	
		<rect
   x="313.019"
   y="298.344"
   transform="matrix(0.9945 -0.1045 0.1045 0.9945 -29.5191 37.4648)"
   fill="#B4CBD1"
   stroke="#231815"
   stroke-width="0.5"
   stroke-miterlimit="10"
   width="59.479"
   height="4.165"
   id="rect32" />
</g>
</svg>
