<?xml version="1.0" encoding="UTF-8" standalone="no"?>
<svg
   xmlns:dc="http://purl.org/dc/elements/1.1/"
   xmlns:cc="http://creativecommons.org/ns#"
   xmlns:rdf="http://www.w3.org/1999/02/22-rdf-syntax-ns#"
   xmlns:svg="http://www.w3.org/2000/svg"
   xmlns="http://www.w3.org/2000/svg"
   xmlns:sodipodi="http://sodipodi.sourceforge.net/DTD/sodipodi-0.dtd"
   xmlns:inkscape="http://www.inkscape.org/namespaces/inkscape"
   version="1.1"
   id="图层_1"
   x="0px"
   y="0px"
   width="122.993px"
   height="122.978px"
   viewBox="39.493 428.511 122.993 122.978"
   enable-background="new 39.493 428.511 122.993 122.978"
   xml:space="preserve"
   sodipodi:docname="软管-13.svg"><metadata
   id="metadata37"><rdf:RDF><cc:Work
       rdf:about=""><dc:format>image/svg+xml</dc:format><dc:type
         rdf:resource="http://purl.org/dc/dcmitype/StillImage" /></cc:Work></rdf:RDF></metadata><defs
   id="defs35" /><sodipodi:namedview
   pagecolor="#ffffff"
   bordercolor="#666666"
   borderopacity="1"
   objecttolerance="10"
   gridtolerance="10"
   guidetolerance="10"
   inkscape:pageopacity="0"
   inkscape:pageshadow="2"
   inkscape:window-width="640"
   inkscape:window-height="480"
   id="namedview33" />
<g
   id="g30">
	
		<rect
   x="71.338"
   y="436.335"
   transform="matrix(0.7071 -0.7071 0.7071 0.7071 -316.3314 213.5626)"
   fill="#55646B"
   stroke="#231815"
   stroke-width="0.5"
   stroke-miterlimit="10"
   width="56.583"
   height="104.59"
   id="rect2" />
	
		<rect
   x="99.029"
   y="522.035"
   transform="matrix(0.7071 -0.7071 0.7071 0.7071 -331.0366 249.0604)"
   fill="#B4CBD1"
   stroke="#231815"
   stroke-width="0.5"
   stroke-miterlimit="10"
   width="72.194"
   height="4.189"
   id="rect4" />
	
		<rect
   x="93.334"
   y="516.354"
   transform="matrix(0.7071 -0.7071 0.7071 0.7071 -328.6891 243.3716)"
   fill="#B4CBD1"
   stroke="#231815"
   stroke-width="0.5"
   stroke-miterlimit="10"
   width="72.194"
   height="4.189"
   id="rect6" />
	
		<rect
   x="87.648"
   y="510.661"
   transform="matrix(0.7071 -0.7071 0.7071 0.7071 -326.3301 237.6856)"
   fill="#B4CBD1"
   stroke="#231815"
   stroke-width="0.5"
   stroke-miterlimit="10"
   width="72.194"
   height="4.189"
   id="rect8" />
	
		<rect
   x="81.959"
   y="504.973"
   transform="matrix(0.7071 -0.7071 0.7071 0.7071 -323.9726 231.9948)"
   fill="#B4CBD1"
   stroke="#231815"
   stroke-width="0.5"
   stroke-miterlimit="10"
   width="72.194"
   height="4.189"
   id="rect10" />
	
		<rect
   x="76.27"
   y="499.283"
   transform="matrix(0.7071 -0.7071 0.7071 0.7071 -321.6172 226.3074)"
   fill="#B4CBD1"
   stroke="#231815"
   stroke-width="0.5"
   stroke-miterlimit="10"
   width="72.194"
   height="4.188"
   id="rect12" />
	
		<rect
   x="70.581"
   y="493.594"
   transform="matrix(0.7071 -0.7071 0.7071 0.7071 -319.2596 220.617)"
   fill="#B4CBD1"
   stroke="#231815"
   stroke-width="0.5"
   stroke-miterlimit="10"
   width="72.194"
   height="4.189"
   id="rect14" />
	
		<rect
   x="64.892"
   y="487.905"
   transform="matrix(0.7071 -0.7071 0.7071 0.7071 -316.9044 214.9294)"
   fill="#B4CBD1"
   stroke="#231815"
   stroke-width="0.5"
   stroke-miterlimit="10"
   width="72.194"
   height="4.189"
   id="rect16" />
	
		<rect
   x="59.203"
   y="482.215"
   transform="matrix(0.7071 -0.7071 0.7071 0.7071 -314.5474 209.2406)"
   fill="#B4CBD1"
   stroke="#231815"
   stroke-width="0.5"
   stroke-miterlimit="10"
   width="72.194"
   height="4.189"
   id="rect18" />
	
		<rect
   x="53.512"
   y="476.531"
   transform="matrix(0.7071 -0.7071 0.7071 0.7071 -312.1936 203.549)"
   fill="#B4CBD1"
   stroke="#231815"
   stroke-width="0.5"
   stroke-miterlimit="10"
   width="72.194"
   height="4.189"
   id="rect20" />
	
		<rect
   x="47.832"
   y="470.83"
   transform="matrix(0.7071 -0.7071 0.7071 0.7071 -309.8251 197.8606)"
   fill="#B4CBD1"
   stroke="#231815"
   stroke-width="0.5"
   stroke-miterlimit="10"
   width="72.193"
   height="4.189"
   id="rect22" />
	
		<rect
   x="42.133"
   y="465.153"
   transform="matrix(0.7071 -0.7071 0.7071 0.7071 -307.481 192.1704)"
   fill="#B4CBD1"
   stroke="#231815"
   stroke-width="0.5"
   stroke-miterlimit="10"
   width="72.194"
   height="4.189"
   id="rect24" />
	
		<rect
   x="36.446"
   y="459.46"
   transform="matrix(0.7071 -0.7071 0.7071 0.7071 -305.1221 186.4834)"
   fill="#B4CBD1"
   stroke="#231815"
   stroke-width="0.5"
   stroke-miterlimit="10"
   width="72.194"
   height="4.189"
   id="rect26" />
	
		<rect
   x="30.755"
   y="453.775"
   transform="matrix(0.7071 -0.7071 0.7071 0.7071 -302.7681 180.7925)"
   fill="#B4CBD1"
   stroke="#231815"
   stroke-width="0.5"
   stroke-miterlimit="10"
   width="72.194"
   height="4.189"
   id="rect28" />
</g>
</svg>
