<?xml version="1.0" encoding="UTF-8" standalone="no"?>
<svg
   xmlns:dc="http://purl.org/dc/elements/1.1/"
   xmlns:cc="http://creativecommons.org/ns#"
   xmlns:rdf="http://www.w3.org/1999/02/22-rdf-syntax-ns#"
   xmlns:svg="http://www.w3.org/2000/svg"
   xmlns="http://www.w3.org/2000/svg"
   xmlns:sodipodi="http://sodipodi.sourceforge.net/DTD/sodipodi-0.dtd"
   xmlns:inkscape="http://www.inkscape.org/namespaces/inkscape"
   version="1.1"
   id="图层_1"
   x="0px"
   y="0px"
   width="122.99px"
   height="122.983px"
   viewBox="178.996 428.501 122.99 122.983"
   enable-background="new 178.996 428.501 122.99 122.983"
   xml:space="preserve"
   sodipodi:docname="软管-14.svg"><metadata
   id="metadata37"><rdf:RDF><cc:Work
       rdf:about=""><dc:format>image/svg+xml</dc:format><dc:type
         rdf:resource="http://purl.org/dc/dcmitype/StillImage" /></cc:Work></rdf:RDF></metadata><defs
   id="defs35" /><sodipodi:namedview
   pagecolor="#ffffff"
   bordercolor="#666666"
   borderopacity="1"
   objecttolerance="10"
   gridtolerance="10"
   guidetolerance="10"
   inkscape:pageopacity="0"
   inkscape:pageshadow="2"
   inkscape:window-width="640"
   inkscape:window-height="480"
   id="namedview33" />
<g
   id="g30">
	
		<rect
   x="213.553"
   y="436.331"
   transform="matrix(-0.7071 -0.7071 0.7071 -0.7071 67.3436 1005.1466)"
   fill="#55646B"
   stroke="#231815"
   stroke-width="0.5"
   stroke-miterlimit="10"
   width="56.584"
   height="104.59"
   id="rect2" />
	
		<rect
   x="170.258"
   y="522.031"
   transform="matrix(-0.7071 -0.7071 0.7071 -0.7071 -18.3427 1040.6532)"
   fill="#B4CBD1"
   stroke="#231815"
   stroke-width="0.5"
   stroke-miterlimit="10"
   width="72.194"
   height="4.189"
   id="rect4" />
	
		<rect
   x="175.951"
   y="516.345"
   transform="matrix(-0.7071 -0.7071 0.7071 -0.7071 -4.6054 1034.9713)"
   fill="#B4CBD1"
   stroke="#231815"
   stroke-width="0.5"
   stroke-miterlimit="10"
   width="72.195"
   height="4.189"
   id="rect6" />
	
		<rect
   x="181.631"
   y="510.651"
   transform="matrix(-0.7071 -0.7071 0.7071 -0.7071 9.1183 1029.2681)"
   fill="#B4CBD1"
   stroke="#231815"
   stroke-width="0.5"
   stroke-miterlimit="10"
   width="72.194"
   height="4.189"
   id="rect8" />
	
		<rect
   x="187.329"
   y="504.967"
   transform="matrix(-0.7071 -0.7071 0.7071 -0.7071 22.8609 1023.5925)"
   fill="#B4CBD1"
   stroke="#231815"
   stroke-width="0.5"
   stroke-miterlimit="10"
   width="72.195"
   height="4.189"
   id="rect10" />
	
		<rect
   x="193.008"
   y="499.274"
   transform="matrix(-0.7071 -0.7071 0.7071 -0.7071 36.5867 1017.891)"
   fill="#B4CBD1"
   stroke="#231815"
   stroke-width="0.5"
   stroke-miterlimit="10"
   width="72.194"
   height="4.187"
   id="rect12" />
	
		<rect
   x="198.707"
   y="493.588"
   transform="matrix(-0.7071 -0.7071 0.7071 -0.7071 50.3382 1012.2159)"
   fill="#B4CBD1"
   stroke="#231815"
   stroke-width="0.5"
   stroke-miterlimit="10"
   width="72.194"
   height="4.189"
   id="rect14" />
	
		<rect
   x="204.391"
   y="487.897"
   transform="matrix(-0.7071 -0.7071 0.7071 -0.7071 64.0643 1006.5195)"
   fill="#B4CBD1"
   stroke="#231815"
   stroke-width="0.5"
   stroke-miterlimit="10"
   width="72.193"
   height="4.19"
   id="rect16" />
	
		<rect
   x="210.08"
   y="482.209"
   transform="matrix(-0.7071 -0.7071 0.7071 -0.7071 77.793 1000.8296)"
   fill="#B4CBD1"
   stroke="#231815"
   stroke-width="0.5"
   stroke-miterlimit="10"
   width="72.194"
   height="4.189"
   id="rect18" />
	
		<rect
   x="215.764"
   y="476.517"
   transform="matrix(-0.7071 -0.7071 0.7071 -0.7071 91.5266 995.136)"
   fill="#B4CBD1"
   stroke="#231815"
   stroke-width="0.5"
   stroke-miterlimit="10"
   width="72.194"
   height="4.19"
   id="rect20" />
	
		<rect
   x="221.463"
   y="470.832"
   transform="matrix(-0.7071 -0.7071 0.7071 -0.7071 105.2732 989.4581)"
   fill="#B4CBD1"
   stroke="#231815"
   stroke-width="0.5"
   stroke-miterlimit="10"
   width="72.194"
   height="4.189"
   id="rect22" />
	
		<rect
   x="227.151"
   y="465.143"
   transform="matrix(-0.7071 -0.7071 0.7071 -0.7071 119.0088 983.7703)"
   fill="#B4CBD1"
   stroke="#231815"
   stroke-width="0.5"
   stroke-miterlimit="10"
   width="72.194"
   height="4.189"
   id="rect24" />
	
		<rect
   x="232.83"
   y="459.451"
   transform="matrix(-0.7071 -0.7071 0.7071 -0.7071 132.7219 978.0658)"
   fill="#B4CBD1"
   stroke="#231815"
   stroke-width="0.5"
   stroke-miterlimit="10"
   width="72.195"
   height="4.189"
   id="rect26" />
	
		<rect
   x="238.529"
   y="453.765"
   transform="matrix(-0.7071 -0.7071 0.7071 -0.7071 146.4751 972.3917)"
   fill="#B4CBD1"
   stroke="#231815"
   stroke-width="0.5"
   stroke-miterlimit="10"
   width="72.194"
   height="4.189"
   id="rect28" />
</g>
</svg>
