<?xml version="1.0" encoding="UTF-8" standalone="no"?>
<svg
   xmlns:dc="http://purl.org/dc/elements/1.1/"
   xmlns:cc="http://creativecommons.org/ns#"
   xmlns:rdf="http://www.w3.org/1999/02/22-rdf-syntax-ns#"
   xmlns:svg="http://www.w3.org/2000/svg"
   xmlns="http://www.w3.org/2000/svg"
   xmlns:sodipodi="http://sodipodi.sourceforge.net/DTD/sodipodi-0.dtd"
   xmlns:inkscape="http://www.inkscape.org/namespaces/inkscape"
   version="1.1"
   id="图层_1"
   x="0px"
   y="0px"
   width="156.381px"
   height="156.388px"
   viewBox="317.553 560.517 156.381 156.388"
   enable-background="new 317.553 560.517 156.381 156.388"
   xml:space="preserve"
   sodipodi:docname="软管-19.svg"><metadata
   id="metadata57"><rdf:RDF><cc:Work
       rdf:about=""><dc:format>image/svg+xml</dc:format><dc:type
         rdf:resource="http://purl.org/dc/dcmitype/StillImage" /></cc:Work></rdf:RDF></metadata><defs
   id="defs55" /><sodipodi:namedview
   pagecolor="#ffffff"
   bordercolor="#666666"
   borderopacity="1"
   objecttolerance="10"
   gridtolerance="10"
   guidetolerance="10"
   inkscape:pageopacity="0"
   inkscape:pageshadow="2"
   inkscape:window-width="640"
   inkscape:window-height="480"
   id="namedview53" />
<g
   id="g50">
	
		<rect
   x="370.188"
   y="557.636"
   transform="matrix(0.7071 -0.7071 0.7071 0.7071 -335.3191 465.9411)"
   fill="#55646B"
   stroke="#231815"
   stroke-width="0.5"
   stroke-miterlimit="10"
   width="49.164"
   height="160.186"
   id="rect2" />
	
		<rect
   x="418.752"
   y="691.266"
   transform="matrix(0.7071 -0.7071 0.7071 0.7071 -358.2502 521.2802)"
   fill="#B4CBD1"
   stroke="#231815"
   stroke-width="0.5"
   stroke-miterlimit="10"
   width="62.727"
   height="3.64"
   id="rect4" />
	
		<rect
   x="413.809"
   y="686.324"
   transform="matrix(0.7071 -0.7071 0.7071 0.7071 -356.2028 516.3376)"
   fill="#B4CBD1"
   stroke="#231815"
   stroke-width="0.5"
   stroke-miterlimit="10"
   width="62.728"
   height="3.64"
   id="rect6" />
	
		<rect
   x="408.869"
   y="681.371"
   transform="matrix(0.7071 -0.7071 0.7071 0.7071 -354.1478 511.3933)"
   fill="#B4CBD1"
   stroke="#231815"
   stroke-width="0.5"
   stroke-miterlimit="10"
   width="62.727"
   height="3.64"
   id="rect8" />
	
		<rect
   x="403.922"
   y="676.446"
   transform="matrix(0.7071 -0.7071 0.7071 0.7071 -352.1143 506.4521)"
   fill="#B4CBD1"
   stroke="#231815"
   stroke-width="0.5"
   stroke-miterlimit="10"
   width="62.725"
   height="3.638"
   id="rect10" />
	
		<rect
   x="398.983"
   y="671.487"
   transform="matrix(0.7071 -0.7071 0.7071 0.7071 -350.052 501.4989)"
   fill="#B4CBD1"
   stroke="#231815"
   stroke-width="0.5"
   stroke-miterlimit="10"
   width="62.726"
   height="3.638"
   id="rect12" />
	
		<rect
   x="394.037"
   y="666.552"
   transform="matrix(0.7071 -0.7071 0.7071 0.7071 -348.0114 496.5565)"
   fill="#B4CBD1"
   stroke="#231815"
   stroke-width="0.5"
   stroke-miterlimit="10"
   width="62.726"
   height="3.639"
   id="rect14" />
	
		<rect
   x="389.093"
   y="661.608"
   transform="matrix(0.7071 -0.7071 0.7071 0.7071 -345.9635 491.6127)"
   fill="#B4CBD1"
   stroke="#231815"
   stroke-width="0.5"
   stroke-miterlimit="10"
   width="62.727"
   height="3.639"
   id="rect16" />
	
		<rect
   x="384.149"
   y="656.675"
   transform="matrix(0.7071 -0.7071 0.7071 0.7071 -343.9248 486.6803)"
   fill="#B4CBD1"
   stroke="#231815"
   stroke-width="0.5"
   stroke-miterlimit="10"
   width="62.727"
   height="3.639"
   id="rect18" />
	
		<rect
   x="379.207"
   y="651.723"
   transform="matrix(0.7071 -0.7071 0.7071 0.7071 -341.8712 481.7357)"
   fill="#B4CBD1"
   stroke="#231815"
   stroke-width="0.5"
   stroke-miterlimit="10"
   width="62.727"
   height="3.64"
   id="rect20" />
	
		<rect
   x="374.265"
   y="646.78"
   transform="matrix(0.7071 -0.7071 0.7071 0.7071 -339.8235 476.7927)"
   fill="#B4CBD1"
   stroke="#231815"
   stroke-width="0.5"
   stroke-miterlimit="10"
   width="62.727"
   height="3.639"
   id="rect22" />
	
		<rect
   x="369.322"
   y="641.837"
   transform="matrix(0.7071 -0.7071 0.7071 0.7071 -337.7756 471.85)"
   fill="#B4CBD1"
   stroke="#231815"
   stroke-width="0.5"
   stroke-miterlimit="10"
   width="62.727"
   height="3.639"
   id="rect24" />
	
		<rect
   x="364.378"
   y="636.894"
   transform="matrix(0.7071 -0.7071 0.7071 0.7071 -335.7288 466.9066)"
   fill="#B4CBD1"
   stroke="#231815"
   stroke-width="0.5"
   stroke-miterlimit="10"
   width="62.727"
   height="3.64"
   id="rect26" />
	
		<rect
   x="359.434"
   y="631.958"
   transform="matrix(0.7071 -0.7071 0.7071 0.7071 -333.6868 461.9644)"
   fill="#B4CBD1"
   stroke="#231815"
   stroke-width="0.5"
   stroke-miterlimit="10"
   width="62.725"
   height="3.64"
   id="rect28" />
	
		<rect
   x="354.495"
   y="627"
   transform="matrix(0.7071 -0.7071 0.7071 0.7071 -331.6274 457.0201)"
   fill="#B4CBD1"
   stroke="#231815"
   stroke-width="0.5"
   stroke-miterlimit="10"
   width="62.727"
   height="3.64"
   id="rect30" />
	
		<rect
   x="344.605"
   y="617.121"
   transform="matrix(0.7071 -0.7071 0.7071 0.7071 -327.5381 447.1339)"
   fill="#B4CBD1"
   stroke="#231815"
   stroke-width="0.5"
   stroke-miterlimit="10"
   width="62.728"
   height="3.64"
   id="rect32" />
	
		<rect
   x="339.663"
   y="612.187"
   transform="matrix(0.7071 -0.7071 0.7071 0.7071 -325.4967 442.1931)"
   fill="#B4CBD1"
   stroke="#231815"
   stroke-width="0.5"
   stroke-miterlimit="10"
   width="62.727"
   height="3.638"
   id="rect34" />
	
		<rect
   x="334.723"
   y="607.228"
   transform="matrix(0.7071 -0.7071 0.7071 0.7071 -323.4355 437.2401)"
   fill="#B4CBD1"
   stroke="#231815"
   stroke-width="0.5"
   stroke-miterlimit="10"
   width="62.726"
   height="3.639"
   id="rect36" />
	
		<rect
   x="329.777"
   y="602.292"
   transform="matrix(0.7071 -0.7071 0.7071 0.7071 -321.3956 432.3051)"
   fill="#B4CBD1"
   stroke="#231815"
   stroke-width="0.5"
   stroke-miterlimit="10"
   width="62.727"
   height="3.639"
   id="rect38" />
	
		<rect
   x="324.834"
   y="597.349"
   transform="matrix(0.7071 -0.7071 0.7071 0.7071 -319.3486 427.362)"
   fill="#B4CBD1"
   stroke="#231815"
   stroke-width="0.5"
   stroke-miterlimit="10"
   width="62.727"
   height="3.639"
   id="rect40" />
	
		<rect
   x="319.892"
   y="592.407"
   transform="matrix(0.7071 -0.7071 0.7071 0.7071 -317.3018 422.4198)"
   fill="#B4CBD1"
   stroke="#231815"
   stroke-width="0.5"
   stroke-miterlimit="10"
   width="62.725"
   height="3.64"
   id="rect42" />
	
		<rect
   x="314.948"
   y="587.464"
   transform="matrix(0.7071 -0.7071 0.7071 0.7071 -315.2542 417.4764)"
   fill="#B4CBD1"
   stroke="#231815"
   stroke-width="0.5"
   stroke-miterlimit="10"
   width="62.727"
   height="3.638"
   id="rect44" />
	
		<rect
   x="310.007"
   y="582.514"
   transform="matrix(0.7071 -0.7071 0.7071 0.7071 -313.2015 412.5326)"
   fill="#B4CBD1"
   stroke="#231815"
   stroke-width="0.5"
   stroke-miterlimit="10"
   width="62.727"
   height="3.639"
   id="rect46" />
	
		<rect
   x="349.546"
   y="622.08"
   transform="matrix(0.7071 -0.7071 0.7071 0.7071 -329.5978 452.0793)"
   fill="#B4CBD1"
   stroke="#231815"
   stroke-width="0.5"
   stroke-miterlimit="10"
   width="62.727"
   height="3.639"
   id="rect48" />
</g>
</svg>
