<?xml version="1.0" encoding="UTF-8" standalone="no"?>
<svg
   xmlns:dc="http://purl.org/dc/elements/1.1/"
   xmlns:cc="http://creativecommons.org/ns#"
   xmlns:rdf="http://www.w3.org/1999/02/22-rdf-syntax-ns#"
   xmlns:svg="http://www.w3.org/2000/svg"
   xmlns="http://www.w3.org/2000/svg"
   xmlns:sodipodi="http://sodipodi.sourceforge.net/DTD/sodipodi-0.dtd"
   xmlns:inkscape="http://www.inkscape.org/namespaces/inkscape"
   version="1.1"
   id="图层_1"
   x="0px"
   y="0px"
   width="156.388px"
   height="156.38px"
   viewBox="491.877 560.514 156.388 156.38"
   enable-background="new 491.877 560.514 156.388 156.38"
   xml:space="preserve"
   sodipodi:docname="软管-20.svg"><metadata
   id="metadata57"><rdf:RDF><cc:Work
       rdf:about=""><dc:format>image/svg+xml</dc:format><dc:type
         rdf:resource="http://purl.org/dc/dcmitype/StillImage" /></cc:Work></rdf:RDF></metadata><defs
   id="defs55" /><sodipodi:namedview
   pagecolor="#ffffff"
   bordercolor="#666666"
   borderopacity="1"
   objecttolerance="10"
   gridtolerance="10"
   guidetolerance="10"
   inkscape:pageopacity="0"
   inkscape:pageshadow="2"
   inkscape:window-width="640"
   inkscape:window-height="480"
   id="namedview53" />
<g
   id="g50">
	
		<rect
   x="546.471"
   y="557.636"
   transform="matrix(-0.7071 -0.7071 0.7071 -0.7071 523.9055 1492.4668)"
   fill="#55646B"
   stroke="#231815"
   stroke-width="0.5"
   stroke-miterlimit="10"
   width="49.163"
   height="160.185"
   id="rect2" />
	
		<rect
   x="484.33"
   y="691.255"
   transform="matrix(-0.7071 -0.7071 0.7071 -0.7071 390.2659 1547.8048)"
   fill="#B4CBD1"
   stroke="#231815"
   stroke-width="0.5"
   stroke-miterlimit="10"
   width="62.727"
   height="3.64"
   id="rect4" />
	
		<rect
   x="489.273"
   y="686.313"
   transform="matrix(-0.7071 -0.7071 0.7071 -0.7071 402.1988 1542.8628)"
   fill="#B4CBD1"
   stroke="#231815"
   stroke-width="0.5"
   stroke-miterlimit="10"
   width="62.728"
   height="3.64"
   id="rect6" />
	
		<rect
   x="494.235"
   y="681.373"
   transform="matrix(-0.7071 -0.7071 0.7071 -0.7071 414.1618 1537.9371)"
   fill="#B4CBD1"
   stroke="#231815"
   stroke-width="0.5"
   stroke-miterlimit="10"
   width="62.727"
   height="3.64"
   id="rect8" />
	
		<rect
   x="499.151"
   y="676.426"
   transform="matrix(-0.7071 -0.7071 0.7071 -0.7071 426.0514 1532.9675)"
   fill="#B4CBD1"
   stroke="#231815"
   stroke-width="0.5"
   stroke-miterlimit="10"
   width="62.725"
   height="3.638"
   id="rect10" />
	
		<rect
   x="504.113"
   y="671.486"
   transform="matrix(-0.7071 -0.7071 0.7071 -0.7071 438.0247 1528.0433)"
   fill="#B4CBD1"
   stroke="#231815"
   stroke-width="0.5"
   stroke-miterlimit="10"
   width="62.726"
   height="3.639"
   id="rect12" />
	
		<rect
   x="509.045"
   y="666.541"
   transform="matrix(-0.7071 -0.7071 0.7071 -0.7071 449.9329 1523.09)"
   fill="#B4CBD1"
   stroke="#231815"
   stroke-width="0.5"
   stroke-miterlimit="10"
   width="62.727"
   height="3.64"
   id="rect14" />
	
		<rect
   x="513.998"
   y="661.599"
   transform="matrix(-0.7071 -0.7071 0.7071 -0.7071 461.882 1518.1556)"
   fill="#B4CBD1"
   stroke="#231815"
   stroke-width="0.5"
   stroke-miterlimit="10"
   width="62.727"
   height="3.639"
   id="rect16" />
	
		<rect
   x="518.922"
   y="656.656"
   transform="matrix(-0.7071 -0.7071 0.7071 -0.7071 473.7736 1513.1976)"
   fill="#B4CBD1"
   stroke="#231815"
   stroke-width="0.5"
   stroke-miterlimit="10"
   width="62.726"
   height="3.638"
   id="rect18" />
	
		<rect
   x="523.883"
   y="651.713"
   transform="matrix(-0.7071 -0.7071 0.7071 -0.7071 485.7475 1508.2695)"
   fill="#B4CBD1"
   stroke="#231815"
   stroke-width="0.5"
   stroke-miterlimit="10"
   width="62.727"
   height="3.64"
   id="rect20" />
	
		<rect
   x="528.808"
   y="646.768"
   transform="matrix(-0.7071 -0.7071 0.7071 -0.7071 497.6507 1503.3094)"
   fill="#B4CBD1"
   stroke="#231815"
   stroke-width="0.5"
   stroke-miterlimit="10"
   width="62.727"
   height="3.639"
   id="rect22" />
	
		<rect
   x="533.76"
   y="641.828"
   transform="matrix(-0.7071 -0.7071 0.7071 -0.7071 509.5901 1498.3754)"
   fill="#B4CBD1"
   stroke="#231815"
   stroke-width="0.5"
   stroke-miterlimit="10"
   width="62.727"
   height="3.638"
   id="rect24" />
	
		<rect
   x="538.702"
   y="636.884"
   transform="matrix(-0.7071 -0.7071 0.7071 -0.7071 521.5326 1493.4331)"
   fill="#B4CBD1"
   stroke="#231815"
   stroke-width="0.5"
   stroke-miterlimit="10"
   width="62.728"
   height="3.64"
   id="rect26" />
	
		<rect
   x="543.636"
   y="631.94"
   transform="matrix(-0.7071 -0.7071 0.7071 -0.7071 533.4404 1488.4812)"
   fill="#B4CBD1"
   stroke="#231815"
   stroke-width="0.5"
   stroke-miterlimit="10"
   width="62.726"
   height="3.639"
   id="rect28" />
	
		<rect
   x="548.598"
   y="626.998"
   transform="matrix(-0.7071 -0.7071 0.7071 -0.7071 545.4237 1483.5551)"
   fill="#B4CBD1"
   stroke="#231815"
   stroke-width="0.5"
   stroke-miterlimit="10"
   width="62.726"
   height="3.64"
   id="rect30" />
	
		<rect
   x="558.485"
   y="617.111"
   transform="matrix(-0.7071 -0.7071 0.7071 -0.7071 569.2833 1473.6672)"
   fill="#B4CBD1"
   stroke="#231815"
   stroke-width="0.5"
   stroke-miterlimit="10"
   width="62.727"
   height="3.64"
   id="rect32" />
	
		<rect
   x="563.408"
   y="612.169"
   transform="matrix(-0.7071 -0.7071 0.7071 -0.7071 581.1835 1468.7097)"
   fill="#B4CBD1"
   stroke="#231815"
   stroke-width="0.5"
   stroke-miterlimit="10"
   width="62.727"
   height="3.638"
   id="rect34" />
	
		<rect
   x="568.379"
   y="607.225"
   transform="matrix(-0.7071 -0.7071 0.7071 -0.7071 593.165 1463.7869)"
   fill="#B4CBD1"
   stroke="#231815"
   stroke-width="0.5"
   stroke-miterlimit="10"
   width="62.727"
   height="3.64"
   id="rect36" />
	
		<rect
   x="573.295"
   y="602.283"
   transform="matrix(-0.7071 -0.7071 0.7071 -0.7071 605.0515 1458.8246)"
   fill="#B4CBD1"
   stroke="#231815"
   stroke-width="0.5"
   stroke-miterlimit="10"
   width="62.727"
   height="3.638"
   id="rect38" />
	
		<rect
   x="578.247"
   y="597.34"
   transform="matrix(-0.7071 -0.7071 0.7071 -0.7071 617.0101 1453.8873)"
   fill="#B4CBD1"
   stroke="#231815"
   stroke-width="0.5"
   stroke-miterlimit="10"
   width="62.727"
   height="3.638"
   id="rect40" />
	
		<rect
   x="583.189"
   y="592.397"
   transform="matrix(-0.7071 -0.7071 0.7071 -0.7071 628.9316 1448.9456)"
   fill="#B4CBD1"
   stroke="#231815"
   stroke-width="0.5"
   stroke-miterlimit="10"
   width="62.727"
   height="3.64"
   id="rect42" />
	
		<rect
   x="588.132"
   y="587.455"
   transform="matrix(-0.7071 -0.7071 0.7071 -0.7071 640.8566 1444.0024)"
   fill="#B4CBD1"
   stroke="#231815"
   stroke-width="0.5"
   stroke-miterlimit="10"
   width="62.727"
   height="3.638"
   id="rect44" />
	
		<rect
   x="593.084"
   y="582.511"
   transform="matrix(-0.7071 -0.7071 0.7071 -0.7071 652.8137 1439.0664)"
   fill="#B4CBD1"
   stroke="#231815"
   stroke-width="0.5"
   stroke-miterlimit="10"
   width="62.727"
   height="3.639"
   id="rect46" />
	
		<rect
   x="553.513"
   y="622.053"
   transform="matrix(-0.7071 -0.7071 0.7071 -0.7071 557.2924 1478.5876)"
   fill="#B4CBD1"
   stroke="#231815"
   stroke-width="0.5"
   stroke-miterlimit="10"
   width="62.726"
   height="3.639"
   id="rect48" />
</g>
</svg>
