<?xml version="1.0" encoding="UTF-8" standalone="no"?>
<svg
   xmlns:dc="http://purl.org/dc/elements/1.1/"
   xmlns:cc="http://creativecommons.org/ns#"
   xmlns:rdf="http://www.w3.org/1999/02/22-rdf-syntax-ns#"
   xmlns:svg="http://www.w3.org/2000/svg"
   xmlns="http://www.w3.org/2000/svg"
   xmlns:sodipodi="http://sodipodi.sourceforge.net/DTD/sodipodi-0.dtd"
   xmlns:inkscape="http://www.inkscape.org/namespaces/inkscape"
   version="1.1"
   id="图层_1"
   x="0px"
   y="0px"
   width="100.379px"
   height="96.195px"
   viewBox="328.27 56.124 100.379 96.195"
   enable-background="new 328.27 56.124 100.379 96.195"
   xml:space="preserve"
   sodipodi:docname="软管-03.svg"><metadata
   id="metadata27"><rdf:RDF><cc:Work
       rdf:about=""><dc:format>image/svg+xml</dc:format><dc:type
         rdf:resource="http://purl.org/dc/dcmitype/StillImage" /></cc:Work></rdf:RDF></metadata><defs
   id="defs25" /><sodipodi:namedview
   pagecolor="#ffffff"
   bordercolor="#666666"
   borderopacity="1"
   objecttolerance="10"
   gridtolerance="10"
   guidetolerance="10"
   inkscape:pageopacity="0"
   inkscape:pageshadow="2"
   inkscape:window-width="640"
   inkscape:window-height="480"
   id="namedview23" />
<g
   id="g20">
	<path
   fill="#55646B"
   stroke="#231815"
   stroke-width="0.5"
   stroke-miterlimit="10"
   d="M402.762,70.146   c5.553-1.497,11.242-2.506,16.985-3c1.202-0.114,2.396-0.203,3.601-0.259c1.67-0.092,3.357-0.132,5.035-0.121l0.016,66.353   c-0.956-0.024-1.917,0.019-2.854,0.102c-1.903,0.165-3.771,0.502-5.6,0.996c-8.999,2.415-16.911,8.646-21.159,17.765   l-60.134-28.025C351.52,96.352,375.485,77.469,402.762,70.146z"
   id="path2" />
	
		<rect
   x="325.8"
   y="131.923"
   transform="matrix(0.9064 0.4224 -0.4224 0.9064 90.6617 -141.4428)"
   fill="#B4CBD1"
   stroke="#231815"
   stroke-width="0.5"
   stroke-miterlimit="10"
   width="77.433"
   height="3.892"
   id="rect4" />
	
		<rect
   x="330.864"
   y="123.349"
   transform="matrix(0.8388 0.5444 -0.5444 0.8388 127.7837 -181.0099)"
   fill="#B4CBD1"
   stroke="#231815"
   stroke-width="0.5"
   stroke-miterlimit="10"
   width="77.431"
   height="3.893"
   id="rect6" />
	
		<rect
   x="337.055"
   y="115.537"
   transform="matrix(0.7549 0.6559 -0.6559 0.7549 169.1685 -217.6617)"
   fill="#B4CBD1"
   stroke="#231815"
   stroke-width="0.5"
   stroke-miterlimit="10"
   width="77.436"
   height="3.892"
   id="rect8" />
	
		<rect
   x="344.318"
   y="108.684"
   transform="matrix(0.6562 0.7546 -0.7546 0.6562 215.1708 -251.0002)"
   fill="#B4CBD1"
   stroke="#231815"
   stroke-width="0.5"
   stroke-miterlimit="10"
   width="77.431"
   height="3.891"
   id="rect10" />
	
		<rect
   x="352.431"
   y="102.898"
   transform="matrix(0.5448 0.8386 -0.8386 0.5448 265.9759 -280.2812)"
   fill="#B4CBD1"
   stroke="#231815"
   stroke-width="0.5"
   stroke-miterlimit="10"
   width="77.435"
   height="3.891"
   id="rect12" />
	
		<rect
   x="361.276"
   y="98.328"
   transform="matrix(0.4228 0.9062 -0.9062 0.4228 321.7426 -304.6031)"
   fill="#B4CBD1"
   stroke="#231815"
   stroke-width="0.5"
   stroke-miterlimit="10"
   width="77.429"
   height="3.89"
   id="rect14" />
	
		<rect
   x="370.644"
   y="95.016"
   transform="matrix(0.2926 0.9562 -0.9562 0.2926 382.2935 -322.8523)"
   fill="#B4CBD1"
   stroke="#231815"
   stroke-width="0.5"
   stroke-miterlimit="10"
   width="77.431"
   height="3.892"
   id="rect16" />
	
		<rect
   x="380.446"
   y="93.01"
   transform="matrix(0.1566 0.9877 -0.9877 0.1566 447.3078 -333.9071)"
   fill="#B4CBD1"
   stroke="#231815"
   stroke-width="0.5"
   stroke-miterlimit="10"
   width="77.435"
   height="3.89"
   id="rect18" />
</g>
</svg>
