<?xml version="1.0" encoding="UTF-8" standalone="no"?>
<svg
   xmlns:dc="http://purl.org/dc/elements/1.1/"
   xmlns:cc="http://creativecommons.org/ns#"
   xmlns:rdf="http://www.w3.org/1999/02/22-rdf-syntax-ns#"
   xmlns:svg="http://www.w3.org/2000/svg"
   xmlns="http://www.w3.org/2000/svg"
   xmlns:sodipodi="http://sodipodi.sourceforge.net/DTD/sodipodi-0.dtd"
   xmlns:inkscape="http://www.inkscape.org/namespaces/inkscape"
   version="1.1"
   id="图层_1"
   x="0px"
   y="0px"
   width="96.89px"
   height="94.036px"
   viewBox="473.601 57.15 96.89 94.036"
   enable-background="new 473.601 57.15 96.89 94.036"
   xml:space="preserve"
   sodipodi:docname="软管-04.svg"><metadata
   id="metadata27"><rdf:RDF><cc:Work
       rdf:about=""><dc:format>image/svg+xml</dc:format><dc:type
         rdf:resource="http://purl.org/dc/dcmitype/StillImage" /></cc:Work></rdf:RDF></metadata><defs
   id="defs25" /><sodipodi:namedview
   pagecolor="#ffffff"
   bordercolor="#666666"
   borderopacity="1"
   objecttolerance="10"
   gridtolerance="10"
   guidetolerance="10"
   inkscape:pageopacity="0"
   inkscape:pageshadow="2"
   inkscape:window-width="640"
   inkscape:window-height="480"
   id="namedview23" />
<g
   id="g20">
	<path
   fill="#55646B"
   stroke="#231815"
   stroke-width="0.5"
   stroke-miterlimit="10"
   d="M520.317,75.08   c4.398-3.701,9.13-7.021,14.129-9.895c1.042-0.61,2.085-1.195,3.152-1.754c1.476-0.788,2.989-1.539,4.516-2.238l28.041,60.137   c-0.878,0.382-1.729,0.828-2.544,1.297c-1.653,0.954-3.205,2.049-4.653,3.269c-7.135,5.99-11.675,14.981-11.675,25.04h-66.345   C484.938,120.478,498.688,93.238,520.317,75.08z"
   id="path2" />
	
		<rect
   x="473.851"
   y="147.043"
   fill="#B4CBD1"
   stroke="#231815"
   stroke-width="0.5"
   stroke-miterlimit="10"
   width="77.434"
   height="3.892"
   id="rect4" />
	
		<rect
   x="474.8"
   y="137.111"
   transform="matrix(0.9903 0.1392 -0.1392 0.9903 24.3555 -70.1266)"
   fill="#B4CBD1"
   stroke="#231815"
   stroke-width="0.5"
   stroke-miterlimit="10"
   width="77.436"
   height="3.891"
   id="rect6" />
	
		<rect
   x="477.126"
   y="127.455"
   transform="matrix(0.9613 0.2756 -0.2756 0.9613 55.6382 -137.1516)"
   fill="#B4CBD1"
   stroke="#231815"
   stroke-width="0.5"
   stroke-miterlimit="10"
   width="77.434"
   height="3.891"
   id="rect8" />
	
		<rect
   x="480.784"
   y="118.18"
   transform="matrix(0.9136 0.4067 -0.4067 0.9136 93.7566 -200.8929)"
   fill="#B4CBD1"
   stroke="#231815"
   stroke-width="0.5"
   stroke-miterlimit="10"
   width="77.434"
   height="3.892"
   id="rect10" />
	
		<rect
   x="485.75"
   y="109.526"
   transform="matrix(0.848 0.5299 -0.5299 0.848 138.7668 -260.9872)"
   fill="#B4CBD1"
   stroke="#231815"
   stroke-width="0.5"
   stroke-miterlimit="10"
   width="77.428"
   height="3.892"
   id="rect12" />
	
		<rect
   x="491.83"
   y="101.607"
   transform="matrix(0.766 0.6428 -0.6428 0.766 190.7016 -316.8142)"
   fill="#B4CBD1"
   stroke="#231815"
   stroke-width="0.5"
   stroke-miterlimit="10"
   width="77.429"
   height="3.889"
   id="rect14" />
	
		<rect
   x="498.936"
   y="94.656"
   transform="matrix(0.6691 0.7431 -0.7431 0.6691 249.6799 -367.5887)"
   fill="#B4CBD1"
   stroke="#231815"
   stroke-width="0.5"
   stroke-miterlimit="10"
   width="77.428"
   height="3.891"
   id="rect16" />
	
		<rect
   x="506.928"
   y="88.734"
   transform="matrix(0.5592 0.829 -0.829 0.5592 315.6848 -412.379)"
   fill="#B4CBD1"
   stroke="#231815"
   stroke-width="0.5"
   stroke-miterlimit="10"
   width="77.429"
   height="3.891"
   id="rect18" />
</g>
</svg>
