<?xml version="1.0" encoding="UTF-8" standalone="no"?>
<svg
   xmlns:dc="http://purl.org/dc/elements/1.1/"
   xmlns:cc="http://creativecommons.org/ns#"
   xmlns:rdf="http://www.w3.org/1999/02/22-rdf-syntax-ns#"
   xmlns:svg="http://www.w3.org/2000/svg"
   xmlns="http://www.w3.org/2000/svg"
   xmlns:sodipodi="http://sodipodi.sourceforge.net/DTD/sodipodi-0.dtd"
   xmlns:inkscape="http://www.inkscape.org/namespaces/inkscape"
   version="1.1"
   id="图层_1"
   x="0px"
   y="0px"
   width="96.89px"
   height="94.052px"
   viewBox="43.09 174.037 96.89 94.052"
   enable-background="new 43.09 174.037 96.89 94.052"
   xml:space="preserve"
   sodipodi:docname="软管-05.svg"><metadata
   id="metadata27"><rdf:RDF><cc:Work
       rdf:about=""><dc:format>image/svg+xml</dc:format><dc:type
         rdf:resource="http://purl.org/dc/dcmitype/StillImage" /></cc:Work></rdf:RDF></metadata><defs
   id="defs25" /><sodipodi:namedview
   pagecolor="#ffffff"
   bordercolor="#666666"
   borderopacity="1"
   objecttolerance="10"
   gridtolerance="10"
   guidetolerance="10"
   inkscape:pageopacity="0"
   inkscape:pageshadow="2"
   inkscape:window-width="640"
   inkscape:window-height="480"
   id="namedview23" />
<g
   id="g20">
	<path
   fill="#55646B"
   stroke="#231815"
   stroke-width="0.5"
   stroke-miterlimit="10"
   d="M89.807,250.143   c4.4,3.701,9.13,7.02,14.129,9.895c1.042,0.61,2.085,1.195,3.152,1.755c1.476,0.788,2.99,1.539,4.516,2.237l28.041-60.137   c-0.878-0.382-1.73-0.827-2.544-1.297c-1.653-0.954-3.205-2.048-4.653-3.269c-7.135-5.99-11.675-14.98-11.675-25.04H54.428   C54.428,204.745,68.176,231.984,89.807,250.143z"
   id="path2" />
	
		<rect
   x="43.34"
   y="174.288"
   fill="#B4CBD1"
   stroke="#231815"
   stroke-width="0.5"
   stroke-miterlimit="10"
   width="77.433"
   height="3.892"
   id="rect4" />
	
		<rect
   x="44.296"
   y="184.201"
   transform="matrix(0.9903 -0.1392 0.1392 0.9903 -25.1031 13.3675)"
   fill="#B4CBD1"
   stroke="#231815"
   stroke-width="0.5"
   stroke-miterlimit="10"
   width="77.435"
   height="3.891"
   id="rect6" />
	
		<rect
   x="46.644"
   y="193.88"
   transform="matrix(0.9613 -0.2756 0.2756 0.9613 -50.6628 31.1086)"
   fill="#B4CBD1"
   stroke="#231815"
   stroke-width="0.5"
   stroke-miterlimit="10"
   width="77.434"
   height="3.891"
   id="rect8" />
	
		<rect
   x="50.302"
   y="203.144"
   transform="matrix(0.9136 -0.4067 0.4067 0.9136 -75.7134 53.9298)"
   fill="#B4CBD1"
   stroke="#231815"
   stroke-width="0.5"
   stroke-miterlimit="10"
   width="77.435"
   height="3.892"
   id="rect10" />
	
		<rect
   x="55.23"
   y="211.831"
   transform="matrix(0.848 -0.5299 0.5299 0.848 -99.0106 82.2683)"
   fill="#B4CBD1"
   stroke="#231815"
   stroke-width="0.5"
   stroke-miterlimit="10"
   width="77.427"
   height="3.892"
   id="rect12" />
	
		<rect
   x="61.296"
   y="219.734"
   transform="matrix(0.766 -0.6428 0.6428 0.766 -119.0986 116.1568)"
   fill="#B4CBD1"
   stroke="#231815"
   stroke-width="0.5"
   stroke-miterlimit="10"
   width="77.429"
   height="3.891"
   id="rect14" />
	
		<rect
   x="68.422"
   y="226.703"
   transform="matrix(0.6691 -0.7431 0.7431 0.6691 -134.4706 155.2698)"
   fill="#B4CBD1"
   stroke="#231815"
   stroke-width="0.5"
   stroke-miterlimit="10"
   width="77.428"
   height="3.891"
   id="rect16" />
	
		<rect
   x="76.431"
   y="232.613"
   transform="matrix(0.5592 -0.829 0.829 0.5592 -143.6997 198.8499)"
   fill="#B4CBD1"
   stroke="#231815"
   stroke-width="0.5"
   stroke-miterlimit="10"
   width="77.43"
   height="3.891"
   id="rect18" />
</g>
</svg>
