<svg id="图层_1" data-name="图层 1" xmlns="http://www.w3.org/2000/svg" viewBox="0 0 512 512"><defs><style>.cls-1{fill:none;stroke:#00a4ff;stroke-miterlimit:10;}.cls-2{fill:#f2f2f2;}.cls-3{fill:#ffda00;}</style></defs><title>大屏 小配件nnn</title><polyline class="cls-1" points="35.5 436.5 35.5 476.5 75.5 476.5"/><polyline class="cls-1" points="75.5 35.5 35.5 35.5 35.5 75.5"/><polyline class="cls-1" points="476.5 75.5 476.5 35.5 436.5 35.5"/><polyline class="cls-1" points="436.5 476.5 476.5 476.5 476.5 436.5"/><rect class="cls-1" x="53.5" y="53.5" width="405" height="405"/><path class="cls-2" d="M86,85H78.67V83.33H86v-8h1.84v8h7.34V85H87.88v8H86Z"/><path class="cls-3" d="M421,85h-7.37V83.33H421v-8h1.84v8h7.34V85h-7.34v8H421Z"/><path class="cls-2" d="M86,426H78.67v-1.69H86v-8h1.84v8h7.34V426H87.88v8H86Z"/><path class="cls-2" d="M421,426h-7.37v-1.69H421v-8h1.84v8h7.34V426h-7.34v8H421Z"/></svg>