<svg id="图层_1" data-name="图层 1" xmlns="http://www.w3.org/2000/svg" viewBox="0 0 512 512"><defs><style>.cls-1,.cls-2,.cls-4,.cls-5,.cls-6,.cls-7,.cls-8{fill:none;stroke-miterlimit:10;}.cls-1,.cls-2,.cls-4,.cls-5,.cls-6{stroke:#00a4ff;}.cls-1{stroke-width:16px;}.cls-3{fill:#00a4ff;}.cls-4{stroke-width:10px;}.cls-5{stroke-width:4px;}.cls-6{stroke-width:20px;}.cls-7,.cls-8{stroke:#0092ff;stroke-width:2px;}.cls-8{stroke-dasharray:7.95 7.95;}</style></defs><title>大屏 小配件nnn</title><path class="cls-1" d="M407.15,195.88a163.21,163.21,0,0,1,.88,118"/><circle class="cls-2" cx="256" cy="256" r="144.22"/><path class="cls-3" d="M256,82.67h-9l-.22,0h-1.3l-.35,0h-.06l-.29,0h-.13l-.34,0h0l-.35,0h0q-5.3.36-10.52,1h0l-.35,0H233l-.28,0h-.13l-.22,0h-.17l-.23,0h-.12l-.22,0h-.24l-.16,0h-.24l-.1,0h-.26l-.14,0h-.26l-.08,0h-1.44l-.13,0h-.27l-.2,0H228l-.33,0h0l-1.51.26.17,1A174,174,0,0,1,256,83.67v-1ZM202.86,91q-2.88.93-5.71,2h0l-.06,0h0L197,93h0L197,93h0l-.05,0h0l-.18.07h0l-.05,0h0l-.05,0h-.14l0,0h0l-.05,0h0l-.06,0h0l-.05,0h0l0,0H196l0,0h0l0,0h-.08l-.06,0h0l-.05,0h-.14l0,0h-.17l-.06,0h0l0,0h0l0,0H195l0,0h0l-.2.08h0l0,0h0l0,0h0l0,0h-.11l-.28.11h0l-.05,0h0l0,0h0l-.05,0h0a171.79,171.79,0,0,0-18.78,8.52l.47.88a172.2,172.2,0,0,1,27.46-11.56l-.31-1Zm-48,24.26c-1.52,1.09-3,2.21-4.51,3.36h0l0,0h0l0,0h0l0,0h0l0,0h0l0,0h0l-.14.11h0l0,0h0l0,0h0l0,0h0l0,0v0l0,0,0,0,0,0,0,0,0,0,0,0h0l0,0h0l0,0h0l0,0h0l0,0h0l0,0,0,0,0,0,0,0,0,0,0,0,0,0h0l0,0h0l-.15.12h0l0,0h0l0,0h0l0,0h0l0,0h0l0,0h0l-.3.24h0l-.05,0h0a172,172,0,0,0-16.24,14.63l.71.7A173.26,173.26,0,0,1,155.44,116l-.58-.81ZM116.58,153a173.66,173.66,0,0,0-15.68,25.53l.9.45a172.65,172.65,0,0,1,15.58-25.39l-.8-.59ZM91.69,200.68c-1.2,3.57-2.29,7.17-3.25,10.84h0v.06h0l0,.07h0a2.33,2.33,0,0,1-.07.25h0V212h0V212h0l-.07.25h0v0h0v.06h0l0,0h0v.06h0l0,.13h0l0,.05v.07h0V213h0l0,.13h0v.06h0l0,0v.13h0v.07l0,.12v0l0,0v.27l0,.06v1.28l0,.06v.39l0,.08h0v.34h0l0,.09v.32l0,.15h0V217h0l0,.15h0v.05h0v.23h0l0,.15h0v.24l0,.2v.26l0,.2v.26l-.05.2v.26l0,.14v.32l0,.14v.32l0,.14v1.21h0v.07h0v.31h0V222h0l0,.12v.07h0v.12h0v.06h0l0,.19h0v.12h0v.05h0v.06h0l0,.19h0v.06h0v.05h0v.06h0l-.06.33h0v.06h0q-.59,3.06-1,6.15l1,.15a171.11,171.11,0,0,1,7-28.95l-1-.32Zm-9,53c0,.63,0,1.25,0,1.88h0v.07h0v.07h0V256h0v.2h0v.07h0v.19h0v.28h0V257h0v.07h0v.19h0v.07h0v.2h0v.2h0v.07h0V258h0v.28h0v.19h0v.07h0v.19h0v.2h0v.07h0v.2h0v.2h0v.2h0v.06h0v.07h0v.2h0v.55h0v.2h0v.07h0v.2h0v.2h0v.07h0v.13h0v.06h0v.2h0v.13h0V262h0v.06h0v.06h0v.06h0v.2h0v.12h0v.27h0v.07h0V263h0v.13h0v.06h0v.06h0v.13h0v.13h0v.07h0V264h0v.12h0v.07h0v.13h0v.06h0v.06h0v.06h0v.06h0v.13h0v.12h0v.07h0v.13h0v.06h0v.06h0v.06h0v.06h0v.13h0v.06h0v.06h0v.2h0V266h0V266h0v.06h0v.13h0v.06h0v.2h0v.06h0v.14h0v.06h0v.06h0V267h0v.06h0v.06h0v.07h0v.13h0v.14h0v.06h0v.06h0v.13h0v.06h0V268h0v.06h0v.13h0v.06h0v.06h0v.14h0v.07h0l0,.2h0v.06h0l0,.21h0v.21h0v.06h0q.55,7.21,1.68,14.26l1-.16A173.21,173.21,0,0,1,83.67,256c0-.76,0-1.52,0-2.28l-1,0Zm8.55,53-1,.29a172.64,172.64,0,0,0,11.26,27.77l.89-.45a172.38,172.38,0,0,1-11.19-27.61Zm23.48,48-.82.57c.48.69,1,1.38,1.46,2.06h0l0,0h0l0,0h0l0,0h0l0,0h0l0,0v0l.12.16v0l0,0v0l0,0,0,0,0,0v0l0,0,0,0,0,0,0,0,0,0,0,0v0l0,.05h0l.07.11h0l0,0h0l0,0h0l0,0h0l0,0h0l0,.05h0l0,.05h0l.16.21h0l0,.05h0l0,0h0l0,.05h0a173.87,173.87,0,0,0,16.6,19.33l.71-.71a173.09,173.09,0,0,1-19.12-22.84Zm37.06,38.55-.61.8a173.94,173.94,0,0,0,25.33,16l.46-.89a173.35,173.35,0,0,1-25.18-15.92Zm47.07,25.37-.33.95q7.22,2.54,14.72,4.44h0l.39.1h.12l.28.07h.18l0,0h0l.22.05h.25l.2.05h.32l.07,0h.36l.06,0h.4l.13,0h.13l.06,0h.07l.19.05h.08l0,0h.08l0,0h0l.19,0h0l.07,0h.07l.06,0h0q5,1.14,10.16,2l.16-1a170.57,170.57,0,0,1-28.85-7.39Zm82.33,7.88A174.71,174.71,0,0,1,256,428.33c-1.51,0-3.05,0-4.56-.06l0,1,2.86.05h15l.19,0h1l.2,0h.89l.14,0h.21l.13,0h1.45l.12,0h3l.13,0H277l.14,0h.13c1.37-.17,2.72-.35,4.07-.55l-.15-1Zm51.05-15.91a171.16,171.16,0,0,1-27.75,10.82l.28,1c1.11-.32,2.22-.66,3.33-1h.12l.05,0h0l.33-.11h.18l.27-.09h0l.05,0h0l0,0h.13l.21-.07h.12l.05,0h0l0,0h0l0,0h0l.16-.05h0l.05,0h.3l.15,0h.36l.13-.05h.38l.06,0h.48l0,0h0l0,0h0l0,0h.26l.06,0h0l0,0h0l0,0h.27l0,0h0l.06,0h0l.06,0h.2l0,0h0l0,0h0l.12-.05h0l.06,0h0l.05,0h0l0,0h.14l.18-.06h0l.06,0H314l0,0h0l0,0h0l.06,0h0l.19-.07h0l.06,0h0l.05,0h.07l0,0h0l.06,0h0l.19-.07h0l.06,0h0l.05,0h0l0,0h0l0,0h0l.25-.09h0l.06,0h0l.06,0h0l.06,0h0l0,0h0l.24-.09h0l.06,0h0l.06,0h0l.06,0h0l.44-.16h0q4.53-1.69,8.93-3.62h0l0,0h0l0,0h0l.36-.16h0l.06,0h0l.36-.16h0l.06,0h0l.06,0h0l.06,0h0l.24-.1h0l.06,0h0l0,0h0l0,0h0l.06,0h0l.24-.11h0l.05,0h0l0,0h0l0,0h0l.05,0h0l.24-.11h0l0,0h0l0,0h0l0,0h0l.05,0h0l.18-.08h0l0,0h0l0,0h0l0,0h.07l0,0h0l.12,0h0l0,0h.08l0,0h0l0,0h.08l0,0h0l.11-.05h0l0,0h.06l0,0h.06l0,0h.08l0,0h0l.05,0h.06l0,0h.06l0,0h.05l0,0h.09l0,0h0l.12-.06H330l0,0h.08l0,0h0l0,0h0l0,0h0l.15-.07h0l0,0h.07l0,0h0l0,0h0l0,0h0l.21-.1h0l.05,0h0l0,0h0l.05,0h0l0,0h0l.31-.15h0l.05,0h0l0,0h0l.37-.18h0l.05,0h0l.73-.36-.44-.9Zm43.69-30.83a172.83,172.83,0,0,1-23.1,18.81l.57.83c2.16-1.47,4.3-3,6.39-4.57h0l.05,0h0l.05,0h0l.27-.21h0l0,0h0l0,0h0l0,0h0l0,0h0l0,0h0l0,0h0l.13-.1h0l0,0,0,0,0,0h0l0,0,0,0,0,0,0,0,0,0,0,0,0,0h0l0,0,0,0,0,0,0,0h0l0,0,0,0,0,0,0,0,0,0,0,0,0,0h0l0,0h0l0,0,0,0,0,0,0,0,0,0,0,0,.05,0h0l0,0h0l0,0h0l0,0h0l0,0h0l0,0h0l0,0h0l0,0h0l.15-.12h0l0,0h0l0,0h0l0,0h0l0,0h0l.05,0h0l.31-.24h0l.05,0h0l0,0h0l.05,0h0l.31-.24h0l.05,0h0l.05,0h0a172.2,172.2,0,0,0,13.5-11.8l-.69-.72Zm32.19-42.7a173.17,173.17,0,0,1-16.25,25l.79.61q2.94-3.76,5.67-7.69h0l0-.05h0l0-.06h0l.15-.21h0l0,0h0l0,0h0l0,0v0l0,0h0l0,0h0l0-.05h0l.07-.11h0l0,0h0l0,0,0,0,0,0v0l0,0,0,0,0,0h0l0,0v0l0,0v0l0,0,0,0,0,0,0,0,0,0v0l0,0,0,0,0,0,0,0v0l0,0,0,0,0,0v0l0,0v0l.12-.17h0l0,0h0l0,0h0l0,0h0l0,0h0l.22-.33h0l0-.05h0l0-.05h0a173.81,173.81,0,0,0,9-15l-.88-.47Zm17.52-50.52a172.1,172.1,0,0,1-7.78,28.76l.94.34q1.74-4.74,3.2-9.6h0l0-.05h0l0-.05h0c0-.09.05-.18.08-.27h0l0,0h0v0h0v0h0a2.76,2.76,0,0,0,.08-.27h0l0-.05h0l0,0V305l.06-.21h0v-.05h0v-.06l0,0v-.12h0l.05-.15h0v-.12l0,0v-.12h0l.05-.15h0v-.3l0-.13v-.38l0-.06v-.37l0-.05v-.4l0-.06h0v-.25l0,0v-.14h0v-.14l0,0v-.07h0v-.07l0,0v0l0-.12h0v-.12h0v-.18h0l0-.13h0v-.06h0v-.07l0,0v-.07h0v-.06h0l0-.13h0v-.13l0,0h0v0h0V300h0l0-.13h0v-.07l0-.05h0v-.05h0v-.06h0l0-.05h0l0-.13h0l0-.06h0v-.13l0-.05h0l0-.06h0l0-.13h0v-.05h0v-.06h0l0-.05h0v-.06h0l.06-.25h0l0,0h0v-.06h0l0,0h0l.06-.26h0l0-.06h0l0-.06h0v-.06h0l.07-.26h0v-.06h0l0-.06h0v-.06h0l.06-.26h0V297h0v-.06h0l0-.06h0l.06-.26h0v-.06h0v-.05h0l0-.06h0c0-.11,0-.22.07-.33h0l0-.06h0c0-.11.05-.21.08-.32h0v-.07h0l0-.06h0c0-.1.05-.21.07-.32h0l0-.06h0v-.06h0l0-.07h0c0-.11.05-.21.07-.32h0l0-.06h0c.06-.29.13-.57.19-.85h0v-.07h0l.09-.39h0c0-.15.07-.3.1-.45h0l0-.06h0v-.07h0c0-.11.05-.22.07-.33h0l.09-.39h0v-.07h0v-.06h0l0-.06h0c0-.11,0-.22.07-.33h0v-.05h0v-.06h0l.06-.26h0V291h0v-.05h0v-.06h0c0-.11,0-.21.07-.32h0v-.06h0v-.06h0l.06-.26h0v-.06h0V290h0v-.06h0v-.07h0l0-.2h0v-.06h0v-.06h0l0-.06h0a2.38,2.38,0,0,1,0-.26h0v-.06h0v-.06h0l0-.05h0V289h0l0-.19h0v-.06h0v-.05h0v-.06h0v-.06h0a1.42,1.42,0,0,1,0-.2h0v0h0v-.06h0v-.05h0V288h0l0-.19h0v-.06h0v-.12h0v-.06h0c0-.07,0-.13,0-.2h0v-.12h0v-.12h0V287h0l0-.13h0v-.15l-1-.18Zm2.18-53.6-1,.13A173.5,173.5,0,0,1,428.33,256c0,2.27-.05,4.57-.14,6.84l1,0c0-.3,0-.6,0-.91h0v-.14h0v-.5h0v-.06h0V261h0c0-1.16.06-2.32.07-3.49h0v-.07h0v-.14h0v-.06h0v-.14h0V257h0v-.07h0v-.13h0v-.28h0v-.07h0v-.12h0v-.07h0V256h0v-.14h0v-.14h0v-.05h0v-.07h0v-.13h0v-.05h0v-.07h0v-.06h0v-.14h0V255h0v-.28h0v-.14h0v-.14h0v-.13h0v-.06h0v-.07h0v0h0V254h0v-.06h0v-.14h0v-.28h0v-.06h0v-.07h0v-.06h0v-.07h0v-.06h0v-.07h0V253h0v-.07h0v-.07h0v-.06h0v-.13h0v-.13h0v-.13h0v-.13h0v-.13h0V252h0v-.07h0v-.06h0v-.13h0v-.13h0v-.13h0v-.13h0v-.13h0V251h0c0-.12,0-.23,0-.35h0v-.14h0v-.14h0q-.18-5.57-.7-11h0v-.13h0l0-.13h0V239h0v-.13h0l0-.13h0v-.13h0v-.06h0v-.06h0v-.06h0v-.05h0v-.13h0v-.06h0V238h0v-.06h0v-.06h0v-.2h0v-.06h0v-1.67h0v-.26h0v0h0v-.08h0l0-.13h0v-.12h0l0-.13h0l-.27-2.17Zm-15.32-51.55-.9.43A171.83,171.83,0,0,1,422,209.71l1-.26a167.8,167.8,0,0,0-6.13-18.08h0l0-.06h0l0-.05h0c0-.11-.09-.22-.13-.32h0l0-.05h0l0,0h0l0,0h0c0-.08-.07-.17-.11-.26h0l0-.05h0l0,0v0l0,0h0v-.06l0,0h0l-.06-.14h0V190l0,0v-.14l0,0v0l0-.05v0l0,0v-.11l0,0v-.14l0,0v0l0-.06h0l0-.06h0l0,0v0l0,0v0l0,0v0l0,0v0l0,0h0l0-.06h0l0-.06h0l0-.05h0l0-.05v0l0,0v0l0,0h0l0-.05h0l-.12-.3h0l0-.06h0l0,0h0q-1.43-3.35-3-6.6ZM382.06,137l-.73.69a172.49,172.49,0,0,1,18.51,23.34l.84-.55a174.39,174.39,0,0,0-15-19.56h0l0-.05h0l0,0h0l0,0h0l0,0h0l0,0h0l-.13-.14h0l0,0h0l0,0v0l0,0,0,0,0,0,0,0,0,0,0,0,0,0,0,0h0l-.09-.11h0l0,0,0,0,0,0h0l0,0v0l0,0h0l0,0h0l0,0h0c-.86-1-1.73-1.89-2.61-2.83ZM339.54,104.1l-.48.88a172.36,172.36,0,0,1,24.75,16.58l.63-.78q-3.46-2.79-7.07-5.39h0l-.05,0h0l-.32-.24h0l0,0h0l0,0h0l0,0h0l0,0h0l-.23-.17h0l0,0h0l0,0h0l0,0h0l0,0h0l0,0h0l0,0h0l-.13-.1h0l0,0h0l0,0,0,0,0,0h0l0,0,0,0,0,0,0,0h0l0,0,0,0,0,0h0l-.05,0h0l0,0h0l0,0h0l0,0h0l0,0v0l0,0h0l0,0h0l0,0h0l-.1-.08h0l0,0h0l0,0h0l0,0h0l0,0h0l0,0h0l-.05,0h0l-.22-.15h0l-.05,0h0l0,0h0l0,0h0l0,0h0a172.65,172.65,0,0,0-14.93-9.24ZM289,85.81l-.19,1A170.29,170.29,0,0,1,317.43,95l.36-.94c-2.35-.9-4.72-1.74-7.12-2.54h0l-.06,0h-.05l-.33-.1h-.06l-.05,0h0l-.33-.11h0l0,0h0l-.05,0h0l-.33-.1h0l0,0h0l0,0h0l-.05,0h0l-.27-.09h-.12l0,0h0l-.26-.09h-.18l0,0h0l-.21-.07h-.18l-.05,0h0l-.22-.07h-.18l0,0h0l-.21-.06H307l0,0h-.07l-.21-.06h0l0,0h0l-.05,0h-.13l-.2-.06H306l0,0h-.07l-.15,0h0l0,0h0l0,0h-.13l-.21-.07h-.13l0,0H305l-.16,0h-.3l-.2-.06h-.13l-.05,0h-.07l-.2-.06h-.25l0,0h0l-.17,0h-.06l-.05,0h-.13l-.21-.06h0l0,0h-.13l0,0h0l-.21-.06h-.12l-.05,0h-.06l-.28-.08h-.12l-.05,0h-.06l-.22-.06h-.18l-.28-.08h-.06l0,0H301l-.28-.08h-.06l-.06,0h0l-.39-.1h0l-.06,0h-.06q-5.47-1.44-11.1-2.52Zm-33-3.14v1c3,0,6.1.08,9.11.24l.06-1-1.78-.08H256Z"/><path class="cls-4" d="M74,313.82A190.77,190.77,0,0,1,65.13,256"/><path class="cls-4" d="M256,446.87a189.94,189.94,0,0,1-99.48-27.94"/><path class="cls-5" d="M256,65.13c105.42,0,190.87,85.45,190.87,190.87"/><path class="cls-6" d="M256,64.27a191.21,191.21,0,0,1,142.83,63.82"/><path class="cls-7" d="M98.51,256c0-1.34,0-2.67,0-4"/><path class="cls-8" d="M99,244.06A157.64,157.64,0,0,1,286.63,101.49"/><path class="cls-7" d="M290.52,102.3c1.3.29,2.6.6,3.89.92"/><path class="cls-5" d="M391,333a155.39,155.39,0,0,1-240.16,37.36"/><path class="cls-4" d="M111.78,256a144,144,0,0,1,80.74-129.54"/><path class="cls-4" d="M137.33,376.39A168.53,168.53,0,0,1,87,256a170.52,170.52,0,0,1,1.58-23.19"/><path class="cls-1" d="M284.88,416.09A163.37,163.37,0,0,1,169.07,393.5"/><circle class="cls-2" cx="256" cy="256" r="144.22" transform="translate(-106.04 256) rotate(-45)"/><path class="cls-4" d="M284.66,114.65A144.08,144.08,0,0,1,395.57,219.52"/><path class="cls-1" d="M161.59,115.77a168.52,168.52,0,0,1,128-25.45"/></svg>