<svg id="图层_1" data-name="图层 1" xmlns="http://www.w3.org/2000/svg" viewBox="0 0 512 512"><defs><style>.cls-1,.cls-2{fill:none;stroke:#3fa9f5;stroke-miterlimit:10;}.cls-1{stroke-width:2px;}</style></defs><title>大屏 小配件nnn</title><rect class="cls-1" x="43" y="214" width="426" height="88"/><path class="cls-2" d="M37.26,311c-12.15,0-22-23.73-22-53s9.85-53,22-53"/><path class="cls-2" d="M473.74,205c12.15,0,22,23.73,22,53s-9.85,53-22,53"/><line class="cls-2" x1="42.5" y1="259.5" x2="469" y2="259.5"/><line class="cls-2" x1="65.87" y1="222.5" x2="65.87" y2="294.5"/><line class="cls-2" x1="43.5" y1="223" x2="43.5" y2="295"/><line class="cls-2" x1="88.24" y1="222.5" x2="88.24" y2="294.5"/><line class="cls-2" x1="110.61" y1="222.5" x2="110.61" y2="294.5"/><line class="cls-2" x1="132.97" y1="222.5" x2="132.97" y2="294.5"/><line class="cls-2" x1="155.34" y1="222.5" x2="155.34" y2="294.5"/><line class="cls-2" x1="177.71" y1="222.5" x2="177.71" y2="294.5"/><line class="cls-2" x1="200.08" y1="222.5" x2="200.08" y2="294.5"/><line class="cls-2" x1="222.45" y1="222.5" x2="222.45" y2="294.5"/><line class="cls-2" x1="244.82" y1="222.5" x2="244.82" y2="294.5"/><line class="cls-2" x1="267.18" y1="222.5" x2="267.18" y2="294.5"/><line class="cls-2" x1="289.55" y1="222.5" x2="289.55" y2="294.5"/><line class="cls-2" x1="311.92" y1="222.5" x2="311.92" y2="294.5"/><line class="cls-2" x1="334.29" y1="222.5" x2="334.29" y2="294.5"/><line class="cls-2" x1="356.66" y1="222.5" x2="356.66" y2="294.5"/><line class="cls-2" x1="379.03" y1="222.5" x2="379.03" y2="294.5"/><line class="cls-2" x1="401.39" y1="222.5" x2="401.39" y2="294.5"/><line class="cls-2" x1="423.76" y1="222.5" x2="423.76" y2="294.5"/><line class="cls-2" x1="446.13" y1="222.5" x2="446.13" y2="294.5"/><line class="cls-2" x1="468.5" y1="223" x2="468.5" y2="295"/></svg>