<svg id="图层_1" data-name="图层 1" xmlns="http://www.w3.org/2000/svg" viewBox="0 0 512 512"><defs><style>.cls-1{fill:#191e2d;}.cls-2,.cls-3{fill:#ffda00;}.cls-2{opacity:0.63;}</style></defs><title>大屏 小配件nnn</title><rect class="cls-1" width="512" height="512" transform="translate(512 512) rotate(180)"/><path class="cls-2" d="M94,261v-.05h2V261Zm4,0v-.05h2V261Zm4,0v0h2v0Zm4,0v-.05h2V261Zm3.95,0v-.05h2v.05Zm4,0v-.05h2v.05Zm4,0v-.05h2v.05Zm4,0v-.05h2v.05Zm4,0v0h2v0Zm3.95,0v-.05h2v.05Zm4,0v-.05h2v.05Zm3.95,0v-.05h2v.05Zm4,0v-.05h2v.05Zm4,0v-.05h2v.05Zm3.95,0v0h2v0Zm4,0v-.05h2v.05Zm3.95,0v-.05h2v.05Zm4,0v-.05h2v.05Zm3.95,0v-.05h2v.05Zm4,0v-.05h2v.05Zm4,0v0h2v0Zm3.95,0v0h2v0Zm4,0v-.05h2v.05Zm3.95,0v-.05h2v.05Zm4,0v-.05h2v.05Zm3.95,0v-.05h2v.05Zm4,0v-.05h2v.05Zm4,0v0h2v0Zm4,0v-.05h2v.05Zm4,0v-.05h2v.05Zm3.95,0v-.05h2v.05Zm4,0v-.05h2v.05Zm4,0v-.05h2v.05Zm4,0v0h2v0Zm4,0v-.05h2v.05Zm4,0v-.05h2v.05Zm4,0v-.05h2v.05Zm4,0v-.05h2v.05Zm4,0v-.05h2v.05Zm4,0v0h2v0Zm4,0v-.05h2v.05Zm4,0v-.05h2v.05Zm4,0v0h2v.05Zm3.95,0v0h2v.05Zm4,0v0h2v.05Zm4,0v0h2v0Zm3.95,0v0h2v0Zm4,0v0h2v.05Zm3.95,0v-.05h2v.05Zm4,0v-.05h2v.05Zm3.95,0v-.05h2v.05Zm4,0v-.05h2v.05Zm4,0v-.05h2v0Zm3.95,0v0h2v.05Zm4,0v-.05h2v.05Zm3.95,0v-.05h2v.05Zm4,0v-.05h2v.05Zm4,0v-.05h2v.05Zm4,0v-.05h2v0Zm4,0v0h2v.05Zm3.95,0v-.05h2v.05Zm4,0v-.05h2v.05Zm3.95,0v-.05h2v.05Zm4,0v-.05h2v.05Zm4,0v-.05h2v0Zm4,0v0h2v.05Zm4,0v-.05h2v.05Zm3.95,0v-.05h2v.05Zm4,0v-.05h2v.05Zm3.95,0v-.05h2v.05Zm4,0v-.05h2v0Zm4,0v0h2v0Zm4,0v0h2v.05Zm3.95,0v-.05h2v.05Zm4,0v-.05h2v.05Zm4,0v-.05h2v.05Zm3.95,0v-.05h2v.05Zm4,0v-.05h2v0Zm4,0v0h2v.05Zm4,0v-.05h.5v.05Z"/><path class="cls-3" d="M183.1,204.85a4.57,4.57,0,0,1-1.83-.74l0,0a4.48,4.48,0,0,0,1.81.74Zm2-.09v0a4.53,4.53,0,0,0,1.72-.91l0,0A4.68,4.68,0,0,1,185.07,204.76Zm-5.14-2.09a4.6,4.6,0,0,1-.62-1.87h.05a4.54,4.54,0,0,0,.61,1.86Zm8.08-.4,0,0a4.47,4.47,0,0,0,.42-1.91,4.41,4.41,0,0,0-.09-.89h0a4.58,4.58,0,0,1,.09.9A4.39,4.39,0,0,1,188,202.27Zm-8.42-3.42h-.05a4.74,4.74,0,0,1,1-1.68l0,0A4.72,4.72,0,0,0,179.59,198.85Zm7.92-1.18a4.52,4.52,0,0,0-1.46-1.29l0,0a4.62,4.62,0,0,1,1.48,1.3Zm-5.27-1.55v-.05a4.54,4.54,0,0,1,1.64-.3h.31v.05h-.3A4.53,4.53,0,0,0,182.24,196.12Z"/><rect class="cls-3" x="183.81" y="196.29" width="0.05" height="8.14" transform="translate(-84.65 243.38) rotate(-56.57)"/><rect class="cls-3" x="179.76" y="200.33" width="8.14" height="0.05" transform="translate(-73.58 112.73) rotate(-28.66)"/><path class="cls-3" d="M124.88,316.23h-2.37l0,0a89.71,89.71,0,0,1-16.19-32.62,86.39,86.39,0,0,1-2-35.49c2.24-14.79,8.37-29.45,18.21-43.58l0,0h2.38v.2h-2.27c-22.23,31.92-21,60.5-16.13,78.86A89.63,89.63,0,0,0,122.6,316h2.28Z"/><path class="cls-3" d="M381.51,316.23h-2.37V316h2.28a89.84,89.84,0,0,0,16.13-32.51c4.9-18.36,6.09-46.94-16.14-78.85h-2.27v-.2h2.38l0,0c9.84,14.13,16,28.79,18.21,43.58a86.39,86.39,0,0,1-2,35.49,89.71,89.71,0,0,1-16.19,32.62Z"/><circle class="cls-3" cx="391.52" cy="221.82" r="0.91"/><polygon class="cls-3" points="391.54 221.84 391.51 221.81 395.76 217.55 398.2 217.55 398.2 217.6 395.78 217.6 391.54 221.84"/></svg>