<svg id="图层_1" data-name="图层 1" xmlns="http://www.w3.org/2000/svg" viewBox="0 0 512 512"><defs><style>.cls-1{fill:#191e2d;}.cls-2{fill:#fff;}</style></defs><title>大屏 小配件nnn</title><rect class="cls-1" width="512" height="512" transform="translate(512 512) rotate(180)"/><path class="cls-2" d="M246,434.09c-82.83,0-150.22-67.38-150.22-150.21h13.31c0,75.49,61.42,136.91,136.91,136.91Z"/><path class="cls-2" d="M253.36,370.29a78.7,78.7,0,0,1-35.83-8.64l6.08-11.83a65.19,65.19,0,0,0,90.3-33.93l12.37,4.91A78.07,78.07,0,0,1,253.36,370.29Zm-45.74-14.7A78.94,78.94,0,0,1,191,339.45l10.57-8.08a65.23,65.23,0,0,0,13.8,13.41Zm-27.81-36.42a78.48,78.48,0,0,1,73.55-105.75c2.5,0,5,.12,7.53.36L259.63,227c-2.08-.19-4.19-.29-6.27-.29a65.19,65.19,0,0,0-61.08,87.81Zm150.55-12.31-13.06-2.53a65.79,65.79,0,0,0,1.19-12.47,65,65,0,0,0-16.75-43.61l9.88-8.91a78.29,78.29,0,0,1,20.17,52.52A79.17,79.17,0,0,1,330.36,306.86ZM286.89,236a64.52,64.52,0,0,0-17.76-7.36l3.21-12.91a77.93,77.93,0,0,1,21.41,8.87Z"/><path class="cls-2" d="M156.3,205.44a129.31,129.31,0,0,1,92.16-39.19,130,130,0,0,1,50.34,9.83A130.11,130.11,0,0,1,370,247.27a130,130,0,0,1,9.83,50.34,129.26,129.26,0,0,1-39.2,92.16A130.86,130.86,0,0,0,367.75,248.2a130.49,130.49,0,0,0-69.88-69.89A130.86,130.86,0,0,0,156.3,205.44Z"/><rect class="cls-2" x="252.69" y="77.91" width="1.33" height="211.59"/><circle class="cls-2" cx="253.36" cy="291.86" r="5.26"/><rect class="cls-2" x="253.02" y="129.04" width="0.67" height="19.51"/><polygon class="cls-2" points="256.19 148.58 255.53 148.57 255.87 129.06 256.53 129.07 256.19 148.58"/><polygon class="cls-2" points="258.69 148.65 258.03 148.63 258.71 129.13 259.37 129.15 258.69 148.65"/><polygon class="cls-2" points="261.19 148.76 260.52 148.73 261.55 129.24 262.21 129.28 261.19 148.76"/><rect class="cls-2" x="254.28" y="138.84" width="19.51" height="0.66" transform="translate(106.62 392.75) rotate(-85.96)"/><polygon class="cls-2" points="266.18 149.12 265.52 149.07 267.22 129.63 267.88 129.69 266.18 149.12"/><polygon class="cls-2" points="268.67 149.37 268.01 149.3 270.05 129.9 270.71 129.97 268.67 149.37"/><polygon class="cls-2" points="271.15 149.66 270.49 149.58 272.87 130.21 273.53 130.29 271.15 149.66"/><polygon class="cls-2" points="273.63 149.99 272.97 149.9 275.69 130.58 276.35 130.67 273.63 149.99"/><rect class="cls-2" x="267.55" y="140.35" width="19.51" height="0.67" transform="translate(95.04 392.61) rotate(-81.02)"/><polygon class="cls-2" points="278.57 150.78 277.92 150.67 281.3 131.46 281.96 131.57 278.57 150.78"/><polygon class="cls-2" points="281.03 151.24 280.38 151.12 284.1 131.97 284.75 132.09 281.03 151.24"/><polygon class="cls-2" points="283.48 151.75 282.83 151.61 286.88 132.53 287.53 132.67 283.48 151.75"/><polygon class="cls-2" points="285.92 152.3 285.27 152.15 289.66 133.14 290.31 133.29 285.92 152.3"/><rect class="cls-2" x="280.63" y="143.01" width="19.51" height="0.66" transform="translate(80.9 390.29) rotate(-75.96)"/><rect class="cls-2" x="283.22" y="143.68" width="19.51" height="0.66" transform="translate(78.21 389.88) rotate(-75.04)"/><polygon class="cls-2" points="293.18 154.19 292.54 154.01 297.92 135.26 298.56 135.44 293.18 154.19"/><polygon class="cls-2" points="295.57 154.91 294.94 154.72 300.64 136.06 301.28 136.25 295.57 154.91"/><polygon class="cls-2" points="297.96 155.67 297.33 155.46 303.36 136.91 303.99 137.11 297.96 155.67"/><polygon class="cls-2" points="300.33 156.47 299.7 156.25 306.05 137.8 306.68 138.02 300.33 156.47"/><rect class="cls-2" x="295.95" y="147.69" width="19.51" height="0.67" transform="translate(61.81 384.42) rotate(-69.94)"/><rect class="cls-2" x="298.46" y="148.63" width="19.51" height="0.67" transform="translate(58.47 383.08) rotate(-68.95)"/><rect class="cls-2" x="300.94" y="149.61" width="19.51" height="0.66" transform="translate(55.08 381.62) rotate(-67.95)"/><rect class="cls-2" x="303.41" y="150.63" width="19.51" height="0.67" transform="translate(51.98 380.41) rotate(-67.04)"/><rect class="cls-2" x="305.86" y="151.69" width="19.51" height="0.67" transform="translate(48.51 378.69) rotate(-66.04)"/><rect class="cls-2" x="308.29" y="152.8" width="19.51" height="0.66" transform="translate(44.99 376.84) rotate(-65.04)"/><rect class="cls-2" x="310.7" y="153.95" width="19.51" height="0.66" transform="translate(41.44 374.85) rotate(-64.04)"/><rect class="cls-2" x="313.09" y="155.15" width="19.51" height="0.66" transform="translate(37.88 372.72) rotate(-63.03)"/><rect class="cls-2" x="315.46" y="156.38" width="19.51" height="0.66" transform="translate(34.29 370.45) rotate(-62.03)"/><rect class="cls-2" x="317.81" y="157.65" width="19.51" height="0.67" transform="matrix(0.48, -0.87, 0.87, 0.48, 30.7, 368.05)"/><rect class="cls-2" x="320.13" y="158.97" width="19.51" height="0.67" transform="translate(27.11 365.52) rotate(-60.03)"/><polygon class="cls-2" points="327.45 169.19 326.88 168.85 336.93 152.13 337.5 152.47 327.45 169.19"/><polygon class="cls-2" points="329.58 170.5 329.02 170.15 339.36 153.6 339.92 153.96 329.58 170.5"/><polygon class="cls-2" points="331.69 171.85 331.13 171.49 341.76 155.13 342.31 155.49 331.69 171.85"/><polygon class="cls-2" points="333.77 173.24 333.22 172.86 344.13 156.69 344.68 157.06 333.77 173.24"/><polygon class="cls-2" points="335.83 174.66 335.28 174.28 346.47 158.29 347.02 158.68 335.83 174.66"/><polygon class="cls-2" points="337.86 176.11 337.32 175.72 348.79 159.94 349.33 160.33 337.86 176.11"/><rect class="cls-2" x="335.72" y="169.28" width="19.51" height="0.66" transform="translate(1.95 343.15) rotate(-52.95)"/><rect class="cls-2" x="337.84" y="170.91" width="19.51" height="0.67" transform="translate(-1.44 339.53) rotate(-51.97)"/><polygon class="cls-2" points="343.8 180.7 343.29 180.28 355.56 165.11 356.08 165.53 343.8 180.7"/><polygon class="cls-2" points="345.73 182.29 345.22 181.87 357.76 166.92 358.27 167.34 345.73 182.29"/><rect class="cls-2" x="344.02" y="176.01" width="19.51" height="0.66" transform="translate(-11.51 327.4) rotate(-48.96)"/><polygon class="cls-2" points="349.5 185.58 349 185.14 362.06 170.64 362.55 171.08 349.5 185.58"/><polygon class="cls-2" points="351.34 187.27 350.85 186.82 364.16 172.55 364.64 173.01 351.34 187.27"/><rect class="cls-2" x="349.93" y="181.42" width="19.51" height="0.67" transform="translate(-21.03 313.9) rotate(-45.95)"/><polygon class="cls-2" points="354.93 190.76 354.46 190.29 368.25 176.49 368.72 176.97 354.93 190.76"/><rect class="cls-2" x="353.71" y="185.2" width="19.51" height="0.67" transform="translate(-26.77 304.9) rotate(-44.05)"/><rect class="cls-2" x="355.54" y="187.14" width="19.51" height="0.67" transform="translate(-29.82 299.15) rotate(-42.95)"/><rect class="cls-2" x="357.35" y="189.11" width="19.51" height="0.66" transform="translate(-32.49 294.21) rotate(-41.99)"/><polygon class="cls-2" points="361.73 198.09 361.3 197.59 376.02 184.79 376.46 185.29 361.73 198.09"/><polygon class="cls-2" points="363.35 200 362.92 199.49 377.87 186.95 378.3 187.46 363.35 200"/><polygon class="cls-2" points="364.94 201.93 364.52 201.41 379.68 189.14 380.1 189.65 364.94 201.93"/><rect class="cls-2" x="364.22" y="197.29" width="19.51" height="0.67" transform="translate(-42.35 272.37) rotate(-38.03)"/><rect class="cls-2" x="365.84" y="199.41" width="19.51" height="0.66" transform="translate(-44.52 266.62) rotate(-37.05)"/><polygon class="cls-2" points="369.49 207.89 369.1 207.35 384.88 195.89 385.27 196.43 369.49 207.89"/><rect class="cls-2" x="368.98" y="203.73" width="19.51" height="0.67" transform="translate(-48.56 254.08) rotate(-34.99)"/><rect class="cls-2" x="370.5" y="205.93" width="19.51" height="0.66" transform="translate(-50.33 247.9) rotate(-34)"/><rect class="cls-2" x="371.97" y="208.16" width="19.51" height="0.66" transform="translate(-51.97 241.58) rotate(-33.01)"/><rect class="cls-2" x="373.41" y="210.41" width="19.51" height="0.67" transform="translate(-53.47 234.75) rotate(-31.96)"/><rect class="cls-2" x="374.8" y="212.69" width="19.51" height="0.67" transform="translate(-54.8 228.21) rotate(-30.96)"/><rect class="cls-2" x="376.16" y="214.99" width="19.51" height="0.67" transform="translate(-55.96 221.55) rotate(-29.97)"/><rect class="cls-2" x="377.47" y="217.32" width="19.51" height="0.67" transform="translate(-56.97 214.77) rotate(-28.97)"/><rect class="cls-2" x="378.75" y="219.67" width="19.51" height="0.66" transform="matrix(0.88, -0.47, 0.47, 0.88, -57.8, 207.89)"/><rect class="cls-2" x="379.98" y="222.04" width="19.51" height="0.66" transform="translate(-58.46 200.91) rotate(-26.97)"/><rect class="cls-2" x="381.17" y="224.43" width="19.51" height="0.66" transform="translate(-58.94 193.84) rotate(-25.96)"/><rect class="cls-2" x="382.32" y="226.84" width="19.51" height="0.66" transform="translate(-59.25 186.69) rotate(-24.96)"/><rect class="cls-2" x="383.43" y="229.27" width="19.51" height="0.67" transform="translate(-59.36 179.48) rotate(-23.96)"/><rect class="cls-2" x="384.5" y="231.72" width="19.51" height="0.67" transform="translate(-59.29 172.21) rotate(-22.96)"/><rect class="cls-2" x="385.52" y="234.18" width="19.51" height="0.67" transform="translate(-59.03 164.89) rotate(-21.97)"/><polygon class="cls-2" points="387.27 240.81 387.03 240.19 405.24 233.2 405.48 233.82 387.27 240.81"/><polygon class="cls-2" points="388.14 243.16 387.91 242.53 406.24 235.86 406.47 236.48 388.14 243.16"/><polygon class="cls-2" points="388.97 245.51 388.75 244.89 407.2 238.54 407.41 239.16 388.97 245.51"/><rect class="cls-2" x="389.17" y="244.23" width="19.51" height="0.67" transform="translate(-55.93 134.77) rotate(-17.94)"/><polygon class="cls-2" points="390.5 250.28 390.31 249.64 408.96 243.94 409.16 244.57 390.5 250.28"/><polygon class="cls-2" points="391.21 252.68 391.02 252.04 409.78 246.66 409.96 247.3 391.21 252.68"/><polygon class="cls-2" points="391.87 255.09 391.7 254.44 410.54 249.4 410.71 250.04 391.87 255.09"/><rect class="cls-2" x="392.12" y="254.5" width="19.51" height="0.66" transform="translate(-49.81 105.08) rotate(-14.04)"/><polygon class="cls-2" points="393.07 259.94 392.92 259.29 411.93 254.91 412.08 255.56 393.07 259.94"/><rect class="cls-2" x="393.32" y="259.7" width="19.51" height="0.66" transform="translate(-45.16 89.25) rotate(-11.97)"/><rect class="cls-2" x="393.85" y="262.32" width="19.51" height="0.67" transform="translate(-42.71 81.87) rotate(-11)"/><polygon class="cls-2" points="394.55 267.3 394.43 266.64 413.64 263.26 413.76 263.91 394.55 267.3"/><rect class="cls-2" x="394.78" y="267.58" width="19.51" height="0.66" transform="translate(-37 66.73) rotate(-9.02)"/><polygon class="cls-2" points="395.32 272.24 395.23 271.58 414.54 268.87 414.64 269.53 395.32 272.24"/><rect class="cls-2" x="395.52" y="272.87" width="19.51" height="0.66" transform="translate(-30.11 51.11) rotate(-6.96)"/><polygon class="cls-2" points="395.92 277.21 395.85 276.55 415.25 274.51 415.32 275.17 395.92 277.21"/><polygon class="cls-2" points="396.15 279.7 396.09 279.03 415.53 277.33 415.58 278 396.15 279.7"/><rect class="cls-2" x="396.29" y="280.85" width="19.51" height="0.67" transform="translate(-18.72 29.17) rotate(-4.02)"/><polygon class="cls-2" points="396.49 284.69 396.45 284.02 415.94 283 415.97 283.67 396.49 284.69"/><rect class="cls-2" x="396.57" y="286.18" width="19.51" height="0.67" transform="translate(-9.82 14.45) rotate(-2.01)"/><polygon class="cls-2" points="396.65 289.69 396.64 289.02 416.14 288.68 416.16 289.35 396.65 289.69"/><rect class="cls-2" x="396.67" y="291.53" width="19.51" height="0.67"/><polygon class="cls-2" points="416.14 295.03 396.64 294.69 396.65 294.02 416.16 294.37 416.14 295.03"/><rect class="cls-2" x="405.99" y="287.44" width="0.67" height="19.51" transform="translate(95.13 692.91) rotate(-88)"/><polygon class="cls-2" points="415.94 300.71 396.45 299.69 396.49 299.03 415.97 300.05 415.94 300.71"/><rect class="cls-2" x="405.71" y="292.78" width="0.67" height="19.51" transform="translate(75.97 686.53) rotate(-86.01)"/><polygon class="cls-2" points="415.53 306.38 396.09 304.68 396.15 304.01 415.58 305.72 415.53 306.38"/><polygon class="cls-2" points="415.25 309.21 395.85 307.17 395.92 306.51 415.32 308.55 415.25 309.21"/><rect class="cls-2" x="404.95" y="300.76" width="0.66" height="19.51" transform="translate(47.7 674.94) rotate(-83)"/><polygon class="cls-2" points="414.54 314.85 395.23 312.13 395.32 311.47 414.64 314.19 414.54 314.85"/><rect class="cls-2" x="404.2" y="306.05" width="0.66" height="19.51" transform="translate(29.37 665.99) rotate(-81.01)"/><polygon class="cls-2" points="413.64 320.46 394.43 317.07 394.55 316.42 413.76 319.8 413.64 320.46"/><rect class="cls-2" x="403.27" y="311.31" width="0.67" height="19.51" transform="translate(11.43 655.99) rotate(-79)"/><rect class="cls-2" x="402.74" y="313.93" width="0.66" height="19.51" transform="translate(2.67 650.66) rotate(-78)"/><polygon class="cls-2" points="411.93 328.81 392.92 324.42 393.07 323.77 412.08 328.16 411.93 328.81"/><rect class="cls-2" x="401.54" y="319.13" width="0.66" height="19.51" transform="translate(-14.48 639.24) rotate(-76)"/><polygon class="cls-2" points="410.54 334.32 391.7 329.27 391.87 328.63 410.71 333.68 410.54 334.32"/><polygon class="cls-2" points="409.78 337.06 391.02 331.68 391.21 331.04 409.96 336.42 409.78 337.06"/><polygon class="cls-2" points="408.96 339.78 390.31 334.07 390.5 333.44 409.16 339.14 408.96 339.78"/><polygon class="cls-2" points="408.1 342.49 389.55 336.46 389.75 335.82 408.31 341.86 408.1 342.49"/><polygon class="cls-2" points="407.2 345.18 388.75 338.83 388.97 338.2 407.41 344.55 407.2 345.18"/><polygon class="cls-2" points="406.24 347.86 387.91 341.19 388.14 340.56 406.47 347.23 406.24 347.86"/><polygon class="cls-2" points="405.24 350.51 387.03 343.52 387.27 342.9 405.48 349.9 405.24 350.51"/><rect class="cls-2" x="394.94" y="339.44" width="0.67" height="19.51" transform="translate(-76.57 584.88) rotate(-68)"/><rect class="cls-2" x="393.92" y="341.91" width="0.67" height="19.51" transform="translate(-83.5 577.18) rotate(-67)"/><rect class="cls-2" x="392.86" y="344.36" width="0.67" height="19.51" transform="translate(-90.25 569.23) rotate(-65.99)"/><rect class="cls-2" x="391.75" y="346.79" width="0.66" height="19.51" transform="translate(-96.77 561.19) rotate(-65)"/><rect class="cls-2" x="390.6" y="349.2" width="0.66" height="19.51" transform="translate(-103.07 552.96) rotate(-64)"/><rect class="cls-2" x="389.41" y="351.59" width="0.66" height="19.51" transform="translate(-109.16 544.57) rotate(-63)"/><rect class="cls-2" x="388.17" y="353.96" width="0.66" height="19.51" transform="translate(-115.02 536.02) rotate(-62)"/><rect class="cls-2" x="386.9" y="356.31" width="0.67" height="19.51" transform="translate(-120.68 527.25) rotate(-61)"/><rect class="cls-2" x="385.58" y="358.63" width="0.67" height="19.51" transform="translate(-126.06 518.45) rotate(-60.01)"/><rect class="cls-2" x="384.22" y="360.94" width="0.67" height="19.51" transform="translate(-131.26 509.37) rotate(-59)"/><rect class="cls-2" x="382.83" y="363.21" width="0.67" height="19.51" transform="matrix(0.53, -0.85, 0.85, 0.53, -136.18, 500.27)"/><rect class="cls-2" x="381.39" y="365.47" width="0.66" height="19.51" transform="translate(-140.86 491) rotate(-57)"/><rect class="cls-2" x="379.92" y="367.69" width="0.66" height="19.51" transform="translate(-145.3 481.64) rotate(-56)"/><rect class="cls-2" x="378.41" y="369.9" width="0.67" height="19.51" transform="translate(-149.48 472.16) rotate(-55)"/><polygon class="cls-2" points="384.88 387.83 369.1 376.36 369.49 375.82 385.27 387.29 384.88 387.83"/><rect class="cls-2" x="375.27" y="374.22" width="0.66" height="19.51" transform="translate(-157.1 452.86) rotate(-53)"/><rect class="cls-2" x="373.64" y="376.34" width="0.67" height="19.51" transform="translate(-160.51 443.08) rotate(-52)"/><polygon class="cls-2" points="379.68 394.58 364.52 382.3 364.94 381.79 380.1 394.06 379.68 394.58"/><polygon class="cls-2" points="377.87 396.77 362.92 384.23 363.35 383.72 378.3 396.26 377.87 396.77"/><polygon class="cls-2" points="376.02 398.93 361.3 386.13 361.73 385.62 376.46 398.43 376.02 398.93"/><rect class="cls-2" x="366.77" y="384.52" width="0.66" height="19.51" transform="translate(-171.54 403.25) rotate(-48)"/><polygon class="cls-2" points="250.52 148.58 250.18 129.07 250.85 129.06 251.19 148.57 250.52 148.58"/><polygon class="cls-2" points="248.02 148.65 247.34 129.15 248.01 129.13 248.69 148.63 248.02 148.65"/><polygon class="cls-2" points="245.52 148.76 244.5 129.28 245.17 129.24 246.19 148.73 245.52 148.76"/><rect class="cls-2" x="242.35" y="129.41" width="0.66" height="19.51" transform="translate(-9.12 17.27) rotate(-4)"/><polygon class="cls-2" points="240.54 149.12 238.84 129.69 239.5 129.63 241.2 149.07 240.54 149.12"/><polygon class="cls-2" points="238.05 149.37 236.01 129.97 236.67 129.9 238.71 149.3 238.05 149.37"/><polygon class="cls-2" points="235.56 149.66 233.19 130.29 233.84 130.21 236.22 149.58 235.56 149.66"/><polygon class="cls-2" points="233.08 149.99 230.37 130.67 231.03 130.58 233.74 149.9 233.08 149.99"/><rect class="cls-2" x="229.08" y="130.92" width="0.67" height="19.51" transform="translate(-19.18 37.61) rotate(-9)"/><polygon class="cls-2" points="228.14 150.78 224.76 131.57 225.41 131.46 228.8 150.67 228.14 150.78"/><polygon class="cls-2" points="225.69 151.24 221.96 132.09 222.62 131.97 226.34 151.12 225.69 151.24"/><polygon class="cls-2" points="223.24 151.75 219.18 132.67 219.83 132.53 223.89 151.61 223.24 151.75"/><polygon class="cls-2" points="220.8 152.3 216.41 133.29 217.06 133.14 221.44 152.15 220.8 152.3"/><rect class="cls-2" x="216" y="133.59" width="0.66" height="19.51" transform="translate(-28.25 56.59) rotate(-14)"/><rect class="cls-2" x="213.41" y="134.26" width="0.66" height="19.51" transform="translate(-29.99 60.23) rotate(-15)"/><polygon class="cls-2" points="213.54 154.19 208.16 135.44 208.8 135.26 214.18 154.01 213.54 154.19"/><polygon class="cls-2" points="211.14 154.91 205.44 136.25 206.07 136.06 211.78 154.72 211.14 154.91"/><polygon class="cls-2" points="208.76 155.67 202.73 137.11 203.36 136.91 209.39 155.46 208.76 155.67"/><polygon class="cls-2" points="206.39 156.47 200.03 138.02 200.66 137.8 207.01 156.25 206.39 156.47"/><polygon class="cls-2" points="204.03 157.31 197.36 138.97 197.98 138.75 204.66 157.08 204.03 157.31"/><rect class="cls-2" x="198.17" y="139.21" width="0.67" height="19.51" transform="translate(-40.2 81.03) rotate(-21)"/><rect class="cls-2" x="195.69" y="140.19" width="0.66" height="19.51" transform="translate(-41.9 84.35) rotate(-22)"/><rect class="cls-2" x="193.22" y="141.21" width="0.67" height="19.51" transform="translate(-43.6 87.63) rotate(-23)"/><rect class="cls-2" x="190.77" y="142.27" width="0.67" height="19.51" transform="translate(-45.31 90.87) rotate(-24)"/><rect class="cls-2" x="188.34" y="143.38" width="0.66" height="19.51" transform="translate(-47.04 94.08) rotate(-25)"/><rect class="cls-2" x="185.93" y="144.53" width="0.66" height="19.51" transform="translate(-48.79 97.27) rotate(-26)"/><rect class="cls-2" x="183.54" y="145.72" width="0.66" height="19.51" transform="translate(-50.55 100.43) rotate(-27)"/><rect class="cls-2" x="181.17" y="146.96" width="0.66" height="19.51" transform="translate(-52.33 103.56) rotate(-28)"/><rect class="cls-2" x="178.82" y="148.23" width="0.67" height="19.51" transform="translate(-54.13 106.66) rotate(-29)"/><rect class="cls-2" x="176.49" y="149.55" width="0.67" height="19.51" transform="translate(-55.96 109.74) rotate(-30)"/><polygon class="cls-2" points="179.26 169.19 169.22 152.47 169.78 152.13 179.83 168.85 179.26 169.19"/><polygon class="cls-2" points="177.13 170.5 166.8 153.96 167.36 153.6 177.7 170.15 177.13 170.5"/><polygon class="cls-2" points="175.03 171.85 164.4 155.49 164.96 155.13 175.59 171.49 175.03 171.85"/><polygon class="cls-2" points="172.94 173.24 162.03 157.06 162.59 156.69 173.5 172.86 172.94 173.24"/><polygon class="cls-2" points="170.89 174.66 159.7 158.68 160.24 158.29 171.43 174.28 170.89 174.66"/><polygon class="cls-2" points="168.85 176.11 157.39 160.33 157.93 159.94 169.39 175.72 168.85 176.11"/><rect class="cls-2" x="160.91" y="159.86" width="0.66" height="19.51" transform="translate(-69.61 131.2) rotate(-37)"/><rect class="cls-2" x="158.79" y="161.49" width="0.67" height="19.51" transform="translate(-71.7 134.27) rotate(-38)"/><polygon class="cls-2" points="162.91 180.7 150.63 165.53 151.15 165.11 163.43 180.28 162.91 180.7"/><polygon class="cls-2" points="160.99 182.29 148.45 167.34 148.96 166.92 161.5 181.87 160.99 182.29"/><rect class="cls-2" x="152.61" y="166.59" width="0.66" height="19.51" transform="translate(-78.18 143.61) rotate(-41)"/><polygon class="cls-2" points="157.22 185.58 144.16 171.08 144.66 170.64 157.71 185.14 157.22 185.58"/></svg>