<svg id="图层_1" data-name="图层 1" xmlns="http://www.w3.org/2000/svg" viewBox="0 0 512 512"><defs><style>.cls-1{fill:#191e2d;}.cls-2,.cls-4{fill:#fff;}.cls-3{fill:#ffda00;}.cls-4{opacity:0.09;}</style></defs><title>大屏 小配件nnn</title><rect class="cls-1" width="512" height="512" transform="translate(512 512) rotate(180)"/><rect class="cls-2" x="37.3" y="108.55" width="437.81" height="1.59"/><rect class="cls-2" x="37.3" y="113.73" width="437.81" height="0.8"/><rect class="cls-2" x="37.3" y="121.89" width="437.81" height="0.4"/><polygon class="cls-2" points="207.84 189.15 72.32 189.15 72.32 188.75 207.44 188.75 207.44 144.57 45.26 144.57 45.26 144.18 207.84 144.18 207.84 189.15"/><rect class="cls-3" x="36.5" y="144.37" width="1.59" height="44.58"/><polygon class="cls-2" points="207.84 381.78 78.69 381.78 78.69 381.39 207.44 381.39 207.44 349.94 45.26 349.94 45.26 349.55 207.84 349.55 207.84 381.78"/><rect class="cls-3" x="36.5" y="349.74" width="1.59" height="31.84"/><polygon class="cls-2" points="223.76 330.84 45.26 330.84 45.26 330.44 223.36 330.44 223.36 211.44 53.22 211.44 53.22 211.04 223.76 211.04 223.76 330.84"/><rect class="cls-3" x="36.5" y="211.24" width="1.59" height="119.4"/><path class="cls-2" d="M283.26,382a34.66,34.66,0,0,1-34.62-34.62h.79a33.87,33.87,0,0,0,33.83,33.83Z"/><path class="cls-2" d="M440.87,382v-.79a33.87,33.87,0,0,0,33.83-33.83h.8A34.66,34.66,0,0,1,440.87,382Z"/><path class="cls-2" d="M475.5,178.6h-.8a33.87,33.87,0,0,0-33.83-33.83V144A34.66,34.66,0,0,1,475.5,178.6Z"/><path class="cls-2" d="M249.43,178.6h-.79A34.66,34.66,0,0,1,283.26,144v.79A33.87,33.87,0,0,0,249.43,178.6Z"/><path class="cls-2" d="M258,334.62h-.4V301.19h.4Zm0-41.39h-.4v-6.37h.4Zm0-8h-.4v-3.19h.4Zm0-8h-.4V208.85h.4Zm0-76.42h-.4v-6.37h.4Zm0-8h-.4v-3.18h.4Z"/><path class="cls-2" d="M466.54,334.62h-.39V301.19h.39Zm0-41.39h-.39v-6.37h.39Zm0-8h-.39v-3.19h.39Zm0-8h-.39V208.85h.39Zm0-76.42h-.39v-6.37h.39Zm0-8h-.39v-3.18h.39Z"/><circle class="cls-2" cx="362.07" cy="153.93" r="2.39"/><path class="cls-2" d="M379.58,156.51a2.57,2.57,0,0,1-2.48-1.86l.38-.11a2.2,2.2,0,0,0,2.1,1.58h.1l0,.4Zm2.18-2.79a2.18,2.18,0,0,0-2.18-2h-.1a2.21,2.21,0,0,0-1.93,1.37l-.37-.15a2.6,2.6,0,0,1,2.28-1.62h.12a2.58,2.58,0,0,1,2.58,2.34Z"/><path class="cls-2" d="M345.17,156.44l-.1-.39a2.17,2.17,0,0,0,1.68-2.12h.39A2.58,2.58,0,0,1,345.17,156.44Zm-1.69-.16a2.59,2.59,0,0,1,.95-4.94l0,.4a2.17,2.17,0,0,0-2.08,2.19,2.2,2.2,0,0,0,1.28,2Z"/><path class="cls-2" d="M386.74,366.66H334.21v-.4h52.53Zm-60.49,0h-6.37v-.4h6.37Zm-8,0H315.1v-.4h3.19Z"/><path class="cls-2" d="M394.7,371.44H342.17V371H394.7Zm-60.49,0h-6.37V371h6.37Zm-8,0h-3.19V371h3.19Z"/><path class="cls-2" d="M389.93,376.21H337.39v-.4h52.54Zm-60.5,0h-6.37v-.4h6.37Zm-8,0h-3.18v-.4h3.18Z"/><rect class="cls-4" x="266.55" y="161.89" width="191.04" height="197.41" rx="10" ry="10"/><rect class="cls-2" x="36.5" y="404.27" width="437.81" height="0.8"/><rect class="cls-2" x="297.99" y="177.81" width="0.8" height="171.94"/><rect class="cls-2" x="282.47" y="293.63" width="157.61" height="0.8"/><path class="cls-2" d="M298.39,302.38a8.36,8.36,0,1,1,8.36-8.36A8.37,8.37,0,0,1,298.39,302.38Zm0-15.92A7.57,7.57,0,1,0,306,294,7.57,7.57,0,0,0,298.39,286.46Z"/><rect class="cls-2" x="35.89" y="422.18" width="25.89" height="0.8" transform="translate(-284.5 158.3) rotate(-45)"/><rect class="cls-2" x="43.85" y="422.18" width="25.89" height="0.8" transform="translate(-282.17 163.93) rotate(-45)"/><rect class="cls-2" x="51.81" y="422.18" width="25.89" height="0.8" transform="translate(-279.84 169.56) rotate(-45)"/><rect class="cls-2" x="59.77" y="422.18" width="25.89" height="0.8" transform="translate(-277.51 175.19) rotate(-45)"/><rect class="cls-2" x="67.73" y="422.18" width="25.89" height="0.8" transform="translate(-275.18 180.82) rotate(-45)"/><rect class="cls-2" x="75.69" y="422.18" width="25.89" height="0.8" transform="translate(-272.85 186.45) rotate(-45)"/><rect class="cls-2" x="83.65" y="422.18" width="25.89" height="0.8" transform="translate(-270.52 192.08) rotate(-45)"/><rect class="cls-2" x="91.61" y="422.18" width="25.89" height="0.8" transform="translate(-268.18 197.7) rotate(-45)"/><rect class="cls-2" x="99.57" y="422.18" width="25.89" height="0.8" transform="translate(-265.85 203.33) rotate(-45)"/><rect class="cls-2" x="107.53" y="422.18" width="25.89" height="0.8" transform="translate(-263.52 208.96) rotate(-45)"/><rect class="cls-2" x="115.49" y="422.18" width="25.89" height="0.8" transform="translate(-261.19 214.59) rotate(-45)"/><rect class="cls-2" x="123.45" y="422.18" width="25.89" height="0.8" transform="translate(-258.86 220.22) rotate(-45)"/><rect class="cls-2" x="201.46" y="422.18" width="25.89" height="0.8" transform="translate(-236.01 275.38) rotate(-45)"/><rect class="cls-2" x="209.42" y="422.18" width="25.89" height="0.8" transform="translate(-233.68 281.01) rotate(-45)"/><rect class="cls-2" x="217.38" y="422.18" width="25.89" height="0.8" transform="translate(-231.35 286.64) rotate(-45)"/><rect class="cls-2" x="225.34" y="422.18" width="25.89" height="0.8" transform="translate(-229.02 292.27) rotate(-45)"/><rect class="cls-2" x="233.3" y="422.18" width="25.89" height="0.8" transform="translate(-226.68 297.89) rotate(-45)"/><rect class="cls-2" x="241.26" y="422.18" width="25.89" height="0.8" transform="translate(-224.35 303.52) rotate(-45)"/><rect class="cls-2" x="249.22" y="422.18" width="25.89" height="0.8" transform="translate(-222.02 309.15) rotate(-45)"/><rect class="cls-2" x="257.18" y="422.18" width="25.89" height="0.8" transform="translate(-219.69 314.78) rotate(-45)"/><rect class="cls-2" x="265.14" y="422.18" width="25.89" height="0.8" transform="translate(-217.36 320.41) rotate(-45)"/><rect class="cls-2" x="273.1" y="422.18" width="25.89" height="0.8" transform="translate(-215.03 326.04) rotate(-45)"/><rect class="cls-2" x="281.06" y="422.18" width="25.89" height="0.8" transform="translate(-212.7 331.67) rotate(-45)"/><rect class="cls-2" x="289.02" y="422.18" width="25.89" height="0.8" transform="translate(-210.36 337.3) rotate(-45)"/><rect class="cls-2" x="360.66" y="422.18" width="25.89" height="0.8" transform="translate(-189.38 387.95) rotate(-45)"/><rect class="cls-2" x="368.62" y="422.18" width="25.89" height="0.8" transform="translate(-187.05 393.58) rotate(-45)"/><rect class="cls-2" x="376.58" y="422.18" width="25.89" height="0.8" transform="translate(-184.72 399.21) rotate(-45)"/><rect class="cls-2" x="384.55" y="422.18" width="25.89" height="0.8" transform="translate(-182.39 404.84) rotate(-45)"/><rect class="cls-2" x="392.51" y="422.18" width="25.89" height="0.8" transform="translate(-180.05 410.47) rotate(-45)"/><rect class="cls-2" x="400.47" y="422.18" width="25.89" height="0.8" transform="translate(-177.72 416.1) rotate(-45)"/><rect class="cls-2" x="408.43" y="422.18" width="25.89" height="0.8" transform="translate(-175.39 421.73) rotate(-45)"/><rect class="cls-2" x="416.39" y="422.18" width="25.89" height="0.8" transform="translate(-173.06 427.35) rotate(-45)"/><rect class="cls-2" x="424.35" y="422.18" width="25.89" height="0.8" transform="translate(-170.73 432.98) rotate(-45)"/><rect class="cls-2" x="432.31" y="422.18" width="25.89" height="0.8" transform="translate(-168.4 438.61) rotate(-45)"/><rect class="cls-2" x="440.27" y="422.18" width="25.89" height="0.8" transform="translate(-166.07 444.24) rotate(-45)"/><rect class="cls-2" x="448.23" y="422.18" width="25.89" height="0.8" transform="translate(-163.73 449.87) rotate(-45)"/></svg>