<svg id="图层_1" data-name="图层 1" xmlns="http://www.w3.org/2000/svg" viewBox="0 0 512 512"><defs><style>.cls-1{fill:#191e2d;}.cls-2{fill:#fff;}</style></defs><title>大屏 小配件nnn</title><rect class="cls-1" width="512" height="512" transform="translate(512 512) rotate(180)"/><path class="cls-2" d="M282,434.09c82.83,0,150.22-67.38,150.22-150.21H418.87c0,75.49-61.42,136.91-136.91,136.91Z"/><path class="cls-2" d="M201.72,320.8l12.37-4.91a65.19,65.19,0,0,0,90.3,33.93l6.08,11.83A78.5,78.5,0,0,1,201.72,320.8Zm110.9,24a65.23,65.23,0,0,0,13.8-13.41L337,339.45a78.94,78.94,0,0,1-16.61,16.14Zm23.1-30.24a65.19,65.19,0,0,0-61.08-87.81c-2.08,0-4.19.1-6.27.29l-1.26-13.24c2.5-.24,5-.36,7.53-.36a78.48,78.48,0,0,1,73.55,105.75ZM196.21,291.86a78.29,78.29,0,0,1,20.17-52.52l9.88,8.91a65,65,0,0,0-16.75,43.61,65.79,65.79,0,0,0,1.19,12.47l-13.06,2.53A79.17,79.17,0,0,1,196.21,291.86Zm38-67.25a77.93,77.93,0,0,1,21.41-8.87l3.21,12.91A64.52,64.52,0,0,0,241.11,236Z"/><path class="cls-2" d="M371.7,205.44a129.31,129.31,0,0,0-92.16-39.19,130,130,0,0,0-50.34,9.83A130.11,130.11,0,0,0,158,247.27a130,130,0,0,0-9.83,50.34,129.26,129.26,0,0,0,39.2,92.16A130.86,130.86,0,0,1,160.25,248.2a130.49,130.49,0,0,1,69.88-69.89A130.86,130.86,0,0,1,371.7,205.44Z"/><rect class="cls-2" x="273.98" y="77.91" width="1.33" height="211.59"/><circle class="cls-2" cx="274.64" cy="291.86" r="5.26"/><rect class="cls-2" x="274.31" y="129.04" width="0.67" height="19.51"/><polygon class="cls-2" points="271.81 148.58 272.48 148.57 272.13 129.06 271.47 129.07 271.81 148.58"/><polygon class="cls-2" points="269.31 148.65 269.97 148.63 269.29 129.13 268.63 129.15 269.31 148.65"/><polygon class="cls-2" points="266.81 148.76 267.48 148.73 266.45 129.24 265.79 129.28 266.81 148.76"/><rect class="cls-2" x="263.63" y="129.41" width="0.66" height="19.51" transform="matrix(1, -0.07, 0.07, 1, -9.14, 18.93)"/><polygon class="cls-2" points="261.82 149.12 262.48 149.07 260.78 129.63 260.12 129.69 261.82 149.12"/><polygon class="cls-2" points="259.33 149.37 259.99 149.3 257.95 129.9 257.29 129.97 259.33 149.37"/><polygon class="cls-2" points="256.85 149.66 257.51 149.58 255.13 130.21 254.47 130.29 256.85 149.66"/><polygon class="cls-2" points="254.37 149.99 255.03 149.9 252.31 130.58 251.65 130.67 254.37 149.99"/><rect class="cls-2" x="250.37" y="130.92" width="0.67" height="19.51" transform="translate(-18.89 40.88) rotate(-8.98)"/><polygon class="cls-2" points="249.43 150.78 250.09 150.67 246.7 131.46 246.04 131.57 249.43 150.78"/><polygon class="cls-2" points="246.97 151.24 247.63 151.12 243.9 131.97 243.25 132.09 246.97 151.24"/><polygon class="cls-2" points="244.52 151.75 245.17 151.61 241.12 132.53 240.47 132.67 244.52 151.75"/><polygon class="cls-2" points="242.08 152.3 242.73 152.15 238.34 133.14 237.69 133.29 242.08 152.3"/><rect class="cls-2" x="237.28" y="133.59" width="0.66" height="19.51" transform="translate(-27.67 61.91) rotate(-14.04)"/><rect class="cls-2" x="234.7" y="134.26" width="0.66" height="19.51" transform="translate(-29.21 65.55) rotate(-14.96)"/><polygon class="cls-2" points="234.82 154.19 235.46 154.01 230.08 135.26 229.44 135.44 234.82 154.19"/><polygon class="cls-2" points="232.43 154.91 233.06 154.72 227.36 136.06 226.72 136.25 232.43 154.91"/><polygon class="cls-2" points="230.04 155.67 230.67 155.46 224.65 136.91 224.01 137.11 230.04 155.67"/><polygon class="cls-2" points="227.67 156.47 228.3 156.25 221.95 137.8 221.32 138.02 227.67 156.47"/><rect class="cls-2" x="221.96" y="138.27" width="0.67" height="19.51" transform="translate(-37.29 85.22) rotate(-20.06)"/><rect class="cls-2" x="219.46" y="139.21" width="0.67" height="19.51" transform="translate(-38.84 88.9) rotate(-21.05)"/><rect class="cls-2" x="216.97" y="140.19" width="0.66" height="19.51" transform="translate(-40.4 92.55) rotate(-22.05)"/><rect class="cls-2" x="214.5" y="141.21" width="0.67" height="19.51" transform="translate(-41.87 95.78) rotate(-22.96)"/><rect class="cls-2" x="212.05" y="142.27" width="0.67" height="19.51" transform="translate(-43.44 99.36) rotate(-23.96)"/><rect class="cls-2" x="209.62" y="143.38" width="0.66" height="19.51" transform="translate(-45.01 102.91) rotate(-24.96)"/><rect class="cls-2" x="207.21" y="144.53" width="0.66" height="19.51" transform="translate(-46.6 106.44) rotate(-25.96)"/><rect class="cls-2" x="204.82" y="145.72" width="0.66" height="19.51" transform="translate(-48.2 109.93) rotate(-26.97)"/><rect class="cls-2" x="202.45" y="146.96" width="0.66" height="19.51" transform="translate(-49.81 113.4) rotate(-27.97)"/><rect class="cls-2" x="200.1" y="148.23" width="0.67" height="19.51" transform="translate(-51.44 116.84) rotate(-28.97)"/><rect class="cls-2" x="197.78" y="149.55" width="0.67" height="19.51" transform="translate(-53.09 120.25) rotate(-29.97)"/><polygon class="cls-2" points="200.55 169.19 201.12 168.85 191.07 152.13 190.5 152.47 200.55 169.19"/><polygon class="cls-2" points="198.42 170.5 198.98 170.15 188.64 153.6 188.08 153.96 198.42 170.5"/><polygon class="cls-2" points="196.31 171.85 196.87 171.49 186.24 155.13 185.69 155.49 196.31 171.85"/><polygon class="cls-2" points="194.23 173.24 194.78 172.86 183.87 156.69 183.32 157.06 194.23 173.24"/><polygon class="cls-2" points="192.17 174.66 192.72 174.28 181.53 158.29 180.98 158.68 192.17 174.66"/><polygon class="cls-2" points="190.14 176.11 190.68 175.72 179.21 159.94 178.67 160.33 190.14 176.11"/><rect class="cls-2" x="182.2" y="159.86" width="0.66" height="19.51" transform="translate(-65.35 144.22) rotate(-37.05)"/><rect class="cls-2" x="180.07" y="161.49" width="0.67" height="19.51" transform="matrix(0.79, -0.62, 0.62, 0.79, -67.2, 147.51)"/><polygon class="cls-2" points="184.2 180.7 184.71 180.28 172.44 165.11 171.92 165.53 184.2 180.7"/><polygon class="cls-2" points="182.27 182.29 182.78 181.87 170.24 166.92 169.73 167.34 182.27 182.29"/><rect class="cls-2" x="173.89" y="166.59" width="0.66" height="19.51" transform="translate(-72.97 157.72) rotate(-41.04)"/><polygon class="cls-2" points="178.5 185.58 179 185.14 165.94 170.64 165.45 171.08 178.5 185.58"/><polygon class="cls-2" points="176.66 187.27 177.15 186.82 163.84 172.55 163.36 173.01 176.66 187.27"/><rect class="cls-2" x="167.98" y="172" width="0.67" height="19.51" transform="translate(-79.03 168.15) rotate(-44.05)"/><polygon class="cls-2" points="173.07 190.76 173.54 190.29 159.75 176.49 159.28 176.97 173.07 190.76"/><rect class="cls-2" x="164.21" y="175.78" width="0.67" height="19.51" transform="translate(-83.21 174.79) rotate(-45.95)"/><rect class="cls-2" x="162.37" y="177.71" width="0.67" height="19.51" transform="translate(-85.38 178.83) rotate(-47.05)"/><rect class="cls-2" x="160.56" y="179.68" width="0.66" height="19.51" transform="translate(-87.55 182.3) rotate(-48.01)"/><polygon class="cls-2" points="166.27 198.09 166.71 197.59 151.98 184.79 151.54 185.29 166.27 198.09"/><polygon class="cls-2" points="164.65 200 165.08 199.49 150.13 186.95 149.7 187.46 164.65 200"/><polygon class="cls-2" points="163.06 201.93 163.48 201.41 148.32 189.14 147.9 189.65 163.06 201.93"/><rect class="cls-2" x="153.69" y="187.87" width="0.67" height="19.51" transform="translate(-96.53 197.19) rotate(-51.97)"/><rect class="cls-2" x="152.07" y="189.99" width="0.66" height="19.51" transform="translate(-98.84 201.03) rotate(-52.95)"/><polygon class="cls-2" points="158.51 207.89 158.9 207.35 143.12 195.89 142.73 196.43 158.51 207.89"/><rect class="cls-2" x="148.93" y="194.31" width="0.67" height="19.51" transform="translate(-103.51 209.32) rotate(-55.01)"/><rect class="cls-2" x="147.42" y="196.51" width="0.66" height="19.51" transform="translate(-105.87 213.41) rotate(-56)"/><rect class="cls-2" x="145.94" y="198.74" width="0.66" height="19.51" transform="translate(-108.25 217.59) rotate(-56.99)"/><rect class="cls-2" x="144.5" y="200.99" width="0.67" height="19.51" transform="translate(-110.63 222.08) rotate(-58.04)"/><rect class="cls-2" x="143.11" y="203.27" width="0.67" height="19.51" transform="translate(-113.03 226.43) rotate(-59.04)"/><rect class="cls-2" x="141.75" y="205.57" width="0.67" height="19.51" transform="translate(-115.43 230.86) rotate(-60.03)"/><rect class="cls-2" x="140.44" y="207.9" width="0.67" height="19.51" transform="translate(-117.83 235.4) rotate(-61.03)"/><rect class="cls-2" x="139.16" y="210.24" width="0.66" height="19.51" transform="translate(-120.23 240.03) rotate(-62.03)"/><rect class="cls-2" x="137.93" y="212.61" width="0.66" height="19.51" transform="translate(-122.63 244.76) rotate(-63.03)"/><rect class="cls-2" x="136.74" y="215" width="0.66" height="19.51" transform="translate(-125.01 249.59) rotate(-64.04)"/><rect class="cls-2" x="135.59" y="217.42" width="0.66" height="19.51" transform="translate(-127.39 254.52) rotate(-65.04)"/><rect class="cls-2" x="134.48" y="219.85" width="0.67" height="19.51" transform="translate(-129.75 259.54) rotate(-66.04)"/><rect class="cls-2" x="133.41" y="222.3" width="0.67" height="19.51" transform="translate(-132.1 264.67) rotate(-67.04)"/><rect class="cls-2" x="132.39" y="224.76" width="0.67" height="19.51" transform="translate(-134.42 269.88) rotate(-68.03)"/><polygon class="cls-2" points="140.73 240.81 140.97 240.19 122.76 233.2 122.52 233.82 140.73 240.81"/><polygon class="cls-2" points="139.86 243.16 140.09 242.53 121.76 235.86 121.53 236.48 139.86 243.16"/><polygon class="cls-2" points="139.03 245.51 139.25 244.89 120.8 238.54 120.59 239.16 139.03 245.51"/><rect class="cls-2" x="128.74" y="234.8" width="0.67" height="19.51" transform="translate(-143.35 292.02) rotate(-72.06)"/><polygon class="cls-2" points="137.5 250.28 137.69 249.64 119.04 243.94 118.84 244.57 137.5 250.28"/><polygon class="cls-2" points="136.79 252.68 136.98 252.04 118.22 246.66 118.04 247.3 136.79 252.68"/><polygon class="cls-2" points="136.13 255.09 136.3 254.44 117.46 249.4 117.29 250.04 136.13 255.09"/><rect class="cls-2" x="125.79" y="245.07" width="0.66" height="19.51" transform="translate(-151.68 315.38) rotate(-75.96)"/><polygon class="cls-2" points="134.93 259.94 135.08 259.29 116.07 254.91 115.92 255.56 134.93 259.94"/><rect class="cls-2" x="124.59" y="250.28" width="0.66" height="19.51" transform="translate(-155.36 328.31) rotate(-78.03)"/><rect class="cls-2" x="124.06" y="252.9" width="0.67" height="19.51" transform="translate(-157.17 334.63) rotate(-79)"/><polygon class="cls-2" points="133.46 267.3 133.57 266.64 114.36 263.26 114.24 263.91 133.46 267.3"/><rect class="cls-2" x="123.13" y="258.16" width="0.66" height="19.51" transform="translate(-160.49 347.85) rotate(-80.98)"/><polygon class="cls-2" points="132.68 272.24 132.78 271.58 113.46 268.87 113.36 269.53 132.68 272.24"/><rect class="cls-2" x="122.39" y="263.45" width="0.66" height="19.51" transform="translate(-163.34 361.92) rotate(-83.04)"/><polygon class="cls-2" points="132.08 277.21 132.15 276.55 112.75 274.51 112.68 275.17 132.08 277.21"/><polygon class="cls-2" points="131.85 279.7 131.91 279.03 112.47 277.33 112.42 278 131.85 279.7"/><rect class="cls-2" x="121.62" y="271.43" width="0.67" height="19.51" transform="translate(-167.09 383.11) rotate(-85.98)"/><polygon class="cls-2" points="131.51 284.69 131.55 284.02 112.06 283 112.03 283.67 131.51 284.69"/><rect class="cls-2" x="121.34" y="276.76" width="0.67" height="19.51" transform="matrix(0.04, -1, 1, 0.04, -168.94, 398.05)"/><polygon class="cls-2" points="131.35 289.69 131.36 289.02 111.86 288.68 111.84 289.35 131.35 289.69"/><rect class="cls-2" x="111.82" y="291.53" width="19.51" height="0.67"/><polygon class="cls-2" points="111.86 295.03 131.36 294.69 131.35 294.02 111.84 294.37 111.86 295.03"/><rect class="cls-2" x="111.92" y="296.87" width="19.51" height="0.67" transform="translate(-10.29 4.43) rotate(-2)"/><polygon class="cls-2" points="112.06 300.71 131.55 299.69 131.51 299.03 112.03 300.05 112.06 300.71"/><rect class="cls-2" x="112.2" y="302.2" width="19.51" height="0.67" transform="translate(-20.77 9.23) rotate(-3.99)"/><polygon class="cls-2" points="112.47 306.38 131.91 304.68 131.85 304.01 112.42 305.72 112.47 306.38"/><polygon class="cls-2" points="112.75 309.21 132.15 307.17 132.08 306.51 112.68 308.55 112.75 309.21"/><rect class="cls-2" x="112.97" y="310.18" width="19.51" height="0.66" transform="translate(-36.92 17.27) rotate(-7)"/><polygon class="cls-2" points="113.46 314.85 132.78 312.13 132.68 311.47 113.36 314.19 113.46 314.85"/><rect class="cls-2" x="113.71" y="315.47" width="19.51" height="0.66" transform="matrix(0.99, -0.16, 0.16, 0.99, -47.85, 23.19)"/><polygon class="cls-2" points="114.36 320.46 133.57 317.07 133.46 316.42 114.24 319.8 114.36 320.46"/><rect class="cls-2" x="114.64" y="320.73" width="19.51" height="0.67" transform="translate(-58.98 29.64) rotate(-11)"/><rect class="cls-2" x="115.17" y="323.35" width="19.51" height="0.66" transform="translate(-64.56 33.04) rotate(-12)"/><polygon class="cls-2" points="116.07 328.81 135.08 324.42 134.93 323.77 115.92 328.16 116.07 328.81"/><rect class="cls-2" x="116.37" y="328.55" width="19.51" height="0.66" transform="translate(-75.83 40.29) rotate(-14)"/><polygon class="cls-2" points="117.46 334.32 136.3 329.27 136.13 328.63 117.29 333.68 117.46 334.32"/><polygon class="cls-2" points="118.22 337.06 136.98 331.68 136.79 331.04 118.04 336.42 118.22 337.06"/><polygon class="cls-2" points="119.04 339.78 137.69 334.07 137.5 333.44 118.84 339.14 119.04 339.78"/><polygon class="cls-2" points="119.9 342.49 138.45 336.46 138.25 335.82 119.69 341.86 119.9 342.49"/><polygon class="cls-2" points="120.8 345.18 139.25 338.83 139.03 338.2 120.59 344.55 120.8 345.18"/><polygon class="cls-2" points="121.76 347.86 140.09 341.19 139.86 340.56 121.53 347.23 121.76 347.86"/><polygon class="cls-2" points="122.76 350.51 140.97 343.52 140.73 342.9 122.52 349.9 122.76 350.51"/><rect class="cls-2" x="122.97" y="348.86" width="19.51" height="0.67" transform="translate(-121.15 75.15) rotate(-22)"/><rect class="cls-2" x="123.99" y="351.33" width="19.51" height="0.67" transform="translate(-126.77 80.21) rotate(-23)"/><rect class="cls-2" x="125.06" y="353.78" width="19.51" height="0.67" transform="translate(-132.4 85.47) rotate(-24.01)"/><rect class="cls-2" x="126.17" y="356.21" width="19.51" height="0.66" transform="translate(-137.96 90.86) rotate(-25)"/><rect class="cls-2" x="127.32" y="358.62" width="19.51" height="0.66" transform="translate(-143.48 96.42) rotate(-26)"/><rect class="cls-2" x="128.51" y="361.01" width="19.51" height="0.66" transform="translate(-148.97 102.15) rotate(-27)"/><rect class="cls-2" x="129.74" y="363.38" width="19.51" height="0.66" transform="translate(-154.41 108.05) rotate(-28)"/><rect class="cls-2" x="131.02" y="365.73" width="19.51" height="0.67" transform="matrix(0.87, -0.48, 0.48, 0.87, -159.83, 114.15)"/><rect class="cls-2" x="132.33" y="368.06" width="19.51" height="0.67" transform="translate(-165.14 120.37) rotate(-29.99)"/><rect class="cls-2" x="133.69" y="370.36" width="19.51" height="0.67" transform="translate(-170.45 126.85) rotate(-31)"/><rect class="cls-2" x="135.08" y="372.63" width="19.51" height="0.67" transform="translate(-175.63 133.42) rotate(-32)"/><rect class="cls-2" x="136.52" y="374.89" width="19.51" height="0.66" transform="translate(-180.76 140.2) rotate(-33)"/><rect class="cls-2" x="137.99" y="377.12" width="19.51" height="0.66" transform="translate(-185.8 147.14) rotate(-34)"/><rect class="cls-2" x="139.51" y="379.32" width="19.51" height="0.67" transform="translate(-190.76 154.26) rotate(-35)"/><polygon class="cls-2" points="143.12 387.83 158.9 376.36 158.51 375.82 142.73 387.29 143.12 387.83"/><rect class="cls-2" x="142.65" y="383.64" width="19.51" height="0.66" transform="translate(-200.39 169.03) rotate(-37)"/><rect class="cls-2" x="144.27" y="385.76" width="19.51" height="0.67" transform="translate(-205.05 176.68) rotate(-38)"/><polygon class="cls-2" points="148.32 394.58 163.48 382.3 163.06 381.79 147.9 394.06 148.32 394.58"/><polygon class="cls-2" points="150.13 396.77 165.08 384.23 164.65 383.72 149.7 396.26 150.13 396.77"/><polygon class="cls-2" points="151.98 398.93 166.71 386.13 166.27 385.62 151.54 398.43 151.98 398.93"/><rect class="cls-2" x="151.14" y="393.94" width="19.51" height="0.66" transform="translate(-222.5 208.94) rotate(-42)"/><polygon class="cls-2" points="277.48 148.58 277.82 129.07 277.15 129.06 276.81 148.57 277.48 148.58"/><polygon class="cls-2" points="279.98 148.65 280.66 129.15 279.99 129.13 279.31 148.63 279.98 148.65"/><polygon class="cls-2" points="282.48 148.76 283.5 129.28 282.83 129.24 281.81 148.73 282.48 148.76"/><rect class="cls-2" x="275.56" y="138.84" width="19.51" height="0.66" transform="matrix(0.07, -1, 1, 0.07, 126.58, 414.08)"/><polygon class="cls-2" points="287.46 149.12 289.17 129.69 288.5 129.63 286.8 149.07 287.46 149.12"/><polygon class="cls-2" points="289.95 149.37 291.99 129.97 291.33 129.9 289.29 149.3 289.95 149.37"/><polygon class="cls-2" points="292.44 149.66 294.81 130.29 294.15 130.21 291.78 149.58 292.44 149.66"/><polygon class="cls-2" points="294.92 149.99 297.63 130.67 296.97 130.58 294.26 149.9 294.92 149.99"/><rect class="cls-2" x="288.83" y="140.35" width="19.51" height="0.67" transform="translate(112.94 413.59) rotate(-81)"/><polygon class="cls-2" points="299.86 150.78 303.24 131.57 302.59 131.46 299.2 150.67 299.86 150.78"/><polygon class="cls-2" points="302.31 151.24 306.04 132.09 305.38 131.97 301.66 151.12 302.31 151.24"/><polygon class="cls-2" points="304.76 151.75 308.82 132.67 308.17 132.53 304.11 151.61 304.76 151.75"/><polygon class="cls-2" points="307.2 152.3 311.59 133.29 310.94 133.14 306.56 152.15 307.2 152.3"/><rect class="cls-2" x="301.92" y="143.01" width="19.51" height="0.66" transform="translate(97.19 411.08) rotate(-76)"/><rect class="cls-2" x="304.5" y="143.68" width="19.51" height="0.66" transform="translate(93.82 410.29) rotate(-75)"/><polygon class="cls-2" points="314.46 154.19 319.84 135.44 319.2 135.26 313.82 154.01 314.46 154.19"/><polygon class="cls-2" points="316.86 154.91 322.56 136.25 321.93 136.06 316.22 154.72 316.86 154.91"/><polygon class="cls-2" points="319.24 155.67 325.27 137.11 324.64 136.91 318.61 155.46 319.24 155.67"/><polygon class="cls-2" points="321.61 156.47 327.96 138.02 327.34 137.8 320.99 156.25 321.61 156.47"/><polygon class="cls-2" points="323.97 157.31 330.64 138.97 330.02 138.75 323.34 157.08 323.97 157.31"/><rect class="cls-2" x="319.74" y="148.63" width="19.51" height="0.67" transform="translate(72.34 403.18) rotate(-69)"/><rect class="cls-2" x="322.23" y="149.61" width="19.51" height="0.66" transform="translate(68.59 401.57) rotate(-68)"/><rect class="cls-2" x="324.69" y="150.63" width="19.51" height="0.67" transform="translate(64.8 399.84) rotate(-67)"/><rect class="cls-2" x="327.14" y="151.69" width="19.51" height="0.67" transform="translate(60.99 397.97) rotate(-66)"/><rect class="cls-2" x="329.57" y="152.8" width="19.51" height="0.66" transform="translate(57.14 395.96) rotate(-65)"/><rect class="cls-2" x="331.99" y="153.95" width="19.51" height="0.66" transform="translate(53.25 393.8) rotate(-64)"/><rect class="cls-2" x="334.38" y="155.15" width="19.51" height="0.66" transform="translate(49.36 391.51) rotate(-63)"/><rect class="cls-2" x="336.75" y="156.38" width="19.51" height="0.66" transform="translate(45.45 389.07) rotate(-62)"/><rect class="cls-2" x="339.09" y="157.65" width="19.51" height="0.67" transform="translate(41.55 386.51) rotate(-61)"/><rect class="cls-2" x="341.42" y="158.97" width="19.51" height="0.67" transform="translate(37.64 383.8) rotate(-60)"/><polygon class="cls-2" points="348.74 169.19 358.78 152.47 358.21 152.13 348.17 168.85 348.74 169.19"/><polygon class="cls-2" points="350.87 170.5 361.2 153.96 360.64 153.6 350.3 170.15 350.87 170.5"/><polygon class="cls-2" points="352.97 171.85 363.6 155.49 363.04 155.13 352.42 171.49 352.97 171.85"/><polygon class="cls-2" points="355.06 173.24 365.96 157.06 365.42 156.69 354.5 172.86 355.06 173.24"/><polygon class="cls-2" points="357.11 174.66 368.3 158.68 367.76 158.29 356.57 174.28 357.11 174.66"/><polygon class="cls-2" points="359.15 176.11 370.61 160.33 370.07 159.94 358.61 175.72 359.15 176.11"/><rect class="cls-2" x="357" y="169.28" width="19.51" height="0.66" transform="translate(10.57 360.43) rotate(-53)"/><rect class="cls-2" x="359.12" y="170.91" width="19.51" height="0.67" transform="translate(6.83 356.49) rotate(-52)"/><polygon class="cls-2" points="365.09 180.7 377.37 165.53 376.85 165.11 364.57 180.28 365.09 180.7"/><polygon class="cls-2" points="367.01 182.29 379.55 167.34 379.05 166.92 366.5 181.87 367.01 182.29"/><rect class="cls-2" x="365.31" y="176.01" width="19.51" height="0.66" transform="translate(-4.1 343.68) rotate(-49)"/><polygon class="cls-2" points="370.78 185.58 383.84 171.08 383.34 170.64 370.29 185.14 370.78 185.58"/></svg>