<svg id="图层_1" data-name="图层 1" xmlns="http://www.w3.org/2000/svg" viewBox="0 0 512 512"><defs><style>.cls-1{fill:#191e2d;}.cls-2{fill:#fff;}.cls-3{opacity:0.53;}</style></defs><title>大屏 小配件nnn</title><rect class="cls-1" width="512" height="512" transform="translate(512 512) rotate(180)"/><path class="cls-2" d="M256.21,398.14a144.24,144.24,0,0,1-22-1.71c-1.81-.28-3.61-.6-5.39-.94l.33-1.72q2.64.53,5.33.94a141.06,141.06,0,0,0,46.35-.5l.31,1.72A141.37,141.37,0,0,1,256.21,398.14Zm41.93-6.37-.52-1.66A140.71,140.71,0,0,0,362.07,348l1.31,1.15A142.46,142.46,0,0,1,298.14,391.77Zm-86.31-.68a141.56,141.56,0,0,1-64.57-43.62l1.34-1.12a139.8,139.8,0,0,0,63.77,43.08Zm162.22-55.84-1.44-1a139.09,139.09,0,0,0,22.14-56.7,141.61,141.61,0,0,0,1.59-16.52l1.74.07a145.27,145.27,0,0,1-1.61,16.72A140.82,140.82,0,0,1,374.05,335.25Zm-237.22-1.86a141.62,141.62,0,0,1-22.91-74.47l1.74,0a139.91,139.91,0,0,0,22.63,73.56Zm259.08-89.65A139.3,139.3,0,0,0,382,194l1.56-.77a141,141,0,0,1,14.1,50.39Zm-279.52-2.16-1.73-.18c.25-2.4.56-4.84.94-7.25a141.77,141.77,0,0,1,32.6-70.77l1.33,1.14a140,140,0,0,0-32.21,69.89C117,236.8,116.64,239.21,116.39,241.58Zm257-62.63a140.25,140.25,0,0,0-58.24-50.32l.73-1.59a142,142,0,0,1,59,51ZM161.61,152.11l-1.17-1.29A142.22,142.22,0,0,1,205,123.34l.63,1.63A140.34,140.34,0,0,0,161.61,152.11ZM299,122.34a141,141,0,0,0-76.93-2.59l-.43-1.7a143.07,143.07,0,0,1,77.89,2.62Z"/><g class="cls-3"><path class="cls-2" d="M232.48,158.05c1.44-.34,2.9-.63,4.36-.9s2.93-.5,4.41-.66a20.69,20.69,0,0,1,2.23-.12,6.22,6.22,0,0,1,1.13.09l.14,0,.14,0,.14,0,.14.07.49.27c1.29.72,2.63,1.35,4,1.94h-.08a35.63,35.63,0,0,1,4.19-.72l1.06-.12c.35,0,.71-.06,1.06-.09l1.06-.08,1.06-.05a72.88,72.88,0,0,1,8.49.19l2.12.23,1,.12,1.05.16,2.1.32,2.08.41,1,.21c.35.07.69.16,1,.24l2.06.51.52.13.51.15,1,.3,2,.61-2-.55-1-.28-.51-.14-.52-.12-2.07-.46c-.34-.08-.68-.17-1-.24l-1-.19-2.09-.38c-.69-.11-1.39-.2-2.09-.3l-1.05-.14c-.35-.05-.7-.08-1.05-.11l-2.11-.21a68.23,68.23,0,0,0-8.46-.16l-1.05,0-1.06.08-1,.08-1.05.12a36.09,36.09,0,0,0-4.16.69l0,0,0,0a42.45,42.45,0,0,1-4-2c-.16-.09-.32-.2-.48-.28l-.11-.05-.13,0-.12,0-.13,0a6.7,6.7,0,0,0-1.09-.1c-.74,0-1.48,0-2.22.1s-1.47.16-2.2.26-1.47.2-2.2.32C235.39,157.49,233.93,157.76,232.48,158.05Z"/><path class="cls-2" d="M242.6,161.36l.75-.18c.25-.06.5-.12.73-.2a3.41,3.41,0,0,0,.69-.27,1.93,1.93,0,0,0,.59-.46,1.2,1.2,0,0,1-.47.66,2.12,2.12,0,0,1-.72.36,3.45,3.45,0,0,1-.78.14A3,3,0,0,1,242.6,161.36Z"/><path class="cls-2" d="M212.17,173.32c1.12-.68,2.27-1.32,3.42-2s2.31-1.23,3.48-1.83,2.36-1.15,3.55-1.7,2.4-1.08,3.61-1.58,2.45-1,3.69-1.4,2.5-.83,3.77-1.15a28.73,28.73,0,0,1,3.87-.75l1-.09.49,0h.49l.5,0,.49,0,.24,0,.25,0,.49.08a13.91,13.91,0,0,0-3.92.07,29.71,29.71,0,0,0-3.83.83,64.92,64.92,0,0,0-7.4,2.6c-2.43,1-4.81,2.09-7.17,3.22-1.18.57-2.36,1.15-3.52,1.75S213.33,172.7,212.17,173.32Z"/><path class="cls-2" d="M244,163.75a14.31,14.31,0,0,0,1.73,0,16.59,16.59,0,0,0,1.73-.15,11.72,11.72,0,0,0,1.68-.39,8,8,0,0,0,.81-.32c.26-.11.52-.25.79-.35a11.41,11.41,0,0,1,1.68-.48,17.15,17.15,0,0,1,1.72-.29,34,34,0,0,1,3.48-.27,43.62,43.62,0,0,1,6.95.32,23.36,23.36,0,0,1,3.43.67,7.71,7.71,0,0,1,1.64.66,2.63,2.63,0,0,1,.72.57,4.05,4.05,0,0,0,.61.56,8.49,8.49,0,0,0,3.14,1.27,15.76,15.76,0,0,0,3.42.35,6,6,0,0,0,.85-.05l.41-.07.09,0,0,0,0,0s.07-.05.11-.06l.12,0a4.51,4.51,0,0,1,.89-.11,8.42,8.42,0,0,1,.87,0,25.24,25.24,0,0,1,3.48.26,32.69,32.69,0,0,1,6.76,1.64,24.19,24.19,0,0,1,6.15,3.21,25.1,25.1,0,0,0-6.2-3.08,33.1,33.1,0,0,0-6.74-1.54,30.6,30.6,0,0,0-3.45-.24l-.86,0a4.49,4.49,0,0,0-.83.11l-.08,0,0,0-.05,0-.06,0-.06,0-.12,0a2.46,2.46,0,0,1-.44.09,6.58,6.58,0,0,1-.88,0,15.71,15.71,0,0,1-3.49-.34,11.23,11.23,0,0,1-1.69-.49,6.54,6.54,0,0,1-1.57-.82,4.23,4.23,0,0,1-.66-.61,2.24,2.24,0,0,0-.63-.51,7.24,7.24,0,0,0-1.58-.63,21.53,21.53,0,0,0-3.38-.68,47.06,47.06,0,0,0-6.92-.36c-1.15,0-2.31.09-3.45.22a15.54,15.54,0,0,0-3.38.72c-.27.1-.52.23-.79.34s-.55.21-.82.3a11.06,11.06,0,0,1-1.71.36A14.39,14.39,0,0,1,244,163.75Z"/><path class="cls-2" d="M297.28,170.68A27.9,27.9,0,0,0,279,165.91c-2.73.19-6.49,0-8.88-2l.09-.11c2.36,2,6.08,2.18,8.78,2a28,28,0,0,1,18.33,4.8Z"/><path class="cls-2" d="M204.87,183.44a56.49,56.49,0,0,1,5.57-3.75c1.92-1.16,3.89-2.23,5.9-3.23s4.06-1.92,6.14-2.76,4.19-1.61,6.32-2.3a87.85,87.85,0,0,1,53.05-.34,105.39,105.39,0,0,1,24.43,11.1A118.06,118.06,0,0,0,294.33,176c-2-.92-4.12-1.74-6.21-2.54s-4.22-1.48-6.37-2.1-4.31-1.18-6.49-1.68l-1.64-.35-1.65-.31-.82-.16-.83-.13-1.66-.26c-2.21-.31-4.43-.56-6.66-.72s-4.47-.21-6.7-.2-4.47.11-6.7.29c-.55,0-1.11.09-1.66.15l-1.67.18-1.66.22c-.56.07-1.11.16-1.66.24a92.77,92.77,0,0,0-25.51,8c-2,1-4,2-5.94,3.14-1,.56-1.92,1.14-2.86,1.75S205.77,182.77,204.87,183.44Z"/><path class="cls-2" d="M199.53,194.3a65.47,65.47,0,0,1,5.87-4.75c2-1.48,4.13-2.87,6.28-4.18a94.54,94.54,0,0,1,13.49-6.78,85.75,85.75,0,0,1,14.44-4.44,80.73,80.73,0,0,1,15-1.76,79.29,79.29,0,0,1,15.07,1.16l.46.08.47.09.93.18c.62.13,1.24.24,1.85.39l1.84.43,1.83.48.91.25.91.27.91.27c.3.09.6.17.9.28,1.19.41,2.39.79,3.57,1.25,2.37.86,4.68,1.88,7,2.92l1.69.83.85.41.84.44,1.67.88c.28.14.55.3.83.46l.82.46c.54.32,1.1.62,1.63,1l1.61,1,.81.5c.27.16.53.34.79.51l1.58,1c.53.34,1,.71,1.56,1.06l1.55,1.08c1,.74,2,1.5,3,2.25-1-.73-2.05-1.46-3.08-2.17l-1.57-1.05c-.52-.35-1-.71-1.57-1l-1.6-1-.8-.5-.81-.47-1.63-1c-.54-.31-1.1-.61-1.64-.91l-.83-.45c-.27-.15-.55-.31-.83-.45l-1.67-.86-.84-.43-.85-.4-1.7-.81c-2.3-1-4.6-2-7-2.83-1.17-.44-2.37-.81-3.56-1.2l-1.8-.54-.91-.27-.9-.24-1.82-.47-1.84-.42c-.61-.15-1.22-.26-1.84-.38l-.92-.18-.46-.09-.46-.07a78.27,78.27,0,0,0-15-1.1,79.49,79.49,0,0,0-14.91,1.7q-3.69.76-7.29,1.85t-7.1,2.47a94.86,94.86,0,0,0-13.51,6.61q-3.26,1.9-6.34,4.06c-1,.72-2,1.47-3,2.23S200.47,193.47,199.53,194.3Z"/><path class="cls-2" d="M315.11,202.77c-4.73-3.33-9.53-6.57-14.46-9.59-2.46-1.51-5-3-7.55-4.25a26.4,26.4,0,0,0-4-1.63,7.71,7.71,0,0,0-1-.22,2.69,2.69,0,0,0-1,0l-.53.12-.54.11c-.18,0-.36.05-.55.06l-.27,0h-.28a15.89,15.89,0,0,1-4.35-.45,25.11,25.11,0,0,1-4.15-1.34l-.25-.11-.25-.11-.49-.21-1-.37c-.67-.23-1.36-.44-2.06-.63-1.38-.38-2.79-.7-4.21-.95a53.93,53.93,0,0,0-8.6-.79,60.65,60.65,0,0,0-8.62.53c-1.43.17-2.85.42-4.27.7l-1.05.21-1.06.24c-.7.16-1.4.35-2.1.52a76.5,76.5,0,0,0-8.2,2.73,88.6,88.6,0,0,0-15.32,8A115,115,0,0,0,205.16,206c-2.17,1.92-4.25,3.92-6.3,6l-1.52,1.54c-.5.52-1,1-1.49,1.58l-.75.78-.73.8-1.46,1.61c1.9-2.18,3.84-4.33,5.87-6.4s4.09-4.09,6.23-6a114,114,0,0,1,13.69-10.67c2.42-1.6,4.91-3.09,7.47-4.44a80.72,80.72,0,0,1,7.89-3.67,74.46,74.46,0,0,1,8.24-2.76c.7-.18,1.4-.37,2.11-.53l1.06-.24,1.07-.22c1.42-.28,2.85-.54,4.29-.72a60.15,60.15,0,0,1,8.69-.5,53.55,53.55,0,0,1,8.66.81c1.43.26,2.85.58,4.25,1,.7.19,1.39.41,2.08.64l1,.38.51.21.25.11.24.11a25.41,25.41,0,0,0,4.09,1.34,16,16,0,0,0,4.25.47,10.14,10.14,0,0,0,2.11-.31,3.12,3.12,0,0,1,1.14,0,7.87,7.87,0,0,1,1.07.24,27,27,0,0,1,4,1.68c2.59,1.3,5.08,2.79,7.54,4.31s4.86,3.14,7.25,4.77S312.78,201.06,315.11,202.77Z"/><path class="cls-2" d="M287,186.94a17.94,17.94,0,0,0-2.11-2.16,26.81,26.81,0,0,0-2.38-1.87,32,32,0,0,0-5.27-2.94c-.92-.41-1.86-.78-2.81-1.11s-1.91-.63-2.89-.87a41,41,0,0,0-5.93-1.09,55.17,55.17,0,0,0-12.05,0,77,77,0,0,0-11.85,2.3l-1.46.4-1.45.44c-1,.28-1.92.61-2.87.92-.48.15-1,.33-1.43.5s-1,.32-1.43.51c-.94.36-1.89.7-2.82,1.08-3.74,1.5-7.41,3.18-11,5s-7.16,3.75-10.64,5.79-6.91,4.18-10.29,6.38q5-3.42,10.18-6.57c3.46-2.08,7-4.06,10.59-5.91s7.28-3.53,11-5.05c.93-.39,1.89-.73,2.83-1.1.47-.18,1-.34,1.43-.51s.95-.35,1.43-.51c1-.31,1.91-.65,2.89-.93l1.45-.44,1.46-.41a76.8,76.8,0,0,1,11.93-2.28,54.07,54.07,0,0,1,12.13,0,40.61,40.61,0,0,1,6,1.16c1,.25,1.94.57,2.9.9s1.89.73,2.81,1.15a31.92,31.92,0,0,1,5.25,3A21.61,21.61,0,0,1,287,186.94Z"/><path class="cls-2" d="M194.57,206.63a43,43,0,0,1,3.92-2.61,42.46,42.46,0,0,1,4.18-2.18,25.71,25.71,0,0,1,4.47-1.56,12.35,12.35,0,0,1,2.34-.34,6.36,6.36,0,0,1,2.34.29,7.23,7.23,0,0,0-2.32-.07,13.75,13.75,0,0,0-2.28.46c-.37.1-.74.22-1.11.34s-.74.25-1.1.4c-.73.27-1.45.57-2.16.89s-1.41.65-2.11,1-1.39.71-2.08,1.08Q196.59,205.44,194.57,206.63Z"/><path class="cls-2" d="M192,210.39a3.57,3.57,0,0,1,.81-.49,6.19,6.19,0,0,1,.85-.32,5.45,5.45,0,0,1,.89-.2,3.75,3.75,0,0,1,1,0,3.8,3.8,0,0,1-.81.49,6.86,6.86,0,0,1-.86.32,5.45,5.45,0,0,1-.89.2A4.15,4.15,0,0,1,192,210.39Z"/><path class="cls-2" d="M196.15,214.65a8,8,0,0,1,1.2,0,8.13,8.13,0,0,1,1.2.12,5.37,5.37,0,0,1,1.17.33,2.56,2.56,0,0,1,.53.3,1.3,1.3,0,0,1,.39.45,1.49,1.49,0,0,0-.44-.39,2,2,0,0,0-.53-.25,6.35,6.35,0,0,0-1.14-.29c-.39-.07-.79-.12-1.19-.16l-.59-.05Z"/><path class="cls-2" d="M226.83,194.3a7.19,7.19,0,0,1,.35,1.51,4.31,4.31,0,0,1,0,1.56,2.72,2.72,0,0,1-.11.38l-.09.18-.05.09a.27.27,0,0,1-.07.08,4.19,4.19,0,0,1-.63.48c-.44.28-.88.54-1.33.8-1.79,1-3.59,2-5.36,3.09-3.55,2.1-7.05,4.29-10.4,6.68q-2.52,1.78-4.92,3.74c-1.6,1.3-3.13,2.67-4.61,4.1a49.87,49.87,0,0,0-4.15,4.57,35.27,35.27,0,0,0-3.43,5.13,32.53,32.53,0,0,1,3.26-5.27,48.89,48.89,0,0,1,4.08-4.67,71.64,71.64,0,0,1,9.51-8,117.71,117.71,0,0,1,10.49-6.61c1.8-1,3.62-2,5.43-3,.45-.25.9-.49,1.34-.76a4,4,0,0,0,.62-.43l.06-.06,0-.08.09-.16c0-.12.09-.24.12-.36a4.55,4.55,0,0,0,.09-1.52A8,8,0,0,0,226.83,194.3Z"/><path class="cls-2" d="M232.48,192.46a4.35,4.35,0,0,1,.65-.57c.23-.16.46-.31.71-.45a5.33,5.33,0,0,1,.76-.37,3.73,3.73,0,0,1,.82-.26,4.93,4.93,0,0,1-.65.56,7.8,7.8,0,0,1-.71.46,7.6,7.6,0,0,1-.76.37A4.36,4.36,0,0,1,232.48,192.46Z"/><path class="cls-2" d="M237.63,189.7a10.6,10.6,0,0,1,1.2-.52c.4-.14.81-.27,1.22-.39s.84-.22,1.26-.3a10.83,10.83,0,0,1,1.29-.18,9.06,9.06,0,0,1-1.2.52c-.4.15-.81.28-1.22.39s-.84.22-1.26.3A10.83,10.83,0,0,1,237.63,189.7Z"/><path class="cls-2" d="M230.45,196c3.81-1,7.61-2.1,11.37-3.27,1.88-.58,3.76-1.18,5.62-1.83a58.62,58.62,0,0,0,5.47-2.16c.44-.21.88-.44,1.3-.68.2-.12.41-.25.6-.39a3.26,3.26,0,0,0,.53-.44l.06-.06.09-.09.18-.13a1.41,1.41,0,0,1,.37-.18,4.12,4.12,0,0,1,.76-.22,10.91,10.91,0,0,1,1.5-.16,24.83,24.83,0,0,1,3,.06c1,.07,2,.17,3,.3,2,.26,3.91.61,5.84,1s3.86.86,5.77,1.37A122.59,122.59,0,0,1,298,197.4a99.58,99.58,0,0,1,10.3,5.85q2.48,1.63,4.82,3.43c.78.61,1.55,1.22,2.31,1.86s1.49,1.29,2.22,2a76.29,76.29,0,0,0-9.51-7,99,99,0,0,0-10.35-5.69c-3.55-1.68-7.18-3.22-10.87-4.57s-7.45-2.55-11.25-3.56a95,95,0,0,0-11.54-2.41c-1-.13-1.95-.24-2.92-.32a24,24,0,0,0-2.93-.08,9.77,9.77,0,0,0-1.43.15,3.36,3.36,0,0,0-.66.18,1.12,1.12,0,0,0-.29.14.36.36,0,0,0-.12.08l0,.05-.07.07a4,4,0,0,1-.61.49,6.31,6.31,0,0,1-.65.4c-.43.25-.88.47-1.33.68a59.11,59.11,0,0,1-5.55,2.11q-2.81.93-5.66,1.75c-1.89.54-3.8,1.06-5.71,1.56S232.37,195.51,230.45,196Z"/><path class="cls-2" d="M281.62,194.3a4.71,4.71,0,0,1,.84.11,7.15,7.15,0,0,1,.79.23,6.56,6.56,0,0,1,.77.32,4.54,4.54,0,0,1,.72.45,4.71,4.71,0,0,1-.84-.11,7.15,7.15,0,0,1-.79-.23,6.6,6.6,0,0,1-.77-.33A3.86,3.86,0,0,1,281.62,194.3Z"/><path class="cls-2" d="M189.6,229.27a3.18,3.18,0,0,1,.17.74,6,6,0,0,1,0,.73,4.6,4.6,0,0,1,0,.74,3.21,3.21,0,0,1-.17.73,2.78,2.78,0,0,1-.18-.73,6.13,6.13,0,0,1,0-.74,6,6,0,0,1,0-.73A3.2,3.2,0,0,1,189.6,229.27Z"/><path class="cls-2" d="M192,233.69c.67-.91,1.37-1.8,2.09-2.67s1.44-1.74,2.18-2.6c1.49-1.7,3-3.37,4.59-5s3.2-3.21,4.85-4.75,3.36-3,5.1-4.48,3.54-2.83,5.37-4.16,3.71-2.6,5.64-3.78l1.45-.88,1.48-.84c.24-.14.49-.29.74-.42l.75-.39.75-.4.75-.39,1.53-.73c.25-.13.51-.24.77-.36l.78-.34c1-.47,2.09-.86,3.14-1.28a80.34,80.34,0,0,0-12,6.32c-.48.29-1,.61-1.41.92s-1,.62-1.41.94l-1.39,1c-.46.32-.91.66-1.37,1-1.82,1.34-3.59,2.72-5.32,4.17s-3.45,2.91-5.11,4.44-3.28,3.1-4.88,4.69-3.15,3.23-4.67,4.9S193.42,231.94,192,233.69Z"/><path class="cls-2" d="M236.16,200c3.79-1.29,7.57-2.59,11.31-4,.93-.36,1.87-.71,2.79-1.09.46-.19.93-.37,1.38-.58l.68-.3.67-.32.33-.17.32-.19.32-.19a2.14,2.14,0,0,1,.39-.16,8.9,8.9,0,0,1,1.51-.28,27.84,27.84,0,0,1,3-.13,55,55,0,0,1,6,.39c2,.22,4,.53,6,.89a97.56,97.56,0,0,1,11.65,3,98.9,98.9,0,0,1,11.19,4.42,91.35,91.35,0,0,1,10.53,5.81c1.69,1.08,3.35,2.22,5,3.4s3.19,2.44,4.71,3.74a87.14,87.14,0,0,1,8.58,8.39c-.69-.72-1.38-1.44-2.09-2.14l-.53-.53-.54-.52c-.37-.35-.72-.7-1.09-1-1.46-1.37-3-2.68-4.51-3.94s-3.13-2.49-4.75-3.65-3.29-2.27-5-3.32a97.07,97.07,0,0,0-10.53-5.69,101.06,101.06,0,0,0-11.13-4.36q-2.85-.93-5.74-1.68t-5.84-1.32a72.81,72.81,0,0,0-11.86-1.38,26.89,26.89,0,0,0-3,.09,7.49,7.49,0,0,0-1.43.24,1.43,1.43,0,0,0-.31.12l-.16.09-.16.09-.34.19a2.7,2.7,0,0,1-.34.17l-.68.32-.7.3c-.46.2-.93.37-1.39.56l-2.82,1c-1.89.67-3.79,1.3-5.69,1.93S238.07,199.44,236.16,200Z"/><path class="cls-2" d="M188.31,240.86c1.5-1,3-2,4.47-3.1s2.94-2.13,4.36-3.25l.53-.42.53-.44.52-.43.5-.45c.18-.15.34-.31.5-.47s.33-.31.47-.48.3-.33.44-.51l.43-.52c1.17-1.4,2.38-2.75,3.62-4.08s2.52-2.62,3.82-3.89,2.63-2.51,4-3.73c2.7-2.42,5.51-4.74,8.43-6.91a85.43,85.43,0,0,1,18.89-10.85,58.33,58.33,0,0,1,10.45-3.17,46.32,46.32,0,0,1,10.9-.89,41.89,41.89,0,0,1,10.76,1.88,49.47,49.47,0,0,1,5.14,1.9c1.67.73,3.31,1.53,4.9,2.42a66.69,66.69,0,0,1,9.07,6.07c1.43,1.13,2.83,2.29,4.18,3.51s2.67,2.48,3.95,3.77A125.3,125.3,0,0,1,313,233.67q3.09,4.49,5.85,9.19c1.83,3.13,3.58,6.32,5.13,9.6-.79-1.63-1.65-3.23-2.54-4.81s-1.79-3.16-2.73-4.71q-2.82-4.66-5.95-9.1a124.8,124.8,0,0,0-13.9-16.69,90.69,90.69,0,0,0-8.11-7.2,67.67,67.67,0,0,0-9-6c-1.58-.88-3.21-1.66-4.87-2.38a50.44,50.44,0,0,0-5.07-1.87,41.69,41.69,0,0,0-10.63-1.82,45.73,45.73,0,0,0-10.76.85A57.72,57.72,0,0,0,240,201.83a77,77,0,0,0-9.74,4.77c-1.57.9-3.1,1.86-4.62,2.85s-3,2-4.46,3.1a124.76,124.76,0,0,0-16.29,14.36c-1.25,1.31-2.48,2.64-3.65,4l-.44.52c-.14.17-.31.34-.46.51s-.32.33-.48.49-.33.31-.51.46l-.51.44-.53.44-.53.43-.54.41C194.36,236.84,191.35,238.88,188.31,240.86Z"/><path class="cls-2" d="M323.94,238.65c-.95-1.14-1.9-2.28-2.88-3.41s-1.94-2.25-2.92-3.37-2-2.23-3-3.32-2-2.18-3.05-3.25-2.08-2.12-3.16-3.14-2.17-2-3.32-3a26,26,0,0,0-3.62-2.56,8.88,8.88,0,0,0-2-.87,3.64,3.64,0,0,0-1.09-.16,2.63,2.63,0,0,0-1.07.22,2.79,2.79,0,0,1,1.07-.29,4.22,4.22,0,0,1,1.12.11,9.19,9.19,0,0,1,2.1.8,24,24,0,0,1,3.74,2.48,66.17,66.17,0,0,1,6.58,6.06q3.1,3.22,6,6.65T323.94,238.65Z"/><path class="cls-2" d="M284.74,201.66c3.63,1.9,7.19,3.93,10.68,6.06s6.94,4.34,10.31,6.68l1.25.88c.42.3.84.59,1.25.9l1.24.9,1.23.92,1.22.94,1.21.95,1.19,1,1.18,1c1.55,1.33,3.07,2.72,4.51,4.18l1.05,1.12,1,1.15,1,1.19.89,1.25a37.56,37.56,0,0,0-4.14-4.5c-1.48-1.41-3-2.74-4.6-4s-3.2-2.54-4.84-3.75-3.3-2.41-5-3.57-3.37-2.31-5.07-3.44-3.42-2.24-5.14-3.34-3.46-2.18-5.2-3.26S286.5,202.72,284.74,201.66Z"/><path class="cls-2" d="M188.31,253.38a24,24,0,0,1,.87-3.12,15.94,15.94,0,0,1,1.37-2.93l.1-.18.12-.16.23-.34c.07-.11.17-.21.25-.32s.17-.21.27-.31.38-.39.58-.56.38-.38.57-.57c.74-.78,1.46-1.59,2.18-2.39,2.89-3.2,5.78-6.4,8.77-9.52s6.06-6.16,9.32-9a49.57,49.57,0,0,1,5.15-4c.45-.3.92-.59,1.39-.85a13.47,13.47,0,0,1,1.48-.72,7.18,7.18,0,0,1,1.59-.5,3.85,3.85,0,0,1,1.72,0l-.25,0c1-.93,2.08-1.79,3.16-2.63s2.2-1.62,3.34-2.39a65.78,65.78,0,0,1,7.08-4.14l.92-.46.92-.43c.62-.3,1.25-.57,1.88-.84,1.26-.53,2.53-1,3.83-1.47a51.9,51.9,0,0,1,7.95-2.07,45.79,45.79,0,0,1,8.18-.7,43.22,43.22,0,0,1,8.18.82,44,44,0,0,1,7.87,2.36,50.28,50.28,0,0,1,7.32,3.71c1.18.7,2.3,1.49,3.42,2.27l1.64,1.23c.28.2.54.42.81.64l.79.65.79.65.77.68.77.69.38.34a4,4,0,0,1,.37.35c1,.95,2,1.89,2.91,2.89l.7.74.36.38.34.38,1.35,1.54c.46.5.88,1,1.32,1.57s.87,1,1.29,1.58c1.67,2.17,3.29,4.36,4.8,6.64l1.13,1.7c.37.58.72,1.16,1.08,1.74l1.08,1.74,1,1.76c.35.59.69,1.18,1,1.78l1,1.79,1,1.8.93,1.82q3.71,7.29,6.78,14.88c-2.15-5-4.44-9.95-7-14.78l-.95-1.81-1-1.78-1-1.78-1-1.76-1-1.76-1.09-1.72c-.37-.58-.72-1.16-1.1-1.72l-1.14-1.69c-1.51-2.26-3.15-4.44-4.82-6.58-.43-.53-.87-1.05-1.3-1.57s-.86-1.06-1.32-1.56L298.35,222l-.34-.38-.36-.37-.7-.73c-.93-1-1.93-1.92-2.9-2.86l-.38-.35-.38-.34-.76-.67-.76-.68L291,215l-.79-.64a9.62,9.62,0,0,0-.8-.63l-1.63-1.22c-1.11-.77-2.22-1.55-3.39-2.24a49.69,49.69,0,0,0-7.25-3.65,43.08,43.08,0,0,0-7.77-2.31,44.5,44.5,0,0,0-16.15-.12,51.09,51.09,0,0,0-7.87,2c-1.28.43-2.54.93-3.8,1.45-.62.27-1.24.53-1.86.82l-.92.43-.91.45a68.52,68.52,0,0,0-7,4.1c-1.13.75-2.24,1.54-3.31,2.36s-2.14,1.68-3.13,2.59l-.11.1-.13,0a3.4,3.4,0,0,0-1.49,0,6.83,6.83,0,0,0-1.5.46,12.54,12.54,0,0,0-1.43.69c-.47.25-.92.53-1.38.82a50.37,50.37,0,0,0-5.12,3.89c-3.27,2.8-6.35,5.82-9.36,8.9s-5.94,6.25-8.87,9.42c-.73.79-1.46,1.59-2.21,2.36-.19.2-.38.39-.58.57s-.39.37-.59.55l-.26.31a3.76,3.76,0,0,0-.25.31l-.24.32-.11.17-.11.17a16.48,16.48,0,0,0-1.4,2.9A25.65,25.65,0,0,0,188.31,253.38Z"/><path class="cls-2" d="M187,262l1.19-1.43,1.19-1.42,2.39-2.84,4.81-5.65,4.82-5.64,4.85-5.62L216,228.22l4.86-5.6c.81-.94,1.63-1.86,2.43-2.81l1.2-1.41,1.17-1.44-1.1,1.49-1.15,1.46c-.76,1-1.55,1.93-2.32,2.9-1.57,1.91-3.14,3.82-4.74,5.71L215.15,230l-1.2,1.41-2.4,2.83-4.83,5.63-4.87,5.6q-2.44,2.79-4.9,5.57c-1.64,1.86-3.29,3.7-4.94,5.54l-2.49,2.75-1.25,1.38Z"/><path class="cls-2" d="M315.11,253.56l1.64,5.55c.28.93.55,1.85.84,2.77s.58,1.83.9,2.74.65,1.81,1,2.68a8.23,8.23,0,0,0,.66,1.25,1.55,1.55,0,0,0,.43.45l.05,0h.08l.18,0,.36.1a7.1,7.1,0,0,1,2.52,1.5,4.82,4.82,0,0,1,.9,1.16,2.84,2.84,0,0,1,.27.68,2.53,2.53,0,0,1,.08.72,2.89,2.89,0,0,0-.45-1.34,4.31,4.31,0,0,0-1-1.05,6.23,6.23,0,0,0-1.18-.79,6.73,6.73,0,0,0-1.3-.54,2.14,2.14,0,0,0-.34-.09l-.17,0h-.09a.42.42,0,0,1-.12,0,1.39,1.39,0,0,1-.35-.26,2.34,2.34,0,0,1-.24-.31,8.63,8.63,0,0,1-.72-1.29c-.41-.89-.75-1.8-1.07-2.71-.63-1.84-1.17-3.69-1.66-5.56S315.48,255.46,315.11,253.56Z"/><path class="cls-2" d="M323.94,282.64c-.59-1.09-1.1-2.22-1.58-3.36-.24-.57-.45-1.15-.68-1.73s-.41-1.17-.59-1.76l-.14-.45-.13-.44c-.08-.3-.18-.6-.25-.9l-.22-.91c-.07-.3-.12-.61-.18-.91a14.91,14.91,0,0,1-.28-3.71,24.71,24.71,0,0,0,.62,3.64c.08.29.15.59.22.89l.25.89c.08.29.17.59.26.88l.13.44.14.44c.36,1.18.77,2.34,1.18,3.5S323.52,281.48,323.94,282.64Z"/><path class="cls-2" d="M306.13,300.4q3.3-1.81,6.53-3.75c2.15-1.29,4.29-2.61,6.33-4.08.5-.37,1-.75,1.48-1.15q.36-.3.69-.63a4.3,4.3,0,0,0,.59-.7l.11-.19a1.6,1.6,0,0,0,.05-.21,3.34,3.34,0,0,0,0-.45,7.15,7.15,0,0,0-.14-.91c-.12-.61-.29-1.22-.47-1.82-.37-1.19-.78-2.38-1.21-3.56s-.87-2.35-1.31-3.53c-1.77-4.7-3.59-9.39-5.17-14.16-.79-2.39-1.52-4.8-2.11-7.25-.29-1.23-.54-2.47-.72-3.73a17.28,17.28,0,0,1-.16-3.81v.12c-.51-1.25-1.08-2.48-1.67-3.7s-1.21-2.44-1.85-3.63q-1.92-3.6-4.11-7a81.55,81.55,0,0,0-10-12.78,58.44,58.44,0,0,0-6.05-5.41,42.92,42.92,0,0,0-6.84-4.34,33.66,33.66,0,0,0-7.58-2.79,31,31,0,0,0-8-.82c-.34,0-.67,0-1,0s-.67.06-1,.1c-.67.09-1.34.19-2,.31-1.33.24-2.66.54-4,.89s-2.61.75-3.89,1.18-2.55.92-3.8,1.45a60.22,60.22,0,0,0-14,8.25,61.13,61.13,0,0,0-6,5.46c-.94,1-1.87,2-2.74,3-.45.51-.87,1.05-1.3,1.57l-.63.8-.31.41-.3.41-.61.81-.59.84c-.4.55-.76,1.12-1.15,1.68-.19.28-.36.57-.55.86s-.37.57-.54.86c-.35.58-.71,1.16-1.05,1.75a81.34,81.34,0,0,0-3.7,7.27,71.49,71.49,0,0,1,8-14.2l.3-.41L224,233l.62-.81c.42-.53.84-1.08,1.28-1.59.87-1.06,1.78-2.07,2.72-3.06a60.62,60.62,0,0,1,20-13.94,57.14,57.14,0,0,1,7.74-2.69c1.32-.35,2.66-.65,4-.9.68-.12,1.35-.23,2-.32l1-.11,1,0a31.71,31.71,0,0,1,8.18.82,34.77,34.77,0,0,1,7.71,2.82,44.31,44.31,0,0,1,6.94,4.38,56.55,56.55,0,0,1,6.11,5.47,82,82,0,0,1,10.06,12.9q2.2,3.45,4.12,7.07c.64,1.2,1.26,2.42,1.85,3.65s1.16,2.47,1.68,3.74l0,0v.07a17.68,17.68,0,0,0,.16,3.7c.16,1.23.4,2.46.68,3.68.57,2.44,1.28,4.84,2,7.23,1.54,4.77,3.33,9.47,5.07,14.18.43,1.18.86,2.36,1.28,3.55s.81,2.38,1.17,3.59c.17.6.33,1.21.45,1.83a7.48,7.48,0,0,1,.13,1,2,2,0,0,1,0,.49,1,1,0,0,1-.18.47,4,4,0,0,1-.63.73,8.72,8.72,0,0,1-.71.64c-.48.4-1,.78-1.5,1.14-2.05,1.46-4.2,2.76-6.37,4S308.34,299.22,306.13,300.4Z"/><path class="cls-2" d="M187,274.3a229.56,229.56,0,0,1,15.21-23.68c2.76-3.81,5.67-7.5,8.69-11.1s6.17-7.08,9.5-10.4c.42-.42.83-.84,1.26-1.24l1.27-1.22c.87-.8,1.72-1.6,2.61-2.38,1.76-1.56,3.56-3.07,5.43-4.5s3.78-2.81,5.76-4.08c1-.63,2-1.25,3-1.83l.77-.43.78-.41c.52-.28,1-.56,1.58-.8a41.25,41.25,0,0,1,13.44-4.14,30.69,30.69,0,0,1,7,0,31.16,31.16,0,0,1,3.47.64l.85.24.42.11.42.13,1.67.58a30,30,0,0,0-6.84-1.54,30.35,30.35,0,0,0-7,.12,41,41,0,0,0-13.27,4.26c-.53.25-1,.53-1.55.81l-.77.42c-.26.14-.51.29-.76.44-1,.57-2,1.2-3,1.82-2,1.27-3.86,2.65-5.71,4.08s-3.64,2.94-5.38,4.5c-.88.77-1.73,1.58-2.58,2.38l-1.27,1.21-1.25,1.24a191.52,191.52,0,0,0-18.24,21.35q-4.2,5.63-8.1,11.49C191.9,266.28,189.39,270.25,187,274.3Z"/><path class="cls-2" d="M215.36,239.49c-1.23,1.75-2.47,3.48-3.69,5.24s-2.44,3.5-3.64,5.27-2.39,3.53-3.52,5.34c-.57.9-1.13,1.8-1.66,2.72a30.07,30.07,0,0,0-1.48,2.8c-.05.12-.11.24-.15.36l-.14.36c-.05.12-.07.24-.11.36s-.07.25-.1.38-.12.53-.2.79l-.23.78c-.17.51-.33,1-.53,1.52s-.4,1-.61,1.5c-.1.25-.22.49-.33.74s-.23.48-.35.73l-.36.71c-.12.24-.24.48-.37.72-.51.94-1,1.87-1.63,2.78a58.23,58.23,0,0,1-3.72,5.23c-.68.83-1.35,1.66-2.07,2.46s-1.43,1.58-2.16,2.36l1-1.23c.35-.4.68-.82,1-1.24.68-.82,1.32-1.68,2-2.53l.94-1.29c.3-.43.6-.88.9-1.32.59-.88,1.17-1.77,1.71-2.69a45.07,45.07,0,0,0,2.92-5.65c.41-1,.78-2,1.1-3l.22-.76c.08-.25.13-.51.19-.76s.07-.26.11-.4.07-.28.12-.4l.14-.39c.05-.13.11-.25.17-.38a30,30,0,0,1,1.51-2.86c.55-.92,1.11-1.83,1.69-2.73s1.18-1.79,1.78-2.67,1.22-1.76,1.84-2.63C210.12,246.25,212.7,242.84,215.36,239.49Z"/><path class="cls-2" d="M214.13,250.25q-2.64,5.33-5.5,10.56c-.47.87-.94,1.74-1.43,2.6l-1.45,2.6c-.48.87-1,1.73-1.47,2.59s-1,1.72-1.5,2.57q-1.5,2.58-3.05,5.11c-.52.85-1,1.69-1.58,2.53-.26.42-.52.84-.79,1.26l-.82,1.24A103.71,103.71,0,0,1,189.6,291l.85-1.21.87-1.21,1.65-2.48c1.07-1.66,2.14-3.33,3.18-5,2.09-3.36,4.12-6.76,6.12-10.19.5-.85,1-1.71,1.5-2.56l1.49-2.58,3-5.15Z"/><path class="cls-2" d="M317.69,286.32a5.32,5.32,0,0,1,0,1.26,8.34,8.34,0,0,1-.23,1.23A5.88,5.88,0,0,1,317,290a2.74,2.74,0,0,1-.8,1,10.54,10.54,0,0,0,.37-1.17l.31-1.16c.11-.39.22-.78.35-1.17A9.87,9.87,0,0,1,317.69,286.32Z"/><path class="cls-2" d="M311.55,275.56a10.79,10.79,0,0,1,1.17,1.86,15.93,15.93,0,0,1,.85,2,15.28,15.28,0,0,1,.75,4.36,16.5,16.5,0,0,1-.1,2.22c-.06.37-.1.74-.18,1.1,0,.18-.07.37-.11.55l-.13.54a20.14,20.14,0,0,1-1.62,4.13c-.33.65-.67,1.3-1,1.95-.17.33-.34.65-.52,1s-.35.65-.54,1-.38.64-.58.95l-.31.46c-.11.15-.2.31-.32.45a10,10,0,0,1-.71.87l-.19.21-.2.2-.42.38a10.35,10.35,0,0,1-1.87,1.22c-.65.35-1.32.65-2,1-1.34.59-2.67,1.2-4,1.8,1.27-.72,2.57-1.4,3.87-2.07.65-.33,1.3-.66,1.92-1a9.88,9.88,0,0,0,1.75-1.24,13.61,13.61,0,0,0,2.55-3.44c.71-1.27,1.37-2.56,2-3.87l.25-.49.23-.49c.17-.32.3-.65.44-1l.1-.25.1-.26.18-.51c.06-.17.11-.34.16-.51s.11-.34.15-.52l.14-.52c.05-.17.08-.35.12-.52.08-.35.13-.71.19-1.07a19.26,19.26,0,0,0,.16-2.15,16.34,16.34,0,0,0-.57-4.28,16.61,16.61,0,0,0-.72-2.05A11.47,11.47,0,0,0,311.55,275.56Z"/><path class="cls-2" d="M277.93,316c1.21-.36,2.38-.81,3.55-1.28s2.3-1,3.43-1.54a57.63,57.63,0,0,0,6.53-3.73,50.18,50.18,0,0,0,5.95-4.6c.93-.84,1.83-1.72,2.69-2.63s1.67-1.86,2.44-2.85a36,36,0,0,0,2.18-3.05,35.11,35.11,0,0,0,1.88-3.25,37.66,37.66,0,0,0,2.74-7c.09-.3.16-.6.24-.91s.16-.6.22-.91c.13-.61.27-1.22.37-1.83.23-1.23.38-2.48.5-3.72a48,48,0,0,0,0-7.49l0,.08c-.46-.91-.87-1.83-1.24-2.77a19.59,19.59,0,0,1-.9-2.91,7.82,7.82,0,0,1-.2-1.54,2.54,2.54,0,0,1,0-.39c0-.07,0-.14,0-.2a1.37,1.37,0,0,0,0-.19,4.35,4.35,0,0,0,0-.7,29.63,29.63,0,0,0-.51-2.94c-.42-2-.95-3.89-1.54-5.81s-1.26-3.8-2-5.66A75.29,75.29,0,0,0,299,237.43a56.78,56.78,0,0,0-7.13-9.62,43.55,43.55,0,0,0-9.19-7.61,38,38,0,0,0-11-4.55,40.62,40.62,0,0,0-5.91-.94,45.91,45.91,0,0,0-6-.08l-.75.05c-.25,0-.5,0-.75,0l-1.49.16c-1,.14-2,.28-2.94.5a35.92,35.92,0,0,0-5.73,1.71,37.94,37.94,0,0,0-10.2,6.16,50.1,50.1,0,0,0-8.1,8.8,70.16,70.16,0,0,0-6.15,10.31,92.11,92.11,0,0,0-4.55,11.13,113.87,113.87,0,0,0-5.2,23.46q-.33,3-.44,6c0,.5,0,1,0,1.5s0,1,0,1.5a27.15,27.15,0,0,0,.22,3c0,.25.07.5.13.74s0,.25.07.37l.1.36a11.81,11.81,0,0,0,.55,1.39c.11.23.2.46.31.69l.33.67c.21.46.47.89.71,1.33a14.07,14.07,0,0,0,1.76,2.43l.27.26.14.13.15.12.29.23.32.2a2.06,2.06,0,0,0,.33.17,2.2,2.2,0,0,0,.36.13,1.54,1.54,0,0,0,.74,0,1.59,1.59,0,0,1-.75,0,2.48,2.48,0,0,1-.35-.13l-.34-.16-.32-.2-.3-.23-.15-.12-.14-.13-.27-.26a13.34,13.34,0,0,1-1.8-2.42c-.24-.43-.51-.86-.72-1.32l-.34-.67c-.12-.23-.21-.46-.32-.69a11.4,11.4,0,0,1-.57-1.4l-.1-.37c0-.12-.05-.24-.08-.37s-.09-.49-.13-.74a25.45,25.45,0,0,1-.25-3c0-.5,0-1,0-1.51s0-1,0-1.51c0-2,.18-4,.39-6A107.07,107.07,0,0,1,215.61,265a111.82,111.82,0,0,1,3.17-11.64,92.06,92.06,0,0,1,4.51-11.21q1.31-2.71,2.84-5.33c1-1.74,2.12-3.43,3.3-5.07a50.06,50.06,0,0,1,8.17-8.91,38.75,38.75,0,0,1,10.34-6.27,36.67,36.67,0,0,1,5.81-1.75c1-.22,2-.36,3-.51l1.51-.16.76-.06.76,0a45.4,45.4,0,0,1,6.06.06,40.37,40.37,0,0,1,6,1,36.72,36.72,0,0,1,5.78,1.86,37.61,37.61,0,0,1,5.4,2.76,43.68,43.68,0,0,1,9.31,7.72,57.76,57.76,0,0,1,7.18,9.73A75.76,75.76,0,0,1,304.78,248c.73,1.88,1.4,3.78,2,5.71s1.12,3.88,1.54,5.85a29.81,29.81,0,0,1,.51,3,5.15,5.15,0,0,1,0,.8c0,.08,0,.12,0,.19a.88.88,0,0,0,0,.17c0,.12,0,.24,0,.36a8,8,0,0,0,.18,1.45,19.35,19.35,0,0,0,.87,2.84c.36.93.76,1.85,1.21,2.74l0,0v0a47.83,47.83,0,0,1-.05,7.57c-.12,1.25-.28,2.51-.52,3.75-.1.62-.25,1.23-.38,1.85-.07.31-.16.61-.23.92s-.16.61-.25.91a38.35,38.35,0,0,1-2.8,7c-.58,1.12-1.23,2.21-1.91,3.27s-1.43,2.07-2.22,3.06-1.61,1.93-2.48,2.84-1.78,1.78-2.73,2.62a50.15,50.15,0,0,1-6,4.56,57.34,57.34,0,0,1-6.58,3.69c-1.14.54-2.29,1-3.46,1.5S279.14,315.66,277.93,316Z"/><path class="cls-2" d="M191.44,302.52a16.33,16.33,0,0,0,2.44-1.39,26.26,26.26,0,0,0,2.24-1.69l.53-.46.26-.23.26-.24.51-.48.49-.5c.66-.66,1.29-1.36,1.89-2.07a37.75,37.75,0,0,0,3.26-4.56l.37-.59.34-.61.35-.61.17-.3.17-.32.65-1.24L206,286c.2-.42.38-.85.57-1.28l.27-.65c.09-.21.19-.43.27-.65.33-.87.68-1.74,1-2.63.15-.44.31-.88.44-1.33l.41-1.34.2-.67.18-.68.37-1.35a81.19,81.19,0,0,0,2-11.05h0l.28-1.1.14-.55.07-.27c0-.09.06-.18.08-.27l.35-1.08c.06-.18.11-.36.17-.54l.21-.53.41-1.06c.15-.35.31-.69.46-1l.23-.52c.09-.17.18-.33.26-.5l.53-1a26.52,26.52,0,0,1,2.55-3.74,18.46,18.46,0,0,1,3.21-3.16,15.9,15.9,0,0,0-1.65,1.53c-.25.28-.51.55-.75.84l-.36.43-.35.45A28.12,28.12,0,0,0,215,256c-.18.33-.34.67-.51,1l-.25.51L214,258c-.15.35-.3.69-.44,1l-.39,1.06-.2.52c0,.18-.11.36-.16.54l-.33,1.07c0,.09-.05.18-.07.27l-.07.27-.13.55L212,264.4v0a80.39,80.39,0,0,1-1.92,11.11l-.36,1.37-.18.68-.2.68-.42,1.35c-.14.45-.3.89-.46,1.33-.29.9-.65,1.77-1,2.65-.08.22-.17.43-.27.65l-.28.65c-.19.43-.37.86-.58,1.29a41.31,41.31,0,0,1-6.06,9.5,31.34,31.34,0,0,1-4.05,3.93,26.47,26.47,0,0,1-2.29,1.64l-.6.37c-.2.12-.41.23-.62.34A12.24,12.24,0,0,1,191.44,302.52Z"/><path class="cls-2" d="M191.44,297.61c1.15-1.18,2.25-2.42,3.29-3.69.53-.63,1.05-1.27,1.55-1.92s1-1.32,1.48-2c1-1.34,1.86-2.71,2.7-4.12a43.21,43.21,0,0,0,2.32-4.35,35.34,35.34,0,0,0,1.79-4.58l.74-2.36c.13-.4.27-.79.41-1.18s.27-.78.44-1.16l.47-1.15c.16-.38.34-.75.51-1.13l.13-.28.15-.28.29-.55c.18-.37.4-.72.61-1.08l.17-.27.17-.25.36-.52.38-.49.2-.24.21-.23.21-.23.22-.21.23-.21.25-.2a3,3,0,0,1,1.08-.58,3,3,0,0,0-1,.64l-.23.2-.22.22a2.18,2.18,0,0,0-.21.22l-.2.23-.2.24c-.07.07-.12.16-.19.24l-.36.5-.32.52-.17.26-.15.27c-.19.36-.41.71-.58,1.09l-.27.55-.14.27-.12.29c-.16.38-.33.75-.48,1.13l-.44,1.15c-.15.38-.27.78-.41,1.17s-.27.77-.38,1.17l-.71,2.37a34.74,34.74,0,0,1-1.79,4.64,48.33,48.33,0,0,1-5.16,8.49c-1,1.32-2,2.6-3.13,3.84-.55.62-1.11,1.22-1.69,1.82S192.05,297.05,191.44,297.61Z"/><path class="cls-2" d="M308.57,264c0,2-.05,3.93-.14,5.89s-.21,3.92-.37,5.88q-.12,1.47-.27,2.94c-.1,1-.21,1.95-.35,2.93s-.29,1.94-.49,2.91c-.1.48-.22,1-.36,1.43a5.34,5.34,0,0,1-.27.7,1.27,1.27,0,0,1-.2.31.31.31,0,0,1-.16.11.2.2,0,0,1-.17,0,.17.17,0,0,0,.17,0,.28.28,0,0,0,.13-.11,1,1,0,0,0,.17-.32,5.17,5.17,0,0,0,.21-.7c.11-.47.19-.95.26-1.44.15-1,.26-1.94.36-2.91s.2-1.95.28-2.93.17-2,.25-2.93l.46-5.87.24-2.94C308.41,265.94,308.48,265,308.57,264Z"/><path class="cls-2" d="M300.66,301.79a51.3,51.3,0,0,1-6.19,5.69,57.58,57.58,0,0,1-7,4.7,50,50,0,0,1-7.66,3.52,40.43,40.43,0,0,1-8.18,2,35.14,35.14,0,0,1-4.22.35,37.37,37.37,0,0,1-4.23-.14,39.4,39.4,0,0,1-4.18-.63c-1.38-.29-2.74-.67-4.09-1.09a43.65,43.65,0,0,1-7.72-3.43l-.92-.52-.9-.55-.45-.28-.44-.29-.88-.58c-.3-.19-.58-.4-.87-.6l-.86-.61-1.69-1.26c-1.13-.83-2.24-1.7-3.35-2.55-.56-.42-1.1-.87-1.65-1.3s-1.1-.87-1.64-1.32l-1.62-1.35-1.6-1.38c-.53-.45-1-.94-1.56-1.41l-.78-.72-.75-.74a42,42,0,0,1-5.5-6.4c-.42-.57-.76-1.19-1.13-1.79l-.14-.23-.12-.24-.24-.47-.25-.47-.12-.24a2.44,2.44,0,0,1-.1-.24l-.42-1-.1-.24-.09-.26-.17-.5-.17-.5-.09-.25-.06-.26-.27-1c-.05-.17-.08-.34-.12-.52l-.1-.52-.09-.52c0-.17-.05-.35-.08-.52l-.13-1.05c0-.36,0-.71-.08-1.06l0-.53c0-.17,0-.35,0-.53l0-1.05c0-.35,0-.71,0-1.06s0-.7,0-1.05c.13-2.81.44-5.6.77-8.39s.69-5.56,1-8.34c.15-1.39.31-2.78.44-4.18s.27-2.79.4-4.18c-.1,1.39-.18,2.79-.31,4.19s-.24,2.79-.38,4.19c-.27,2.79-.59,5.57-.88,8.36s-.58,5.57-.68,8.36c0,.35,0,.7,0,1.05s0,.7,0,1l0,1a4.52,4.52,0,0,0,0,.52l0,.52c0,.35.05.69.08,1l.15,1c0,.17,0,.35.07.52l.11.51.1.51a4.64,4.64,0,0,0,.11.51l.28,1,.07.25a2.25,2.25,0,0,0,.08.24l.17.49.18.49a1.83,1.83,0,0,0,.08.25l.11.24.41.95.11.24.12.23.24.46.23.46.12.23.14.22c.36.59.7,1.2,1.11,1.76a43.07,43.07,0,0,0,5.46,6.31l.75.73.77.7c.52.47,1,.95,1.56,1.4l1.59,1.37,1.62,1.33c.54.45,1.09.88,1.64,1.31s1.09.88,1.65,1.3c1.11.85,2.22,1.7,3.35,2.53l1.68,1.26.85.61c.28.2.56.41.85.6l.87.58.44.28.45.28.88.55.91.52a43.21,43.21,0,0,0,7.61,3.4,37.93,37.93,0,0,0,8.15,1.73,37.43,37.43,0,0,0,8.33-.15,40.59,40.59,0,0,0,8.13-1.93,49.72,49.72,0,0,0,7.64-3.41,56,56,0,0,0,7-4.58c1.12-.84,2.2-1.73,3.25-2.65S299.7,302.82,300.66,301.79Z"/><path class="cls-2" d="M245.54,307.67a48.66,48.66,0,0,1-5.41-3.74,60.15,60.15,0,0,1-4.95-4.35A52.65,52.65,0,0,1,227,289.25c-.57-.95-1.09-1.92-1.59-2.9s-.93-2-1.35-3a40.18,40.18,0,0,1-1.93-6.33c-.24-1.08-.41-2.17-.56-3.27s-.23-2.2-.26-3.3a39.46,39.46,0,0,1,.31-6.61,43,43,0,0,1,1.38-6.47c.61-2.13,1.41-4.17,2.15-6.24,1.49-4.13,3.17-8.2,5-12.19l1.45-3,.36-.74c.12-.25.26-.49.39-.73l.78-1.45.78-1.45.85-1.42.84-1.41c.14-.24.3-.47.45-.7l.45-.68.92-1.37,1-1.32.49-.66a4.19,4.19,0,0,1,.26-.33l.26-.31c.36-.42.7-.85,1.06-1.27l1.13-1.19a4,4,0,0,1,.3-.29l.3-.28.6-.57.64-.51.33-.26.33-.24.34-.23c.11-.08.24-.15.35-.22a5.56,5.56,0,0,1,.73-.37,5,5,0,0,0-.72.39c-.11.08-.23.14-.34.23l-.33.24-.33.24-.31.27-.63.53c-.39.39-.79.76-1.17,1.15l-1.1,1.22c-.35.42-.68.85-1,1.28l-.26.32a3.81,3.81,0,0,0-.24.32l-.48.67-1,1.34-.88,1.38-.44.69c-.15.23-.31.45-.44.69l-.82,1.42-.83,1.42-.76,1.46-.76,1.45c-.12.25-.26.48-.37.73l-.35.74-1.41,3c-.45,1-.87,2-1.3,3l-.65,1.5-.17.38-.15.38-.3.77c-.79,2-1.63,4.06-2.34,6.13s-1.52,4.12-2.11,6.21a45.36,45.36,0,0,0-1.34,6.39,38.41,38.41,0,0,0-.33,6.52c0,1.09.13,2.17.24,3.25s.31,2.16.54,3.22a38.89,38.89,0,0,0,1.88,6.26,44.92,44.92,0,0,0,2.86,5.88,52,52,0,0,0,8,10.35,59.76,59.76,0,0,0,4.84,4.44c.85.69,1.71,1.36,2.6,2S244.61,307.1,245.54,307.67Z"/><path class="cls-2" d="M276.46,313.19a34.16,34.16,0,0,1-5.63.39,46.19,46.19,0,0,1-5.63-.4A38.77,38.77,0,0,1,254.35,310a35.42,35.42,0,0,1-4.94-2.8,36.87,36.87,0,0,1-4.4-3.59l-1-1c-.17-.16-.32-.34-.48-.52l-.48-.53-.47-.53-.44-.55-.89-1.12-1.68-2.27c-.28-.38-.56-.75-.83-1.14l-.82-1.15c-1.1-1.53-2.13-3.11-3.17-4.68l-1.49-2.41c-.06-.1-.13-.19-.19-.3l-.17-.3-.35-.62-.7-1.23a53.55,53.55,0,0,1-4.42-10.41,57,57,0,0,1-2.08-11.11c-.11-.94-.15-1.88-.21-2.82l-.09-1.41,0-1.41c0-.94-.07-1.88-.07-2.82v-2.82c.11,3.76.27,7.52.7,11.25a57.08,57.08,0,0,0,2.23,11,51.8,51.8,0,0,0,2,5.25l.59,1.28.29.64.32.62.64,1.25.32.62c.11.21.23.41.35.61l.7,1.22.34.61.18.31.18.3,1.49,2.38c.51.79,1,1.56,1.56,2.35l.39.58.41.58.81,1.14.81,1.16c.27.38.55.75.83,1.13l1.67,2.27.87,1.1c.14.18.28.37.43.55l.47.52.46.52c.16.18.3.36.47.52l1,1a35.8,35.8,0,0,0,4.3,3.56,37,37,0,0,0,4.84,2.82,38.32,38.32,0,0,0,10.69,3.29,43.67,43.67,0,0,0,5.6.53c.94,0,1.87,0,2.81,0S275.53,313.31,276.46,313.19Z"/><path class="cls-2" d="M304.34,288.65a38.39,38.39,0,0,1-3,6,45.26,45.26,0,0,1-3.94,5.48,37.71,37.71,0,0,1-4.78,4.76,29.42,29.42,0,0,1-5.63,3.7c.95-.6,1.9-1.19,2.79-1.87l.34-.24.33-.26.66-.52c.43-.35.87-.7,1.28-1.08s.82-.74,1.23-1.12c.21-.19.4-.39.6-.59l.3-.29.29-.3c.78-.8,1.53-1.63,2.24-2.48s1.41-1.73,2.08-2.63,1.3-1.81,1.91-2.74,1.2-1.89,1.76-2.86S303.85,289.66,304.34,288.65Z"/><path class="cls-2" d="M250,302.52a50.57,50.57,0,0,0,6,3.34,49.54,49.54,0,0,0,6.4,2.54,39.46,39.46,0,0,0,6.69,1.51,26.92,26.92,0,0,0,6.83,0,21.66,21.66,0,0,0,6.56-1.83,21.28,21.28,0,0,0,3-1.68,26,26,0,0,0,2.69-2.11c.83-.78,1.64-1.61,2.49-2.39s1.69-1.56,2.58-2.3c.45-.36.91-.72,1.38-1.05a12.42,12.42,0,0,1,1.46-.93,5.63,5.63,0,0,1,.79-.36,2,2,0,0,1,.87-.12.86.86,0,0,1,.21.07.5.5,0,0,1,.19.13.78.78,0,0,1,.2.38,1.92,1.92,0,0,1,0,.86,1.88,1.88,0,0,0,0-.85.67.67,0,0,0-.58-.52,1.78,1.78,0,0,0-.82.14,5,5,0,0,0-.77.37,11.4,11.4,0,0,0-1.42,1c-.46.35-.9.72-1.33,1.09-.87.75-1.71,1.53-2.54,2.33s-1.61,1.63-2.45,2.44A21.78,21.78,0,0,1,276,310.4a27.32,27.32,0,0,1-6.94-.09,37,37,0,0,1-6.75-1.58A48.44,48.44,0,0,1,250,302.52Z"/><path class="cls-2" d="M240.11,238.65a36.52,36.52,0,0,0-1.88,3.48c-.57,1.19-1.09,2.41-1.56,3.64a46.6,46.6,0,0,0-2.2,7.58,40.67,40.67,0,0,0-.79,7.85,34.27,34.27,0,0,0,.86,7.82,32.88,32.88,0,0,0,2.64,7.41,37.08,37.08,0,0,0,4.23,6.63,43.73,43.73,0,0,0,5.45,5.69,58.26,58.26,0,0,0,6.27,4.78,50.28,50.28,0,0,0,6.87,3.85,33.91,33.91,0,0,0,7.45,2.46,25.29,25.29,0,0,0,7.81.37,23,23,0,0,0,3.85-.76,24.16,24.16,0,0,0,3.66-1.39,28.79,28.79,0,0,0,6.54-4.33,39.45,39.45,0,0,0,5.36-5.75,52.37,52.37,0,0,0,4.32-6.6q1-1.72,1.8-3.51c.56-1.19,1.09-2.4,1.54-3.63v0c.26-1.54.44-3.11.57-4.67s.22-3.14.26-4.71a78,78,0,0,0-.33-9.42,63.57,63.57,0,0,0-1.56-9.3,51.89,51.89,0,0,0-3.09-8.91,50.88,50.88,0,0,1,3.18,8.89,62.28,62.28,0,0,1,1.67,9.3,74.38,74.38,0,0,1,.4,9.44c0,1.58-.11,3.16-.23,4.73s-.3,3.14-.55,4.71h0c-.45,1.25-1,2.47-1.53,3.67s-1.15,2.38-1.79,3.54a52.73,52.73,0,0,1-4.33,6.66,39.72,39.72,0,0,1-5.41,5.82,29.12,29.12,0,0,1-6.62,4.4,23.94,23.94,0,0,1-3.72,1.42,23.67,23.67,0,0,1-3.92.79,25.49,25.49,0,0,1-7.94-.38,34.48,34.48,0,0,1-7.55-2.5,49.52,49.52,0,0,1-6.92-3.9,60.21,60.21,0,0,1-6.31-4.83,45.08,45.08,0,0,1-5.48-5.74,36.94,36.94,0,0,1-4.24-6.72,34.14,34.14,0,0,1-2.62-7.49,35.48,35.48,0,0,1-.82-7.89,40.12,40.12,0,0,1,.87-7.88,47.31,47.31,0,0,1,2.29-7.58c.48-1.23,1-2.44,1.6-3.63A39,39,0,0,1,240.11,238.65Z"/><path class="cls-2" d="M304.34,274.3c-.3,1.15-.67,2.28-1.07,3.4s-.82,2.23-1.28,3.33a63.19,63.19,0,0,1-3.12,6.41,51.1,51.1,0,0,1-3.93,6,37.53,37.53,0,0,1-4.86,5.22,28.37,28.37,0,0,1-5.87,4,24.9,24.9,0,0,1-6.75,2.33,26.16,26.16,0,0,1-7.12.36,33.65,33.65,0,0,1-7-1.36,45.17,45.17,0,0,1-6.64-2.63q-3.21-1.58-6.26-3.45a54.39,54.39,0,0,1-11.1-9,42.87,42.87,0,0,1-4.42-5.62c-.64-1-1.26-2-1.81-3.09-.14-.26-.27-.54-.4-.8s-.27-.54-.39-.81l-.37-.81-.34-.83a37.33,37.33,0,0,1-2.05-6.86,40.46,40.46,0,0,1-.73-7.12,50.07,50.07,0,0,1,1.9-14.14,67.41,67.41,0,0,1,2.27-6.78c.22-.56.43-1.11.68-1.66a16.33,16.33,0,0,1,.85-1.6,24.89,24.89,0,0,1,2.06-2.93,39.75,39.75,0,0,1,5-5.12,48.58,48.58,0,0,1,5.76-4.25,46.08,46.08,0,0,1,6.32-3.36,38.16,38.16,0,0,1,6.8-2.25,29,29,0,0,1,7.13-.75,23.85,23.85,0,0,1,3.58.35,22,22,0,0,1,3.48.92,21.57,21.57,0,0,1,6.27,3.49,26.14,26.14,0,0,1,4.91,5.22c.71,1,1.34,2,1.95,3s1.23,2,1.81,3.08,1.16,2.08,1.71,3.14,1.08,2.12,1.59,3.21a57.86,57.86,0,0,1,2.64,6.65,34,34,0,0,1,.94,3.46,26.49,26.49,0,0,1,.56,3.55,19,19,0,0,1-.59,7.15,15.39,15.39,0,0,1-1.38,3.33,19,19,0,0,1-2,3,29.17,29.17,0,0,1-2.48,2.61l-1.34,1.19c-.46.39-.94.75-1.43,1.1a30.73,30.73,0,0,1-6.34,3.34,30.34,30.34,0,0,1-6.94,1.82,23.3,23.3,0,0,1-7.17-.09,18.15,18.15,0,0,1-6.69-2.57,19.26,19.26,0,0,1-5.21-4.93,27.59,27.59,0,0,1-3.4-6.3,41.33,41.33,0,0,1-2-6.88,42.31,42.31,0,0,1-.91-7.1,28.56,28.56,0,0,1,.64-7.14,20.75,20.75,0,0,1,2.73-6.62,19.8,19.8,0,0,1,4.91-5.21,25.15,25.15,0,0,1,6.33-3.36l.42-.16.42-.14.42-.15.43-.13a15,15,0,0,1,1.76-.42,12.35,12.35,0,0,1,3.59-.16,10.51,10.51,0,0,1,3.47,1,11.26,11.26,0,0,1,3,2,15.24,15.24,0,0,1,2.31,2.76,20.44,20.44,0,0,1,1.71,3.15,29.65,29.65,0,0,1,2.35,10.44,22.56,22.56,0,0,1-.12,3.58,11.4,11.4,0,0,1-.91,3.48,5.24,5.24,0,0,1-.46.79,2.86,2.86,0,0,1-.64.66,2.42,2.42,0,0,1-.4.25,2.54,2.54,0,0,1-.44.15c-.29.08-.59.14-.88.2a13.63,13.63,0,0,1-7.11-.35,12,12,0,0,1-3.19-1.63,12.23,12.23,0,0,1-2.57-2.51,14.78,14.78,0,0,1-2.74-6.56,22.8,22.8,0,0,1,0-7.14,17.61,17.61,0,0,1,.38-1.75,10,10,0,0,1,.61-1.69,7.6,7.6,0,0,1,.46-.78,3.27,3.27,0,0,1,.63-.66,3.76,3.76,0,0,1,1.67-.67,4.38,4.38,0,0,1,1.8.14,6.93,6.93,0,0,1,1.64.74,12.81,12.81,0,0,1,2.72,2.32,22.13,22.13,0,0,1,2.16,2.84,28,28,0,0,1,1.73,3.13,23.12,23.12,0,0,1,1.28,3.33,13.52,13.52,0,0,1,.6,3.52,5.35,5.35,0,0,1-.26,1.77,3.11,3.11,0,0,1-.43.78,2.18,2.18,0,0,1-.7.58,3.13,3.13,0,0,1-1.76.25,3.73,3.73,0,0,1-.44-.08,1.89,1.89,0,0,1-.41-.18,3.85,3.85,0,0,1-.73-.52,10.08,10.08,0,0,1-1.21-1.32c-.37-.46-.71-.95-1-1.45-.66-1-1.26-2-1.83-3.06-1.14-2.09-2.17-4.24-3.12-6.42,1,2.18,2,4.32,3.14,6.41.58,1,1.18,2.06,1.84,3,.33.5.67,1,1,1.45a10.65,10.65,0,0,0,1.21,1.3,4.47,4.47,0,0,0,.72.51,2.09,2.09,0,0,0,.41.17,2,2,0,0,0,.43.08,3.07,3.07,0,0,0,1.72-.25,2.13,2.13,0,0,0,.67-.56,2.51,2.51,0,0,0,.42-.77,5.13,5.13,0,0,0,.25-1.74,13.45,13.45,0,0,0-.6-3.5,23.38,23.38,0,0,0-1.29-3.31,28.62,28.62,0,0,0-1.73-3.11A22.73,22.73,0,0,0,274,236.4a12.51,12.51,0,0,0-2.69-2.29,6.42,6.42,0,0,0-1.61-.71,4.09,4.09,0,0,0-1.74-.13,3.56,3.56,0,0,0-1.6.64,3.83,3.83,0,0,0-1,1.39,8.89,8.89,0,0,0-.6,1.66,14.54,14.54,0,0,0-.37,1.74,22.07,22.07,0,0,0,0,7.07,14.65,14.65,0,0,0,2.72,6.47,11.75,11.75,0,0,0,2.53,2.45,11.93,11.93,0,0,0,3.14,1.6,13.44,13.44,0,0,0,7,.33l.86-.2a2.35,2.35,0,0,0,.4-.14,1.65,1.65,0,0,0,.36-.22,3.11,3.11,0,0,0,.59-.61,4.28,4.28,0,0,0,.43-.75,11,11,0,0,0,.88-3.4,22,22,0,0,0,.11-3.54A29.31,29.31,0,0,0,281,237.43a20.86,20.86,0,0,0-1.7-3.11,14.58,14.58,0,0,0-2.27-2.69,11.24,11.24,0,0,0-2.89-2,10.13,10.13,0,0,0-3.37-.93,12.16,12.16,0,0,0-3.51.16,17.05,17.05,0,0,0-1.71.42l-.42.13-.42.14-.42.15-.42.15a25.24,25.24,0,0,0-6.23,3.33,19.22,19.22,0,0,0-4.8,5.13,20.74,20.74,0,0,0-2.68,6.51,27.69,27.69,0,0,0-.62,7,41.74,41.74,0,0,0,.9,7,42.19,42.19,0,0,0,2,6.81,27,27,0,0,0,3.36,6.21,18.91,18.91,0,0,0,5.1,4.83,17.84,17.84,0,0,0,6.54,2.5,22.77,22.77,0,0,0,7,.08,30,30,0,0,0,6.84-1.8,29.37,29.37,0,0,0,6.25-3.29c.48-.34,1-.7,1.4-1.08s.89-.78,1.32-1.18a26.78,26.78,0,0,0,2.44-2.56,19.19,19.19,0,0,0,2-2.91,15.49,15.49,0,0,0,1.34-3.24,18.72,18.72,0,0,0,.57-7,33,33,0,0,0-1.48-6.92,58.51,58.51,0,0,0-2.63-6.6c-.49-1.07-1-2.14-1.57-3.19s-1.11-2.09-1.7-3.13-1.19-2-1.8-3.07-1.23-2-1.93-3a26.17,26.17,0,0,0-4.83-5.14,21.31,21.31,0,0,0-6.14-3.43,22.23,22.23,0,0,0-3.41-.9,24.4,24.4,0,0,0-3.52-.35,28.73,28.73,0,0,0-7,.74,38.06,38.06,0,0,0-6.72,2.22,44.77,44.77,0,0,0-6.27,3.33,48.11,48.11,0,0,0-5.72,4.21,39.6,39.6,0,0,0-5,5.06,25,25,0,0,0-2,2.89,16.7,16.7,0,0,0-.83,1.56c-.25.53-.45,1.09-.67,1.64a66.69,66.69,0,0,0-2.27,6.74,50.17,50.17,0,0,0-1.92,14,40.82,40.82,0,0,0,.71,7.06,37.42,37.42,0,0,0,2,6.8l.34.82.36.81c.12.27.26.54.39.8s.25.54.4.79c.54,1.06,1.15,2.07,1.78,3.07a41.47,41.47,0,0,0,4.38,5.59,53.35,53.35,0,0,0,11,8.94,55.88,55.88,0,0,0,12.83,6.09,33,33,0,0,0,7,1.38,26.26,26.26,0,0,0,7.08-.33,24.55,24.55,0,0,0,6.71-2.29,28.58,28.58,0,0,0,5.87-4,37.3,37.3,0,0,0,4.86-5.19,50.19,50.19,0,0,0,3.95-5.94A60,60,0,0,0,302,281c.47-1.1.9-2.21,1.3-3.33S304,275.44,304.34,274.3Z"/><path class="cls-2" d="M302,249a38.12,38.12,0,0,1,.25,6.23,56,56,0,0,1-1.87,12.34c-.26,1-.57,2-.88,3l-.51,1.48c-.08.24-.18.49-.27.73l-.28.73-.28.73-.3.72-.31.73c-.1.24-.2.48-.31.71l-.66,1.42c-.1.24-.22.47-.34.7l-.36.7c-.46.94-1,1.84-1.49,2.76-.26.45-.53.89-.8,1.34s-.54.89-.83,1.33a69.26,69.26,0,0,1-7.77,9.8l0,0,0,0a24.24,24.24,0,0,1-2.57,1c-.22.08-.44.13-.66.2l-.67.17-.67.17-.67.13-.68.12-.68.1c-.45,0-.91.12-1.36.15-.92.08-1.83.09-2.75.08a30.22,30.22,0,0,1-5.45-.61,32,32,0,0,1-5.25-1.56,35.57,35.57,0,0,1-4.92-2.41,35,35,0,0,1-4.48-3.15,38.16,38.16,0,0,1-7.32-8.11A40.32,40.32,0,0,1,244,276a46.33,46.33,0,0,1-2.1-5.05,53.1,53.1,0,0,1-1.51-5.24c-.4-1.78-.71-3.57-.95-5.37s-.38-3.62-.46-5.43c0-.91-.06-1.82,0-2.73s0-1.81,0-2.72a87.22,87.22,0,0,1,1.13-10.82c-.25,1.8-.47,3.6-.63,5.4s-.25,3.62-.3,5.43c0,.9,0,1.81,0,2.71s.05,1.81.09,2.72c.11,1.8.26,3.6.51,5.39s.59,3.57,1,5.33a46.83,46.83,0,0,0,1.54,5.19,43.28,43.28,0,0,0,4.85,9.63,37,37,0,0,0,7.23,8,34.11,34.11,0,0,0,9.26,5.44,31,31,0,0,0,10.5,2.15,24.25,24.25,0,0,0,10.47-2l-.08.06a69,69,0,0,0,7.75-9.7c.29-.43.56-.87.83-1.31s.56-.88.82-1.32c.5-.91,1-1.8,1.5-2.72l.36-.69c.12-.23.24-.46.35-.7l.67-1.4c.11-.23.21-.47.31-.71l.31-.72.31-.71.29-.72.28-.73c.1-.24.19-.48.28-.72l.51-1.47c.32-1,.65-2,.92-3a60,60,0,0,0,1.36-6.08,55.61,55.61,0,0,0,.68-6.18A39.27,39.27,0,0,0,302,249Z"/><path class="cls-2" d="M295.34,265.71a28.37,28.37,0,0,1-.8,2.87c-.31.95-.65,1.89-1,2.81a33.45,33.45,0,0,1-2.78,5.3,25.24,25.24,0,0,1-3.81,4.64,19,19,0,0,1-5,3.42,17.57,17.57,0,0,1-5.83,1.52,20.29,20.29,0,0,1-3,0,23,23,0,0,1-3-.45,30.32,30.32,0,0,1-5.67-1.93l-1.34-.65-1.32-.7-1.3-.74-1.26-.8,1.31.72,1.32.68,1.34.63,1.37.59c.92.37,1.84.72,2.79,1a25.54,25.54,0,0,0,2.86.74c.48.09,1,.18,1.45.24s1,.11,1.47.15a20.45,20.45,0,0,0,2.93,0,16.67,16.67,0,0,0,5.63-1.5,18.24,18.24,0,0,0,4.83-3.28,25.58,25.58,0,0,0,3.81-4.49,35.73,35.73,0,0,0,2.9-5.16A38.75,38.75,0,0,0,295.34,265.71Z"/><path class="cls-2" d="M292.25,284.88a37.7,37.7,0,0,1-5,2.65,43.06,43.06,0,0,1-5.29,2c-.9.27-1.82.49-2.74.69s-1.85.36-2.79.47a26.88,26.88,0,0,1-5.67.15,22.1,22.1,0,0,1-5.56-1.15c-.45-.14-.89-.33-1.33-.51-.22-.08-.44-.19-.65-.29l-.65-.31c-.21-.1-.41-.22-.62-.33l-.63-.35-.6-.38c-.2-.13-.41-.25-.6-.39a24.26,24.26,0,0,1-4.25-3.78l-.46-.54-.24-.27-.22-.28-.43-.56c-.15-.19-.3-.37-.43-.57l-.82-1.17-.75-1.2a42.1,42.1,0,0,1-2.54-5.07c-.19-.43-.35-.88-.53-1.32l-.26-.65c-.08-.23-.15-.45-.23-.67l-.47-1.34c-.14-.45-.28-.9-.41-1.35a76,76,0,0,1-2.41-11c-.54-3.72-.89-7.47-1.08-11.23,0-.47-.05-.94-.07-1.41l0-1.41c0-.47,0-.94-.05-1.4l0-1.41c0-.94,0-1.88,0-2.82l0-2.82c.05,1.88.07,3.76.15,5.63l0,1.41c0,.47.06.94.08,1.4l.08,1.41c0,.47.06.94.1,1.4.25,3.75.65,7.48,1.25,11.18.15.93.32,1.85.49,2.77s.37,1.83.56,2.75l.33,1.36c.11.46.2.92.34,1.37.25.9.47,1.81.77,2.69.14.45.27.9.42,1.34l.46,1.32c.08.22.15.44.24.66l.25.65c.18.44.34.87.53,1.3a41.64,41.64,0,0,0,2.52,5,26.11,26.11,0,0,0,7.4,8.21c.19.14.39.26.58.39l.59.37c.19.13.4.23.6.35l.61.33.63.3c.21.1.41.21.63.29.43.17.85.37,1.29.51l.66.23.67.19c.44.14.9.23,1.35.34.22.06.45.09.68.14l.69.12.69.09.34,0,.35,0a27.39,27.39,0,0,0,5.58-.07c.93-.09,1.85-.25,2.77-.42s1.83-.41,2.73-.65a41.66,41.66,0,0,0,5.31-1.84c.86-.36,1.72-.75,2.56-1.16S291.44,285.37,292.25,284.88Z"/><path class="cls-2" d="M244.44,234.79a44.6,44.6,0,0,1,5.92-5.82,35.94,35.94,0,0,1,7-4.55,21.36,21.36,0,0,1,8-2.23,15.53,15.53,0,0,1,8.14,1.73,18.81,18.81,0,0,1,3.48,2.35,24.51,24.51,0,0,1,3,3,39.28,39.28,0,0,1,4.6,7,34.55,34.55,0,0,1,3.07,7.77,25.66,25.66,0,0,1,.77,8.33,23.37,23.37,0,0,1-.68,4.14,22.19,22.19,0,0,1-1.43,4,21.22,21.22,0,0,1-2.18,3.59,16.49,16.49,0,0,1-2.93,3,10.15,10.15,0,0,1-1.8,1.14,5.8,5.8,0,0,1-1,.4,4.06,4.06,0,0,1-1.1.16c-.7,0-1.39,0-2.09-.06s-1.39-.1-2.09-.19a22.93,22.93,0,0,1-4.09-.88,15.94,15.94,0,0,1-3.82-1.76A12.88,12.88,0,0,1,262,263a14,14,0,0,1-2-3.65,15.47,15.47,0,0,1-.63-2,20.65,20.65,0,0,1-.41-2.05,26.44,26.44,0,0,1-.28-4.16,47.8,47.8,0,0,1,.81-8.28c.49-2.73,1.15-5.43,1.9-8.09-.7,2.68-1.3,5.38-1.75,8.11a47.62,47.62,0,0,0-.7,8.25c0,.69,0,1.38.1,2.07s.13,1.37.23,2.05.25,1.35.42,2a17.09,17.09,0,0,0,.64,1.95,13.4,13.4,0,0,0,2,3.54,12.44,12.44,0,0,0,3,2.7,15.85,15.85,0,0,0,3.73,1.68,22.57,22.57,0,0,0,4,.82c.68.08,1.36.14,2.05.18s1.37,0,2.06,0a4.19,4.19,0,0,0,1.87-.51,9.26,9.26,0,0,0,1.7-1.09,16.36,16.36,0,0,0,2.83-2.93,20.5,20.5,0,0,0,2.1-3.51,21.9,21.9,0,0,0,2-7.9,26,26,0,0,0-.76-8.14,33.92,33.92,0,0,0-3-7.66,38.85,38.85,0,0,0-4.51-6.88,21.31,21.31,0,0,0-6.26-5.24,15.35,15.35,0,0,0-3.83-1.42,15.15,15.15,0,0,0-2-.31,15.56,15.56,0,0,0-2.05,0,21.09,21.09,0,0,0-7.91,2.11,35.93,35.93,0,0,0-7,4.41c-1.08.85-2.13,1.76-3.13,2.71A40.65,40.65,0,0,0,244.44,234.79Z"/><path class="cls-2" d="M261.37,234.79c-.61.78-1.18,1.6-1.72,2.43s-1.06,1.67-1.55,2.54a36.92,36.92,0,0,0-2.51,5.37,26.09,26.09,0,0,0-1.47,5.73,19.44,19.44,0,0,0-.15,2.95,18.13,18.13,0,0,0,.33,2.93c.18,1,.39,1.94.64,2.89s.52,1.91.85,2.84a23.36,23.36,0,0,0,2.58,5.29,15.76,15.76,0,0,0,4.05,4.21A14.29,14.29,0,0,0,265,273.4a17.12,17.12,0,0,0,2.79.9,22.61,22.61,0,0,0,5.86.46c1-.05,2-.14,2.95-.26a6,6,0,0,0,2.6-1.17,13.44,13.44,0,0,0,2.14-2,25.68,25.68,0,0,0,1.83-2.33c1.14-1.61,2.16-3.31,3.14-5s1.91-3.48,2.9-5.2c.25-.43.51-.86.78-1.28.14-.21.28-.42.44-.62a3.1,3.1,0,0,1,.53-.56.66.66,0,0,1,.43-.15.37.37,0,0,1,.24.1l.06.06.06,0h.07a.2.2,0,0,0,.08-.08A1.46,1.46,0,0,0,292,256a7.73,7.73,0,0,0,.24-1.44c.1-1,.13-2,.15-3s0-2,0-3,0-2-.07-3-.06-2-.1-3c.13,2,.23,4,.29,6,0,1,0,2,0,3s0,2-.1,3a7.11,7.11,0,0,1-.24,1.49,1.19,1.19,0,0,1-.16.37.55.55,0,0,1-.17.17.4.4,0,0,1-.15,0,.33.33,0,0,1-.14,0l-.1-.06-.07-.06a.19.19,0,0,0-.1,0,.56.56,0,0,0-.26.11,3.44,3.44,0,0,0-.48.52c-.15.19-.28.4-.42.6-.26.42-.51.85-.75,1.28-1,1.72-1.88,3.49-2.85,5.23a54.17,54.17,0,0,1-3.12,5.09,27.81,27.81,0,0,1-1.85,2.36,13.88,13.88,0,0,1-2.2,2.06,6.51,6.51,0,0,1-2.78,1.25c-1,.13-2,.22-3,.27a21.9,21.9,0,0,1-6-.45,15.93,15.93,0,0,1-2.86-.93,14.18,14.18,0,0,1-2.63-1.48A16.28,16.28,0,0,1,258,268a24.17,24.17,0,0,1-2.61-5.39,37.59,37.59,0,0,1-1.46-5.8,17.51,17.51,0,0,1-.31-3,18.82,18.82,0,0,1,.19-3,25.92,25.92,0,0,1,1.54-5.76A36.41,36.41,0,0,1,258,239.7,38.44,38.44,0,0,1,261.37,234.79Z"/><path class="cls-2" d="M269.26,254.61a21.74,21.74,0,0,0,1.48,2.51,16.48,16.48,0,0,0,1.82,2.24,10.65,10.65,0,0,0,2.25,1.77,6.51,6.51,0,0,0,2.66.86,6.43,6.43,0,0,0,2.78-.38,8.33,8.33,0,0,0,1.3-.58c.21-.12.42-.23.62-.36l.3-.2.3-.2a17.69,17.69,0,0,0,2.2-1.87,28.66,28.66,0,0,0,2-2.14,19.29,19.29,0,0,1-4,4.29,13.23,13.23,0,0,1-1.23.83,9.22,9.22,0,0,1-1.35.63,6.76,6.76,0,0,1-3,.43,7,7,0,0,1-2.84-.95,10.11,10.11,0,0,1-2.28-1.89,14.87,14.87,0,0,1-1.75-2.36c-.25-.42-.49-.85-.71-1.29A12.36,12.36,0,0,1,269.26,254.61Z"/><path class="cls-2" d="M209.84,286.05a16.35,16.35,0,0,1-.38,3.41,22.47,22.47,0,0,1-1,3.32,22,22,0,0,1-3.38,6l-.27.33a3,3,0,0,1-.28.33l-.58.65-.6.62-.31.31-.32.29a21.53,21.53,0,0,1-2.73,2.13,24,24,0,0,1-6.21,2.92,31.93,31.93,0,0,0,5.95-3.3L200,303l.17-.13.33-.26.34-.26.17-.13.16-.14.64-.55c.22-.18.42-.38.62-.57l.31-.29.3-.3c.19-.21.39-.41.58-.61l.56-.64c.19-.21.35-.44.53-.66a24.26,24.26,0,0,0,3.42-5.81,26,26,0,0,0,1.1-3.22A22.17,22.17,0,0,0,209.84,286.05Z"/><path class="cls-2" d="M211.8,293.5a2.73,2.73,0,0,1,.18.68,5.06,5.06,0,0,1,.05.68,5.31,5.31,0,0,1-.05.68,2.38,2.38,0,0,1-.18.67,2.75,2.75,0,0,1-.17-.67,4,4,0,0,1,0-.68,5.06,5.06,0,0,1,0-.68A2.71,2.71,0,0,1,211.8,293.5Z"/><path class="cls-2" d="M207.45,301.41a6.78,6.78,0,0,1,1.94-1.86,5.15,5.15,0,0,1,2.57-.83,5.71,5.71,0,0,1,2.66.58c.2.1.41.19.6.31l.3.18.28.18c.19.13.37.27.55.41l.54.4c.72.54,1.48,1,2.24,1.51.38.24.77.46,1.16.7l1.17.67q2.35,1.33,4.75,2.59c3.19,1.68,6.42,3.29,9.67,4.87l4.88,2.35c1.63.77,3.26,1.55,4.89,2.3l-.14,0a12.79,12.79,0,0,1,1.38,0c.45,0,.91,0,1.36.08a13.64,13.64,0,0,1,2.67.56,10.32,10.32,0,0,1,4.63,2.86c.16.17.3.35.45.52l.21.28.2.26a3.34,3.34,0,0,0,.92.83,7.65,7.65,0,0,0,2.38,1,15.11,15.11,0,0,0,2.6.39,23.4,23.4,0,0,0,2.65.05,37.83,37.83,0,0,0,5.29-.56q2.63-.46,5.2-1.17a81.83,81.83,0,0,0,10.08-3.52,133.94,133.94,0,0,0,18.91-10q2.26-1.42,4.49-2.93c1.49-1,2.95-2,4.41-3,2.91-2.08,5.76-4.23,8.58-6.43q-4.14,3.4-8.46,6.59c-1.44,1.06-2.89,2.11-4.37,3.12s-3,2-4.46,3c-.75.49-1.51,1-2.27,1.44s-1.52.94-2.29,1.39c-1.54.92-3.09,1.81-4.67,2.66-3.14,1.72-6.36,3.3-9.66,4.7a82.42,82.42,0,0,1-10.14,3.58A46.54,46.54,0,0,1,265,323.11c-.91,0-1.81,0-2.71-.06a15.47,15.47,0,0,1-2.7-.42,8.25,8.25,0,0,1-2.56-1.05,4,4,0,0,1-1-1l-.2-.27-.2-.26c-.14-.16-.27-.33-.42-.49a9.83,9.83,0,0,0-4.38-2.72,13.2,13.2,0,0,0-2.57-.54c-.44-.05-.87-.08-1.31-.09a11.35,11.35,0,0,0-1.31,0h-.07l-.07,0q-4.91-2.29-9.76-4.71c-3.23-1.62-6.45-3.26-9.63-5q-2.39-1.28-4.73-2.64l-1.16-.7L219,302.5c-.76-.49-1.51-1-2.23-1.55l-.53-.42c-.18-.14-.35-.28-.54-.41l-.28-.19-.28-.17c-.19-.12-.39-.22-.59-.32a5.66,5.66,0,0,0-2.58-.61,5.07,5.07,0,0,0-2.54.77,6.94,6.94,0,0,0-2,1.81Z"/><path class="cls-2" d="M244.44,316a26.4,26.4,0,0,0,2.67,2.41c.47.37.95.72,1.45,1.05a15.76,15.76,0,0,0,1.54.89,10.8,10.8,0,0,0,3.34,1.12,9.53,9.53,0,0,0,1.77.06,9.77,9.77,0,0,0,1.76-.34,6.58,6.58,0,0,1-1.73.55,7.55,7.55,0,0,1-1.84.07,9.11,9.11,0,0,1-1.8-.36,11.58,11.58,0,0,1-1.71-.7,14.83,14.83,0,0,1-3-2.07c-.46-.4-.89-.83-1.31-1.27A14,14,0,0,1,244.44,316Z"/><path class="cls-2" d="M321.18,300.58l-2.37.93c-.78.33-1.56.66-2.32,1a20.57,20.57,0,0,0-2.21,1.21,8.48,8.48,0,0,0-1.93,1.62,4.94,4.94,0,0,1,.76-1.05,8,8,0,0,1,1-.86c.34-.26.71-.49,1.08-.72s.75-.41,1.14-.6.78-.36,1.18-.51.8-.31,1.21-.43A16.74,16.74,0,0,1,321.18,300.58Z"/><path class="cls-2" d="M195.12,311.53a23.85,23.85,0,0,1,2.73-2.17,25.83,25.83,0,0,1,3-1.81,26.1,26.1,0,0,1,3.2-1.41,21.93,21.93,0,0,1,3.38-.92,20.57,20.57,0,0,1,3.5-.36,21.68,21.68,0,0,1,3.5.31,20.53,20.53,0,0,1,6.55,2.5q3,1.74,6,3.54c1,.6,2,1.21,3,1.82l3,1.85c2,1.25,3.93,2.51,5.87,3.8s3.88,2.58,5.79,3.92l0,0a33,33,0,0,0,4.06,1.42c1.38.4,2.79.73,4.2,1a59.18,59.18,0,0,0,8.59,1,63,63,0,0,0,17.19-1.71c.7-.17,1.39-.36,2.09-.55l1.05-.28,1-.33,1-.32.51-.16.51-.18,2-.74.51-.18.5-.21,1-.41,1-.41c.17-.07.34-.13.5-.21l.49-.23,2-.91.49-.22.49-.25,1-.5a91.74,91.74,0,0,0,14.56-9.43h0q2.37-1.1,4.8-2.06c.81-.32,1.62-.62,2.45-.89.42-.13.83-.25,1.26-.35l.32-.07.32-.05a1.77,1.77,0,0,1,.65,0,1.58,1.58,0,0,0-.65,0l-.32,0-.32.08c-.42.1-.83.23-1.24.37-.82.29-1.63.61-2.43.94-1.61.66-3.19,1.38-4.75,2.14v0l-1.71,1.34-.86.67-.43.34-.43.33-1.78,1.26-.88.64-.45.31-.46.29-1.83,1.19c-.3.19-.6.4-.91.59l-.94.55-1.88,1.1-.24.14-.24.13-.48.25-1,.51-1,.51-.48.26-.49.23-2,.94-.5.23-.5.22-1,.42-1,.42-.5.21-.51.19-2.05.76-.52.19-.52.16-1,.33-1,.33c-.34.11-.7.19-1.05.29-.7.19-1.4.39-2.11.56a63.18,63.18,0,0,1-17.33,1.78,55.1,55.1,0,0,1-8.68-1c-1.43-.29-2.85-.62-4.25-1a35.13,35.13,0,0,1-4.14-1.46h0l0,0c-1.9-1.33-3.83-2.64-5.77-3.93s-3.88-2.56-5.84-3.8c-3.93-2.5-7.89-4.95-11.9-7.3a20.14,20.14,0,0,0-6.41-2.52,21,21,0,0,0-3.44-.34,19.93,19.93,0,0,0-3.45.3,20.45,20.45,0,0,0-3.36.86,26.57,26.57,0,0,0-3.21,1.35,29.11,29.11,0,0,0-3,1.75A23.8,23.8,0,0,0,195.12,311.53Z"/><path class="cls-2" d="M198.8,313.51a20.44,20.44,0,0,1,3.93-1.09l.5-.09.5-.08c.34-.06.68-.1,1-.14l1-.1,1-.07a32.84,32.84,0,0,1,4.09,0,37.43,37.43,0,0,1,4.07.52,39.06,39.06,0,0,1,7.84,2.34,46.69,46.69,0,0,1,7.25,3.79h0c1.16.53,2.31,1.08,3.49,1.58l.88.38.88.35c.3.12.59.25.89.36l.9.33c.59.24,1.2.41,1.81.62s1.22.37,1.84.51l.46.11.47.08c.32.06.63.09,1,.13s.63,0,.95,0a2,2,0,0,0,.91-.26,1.83,1.83,0,0,1-.9.31,6.31,6.31,0,0,1-1,.05c-.32,0-.64,0-1-.09l-.48-.06-.47-.09c-.64-.11-1.26-.27-1.88-.43l-.93-.27c-.31-.08-.61-.18-.92-.29l-.91-.3-.9-.33-.9-.34-.9-.36c-.59-.25-1.19-.48-1.77-.74l-1.76-.78h0a48.87,48.87,0,0,0-7.2-3.69,42.25,42.25,0,0,0-7.72-2.36,38,38,0,0,0-8-.73A28.56,28.56,0,0,0,198.8,313.51Z"/><path class="cls-2" d="M200.27,317.84c1.39-.07,2.79-.06,4.19,0s2.78.13,4.18.24,2.78.28,4.16.48,2.76.44,4.13.71,2.74.61,4.09,1,2.69.8,4,1.27l1,.36,1,.39.49.2.48.22c.32.14.64.27,1,.43a40,40,0,0,1,3.71,2h0a25.6,25.6,0,0,0,3.49,1.32c1.2.36,2.41.66,3.63.94s2.46.51,3.7.72,2.48.41,3.73.58q3.74.51,7.5.82c1.26.11,2.51.2,3.77.27.63,0,1.26.06,1.89.07l.94,0a5.86,5.86,0,0,0,.94-.06,4.83,4.83,0,0,1-.94.1c-.31,0-.63,0-.94,0-.63,0-1.26,0-1.89,0-1.27,0-2.53-.08-3.79-.14-2.51-.14-5-.35-7.54-.65s-5-.69-7.48-1.21q-1.86-.39-3.69-.93a24.52,24.52,0,0,1-3.58-1.34h0c-1.19-.7-2.4-1.37-3.65-2l-.95-.43-.47-.21-.48-.2-1-.39-1-.37a61.29,61.29,0,0,0-8-2.3,79.28,79.28,0,0,0-8.23-1.35A75,75,0,0,0,200.27,317.84Z"/><path class="cls-2" d="M201.62,323.13q3.74.48,7.46,1.1c2.48.41,5,.85,7.43,1.35,1.23.24,2.46.51,3.68.8s2.45.59,3.66.94,2.42.72,3.6,1.18c.15.06.3.11.44.18l.44.19a8.48,8.48,0,0,1,.86.41c.15.07.28.16.42.24l.41.24.4.22.41.21a22.53,22.53,0,0,0,3.52,1.22c1.21.32,2.43.58,3.66.81s2.47.43,3.71.6,2.48.32,3.73.43c2.5.24,5,.38,7.51.4,1.25,0,2.5,0,3.74-.09.32,0,.63,0,.94-.07s.61-.06.92-.1.61-.08.92-.13l.45-.09.45-.1.44-.12.42-.15c.3-.13.61-.22.92-.32.61-.18,1.22-.34,1.83-.49,1.22-.31,2.45-.59,3.67-.87,2.46-.55,4.91-1.09,7.37-1.62l7.36-1.63,3.68-.84,3.67-.85c4.89-1.15,9.76-2.36,14.58-3.8,2.4-.71,4.8-1.48,7.13-2.4a30.14,30.14,0,0,0,3.42-1.56,12.55,12.55,0,0,0,1.59-1,3.86,3.86,0,0,0,1.23-1.4,4,4,0,0,1-1.2,1.44,14.8,14.8,0,0,1-1.57,1.05,33.29,33.29,0,0,1-3.41,1.63c-2.32,1-4.71,1.77-7.11,2.53-4.8,1.5-9.67,2.76-14.56,4l-3.66.89-3.68.85L275.15,330q-3.69.81-7.36,1.65-1.83.42-3.66.87c-.6.16-1.21.32-1.8.5-.3.09-.59.19-.86.3l-.47.17-.47.13-.48.1-.47.1c-.31,0-.63.1-.95.13l-.94.1-.95.06c-1.27.08-2.53.1-3.79.08-2.52,0-5-.18-7.55-.43-1.25-.12-2.51-.27-3.75-.44s-2.5-.38-3.74-.62-2.47-.51-3.69-.84a21.85,21.85,0,0,1-3.58-1.29l-.43-.22c-.15-.07-.28-.16-.42-.24l-.41-.24-.39-.24c-.28-.13-.55-.29-.83-.41l-.43-.19-.43-.17c-1.16-.47-2.35-.85-3.55-1.21s-2.42-.67-3.64-1-2.44-.58-3.66-.85C211.54,324.79,206.59,323.91,201.62,323.13Z"/><path class="cls-2" d="M319.16,311.17q-4.05,1.53-8.09,3.1c-1.34.53-2.69,1.05-4,1.59s-2.68,1.08-4,1.65-2.65,1.13-4,1.73-2.61,1.22-3.89,1.87a39.32,39.32,0,0,0-3.73,2.16,13.47,13.47,0,0,0-1.69,1.32,5.4,5.4,0,0,0-.72.79,2.33,2.33,0,0,0-.45,1,2.34,2.34,0,0,1,.38-1,5.09,5.09,0,0,1,.67-.86A12.44,12.44,0,0,1,291.3,323,33.55,33.55,0,0,1,295,320.7q.94-.52,1.92-1l2-.95c1.31-.62,2.64-1.2,4-1.77s2.67-1.1,4-1.63,2.7-1,4.07-1.5C313.63,312.87,316.38,312,319.16,311.17Z"/><path class="cls-2" d="M206,329.84c1.11.37,2.23.7,3.35,1s2.25.63,3.38.92q3.39.86,6.82,1.55c4.56.95,9.17,1.69,13.8,2.23a161.71,161.71,0,0,0,27.91.93c2.33-.13,4.65-.3,7-.53s4.63-.52,6.93-.85,4.6-.74,6.89-1.2l1.71-.36,1.7-.37,1.71-.39c.57-.13,1.13-.28,1.69-.42a134.3,134.3,0,0,0,26.25-9.55l-1.56.79c-.52.27-1,.53-1.57.78l-1.58.75c-.53.25-1.07.48-1.6.72-2.13,1-4.29,1.85-6.47,2.69l-1.64.61c-.55.21-1.1.4-1.65.59l-1.66.57-1.67.54c-.28.09-.55.19-.83.27l-.84.25-1.68.51c-1.13.31-2.25.64-3.38.93a131.23,131.23,0,0,1-13.74,2.82q-3.47.53-6.95.89t-7,.55c-4.67.24-9.35.28-14,.09s-9.34-.55-14-1.16-9.25-1.39-13.81-2.39q-3.42-.76-6.8-1.69C210.43,331.31,208.2,330.64,206,329.84Z"/><path class="cls-2" d="M209.1,337c1.18.12,2.35.27,3.51.44l3.49.51,1.74.25,1.74.22c.58.07,1.16.13,1.74.15a5.06,5.06,0,0,0,.87,0,1.42,1.42,0,0,0,.41-.08.41.41,0,0,0,.31-.27.46.46,0,0,1-.27.35,2.17,2.17,0,0,1-.42.17,7.13,7.13,0,0,1-.89.14,15.3,15.3,0,0,1-1.79,0c-.59,0-1.18-.08-1.77-.13s-1.17-.14-1.76-.22l-1.75-.29c-.58-.12-1.16-.22-1.73-.35C211.38,337.65,210.23,337.37,209.1,337Z"/><path class="cls-2" d="M211.8,343.56a260.33,260.33,0,0,1,25.94-3.4l1.63-.12L241,340c1.09-.07,2.18-.09,3.27-.12l.82,0h.82l1.64,0c.55,0,1.09,0,1.64.06l1.64.09c2.16.16,4.34.19,6.51.17s4.35-.09,6.52-.22a181.94,181.94,0,0,0,25.89-3.25c2.13-.43,4.25-.92,6.36-1.45s4.19-1.16,6.26-1.84a63.17,63.17,0,0,0,6.07-2.39l.74-.35c.24-.12.49-.23.73-.36l1.43-.78,1.4-.85,1.34-.93-1.32,1-1.37.89-1.43.81c-.23.14-.48.25-.72.37l-.73.37a60.11,60.11,0,0,1-6,2.52c-2.07.72-4.16,1.36-6.26,1.94s-4.23,1.08-6.37,1.53c-.53.12-1.07.22-1.6.33s-1.07.23-1.61.32l-1.61.3-1.61.27c-1.08.19-2.16.34-3.24.51l-1.62.23-1.62.22q-6.49.82-13,1.21-3.27.18-6.55.2c-2.18,0-4.37,0-6.55-.2l-1.63-.09c-.54,0-1.08-.08-1.62-.07l-1.63,0h-.82l-.81,0-1.63,0c-.54,0-1.09.05-1.63.07l-1.63.07-1.63.09c-4.34.28-8.68.71-13,1.21q-3.24.38-6.48.81l-3.24.45Z"/><path class="cls-2" d="M217.8,347.24c1.92-.27,3.83-.5,5.75-.72s3.85-.44,5.77-.63c3.85-.38,7.7-.71,11.57-.94,1.93-.12,3.86-.22,5.8-.27s3.87-.07,5.81,0c1,0,1.94.08,2.91.17a23.84,23.84,0,0,1,2.9.42,9.08,9.08,0,0,1,1.44.41,5.7,5.7,0,0,0,1.34.3,15.84,15.84,0,0,0,2.84,0,50.44,50.44,0,0,0,5.7-.81c1.89-.36,3.77-.78,5.65-1.23,3.75-.9,7.48-1.94,11.19-3s7.4-2.21,11.08-3.39,7.36-2.37,11-3.61l-2.72,1-2.73,1c-1.82.65-3.65,1.28-5.48,1.91q-5.49,1.85-11,3.55l-2.78.83L281,343q-2.8.78-5.62,1.48c-1.88.46-3.77.89-5.67,1.26a50.71,50.71,0,0,1-5.77.82,17.1,17.1,0,0,1-3,0,6.06,6.06,0,0,1-1.49-.34,8.3,8.3,0,0,0-1.34-.39,22.45,22.45,0,0,0-2.83-.42c-1-.08-1.92-.14-2.88-.17-3.85-.14-7.71,0-11.57.16s-7.71.46-11.56.78S221.65,346.85,217.8,347.24Z"/><path class="cls-2" d="M232.66,353.86c2.38-.48,4.76-1,7.13-1.46l3.55-.76q1.77-.39,3.54-.81c1.18-.27,2.35-.57,3.52-.88s2.33-.64,3.48-1,2.31-.74,3.43-1.18a18.15,18.15,0,0,0,3.25-1.6,15.33,15.33,0,0,1-3.14,1.87,34.17,34.17,0,0,1-3.39,1.35c-1.15.4-2.32.75-3.48,1.09s-2.35.63-3.54.91-2.36.54-3.55.78-2.39.47-3.59.67C237.48,353.27,235.08,353.62,232.66,353.86Z"/><path class="cls-2" d="M222.91,351.65a17,17,0,0,1,1.75-.17l.87,0h.87c.59,0,1.17,0,1.75.05a17,17,0,0,1,1.75.17,14.61,14.61,0,0,1-1.75.18c-.58,0-1.16.05-1.75.05h-.87l-.87,0A14.61,14.61,0,0,1,222.91,351.65Z"/><path class="cls-2" d="M305.79,340.59c-4.48,1.56-9,3-13.53,4.41-2.26.7-4.54,1.37-6.81,2s-4.56,1.3-6.85,1.93-4.58,1.22-6.88,1.8-4.61,1.12-6.94,1.61-4.65.95-7,1.31c-1.17.17-2.35.32-3.54.4a17.63,17.63,0,0,1-1.78.05,5.79,5.79,0,0,1-1.76-.28,5.49,5.49,0,0,0,1.76.16,17.38,17.38,0,0,0,1.76-.14c1.17-.14,2.34-.33,3.5-.55s2.32-.46,3.48-.72,2.3-.52,3.45-.8c2.3-.55,4.6-1.12,6.89-1.73s4.58-1.2,6.86-1.83,4.57-1.25,6.85-1.89l6.85-1.92Q298.94,342.51,305.79,340.59Z"/><path class="cls-2" d="M269.26,355.33a5.64,5.64,0,0,1,1.05-.23,9.22,9.22,0,0,1,2.1,0,5.64,5.64,0,0,1,1,.23,5,5,0,0,1-1,.24,9.22,9.22,0,0,1-2.1,0A5,5,0,0,1,269.26,355.33Z"/><path class="cls-2" d="M281.25,353.86a10.29,10.29,0,0,1,1.37-.59,17.56,17.56,0,0,1,2.85-.74,9.16,9.16,0,0,1,1.48-.14,10.23,10.23,0,0,1-1.36.6c-.47.16-.94.3-1.41.43s-1,.22-1.44.3A9.17,9.17,0,0,1,281.25,353.86Z"/></g><rect class="cls-2" x="133.11" y="253.34" width="242.81" height="0.44"/></svg>