<svg id="图层_1" data-name="图层 1" xmlns="http://www.w3.org/2000/svg" xmlns:xlink="http://www.w3.org/1999/xlink" viewBox="0 0 1920 145.78"><defs><style>.cls-1{fill:#191e2d;}.cls-2{fill:url(#未命名的渐变_52);}.cls-3{fill:url(#未命名的渐变_52-2);}.cls-4{fill:url(#未命名的渐变_60);}.cls-5{fill:url(#未命名的渐变_431);}.cls-6{fill:url(#未命名的渐变_431-2);}.cls-7{fill:url(#未命名的渐变_431-3);}</style><linearGradient id="未命名的渐变_52" x1="7.65" y1="59.81" x2="671.65" y2="59.81" gradientUnits="userSpaceOnUse"><stop offset="0" stop-color="#e6e6e6" stop-opacity="0"/><stop offset="1" stop-color="#e6e6e6" stop-opacity="0.3"/></linearGradient><linearGradient id="未命名的渐变_52-2" x1="2767" y1="59.74" x2="3431" y2="59.74" gradientTransform="matrix(-1, 0, 0, 1, 4674, 0)" xlink:href="#未命名的渐变_52"/><linearGradient id="未命名的渐变_60" x1="2390.54" y1="-12.07" x2="1663.45" y2="-12.07" gradientTransform="translate(2985.5 47.74) rotate(180)" gradientUnits="userSpaceOnUse"><stop offset="0" stop-color="#e6e6e6" stop-opacity="0.2"/><stop offset="0.5" stop-color="#e6e6e6" stop-opacity="0.2"/><stop offset="1" stop-color="#e6e6e6" stop-opacity="0.2"/></linearGradient><linearGradient id="未命名的渐变_431" x1="339.65" y1="119.75" x2="339.65" y2="97.78" gradientUnits="userSpaceOnUse"><stop offset="0" stop-color="#e6e6e6" stop-opacity="0"/><stop offset="0.14" stop-color="#e6e6e6" stop-opacity="0.2"/><stop offset="0.39" stop-color="#e6e6e6" stop-opacity="0.18"/><stop offset="0.66" stop-color="#e6e6e6" stop-opacity="0.12"/><stop offset="0.94" stop-color="#e6e6e6" stop-opacity="0.02"/><stop offset="1" stop-color="#e6e6e6" stop-opacity="0"/></linearGradient><linearGradient id="未命名的渐变_431-2" x1="1575" y1="119.78" x2="1575" y2="97.8" xlink:href="#未命名的渐变_431"/><linearGradient id="未命名的渐变_431-3" x1="958.51" y1="122.75" x2="958.51" y2="100.78" xlink:href="#未命名的渐变_431"/></defs><title>大屏 小配件nnn</title><rect class="cls-1" width="1920" height="145.78" transform="translate(1920 145.78) rotate(180)"/><polygon class="cls-2" points="671.65 94.78 7.65 94.78 78.5 57.78 575.63 24.85 671.65 94.78"/><polygon class="cls-3" points="1243 94.7 1907 94.7 1836.15 57.78 1339.02 24.78 1243 94.7"/><polygon class="cls-4" points="594.96 24.85 1322.05 24.85 1227.24 94.78 690.98 94.78 594.96 24.85"/><polygon class="cls-5" points="671.65 97.78 7.65 97.78 575.63 119.75 671.65 97.78"/><polygon class="cls-6" points="1243 97.8 1907 97.8 1339.02 119.78 1243 97.8"/><polygon class="cls-7" points="594.96 119.75 1322.05 119.75 1227.24 97.78 690.98 97.78 594.96 119.75"/></svg>