<svg id="图层_1" data-name="图层 1" xmlns="http://www.w3.org/2000/svg" viewBox="0 0 512 512"><defs><style>.cls-1{fill:#ededed;}.cls-2{fill:#d3911c;}.cls-3{fill:#666;}</style></defs><title>大屏 小配件nnn</title><g id="_编组_" data-name="&lt;编组&gt;"><path id="_路径_" data-name="&lt;路径&gt;" class="cls-1" d="M329.62,212.87h-9V197.18a6.18,6.18,0,0,0-6.17-6.17H299.51v-9h14.93a15.2,15.2,0,0,1,15.18,15.18Z"/><path id="_路径_2" data-name="&lt;路径&gt;" class="cls-1" d="M191.39,212.87h-9V197.18A15.2,15.2,0,0,1,197.56,182h14.93v9H197.56a6.18,6.18,0,0,0-6.17,6.17Z"/><path id="_路径_3" data-name="&lt;路径&gt;" class="cls-1" d="M314.44,330H299.51v-9h14.93a6.18,6.18,0,0,0,6.17-6.17V299.13h9v15.69A15.2,15.2,0,0,1,314.44,330Z"/><path id="_路径_4" data-name="&lt;路径&gt;" class="cls-1" d="M212.49,330H197.56a15.2,15.2,0,0,1-15.18-15.18V299.13h9v15.69a6.18,6.18,0,0,0,6.17,6.17h14.93Z"/><path id="_复合路径_" data-name="&lt;复合路径&gt;" class="cls-2" d="M296.42,312.51H214.16A15.2,15.2,0,0,1,199,297.33V215.06a15.2,15.2,0,0,1,15.18-15.17h82.26a15.2,15.2,0,0,1,15.18,15.17v82.27A15.2,15.2,0,0,1,296.42,312.51ZM214.16,208.9a6.17,6.17,0,0,0-6.17,6.16v82.27a6.18,6.18,0,0,0,6.17,6.17h82.26a6.18,6.18,0,0,0,6.17-6.17V215.06a6.17,6.17,0,0,0-6.17-6.16Z"/><path id="_复合路径_2" data-name="&lt;复合路径&gt;" class="cls-3" d="M273.9,290H236.68A15.2,15.2,0,0,1,221.5,274.8V237.59a15.2,15.2,0,0,1,15.18-15.18H273.9a15.2,15.2,0,0,1,15.18,15.18V274.8A15.2,15.2,0,0,1,273.9,290Zm-37.22-58.56a6.18,6.18,0,0,0-6.17,6.17V274.8a6.17,6.17,0,0,0,6.17,6.17H273.9a6.17,6.17,0,0,0,6.17-6.17V237.59a6.18,6.18,0,0,0-6.17-6.17Z"/></g></svg>