<svg id="图层_1" data-name="图层 1" xmlns="http://www.w3.org/2000/svg" viewBox="0 0 512 512"><defs><style>.cls-1{fill:#191e2d;}.cls-2{fill:#fff;}</style></defs><title>大屏 小配件nnn</title><rect class="cls-1" width="512" height="512" transform="translate(512 512) rotate(180)"/><path class="cls-2" d="M257,203.73c.76,8.71,1.16,17.42,1.43,26.14s.37,17.42.41,26.13-.11,17.42-.4,26.13-.67,17.43-1.44,26.14c-.76-8.71-1.16-17.42-1.43-26.14s-.37-17.42-.4-26.13.11-17.42.41-26.13S256.27,212.44,257,203.73Z"/><path class="cls-2" d="M273.56,221c.37,5.83.55,11.67.7,17.51s.19,11.68.21,17.52,0,11.68-.21,17.52l-.25,8.76c-.16,2.92-.25,5.84-.45,8.75-.21-2.91-.3-5.83-.45-8.75l-.26-8.76c-.17-5.84-.19-11.68-.21-17.52s.05-11.68.21-17.52S273.18,226.8,273.56,221Z"/><path class="cls-2" d="M288.24,226.78c.38,4.87.56,9.74.71,14.61s.19,9.74.21,14.61,0,9.74-.21,14.61l-.26,7.31c-.15,2.43-.24,4.87-.45,7.3-.21-2.43-.29-4.87-.45-7.3l-.25-7.31c-.17-4.87-.19-9.74-.21-14.61s0-9.74.21-14.61S287.86,231.65,288.24,226.78Z"/><path class="cls-2" d="M302.93,233.36c.28,3.77.42,7.54.53,11.32s.14,7.55.16,11.32,0,7.55-.16,11.32-.24,7.55-.53,11.32c-.29-3.77-.42-7.54-.53-11.32s-.14-7.55-.16-11.32,0-7.55.16-11.32S302.65,237.13,302.93,233.36Z"/><path class="cls-2" d="M317.62,237.49c.28,3.08.41,6.17.52,9.25s.15,6.17.17,9.26,0,6.17-.16,9.26-.25,6.17-.53,9.25c-.29-3.08-.42-6.17-.53-9.25s-.15-6.17-.16-9.26,0-6.17.16-9.26S317.33,240.57,317.62,237.49Z"/><path class="cls-2" d="M332.3,242.54c.36,4.48.44,9,.46,13.46s-.1,9-.46,13.46c-.36-4.48-.44-9-.45-13.46S332,247,332.3,242.54Z"/><path class="cls-2" d="M347,226.78c.2,9.74.15,19.48.23,29.22-.08,9.74,0,19.48-.23,29.22-.2-9.74-.15-19.48-.23-29.22C346.84,246.26,346.79,236.52,347,226.78Z"/><path class="cls-2" d="M166,226.78c.2,9.74.15,19.48.23,29.22-.08,9.74,0,19.48-.23,29.22-.2-9.74-.15-19.48-.23-29.22C165.89,246.26,165.84,236.52,166,226.78Z"/><path class="cls-2" d="M180.73,242.54c.36,4.48.44,9,.46,13.46s-.1,9-.46,13.46c-.36-4.48-.44-9-.46-13.46S180.37,247,180.73,242.54Z"/><path class="cls-2" d="M195.42,237.49c.28,3.08.41,6.17.52,9.25s.15,6.17.16,9.26,0,6.17-.15,9.26-.25,6.17-.53,9.25c-.29-3.08-.42-6.17-.53-9.25s-.15-6.17-.16-9.26,0-6.17.16-9.26S195.13,240.57,195.42,237.49Z"/><path class="cls-2" d="M210.1,233.36c.29,3.77.42,7.54.53,11.32s.14,7.55.16,11.32,0,7.55-.16,11.32-.24,7.55-.53,11.32c-.28-3.77-.42-7.54-.53-11.32s-.14-7.55-.16-11.32,0-7.55.17-11.32S209.82,237.13,210.1,233.36Z"/><path class="cls-2" d="M224.79,226.78c.38,4.87.56,9.74.7,14.61s.19,9.74.22,14.61-.05,9.74-.21,14.61l-.26,7.31c-.15,2.43-.24,4.87-.45,7.3-.21-2.43-.3-4.87-.45-7.3l-.26-7.31c-.16-4.87-.19-9.74-.21-14.61s0-9.74.22-14.61S224.41,231.65,224.79,226.78Z"/><path class="cls-2" d="M239.48,221c.38,5.83.55,11.67.7,17.51s.19,11.68.21,17.52,0,11.68-.21,17.52l-.25,8.76c-.16,2.92-.24,5.84-.45,8.75-.21-2.91-.3-5.83-.45-8.75l-.26-8.76c-.17-5.84-.19-11.68-.21-17.52s.05-11.68.21-17.52S239.1,226.8,239.48,221Z"/><rect class="cls-2" x="361.26" y="255.77" width="55.08" height="0.46"/><rect class="cls-2" x="95.67" y="255.77" width="55.08" height="0.46"/></svg>