<svg id="图层_1" data-name="图层 1" xmlns="http://www.w3.org/2000/svg" viewBox="0 0 512 512"><defs><style>.cls-1{fill:#191e2d;}.cls-10,.cls-2,.cls-3,.cls-4,.cls-5,.cls-6,.cls-7,.cls-8,.cls-9{fill:#fff;}.cls-3{opacity:0.4;}.cls-4{opacity:0.3;}.cls-5{opacity:0.2;}.cls-6{opacity:0.6;}.cls-7{opacity:0.5;}.cls-8{opacity:0.9;}.cls-9{opacity:0.8;}.cls-10{opacity:0.7;}</style></defs><title>大屏 小配件nnn</title><rect class="cls-1" width="512" height="512" transform="translate(512 512) rotate(180)"/><polygon class="cls-2" points="239.21 278.36 239.05 278.25 254.78 254.66 254.86 254.78 270.32 278.25 270.15 278.36 254.78 255.01 239.21 278.36"/><polygon class="cls-2" points="239.21 287.75 239.05 287.64 254.78 264.05 254.86 264.17 270.32 287.64 270.15 287.75 254.78 264.4 239.21 287.75"/><polygon class="cls-2" points="239.21 297.14 239.05 297.03 254.78 273.44 254.86 273.56 270.32 297.04 270.15 297.14 254.78 273.79 239.21 297.14"/><polygon class="cls-2" points="239.21 307.31 239.05 307.21 254.78 283.61 254.86 283.73 270.32 307.21 270.15 307.31 254.78 283.96 239.21 307.31"/><polygon class="cls-2" points="239.21 315.92 239.05 315.81 254.78 292.22 254.86 292.34 270.32 315.81 270.15 315.92 254.78 292.57 239.21 315.92"/><polygon class="cls-2" points="239.21 325.31 239.05 325.2 254.78 301.61 254.86 301.73 270.32 325.21 270.15 325.31 254.78 301.96 239.21 325.31"/><polygon class="cls-2" points="239.21 333.92 239.05 333.81 254.78 310.21 254.86 310.34 270.32 333.81 270.15 333.92 254.78 310.57 239.21 333.92"/><polygon class="cls-2" points="239.21 343.31 239.05 343.2 254.78 319.6 254.86 319.73 270.32 343.2 270.15 343.31 254.78 319.96 239.21 343.31"/><polygon class="cls-2" points="239.21 351.92 239.05 351.81 254.78 328.21 254.86 328.34 270.32 351.81 270.15 351.92 254.78 328.57 239.21 351.92"/><polygon class="cls-2" points="239.21 378.44 239.05 378.33 254.78 354.74 254.86 354.86 270.32 378.33 270.15 378.44 254.78 355.09 239.21 378.44"/><polygon class="cls-2" points="239.21 387.83 239.05 387.73 254.78 364.13 254.86 364.25 270.32 387.73 270.15 387.83 254.78 364.48 239.21 387.83"/><polygon class="cls-2" points="239.21 397.22 239.05 397.12 254.78 373.52 254.86 373.64 270.32 397.12 270.15 397.22 254.78 373.87 239.21 397.22"/><polygon class="cls-2" points="239.21 407.4 239.05 407.29 254.78 383.69 254.86 383.81 270.32 407.29 270.15 407.4 254.78 384.04 239.21 407.4"/><polygon class="cls-2" points="239.21 416 239.05 415.9 254.78 392.3 254.86 392.42 270.32 415.9 270.15 416 254.78 392.65 239.21 416"/><polygon class="cls-2" points="239.21 425.39 239.05 425.29 254.78 401.69 254.86 401.81 270.32 425.29 270.15 425.39 254.78 402.04 239.21 425.39"/><polygon class="cls-2" points="239.21 434 239.05 433.89 254.78 410.3 254.86 410.42 270.32 433.89 270.15 434 254.78 410.65 239.21 434"/><polygon class="cls-2" points="239.21 443.39 239.05 443.28 254.78 419.69 254.86 419.81 270.32 443.29 270.15 443.39 254.78 420.04 239.21 443.39"/><polygon class="cls-2" points="239.21 452 239.05 451.89 254.78 428.29 254.86 428.42 270.32 451.89 270.15 452 254.78 428.65 239.21 452"/><polygon class="cls-2" points="239.21 360.53 239.05 360.42 254.78 336.82 254.86 336.94 270.32 360.42 270.15 360.53 254.78 337.17 239.21 360.53"/><polygon class="cls-2" points="239.21 369.13 239.05 369.03 254.78 345.43 254.86 345.55 270.32 369.03 270.15 369.13 254.78 345.78 239.21 369.13"/><polygon class="cls-3" points="254.78 190.4 239.13 213.88 244.02 213.88 254.78 198.03 265.73 213.88 270.23 213.88 254.78 190.4"/><polygon class="cls-2" points="239.21 228.8 239.05 228.69 254.78 205.09 254.86 205.22 270.32 228.69 270.15 228.8 254.78 205.45 239.21 228.8"/><polygon class="cls-4" points="254.78 215.44 239.13 238.92 244.02 238.92 254.78 223.07 265.73 238.92 270.23 238.92 254.78 215.44"/><polygon class="cls-2" points="239.21 253.84 239.05 253.73 254.78 230.13 254.86 230.26 270.32 253.74 270.15 253.84 254.78 230.49 239.21 253.84"/><polygon class="cls-5" points="254.78 240.49 239.13 263.96 244.02 263.96 254.78 248.12 265.73 263.96 270.23 263.96 254.78 240.49"/><polygon class="cls-2" points="239.2 153.55 239.04 153.44 254.77 129.84 254.85 129.97 270.31 153.44 270.14 153.55 254.77 130.2 239.2 153.55"/><polygon class="cls-6" points="254.77 140.29 239.12 163.77 244.01 163.77 254.77 147.92 265.73 163.77 270.23 163.77 254.77 140.29"/><polygon class="cls-2" points="239.2 178.69 239.04 178.58 254.77 154.98 254.85 155.1 270.31 178.58 270.14 178.69 254.77 155.34 239.2 178.69"/><polygon class="cls-7" points="254.77 165.33 239.12 188.81 244.01 188.81 254.77 172.96 265.73 188.81 270.23 188.81 254.77 165.33"/><polygon class="cls-2" points="239.2 203.73 239.04 203.62 254.77 180.02 254.85 180.15 270.31 203.62 270.14 203.73 254.77 180.38 239.2 203.73"/><polygon class="cls-8" points="254.77 65.59 239.12 89.07 244.01 89.07 254.77 73.22 265.73 89.07 270.23 89.07 254.77 65.59"/><polygon class="cls-2" points="239.2 103.99 239.04 103.88 254.77 80.28 254.85 80.41 270.31 103.88 270.14 103.99 254.77 80.64 239.2 103.99"/><polygon class="cls-9" points="254.77 90.63 239.12 114.11 244.01 114.11 254.77 98.26 265.73 114.11 270.23 114.11 254.77 90.63"/><polygon class="cls-2" points="239.2 129.03 239.04 128.92 254.77 105.32 254.85 105.45 270.31 128.92 270.14 129.03 254.77 105.68 239.2 129.03"/><polygon class="cls-10" points="254.77 115.67 239.12 139.15 244.01 139.15 254.77 123.3 265.73 139.15 270.23 139.15 254.77 115.67"/></svg>