<svg id="图层_1" data-name="图层 1" xmlns="http://www.w3.org/2000/svg" viewBox="0 0 512 512"><defs><style>.cls-1{fill:#191e2d;}.cls-2,.cls-3{fill:#fff;}.cls-3{opacity:0.24;}.cls-4{fill:#ffda00;}</style></defs><title>大屏 小配件nnn</title><rect class="cls-1" width="512" height="512" transform="translate(512 512) rotate(180)"/><path class="cls-2" d="M461.87,222.8H66.15V196.16H461.87Zm-395.33-.39h395V196.55H66.54Z"/><path class="cls-2" d="M461.87,266H66.15V239.4H461.87Zm-395.33-.39h395V239.79H66.54Z"/><path class="cls-2" d="M461.87,309.28H66.15V282.64H461.87Zm-395.33-.39h395V283H66.54Z"/><polygon class="cls-2" points="243.94 216.43 69.43 216.43 69.43 200.99 267.1 200.99 243.94 216.43"/><polygon class="cls-3" points="282.54 200.99 457.05 200.99 457.05 216.43 259.38 216.43 282.54 200.99"/><polygon class="cls-4" points="273.28 259.67 69.43 259.67 69.43 244.22 296.44 244.22 273.28 259.67"/><polygon class="cls-3" points="311.88 244.22 457.05 244.22 457.05 259.67 288.72 259.67 311.88 244.22"/><polygon class="cls-2" points="126.57 302.91 69.43 302.91 69.43 287.46 149.73 287.46 126.57 302.91"/><polygon class="cls-3" points="165.18 287.46 457.05 287.46 457.05 302.91 142.01 302.91 165.18 287.46"/><polygon class="cls-2" points="399.91 323.75 50.13 323.75 50.13 183.23 74.06 183.23 74.06 184.77 51.67 184.77 51.67 322.21 399.91 322.21 399.91 323.75"/><path class="cls-2" d="M414.58,328.77a6.56,6.56,0,1,1,6.56-6.56A6.57,6.57,0,0,1,414.58,328.77Zm0-12.35a5.79,5.79,0,1,0,5.79,5.79A5.8,5.8,0,0,0,414.58,316.42Z"/><path class="cls-2" d="M439.29,328.77a6.56,6.56,0,1,1,6.56-6.56A6.57,6.57,0,0,1,439.29,328.77Zm0-12.35a5.79,5.79,0,1,0,5.79,5.79A5.79,5.79,0,0,0,439.29,316.42Z"/></svg>