<svg id="图层_1" data-name="图层 1" xmlns="http://www.w3.org/2000/svg" viewBox="0 0 512 512"><defs><style>.cls-1{fill:#191e2d;}.cls-2{fill:#fff;}.cls-3{opacity:0.71;}.cls-4{opacity:0.39;}</style></defs><title>大屏 小配件nnn</title><rect class="cls-1" width="512" height="512" transform="translate(512 512) rotate(180)"/><rect class="cls-2" x="57.29" y="144.97" width="189.12" height="0.21"/><circle class="cls-2" cx="246.67" cy="145.07" r="0.58"/><path class="cls-2" d="M246.67,145.68a.61.61,0,1,1,.61-.61A.6.6,0,0,1,246.67,145.68Zm0-1.16a.55.55,0,0,0-.55.55.56.56,0,0,0,1.11,0A.56.56,0,0,0,246.67,144.52Z"/><circle class="cls-2" cx="259.81" cy="148.71" r="0.58"/><path class="cls-2" d="M259.81,149.32a.61.61,0,1,1,.6-.61A.61.61,0,0,1,259.81,149.32Zm0-1.16a.56.56,0,0,0,0,1.11.56.56,0,0,0,0-1.11Z"/><polygon class="cls-2" points="259.58 148.82 169.9 148.82 169.88 148.81 161.76 145.17 161.84 144.98 169.95 148.61 259.58 148.61 259.58 148.82"/><rect class="cls-2" x="452.34" y="145.07" width="3.36" height="19.33"/><path class="cls-2" d="M455.73,164.43h-3.42V145.05h3.42Zm-3.36-.05h3.31V145.1h-3.31Z"/><g class="cls-3"><rect class="cls-2" x="452.34" y="167.21" width="3.36" height="19.33"/><path class="cls-2" d="M455.73,186.56h-3.42V167.18h3.42Zm-3.36-.05h3.31V167.23h-3.31Z"/></g><g class="cls-4"><rect class="cls-2" x="452.34" y="189.34" width="3.36" height="19.33"/><path class="cls-2" d="M455.73,208.7h-3.42V189.31h3.42Zm-3.36,0h3.31V189.37h-3.31Z"/></g><path class="cls-2" d="M455.73,230.83h-3.42V211.45h3.42Zm-3.36-.05h3.31V211.5h-3.31Z"/><rect class="cls-2" x="58.45" y="344.5" width="3.36" height="19.33" transform="translate(120.26 708.32) rotate(180)"/><path class="cls-2" d="M61.84,363.85H58.42V344.47h3.42Zm-3.37-.05h3.31V344.52H58.47Z"/><g class="cls-3"><rect class="cls-2" x="58.45" y="322.36" width="3.36" height="19.33" transform="translate(120.26 664.06) rotate(180)"/><path class="cls-2" d="M61.84,341.72H58.42V322.34h3.42Zm-3.37-.05h3.31V322.39H58.47Z"/></g><g class="cls-4"><rect class="cls-2" x="58.45" y="300.23" width="3.36" height="19.33" transform="translate(120.26 619.79) rotate(180)"/><path class="cls-2" d="M61.84,319.59H58.42V300.2h3.42Zm-3.37-.06h3.31V300.25H58.47Z"/></g><path class="cls-2" d="M61.84,297.45H58.42V278.07h3.42Zm-3.37-.05h3.31V278.12H58.47Z"/><rect class="cls-2" x="63.65" y="362.57" width="0.11" height="1.26"/><path class="cls-2" d="M63.75,360.05h-.1v-2.53h.1Zm0-5.05h-.1v-2.52h.1Zm0-5h-.1v-2.52h.1Zm0-5h-.1v-2.53h.1Zm0-5.05h-.1v-2.52h.1Zm0-5h-.1v-2.52h.1Zm0-5h-.1v-2.52h.1Zm0-5.05h-.1v-2.52h.1Zm0-5h-.1v-2.52h.1Zm0-5h-.1v-2.52h.1Zm0-5.05h-.1v-2.52h.1Zm0-5h-.1v-2.52h.1Zm0-5h-.1V297h.1Zm0-5h-.1V292h.1Zm0-5h-.1v-2.52h.1Zm0-5h-.1v-2.52h.1Z"/><rect class="cls-2" x="63.65" y="278.09" width="0.11" height="1.26"/><rect class="cls-2" x="450.4" y="145.07" width="0.11" height="1.26"/><path class="cls-2" d="M450.5,227h-.1V224.5h.1Zm0-5h-.1v-2.52h.1Zm0-5h-.1v-2.52h.1Zm0-5.05h-.1v-2.52h.1Zm0-5h-.1v-2.52h.1Zm0-5h-.1v-2.52h.1Zm0-5.05h-.1v-2.52h.1Zm0-5h-.1V189.2h.1Zm0-5h-.1v-2.52h.1Zm0-5h-.1v-2.53h.1Zm0-5h-.1v-2.52h.1Zm0-5h-.1V169h.1Zm0-5h-.1V164h.1Zm0-5h-.1v-2.52h.1Zm0-5h-.1V153.9h.1Zm0-5h-.1v-2.53h.1Z"/><rect class="cls-2" x="450.4" y="229.55" width="0.11" height="1.26"/><path class="cls-2" d="M67.42,171.09H57.27V160.93H67.42ZM57.32,171H67.37V161H57.32Z"/><path class="cls-2" d="M67.42,189H57.27V178.89H67.42Zm-10.1,0H67.37V178.94H57.32Z"/><path class="cls-2" d="M67.42,207H57.27V196.84H67.42Zm-10.1-.05H67.37V196.89H57.32Z"/><path class="cls-2" d="M67.42,224.94H57.27V214.79H67.42Zm-10.1-.05H67.37v-10H57.32Z"/><path class="cls-2" d="M67.42,242.89H57.27V232.74H67.42Zm-10.1,0H67.37V232.79H57.32Z"/><polygon class="cls-2" points="62.37 237.81 62.32 237.81 62.32 219.87 56 210.49 56.01 210.48 62.32 201.9 62.32 183.95 62.32 183.94 71.01 174.72 62.32 165.84 62.36 165.81 71.08 174.71 71.07 174.73 62.37 183.97 62.37 201.92 56.06 210.49 62.37 219.86 62.37 237.81"/><circle class="cls-2" cx="62.34" cy="165.82" r="0.41"/><circle class="cls-2" cx="62.34" cy="183.96" r="0.41"/><circle class="cls-2" cx="62.34" cy="237.81" r="0.41"/><circle class="cls-2" cx="62.34" cy="219.86" r="0.41"/><circle class="cls-2" cx="62.34" cy="201.91" r="0.41"/><rect class="cls-2" x="58.24" y="159.28" width="8.2" height="0.21"/><rect class="cls-2" x="58.24" y="158.23" width="8.2" height="0.21"/><rect class="cls-2" x="58.24" y="157.18" width="8.2" height="0.21"/><rect class="cls-2" x="58.24" y="245.62" width="8.2" height="0.21"/><rect class="cls-2" x="58.24" y="244.57" width="8.2" height="0.21"/><polygon class="cls-2" points="284.87 363.93 67.33 363.93 67.33 278.19 62.02 272.88 62.02 251.4 62.23 251.4 62.23 272.79 67.54 278.1 67.54 363.72 284.87 363.72 284.87 363.93"/><rect class="cls-2" x="216.99" y="363.09" width="47.91" height="1.47"/><rect class="cls-2" x="175.18" y="363.09" width="14.92" height="1.47"/><rect class="cls-2" x="82.93" y="363.09" width="27.63" height="1.47"/><rect class="cls-2" x="452.34" y="254.86" width="3.36" height="18.91" rx="1.59" ry="1.59"/><polygon class="cls-2" points="450.53 354.16 450.37 354.16 450.37 240.85 455.66 237.34 455.75 237.47 450.53 240.94 450.53 354.16"/><path class="cls-2" d="M454,354.24a2,2,0,1,1,2-2A2,2,0,0,1,454,354.24Zm0-3.8a1.82,1.82,0,1,0,1.82,1.82A1.83,1.83,0,0,0,454,350.44Z"/><rect class="cls-2" x="440.28" y="360.15" width="0.16" height="7.35"/><rect class="cls-2" x="441.55" y="360.15" width="0.16" height="7.35"/><rect class="cls-2" x="442.81" y="360.15" width="0.16" height="7.35"/><rect class="cls-2" x="444.07" y="360.15" width="0.16" height="7.35"/><rect class="cls-2" x="445.33" y="360.15" width="0.16" height="7.35"/><rect class="cls-2" x="446.59" y="360.15" width="0.16" height="7.35"/><rect class="cls-2" x="447.85" y="360.15" width="0.16" height="7.35"/><rect class="cls-2" x="449.11" y="360.15" width="0.16" height="7.35"/><rect class="cls-2" x="450.37" y="360.15" width="0.16" height="7.35"/><path class="cls-2" d="M454,276.15a1,1,0,1,1,1-1A1,1,0,0,1,454,276.15Zm0-1.91a.91.91,0,1,0,.9.9A.9.9,0,0,0,454,274.24Z"/><path class="cls-2" d="M454,281a1,1,0,1,1,1-1A1,1,0,0,1,454,281Zm0-1.9a.9.9,0,1,0,.9.9A.9.9,0,0,0,454,279.08Z"/><path class="cls-2" d="M454,286a1,1,0,1,1,1-1A1,1,0,0,1,454,286Zm0-1.91a.9.9,0,1,0,.9.9A.9.9,0,0,0,454,284.12Z"/><path class="cls-2" d="M454,290.86a1,1,0,1,1,1-1A1,1,0,0,1,454,290.86Zm0-1.91a.9.9,0,1,0,.9.9A.9.9,0,0,0,454,289Z"/><path class="cls-2" d="M454,251.57a1,1,0,1,1,1-1A1,1,0,0,1,454,251.57Zm0-1.91a.9.9,0,1,0,.9.9A.9.9,0,0,0,454,249.66Z"/><path class="cls-2" d="M454,256.4a1,1,0,1,1,1-1A1,1,0,0,1,454,256.4Zm0-1.91a.9.9,0,1,0,.9.9A.9.9,0,0,0,454,254.49Z"/><path class="cls-2" d="M454,261.44a1,1,0,1,1,1-1A1,1,0,0,1,454,261.44Zm0-1.91a.91.91,0,1,0,.9.9A.9.9,0,0,0,454,259.53Z"/><path class="cls-2" d="M454,266.27a1,1,0,1,1,1-1A1,1,0,0,1,454,266.27Zm0-1.9a.9.9,0,1,0,.9.9A.9.9,0,0,0,454,264.37Z"/><path class="cls-2" d="M454,300.74a1,1,0,1,1,1-1A1,1,0,0,1,454,300.74Zm0-1.91a.9.9,0,1,0,.9.9A.9.9,0,0,0,454,298.83Z"/><path class="cls-2" d="M454,305.57a1,1,0,1,1,1-1A1,1,0,0,1,454,305.57Zm0-1.91a.9.9,0,1,0,.9.9A.9.9,0,0,0,454,303.66Z"/><path class="cls-2" d="M454,310.61a1,1,0,1,1,1-1A1,1,0,0,1,454,310.61Zm0-1.91a.91.91,0,1,0,.9.91A.9.9,0,0,0,454,308.7Z"/><path class="cls-2" d="M454,315.45a1,1,0,1,1,1-1A1,1,0,0,1,454,315.45Zm0-1.91a.9.9,0,1,0,.9.9A.9.9,0,0,0,454,313.54Z"/><path class="cls-2" d="M454,326.58a1,1,0,1,1,1-1A1,1,0,0,1,454,326.58Zm0-1.91a.91.91,0,1,0,.9.91A.9.9,0,0,0,454,324.67Z"/><path class="cls-2" d="M454,331.42a1,1,0,1,1,1-1A1,1,0,0,1,454,331.42Zm0-1.91a.9.9,0,1,0,.9.9A.9.9,0,0,0,454,329.51Z"/><path class="cls-2" d="M454,336.46a1,1,0,1,1,1-1A1,1,0,0,1,454,336.46Zm0-1.91a.9.9,0,1,0,.9.9A.9.9,0,0,0,454,334.55Z"/><path class="cls-2" d="M454,341.29a1,1,0,1,1,1-1A1,1,0,0,1,454,341.29Zm0-1.91a.91.91,0,1,0,.9.91A.9.9,0,0,0,454,339.38Z"/><polygon class="cls-2" points="290.33 367.56 284.81 367.56 284.81 360.1 290.33 360.1 290.33 360.2 284.92 360.2 284.92 367.45 290.33 367.45 290.33 367.56"/><rect class="cls-2" x="164.54" y="143.43" width="0.05" height="7.56" transform="translate(-36.02 239.5) rotate(-66.52)"/><rect class="cls-2" x="162.44" y="143.43" width="0.05" height="7.56" transform="translate(-37.28 237.58) rotate(-66.52)"/><rect class="cls-2" x="160.34" y="143.43" width="0.05" height="7.56" transform="translate(-38.55 235.65) rotate(-66.52)"/><rect class="cls-2" x="158.23" y="143.43" width="0.05" height="7.56" transform="translate(-39.81 233.72) rotate(-66.52)"/><rect class="cls-2" x="156.13" y="143.43" width="0.05" height="7.56" transform="translate(-41.08 231.79) rotate(-66.52)"/><rect class="cls-2" x="154.03" y="143.43" width="0.05" height="7.56" transform="translate(-42.34 229.87) rotate(-66.52)"/><rect class="cls-2" x="151.93" y="143.43" width="0.05" height="7.56" transform="translate(-43.6 227.94) rotate(-66.52)"/><rect class="cls-2" x="149.83" y="143.43" width="0.05" height="7.56" transform="translate(-44.87 226.01) rotate(-66.52)"/><rect class="cls-2" x="147.73" y="143.43" width="0.05" height="7.56" transform="translate(-46.13 224.09) rotate(-66.52)"/><rect class="cls-2" x="145.63" y="143.43" width="0.05" height="7.56" transform="translate(-47.4 222.16) rotate(-66.52)"/><rect class="cls-2" x="143.53" y="143.43" width="0.05" height="7.56" transform="translate(-48.66 220.23) rotate(-66.52)"/><rect class="cls-2" x="141.42" y="143.43" width="0.05" height="7.56" transform="translate(-49.92 218.3) rotate(-66.52)"/><rect class="cls-2" x="139.32" y="143.43" width="0.05" height="7.56" transform="translate(-51.19 216.38) rotate(-66.52)"/><rect class="cls-2" x="137.22" y="143.43" width="0.05" height="7.56" transform="translate(-52.45 214.45) rotate(-66.52)"/><rect class="cls-2" x="135.12" y="143.43" width="0.05" height="7.56" transform="translate(-53.72 212.52) rotate(-66.52)"/><rect class="cls-2" x="133.02" y="143.43" width="0.05" height="7.56" transform="translate(-54.98 210.59) rotate(-66.52)"/><rect class="cls-2" x="84.8" y="143.43" width="0.05" height="7.56" transform="translate(-83.99 166.36) rotate(-66.52)"/><rect class="cls-2" x="82.7" y="143.43" width="0.05" height="7.56" transform="translate(-85.26 164.44) rotate(-66.52)"/><rect class="cls-2" x="80.59" y="143.43" width="0.05" height="7.56" transform="translate(-86.52 162.51) rotate(-66.52)"/><rect class="cls-2" x="78.49" y="143.43" width="0.05" height="7.56" transform="translate(-87.78 160.58) rotate(-66.52)"/><rect class="cls-2" x="76.39" y="143.43" width="0.05" height="7.56" transform="translate(-89.05 158.65) rotate(-66.52)"/><rect class="cls-2" x="74.29" y="143.43" width="0.05" height="7.56" transform="translate(-90.31 156.73) rotate(-66.52)"/><rect class="cls-2" x="72.19" y="143.43" width="0.05" height="7.56" transform="translate(-91.58 154.8) rotate(-66.52)"/><rect class="cls-2" x="70.09" y="143.43" width="0.05" height="7.56" transform="translate(-92.84 152.87) rotate(-66.52)"/><rect class="cls-2" x="67.99" y="143.43" width="0.05" height="7.56" transform="translate(-94.1 150.95) rotate(-66.52)"/><rect class="cls-2" x="125.14" y="143.43" width="0.05" height="7.56" transform="translate(-59.72 203.36) rotate(-66.52)"/><rect class="cls-2" x="123.04" y="143.43" width="0.05" height="7.56" transform="translate(-60.99 201.44) rotate(-66.52)"/><rect class="cls-2" x="120.93" y="143.43" width="0.05" height="7.56" transform="translate(-62.25 199.51) rotate(-66.52)"/><rect class="cls-2" x="118.83" y="143.43" width="0.05" height="7.56" transform="translate(-63.52 197.58) rotate(-66.52)"/><rect class="cls-2" x="116.73" y="143.43" width="0.05" height="7.56" transform="translate(-64.78 195.65) rotate(-66.52)"/><rect class="cls-2" x="109.17" y="143.43" width="0.05" height="7.56" transform="translate(-69.33 188.72) rotate(-66.52)"/><rect class="cls-2" x="107.07" y="143.43" width="0.05" height="7.56" transform="translate(-70.59 186.79) rotate(-66.52)"/><rect class="cls-2" x="104.97" y="143.43" width="0.05" height="7.56" transform="translate(-71.86 184.87) rotate(-66.52)"/><rect class="cls-2" x="102.87" y="143.43" width="0.05" height="7.56" transform="translate(-73.12 182.94) rotate(-66.52)"/><rect class="cls-2" x="100.77" y="143.43" width="0.05" height="7.56" transform="translate(-74.38 181.01) rotate(-66.52)"/><rect class="cls-2" x="93.83" y="143.43" width="0.05" height="7.56" transform="translate(-78.56 174.65) rotate(-66.52)"/><rect class="cls-2" x="91.73" y="143.43" width="0.05" height="7.56" transform="translate(-79.82 172.72) rotate(-66.52)"/><rect class="cls-2" x="61.02" y="145.67" width="0.21" height="0.11" transform="translate(-96.89 143.71) rotate(-66.51)"/><path class="cls-2" d="M63.44,146.85l-.19-.09.08-.19.19.08Zm-1.15-.51-.2-.08.09-.19.19.08Z"/><path class="cls-2" d="M66.91,148.35l-.19-.08.08-.2.19.09Zm-1.16-.5-.19-.08.08-.2.2.09Zm-1.15-.5-.2-.09.09-.19.19.08Z"/><rect class="cls-2" x="67.86" y="148.64" width="0.21" height="0.11" transform="translate(-95.5 151.77) rotate(-66.51)"/><rect class="cls-2" x="84.66" y="145.67" width="0.21" height="0.11" transform="translate(-82.67 165.4) rotate(-66.51)"/><path class="cls-2" d="M87.08,146.85l-.19-.09.09-.19.19.08Zm-1.15-.51-.19-.08.08-.19.19.08Z"/><path class="cls-2" d="M90.55,148.35l-.19-.08.08-.2.2.09Zm-1.15-.5-.2-.08.09-.2.19.09Zm-1.16-.5-.19-.09.08-.19.19.08Z"/><rect class="cls-2" x="91.5" y="148.64" width="0.21" height="0.11" transform="translate(-81.28 173.45) rotate(-66.51)"/><rect class="cls-2" x="93.7" y="145.67" width="0.21" height="0.11" transform="translate(-77.23 173.68) rotate(-66.51)"/><path class="cls-2" d="M96.12,146.85l-.19-.09.08-.19.19.08ZM95,146.34l-.19-.08.09-.19.19.08Z"/><path class="cls-2" d="M99.59,148.35l-.2-.08.09-.2.19.09Zm-1.16-.5-.19-.08.08-.2.2.09Zm-1.15-.5-.2-.09.09-.19.19.08Z"/><rect class="cls-2" x="100.54" y="148.64" width="0.21" height="0.11" transform="translate(-75.84 181.74) rotate(-66.51)"/><rect class="cls-2" x="109.46" y="145.67" width="0.21" height="0.11" transform="translate(-67.75 188.14) rotate(-66.51)"/><path class="cls-2" d="M111.88,146.85l-.19-.09.08-.19.19.08Zm-1.16-.51-.19-.08.09-.19.19.08Z"/><path class="cls-2" d="M115.35,148.35l-.2-.08.09-.2.19.09Zm-1.16-.5-.19-.08.08-.2.2.09Zm-1.15-.5-.2-.09.09-.19.19.08Z"/><rect class="cls-2" x="116.3" y="148.64" width="0.21" height="0.11" transform="translate(-66.36 196.2) rotate(-66.51)"/><rect class="cls-2" x="125.32" y="145.67" width="0.21" height="0.11" transform="translate(-58.21 202.68) rotate(-66.51)"/><path class="cls-2" d="M127.74,146.85l-.19-.09.08-.19.19.08Zm-1.16-.51-.19-.08.08-.19.2.08Z"/><path class="cls-2" d="M131.21,148.35l-.2-.08.09-.2.19.09Zm-1.16-.5-.19-.08.08-.2.19.09Zm-1.16-.5-.19-.09.09-.19.19.08Z"/><rect class="cls-2" x="132.15" y="148.64" width="0.21" height="0.11" transform="translate(-56.82 210.74) rotate(-66.51)"/><rect class="cls-2" x="60.73" y="143.43" width="0.05" height="7.56" transform="translate(-98.47 144.29) rotate(-66.52)"/><path class="cls-2" d="M236.33,147h-.21v-.21h.21Zm-1.27,0h-.21v-.21h.21Zm-1.26,0h-.21v-.21h.21Zm-1.26,0h-.21v-.21h.21Zm-1.26,0h-.21v-.21h.21ZM230,147h-.21v-.21H230Zm-1.26,0h-.21v-.21h.21Zm-1.26,0h-.21v-.21h.21Zm-1.26,0H226v-.21h.21ZM225,147h-.21v-.21H225Zm-1.26,0h-.21v-.21h.21Zm-1.26,0h-.21v-.21h.21Zm-1.26,0H221v-.21h.21Zm-1.27,0h-.21v-.21h.21Zm-1.26,0h-.21v-.21h.21Zm-1.26,0h-.21v-.21h.21Zm-1.26,0h-.21v-.21h.21Zm-1.26,0h-.21v-.21h.21Zm-1.26,0h-.21v-.21h.21Zm-1.26,0h-.21v-.21h.21Zm-1.26,0h-.21v-.21h.21Zm-1.26,0h-.21v-.21h.21Zm-1.26,0h-.21v-.21h.21Zm-1.26,0h-.21v-.21h.21Zm-1.26,0h-.21v-.21h.21Zm-1.26,0h-.21v-.21h.21Zm-1.27,0h-.21v-.21h.21Zm-1.26,0h-.21v-.21h.21ZM201,147h-.21v-.21H201Zm-1.26,0h-.21v-.21h.21Zm-1.26,0h-.21v-.21h.21Zm-1.26,0H197v-.21h.21ZM196,147h-.21v-.21H196Zm-1.26,0h-.21v-.21h.21Zm-1.26,0h-.21v-.21h.21Zm-1.26,0H192v-.21h.21Zm-1.26,0h-.21v-.21h.21Zm-1.26,0h-.21v-.21h.21Zm-1.26,0h-.21v-.21h.21Zm-1.27,0h-.21v-.21h.21Zm-1.26,0h-.21v-.21h.21Zm-1.26,0h-.21v-.21h.21Zm-1.26,0h-.21v-.21h.21Zm-1.26,0h-.21v-.21h.21Zm-1.26,0h-.21v-.21h.21Zm-1.26,0h-.21v-.21h.21Zm-1.26,0h-.21v-.21h.21Zm-1.26,0h-.21v-.21h.21Zm-1.26,0h-.21v-.21h.21Zm-1.26,0h-.21v-.21h.21Zm-1.26,0h-.21v-.21h.21ZM172,147h-.21v-.21H172Zm-1.26,0h-.21v-.21h.21Z"/><polygon class="cls-2" points="343.51 149.25 267.22 149.25 272.03 144.44 291.38 144.44 291.38 144.55 272.07 144.55 267.47 149.14 343.47 149.14 345.66 146.96 345.73 147.03 343.51 149.25"/><rect class="cls-2" x="299.5" y="144.44" width="38.8" height="0.11"/><path class="cls-2" d="M277.81,147.52l0-.15h0a.43.43,0,0,1-.37.18.34.34,0,0,1-.37-.35c0-.29.26-.45.73-.45v0a.25.25,0,0,0-.28-.28.63.63,0,0,0-.31.09l-.05-.14a.7.7,0,0,1,.4-.11c.37,0,.46.25.46.5v.45a2.33,2.33,0,0,0,0,.29Zm0-.62c-.25,0-.52,0-.52.28a.2.2,0,0,0,.21.21.29.29,0,0,0,.29-.21.14.14,0,0,0,0-.07Z"/><path class="cls-2" d="M278.85,146.64c0-.13,0-.23,0-.33h.2v.2h0a.44.44,0,0,1,.4-.23c.17,0,.43.1.43.52v.72h-.22v-.7c0-.19-.07-.36-.28-.36a.31.31,0,0,0-.3.23.31.31,0,0,0,0,.1v.73h-.23Z"/><path class="cls-2" d="M281.86,146.91a.59.59,0,0,1-.61.64.57.57,0,0,1-.58-.62.6.6,0,0,1,.6-.65A.58.58,0,0,1,281.86,146.91Zm-1,0a.42.42,0,0,0,.37.47c.21,0,.37-.2.37-.48s-.1-.47-.36-.47S280.89,146.69,280.89,146.92Z"/><path class="cls-2" d="M282.91,146v.35h.32v.16h-.32v.66c0,.15,0,.24.17.24l.13,0v.17a.53.53,0,0,1-.2,0,.31.31,0,0,1-.24-.09.49.49,0,0,1-.08-.32v-.67h-.19v-.16h.19V146Z"/><path class="cls-2" d="M284,145.74h.23v.76h0a.41.41,0,0,1,.16-.16.44.44,0,0,1,.23-.06c.16,0,.42.1.42.52v.72h-.22v-.7c0-.19-.07-.36-.28-.36a.33.33,0,0,0-.3.22.37.37,0,0,0,0,.11v.73H284Z"/><path class="cls-2" d="M286,147a.4.4,0,0,0,.42.42.94.94,0,0,0,.34-.06l0,.15a.94.94,0,0,1-.41.08.56.56,0,0,1-.6-.61.59.59,0,0,1,.57-.66.52.52,0,0,1,.51.57c0,.05,0,.08,0,.11Zm.65-.16a.32.32,0,0,0-.31-.36.37.37,0,0,0-.34.36Z"/><path class="cls-2" d="M287.66,146.69c0-.15,0-.27,0-.38h.19v.23h0a.36.36,0,0,1,.34-.26h.06v.2h-.08a.31.31,0,0,0-.29.28.37.37,0,0,0,0,.11v.64h-.22Z"/><path class="cls-2" d="M290.27,146a.13.13,0,0,1-.14.14A.13.13,0,0,1,290,146a.13.13,0,0,1,.13-.13A.13.13,0,0,1,290.27,146Zm-.25,1.56v-1.21h.23v1.21Z"/><path class="cls-2" d="M291.12,146.64c0-.13,0-.23,0-.33h.19v.19h0a.43.43,0,0,1,.38-.22.37.37,0,0,1,.35.24h0a.56.56,0,0,1,.14-.16.43.43,0,0,1,.27-.08c.16,0,.4.1.4.53v.71h-.22v-.69c0-.23-.08-.37-.26-.37a.27.27,0,0,0-.26.2.36.36,0,0,0,0,.11v.75h-.22v-.73c0-.19-.08-.33-.25-.33a.31.31,0,0,0-.28.22.36.36,0,0,0,0,.11v.73h-.21Z"/><path class="cls-2" d="M293.73,146.7c0-.15,0-.28,0-.39h.2v.2h0a.48.48,0,0,1,.43-.23.55.55,0,0,1,.52.62.57.57,0,0,1-.55.65.42.42,0,0,1-.38-.19h0V148h-.22Zm.22.33a.28.28,0,0,0,0,.09.34.34,0,0,0,.33.26c.23,0,.37-.19.37-.47s-.13-.46-.37-.46a.35.35,0,0,0-.33.28.28.28,0,0,0,0,.09Z"/><path class="cls-2" d="M296.77,146.91a.59.59,0,0,1-.61.64.57.57,0,0,1-.58-.62.59.59,0,0,1,.6-.65A.58.58,0,0,1,296.77,146.91Zm-1,0a.42.42,0,0,0,.37.47c.21,0,.37-.2.37-.48s-.1-.47-.36-.47S295.8,146.69,295.8,146.92Z"/><path class="cls-2" d="M297.55,146.69c0-.15,0-.27,0-.38h.2v.23h0a.37.37,0,0,1,.34-.26h.07v.2h-.08a.31.31,0,0,0-.3.28s0,.07,0,.11v.64h-.22Z"/><path class="cls-2" d="M299.21,146v.35h.32v.16h-.32v.66c0,.15,0,.24.17.24l.12,0v.17a.47.47,0,0,1-.19,0,.3.3,0,0,1-.24-.09.49.49,0,0,1-.09-.32v-.67h-.19v-.16H299V146Z"/><path class="cls-2" d="M301,147.52l0-.15h0a.44.44,0,0,1-.37.18.34.34,0,0,1-.37-.35c0-.29.26-.45.73-.45v0a.25.25,0,0,0-.28-.28.7.7,0,0,0-.32.09l-.05-.14a.75.75,0,0,1,.4-.11c.38,0,.47.25.47.5v.45a1.28,1.28,0,0,0,0,.29Zm0-.62c-.24,0-.51,0-.51.28a.19.19,0,0,0,.21.21.29.29,0,0,0,.29-.21.15.15,0,0,0,0-.07Z"/><path class="cls-2" d="M302,146.64c0-.13,0-.23,0-.33h.2v.2h0a.44.44,0,0,1,.4-.23c.17,0,.43.1.43.52v.72h-.22v-.7c0-.19-.08-.36-.28-.36a.31.31,0,0,0-.3.23.3.3,0,0,0,0,.1v.73H302Z"/><path class="cls-2" d="M304.16,146v.35h.32v.16h-.32v.66c0,.15,0,.24.17.24l.13,0v.17a.53.53,0,0,1-.2,0,.31.31,0,0,1-.24-.09.49.49,0,0,1-.08-.32v-.67h-.19v-.16H304V146Z"/><path class="cls-2" d="M306.24,147.3a.62.62,0,0,0,.29.09c.17,0,.24-.08.24-.19s-.06-.16-.23-.22-.32-.2-.32-.34a.38.38,0,0,1,.42-.36.6.6,0,0,1,.3.07l-.05.16a.5.5,0,0,0-.25-.07.19.19,0,0,0-.21.17c0,.1.08.15.24.21s.32.18.32.36-.17.37-.46.37a.68.68,0,0,1-.34-.08Z"/><path class="cls-2" d="M308.88,146.91a.59.59,0,0,1-.61.64.57.57,0,0,1-.58-.62.59.59,0,0,1,.6-.65A.58.58,0,0,1,308.88,146.91Zm-1,0a.42.42,0,0,0,.37.47c.21,0,.37-.2.37-.48s-.1-.47-.36-.47S307.91,146.69,307.91,146.92Z"/><path class="cls-2" d="M310.68,147.19c0,.13,0,.24,0,.33h-.19v-.19h0a.48.48,0,0,1-.4.22c-.19,0-.42-.1-.42-.53v-.71h.22V147c0,.23.07.39.27.39a.31.31,0,0,0,.29-.2.25.25,0,0,0,0-.12v-.74h.22Z"/><path class="cls-2" d="M311.56,146.69c0-.15,0-.27,0-.38h.19v.23h0a.36.36,0,0,1,.34-.26h.06v.2h-.08a.31.31,0,0,0-.29.28.37.37,0,0,0,0,.11v.64h-.22Z"/><path class="cls-2" d="M313.73,147.48a.84.84,0,0,1-.35.07.58.58,0,0,1-.61-.62.62.62,0,0,1,.66-.65.81.81,0,0,1,.31.06l-.06.17a.49.49,0,0,0-.25,0,.42.42,0,0,0-.43.46.41.41,0,0,0,.42.45.57.57,0,0,0,.27-.06Z"/><path class="cls-2" d="M314.6,147a.4.4,0,0,0,.42.42.9.9,0,0,0,.34-.06l0,.15a.91.91,0,0,1-.41.08.57.57,0,0,1-.6-.61.59.59,0,0,1,.57-.66.52.52,0,0,1,.51.57c0,.05,0,.08,0,.11Zm.65-.16a.31.31,0,0,0-.3-.36.35.35,0,0,0-.34.36Z"/><path class="cls-2" d="M318.39,146.91a.59.59,0,0,1-.61.64.57.57,0,0,1-.58-.62.6.6,0,0,1,.6-.65A.58.58,0,0,1,318.39,146.91Zm-1,0a.42.42,0,0,0,.37.47c.21,0,.37-.2.37-.48s-.1-.47-.36-.47S317.42,146.69,317.42,146.92Z"/><path class="cls-2" d="M319.2,147.52v-1.05H319v-.16h.17v-.06a.6.6,0,0,1,.14-.43.41.41,0,0,1,.3-.11,1,1,0,0,1,.19,0l0,.18a.24.24,0,0,0-.14,0c-.18,0-.23.16-.23.35v.07h.29v.16h-.29v1.05Z"/><path class="cls-2" d="M321.7,146a.13.13,0,0,1-.14.14.13.13,0,0,1-.13-.14.13.13,0,0,1,.14-.13A.13.13,0,0,1,321.7,146Zm-.24,1.56v-1.21h.22v1.21Z"/><path class="cls-2" d="M322.55,146.64c0-.13,0-.23,0-.33h.2v.2h0a.44.44,0,0,1,.41-.23c.16,0,.43.1.43.52v.72h-.22v-.7c0-.19-.08-.36-.29-.36a.3.3,0,0,0-.29.23.3.3,0,0,0,0,.1v.73h-.22Z"/><path class="cls-2" d="M324.48,147.52v-1.05h-.18v-.16h.18v-.06a.56.56,0,0,1,.14-.43.41.41,0,0,1,.29-.11.75.75,0,0,1,.19,0l0,.18a.26.26,0,0,0-.14,0c-.19,0-.23.16-.23.35v.07H325v.16h-.29v1.05Z"/><path class="cls-2" d="M326.76,146.91a.59.59,0,0,1-.6.64.58.58,0,0,1-.59-.62.6.6,0,0,1,.61-.65A.57.57,0,0,1,326.76,146.91Zm-1,0c0,.26.15.47.37.47s.37-.2.37-.48-.11-.47-.37-.47S325.8,146.69,325.8,146.92Z"/><path class="cls-2" d="M327.55,146.69c0-.15,0-.27,0-.38h.19v.23h0a.37.37,0,0,1,.34-.26h.06v.2h-.07a.31.31,0,0,0-.3.28.37.37,0,0,0,0,.11v.64h-.22Z"/><path class="cls-2" d="M328.89,146.64c0-.13,0-.23,0-.33h.19v.19h0a.43.43,0,0,1,.38-.22.37.37,0,0,1,.35.24h0a.56.56,0,0,1,.14-.16.43.43,0,0,1,.27-.08c.16,0,.4.1.4.53v.71h-.22v-.69c0-.23-.08-.37-.26-.37a.27.27,0,0,0-.26.2.36.36,0,0,0,0,.11v.75h-.22v-.73c0-.19-.08-.33-.25-.33a.31.31,0,0,0-.28.22.37.37,0,0,0,0,.11v.73h-.22Z"/><path class="cls-2" d="M332.17,147.52l0-.15h0a.45.45,0,0,1-.38.18.35.35,0,0,1-.37-.35c0-.29.26-.45.73-.45v0a.24.24,0,0,0-.27-.28.66.66,0,0,0-.32.09l-.05-.14a.72.72,0,0,1,.4-.11c.37,0,.46.25.46.5v.45a2.33,2.33,0,0,0,0,.29Zm0-.62c-.24,0-.52,0-.52.28a.2.2,0,0,0,.21.21.31.31,0,0,0,.3-.21s0,0,0-.07Z"/><path class="cls-2" d="M333.47,146v.35h.32v.16h-.32v.66c0,.15,0,.24.17.24l.13,0v.17a.53.53,0,0,1-.2,0,.31.31,0,0,1-.24-.09.49.49,0,0,1-.08-.32v-.67h-.19v-.16h.19V146Z"/><path class="cls-2" d="M334.79,146a.13.13,0,0,1-.14.14.14.14,0,1,1,0-.27A.13.13,0,0,1,334.79,146Zm-.25,1.56v-1.21h.23v1.21Z"/><path class="cls-2" d="M336.74,146.91a.59.59,0,0,1-.61.64.57.57,0,0,1-.58-.62.6.6,0,0,1,.61-.65A.58.58,0,0,1,336.74,146.91Zm-1,0a.42.42,0,0,0,.37.47c.22,0,.37-.2.37-.48s-.1-.47-.36-.47S335.77,146.69,335.77,146.92Z"/><path class="cls-2" d="M337.53,146.64c0-.13,0-.23,0-.33h.19l0,.2h0a.44.44,0,0,1,.4-.23c.17,0,.43.1.43.52v.72h-.22v-.7c0-.19-.07-.36-.28-.36a.32.32,0,0,0-.3.23.31.31,0,0,0,0,.1v.73h-.22Z"/><circle class="cls-2" cx="273.78" cy="146.85" r="0.7"/><circle class="cls-2" cx="341.5" cy="146.85" r="0.7"/><rect class="cls-2" x="351.48" y="145.05" width="94.98" height="0.05"/><rect class="cls-2" x="361.98" y="146.73" width="80.69" height="0.05"/><rect class="cls-2" x="354.63" y="148.2" width="93.3" height="0.05"/></svg>