<svg id="图层_1" data-name="图层 1" xmlns="http://www.w3.org/2000/svg" xmlns:xlink="http://www.w3.org/1999/xlink" viewBox="0 0 512 512"><defs><style>.cls-1,.cls-2,.cls-3{fill:none;}.cls-1,.cls-2{stroke:#00a4ff;stroke-miterlimit:10;}.cls-1{stroke-width:2px;}.cls-4{fill:url(#未命名的渐变_193);}</style><linearGradient id="未命名的渐变_193" x1="118.33" y1="279.33" x2="279.33" y2="118.33" gradientUnits="userSpaceOnUse"><stop offset="0" stop-color="#fcc314" stop-opacity="0"/><stop offset="0.11" stop-color="#fcc314" stop-opacity="0.02"/><stop offset="0.23" stop-color="#fcc314" stop-opacity="0.07"/><stop offset="0.37" stop-color="#fcc314" stop-opacity="0.17"/><stop offset="0.5" stop-color="#fcc314" stop-opacity="0.29"/><stop offset="0.65" stop-color="#fcc314" stop-opacity="0.46"/><stop offset="0.79" stop-color="#fcc314" stop-opacity="0.66"/><stop offset="0.94" stop-color="#fcc314" stop-opacity="0.9"/><stop offset="1" stop-color="#fcc314"/></linearGradient></defs><title>大屏 小配件nnn</title><circle class="cls-1" cx="256" cy="256" r="161"/><circle class="cls-2" cx="256" cy="256" r="126"/><circle class="cls-2" cx="256" cy="256" r="96"/><circle class="cls-1" cx="256" cy="256" r="56"/><line class="cls-2" x1="87.5" y1="256" x2="424.5" y2="256"/><line class="cls-2" x1="256" y1="87.5" x2="256" y2="424.5"/><path class="cls-3" d="M255,255.66h0s0,.12,0,.34h1v-1c-.22,0-.34,0-.37,0A1.9,1.9,0,0,0,255,255.66Z"/><path class="cls-3" d="M256,257c.22,0,.34,0,.37,0a1.9,1.9,0,0,0,.62-.64h0s0-.12,0-.34h-1Z"/><path class="cls-3" d="M257,256c0-.22,0-.34,0-.37a1.9,1.9,0,0,0-.64-.62H256v1Z"/><path class="cls-3" d="M255,256c0,.22,0,.34,0,.37a1.9,1.9,0,0,0,.64.62H256v-1Z"/><path class="cls-4" d="M255,255.66h0a1.9,1.9,0,0,1,.62-.64s.15,0,.37,0V95A161,161,0,0,0,95,256H255C255,255.78,255,255.66,255,255.66Z"/></svg>