<svg id="图层_1" data-name="图层 1" xmlns="http://www.w3.org/2000/svg" xmlns:xlink="http://www.w3.org/1999/xlink" viewBox="0 0 512 512"><defs><style>.cls-1{fill:#35a8ff;}.cls-2{fill:none;}.cls-3{fill:url(#未命名的渐变_419);}</style><linearGradient id="未命名的渐变_419" x1="117.78" y1="278.78" x2="278.91" y2="117.66" gradientUnits="userSpaceOnUse"><stop offset="0" stop-color="#2aa3ff" stop-opacity="0"/><stop offset="0.15" stop-color="#2aa3ff" stop-opacity="0.01"/><stop offset="0.28" stop-color="#2aa3ff" stop-opacity="0.05"/><stop offset="0.4" stop-color="#2aa3ff" stop-opacity="0.12"/><stop offset="0.52" stop-color="#2aa3ff" stop-opacity="0.22"/><stop offset="0.63" stop-color="#2aa3ff" stop-opacity="0.35"/><stop offset="0.74" stop-color="#2aa3ff" stop-opacity="0.5"/><stop offset="0.85" stop-color="#2aa3ff" stop-opacity="0.69"/><stop offset="0.95" stop-color="#2aa3ff" stop-opacity="0.89"/><stop offset="1" stop-color="#2aa3ff"/></linearGradient></defs><title>大屏 小配件nnn</title><path class="cls-1" d="M255.5,417.75h-2.1l0-2h4.22l0,2Z"/><path class="cls-1" d="M417.48,258l-2,0c0-.83,0-1.66,0-2.49,0-1,0-2.08,0-3.11l2,0q0,1.58,0,3.15C417.5,256.34,417.49,257.18,417.48,258Z"/><path class="cls-2" d="M254.51,255.16h0s0,.12,0,.34h1v-1a1.93,1.93,0,0,0-.37,0A1.9,1.9,0,0,0,254.51,255.16Z"/><path class="cls-2" d="M255.5,256.5a1.93,1.93,0,0,0,.37,0,1.9,1.9,0,0,0,.62-.64h0s0-.12,0-.34h-1Z"/><path class="cls-2" d="M256.5,255.5c0-.22,0-.34,0-.37a1.9,1.9,0,0,0-.64-.62h-.34v1Z"/><path class="cls-2" d="M254.5,255.5c0,.22,0,.34,0,.37a1.9,1.9,0,0,0,.64.62h.34v-1Z"/><path class="cls-3" d="M254.51,255.16h0a1.9,1.9,0,0,1,.62-.64,1.93,1.93,0,0,1,.37,0V94.25c-88.92,0-161,72.19-161,161.25h160C254.5,255.28,254.52,255.16,254.51,255.16Z"/></svg>