<svg id="图层_1" data-name="图层 1" xmlns="http://www.w3.org/2000/svg" viewBox="0 0 512 512"><defs><style>.cls-1{fill:#191e2d;}.cls-2,.cls-3,.cls-4{fill:#fff;}.cls-3{opacity:0.24;}.cls-4{opacity:0.68;}</style></defs><title>大屏 小配件nnn</title><rect class="cls-1" width="512" height="512" transform="translate(512 512) rotate(180)"/><rect class="cls-2" x="98.72" y="257.32" width="337.48" height="0.75"/><rect class="cls-3" x="106.52" y="226.5" width="0.5" height="62.39"/><rect class="cls-3" x="109.52" y="226.5" width="0.5" height="62.39"/><rect class="cls-3" x="112.52" y="226.5" width="0.5" height="62.39"/><rect class="cls-3" x="115.52" y="226.5" width="0.5" height="62.39"/><rect class="cls-3" x="118.52" y="226.5" width="0.5" height="62.39"/><rect class="cls-3" x="121.52" y="226.5" width="0.5" height="62.39"/><rect class="cls-3" x="124.52" y="226.5" width="0.5" height="62.39"/><rect class="cls-3" x="127.52" y="226.5" width="0.5" height="62.39"/><rect class="cls-3" x="130.52" y="226.5" width="0.5" height="62.39"/><rect class="cls-3" x="133.52" y="226.5" width="0.5" height="62.39"/><rect class="cls-3" x="136.52" y="226.5" width="0.5" height="62.39"/><rect class="cls-3" x="139.52" y="226.5" width="0.5" height="62.39"/><rect class="cls-3" x="142.52" y="226.5" width="0.5" height="62.39"/><rect class="cls-3" x="145.52" y="226.5" width="0.5" height="62.39"/><rect class="cls-3" x="148.52" y="226.5" width="0.5" height="62.39"/><rect class="cls-3" x="151.52" y="226.5" width="0.5" height="62.39"/><rect class="cls-3" x="154.52" y="226.5" width="0.5" height="62.39"/><rect class="cls-3" x="157.52" y="226.5" width="0.5" height="62.39"/><rect class="cls-3" x="160.52" y="226.5" width="0.5" height="62.39"/><rect class="cls-3" x="163.52" y="226.5" width="0.5" height="62.39"/><rect class="cls-3" x="166.52" y="226.5" width="0.5" height="62.39"/><rect class="cls-3" x="169.52" y="226.5" width="0.5" height="62.39"/><rect class="cls-3" x="172.52" y="226.5" width="0.5" height="62.39"/><rect class="cls-3" x="175.52" y="226.5" width="0.5" height="62.39"/><rect class="cls-3" x="178.52" y="226.5" width="0.5" height="62.39"/><rect class="cls-3" x="181.52" y="226.5" width="0.5" height="62.39"/><rect class="cls-3" x="184.52" y="226.5" width="0.5" height="62.39"/><rect class="cls-3" x="187.52" y="226.5" width="0.5" height="62.39"/><rect class="cls-3" x="190.52" y="226.5" width="0.5" height="62.39"/><rect class="cls-3" x="193.52" y="226.5" width="0.5" height="62.39"/><rect class="cls-3" x="196.52" y="226.5" width="0.5" height="62.39"/><rect class="cls-3" x="199.52" y="226.5" width="0.5" height="62.39"/><rect class="cls-3" x="202.52" y="226.5" width="0.5" height="62.39"/><rect class="cls-3" x="205.52" y="226.5" width="0.5" height="62.39"/><rect class="cls-3" x="208.52" y="226.5" width="0.5" height="62.39"/><rect class="cls-3" x="211.52" y="226.5" width="0.5" height="62.39"/><rect class="cls-3" x="214.71" y="226.5" width="0.5" height="62.39"/><rect class="cls-3" x="217.71" y="226.5" width="0.5" height="62.39"/><rect class="cls-3" x="220.71" y="226.5" width="0.5" height="62.39"/><rect class="cls-3" x="223.71" y="226.5" width="0.5" height="62.39"/><rect class="cls-3" x="226.71" y="226.5" width="0.5" height="62.39"/><rect class="cls-3" x="229.71" y="226.5" width="0.5" height="62.39"/><rect class="cls-3" x="232.71" y="226.5" width="0.5" height="62.39"/><rect class="cls-3" x="235.71" y="226.5" width="0.5" height="62.39"/><rect class="cls-3" x="238.71" y="226.5" width="0.5" height="62.39"/><rect class="cls-3" x="241.71" y="226.5" width="0.5" height="62.39"/><rect class="cls-3" x="244.71" y="226.5" width="0.5" height="62.39"/><rect class="cls-3" x="247.71" y="226.5" width="0.5" height="62.39"/><rect class="cls-3" x="250.71" y="226.5" width="0.5" height="62.39"/><rect class="cls-3" x="253.71" y="226.5" width="0.5" height="62.39"/><rect class="cls-3" x="256.71" y="226.5" width="0.5" height="62.39"/><rect class="cls-3" x="259.71" y="226.5" width="0.5" height="62.39"/><rect class="cls-3" x="262.71" y="226.5" width="0.5" height="62.39"/><rect class="cls-3" x="265.71" y="226.5" width="0.5" height="62.39"/><rect class="cls-3" x="268.71" y="226.5" width="0.5" height="62.39"/><rect class="cls-3" x="271.71" y="226.5" width="0.5" height="62.39"/><rect class="cls-3" x="274.71" y="226.5" width="0.5" height="62.39"/><rect class="cls-3" x="277.71" y="226.5" width="0.5" height="62.39"/><rect class="cls-3" x="280.71" y="226.5" width="0.5" height="62.39"/><rect class="cls-3" x="283.71" y="226.5" width="0.5" height="62.39"/><rect class="cls-3" x="286.71" y="226.5" width="0.5" height="62.39"/><rect class="cls-3" x="289.71" y="226.5" width="0.5" height="62.39"/><rect class="cls-3" x="292.71" y="226.5" width="0.5" height="62.39"/><rect class="cls-3" x="295.71" y="226.5" width="0.5" height="62.39"/><rect class="cls-3" x="298.71" y="226.5" width="0.5" height="62.39"/><rect class="cls-3" x="301.71" y="226.5" width="0.5" height="62.39"/><rect class="cls-3" x="304.71" y="226.5" width="0.5" height="62.39"/><rect class="cls-3" x="307.71" y="226.5" width="0.5" height="62.39"/><rect class="cls-3" x="310.71" y="226.5" width="0.5" height="62.39"/><rect class="cls-3" x="313.71" y="226.5" width="0.5" height="62.39"/><rect class="cls-3" x="316.71" y="226.5" width="0.5" height="62.39"/><rect class="cls-3" x="319.71" y="226.5" width="0.5" height="62.39"/><rect class="cls-3" x="319.71" y="226.5" width="0.5" height="62.39"/><rect class="cls-3" x="322.71" y="226.5" width="0.5" height="62.39"/><rect class="cls-3" x="325.71" y="226.5" width="0.5" height="62.39"/><rect class="cls-3" x="328.71" y="226.5" width="0.5" height="62.39"/><rect class="cls-3" x="331.71" y="226.5" width="0.5" height="62.39"/><rect class="cls-3" x="334.71" y="226.5" width="0.5" height="62.39"/><rect class="cls-3" x="337.71" y="226.5" width="0.5" height="62.39"/><rect class="cls-3" x="340.71" y="226.5" width="0.5" height="62.39"/><rect class="cls-3" x="343.71" y="226.5" width="0.5" height="62.39"/><rect class="cls-3" x="346.71" y="226.5" width="0.5" height="62.39"/><rect class="cls-3" x="349.71" y="226.5" width="0.5" height="62.39"/><rect class="cls-3" x="352.71" y="226.5" width="0.5" height="62.39"/><rect class="cls-3" x="355.71" y="226.5" width="0.5" height="62.39"/><rect class="cls-3" x="358.71" y="226.5" width="0.5" height="62.39"/><rect class="cls-3" x="361.71" y="226.5" width="0.5" height="62.39"/><rect class="cls-3" x="364.71" y="226.5" width="0.5" height="62.39"/><rect class="cls-3" x="367.71" y="226.5" width="0.5" height="62.39"/><rect class="cls-3" x="370.71" y="226.5" width="0.5" height="62.39"/><rect class="cls-3" x="373.71" y="226.5" width="0.5" height="62.39"/><rect class="cls-3" x="376.71" y="226.5" width="0.5" height="62.39"/><rect class="cls-3" x="379.71" y="226.5" width="0.5" height="62.39"/><rect class="cls-3" x="382.71" y="226.5" width="0.5" height="62.39"/><rect class="cls-3" x="385.71" y="226.5" width="0.5" height="62.39"/><rect class="cls-3" x="388.71" y="226.5" width="0.5" height="62.39"/><rect class="cls-3" x="391.71" y="226.5" width="0.5" height="62.39"/><rect class="cls-3" x="394.71" y="226.5" width="0.5" height="62.39"/><rect class="cls-3" x="397.71" y="226.5" width="0.5" height="62.39"/><rect class="cls-3" x="400.71" y="226.5" width="0.5" height="62.39"/><rect class="cls-3" x="403.71" y="226.5" width="0.5" height="62.39"/><rect class="cls-3" x="406.71" y="226.5" width="0.5" height="62.39"/><rect class="cls-3" x="409.71" y="226.5" width="0.5" height="62.39"/><rect class="cls-3" x="412.71" y="226.5" width="0.5" height="62.39"/><rect class="cls-3" x="415.71" y="226.5" width="0.5" height="62.39"/><rect class="cls-3" x="418.71" y="226.5" width="0.5" height="62.39"/><rect class="cls-3" x="421.71" y="226.5" width="0.5" height="62.39"/><rect class="cls-3" x="424.71" y="226.5" width="0.5" height="62.39"/><rect class="cls-4" x="106.4" y="254.37" width="0.75" height="6.23"/><rect class="cls-4" x="109.4" y="252.89" width="0.75" height="9.18"/><rect class="cls-4" x="112.4" y="251" width="0.75" height="12.97"/><rect class="cls-4" x="115.4" y="249.1" width="0.75" height="16.77"/><rect class="cls-4" x="118.4" y="240.88" width="0.75" height="33.21"/><rect class="cls-4" x="121.4" y="234.77" width="0.75" height="45.43"/><rect class="cls-4" x="124.4" y="230.34" width="0.75" height="54.28"/><rect class="cls-4" x="127.4" y="231.61" width="0.75" height="51.75"/><rect class="cls-4" x="130.4" y="228.23" width="0.75" height="58.5"/><rect class="cls-4" x="133.4" y="234.77" width="0.75" height="45.43"/><rect class="cls-4" x="136.4" y="234.77" width="0.75" height="45.43"/><rect class="cls-4" x="139.4" y="246.57" width="0.75" height="21.83"/><rect class="cls-4" x="142.4" y="251" width="0.75" height="12.97"/><rect class="cls-4" x="145.4" y="252.89" width="0.75" height="9.18"/><rect class="cls-4" x="148.4" y="252.89" width="0.75" height="9.18"/><rect class="cls-4" x="151.4" y="251" width="0.75" height="12.97"/><rect class="cls-4" x="154.4" y="252.89" width="0.75" height="9.18"/><rect class="cls-4" x="157.4" y="251" width="0.75" height="12.97"/><rect class="cls-4" x="160.4" y="250.15" width="0.75" height="14.66"/><rect class="cls-4" x="163.4" y="253.95" width="0.75" height="7.07"/><rect class="cls-4" x="166.4" y="251" width="0.75" height="12.97"/><rect class="cls-4" x="169.4" y="249.1" width="0.75" height="16.77"/><rect class="cls-4" x="172.4" y="251" width="0.75" height="12.97"/><rect class="cls-4" x="175.4" y="252.89" width="0.75" height="9.18"/><rect class="cls-4" x="178.4" y="251" width="0.75" height="12.97"/><rect class="cls-4" x="181.4" y="245.52" width="0.75" height="23.93"/><rect class="cls-4" x="184.4" y="240.88" width="0.75" height="33.21"/><rect class="cls-4" x="187.4" y="238.77" width="0.75" height="37.42"/><rect class="cls-4" x="190.4" y="230.34" width="0.75" height="54.28"/><rect class="cls-4" x="193.4" y="233.29" width="0.75" height="48.38"/><rect class="cls-4" x="196.4" y="233.29" width="0.75" height="48.38"/><rect class="cls-4" x="199.4" y="234.56" width="0.75" height="45.85"/><rect class="cls-4" x="202.4" y="230.34" width="0.75" height="54.28"/><rect class="cls-4" x="205.4" y="227.81" width="0.75" height="59.34"/><rect class="cls-4" x="208.4" y="233.29" width="0.75" height="48.38"/><rect class="cls-4" x="211.4" y="228.87" width="0.75" height="57.23"/><rect class="cls-4" x="214.59" y="238.77" width="0.75" height="37.42"/><rect class="cls-4" x="217.59" y="245.52" width="0.75" height="23.93"/><rect class="cls-4" x="220.59" y="249.1" width="0.75" height="16.77"/><rect class="cls-4" x="223.59" y="234.56" width="0.75" height="45.85"/><rect class="cls-4" x="226.59" y="230.34" width="0.75" height="54.28"/><rect class="cls-4" x="229.59" y="238.77" width="0.75" height="37.42"/><rect class="cls-4" x="232.59" y="244.46" width="0.75" height="26.04"/><rect class="cls-4" x="235.59" y="238.77" width="0.75" height="37.42"/><rect class="cls-4" x="238.59" y="238.77" width="0.75" height="37.42"/><rect class="cls-4" x="241.59" y="234.56" width="0.75" height="45.85"/><rect class="cls-4" x="244.59" y="240.88" width="0.75" height="33.21"/><rect class="cls-4" x="247.59" y="245.52" width="0.75" height="23.93"/><rect class="cls-4" x="250.59" y="249.1" width="0.75" height="16.77"/><rect class="cls-4" x="253.59" y="251" width="0.75" height="12.97"/><rect class="cls-4" x="256.59" y="251.95" width="0.75" height="11.08"/><rect class="cls-4" x="259.59" y="253.95" width="0.75" height="7.07"/><rect class="cls-4" x="262.59" y="253.95" width="0.75" height="7.07"/><rect class="cls-4" x="265.59" y="251.95" width="0.75" height="11.08"/><rect class="cls-4" x="268.59" y="251" width="0.75" height="12.97"/><rect class="cls-4" x="271.59" y="248.05" width="0.75" height="18.87"/><rect class="cls-4" x="274.59" y="247.41" width="0.75" height="20.14"/><rect class="cls-4" x="277.59" y="250.47" width="0.75" height="14.03"/><rect class="cls-4" x="280.59" y="251.95" width="0.75" height="11.08"/><rect class="cls-4" x="283.59" y="253" width="0.75" height="8.97"/><rect class="cls-4" x="286.59" y="253" width="0.75" height="8.97"/><rect class="cls-4" x="289.59" y="253.74" width="0.75" height="7.49"/><rect class="cls-4" x="292.59" y="251.95" width="0.75" height="11.08"/><rect class="cls-4" x="295.59" y="250.47" width="0.75" height="14.03"/><rect class="cls-4" x="298.59" y="248.78" width="0.75" height="17.4"/><rect class="cls-4" x="301.59" y="250.47" width="0.75" height="14.03"/><rect class="cls-4" x="304.59" y="252.47" width="0.75" height="10.02"/><rect class="cls-4" x="307.59" y="250.47" width="0.75" height="14.03"/><rect class="cls-4" x="310.59" y="246.15" width="0.75" height="22.67"/><rect class="cls-4" x="313.59" y="241.3" width="0.75" height="32.36"/><rect class="cls-4" x="316.59" y="230.34" width="0.75" height="54.28"/><rect class="cls-4" x="319.59" y="235.61" width="0.75" height="43.74"/><rect class="cls-4" x="322.59" y="233.08" width="0.75" height="48.8"/><rect class="cls-4" x="325.59" y="230.34" width="0.75" height="54.28"/><rect class="cls-4" x="328.59" y="228.44" width="0.75" height="58.08"/><rect class="cls-4" x="331.59" y="234.13" width="0.75" height="46.7"/><rect class="cls-4" x="334.59" y="227.6" width="0.75" height="59.76"/><rect class="cls-4" x="337.59" y="232.24" width="0.75" height="50.49"/><rect class="cls-4" x="340.59" y="238.77" width="0.75" height="37.42"/><rect class="cls-4" x="343.59" y="246.15" width="0.75" height="22.67"/><rect class="cls-4" x="346.59" y="250.47" width="0.75" height="14.03"/><rect class="cls-4" x="349.59" y="252.47" width="0.75" height="10.02"/><rect class="cls-4" x="352.59" y="249.73" width="0.75" height="15.5"/><rect class="cls-4" x="355.59" y="243.62" width="0.75" height="27.73"/><rect class="cls-4" x="358.59" y="241.3" width="0.75" height="32.36"/><rect class="cls-4" x="361.59" y="230.34" width="0.75" height="54.28"/><rect class="cls-4" x="364.59" y="228.44" width="0.75" height="58.08"/><rect class="cls-4" x="367.59" y="237.93" width="0.75" height="39.11"/><rect class="cls-4" x="370.59" y="241.3" width="0.75" height="32.36"/><rect class="cls-4" x="373.59" y="250.47" width="0.75" height="14.03"/><rect class="cls-4" x="376.59" y="253.95" width="0.75" height="7.07"/><rect class="cls-4" x="379.59" y="253.95" width="0.75" height="7.07"/><rect class="cls-4" x="382.59" y="251.63" width="0.75" height="11.71"/><rect class="cls-4" x="385.59" y="250.47" width="0.75" height="14.03"/><rect class="cls-4" x="388.59" y="252.47" width="0.75" height="10.02"/><rect class="cls-4" x="391.59" y="251.63" width="0.75" height="11.71"/><rect class="cls-4" x="394.59" y="253.95" width="0.75" height="7.07"/><rect class="cls-4" x="397.59" y="252.47" width="0.75" height="10.02"/><rect class="cls-4" x="400.59" y="249.73" width="0.75" height="15.5"/><rect class="cls-4" x="403.59" y="252.47" width="0.75" height="10.02"/><rect class="cls-4" x="406.59" y="243.62" width="0.75" height="27.73"/><rect class="cls-4" x="409.59" y="230.34" width="0.75" height="54.28"/><rect class="cls-4" x="412.59" y="227.6" width="0.75" height="59.76"/><rect class="cls-4" x="415.59" y="235.19" width="0.75" height="44.59"/><rect class="cls-4" x="418.59" y="247.41" width="0.75" height="20.14"/><rect class="cls-4" x="421.59" y="252.47" width="0.75" height="10.02"/><rect class="cls-4" x="424.59" y="255.21" width="0.75" height="4.54"/><path class="cls-2" d="M436.33,291.63H75.67V220.38H436.33Zm-360.41-.25H436.08V220.63H75.92Z"/><path class="cls-2" d="M98.6,245.64H83.17V230.22H98.6Zm-15.18-.25H98.35V230.47H83.42Z"/><rect class="cls-2" x="83.3" y="266.5" width="15.18" height="15.18"/><path class="cls-2" d="M98.6,281.8H83.17V266.37H98.6Zm-15.18-.25H98.35V266.62H83.42Z"/></svg>