<svg id="图层_1" data-name="图层 1" xmlns="http://www.w3.org/2000/svg" viewBox="0 0 1498 1498"><defs><style>.cls-1,.cls-4,.cls-5{fill-opacity:0.2;}.cls-1{stroke:#333;}.cls-1,.cls-3,.cls-4,.cls-5{stroke-linecap:round;stroke-linejoin:round;stroke-width:1.95px;}.cls-2{opacity:0.2;}.cls-3{fill:none;}.cls-3,.cls-4,.cls-5{stroke:#999;}.cls-5{stroke-dasharray:1.95 11.71;}</style></defs><title>大屏 小配件nnn</title><g id="_编组_" data-name="&lt;编组&gt;"><g id="_编组_2" data-name="&lt;编组&gt;"><path id="_路径_" data-name="&lt;路径&gt;" class="cls-1" d="M952.71,1017.4l9.76,2-5.86,5.86H948.8l3.91-3.91-2-1.95Z"/></g><g id="_编组_3" data-name="&lt;编组&gt;"><path id="_路径_2" data-name="&lt;路径&gt;" class="cls-1" d="M1144,580.09l2,1.95Z"/></g><g id="_编组_4" data-name="&lt;编组&gt;"><path id="_路径_3" data-name="&lt;路径&gt;" class="cls-1" d="M1144,582h0Z"/></g><g id="_编组_5" data-name="&lt;编组&gt;"><path id="_路径_4" data-name="&lt;路径&gt;" class="cls-1" d="M1147.94,587.89h0Z"/></g><g id="_编组_6" data-name="&lt;编组&gt;"><g id="_编组_7" data-name="&lt;编组&gt;"><polygon id="_路径_5" data-name="&lt;路径&gt;" class="cls-2" points="866.81 1075.97 878.52 1074.02 886.33 1077.92 888.28 1085.73 878.52 1093.54 874.62 1107.2 868.76 1109.16 857.05 1120.87 833.62 1113.06 833.62 1093.54 847.28 1079.87 857.05 1075.97 864.86 1077.92 866.81 1075.97"/><polygon id="_路径_6" data-name="&lt;路径&gt;" class="cls-3" points="866.81 1075.97 878.52 1074.02 886.33 1077.92 888.28 1085.73 878.52 1093.54 874.62 1107.2 868.76 1109.16 857.05 1120.87 833.62 1113.06 833.62 1093.54 847.28 1079.87 857.05 1075.97 864.86 1077.92 866.81 1075.97"/></g></g><g id="_编组_8" data-name="&lt;编组&gt;"><g id="_编组_9" data-name="&lt;编组&gt;"><polygon id="_路径_7" data-name="&lt;路径&gt;" class="cls-2" points="1095.23 1019.35 1087.42 1003.73 1087.42 988.11 1108.89 956.88 1120.61 949.07 1128.41 952.97 1128.41 970.54 1122.56 978.35 1116.7 1005.68 1106.94 1017.4 1104.99 1033.02 1097.18 1019.35 1095.23 1019.35"/><polygon id="_路径_8" data-name="&lt;路径&gt;" class="cls-3" points="1095.23 1019.35 1087.42 1003.73 1087.42 988.11 1108.89 956.88 1120.61 949.07 1128.41 952.97 1128.41 970.54 1122.56 978.35 1116.7 1005.68 1106.94 1017.4 1104.99 1033.02 1097.18 1019.35 1095.23 1019.35"/></g></g><g id="_编组_10" data-name="&lt;编组&gt;"><path id="_路径_9" data-name="&lt;路径&gt;" class="cls-1" d="M1023,994l-3.9,1.95Z"/></g><g id="_编组_11" data-name="&lt;编组&gt;"><path id="_路径_10" data-name="&lt;路径&gt;" class="cls-1" d="M1134.27,831.93l-5.85-3.9,1.95-2,5.85,5.86Z"/></g><g id="_编组_12" data-name="&lt;编组&gt;"><path id="_路径_11" data-name="&lt;路径&gt;" class="cls-1" d="M1050.32,968.59l2,1.95-3.91,2v-3.91l2,1.95Z"/></g><g id="_编组_13" data-name="&lt;编组&gt;"><path id="_路径_12" data-name="&lt;路径&gt;" class="cls-1" d="M1136.22,826.07h0Z"/></g><g id="_编组_14" data-name="&lt;编组&gt;"><path id="_路径_13" data-name="&lt;路径&gt;" class="cls-1" d="M1136.22,839.74h0Z"/></g><g id="_编组_15" data-name="&lt;编组&gt;"><path id="_路径_14" data-name="&lt;路径&gt;" class="cls-1" d="M1140.13,812.41v0Z"/></g><g id="_编组_16" data-name="&lt;编组&gt;"><path id="_路径_15" data-name="&lt;路径&gt;" class="cls-1" d="M1134.27,824.12l2,2-3.9-2Z"/></g><g id="_编组_17" data-name="&lt;编组&gt;"><path id="_路径_16" data-name="&lt;路径&gt;" class="cls-1" d="M927.33,1035l-2,5.86Z"/></g><g id="_编组_18" data-name="&lt;编组&gt;"><path id="_路径_17" data-name="&lt;路径&gt;" class="cls-1" d="M1138.18,826.07h0Z"/></g><g id="_编组_19" data-name="&lt;编组&gt;"><path id="_路径_18" data-name="&lt;路径&gt;" class="cls-1" d="M919.52,1038.87h0Z"/></g><g id="_编组_20" data-name="&lt;编组&gt;"><path id="_路径_19" data-name="&lt;路径&gt;" class="cls-1" d="M1130.37,853.41l2-2Z"/></g><g id="_编组_21" data-name="&lt;编组&gt;"><path id="_路径_20" data-name="&lt;路径&gt;" class="cls-1" d="M1138.18,833.88l2,2Z"/></g><g id="_编组_22" data-name="&lt;编组&gt;"><path id="_路径_21" data-name="&lt;路径&gt;" class="cls-1" d="M1077.66,992h0Z"/></g><g id="_编组_23" data-name="&lt;编组&gt;"><path id="_路径_22" data-name="&lt;路径&gt;" class="cls-1" d="M1073.75,953h0Z"/></g><g id="_编组_24" data-name="&lt;编组&gt;"><path id="_路径_23" data-name="&lt;路径&gt;" class="cls-1" d="M1140.13,822.17v0Z"/></g><g id="_编组_25" data-name="&lt;编组&gt;"><path id="_路径_24" data-name="&lt;路径&gt;" class="cls-1" d="M1153.79,572.28h0Z"/></g><g id="_编组_26" data-name="&lt;编组&gt;"><path id="_路径_25" data-name="&lt;路径&gt;" class="cls-1" d="M1167.46,933.45v0Z"/></g><g id="_编组_27" data-name="&lt;编组&gt;"><path id="_路径_26" data-name="&lt;路径&gt;" class="cls-1" d="M1136.22,835.84l2,1.95Z"/></g><g id="_编组_28" data-name="&lt;编组&gt;"><path id="_路径_27" data-name="&lt;路径&gt;" class="cls-1" d="M1075.7,990.07v0Z"/></g><g id="_编组_29" data-name="&lt;编组&gt;"><path id="_路径_28" data-name="&lt;路径&gt;" class="cls-1" d="M1085.46,927.59h0Z"/></g><g id="_编组_30" data-name="&lt;编组&gt;"><path id="_路径_29" data-name="&lt;路径&gt;" class="cls-1" d="M958.57,1029.11h0Z"/></g><g id="_编组_31" data-name="&lt;编组&gt;"><path id="_路径_30" data-name="&lt;路径&gt;" class="cls-1" d="M876.57,1052.54l-3.9-3.91,3.9,2Z"/></g><g id="_编组_32" data-name="&lt;编组&gt;"><path id="_路径_31" data-name="&lt;路径&gt;" class="cls-1" d="M917.57,1036.92l1.95,1.95Z"/></g><g id="_编组_33" data-name="&lt;编组&gt;"><path id="_路径_32" data-name="&lt;路径&gt;" class="cls-1" d="M1101.08,617.18l2,2Z"/></g><g id="_编组_34" data-name="&lt;编组&gt;"><path id="_路径_33" data-name="&lt;路径&gt;" class="cls-1" d="M874.62,1052.54v3.9l-5.86-2,3.91-3.9Z"/></g><g id="_编组_35" data-name="&lt;编组&gt;"><path id="_路径_34" data-name="&lt;路径&gt;" class="cls-1" d="M1046.42,972.5l1.95-2Z"/></g><g id="_编组_36" data-name="&lt;编组&gt;"><path id="_路径_35" data-name="&lt;路径&gt;" class="cls-1" d="M1134.27,839.74l-2-2Z"/></g><g id="_编组_37" data-name="&lt;编组&gt;"><path id="_路径_36" data-name="&lt;路径&gt;" class="cls-1" d="M943,1027.16h0Z"/></g><g id="_编组_38" data-name="&lt;编组&gt;"><path id="_路径_37" data-name="&lt;路径&gt;" class="cls-1" d="M1083.51,915.88h0Z"/></g><g id="_编组_39" data-name="&lt;编组&gt;"><path id="_路径_38" data-name="&lt;路径&gt;" class="cls-1" d="M1126.46,798.74l-5.85-3.9,5.85,1.95Z"/></g><g id="_编组_40" data-name="&lt;编组&gt;"><path id="_路径_39" data-name="&lt;路径&gt;" class="cls-1" d="M1046.42,968.59l-2,1.95Z"/></g><g id="_编组_41" data-name="&lt;编组&gt;"><path id="_路径_40" data-name="&lt;路径&gt;" class="cls-1" d="M1103,546.9l2-2Z"/></g><g id="_编组_42" data-name="&lt;编组&gt;"><path id="_路径_41" data-name="&lt;路径&gt;" class="cls-1" d="M1128.42,830h0Z"/></g><g id="_编组_43" data-name="&lt;编组&gt;"><path id="_路径_42" data-name="&lt;路径&gt;" class="cls-1" d="M946.85,1031.06v0Z"/></g><g id="_编组_44" data-name="&lt;编组&gt;"><path id="_路径_43" data-name="&lt;路径&gt;" class="cls-1" d="M937.09,1349.29l1.95-2Z"/></g><g id="_编组_45" data-name="&lt;编组&gt;"><path id="_路径_44" data-name="&lt;路径&gt;" class="cls-1" d="M1132.32,828v0Z"/></g><g id="_编组_46" data-name="&lt;编组&gt;"><path id="_路径_45" data-name="&lt;路径&gt;" class="cls-1" d="M1075.7,990.07h0Z"/></g><g id="_编组_47" data-name="&lt;编组&gt;"><path id="_路径_46" data-name="&lt;路径&gt;" class="cls-1" d="M933.19,1033h0Z"/></g><g id="_编组_48" data-name="&lt;编组&gt;"><path id="_路径_47" data-name="&lt;路径&gt;" class="cls-1" d="M1132.32,837.79h0Z"/></g><g id="_编组_49" data-name="&lt;编组&gt;"><path id="_路径_48" data-name="&lt;路径&gt;" class="cls-1" d="M1077.66,941.26h0Z"/></g><g id="_编组_50" data-name="&lt;编组&gt;"><path id="_路径_49" data-name="&lt;路径&gt;" class="cls-1" d="M1128.42,828v0Z"/></g><g id="_编组_51" data-name="&lt;编组&gt;"><path id="_路径_50" data-name="&lt;路径&gt;" class="cls-1" d="M1126.46,796.79l5.86,2Z"/></g><g id="_编组_52" data-name="&lt;编组&gt;"><path id="_路径_51" data-name="&lt;路径&gt;" class="cls-1" d="M896.09,1146.25l1.95-2Z"/></g><g id="_编组_53" data-name="&lt;编组&gt;"><path id="_路径_52" data-name="&lt;路径&gt;" class="cls-1" d="M1034.71,1189.2l3.9,2h-3.9Z"/></g><g id="_编组_54" data-name="&lt;编组&gt;"><path id="_路径_53" data-name="&lt;路径&gt;" class="cls-1" d="M956.61,1031.06v0Z"/></g><g id="_编组_55" data-name="&lt;编组&gt;"><path id="_路径_54" data-name="&lt;路径&gt;" class="cls-1" d="M1155.75,587.89h0Z"/></g><g id="_编组_56" data-name="&lt;编组&gt;"><path id="_路径_55" data-name="&lt;路径&gt;" class="cls-1" d="M1120.61,1027.16l-2,1.95Z"/></g><g id="_编组_57" data-name="&lt;编组&gt;"><path id="_路径_56" data-name="&lt;路径&gt;" class="cls-1" d="M1118.65,1013.49l2,2Z"/></g><g id="_编组_58" data-name="&lt;编组&gt;"><path id="_路径_57" data-name="&lt;路径&gt;" class="cls-1" d="M1136.22,839.74v0Z"/></g><g id="_编组_59" data-name="&lt;编组&gt;"><path id="_路径_58" data-name="&lt;路径&gt;" class="cls-1" d="M1015.18,1058.4l2,5.85-3.9-2,3.9-2h-3.9Z"/></g><g id="_编组_60" data-name="&lt;编组&gt;"><path id="_路径_59" data-name="&lt;路径&gt;" class="cls-1" d="M902,1165.77h0Z"/></g><g id="_编组_61" data-name="&lt;编组&gt;"><path id="_路径_60" data-name="&lt;路径&gt;" class="cls-1" d="M950.76,1361l11.71-7.81,1.95,2-3.9,5.86-9.76,2Z"/></g><g id="_编组_62" data-name="&lt;编组&gt;"><path id="_路径_61" data-name="&lt;路径&gt;" class="cls-1" d="M900,1165.77l-2,2Z"/></g><g id="_编组_63" data-name="&lt;编组&gt;"><path id="_路径_62" data-name="&lt;路径&gt;" class="cls-1" d="M1136.22,824.12v0Z"/></g><g id="_编组_64" data-name="&lt;编组&gt;"><path id="_路径_63" data-name="&lt;路径&gt;" class="cls-1" d="M1136.22,835.84h0Z"/></g><g id="_编组_65" data-name="&lt;编组&gt;"><path id="_路径_64" data-name="&lt;路径&gt;" class="cls-1" d="M1147.94,814.36v0Z"/></g><g id="_编组_66" data-name="&lt;编组&gt;"><path id="_路径_65" data-name="&lt;路径&gt;" class="cls-1" d="M952.71,1333.67v0Z"/></g><g id="_编组_67" data-name="&lt;编组&gt;"><path id="_路径_66" data-name="&lt;路径&gt;" class="cls-1" d="M1110.84,884.64v0Z"/></g><g id="_编组_68" data-name="&lt;编组&gt;"><path id="_路径_67" data-name="&lt;路径&gt;" class="cls-1" d="M843.38,1052.54h0Z"/></g><g id="_编组_69" data-name="&lt;编组&gt;"><path id="_路径_68" data-name="&lt;路径&gt;" class="cls-1" d="M902,1159.92l1.95-2Z"/></g><g id="_编组_70" data-name="&lt;编组&gt;"><path id="_路径_69" data-name="&lt;路径&gt;" class="cls-1" d="M907.81,1163.82l2-2Z"/></g><g id="_编组_71" data-name="&lt;编组&gt;"><path id="_路径_70" data-name="&lt;路径&gt;" class="cls-1" d="M968.33,1300.48l1.95-2Z"/></g><g id="_编组_72" data-name="&lt;编组&gt;"><path id="_路径_71" data-name="&lt;路径&gt;" class="cls-1" d="M993.71,1314.15l1.95-2-1.95,3.91Z"/></g><g id="_编组_73" data-name="&lt;编组&gt;"><path id="_路径_72" data-name="&lt;路径&gt;" class="cls-1" d="M1073.75,999.83v0Z"/></g><g id="_编组_74" data-name="&lt;编组&gt;"><path id="_路径_73" data-name="&lt;路径&gt;" class="cls-1" d="M966.38,1308.29v0Z"/></g><g id="_编组_75" data-name="&lt;编组&gt;"><path id="_路径_74" data-name="&lt;路径&gt;" class="cls-1" d="M851.19,1366.86,861,1363h-3.9l-5.86,5.86Z"/></g><g id="_编组_76" data-name="&lt;编组&gt;"><path id="_路径_75" data-name="&lt;路径&gt;" class="cls-1" d="M1003.47,1333.67l1.95-2Z"/></g><g id="_编组_77" data-name="&lt;编组&gt;"><path id="_路径_76" data-name="&lt;路径&gt;" class="cls-1" d="M1099.13,619.13l1.95-2Z"/></g><g id="_编组_78" data-name="&lt;编组&gt;"><path id="_路径_77" data-name="&lt;路径&gt;" class="cls-1" d="M1093.27,910h0Z"/></g><g id="_编组_79" data-name="&lt;编组&gt;"><path id="_路径_78" data-name="&lt;路径&gt;" class="cls-1" d="M919.52,1333.67h0Z"/></g><g id="_编组_80" data-name="&lt;编组&gt;"><path id="_路径_79" data-name="&lt;路径&gt;" class="cls-1" d="M878.52,1054.49h0Z"/></g><g id="_编组_81" data-name="&lt;编组&gt;"><path id="_路径_80" data-name="&lt;路径&gt;" class="cls-1" d="M919.52,1171.63l-1.95-2h3.9Z"/></g><g id="_编组_82" data-name="&lt;编组&gt;"><path id="_路径_81" data-name="&lt;路径&gt;" class="cls-1" d="M962.47,1288.77h0Z"/></g><g id="_编组_83" data-name="&lt;编组&gt;"><path id="_路径_82" data-name="&lt;路径&gt;" class="cls-1" d="M1103,609.37l2-2Z"/></g><g id="_编组_84" data-name="&lt;编组&gt;"><path id="_路径_83" data-name="&lt;路径&gt;" class="cls-1" d="M876.57,1070.11v0Z"/></g><g id="_编组_85" data-name="&lt;编组&gt;"><path id="_路径_84" data-name="&lt;路径&gt;" class="cls-1" d="M915.62,1150.15v0Z"/></g><g id="_编组_86" data-name="&lt;编组&gt;"><path id="_路径_85" data-name="&lt;路径&gt;" class="cls-1" d="M1007.37,1298.53h3.91l-3.91,2Z"/></g><g id="_编组_87" data-name="&lt;编组&gt;"><path id="_路径_86" data-name="&lt;路径&gt;" class="cls-1" d="M1128.42,800.69l1.95,2Z"/></g><g id="_编组_88" data-name="&lt;编组&gt;"><path id="_路径_87" data-name="&lt;路径&gt;" class="cls-1" d="M985.9,1310.24h0Z"/></g><g id="_编组_89" data-name="&lt;编组&gt;"><path id="_路径_88" data-name="&lt;路径&gt;" class="cls-1" d="M984,1322h0Z"/></g><g id="_编组_90" data-name="&lt;编组&gt;"><path id="_路径_89" data-name="&lt;路径&gt;" class="cls-1" d="M978.09,1343.43H982l-2,2Z"/></g><g id="_编组_91" data-name="&lt;编组&gt;"><path id="_路径_90" data-name="&lt;路径&gt;" class="cls-1" d="M1060.08,584v0Z"/></g><g id="_编组_92" data-name="&lt;编组&gt;"><path id="_路径_91" data-name="&lt;路径&gt;" class="cls-1" d="M968.33,1347.34v0Z"/></g><g id="_编组_93" data-name="&lt;编组&gt;"><path id="_路径_92" data-name="&lt;路径&gt;" class="cls-1" d="M1007.37,1325.86v0Z"/></g><g id="_编组_94" data-name="&lt;编组&gt;"><path id="_路径_93" data-name="&lt;路径&gt;" class="cls-1" d="M944.9,1329.76v0Z"/></g><g id="_编组_95" data-name="&lt;编组&gt;"><path id="_路径_94" data-name="&lt;路径&gt;" class="cls-1" d="M950.76,1333.67v0Z"/></g><g id="_编组_96" data-name="&lt;编组&gt;"><path id="_路径_95" data-name="&lt;路径&gt;" class="cls-1" d="M966.38,1275.1l2-1.95Z"/></g><g id="_编组_97" data-name="&lt;编组&gt;"><path id="_路径_96" data-name="&lt;路径&gt;" class="cls-1" d="M907.81,1445h0Z"/></g><g id="_编组_98" data-name="&lt;编组&gt;"><path id="_路径_97" data-name="&lt;路径&gt;" class="cls-1" d="M862.9,1355.14l2-2-2,3.91Z"/></g><g id="_编组_99" data-name="&lt;编组&gt;"><path id="_路径_98" data-name="&lt;路径&gt;" class="cls-1" d="M898,1159.92h0Z"/></g><g id="_编组_100" data-name="&lt;编组&gt;"><path id="_路径_99" data-name="&lt;路径&gt;" class="cls-1" d="M968.33,1284.86l1.95-1.95Z"/></g><g id="_编组_101" data-name="&lt;编组&gt;"><path id="_路径_100" data-name="&lt;路径&gt;" class="cls-1" d="M972.23,1288.77h0Z"/></g><g id="_编组_102" data-name="&lt;编组&gt;"><path id="_路径_101" data-name="&lt;路径&gt;" class="cls-1" d="M1013.23,1273.15l1.95,1.95Z"/></g><g id="_编组_103" data-name="&lt;编组&gt;"><path id="_路径_102" data-name="&lt;路径&gt;" class="cls-1" d="M919.52,1159.92l2-2Z"/></g><g id="_编组_104" data-name="&lt;编组&gt;"><path id="_路径_103" data-name="&lt;路径&gt;" class="cls-1" d="M948.8,1306.34l2-2v3.91Z"/></g><g id="_编组_105" data-name="&lt;编组&gt;"><path id="_路径_104" data-name="&lt;路径&gt;" class="cls-1" d="M982,1302.43v0Z"/></g><g id="_编组_106" data-name="&lt;编组&gt;"><path id="_路径_105" data-name="&lt;路径&gt;" class="cls-1" d="M997.61,1322l-2,2Z"/></g><g id="_编组_107" data-name="&lt;编组&gt;"><path id="_路径_106" data-name="&lt;路径&gt;" class="cls-1" d="M968.33,1361v0Z"/></g><g id="_编组_108" data-name="&lt;编组&gt;"><path id="_路径_107" data-name="&lt;路径&gt;" class="cls-1" d="M968.33,1167.72l1.95-2Z"/></g><g id="_编组_109" data-name="&lt;编组&gt;"><path id="_路径_108" data-name="&lt;路径&gt;" class="cls-1" d="M980,1341.48h0Z"/></g><g id="_编组_110" data-name="&lt;编组&gt;"><path id="_路径_109" data-name="&lt;路径&gt;" class="cls-1" d="M874.62,1349.29v0Z"/></g><g id="_编组_111" data-name="&lt;编组&gt;"><path id="_路径_110" data-name="&lt;路径&gt;" class="cls-1" d="M935.14,1351.24l2-2Z"/></g><g id="_编组_112" data-name="&lt;编组&gt;"><path id="_路径_111" data-name="&lt;路径&gt;" class="cls-1" d="M958.57,1302.43l1.95-2Z"/></g><g id="_编组_113" data-name="&lt;编组&gt;"><path id="_路径_112" data-name="&lt;路径&gt;" class="cls-1" d="M1011.28,1296.58h0Z"/></g><g id="_编组_114" data-name="&lt;编组&gt;"><path id="_路径_113" data-name="&lt;路径&gt;" class="cls-1" d="M1036.66,1290.72l1.95-2Z"/></g><g id="_编组_115" data-name="&lt;编组&gt;"><path id="_路径_114" data-name="&lt;路径&gt;" class="cls-1" d="M995.66,1050.59l2,2Z"/></g><g id="_编组_116" data-name="&lt;编组&gt;"><path id="_路径_115" data-name="&lt;路径&gt;" class="cls-1" d="M913.66,1443h0Z"/></g><g id="_编组_117" data-name="&lt;编组&gt;"><path id="_路径_116" data-name="&lt;路径&gt;" class="cls-1" d="M876.57,1353.19h0Z"/></g><g id="_编组_118" data-name="&lt;编组&gt;"><path id="_路径_117" data-name="&lt;路径&gt;" class="cls-1" d="M898,1363h0Z"/></g><g id="_编组_119" data-name="&lt;编组&gt;"><path id="_路径_118" data-name="&lt;路径&gt;" class="cls-1" d="M905.85,1351.24h0Z"/></g><g id="_编组_120" data-name="&lt;编组&gt;"><path id="_路径_119" data-name="&lt;路径&gt;" class="cls-1" d="M900,1337.57l2,2Z"/></g><g id="_编组_121" data-name="&lt;编组&gt;"><path id="_路径_120" data-name="&lt;路径&gt;" class="cls-1" d="M915.62,1331.72h0Z"/></g><g id="_编组_122" data-name="&lt;编组&gt;"><path id="_路径_121" data-name="&lt;路径&gt;" class="cls-1" d="M1024.94,1300.48h0Z"/></g><g id="_编组_123" data-name="&lt;编组&gt;"><path id="_路径_122" data-name="&lt;路径&gt;" class="cls-1" d="M956.61,1169.68h0Z"/></g><g id="_编组_124" data-name="&lt;编组&gt;"><path id="_路径_123" data-name="&lt;路径&gt;" class="cls-1" d="M1024.94,1292.67h0Z"/></g><g id="_编组_125" data-name="&lt;编组&gt;"><path id="_路径_124" data-name="&lt;路径&gt;" class="cls-1" d="M997.61,1306.34h0Z"/></g><g id="_编组_126" data-name="&lt;编组&gt;"><path id="_路径_125" data-name="&lt;路径&gt;" class="cls-1" d="M966.38,1333.67l2-2Z"/></g><g id="_编组_127" data-name="&lt;编组&gt;"><path id="_路径_126" data-name="&lt;路径&gt;" class="cls-1" d="M919.52,1402h0Z"/></g><g id="_编组_128" data-name="&lt;编组&gt;"><path id="_路径_127" data-name="&lt;路径&gt;" class="cls-1" d="M995.66,1054.49v0Z"/></g><g id="_编组_129" data-name="&lt;编组&gt;"><path id="_路径_128" data-name="&lt;路径&gt;" class="cls-1" d="M972.23,1368.81l-2,2Z"/></g><g id="_编组_130" data-name="&lt;编组&gt;"><path id="_路径_129" data-name="&lt;路径&gt;" class="cls-1" d="M944.9,1376.62h0Z"/></g><g id="_编组_131" data-name="&lt;编组&gt;"><path id="_路径_130" data-name="&lt;路径&gt;" class="cls-1" d="M921.47,1407.86v0Z"/></g><g id="_编组_132" data-name="&lt;编组&gt;"><path id="_路径_131" data-name="&lt;路径&gt;" class="cls-1" d="M919.52,1405.9h0Z"/></g><g id="_编组_133" data-name="&lt;编组&gt;"><path id="_路径_132" data-name="&lt;路径&gt;" class="cls-1" d="M913.66,1333.67h0Z"/></g><g id="_编组_134" data-name="&lt;编组&gt;"><path id="_路径_133" data-name="&lt;路径&gt;" class="cls-1" d="M962.47,1169.68h0Z"/></g><g id="_编组_135" data-name="&lt;编组&gt;"><path id="_路径_134" data-name="&lt;路径&gt;" class="cls-1" d="M1013.23,1161.87v0Z"/></g><g id="_编组_136" data-name="&lt;编组&gt;"><path id="_路径_135" data-name="&lt;路径&gt;" class="cls-1" d="M1026.9,1306.34h0Z"/></g><g id="_编组_137" data-name="&lt;编组&gt;"><path id="_路径_136" data-name="&lt;路径&gt;" class="cls-1" d="M927.33,1355.14l1.95,2Z"/></g><g id="_编组_138" data-name="&lt;编组&gt;"><path id="_路径_137" data-name="&lt;路径&gt;" class="cls-1" d="M948.8,1097.44h0Z"/></g><g id="_编组_139" data-name="&lt;编组&gt;"><path id="_路径_138" data-name="&lt;路径&gt;" class="cls-1" d="M900,1355.14h0Z"/></g><g id="_编组_140" data-name="&lt;编组&gt;"><path id="_路径_139" data-name="&lt;路径&gt;" class="cls-1" d="M915.62,1405.9h0Z"/></g><g id="_编组_141" data-name="&lt;编组&gt;"><path id="_路径_140" data-name="&lt;路径&gt;" class="cls-1" d="M913.66,1154.06v0Z"/></g><g id="_编组_142" data-name="&lt;编组&gt;"><path id="_路径_141" data-name="&lt;路径&gt;" class="cls-1" d="M1001.52,1316.1v0Z"/></g><g id="_编组_143" data-name="&lt;编组&gt;"><path id="_路径_142" data-name="&lt;路径&gt;" class="cls-1" d="M898,1357.1h0Z"/></g><g id="_编组_144" data-name="&lt;编组&gt;"><path id="_路径_143" data-name="&lt;路径&gt;" class="cls-1" d="M921.47,1411.76h0Z"/></g><g id="_编组_145" data-name="&lt;编组&gt;"><path id="_路径_144" data-name="&lt;路径&gt;" class="cls-1" d="M974.18,1363v0Z"/></g><g id="_编组_146" data-name="&lt;编组&gt;"><path id="_路径_145" data-name="&lt;路径&gt;" class="cls-1" d="M974.18,1169.68h0Z"/></g><g id="_编组_147" data-name="&lt;编组&gt;"><path id="_路径_146" data-name="&lt;路径&gt;" class="cls-1" d="M950.76,1173.58l2,2Z"/></g><g id="_编组_148" data-name="&lt;编组&gt;"><path id="_路径_147" data-name="&lt;路径&gt;" class="cls-1" d="M991.75,1296.58v0Z"/></g><g id="_编组_149" data-name="&lt;编组&gt;"><path id="_路径_148" data-name="&lt;路径&gt;" class="cls-1" d="M1026.9,1282.91h0Z"/></g><g id="_编组_150" data-name="&lt;编组&gt;"><path id="_路径_149" data-name="&lt;路径&gt;" class="cls-1" d="M1142.08,994l5.86-27.33Z"/></g><g id="_编组_151" data-name="&lt;编组&gt;"><path id="_路径_150" data-name="&lt;路径&gt;" class="cls-1" d="M1112.8,1058.4l15.62-21.48Z"/></g><g id="_编组_152" data-name="&lt;编组&gt;"><path id="_路径_151" data-name="&lt;路径&gt;" class="cls-1" d="M1073.75,1124.77l13.67-25.38Z"/></g><g id="_编组_153" data-name="&lt;编组&gt;"><path id="_路径_152" data-name="&lt;路径&gt;" class="cls-1" d="M1065.94,1193.1v0Z"/></g><g id="_编组_154" data-name="&lt;编组&gt;"><path id="_路径_153" data-name="&lt;路径&gt;" class="cls-1" d="M1056.18,1281l7.81-17.57-9.76,23.42Z"/></g><g id="_编组_155" data-name="&lt;编组&gt;"><path id="_路径_154" data-name="&lt;路径&gt;" class="cls-1" d="M987.85,1370.76l15.62-17.57Z"/></g><g id="_编组_156" data-name="&lt;编组&gt;"><path id="_路径_155" data-name="&lt;路径&gt;" class="cls-1" d="M915.62,1452.76l11.71-5.86-23.43,7.81Z"/></g><g id="_编组_157" data-name="&lt;编组&gt;"><path id="_路径_156" data-name="&lt;路径&gt;" class="cls-1" d="M825.81,1396.14l-1.95-23.43Z"/></g><g id="_编组_158" data-name="&lt;编组&gt;"><path id="_路径_157" data-name="&lt;路径&gt;" class="cls-1" d="M866.81,1277.05l3.9-17.57v11.72l-5.85,7.8Z"/></g><g id="_编组_159" data-name="&lt;编组&gt;"><path id="_路径_158" data-name="&lt;路径&gt;" class="cls-1" d="M861,1189.2l-11.71-23.43,7.81,11.72,3.9,13.66Z"/></g><g id="_编组_160" data-name="&lt;编组&gt;"><path id="_路径_159" data-name="&lt;路径&gt;" class="cls-4" d="M1015.18,570.32h-3.9l-5.86,5.86-3.9-3.9H985.9L984,566.42h3.9l-3.9-5.86,11.71-7.81v-3.9l-3.91-2,2-3.91,13.66-5.86-2-3.9,7.81-3.9v3.9l5.86,5.86L1030.8,541l-5.86,2,2,13.67-13.67,3.9,5.86,5.86Z"/></g><g id="_编组_161" data-name="&lt;编组&gt;"><path id="_路径_160" data-name="&lt;路径&gt;" class="cls-4" d="M1036.66,578.13h-5.86l11.71,2-3.9,5.85v7.81l-1.95-2-3.91,7.81-7.81,1.95-11.71-7.81,3.9-7.81-2-13.66,2-3.91,5.86,2V558.61l5.86-5.86h3.9l3.91,5.86-5.86,1.95v3.91l3.91,3.9v5.86l5.85-2-2,3.9Z"/></g><g id="_编组_162" data-name="&lt;编组&gt;"><path id="_路径_161" data-name="&lt;路径&gt;" class="cls-5" d="M1036.66,578.13h0Z"/></g><g id="_编组_163" data-name="&lt;编组&gt;"><path id="_路径_162" data-name="&lt;路径&gt;" class="cls-4" d="M956.61,539.09l-7.81-11.72,3.91-3.9-2-5.86,7.81-2-2-5.86,9.77-13.66,7.8,7.81-1.95,7.81,11.72,2-2-2L993.71,502l5.85,5.86,5.86-7.81,3.91,3.91,5.85-2,2-11.71,3.91-3.9,15.62-3.91,5.85,5.86-2,5.85,3.91,2V500h3.9v7.81h-3.9l3.9,9.76,9.76,3.91h11.72l-9.77,15.61,5.86,3.91,2-1.95,2,5.85h5.85l7.81,13.67-11.71,7.81v9.76l-9.76,9.76-5.86-2-3.9,7.81-13.67-13.67,2-5.85h-7.81l2-2-3.91-7.81,5.86-2-5.86-7.81-5.86-2V543h3.91v-3.9h-9.76l-5.86-5.86v-3.9l-21.48,15.61,3.91,5.86-3.91,5.86-7.8,3.9,3.9,3.91-2,5.85,7.81,3.91,9.76-2,1.95,3.9,5.86-5.86h3.9l2,17.57h-3.9v5.86l11.71,7.81,5.86-1.95,7.81,7.81,2-1.95-11.71,15.61h-11.72l-9.76,9.76-2-2-3.9,5.86h-3.91l-5.86,9.76,2,2L982,656.22,985.9,666l-1.95,3.9L980,666l-7.81,5.85v-3.9l-5.85,1.95-3.91-3.9-15.62-3.91L941,654.27l5.85-5.85v-5.86l9.76-15.62-7.81-13.67L943,611.32v-7.81l5.85-7.81-1.95-5.85,7.81-5.86v3.9l3.91-1.95,7.81-13.66-15.62-13.67,13.66-7.81-5.85-3.9Z"/></g><g id="_编组_164" data-name="&lt;编组&gt;"><path id="_路径_163" data-name="&lt;路径&gt;" class="cls-5" d="M1024.94,556.66l-2,13.66h-3.9v-3.9l-5.86-5.86,9.76-1.95Z"/></g><g id="_编组_165" data-name="&lt;编组&gt;"><path id="_路径_164" data-name="&lt;路径&gt;" class="cls-5" d="M1036.66,578.13h0Z"/></g><g id="_编组_166" data-name="&lt;编组&gt;"><path id="_路径_165" data-name="&lt;路径&gt;" class="cls-5" d="M1060.08,584v0Z"/></g><g id="_编组_167" data-name="&lt;编组&gt;"><path id="_路径_166" data-name="&lt;路径&gt;" class="cls-4" d="M872.67,710.89l-3.91-1.95v-7.81l7.81-13.67-3.9-41,9.76-17.57-7.81-15.62,9.76-11.71,2-11.71,5.86-9.76-2-2,5.85-3.9v-3.91l7.81,2,13.67-21.48,7.81,3.91,5.85-5.86L939,550.8l9.76-5.86,2,2,3.9-7.81,3.91,7.81,5.85,3.9-11.71,7.81,1.95,3.9,7.81,2,1.95,11.71-3.9,9.76h-9.76l-2,11.72-5.85,3.9v7.81l7.81,5.86,5.85,11.71-9.76,13.67,1.95,7.81-7.8,3.9,2,7.81h3.9v11.71l-3.9,7.81,1.95,2-19.52,13.67-15.62-1.95v5.85l-2-1.95L898,705Z"/></g><g id="_编组_168" data-name="&lt;编组&gt;"><path id="_复合路径_" data-name="&lt;复合路径&gt;" class="cls-4" d="M1069.85,521.52h-19.53l-5.85-11.72v-3.9l3.9,2v-9.76l-1.95,2-3.91-9.76-9.76-7.81-5.85,3.91h-7.81l-3.91,9.76,2,1.95-5.85,5.86-9.76-2-2,5.86L993.71,502,982,511.76l2,2H972.23l1.95-7.81-3.9-9.76-13.67,11.71,2,5.86-7.81,1.95v11.71l5.85,11.72-2,5.85L939,550.8H927.33v3.91l-7.81-3.91-3.9,2-9.77,17.57H898l-3.9,5.86-5.86,2,2-5.85h-3.91l-7.81,7.81-9.76-3.91-2,5.86L861,580.09l1.95,3.9-21.47,23.43-1.95,3.9,3.9,3.91-3.9,3.9-2-3.9v11.71H821.91l-15.62-7.81-3.91-5.86-15.62-3.9,9.77-19.52-5.86-11.72L777,585.94l-5.85,13.67,2,9.76-3.91,3.9,2,5.86L767.24,625l-33.19,7.81L724.29,623l-7.81-2v-5.85l3.91-2-2-5.85,9.77-7.81,1.95-7.81,5.85-5.86-3.9-9.76-13.67,2-9.76,7.81L697,582l-9.76,2-3.91,2,3.91,5.86-5.86,5.86-7.81-2-5.86-5.85,2-2h-9.76V576.18l-7.81,2-3.91-7.81-13.66-7.81h-5.86l7.81-2,3.9-5.85,5.86-2L648.15,541l-5.86-7.81-19.52,1.95v3.91l-3.9-2-3.91,2V543l-2-5.86L605.2,543v-9.76l-15.62-15.62,3.91-5.85-13.67-35.15,50.76,7.81,29.29-3.9,9.76,2,11.71,3.91,5.86,7.8,15.62,2,25.38,11.71,13.66-3.9v7.81l11.72,2,3.9-5.86,35.14-15.62,11.72-2,3.9-3.9,39,1.95,25.38-9.76L888.28,459l19.53-9.76-2-7.81L898,435.62l-1.95-5.86L898,420l9.77-13.67h9.76l3.9,5.86,23.43,5.86,17.57-13.67,1.95-7.81H984l17.57-9.76,7.81-17.57,5.85-3.91h9.76l5.86-7.81,3.91,3.91,13.66-7.81,11.71,1.95v-3.9l5.86,5.85,2-1.95,11.72,3.91,5.85-5.86-3.9-13.67L1075.7,338l-9.76-13.66-7.81-3.91-3.9-7.81-15.62-1.95-9.76,13.67-11.72-7.81h-13.66l-7.81,5.85-7.81-7.81-2-7.81,7.81-3.9v-7.81l5.85-9.76-1.95-2,15.62-33.19,23.43,11.71,19.52-15.62,9.76-2,5.86-5.86-3.91-7.8,17.57-33.19-2-2,3.91-9.76L1103,174V166.2l-3.91-3.9,1.95-7.81-3.9-3.91-9.76,1.95v-7.81L1105,127.15l15.62-2,5.85,9.76-13.66,17.57,13.66,11.72,7.81-9.76,9.76,9.76h3.91l-3.91,7.81,5.86,23.42,3.9,3.91,5.86,2,9.76-5.86,3.91,3.91H1185v-3.91l3.91,2,7.81-3.91-2-1.95h3.91l2-5.86,11.71,9.76,3.91,9.77h3.9v7.8l-5.85,5.86,2,5.86-11.72,13.66,2,2h-3.91v31.23l-9.76,2L1185,308.72l-3.9-7.81,1.95-2-5.86-2-19.52,21.48-15.62,9.76-1.95,5.86,3.9,7.81h5.86v9.76l5.86,1.95,5.85-5.86-1.95-1.95h3.91l3.9,7.81-13.67,5.86,2,11.71-7.81,3.9v11.72l-7.81-5.86-3.91,3.91-7.8-7.81h-3.91v7.81l5.86,1.95v7.81h3.9l2,7.81-3.9,3.9V420l3.9,3.9v7.81l5.86,2,13.67-9.76,9.76,27.33-5.86,2,3.91,5.85h3.9v7.81l-17.57,13.67-3.9-3.91h-5.86v3.91h-11.71v3.9l-5.86,3.91-5.86-1.95-7.81,7.8-2-1.95-7.81,3.91-9.76,9.76v3.9l-7.81-13.66,2-2-7.81-3.9-5.85,2v19.53l3.9,2Zm107.37-296.75-2,5.86-5.86,2,11.72,5.85,3.9-11.71-5.86-1.95Z"/></g><g id="_编组_169" data-name="&lt;编组&gt;"><path id="_路径_167" data-name="&lt;路径&gt;" class="cls-4" d="M1114.75,488.33h7.81l5.86-3.91v-3.9h9.76v-3.91l11.71,3.91,7.81-3.91-2-1.95,3.9-3.9,7.81-2,2-11.71L1185,468.8v7.81l7.81-9.76,3.91,15.62,5.85,7.81-1.95,2,7.81,3.91-3.91,3.9v11.72h3.91v7.8l5.86,5.86-3.91,7.81,1.95,1.95-15.61,9.76,2,2-7.81,2-13.67,17.57h-17.57l-19.52,9.76-7.81,5.86,2,2-3.9,3.9h-3.91l2,2-5.86-2,2,3.91-11.71,3.9-2-5.85,9.77-3.91,3.9-7.81-5.86,2-5.85-7.81,5.85-2v-3.9l11.72-9.76-1.95-3.91h3.9l3.9-7.81-9.76-9.76-9.76-1.95L1105,539.09l-7.81,15.62-13.67,5.85-3.9-3.9-1.95-9.76-9.77-3.91v-3.9l-2,1.95-5.86-5.86,13.67-17.57-3.9-5.85V492.23l5.85-2,7.81,3.9-2,2,5.86,13.66,11.71-13.66,15.62-5.86Z"/></g><g id="_编组_170" data-name="&lt;编组&gt;"><path id="_路径_168" data-name="&lt;路径&gt;" class="cls-5" d="M1144,580.09l2,1.95Z"/></g><g id="_编组_171" data-name="&lt;编组&gt;"><path id="_路径_169" data-name="&lt;路径&gt;" class="cls-5" d="M1144,582h0Z"/></g><g id="_编组_172" data-name="&lt;编组&gt;"><path id="_路径_170" data-name="&lt;路径&gt;" class="cls-5" d="M1147.94,587.89h0Z"/></g><g id="_编组_173" data-name="&lt;编组&gt;"><path id="_路径_171" data-name="&lt;路径&gt;" class="cls-5" d="M1153.79,572.28h0Z"/></g><g id="_编组_174" data-name="&lt;编组&gt;"><path id="_路径_172" data-name="&lt;路径&gt;" class="cls-5" d="M1103,546.9l2-2Z"/></g><g id="_编组_175" data-name="&lt;编组&gt;"><path id="_路径_173" data-name="&lt;路径&gt;" class="cls-5" d="M1155.75,587.89h0Z"/></g><g id="_编组_176" data-name="&lt;编组&gt;"><path id="_路径_174" data-name="&lt;路径&gt;" class="cls-4" d="M1212.36,535.18l-1.95-1.95,3.91-9.76-5.86-3.91v-7.8h-3.91V500l3.91-3.9-7.81-3.91,1.95-2-3.9-3.9-3.91-19.53-9.76,9.76V468.8l-5.86-5.85h-3.9l-5.86-7.81V459h-7.81l-1.95-3.9h3.91V443.42l-3.91-3.9,1.95-3.9-5.85-11.72-9.76,7.81h-9.77V423.9l-3.9-3.9V404.38l3.9-3.91-5.85-5.85v-7.81l-7.81-1.95,3.9-3.91-2-3.9,7.81,1.95,3.9,5.86,3.91-3.91,5.86,5.86,3.9-5.86-2-5.86h5.85l2-5.85,5.85,1.95,9.77-3.9,3.9,3.9,2,17.57,5.86,5.86,3.9,1.95,11.72-3.9v3.9h7.81l3.9-3.9,5.86,9.76,25.38,1.95V422h11.71l-1.95,5.86,7.81,9.76H1267l5.85-3.91,7.81,9.76,2,11.72h3.9l3.91-7.81h3.9l2-3.91h7.81l2-3.9,2,5.86,7.8-5.86v7.81l5.86,5.86,5.86,3.9h9.76l-3.9,15.62-15.62,5.86,3.9,7.81-7.81-5.86v-5.86l-7.81-3.9-3.9,17.57h-9.76L1284.6,500h-19.52l2,9.76,3.9,3.91-3.9,5.85h-11.72l-9.76-5.85-2,1.95v-7.81h-7.81l-11.71,19.52-7.81,7.81-2-1.95Z"/></g><g id="_编组_177" data-name="&lt;编组&gt;"><path id="_路径_175" data-name="&lt;路径&gt;" class="cls-4" d="M1337.31,455.14l-7.81,1.95-11.71-5.86-2-11.71-5.85,5.86-2-5.86-11.72,3.9-9.76,11.72h-3.9l-7.81-21.48-5.86,3.91h-9.76l-7.81-9.76,1.95-5.86L1241.65,420V406.33l-9.76-5.86-5.86,3.91-9.76-1.95-5.86-9.76-3.9,3.9h-7.81v-3.9l-11.72,3.9-11.71-11.71,2-2-3.9-3.9V367.29l-15.62,1.95-3.91-3.91-2-5.85,15.62-5.86v-3.9l-2-2v3.91l-2-5.86h-3.91v5.86l-2-1.95-2,3.9h-3.91l-3.9-7.81,2-1.95-9.76-9.76,1.95-5.86,39.05-33.19,3.9,13.67,2-2V295.05l5.86-21.47,9.76-2-1.95-25.38,3.9-3.9-2-2h3.91l-2-2,3.91-7.8,7.81-5.86-2-5.86,5.85-5.86v-7.8h-3.9v-3.91l-9.76-11.71-7.81-3.91v3.91l-7.81,7.81-3.91-2-3.9,3.91h-9.76l-3.91-3.91-9.76,5.86-5.86-3.9-3.9-3.91L1144,172.06l3.91-7.81-13.67-7.81-7.81,7.81-13.66-13.67,9.76-7.81,3.9-7.81-5.85-9.76,5.85-3.9,39-3.91,15.62,5.86,3.9,5.86,7.81,3.9,5.86-3.9,9.76,3.9,5.86,5.86-2,1.95h3.91l5.86,5.86-3.91,3.9,7.81,5.86v5.86h3.9l-3.9,3.9,5.86,2-2,7.81,9.77,19.52-2,5.86,3.91-3.9-2,7.81,7.8,11.71,2,17.57,5.85,1.95-2,13.67,7.81,9.76,19.52-2v3.9l5.86,3.91,9.76-2L1310,279.43l13.66,3.91-3.9,7.81,2,5.85h3.91l2,5.86-3.91,5.86,7.81,13.66h33.19l3.91-5.85-2-2h3.91l7.81-7.81,5.86,2,17.57-9.76,19.52-2-7.81,5.86-3.91,7.81,3.91,9.76-2,7.81-7.81,1.95-3.91,7.81,2,1.95-7.81,21.48,2,5.86L1386.12,381v7.81l-7.81,5.86-2,11.71-2,1.95-13.66-3.9-9.76-5.86-3.91,2,2,2h-3.9l-3.91,7.81h-7.8l-3.91,3.9,3.91,3.91Z"/></g><g id="_编组_178" data-name="&lt;编组&gt;"><path id="_路径_176" data-name="&lt;路径&gt;" class="cls-5" d="M1177.22,224.77l7.81,3.9-3.9,9.76h-7.81l-3.91-5.85,2-3.91,2,3.91Z"/></g><g id="_编组_179" data-name="&lt;编组&gt;"><path id="_路径_177" data-name="&lt;路径&gt;" class="cls-5" d="M1106.94,804.6l-2-2h3.9v-3.91l5.86-5.86,11.71,7.81,3.91,9.77h-7.81l-5.86,3.9-5.86-2-3.9-5.86Z"/></g><g id="_编组_180" data-name="&lt;编组&gt;"><path id="_路径_178" data-name="&lt;路径&gt;" class="cls-5" d="M1130.37,789l-1.95,5.86L1110.84,787l3.91-3.91,9.76,5.86Z"/></g><g id="_编组_181" data-name="&lt;编组&gt;"><path id="_路径_179" data-name="&lt;路径&gt;" class="cls-5" d="M1126.46,798.74l-5.85-3.9,5.85,1.95Z"/></g><g id="_编组_182" data-name="&lt;编组&gt;"><path id="_路径_180" data-name="&lt;路径&gt;" class="cls-5" d="M1126.46,796.79l5.86,2Z"/></g><g id="_编组_183" data-name="&lt;编组&gt;"><path id="_路径_181" data-name="&lt;路径&gt;" class="cls-5" d="M1128.42,800.69l1.95,2Z"/></g><g id="_编组_184" data-name="&lt;编组&gt;"><path id="_路径_182" data-name="&lt;路径&gt;" class="cls-4" d="M1069.85,697.22l-2,7.81,7.81,2h-3.9l21.47,11.72,7.81,23.43L1105,746l2,15.62,11.71,7.81v3.9L1130.37,787l-5.86,2-9.76-5.86-3.91,3.91,5.86,3.9-7.81,7.81,1.95,3.91H1105l2,2-5.86,1.95v3.91l-3.9,1.95-13.67-11.72h-25.38l3.91-7.81-2-3.9h-3.9l2-2-5.85-1.95-2-7.81,5.86-2V763.6l11.71,3.91v-9.77l-5.85-3.9-3.91,7.81h-7.81l-3.9-3.91v-7.81l-5.86-1.95,3.91-13.66h-7.81v-3.91l-5.86-5.86-2,2-9.76-3.91,1.95-2-15.62-11.71v-5.86l11.71-2,7.81,13.66,3.91-3.9v3.9h3.9l5.86-5.85h3.9l3.91,3.9-2,1.95,5.85,2v-5.86l7.81-3.91,1.95-7.81Z"/></g><g id="_编组_185" data-name="&lt;编组&gt;"><path id="_路径_183" data-name="&lt;路径&gt;" class="cls-4" d="M1052.28,874.88l-2-13.67-7.81-5.85v-3.91l15.62-13.66,3.91-5.86v-7.81l9.76-2-2-5.86,7.81-7.81,1.95-7.81h3.9l5.86,7.81,5.86-2-2,2,3.91,2h3.9v-3.91l5.86-1.95,2,5.86,5.86,1.95-3.91,3.9,2,5.86,11.71,9.76,9.76,2-7.81,5.86,3.91,3.9v11.72h-7.81l3.9,5.85h-3.9l2,2-3.9,3.9,3.9,5.86-3.9,3.9-2-2-5.85,7.81-2-3.9-1.95,2v3.9h-2l-5.86,5.86-1.95,13.67-7.81-7.81-7.81,3.9-5.85-5.86v-3.9l-5.86,5.86H1062v-7.81l-3.91-5.86,1.95-3.9-3.9-3.91-3.9,2Z"/></g><g id="_编组_186" data-name="&lt;编组&gt;"><path id="_路径_184" data-name="&lt;路径&gt;" class="cls-5" d="M1134.27,831.93l-5.85-3.9,1.95-2,5.85,5.86Z"/></g><g id="_编组_187" data-name="&lt;编组&gt;"><path id="_路径_185" data-name="&lt;路径&gt;" class="cls-5" d="M1136.22,826.07h0Z"/></g><g id="_编组_188" data-name="&lt;编组&gt;"><path id="_路径_186" data-name="&lt;路径&gt;" class="cls-5" d="M1136.22,839.74h0Z"/></g><g id="_编组_189" data-name="&lt;编组&gt;"><path id="_路径_187" data-name="&lt;路径&gt;" class="cls-5" d="M1140.13,812.41v0Z"/></g><g id="_编组_190" data-name="&lt;编组&gt;"><path id="_路径_188" data-name="&lt;路径&gt;" class="cls-5" d="M1134.27,824.12l2,2-3.9-2Z"/></g><g id="_编组_191" data-name="&lt;编组&gt;"><path id="_路径_189" data-name="&lt;路径&gt;" class="cls-5" d="M1138.18,826.07h0Z"/></g><g id="_编组_192" data-name="&lt;编组&gt;"><path id="_路径_190" data-name="&lt;路径&gt;" class="cls-5" d="M1130.37,853.41l2-2Z"/></g><g id="_编组_193" data-name="&lt;编组&gt;"><path id="_路径_191" data-name="&lt;路径&gt;" class="cls-5" d="M1138.18,833.88l2,2Z"/></g><g id="_编组_194" data-name="&lt;编组&gt;"><path id="_路径_192" data-name="&lt;路径&gt;" class="cls-5" d="M1140.13,822.17v0Z"/></g><g id="_编组_195" data-name="&lt;编组&gt;"><path id="_路径_193" data-name="&lt;路径&gt;" class="cls-5" d="M1136.22,835.84l2,1.95Z"/></g><g id="_编组_196" data-name="&lt;编组&gt;"><path id="_路径_194" data-name="&lt;路径&gt;" class="cls-5" d="M1128.42,812.41l1.95-1.95v3.9l3.9,1.95-3.9-1.95Z"/></g><g id="_编组_197" data-name="&lt;编组&gt;"><path id="_路径_195" data-name="&lt;路径&gt;" class="cls-5" d="M1134.27,839.74l-2-2Z"/></g><g id="_编组_198" data-name="&lt;编组&gt;"><path id="_路径_196" data-name="&lt;路径&gt;" class="cls-5" d="M1128.42,830h0Z"/></g><g id="_编组_199" data-name="&lt;编组&gt;"><path id="_路径_197" data-name="&lt;路径&gt;" class="cls-5" d="M1132.32,828v0Z"/></g><g id="_编组_200" data-name="&lt;编组&gt;"><path id="_路径_198" data-name="&lt;路径&gt;" class="cls-5" d="M1132.32,837.79h0Z"/></g><g id="_编组_201" data-name="&lt;编组&gt;"><path id="_路径_199" data-name="&lt;路径&gt;" class="cls-5" d="M1128.42,828v0Z"/></g><g id="_编组_202" data-name="&lt;编组&gt;"><path id="_路径_200" data-name="&lt;路径&gt;" class="cls-5" d="M1136.22,839.74v0Z"/></g><g id="_编组_203" data-name="&lt;编组&gt;"><path id="_路径_201" data-name="&lt;路径&gt;" class="cls-5" d="M1136.22,824.12v0Z"/></g><g id="_编组_204" data-name="&lt;编组&gt;"><path id="_路径_202" data-name="&lt;路径&gt;" class="cls-5" d="M1136.22,835.84h0Z"/></g><g id="_编组_205" data-name="&lt;编组&gt;"><path id="_路径_203" data-name="&lt;路径&gt;" class="cls-5" d="M1147.94,814.36v0Z"/></g><g id="_编组_206" data-name="&lt;编组&gt;"><path id="_路径_204" data-name="&lt;路径&gt;" class="cls-5" d="M1110.84,884.64v0Z"/></g><g id="_编组_207" data-name="&lt;编组&gt;"><path id="_路径_205" data-name="&lt;路径&gt;" class="cls-4" d="M1005.42,718.7l-3.9-3.91v-3.9l2,2,1.95-3.9,5.86,5.85h3.9l5.86,5.86-1.95,2,9.76,3.91,2-2,5.86,5.86v3.91l7.81-2v7.81l-3.91,5.86,2,3.9,3.91-1.95v9.76l3.9,3.91h7.81l3.91-7.81,7.81,9.76-3.91,3.91-3.9-3.91h-7.81l2,9.76-5.86,7.81,11.72,9.76-3.91,9.76,13.67-2,5.86,5.86v3.9l-7.81,7.81v7.81l-7.81-2v9.76l-3.91,7.81-11.71,7.81-3.91-5.86-7.8,1.95-9.77-9.76-9.76,9.76-3.9-3.9,5.85-5.86-3.9-3.9h-3.9v3.9l-5.86,3.91-11.72-23.43,5.86-7.81-7.81-5.86-1.95,2-3.9-5.86L985.9,787l9.76-1.95V765.55l-5.86,3.91-3.9-2L980,761.65v-3.91l-7.81-3.9v-3.91H982v-7.8l7.81-3.91V724.55h3.91l7.81,9.77,5.85-2,3.91-3.9-3.91-7.81Z"/></g><g id="_编组_208" data-name="&lt;编组&gt;"><path id="_路径_206" data-name="&lt;路径&gt;" class="cls-5" d="M1013.23,839.74h0Z"/></g><g id="_编组_209" data-name="&lt;编组&gt;"><path id="_路径_207" data-name="&lt;路径&gt;" class="cls-4" d="M1064,958.83h-3.91v3.9l-5.85,5.86-9.76-2v9.76L1028.85,992H1023l-3.9-5.86V976.4l-5.86-7.81,1.95-3.9-5.85,1.95-3.91-5.86-1.95,2-9.76-3.9V953l5.85-9.76-1.95-2,3.91-3.91-2-2,5.86-1.95v-5.86l5.86-5.85-1.95-9.77,13.66-9.76v-5.85l-3.9-3.91,5.85-2,2-5.86,5.85-1.95v3.9h3.91l3.9-3.9,9.76-2v-5.86l9.76,2-1.95,3.91,3.91,15.62h7.81l7.81-5.86v3.9l5.85,5.86,7.81-3.9,5.86,7.81-5.86,2V910h-3.9v7.81l-3.91,1.95,3.91-7.81-9.76,5.86h3.9l2,5.86-5.85,5.86v9.76l-3.91,2,3.91,3.9,3.9-3.9,2,2-5.85,5.86v-3.91h-7.81l-2,2,3.91,3.9h-5.86v0H1062l2,5.86Z"/></g><g id="_编组_210" data-name="&lt;编组&gt;"><path id="_路径_208" data-name="&lt;路径&gt;" class="cls-5" d="M1050.32,968.59l2,1.95-3.91,2v-3.91l2,1.95Z"/></g><g id="_编组_211" data-name="&lt;编组&gt;"><path id="_路径_209" data-name="&lt;路径&gt;" class="cls-5" d="M1073.75,953h0Z"/></g><g id="_编组_212" data-name="&lt;编组&gt;"><path id="_路径_210" data-name="&lt;路径&gt;" class="cls-5" d="M1085.46,927.59h0Z"/></g><g id="_编组_213" data-name="&lt;编组&gt;"><path id="_路径_211" data-name="&lt;路径&gt;" class="cls-5" d="M1046.42,972.5l1.95-2Z"/></g><g id="_编组_214" data-name="&lt;编组&gt;"><path id="_路径_212" data-name="&lt;路径&gt;" class="cls-5" d="M1083.51,915.88h0Z"/></g><g id="_编组_215" data-name="&lt;编组&gt;"><path id="_路径_213" data-name="&lt;路径&gt;" class="cls-5" d="M1046.42,968.59l-2,1.95Z"/></g><g id="_编组_216" data-name="&lt;编组&gt;"><path id="_路径_214" data-name="&lt;路径&gt;" class="cls-5" d="M1077.66,941.26h0Z"/></g><g id="_编组_217" data-name="&lt;编组&gt;"><path id="_路径_215" data-name="&lt;路径&gt;" class="cls-5" d="M1093.27,910h0Z"/></g><g id="_编组_218" data-name="&lt;编组&gt;"><path id="_路径_216" data-name="&lt;路径&gt;" class="cls-4" d="M1046.42,847.55l-3.91,7.81,7.81,7.81,2,11.71-7.81,7.81-7.81,3.9h-3.91v-3.9l-13.66,9.76,3.9,7.81-5.86,7.81-7.8,3.9,1.95,9.77-13.67,19.52,1.95,2L993.71,953l1.95,5.86-3.91,3.9,2,5.86L980,962.73l-17.57,7.81-5.86-5.85L970.28,951l-3.9-3.9L954.66,951l-3.9-3.9,2-13.67,5.86-5.86h-7.81l3.9-3.9v-3.91l-5.86-3.9,2-15.62-7.81-3.9,5.85-13.67,9.77-7.81L954.66,869l2-5.85-5.85-7.81,7.81-3.91v-3.9h11.71l3.9-1.95-1.95-2,1.95,2,7.81-5.86,2,2,5.85-5.85,5.86,3.9,3.9-3.9,3.91,1.95,5.86-7.81,7.8,3.9-5.85,5.86,3.9,3.9,9.76-9.76,9.77,9.76,7.8-1.95,2,5.86Z"/></g><g id="_编组_219" data-name="&lt;编组&gt;"><path id="_路径_217" data-name="&lt;路径&gt;" class="cls-4" d="M1026.9,710.89l-3.91,3.9-7.81-13.66-9.76,2-1.95,7.81-3.91,2-13.66-2-7.81-11.72h-5.86l3.91-9.76H980l11.71-13.66,7.81-3.91-1.95-2L984,677.7l1.95-9.76L982,658.18l11.72-11.72-2-2,3.91-7.81,5.86-2,2-5.86,3.9,3.91,7.81-11.72h11.72l11.71-11.71,15.62,5.86,7.81-2,3.9,9.77,3.91,2h-3.91l-3.9,5.85,2,5.86,7.81,5.86,7.81-1.95,3.9-3.91-2-2h3.9l5.86-5.86V625l11.72-3.91,5.85,2,1.95,5.85,5.86-1.95,3.91,5.86,11.71-3.91,3.9,3.91H1146l-5.86,11.71h3.9l-5.85,5.86-7.81-3.91-9.76,5.86-2-2-3.9,3.9-9.76,2,3.9,2-7.81,3.9v7.81l-5.85,2-3.91-5.85-2,5.85h3.9l-21.47,25.38-9.76,1.95-5.86,9.77-2-2-3.91,3.91,2,2-3.91,3.91-5.86-5.86,2-1.95h-7.81v3.9l-7.81,1.95Z"/></g><g id="_编组_220" data-name="&lt;编组&gt;"><path id="_路径_218" data-name="&lt;路径&gt;" class="cls-5" d="M1101.08,617.18l2,2Z"/></g><g id="_编组_221" data-name="&lt;编组&gt;"><path id="_路径_219" data-name="&lt;路径&gt;" class="cls-5" d="M1099.13,619.13l1.95-2Z"/></g><g id="_编组_222" data-name="&lt;编组&gt;"><path id="_路径_220" data-name="&lt;路径&gt;" class="cls-5" d="M1103,609.37l2-2Z"/></g><g id="_编组_223" data-name="&lt;编组&gt;"><path id="_路径_221" data-name="&lt;路径&gt;" class="cls-4" d="M985.9,675.75l13.66-5.86L980,689.41l-1.95-1.95-7.81,11.71h5.86L985.9,707v3.91h15.62v3.9l5.85,5.86,2-1.95,1.95,7.81v3.9l-1.95-1.95-5.86,5.86-9.76-9.77H989.8v13.67L982,742.13v7.8h-7.81L982,765.55l5.86,3.91,7.81-3.91L993.71,787h-5.86L982,796.79l-2-5.86-7.81,3.91L964.42,789v-3.9L958.57,787l-2-3.91-3.9,3.91v-3.91l-5.86-2V769.46l-5.85,3.9-5.86-3.9-21.48,1.95-5.85-5.86-2,2-9.76-5.86-3.9-9.76L888.28,748l-1.95,1.95V738.22l-7.81-7.81V722.6l-5.85-3.9v-7.81L898,705l3.91-5.86h7.81v-3.9l3.9-1.95,11.72,1.95,5.85-5.86,2,2,11.71-9.77V666l5.86-3.91,15.62,7.81,5.85-1.95v3.9l5.86-5.85,3.9,3.9,3.91-1.95L982,677.7l2,1.95Z"/></g><g id="_编组_224" data-name="&lt;编组&gt;"><path id="_路径_222" data-name="&lt;路径&gt;" class="cls-5" d="M946.85,773.36v0Z"/></g><g id="_编组_225" data-name="&lt;编组&gt;"><path id="_路径_223" data-name="&lt;路径&gt;" class="cls-4" d="M886.33,749.93l1.95-1.95L900,763.6l5.85,3.91,2-2,5.85,5.86,21.48-1.95,5.86,3.9,3.9-3.9,3.9,5.85-1.95,5.86,5.86,2V787l3.9-3.91,15.62,11.72,7.81-3.91,2,5.86,2-1.95,13.66,11.71-5.86,5.86,7.81,13.66-1.95,11.72-2,2-9.76-3.9L984,841.69l-5.86-2v3.9l-13.67,5.86-5.85-2v3.9l-11.72,3.91V841.69l-3.9-3.9-9.76,7.81h-3.91v-7.81h-3.9v3.9l-2-2-7.8,3.9-11.72-9.76h-9.76L880.47,828l-5.85,2,3.9,7.81-1.95,2-3.9,2-3.91-3.9H861l-7.81,3.9-7.81,11.72V849.5l-5.85-2-2-7.81-1.95,2v-5.85h-5.86l2-9.77-3.91-5.85,15.62-5.86,2,3.9h3.91L861,808.5l7.81-2-2-11.71-9.76-3.91,2-1.95-3.91-3.9-2-13.67,2-7.81,9.77,1.95,1.95-5.85-3.91-3.91-3.9,2-2-7.81h-3.91l3.91-3.9,11.71,3.9h5.86l2-3.9v3.9l3.9,2,5.86-3.91Z"/></g><g id="_编组_226" data-name="&lt;编组&gt;"><path id="_路径_224" data-name="&lt;路径&gt;" class="cls-5" d="M923.42,771.41h0Z"/></g><g id="_编组_227" data-name="&lt;编组&gt;"><path id="_路径_225" data-name="&lt;路径&gt;" class="cls-5" d="M929.28,837.79h0Z"/></g><g id="_编组_228" data-name="&lt;编组&gt;"><path id="_路径_226" data-name="&lt;路径&gt;" class="cls-4" d="M853.14,931.5l-1.95-5.86h-3.9l3.9-3.9-2-5.86,3.9-3.91v-7.8l-13.66,2,1.95,2-1.95-5.86,13.66-9.76-3.9-3.9V867.07h-3.91l3.91-3.9V845.6L861,837.79h7.81l3.91,3.9,5.85-3.9-3.9-7.81,5.85-2,11.72,2,1.95,3.9H902l15.62,9.76,13.66-5.85-2,7.81h3.91l9.76-9.76,3.9,7.8-2,9.77,5.86,2L958.57,871v3.9l-11.72,9.76L943,894.4l3.9,5.86,3.91-2-3.91,7.81,1.95-2,2,3.9v9.76h3.9l-3.9,9.76h7.81l-5.86,5.86-2,13.67-9.76,2-7.81-3.91-2,3.91h-3.9l3.9,3.9v5.86h-3.9L921.47,953h-7.81l-5.85,9.76H902L898,966.64,894.14,953l-7.81,5.86-2-2,9.76-11.72-1.95-5.85L898,935.4l-7.8-1.95v-7.81l-11.72-1.95-7.81,9.76-5.85-2v-3.91L859,933.45l2,1.95Z"/></g><g id="_编组_229" data-name="&lt;编组&gt;"><path id="_路径_227" data-name="&lt;路径&gt;" class="cls-4" d="M859,1042.78l3.9-9.76h7.81v-7.81l3.91,2,5.85-5.86-2-3.9,2,2v-3.9l7.81-2,7.81-7.81-2-9.76,2-5.85H900v-3.91l7.81-3.9-2-5.86,3.91-3.9-2-5.86,3.9-5.86V953h11.71v3.91l5.86,2,2-7.81h-3.9l9.76-5.86,3.91,3.91,9.76-2,3.9,2L952.71,951l13.67-3.9,3.9,3.9-13.67,13.67,5.86,3.9L980,962.73l13.67,5.86v-9.76l9.76,3.9,1.95-2,3.91,5.86,5.85-1.95-1.95,1.95,3.9,3.9v7.81l5.86,11.72-3.9,3.9-2-2-7.8,15.62-15.62,3.9-5.86-1.95v3.9l-7.81-3.9-7.81,7.81-3.9-3.91,1.95-2h-3.9l-2,7.81-3.9-3.9-9.76,3.9-3.91-7.81-3.9,15.62-7.81,5.86-1.95-5.86-2,5.86-5.85-2-7.81,5.86-5.86-2-3.9,2,2,1.95-29.29,5.86-2,3.9-9.76,3.91,7.81,13.67-7.81,5.85h-3.9l-7.81-11.71,3.9-17.57Z"/></g><g id="_编组_230" data-name="&lt;编组&gt;"><path id="_路径_228" data-name="&lt;路径&gt;" class="cls-5" d="M1023,994l-3.9,1.95Z"/></g><g id="_编组_231" data-name="&lt;编组&gt;"><path id="_路径_229" data-name="&lt;路径&gt;" class="cls-5" d="M927.33,1035l-2,5.86Z"/></g><g id="_编组_232" data-name="&lt;编组&gt;"><path id="_路径_230" data-name="&lt;路径&gt;" class="cls-5" d="M919.52,1038.87h0Z"/></g><g id="_编组_233" data-name="&lt;编组&gt;"><path id="_路径_231" data-name="&lt;路径&gt;" class="cls-5" d="M958.57,1029.11h0Z"/></g><g id="_编组_234" data-name="&lt;编组&gt;"><path id="_路径_232" data-name="&lt;路径&gt;" class="cls-5" d="M876.57,1052.54l-3.9-3.91,3.9,2Z"/></g><g id="_编组_235" data-name="&lt;编组&gt;"><path id="_路径_233" data-name="&lt;路径&gt;" class="cls-5" d="M917.57,1036.92l1.95,1.95Z"/></g><g id="_编组_236" data-name="&lt;编组&gt;"><path id="_路径_234" data-name="&lt;路径&gt;" class="cls-5" d="M874.62,1052.54v3.9l-5.86-2,3.91-3.9Z"/></g><g id="_编组_237" data-name="&lt;编组&gt;"><path id="_路径_235" data-name="&lt;路径&gt;" class="cls-5" d="M946.85,1031.06v0Z"/></g><g id="_编组_238" data-name="&lt;编组&gt;"><path id="_路径_236" data-name="&lt;路径&gt;" class="cls-5" d="M933.19,1033h0Z"/></g><g id="_编组_239" data-name="&lt;编组&gt;"><path id="_路径_237" data-name="&lt;路径&gt;" class="cls-5" d="M956.61,1031.06v0Z"/></g><g id="_编组_240" data-name="&lt;编组&gt;"><path id="_路径_238" data-name="&lt;路径&gt;" class="cls-5" d="M1015.18,1058.4l2,5.85-3.9-2,3.9-2h-3.9Z"/></g><g id="_编组_241" data-name="&lt;编组&gt;"><path id="_路径_239" data-name="&lt;路径&gt;" class="cls-5" d="M878.52,1054.49h0Z"/></g><g id="_编组_242" data-name="&lt;编组&gt;"><path id="_路径_240" data-name="&lt;路径&gt;" class="cls-5" d="M876.57,1070.11v0Z"/></g><g id="_编组_243" data-name="&lt;编组&gt;"><path id="_路径_241" data-name="&lt;路径&gt;" class="cls-5" d="M995.66,1050.59l2,2Z"/></g><g id="_编组_244" data-name="&lt;编组&gt;"><path id="_路径_242" data-name="&lt;路径&gt;" class="cls-5" d="M995.66,1054.49v0Z"/></g><g id="_编组_245" data-name="&lt;编组&gt;"><path id="_路径_243" data-name="&lt;路径&gt;" class="cls-4" d="M909.76,962.73l-3.91,3.91,3.91,3.9-3.91,7.81,2,3.91-7.81,3.9,2,2-5.86,2-2,5.85,2,9.76-7.81,7.81-7.81,2v3.9l-2-2,2,5.86-5.85,3.9-2-2V1033h-7.81l-3.91,5.85-2-1.95-2,5.86-2-2-9.76,3.9-2-5.86-9.76-1.95-9.76,5.86v-3.91H806.29l-7.81-3.9v-3.91h-5.86l-2-9.76h-3.91l7.81-11.71H780.91l-1.95-3.91-5.86,2-7.81-3.91v-3.9L779,990.07v-7.81l-3.91-3.91-11.71,1.95-5.86-3.9-2-5.86-9.76,2-3.91-3.91v-3.9l3.91,1.95,7.81-3.91,3.9-5.85,7.81,5.85,9.76,2L788.72,953l9.76-2-2-3.9,5.85-3.91,7.81,7.81,1.95-1.95,2,5.85L820,953l3.91-3.9-2-2h3.9v-3.91l7.81,5.86,3.9-7.81,3.91,2,2-5.86,5.86,2,3.9-7.81,7.81,3.9-2-1.95,5.86-5.86v3.91l5.85,2,7.81-9.76,13.67,1.95-2,5.86,2,3.9h3.9l-3.9,5.86,1.95,2-9.76,13.67,2,2,5.86-5.86,3.9,3.91,1.95,9.76,3.91-3.91h7.81Z"/></g><g id="_编组_246" data-name="&lt;编组&gt;"><path id="_路径_244" data-name="&lt;路径&gt;" class="cls-5" d="M843.38,1052.54h0Z"/></g><g id="_编组_247" data-name="&lt;编组&gt;"><path id="_路径_245" data-name="&lt;路径&gt;" class="cls-5" d="M937.09,1349.29l1.95-2Z"/></g><g id="_编组_248" data-name="&lt;编组&gt;"><path id="_路径_246" data-name="&lt;路径&gt;" class="cls-5" d="M896.09,1146.25l1.95-2Z"/></g><g id="_编组_249" data-name="&lt;编组&gt;"><path id="_路径_247" data-name="&lt;路径&gt;" class="cls-5" d="M1034.71,1189.2l3.9,2h-3.9Z"/></g><g id="_编组_250" data-name="&lt;编组&gt;"><path id="_路径_248" data-name="&lt;路径&gt;" class="cls-5" d="M902,1165.77h0Z"/></g><g id="_编组_251" data-name="&lt;编组&gt;"><path id="_路径_249" data-name="&lt;路径&gt;" class="cls-5" d="M950.76,1361l11.71-7.81,1.95,2-3.9,5.86-9.76,2Z"/></g><g id="_编组_252" data-name="&lt;编组&gt;"><path id="_路径_250" data-name="&lt;路径&gt;" class="cls-5" d="M900,1165.77l-2,2Z"/></g><g id="_编组_253" data-name="&lt;编组&gt;"><path id="_路径_251" data-name="&lt;路径&gt;" class="cls-5" d="M952.71,1333.67v0Z"/></g><g id="_编组_254" data-name="&lt;编组&gt;"><path id="_路径_252" data-name="&lt;路径&gt;" class="cls-5" d="M907.81,1163.82l2-2Z"/></g><g id="_编组_255" data-name="&lt;编组&gt;"><path id="_路径_253" data-name="&lt;路径&gt;" class="cls-5" d="M902,1159.92l1.95-2Z"/></g><g id="_编组_256" data-name="&lt;编组&gt;"><path id="_路径_254" data-name="&lt;路径&gt;" class="cls-5" d="M966.38,1308.29v0Z"/></g><g id="_编组_257" data-name="&lt;编组&gt;"><path id="_路径_255" data-name="&lt;路径&gt;" class="cls-5" d="M993.71,1314.15l1.95-2-1.95,3.91Z"/></g><g id="_编组_258" data-name="&lt;编组&gt;"><path id="_路径_256" data-name="&lt;路径&gt;" class="cls-5" d="M968.33,1300.48l1.95-2Z"/></g><g id="_编组_259" data-name="&lt;编组&gt;"><path id="_路径_257" data-name="&lt;路径&gt;" class="cls-5" d="M851.19,1366.86,861,1363h-3.9l-5.86,5.86Z"/></g><g id="_编组_260" data-name="&lt;编组&gt;"><path id="_路径_258" data-name="&lt;路径&gt;" class="cls-5" d="M1003.47,1333.67l1.95-2Z"/></g><g id="_编组_261" data-name="&lt;编组&gt;"><path id="_路径_259" data-name="&lt;路径&gt;" class="cls-5" d="M919.52,1333.67h0Z"/></g><g id="_编组_262" data-name="&lt;编组&gt;"><path id="_路径_260" data-name="&lt;路径&gt;" class="cls-5" d="M919.52,1171.63l-1.95-2h3.9Z"/></g><g id="_编组_263" data-name="&lt;编组&gt;"><path id="_路径_261" data-name="&lt;路径&gt;" class="cls-5" d="M962.47,1288.77h0Z"/></g><g id="_编组_264" data-name="&lt;编组&gt;"><path id="_路径_262" data-name="&lt;路径&gt;" class="cls-5" d="M915.62,1150.15v0Z"/></g><g id="_编组_265" data-name="&lt;编组&gt;"><path id="_路径_263" data-name="&lt;路径&gt;" class="cls-5" d="M985.9,1310.24h0Z"/></g><g id="_编组_266" data-name="&lt;编组&gt;"><path id="_路径_264" data-name="&lt;路径&gt;" class="cls-5" d="M1007.37,1298.53h3.91l-3.91,2Z"/></g><g id="_编组_267" data-name="&lt;编组&gt;"><path id="_路径_265" data-name="&lt;路径&gt;" class="cls-5" d="M968.33,1347.34v0Z"/></g><g id="_编组_268" data-name="&lt;编组&gt;"><path id="_路径_266" data-name="&lt;路径&gt;" class="cls-5" d="M978.09,1343.43H982l-2,2Z"/></g><g id="_编组_269" data-name="&lt;编组&gt;"><path id="_路径_267" data-name="&lt;路径&gt;" class="cls-5" d="M984,1322h0Z"/></g><g id="_编组_270" data-name="&lt;编组&gt;"><path id="_路径_268" data-name="&lt;路径&gt;" class="cls-5" d="M944.9,1329.76v0Z"/></g><g id="_编组_271" data-name="&lt;编组&gt;"><path id="_路径_269" data-name="&lt;路径&gt;" class="cls-5" d="M1007.37,1325.86v0Z"/></g><g id="_编组_272" data-name="&lt;编组&gt;"><path id="_路径_270" data-name="&lt;路径&gt;" class="cls-5" d="M898,1159.92h0Z"/></g><g id="_编组_273" data-name="&lt;编组&gt;"><path id="_路径_271" data-name="&lt;路径&gt;" class="cls-5" d="M950.76,1333.67v0Z"/></g><g id="_编组_274" data-name="&lt;编组&gt;"><path id="_路径_272" data-name="&lt;路径&gt;" class="cls-5" d="M966.38,1275.1l2-1.95Z"/></g><g id="_编组_275" data-name="&lt;编组&gt;"><path id="_路径_273" data-name="&lt;路径&gt;" class="cls-5" d="M907.81,1445h0Z"/></g><g id="_编组_276" data-name="&lt;编组&gt;"><path id="_路径_274" data-name="&lt;路径&gt;" class="cls-5" d="M972.23,1288.77h0Z"/></g><g id="_编组_277" data-name="&lt;编组&gt;"><path id="_路径_275" data-name="&lt;路径&gt;" class="cls-5" d="M862.9,1355.14l2-2-2,3.91Z"/></g><g id="_编组_278" data-name="&lt;编组&gt;"><path id="_路径_276" data-name="&lt;路径&gt;" class="cls-5" d="M968.33,1284.86l1.95-1.95Z"/></g><g id="_编组_279" data-name="&lt;编组&gt;"><path id="_路径_277" data-name="&lt;路径&gt;" class="cls-5" d="M1013.23,1273.15l1.95,1.95Z"/></g><g id="_编组_280" data-name="&lt;编组&gt;"><path id="_路径_278" data-name="&lt;路径&gt;" class="cls-5" d="M948.8,1306.34l2-2v3.91Z"/></g><g id="_编组_281" data-name="&lt;编组&gt;"><path id="_路径_279" data-name="&lt;路径&gt;" class="cls-5" d="M919.52,1159.92l2-2Z"/></g><g id="_编组_282" data-name="&lt;编组&gt;"><path id="_路径_280" data-name="&lt;路径&gt;" class="cls-5" d="M982,1302.43v0Z"/></g><g id="_编组_283" data-name="&lt;编组&gt;"><path id="_路径_281" data-name="&lt;路径&gt;" class="cls-5" d="M968.33,1167.72l1.95-2Z"/></g><g id="_编组_284" data-name="&lt;编组&gt;"><path id="_路径_282" data-name="&lt;路径&gt;" class="cls-5" d="M968.33,1361v0Z"/></g><g id="_编组_285" data-name="&lt;编组&gt;"><path id="_路径_283" data-name="&lt;路径&gt;" class="cls-5" d="M997.61,1322l-2,2Z"/></g><g id="_编组_286" data-name="&lt;编组&gt;"><path id="_路径_284" data-name="&lt;路径&gt;" class="cls-5" d="M980,1341.48h0Z"/></g><g id="_编组_287" data-name="&lt;编组&gt;"><path id="_路径_285" data-name="&lt;路径&gt;" class="cls-5" d="M1036.66,1290.72l1.95-2Z"/></g><g id="_编组_288" data-name="&lt;编组&gt;"><path id="_路径_286" data-name="&lt;路径&gt;" class="cls-5" d="M1011.28,1296.58h0Z"/></g><g id="_编组_289" data-name="&lt;编组&gt;"><path id="_路径_287" data-name="&lt;路径&gt;" class="cls-5" d="M958.57,1302.43l1.95-2Z"/></g><g id="_编组_290" data-name="&lt;编组&gt;"><path id="_路径_288" data-name="&lt;路径&gt;" class="cls-5" d="M935.14,1351.24l2-2Z"/></g><g id="_编组_291" data-name="&lt;编组&gt;"><path id="_路径_289" data-name="&lt;路径&gt;" class="cls-5" d="M874.62,1349.29v0Z"/></g><g id="_编组_292" data-name="&lt;编组&gt;"><path id="_路径_290" data-name="&lt;路径&gt;" class="cls-5" d="M915.62,1331.72h0Z"/></g><g id="_编组_293" data-name="&lt;编组&gt;"><path id="_路径_291" data-name="&lt;路径&gt;" class="cls-5" d="M900,1337.57l2,2Z"/></g><g id="_编组_294" data-name="&lt;编组&gt;"><path id="_路径_292" data-name="&lt;路径&gt;" class="cls-5" d="M1024.94,1300.48h0Z"/></g><g id="_编组_295" data-name="&lt;编组&gt;"><path id="_路径_293" data-name="&lt;路径&gt;" class="cls-5" d="M905.85,1351.24h0Z"/></g><g id="_编组_296" data-name="&lt;编组&gt;"><path id="_路径_294" data-name="&lt;路径&gt;" class="cls-5" d="M956.61,1169.68h0Z"/></g><g id="_编组_297" data-name="&lt;编组&gt;"><path id="_路径_295" data-name="&lt;路径&gt;" class="cls-5" d="M898,1363h0Z"/></g><g id="_编组_298" data-name="&lt;编组&gt;"><path id="_路径_296" data-name="&lt;路径&gt;" class="cls-5" d="M876.57,1353.19h0Z"/></g><g id="_编组_299" data-name="&lt;编组&gt;"><path id="_路径_297" data-name="&lt;路径&gt;" class="cls-5" d="M913.66,1443h0Z"/></g><g id="_编组_300" data-name="&lt;编组&gt;"><path id="_路径_298" data-name="&lt;路径&gt;" class="cls-5" d="M944.9,1376.62h0Z"/></g><g id="_编组_301" data-name="&lt;编组&gt;"><path id="_路径_299" data-name="&lt;路径&gt;" class="cls-5" d="M966.38,1333.67l2-2Z"/></g><g id="_编组_302" data-name="&lt;编组&gt;"><path id="_路径_300" data-name="&lt;路径&gt;" class="cls-5" d="M997.61,1306.34h0Z"/></g><g id="_编组_303" data-name="&lt;编组&gt;"><path id="_路径_301" data-name="&lt;路径&gt;" class="cls-5" d="M972.23,1368.81l-2,2Z"/></g><g id="_编组_304" data-name="&lt;编组&gt;"><path id="_路径_302" data-name="&lt;路径&gt;" class="cls-5" d="M1024.94,1292.67h0Z"/></g><g id="_编组_305" data-name="&lt;编组&gt;"><path id="_路径_303" data-name="&lt;路径&gt;" class="cls-5" d="M919.52,1402h0Z"/></g><g id="_编组_306" data-name="&lt;编组&gt;"><path id="_路径_304" data-name="&lt;路径&gt;" class="cls-5" d="M962.47,1169.68h0Z"/></g><g id="_编组_307" data-name="&lt;编组&gt;"><path id="_路径_305" data-name="&lt;路径&gt;" class="cls-5" d="M919.52,1405.9h0Z"/></g><g id="_编组_308" data-name="&lt;编组&gt;"><path id="_路径_306" data-name="&lt;路径&gt;" class="cls-5" d="M1026.9,1306.34h0Z"/></g><g id="_编组_309" data-name="&lt;编组&gt;"><path id="_路径_307" data-name="&lt;路径&gt;" class="cls-5" d="M913.66,1333.67h0Z"/></g><g id="_编组_310" data-name="&lt;编组&gt;"><path id="_路径_308" data-name="&lt;路径&gt;" class="cls-5" d="M927.33,1355.14l1.95,2Z"/></g><g id="_编组_311" data-name="&lt;编组&gt;"><path id="_路径_309" data-name="&lt;路径&gt;" class="cls-5" d="M921.47,1407.86v0Z"/></g><g id="_编组_312" data-name="&lt;编组&gt;"><path id="_路径_310" data-name="&lt;路径&gt;" class="cls-5" d="M1013.23,1161.87v0Z"/></g><g id="_编组_313" data-name="&lt;编组&gt;"><path id="_路径_311" data-name="&lt;路径&gt;" class="cls-5" d="M948.8,1097.44h0Z"/></g><g id="_编组_314" data-name="&lt;编组&gt;"><path id="_路径_312" data-name="&lt;路径&gt;" class="cls-5" d="M900,1355.14h0Z"/></g><g id="_编组_315" data-name="&lt;编组&gt;"><path id="_路径_313" data-name="&lt;路径&gt;" class="cls-5" d="M915.62,1405.9h0Z"/></g><g id="_编组_316" data-name="&lt;编组&gt;"><path id="_路径_314" data-name="&lt;路径&gt;" class="cls-5" d="M974.18,1363v0Z"/></g><g id="_编组_317" data-name="&lt;编组&gt;"><path id="_路径_315" data-name="&lt;路径&gt;" class="cls-5" d="M1001.52,1316.1v0Z"/></g><g id="_编组_318" data-name="&lt;编组&gt;"><path id="_路径_316" data-name="&lt;路径&gt;" class="cls-5" d="M898,1357.1h0Z"/></g><g id="_编组_319" data-name="&lt;编组&gt;"><path id="_路径_317" data-name="&lt;路径&gt;" class="cls-5" d="M921.47,1411.76h0Z"/></g><g id="_编组_320" data-name="&lt;编组&gt;"><path id="_路径_318" data-name="&lt;路径&gt;" class="cls-5" d="M913.66,1154.06v0Z"/></g><g id="_编组_321" data-name="&lt;编组&gt;"><path id="_路径_319" data-name="&lt;路径&gt;" class="cls-5" d="M974.18,1169.68h0Z"/></g><g id="_编组_322" data-name="&lt;编组&gt;"><path id="_路径_320" data-name="&lt;路径&gt;" class="cls-5" d="M950.76,1173.58l2,2Z"/></g><g id="_编组_323" data-name="&lt;编组&gt;"><path id="_路径_321" data-name="&lt;路径&gt;" class="cls-5" d="M991.75,1296.58v0Z"/></g><g id="_编组_324" data-name="&lt;编组&gt;"><path id="_路径_322" data-name="&lt;路径&gt;" class="cls-5" d="M1026.9,1282.91h0Z"/></g><g id="_编组_325" data-name="&lt;编组&gt;"><path id="_路径_323" data-name="&lt;路径&gt;" class="cls-5" d="M780.91,826.07l5.85-2,5.86,7.81,5.86-1.95,9.76-13.67-2-3.9L820,808.5v-9.76L831.67,787l-5.86-5.86,3.9-3.9-2-2L859,789l-2,1.95H861l7.81,11.72-3.9,7.81-2-2-13.66,9.76-13.67-2-7.81,3.91,3.91,3.9v15.62l2-3.9,13.67,19.52,2,9.76-3.91,2h3.91l-7.81,11.72-5.86-2v-3.9h-3.9l2-5.86-5.86-2-2-7.81H818l-3.9-1.95v-3.91h-7.81v7.81l-3.91,3.91v-3.91l-9.76,3.91V871h-5.86l2-5.86-3.91-3.91V869l-3.9-9.76-11.72-2V849.5l-9.76-3.9,9.76-11.72V830l-3.9-2,5.86-7.81Z"/></g><g id="_编组_326" data-name="&lt;编组&gt;"><path id="_路径_324" data-name="&lt;路径&gt;" class="cls-4" d="M687.2,929.55l-3.91,2-3.9-5.86-1.95,2-3.91-9.76,2-2-2-3.91-1.95,2,1.95-2-9.76-11.71-3.9-11.71L656,884.64l-5.86,3.91-5.85-5.86-2-3.9,3.91-3.91-9.76-13.67-5.86,3.91,1.95,2-3.9,3.91v7.81l-5.86-5.86,2-1.95-5.85-31.24V812.41l-7.81-11.72v-3.9h5.86L609.11,789l-5.86-15.62-19.52-11.71v-7.81h3.9l-2-3.91,5.86-7.8-7.81-3.91v-5.86l5.85-5.85V722.6l5.86-2,3.9,3.9h5.86L615,748l7.81,3.91,2,5.85,3.91-2,7.81,3.91,1.95-5.86,5.86,1.95v7.81l3.9-3.9h3.91l3.9,5.85,13.67-3.9-2-13.67h7.81l2,3.91,3.9-5.86v-7.81l3.91,3.91-3.91,3.9,3.91,3.9,3.9-3.9,2,2v-3.9l5.86-2v-3.91h-3.91l-3.9-11.71,5.86,2,9.76-9.76,7.81,5.85-2,2,5.85,7.81,1.95-2,15.62,5.86,5.86,7.81L738,755.79l3.9,5.86,17.57,2,3.91-7.81,1.95,5.86,5.86-3.91,13.66,5.86,7.81-3.9,5.86,1.95,3.9,7.81,3.91-3.91,2,3.91L820,775.31h7.81l2,2-3.9,3.9,5.86,5.86-7.81,5.85L818,806.55l2,2-11.71,2L798.48,830l-5.86,1.95-3.9-7.81-7.81,2-9.76-5.85-2,5.85h-3.9l3.9,9.77h-3.9v3.9h-3.91l-2,3.9,5.86,7.81h3.9l2,7.81h9.76l2,9.76-7.81-5.85L767.24,869v5.86l5.86,2-2,2,9.76,2v7.81l-21.48,2-1.95-9.76-13.67,5.85-5.85-3.9V867.07l-9.76-2-2,11.71-7.81,3.91,2,5.85-9.76,11.72h-3.91l-2,7.81,5.86,13.66-2,3.91-5.85,3.9-3.91-2,2-1.95L687.2,931.5Z"/></g><g id="_编组_327" data-name="&lt;编组&gt;"><path id="_路径_325" data-name="&lt;路径&gt;" class="cls-4" d="M782.86,869h3.9v0l3.91,2,3.9-3.91-2-3.9,5.86-3.91h3.9v3.91l3.91-3.91v-7.81h7.81l1.95,5.86,7.81-1.95,3.9,3.9,2,7.81h3.91l-2,7.81,3.9-3.9v3.9l5.86,3.91,3.9-7.81,3.91,3.9v11.71l3.9,3.91-15.62,15.62h15.62V912l-3.9,3.91,2,5.86-3.9,3.9h3.9l1.95,3.91-1.95,5.85-3.9,3.91-5.86-2v7.81l-5.86-3.9-2,5.86-5.86-3.91L820,953l-5.85,1.95-2-5.85L810.19,951l-7.81-7.81h-3.9v5.86l-3.91,3.9L779,956.88l-3.91,9.76-17.57-9.76-9.76,9.76-5.86-3.91L749.67,951l-5.86-3.9v-3.91H738l3.9-11.71-2-2,2,2v-5.86l3.91-3.9-5.86-7.81-1.95,3.9-3.91-2-7.81,3.9V910l-3.9-3.9,7.81-9.76,2,3.9,7.81-3.9,3.9,3.9h7.81l2-3.9,3.9,1.95,3.9-9.76h19.53l2-2-3.9-7.8-3.91,2L767.24,871l7.81-7.81,7.81,7.81Z"/></g><g id="_编组_328" data-name="&lt;编组&gt;"><path id="_路径_326" data-name="&lt;路径&gt;" class="cls-5" d="M853.14,912v0Z"/></g><g id="_编组_329" data-name="&lt;编组&gt;"><path id="_路径_327" data-name="&lt;路径&gt;" class="cls-4" d="M759.43,890.5l-1.95,7.81-2-1.95-3.91,3.9h-5.85l-7.81-3.9-3.91,3.9-3.9-2-7.81,7.81,3.9,3.9-2,5.86,3.91,3.9,11.71-5.85,5.86,5.85L738,941.26l5.85,2-1.95,3.91,7.81,5.85-1.95-2-5.86,17.57,3.91,5.86v-3.91h7.81l5.85,9.76L777,978.35,779,992H773.1l-7.81,7.81-5.86-3.91-1.95,3.91-9.76,3.9,1.95,1.95-3.9,3.91H734.05l-3.9,5.86-7.81-3.91-2,2-3.91-3.9-7.81,9.76-9.76-7.81-7.81,7.81-9.76-2-3.9,5.86v7.8l5.85,7.81v7.81l-3.9,3.91-3.91-3.91-5.85,2v-7.8l-3.91-3.91,1.95-2L656,1042.78h-7.81l-9.76-15.62H622.77l3.91-5.86-2-1.95,3.91-2v-9.76h3.9l-5.85-5.86-5.86,2-3.9-3.9,2-2L613,986.16l3.91-7.81H601.3l-11.72,7.81-2-3.9,3.91-7.81-3.91-3.91v-7.81l3.91-2,2-9.76h3.9l3.91-7.81h3.9l1.95-5.86,5.86-2-2-5.85,3.9-9.77-2-27.33-2,1.95-1.95-3.9-3.91,3.9-3.9-5.85V872.93l5.85,7.81,7.81-5.86-3.9-5.86V857.31H615l2,5.86,3.9-11.72,3.9,19.53-2,1.95,5.86,5.86V871l5.86-9.77,9.76,9.77-2,1.95,3.91,2-3.91,3.91,7.81,11.71,7.81-5.86,5.86,15.62L673.53,912l-1.95,2h3.9l-2,5.85,5.86,3.91-1.95,1.95,11.71,5.86,9.76-7.81,3.91,3.9,3.9-3.9V900.26l13.67-13.67-2-5.85,9.77-5.86v-9.76l9.76,2-2,5.86,5.86,3.9-3.9,3.91,3.9,5.85,15.62-5.85Z"/></g><g id="_编组_330" data-name="&lt;编组&gt;"><path id="_路径_328" data-name="&lt;路径&gt;" class="cls-4" d="M413.88,669.89l-5.86,2v3.91l7.81,2-1.95,9.76L408,689.41l2,11.72,5.86,2-1.95,5.86,3.9,9.76-5.86,5.85v3.91L427.54,746l15.62,5.86,9.76-2,5.86,5.86h7.81l3.9,5.86H490l7.81,5.86,5.85-2,7.81,3.91,11.72-7.81,5.85,7.81,11.72,5.85-2,5.86,3.91,5.86,7.81-1.95,7.81,5.85-2-5.85,3.91-3.91,7.81,7.81,1.95-9.76h7.81l3.9-7.81,2,2-2-7.81,3.91-1.95,17.57,7.81,7.81,19.52,5.86,3.91-2,3.9h-3.9l7.81,13.67v25.38l3.9,13.66h-3.9l2,5.86-3.9,2v3.91l-2-5.86h-3.9V869l3.9,5.86-3.9,3.91h-3.91l-3.9-5.86v3.9l-5.86,2-1.95-5.86-2,2L589.58,869l-3.9,2,2,3.9h-3.9v7.81l-5.86,5.86-13.67-9.76-15.61-3.91-11.72,9.76-21.47,7.81-15.62,15.62H476.35l-9.76,3.9V900.26l-11.71-7.81,1.95-3.9L449,880.74l-5.86,5.85-5.86-5.85-3.9,2-11.71-5.86h-7.81l-11.72,11.72v9.76l-3.9,3.9-5.86-5.85,2-13.67-3.9-3.9-3.9,3.9h-7.81v3.9H355.31l-9.76-5.85-5.86,3.9-7.81-3.9,1.95,3.9h-3.9l-5.86-11.71-1.95,3.9-9.76-2v-7.81l-1.95-2-5.86,3.9-7.81-7.81h-3.9l-3.91-11.71-11.71,3.91-7.81-11.72-9.76-2-5.86-7.81h-3.91L244,826.07v-3.9l-1.95,2-11.72-3.9-5.86,11.71-11.71-11.71L205,816.31l-3.9,2L187.41,804.6l-7.81,1.95-9.76-9.76V781.17L162,775.31v-9.76l7.81-3.9v3.9l5.86,5.86,5.85-11.71-13.66-23.43v-9.76l7.81-7.81v-3.91l2,2,17.57-3.91,3.91-9.76-2-2,9.76-13.67,7.81,3.91,13.67-2,9.76,3.91,5.86-2-1.95-3.91,5.85-2,3.91-5.86,5.85,3.91,5.86-2,3.91,7.81,7.8,2,19.53-2,3.9-5.85,15.62-5.86,5.86,3.9,9.76-2,5.86-11.71L347.5,664l3.9,2,11.72-5.86,1.95,3.9,23.43-3.9,3.9,3.9,3.91-1.95,15.61,7.81Z"/></g><g id="_编组_331" data-name="&lt;编组&gt;"><path id="_路径_329" data-name="&lt;路径&gt;" class="cls-4" d="M888.28,578.13l2,5.86-5.86,17.57-9.76,9.76,7.81,15.62-9.76,19.52,3.9,39-7.81,15.62v7.81l9.76,19.52-1.95,1.95,9.76,7.81V746l-5.86,5.86-3.9-5.86-2,3.9L857.05,746l-5.86,3.9,15.62,7.81,2,5.86-13.67,1.95V787h-7.8l-3.91-5.86-13.67-7.81-13.66,1.95-3.91-5.85h-9.76l-3.9-3.91,1.95-1.95-7.81-3.9-7.81,3.9-13.66-5.86-3.91,3.91-3.9-3.91,9.76-3.9,1.95-5.86-5.86-2,2-5.86,13.66-3.9v3.9l3.91-1.95-3.91-9.76,5.86-11.71-7.81-3.91,3.9-5.86v-7.81l7.81-1.95,7.81,5.86h9.76l3.91-2-3.91-7.81,2-2,15.61,2,3.91-3.91-3.91-13.66,5.86-3.91-2-9.76-29.28-15.62-2-11.71,3.91-9.76,9.76-3.91,3.9,2v3.9h17.57V615.23l3.91,3.9,2-2-3.9-5.86L862.9,584,861,582l7.81-1.95v-3.91l3.91,3.91h7.8l5.86-7.81h3.91Z"/></g><g id="_编组_332" data-name="&lt;编组&gt;"><path id="_路径_330" data-name="&lt;路径&gt;" class="cls-4" d="M786.76,679.65l3.91,2,5.86-3.9v-7.81l-7.81-3.9-3.91-7.81,5.86-13.67-1.95-3.9h11.71l3.91,7.81,9.76,2,17.57,9.76,3.9,7.81-3.9,7.81,2,13.66-3.91,3.91-15.61-2-2,2,3.91,5.85-7.81,3.91h-5.86l-5.85-5.86h-9.77l2,9.76-5.86,3.91,7.81,5.86v3.9l-1.95-1.95-3.91,7.81,3.91,9.76-2,3.9H771.15l-2,5.86,5.86,2-3.9,7.81h-7.81l-3.91,7.81-17.57-2L736,755.79h3.91V746l-7.81-9.76-13.67-3.91-1.95,2-9.76-15.62-17.57,9.76L697,742.13h-3.91L691.1,748l-2-2-3.9,3.9-3.91-3.9,3.91-3.9-3.91-3.91-3.9,1.95-2-5.85-5.85,1.95-2-5.86h-3.9l-5.86-7.81,5.86-5.85,15.62,7.8h5.86l5.85-7.8-5.85-5.86v-7.81l9.76-7.81-2-7.81,2,1.95,2-5.85,5.86,3.9,1.95-2-3.91-5.86,5.86-1.95,1.95-5.86-5.85-11.71,1.95-2-3.91-3.91,2-3.9L697,644.51l1.95-5.86L685.25,625l-2,2-5.85-5.86-5.86,2-9.76-7.81v-3.91l-2,1.95-2-3.9H650.1l-5.85-7.81-2,2,3.91,7.81-9.76-5.85L620.82,591.8l1.95-1.95L615,585.94l-3.9,3.91-5.86-2-5.86,7.81L583.73,584,574,582l2,15.62-7.81,5.85v5.86H560.3v3.9l-13.67-7.8-3.9,3.9h-5.86l-3.9-3.9-11.72,1.95-3.9-11.72H503.68l1.95-2-3.9-2H492L490,584h-9.77l-7.8,3.9,7.8-17.57L484.16,543l19.52-2,1.95-9.76,15.62-15.62h3.91l7.81-7.81,3.9,3.91L556.39,502v-7.81l-3.9-5.85,3.9-5.86,5.86-3.9,17.57-2,13.67,35.15-3.91,3.9,13.67,17.57,2,9.76,7.81-5.86,2,5.86v-3.9l3.91-2,3.9,3.91v-3.91l19.52-3.9,5.86,7.81-1.95,11.71-15.62,9.76,17.57,5.86,3.91,9.76,5.85-2,3.91,9.76-2,1.95h9.76l-2,2,5.86,5.85,7.81,2,5.86-5.86-3.91-5.86L695,582l11.71,3.9,11.71-7.81,11.72-2L736,589.85l-7.8,9.76-9.77,5.86,2,7.8-3.91,2v5.85l7.81,2,7.81,9.76h13.67l-2,5.85,13.67,5.86,3.9,7.81h-3.9l7.81,15.62-5.86,7.81,3.91,3.9h3.9l3.91,5.86,5.85,2h0l5.86,5.86,3.9-3.91Z"/></g><g id="_编组_333" data-name="&lt;编组&gt;"><path id="_路径_331" data-name="&lt;路径&gt;" class="cls-5" d="M777,685.51v0Z"/></g><g id="_编组_334" data-name="&lt;编组&gt;"><path id="_路径_332" data-name="&lt;路径&gt;" class="cls-4" d="M704.77,662.08l5.86,5.86h-3.91l1.95,5.86-7.81,5.85,3.91,5.86-1.95,2-5.86-3.9v3.9h-3.91l2,5.86L685.25,705l5.85,11.72-9.76,7.8-17.57-7.8-5.86,5.85,5.86,7.81h3.9l2,5.86,5.85-1.95,2,5.85h3.9l-3.9,11.72-2-3.91-2,1.95-1.95-3.9h-3.91l2,15.62H657.91l-3.9,3.9-3.91-5.85-5.85,3.9v-7.81h-3.91l-2-3.9-3.9,7.81-5.86-3.91-2,2-3.91-5.85L615,748l-7.81-21.47-13.66-5.86-3.91,2,2,3.91-7.81,3.9v7.81l7.81,3.91-5.86,7.8,2,2-3.9,7.81,7.81,5.85-5.86-1.95-1.95,9.76-2-2-3.9,7.81h-9.76L572,787l-2,2-9.76-7.81-3.91,2,2,7.81-5.86-5.85-3.9,3.9-3.91-3.9L542.73,787l-3.91-7.81,2-3.91h-3.91v-3.9l-3.9,2,1.95-2-11.71-7.81-7.81,3.91-2-2-2,3.91-7.81-3.91-5.85,2L492,761.65H470.49l-3.9-5.86h-7.81l-5.86-5.86-13.66,2L427.54,746l-15.62-17.57v-3.91l5.86-5.85-3.9-7.81,1.95-5.86L410,703.08l-2-13.67,5.86-3.9,1.95-5.86-9.76-7.81L423.64,666l15.62,5.85,5.85-2-1.95-9.76-7.81-5.86v-3.9l3.91-3.91,1.95,2,7.81-3.91-3.91-11.71L433.4,625l-1.95-17.57-3.91,2-5.85-3.9,13.66-7.81,21.48-3.91L480.25,584h7.81l2,7.81h15.61l-1.95,2,3.91,3.91,7.81-2,5.85,9.77H533l3.9,3.9,9.76-3.9,11.72,7.8,3.9-3.9,5.86,2-2-3.9,3.9-7.81h5.86L574,582l9.77,2,15.61,11.71,3.91-7.81,7.81,2,3.9-3.91,7.81,3.91-1.95,1.95,23.43,19.52v-9.76l7.81,7.81,7.81,3.9,2-1.95v3.91l5.85,5.85h9.77l5.85,5.86,2-2,15.61,17.57H697v3.9l5.86,3.91-3.91,3.9,5.86,3.91-1.95,2Z"/></g><g id="_编组_335" data-name="&lt;编组&gt;"><path id="_路径_333" data-name="&lt;路径&gt;" class="cls-5" d="M802.38,642.56l-13.66-1.95,1.95,9.76-7.81,7.81,5.86,7.81,7.81,3.9v7.81l-3.91,3.9h-7.81l2,7.81-3.9,3.91-3.9-5.86-2,1.95v-3.9l-5.85,2v-3.9l-11.72-7.81v-3.91l5.86-3.9-7.81-13.67,1.95-5.85-7.81-3.91-3.9-5.86h-3.91l2-5.85H738L759.43,625h7.81l3.91-3.91-2-7.81,3.91-3.9-2-5.86L777,585.94l15.62-7.81,3.91,9.76-9.77,19.53,2,3.9,11.71,1.95,11.71,7.81-7.8,7.81v11.72Z"/></g><g id="_编组_336" data-name="&lt;编组&gt;"><path id="_路径_334" data-name="&lt;路径&gt;" class="cls-5" d="M777,687.46h0Z"/></g><g id="_编组_337" data-name="&lt;编组&gt;"><path id="_路径_335" data-name="&lt;路径&gt;" class="cls-4" d="M562.25,478.57l-9.76,7.81,3.9,7.8L554.44,504l-15.62,5.85-2,3.91-3.9-5.86-7.81,7.81h-3.91l-15.62,15.62L503.68,541l-19.52,2-3.91,27.33-11.71,19.53-35.14,7.81-3.9,5.85-7.81,2,5.85,5.85,2-3.9L431.45,625l13.66,7.81,3.91,7.81v3.9l-7.81,3.91-1.95-2-3.91,3.91v3.9l7.81,3.91,1.95,11.71-5.85,2L421.69,666l-3.91,3.9H410l-13.66-7.81L392.4,664l-3.9-3.9H376.78l-39,7.81-7.81,11.71-13.67,2-1.95-3.9-15.62,5.86-5.85,5.85-15.62,2-11.72-3.91-1.95-5.86-5.86,2-5.85-3.91-2,5.86-7.8,2,1.95,3.91-5.86,2-15.62-3.91-19.52,2,1.95,3.9-7.81,5.86,2,2L195.22,705l-1.95,7.81-13.67,3.91-3.9-2v3.91l-5.86-5.86H162l-3.9-3.9-3.91-13.67,1.95-7.81-27.33-3.9L121,679.65l2-3.9-9.77,2-5.85-9.76,1.95-9.76-5.86-5.86-7.81-2v-3.91H83.94v-3.9l-5.86,2-3.9-3.9L89.8,636.7v-3.9l-5.86-5.86V605.47l-11.71-7.81-7.81,3.9-3.91-1.95v-9.76L54.66,582v-3.91l7.8-5.85V558.61l11.72-2L82,548.85l2,1.95v-5.86l5.86,2L99.56,541l3.9,9.76,11.72-3.9,1.95,3.9,11.71-21.47h21.48l-1.95-2,5.85-2,1.95-5.86,9.77-3.9,1.95,2v-3.9L193.27,504l7.81-5.86v-3.91H205l-3.9-11.71,1.95-5.86,7.81-1.95-3.91-3.9,7.81-3.91V455.14l-7.81-17.57V422l-5.85-7.81-3.91,1.95,2-7.81h7.8l2-3.9H220.6l3.9-3.91,2,2,11.71-5.86,3.91,5.86,5.85-2,5.86,3.91,2-5.86-7.81-5.85v-3.91L265.5,340l2-1.95,15.61,7.81H302.6l5.85,3.91,5.86-5.86h3.9l5.86-5.86-3.9-29.28L326,299l17.57-3.91,5.86-9.76-1.95-7.81,3.9-3.9,21.48,1.95L369,283.34l7.81,5.85-1.95,3.91,7.81,3.9,9.76,11.72,7.81,3.9,9.76-1.95,5.86,7.81,3.9-2,3.91,5.85h3.9L431.45,338l11.71,15.62v9.76l-3.9,3.91,3.9,7.8-7.81,11.72,3.91,15.62,11.71,3.9,46.86,3.91,27.33,19.52,13.66,1.95v7.81h3.91L550.54,463l9.76,11.71Z"/></g><g id="_编组_338" data-name="&lt;编组&gt;"><path id="_路径_336" data-name="&lt;路径&gt;" class="cls-5" d="M1077.66,992h0Z"/></g><g id="_编组_339" data-name="&lt;编组&gt;"><path id="_路径_337" data-name="&lt;路径&gt;" class="cls-5" d="M1167.46,933.45v0Z"/></g><g id="_编组_340" data-name="&lt;编组&gt;"><path id="_路径_338" data-name="&lt;路径&gt;" class="cls-5" d="M1075.7,990.07v0Z"/></g><g id="_编组_341" data-name="&lt;编组&gt;"><path id="_路径_339" data-name="&lt;路径&gt;" class="cls-5" d="M1075.7,990.07h0Z"/></g><g id="_编组_342" data-name="&lt;编组&gt;"><path id="_路径_340" data-name="&lt;路径&gt;" class="cls-5" d="M1118.65,1013.49l2,2Z"/></g><g id="_编组_343" data-name="&lt;编组&gt;"><path id="_路径_341" data-name="&lt;路径&gt;" class="cls-5" d="M1120.61,1027.16l-2,1.95Z"/></g><g id="_编组_344" data-name="&lt;编组&gt;"><path id="_路径_342" data-name="&lt;路径&gt;" class="cls-5" d="M1073.75,999.83v0Z"/></g><g id="_编组_345" data-name="&lt;编组&gt;"><path id="_路径_343" data-name="&lt;路径&gt;" class="cls-5" d="M952.71,1017.4l9.76,2-5.86,5.86H948.8l3.91-3.91-2-1.95Z"/></g><g id="_编组_346" data-name="&lt;编组&gt;"><path id="_路径_344" data-name="&lt;路径&gt;" class="cls-5" d="M943,1027.16h0Z"/></g><g id="_编组_347" data-name="&lt;编组&gt;"><path id="_路径_345" data-name="&lt;路径&gt;" class="cls-5" d="M1142.08,994l5.86-27.33Z"/></g><g id="_编组_348" data-name="&lt;编组&gt;"><path id="_路径_346" data-name="&lt;路径&gt;" class="cls-5" d="M1112.8,1058.4l15.62-21.48Z"/></g><g id="_编组_349" data-name="&lt;编组&gt;"><path id="_路径_347" data-name="&lt;路径&gt;" class="cls-5" d="M1073.75,1124.77l13.67-25.38Z"/></g><g id="_编组_350" data-name="&lt;编组&gt;"><path id="_路径_348" data-name="&lt;路径&gt;" class="cls-5" d="M1065.94,1193.1v0Z"/></g><g id="_编组_351" data-name="&lt;编组&gt;"><path id="_路径_349" data-name="&lt;路径&gt;" class="cls-5" d="M1056.18,1281l7.81-17.57-9.76,23.42Z"/></g><g id="_编组_352" data-name="&lt;编组&gt;"><path id="_路径_350" data-name="&lt;路径&gt;" class="cls-5" d="M987.85,1370.76l15.62-17.57Z"/></g><g id="_编组_353" data-name="&lt;编组&gt;"><path id="_路径_351" data-name="&lt;路径&gt;" class="cls-5" d="M915.62,1452.76l11.71-5.86-23.43,7.81Z"/></g><g id="_编组_354" data-name="&lt;编组&gt;"><path id="_路径_352" data-name="&lt;路径&gt;" class="cls-5" d="M825.81,1396.14l-1.95-23.43Z"/></g><g id="_编组_355" data-name="&lt;编组&gt;"><path id="_路径_353" data-name="&lt;路径&gt;" class="cls-5" d="M866.81,1277.05l3.9-17.57v11.72l-5.85,7.8Z"/></g><g id="_编组_356" data-name="&lt;编组&gt;"><path id="_路径_354" data-name="&lt;路径&gt;" class="cls-5" d="M861,1189.2l-11.71-23.43,7.81,11.72,3.9,13.66Z"/></g></g></svg>