<svg id="图层_1" data-name="图层 1" xmlns="http://www.w3.org/2000/svg" viewBox="0 0 512 512"><defs><style>.cls-1{fill:none;stroke:#00a4ff;stroke-miterlimit:10;}.cls-2{fill:#00b1ff;}.cls-3{fill:#00b7ff;}</style></defs><title>大屏 小配件nnn</title><path class="cls-1" d="M448.35,309.2A196.1,196.1,0,0,1,259.65,452c-108.25,0-196-87.75-196-196s87.75-196,196-196a195.6,195.6,0,0,1,151,71.06"/><path class="cls-2" d="M414.79,134.15l.83,1.07L388.7,156.1l-.83-1.07Z"/><path class="cls-2" d="M420,141.11l.79,1.1L393,161.91l-.78-1.1Z"/><path class="cls-2" d="M424.88,148.28l.73,1.14L397,167.88l-.73-1.14Z"/><path class="cls-2" d="M429.45,155.68l.68,1.17L400.71,174l-.68-1.17Z"/><path class="cls-2" d="M433.71,163.3l.63,1.2-30.16,15.85-.63-1.19Z"/><path class="cls-2" d="M437.61,171.05l.58,1.23L407.37,186.8l-.58-1.22Z"/><path class="cls-2" d="M441.17,179l.52,1.24-31.43,13.16-.52-1.25Z"/><path class="cls-2" d="M444.39,187.09l.46,1.27-32,11.75-.47-1.27Z"/><path class="cls-2" d="M447.23,195.31l.41,1.29-32.48,10.32-.41-1.29Z"/><path class="cls-2" d="M449.71,203.65l.35,1.3-32.9,8.88-.35-1.31Z"/><path class="cls-2" d="M451.82,212.1l.29,1.32-33.25,7.41-.3-1.32Z"/><path class="cls-2" d="M453.56,220.61l.23,1.34-33.56,5.93-.23-1.33Z"/><path class="cls-2" d="M454.91,229.2l.17,1.34L421.31,235l-.18-1.34Z"/><path class="cls-2" d="M455.89,237.84l.12,1.35-33.95,3-.12-1.34Z"/><path class="cls-2" d="M456.48,246.5l.06,1.36-34,1.48-.06-1.35Z"/><path class="cls-2" d="M456.69,254.7l0,1.35-34.06.56,0-1.36Z"/><path class="cls-2" d="M456.56,263.88l-.06,1.35-34.05-1.45.06-1.36Z"/><path class="cls-2" d="M456,272.54l-.12,1.34L422,271l.12-1.35Z"/><path class="cls-2" d="M455.12,281.18l-.18,1.34-33.78-4.41.17-1.34Z"/><path class="cls-2" d="M453.83,289.8l-.23,1.33L420,285.23l.23-1.33Z"/><path class="cls-2" d="M452.18,298.32l-.3,1.32-33.27-7.37.29-1.32Z"/><path class="cls-2" d="M450.14,306.79l-.35,1.3-32.92-8.82.35-1.31Z"/><circle class="cls-1" cx="258.65" cy="256" r="161"/><rect class="cls-3" x="101.15" y="252.5" width="38" height="7" rx="3.5" ry="3.5"/></svg>