<svg id="图层_1" data-name="图层 1" xmlns="http://www.w3.org/2000/svg" xmlns:xlink="http://www.w3.org/1999/xlink" viewBox="0 0 512 512"><defs><style>.cls-1{fill:#fcc61d;}.cls-2{fill:none;}.cls-3{fill:url(#未命名的渐变_193);}</style><linearGradient id="未命名的渐变_193" x1="117.83" y1="278.83" x2="278.83" y2="117.83" gradientUnits="userSpaceOnUse"><stop offset="0" stop-color="#fcc314" stop-opacity="0"/><stop offset="0.11" stop-color="#fcc314" stop-opacity="0.02"/><stop offset="0.23" stop-color="#fcc314" stop-opacity="0.07"/><stop offset="0.37" stop-color="#fcc314" stop-opacity="0.17"/><stop offset="0.5" stop-color="#fcc314" stop-opacity="0.29"/><stop offset="0.65" stop-color="#fcc314" stop-opacity="0.46"/><stop offset="0.79" stop-color="#fcc314" stop-opacity="0.66"/><stop offset="0.94" stop-color="#fcc314" stop-opacity="0.9"/><stop offset="1" stop-color="#fcc314"/></linearGradient></defs><title>大屏 小配件nnn</title><path class="cls-1" d="M255.5,417.5h-2.1l0-2h4.22l0,2Z"/><path class="cls-1" d="M417.48,258l-2,0c0-.83,0-1.66,0-2.49,0-1,0-2.07,0-3.11l2,0c0,1,0,2.09,0,3.14C417.5,256.34,417.49,257.18,417.48,258Z"/><path class="cls-2" d="M254.51,255.16h0s0,.12,0,.34h1v-1c-.22,0-.34,0-.37,0A1.9,1.9,0,0,0,254.51,255.16Z"/><path class="cls-2" d="M255.5,256.5c.22,0,.34,0,.37,0a1.9,1.9,0,0,0,.62-.64h0s0-.12,0-.34h-1Z"/><path class="cls-2" d="M256.5,255.5c0-.22,0-.34,0-.37a1.9,1.9,0,0,0-.64-.62h-.34v1Z"/><path class="cls-2" d="M254.5,255.5c0,.22,0,.34,0,.37a1.9,1.9,0,0,0,.64.62h.34v-1Z"/><path class="cls-3" d="M254.51,255.16h0a1.9,1.9,0,0,1,.62-.64s.15,0,.37,0V94.5a161,161,0,0,0-161,161h160C254.5,255.28,254.52,255.16,254.51,255.16Z"/></svg>