<?xml version="1.0" encoding="UTF-8" standalone="no"?>
<svg
   xmlns:dc="http://purl.org/dc/elements/1.1/"
   xmlns:cc="http://creativecommons.org/ns#"
   xmlns:rdf="http://www.w3.org/1999/02/22-rdf-syntax-ns#"
   xmlns:svg="http://www.w3.org/2000/svg"
   xmlns="http://www.w3.org/2000/svg"
   xmlns:sodipodi="http://sodipodi.sourceforge.net/DTD/sodipodi-0.dtd"
   xmlns:inkscape="http://www.inkscape.org/namespaces/inkscape"
   version="1.1"
   id="图层_1"
   x="0px"
   y="0px"
   width="118.417px"
   height="31.5px"
   viewBox="32.057 82.352 118.417 31.5"
   enable-background="new 32.057 82.352 118.417 31.5"
   xml:space="preserve"
   sodipodi:docname="传送机杂项-01.svg"><metadata
   id="metadata75"><rdf:RDF><cc:Work
       rdf:about=""><dc:format>image/svg+xml</dc:format><dc:type
         rdf:resource="http://purl.org/dc/dcmitype/StillImage" /></cc:Work></rdf:RDF></metadata><defs
   id="defs73" /><sodipodi:namedview
   pagecolor="#ffffff"
   bordercolor="#666666"
   borderopacity="1"
   objecttolerance="10"
   gridtolerance="10"
   guidetolerance="10"
   inkscape:pageopacity="0"
   inkscape:pageshadow="2"
   inkscape:window-width="640"
   inkscape:window-height="480"
   id="namedview71" />
<g
   id="g68">
	
		<linearGradient
   id="SVGID_1_"
   gradientUnits="userSpaceOnUse"
   x1="52.1479"
   y1="344.2954"
   x2="52.1479"
   y2="348.0122"
   gradientTransform="matrix(1 0 0 -1 8.3398 434.8691)">
		<stop
   offset="0"
   style="stop-color:#35527C"
   id="stop2" />
		<stop
   offset="1"
   style="stop-color:#CFD8E2"
   id="stop4" />
	</linearGradient>
	
		<rect
   x="40.003"
   y="86.857"
   fill="url(#SVGID_1_)"
   stroke="#231815"
   stroke-width="0.5"
   stroke-miterlimit="10"
   width="40.97"
   height="3.716"
   id="rect7" />
	
		<linearGradient
   id="SVGID_2_"
   gradientUnits="userSpaceOnUse"
   x1="52.1479"
   y1="325.522"
   x2="52.1479"
   y2="329.2378"
   gradientTransform="matrix(1 0 0 -1 8.3398 434.8691)">
		<stop
   offset="0"
   style="stop-color:#35527C"
   id="stop9" />
		<stop
   offset="1"
   style="stop-color:#CFD8E2"
   id="stop11" />
	</linearGradient>
	
		<rect
   x="40.003"
   y="105.631"
   fill="url(#SVGID_2_)"
   stroke="#231815"
   stroke-width="0.5"
   stroke-miterlimit="10"
   width="40.97"
   height="3.716"
   id="rect14" />
	
		<rect
   x="88.556"
   y="82.602"
   fill="#35527C"
   stroke="#231815"
   stroke-width="0.5"
   stroke-miterlimit="10"
   width="49.001"
   height="31"
   id="rect16" />
	<polygon
   fill="#7387A6"
   points="136.723,91.569 89.389,104.288 89.389,83.451 136.723,83.451  "
   id="polygon18" />
	
		<rect
   x="137.557"
   y="82.602"
   fill="#B7C3CE"
   stroke="#231815"
   stroke-width="0.5"
   stroke-miterlimit="10"
   width="12.667"
   height="31"
   id="rect20" />
	<polygon
   fill="#CFD8E2"
   points="149.891,88.453 137.891,91.316 137.891,82.805 149.891,82.805  "
   id="polygon22" />
	<g
   id="g44">
		
			<rect
   x="80.859"
   y="82.602"
   fill="#B7C3CE"
   stroke="#231815"
   stroke-width="0.5"
   stroke-miterlimit="10"
   width="7.696"
   height="31"
   id="rect24" />
		<g
   id="g42">
			<polygon
   fill="#FFFF00"
   points="84.672,83.054 80.973,88.5 80.973,83.054    "
   id="polygon26" />
			<polygon
   points="88.403,83.054 80.973,93.995 80.973,88.5 84.672,83.054    "
   id="polygon28" />
			<polygon
   fill="#FFFF00"
   points="88.443,83.054 88.443,88.49 80.973,99.49 80.973,93.995 88.403,83.054    "
   id="polygon30" />
			<polygon
   points="88.443,88.49 88.443,93.976 80.973,104.976 80.973,99.49    "
   id="polygon32" />
			<polygon
   fill="#FFFF00"
   points="88.443,93.976 88.443,99.471 80.973,110.471 80.973,104.976    "
   id="polygon34" />
			<polygon
   points="88.443,99.471 88.443,104.956 82.878,113.15 80.973,113.15 80.973,110.471    "
   id="polygon36" />
			<polygon
   fill="#FFFF00"
   points="88.443,104.956 88.443,110.451 86.609,113.15 82.878,113.15    "
   id="polygon38" />
			<polygon
   points="88.443,110.451 88.443,113.15 86.609,113.15    "
   id="polygon40" />
		</g>
	</g>
	<g
   id="g66">
		
			<rect
   x="32.307"
   y="82.602"
   fill="#B7C3CE"
   stroke="#231815"
   stroke-width="0.5"
   stroke-miterlimit="10"
   width="7.696"
   height="31"
   id="rect46" />
		<g
   id="g64">
			<polygon
   fill="#FFFF00"
   points="36.119,83.054 32.42,88.5 32.42,83.054    "
   id="polygon48" />
			<polygon
   points="39.851,83.054 32.42,93.995 32.42,88.5 36.119,83.054    "
   id="polygon50" />
			<polygon
   fill="#FFFF00"
   points="39.891,83.054 39.891,88.49 32.42,99.49 32.42,93.995 39.851,83.054    "
   id="polygon52" />
			<polygon
   points="39.891,88.49 39.891,93.976 32.42,104.976 32.42,99.49    "
   id="polygon54" />
			<polygon
   fill="#FFFF00"
   points="39.891,93.976 39.891,99.471 32.42,110.471 32.42,104.976    "
   id="polygon56" />
			<polygon
   points="39.891,99.471 39.891,104.956 34.325,113.15 32.42,113.15 32.42,110.471    "
   id="polygon58" />
			<polygon
   fill="#FFFF00"
   points="39.891,104.956 39.891,110.451 38.057,113.15 34.325,113.15    "
   id="polygon60" />
			<polygon
   points="39.891,110.451 39.891,113.15 38.057,113.15    "
   id="polygon62" />
		</g>
	</g>
</g>
</svg>
