<?xml version="1.0" encoding="UTF-8" standalone="no"?>
<svg
   xmlns:dc="http://purl.org/dc/elements/1.1/"
   xmlns:cc="http://creativecommons.org/ns#"
   xmlns:rdf="http://www.w3.org/1999/02/22-rdf-syntax-ns#"
   xmlns:svg="http://www.w3.org/2000/svg"
   xmlns="http://www.w3.org/2000/svg"
   xmlns:sodipodi="http://sodipodi.sourceforge.net/DTD/sodipodi-0.dtd"
   xmlns:inkscape="http://www.inkscape.org/namespaces/inkscape"
   version="1.1"
   id="图层_1"
   x="0px"
   y="0px"
   width="32.745px"
   height="90.154px"
   viewBox="432.66 203.229 32.745 90.154"
   enable-background="new 432.66 203.229 32.745 90.154"
   xml:space="preserve"
   sodipodi:docname="传送机杂项-10.svg"><metadata
   id="metadata29"><rdf:RDF><cc:Work
       rdf:about=""><dc:format>image/svg+xml</dc:format><dc:type
         rdf:resource="http://purl.org/dc/dcmitype/StillImage" /></cc:Work></rdf:RDF></metadata><defs
   id="defs27" /><sodipodi:namedview
   pagecolor="#ffffff"
   bordercolor="#666666"
   borderopacity="1"
   objecttolerance="10"
   gridtolerance="10"
   guidetolerance="10"
   inkscape:pageopacity="0"
   inkscape:pageshadow="2"
   inkscape:window-width="640"
   inkscape:window-height="480"
   id="namedview25" />
<g
   id="g22">
	
		<path
   fill="#DDB40B"
   stroke="#231815"
   stroke-width="0.5"
   stroke-linecap="round"
   stroke-linejoin="round"
   stroke-miterlimit="10"
   d="   M458.053,259.27c0.011,0.01,0.021,0.029,0.021,0.04c1.351,1.931-2.042,8.72-10.026,8.437c0,0,2.203-0.289,2.485-1.945   c0.27-1.584-1.033-1.811-2.009-2.738c0,0-3.053-2.156-4.592-4.27c-1.357-1.865-2.371-3.605-1.836-4.729   c0.11-0.232,0.267-1.211,1.287-1.488c1.469-0.397,2.958,0.156,6.106,1.225C453.373,255.116,456.28,256.883,458.053,259.27z"
   id="path2" />
	
		<path
   fill="#DDB40B"
   stroke="#231815"
   stroke-width="0.5"
   stroke-linecap="round"
   stroke-linejoin="round"
   stroke-miterlimit="10"
   d="   M458.053,234.27c0.011,0.01,0.021,0.029,0.021,0.04c1.351,1.931-2.042,8.72-10.026,8.437c0,0,2.618-0.543,2.922-2.195   c0.229-1.25-0.94-2.133-2.188-2.834c0,0-3.311-1.811-4.85-3.924c-1.357-1.865-2.168-3.215-1.633-4.336   c0.11-0.232,0.03-1.302,1.052-1.579c1.47-0.398,3.756-0.186,6.903,0.882C454.138,230.075,456.53,231.758,458.053,234.27z"
   id="path4" />
	<g
   id="g10">
		
			<path
   fill="#FFCC00"
   stroke="#231815"
   stroke-width="0.5"
   stroke-linecap="round"
   stroke-linejoin="round"
   stroke-miterlimit="10"
   d="    M457.671,233.901"
   id="path6" />
		
			<path
   fill="#FFCC00"
   stroke="#231815"
   stroke-width="0.5"
   stroke-linecap="round"
   stroke-linejoin="round"
   stroke-miterlimit="10"
   d="    M458.075,234.31l-0.011-0.011c-0.134-0.141,0.519,4.564-3.851,7.138h-0.011c-4.068,1.899-12.959,1.09-18.282,5.33    c-7.059,5.61-0.396,12.616,6.565,15.302c4.226,1.629,7.49,2.254,7.734,2.35c-0.055-0.069,0.013,0.437-4.123-3.389    c-13.219-12.227,8.821-8.063,13.821-17.621C461.559,240.275,459.757,236.069,458.075,234.31z"
   id="path8" />
	</g>
	<g
   id="g16">
		
			<path
   fill="#FFCC00"
   stroke="#231815"
   stroke-width="0.5"
   stroke-linecap="round"
   stroke-linejoin="round"
   stroke-miterlimit="10"
   d="    M457.671,258.901"
   id="path12" />
		
			<path
   fill="#FFCC00"
   stroke="#231815"
   stroke-width="0.5"
   stroke-linecap="round"
   stroke-linejoin="round"
   stroke-miterlimit="10"
   d="    M458.075,259.31l-0.011-0.011c-0.134-0.141,0.519,4.563-3.851,7.138h-0.011c-4.068,1.899-12.959,1.09-18.282,5.33    c-7.059,5.61-0.396,12.616,6.565,15.302c4.226,1.629,7.422,2.512,7.666,2.607c-0.056-0.069-0.561,0.178-4.694-3.646    c-13.219-12.227,9.462-8.063,14.462-17.621C461.559,265.275,459.757,261.069,458.075,259.31z"
   id="path14" />
	</g>
	
		<path
   fill="#FFCC00"
   stroke="#231815"
   stroke-width="0.5"
   stroke-linecap="round"
   stroke-linejoin="round"
   stroke-miterlimit="10"
   d="   M457.03,203.479c0,0-2.666,11.971-16.5,16.137c-5.398,1.626-7.544,4.227-7.556,6.842c-0.018,4.358,6.216,7.259,15.806,11.259   c0,0-7.194-4.307-6.559-7.931c0.495-2.818,3.039-2.392,6.059-3.193C463.444,222.567,457.03,203.479,457.03,203.479z"
   id="path18" />
	
		<path
   fill="#DDB40B"
   stroke="#231815"
   stroke-width="0.5"
   stroke-linecap="round"
   stroke-linejoin="round"
   stroke-miterlimit="10"
   d="   M461.655,283.717c-4.709-4.084-7.491-4.465-11.375-5.781c-3.148-1.066-5-1.398-6.47-1c-1.021,0.277-2.231,2.102-2.343,2.333   c-0.535,1.122,0.813,3.071,2.171,4.937c1.539,2.113,4.884,4.189,4.884,4.189c0.976,0.928,2.277,1.154,2.009,2.738   c-0.139,0.809-0.956,1.502-1.757,2h16.381C464.745,290.066,464.679,286.338,461.655,283.717z"
   id="path20" />
</g>
</svg>
