<?xml version="1.0" encoding="UTF-8" standalone="no"?>
<svg
   xmlns:dc="http://purl.org/dc/elements/1.1/"
   xmlns:cc="http://creativecommons.org/ns#"
   xmlns:rdf="http://www.w3.org/1999/02/22-rdf-syntax-ns#"
   xmlns:svg="http://www.w3.org/2000/svg"
   xmlns="http://www.w3.org/2000/svg"
   xmlns:sodipodi="http://sodipodi.sourceforge.net/DTD/sodipodi-0.dtd"
   xmlns:inkscape="http://www.inkscape.org/namespaces/inkscape"
   version="1.1"
   id="图层_1"
   x="0px"
   y="0px"
   width="32.744px"
   height="90.154px"
   viewBox="488.269 203.229 32.744 90.154"
   enable-background="new 488.269 203.229 32.744 90.154"
   xml:space="preserve"
   sodipodi:docname="传送机杂项-11.svg"><metadata
   id="metadata29"><rdf:RDF><cc:Work
       rdf:about=""><dc:format>image/svg+xml</dc:format><dc:type
         rdf:resource="http://purl.org/dc/dcmitype/StillImage" /></cc:Work></rdf:RDF></metadata><defs
   id="defs27" /><sodipodi:namedview
   pagecolor="#ffffff"
   bordercolor="#666666"
   borderopacity="1"
   objecttolerance="10"
   gridtolerance="10"
   guidetolerance="10"
   inkscape:pageopacity="0"
   inkscape:pageshadow="2"
   inkscape:window-width="640"
   inkscape:window-height="480"
   id="namedview25" />
<g
   id="g22">
	
		<path
   fill="#6DDD4F"
   stroke="#231815"
   stroke-width="0.5"
   stroke-linecap="round"
   stroke-linejoin="round"
   stroke-miterlimit="10"
   d="   M513.66,259.27c0.01,0.01,0.02,0.029,0.02,0.04c1.352,1.931-2.042,8.72-10.025,8.437c0,0,2.203-0.289,2.484-1.945   c0.271-1.584-1.033-1.811-2.009-2.738c0,0-3.052-2.156-4.591-4.27c-1.358-1.865-2.371-3.605-1.836-4.729   c0.109-0.232,0.266-1.211,1.287-1.488c1.469-0.397,2.958,0.156,6.105,1.225C508.98,255.116,511.888,256.883,513.66,259.27z"
   id="path2" />
	
		<path
   fill="#6DDD4F"
   stroke="#231815"
   stroke-width="0.5"
   stroke-linecap="round"
   stroke-linejoin="round"
   stroke-miterlimit="10"
   d="   M513.66,234.27c0.01,0.01,0.02,0.029,0.02,0.04c1.352,1.931-2.042,8.72-10.025,8.437c0,0,2.617-0.543,2.922-2.195   c0.229-1.25-0.941-2.133-2.188-2.834c0,0-3.31-1.811-4.849-3.924c-1.358-1.865-2.168-3.215-1.633-4.336   c0.109-0.232,0.029-1.302,1.052-1.579c1.469-0.398,3.755-0.186,6.903,0.882C509.745,230.075,512.138,231.758,513.66,234.27z"
   id="path4" />
	<g
   id="g10">
		
			<path
   fill="#51FF20"
   stroke="#231815"
   stroke-width="0.5"
   stroke-linecap="round"
   stroke-linejoin="round"
   stroke-miterlimit="10"
   d="    M513.278,233.901"
   id="path6" />
		
			<path
   fill="#51FF20"
   stroke="#231815"
   stroke-width="0.5"
   stroke-linecap="round"
   stroke-linejoin="round"
   stroke-miterlimit="10"
   d="    M513.683,234.31l-0.011-0.011c-0.133-0.141,0.52,4.564-3.85,7.138h-0.012c-4.067,1.899-12.959,1.09-18.281,5.33    c-7.06,5.61-0.397,12.616,6.564,15.302c4.227,1.629,7.491,2.254,7.735,2.35c-0.055-0.069,0.012,0.437-4.123-3.389    c-13.219-12.227,8.821-8.063,13.821-17.621C517.166,240.275,515.364,236.069,513.683,234.31z"
   id="path8" />
	</g>
	<g
   id="g16">
		
			<path
   fill="#51FF20"
   stroke="#231815"
   stroke-width="0.5"
   stroke-linecap="round"
   stroke-linejoin="round"
   stroke-miterlimit="10"
   d="    M513.278,258.901"
   id="path12" />
		
			<path
   fill="#51FF20"
   stroke="#231815"
   stroke-width="0.5"
   stroke-linecap="round"
   stroke-linejoin="round"
   stroke-miterlimit="10"
   d="    M513.683,259.31l-0.011-0.011c-0.133-0.141,0.52,4.563-3.85,7.138h-0.012c-4.067,1.899-12.959,1.09-18.281,5.33    c-7.06,5.61-0.397,12.616,6.564,15.302c4.227,1.629,7.422,2.512,7.666,2.607c-0.055-0.069-0.56,0.178-4.693-3.646    c-13.22-12.227,9.462-8.063,14.462-17.621C517.166,265.275,515.364,261.069,513.683,259.31z"
   id="path14" />
	</g>
	
		<path
   fill="#51FF20"
   stroke="#231815"
   stroke-width="0.5"
   stroke-linecap="round"
   stroke-linejoin="round"
   stroke-miterlimit="10"
   d="   M512.638,203.479c0,0-2.666,11.971-16.5,16.137c-5.397,1.626-7.544,4.227-7.555,6.842c-0.018,4.358,6.215,7.259,15.805,11.259   c0,0-7.193-4.307-6.558-7.931c0.495-2.818,3.039-2.392,6.058-3.193C519.052,222.567,512.638,203.479,512.638,203.479z"
   id="path18" />
	
		<path
   fill="#6DDD4F"
   stroke="#231815"
   stroke-width="0.5"
   stroke-linecap="round"
   stroke-linejoin="round"
   stroke-miterlimit="10"
   d="   M517.263,283.717c-4.709-4.084-7.491-4.465-11.375-5.781c-3.147-1.066-5-1.398-6.469-1c-1.021,0.277-2.231,2.102-2.343,2.333   c-0.535,1.122,0.813,3.071,2.171,4.937c1.539,2.113,4.883,4.189,4.883,4.189c0.977,0.928,2.278,1.154,2.009,2.738   c-0.138,0.809-0.956,1.502-1.757,2h16.381C520.354,290.066,520.286,286.338,517.263,283.717z"
   id="path20" />
</g>
</svg>
