<?xml version="1.0" encoding="UTF-8" standalone="no"?>
<svg
   xmlns:dc="http://purl.org/dc/elements/1.1/"
   xmlns:cc="http://creativecommons.org/ns#"
   xmlns:rdf="http://www.w3.org/1999/02/22-rdf-syntax-ns#"
   xmlns:svg="http://www.w3.org/2000/svg"
   xmlns="http://www.w3.org/2000/svg"
   xmlns:sodipodi="http://sodipodi.sourceforge.net/DTD/sodipodi-0.dtd"
   xmlns:inkscape="http://www.inkscape.org/namespaces/inkscape"
   version="1.1"
   id="图层_1"
   x="0px"
   y="0px"
   width="155.966px"
   height="47.716px"
   viewBox="39.492 348.23 155.966 47.716"
   enable-background="new 39.492 348.23 155.966 47.716"
   xml:space="preserve"
   sodipodi:docname="传送机杂项-14.svg"><metadata
   id="metadata67"><rdf:RDF><cc:Work
       rdf:about=""><dc:format>image/svg+xml</dc:format><dc:type
         rdf:resource="http://purl.org/dc/dcmitype/StillImage" /></cc:Work></rdf:RDF></metadata><defs
   id="defs65" /><sodipodi:namedview
   pagecolor="#ffffff"
   bordercolor="#666666"
   borderopacity="1"
   objecttolerance="10"
   gridtolerance="10"
   guidetolerance="10"
   inkscape:pageopacity="0"
   inkscape:pageshadow="2"
   inkscape:window-width="640"
   inkscape:window-height="480"
   id="namedview63" />
<g
   id="g60">
	
		<rect
   x="44.781"
   y="370.5"
   fill="#FFCC00"
   stroke="#231815"
   stroke-width="0.5"
   stroke-miterlimit="10"
   width="145.388"
   height="20.377"
   id="rect2" />
	
		<rect
   x="39.742"
   y="363.597"
   fill="#FFDF5A"
   stroke="#231815"
   stroke-width="0.5"
   stroke-miterlimit="10"
   width="155.466"
   height="6.903"
   id="rect4" />
	
		<rect
   x="44.781"
   y="390.877"
   fill="#FFCC00"
   stroke="#231815"
   stroke-width="0.5"
   stroke-miterlimit="10"
   width="15.243"
   height="4.818"
   id="rect6" />
	
		<rect
   x="174.926"
   y="390.877"
   fill="#FFCC00"
   stroke="#231815"
   stroke-width="0.5"
   stroke-miterlimit="10"
   width="15.243"
   height="4.818"
   id="rect8" />
	
		<rect
   x="44.781"
   y="351.766"
   fill="#999999"
   stroke="#231815"
   stroke-width="0.5"
   stroke-linecap="round"
   stroke-linejoin="round"
   stroke-miterlimit="10"
   width="15.243"
   height="11.831"
   id="rect10" />
	
		<rect
   x="60.024"
   y="351.766"
   fill="#FFDF5A"
   stroke="#231815"
   stroke-width="0.5"
   stroke-linecap="round"
   stroke-linejoin="round"
   stroke-miterlimit="10"
   width="15.244"
   height="11.831"
   id="rect12" />
	
		<polygon
   fill="#231815"
   stroke="#231815"
   stroke-width="0.5"
   stroke-linecap="round"
   stroke-linejoin="round"
   stroke-miterlimit="10"
   points="   72.787,348.48 47.263,348.48 44.781,351.766 75.269,351.766  "
   id="polygon14" />
	
		<polygon
   fill="#231815"
   stroke="#231815"
   stroke-width="0.5"
   stroke-linecap="round"
   stroke-linejoin="round"
   stroke-miterlimit="10"
   points="   190.008,354.288 75.269,354.288 75.269,363.597 195.208,363.597  "
   id="polygon16" />
	<g
   id="g58">
		
			<polygon
   fill="#999999"
   stroke="#231815"
   stroke-width="0.5"
   stroke-linecap="round"
   stroke-linejoin="round"
   stroke-miterlimit="10"
   points="    78.044,354.288 75.269,354.288 75.269,363.597 78.17,363.597   "
   id="polygon18" />
		
			<polygon
   fill="#999999"
   stroke="#231815"
   stroke-width="0.5"
   stroke-linecap="round"
   stroke-linejoin="round"
   stroke-miterlimit="10"
   points="    83.937,354.288 81.161,354.288 81.428,363.597 84.329,363.597   "
   id="polygon20" />
		
			<polygon
   fill="#999999"
   stroke="#231815"
   stroke-width="0.5"
   stroke-linecap="round"
   stroke-linejoin="round"
   stroke-miterlimit="10"
   points="    89.83,354.288 87.055,354.288 87.589,363.597 90.49,363.597   "
   id="polygon22" />
		
			<polygon
   fill="#999999"
   stroke="#231815"
   stroke-width="0.5"
   stroke-linecap="round"
   stroke-linejoin="round"
   stroke-miterlimit="10"
   points="    95.723,354.288 92.947,354.288 93.748,363.597 96.649,363.597   "
   id="polygon24" />
		
			<polygon
   fill="#999999"
   stroke="#231815"
   stroke-width="0.5"
   stroke-linecap="round"
   stroke-linejoin="round"
   stroke-miterlimit="10"
   points="    101.615,354.288 98.84,354.288 99.908,363.597 102.81,363.597   "
   id="polygon26" />
		
			<polygon
   fill="#999999"
   stroke="#231815"
   stroke-width="0.5"
   stroke-linecap="round"
   stroke-linejoin="round"
   stroke-miterlimit="10"
   points="    107.508,354.288 104.732,354.288 106.067,363.597 108.969,363.597   "
   id="polygon28" />
		
			<polygon
   fill="#999999"
   stroke="#231815"
   stroke-width="0.5"
   stroke-linecap="round"
   stroke-linejoin="round"
   stroke-miterlimit="10"
   points="    113.401,354.288 110.626,354.288 112.229,363.597 115.13,363.597   "
   id="polygon30" />
		
			<polygon
   fill="#999999"
   stroke="#231815"
   stroke-width="0.5"
   stroke-linecap="round"
   stroke-linejoin="round"
   stroke-miterlimit="10"
   points="    119.294,354.288 116.519,354.288 118.388,363.597 121.289,363.597   "
   id="polygon32" />
		
			<polygon
   fill="#999999"
   stroke="#231815"
   stroke-width="0.5"
   stroke-linecap="round"
   stroke-linejoin="round"
   stroke-miterlimit="10"
   points="    125.187,354.288 122.411,354.288 124.548,363.597 127.449,363.597   "
   id="polygon34" />
		
			<polygon
   fill="#999999"
   stroke="#231815"
   stroke-width="0.5"
   stroke-linecap="round"
   stroke-linejoin="round"
   stroke-miterlimit="10"
   points="    131.079,354.288 128.304,354.288 130.707,363.597 133.608,363.597   "
   id="polygon36" />
		
			<polygon
   fill="#999999"
   stroke="#231815"
   stroke-width="0.5"
   stroke-linecap="round"
   stroke-linejoin="round"
   stroke-miterlimit="10"
   points="    136.974,354.288 134.197,354.288 136.868,363.597 139.77,363.597   "
   id="polygon38" />
		
			<polygon
   fill="#999999"
   stroke="#231815"
   stroke-width="0.5"
   stroke-linecap="round"
   stroke-linejoin="round"
   stroke-miterlimit="10"
   points="    142.864,354.288 140.089,354.288 143.027,363.597 145.929,363.597   "
   id="polygon40" />
		
			<polygon
   fill="#999999"
   stroke="#231815"
   stroke-width="0.5"
   stroke-linecap="round"
   stroke-linejoin="round"
   stroke-miterlimit="10"
   points="    148.757,354.288 145.981,354.288 149.188,363.597 152.089,363.597   "
   id="polygon42" />
		
			<polygon
   fill="#999999"
   stroke="#231815"
   stroke-width="0.5"
   stroke-linecap="round"
   stroke-linejoin="round"
   stroke-miterlimit="10"
   points="    154.649,354.288 151.874,354.288 155.347,363.597 158.248,363.597   "
   id="polygon44" />
		
			<polygon
   fill="#999999"
   stroke="#231815"
   stroke-width="0.5"
   stroke-linecap="round"
   stroke-linejoin="round"
   stroke-miterlimit="10"
   points="    160.543,354.288 157.768,354.288 161.508,363.597 164.409,363.597   "
   id="polygon46" />
		
			<polygon
   fill="#999999"
   stroke="#231815"
   stroke-width="0.5"
   stroke-linecap="round"
   stroke-linejoin="round"
   stroke-miterlimit="10"
   points="    166.436,354.288 163.66,354.288 167.667,363.597 170.568,363.597   "
   id="polygon48" />
		
			<polygon
   fill="#999999"
   stroke="#231815"
   stroke-width="0.5"
   stroke-linecap="round"
   stroke-linejoin="round"
   stroke-miterlimit="10"
   points="    172.328,354.288 169.553,354.288 173.827,363.597 176.728,363.597   "
   id="polygon50" />
		
			<polygon
   fill="#999999"
   stroke="#231815"
   stroke-width="0.5"
   stroke-linecap="round"
   stroke-linejoin="round"
   stroke-miterlimit="10"
   points="    178.223,354.288 175.445,354.288 179.986,363.597 182.889,363.597   "
   id="polygon52" />
		
			<polygon
   fill="#999999"
   stroke="#231815"
   stroke-width="0.5"
   stroke-linecap="round"
   stroke-linejoin="round"
   stroke-miterlimit="10"
   points="    184.115,354.288 181.339,354.288 186.147,363.597 189.049,363.597   "
   id="polygon54" />
		
			<polygon
   fill="#999999"
   stroke="#231815"
   stroke-width="0.5"
   stroke-linecap="round"
   stroke-linejoin="round"
   stroke-miterlimit="10"
   points="    190.008,354.288 187.231,354.288 192.307,363.597 195.208,363.597   "
   id="polygon56" />
	</g>
</g>
</svg>
