<?xml version="1.0" encoding="UTF-8" standalone="no"?>
<svg
   xmlns:dc="http://purl.org/dc/elements/1.1/"
   xmlns:cc="http://creativecommons.org/ns#"
   xmlns:rdf="http://www.w3.org/1999/02/22-rdf-syntax-ns#"
   xmlns:svg="http://www.w3.org/2000/svg"
   xmlns="http://www.w3.org/2000/svg"
   xmlns:sodipodi="http://sodipodi.sourceforge.net/DTD/sodipodi-0.dtd"
   xmlns:inkscape="http://www.inkscape.org/namespaces/inkscape"
   version="1.1"
   id="图层_1"
   x="0px"
   y="0px"
   width="118.416px"
   height="31.5px"
   viewBox="32.056 150.026 118.416 31.5"
   enable-background="new 32.056 150.026 118.416 31.5"
   xml:space="preserve"
   sodipodi:docname="传送机杂项-02.svg"><metadata
   id="metadata75"><rdf:RDF><cc:Work
       rdf:about=""><dc:format>image/svg+xml</dc:format><dc:type
         rdf:resource="http://purl.org/dc/dcmitype/StillImage" /></cc:Work></rdf:RDF></metadata><defs
   id="defs73" /><sodipodi:namedview
   pagecolor="#ffffff"
   bordercolor="#666666"
   borderopacity="1"
   objecttolerance="10"
   gridtolerance="10"
   guidetolerance="10"
   inkscape:pageopacity="0"
   inkscape:pageshadow="2"
   inkscape:window-width="640"
   inkscape:window-height="480"
   id="namedview71" />
<g
   id="g68">
	
		<linearGradient
   id="SVGID_1_"
   gradientUnits="userSpaceOnUse"
   x1="129.1572"
   y1="276.6216"
   x2="129.1572"
   y2="280.3374"
   gradientTransform="matrix(-1 0 0 -1 251.1992 434.8691)">
		<stop
   offset="0"
   style="stop-color:#35527C"
   id="stop2" />
		<stop
   offset="1"
   style="stop-color:#CFD8E2"
   id="stop4" />
	</linearGradient>
	
		<rect
   x="101.557"
   y="154.531"
   fill="url(#SVGID_1_)"
   stroke="#231815"
   stroke-width="0.5"
   stroke-miterlimit="10"
   width="40.97"
   height="3.716"
   id="rect7" />
	
		<linearGradient
   id="SVGID_2_"
   gradientUnits="userSpaceOnUse"
   x1="129.1572"
   y1="257.8481"
   x2="129.1572"
   y2="261.563"
   gradientTransform="matrix(-1 0 0 -1 251.1992 434.8691)">
		<stop
   offset="0"
   style="stop-color:#35527C"
   id="stop9" />
		<stop
   offset="1"
   style="stop-color:#CFD8E2"
   id="stop11" />
	</linearGradient>
	
		<rect
   x="101.557"
   y="173.305"
   fill="url(#SVGID_2_)"
   stroke="#231815"
   stroke-width="0.5"
   stroke-miterlimit="10"
   width="40.97"
   height="3.716"
   id="rect14" />
	
		<rect
   x="44.973"
   y="150.276"
   fill="#35527C"
   stroke="#231815"
   stroke-width="0.5"
   stroke-miterlimit="10"
   width="49.001"
   height="31"
   id="rect16" />
	<polygon
   fill="#7387A6"
   points="45.807,159.243 93.141,171.962 93.141,151.125 45.807,151.125  "
   id="polygon18" />
	
		<rect
   x="32.306"
   y="150.276"
   fill="#B7C3CE"
   stroke="#231815"
   stroke-width="0.5"
   stroke-miterlimit="10"
   width="12.667"
   height="31"
   id="rect20" />
	<polygon
   fill="#CFD8E2"
   points="32.639,156.127 44.639,158.99 44.639,150.479 32.639,150.479  "
   id="polygon22" />
	<g
   id="g44">
		
			<rect
   x="93.974"
   y="150.276"
   fill="#B7C3CE"
   stroke="#231815"
   stroke-width="0.5"
   stroke-miterlimit="10"
   width="7.696"
   height="31"
   id="rect24" />
		<g
   id="g42">
			<polygon
   fill="#FFFF00"
   points="97.857,150.728 101.557,156.174 101.557,150.728    "
   id="polygon26" />
			<polygon
   points="94.126,150.728 101.557,161.668 101.557,156.174 97.857,150.728    "
   id="polygon28" />
			<polygon
   fill="#FFFF00"
   points="94.086,150.728 94.086,156.164 101.557,167.164 101.557,161.668 94.126,150.728    "
   id="polygon30" />
			<polygon
   points="94.086,156.164 94.086,161.65 101.557,172.649 101.557,167.164    "
   id="polygon32" />
			<polygon
   fill="#FFFF00"
   points="94.086,161.65 94.086,167.145 101.557,178.145 101.557,172.649    "
   id="polygon34" />
			<polygon
   points="94.086,167.145 94.086,172.63 99.651,180.824 101.557,180.824 101.557,178.145    "
   id="polygon36" />
			<polygon
   fill="#FFFF00"
   points="94.086,172.63 94.086,178.125 95.92,180.824 99.651,180.824    "
   id="polygon38" />
			<polygon
   points="94.086,178.125 94.086,180.824 95.92,180.824    "
   id="polygon40" />
		</g>
	</g>
	<g
   id="g66">
		
			<rect
   x="142.526"
   y="150.276"
   fill="#B7C3CE"
   stroke="#231815"
   stroke-width="0.5"
   stroke-miterlimit="10"
   width="7.696"
   height="31"
   id="rect46" />
		<g
   id="g64">
			<polygon
   fill="#FFFF00"
   points="146.41,150.728 150.109,156.174 150.109,150.728    "
   id="polygon48" />
			<polygon
   points="142.679,150.728 150.109,161.668 150.109,156.174 146.41,150.728    "
   id="polygon50" />
			<polygon
   fill="#FFFF00"
   points="142.639,150.728 142.639,156.164 150.109,167.164 150.109,161.668 142.679,150.728    "
   id="polygon52" />
			<polygon
   points="142.639,156.164 142.639,161.65 150.109,172.649 150.109,167.164    "
   id="polygon54" />
			<polygon
   fill="#FFFF00"
   points="142.639,161.65 142.639,167.145 150.109,178.145 150.109,172.649    "
   id="polygon56" />
			<polygon
   points="142.639,167.145 142.639,172.63 148.204,180.824 150.109,180.824 150.109,178.145    "
   id="polygon58" />
			<polygon
   fill="#FFFF00"
   points="142.639,172.63 142.639,178.125 144.473,180.824 148.204,180.824    "
   id="polygon60" />
			<polygon
   points="142.639,178.125 142.639,180.824 144.473,180.824    "
   id="polygon62" />
		</g>
	</g>
</g>
</svg>
