<?xml version="1.0" encoding="UTF-8" standalone="no"?>
<svg
   xmlns:dc="http://purl.org/dc/elements/1.1/"
   xmlns:cc="http://creativecommons.org/ns#"
   xmlns:rdf="http://www.w3.org/1999/02/22-rdf-syntax-ns#"
   xmlns:svg="http://www.w3.org/2000/svg"
   xmlns="http://www.w3.org/2000/svg"
   xmlns:sodipodi="http://sodipodi.sourceforge.net/DTD/sodipodi-0.dtd"
   xmlns:inkscape="http://www.inkscape.org/namespaces/inkscape"
   version="1.1"
   id="图层_1"
   x="0px"
   y="0px"
   width="31.5px"
   height="118.417px"
   viewBox="209.118 74.874 31.5 118.417"
   enable-background="new 209.118 74.874 31.5 118.417"
   xml:space="preserve"
   sodipodi:docname="传送机杂项-03.svg"><metadata
   id="metadata75"><rdf:RDF><cc:Work
       rdf:about=""><dc:format>image/svg+xml</dc:format><dc:type
         rdf:resource="http://purl.org/dc/dcmitype/StillImage" /></cc:Work></rdf:RDF></metadata><defs
   id="defs73" /><sodipodi:namedview
   pagecolor="#ffffff"
   bordercolor="#666666"
   borderopacity="1"
   objecttolerance="10"
   gridtolerance="10"
   guidetolerance="10"
   inkscape:pageopacity="0"
   inkscape:pageshadow="2"
   inkscape:window-width="640"
   inkscape:window-height="480"
   id="namedview71" />
<g
   id="g68">
	
		<linearGradient
   id="SVGID_1_"
   gradientUnits="userSpaceOnUse"
   x1="452.7148"
   y1="519.1782"
   x2="452.7148"
   y2="522.895"
   gradientTransform="matrix(0 1 1 0 -286.7817 -349.4097)">
		<stop
   offset="0"
   style="stop-color:#35527C"
   id="stop2" />
		<stop
   offset="1"
   style="stop-color:#CFD8E2"
   id="stop4" />
	</linearGradient>
	
		<rect
   x="232.397"
   y="82.82"
   fill="url(#SVGID_1_)"
   stroke="#231815"
   stroke-width="0.5"
   stroke-miterlimit="10"
   width="3.717"
   height="40.97"
   id="rect7" />
	
		<linearGradient
   id="SVGID_2_"
   gradientUnits="userSpaceOnUse"
   x1="452.7148"
   y1="500.4058"
   x2="452.7148"
   y2="504.1206"
   gradientTransform="matrix(0 1 1 0 -286.7817 -349.4097)">
		<stop
   offset="0"
   style="stop-color:#35527C"
   id="stop9" />
		<stop
   offset="1"
   style="stop-color:#CFD8E2"
   id="stop11" />
	</linearGradient>
	
		<rect
   x="213.624"
   y="82.82"
   fill="url(#SVGID_2_)"
   stroke="#231815"
   stroke-width="0.5"
   stroke-miterlimit="10"
   width="3.715"
   height="40.97"
   id="rect14" />
	
		<rect
   x="209.368"
   y="131.373"
   fill="#35527C"
   stroke="#231815"
   stroke-width="0.5"
   stroke-miterlimit="10"
   width="31"
   height="49.001"
   id="rect16" />
	<polygon
   fill="#7387A6"
   points="231.401,179.54 218.683,132.206 239.521,132.206 239.521,179.54  "
   id="polygon18" />
	
		<rect
   x="209.368"
   y="180.374"
   fill="#B7C3CE"
   stroke="#231815"
   stroke-width="0.5"
   stroke-miterlimit="10"
   width="31"
   height="12.667"
   id="rect20" />
	<polygon
   fill="#CFD8E2"
   points="234.518,192.708 231.655,180.708 240.166,180.708 240.166,192.708  "
   id="polygon22" />
	<g
   id="g44">
		
			<rect
   x="209.368"
   y="123.676"
   fill="#B7C3CE"
   stroke="#231815"
   stroke-width="0.5"
   stroke-miterlimit="10"
   width="31"
   height="7.696"
   id="rect24" />
		<g
   id="g42">
			<polygon
   fill="#FFFF00"
   points="239.917,127.489 234.471,123.79 239.917,123.79    "
   id="polygon26" />
			<polygon
   points="239.917,131.22 228.976,123.79 234.471,123.79 239.917,127.489    "
   id="polygon28" />
			<polygon
   fill="#FFFF00"
   points="239.917,131.26 234.48,131.26 223.48,123.79 228.976,123.79 239.917,131.22    "
   id="polygon30" />
			<polygon
   points="234.48,131.26 228.995,131.26 217.995,123.79 223.48,123.79    "
   id="polygon32" />
			<polygon
   fill="#FFFF00"
   points="228.995,131.26 223.5,131.26 212.5,123.79 217.995,123.79    "
   id="polygon34" />
			<polygon
   points="223.5,131.26 218.015,131.26 209.82,125.695 209.82,123.79 212.5,123.79    "
   id="polygon36" />
			<polygon
   fill="#FFFF00"
   points="218.015,131.26 212.52,131.26 209.82,129.426 209.82,125.695    "
   id="polygon38" />
			<polygon
   points="212.52,131.26 209.82,131.26 209.82,129.426    "
   id="polygon40" />
		</g>
	</g>
	<g
   id="g66">
		
			<rect
   x="209.368"
   y="75.124"
   fill="#B7C3CE"
   stroke="#231815"
   stroke-width="0.5"
   stroke-miterlimit="10"
   width="31"
   height="7.696"
   id="rect46" />
		<g
   id="g64">
			<polygon
   fill="#FFFF00"
   points="239.917,78.936 234.471,75.237 239.917,75.237    "
   id="polygon48" />
			<polygon
   points="239.917,82.667 228.976,75.237 234.471,75.237 239.917,78.936    "
   id="polygon50" />
			<polygon
   fill="#FFFF00"
   points="239.917,82.708 234.48,82.708 223.48,75.237 228.976,75.237 239.917,82.667    "
   id="polygon52" />
			<polygon
   points="234.48,82.708 228.995,82.708 217.995,75.237 223.48,75.237    "
   id="polygon54" />
			<polygon
   fill="#FFFF00"
   points="228.995,82.708 223.5,82.708 212.5,75.237 217.995,75.237    "
   id="polygon56" />
			<polygon
   points="223.5,82.708 218.015,82.708 209.82,77.142 209.82,75.237 212.5,75.237    "
   id="polygon58" />
			<polygon
   fill="#FFFF00"
   points="218.015,82.708 212.52,82.708 209.82,80.874 209.82,77.142    "
   id="polygon60" />
			<polygon
   points="212.52,82.708 209.82,82.708 209.82,80.874    "
   id="polygon62" />
		</g>
	</g>
</g>
</svg>
