<?xml version="1.0" encoding="UTF-8" standalone="no"?>
<svg
   xmlns:dc="http://purl.org/dc/elements/1.1/"
   xmlns:cc="http://creativecommons.org/ns#"
   xmlns:rdf="http://www.w3.org/1999/02/22-rdf-syntax-ns#"
   xmlns:svg="http://www.w3.org/2000/svg"
   xmlns="http://www.w3.org/2000/svg"
   xmlns:sodipodi="http://sodipodi.sourceforge.net/DTD/sodipodi-0.dtd"
   xmlns:inkscape="http://www.inkscape.org/namespaces/inkscape"
   version="1.1"
   id="图层_1"
   x="0px"
   y="0px"
   width="31.502px"
   height="77.838px"
   viewBox="404.642 95.163 31.502 77.838"
   enable-background="new 404.642 95.163 31.502 77.838"
   xml:space="preserve"
   sodipodi:docname="传送机杂项-05.svg"><metadata
   id="metadata57"><rdf:RDF><cc:Work
       rdf:about=""><dc:format>image/svg+xml</dc:format><dc:type
         rdf:resource="http://purl.org/dc/dcmitype/StillImage" /></cc:Work></rdf:RDF></metadata><defs
   id="defs55" /><sodipodi:namedview
   pagecolor="#ffffff"
   bordercolor="#666666"
   borderopacity="1"
   objecttolerance="10"
   gridtolerance="10"
   guidetolerance="10"
   inkscape:pageopacity="0"
   inkscape:pageshadow="2"
   inkscape:window-width="640"
   inkscape:window-height="480"
   id="namedview53" />
<g
   id="g50">
	
		<rect
   x="404.894"
   y="111.083"
   fill="#35527C"
   stroke="#231815"
   stroke-width="0.5"
   stroke-miterlimit="10"
   width="31"
   height="49.001"
   id="rect2" />
	<polygon
   fill="#7387A6"
   points="435.894,122.53 435.894,111.083 404.894,111.083 404.894,140.313  "
   id="polygon4" />
	
		<rect
   x="404.894"
   y="160.084"
   fill="#B7C3CE"
   stroke="#231815"
   stroke-width="0.5"
   stroke-miterlimit="10"
   width="31"
   height="12.667"
   id="rect6" />
	<polygon
   fill="#CFD8E2"
   points="435.894,164.578 435.894,160.084 404.894,160.084 404.894,169.223  "
   id="polygon8" />
	
		<rect
   x="404.894"
   y="103.387"
   fill="#B7C3CE"
   stroke="#231815"
   stroke-width="0.5"
   stroke-miterlimit="10"
   width="31"
   height="7.696"
   id="rect10" />
	<g
   id="g28">
		<polygon
   fill="#FFFF00"
   points="405.083,107.2 410.624,103.5 405.083,103.5   "
   id="polygon12" />
		<polygon
   points="405.083,110.931 416.214,103.5 410.624,103.5 405.083,107.2   "
   id="polygon14" />
		<polygon
   fill="#FFFF00"
   points="405.083,110.971 410.614,110.971 421.806,103.5 416.214,103.5 405.083,110.931   "
   id="polygon16" />
		<polygon
   points="410.614,110.971 416.195,110.971 427.386,103.5 421.806,103.5   "
   id="polygon18" />
		<polygon
   fill="#FFFF00"
   points="416.195,110.971 421.786,110.971 432.978,103.5 427.386,103.5   "
   id="polygon20" />
		<polygon
   points="421.786,110.971 427.366,110.971 435.704,105.406 435.704,103.5 432.978,103.5   "
   id="polygon22" />
		<polygon
   fill="#FFFF00"
   points="427.366,110.971 432.958,110.971 435.704,109.137 435.704,105.406   "
   id="polygon24" />
		<polygon
   points="432.958,110.971 435.704,110.971 435.704,109.137   "
   id="polygon26" />
	</g>
	<g
   id="g48">
		
			<rect
   x="404.892"
   y="95.413"
   fill="#B7C3CE"
   stroke="#231815"
   stroke-width="0.5"
   stroke-miterlimit="10"
   width="31"
   height="7.7"
   id="rect30" />
		<polygon
   points="410.944,102.958 421.886,95.527 416.391,95.527 405.345,103.11   "
   id="polygon32" />
		<polygon
   points="404.892,99.632 410.94,95.523 410.892,95.523 405.451,95.523 404.892,95.903 404.892,99.592   "
   id="polygon34" />
		<polygon
   fill="#FFFF00"
   points="410.944,102.998 416.381,102.998 427.381,95.527 421.886,95.527 410.944,102.958   "
   id="polygon36" />
		<polygon
   fill="#FFFF00"
   points="404.892,99.592 410.892,95.523 410.94,95.523 416.392,95.523 405.392,102.993 404.892,102.993     404.892,99.632   "
   id="polygon38" />
		<polygon
   points="416.381,102.998 421.866,102.998 432.866,95.527 427.381,95.527   "
   id="polygon40" />
		<polygon
   fill="#FFFF00"
   points="421.871,102.993 427.36,102.993 435.892,97.203 435.892,95.523 432.871,95.523   "
   id="polygon42" />
		<polygon
   points="427.36,102.993 432.851,102.993 435.892,100.932 435.892,97.203   "
   id="polygon44" />
		<polygon
   fill="#FFFF00"
   points="432.851,102.993 435.892,102.993 435.892,100.932   "
   id="polygon46" />
	</g>
</g>
</svg>
