<?xml version="1.0" encoding="UTF-8" standalone="no"?>
<svg
   xmlns:dc="http://purl.org/dc/elements/1.1/"
   xmlns:cc="http://creativecommons.org/ns#"
   xmlns:rdf="http://www.w3.org/1999/02/22-rdf-syntax-ns#"
   xmlns:svg="http://www.w3.org/2000/svg"
   xmlns="http://www.w3.org/2000/svg"
   xmlns:sodipodi="http://sodipodi.sourceforge.net/DTD/sodipodi-0.dtd"
   xmlns:inkscape="http://www.inkscape.org/namespaces/inkscape"
   version="1.1"
   id="图层_1"
   x="0px"
   y="0px"
   width="77.839px"
   height="31.502px"
   viewBox="477.152 118.331 77.839 31.502"
   enable-background="new 477.152 118.331 77.839 31.502"
   xml:space="preserve"
   sodipodi:docname="传送机杂项-06.svg"><metadata
   id="metadata57"><rdf:RDF><cc:Work
       rdf:about=""><dc:format>image/svg+xml</dc:format><dc:type
         rdf:resource="http://purl.org/dc/dcmitype/StillImage" /></cc:Work></rdf:RDF></metadata><defs
   id="defs55" /><sodipodi:namedview
   pagecolor="#ffffff"
   bordercolor="#666666"
   borderopacity="1"
   objecttolerance="10"
   gridtolerance="10"
   guidetolerance="10"
   inkscape:pageopacity="0"
   inkscape:pageshadow="2"
   inkscape:window-width="640"
   inkscape:window-height="480"
   id="namedview53" />
<g
   id="g50">
	
		<rect
   x="493.073"
   y="118.583"
   fill="#35527C"
   stroke="#231815"
   stroke-width="0.5"
   stroke-miterlimit="10"
   width="49.001"
   height="31"
   id="rect2" />
	<polygon
   fill="#7387A6"
   points="541.24,127.551 493.906,140.27 493.906,119.432 541.24,119.432  "
   id="polygon4" />
	
		<rect
   x="542.074"
   y="118.583"
   fill="#B7C3CE"
   stroke="#231815"
   stroke-width="0.5"
   stroke-miterlimit="10"
   width="12.667"
   height="31"
   id="rect6" />
	<polygon
   fill="#CFD8E2"
   points="554.408,124.434 542.408,127.297 542.408,118.785 554.408,118.785  "
   id="polygon8" />
	
		<rect
   x="485.377"
   y="118.583"
   fill="#B7C3CE"
   stroke="#231815"
   stroke-width="0.5"
   stroke-miterlimit="10"
   width="7.696"
   height="31"
   id="rect10" />
	<g
   id="g28">
		<polygon
   fill="#FFFF00"
   points="489.189,118.772 485.49,124.313 485.49,118.772   "
   id="polygon12" />
		<polygon
   points="492.921,118.772 485.49,129.904 485.49,124.313 489.189,118.772   "
   id="polygon14" />
		<polygon
   fill="#FFFF00"
   points="492.961,118.772 492.961,124.304 485.49,135.496 485.49,129.904 492.921,118.772   "
   id="polygon16" />
		<polygon
   points="492.961,124.304 492.961,129.885 485.49,141.076 485.49,135.496   "
   id="polygon18" />
		<polygon
   fill="#FFFF00"
   points="492.961,129.885 492.961,135.476 485.49,146.667 485.49,141.076   "
   id="polygon20" />
		<polygon
   points="492.961,135.476 492.961,141.057 487.396,149.394 485.49,149.394 485.49,146.667   "
   id="polygon22" />
		<polygon
   fill="#FFFF00"
   points="492.961,141.057 492.961,146.647 491.127,149.394 487.396,149.394   "
   id="polygon24" />
		<polygon
   points="492.961,146.647 492.961,149.394 491.127,149.394   "
   id="polygon26" />
	</g>
	<g
   id="g48">
		
			<rect
   x="477.402"
   y="118.581"
   fill="#B7C3CE"
   stroke="#231815"
   stroke-width="0.5"
   stroke-miterlimit="10"
   width="7.699"
   height="31"
   id="rect30" />
		<polygon
   points="484.947,124.635 477.517,135.575 477.517,130.08 485.1,119.035   "
   id="polygon32" />
		<polygon
   points="481.582,118.581 477.893,118.581 477.513,119.141 477.513,124.581 477.513,124.631 481.622,118.581   "
   id="polygon34" />
		<polygon
   fill="#FFFF00"
   points="484.987,124.635 484.987,130.07 477.517,141.07 477.517,135.575 484.947,124.635   "
   id="polygon36" />
		<polygon
   fill="#FFFF00"
   points="481.622,118.581 484.982,118.581 484.982,119.081 477.513,130.081 477.513,124.631     477.513,124.581 481.582,118.581   "
   id="polygon38" />
		<polygon
   points="484.987,130.07 484.987,135.557 477.517,146.557 477.517,141.07   "
   id="polygon40" />
		<polygon
   fill="#FFFF00"
   points="484.982,135.561 484.982,141.051 479.192,149.581 477.513,149.581 477.513,146.561   "
   id="polygon42" />
		<polygon
   points="484.982,141.051 484.982,146.541 482.922,149.581 479.192,149.581   "
   id="polygon44" />
		<polygon
   fill="#FFFF00"
   points="484.982,146.541 484.982,149.581 482.922,149.581   "
   id="polygon46" />
	</g>
</g>
</svg>
