<?xml version="1.0" encoding="UTF-8" standalone="no"?>
<svg
   xmlns:dc="http://purl.org/dc/elements/1.1/"
   xmlns:cc="http://creativecommons.org/ns#"
   xmlns:rdf="http://www.w3.org/1999/02/22-rdf-syntax-ns#"
   xmlns:svg="http://www.w3.org/2000/svg"
   xmlns="http://www.w3.org/2000/svg"
   xmlns:sodipodi="http://sodipodi.sourceforge.net/DTD/sodipodi-0.dtd"
   xmlns:inkscape="http://www.inkscape.org/namespaces/inkscape"
   version="1.1"
   id="图层_1"
   x="0px"
   y="0px"
   width="166.779px"
   height="25.75px"
   viewBox="39.492 248.056 166.779 25.75"
   enable-background="new 39.492 248.056 166.779 25.75"
   xml:space="preserve"
   sodipodi:docname="传送机杂项-08.svg"><metadata
   id="metadata95"><rdf:RDF><cc:Work
       rdf:about=""><dc:format>image/svg+xml</dc:format><dc:type
         rdf:resource="http://purl.org/dc/dcmitype/StillImage" /></cc:Work></rdf:RDF></metadata><defs
   id="defs93" /><sodipodi:namedview
   pagecolor="#ffffff"
   bordercolor="#666666"
   borderopacity="1"
   objecttolerance="10"
   gridtolerance="10"
   guidetolerance="10"
   inkscape:pageopacity="0"
   inkscape:pageshadow="2"
   inkscape:window-width="640"
   inkscape:window-height="480"
   id="namedview91" />
<g
   id="g88">
	
		<path
   fill="#ACC0DD"
   stroke="#231815"
   stroke-width="0.5"
   stroke-linecap="round"
   stroke-linejoin="round"
   stroke-miterlimit="10"
   d="   M206.021,251.426c0,0.6-0.17,1.16-0.47,1.63l-1.12,1.09c-0.1,0.069-0.21,0.12-0.319,0.16l-39.661,19.25H44.492   c-1.46,0-2.78-0.671-3.66-1.71l1.66-2.6l0.05-0.021l-2.8-0.42l2.75-4.31c0.06-0.031,0.13-0.061,0.2-0.09l36.372-14.601l123.838-1.5   c0.8,0,1.52,0.3,2.069,0.81C205.622,249.676,206.021,250.506,206.021,251.426z"
   id="path2" />
	<path
   fill="#7FA8C9"
   d="M205.621,251.426c0,0.6-0.17,1.16-0.47,1.63l-1.12,1.09c-0.1,0.069-0.21,0.12-0.319,0.16l-39.66,19.25   l-5.5-5.5l39.66-19.25c0.109-0.04,0.22-0.091,0.319-0.16l0.301-0.29l3.67-0.05c0.8,0,1.52,0.3,2.069,0.81   C205.222,249.676,205.621,250.506,205.621,251.426z"
   id="path4" />
	
		<path
   fill="#50729B"
   stroke="#231815"
   stroke-width="0.5"
   stroke-linecap="round"
   stroke-linejoin="round"
   stroke-miterlimit="10"
   d="   M167.201,268.806c0,2.622-2.126,4.747-4.748,4.747H44.49c-2.622,0-4.748-2.125-4.748-4.747l0,0c0-2.622,2.126-4.748,4.748-4.748   h117.963C165.075,264.058,167.201,266.184,167.201,268.806L167.201,268.806z"
   id="path6" />
	<path
   fill="#50729B"
   d="M205.621,251.226c0,0.601-0.17,1.159-0.47,1.63l-1.12,1.09c-0.1,0.07-0.21,0.12-0.319,0.16l-39.66,19.25   l-1.33-5.221l40.87-19.829c0.359,0.14,0.689,0.34,0.979,0.61C205.222,249.476,205.621,250.306,205.621,251.226z"
   id="path8" />
	<g
   id="g14">
		<path
   fill="#35527C"
   stroke="#231815"
   stroke-width="0.5"
   stroke-miterlimit="10"
   d="M49.242,268.806c0,2.62-2.13,4.75-4.75,4.75    c-1.46,0-2.78-0.671-3.66-1.71c-0.68-0.82-1.09-1.881-1.09-3.04c0-1.91,1.13-3.55,2.75-4.31c0.06-0.031,0.13-0.061,0.2-0.09    c0.56-0.221,1.159-0.351,1.8-0.351C47.112,264.056,49.242,266.186,49.242,268.806z"
   id="path10" />
		<circle
   fill="#ACC0DD"
   cx="44.492"
   cy="268.806"
   r="1.998"
   id="circle12" />
	</g>
	<g
   id="g20">
		<circle
   fill="#35527C"
   stroke="#231815"
   stroke-width="0.5"
   stroke-miterlimit="10"
   cx="54.322"
   cy="268.806"
   r="4.748"
   id="circle16" />
		<circle
   fill="#ACC0DD"
   cx="54.322"
   cy="268.806"
   r="1.998"
   id="circle18" />
	</g>
	<g
   id="g26">
		<circle
   fill="#35527C"
   stroke="#231815"
   stroke-width="0.5"
   stroke-miterlimit="10"
   cx="64.152"
   cy="268.806"
   r="4.748"
   id="circle22" />
		<circle
   fill="#ACC0DD"
   cx="64.152"
   cy="268.806"
   r="1.998"
   id="circle24" />
	</g>
	<g
   id="g32">
		<circle
   fill="#35527C"
   stroke="#231815"
   stroke-width="0.5"
   stroke-miterlimit="10"
   cx="73.982"
   cy="268.806"
   r="4.748"
   id="circle28" />
		<circle
   fill="#ACC0DD"
   cx="73.982"
   cy="268.806"
   r="1.998"
   id="circle30" />
	</g>
	<g
   id="g38">
		<circle
   fill="#35527C"
   stroke="#231815"
   stroke-width="0.5"
   stroke-miterlimit="10"
   cx="83.813"
   cy="268.806"
   r="4.748"
   id="circle34" />
		<circle
   fill="#ACC0DD"
   cx="83.813"
   cy="268.806"
   r="1.998"
   id="circle36" />
	</g>
	<g
   id="g44">
		<circle
   fill="#35527C"
   stroke="#231815"
   stroke-width="0.5"
   stroke-miterlimit="10"
   cx="93.643"
   cy="268.806"
   r="4.748"
   id="circle40" />
		<circle
   fill="#ACC0DD"
   cx="93.643"
   cy="268.806"
   r="1.998"
   id="circle42" />
	</g>
	<g
   id="g50">
		<circle
   fill="#35527C"
   stroke="#231815"
   stroke-width="0.5"
   stroke-miterlimit="10"
   cx="103.473"
   cy="268.806"
   r="4.748"
   id="circle46" />
		<circle
   fill="#ACC0DD"
   cx="103.473"
   cy="268.806"
   r="1.998"
   id="circle48" />
	</g>
	<g
   id="g56">
		<circle
   fill="#35527C"
   stroke="#231815"
   stroke-width="0.5"
   stroke-miterlimit="10"
   cx="113.303"
   cy="268.806"
   r="4.748"
   id="circle52" />
		<circle
   fill="#ACC0DD"
   cx="113.303"
   cy="268.806"
   r="1.998"
   id="circle54" />
	</g>
	<g
   id="g62">
		<circle
   fill="#35527C"
   stroke="#231815"
   stroke-width="0.5"
   stroke-miterlimit="10"
   cx="123.133"
   cy="268.806"
   r="4.748"
   id="circle58" />
		<circle
   fill="#ACC0DD"
   cx="123.133"
   cy="268.806"
   r="1.998"
   id="circle60" />
	</g>
	<g
   id="g68">
		<circle
   fill="#35527C"
   stroke="#231815"
   stroke-width="0.5"
   stroke-miterlimit="10"
   cx="132.963"
   cy="268.806"
   r="4.748"
   id="circle64" />
		<circle
   fill="#ACC0DD"
   cx="132.963"
   cy="268.806"
   r="1.998"
   id="circle66" />
	</g>
	<g
   id="g74">
		<circle
   fill="#35527C"
   stroke="#231815"
   stroke-width="0.5"
   stroke-miterlimit="10"
   cx="142.793"
   cy="268.806"
   r="4.748"
   id="circle70" />
		<circle
   fill="#ACC0DD"
   cx="142.793"
   cy="268.806"
   r="1.998"
   id="circle72" />
	</g>
	<g
   id="g80">
		<circle
   fill="#35527C"
   stroke="#231815"
   stroke-width="0.5"
   stroke-miterlimit="10"
   cx="152.623"
   cy="268.806"
   r="4.748"
   id="circle76" />
		<circle
   fill="#ACC0DD"
   cx="152.623"
   cy="268.806"
   r="1.998"
   id="circle78" />
	</g>
	<g
   id="g86">
		<circle
   fill="#35527C"
   stroke="#231815"
   stroke-width="0.5"
   stroke-miterlimit="10"
   cx="162.453"
   cy="268.806"
   r="4.748"
   id="circle82" />
		<circle
   fill="#ACC0DD"
   cx="162.453"
   cy="268.806"
   r="1.998"
   id="circle84" />
	</g>
</g>
</svg>
