<svg xmlns="http://www.w3.org/2000/svg" xmlns:xlink="http://www.w3.org/1999/xlink" viewBox="0 0 171.41 229.28"><defs><style>.cls-1{fill:#c9c9cb;}.cls-2{fill:#f2f0f0;}.cls-3,.cls-6,.cls-7{fill:#fff;}.cls-4{fill:#da251c;}.cls-5{fill:#050d0e;}.cls-6{font-size:22.93px;letter-spacing:0.18em;}.cls-6,.cls-7{font-family:SourceHanSansCN-Bold-GBpc-EUC-H, Source Han Sans CN;}.cls-7{font-size:10.92px;letter-spacing:0.12em;}.cls-8{fill:#e3e3e8;}.cls-9{fill:url(#未命名的渐变_108);}.cls-10{fill:url(#未命名的渐变_110);}.cls-11{fill:url(#radial-gradient);}.cls-12{fill:#514c4e;}.cls-13{fill:url(#未命名的渐变_108-2);}.cls-14{fill:url(#未命名的渐变_110-2);}.cls-15{fill:url(#radial-gradient-2);}.cls-16{fill:url(#未命名的渐变_108-3);}.cls-17{fill:url(#未命名的渐变_110-3);}.cls-18{fill:url(#radial-gradient-3);}.cls-19{fill:url(#未命名的渐变_108-4);}.cls-20{fill:url(#未命名的渐变_110-4);}.cls-21{fill:url(#radial-gradient-4);}</style><radialGradient id="未命名的渐变_108" cx="-58096.96" cy="58579.3" r="41.43" gradientTransform="translate(5559.69 -9.73) rotate(45) scale(0.07)" gradientUnits="userSpaceOnUse"><stop offset="0" stop-color="#b5b5bf"/><stop offset="0.01" stop-color="#afafb9"/><stop offset="0.04" stop-color="#91919d"/><stop offset="0.08" stop-color="#7b7b89"/><stop offset="0.11" stop-color="#6e6e7d"/><stop offset="0.15" stop-color="#6a6a79"/><stop offset="0.3" stop-color="#9b9ba5"/><stop offset="0.41" stop-color="#868694"/><stop offset="0.67" stop-color="#e4e4e9"/><stop offset="1" stop-color="#898995"/></radialGradient><linearGradient id="未命名的渐变_110" x1="-72290.93" y1="71773.24" x2="-72221.09" y2="71773.24" gradientTransform="translate(5601.89 30.69) rotate(45) scale(0.05)" gradientUnits="userSpaceOnUse"><stop offset="0.01" stop-color="#fff"/><stop offset="0.49" stop-color="#262626"/><stop offset="0.81" stop-color="#fff"/></linearGradient><radialGradient id="radial-gradient" cx="-72250.96" cy="71772.9" r="120.13" gradientTransform="translate(5601.89 30.69) rotate(45) scale(0.05)" gradientUnits="userSpaceOnUse"><stop offset="0" stop-color="#cccecf"/><stop offset="1" stop-color="#4d4d4f"/></radialGradient><radialGradient id="未命名的渐变_108-2" cx="-59649.32" cy="60131.66" r="41.43" xlink:href="#未命名的渐变_108"/><linearGradient id="未命名的渐变_110-2" x1="-74192.37" y1="73674.68" x2="-74122.53" y2="73674.68" xlink:href="#未命名的渐变_110"/><radialGradient id="radial-gradient-2" cx="-74152.4" cy="73674.33" r="120.13" xlink:href="#radial-gradient"/><radialGradient id="未命名的渐变_108-3" cx="-55893.08" cy="60783.17" r="41.43" xlink:href="#未命名的渐变_108"/><linearGradient id="未命名的渐变_110-3" x1="-69591.47" y1="74472.7" x2="-69521.63" y2="74472.7" xlink:href="#未命名的渐变_110"/><radialGradient id="radial-gradient-3" cx="-69551.5" cy="74472.35" r="120.13" xlink:href="#radial-gradient"/><radialGradient id="未命名的渐变_108-4" cx="-57445.44" cy="62335.54" r="41.43" xlink:href="#未命名的渐变_108"/><linearGradient id="未命名的渐变_110-4" x1="-71492.91" y1="76374.13" x2="-71423.07" y2="76374.13" xlink:href="#未命名的渐变_110"/><radialGradient id="radial-gradient-4" cx="-71452.94" cy="76373.79" r="120.13" xlink:href="#radial-gradient"/></defs><title>禁止合闸</title><g id="图层_2" data-name="图层 2"><g id="图层_1-2" data-name="图层 1"><rect class="cls-1" width="171.41" height="229.28" rx="12"/><rect class="cls-2" x="0.85" y="1.14" width="169.71" height="227" rx="12"/><rect class="cls-3" x="1.81" y="2.42" width="167.79" height="224.43" rx="12"/><path class="cls-4" d="M85.71,13.83A60.08,60.08,0,1,0,145.78,73.9,60.2,60.2,0,0,0,85.71,13.83ZM50.28,38.36l-.1.1ZM35.52,73.9a50,50,0,0,1,12-32.48l70.32,71.05A50.18,50.18,0,0,1,35.52,73.9Zm85.55,35.6.21-.2Zm3.85-4.33L54.87,34.37a50.14,50.14,0,0,1,70.05,70.8Z"/><polygon class="cls-5" points="97.74 75.1 107.84 69.64 105.32 65.26 94.08 71.41 97.74 75.1"/><path class="cls-5" d="M113.47,57a1.8,1.8,0,0,0-.36-.37h0a1.14,1.14,0,0,0-.17-.15,1.53,1.53,0,0,0-.25-.16h0a2.83,2.83,0,0,0-.94-.32H111l-.13,0a2.69,2.69,0,0,0-.71.28,2.48,2.48,0,0,0-1,3.29v0a.08.08,0,0,1,0,.06l0,0,1.74,3,1.8,3.11A2,2,0,0,0,113,66a1.69,1.69,0,0,0,.21.31l0,0a2.47,2.47,0,0,0,3.14.59,2.55,2.55,0,0,0,.93-3.42.86.86,0,0,1-.15-.22l-3.52-6.12h0v0A.82.82,0,0,1,113.47,57Z"/><path class="cls-5" d="M105.39,59a2,2,0,0,0-.33.24,1.27,1.27,0,0,0-.12.1,2.16,2.16,0,0,0-.25.27s0,.06-.06.08a1.22,1.22,0,0,0-.16.26.75.75,0,0,0-.07.12,1.88,1.88,0,0,0-.12.3c0,.1,0,.2-.07.29v0a2.74,2.74,0,0,0,0,.81,1.8,1.8,0,0,0,.06.32v0a2.73,2.73,0,0,0,.16.43l0,0s0,0,0,0v.07l3.57,6.1c0,.08.06.17.09.23a1.66,1.66,0,0,0,.23.31.18.18,0,0,0,.05.07,1.81,1.81,0,0,0,.24.24l.09.07a1,1,0,0,0,.24.17l.15.1a.39.39,0,0,1,.13,0,2.55,2.55,0,0,0,1.76.14,4.11,4.11,0,0,0,.52-.25,2.49,2.49,0,0,0,.91-3.38,1.38,1.38,0,0,0-.16-.23l-3.51-6.1v0A2.51,2.51,0,0,0,105.39,59Z"/><path class="cls-5" d="M119.51,54.17a.08.08,0,0,0,0,.07v0l1.67,2.85,1.21-.63,3.2-1.64-1.78-3.07v0a2.49,2.49,0,0,0-2.38-1.21h-.13a2.66,2.66,0,0,0-.9.3,2.5,2.5,0,0,0-1,3.29Z"/><path class="cls-5" d="M114.12,56.54a.2.2,0,0,0,0,.09l3.54,6.13c0,.09.09.14.13.24a2.47,2.47,0,0,0,3.37.9,3,3,0,0,0,.41-.28l0,0a2.5,2.5,0,0,0,.82-1.53,2.43,2.43,0,0,0,0-.66,2.52,2.52,0,0,0-.27-.83c.08,0,.18,0,.27.06s.41,0,.61.09l.15,0c.3,0,.59,0,.89.06h.09a12,12,0,0,0,1.92-.09c.13,2.2.09,4.22,1.21,6a3.59,3.59,0,0,1-1.76-2.17c.06-1.77-.59-3.41-2-2.82-.48.09-.91.15-.78.43,0,.1,0,.2.07.29s0,.13,0,.19v0a1.7,1.7,0,0,1-.3,1,1.27,1.27,0,0,0-.07.12l-.06.08-.24.25a.08.08,0,0,0,0,0l-.24.19-.06,0a4.16,4.16,0,0,1-.7.35h0a3.74,3.74,0,0,1-1.63.23h-.06l-.38-.07h0a2.17,2.17,0,0,1-.33-.1l-.11,0a2,2,0,0,1-.33-.16,3.26,3.26,0,0,1-4.78,3.17c0,.16,0,.31-.07.45a2.83,2.83,0,0,1-.14.44h0a3,3,0,0,1-2.27,1.9,2.73,2.73,0,0,1-.4,0h0a1.31,1.31,0,0,1-.28,0h-.21l-.15,0-.25,0a2.36,2.36,0,0,1-.38-.1,2,2,0,0,0,.44,1.15L111,73.74l2.43,4L114.89,80a5.63,5.63,0,0,0,3.91,2l2,3,1.68-.9,15.22-8.23-2.4-5.4a8.8,8.8,0,0,0,0-4.62l-5.68-10.25a3.2,3.2,0,0,0-3.26-.44l-5.62,2.92-2.23-4h0a2.48,2.48,0,0,0-3.39-.92,2.51,2.51,0,0,0-1,3.28S114.08,56.54,114.12,56.54Z"/><path class="cls-5" d="M95.79,42.41a44.09,44.09,0,0,1,15.71,7.15l2-3.64A49.79,49.79,0,0,0,96.58,38.4l.92-2.26L85.74,39.21l9.4,5.65Z"/><path class="cls-5" d="M60.46,57.22v47.1a29.14,29.14,0,0,0,4.62,3.39V61.87Z"/><path class="cls-5" d="M82.94,60.18V40a4.05,4.05,0,0,0-4.16-3.91H66.27v7.27Z"/><polygon class="cls-5" points="84.18 81.01 84.18 82.44 85.11 81.93 84.18 81.01"/><path class="cls-5" d="M138.61,76.53l-20.24,11.1,11,12a45.7,45.7,0,0,0,11.24-21Z"/><path class="cls-5" d="M66.27,63.05v37.48H78.78a4.46,4.46,0,0,0,4.16-4.41V79.75Zm8.35,24.44a3.46,3.46,0,1,1,3.44-3.44A3.46,3.46,0,0,1,74.62,87.49Z"/><path class="cls-5" d="M74.62,81a3,3,0,1,0,0,6,3,3,0,0,0,0-6Z"/><polygon class="cls-5" points="65.08 42.19 65.08 41.85 64.75 41.85 65.08 42.19"/><rect class="cls-4" x="25.27" y="148.81" width="120.82" height="54.75"/><text class="cls-6" transform="translate(32.05 176.17)">禁止合闸</text><text class="cls-7" transform="translate(33.28 195.09)">No switching on</text><path class="cls-8" d="M159.8,14.82a3.14,3.14,0,1,1,0-4.45A3.11,3.11,0,0,1,159.8,14.82Z"/><path class="cls-9" d="M155.66,14.52a2.73,2.73,0,0,1,0-3.84,2.72,2.72,0,1,1,0,3.84Z"/><path class="cls-10" d="M159,13.69a.23.23,0,0,0,0-.34l-.71-.73a.25.25,0,0,1,0-.36l.71-.71a.24.24,0,0,0,0-.35l-.15-.15a.25.25,0,0,0-.36,0l-.71.71a.24.24,0,0,1-.36,0l-.71-.71a.25.25,0,0,0-.36,0l-.13.15a.23.23,0,0,0,0,.35l.7.71a.27.27,0,0,1,0,.36l-.7.72a.22.22,0,0,0,0,.35l.13.15a.27.27,0,0,0,.36,0l.71-.71a.25.25,0,0,1,.37,0l.7.71a.27.27,0,0,0,.36,0Z"/><path class="cls-11" d="M159,13.57a.23.23,0,0,1-.06.12l-.15.15a.27.27,0,0,1-.36,0l-.7-.71a.25.25,0,0,0-.37,0l-.71.71a.27.27,0,0,1-.36,0l-.13-.15a.15.15,0,0,1-.07-.12.24.24,0,0,0,.07.25l.13.15a.25.25,0,0,0,.36,0l.71-.72a.27.27,0,0,1,.37,0l.7.72a.25.25,0,0,0,.36,0l.15-.15A.28.28,0,0,0,159,13.57Z"/><path class="cls-12" d="M156.13,11.44a.22.22,0,0,1,.05-.12l.15-.14a.25.25,0,0,1,.36,0l.71.7a.25.25,0,0,0,.36,0l.71-.7a.25.25,0,0,1,.36,0l.15.14a.23.23,0,0,1,.06.12.26.26,0,0,0-.06-.24l-.15-.15a.25.25,0,0,0-.36,0l-.71.71a.24.24,0,0,1-.36,0l-.71-.71a.25.25,0,0,0-.36,0l-.13.15A.22.22,0,0,0,156.13,11.44Z"/><path class="cls-8" d="M16.05,14.82a3.14,3.14,0,1,1,0-4.45A3.11,3.11,0,0,1,16.05,14.82Z"/><path class="cls-13" d="M11.91,14.52a2.75,2.75,0,0,1,0-3.84,2.72,2.72,0,1,1,0,3.84Z"/><path class="cls-14" d="M15.23,13.69a.23.23,0,0,0,0-.34l-.71-.73a.25.25,0,0,1,0-.36l.71-.71a.24.24,0,0,0,0-.35l-.15-.15a.25.25,0,0,0-.36,0l-.71.71a.24.24,0,0,1-.36,0l-.71-.71a.25.25,0,0,0-.36,0l-.13.15a.23.23,0,0,0,0,.35l.71.71a.3.3,0,0,1,0,.36l-.71.72a.23.23,0,0,0,0,.35l.13.15a.27.27,0,0,0,.36,0l.71-.71a.25.25,0,0,1,.37,0l.7.71a.27.27,0,0,0,.36,0Z"/><path class="cls-15" d="M15.3,13.57a.35.35,0,0,1-.07.12l-.15.15a.27.27,0,0,1-.36,0l-.7-.71a.25.25,0,0,0-.37,0l-.71.71a.27.27,0,0,1-.36,0l-.13-.15a.15.15,0,0,1-.07-.12.24.24,0,0,0,.07.25l.13.15a.25.25,0,0,0,.36,0l.71-.72a.27.27,0,0,1,.37,0l.7.72a.25.25,0,0,0,.36,0l.15-.15A.29.29,0,0,0,15.3,13.57Z"/><path class="cls-12" d="M12.38,11.44a.22.22,0,0,1,0-.12l.15-.14a.25.25,0,0,1,.36,0l.71.7a.25.25,0,0,0,.36,0l.71-.7a.25.25,0,0,1,.36,0l.15.14a.35.35,0,0,1,.07.12.26.26,0,0,0-.07-.24l-.15-.15a.25.25,0,0,0-.36,0l-.71.71a.24.24,0,0,1-.36,0l-.71-.71a.25.25,0,0,0-.36,0l-.13.15A.22.22,0,0,0,12.38,11.44Z"/><path class="cls-8" d="M159.8,218.9a3.14,3.14,0,1,1,0-4.45A3.13,3.13,0,0,1,159.8,218.9Z"/><path class="cls-16" d="M155.66,218.59a2.71,2.71,0,1,1,3.84,0A2.72,2.72,0,0,1,155.66,218.59Z"/><path class="cls-17" d="M159,217.77a.24.24,0,0,0,0-.35l-.71-.72a.25.25,0,0,1,0-.36l.71-.71a.24.24,0,0,0,0-.35l-.15-.15a.25.25,0,0,0-.36,0l-.71.71a.24.24,0,0,1-.36,0l-.71-.71a.25.25,0,0,0-.36,0l-.13.15a.23.23,0,0,0,0,.35l.7.71a.27.27,0,0,1,0,.36l-.7.72a.22.22,0,0,0,0,.35l.13.15a.27.27,0,0,0,.36,0l.71-.71a.25.25,0,0,1,.37,0l.7.71a.27.27,0,0,0,.36,0Z"/><path class="cls-18" d="M159,217.65a.27.27,0,0,1-.06.12l-.15.15a.27.27,0,0,1-.36,0l-.7-.71a.25.25,0,0,0-.37,0l-.71.71a.27.27,0,0,1-.36,0l-.13-.15a.17.17,0,0,1-.07-.12.22.22,0,0,0,.07.24l.13.15a.25.25,0,0,0,.36,0l.71-.72a.29.29,0,0,1,.37,0l.7.72a.25.25,0,0,0,.36,0l.15-.15A.26.26,0,0,0,159,217.65Z"/><path class="cls-12" d="M156.13,215.52a.22.22,0,0,1,.05-.12l.15-.15a.27.27,0,0,1,.36,0l.71.71a.25.25,0,0,0,.36,0l.71-.71a.27.27,0,0,1,.36,0l.15.15a.23.23,0,0,1,.06.12.26.26,0,0,0-.06-.24l-.15-.15a.25.25,0,0,0-.36,0l-.71.71a.24.24,0,0,1-.36,0l-.71-.71a.25.25,0,0,0-.36,0l-.13.15A.22.22,0,0,0,156.13,215.52Z"/><path class="cls-8" d="M16.05,218.9a3.14,3.14,0,1,1,0-4.45A3.13,3.13,0,0,1,16.05,218.9Z"/><path class="cls-19" d="M11.91,218.59a2.74,2.74,0,0,1,0-3.83,2.71,2.71,0,1,1,0,3.83Z"/><path class="cls-20" d="M15.23,217.77a.24.24,0,0,0,0-.35l-.71-.72a.25.25,0,0,1,0-.36l.71-.71a.24.24,0,0,0,0-.35l-.15-.15a.25.25,0,0,0-.36,0l-.71.71a.24.24,0,0,1-.36,0l-.71-.71a.25.25,0,0,0-.36,0l-.13.15a.23.23,0,0,0,0,.35l.71.71a.3.3,0,0,1,0,.36l-.71.72a.23.23,0,0,0,0,.35l.13.15a.27.27,0,0,0,.36,0l.71-.71a.25.25,0,0,1,.37,0l.7.71a.27.27,0,0,0,.36,0Z"/><path class="cls-21" d="M15.3,217.65a.47.47,0,0,1-.07.12l-.15.15a.27.27,0,0,1-.36,0l-.7-.71a.25.25,0,0,0-.37,0l-.71.71a.27.27,0,0,1-.36,0l-.13-.15a.17.17,0,0,1-.07-.12.22.22,0,0,0,.07.24l.13.15a.25.25,0,0,0,.36,0l.71-.72a.29.29,0,0,1,.37,0l.7.72a.25.25,0,0,0,.36,0l.15-.15A.26.26,0,0,0,15.3,217.65Z"/><path class="cls-12" d="M12.38,215.52a.22.22,0,0,1,0-.12l.15-.15a.27.27,0,0,1,.36,0l.71.71a.25.25,0,0,0,.36,0l.71-.71a.27.27,0,0,1,.36,0l.15.15a.35.35,0,0,1,.07.12.26.26,0,0,0-.07-.24l-.15-.15a.25.25,0,0,0-.36,0l-.71.71a.24.24,0,0,1-.36,0l-.71-.71a.25.25,0,0,0-.36,0l-.13.15A.22.22,0,0,0,12.38,215.52Z"/></g></g></svg>