<svg xmlns="http://www.w3.org/2000/svg" viewBox="0 0 197.35 256.33"><defs><style>.cls-1{isolation:isolate;}.cls-10,.cls-13,.cls-2,.cls-3,.cls-4,.cls-7{fill:#adaea9;}.cls-16,.cls-21,.cls-22,.cls-3,.cls-5,.cls-8{opacity:0.5;}.cls-16,.cls-18,.cls-21,.cls-22,.cls-3,.cls-4,.cls-5,.cls-8{mix-blend-mode:multiply;}.cls-18,.cls-4{opacity:0.9;}.cls-10,.cls-19,.cls-23,.cls-6{opacity:0.3;}.cls-10,.cls-13,.cls-19,.cls-23,.cls-6,.cls-7{mix-blend-mode:screen;}.cls-7{opacity:0.2;}.cls-8{fill:#969695;}.cls-9{fill:#b8b9b4;}.cls-11{fill:#1f2225;}.cls-12{fill:#dfba08;}.cls-13{opacity:0.35;}.cls-14{fill:#c5c6c2;}.cls-15,.cls-16,.cls-18,.cls-19{fill:#432e29;}.cls-17,.cls-21{fill:#cdcdcf;}.cls-20,.cls-22,.cls-23{fill:#e0cebc;}</style></defs><title>电压互感器1</title><g class="cls-1"><g id="图层_2" data-name="图层 2"><g id="图层_1-2" data-name="图层 1"><rect class="cls-2" x="169.87" y="67.08" width="6.48" height="3.69"/><path class="cls-3" d="M176.36,67.08h-1.29c-.08.29-.1.62-.17.92a3,3,0,0,1-2.58,2.09,5,5,0,0,1-1.89-.13c-.16,0-.36-.12-.56-.19v1h6.49Z"/><path class="cls-4" d="M169.87,68.31a6.45,6.45,0,0,0,2.2.79,13.17,13.17,0,0,0,3.2,0,5,5,0,0,0,1.09-.19V67.08h-6.49Z"/><path class="cls-2" d="M173.12,56.46a6.2,6.2,0,1,0,6.2,6.2A6.19,6.19,0,0,0,173.12,56.46Zm0,9.86a3.66,3.66,0,1,1,3.66-3.66A3.66,3.66,0,0,1,173.12,66.32Z"/><g class="cls-5"><path class="cls-2" d="M169.46,62.66A3.66,3.66,0,0,1,173.12,59a3.6,3.6,0,0,1,2.66,1.17,3.65,3.65,0,0,0-6.84,1.77,3.58,3.58,0,0,0,1,2.49A3.52,3.52,0,0,1,169.46,62.66Z"/><path class="cls-2" d="M177.89,58.74a6.18,6.18,0,0,1-10.06,7.12,6.18,6.18,0,1,0,10.06-7.12Z"/></g><g class="cls-6"><path class="cls-2" d="M173.52,66.73a3.65,3.65,0,0,0,2.37-6.44,3.64,3.64,0,0,1-2.77,6,3.62,3.62,0,0,1-2.37-.89A3.63,3.63,0,0,0,173.52,66.73Z"/><path class="cls-2" d="M167.32,63.06a6.18,6.18,0,0,1,10.37-4.56A6.18,6.18,0,1,0,169,67.23,6.21,6.21,0,0,1,167.32,63.06Z"/></g><rect class="cls-2" x="20.99" y="67.08" width="6.48" height="3.69"/><path class="cls-3" d="M27.47,67.08H26.18c-.08.29-.1.62-.16.92a3,3,0,0,1-2.58,2.09,5.07,5.07,0,0,1-1.9-.13c-.16,0-.35-.12-.55-.19v1h6.48Z"/><path class="cls-4" d="M21,68.31a6.33,6.33,0,0,0,2.19.79,13.18,13.18,0,0,0,3.2,0,5,5,0,0,0,1.09-.19V67.08H21Z"/><path class="cls-2" d="M24.23,56.46a6.2,6.2,0,1,0,6.2,6.2A6.2,6.2,0,0,0,24.23,56.46Zm0,9.86a3.66,3.66,0,1,1,3.66-3.66A3.66,3.66,0,0,1,24.23,66.32Z"/><g class="cls-5"><path class="cls-2" d="M20.57,62.66A3.66,3.66,0,0,1,24.23,59a3.62,3.62,0,0,1,2.67,1.17,3.65,3.65,0,1,0-5.85,4.26A3.52,3.52,0,0,1,20.57,62.66Z"/><path class="cls-2" d="M29,58.74a6.18,6.18,0,0,1-10.06,7.12A6.18,6.18,0,1,0,29,58.74Z"/></g><g class="cls-6"><path class="cls-2" d="M24.64,66.73a3.67,3.67,0,0,0,3.66-3.67A3.63,3.63,0,0,0,27,60.29a3.62,3.62,0,0,1,.89,2.37,3.66,3.66,0,0,1-3.66,3.66,3.59,3.59,0,0,1-2.36-.89A3.61,3.61,0,0,0,24.64,66.73Z"/><path class="cls-2" d="M18.44,63.06a6.2,6.2,0,0,1,6.2-6.2A6.13,6.13,0,0,1,28.8,58.5a6.18,6.18,0,1,0-8.73,8.73A6.16,6.16,0,0,1,18.44,63.06Z"/></g><polygon class="cls-2" points="98.67 78.65 9.79 78.65 9.79 237.96 98.67 237.96 187.56 237.96 187.56 78.65 98.67 78.65"/><path class="cls-3" d="M187.56,238V78.65H163c.12.78.26,1.56.39,2.33a263.4,263.4,0,0,1,2.16,77.76c-2.26,17.68-7,36-20.57,49.64-16.55,16.65-43.6,23.5-69.42,24.41-9.14.32-18.3,0-27.42-.58-12.69-.81-25.59-2.81-38.37-3.47V238H187.56Z"/><polygon class="cls-7" points="15.07 225.54 15.07 83.84 159.52 83.84 15.07 225.54"/><path class="cls-8" d="M9.79,78.65V83c1.14-.14,2.21-.29,3.08-.35q21.23-1.32,42.51-2,42.56-1.38,85.15-.18,23.53.66,47,2.11V78.65H9.79Z"/><polygon class="cls-3" points="186.4 78.65 185.24 78.65 184.01 237.96 186.4 237.96 187.56 237.96 187.56 78.65 186.4 78.65"/><polygon class="cls-3" points="10.95 78.65 12.11 78.65 13.33 237.96 10.95 237.96 9.79 237.96 9.79 78.65 10.95 78.65"/><rect class="cls-9" x="3.86" y="78.65" width="5.93" height="169.62"/><path class="cls-3" d="M9.79,78.65H3.86v3.22a4.11,4.11,0,0,1,1.71,1.27c1,1.38,1.06,3.1,1.06,4.73q.08,48.51.16,97c0,6.71,0,13.41-.26,20.11-.32,7.86-.14,17.49-2.67,25.73v17.54H9.79Z"/><path class="cls-8" d="M3.86,79.62a14.22,14.22,0,0,1,5.74.71l.19.07V78.65H3.86Z"/><rect class="cls-9" x="187.64" y="78.65" width="5.93" height="169.62"/><path class="cls-3" d="M193.56,78.65h-5.92v3.22a4.15,4.15,0,0,1,1.7,1.27c1,1.38,1.06,3.1,1.06,4.73q.09,48.51.16,97c0,6.71,0,13.41-.26,20.11-.32,7.86-.14,17.49-2.66,25.73v17.54h5.92Z"/><path class="cls-8" d="M187.64,79.62a14.19,14.19,0,0,1,5.73.71l.19.07V78.65h-5.92Z"/><path class="cls-2" d="M70.57,225.15h-40a3.38,3.38,0,0,0-3.63,3v.53H74.2v-.53A3.37,3.37,0,0,0,70.57,225.15Z"/><path class="cls-3" d="M70,225.15H66.53a14.65,14.65,0,0,1-1.38.81c-3,1.54-6.77,1.63-10.31,1.68l-18.32.26c-3,0-6.28,0-9-.94a3.13,3.13,0,0,0-.57,1.76H74.2C74.2,226.75,72.3,225.15,70,225.15Z"/><path class="cls-10" d="M33.47,225.54l9.16,0,12.06,0h6.87a5.34,5.34,0,0,1,1.44,0c.83.25-.35.57-.71.59q-11.24.45-22.47,0a49.76,49.76,0,0,0-8.46.13,7.63,7.63,0,0,1-2.07.33c-.75-.21-.07-.61.31-.74A11.93,11.93,0,0,1,33.47,225.54Z"/><polygon class="cls-4" points="26.92 228.72 27.74 229.16 73.3 229.49 74.2 228.72 26.92 228.72"/><path class="cls-2" d="M70.57,193.05h-40a3.38,3.38,0,0,0-3.63,3v.53H74.2v-.53A3.37,3.37,0,0,0,70.57,193.05Z"/><path class="cls-3" d="M70,193.05H66.53a14.65,14.65,0,0,1-1.38.81c-3,1.54-6.77,1.63-10.31,1.68l-18.32.26c-3,0-6.28,0-9-.94a3.15,3.15,0,0,0-.57,1.76H74.2C74.2,194.65,72.3,193.05,70,193.05Z"/><path class="cls-10" d="M33.47,193.44l9.16,0,12.06,0,4.58,0h2.29a5.34,5.34,0,0,1,1.44,0c.83.25-.35.57-.71.59q-11.24.45-22.47,0a48.75,48.75,0,0,0-8.46.12,7.26,7.26,0,0,1-2.07.33c-.75-.21-.07-.61.31-.74A11.93,11.93,0,0,1,33.47,193.44Z"/><polygon class="cls-4" points="26.92 196.62 27.74 197.06 73.3 197.39 74.2 196.62 26.92 196.62"/><path class="cls-2" d="M70.57,198.4h-40a3.38,3.38,0,0,0-3.63,3V202H74.2v-.53A3.37,3.37,0,0,0,70.57,198.4Z"/><path class="cls-3" d="M70,198.4H66.53a14.65,14.65,0,0,1-1.38.81c-3,1.54-6.77,1.63-10.31,1.68l-18.32.26c-3,0-6.28,0-9-.94a3.15,3.15,0,0,0-.57,1.76H74.2C74.2,200,72.3,198.4,70,198.4Z"/><path class="cls-10" d="M33.47,198.79l9.16,0,12.06,0h6.87a5.34,5.34,0,0,1,1.44,0c.83.25-.35.57-.71.59q-11.24.45-22.47,0a48.75,48.75,0,0,0-8.46.12,7.26,7.26,0,0,1-2.07.33c-.75-.21-.07-.61.31-.74A11.93,11.93,0,0,1,33.47,198.79Z"/><polygon class="cls-4" points="26.92 201.97 27.74 202.41 73.3 202.74 74.2 201.97 26.92 201.97"/><path class="cls-2" d="M70.57,203.75h-40a3.38,3.38,0,0,0-3.63,3v.53H74.2v-.53A3.37,3.37,0,0,0,70.57,203.75Z"/><path class="cls-3" d="M70,203.75H66.53a14.65,14.65,0,0,1-1.38.81c-3,1.54-6.77,1.63-10.31,1.68l-18.32.26c-3,0-6.28,0-9-.94a3.15,3.15,0,0,0-.57,1.76H74.2C74.2,205.35,72.3,203.75,70,203.75Z"/><path class="cls-10" d="M33.47,204.14l9.16,0,12.06,0h6.87a5.34,5.34,0,0,1,1.44,0c.83.25-.35.57-.71.59q-11.24.45-22.47,0a48.75,48.75,0,0,0-8.46.12,7.26,7.26,0,0,1-2.07.33c-.75-.21-.07-.61.31-.74A11.93,11.93,0,0,1,33.47,204.14Z"/><polygon class="cls-4" points="26.92 207.32 27.74 207.76 73.3 208.09 74.2 207.32 26.92 207.32"/><path class="cls-2" d="M70.57,209.1h-40a3.38,3.38,0,0,0-3.63,3v.53H74.2v-.53A3.37,3.37,0,0,0,70.57,209.1Z"/><path class="cls-3" d="M70,209.1H66.53a14.65,14.65,0,0,1-1.38.81c-3,1.54-6.77,1.63-10.31,1.68l-18.32.26c-3,0-6.28,0-9-.94a3.15,3.15,0,0,0-.57,1.76H74.2C74.2,210.7,72.3,209.1,70,209.1Z"/><path class="cls-10" d="M33.47,209.49l9.16,0,12.06,0h6.87a5.34,5.34,0,0,1,1.44,0c.83.25-.35.57-.71.59q-11.24.45-22.47,0a48.75,48.75,0,0,0-8.46.12,7.26,7.26,0,0,1-2.07.33c-.75-.21-.07-.61.31-.74A11.93,11.93,0,0,1,33.47,209.49Z"/><polygon class="cls-4" points="26.92 212.67 27.74 213.11 73.3 213.44 74.2 212.67 26.92 212.67"/><path class="cls-2" d="M70.57,214.45h-40a3.38,3.38,0,0,0-3.63,3V218H74.2v-.53A3.37,3.37,0,0,0,70.57,214.45Z"/><path class="cls-3" d="M70,214.45H66.53a14.65,14.65,0,0,1-1.38.81c-3,1.54-6.77,1.63-10.31,1.68l-18.32.26c-3,0-6.28,0-9-.94a3.13,3.13,0,0,0-.57,1.76H74.2C74.2,216.05,72.3,214.45,70,214.45Z"/><path class="cls-10" d="M33.47,214.84l9.16,0,12.06,0h6.87a5.34,5.34,0,0,1,1.44,0c.83.25-.35.57-.71.59q-11.24.45-22.47,0a48.75,48.75,0,0,0-8.46.12,7.26,7.26,0,0,1-2.07.33c-.75-.21-.07-.61.31-.74A11.93,11.93,0,0,1,33.47,214.84Z"/><polygon class="cls-4" points="26.92 218.02 27.74 218.46 73.3 218.79 74.2 218.02 26.92 218.02"/><path class="cls-2" d="M70.57,219.8h-40a3.38,3.38,0,0,0-3.63,3v.53H74.2v-.53A3.37,3.37,0,0,0,70.57,219.8Z"/><path class="cls-3" d="M70,219.8H66.53a14.65,14.65,0,0,1-1.38.81c-3,1.54-6.77,1.63-10.31,1.68l-18.32.26c-3,0-6.28,0-9-.94a3.13,3.13,0,0,0-.57,1.76H74.2C74.2,221.4,72.3,219.8,70,219.8Z"/><path class="cls-10" d="M33.47,220.19l9.16,0,12.06,0h6.87a5.34,5.34,0,0,1,1.44,0c.83.25-.35.57-.71.59q-11.24.45-22.47,0a48.75,48.75,0,0,0-8.46.12,7.26,7.26,0,0,1-2.07.33c-.75-.21-.07-.61.31-.74A11.93,11.93,0,0,1,33.47,220.19Z"/><polygon class="cls-4" points="26.92 223.37 27.74 223.81 73.3 224.14 74.2 223.37 26.92 223.37"/><path class="cls-2" d="M166.69,225.15h-40a3.38,3.38,0,0,0-3.63,3v.53h47.28v-.53A3.37,3.37,0,0,0,166.69,225.15Z"/><path class="cls-3" d="M166.07,225.15h-3.42a14.65,14.65,0,0,1-1.38.81c-3,1.54-6.77,1.63-10.31,1.68l-18.32.26c-3,0-6.28,0-9-.94a3.13,3.13,0,0,0-.57,1.76h47.28C170.32,226.75,168.42,225.15,166.07,225.15Z"/><path class="cls-10" d="M129.59,225.54l9.16,0,12.06,0h6.87a5.34,5.34,0,0,1,1.44,0c.83.25-.35.57-.71.59q-11.24.45-22.47,0a49.76,49.76,0,0,0-8.46.13,7.63,7.63,0,0,1-2.07.33c-.75-.21-.07-.61.31-.74A11.9,11.9,0,0,1,129.59,225.54Z"/><polygon class="cls-4" points="123.04 228.72 123.86 229.16 169.42 229.49 170.32 228.72 123.04 228.72"/><path class="cls-2" d="M166.69,193.05h-40a3.38,3.38,0,0,0-3.63,3v.53h47.28v-.53A3.37,3.37,0,0,0,166.69,193.05Z"/><path class="cls-3" d="M166.07,193.05h-3.42a14.65,14.65,0,0,1-1.38.81c-3,1.54-6.77,1.63-10.31,1.68l-18.32.26c-3,0-6.28,0-9-.94a3.15,3.15,0,0,0-.57,1.76h47.28C170.32,194.65,168.42,193.05,166.07,193.05Z"/><path class="cls-10" d="M129.59,193.44l9.16,0,12.06,0,4.58,0h2.29a5.34,5.34,0,0,1,1.44,0c.83.25-.35.57-.71.59q-11.24.45-22.47,0a48.75,48.75,0,0,0-8.46.12,7.26,7.26,0,0,1-2.07.33c-.75-.21-.07-.61.31-.74A11.9,11.9,0,0,1,129.59,193.44Z"/><polygon class="cls-4" points="123.04 196.62 123.86 197.06 169.42 197.39 170.32 196.62 123.04 196.62"/><path class="cls-2" d="M166.69,198.4h-40a3.38,3.38,0,0,0-3.63,3V202h47.28v-.53A3.37,3.37,0,0,0,166.69,198.4Z"/><path class="cls-3" d="M166.07,198.4h-3.42a14.65,14.65,0,0,1-1.38.81c-3,1.54-6.77,1.63-10.31,1.68l-18.32.26c-3,0-6.28,0-9-.94A3.15,3.15,0,0,0,123,202h47.28C170.32,200,168.42,198.4,166.07,198.4Z"/><path class="cls-10" d="M129.59,198.79l9.16,0,12.06,0h6.87a5.34,5.34,0,0,1,1.44,0c.83.25-.35.57-.71.59q-11.24.45-22.47,0a48.75,48.75,0,0,0-8.46.12,7.26,7.26,0,0,1-2.07.33c-.75-.21-.07-.61.31-.74A11.9,11.9,0,0,1,129.59,198.79Z"/><polygon class="cls-4" points="123.04 201.97 123.86 202.41 169.42 202.74 170.32 201.97 123.04 201.97"/><path class="cls-2" d="M166.69,203.75h-40a3.38,3.38,0,0,0-3.63,3v.53h47.28v-.53A3.37,3.37,0,0,0,166.69,203.75Z"/><path class="cls-3" d="M166.07,203.75h-3.42a14.65,14.65,0,0,1-1.38.81c-3,1.54-6.77,1.63-10.31,1.68l-18.32.26c-3,0-6.28,0-9-.94a3.15,3.15,0,0,0-.57,1.76h47.28C170.32,205.35,168.42,203.75,166.07,203.75Z"/><path class="cls-10" d="M129.59,204.14l9.16,0,12.06,0h6.87a5.34,5.34,0,0,1,1.44,0c.83.25-.35.57-.71.59q-11.24.45-22.47,0a48.75,48.75,0,0,0-8.46.12,7.26,7.26,0,0,1-2.07.33c-.75-.21-.07-.61.31-.74A11.9,11.9,0,0,1,129.59,204.14Z"/><polygon class="cls-4" points="123.04 207.32 123.86 207.76 169.42 208.09 170.32 207.32 123.04 207.32"/><path class="cls-2" d="M166.69,209.1h-40a3.38,3.38,0,0,0-3.63,3v.53h47.28v-.53A3.37,3.37,0,0,0,166.69,209.1Z"/><path class="cls-3" d="M166.07,209.1h-3.42a14.65,14.65,0,0,1-1.38.81c-3,1.54-6.77,1.63-10.31,1.68l-18.32.26c-3,0-6.28,0-9-.94a3.15,3.15,0,0,0-.57,1.76h47.28C170.32,210.7,168.42,209.1,166.07,209.1Z"/><path class="cls-10" d="M129.59,209.49l9.16,0,12.06,0h6.87a5.34,5.34,0,0,1,1.44,0c.83.25-.35.57-.71.59q-11.24.45-22.47,0a48.75,48.75,0,0,0-8.46.12,7.26,7.26,0,0,1-2.07.33c-.75-.21-.07-.61.31-.74A11.9,11.9,0,0,1,129.59,209.49Z"/><polygon class="cls-4" points="123.04 212.67 123.86 213.11 169.42 213.44 170.32 212.67 123.04 212.67"/><path class="cls-2" d="M166.69,214.45h-40a3.38,3.38,0,0,0-3.63,3V218h47.28v-.53A3.37,3.37,0,0,0,166.69,214.45Z"/><path class="cls-3" d="M166.07,214.45h-3.42a14.65,14.65,0,0,1-1.38.81c-3,1.54-6.77,1.63-10.31,1.68l-18.32.26c-3,0-6.28,0-9-.94A3.13,3.13,0,0,0,123,218h47.28C170.32,216.05,168.42,214.45,166.07,214.45Z"/><path class="cls-10" d="M129.59,214.84l9.16,0,12.06,0h6.87a5.34,5.34,0,0,1,1.44,0c.83.25-.35.57-.71.59q-11.24.45-22.47,0a48.75,48.75,0,0,0-8.46.12,7.26,7.26,0,0,1-2.07.33c-.75-.21-.07-.61.31-.74A11.9,11.9,0,0,1,129.59,214.84Z"/><polygon class="cls-4" points="123.04 218.02 123.86 218.46 169.42 218.79 170.32 218.02 123.04 218.02"/><path class="cls-2" d="M166.69,219.8h-40a3.38,3.38,0,0,0-3.63,3v.53h47.28v-.53A3.37,3.37,0,0,0,166.69,219.8Z"/><path class="cls-3" d="M166.07,219.8h-3.42a14.65,14.65,0,0,1-1.38.81c-3,1.54-6.77,1.63-10.31,1.68l-18.32.26c-3,0-6.28,0-9-.94a3.13,3.13,0,0,0-.57,1.76h47.28C170.32,221.4,168.42,219.8,166.07,219.8Z"/><path class="cls-10" d="M129.59,220.19l9.16,0,12.06,0h6.87a5.34,5.34,0,0,1,1.44,0c.83.25-.35.57-.71.59q-11.24.45-22.47,0a48.75,48.75,0,0,0-8.46.12,7.26,7.26,0,0,1-2.07.33c-.75-.21-.07-.61.31-.74A11.9,11.9,0,0,1,129.59,220.19Z"/><polygon class="cls-4" points="123.04 223.37 123.86 223.81 169.42 224.14 170.32 223.37 123.04 223.37"/><path class="cls-2" d="M70.57,120.7h-40a3.38,3.38,0,0,0-3.63,3v.52H74.2v-.52A3.38,3.38,0,0,0,70.57,120.7Z"/><path class="cls-3" d="M70,120.7H66.53a14.65,14.65,0,0,1-1.38.81c-3,1.54-6.77,1.64-10.31,1.69l-18.32.25c-3,0-6.28,0-9-.93a3.12,3.12,0,0,0-.57,1.75H74.2C74.2,122.3,72.3,120.7,70,120.7Z"/><path class="cls-10" d="M33.47,121.09l9.16,0,12.06,0,4.58,0h2.29a5,5,0,0,1,1.44,0c.83.24-.35.57-.71.58q-11.24.45-22.47,0a48.75,48.75,0,0,0-8.46.12,7.65,7.65,0,0,1-2.07.34c-.75-.22-.07-.61.31-.74A11.94,11.94,0,0,1,33.47,121.09Z"/><polygon class="cls-4" points="26.92 124.27 27.74 124.72 73.3 125.04 74.2 124.27 26.92 124.27"/><path class="cls-2" d="M70.57,88.61h-40a3.38,3.38,0,0,0-3.63,3v.52H74.2v-.52A3.37,3.37,0,0,0,70.57,88.61Z"/><path class="cls-3" d="M70,88.61H66.53c-.45.28-.9.56-1.38.8-3,1.55-6.77,1.64-10.31,1.69l-18.32.26c-3,0-6.28,0-9-.94a3.12,3.12,0,0,0-.57,1.75H74.2C74.2,90.2,72.3,88.61,70,88.61Z"/><path class="cls-10" d="M33.47,89l9.16,0,12.06,0,4.58,0h2.29a5,5,0,0,1,1.44,0c.83.24-.35.57-.71.58q-11.24.45-22.47,0a48.75,48.75,0,0,0-8.46.12,7.65,7.65,0,0,1-2.07.34c-.75-.22-.07-.61.31-.74A11.94,11.94,0,0,1,33.47,89Z"/><polygon class="cls-4" points="26.92 92.17 27.74 92.62 73.3 92.94 74.2 92.17 26.92 92.17"/><path class="cls-2" d="M70.57,94h-40a3.38,3.38,0,0,0-3.63,3v.52H74.2V97A3.37,3.37,0,0,0,70.57,94Z"/><path class="cls-3" d="M70,94H66.53c-.45.28-.9.56-1.38.8-3,1.55-6.77,1.64-10.31,1.69l-18.32.26c-3,0-6.28,0-9-.94a3.12,3.12,0,0,0-.57,1.75H74.2C74.2,95.55,72.3,94,70,94Z"/><path class="cls-10" d="M33.47,94.34l9.16,0,12.06,0,4.58,0h2.29a5,5,0,0,1,1.44,0c.83.24-.35.57-.71.58q-11.24.45-22.47,0a48.75,48.75,0,0,0-8.46.12,7.65,7.65,0,0,1-2.07.34c-.75-.22-.07-.61.31-.74A11.94,11.94,0,0,1,33.47,94.34Z"/><polygon class="cls-4" points="26.92 97.52 27.74 97.97 73.3 98.29 74.2 97.52 26.92 97.52"/><path class="cls-2" d="M70.57,99.31h-40a3.38,3.38,0,0,0-3.63,3v.52H74.2v-.52A3.37,3.37,0,0,0,70.57,99.31Z"/><path class="cls-3" d="M70,99.31H66.53c-.45.28-.9.56-1.38.8-3,1.55-6.77,1.64-10.31,1.69l-18.32.26c-3,0-6.28,0-9-.94a3.12,3.12,0,0,0-.57,1.75H74.2C74.2,100.9,72.3,99.31,70,99.31Z"/><path class="cls-10" d="M33.47,99.69l9.16,0,12.06,0,4.58,0h2.29a5,5,0,0,1,1.44,0c.83.24-.35.57-.71.58q-11.24.45-22.47,0a48.75,48.75,0,0,0-8.46.12,7.65,7.65,0,0,1-2.07.34c-.75-.22-.07-.61.31-.74A11.94,11.94,0,0,1,33.47,99.69Z"/><polygon class="cls-4" points="26.92 102.87 27.74 103.32 73.3 103.64 74.2 102.87 26.92 102.87"/><path class="cls-2" d="M70.57,104.65h-40a3.38,3.38,0,0,0-3.63,3v.52H74.2v-.52A3.38,3.38,0,0,0,70.57,104.65Z"/><path class="cls-3" d="M70,104.65H66.53a14.65,14.65,0,0,1-1.38.81c-3,1.55-6.77,1.64-10.31,1.69l-18.32.25c-3,0-6.28,0-9-.93a3.12,3.12,0,0,0-.57,1.75H74.2C74.2,106.25,72.3,104.65,70,104.65Z"/><path class="cls-10" d="M33.47,105l9.16,0,12.06,0,4.58,0h2.29a5,5,0,0,1,1.44,0c.83.24-.35.57-.71.58q-11.24.45-22.47,0a48.75,48.75,0,0,0-8.46.12,7.65,7.65,0,0,1-2.07.34c-.75-.22-.07-.61.31-.74A11.94,11.94,0,0,1,33.47,105Z"/><polygon class="cls-4" points="26.92 108.22 27.74 108.67 73.3 108.99 74.2 108.22 26.92 108.22"/><path class="cls-2" d="M70.57,110h-40a3.38,3.38,0,0,0-3.63,3v.52H74.2v-.52A3.38,3.38,0,0,0,70.57,110Z"/><path class="cls-3" d="M70,110H66.53a14.65,14.65,0,0,1-1.38.81c-3,1.55-6.77,1.64-10.31,1.69l-18.32.25c-3,0-6.28,0-9-.93a3.12,3.12,0,0,0-.57,1.75H74.2C74.2,111.6,72.3,110,70,110Z"/><path class="cls-10" d="M33.47,110.39l9.16,0,12.06,0,4.58,0h2.29a5,5,0,0,1,1.44,0c.83.24-.35.57-.71.58q-11.24.45-22.47,0a48.75,48.75,0,0,0-8.46.12,7.65,7.65,0,0,1-2.07.34c-.75-.22-.07-.61.31-.74A11.94,11.94,0,0,1,33.47,110.39Z"/><polygon class="cls-4" points="26.92 113.57 27.74 114.02 73.3 114.34 74.2 113.57 26.92 113.57"/><path class="cls-2" d="M70.57,115.35h-40a3.38,3.38,0,0,0-3.63,3.05v.52H74.2v-.52A3.38,3.38,0,0,0,70.57,115.35Z"/><path class="cls-3" d="M70,115.35H66.53a14.65,14.65,0,0,1-1.38.81c-3,1.54-6.77,1.64-10.31,1.69l-18.32.25c-3,.05-6.28,0-9-.93a3.12,3.12,0,0,0-.57,1.75H74.2C74.2,117,72.3,115.35,70,115.35Z"/><path class="cls-10" d="M33.47,115.74l9.16,0,12.06,0,4.58,0h2.29a5,5,0,0,1,1.44,0c.83.24-.35.57-.71.58q-11.24.45-22.47,0a48.75,48.75,0,0,0-8.46.12,7.65,7.65,0,0,1-2.07.34c-.75-.22-.07-.61.31-.74A11.94,11.94,0,0,1,33.47,115.74Z"/><polygon class="cls-4" points="26.92 118.92 27.74 119.37 73.3 119.69 74.2 118.92 26.92 118.92"/><path class="cls-2" d="M166.69,120.7h-40a3.38,3.38,0,0,0-3.63,3v.52h47.28v-.52A3.38,3.38,0,0,0,166.69,120.7Z"/><path class="cls-3" d="M166.07,120.7h-3.42a14.65,14.65,0,0,1-1.38.81c-3,1.54-6.77,1.64-10.31,1.69l-18.32.25c-3,0-6.28,0-9-.93a3.12,3.12,0,0,0-.57,1.75h47.28C170.32,122.3,168.42,120.7,166.07,120.7Z"/><path class="cls-10" d="M129.59,121.09l9.16,0,12.06,0,4.58,0h2.29a5,5,0,0,1,1.44,0c.83.24-.35.57-.71.58q-11.24.45-22.47,0a48.75,48.75,0,0,0-8.46.12,7.65,7.65,0,0,1-2.07.34c-.75-.22-.07-.61.31-.74A11.9,11.9,0,0,1,129.59,121.09Z"/><polygon class="cls-4" points="123.04 124.27 123.86 124.72 169.42 125.04 170.32 124.27 123.04 124.27"/><path class="cls-2" d="M166.69,88.61h-40a3.38,3.38,0,0,0-3.63,3v.52h47.28v-.52A3.37,3.37,0,0,0,166.69,88.61Z"/><path class="cls-3" d="M166.07,88.61h-3.42c-.45.28-.9.56-1.38.8-3,1.55-6.77,1.64-10.31,1.69l-18.32.26c-3,0-6.28,0-9-.94a3.12,3.12,0,0,0-.57,1.75h47.28C170.32,90.2,168.42,88.61,166.07,88.61Z"/><path class="cls-10" d="M129.59,89l9.16,0,12.06,0,4.58,0h2.29a5,5,0,0,1,1.44,0c.83.24-.35.57-.71.58q-11.24.45-22.47,0a48.75,48.75,0,0,0-8.46.12,7.65,7.65,0,0,1-2.07.34c-.75-.22-.07-.61.31-.74A11.9,11.9,0,0,1,129.59,89Z"/><polygon class="cls-4" points="123.04 92.17 123.86 92.62 169.42 92.94 170.32 92.17 123.04 92.17"/><path class="cls-2" d="M166.69,94h-40A3.38,3.38,0,0,0,123,97v.52h47.28V97A3.37,3.37,0,0,0,166.69,94Z"/><path class="cls-3" d="M166.07,94h-3.42c-.45.28-.9.56-1.38.8-3,1.55-6.77,1.64-10.31,1.69l-18.32.26c-3,0-6.28,0-9-.94a3.12,3.12,0,0,0-.57,1.75h47.28C170.32,95.55,168.42,94,166.07,94Z"/><path class="cls-10" d="M129.59,94.34l9.16,0,12.06,0,4.58,0h2.29a5,5,0,0,1,1.44,0c.83.24-.35.57-.71.58q-11.24.45-22.47,0a48.75,48.75,0,0,0-8.46.12,7.65,7.65,0,0,1-2.07.34c-.75-.22-.07-.61.31-.74A11.9,11.9,0,0,1,129.59,94.34Z"/><polygon class="cls-4" points="123.04 97.52 123.86 97.97 169.42 98.29 170.32 97.52 123.04 97.52"/><path class="cls-2" d="M166.69,99.31h-40a3.38,3.38,0,0,0-3.63,3v.52h47.28v-.52A3.37,3.37,0,0,0,166.69,99.31Z"/><path class="cls-3" d="M166.07,99.31h-3.42c-.45.28-.9.56-1.38.8-3,1.55-6.77,1.64-10.31,1.69l-18.32.26c-3,0-6.28,0-9-.94a3.12,3.12,0,0,0-.57,1.75h47.28C170.32,100.9,168.42,99.31,166.07,99.31Z"/><path class="cls-10" d="M129.59,99.69l9.16,0,12.06,0,4.58,0h2.29a5,5,0,0,1,1.44,0c.83.24-.35.57-.71.58q-11.24.45-22.47,0a48.75,48.75,0,0,0-8.46.12,7.65,7.65,0,0,1-2.07.34c-.75-.22-.07-.61.31-.74A11.9,11.9,0,0,1,129.59,99.69Z"/><polygon class="cls-4" points="123.04 102.87 123.86 103.32 169.42 103.64 170.32 102.87 123.04 102.87"/><path class="cls-2" d="M166.69,104.65h-40a3.38,3.38,0,0,0-3.63,3v.52h47.28v-.52A3.38,3.38,0,0,0,166.69,104.65Z"/><path class="cls-3" d="M166.07,104.65h-3.42a14.65,14.65,0,0,1-1.38.81c-3,1.55-6.77,1.64-10.31,1.69l-18.32.25c-3,0-6.28,0-9-.93a3.12,3.12,0,0,0-.57,1.75h47.28C170.32,106.25,168.42,104.65,166.07,104.65Z"/><path class="cls-10" d="M129.59,105l9.16,0,12.06,0,4.58,0h2.29a5,5,0,0,1,1.44,0c.83.24-.35.57-.71.58q-11.24.45-22.47,0a48.75,48.75,0,0,0-8.46.12,7.65,7.65,0,0,1-2.07.34c-.75-.22-.07-.61.31-.74A11.9,11.9,0,0,1,129.59,105Z"/><polygon class="cls-4" points="123.04 108.22 123.86 108.67 169.42 108.99 170.32 108.22 123.04 108.22"/><path class="cls-2" d="M166.69,110h-40a3.38,3.38,0,0,0-3.63,3v.52h47.28v-.52A3.38,3.38,0,0,0,166.69,110Z"/><path class="cls-3" d="M166.07,110h-3.42a14.65,14.65,0,0,1-1.38.81c-3,1.55-6.77,1.64-10.31,1.69l-18.32.25c-3,0-6.28,0-9-.93a3.12,3.12,0,0,0-.57,1.75h47.28C170.32,111.6,168.42,110,166.07,110Z"/><path class="cls-10" d="M129.59,110.39l9.16,0,12.06,0,4.58,0h2.29a5,5,0,0,1,1.44,0c.83.24-.35.57-.71.58q-11.24.45-22.47,0a48.75,48.75,0,0,0-8.46.12,7.65,7.65,0,0,1-2.07.34c-.75-.22-.07-.61.31-.74A11.9,11.9,0,0,1,129.59,110.39Z"/><polygon class="cls-4" points="123.04 113.57 123.86 114.02 169.42 114.34 170.32 113.57 123.04 113.57"/><path class="cls-2" d="M166.69,115.35h-40A3.38,3.38,0,0,0,123,118.4v.52h47.28v-.52A3.38,3.38,0,0,0,166.69,115.35Z"/><path class="cls-3" d="M166.07,115.35h-3.42a14.65,14.65,0,0,1-1.38.81c-3,1.54-6.77,1.64-10.31,1.69l-18.32.25c-3,.05-6.28,0-9-.93a3.12,3.12,0,0,0-.57,1.75h47.28C170.32,117,168.42,115.35,166.07,115.35Z"/><path class="cls-10" d="M129.59,115.74l9.16,0,12.06,0,4.58,0h2.29a5,5,0,0,1,1.44,0c.83.24-.35.57-.71.58q-11.24.45-22.47,0a48.75,48.75,0,0,0-8.46.12,7.65,7.65,0,0,1-2.07.34c-.75-.22-.07-.61.31-.74A11.9,11.9,0,0,1,129.59,115.74Z"/><polygon class="cls-4" points="123.04 118.92 123.86 119.37 169.42 119.69 170.32 118.92 123.04 118.92"/><rect class="cls-2" x="77.29" y="143.39" width="42.77" height="22.7"/><g class="cls-5"><path class="cls-11" d="M117.53,164H79.81V145.51h37.72Zm-36.71-.85h35.71V146.35H80.82Z"/></g><ellipse class="cls-12" cx="78.8" cy="144.66" rx="0.74" ry="0.62"/><path class="cls-12" d="M79.54,164.82a.75.75,0,1,1-.74-.62A.69.69,0,0,1,79.54,164.82Z"/><path class="cls-12" d="M119.28,144.66a.75.75,0,1,1-.74-.62A.69.69,0,0,1,119.28,144.66Z"/><path class="cls-12" d="M119.28,164.82a.75.75,0,1,1-.74-.62A.69.69,0,0,1,119.28,164.82Z"/><polygon class="cls-12" points="98.22 147.89 95.95 155.63 100.3 155.63 98.13 162.03 103.58 153.89 98.32 153.89 101.8 147.89 98.22 147.89"/><path class="cls-3" d="M114.58,144.63c.64,4.93-2.35,9.89-6.89,13.08s-10.44,4.76-16.33,5.3a74.33,74.33,0,0,1-14.07-.09v3.17h42.77v-22.7h-5.67C114.45,143.8,114.52,144.22,114.58,144.63Z"/><path class="cls-13" d="M78.06,162c-.13-.27,0-18,0-18h35.75Z"/><path class="cls-4" d="M77.29,166.09l.77.86,43,.27V144.31s-.71-1-1-.92,0,22.7,0,22.7Z"/><polygon class="cls-2" points="193.48 70.76 98.67 70.76 3.86 70.76 0 78.65 98.67 78.65 197.35 78.65 193.48 70.76"/><path class="cls-3" d="M0,78.65H197.35l-3.87-7.89h-35.1c-12.16,4.93-26.47,5.58-40.14,5.83q-18.39.34-36.78.15-32.29-.34-64.53-2.22Q9.7,74.1,2.48,73.6Z"/><path class="cls-10" d="M4.89,71.63H152.26S38.52,77,4.89,71.63Z"/><rect class="cls-2" x="34.84" y="237.96" width="23.57" height="12.1"/><polygon class="cls-14" points="29.31 250.06 29.31 256.33 32.53 256.33 32.53 252.86 60.74 252.86 60.74 256.33 63.96 256.33 63.96 250.06 29.31 250.06"/><path class="cls-3" d="M58.42,238H55.94v.18a8.48,8.48,0,0,1-2.61,6.49C50.9,247,47.05,248,43.35,248c-3,0-5.67-.73-8.51-1.2v3.26H58.42Z"/><path class="cls-3" d="M58.42,238H34.84v1.44c.51-.08,1-.17,1.53-.23,1.39-.18,2.8-.29,4.2-.38,1.62-.1,3.24-.15,4.85-.2,4.4-.15,9-.24,13,1.19Z"/><path class="cls-3" d="M58.94,252.05c-8.07-.59-16.19-.41-24.29-.25-1.12,0-2.41.12-3,.91s-.23,1.89-.89,2.63a1.75,1.75,0,0,1-1.43.5v.49h3.22v-3.47H60.74S60.38,252.15,58.94,252.05Z"/><path class="cls-3" d="M64,250.06h-.61a10.22,10.22,0,0,1-.44,3.76,3.33,3.33,0,0,1-.52,1.05,1.81,1.81,0,0,1-1.06.66,1.12,1.12,0,0,1-.59-.05v.85H64Z"/><rect class="cls-2" x="139.01" y="237.96" width="23.57" height="12.1"/><polygon class="cls-14" points="133.47 250.06 133.47 256.33 136.69 256.33 136.69 252.86 164.9 252.86 164.9 256.33 168.12 256.33 168.12 250.06 133.47 250.06"/><path class="cls-3" d="M162.58,238H160.1c0,.06,0,.12,0,.18a8.49,8.49,0,0,1-2.62,6.49c-2.43,2.33-6.28,3.35-10,3.37-3,0-5.68-.73-8.51-1.2v3.26h23.57Z"/><path class="cls-3" d="M162.58,238H139v1.44c.51-.08,1-.17,1.52-.23,1.4-.18,2.8-.29,4.21-.38,1.61-.1,3.23-.15,4.85-.2,4.39-.15,9-.24,13,1.19Z"/><path class="cls-3" d="M163.1,252.05c-8.07-.59-16.19-.41-24.29-.25-1.11,0-2.41.12-3,.91s-.24,1.89-.89,2.63a1.77,1.77,0,0,1-1.43.5s0,.49,0,.49h3.22v-3.47H164.9S164.54,252.15,163.1,252.05Z"/><path class="cls-3" d="M168.12,250.06h-.61a10,10,0,0,1-.44,3.76,3.3,3.3,0,0,1-.51,1.05,1.87,1.87,0,0,1-1.07.66,1.12,1.12,0,0,1-.59-.05v.85h3.22Z"/><path class="cls-15" d="M57.91,52.15v-36H44.32V52.15c0,7.83-2.09,8.69-2.09,8.69H60S57.91,60,57.91,52.15Z"/><path class="cls-15" d="M57.91,52.15v-36H44.32V52.15c0,7.83-2.09,8.69-2.09,8.69H60S57.91,60,57.91,52.15Z"/><path class="cls-16" d="M60,60.84s-2.09-.86-2.09-8.69v-36H53.14c0,.23,0,.47,0,.69.88,10.62.1,21.31-.92,31.91-.24,2.5-.56,5.17-2.2,7.08a6.24,6.24,0,0,1-6.22,1.84c-.62,2.81-1.61,3.22-1.61,3.22H60Z"/><rect class="cls-17" x="39.81" y="65.56" width="22.61" height="4.97"/><path class="cls-18" d="M57.91,46.86a8,8,0,0,0-1.14-.46,20.31,20.31,0,0,0-5.43-.79,16.5,16.5,0,0,0-4.44.28A7.62,7.62,0,0,0,44.32,47v3.25c.58-.08,1.16-.18,1.74-.25A30.29,30.29,0,0,1,51,49.8a17.71,17.71,0,0,1,6.9,1.7Z"/><path class="cls-15" d="M51.12,43.64c-8.52,0-12.38,3.57-12.38,3.57v2H63.49v-2S59.63,43.64,51.12,43.64Z"/><path class="cls-16" d="M54.88,47.44a19.37,19.37,0,0,1-5.27.43l-4.47,0-4,0c-.81,0-1.64-.11-2.45-.13v1.56H63.49v-2a13.48,13.48,0,0,0-4.73-2.44A6.73,6.73,0,0,1,54.88,47.44Z"/><path class="cls-19" d="M56.91,44.82l.27,0a24.06,24.06,0,0,0-17.67,2.18C45.14,45,51,43.72,56.91,44.82Z"/><path class="cls-18" d="M57.91,38.35a8,8,0,0,0-1.14-.46,20.31,20.31,0,0,0-5.43-.79,16.5,16.5,0,0,0-4.44.28,7.8,7.8,0,0,0-2.58,1.11v3.26c.58-.08,1.16-.18,1.74-.25A30.29,30.29,0,0,1,51,41.29a17.71,17.71,0,0,1,6.9,1.7Z"/><path class="cls-15" d="M51.12,35.12c-8.52,0-12.38,3.58-12.38,3.58v2H63.49v-2S59.63,35.12,51.12,35.12Z"/><path class="cls-16" d="M54.88,38.92a19,19,0,0,1-5.27.44l-4.47,0-4,0c-.81,0-1.64-.1-2.45-.12V40.7H63.49v-2a13.58,13.58,0,0,0-4.73-2.45A6.64,6.64,0,0,1,54.88,38.92Z"/><path class="cls-19" d="M56.91,36.3l.27.06a24,24,0,0,0-17.67,2.18C45.14,36.45,51,35.21,56.91,36.3Z"/><path class="cls-18" d="M57.91,29.84a9.42,9.42,0,0,0-1.14-.47,20.31,20.31,0,0,0-5.43-.79,16.92,16.92,0,0,0-4.44.29A7.8,7.8,0,0,0,44.32,30v3.26c.58-.09,1.16-.19,1.74-.25A29.21,29.21,0,0,1,51,32.78a17.7,17.7,0,0,1,6.9,1.69Z"/><path class="cls-15" d="M51.12,26.61c-8.52,0-12.38,3.58-12.38,3.58v2H63.49v-2S59.63,26.61,51.12,26.61Z"/><path class="cls-16" d="M54.88,30.41a19.38,19.38,0,0,1-5.27.44l-4.47-.05-4,0c-.81,0-1.64-.1-2.45-.13v1.56H63.49v-2a13.58,13.58,0,0,0-4.73-2.45A6.68,6.68,0,0,1,54.88,30.41Z"/><path class="cls-19" d="M56.91,27.79l.27.05A24.06,24.06,0,0,0,39.51,30C45.14,27.94,51,26.7,56.91,27.79Z"/><path class="cls-18" d="M57.91,21.32a9.36,9.36,0,0,0-1.14-.46,20.31,20.31,0,0,0-5.43-.79,16.91,16.91,0,0,0-4.44.28,7.82,7.82,0,0,0-2.58,1.12v3.26c.58-.09,1.16-.19,1.74-.26a30.28,30.28,0,0,1,4.95-.2A17.52,17.52,0,0,1,57.91,26Z"/><path class="cls-15" d="M51.12,18.1c-8.52,0-12.38,3.58-12.38,3.58v2H63.49v-2S59.63,18.1,51.12,18.1Z"/><path class="cls-16" d="M54.88,21.9a19.37,19.37,0,0,1-5.27.43l-4.47,0-4,0c-.81,0-1.64-.11-2.45-.13v1.56H63.49v-2a13.58,13.58,0,0,0-4.73-2.45A6.68,6.68,0,0,1,54.88,21.9Z"/><path class="cls-19" d="M56.91,19.28l.27,0a24.06,24.06,0,0,0-17.67,2.18C45.14,19.43,51,18.18,56.91,19.28Z"/><path class="cls-20" d="M56.34,12.8H45.89c-1.86,0-1.57,3.3-1.57,3.3H57.91S58.2,12.8,56.34,12.8Z"/><path class="cls-20" d="M53,8V0H49.26V8c0,4.58-2.87,4.79-2.87,4.79h9.45S53,12.59,53,8Z"/><path class="cls-21" d="M62.42,65.56H59.35a7.13,7.13,0,0,1-.58.75c-1.28,1.4-3.27,1.86-5.14,2.16-1.65.26-3.32.45-5,.55a40.13,40.13,0,0,1-8.76-.4,17.33,17.33,0,0,0-.07,1.91H62.42Z"/><path class="cls-15" d="M62.42,65.56H39.81V63.11a2.27,2.27,0,0,1,2.27-2.27H60.15a2.27,2.27,0,0,1,2.27,2.27Z"/><path class="cls-16" d="M60,60.84h-.86a10.71,10.71,0,0,1-.79,1.26,5,5,0,0,1-2.8,1.69,15.15,15.15,0,0,1-3.3.33c-4.17.11-8.41.19-12.44-.82v2.26H62.42v-2.3A2.42,2.42,0,0,0,60,60.84Z"/><path class="cls-19" d="M41.82,61.5a7.22,7.22,0,0,1,1.79-.25c2.28-.11,4.57-.14,6.85-.12,1.15,0,2.31,0,3.46,0l1.69,0c.3,0,1.24-.14,1.42.18s-.36.47-.56.53a3.22,3.22,0,0,1-1,.1l-10.21-.18a7.4,7.4,0,0,0-3.77.59,1.83,1.83,0,0,1-.53.25c-.58.12-.51-.28-.2-.57A2.67,2.67,0,0,1,41.82,61.5Z"/><path class="cls-22" d="M56.34,12.8h-1a2.72,2.72,0,0,1,0,.28,2,2,0,0,1-1.14,1.58,5,5,0,0,1-2,.46,23.62,23.62,0,0,1-2.79.05,26.92,26.92,0,0,1-4.9-.62l-.16-.05a6.71,6.71,0,0,0-.08,1.6H57.91S58.2,12.8,56.34,12.8Z"/><path class="cls-23" d="M46.27,13.17a23.68,23.68,0,0,1,2.8-.09l4.4,0c.16,0,.37,0,.41.18a.25.25,0,0,1-.14.29.84.84,0,0,1-.35.07c-2.11,0-4.23,0-6.34,0a2.87,2.87,0,0,0-1.24.15,1.1,1.1,0,0,1-.41.16c-.43,0-.26-.36,0-.51A2.05,2.05,0,0,1,46.27,13.17Z"/><path class="cls-22" d="M51.12,12.8h4.72S53,12.59,53,8V0H51.72c0,.15,0,.3,0,.45,0,2.66.08,5.32-.1,8A4.63,4.63,0,0,1,50.86,11a2.51,2.51,0,0,1-2.55.8l-.15,0a2.91,2.91,0,0,1-1.77,1Z"/><path class="cls-23" d="M51.41.21c-.66,0-1.31,0-2,0q.15,3.51.08,7a10.44,10.44,0,0,1-.58,3.81,11.11,11.11,0,0,0,1-5.39c0-1.7,0-3.41-.12-5.12A8.38,8.38,0,0,1,51.41.21Z"/><path class="cls-15" d="M106.58,52.15v-36H93V52.15c0,7.83-2.09,8.69-2.09,8.69h17.77S106.58,60,106.58,52.15Z"/><path class="cls-15" d="M106.58,52.15v-36H93V52.15c0,7.83-2.09,8.69-2.09,8.69h17.77S106.58,60,106.58,52.15Z"/><path class="cls-16" d="M108.67,60.84s-2.09-.86-2.09-8.69v-36h-4.77c0,.23,0,.47,0,.69.88,10.62.1,21.31-.92,31.91-.24,2.5-.56,5.17-2.2,7.08a6.25,6.25,0,0,1-6.22,1.84c-.62,2.81-1.61,3.22-1.61,3.22h17.77Z"/><rect class="cls-17" x="88.48" y="65.56" width="22.61" height="4.97"/><path class="cls-18" d="M106.58,46.86a8,8,0,0,0-1.14-.46,20.31,20.31,0,0,0-5.43-.79,16.5,16.5,0,0,0-4.44.28A7.62,7.62,0,0,0,93,47v3.25c.58-.08,1.16-.18,1.73-.25a30.46,30.46,0,0,1,5-.21,17.71,17.71,0,0,1,6.9,1.7Z"/><path class="cls-15" d="M99.78,43.64c-8.51,0-12.37,3.57-12.37,3.57v2h24.75v-2S108.3,43.64,99.78,43.64Z"/><path class="cls-16" d="M103.54,47.44a19.27,19.27,0,0,1-5.26.43l-4.48,0-3.94,0c-.81,0-1.64-.11-2.45-.13v1.56h24.75v-2a13.48,13.48,0,0,0-4.73-2.44A6.72,6.72,0,0,1,103.54,47.44Z"/><path class="cls-19" d="M105.58,44.82l.27,0a24.05,24.05,0,0,0-17.67,2.18C93.81,45,99.68,43.72,105.58,44.82Z"/><path class="cls-18" d="M106.58,38.35a8,8,0,0,0-1.14-.46A20.31,20.31,0,0,0,100,37.1a16.5,16.5,0,0,0-4.44.28A7.8,7.8,0,0,0,93,38.49v3.26c.58-.08,1.16-.18,1.73-.25a30.46,30.46,0,0,1,5-.21,17.71,17.71,0,0,1,6.9,1.7Z"/><path class="cls-15" d="M99.78,35.12c-8.51,0-12.37,3.58-12.37,3.58v2h24.75v-2S108.3,35.12,99.78,35.12Z"/><path class="cls-16" d="M103.54,38.92a18.89,18.89,0,0,1-5.26.44l-4.48,0-3.94,0c-.81,0-1.64-.1-2.45-.12V40.7h24.75v-2a13.58,13.58,0,0,0-4.73-2.45A6.63,6.63,0,0,1,103.54,38.92Z"/><path class="cls-19" d="M105.58,36.3l.27.06a24,24,0,0,0-17.67,2.18C93.81,36.45,99.68,35.21,105.58,36.3Z"/><path class="cls-18" d="M106.58,29.84a9.42,9.42,0,0,0-1.14-.47,20.31,20.31,0,0,0-5.43-.79,16.92,16.92,0,0,0-4.44.29A7.8,7.8,0,0,0,93,30v3.26c.58-.09,1.16-.19,1.73-.25a29.37,29.37,0,0,1,5-.21,17.7,17.7,0,0,1,6.9,1.69Z"/><path class="cls-15" d="M99.78,26.61c-8.51,0-12.37,3.58-12.37,3.58v2h24.75v-2S108.3,26.61,99.78,26.61Z"/><path class="cls-16" d="M103.54,30.41a19.27,19.27,0,0,1-5.26.44L93.8,30.8l-3.94,0c-.81,0-1.64-.1-2.45-.13v1.56h24.75v-2a13.58,13.58,0,0,0-4.73-2.45A6.67,6.67,0,0,1,103.54,30.41Z"/><path class="cls-19" d="M105.58,27.79l.27.05A24.05,24.05,0,0,0,88.18,30C93.81,27.94,99.68,26.7,105.58,27.79Z"/><path class="cls-18" d="M106.58,21.32a9.36,9.36,0,0,0-1.14-.46,20.31,20.31,0,0,0-5.43-.79,16.91,16.91,0,0,0-4.44.28A7.82,7.82,0,0,0,93,21.47v3.26c.58-.09,1.16-.19,1.73-.26a30.45,30.45,0,0,1,5-.2,17.52,17.52,0,0,1,6.9,1.69Z"/><path class="cls-15" d="M99.78,18.1c-8.51,0-12.37,3.58-12.37,3.58v2h24.75v-2S108.3,18.1,99.78,18.1Z"/><path class="cls-16" d="M103.54,21.9a19.27,19.27,0,0,1-5.26.43l-4.48,0-3.94,0c-.81,0-1.64-.11-2.45-.13v1.56h24.75v-2a13.58,13.58,0,0,0-4.73-2.45A6.67,6.67,0,0,1,103.54,21.9Z"/><path class="cls-19" d="M105.58,19.28l.27,0a24.05,24.05,0,0,0-17.67,2.18C93.81,19.43,99.68,18.18,105.58,19.28Z"/><path class="cls-20" d="M105,12.8H94.56C92.7,12.8,93,16.1,93,16.1h13.59S106.87,12.8,105,12.8Z"/><path class="cls-20" d="M101.64,8V0H97.92V8c0,4.58-2.86,4.79-2.86,4.79h9.45S101.64,12.59,101.64,8Z"/><path class="cls-21" d="M111.09,65.56H108a8.77,8.77,0,0,1-.58.75c-1.28,1.4-3.27,1.86-5.14,2.16-1.65.26-3.32.45-5,.55a40.13,40.13,0,0,1-8.76-.4,17.33,17.33,0,0,0-.07,1.91h22.61Z"/><path class="cls-15" d="M111.09,65.56H88.48V63.11a2.27,2.27,0,0,1,2.27-2.27h18.07a2.27,2.27,0,0,1,2.27,2.27Z"/><path class="cls-16" d="M108.67,60.84h-.86A10.71,10.71,0,0,1,107,62.1a5,5,0,0,1-2.8,1.69,15.15,15.15,0,0,1-3.3.33c-4.17.11-8.41.19-12.44-.82v2.26h22.61v-2.3A2.42,2.42,0,0,0,108.67,60.84Z"/><path class="cls-19" d="M90.49,61.5a7.22,7.22,0,0,1,1.79-.25c2.28-.11,4.56-.14,6.84-.12,1.16,0,2.32,0,3.47,0l1.69,0c.3,0,1.24-.14,1.42.18s-.36.47-.56.53a3.25,3.25,0,0,1-1,.1L93.9,61.84a7.4,7.4,0,0,0-3.77.59,1.83,1.83,0,0,1-.53.25c-.58.12-.51-.28-.2-.57A2.67,2.67,0,0,1,90.49,61.5Z"/><path class="cls-22" d="M105,12.8h-1a2.72,2.72,0,0,1,0,.28,2,2,0,0,1-1.14,1.58,5,5,0,0,1-2,.46,23.62,23.62,0,0,1-2.79.05,26.81,26.81,0,0,1-4.9-.62l-.16-.05A6.71,6.71,0,0,0,93,16.1h13.59S106.87,12.8,105,12.8Z"/><path class="cls-23" d="M94.93,13.17a23.81,23.81,0,0,1,2.8-.09l4.41,0c.16,0,.37,0,.41.18a.25.25,0,0,1-.14.29.84.84,0,0,1-.35.07c-2.11,0-4.23,0-6.34,0a2.87,2.87,0,0,0-1.24.15,1.1,1.1,0,0,1-.41.16c-.43,0-.26-.36,0-.51A2,2,0,0,1,94.93,13.17Z"/><path class="cls-22" d="M99.78,12.8h4.73s-2.87-.21-2.87-4.79V0h-1.25c0,.15,0,.3,0,.45,0,2.66.08,5.32-.1,8A4.63,4.63,0,0,1,99.53,11a2.51,2.51,0,0,1-2.55.8l-.16,0a2.87,2.87,0,0,1-1.76,1Z"/><path class="cls-23" d="M100.08.21c-.66,0-1.31,0-2,0q.15,3.51.08,7a10.44,10.44,0,0,1-.58,3.81,11.11,11.11,0,0,0,1-5.39c0-1.7,0-3.41-.12-5.12A8.38,8.38,0,0,1,100.08.21Z"/><path class="cls-15" d="M155.25,52.15v-36H141.66V52.15c0,7.83-2.09,8.69-2.09,8.69h17.77S155.25,60,155.25,52.15Z"/><path class="cls-15" d="M155.25,52.15v-36H141.66V52.15c0,7.83-2.09,8.69-2.09,8.69h17.77S155.25,60,155.25,52.15Z"/><path class="cls-16" d="M157.34,60.84s-2.09-.86-2.09-8.69v-36h-4.77c0,.23,0,.47,0,.69.88,10.62.1,21.31-.92,31.91-.24,2.5-.57,5.17-2.2,7.08a6.25,6.25,0,0,1-6.22,1.84c-.62,2.81-1.61,3.22-1.61,3.22h17.77Z"/><rect class="cls-17" x="137.15" y="65.56" width="22.61" height="4.97"/><path class="cls-18" d="M155.25,46.86a8,8,0,0,0-1.14-.46,20.31,20.31,0,0,0-5.43-.79,16.5,16.5,0,0,0-4.44.28A7.62,7.62,0,0,0,141.66,47v3.25c.58-.08,1.15-.18,1.73-.25a30.46,30.46,0,0,1,5-.21,17.71,17.71,0,0,1,6.9,1.7Z"/><path class="cls-15" d="M148.45,43.64c-8.51,0-12.37,3.57-12.37,3.57v2h24.75v-2S157,43.64,148.45,43.64Z"/><path class="cls-16" d="M152.21,47.44a19.27,19.27,0,0,1-5.26.43l-4.48,0-3.94,0c-.81,0-1.64-.11-2.45-.13v1.56h24.75v-2a13.48,13.48,0,0,0-4.73-2.44A6.72,6.72,0,0,1,152.21,47.44Z"/><path class="cls-19" d="M154.25,44.82l.27,0a24.05,24.05,0,0,0-17.67,2.18C142.48,45,148.35,43.72,154.25,44.82Z"/><path class="cls-18" d="M155.25,38.35a8,8,0,0,0-1.14-.46,20.31,20.31,0,0,0-5.43-.79,16.5,16.5,0,0,0-4.44.28,7.8,7.8,0,0,0-2.58,1.11v3.26c.58-.08,1.15-.18,1.73-.25a30.46,30.46,0,0,1,5-.21,17.71,17.71,0,0,1,6.9,1.7Z"/><path class="cls-15" d="M148.45,35.12c-8.51,0-12.37,3.58-12.37,3.58v2h24.75v-2S157,35.12,148.45,35.12Z"/><path class="cls-16" d="M152.21,38.92a18.89,18.89,0,0,1-5.26.44l-4.48,0-3.94,0c-.81,0-1.64-.1-2.45-.12V40.7h24.75v-2a13.58,13.58,0,0,0-4.73-2.45A6.63,6.63,0,0,1,152.21,38.92Z"/><path class="cls-19" d="M154.25,36.3l.27.06a24,24,0,0,0-17.67,2.18C142.48,36.45,148.35,35.21,154.25,36.3Z"/><path class="cls-18" d="M155.25,29.84a9.42,9.42,0,0,0-1.14-.47,20.31,20.31,0,0,0-5.43-.79,16.92,16.92,0,0,0-4.44.29A7.8,7.8,0,0,0,141.66,30v3.26c.58-.09,1.15-.19,1.73-.25a29.37,29.37,0,0,1,5-.21,17.7,17.7,0,0,1,6.9,1.69Z"/><path class="cls-15" d="M148.45,26.61c-8.51,0-12.37,3.58-12.37,3.58v2h24.75v-2S157,26.61,148.45,26.61Z"/><path class="cls-16" d="M152.21,30.41a19.27,19.27,0,0,1-5.26.44l-4.48-.05-3.94,0c-.81,0-1.64-.1-2.45-.13v1.56h24.75v-2a13.58,13.58,0,0,0-4.73-2.45A6.67,6.67,0,0,1,152.21,30.41Z"/><path class="cls-19" d="M154.25,27.79l.27.05A24.05,24.05,0,0,0,136.85,30C142.48,27.94,148.35,26.7,154.25,27.79Z"/><path class="cls-18" d="M155.25,21.32a9.36,9.36,0,0,0-1.14-.46,20.31,20.31,0,0,0-5.43-.79,16.91,16.91,0,0,0-4.44.28,7.82,7.82,0,0,0-2.58,1.12v3.26c.58-.09,1.15-.19,1.73-.26a30.45,30.45,0,0,1,5-.2,17.52,17.52,0,0,1,6.9,1.69Z"/><path class="cls-15" d="M148.45,18.1c-8.51,0-12.37,3.58-12.37,3.58v2h24.75v-2S157,18.1,148.45,18.1Z"/><path class="cls-16" d="M152.21,21.9a19.27,19.27,0,0,1-5.26.43l-4.48,0-3.94,0c-.81,0-1.64-.11-2.45-.13v1.56h24.75v-2a13.58,13.58,0,0,0-4.73-2.45A6.67,6.67,0,0,1,152.21,21.9Z"/><path class="cls-19" d="M154.25,19.28l.27,0a24.05,24.05,0,0,0-17.67,2.18C142.48,19.43,148.35,18.18,154.25,19.28Z"/><path class="cls-20" d="M153.68,12.8H143.23c-1.86,0-1.57,3.3-1.57,3.3h13.59S155.54,12.8,153.68,12.8Z"/><path class="cls-20" d="M150.31,8V0h-3.72V8c0,4.58-2.86,4.79-2.86,4.79h9.45S150.31,12.59,150.31,8Z"/><path class="cls-21" d="M159.76,65.56h-3.07a8.77,8.77,0,0,1-.58.75c-1.28,1.4-3.27,1.86-5.14,2.16-1.65.26-3.32.45-5,.55a40.13,40.13,0,0,1-8.76-.4,17.33,17.33,0,0,0-.07,1.91h22.61Z"/><path class="cls-15" d="M159.76,65.56H137.15V63.11a2.27,2.27,0,0,1,2.27-2.27h18.07a2.27,2.27,0,0,1,2.27,2.27Z"/><path class="cls-16" d="M157.34,60.84h-.86a10.71,10.71,0,0,1-.79,1.26,5,5,0,0,1-2.8,1.69,15.15,15.15,0,0,1-3.3.33c-4.17.11-8.41.19-12.44-.82v2.26h22.61v-2.3A2.42,2.42,0,0,0,157.34,60.84Z"/><path class="cls-19" d="M139.16,61.5a7.22,7.22,0,0,1,1.79-.25c2.28-.11,4.56-.14,6.84-.12,1.16,0,2.32,0,3.47,0l1.69,0c.3,0,1.24-.14,1.42.18s-.36.47-.56.53a3.29,3.29,0,0,1-1,.1l-10.2-.18a7.4,7.4,0,0,0-3.77.59,1.83,1.83,0,0,1-.53.25c-.58.12-.51-.28-.21-.57A2.78,2.78,0,0,1,139.16,61.5Z"/><path class="cls-22" d="M153.68,12.8h-1c0,.1,0,.19,0,.28a2,2,0,0,1-1.14,1.58,5,5,0,0,1-2,.46,23.75,23.75,0,0,1-2.8.05,26.82,26.82,0,0,1-4.89-.62l-.16-.05a6.71,6.71,0,0,0-.08,1.6h13.59S155.54,12.8,153.68,12.8Z"/><path class="cls-23" d="M143.6,13.17a23.81,23.81,0,0,1,2.8-.09l4.41,0c.16,0,.37,0,.41.18a.25.25,0,0,1-.15.29.77.77,0,0,1-.34.07c-2.11,0-4.23,0-6.34,0a2.93,2.93,0,0,0-1.25.15,1,1,0,0,1-.4.16c-.43,0-.26-.36,0-.51A2,2,0,0,1,143.6,13.17Z"/><path class="cls-22" d="M148.45,12.8h4.73s-2.87-.21-2.87-4.79V0h-1.25c0,.15,0,.3,0,.45,0,2.66.08,5.32-.1,8A4.63,4.63,0,0,1,148.2,11a2.51,2.51,0,0,1-2.55.8l-.16,0a2.87,2.87,0,0,1-1.76,1Z"/><path class="cls-23" d="M148.74.21c-.66,0-1.3,0-2,0q.15,3.51.08,7a10.44,10.44,0,0,1-.58,3.81,11.11,11.11,0,0,0,1-5.39c0-1.7,0-3.41-.12-5.12A8.46,8.46,0,0,1,148.74.21Z"/><rect class="cls-9" x="59.67" y="49.07" width="78.01" height="21.67"/></g></g></g></svg>