<svg xmlns="http://www.w3.org/2000/svg" xmlns:xlink="http://www.w3.org/1999/xlink" viewBox="0 0 244.84 178.54"><defs><style>.cls-1{isolation:isolate;}.cls-2{fill:url(#未命名的渐变_318);}.cls-3{fill:url(#未命名的渐变_330);}.cls-4{fill:#676772;}.cls-5{fill:#060606;}.cls-6{fill:url(#未命名的渐变_198);}.cls-7{fill:#fafafa;}.cls-8{fill:#c1c1c1;}.cls-9{mix-blend-mode:multiply;}.cls-10{fill:url(#linear-gradient);}.cls-11{opacity:0.4;mix-blend-mode:screen;}.cls-12{fill:url(#linear-gradient-2);}.cls-13{fill:#fdb36b;}.cls-14{fill:#f9ba85;}.cls-15{fill:url(#未命名的渐变_198-2);}.cls-16{fill:url(#linear-gradient-3);}.cls-17{fill:url(#linear-gradient-4);}.cls-18{fill:url(#未命名的渐变_330-2);}.cls-19{fill:url(#未命名的渐变_330-3);}.cls-20{fill:url(#linear-gradient-5);}.cls-102,.cls-103,.cls-21,.cls-28,.cls-31,.cls-32{mix-blend-mode:color-dodge;}.cls-21{fill:url(#未命名的渐变_294);}.cls-22{fill:url(#未命名的渐变_143);}.cls-23{fill:url(#linear-gradient-6);}.cls-24{fill:url(#linear-gradient-7);}.cls-25{fill:url(#未命名的渐变_315);}.cls-26{fill:url(#未命名的渐变_315-2);}.cls-27{fill:url(#linear-gradient-8);}.cls-28{fill:url(#未命名的渐变_294-2);}.cls-29{fill:url(#未命名的渐变_293);}.cls-30{fill:url(#radial-gradient);}.cls-31{fill:url(#linear-gradient-9);}.cls-32{fill:url(#linear-gradient-10);}.cls-33{fill:#a7a7b4;}.cls-34{fill:#a7a7b3;}.cls-35{fill:#a6a6b3;}.cls-36{fill:#a6a6b2;}.cls-37{fill:#a5a5b2;}.cls-38{fill:#a5a5b1;}.cls-39{fill:#a4a4b0;}.cls-40{fill:#a4a4af;}.cls-41{fill:#a3a3af;}.cls-42{fill:#a3a3ae;}.cls-43{fill:#a2a2ae;}.cls-44{fill:#a2a2ad;}.cls-45{fill:#a1a1ac;}.cls-46{fill:#a1a1ab;}.cls-47{fill:#a0a0ab;}.cls-48{fill:#a0a0aa;}.cls-49{fill:#9f9faa;}.cls-50{fill:#9f9fa9;}.cls-51{fill:#9f9fa8;}.cls-52{fill:#9e9ea8;}.cls-53{fill:#9e9ea7;}.cls-54{fill:#9d9da7;}.cls-55{fill:#9d9da6;}.cls-56{fill:#9d9da5;}.cls-57{fill:#9c9ca5;}.cls-58{fill:#9c9ca4;}.cls-59{fill:#9b9ba4;}.cls-60{fill:#9b9ba3;}.cls-61{fill:#9a9aa2;}.cls-62{fill:#9a9aa1;}.cls-63{fill:#9999a1;}.cls-64{fill:#9999a0;}.cls-65{fill:#9898a0;}.cls-66{fill:#98989f;}.cls-67{fill:#97979e;}.cls-68{fill:#97979d;}.cls-69{fill:#96969d;}.cls-70{fill:#96969c;}.cls-71{fill:#95959c;}.cls-72{fill:#95959b;}.cls-73{fill:#94949a;}.cls-74{fill:#949499;}.cls-75{fill:#939399;}.cls-76{fill:#939398;}.cls-77{fill:#929298;}.cls-78{fill:#929297;}.cls-79{fill:#929296;}.cls-80{fill:#919196;}.cls-81{fill:#919195;}.cls-82{fill:#909095;}.cls-83{fill:#909094;}.cls-84{fill:#909093;}.cls-85{fill:#8f8f93;}.cls-86{fill:#8f8f92;}.cls-87{fill:#8e8e92;}.cls-88{fill:#8e8e91;}.cls-89{fill:#8d8d90;}.cls-90{fill:#8d8d8f;}.cls-91{fill:#8c8c8f;}.cls-92{fill:#8c8c8e;}.cls-93{fill:#8b8b8e;}.cls-94{fill:#8b8b8d;}.cls-95{fill:#8a8a8c;}.cls-96{fill:#8a8a8b;}.cls-97{fill:#89898b;}.cls-98{fill:#89898a;}.cls-99{fill:#88888a;}.cls-100{fill:#888889;}.cls-101{fill:url(#radial-gradient-2);}.cls-102{fill:url(#linear-gradient-11);}.cls-103{fill:url(#linear-gradient-12);}</style><linearGradient id="未命名的渐变_318" x1="282.57" y1="16.66" x2="501.79" y2="53.15" gradientTransform="translate(-267.26 171.6) rotate(-7.27)" gradientUnits="userSpaceOnUse"><stop offset="0" stop-color="#b5b5bf"/><stop offset="0.06" stop-color="#acacb6"/><stop offset="0.18" stop-color="#9f9fa9"/><stop offset="0.3" stop-color="#9b9ba5"/><stop offset="0.67" stop-color="#e4e4e9"/><stop offset="1" stop-color="#898995"/></linearGradient><linearGradient id="未命名的渐变_330" x1="269.59" y1="15.36" x2="506.12" y2="15.36" gradientTransform="translate(-267.26 171.6) rotate(-7.27)" gradientUnits="userSpaceOnUse"><stop offset="0" stop-color="#b5b5bf"/><stop offset="0.07" stop-color="#acacb6"/><stop offset="0.24" stop-color="#9f9fa9"/><stop offset="0.38" stop-color="#9b9ba5"/><stop offset="0.67" stop-color="#9b9ba5"/><stop offset="0.84" stop-color="#e4e4e9"/><stop offset="1" stop-color="#898995"/></linearGradient><linearGradient id="未命名的渐变_198" x1="9.48" y1="118.49" x2="55.07" y2="118.49" gradientUnits="userSpaceOnUse"><stop offset="0" stop-color="#fff"/><stop offset="0.42" stop-color="#b7b7b7"/><stop offset="0.5" stop-color="#b7b7b7"/><stop offset="1" stop-color="#fff"/></linearGradient><linearGradient id="linear-gradient" x1="72.05" y1="-159.89" x2="100.25" y2="-159.89" gradientTransform="matrix(1, -0.02, 0.01, 0.87, -41.27, 258.83)" gradientUnits="userSpaceOnUse"><stop offset="0" stop-color="#fff"/><stop offset="0.5" stop-color="#b7b7b7"/><stop offset="1" stop-color="#fff"/></linearGradient><linearGradient id="linear-gradient-2" x1="51.5" y1="1956.69" x2="63.48" y2="1956.69" gradientTransform="matrix(1, -0.02, 0.11, 7.08, -261.63, -13731.17)" gradientUnits="userSpaceOnUse"><stop offset="0"/><stop offset="0.5" stop-color="#b7b7b7"/><stop offset="1"/></linearGradient><linearGradient id="未命名的渐变_198-2" x1="188.86" y1="95.92" x2="234.45" y2="95.92" xlink:href="#未命名的渐变_198"/><linearGradient id="linear-gradient-3" x1="251.76" y1="-182.45" x2="279.97" y2="-182.45" xlink:href="#linear-gradient"/><linearGradient id="linear-gradient-4" x1="231.21" y1="1953.9" x2="243.2" y2="1953.9" xlink:href="#linear-gradient-2"/><linearGradient id="未命名的渐变_330-2" x1="210.51" y1="51.92" x2="244.84" y2="51.92" gradientTransform="matrix(1, 0, 0, 1, 0, 0)" xlink:href="#未命名的渐变_330"/><linearGradient id="未命名的渐变_330-3" x1="0.74" y1="75.7" x2="41.84" y2="75.7" gradientTransform="matrix(1, 0, 0, 1, 0, 0)" xlink:href="#未命名的渐变_330"/><linearGradient id="linear-gradient-5" x1="199.76" y1="56.83" x2="195.54" y2="26.8" gradientTransform="matrix(1, 0.01, -0.01, 1, 16.15, -16.5)" gradientUnits="userSpaceOnUse"><stop offset="0" stop-color="#b5b5bf"/><stop offset="0.01" stop-color="#afafb9"/><stop offset="0.04" stop-color="#91919d"/><stop offset="0.08" stop-color="#7b7b89"/><stop offset="0.11" stop-color="#6e6e7d"/><stop offset="0.15" stop-color="#6a6a79"/><stop offset="0.3" stop-color="#9b9ba5"/><stop offset="0.41" stop-color="#868694"/><stop offset="0.67" stop-color="#e4e4e9"/><stop offset="1" stop-color="#898995"/></linearGradient><linearGradient id="未命名的渐变_294" x1="199.76" y1="56.83" x2="195.54" y2="26.8" gradientTransform="matrix(1, 0.01, -0.01, 1, 16.15, -16.5)" gradientUnits="userSpaceOnUse"><stop offset="0"/><stop offset="0.28"/><stop offset="0.68" stop-color="#303030"/><stop offset="1"/></linearGradient><linearGradient id="未命名的渐变_143" x1="-561.16" y1="748.37" x2="-585.18" y2="706.78" gradientTransform="matrix(0.92, 0.39, -0.39, 0.92, 934.92, -408)" gradientUnits="userSpaceOnUse"><stop offset="0" stop-color="#afafaf"/><stop offset="0.14" stop-color="#b9b9b9"/><stop offset="0.38" stop-color="#d3d3d3"/><stop offset="0.68" stop-color="#fefefe"/><stop offset="0.76" stop-color="#fafafa"/><stop offset="0.83" stop-color="#efefef"/><stop offset="0.9" stop-color="#ddd"/><stop offset="0.96" stop-color="#c3c3c3"/><stop offset="1" stop-color="#b2b2b2"/></linearGradient><linearGradient id="linear-gradient-6" x1="23.42" y1="89.13" x2="23.42" y2="40.8" xlink:href="#linear-gradient-5"/><linearGradient id="linear-gradient-7" x1="183.33" y1="67.53" x2="183.33" y2="19.2" xlink:href="#linear-gradient-5"/><linearGradient id="未命名的渐变_315" x1="212.05" y1="-178.17" x2="193.96" y2="-180.47" gradientTransform="matrix(1, -0.13, -0.01, 1, 14.14, 254.76)" gradientUnits="userSpaceOnUse"><stop offset="0" stop-color="#9b9ba5"/><stop offset="0.61" stop-color="#b5b5bf"/><stop offset="0.63" stop-color="#b0b0ba"/><stop offset="0.76" stop-color="#9a9aa6"/><stop offset="0.89" stop-color="#8d8d99"/><stop offset="1" stop-color="#898995"/></linearGradient><linearGradient id="未命名的渐变_315-2" x1="27.2" y1="-179.84" x2="9.11" y2="-182.15" xlink:href="#未命名的渐变_315"/><linearGradient id="linear-gradient-8" x1="14.01" y1="80.1" x2="9.8" y2="50.2" xlink:href="#linear-gradient-5"/><linearGradient id="未命名的渐变_294-2" x1="14.01" y1="80.11" x2="9.8" y2="50.2" xlink:href="#未命名的渐变_294"/><radialGradient id="未命名的渐变_293" cx="-79.96" cy="10.07" r="12.25" gradientTransform="matrix(0.97, 0, -0.01, 0.98, 95.32, 40.03)" gradientUnits="userSpaceOnUse"><stop offset="0" stop-color="#e3e3ec"/><stop offset="0.15" stop-color="#ccccd6"/><stop offset="0.49" stop-color="#9c9ca8"/><stop offset="0.75" stop-color="#7e7e8c"/><stop offset="0.89" stop-color="#737381"/></radialGradient><radialGradient id="radial-gradient" cx="34.43" cy="70.82" r="4.71" gradientUnits="userSpaceOnUse"><stop offset="0" stop-color="#e4e4e9"/><stop offset="0.77" stop-color="#6a6a79"/><stop offset="0.83" stop-color="#757583"/><stop offset="0.96" stop-color="#92929d"/><stop offset="1" stop-color="#9f9fa8"/></radialGradient><linearGradient id="linear-gradient-9" x1="36.04" y1="69.53" x2="32.91" y2="72.78" gradientUnits="userSpaceOnUse"><stop offset="0" stop-color="#a9a9b1"/><stop offset="0.07" stop-color="#828288"/><stop offset="0.16" stop-color="#5f5f64"/><stop offset="0.24" stop-color="#424245"/><stop offset="0.34" stop-color="#2a2a2c"/><stop offset="0.45" stop-color="#171718"/><stop offset="0.57" stop-color="#0a0a0a"/><stop offset="0.72" stop-color="#020202"/><stop offset="1"/></linearGradient><linearGradient id="linear-gradient-10" x1="32.29" y1="72.99" x2="35.05" y2="71.24" xlink:href="#linear-gradient-9"/><radialGradient id="radial-gradient-2" cx="219.45" cy="48.77" r="4.71" xlink:href="#radial-gradient"/><linearGradient id="linear-gradient-11" x1="221.06" y1="47.48" x2="217.93" y2="50.73" xlink:href="#linear-gradient-9"/><linearGradient id="linear-gradient-12" x1="217.31" y1="50.94" x2="220.07" y2="49.19" xlink:href="#linear-gradient-9"/></defs><title>高压熔断器</title><g class="cls-1"><g id="图层_2" data-name="图层 2"><g id="图层_1-2" data-name="图层 1"><polygon class="cls-2" points="237.64 149.87 14.16 178.54 14.76 162.67 238.22 134.59 237.64 149.87"/><polygon class="cls-3" points="238.23 134.38 14.75 163.05 0.61 140.92 224.06 112.85 238.23 134.38"/><polygon class="cls-4" points="14.69 162.9 14.1 178.39 0 156.92 0.61 140.98 14.69 162.9"/><rect class="cls-5" x="155.78" y="129.33" width="11.55" height="3.95" rx="1.44" transform="translate(-13.86 19.19) rotate(-6.52)"/><rect class="cls-5" x="74.3" y="139.57" width="11.55" height="3.95" rx="1.44" transform="translate(-15.55 10.01) rotate(-6.52)"/><path class="cls-6" d="M55.07,87.18a12.74,12.74,0,0,0-2.83-7.84H12.31a12.74,12.74,0,0,0-2.83,7.84c0,.32,0,.64.07,1H9.48v57.41h0c.17,6.69,10.3,12.08,22.77,12.08s22.8-5.48,22.8-12.25a6.9,6.9,0,0,0-.23-1.64v-54a5.29,5.29,0,0,1,.07-.8A10.61,10.61,0,0,0,55.07,87.18Z"/><path class="cls-7" d="M31.25,148.85h-.92a57.39,57.39,0,0,1-11.24-1.3,31.84,31.84,0,0,1-7-2.31,13.64,13.64,0,0,1-3.6-2.4,7.67,7.67,0,0,1-2-3.87c-.16-.65-.27-1.3-.38-2a3.15,3.15,0,0,1,.35-2.6,2.84,2.84,0,0,1,4-.32,3.72,3.72,0,0,1,1.07,2.42A4,4,0,0,0,12.79,139a8.39,8.39,0,0,0,2.63,1.51c5.63,2.24,11.88,2.66,17.88,2.52a57,57,0,0,0,10.18-1c2.44-.51,5.3-1.14,7.36-2.63A5.39,5.39,0,0,0,52.9,136a2.77,2.77,0,0,1,5-1.6c1.24,1.56.53,3.51-.11,5.16a9.93,9.93,0,0,1-3.45,4.35,19.2,19.2,0,0,1-5.42,2.59,46.39,46.39,0,0,1-9.26,1.88A78.18,78.18,0,0,1,31.25,148.85Z"/><path class="cls-8" d="M57.77,136.74a9.85,9.85,0,0,1-3.45,4.34,18.67,18.67,0,0,1-5.42,2.59,46.4,46.4,0,0,1-9.26,1.89,78.18,78.18,0,0,1-8.39.43h-.92a56.64,56.64,0,0,1-11.24-1.3,31.82,31.82,0,0,1-7-2.3A14.14,14.14,0,0,1,8.5,140a7.66,7.66,0,0,1-2-3.88c-.1-.43-.18-.86-.25-1.3A3.78,3.78,0,0,0,6.1,137c.11.65.22,1.3.38,2a7.67,7.67,0,0,0,2,3.87,13.64,13.64,0,0,0,3.6,2.4,31.84,31.84,0,0,0,7,2.31,57.39,57.39,0,0,0,11.24,1.3h.92a78.18,78.18,0,0,0,8.39-.44,46.39,46.39,0,0,0,9.26-1.88,19.2,19.2,0,0,0,5.42-2.59,9.93,9.93,0,0,0,3.45-4.35c.54-1.4,1.12-3,.54-4.41C58.16,135.71,58,136.24,57.77,136.74Z"/><path class="cls-7" d="M31.25,143.51h-.92a57.39,57.39,0,0,1-11.24-1.3,31.84,31.84,0,0,1-7-2.31,13.64,13.64,0,0,1-3.6-2.4,7.63,7.63,0,0,1-2-3.87c-.16-.64-.27-1.3-.38-2a3.15,3.15,0,0,1,.35-2.6,2.84,2.84,0,0,1,4-.32,3.75,3.75,0,0,1,1.07,2.42,3.94,3.94,0,0,0,1.25,2.53,8.39,8.39,0,0,0,2.63,1.51c5.63,2.24,11.88,2.67,17.88,2.52a56.14,56.14,0,0,0,10.18-1c2.44-.51,5.3-1.14,7.36-2.63a5.33,5.33,0,0,0,2.06-3.38,2.89,2.89,0,0,1,1-2,2.85,2.85,0,0,1,4,.45c1.24,1.56.53,3.5-.11,5.15a9.82,9.82,0,0,1-3.45,4.35,18.93,18.93,0,0,1-5.42,2.59,45.69,45.69,0,0,1-9.26,1.88A75.68,75.68,0,0,1,31.25,143.51Z"/><path class="cls-8" d="M57.77,131.4a9.85,9.85,0,0,1-3.45,4.34,19,19,0,0,1-5.42,2.6,46.39,46.39,0,0,1-9.26,1.88,78.18,78.18,0,0,1-8.39.44h-.92a57.39,57.39,0,0,1-11.24-1.3,31.84,31.84,0,0,1-7-2.31,13.64,13.64,0,0,1-3.6-2.4,7.67,7.67,0,0,1-2-3.87c-.1-.43-.18-.87-.25-1.31a3.78,3.78,0,0,0-.13,2.21c.11.65.22,1.31.38,2a7.63,7.63,0,0,0,2,3.87,13.64,13.64,0,0,0,3.6,2.4,31.33,31.33,0,0,0,7,2.31,57.39,57.39,0,0,0,11.24,1.3h.92a75.68,75.68,0,0,0,8.39-.44,45.69,45.69,0,0,0,9.26-1.88,18.93,18.93,0,0,0,5.42-2.59,9.82,9.82,0,0,0,3.45-4.35c.54-1.39,1.12-3,.54-4.41C58.16,130.38,58,130.9,57.77,131.4Z"/><path class="cls-7" d="M31.25,138.17h-.92a56.64,56.64,0,0,1-11.24-1.3,31.82,31.82,0,0,1-7-2.3,13.92,13.92,0,0,1-3.6-2.41,7.63,7.63,0,0,1-2-3.87c-.16-.64-.27-1.29-.38-2a3.16,3.16,0,0,1,.35-2.6,2.84,2.84,0,0,1,4-.32,3.75,3.75,0,0,1,1.07,2.42,3.94,3.94,0,0,0,1.25,2.53,8.39,8.39,0,0,0,2.63,1.51c5.63,2.24,11.88,2.67,17.88,2.52a56.14,56.14,0,0,0,10.18-1c2.44-.5,5.3-1.14,7.36-2.63a5.33,5.33,0,0,0,2.06-3.38,2.89,2.89,0,0,1,1-2,2.86,2.86,0,0,1,4,.45c1.24,1.56.53,3.51-.11,5.16a9.85,9.85,0,0,1-3.45,4.34,18.93,18.93,0,0,1-5.42,2.59,45.69,45.69,0,0,1-9.26,1.88A75.68,75.68,0,0,1,31.25,138.17Z"/><path class="cls-8" d="M57.77,126.06a9.82,9.82,0,0,1-3.45,4.35A18.93,18.93,0,0,1,48.9,133a46.39,46.39,0,0,1-9.26,1.88,75.68,75.68,0,0,1-8.39.44h-.92A57.39,57.39,0,0,1,19.09,134a31.84,31.84,0,0,1-7-2.31,13.64,13.64,0,0,1-3.6-2.4,7.63,7.63,0,0,1-2-3.87c-.1-.43-.18-.87-.25-1.31a3.79,3.79,0,0,0-.13,2.21c.11.66.22,1.31.38,2a7.63,7.63,0,0,0,2,3.87,13.92,13.92,0,0,0,3.6,2.41,31.82,31.82,0,0,0,7,2.3,56.64,56.64,0,0,0,11.24,1.3h.92a75.68,75.68,0,0,0,8.39-.44,45.69,45.69,0,0,0,9.26-1.88,18.93,18.93,0,0,0,5.42-2.59,9.85,9.85,0,0,0,3.45-4.34c.54-1.4,1.12-3,.54-4.41C58.16,125,58,125.56,57.77,126.06Z"/><path class="cls-7" d="M31.25,132.83h-.92a56.64,56.64,0,0,1-11.24-1.3,31.82,31.82,0,0,1-7-2.3,14.14,14.14,0,0,1-3.6-2.4,7.66,7.66,0,0,1-2-3.88c-.16-.64-.27-1.29-.38-2a3.16,3.16,0,0,1,.35-2.6,2.86,2.86,0,0,1,4-.32,3.77,3.77,0,0,1,1.07,2.42A3.91,3.91,0,0,0,12.79,123a8.2,8.2,0,0,0,2.63,1.51c5.63,2.24,11.88,2.67,17.88,2.52a57,57,0,0,0,10.18-1c2.44-.51,5.3-1.15,7.36-2.64A5.33,5.33,0,0,0,52.9,120a2.77,2.77,0,0,1,5-1.59c1.24,1.56.53,3.51-.11,5.16a9.85,9.85,0,0,1-3.45,4.34,18.67,18.67,0,0,1-5.42,2.59,46.4,46.4,0,0,1-9.26,1.89A78.18,78.18,0,0,1,31.25,132.83Z"/><path class="cls-8" d="M57.77,120.73a9.85,9.85,0,0,1-3.45,4.34,18.93,18.93,0,0,1-5.42,2.59,45.69,45.69,0,0,1-9.26,1.88,75.68,75.68,0,0,1-8.39.44h-.92a57.39,57.39,0,0,1-11.24-1.3,31.82,31.82,0,0,1-7-2.3A13.92,13.92,0,0,1,8.5,124a7.63,7.63,0,0,1-2-3.87c-.1-.43-.18-.87-.25-1.3A3.75,3.75,0,0,0,6.1,121c.11.66.22,1.31.38,2a7.66,7.66,0,0,0,2,3.88,14.14,14.14,0,0,0,3.6,2.4,31.82,31.82,0,0,0,7,2.3,56.64,56.64,0,0,0,11.24,1.3h.92a78.18,78.18,0,0,0,8.39-.43,46.4,46.4,0,0,0,9.26-1.89,18.67,18.67,0,0,0,5.42-2.59,9.85,9.85,0,0,0,3.45-4.34c.54-1.4,1.12-3,.54-4.41C58.16,119.7,58,120.23,57.77,120.73Z"/><path class="cls-7" d="M31.25,127.5h-.92a57.39,57.39,0,0,1-11.24-1.3,32.38,32.38,0,0,1-7-2.31,13.89,13.89,0,0,1-3.6-2.4,7.67,7.67,0,0,1-2-3.87c-.16-.65-.27-1.3-.38-2a3.15,3.15,0,0,1,.35-2.6,2.85,2.85,0,0,1,4-.33,3.77,3.77,0,0,1,1.07,2.42,4,4,0,0,0,1.25,2.54,8.17,8.17,0,0,0,2.63,1.5c5.63,2.24,11.88,2.67,17.88,2.53a57,57,0,0,0,10.18-1c2.44-.51,5.3-1.14,7.36-2.63a5.39,5.39,0,0,0,2.06-3.38,2.77,2.77,0,0,1,5-1.6c1.24,1.56.53,3.51-.11,5.16a9.85,9.85,0,0,1-3.45,4.34,19,19,0,0,1-5.42,2.6,46.39,46.39,0,0,1-9.26,1.88A80.86,80.86,0,0,1,31.25,127.5Z"/><path class="cls-8" d="M57.77,115.39a9.85,9.85,0,0,1-3.45,4.34,18.67,18.67,0,0,1-5.42,2.59,46.4,46.4,0,0,1-9.26,1.89,78.18,78.18,0,0,1-8.39.43h-.92a56.64,56.64,0,0,1-11.24-1.3,31.82,31.82,0,0,1-7-2.3,14.14,14.14,0,0,1-3.6-2.4,7.66,7.66,0,0,1-2-3.88c-.1-.43-.18-.86-.25-1.3a3.78,3.78,0,0,0-.13,2.21c.11.65.22,1.3.38,2a7.67,7.67,0,0,0,2,3.87,13.89,13.89,0,0,0,3.6,2.4,32.38,32.38,0,0,0,7,2.31,58.16,58.16,0,0,0,11.24,1.3h.92a80.86,80.86,0,0,0,8.39-.44,46.39,46.39,0,0,0,9.26-1.88,19,19,0,0,0,5.42-2.6,9.85,9.85,0,0,0,3.45-4.34c.54-1.4,1.12-3,.54-4.41C58.16,114.36,58,114.89,57.77,115.39Z"/><path class="cls-7" d="M31.25,122.16h-.92a57.39,57.39,0,0,1-11.24-1.3,31.84,31.84,0,0,1-7-2.31,13.64,13.64,0,0,1-3.6-2.4,7.63,7.63,0,0,1-2-3.87c-.16-.64-.27-1.3-.38-2a3.15,3.15,0,0,1,.35-2.6,2.84,2.84,0,0,1,4-.32,3.75,3.75,0,0,1,1.07,2.42,3.94,3.94,0,0,0,1.25,2.53,8.39,8.39,0,0,0,2.63,1.51c5.63,2.24,11.88,2.67,17.88,2.52a56.14,56.14,0,0,0,10.18-1c2.44-.51,5.3-1.14,7.36-2.63a5.33,5.33,0,0,0,2.06-3.38,2.76,2.76,0,0,1,5-1.59c1.24,1.56.53,3.5-.11,5.15a9.82,9.82,0,0,1-3.45,4.35,18.93,18.93,0,0,1-5.42,2.59,46.39,46.39,0,0,1-9.26,1.88A75.68,75.68,0,0,1,31.25,122.16Z"/><path class="cls-8" d="M57.77,110.05a9.85,9.85,0,0,1-3.45,4.34A19,19,0,0,1,48.9,117a46.39,46.39,0,0,1-9.26,1.88,78.18,78.18,0,0,1-8.39.43h-.92A58.16,58.16,0,0,1,19.09,118a32.38,32.38,0,0,1-7-2.31,14.14,14.14,0,0,1-3.6-2.4,7.67,7.67,0,0,1-2-3.87c-.1-.43-.18-.87-.25-1.31a3.78,3.78,0,0,0-.13,2.21c.11.65.22,1.31.38,2a7.63,7.63,0,0,0,2,3.87,13.64,13.64,0,0,0,3.6,2.4,31.84,31.84,0,0,0,7,2.31,57.39,57.39,0,0,0,11.24,1.3h.92a75.68,75.68,0,0,0,8.39-.44,46.39,46.39,0,0,0,9.26-1.88,18.93,18.93,0,0,0,5.42-2.59,9.82,9.82,0,0,0,3.45-4.35c.54-1.39,1.12-3,.54-4.41C58.16,109,58,109.55,57.77,110.05Z"/><path class="cls-7" d="M31.25,116.82h-.92a57.39,57.39,0,0,1-11.24-1.3,31.33,31.33,0,0,1-7-2.31,13.64,13.64,0,0,1-3.6-2.4,7.63,7.63,0,0,1-2-3.87c-.16-.64-.27-1.3-.38-2a3.16,3.16,0,0,1,.35-2.6,2.84,2.84,0,0,1,4-.32,3.75,3.75,0,0,1,1.07,2.42A3.94,3.94,0,0,0,12.79,107a8.39,8.39,0,0,0,2.63,1.51c5.63,2.24,11.88,2.67,17.88,2.52a56.14,56.14,0,0,0,10.18-1c2.44-.51,5.3-1.14,7.36-2.63A5.33,5.33,0,0,0,52.9,104a2.89,2.89,0,0,1,1-2,2.86,2.86,0,0,1,4,.45c1.24,1.56.53,3.5-.11,5.15a9.82,9.82,0,0,1-3.45,4.35,18.93,18.93,0,0,1-5.42,2.59,45.69,45.69,0,0,1-9.26,1.88A75.68,75.68,0,0,1,31.25,116.82Z"/><path class="cls-8" d="M57.77,104.71a9.82,9.82,0,0,1-3.45,4.35,18.93,18.93,0,0,1-5.42,2.59,46.39,46.39,0,0,1-9.26,1.88,75.68,75.68,0,0,1-8.39.44h-.92a57.39,57.39,0,0,1-11.24-1.3,31.84,31.84,0,0,1-7-2.31A13.64,13.64,0,0,1,8.5,108a7.63,7.63,0,0,1-2-3.87c-.1-.43-.18-.87-.25-1.31A3.79,3.79,0,0,0,6.1,105c.11.65.22,1.31.38,2a7.63,7.63,0,0,0,2,3.87,13.64,13.64,0,0,0,3.6,2.4,31.33,31.33,0,0,0,7,2.31,57.39,57.39,0,0,0,11.24,1.3h.92a75.68,75.68,0,0,0,8.39-.44,45.69,45.69,0,0,0,9.26-1.88,18.93,18.93,0,0,0,5.42-2.59,9.82,9.82,0,0,0,3.45-4.35c.54-1.39,1.12-3,.54-4.41C58.16,103.69,58,104.21,57.77,104.71Z"/><path class="cls-7" d="M31.25,111.48h-.92a56.64,56.64,0,0,1-11.24-1.3,31.82,31.82,0,0,1-7-2.3,14.14,14.14,0,0,1-3.6-2.4,7.66,7.66,0,0,1-2-3.88c-.16-.64-.27-1.29-.38-2A3.16,3.16,0,0,1,6.45,97a2.86,2.86,0,0,1,4-.32,3.75,3.75,0,0,1,1.07,2.42,3.91,3.91,0,0,0,1.25,2.53,8.2,8.2,0,0,0,2.63,1.51c5.63,2.24,11.88,2.67,17.88,2.52a57,57,0,0,0,10.18-1c2.44-.51,5.3-1.15,7.36-2.64a5.33,5.33,0,0,0,2.06-3.38,2.77,2.77,0,0,1,5-1.59c1.24,1.56.53,3.51-.11,5.16a9.85,9.85,0,0,1-3.45,4.34,18.67,18.67,0,0,1-5.42,2.59,46.4,46.4,0,0,1-9.26,1.89A78.18,78.18,0,0,1,31.25,111.48Z"/><path class="cls-8" d="M57.77,99.37a9.82,9.82,0,0,1-3.45,4.35,18.93,18.93,0,0,1-5.42,2.59,45.69,45.69,0,0,1-9.26,1.88,75.68,75.68,0,0,1-8.39.44h-.92a57.39,57.39,0,0,1-11.24-1.3,31.33,31.33,0,0,1-7-2.31,13.64,13.64,0,0,1-3.6-2.4,7.63,7.63,0,0,1-2-3.87c-.1-.43-.18-.87-.25-1.3a3.75,3.75,0,0,0-.13,2.2c.11.66.22,1.31.38,2a7.66,7.66,0,0,0,2,3.88,14.14,14.14,0,0,0,3.6,2.4,31.82,31.82,0,0,0,7,2.3,56.64,56.64,0,0,0,11.24,1.3h.92a78.18,78.18,0,0,0,8.39-.43,46.4,46.4,0,0,0,9.26-1.89,18.67,18.67,0,0,0,5.42-2.59,9.85,9.85,0,0,0,3.45-4.34c.54-1.4,1.12-3,.54-4.41C58.16,98.35,58,98.88,57.77,99.37Z"/><path class="cls-7" d="M31.25,106h-.92a57.39,57.39,0,0,1-11.24-1.3,31.84,31.84,0,0,1-7-2.31A13.64,13.64,0,0,1,8.5,100a7.63,7.63,0,0,1-2-3.87c-.16-.64-.27-1.3-.38-2a3.15,3.15,0,0,1,.35-2.6,2.84,2.84,0,0,1,4-.32,3.75,3.75,0,0,1,1.07,2.42,3.94,3.94,0,0,0,1.25,2.53,8.39,8.39,0,0,0,2.63,1.51c5.63,2.24,11.88,2.67,17.88,2.52a56.14,56.14,0,0,0,10.18-1c2.44-.51,5.3-1.14,7.36-2.63a5.33,5.33,0,0,0,2.06-3.38,2.76,2.76,0,0,1,5-1.59c1.24,1.56.53,3.5-.11,5.15a9.82,9.82,0,0,1-3.45,4.35,18.93,18.93,0,0,1-5.42,2.59,46.39,46.39,0,0,1-9.26,1.88A75.68,75.68,0,0,1,31.25,106Z"/><path class="cls-8" d="M57.77,93.92a9.85,9.85,0,0,1-3.45,4.34,19,19,0,0,1-5.42,2.6,46.39,46.39,0,0,1-9.26,1.88,80.86,80.86,0,0,1-8.39.44h-.92a58.16,58.16,0,0,1-11.24-1.3,32.38,32.38,0,0,1-7-2.31,13.89,13.89,0,0,1-3.6-2.4,7.67,7.67,0,0,1-2-3.87c-.1-.43-.18-.87-.25-1.31a3.78,3.78,0,0,0-.13,2.21c.11.65.22,1.31.38,2a7.63,7.63,0,0,0,2,3.87,13.64,13.64,0,0,0,3.6,2.4,31.84,31.84,0,0,0,7,2.31A57.39,57.39,0,0,0,30.33,106h.92a75.68,75.68,0,0,0,8.39-.44,46.39,46.39,0,0,0,9.26-1.88,18.93,18.93,0,0,0,5.42-2.59,9.82,9.82,0,0,0,3.45-4.35c.54-1.39,1.12-3,.54-4.41C58.16,92.9,58,93.42,57.77,93.92Z"/><path class="cls-7" d="M31.25,100.69h-.92a57.39,57.39,0,0,1-11.24-1.3,31.82,31.82,0,0,1-7-2.3,13.92,13.92,0,0,1-3.6-2.41,7.63,7.63,0,0,1-2-3.87c-.16-.64-.27-1.3-.38-2a3.16,3.16,0,0,1,.35-2.6,2.84,2.84,0,0,1,4-.32,3.75,3.75,0,0,1,1.07,2.42,3.94,3.94,0,0,0,1.25,2.53,8.39,8.39,0,0,0,2.63,1.51c5.63,2.24,11.88,2.67,17.88,2.52a56.14,56.14,0,0,0,10.18-1c2.44-.51,5.3-1.14,7.36-2.63a5.33,5.33,0,0,0,2.06-3.38,2.89,2.89,0,0,1,1-2,2.86,2.86,0,0,1,4,.45c1.24,1.56.53,3.51-.11,5.16a9.85,9.85,0,0,1-3.45,4.34,18.93,18.93,0,0,1-5.42,2.59,45.69,45.69,0,0,1-9.26,1.88A75.68,75.68,0,0,1,31.25,100.69Z"/><path class="cls-8" d="M57.77,88.58a9.82,9.82,0,0,1-3.45,4.35,18.93,18.93,0,0,1-5.42,2.59,46.39,46.39,0,0,1-9.26,1.88,75.68,75.68,0,0,1-8.39.44h-.92a57.39,57.39,0,0,1-11.24-1.3,31.84,31.84,0,0,1-7-2.31,13.64,13.64,0,0,1-3.6-2.4,7.63,7.63,0,0,1-2-3.87c-.1-.43-.18-.87-.25-1.31a3.79,3.79,0,0,0-.13,2.21c.11.65.22,1.31.38,2a7.63,7.63,0,0,0,2,3.87,13.64,13.64,0,0,0,3.6,2.4,31.33,31.33,0,0,0,7,2.31,57.39,57.39,0,0,0,11.24,1.3h.92a75.68,75.68,0,0,0,8.39-.44,45.69,45.69,0,0,0,9.26-1.88,18.93,18.93,0,0,0,5.42-2.59,9.85,9.85,0,0,0,3.45-4.34c.54-1.4,1.12-3,.54-4.41C58.16,87.56,58,88.08,57.77,88.58Z"/><g class="cls-9"><path class="cls-10" d="M29.25,147.73a6.1,6.1,0,0,0,2.37.45,40,40,0,0,0,7.34.16A39.53,39.53,0,0,0,50,146a20.56,20.56,0,0,0,4.39-2.22,10.34,10.34,0,0,1,1.83-1.05c0-2.36,0-4.74,0-7.11V95.29c0-.22.15-.58.15-.79a41.7,41.7,0,0,0-.88-7.76s-1.68.29-1.94,1.16-.86,2.52-.93,2.61a5.28,5.28,0,0,1-1.15,1.26,8.3,8.3,0,0,1-1.68.93,33.87,33.87,0,0,1-11.06,2.38c-.76,0-9.6.3-9.6.23l0,3.14s-.09,2.16-.05,4.26v33.5c0,3.61-.21,7.27,0,10.87,0,.12-.06.34,0,.45A.79.79,0,0,0,29.25,147.73Z"/></g><g class="cls-11"><path class="cls-12" d="M7.78,102.46l.52,33.11c.76,5.66-.22,7.63,1.09,8.48a22.16,22.16,0,0,0,7.83,3.08l2.07.42c.07,0,1.13.2,1.13.24,0-.41,0-3.88,0-4.28l-.05-3.34-.08-5-.1-6.12-.11-6.8-.12-7-.11-6.7-.09-5.93-.11-6.34a2.93,2.93,0,0,0-2.3-2.66,19.36,19.36,0,0,1-2.28-.84,11.39,11.39,0,0,1-3.77-2.7c-1-1.06-1.84-2.2-2.89-3.22-.43.2-.42.89-.46,1.26s-.06,1-.07,1.49c0,1.36,0,2.72,0,4.08,0,1.52.06,3,0,4.56,0,.73,0,1.46,0,2.19S7.77,101.8,7.78,102.46Z"/></g><rect class="cls-13" x="11.57" y="76.57" width="1.06" height="2.45" rx="0.29"/><rect class="cls-13" x="51.91" y="76.57" width="1.06" height="2.45" rx="0.29"/><ellipse class="cls-14" cx="32.27" cy="76.91" rx="20.7" ry="6.84"/><path class="cls-13" d="M32.27,83.75c-10.57,0-19.28-2.62-20.53-6a2.41,2.41,0,0,0-.17.83c0,3.78,9.27,6.84,20.7,6.84S53,82.36,53,78.58a2.41,2.41,0,0,0-.17-.83C51.56,81.13,42.85,83.75,32.27,83.75Z"/><path class="cls-15" d="M234.45,64.61a12.71,12.71,0,0,0-2.83-7.83H191.69a12.71,12.71,0,0,0-2.83,7.83c0,.33,0,.64.07,1h-.07V123h0c.17,6.69,10.3,12.08,22.77,12.08s22.8-5.49,22.8-12.26a7,7,0,0,0-.23-1.64v-54a5.29,5.29,0,0,1,.07-.8A10.52,10.52,0,0,0,234.45,64.61Z"/><path class="cls-7" d="M210.63,126.28h-.92a56.64,56.64,0,0,1-11.24-1.3,31.82,31.82,0,0,1-7-2.3,13.92,13.92,0,0,1-3.6-2.41,7.59,7.59,0,0,1-2-3.87c-.16-.64-.27-1.29-.38-2a3.16,3.16,0,0,1,.35-2.6,2.85,2.85,0,0,1,4-.32,3.75,3.75,0,0,1,1.07,2.42,3.94,3.94,0,0,0,1.25,2.53A8.5,8.5,0,0,0,194.8,118c5.63,2.24,11.88,2.67,17.88,2.52a56.14,56.14,0,0,0,10.18-1c2.44-.5,5.3-1.14,7.36-2.63a5.29,5.29,0,0,0,2.06-3.38,2.89,2.89,0,0,1,1-2,2.86,2.86,0,0,1,4,.45c1.25,1.56.53,3.51-.11,5.16a9.85,9.85,0,0,1-3.45,4.34,18.93,18.93,0,0,1-5.42,2.59,45.74,45.74,0,0,1-9.25,1.88A76,76,0,0,1,210.63,126.28Z"/><path class="cls-8" d="M237.15,114.17a9.82,9.82,0,0,1-3.45,4.35,18.93,18.93,0,0,1-5.42,2.59A45.74,45.74,0,0,1,219,123a76,76,0,0,1-8.4.44h-.92a57.39,57.39,0,0,1-11.24-1.3,31.33,31.33,0,0,1-7-2.31,13.64,13.64,0,0,1-3.6-2.4,7.63,7.63,0,0,1-2-3.87c-.1-.43-.17-.87-.25-1.3a3.75,3.75,0,0,0-.13,2.2c.11.66.22,1.31.38,2a7.59,7.59,0,0,0,2,3.87,13.92,13.92,0,0,0,3.6,2.41,31.82,31.82,0,0,0,7,2.3,56.64,56.64,0,0,0,11.24,1.3h.92a76,76,0,0,0,8.4-.44,45.74,45.74,0,0,0,9.25-1.88,18.93,18.93,0,0,0,5.42-2.59,9.85,9.85,0,0,0,3.45-4.34c.54-1.4,1.12-3,.54-4.41C237.54,113.15,237.34,113.68,237.15,114.17Z"/><path class="cls-7" d="M210.63,120.94h-.92a56.64,56.64,0,0,1-11.24-1.3,31.82,31.82,0,0,1-7-2.3,14.14,14.14,0,0,1-3.6-2.4,7.67,7.67,0,0,1-2-3.87c-.16-.65-.27-1.3-.38-2a3.16,3.16,0,0,1,.35-2.6,2.86,2.86,0,0,1,4-.32,3.77,3.77,0,0,1,1.07,2.42,3.91,3.91,0,0,0,1.25,2.53,8.31,8.31,0,0,0,2.63,1.51c5.63,2.24,11.88,2.67,17.88,2.52a57,57,0,0,0,10.18-1c2.44-.51,5.3-1.15,7.36-2.64a5.29,5.29,0,0,0,2.06-3.38,2.77,2.77,0,0,1,5-1.59c1.25,1.56.53,3.51-.11,5.16A9.85,9.85,0,0,1,233.7,116a18.67,18.67,0,0,1-5.42,2.59,46.45,46.45,0,0,1-9.25,1.89A78.5,78.5,0,0,1,210.63,120.94Z"/><path class="cls-8" d="M237.15,108.84a9.85,9.85,0,0,1-3.45,4.34,18.93,18.93,0,0,1-5.42,2.59,45.74,45.74,0,0,1-9.25,1.88,76,76,0,0,1-8.4.44h-.92a56.64,56.64,0,0,1-11.24-1.3,31.82,31.82,0,0,1-7-2.3,13.92,13.92,0,0,1-3.6-2.41,7.63,7.63,0,0,1-2-3.87c-.1-.43-.17-.87-.25-1.3a3.75,3.75,0,0,0-.13,2.2c.11.66.22,1.31.38,2a7.66,7.66,0,0,0,2,3.88,14.14,14.14,0,0,0,3.6,2.4,31.82,31.82,0,0,0,7,2.3,56.64,56.64,0,0,0,11.24,1.3h.92a78.5,78.5,0,0,0,8.4-.43,46.45,46.45,0,0,0,9.25-1.89A18.67,18.67,0,0,0,233.7,116a9.85,9.85,0,0,0,3.45-4.34c.54-1.4,1.12-3,.54-4.41C237.54,107.81,237.34,108.34,237.15,108.84Z"/><path class="cls-7" d="M210.63,115.61h-.92a57.39,57.39,0,0,1-11.24-1.3,31.84,31.84,0,0,1-7-2.31,13.64,13.64,0,0,1-3.6-2.4,7.67,7.67,0,0,1-2-3.87c-.16-.65-.27-1.3-.38-2a3.15,3.15,0,0,1,.35-2.6,2.84,2.84,0,0,1,4-.32,3.72,3.72,0,0,1,1.07,2.42,4,4,0,0,0,1.25,2.53,8.28,8.28,0,0,0,2.63,1.5c5.63,2.25,11.88,2.67,17.88,2.53a57,57,0,0,0,10.18-1c2.44-.51,5.3-1.14,7.36-2.63a5.34,5.34,0,0,0,2.06-3.38,2.77,2.77,0,0,1,5-1.6c1.25,1.56.53,3.51-.11,5.16a9.85,9.85,0,0,1-3.45,4.34,19,19,0,0,1-5.42,2.6,46.43,46.43,0,0,1-9.25,1.88A78.51,78.51,0,0,1,210.63,115.61Z"/><path class="cls-8" d="M237.15,103.5a9.85,9.85,0,0,1-3.45,4.34,18.67,18.67,0,0,1-5.42,2.59,46.45,46.45,0,0,1-9.25,1.89,78.5,78.5,0,0,1-8.4.43h-.92a56.64,56.64,0,0,1-11.24-1.3,31.82,31.82,0,0,1-7-2.3,14.14,14.14,0,0,1-3.6-2.4,7.66,7.66,0,0,1-2-3.88c-.1-.43-.17-.86-.25-1.3a3.78,3.78,0,0,0-.13,2.21c.11.65.22,1.3.38,2a7.67,7.67,0,0,0,2,3.87,13.64,13.64,0,0,0,3.6,2.4,31.84,31.84,0,0,0,7,2.31,57.39,57.39,0,0,0,11.24,1.3h.92a78.51,78.51,0,0,0,8.4-.44,46.43,46.43,0,0,0,9.25-1.88,19,19,0,0,0,5.42-2.6,9.85,9.85,0,0,0,3.45-4.34c.54-1.4,1.12-3,.54-4.41C237.54,102.47,237.34,103,237.15,103.5Z"/><path class="cls-7" d="M210.63,110.27h-.92a57.39,57.39,0,0,1-11.24-1.3,31.84,31.84,0,0,1-7-2.31,13.64,13.64,0,0,1-3.6-2.4,7.63,7.63,0,0,1-2-3.87c-.16-.64-.27-1.3-.38-1.95a3.15,3.15,0,0,1,.35-2.6,2.84,2.84,0,0,1,4-.32,3.75,3.75,0,0,1,1.07,2.42,3.94,3.94,0,0,0,1.25,2.53A8.5,8.5,0,0,0,194.8,102c5.63,2.24,11.88,2.67,17.88,2.52a56.14,56.14,0,0,0,10.18-1c2.44-.51,5.3-1.14,7.36-2.63a5.29,5.29,0,0,0,2.06-3.38,2.76,2.76,0,0,1,5-1.59c1.25,1.56.53,3.5-.11,5.15a9.82,9.82,0,0,1-3.45,4.35,18.93,18.93,0,0,1-5.42,2.59,46.43,46.43,0,0,1-9.25,1.88A76,76,0,0,1,210.63,110.27Z"/><path class="cls-8" d="M237.15,98.16a9.85,9.85,0,0,1-3.45,4.34,19,19,0,0,1-5.42,2.6A46.43,46.43,0,0,1,219,107a81.2,81.2,0,0,1-8.4.44h-.92a58.16,58.16,0,0,1-11.24-1.3,32.38,32.38,0,0,1-7-2.31,13.89,13.89,0,0,1-3.6-2.4,7.67,7.67,0,0,1-2-3.87c-.1-.43-.17-.87-.25-1.31a3.78,3.78,0,0,0-.13,2.21c.11.65.22,1.31.38,1.95a7.63,7.63,0,0,0,2,3.87,13.64,13.64,0,0,0,3.6,2.4,31.84,31.84,0,0,0,7,2.31,57.39,57.39,0,0,0,11.24,1.3h.92a76,76,0,0,0,8.4-.44,46.43,46.43,0,0,0,9.25-1.88,18.93,18.93,0,0,0,5.42-2.59,9.82,9.82,0,0,0,3.45-4.35c.54-1.39,1.12-3,.54-4.41C237.54,97.14,237.34,97.66,237.15,98.16Z"/><path class="cls-7" d="M210.63,104.93h-.92a56.64,56.64,0,0,1-11.24-1.3,31.82,31.82,0,0,1-7-2.3,13.92,13.92,0,0,1-3.6-2.41,7.63,7.63,0,0,1-2-3.87c-.16-.64-.27-1.3-.38-2a3.16,3.16,0,0,1,.35-2.6,2.84,2.84,0,0,1,4-.32,3.75,3.75,0,0,1,1.07,2.42,3.94,3.94,0,0,0,1.25,2.53,8.5,8.5,0,0,0,2.63,1.51c5.63,2.24,11.88,2.67,17.88,2.52a56.14,56.14,0,0,0,10.18-1c2.44-.51,5.3-1.14,7.36-2.63a5.29,5.29,0,0,0,2.06-3.38,2.89,2.89,0,0,1,1-2,2.86,2.86,0,0,1,4,.45c1.25,1.56.53,3.51-.11,5.16A9.85,9.85,0,0,1,233.7,100a18.93,18.93,0,0,1-5.42,2.59,45.74,45.74,0,0,1-9.25,1.88A76,76,0,0,1,210.63,104.93Z"/><path class="cls-8" d="M237.15,92.82a9.82,9.82,0,0,1-3.45,4.35,18.93,18.93,0,0,1-5.42,2.59,46.43,46.43,0,0,1-9.25,1.88,76,76,0,0,1-8.4.44h-.92a57.39,57.39,0,0,1-11.24-1.3,31.84,31.84,0,0,1-7-2.31,13.64,13.64,0,0,1-3.6-2.4,7.63,7.63,0,0,1-2-3.87c-.1-.43-.17-.87-.25-1.31a3.79,3.79,0,0,0-.13,2.21c.11.65.22,1.31.38,2a7.63,7.63,0,0,0,2,3.87,13.92,13.92,0,0,0,3.6,2.41,31.82,31.82,0,0,0,7,2.3,57.39,57.39,0,0,0,11.24,1.3h.92a76,76,0,0,0,8.4-.44,45.74,45.74,0,0,0,9.25-1.88A18.93,18.93,0,0,0,233.7,100a9.85,9.85,0,0,0,3.45-4.34c.54-1.4,1.12-3,.54-4.41C237.54,91.8,237.34,92.32,237.15,92.82Z"/><path class="cls-7" d="M210.63,99.59h-.92a56.64,56.64,0,0,1-11.24-1.3,31.82,31.82,0,0,1-7-2.3,14.14,14.14,0,0,1-3.6-2.4,7.66,7.66,0,0,1-2-3.88c-.16-.64-.27-1.29-.38-2a3.16,3.16,0,0,1,.35-2.6,2.86,2.86,0,0,1,4-.32,3.75,3.75,0,0,1,1.07,2.42,3.91,3.91,0,0,0,1.25,2.53,8.31,8.31,0,0,0,2.63,1.51c5.63,2.24,11.88,2.67,17.88,2.52a57,57,0,0,0,10.18-1c2.44-.51,5.3-1.15,7.36-2.64a5.29,5.29,0,0,0,2.06-3.38,2.77,2.77,0,0,1,5-1.59c1.25,1.56.53,3.51-.11,5.16a9.85,9.85,0,0,1-3.45,4.34,18.67,18.67,0,0,1-5.42,2.59A46.45,46.45,0,0,1,219,99.16,78.5,78.5,0,0,1,210.63,99.59Z"/><path class="cls-8" d="M237.15,87.48a9.82,9.82,0,0,1-3.45,4.35,18.93,18.93,0,0,1-5.42,2.59A45.74,45.74,0,0,1,219,96.3a76,76,0,0,1-8.4.44h-.92a57.39,57.39,0,0,1-11.24-1.3,31.33,31.33,0,0,1-7-2.31,13.64,13.64,0,0,1-3.6-2.4,7.63,7.63,0,0,1-2-3.87c-.1-.43-.17-.87-.25-1.3a3.75,3.75,0,0,0-.13,2.2c.11.66.22,1.31.38,2a7.66,7.66,0,0,0,2,3.88,14.14,14.14,0,0,0,3.6,2.4,31.82,31.82,0,0,0,7,2.3,56.64,56.64,0,0,0,11.24,1.3h.92a78.5,78.5,0,0,0,8.4-.43,46.45,46.45,0,0,0,9.25-1.89,18.67,18.67,0,0,0,5.42-2.59,9.85,9.85,0,0,0,3.45-4.34c.54-1.4,1.12-3,.54-4.41C237.54,86.46,237.34,87,237.15,87.48Z"/><path class="cls-7" d="M210.63,94.25h-.92A58.16,58.16,0,0,1,198.47,93a32.38,32.38,0,0,1-7-2.31,14.14,14.14,0,0,1-3.6-2.4,7.67,7.67,0,0,1-2-3.87c-.16-.65-.27-1.3-.38-2a3.15,3.15,0,0,1,.35-2.6,2.85,2.85,0,0,1,4-.33,3.77,3.77,0,0,1,1.07,2.42,4,4,0,0,0,1.25,2.54A8.28,8.28,0,0,0,194.8,86c5.63,2.24,11.88,2.67,17.88,2.53a57,57,0,0,0,10.18-1c2.44-.51,5.3-1.14,7.36-2.64a5.3,5.3,0,0,0,2.06-3.37,2.77,2.77,0,0,1,5-1.6c1.25,1.56.53,3.51-.11,5.16a9.85,9.85,0,0,1-3.45,4.34,19,19,0,0,1-5.42,2.6A46.43,46.43,0,0,1,219,93.82,78.5,78.5,0,0,1,210.63,94.25Z"/><path class="cls-8" d="M237.15,82.15a9.85,9.85,0,0,1-3.45,4.34,18.67,18.67,0,0,1-5.42,2.59A46.45,46.45,0,0,1,219,91a78.5,78.5,0,0,1-8.4.43h-.92a56.64,56.64,0,0,1-11.24-1.3,31.82,31.82,0,0,1-7-2.3,14.14,14.14,0,0,1-3.6-2.4,7.66,7.66,0,0,1-2-3.88c-.1-.43-.17-.86-.25-1.3a3.78,3.78,0,0,0-.13,2.21c.11.65.22,1.3.38,2a7.67,7.67,0,0,0,2,3.87,14.14,14.14,0,0,0,3.6,2.4,32.38,32.38,0,0,0,7,2.31,58.16,58.16,0,0,0,11.24,1.3h.92a78.5,78.5,0,0,0,8.4-.43,47.15,47.15,0,0,0,9.25-1.88,19,19,0,0,0,5.42-2.6A9.85,9.85,0,0,0,237.15,85c.54-1.4,1.12-3,.54-4.41C237.54,81.12,237.34,81.65,237.15,82.15Z"/><path class="cls-7" d="M210.63,88.92h-.92a57.39,57.39,0,0,1-11.24-1.3,31.84,31.84,0,0,1-7-2.31,13.64,13.64,0,0,1-3.6-2.4,7.63,7.63,0,0,1-2-3.87c-.16-.64-.27-1.3-.38-2a3.15,3.15,0,0,1,.35-2.6,2.84,2.84,0,0,1,4-.32,3.72,3.72,0,0,1,1.07,2.42,3.94,3.94,0,0,0,1.25,2.53,8.5,8.5,0,0,0,2.63,1.51c5.63,2.24,11.88,2.67,17.88,2.52a57,57,0,0,0,10.18-1c2.44-.51,5.3-1.14,7.36-2.63a5.29,5.29,0,0,0,2.06-3.38,2.77,2.77,0,0,1,5-1.6c1.25,1.57.53,3.51-.11,5.16A9.82,9.82,0,0,1,233.7,84a18.93,18.93,0,0,1-5.42,2.59A46.43,46.43,0,0,1,219,88.48,76,76,0,0,1,210.63,88.92Z"/><path class="cls-8" d="M237.15,76.81a9.85,9.85,0,0,1-3.45,4.34,18.67,18.67,0,0,1-5.42,2.59A46.45,46.45,0,0,1,219,85.63a78.5,78.5,0,0,1-8.4.43h-.92a58.16,58.16,0,0,1-11.24-1.3,32.38,32.38,0,0,1-7-2.31,14.14,14.14,0,0,1-3.6-2.4,7.67,7.67,0,0,1-2-3.87c-.1-.43-.17-.87-.25-1.31a3.78,3.78,0,0,0-.13,2.21c.11.65.22,1.31.38,2a7.63,7.63,0,0,0,2,3.87,13.64,13.64,0,0,0,3.6,2.4,31.84,31.84,0,0,0,7,2.31,57.39,57.39,0,0,0,11.24,1.3h.92a76,76,0,0,0,8.4-.44,46.43,46.43,0,0,0,9.25-1.88A18.93,18.93,0,0,0,233.7,84a9.82,9.82,0,0,0,3.45-4.35c.54-1.39,1.12-3,.54-4.41C237.54,75.79,237.34,76.31,237.15,76.81Z"/><path class="cls-7" d="M210.63,83.46h-.92a56.64,56.64,0,0,1-11.24-1.3,31.82,31.82,0,0,1-7-2.3,14.14,14.14,0,0,1-3.6-2.4,7.66,7.66,0,0,1-2-3.88c-.16-.64-.27-1.29-.38-1.95a3.16,3.16,0,0,1,.35-2.6,2.86,2.86,0,0,1,4-.32,3.75,3.75,0,0,1,1.07,2.42,3.91,3.91,0,0,0,1.25,2.53,8.31,8.31,0,0,0,2.63,1.51c5.63,2.24,11.88,2.67,17.88,2.52a57,57,0,0,0,10.18-1c2.44-.51,5.3-1.15,7.36-2.64a5.29,5.29,0,0,0,2.06-3.38,2.77,2.77,0,0,1,5-1.59c1.25,1.56.53,3.51-.11,5.16a9.85,9.85,0,0,1-3.45,4.34,18.67,18.67,0,0,1-5.42,2.59A46.45,46.45,0,0,1,219,83,78.5,78.5,0,0,1,210.63,83.46Z"/><path class="cls-8" d="M237.15,71.35a9.82,9.82,0,0,1-3.45,4.35,18.93,18.93,0,0,1-5.42,2.59A45.74,45.74,0,0,1,219,80.17a76,76,0,0,1-8.4.44h-.92a57.39,57.39,0,0,1-11.24-1.3,31.33,31.33,0,0,1-7-2.31,13.64,13.64,0,0,1-3.6-2.4,7.63,7.63,0,0,1-2-3.87c-.1-.43-.17-.87-.25-1.3a3.75,3.75,0,0,0-.13,2.2c.11.66.22,1.31.38,1.95a7.66,7.66,0,0,0,2,3.88,14.14,14.14,0,0,0,3.6,2.4,31.82,31.82,0,0,0,7,2.3,56.64,56.64,0,0,0,11.24,1.3h.92A78.5,78.5,0,0,0,219,83a46.45,46.45,0,0,0,9.25-1.89,18.67,18.67,0,0,0,5.42-2.59,9.85,9.85,0,0,0,3.45-4.34c.54-1.4,1.12-3,.54-4.41C237.54,70.33,237.34,70.86,237.15,71.35Z"/><path class="cls-7" d="M210.63,78.13h-.92a58.16,58.16,0,0,1-11.24-1.3,32.38,32.38,0,0,1-7-2.31,13.89,13.89,0,0,1-3.6-2.4,7.67,7.67,0,0,1-2-3.87c-.16-.65-.27-1.3-.38-1.95a3.15,3.15,0,0,1,.35-2.6,2.85,2.85,0,0,1,4-.33,3.77,3.77,0,0,1,1.07,2.42,4,4,0,0,0,1.25,2.54,8.28,8.28,0,0,0,2.63,1.5c5.63,2.24,11.88,2.67,17.88,2.53a57,57,0,0,0,10.18-1c2.44-.51,5.3-1.14,7.36-2.64a5.3,5.3,0,0,0,2.06-3.37,2.77,2.77,0,0,1,5-1.6c1.25,1.56.53,3.51-.11,5.16a9.85,9.85,0,0,1-3.45,4.34,19,19,0,0,1-5.42,2.6A46.43,46.43,0,0,1,219,77.69,81.2,81.2,0,0,1,210.63,78.13Z"/><path class="cls-8" d="M237.15,66a9.85,9.85,0,0,1-3.45,4.34A18.67,18.67,0,0,1,228.28,73,46.45,46.45,0,0,1,219,74.84a78.5,78.5,0,0,1-8.4.43h-.92A56.64,56.64,0,0,1,198.47,74a31.82,31.82,0,0,1-7-2.3,14.14,14.14,0,0,1-3.6-2.4,7.66,7.66,0,0,1-2-3.88c-.1-.43-.17-.86-.25-1.3a3.78,3.78,0,0,0-.13,2.21c.11.65.22,1.3.38,1.95a7.67,7.67,0,0,0,2,3.87,13.89,13.89,0,0,0,3.6,2.4,32.38,32.38,0,0,0,7,2.31,58.16,58.16,0,0,0,11.24,1.3h.92a81.2,81.2,0,0,0,8.4-.44,46.43,46.43,0,0,0,9.25-1.88,19,19,0,0,0,5.42-2.6,9.85,9.85,0,0,0,3.45-4.34c.54-1.4,1.12-3,.54-4.41C237.54,65,237.34,65.52,237.15,66Z"/><g class="cls-9"><path class="cls-16" d="M208.63,125.16a5.92,5.92,0,0,0,2.37.45,40.4,40.4,0,0,0,18.41-2.17,20.59,20.59,0,0,0,4.39-2.23,10.7,10.7,0,0,1,1.84-1c-.06-2.35,0-4.74,0-7.1V72.72c0-.22.15-.57.15-.79a41.91,41.91,0,0,0-.88-7.76s-1.68.3-1.94,1.16c-.31,1-.86,2.52-.93,2.62a5.48,5.48,0,0,1-1.15,1.26,9,9,0,0,1-1.67.93,34,34,0,0,1-11.07,2.37c-.76,0-9.6.31-9.6.23l0,3.15s-.09,2.15,0,4.26v33.5c0,3.6-.21,7.26,0,10.87,0,.11-.06.34,0,.44A.55.55,0,0,0,208.63,125.16Z"/></g><g class="cls-11"><path class="cls-17" d="M187.16,79.89l.52,33.12c.76,5.65-.22,7.63,1.09,8.48a22.62,22.62,0,0,0,7.83,3.08l2.07.42c.07,0,1.13.2,1.13.23,0-.4,0-3.87,0-4.28l0-3.34-.08-5-.1-6.13-.11-6.8-.12-7-.11-6.7-.09-5.93-.1-6.35a3,3,0,0,0-2.3-2.65,17.37,17.37,0,0,1-2.29-.85,11.46,11.46,0,0,1-3.77-2.69c-1-1.07-1.83-2.21-2.89-3.22-.43.19-.42.89-.46,1.26s-.06,1-.07,1.49c0,1.35,0,2.71,0,4.07,0,1.52.06,3,.05,4.56,0,.73,0,1.46-.05,2.19S187.15,79.23,187.16,79.89Z"/></g><rect class="cls-13" x="190.95" y="54" width="1.06" height="2.45" rx="0.29"/><rect class="cls-13" x="231.29" y="54" width="1.06" height="2.45" rx="0.29"/><ellipse class="cls-14" cx="211.65" cy="54.34" rx="20.7" ry="6.84"/><path class="cls-13" d="M211.65,61.19c-10.57,0-19.28-2.63-20.53-6A2.42,2.42,0,0,0,191,56c0,3.77,9.27,6.84,20.7,6.84s20.71-3.07,20.71-6.84a2.42,2.42,0,0,0-.17-.84C230.94,58.56,222.23,61.19,211.65,61.19Z"/><polygon class="cls-18" points="210.51 58.45 244.84 54.08 238.86 45.38 210.51 48.89 210.51 58.45"/><polygon class="cls-19" points="41.84 68.49 0.74 73.63 6.7 82.92 41.84 78.42 41.84 68.49"/><path class="cls-20" d="M227.29,24.32c-1.59-7.49-5.92-13-10-13.18l0,0-.18,0a4.28,4.28,0,0,0-.94.09l-.08,0-4.08.43-13.53,1.81,3.14,16.12-.1,13.64,2.7-.33,0,.13,18.35-2.19s0,0,0-.06C226.9,39.75,229,32.42,227.29,24.32Z"/><path class="cls-21" d="M227.29,24.32c-1.6-7.5-5.94-13-10.07-13.18v0h-.11a4.74,4.74,0,0,0-1,.09l-.08,0-4.08.43-13.53,1.81,3.14,16.12-.1,13.68,2.71-.33v.09l18.35-2.19s0,0,0-.06C226.9,39.75,229,32.42,227.29,24.32Z"/><path class="cls-4" d="M38.74,31.27c6.47,8.59,8.29,23.54,4.08,33.37S30,75.5,23.48,66.9s-8.3-23.53-4.09-33.38S32.26,22.67,38.74,31.27Z"/><path class="cls-22" d="M203,10.55c-3.25-4.33-7.06-6.22-10.58-5.78L33.82,24.66c3.52-.44,7.33,1.45,10.59,5.78C50.88,39,52.71,54,48.49,63.81c-2.09,4.89-5.28,7.6-8.75,8L198.3,52c3.47-.43,6.66-3.15,8.76-8C211.27,34.09,209.44,19.15,203,10.55Z"/><path class="cls-23" d="M25.89,25.81c3.52-.44,7.33,1.45,10.59,5.78C43,40.18,44.78,55.13,40.57,65c-1.87,4.35-4.6,7-7.62,7.8l8.44-1.06c3.47-.43,6.66-3.15,8.76-8,4.21-9.83,2.39-24.77-4.09-33.37C42.81,26,39,24.07,35.48,24.51"/><path class="cls-24" d="M186,5.39c3.52-.44,7.33,1.45,10.59,5.78,6.47,8.59,8.29,23.54,4.08,33.37-1.86,4.35-4.59,7-7.61,7.8l8.44-1.06c3.47-.43,6.66-3.15,8.76-8,4.21-9.83,2.38-24.77-4.09-33.37-3.26-4.33-7.07-6.22-10.58-5.78"/><polygon class="cls-25" points="226.75 56.85 210.47 58.56 210.59 42.3 226.87 40.59 226.75 56.85"/><polygon class="cls-26" points="41.73 78.73 25.45 80.43 25.57 64.17 41.85 62.47 41.73 78.73"/><path class="cls-27" d="M33.57,37c-2.4-3.24-4.54-4.26-6.44-3.24L16.78,35l3.11,16-.1,13.77,2.72-.33h0l8.32-1c1.93.1,3.64-1.68,5.16-5.23C38.68,52,37.6,42.46,33.57,37Z"/><path class="cls-28" d="M33.57,37c-2.4-3.24-4.54-4.26-6.44-3.24L16.78,35l3.11,16-.11,13.77,2.73-.33h0l8.32-1c1.93.1,3.64-1.68,5.16-5.23C38.68,52,37.6,42.46,33.57,37Z"/><path class="cls-29" d="M21.75,38.45c4,5.44,5.1,14.95,2.41,21.23s-6,7-10,1.6S9.05,46.34,11.74,40.05,17.72,33,21.75,38.45Z"/><g id="_5" data-name="5"><path class="cls-30" d="M36.64,72.11a3,3,0,1,1-3-3A3,3,0,0,1,36.64,72.11Z"/><circle class="cls-31" cx="33.79" cy="71.86" r="2.64"/><polygon class="cls-32" points="32.67 73.75 31.76 72.17 32.67 70.6 34.49 70.6 35.39 72.17 34.49 73.75 32.67 73.75"/><polygon class="cls-33" points="32.74 73.68 31.84 72.11 32.74 70.54 34.56 70.54 35.47 72.11 34.56 73.68 32.74 73.68"/><polygon class="cls-33" points="32.75 73.68 31.84 72.11 32.75 70.54 34.56 70.54 35.46 72.11 34.56 73.68 32.75 73.68"/><polygon class="cls-33" points="32.75 73.67 31.84 72.11 32.75 70.55 34.55 70.55 35.46 72.11 34.55 73.67 32.75 73.67"/><polygon class="cls-34" points="32.75 73.67 31.85 72.11 32.75 70.55 34.55 70.55 35.45 72.11 34.55 73.67 32.75 73.67"/><polygon class="cls-35" points="32.75 73.67 31.86 72.11 32.75 70.55 34.55 70.55 35.45 72.11 34.55 73.67 32.75 73.67"/><polygon class="cls-35" points="32.76 73.66 31.86 72.11 32.76 70.56 34.55 70.56 35.44 72.11 34.55 73.66 32.76 73.66"/><polygon class="cls-35" points="32.76 73.66 31.86 72.11 32.76 70.56 34.54 70.56 35.44 72.11 34.54 73.66 32.76 73.66"/><polygon class="cls-35" points="32.76 73.65 31.87 72.11 32.76 70.57 34.54 70.57 35.43 72.11 34.54 73.65 32.76 73.65"/><polygon class="cls-36" points="32.76 73.65 31.87 72.11 32.76 70.57 34.54 70.57 35.43 72.11 34.54 73.65 32.76 73.65"/><polygon class="cls-36" points="32.77 73.64 31.88 72.11 32.77 70.58 34.54 70.58 35.42 72.11 34.54 73.64 32.77 73.64"/><polygon class="cls-37" points="32.77 73.64 31.88 72.11 32.77 70.58 34.53 70.58 35.42 72.11 34.53 73.64 32.77 73.64"/><polygon class="cls-37" points="32.77 73.64 31.89 72.11 32.77 70.58 34.53 70.58 35.41 72.11 34.53 73.64 32.77 73.64"/><polygon class="cls-38" points="32.77 73.63 31.89 72.11 32.77 70.59 34.53 70.59 35.41 72.11 34.53 73.63 32.77 73.63"/><polygon class="cls-38" points="32.77 73.63 31.9 72.11 32.77 70.59 34.53 70.59 35.4 72.11 34.53 73.63 32.77 73.63"/><polygon class="cls-38" points="32.78 73.62 31.9 72.11 32.78 70.59 34.52 70.59 35.4 72.11 34.52 73.62 32.78 73.62"/><polygon class="cls-38" points="32.78 73.62 31.91 72.11 32.78 70.6 34.52 70.6 35.4 72.11 34.52 73.62 32.78 73.62"/><polygon class="cls-38" points="32.78 73.62 31.91 72.11 32.78 70.6 34.52 70.6 35.39 72.11 34.52 73.62 32.78 73.62"/><polygon class="cls-39" points="32.78 73.61 31.92 72.11 32.78 70.61 34.52 70.61 35.38 72.11 34.52 73.61 32.78 73.61"/><polygon class="cls-39" points="32.79 73.61 31.92 72.11 32.79 70.61 34.52 70.61 35.38 72.11 34.52 73.61 32.79 73.61"/><polygon class="cls-39" points="32.79 73.6 31.93 72.11 32.79 70.62 34.51 70.62 35.38 72.11 34.51 73.6 32.79 73.6"/><polygon class="cls-39" points="32.79 73.6 31.93 72.11 32.79 70.62 34.51 70.62 35.37 72.11 34.51 73.6 32.79 73.6"/><polygon class="cls-39" points="32.79 73.59 31.94 72.11 32.79 70.62 34.51 70.62 35.37 72.11 34.51 73.59 32.79 73.59"/><polygon class="cls-40" points="32.8 73.59 31.94 72.11 32.8 70.63 34.51 70.63 35.36 72.11 34.51 73.59 32.8 73.59"/><polygon class="cls-41" points="32.8 73.59 31.95 72.11 32.8 70.63 34.5 70.63 35.36 72.11 34.5 73.59 32.8 73.59"/><polygon class="cls-41" points="32.8 73.58 31.95 72.11 32.8 70.64 34.5 70.64 35.35 72.11 34.5 73.58 32.8 73.58"/><polygon class="cls-41" points="32.8 73.58 31.95 72.11 32.8 70.64 34.5 70.64 35.35 72.11 34.5 73.58 32.8 73.58"/><polygon class="cls-42" points="32.81 73.57 31.96 72.11 32.81 70.64 34.5 70.64 35.34 72.11 34.5 73.57 32.81 73.57"/><polygon class="cls-42" points="32.81 73.57 31.96 72.11 32.81 70.65 34.49 70.65 35.34 72.11 34.49 73.57 32.81 73.57"/><polygon class="cls-42" points="32.81 73.57 31.97 72.11 32.81 70.65 34.49 70.65 35.33 72.11 34.49 73.57 32.81 73.57"/><polygon class="cls-42" points="32.81 73.56 31.97 72.11 32.81 70.66 34.49 70.66 35.33 72.11 34.49 73.56 32.81 73.56"/><polygon class="cls-43" points="32.81 73.56 31.98 72.11 32.81 70.66 34.49 70.66 35.32 72.11 34.49 73.56 32.81 73.56"/><polygon class="cls-44" points="32.82 73.55 31.98 72.11 32.82 70.67 34.48 70.67 35.32 72.11 34.48 73.55 32.82 73.55"/><polygon class="cls-44" points="32.82 73.55 31.99 72.11 32.82 70.67 34.48 70.67 35.31 72.11 34.48 73.55 32.82 73.55"/><polygon class="cls-44" points="32.82 73.55 31.99 72.11 32.82 70.67 34.48 70.67 35.31 72.11 34.48 73.55 32.82 73.55"/><polygon class="cls-44" points="32.83 73.54 32 72.11 32.83 70.68 34.48 70.68 35.3 72.11 34.48 73.54 32.83 73.54"/><polygon class="cls-44" points="32.83 73.54 32 72.11 32.83 70.68 34.48 70.68 35.3 72.11 34.48 73.54 32.83 73.54"/><polygon class="cls-45" points="32.83 73.53 32.01 72.11 32.83 70.69 34.47 70.69 35.3 72.11 34.47 73.53 32.83 73.53"/><polygon class="cls-45" points="32.83 73.53 32.01 72.11 32.83 70.69 34.47 70.69 35.29 72.11 34.47 73.53 32.83 73.53"/><polygon class="cls-45" points="32.83 73.53 32.02 72.11 32.83 70.69 34.47 70.69 35.28 72.11 34.47 73.53 32.83 73.53"/><polygon class="cls-45" points="32.84 73.52 32.02 72.11 32.84 70.7 34.47 70.7 35.28 72.11 34.47 73.52 32.84 73.52"/><polygon class="cls-46" points="32.84 73.52 32.03 72.11 32.84 70.7 34.46 70.7 35.27 72.11 34.46 73.52 32.84 73.52"/><polygon class="cls-46" points="32.84 73.51 32.03 72.11 32.84 70.71 34.46 70.71 35.27 72.11 34.46 73.51 32.84 73.51"/><polygon class="cls-46" points="32.84 73.51 32.04 72.11 32.84 70.71 34.46 70.71 35.27 72.11 34.46 73.51 32.84 73.51"/><polygon class="cls-47" points="32.85 73.5 32.04 72.11 32.85 70.72 34.46 70.72 35.26 72.11 34.46 73.5 32.85 73.5"/><polygon class="cls-47" points="32.85 73.5 32.05 72.11 32.85 70.72 34.45 70.72 35.26 72.11 34.45 73.5 32.85 73.5"/><polygon class="cls-48" points="32.85 73.5 32.05 72.11 32.85 70.72 34.45 70.72 35.25 72.11 34.45 73.5 32.85 73.5"/><polygon class="cls-48" points="32.85 73.49 32.05 72.11 32.85 70.73 34.45 70.73 35.25 72.11 34.45 73.49 32.85 73.49"/><polygon class="cls-48" points="32.86 73.49 32.06 72.11 32.86 70.73 34.45 70.73 35.24 72.11 34.45 73.49 32.86 73.49"/><polygon class="cls-48" points="32.86 73.48 32.06 72.11 32.86 70.74 34.44 70.74 35.24 72.11 34.44 73.48 32.86 73.48"/><polygon class="cls-49" points="32.86 73.48 32.07 72.11 32.86 70.74 34.44 70.74 35.23 72.11 34.44 73.48 32.86 73.48"/><polygon class="cls-50" points="32.86 73.47 32.07 72.11 32.86 70.74 34.44 70.74 35.23 72.11 34.44 73.47 32.86 73.47"/><polygon class="cls-50" points="32.87 73.47 32.08 72.11 32.87 70.75 34.44 70.75 35.22 72.11 34.44 73.47 32.87 73.47"/><polygon class="cls-50" points="32.87 73.47 32.08 72.11 32.87 70.75 34.44 70.75 35.22 72.11 34.44 73.47 32.87 73.47"/><polygon class="cls-50" points="32.87 73.46 32.09 72.11 32.87 70.76 34.43 70.76 35.21 72.11 34.43 73.46 32.87 73.46"/><polygon class="cls-51" points="32.87 73.46 32.09 72.11 32.87 70.76 34.43 70.76 35.21 72.11 34.43 73.46 32.87 73.46"/><polygon class="cls-51" points="32.88 73.45 32.1 72.11 32.88 70.77 34.43 70.77 35.2 72.11 34.43 73.45 32.88 73.45"/><polygon class="cls-52" points="32.88 73.45 32.1 72.11 32.88 70.77 34.42 70.77 35.2 72.11 34.42 73.45 32.88 73.45"/><polygon class="cls-52" points="32.88 73.45 32.11 72.11 32.88 70.77 34.42 70.77 35.19 72.11 34.42 73.45 32.88 73.45"/><polygon class="cls-52" points="32.88 73.44 32.11 72.11 32.88 70.78 34.42 70.78 35.19 72.11 34.42 73.44 32.88 73.44"/><polygon class="cls-53" points="32.88 73.44 32.12 72.11 32.88 70.78 34.42 70.78 35.19 72.11 34.42 73.44 32.88 73.44"/><polygon class="cls-53" points="32.89 73.43 32.12 72.11 32.89 70.79 34.42 70.79 35.18 72.11 34.42 73.43 32.89 73.43"/><polygon class="cls-53" points="32.89 73.43 32.13 72.11 32.89 70.79 34.41 70.79 35.17 72.11 34.41 73.43 32.89 73.43"/><polygon class="cls-54" points="32.89 73.43 32.13 72.11 32.89 70.79 34.41 70.79 35.17 72.11 34.41 73.43 32.89 73.43"/><polygon class="cls-54" points="32.89 73.42 32.14 72.11 32.89 70.8 34.41 70.8 35.17 72.11 34.41 73.42 32.89 73.42"/><polygon class="cls-55" points="32.9 73.42 32.14 72.11 32.9 70.8 34.41 70.8 35.16 72.11 34.41 73.42 32.9 73.42"/><polygon class="cls-55" points="32.9 73.41 32.15 72.11 32.9 70.81 34.4 70.81 35.16 72.11 34.4 73.41 32.9 73.41"/><polygon class="cls-55" points="32.9 73.41 32.15 72.11 32.9 70.81 34.4 70.81 35.15 72.11 34.4 73.41 32.9 73.41"/><polygon class="cls-55" points="32.9 73.41 32.16 72.11 32.9 70.81 34.4 70.81 35.15 72.11 34.4 73.41 32.9 73.41"/><polygon class="cls-56" points="32.91 73.4 32.16 72.11 32.91 70.82 34.4 70.82 35.14 72.11 34.4 73.4 32.91 73.4"/><polygon class="cls-57" points="32.91 73.4 32.16 72.11 32.91 70.82 34.39 70.82 35.14 72.11 34.39 73.4 32.91 73.4"/><polygon class="cls-57" points="32.91 73.39 32.17 72.11 32.91 70.83 34.39 70.83 35.13 72.11 34.39 73.39 32.91 73.39"/><polygon class="cls-57" points="32.91 73.39 32.17 72.11 32.91 70.83 34.39 70.83 35.13 72.11 34.39 73.39 32.91 73.39"/><polygon class="cls-57" points="32.91 73.38 32.18 72.11 32.91 70.83 34.39 70.83 35.12 72.11 34.39 73.38 32.91 73.38"/><polygon class="cls-58" points="32.92 73.38 32.18 72.11 32.92 70.84 34.38 70.84 35.12 72.11 34.38 73.38 32.92 73.38"/><polygon class="cls-58" points="32.92 73.38 32.19 72.11 32.92 70.84 34.38 70.84 35.11 72.11 34.38 73.38 32.92 73.38"/><polygon class="cls-59" points="32.92 73.37 32.19 72.11 32.92 70.85 34.38 70.85 35.11 72.11 34.38 73.37 32.92 73.37"/><polygon class="cls-59" points="32.92 73.37 32.2 72.11 32.92 70.85 34.38 70.85 35.1 72.11 34.38 73.37 32.92 73.37"/><polygon class="cls-59" points="32.93 73.36 32.2 72.11 32.93 70.86 34.38 70.86 35.1 72.11 34.38 73.36 32.93 73.36"/><polygon class="cls-60" points="32.93 73.36 32.21 72.11 32.93 70.86 34.37 70.86 35.09 72.11 34.37 73.36 32.93 73.36"/><polygon class="cls-60" points="32.93 73.36 32.21 72.11 32.93 70.86 34.37 70.86 35.09 72.11 34.37 73.36 32.93 73.36"/><polygon class="cls-60" points="32.93 73.35 32.22 72.11 32.93 70.87 34.37 70.87 35.09 72.11 34.37 73.35 32.93 73.35"/><polygon class="cls-60" points="32.94 73.35 32.22 72.11 32.94 70.87 34.37 70.87 35.08 72.11 34.37 73.35 32.94 73.35"/><polygon class="cls-61" points="32.94 73.34 32.23 72.11 32.94 70.88 34.36 70.88 35.08 72.11 34.36 73.34 32.94 73.34"/><polygon class="cls-61" points="32.94 73.34 32.23 72.11 32.94 70.88 34.36 70.88 35.07 72.11 34.36 73.34 32.94 73.34"/><polygon class="cls-61" points="32.94 73.33 32.24 72.11 32.94 70.89 34.36 70.89 35.07 72.11 34.36 73.33 32.94 73.33"/><polygon class="cls-61" points="32.95 73.33 32.24 72.11 32.95 70.89 34.36 70.89 35.06 72.11 34.36 73.33 32.95 73.33"/><polygon class="cls-61" points="32.95 73.33 32.25 72.11 32.95 70.89 34.35 70.89 35.06 72.11 34.35 73.33 32.95 73.33"/><polygon class="cls-62" points="32.95 73.32 32.25 72.11 32.95 70.9 34.35 70.9 35.05 72.11 34.35 73.32 32.95 73.32"/><polygon class="cls-63" points="32.95 73.32 32.26 72.11 32.95 70.9 34.35 70.9 35.05 72.11 34.35 73.32 32.95 73.32"/><polygon class="cls-63" points="32.96 73.31 32.26 72.11 32.96 70.91 34.35 70.91 35.04 72.11 34.35 73.31 32.96 73.31"/><polygon class="cls-63" points="32.96 73.31 32.27 72.11 32.96 70.91 34.34 70.91 35.04 72.11 34.34 73.31 32.96 73.31"/><polygon class="cls-63" points="32.96 73.31 32.27 72.11 32.96 70.91 34.34 70.91 35.03 72.11 34.34 73.31 32.96 73.31"/><polygon class="cls-64" points="32.96 73.3 32.27 72.11 32.96 70.92 34.34 70.92 35.03 72.11 34.34 73.3 32.96 73.3"/><polygon class="cls-64" points="32.97 73.3 32.28 72.11 32.97 70.92 34.34 70.92 35.02 72.11 34.34 73.3 32.97 73.3"/><polygon class="cls-64" points="32.97 73.29 32.28 72.11 32.97 70.93 34.33 70.93 35.02 72.11 34.33 73.29 32.97 73.29"/><polygon class="cls-65" points="32.97 73.29 32.29 72.11 32.97 70.93 34.33 70.93 35.01 72.11 34.33 73.29 32.97 73.29"/><polygon class="cls-66" points="32.97 73.28 32.29 72.11 32.97 70.93 34.33 70.93 35.01 72.11 34.33 73.28 32.97 73.28"/><polygon class="cls-66" points="32.98 73.28 32.3 72.11 32.98 70.94 34.33 70.94 35 72.11 34.33 73.28 32.98 73.28"/><polygon class="cls-66" points="32.98 73.28 32.3 72.11 32.98 70.94 34.33 70.94 35 72.11 34.33 73.28 32.98 73.28"/><polygon class="cls-66" points="32.98 73.27 32.31 72.11 32.98 70.95 34.32 70.95 34.99 72.11 34.32 73.27 32.98 73.27"/><polygon class="cls-66" points="32.98 73.27 32.31 72.11 32.98 70.95 34.32 70.95 34.99 72.11 34.32 73.27 32.98 73.27"/><polygon class="cls-67" points="32.98 73.26 32.32 72.11 32.98 70.95 34.32 70.95 34.98 72.11 34.32 73.26 32.98 73.26"/><polygon class="cls-67" points="32.99 73.26 32.32 72.11 32.99 70.96 34.31 70.96 34.98 72.11 34.31 73.26 32.99 73.26"/><polygon class="cls-67" points="32.99 73.26 32.33 72.11 32.99 70.96 34.31 70.96 34.98 72.11 34.31 73.26 32.99 73.26"/><polygon class="cls-67" points="32.99 73.25 32.33 72.11 32.99 70.97 34.31 70.97 34.97 72.11 34.31 73.25 32.99 73.25"/><polygon class="cls-67" points="32.99 73.25 32.34 72.11 32.99 70.97 34.31 70.97 34.97 72.11 34.31 73.25 32.99 73.25"/><polygon class="cls-68" points="33 73.24 32.34 72.11 33 70.98 34.31 70.98 34.96 72.11 34.31 73.24 33 73.24"/><polygon class="cls-69" points="33 73.24 32.35 72.11 33 70.98 34.3 70.98 34.96 72.11 34.3 73.24 33 73.24"/><polygon class="cls-69" points="33 73.23 32.35 72.11 33 70.98 34.3 70.98 34.95 72.11 34.3 73.23 33 73.23"/><polygon class="cls-69" points="33 73.23 32.36 72.11 33 70.99 34.3 70.99 34.95 72.11 34.3 73.23 33 73.23"/><polygon class="cls-70" points="33.01 73.23 32.36 72.11 33.01 70.99 34.3 70.99 34.94 72.11 34.3 73.23 33.01 73.23"/><polygon class="cls-70" points="33.01 73.22 32.37 72.11 33.01 71 34.29 71 34.94 72.11 34.29 73.22 33.01 73.22"/><polygon class="cls-70" points="33.01 73.22 32.37 72.11 33.01 71 34.29 71 34.93 72.11 34.29 73.22 33.01 73.22"/><polygon class="cls-70" points="33.01 73.22 32.38 72.11 33.01 71 34.29 71 34.93 72.11 34.29 73.22 33.01 73.22"/><polygon class="cls-71" points="33.02 73.21 32.38 72.11 33.02 71.01 34.29 71.01 34.92 72.11 34.29 73.21 33.02 73.21"/><polygon class="cls-72" points="33.02 73.21 32.38 72.11 33.02 71.01 34.28 71.01 34.92 72.11 34.28 73.21 33.02 73.21"/><polygon class="cls-72" points="33.02 73.2 32.39 72.11 33.02 71.02 34.28 71.02 34.91 72.11 34.28 73.2 33.02 73.2"/><polygon class="cls-72" points="33.02 73.2 32.39 72.11 33.02 71.02 34.28 71.02 34.91 72.11 34.28 73.2 33.02 73.2"/><polygon class="cls-72" points="33.02 73.19 32.4 72.11 33.02 71.03 34.28 71.03 34.9 72.11 34.28 73.19 33.02 73.19"/><polygon class="cls-72" points="33.03 73.19 32.4 72.11 33.03 71.03 34.27 71.03 34.9 72.11 34.27 73.19 33.03 73.19"/><polygon class="cls-73" points="33.03 73.19 32.41 72.11 33.03 71.03 34.27 71.03 34.89 72.11 34.27 73.19 33.03 73.19"/><polygon class="cls-73" points="33.03 73.18 32.41 72.11 33.03 71.04 34.27 71.04 34.89 72.11 34.27 73.18 33.03 73.18"/><polygon class="cls-73" points="33.03 73.18 32.42 72.11 33.03 71.04 34.27 71.04 34.88 72.11 34.27 73.18 33.03 73.18"/><polygon class="cls-73" points="33.04 73.17 32.42 72.11 33.04 71.05 34.27 71.05 34.88 72.11 34.27 73.17 33.04 73.17"/><polygon class="cls-74" points="33.04 73.17 32.43 72.11 33.04 71.05 34.26 71.05 34.88 72.11 34.26 73.17 33.04 73.17"/><polygon class="cls-74" points="33.04 73.17 32.43 72.11 33.04 71.05 34.26 71.05 34.87 72.11 34.26 73.17 33.04 73.17"/><polygon class="cls-74" points="33.04 73.16 32.44 72.11 33.04 71.06 34.26 71.06 34.87 72.11 34.26 73.16 33.04 73.16"/><polygon class="cls-75" points="33.05 73.16 32.44 72.11 33.05 71.06 34.26 71.06 34.86 72.11 34.26 73.16 33.05 73.16"/><polygon class="cls-75" points="33.05 73.15 32.45 72.11 33.05 71.07 34.25 71.07 34.86 72.11 34.25 73.15 33.05 73.15"/><polygon class="cls-76" points="33.05 73.15 32.45 72.11 33.05 71.07 34.25 71.07 34.85 72.11 34.25 73.15 33.05 73.15"/><polygon class="cls-76" points="33.05 73.14 32.46 72.11 33.05 71.08 34.25 71.08 34.85 72.11 34.25 73.14 33.05 73.14"/><polygon class="cls-76" points="33.06 73.14 32.46 72.11 33.06 71.08 34.25 71.08 34.84 72.11 34.25 73.14 33.06 73.14"/><polygon class="cls-76" points="33.06 73.14 32.47 72.11 33.06 71.08 34.24 71.08 34.84 72.11 34.24 73.14 33.06 73.14"/><polygon class="cls-77" points="33.06 73.13 32.47 72.11 33.06 71.09 34.24 71.09 34.83 72.11 34.24 73.13 33.06 73.13"/><polygon class="cls-78" points="33.06 73.13 32.48 72.11 33.06 71.09 34.24 71.09 34.83 72.11 34.24 73.13 33.06 73.13"/><polygon class="cls-78" points="33.07 73.12 32.48 72.11 33.07 71.09 34.24 71.09 34.82 72.11 34.24 73.12 33.07 73.12"/><polygon class="cls-78" points="33.07 73.12 32.48 72.11 33.07 71.1 34.23 71.1 34.82 72.11 34.23 73.12 33.07 73.12"/><polygon class="cls-78" points="33.07 73.12 32.49 72.11 33.07 71.1 34.23 71.1 34.81 72.11 34.23 73.12 33.07 73.12"/><polygon class="cls-79" points="33.07 73.11 32.49 72.11 33.07 71.11 34.23 71.11 34.81 72.11 34.23 73.11 33.07 73.11"/><polygon class="cls-79" points="33.08 73.11 32.5 72.11 33.08 71.11 34.23 71.11 34.8 72.11 34.23 73.11 33.08 73.11"/><polygon class="cls-80" points="33.08 73.1 32.5 72.11 33.08 71.12 34.23 71.12 34.8 72.11 34.23 73.1 33.08 73.1"/><polygon class="cls-80" points="33.08 73.1 32.51 72.11 33.08 71.12 34.22 71.12 34.79 72.11 34.22 73.1 33.08 73.1"/><polygon class="cls-80" points="33.08 73.09 32.51 72.11 33.08 71.12 34.22 71.12 34.79 72.11 34.22 73.09 33.08 73.09"/><polygon class="cls-81" points="33.09 73.09 32.52 72.11 33.09 71.13 34.22 71.13 34.78 72.11 34.22 73.09 33.09 73.09"/><polygon class="cls-81" points="33.09 73.09 32.52 72.11 33.09 71.13 34.22 71.13 34.78 72.11 34.22 73.09 33.09 73.09"/><polygon class="cls-81" points="33.09 73.08 32.53 72.11 33.09 71.14 34.21 71.14 34.77 72.11 34.21 73.08 33.09 73.08"/><polygon class="cls-82" points="33.09 73.08 32.53 72.11 33.09 71.14 34.21 71.14 34.77 72.11 34.21 73.08 33.09 73.08"/><polygon class="cls-82" points="33.09 73.07 32.54 72.11 33.09 71.14 34.21 71.14 34.77 72.11 34.21 73.07 33.09 73.07"/><polygon class="cls-83" points="33.1 73.07 32.54 72.11 33.1 71.15 34.21 71.15 34.76 72.11 34.21 73.07 33.1 73.07"/><polygon class="cls-83" points="33.1 73.07 32.55 72.11 33.1 71.15 34.2 71.15 34.76 72.11 34.2 73.07 33.1 73.07"/><polygon class="cls-83" points="33.1 73.06 32.55 72.11 33.1 71.16 34.2 71.16 34.75 72.11 34.2 73.06 33.1 73.06"/><polygon class="cls-83" points="33.1 73.06 32.56 72.11 33.1 71.16 34.2 71.16 34.75 72.11 34.2 73.06 33.1 73.06"/><polygon class="cls-84" points="33.11 73.05 32.56 72.11 33.11 71.17 34.2 71.17 34.74 72.11 34.2 73.05 33.11 73.05"/><polygon class="cls-85" points="33.11 73.05 32.57 72.11 33.11 71.17 34.19 71.17 34.74 72.11 34.19 73.05 33.11 73.05"/><polygon class="cls-85" points="33.11 73.05 32.57 72.11 33.11 71.17 34.19 71.17 34.73 72.11 34.19 73.05 33.11 73.05"/><polygon class="cls-85" points="33.11 73.04 32.58 72.11 33.11 71.18 34.19 71.18 34.73 72.11 34.19 73.04 33.11 73.04"/><polygon class="cls-85" points="33.12 73.04 32.58 72.11 33.12 71.18 34.19 71.18 34.72 72.11 34.19 73.04 33.12 73.04"/><polygon class="cls-86" points="33.12 73.03 32.59 72.11 33.12 71.19 34.18 71.19 34.72 72.11 34.18 73.03 33.12 73.03"/><polygon class="cls-86" points="33.12 73.03 32.59 72.11 33.12 71.19 34.18 71.19 34.71 72.11 34.18 73.03 33.12 73.03"/><polygon class="cls-87" points="33.12 73.03 32.59 72.11 33.12 71.19 34.18 71.19 34.71 72.11 34.18 73.03 33.12 73.03"/><polygon class="cls-87" points="33.13 73.02 32.6 72.11 33.13 71.2 34.18 71.2 34.7 72.11 34.18 73.02 33.13 73.02"/><polygon class="cls-87" points="33.13 73.02 32.6 72.11 33.13 71.2 34.17 71.2 34.7 72.11 34.17 73.02 33.13 73.02"/><polygon class="cls-88" points="33.13 73.01 32.61 72.11 33.13 71.21 34.17 71.21 34.69 72.11 34.17 73.01 33.13 73.01"/><polygon class="cls-88" points="33.13 73.01 32.61 72.11 33.13 71.21 34.17 71.21 34.69 72.11 34.17 73.01 33.13 73.01"/><polygon class="cls-88" points="33.13 73 32.62 72.11 33.13 71.22 34.17 71.22 34.68 72.11 34.17 73 33.13 73"/><polygon class="cls-88" points="33.14 73 32.62 72.11 33.14 71.22 34.16 71.22 34.68 72.11 34.16 73 33.14 73"/><polygon class="cls-89" points="33.14 73 32.63 72.11 33.14 71.22 34.16 71.22 34.67 72.11 34.16 73 33.14 73"/><polygon class="cls-89" points="33.14 72.99 32.63 72.11 33.14 71.23 34.16 71.23 34.67 72.11 34.16 72.99 33.14 72.99"/><polygon class="cls-89" points="33.14 72.99 32.64 72.11 33.14 71.23 34.16 71.23 34.66 72.11 34.16 72.99 33.14 72.99"/><polygon class="cls-89" points="33.15 72.98 32.64 72.11 33.15 71.24 34.16 71.24 34.66 72.11 34.16 72.98 33.15 72.98"/><polygon class="cls-89" points="33.15 72.98 32.65 72.11 33.15 71.24 34.15 71.24 34.66 72.11 34.15 72.98 33.15 72.98"/><polygon class="cls-90" points="33.15 72.97 32.65 72.11 33.15 71.24 34.15 71.24 34.65 72.11 34.15 72.97 33.15 72.97"/><polygon class="cls-91" points="33.15 72.97 32.66 72.11 33.15 71.25 34.15 71.25 34.65 72.11 34.15 72.97 33.15 72.97"/><polygon class="cls-91" points="33.16 72.97 32.66 72.11 33.16 71.25 34.15 71.25 34.64 72.11 34.15 72.97 33.16 72.97"/><polygon class="cls-91" points="33.16 72.96 32.67 72.11 33.16 71.26 34.14 71.26 34.64 72.11 34.14 72.96 33.16 72.96"/><polygon class="cls-91" points="33.16 72.96 32.67 72.11 33.16 71.26 34.14 71.26 34.63 72.11 34.14 72.96 33.16 72.96"/><polygon class="cls-92" points="33.16 72.95 32.68 72.11 33.16 71.27 34.14 71.27 34.63 72.11 34.14 72.95 33.16 72.95"/><polygon class="cls-92" points="33.17 72.95 32.68 72.11 33.17 71.27 34.14 71.27 34.62 72.11 34.14 72.95 33.17 72.95"/><polygon class="cls-92" points="33.17 72.95 32.69 72.11 33.17 71.27 34.13 71.27 34.62 72.11 34.13 72.95 33.17 72.95"/><polygon class="cls-93" points="33.17 72.94 32.69 72.11 33.17 71.28 34.13 71.28 34.61 72.11 34.13 72.94 33.17 72.94"/><polygon class="cls-94" points="33.17 72.94 32.7 72.11 33.17 71.28 34.13 71.28 34.61 72.11 34.13 72.94 33.17 72.94"/><polygon class="cls-94" points="33.17 72.93 32.7 72.11 33.17 71.29 34.13 71.29 34.6 72.11 34.13 72.93 33.17 72.93"/><polygon class="cls-94" points="33.18 72.93 32.7 72.11 33.18 71.29 34.13 71.29 34.6 72.11 34.13 72.93 33.18 72.93"/><polygon class="cls-94" points="33.18 72.93 32.71 72.11 33.18 71.29 34.12 71.29 34.59 72.11 34.12 72.93 33.18 72.93"/><polygon class="cls-94" points="33.18 72.92 32.71 72.11 33.18 71.3 34.12 71.3 34.59 72.11 34.12 72.92 33.18 72.92"/><polygon class="cls-95" points="33.19 72.92 32.72 72.11 33.19 71.3 34.12 71.3 34.58 72.11 34.12 72.92 33.19 72.92"/><polygon class="cls-95" points="33.19 72.91 32.72 72.11 33.19 71.31 34.12 71.31 34.58 72.11 34.12 72.91 33.19 72.91"/><polygon class="cls-95" points="33.19 72.91 32.73 72.11 33.19 71.31 34.11 71.31 34.57 72.11 34.11 72.91 33.19 72.91"/><polygon class="cls-95" points="33.19 72.91 32.73 72.11 33.19 71.31 34.11 71.31 34.57 72.11 34.11 72.91 33.19 72.91"/><polygon class="cls-95" points="33.19 72.9 32.74 72.11 33.19 71.32 34.11 71.32 34.56 72.11 34.11 72.9 33.19 72.9"/><polygon class="cls-96" points="33.2 72.9 32.74 72.11 33.2 71.32 34.1 71.32 34.56 72.11 34.1 72.9 33.2 72.9"/><polygon class="cls-96" points="33.2 72.89 32.75 72.11 33.2 71.33 34.1 71.33 34.55 72.11 34.1 72.89 33.2 72.89"/><polygon class="cls-97" points="33.2 72.89 32.75 72.11 33.2 71.33 34.1 71.33 34.55 72.11 34.1 72.89 33.2 72.89"/><polygon class="cls-97" points="33.2 72.88 32.76 72.11 33.2 71.33 34.1 71.33 34.55 72.11 34.1 72.88 33.2 72.88"/><polygon class="cls-98" points="33.21 72.88 32.76 72.11 33.21 71.34 34.1 71.34 34.54 72.11 34.1 72.88 33.21 72.88"/><polygon class="cls-98" points="33.21 72.88 32.77 72.11 33.21 71.34 34.09 71.34 34.54 72.11 34.09 72.88 33.21 72.88"/><polygon class="cls-98" points="33.21 72.87 32.77 72.11 33.21 71.35 34.09 71.35 34.53 72.11 34.09 72.87 33.21 72.87"/><polygon class="cls-98" points="33.21 72.87 32.78 72.11 33.21 71.35 34.09 71.35 34.53 72.11 34.09 72.87 33.21 72.87"/><polygon class="cls-99" points="33.22 72.86 32.78 72.11 33.22 71.36 34.09 71.36 34.52 72.11 34.09 72.86 33.22 72.86"/><polygon class="cls-100" points="33.22 72.86 32.78 72.11 33.22 71.36 34.08 71.36 34.52 72.11 34.08 72.86 33.22 72.86"/><polygon class="cls-100" points="33.22 72.86 32.79 72.11 33.22 71.36 34.08 71.36 34.51 72.11 34.08 72.86 33.22 72.86"/><polygon class="cls-100" points="33.22 72.85 32.8 72.11 33.22 71.37 34.08 71.37 34.51 72.11 34.08 72.85 33.22 72.85"/></g><g id="_5-2" data-name="5"><path class="cls-101" d="M221.65,50.06a3,3,0,1,1-3-3A3,3,0,0,1,221.65,50.06Z"/><circle class="cls-102" cx="218.81" cy="49.81" r="2.64"/><polygon class="cls-103" points="217.69 51.7 216.78 50.12 217.69 48.55 219.5 48.55 220.41 50.12 219.5 51.7 217.69 51.7"/><polygon class="cls-33" points="217.76 51.63 216.85 50.06 217.76 48.49 219.58 48.49 220.49 50.06 219.58 51.63 217.76 51.63"/><polygon class="cls-33" points="217.76 51.63 216.86 50.06 217.76 48.49 219.57 48.49 220.48 50.06 219.57 51.63 217.76 51.63"/><polygon class="cls-33" points="217.77 51.62 216.86 50.06 217.77 48.49 219.57 48.49 220.47 50.06 219.57 51.62 217.77 51.62"/><polygon class="cls-34" points="217.77 51.62 216.87 50.06 217.77 48.5 219.57 48.5 220.47 50.06 219.57 51.62 217.77 51.62"/><polygon class="cls-35" points="217.77 51.61 216.87 50.06 217.77 48.5 219.57 48.5 220.47 50.06 219.57 51.61 217.77 51.61"/><polygon class="cls-35" points="217.77 51.61 216.88 50.06 217.77 48.51 219.56 48.51 220.46 50.06 219.56 51.61 217.77 51.61"/><polygon class="cls-35" points="217.78 51.6 216.88 50.06 217.78 48.51 219.56 48.51 220.46 50.06 219.56 51.6 217.78 51.6"/><polygon class="cls-35" points="217.78 51.6 216.89 50.06 217.78 48.52 219.56 48.52 220.45 50.06 219.56 51.6 217.78 51.6"/><polygon class="cls-36" points="217.78 51.6 216.89 50.06 217.78 48.52 219.56 48.52 220.45 50.06 219.56 51.6 217.78 51.6"/><polygon class="cls-36" points="217.78 51.59 216.9 50.06 217.78 48.52 219.56 48.52 220.44 50.06 219.56 51.59 217.78 51.59"/><polygon class="cls-37" points="217.79 51.59 216.9 50.06 217.79 48.53 219.55 48.53 220.44 50.06 219.55 51.59 217.79 51.59"/><polygon class="cls-37" points="217.79 51.59 216.91 50.06 217.79 48.53 219.55 48.53 220.43 50.06 219.55 51.59 217.79 51.59"/><polygon class="cls-38" points="217.79 51.58 216.91 50.06 217.79 48.54 219.55 48.54 220.43 50.06 219.55 51.58 217.79 51.58"/><polygon class="cls-38" points="217.79 51.58 216.92 50.06 217.79 48.54 219.55 48.54 220.42 50.06 219.55 51.58 217.79 51.58"/><polygon class="cls-38" points="217.79 51.57 216.92 50.06 217.79 48.54 219.54 48.54 220.42 50.06 219.54 51.57 217.79 51.57"/><polygon class="cls-38" points="217.8 51.57 216.93 50.06 217.8 48.55 219.54 48.55 220.41 50.06 219.54 51.57 217.8 51.57"/><polygon class="cls-38" points="217.8 51.56 216.93 50.06 217.8 48.55 219.54 48.55 220.41 50.06 219.54 51.56 217.8 51.56"/><polygon class="cls-39" points="217.8 51.56 216.94 50.06 217.8 48.56 219.54 48.56 220.4 50.06 219.54 51.56 217.8 51.56"/><polygon class="cls-39" points="217.81 51.56 216.94 50.06 217.81 48.56 219.53 48.56 220.4 50.06 219.53 51.56 217.81 51.56"/><polygon class="cls-39" points="217.81 51.55 216.94 50.06 217.81 48.56 219.53 48.56 220.39 50.06 219.53 51.55 217.81 51.55"/><polygon class="cls-39" points="217.81 51.55 216.95 50.06 217.81 48.57 219.53 48.57 220.39 50.06 219.53 51.55 217.81 51.55"/><polygon class="cls-39" points="217.81 51.54 216.95 50.06 217.81 48.57 219.53 48.57 220.38 50.06 219.53 51.54 217.81 51.54"/><polygon class="cls-40" points="217.81 51.54 216.96 50.06 217.81 48.58 219.53 48.58 220.38 50.06 219.53 51.54 217.81 51.54"/><polygon class="cls-41" points="217.82 51.53 216.96 50.06 217.82 48.58 219.52 48.58 220.38 50.06 219.52 51.53 217.82 51.53"/><polygon class="cls-41" points="217.82 51.53 216.97 50.06 217.82 48.59 219.52 48.59 220.37 50.06 219.52 51.53 217.82 51.53"/><polygon class="cls-41" points="217.82 51.53 216.97 50.06 217.82 48.59 219.52 48.59 220.37 50.06 219.52 51.53 217.82 51.53"/><polygon class="cls-42" points="217.82 51.52 216.98 50.06 217.82 48.59 219.51 48.59 220.36 50.06 219.51 51.52 217.82 51.52"/><polygon class="cls-42" points="217.83 51.52 216.98 50.06 217.83 48.6 219.51 48.6 220.36 50.06 219.51 51.52 217.83 51.52"/><polygon class="cls-42" points="217.83 51.52 216.99 50.06 217.83 48.6 219.51 48.6 220.35 50.06 219.51 51.52 217.83 51.52"/><polygon class="cls-42" points="217.83 51.51 216.99 50.06 217.83 48.61 219.51 48.61 220.35 50.06 219.51 51.51 217.83 51.51"/><polygon class="cls-43" points="217.83 51.51 217 50.06 217.83 48.61 219.5 48.61 220.34 50.06 219.5 51.51 217.83 51.51"/><polygon class="cls-44" points="217.84 51.5 217 50.06 217.84 48.61 219.5 48.61 220.34 50.06 219.5 51.5 217.84 51.5"/><polygon class="cls-44" points="217.84 51.5 217.01 50.06 217.84 48.62 219.5 48.62 220.33 50.06 219.5 51.5 217.84 51.5"/><polygon class="cls-44" points="217.84 51.49 217.01 50.06 217.84 48.62 219.5 48.62 220.33 50.06 219.5 51.49 217.84 51.49"/><polygon class="cls-44" points="217.84 51.49 217.02 50.06 217.84 48.63 219.5 48.63 220.32 50.06 219.5 51.49 217.84 51.49"/><polygon class="cls-44" points="217.84 51.49 217.02 50.06 217.84 48.63 219.49 48.63 220.32 50.06 219.49 51.49 217.84 51.49"/><polygon class="cls-45" points="217.85 51.48 217.03 50.06 217.85 48.63 219.49 48.63 220.31 50.06 219.49 51.48 217.85 51.48"/><polygon class="cls-45" points="217.85 51.48 217.03 50.06 217.85 48.64 219.49 48.64 220.31 50.06 219.49 51.48 217.85 51.48"/><polygon class="cls-45" points="217.85 51.47 217.03 50.06 217.85 48.64 219.49 48.64 220.3 50.06 219.49 51.47 217.85 51.47"/><polygon class="cls-45" points="217.85 51.47 217.04 50.06 217.85 48.65 219.48 48.65 220.3 50.06 219.48 51.47 217.85 51.47"/><polygon class="cls-46" points="217.86 51.47 217.04 50.06 217.86 48.65 219.48 48.65 220.29 50.06 219.48 51.47 217.86 51.47"/><polygon class="cls-46" points="217.86 51.46 217.05 50.06 217.86 48.66 219.48 48.66 220.29 50.06 219.48 51.46 217.86 51.46"/><polygon class="cls-46" points="217.86 51.46 217.06 50.06 217.86 48.66 219.48 48.66 220.28 50.06 219.48 51.46 217.86 51.46"/><polygon class="cls-47" points="217.86 51.45 217.06 50.06 217.86 48.66 219.47 48.66 220.28 50.06 219.47 51.45 217.86 51.45"/><polygon class="cls-47" points="217.87 51.45 217.06 50.06 217.87 48.67 219.47 48.67 220.28 50.06 219.47 51.45 217.87 51.45"/><polygon class="cls-48" points="217.87 51.44 217.07 50.06 217.87 48.67 219.47 48.67 220.27 50.06 219.47 51.44 217.87 51.44"/><polygon class="cls-48" points="217.87 51.44 217.07 50.06 217.87 48.68 219.47 48.68 220.26 50.06 219.47 51.44 217.87 51.44"/><polygon class="cls-48" points="217.87 51.44 217.08 50.06 217.87 48.68 219.47 48.68 220.26 50.06 219.47 51.44 217.87 51.44"/><polygon class="cls-48" points="217.88 51.43 217.08 50.06 217.88 48.68 219.46 48.68 220.26 50.06 219.46 51.43 217.88 51.43"/><polygon class="cls-49" points="217.88 51.43 217.09 50.06 217.88 48.69 219.46 48.69 220.25 50.06 219.46 51.43 217.88 51.43"/><polygon class="cls-50" points="217.88 51.42 217.09 50.06 217.88 48.69 219.46 48.69 220.25 50.06 219.46 51.42 217.88 51.42"/><polygon class="cls-50" points="217.88 51.42 217.1 50.06 217.88 48.7 219.46 48.7 220.24 50.06 219.46 51.42 217.88 51.42"/><polygon class="cls-50" points="217.89 51.41 217.1 50.06 217.89 48.7 219.45 48.7 220.24 50.06 219.45 51.41 217.89 51.41"/><polygon class="cls-50" points="217.89 51.41 217.11 50.06 217.89 48.7 219.45 48.7 220.23 50.06 219.45 51.41 217.89 51.41"/><polygon class="cls-51" points="217.89 51.41 217.11 50.06 217.89 48.71 219.45 48.71 220.23 50.06 219.45 51.41 217.89 51.41"/><polygon class="cls-51" points="217.89 51.4 217.12 50.06 217.89 48.71 219.45 48.71 220.22 50.06 219.45 51.4 217.89 51.4"/><polygon class="cls-52" points="217.9 51.4 217.12 50.06 217.9 48.72 219.44 48.72 220.22 50.06 219.44 51.4 217.9 51.4"/><polygon class="cls-52" points="217.9 51.4 217.13 50.06 217.9 48.72 219.44 48.72 220.21 50.06 219.44 51.4 217.9 51.4"/><polygon class="cls-52" points="217.9 51.39 217.13 50.06 217.9 48.73 219.44 48.73 220.21 50.06 219.44 51.39 217.9 51.39"/><polygon class="cls-53" points="217.9 51.39 217.14 50.06 217.9 48.73 219.44 48.73 220.2 50.06 219.44 51.39 217.9 51.39"/><polygon class="cls-53" points="217.91 51.38 217.14 50.06 217.91 48.73 219.43 48.73 220.2 50.06 219.43 51.38 217.91 51.38"/><polygon class="cls-53" points="217.91 51.38 217.15 50.06 217.91 48.74 219.43 48.74 220.19 50.06 219.43 51.38 217.91 51.38"/><polygon class="cls-54" points="217.91 51.37 217.15 50.06 217.91 48.74 219.43 48.74 220.19 50.06 219.43 51.37 217.91 51.37"/><polygon class="cls-54" points="217.91 51.37 217.16 50.06 217.91 48.75 219.43 48.75 220.18 50.06 219.43 51.37 217.91 51.37"/><polygon class="cls-55" points="217.91 51.37 217.16 50.06 217.91 48.75 219.42 48.75 220.18 50.06 219.42 51.37 217.91 51.37"/><polygon class="cls-55" points="217.92 51.36 217.16 50.06 217.92 48.76 219.42 48.76 220.18 50.06 219.42 51.36 217.92 51.36"/><polygon class="cls-55" points="217.92 51.36 217.17 50.06 217.92 48.76 219.42 48.76 220.17 50.06 219.42 51.36 217.92 51.36"/><polygon class="cls-55" points="217.92 51.35 217.17 50.06 217.92 48.76 219.42 48.76 220.16 50.06 219.42 51.35 217.92 51.35"/><polygon class="cls-56" points="217.92 51.35 217.18 50.06 217.92 48.77 219.41 48.77 220.16 50.06 219.41 51.35 217.92 51.35"/><polygon class="cls-57" points="217.93 51.34 217.18 50.06 217.93 48.77 219.41 48.77 220.16 50.06 219.41 51.34 217.93 51.34"/><polygon class="cls-57" points="217.93 51.34 217.19 50.06 217.93 48.77 219.41 48.77 220.15 50.06 219.41 51.34 217.93 51.34"/><polygon class="cls-57" points="217.93 51.34 217.19 50.06 217.93 48.78 219.41 48.78 220.15 50.06 219.41 51.34 217.93 51.34"/><polygon class="cls-57" points="217.93 51.33 217.2 50.06 217.93 48.78 219.41 48.78 220.14 50.06 219.41 51.33 217.93 51.33"/><polygon class="cls-58" points="217.94 51.33 217.2 50.06 217.94 48.79 219.4 48.79 220.14 50.06 219.4 51.33 217.94 51.33"/><polygon class="cls-58" points="217.94 51.32 217.21 50.06 217.94 48.79 219.4 48.79 220.13 50.06 219.4 51.32 217.94 51.32"/><polygon class="cls-59" points="217.94 51.32 217.21 50.06 217.94 48.8 219.4 48.8 220.13 50.06 219.4 51.32 217.94 51.32"/><polygon class="cls-59" points="217.94 51.32 217.22 50.06 217.94 48.8 219.4 48.8 220.12 50.06 219.4 51.32 217.94 51.32"/><polygon class="cls-59" points="217.94 51.31 217.22 50.06 217.94 48.8 219.39 48.8 220.12 50.06 219.39 51.31 217.94 51.31"/><polygon class="cls-60" points="217.95 51.31 217.23 50.06 217.95 48.81 219.39 48.81 220.11 50.06 219.39 51.31 217.95 51.31"/><polygon class="cls-60" points="217.95 51.3 217.23 50.06 217.95 48.81 219.39 48.81 220.11 50.06 219.39 51.3 217.95 51.3"/><polygon class="cls-60" points="217.95 51.3 217.24 50.06 217.95 48.82 219.39 48.82 220.1 50.06 219.39 51.3 217.95 51.3"/><polygon class="cls-60" points="217.96 51.3 217.24 50.06 217.96 48.82 219.38 48.82 220.1 50.06 219.38 51.3 217.96 51.3"/><polygon class="cls-61" points="217.96 51.29 217.25 50.06 217.96 48.83 219.38 48.83 220.09 50.06 219.38 51.29 217.96 51.29"/><polygon class="cls-61" points="217.96 51.29 217.25 50.06 217.96 48.83 219.38 48.83 220.09 50.06 219.38 51.29 217.96 51.29"/><polygon class="cls-61" points="217.96 51.28 217.25 50.06 217.96 48.83 219.38 48.83 220.08 50.06 219.38 51.28 217.96 51.28"/><polygon class="cls-61" points="217.97 51.28 217.26 50.06 217.97 48.84 219.37 48.84 220.08 50.06 219.37 51.28 217.97 51.28"/><polygon class="cls-61" points="217.97 51.27 217.26 50.06 217.97 48.84 219.37 48.84 220.07 50.06 219.37 51.27 217.97 51.27"/><polygon class="cls-62" points="217.97 51.27 217.27 50.06 217.97 48.85 219.37 48.85 220.07 50.06 219.37 51.27 217.97 51.27"/><polygon class="cls-63" points="217.97 51.27 217.27 50.06 217.97 48.85 219.37 48.85 220.06 50.06 219.37 51.27 217.97 51.27"/><polygon class="cls-63" points="217.97 51.26 217.28 50.06 217.97 48.85 219.37 48.85 220.06 50.06 219.37 51.26 217.97 51.26"/><polygon class="cls-63" points="217.98 51.26 217.28 50.06 217.98 48.86 219.36 48.86 220.06 50.06 219.36 51.26 217.98 51.26"/><polygon class="cls-63" points="217.98 51.25 217.29 50.06 217.98 48.86 219.36 48.86 220.05 50.06 219.36 51.25 217.98 51.25"/><polygon class="cls-64" points="217.98 51.25 217.29 50.06 217.98 48.87 219.36 48.87 220.05 50.06 219.36 51.25 217.98 51.25"/><polygon class="cls-64" points="217.98 51.25 217.3 50.06 217.98 48.87 219.35 48.87 220.04 50.06 219.35 51.25 217.98 51.25"/><polygon class="cls-64" points="217.99 51.24 217.3 50.06 217.99 48.88 219.35 48.88 220.04 50.06 219.35 51.24 217.99 51.24"/><polygon class="cls-65" points="217.99 51.24 217.31 50.06 217.99 48.88 219.35 48.88 220.03 50.06 219.35 51.24 217.99 51.24"/><polygon class="cls-66" points="217.99 51.23 217.31 50.06 217.99 48.88 219.35 48.88 220.03 50.06 219.35 51.23 217.99 51.23"/><polygon class="cls-66" points="217.99 51.23 217.32 50.06 217.99 48.89 219.35 48.89 220.02 50.06 219.35 51.23 217.99 51.23"/><polygon class="cls-66" points="218 51.23 217.32 50.06 218 48.89 219.34 48.89 220.02 50.06 219.34 51.23 218 51.23"/><polygon class="cls-66" points="218 51.22 217.33 50.06 218 48.9 219.34 48.9 220.01 50.06 219.34 51.22 218 51.22"/><polygon class="cls-66" points="218 51.22 217.33 50.06 218 48.9 219.34 48.9 220.01 50.06 219.34 51.22 218 51.22"/><polygon class="cls-67" points="218 51.21 217.34 50.06 218 48.9 219.34 48.9 220 50.06 219.34 51.21 218 51.21"/><polygon class="cls-67" points="218 51.21 217.34 50.06 218 48.91 219.33 48.91 220 50.06 219.33 51.21 218 51.21"/><polygon class="cls-67" points="218.01 51.2 217.35 50.06 218.01 48.91 219.33 48.91 219.99 50.06 219.33 51.2 218.01 51.2"/><polygon class="cls-67" points="218.01 51.2 217.35 50.06 218.01 48.92 219.33 48.92 219.99 50.06 219.33 51.2 218.01 51.2"/><polygon class="cls-67" points="218.01 51.2 217.35 50.06 218.01 48.92 219.33 48.92 219.98 50.06 219.33 51.2 218.01 51.2"/><polygon class="cls-68" points="218.01 51.19 217.36 50.06 218.01 48.92 219.32 48.92 219.98 50.06 219.32 51.19 218.01 51.19"/><polygon class="cls-69" points="218.02 51.19 217.37 50.06 218.02 48.93 219.32 48.93 219.97 50.06 219.32 51.19 218.02 51.19"/><polygon class="cls-69" points="218.02 51.18 217.37 50.06 218.02 48.93 219.32 48.93 219.97 50.06 219.32 51.18 218.02 51.18"/><polygon class="cls-69" points="218.02 51.18 217.37 50.06 218.02 48.94 219.32 48.94 219.97 50.06 219.32 51.18 218.02 51.18"/><polygon class="cls-70" points="218.02 51.18 217.38 50.06 218.02 48.94 219.31 48.94 219.96 50.06 219.31 51.18 218.02 51.18"/><polygon class="cls-70" points="218.03 51.17 217.38 50.06 218.03 48.95 219.31 48.95 219.96 50.06 219.31 51.17 218.03 51.17"/><polygon class="cls-70" points="218.03 51.17 217.39 50.06 218.03 48.95 219.31 48.95 219.95 50.06 219.31 51.17 218.03 51.17"/><polygon class="cls-70" points="218.03 51.16 217.39 50.06 218.03 48.95 219.31 48.95 219.94 50.06 219.31 51.16 218.03 51.16"/><polygon class="cls-71" points="218.03 51.16 217.4 50.06 218.03 48.96 219.31 48.96 219.94 50.06 219.31 51.16 218.03 51.16"/><polygon class="cls-72" points="218.04 51.16 217.4 50.06 218.04 48.96 219.3 48.96 219.94 50.06 219.3 51.16 218.04 51.16"/><polygon class="cls-72" points="218.04 51.15 217.41 50.06 218.04 48.97 219.3 48.97 219.93 50.06 219.3 51.15 218.04 51.15"/><polygon class="cls-72" points="218.04 51.15 217.41 50.06 218.04 48.97 219.3 48.97 219.93 50.06 219.3 51.15 218.04 51.15"/><polygon class="cls-72" points="218.04 51.14 217.42 50.06 218.04 48.97 219.3 48.97 219.92 50.06 219.3 51.14 218.04 51.14"/><polygon class="cls-72" points="218.05 51.14 217.42 50.06 218.05 48.98 219.29 48.98 219.92 50.06 219.29 51.14 218.05 51.14"/><polygon class="cls-73" points="218.05 51.13 217.43 50.06 218.05 48.98 219.29 48.98 219.91 50.06 219.29 51.13 218.05 51.13"/><polygon class="cls-73" points="218.05 51.13 217.43 50.06 218.05 48.99 219.29 48.99 219.91 50.06 219.29 51.13 218.05 51.13"/><polygon class="cls-73" points="218.05 51.13 217.44 50.06 218.05 48.99 219.29 48.99 219.9 50.06 219.29 51.13 218.05 51.13"/><polygon class="cls-73" points="218.06 51.12 217.44 50.06 218.06 48.99 219.28 48.99 219.9 50.06 219.28 51.12 218.06 51.12"/><polygon class="cls-74" points="218.06 51.12 217.45 50.06 218.06 49 219.28 49 219.89 50.06 219.28 51.12 218.06 51.12"/><polygon class="cls-74" points="218.06 51.11 217.45 50.06 218.06 49 219.28 49 219.89 50.06 219.28 51.11 218.06 51.11"/><polygon class="cls-74" points="218.06 51.11 217.46 50.06 218.06 49.01 219.28 49.01 219.88 50.06 219.28 51.11 218.06 51.11"/><polygon class="cls-75" points="218.06 51.1 217.46 50.06 218.06 49.01 219.27 49.01 219.88 50.06 219.27 51.1 218.06 51.1"/><polygon class="cls-75" points="218.07 51.1 217.47 50.06 218.07 49.02 219.27 49.02 219.87 50.06 219.27 51.1 218.07 51.1"/><polygon class="cls-76" points="218.07 51.1 217.47 50.06 218.07 49.02 219.27 49.02 219.87 50.06 219.27 51.1 218.07 51.1"/><polygon class="cls-76" points="218.07 51.09 217.47 50.06 218.07 49.02 219.27 49.02 219.86 50.06 219.27 51.09 218.07 51.09"/><polygon class="cls-76" points="218.07 51.09 217.48 50.06 218.07 49.03 219.26 49.03 219.86 50.06 219.26 51.09 218.07 51.09"/><polygon class="cls-76" points="218.08 51.09 217.48 50.06 218.08 49.03 219.26 49.03 219.85 50.06 219.26 51.09 218.08 51.09"/><polygon class="cls-77" points="218.08 51.08 217.49 50.06 218.08 49.04 219.26 49.04 219.85 50.06 219.26 51.08 218.08 51.08"/><polygon class="cls-78" points="218.08 51.08 217.49 50.06 218.08 49.04 219.26 49.04 219.84 50.06 219.26 51.08 218.08 51.08"/><polygon class="cls-78" points="218.08 51.07 217.5 50.06 218.08 49.04 219.25 49.04 219.84 50.06 219.25 51.07 218.08 51.07"/><polygon class="cls-78" points="218.09 51.07 217.5 50.06 218.09 49.05 219.25 49.05 219.84 50.06 219.25 51.07 218.09 51.07"/><polygon class="cls-78" points="218.09 51.06 217.51 50.06 218.09 49.05 219.25 49.05 219.83 50.06 219.25 51.06 218.09 51.06"/><polygon class="cls-79" points="218.09 51.06 217.51 50.06 218.09 49.06 219.25 49.06 219.83 50.06 219.25 51.06 218.09 51.06"/><polygon class="cls-79" points="218.09 51.06 217.52 50.06 218.09 49.06 219.25 49.06 219.82 50.06 219.25 51.06 218.09 51.06"/><polygon class="cls-80" points="218.1 51.05 217.52 50.06 218.1 49.06 219.24 49.06 219.82 50.06 219.24 51.05 218.1 51.05"/><polygon class="cls-80" points="218.1 51.05 217.53 50.06 218.1 49.07 219.24 49.07 219.81 50.06 219.24 51.05 218.1 51.05"/><polygon class="cls-80" points="218.1 51.04 217.53 50.06 218.1 49.07 219.24 49.07 219.81 50.06 219.24 51.04 218.1 51.04"/><polygon class="cls-81" points="218.1 51.04 217.54 50.06 218.1 49.08 219.24 49.08 219.8 50.06 219.24 51.04 218.1 51.04"/><polygon class="cls-81" points="218.1 51.03 217.54 50.06 218.1 49.08 219.23 49.08 219.8 50.06 219.23 51.03 218.1 51.03"/><polygon class="cls-81" points="218.11 51.03 217.55 50.06 218.11 49.09 219.23 49.09 219.79 50.06 219.23 51.03 218.11 51.03"/><polygon class="cls-82" points="218.11 51.03 217.55 50.06 218.11 49.09 219.23 49.09 219.79 50.06 219.23 51.03 218.11 51.03"/><polygon class="cls-82" points="218.11 51.02 217.56 50.06 218.11 49.09 219.23 49.09 219.78 50.06 219.23 51.02 218.11 51.02"/><polygon class="cls-83" points="218.12 51.02 217.56 50.06 218.12 49.1 219.22 49.1 219.78 50.06 219.22 51.02 218.12 51.02"/><polygon class="cls-83" points="218.12 51.02 217.56 50.06 218.12 49.1 219.22 49.1 219.77 50.06 219.22 51.02 218.12 51.02"/><polygon class="cls-83" points="218.12 51.01 217.57 50.06 218.12 49.11 219.22 49.11 219.77 50.06 219.22 51.01 218.12 51.01"/><polygon class="cls-83" points="218.12 51.01 217.57 50.06 218.12 49.11 219.22 49.11 219.76 50.06 219.22 51.01 218.12 51.01"/><polygon class="cls-84" points="218.12 51 217.58 50.06 218.12 49.11 219.21 49.11 219.76 50.06 219.21 51 218.12 51"/><polygon class="cls-85" points="218.13 51 217.58 50.06 218.13 49.12 219.21 49.12 219.75 50.06 219.21 51 218.13 51"/><polygon class="cls-85" points="218.13 50.99 217.59 50.06 218.13 49.12 219.21 49.12 219.75 50.06 219.21 50.99 218.13 50.99"/><polygon class="cls-85" points="218.13 50.99 217.59 50.06 218.13 49.13 219.21 49.13 219.75 50.06 219.21 50.99 218.13 50.99"/><polygon class="cls-85" points="218.13 50.99 217.6 50.06 218.13 49.13 219.21 49.13 219.74 50.06 219.21 50.99 218.13 50.99"/><polygon class="cls-86" points="218.14 50.98 217.6 50.06 218.14 49.13 219.2 49.13 219.74 50.06 219.2 50.98 218.14 50.98"/><polygon class="cls-86" points="218.14 50.98 217.61 50.06 218.14 49.14 219.2 49.14 219.73 50.06 219.2 50.98 218.14 50.98"/><polygon class="cls-87" points="218.14 50.97 217.61 50.06 218.14 49.14 219.2 49.14 219.73 50.06 219.2 50.97 218.14 50.97"/><polygon class="cls-87" points="218.14 50.97 217.62 50.06 218.14 49.15 219.19 49.15 219.72 50.06 219.19 50.97 218.14 50.97"/><polygon class="cls-87" points="218.15 50.97 217.62 50.06 218.15 49.15 219.19 49.15 219.72 50.06 219.19 50.97 218.15 50.97"/><polygon class="cls-88" points="218.15 50.96 217.63 50.06 218.15 49.16 219.19 49.16 219.71 50.06 219.19 50.96 218.15 50.96"/><polygon class="cls-88" points="218.15 50.96 217.63 50.06 218.15 49.16 219.19 49.16 219.71 50.06 219.19 50.96 218.15 50.96"/><polygon class="cls-88" points="218.15 50.95 217.64 50.06 218.15 49.16 219.19 49.16 219.7 50.06 219.19 50.95 218.15 50.95"/><polygon class="cls-88" points="218.16 50.95 217.64 50.06 218.16 49.17 219.18 49.17 219.7 50.06 219.18 50.95 218.16 50.95"/><polygon class="cls-89" points="218.16 50.94 217.65 50.06 218.16 49.17 219.18 49.17 219.69 50.06 219.18 50.94 218.16 50.94"/><polygon class="cls-89" points="218.16 50.94 217.65 50.06 218.16 49.18 219.18 49.18 219.69 50.06 219.18 50.94 218.16 50.94"/><polygon class="cls-89" points="218.16 50.94 217.66 50.06 218.16 49.18 219.18 49.18 219.68 50.06 219.18 50.94 218.16 50.94"/><polygon class="cls-89" points="218.16 50.93 217.66 50.06 218.16 49.18 219.17 49.18 219.68 50.06 219.17 50.93 218.16 50.93"/><polygon class="cls-89" points="218.17 50.93 217.66 50.06 218.17 49.19 219.17 49.19 219.67 50.06 219.17 50.93 218.17 50.93"/><polygon class="cls-90" points="218.17 50.92 217.67 50.06 218.17 49.19 219.17 49.19 219.67 50.06 219.17 50.92 218.17 50.92"/><polygon class="cls-91" points="218.17 50.92 217.68 50.06 218.17 49.2 219.17 49.2 219.66 50.06 219.17 50.92 218.17 50.92"/><polygon class="cls-91" points="218.18 50.91 217.68 50.06 218.18 49.2 219.16 49.2 219.66 50.06 219.16 50.91 218.18 50.91"/><polygon class="cls-91" points="218.18 50.91 217.68 50.06 218.18 49.2 219.16 49.2 219.65 50.06 219.16 50.91 218.18 50.91"/><polygon class="cls-91" points="218.18 50.91 217.69 50.06 218.18 49.21 219.16 49.21 219.65 50.06 219.16 50.91 218.18 50.91"/><polygon class="cls-92" points="218.18 50.9 217.69 50.06 218.18 49.21 219.16 49.21 219.65 50.06 219.16 50.9 218.18 50.9"/><polygon class="cls-92" points="218.18 50.9 217.7 50.06 218.18 49.22 219.16 49.22 219.64 50.06 219.16 50.9 218.18 50.9"/><polygon class="cls-92" points="218.19 50.9 217.7 50.06 218.19 49.22 219.15 49.22 219.63 50.06 219.15 50.9 218.19 50.9"/><polygon class="cls-93" points="218.19 50.89 217.71 50.06 218.19 49.23 219.15 49.23 219.63 50.06 219.15 50.89 218.19 50.89"/><polygon class="cls-94" points="218.19 50.89 217.71 50.06 218.19 49.23 219.15 49.23 219.63 50.06 219.15 50.89 218.19 50.89"/><polygon class="cls-94" points="218.19 50.88 217.72 50.06 218.19 49.23 219.15 49.23 219.62 50.06 219.15 50.88 218.19 50.88"/><polygon class="cls-94" points="218.2 50.88 217.72 50.06 218.2 49.24 219.14 49.24 219.62 50.06 219.14 50.88 218.2 50.88"/><polygon class="cls-94" points="218.2 50.87 217.73 50.06 218.2 49.24 219.14 49.24 219.61 50.06 219.14 50.87 218.2 50.87"/><polygon class="cls-94" points="218.2 50.87 217.73 50.06 218.2 49.25 219.14 49.25 219.61 50.06 219.14 50.87 218.2 50.87"/><polygon class="cls-95" points="218.2 50.87 217.74 50.06 218.2 49.25 219.14 49.25 219.6 50.06 219.14 50.87 218.2 50.87"/><polygon class="cls-95" points="218.21 50.86 217.74 50.06 218.21 49.26 219.13 49.26 219.6 50.06 219.13 50.86 218.21 50.86"/><polygon class="cls-95" points="218.21 50.86 217.75 50.06 218.21 49.26 219.13 49.26 219.59 50.06 219.13 50.86 218.21 50.86"/><polygon class="cls-95" points="218.21 50.85 217.75 50.06 218.21 49.26 219.13 49.26 219.59 50.06 219.13 50.85 218.21 50.85"/><polygon class="cls-95" points="218.21 50.85 217.76 50.06 218.21 49.27 219.13 49.27 219.58 50.06 219.13 50.85 218.21 50.85"/><polygon class="cls-96" points="218.22 50.84 217.76 50.06 218.22 49.27 219.12 49.27 219.58 50.06 219.12 50.84 218.22 50.84"/><polygon class="cls-96" points="218.22 50.84 217.77 50.06 218.22 49.27 219.12 49.27 219.57 50.06 219.12 50.84 218.22 50.84"/><polygon class="cls-97" points="218.22 50.84 217.77 50.06 218.22 49.28 219.12 49.28 219.57 50.06 219.12 50.84 218.22 50.84"/><polygon class="cls-97" points="218.22 50.83 217.78 50.06 218.22 49.28 219.12 49.28 219.56 50.06 219.12 50.83 218.22 50.83"/><polygon class="cls-98" points="218.22 50.83 217.78 50.06 218.22 49.29 219.11 49.29 219.56 50.06 219.11 50.83 218.22 50.83"/><polygon class="cls-98" points="218.23 50.82 217.78 50.06 218.23 49.29 219.11 49.29 219.55 50.06 219.11 50.82 218.23 50.82"/><polygon class="cls-98" points="218.23 50.82 217.79 50.06 218.23 49.3 219.11 49.3 219.55 50.06 219.11 50.82 218.23 50.82"/><polygon class="cls-98" points="218.23 50.82 217.79 50.06 218.23 49.3 219.11 49.3 219.54 50.06 219.11 50.82 218.23 50.82"/><polygon class="cls-99" points="218.23 50.81 217.8 50.06 218.23 49.3 219.1 49.3 219.54 50.06 219.1 50.81 218.23 50.81"/><polygon class="cls-100" points="218.24 50.81 217.8 50.06 218.24 49.31 219.1 49.31 219.53 50.06 219.1 50.81 218.24 50.81"/><polygon class="cls-100" points="218.24 50.8 217.81 50.06 218.24 49.31 219.1 49.31 219.53 50.06 219.1 50.8 218.24 50.8"/><polygon class="cls-100" points="218.24 50.8 217.81 50.06 218.24 49.32 219.1 49.32 219.53 50.06 219.1 50.8 218.24 50.8"/></g><path class="cls-14" d="M223.92,58.19h-1.37V15.39A5.84,5.84,0,0,0,221,11.56l-11.65-10c-.22-.19-.35-.22-.37-.21s-.26.33-.26,1v9.7l-1,.15-.31-.53V2.4c0-1.56.66-2.09,1-2.27a1.63,1.63,0,0,1,1.83.41l11.65,10a7.11,7.11,0,0,1,2,4.87Z"/><path class="cls-14" d="M39.53,81.66H38.16V38.87A5.85,5.85,0,0,0,36.64,35L25,25.05c-.22-.18-.35-.21-.38-.2s-.25.33-.25,1V27L23,28V25.88c0-1.56.66-2.1,1.05-2.28a1.64,1.64,0,0,1,1.83.41L37.53,34a7.11,7.11,0,0,1,2,4.87Z"/></g></g></g></svg>