<svg xmlns="http://www.w3.org/2000/svg" xmlns:xlink="http://www.w3.org/1999/xlink" viewBox="0 0 265.21 207.39"><defs><style>.cls-1{isolation:isolate;}.cls-2{fill:url(#未命名的渐变_8);}.cls-26,.cls-27,.cls-28,.cls-29,.cls-3,.cls-30,.cls-31,.cls-32,.cls-33,.cls-34,.cls-35,.cls-36,.cls-37,.cls-38,.cls-39,.cls-4,.cls-40,.cls-41,.cls-42,.cls-43,.cls-44,.cls-45,.cls-5,.cls-58,.cls-59,.cls-61,.cls-62,.cls-65,.cls-66,.cls-68,.cls-69,.cls-71,.cls-72,.cls-74,.cls-75,.cls-77,.cls-78,.cls-80,.cls-81,.cls-83,.cls-84,.cls-86,.cls-87,.cls-89,.cls-90{mix-blend-mode:multiply;}.cls-3{fill:url(#未命名的渐变_8-2);}.cls-4{fill:url(#未命名的渐变_8-3);}.cls-6{fill:url(#未命名的渐变_13);}.cls-7{fill:url(#未命名的渐变_13-2);}.cls-8{fill:url(#未命名的渐变_13-3);}.cls-9{fill:url(#未命名的渐变_13-4);}.cls-10{fill:url(#未命名的渐变_13-5);}.cls-11{fill:url(#未命名的渐变_13-6);}.cls-12{fill:url(#未命名的渐变_13-7);}.cls-13{fill:url(#未命名的渐变_13-8);}.cls-14{fill:url(#未命名的渐变_13-9);}.cls-15{fill:url(#未命名的渐变_13-10);}.cls-16{fill:url(#未命名的渐变_13-11);}.cls-17{fill:url(#未命名的渐变_13-12);}.cls-18{fill:url(#未命名的渐变_13-13);}.cls-19{fill:url(#未命名的渐变_13-14);}.cls-20{fill:url(#未命名的渐变_13-15);}.cls-21{fill:url(#未命名的渐变_13-16);}.cls-22{fill:url(#未命名的渐变_13-17);}.cls-23{fill:url(#未命名的渐变_13-18);}.cls-24{fill:url(#未命名的渐变_13-19);}.cls-25{fill:url(#未命名的渐变_13-20);}.cls-26{fill:url(#未命名的渐变_13-21);}.cls-27{fill:url(#未命名的渐变_13-22);}.cls-28{fill:url(#未命名的渐变_13-23);}.cls-29{fill:url(#未命名的渐变_13-24);}.cls-30{fill:url(#未命名的渐变_13-25);}.cls-31{fill:url(#未命名的渐变_13-26);}.cls-32{fill:url(#未命名的渐变_13-27);}.cls-33{fill:url(#未命名的渐变_13-28);}.cls-34{fill:url(#未命名的渐变_13-29);}.cls-35{fill:url(#未命名的渐变_13-30);}.cls-36{fill:url(#未命名的渐变_13-31);}.cls-37{fill:url(#未命名的渐变_13-32);}.cls-38{fill:url(#未命名的渐变_13-33);}.cls-39{fill:url(#未命名的渐变_13-34);}.cls-40{fill:url(#未命名的渐变_13-35);}.cls-41{fill:url(#未命名的渐变_13-36);}.cls-42{fill:url(#未命名的渐变_13-37);}.cls-43{fill:url(#未命名的渐变_13-38);}.cls-44{fill:url(#未命名的渐变_13-39);}.cls-45{fill:url(#未命名的渐变_13-40);}.cls-46{fill:#2cade2;}.cls-47{fill:url(#未命名的渐变_8-4);}.cls-48{fill:url(#未命名的渐变_8-5);}.cls-49{fill:url(#未命名的渐变_8-6);}.cls-50{fill:url(#未命名的渐变_8-7);}.cls-51{fill:url(#未命名的渐变_8-8);}.cls-52{fill:url(#未命名的渐变_8-9);}.cls-53{fill:url(#未命名的渐变_8-10);}.cls-54{fill:url(#未命名的渐变_8-11);}.cls-55{fill:url(#未命名的渐变_8-12);}.cls-56{fill:url(#未命名的渐变_8-13);}.cls-57,.cls-60,.cls-64,.cls-67,.cls-70,.cls-73,.cls-76,.cls-79,.cls-82,.cls-85,.cls-88{mix-blend-mode:screen;}.cls-57{fill:url(#未命名的渐变_8-14);}.cls-58{fill:url(#未命名的渐变_8-15);}.cls-59{fill:url(#未命名的渐变_8-16);}.cls-60{fill:url(#未命名的渐变_8-17);}.cls-61{fill:url(#未命名的渐变_8-18);}.cls-62{fill:url(#未命名的渐变_8-19);}.cls-63{fill:url(#未命名的渐变_8-20);}.cls-64{fill:url(#未命名的渐变_8-21);}.cls-65{fill:url(#未命名的渐变_8-22);}.cls-66{fill:url(#未命名的渐变_8-23);}.cls-67{fill:url(#未命名的渐变_8-24);}.cls-68{fill:url(#未命名的渐变_8-25);}.cls-69{fill:url(#未命名的渐变_8-26);}.cls-70{fill:url(#未命名的渐变_8-27);}.cls-71{fill:url(#未命名的渐变_8-28);}.cls-72{fill:url(#未命名的渐变_8-29);}.cls-73{fill:url(#未命名的渐变_8-30);}.cls-74{fill:url(#未命名的渐变_8-31);}.cls-75{fill:url(#未命名的渐变_8-32);}.cls-76{fill:url(#未命名的渐变_8-33);}.cls-77{fill:url(#未命名的渐变_8-34);}.cls-78{fill:url(#未命名的渐变_8-35);}.cls-79{fill:url(#未命名的渐变_8-36);}.cls-80{fill:url(#未命名的渐变_8-37);}.cls-81{fill:url(#未命名的渐变_8-38);}.cls-82{fill:url(#未命名的渐变_8-39);}.cls-83{fill:url(#未命名的渐变_8-40);}.cls-84{fill:url(#未命名的渐变_8-41);}.cls-85{fill:url(#未命名的渐变_8-42);}.cls-86{fill:url(#未命名的渐变_8-43);}.cls-87{fill:url(#未命名的渐变_8-44);}.cls-88{fill:url(#未命名的渐变_8-45);}.cls-89{fill:url(#未命名的渐变_8-46);}.cls-90{fill:url(#未命名的渐变_8-47);}.cls-91{fill:#591f14;}.cls-92{fill:#d3a554;}.cls-93{fill:#fff;}</style><linearGradient id="未命名的渐变_8" x1="29.68" y1="125.63" x2="37.82" y2="125.63" gradientUnits="userSpaceOnUse"><stop offset="0" stop-color="#cd974e"/><stop offset="0.51" stop-color="#ecd5b2"/><stop offset="1" stop-color="#995624"/></linearGradient><linearGradient id="未命名的渐变_8-2" x1="31.89" y1="125.29" x2="37.82" y2="125.29" xlink:href="#未命名的渐变_8"/><linearGradient id="未命名的渐变_8-3" x1="34.91" y1="124.81" x2="37.82" y2="124.81" xlink:href="#未命名的渐变_8"/><linearGradient id="未命名的渐变_13" x1="3586.26" y1="-15.77" x2="3621.35" y2="-15.77" gradientTransform="translate(94.23 3705.59) rotate(-90)" gradientUnits="userSpaceOnUse"><stop offset="0" stop-color="#cd974e"/><stop offset="0.5" stop-color="#995624"/><stop offset="1" stop-color="#ecd5b2"/></linearGradient><linearGradient id="未命名的渐变_13-2" x1="3586.26" y1="1.93" x2="3621.35" y2="1.93" xlink:href="#未命名的渐变_13"/><linearGradient id="未命名的渐变_13-3" x1="3586.26" y1="19.63" x2="3621.35" y2="19.63" xlink:href="#未命名的渐变_13"/><linearGradient id="未命名的渐变_13-4" x1="3586.26" y1="37.33" x2="3621.35" y2="37.33" xlink:href="#未命名的渐变_13"/><linearGradient id="未命名的渐变_13-5" x1="3586.26" y1="55.02" x2="3621.35" y2="55.02" xlink:href="#未命名的渐变_13"/><linearGradient id="未命名的渐变_13-6" x1="3586.26" y1="72.72" x2="3621.35" y2="72.72" xlink:href="#未命名的渐变_13"/><linearGradient id="未命名的渐变_13-7" x1="3586.26" y1="90.42" x2="3621.35" y2="90.42" xlink:href="#未命名的渐变_13"/><linearGradient id="未命名的渐变_13-8" x1="3586.26" y1="108.12" x2="3621.35" y2="108.12" xlink:href="#未命名的渐变_13"/><linearGradient id="未命名的渐变_13-9" x1="3586.26" y1="-39.08" x2="3621.35" y2="-39.08" xlink:href="#未命名的渐变_13"/><linearGradient id="未命名的渐变_13-10" x1="3586.26" y1="131.39" x2="3621.35" y2="131.39" xlink:href="#未命名的渐变_13"/><linearGradient id="未命名的渐变_13-11" x1="78.47" y1="133.79" x2="78.47" y2="69.78" gradientTransform="matrix(1, 0, 0, 1, 0, 0)" xlink:href="#未命名的渐变_13"/><linearGradient id="未命名的渐变_13-12" x1="96.16" y1="133.79" x2="96.16" y2="69.78" gradientTransform="matrix(1, 0, 0, 1, 0, 0)" xlink:href="#未命名的渐变_13"/><linearGradient id="未命名的渐变_13-13" x1="113.86" y1="133.79" x2="113.86" y2="69.78" gradientTransform="matrix(1, 0, 0, 1, 0, 0)" xlink:href="#未命名的渐变_13"/><linearGradient id="未命名的渐变_13-14" x1="131.56" y1="133.79" x2="131.56" y2="69.78" gradientTransform="matrix(1, 0, 0, 1, 0, 0)" xlink:href="#未命名的渐变_13"/><linearGradient id="未命名的渐变_13-15" x1="149.26" y1="133.79" x2="149.26" y2="69.78" gradientTransform="matrix(1, 0, 0, 1, 0, 0)" xlink:href="#未命名的渐变_13"/><linearGradient id="未命名的渐变_13-16" x1="166.95" y1="133.79" x2="166.95" y2="69.78" gradientTransform="matrix(1, 0, 0, 1, 0, 0)" xlink:href="#未命名的渐变_13"/><linearGradient id="未命名的渐变_13-17" x1="184.65" y1="133.79" x2="184.65" y2="69.78" gradientTransform="matrix(1, 0, 0, 1, 0, 0)" xlink:href="#未命名的渐变_13"/><linearGradient id="未命名的渐变_13-18" x1="202.35" y1="133.79" x2="202.35" y2="69.78" gradientTransform="matrix(1, 0, 0, 1, 0, 0)" xlink:href="#未命名的渐变_13"/><linearGradient id="未命名的渐变_13-19" x1="55.48" y1="131.02" x2="55.48" y2="69.78" gradientTransform="matrix(1, 0, 0, 1, 0, 0)" xlink:href="#未命名的渐变_13"/><linearGradient id="未命名的渐变_13-20" x1="225.3" y1="133.79" x2="225.3" y2="72.54" gradientTransform="matrix(1, 0, 0, 1, 0, 0)" xlink:href="#未命名的渐变_13"/><linearGradient id="未命名的渐变_13-21" x1="59.43" y1="127.83" x2="59.43" y2="69.78" gradientTransform="matrix(1, 0, 0, 1, 0, 0)" xlink:href="#未命名的渐变_13"/><linearGradient id="未命名的渐变_13-22" x1="59.03" y1="127.83" x2="59.03" y2="73.75" gradientTransform="matrix(1, 0, 0, 1, 0, 0)" xlink:href="#未命名的渐变_13"/><linearGradient id="未命名的渐变_13-23" x1="79.39" y1="129.87" x2="79.39" y2="69.78" gradientTransform="matrix(1, 0, 0, 1, 0, 0)" xlink:href="#未命名的渐变_13"/><linearGradient id="未命名的渐变_13-24" x1="79.61" y1="129.87" x2="79.61" y2="74.74" gradientTransform="matrix(1, 0, 0, 1, 0, 0)" xlink:href="#未命名的渐变_13"/><linearGradient id="未命名的渐变_13-25" x1="97.15" y1="129.87" x2="97.15" y2="69.78" gradientTransform="matrix(1, 0, 0, 1, 0, 0)" xlink:href="#未命名的渐变_13"/><linearGradient id="未命名的渐变_13-26" x1="97.38" y1="129.87" x2="97.38" y2="74.74" gradientTransform="matrix(1, 0, 0, 1, 0, 0)" xlink:href="#未命名的渐变_13"/><linearGradient id="未命名的渐变_13-27" x1="114.79" y1="129.87" x2="114.79" y2="69.78" gradientTransform="matrix(1, 0, 0, 1, 0, 0)" xlink:href="#未命名的渐变_13"/><linearGradient id="未命名的渐变_13-28" x1="115.01" y1="129.87" x2="115.01" y2="74.74" gradientTransform="matrix(1, 0, 0, 1, 0, 0)" xlink:href="#未命名的渐变_13"/><linearGradient id="未命名的渐变_13-29" x1="132.48" y1="129.87" x2="132.48" y2="69.78" gradientTransform="matrix(1, 0, 0, 1, 0, 0)" xlink:href="#未命名的渐变_13"/><linearGradient id="未命名的渐变_13-30" x1="132.7" y1="129.87" x2="132.7" y2="74.74" gradientTransform="matrix(1, 0, 0, 1, 0, 0)" xlink:href="#未命名的渐变_13"/><linearGradient id="未命名的渐变_13-31" x1="150.18" y1="129.87" x2="150.18" y2="69.78" gradientTransform="matrix(1, 0, 0, 1, 0, 0)" xlink:href="#未命名的渐变_13"/><linearGradient id="未命名的渐变_13-32" x1="150.4" y1="129.87" x2="150.4" y2="74.74" gradientTransform="matrix(1, 0, 0, 1, 0, 0)" xlink:href="#未命名的渐变_13"/><linearGradient id="未命名的渐变_13-33" x1="167.88" y1="129.87" x2="167.88" y2="69.78" gradientTransform="matrix(1, 0, 0, 1, 0, 0)" xlink:href="#未命名的渐变_13"/><linearGradient id="未命名的渐变_13-34" x1="168.1" y1="129.87" x2="168.1" y2="74.74" gradientTransform="matrix(1, 0, 0, 1, 0, 0)" xlink:href="#未命名的渐变_13"/><linearGradient id="未命名的渐变_13-35" x1="185.58" y1="129.87" x2="185.58" y2="69.78" gradientTransform="matrix(1, 0, 0, 1, 0, 0)" xlink:href="#未命名的渐变_13"/><linearGradient id="未命名的渐变_13-36" x1="185.8" y1="129.87" x2="185.8" y2="74.74" gradientTransform="matrix(1, 0, 0, 1, 0, 0)" xlink:href="#未命名的渐变_13"/><linearGradient id="未命名的渐变_13-37" x1="203.27" y1="129.87" x2="203.27" y2="69.78" gradientTransform="matrix(1, 0, 0, 1, 0, 0)" xlink:href="#未命名的渐变_13"/><linearGradient id="未命名的渐变_13-38" x1="203.5" y1="129.87" x2="203.5" y2="74.74" gradientTransform="matrix(1, 0, 0, 1, 0, 0)" xlink:href="#未命名的渐变_13"/><linearGradient id="未命名的渐变_13-39" x1="229.09" y1="131.48" x2="229.09" y2="72.54" gradientTransform="matrix(1, 0, 0, 1, 0, 0)" xlink:href="#未命名的渐变_13"/><linearGradient id="未命名的渐变_13-40" x1="227.95" y1="130.6" x2="227.95" y2="75.9" gradientTransform="matrix(1, 0, 0, 1, 0, 0)" xlink:href="#未命名的渐变_13"/><linearGradient id="未命名的渐变_8-4" x1="57.99" y1="101.78" x2="81.16" y2="101.78" xlink:href="#未命名的渐变_8"/><linearGradient id="未命名的渐变_8-5" x1="75.7" y1="101.78" x2="98.88" y2="101.78" xlink:href="#未命名的渐变_8"/><linearGradient id="未命名的渐变_8-6" x1="227.62" y1="125.63" x2="235.77" y2="125.63" xlink:href="#未命名的渐变_8"/><linearGradient id="未命名的渐变_8-7" x1="93.4" y1="101.78" x2="116.58" y2="101.78" xlink:href="#未命名的渐变_8"/><linearGradient id="未命名的渐变_8-8" x1="111.1" y1="101.78" x2="134.28" y2="101.78" xlink:href="#未命名的渐变_8"/><linearGradient id="未命名的渐变_8-9" x1="128.8" y1="101.78" x2="151.98" y2="101.78" xlink:href="#未命名的渐变_8"/><linearGradient id="未命名的渐变_8-10" x1="146.5" y1="101.78" x2="169.67" y2="101.78" xlink:href="#未命名的渐变_8"/><linearGradient id="未命名的渐变_8-11" x1="164.19" y1="101.78" x2="187.37" y2="101.78" xlink:href="#未命名的渐变_8"/><linearGradient id="未命名的渐变_8-12" x1="181.89" y1="101.78" x2="205.07" y2="101.78" xlink:href="#未命名的渐变_8"/><linearGradient id="未命名的渐变_8-13" x1="199.59" y1="101.78" x2="222.77" y2="101.78" xlink:href="#未命名的渐变_8"/><linearGradient id="未命名的渐变_8-14" x1="227.62" y1="127.3" x2="233.39" y2="127.3" xlink:href="#未命名的渐变_8"/><linearGradient id="未命名的渐变_8-15" x1="229.84" y1="125.29" x2="235.77" y2="125.29" xlink:href="#未命名的渐变_8"/><linearGradient id="未命名的渐变_8-16" x1="232.86" y1="124.81" x2="235.77" y2="124.81" xlink:href="#未命名的渐变_8"/><linearGradient id="未命名的渐变_8-17" x1="57.99" y1="103.77" x2="80.31" y2="103.77" xlink:href="#未命名的渐变_8"/><linearGradient id="未命名的渐变_8-18" x1="59.52" y1="100.82" x2="81.16" y2="100.82" xlink:href="#未命名的渐变_8"/><linearGradient id="未命名的渐变_8-19" x1="61.74" y1="99.92" x2="81.16" y2="99.92" xlink:href="#未命名的渐变_8"/><linearGradient id="未命名的渐变_8-20" x1="29.82" y1="101.78" x2="53" y2="101.78" xlink:href="#未命名的渐变_8"/><linearGradient id="未命名的渐变_8-21" x1="29.82" y1="103.77" x2="52.14" y2="103.77" xlink:href="#未命名的渐变_8"/><linearGradient id="未命名的渐变_8-22" x1="31.35" y1="100.82" x2="53" y2="100.82" xlink:href="#未命名的渐变_8"/><linearGradient id="未命名的渐变_8-23" x1="33.57" y1="99.92" x2="52.99" y2="99.92" xlink:href="#未命名的渐变_8"/><linearGradient id="未命名的渐变_8-24" x1="75.71" y1="103.77" x2="98.03" y2="103.77" xlink:href="#未命名的渐变_8"/><linearGradient id="未命名的渐变_8-25" x1="77.23" y1="100.82" x2="98.88" y2="100.82" xlink:href="#未命名的渐变_8"/><linearGradient id="未命名的渐变_8-26" x1="79.46" y1="99.92" x2="98.88" y2="99.92" xlink:href="#未命名的渐变_8"/><linearGradient id="未命名的渐变_8-27" x1="93.4" y1="103.77" x2="115.73" y2="103.77" xlink:href="#未命名的渐变_8"/><linearGradient id="未命名的渐变_8-28" x1="94.93" y1="100.82" x2="116.58" y2="100.82" xlink:href="#未命名的渐变_8"/><linearGradient id="未命名的渐变_8-29" x1="97.15" y1="99.92" x2="116.57" y2="99.92" xlink:href="#未命名的渐变_8"/><linearGradient id="未命名的渐变_8-30" x1="111.1" y1="103.77" x2="133.42" y2="103.77" xlink:href="#未命名的渐变_8"/><linearGradient id="未命名的渐变_8-31" x1="112.63" y1="100.82" x2="134.28" y2="100.82" xlink:href="#未命名的渐变_8"/><linearGradient id="未命名的渐变_8-32" x1="114.85" y1="99.92" x2="134.27" y2="99.92" xlink:href="#未命名的渐变_8"/><linearGradient id="未命名的渐变_8-33" x1="128.8" y1="103.77" x2="151.12" y2="103.77" xlink:href="#未命名的渐变_8"/><linearGradient id="未命名的渐变_8-34" x1="130.33" y1="100.82" x2="151.97" y2="100.82" xlink:href="#未命名的渐变_8"/><linearGradient id="未命名的渐变_8-35" x1="132.55" y1="99.92" x2="151.97" y2="99.92" xlink:href="#未命名的渐变_8"/><linearGradient id="未命名的渐变_8-36" x1="146.5" y1="103.77" x2="168.82" y2="103.77" xlink:href="#未命名的渐变_8"/><linearGradient id="未命名的渐变_8-37" x1="148.02" y1="100.82" x2="169.67" y2="100.82" xlink:href="#未命名的渐变_8"/><linearGradient id="未命名的渐变_8-38" x1="150.25" y1="99.92" x2="169.67" y2="99.92" xlink:href="#未命名的渐变_8"/><linearGradient id="未命名的渐变_8-39" x1="164.2" y1="103.77" x2="186.52" y2="103.77" xlink:href="#未命名的渐变_8"/><linearGradient id="未命名的渐变_8-40" x1="165.72" y1="100.82" x2="187.37" y2="100.82" xlink:href="#未命名的渐变_8"/><linearGradient id="未命名的渐变_8-41" x1="167.94" y1="99.92" x2="187.36" y2="99.92" xlink:href="#未命名的渐变_8"/><linearGradient id="未命名的渐变_8-42" x1="181.89" y1="103.77" x2="204.21" y2="103.77" xlink:href="#未命名的渐变_8"/><linearGradient id="未命名的渐变_8-43" x1="183.42" y1="100.82" x2="205.07" y2="100.82" xlink:href="#未命名的渐变_8"/><linearGradient id="未命名的渐变_8-44" x1="185.64" y1="99.92" x2="205.06" y2="99.92" xlink:href="#未命名的渐变_8"/><linearGradient id="未命名的渐变_8-45" x1="199.59" y1="103.77" x2="221.91" y2="103.77" xlink:href="#未命名的渐变_8"/><linearGradient id="未命名的渐变_8-46" x1="201.12" y1="100.82" x2="222.76" y2="100.82" xlink:href="#未命名的渐变_8"/><linearGradient id="未命名的渐变_8-47" x1="203.34" y1="99.92" x2="222.76" y2="99.92" xlink:href="#未命名的渐变_8"/></defs><title>放电间隙</title><g class="cls-1"><g id="图层_2" data-name="图层 2"><g id="图层_1-2" data-name="图层 1"><path class="cls-2" d="M29.68,76.62v98a4.07,4.07,0,1,0,8.14,0v-98a4.07,4.07,0,1,0-8.14,0Z"/><path class="cls-3" d="M31.89,73,36,178a4.06,4.06,0,0,0,1.84-3.4v-98A4,4,0,0,0,31.89,73Z"/><path class="cls-4" d="M37.14,176.88a4,4,0,0,0,.68-2.24v-98a4.06,4.06,0,0,0-2.91-3.89Z"/><g class="cls-5"><polygon class="cls-6" points="81.93 119.33 83.14 84.24 75 84.24 73.79 119.33 81.93 119.33"/><polygon class="cls-7" points="99.63 119.33 100.84 84.24 92.69 84.24 91.48 119.33 99.63 119.33"/><polygon class="cls-8" points="117.33 119.33 118.54 84.24 110.39 84.24 109.18 119.33 117.33 119.33"/><polygon class="cls-9" points="135.03 119.33 136.24 84.24 128.09 84.24 126.88 119.33 135.03 119.33"/><polygon class="cls-10" points="152.72 119.33 153.93 84.24 145.79 84.24 144.58 119.33 152.72 119.33"/><polygon class="cls-11" points="170.42 119.33 171.63 84.24 163.49 84.24 162.28 119.33 170.42 119.33"/><polygon class="cls-12" points="188.12 119.33 189.33 84.24 181.18 84.24 179.97 119.33 188.12 119.33"/><polygon class="cls-13" points="205.82 119.33 207.03 84.24 198.88 84.24 197.67 119.33 205.82 119.33"/><polygon class="cls-14" points="55.16 84.24 47 119.33 55.15 119.33 63.31 84.24 55.16 84.24"/><polygon class="cls-15" points="225.57 119.33 233.82 84.24 225.67 84.24 217.43 119.33 225.57 119.33"/></g><path class="cls-16" d="M73.43,129.84l1.93-56.15a4.07,4.07,0,0,1,4-3.91h.29a3.8,3.8,0,0,1,3.81,3.94l-1.94,56.15a4.07,4.07,0,0,1-4,3.92h-.28A3.79,3.79,0,0,1,73.43,129.84Z"/><path class="cls-17" d="M91.12,129.84l1.94-56.15a4.07,4.07,0,0,1,4-3.91h.28a3.78,3.78,0,0,1,3.81,3.94l-1.93,56.15a4.09,4.09,0,0,1-4,3.92h-.29A3.8,3.8,0,0,1,91.12,129.84Z"/><path class="cls-18" d="M108.82,129.84l1.94-56.15a4.07,4.07,0,0,1,4-3.91h.29a3.78,3.78,0,0,1,3.81,3.94L117,129.87a4.09,4.09,0,0,1-4,3.92h-.29A3.79,3.79,0,0,1,108.82,129.84Z"/><path class="cls-19" d="M126.52,129.84l1.93-56.15a4.08,4.08,0,0,1,4.05-3.91h.29a3.79,3.79,0,0,1,3.81,3.94l-1.94,56.15a4.07,4.07,0,0,1-4,3.92h-.29A3.79,3.79,0,0,1,126.52,129.84Z"/><path class="cls-20" d="M144.22,129.84l1.93-56.15a4.08,4.08,0,0,1,4-3.91h.29a3.8,3.8,0,0,1,3.81,3.94l-1.94,56.15a4.07,4.07,0,0,1-4.05,3.92H148A3.79,3.79,0,0,1,144.22,129.84Z"/><path class="cls-21" d="M161.91,129.84l1.94-56.15a4.07,4.07,0,0,1,4.05-3.91h.28A3.78,3.78,0,0,1,172,73.72l-1.93,56.15a4.07,4.07,0,0,1-4.05,3.92h-.29A3.8,3.8,0,0,1,161.91,129.84Z"/><path class="cls-22" d="M179.61,129.84l1.94-56.15a4.07,4.07,0,0,1,4-3.91h.28a3.78,3.78,0,0,1,3.81,3.94l-1.93,56.15a4.09,4.09,0,0,1-4,3.92h-.29A3.8,3.8,0,0,1,179.61,129.84Z"/><path class="cls-23" d="M197.31,129.84l1.93-56.15a4.08,4.08,0,0,1,4-3.91h.29a3.79,3.79,0,0,1,3.81,3.94l-1.93,56.15a4.09,4.09,0,0,1-4.05,3.92h-.29A3.79,3.79,0,0,1,197.31,129.84Z"/><path class="cls-24" d="M53.17,127.83,65.59,74.44a3.75,3.75,0,0,0-3.66-4.66h-.15a4.15,4.15,0,0,0-4,3.19L45.36,126.36A3.75,3.75,0,0,0,49,131h.14A4.14,4.14,0,0,0,53.17,127.83Z"/><path class="cls-25" d="M222.93,130.6l12.54-53.39a3.75,3.75,0,0,0-3.66-4.67h-.14a4.15,4.15,0,0,0-4,3.19l-12.54,53.39a3.75,3.75,0,0,0,3.66,4.67h.14A4.15,4.15,0,0,0,222.93,130.6Z"/><path class="cls-26" d="M61.93,69.78h-.15a4.15,4.15,0,0,0-4,3.19l-.33,1.45,1.78,12-6.06,41.4L65.59,74.44A3.75,3.75,0,0,0,61.93,69.78Z"/><polygon class="cls-27" points="57.99 73.75 60.65 87.91 53.17 127.83 64.89 77.46 57.99 73.75"/><path class="cls-28" d="M81.57,129.87l1.94-56.15a3.8,3.8,0,0,0-3.81-3.94h-.29a4.07,4.07,0,0,0-4,3.91l-.09,2.57c2,9.59,5,23.64,5,24.14C80.45,101.16,81.57,129.87,81.57,129.87Z"/><polygon class="cls-29" points="81.57 129.87 83.38 77.44 75.84 74.74 81.57 99.57 81.57 129.87"/><path class="cls-30" d="M99.33,129.87l1.94-56.15a3.79,3.79,0,0,0-3.81-3.94h-.29a4.08,4.08,0,0,0-4,3.91L93,76.26c2,9.59,4.95,23.64,5,24.14C98.21,101.16,99.33,129.87,99.33,129.87Z"/><polygon class="cls-31" points="99.33 129.87 101.14 77.44 93.61 74.74 99.33 99.57 99.33 129.87"/><path class="cls-32" d="M117,129.87l1.93-56.15a3.78,3.78,0,0,0-3.81-3.94h-.29a4.07,4.07,0,0,0-4,3.91l-.09,2.57c2,9.59,5,23.64,5,24.14C115.84,101.16,117,129.87,117,129.87Z"/><polygon class="cls-33" points="116.97 129.87 118.77 77.44 111.24 74.74 116.97 99.57 116.97 129.87"/><path class="cls-34" d="M134.66,129.87l1.94-56.15a3.79,3.79,0,0,0-3.81-3.94h-.29a4.08,4.08,0,0,0-4.05,3.91l-.09,2.57c2,9.59,5,23.64,5,24.14C133.54,101.16,134.66,129.87,134.66,129.87Z"/><polygon class="cls-35" points="134.66 129.87 136.47 77.44 128.94 74.74 134.66 99.57 134.66 129.87"/><path class="cls-36" d="M152.36,129.87l1.94-56.15a3.8,3.8,0,0,0-3.81-3.94h-.29a4.08,4.08,0,0,0-4,3.91l-.09,2.57c2,9.59,4.95,23.64,5,24.14C151.24,101.16,152.36,129.87,152.36,129.87Z"/><polygon class="cls-37" points="152.36 129.87 154.17 77.44 146.64 74.74 152.36 99.57 152.36 129.87"/><path class="cls-38" d="M170.06,129.87,172,73.72a3.78,3.78,0,0,0-3.81-3.94h-.28a4.07,4.07,0,0,0-4.05,3.91l-.09,2.57c2,9.59,5,23.64,5,24.14C168.93,101.16,170.06,129.87,170.06,129.87Z"/><polygon class="cls-39" points="170.06 129.87 171.87 77.44 164.33 74.74 170.06 99.57 170.06 129.87"/><path class="cls-40" d="M187.76,129.87l1.93-56.15a3.78,3.78,0,0,0-3.81-3.94h-.28a4.07,4.07,0,0,0-4,3.91l-.09,2.57c2,9.59,4.95,23.64,5,24.14C186.63,101.16,187.76,129.87,187.76,129.87Z"/><polygon class="cls-41" points="187.76 129.87 189.56 77.44 182.03 74.74 187.76 99.57 187.76 129.87"/><path class="cls-42" d="M205.46,129.87l1.93-56.15a3.79,3.79,0,0,0-3.81-3.94h-.29a4.08,4.08,0,0,0-4,3.91l-.08,2.57c2,9.59,5,23.64,5,24.14C204.33,101.16,205.46,129.87,205.46,129.87Z"/><polygon class="cls-43" points="205.46 129.87 207.26 77.44 199.73 74.74 205.46 99.57 205.46 129.87"/><path class="cls-44" d="M222.6,131.48a5.14,5.14,0,0,0,.33-.88l12.54-53.39a3.75,3.75,0,0,0-3.66-4.67h-.14a4.15,4.15,0,0,0-4,3.19l-1,4.27-.54,19.92Z"/><polygon class="cls-45" points="232.96 87.88 227.69 75.9 226.97 98.93 222.93 130.6 232.96 87.88"/><rect class="cls-46" x="0.69" y="88.1" width="263.58" height="1.73"/><rect class="cls-46" x="0.69" y="95" width="263.58" height="1.73"/><rect class="cls-46" x="0.69" y="108.82" width="263.58" height="1.73"/><rect class="cls-46" x="0.69" y="115.73" width="263.58" height="1.73"/><path class="cls-46" d="M35.09,86.26C22.86,86.26,10.79,85,0,79.37l.8-1.53c14.79,7.72,32.3,7,49.22,6.28,4.89-.2,9.51-.4,14.1-.4H112l29,0c21.4,0,43.54,0,65.32,0q6.19,0,12.4,0c6.67,0,13.57,0,20.36-.11,7.24-.14,19.42-.63,25.09-4.78l1,1.4c-6.08,4.44-18.57,5-26.08,5.1-6.81.13-13.72.12-20.39.12-4.13,0-8.26,0-12.39,0-21.79.08-43.93.06-65.33,0l-29,0-47.86,0c-4.56,0-9.16.19-14,.4S40.09,86.26,35.09,86.26Z"/><path class="cls-46" d="M35.09,119.29c-12.23,0-24.3,1.26-35.09,6.89l.8,1.53c14.79-7.72,32.3-7,49.22-6.28,4.89.2,9.51.4,14.1.4H141c21.4,0,43.54,0,65.32,0q6.19,0,12.4,0c6.67,0,13.57,0,20.36.12,7.24.13,19.42.62,25.09,4.77l1-1.4c-6.08-4.44-18.57-5-26.08-5.1-6.81-.13-13.72-.12-20.39-.12q-6.19,0-12.39,0c-21.79-.08-43.93-.06-65.33,0l-29,0-47.86,0c-4.56,0-9.16-.19-14-.39S40.09,119.29,35.09,119.29Z"/><path class="cls-46" d="M121.27,3.89C74.6,5,32.24,14.71.11,30v1.82c32-15.33,74.37-25.1,121.16-26.21Z"/><path class="cls-46" d="M140.27,3.92V5.64C186.33,6.88,232.06,16.5,263.7,31.55V29.73C231.9,14.72,186.21,5.15,140.27,3.92Z"/><path class="cls-46" d="M121.27,201.68C74.48,200.57,32.07,190.81.11,175.47v1.82c32.13,15.29,74.49,25,121.16,26.12Z"/><path class="cls-46" d="M140.27,201.65v1.73c45.94-1.23,91.63-10.8,123.43-25.81v-1.83C232.06,190.8,186.33,200.42,140.27,201.65Z"/><path class="cls-46" d="M260.46,138.06c-3.83-6.44-14.17-8-21-9l-1.7-.26c-8.29-1.29-16.78-1.29-25-1.3L89,127.26c-15.94,0-32.43-.06-48.64.5-1.56.06-3.37.06-5.34,0-11.07,0-27.71,0-32.67,10.6C-.92,145.33,3.39,151.22,9.09,154c20.38,9.86,45.73,11.64,68.09,13.22l5.38.38c13.84,1,26.6,1.61,38.71,1.83v-1.72c-12.07-.22-24.78-.82-38.59-1.83l-5.38-.38c-22.21-1.57-47.38-3.34-67.46-13-4.58-2.22-8.89-7-6-13.3,4.31-9.23,19.18-9.59,29.75-9.59H35c2,0,3.82,0,5.4,0C56.56,128.92,73,129,89,129l123.81.24c8.15,0,16.58,0,24.73,1.28l1.71.26c6.52,1,16.36,2.44,19.77,8.18,2.73,4.59-1.91,8.29-4.92,10.09-8.67,5.17-18.84,7.81-27.64,9.71-25.89,5.59-54.2,8.54-86.29,9v1.73c32.22-.44,60.65-3.39,86.66-9,8.93-1.93,19.27-4.62,28.16-9.92C261,146.9,263,142.36,260.46,138.06Z"/><path class="cls-46" d="M254.94,56.16c-8.89-5.3-19.23-8-28.16-9.92-26-5.62-54.44-8.58-86.66-9V39c32.09.44,60.4,3.38,86.29,9,8.8,1.9,19,4.54,27.64,9.71,3,1.8,7.66,5.49,4.92,10.09-3.41,5.74-13.25,7.2-19.77,8.18l-1.71.26c-8.14,1.27-16.55,1.27-24.68,1.28L89,77.69c-15.92,0-32.39.06-48.57-.5-1.23,0-2.61,0-4.1,0H35c-10.63,0-26.61,0-31.11-9.6C1,61.28,5.26,56.47,9.84,54.25c20.09-9.72,45.27-11.49,67.48-13l5.36-.38c13.81-1,26.52-1.61,38.59-1.83V37.26c-12.11.23-24.87.83-38.71,1.84l-5.36.38C54.83,41.05,29.48,42.83,9.09,52.69c-5.7,2.77-10,8.65-6.78,15.58C7.27,78.91,24,78.87,35,78.87c2,0,3.77,0,5.33,0,12.46.44,25.08.52,37.49.52l11.15,0,123.85-.24c8.2,0,16.68,0,24.95-1.3l1.7-.26c6.84-1,17.17-2.56,21-9C263,64.31,261,59.77,254.94,56.16Z"/><rect class="cls-46" x="0.69" y="101.91" width="5.83" height="1.73"/><rect class="cls-46" x="258.46" y="101.91" width="5.81" height="1.73"/><rect class="cls-46" x="23.83" y="102.13" width="218.19" height="1.73"/><polygon class="cls-46" points="121.23 0 121.23 8.61 137.65 4.3 121.23 0"/><polygon class="cls-46" points="121.23 34.15 121.23 42.76 137.65 38.46 121.23 34.15"/><polygon class="cls-46" points="25.07 97.86 25.07 106.46 8.65 102.16 25.07 97.86"/><polygon class="cls-46" points="259.97 98.33 259.97 106.94 243.54 102.64 259.97 98.33"/><polygon class="cls-46" points="121.23 198.78 121.23 207.39 137.65 203.09 121.23 198.78"/><path class="cls-47" d="M65.71,72.67,81,128.82a3.93,3.93,0,1,1-7.58,2.07L58.13,74.74a3.93,3.93,0,0,1,7.58-2.07Z"/><path class="cls-48" d="M83.43,72.67l15.31,56.15a3.93,3.93,0,1,1-7.58,2.07L75.85,74.74a3.93,3.93,0,0,1,7.58-2.07Z"/><path class="cls-49" d="M227.62,76.62v98a4.08,4.08,0,0,0,8.15,0v-98a4.08,4.08,0,1,0-8.15,0Z"/><path class="cls-50" d="M101.13,72.67l15.31,56.15a3.93,3.93,0,1,1-7.58,2.07L93.54,74.74a3.93,3.93,0,0,1,7.59-2.07Z"/><path class="cls-51" d="M118.82,72.67l15.32,56.15a3.93,3.93,0,1,1-7.59,2.07L111.24,74.74a3.93,3.93,0,0,1,7.58-2.07Z"/><path class="cls-52" d="M136.52,72.67l15.31,56.15a3.93,3.93,0,1,1-7.58,2.07L128.94,74.74a3.93,3.93,0,0,1,7.58-2.07Z"/><path class="cls-53" d="M154.22,72.67l15.31,56.15a3.93,3.93,0,1,1-7.58,2.07L146.64,74.74a3.93,3.93,0,0,1,7.58-2.07Z"/><path class="cls-54" d="M171.92,72.67l15.31,56.15a3.93,3.93,0,1,1-7.58,2.07L164.33,74.74a3.93,3.93,0,0,1,7.59-2.07Z"/><path class="cls-55" d="M189.61,72.67l15.32,56.15a3.93,3.93,0,1,1-7.58,2.07L182,74.74a3.93,3.93,0,0,1,7.58-2.07Z"/><path class="cls-56" d="M207.31,72.67l15.32,56.15a3.93,3.93,0,1,1-7.59,2.07L199.73,74.74a3.93,3.93,0,0,1,7.58-2.07Z"/><path class="cls-57" d="M227.62,76.62v97.82a4.22,4.22,0,0,0,3.45,4.22,4,4,0,0,0,2.32-.33l-2.08-.2a3.39,3.39,0,0,1-3.07-3.35l-.55-98.88A4.18,4.18,0,0,0,227.62,76.62Z"/><path class="cls-58" d="M229.84,73l4.08,105a4.07,4.07,0,0,0,1.85-3.4v-98a4.08,4.08,0,0,0-4.08-4.08A4,4,0,0,0,229.84,73Z"/><path class="cls-59" d="M235.09,176.88a4,4,0,0,0,.68-2.24v-98a4.06,4.06,0,0,0-2.91-3.89Z"/><path class="cls-60" d="M74.23,130.94,58,73.75l.64,2.82,14.81,54.32a3.92,3.92,0,0,0,6.87,1.4L78,133A3,3,0,0,1,74.23,130.94Z"/><path class="cls-61" d="M81,128.82,65.71,72.67a3.93,3.93,0,0,0-3.79-2.89,3.87,3.87,0,0,0-2.4.82C63.69,82.93,77.59,124,80.61,131.87A3.91,3.91,0,0,0,81,128.82Z"/><path class="cls-62" d="M81,128.82,65.71,72.67a3.93,3.93,0,0,0-3.79-2.89h-.18l19.41,60.27A3.8,3.8,0,0,0,81,128.82Z"/><path class="cls-63" d="M37.54,72.67l15.32,56.15a3.93,3.93,0,1,1-7.59,2.07L30,74.74a3.93,3.93,0,0,1,7.58-2.07Z"/><path class="cls-64" d="M46.06,130.94,29.82,73.75l.64,2.82,14.81,54.32a3.94,3.94,0,0,0,3.79,2.9,3.89,3.89,0,0,0,3.08-1.5l-2.27.71A3,3,0,0,1,46.06,130.94Z"/><path class="cls-65" d="M52.86,128.82,37.54,72.67a3.93,3.93,0,0,0-6.19-2.07C35.52,82.93,49.42,124,52.44,131.87A4,4,0,0,0,52.86,128.82Z"/><path class="cls-66" d="M52.86,128.82,37.54,72.67a3.92,3.92,0,0,0-3.79-2.89h-.18L53,130.06A4.1,4.1,0,0,0,52.86,128.82Z"/><path class="cls-67" d="M92,130.94,75.71,73.75l.63,2.82,14.82,54.32a3.92,3.92,0,0,0,6.87,1.4l-2.27.71A3,3,0,0,1,92,130.94Z"/><path class="cls-68" d="M98.74,128.82,83.43,72.67a3.94,3.94,0,0,0-6.2-2.07C81.4,82.93,95.31,124,98.32,131.87A3.87,3.87,0,0,0,98.74,128.82Z"/><path class="cls-69" d="M98.74,128.82,83.43,72.67a3.93,3.93,0,0,0-3.8-2.89h-.17l19.41,60.27A4.1,4.1,0,0,0,98.74,128.82Z"/><path class="cls-70" d="M109.64,130.94,93.4,73.75,94,76.57l14.82,54.32a3.92,3.92,0,0,0,6.87,1.4l-2.27.71A3,3,0,0,1,109.64,130.94Z"/><path class="cls-71" d="M116.44,128.82,101.12,72.67a3.93,3.93,0,0,0-6.19-2.07C99.1,82.93,113,124,116,131.87A4,4,0,0,0,116.44,128.82Z"/><path class="cls-72" d="M116.44,128.82,101.12,72.67a3.92,3.92,0,0,0-3.79-2.89h-.18l19.42,60.27A4.1,4.1,0,0,0,116.44,128.82Z"/><path class="cls-73" d="M127.34,130.94,111.1,73.75l.64,2.82,14.81,54.32a3.94,3.94,0,0,0,3.79,2.9,3.89,3.89,0,0,0,3.08-1.5l-2.27.71A3,3,0,0,1,127.34,130.94Z"/><path class="cls-74" d="M134.14,128.82,118.82,72.67a3.93,3.93,0,0,0-6.19-2.07c4.17,12.33,18.07,53.38,21.09,61.27A4,4,0,0,0,134.14,128.82Z"/><path class="cls-75" d="M134.14,128.82,118.82,72.67A3.92,3.92,0,0,0,115,69.78h-.18l19.42,60.27A4.1,4.1,0,0,0,134.14,128.82Z"/><path class="cls-76" d="M145,130.94,128.8,73.75l.64,2.82,14.81,54.32a3.92,3.92,0,0,0,6.87,1.4l-2.27.71A3,3,0,0,1,145,130.94Z"/><path class="cls-77" d="M151.83,128.82,136.52,72.67a3.93,3.93,0,0,0-3.79-2.89,3.87,3.87,0,0,0-2.4.82c4.17,12.33,18.07,53.38,21.09,61.27A3.91,3.91,0,0,0,151.83,128.82Z"/><path class="cls-78" d="M151.83,128.82,136.52,72.67a3.93,3.93,0,0,0-3.79-2.89h-.18L152,130.06A3.8,3.8,0,0,0,151.83,128.82Z"/><path class="cls-79" d="M162.74,130.94,146.5,73.75l.63,2.82L162,130.89a3.92,3.92,0,0,0,6.87,1.4l-2.27.71A3,3,0,0,1,162.74,130.94Z"/><path class="cls-80" d="M169.53,128.82,154.22,72.67A3.94,3.94,0,0,0,148,70.6c4.17,12.33,18.08,53.38,21.1,61.27A3.91,3.91,0,0,0,169.53,128.82Z"/><path class="cls-81" d="M169.53,128.82,154.22,72.67a3.93,3.93,0,0,0-3.79-2.89h-.18l19.41,60.27A4.1,4.1,0,0,0,169.53,128.82Z"/><path class="cls-82" d="M180.44,130.94,164.2,73.75l.63,2.82,14.82,54.32a3.92,3.92,0,0,0,6.87,1.4l-2.27.71A3,3,0,0,1,180.44,130.94Z"/><path class="cls-83" d="M187.23,128.82,171.91,72.67a3.93,3.93,0,0,0-6.19-2.07c4.17,12.33,18.08,53.38,21.09,61.27A3.87,3.87,0,0,0,187.23,128.82Z"/><path class="cls-84" d="M187.23,128.82,171.91,72.67a3.91,3.91,0,0,0-3.79-2.89h-.18l19.42,60.27A4.1,4.1,0,0,0,187.23,128.82Z"/><path class="cls-85" d="M198.13,130.94,181.89,73.75l.64,2.82,14.81,54.32a3.94,3.94,0,0,0,3.8,2.9,3.89,3.89,0,0,0,3.07-1.5L202,133A3,3,0,0,1,198.13,130.94Z"/><path class="cls-86" d="M204.93,128.82,189.61,72.67a3.93,3.93,0,0,0-6.19-2.07c4.17,12.33,18.07,53.38,21.09,61.27A4,4,0,0,0,204.93,128.82Z"/><path class="cls-87" d="M204.93,128.82,189.61,72.67a3.92,3.92,0,0,0-3.79-2.89h-.18l19.42,60.27A4.1,4.1,0,0,0,204.93,128.82Z"/><path class="cls-88" d="M215.83,130.94,199.59,73.75l.64,2.82L215,130.89a3.92,3.92,0,0,0,6.87,1.4l-2.27.71A3,3,0,0,1,215.83,130.94Z"/><path class="cls-89" d="M222.62,128.82,207.31,72.67a3.93,3.93,0,0,0-3.79-2.89,3.89,3.89,0,0,0-2.4.82c4.17,12.33,18.07,53.38,21.09,61.27A3.91,3.91,0,0,0,222.62,128.82Z"/><path class="cls-90" d="M222.62,128.82,207.31,72.67a3.93,3.93,0,0,0-3.79-2.89h-.18l19.41,60.27A3.8,3.8,0,0,0,222.62,128.82Z"/><rect class="cls-91" x="26.19" y="171" width="15.11" height="15.11" rx="7.56"/><rect class="cls-92" x="224.14" y="171" width="15.11" height="15.11" rx="7.56"/><path class="cls-93" d="M29.94,177.86h7.62v1.39H29.94Z"/><path class="cls-91" d="M230.78,179.42H228v-1.75h2.81v-2.92h1.82v2.92h2.81v1.75H232.6v3h-1.82Z"/><polygon class="cls-46" points="121.23 164.63 121.23 173.23 137.65 168.93 121.23 164.63"/><path class="cls-46" d="M260.12,138.06c-3.68-6.19-13.37-7.85-20.18-8.88v1.75c6.47,1,15.47,2.58,18.7,8,2.73,4.59-1.91,8.29-4.92,10.09-8.67,5.17-18.84,7.81-27.64,9.71-25.89,5.59-54.2,8.54-86.29,9v1.73c32.22-.44,60.65-3.39,86.66-9,8.93-1.93,19.27-4.62,28.15-9.92C260.67,146.9,262.68,142.36,260.12,138.06Z"/><path class="cls-46" d="M82.35,165.86,77,165.48c-22.21-1.57-47.38-3.34-67.46-13-4.58-2.22-8.89-7-6-13.3,3.83-8.22,16.06-9.41,26.15-9.57v-1.72C19.12,128,6.23,129.27,2,138.41c-3.23,6.92,1.08,12.81,6.79,15.57,20.38,9.86,45.72,11.64,68.09,13.22l5.37.38c13.85,1,26.61,1.61,38.72,1.83v-1.72C108.87,167.47,96.15,166.87,82.35,165.86Z"/></g></g></g></svg>