<svg xmlns="http://www.w3.org/2000/svg" xmlns:xlink="http://www.w3.org/1999/xlink" viewBox="0 0 243.54 254.04"><defs><style>.cls-1,.cls-13,.cls-14{opacity:0.53;}.cls-1{fill:url(#linear-gradient);}.cls-2{fill:#b0b0b5;}.cls-3{fill:#c7c7ca;}.cls-4{fill:#fff;}.cls-5{fill:none;}.cls-6{fill:#515056;}.cls-7{fill:#f1f1f1;}.cls-8{fill:#d1d2d7;}.cls-9{fill:#4f4e4f;}.cls-10{fill:#6588c4;}.cls-11{fill:#585a59;}.cls-12{fill:#808181;}.cls-13{fill:url(#linear-gradient-2);}.cls-14{fill:url(#linear-gradient-3);}.cls-15{fill:url(#linear-gradient-4);}.cls-16{fill:url(#linear-gradient-5);}</style><linearGradient id="linear-gradient" x1="68.71" y1="173.72" x2="206.72" y2="241.96" gradientUnits="userSpaceOnUse"><stop offset="0" stop-color="#221e1f" stop-opacity="0.4"/><stop offset="0.01" stop-color="#221e1f" stop-opacity="0.39"/><stop offset="0.35" stop-color="#221e1f" stop-opacity="0.09"/><stop offset="0.77" stop-color="#221e1f" stop-opacity="0"/></linearGradient><linearGradient id="linear-gradient-2" x1="108.56" y1="99.79" x2="126.66" y2="108.74" xlink:href="#linear-gradient"/><linearGradient id="linear-gradient-3" x1="127.62" y1="99.79" x2="145.72" y2="108.74" xlink:href="#linear-gradient"/><linearGradient id="linear-gradient-4" x1="100.68" y1="88.24" x2="107.54" y2="88.24" gradientUnits="userSpaceOnUse"><stop offset="0" stop-color="#a5a7aa"/><stop offset="0.12" stop-color="#808082"/><stop offset="0.23" stop-color="#6c6d70"/><stop offset="0.37" stop-color="#565759"/><stop offset="0.81" stop-color="#3c3b3b"/><stop offset="1" stop-color="#363536"/></linearGradient><linearGradient id="linear-gradient-5" x1="120.14" y1="88.24" x2="126.99" y2="88.24" xlink:href="#linear-gradient-4"/></defs><title>地线</title><g id="图层_2" data-name="图层 2"><g id="图层_1-2" data-name="图层 1"><polygon class="cls-1" points="96 160.69 18.17 195.72 174.15 254.04 243.54 213.18 96 160.69"/><path class="cls-2" d="M94.07,7.85l-.14-2.41a1.36,1.36,0,0,1,0,.2.43.43,0,0,0,0,.05l0,.13,0,.07L93.76,6l-.05.07a1.13,1.13,0,0,1-.1.13l0,.06-.15.14-.06,0-.12.08-.15.11-.06,0-.32.18L92.41,7,22.76,37.89l-.44.17-.16.06-.31.1-.2.05-.3.08-.21,0-.32.07-.2,0-.5.08-.12,0-.34,0-.2,0H19.3l-.34,0H17.32l-.42,0h0a3.62,3.62,0,0,1-.46-.06l-.23,0-.24,0-.5-.11c-.13,0-.27-.07-.39-.12l1.56,1L6.73,36.07h0L1.68,34.42C.6,34.06,0,33.55,0,33L.21,190.15c0,.54.59,1,1.68,1.4l5,1.65h0l8.3,2.2.37.11h0a4.05,4.05,0,0,0,.5.12h0l.21,0,.24,0h0c.14,0,.29,0,.44.06h0l.38,0H19.2l.3,0h.19l.18,0,.33,0h.13l.49-.08h.09l.12,0,.31-.06.21,0,.31-.08.19-.06.32-.1.16-.05c.15-.06.3-.11.44-.18l69.65-30.87.24-.12,0,0,.31-.18,0,0h0l.16-.11.11-.08h0l0-.06.14-.12h0l0-.06a.39.39,0,0,0,.08-.1l0,0a.25.25,0,0,0,0-.07l0-.06s0,0,0-.06l0-.07,0,0,0-.1a.43.43,0,0,0,0,0h0a1.09,1.09,0,0,0,0-.18Z"/><path class="cls-3" d="M18,38.71h-.72l-.42,0h0a3.62,3.62,0,0,1-.46-.06l-.23,0-.24,0-.5-.11c-.13,0-.27-.07-.39-.12l1.56,1L6.73,36.07h0L1.68,34.42C.6,34.06,0,33.55,0,33L.21,190.15c0,.54.59,1,1.68,1.4l5,1.65h0l8.3,2.2.37.11h0a4.05,4.05,0,0,0,.5.12h0l.21,0,.24,0h0c.14,0,.29,0,.44.06h0l.38,0H18Z"/><path class="cls-4" d="M92.25,4.3,78.9.44a12.46,12.46,0,0,0-7.73.39L1.52,31.7c-2.09.93-2,2.26.16,3l5.05,1.65h0L15,38.53a12.55,12.55,0,0,0,7.73-.39L92.41,7.26C94.49,6.34,94.42,5,92.25,4.3ZM65.68,7.6h0l.14,0Z"/><path class="cls-5" d="M65.07,70.5a6.42,6.42,0,0,0,.74-2.71,3.79,3.79,0,0,0-.63-2.33,6.42,6.42,0,0,0-.74,2.71A3.81,3.81,0,0,0,65.07,70.5Z"/><path class="cls-5" d="M45.21,71.9a6.4,6.4,0,0,0-.72,2.71,3.73,3.73,0,0,0,.62,2.32,6.36,6.36,0,0,0,.73-2.7A3.74,3.74,0,0,0,45.21,71.9Z"/><path class="cls-6" d="M45.21,71.9a2.15,2.15,0,0,0-2.51-.79c-1.8.58-3.31,2.91-3.38,5.22s1.35,3.7,3.15,3.12a5,5,0,0,0,2.64-2.52,3.73,3.73,0,0,1-.62-2.32A6.4,6.4,0,0,1,45.21,71.9Z"/><path class="cls-6" d="M62.44,73a5,5,0,0,0,2.63-2.51,3.81,3.81,0,0,1-.63-2.33,6.42,6.42,0,0,1,.74-2.71,2.13,2.13,0,0,0-2.51-.79c-1.81.58-3.33,2.91-3.39,5.22S60.63,73.59,62.44,73Z"/><path class="cls-7" d="M65.07,70.5a2.18,2.18,0,0,0,2.53.79c1.79-.58,3.31-2.92,3.37-5.22s-1.35-3.7-3.14-3.12a5,5,0,0,0-2.65,2.51,3.79,3.79,0,0,1,.63,2.33A6.42,6.42,0,0,1,65.07,70.5Z"/><path class="cls-7" d="M47.86,69.39a5,5,0,0,0-2.65,2.51,3.74,3.74,0,0,1,.63,2.33,6.36,6.36,0,0,1-.73,2.7,2.15,2.15,0,0,0,2.52.8c1.8-.58,3.31-2.92,3.37-5.22S49.66,68.81,47.86,69.39Z"/><path class="cls-5" d="M35.38,74c-.06,2,1,3.26,2.39,3.24,0-.14,0-.28,0-.42a36.31,36.31,0,0,1,1.17-8.07,1.29,1.29,0,0,0-.19,0C37,69.32,35.44,71.65,35.38,74Z"/><path class="cls-5" d="M45.21,71.9a2.15,2.15,0,0,0-2.51-.79c-1.8.58-3.31,2.91-3.38,5.22,0,.12,0,.23,0,.35a5.62,5.62,0,0,0,1.83-2.12,2.12,2.12,0,0,0,2.51.8c1.8-.58,3.31-2.92,3.38-5.22,0-.12,0-.23,0-.34A5.55,5.55,0,0,0,45.21,71.9Z"/><path class="cls-5" d="M65.18,65.46a2.13,2.13,0,0,0-2.51-.79c-1.81.58-3.33,2.91-3.39,5.22,0,.13,0,.24,0,.35a5.51,5.51,0,0,0,1.83-2.11,2.14,2.14,0,0,0,2.52.79C65.45,68.34,67,66,67,63.7c0-.12,0-.23,0-.35A5.58,5.58,0,0,0,65.18,65.46Z"/><path class="cls-7" d="M37.77,77.2a2.26,2.26,0,0,0,.75-.12,3.45,3.45,0,0,0,.82-.4c0-.12,0-.23,0-.35.07-2.31,1.58-4.64,3.38-5.22a2.15,2.15,0,0,1,2.51.79A5.55,5.55,0,0,1,47,69.8C47,67.7,45.62,66.48,43.91,67a5,5,0,0,0-2.64,2.52,2.12,2.12,0,0,0-2.33-.83,36.31,36.31,0,0,0-1.17,8.07C37.76,76.92,37.77,77.06,37.77,77.2Z"/><path class="cls-7" d="M58.49,70.64a3.39,3.39,0,0,0,.81-.4c0-.11,0-.22,0-.35.06-2.31,1.58-4.64,3.39-5.22a2.13,2.13,0,0,1,2.51.79A5.58,5.58,0,0,1,67,63.35c-.09-2.09-1.43-3.32-3.13-2.77a5,5,0,0,0-2.65,2.51,2.15,2.15,0,0,0-2.51-.79c-1.81.59-3.32,2.91-3.39,5.23S56.68,71.22,58.49,70.64Z"/><path class="cls-8" d="M67.72,44.77c3.88,3.37,6.23,9.27,6,16.76-.38,14.1-9.64,28.41-20.67,32a16.12,16.12,0,0,1-2.43.58,13.39,13.39,0,0,1-6.89-.58,12.79,12.79,0,0,0,10.84,3A17.77,17.77,0,0,0,57,95.87c11-3.56,20.28-17.87,20.67-32C78,54.12,73.9,47,67.72,44.77Z"/><path class="cls-7" d="M43.68,75.36a2.12,2.12,0,0,1-2.51-.8,5.62,5.62,0,0,1-1.83,2.12c.09,2.08,1.42,3.32,3.13,2.77a5,5,0,0,0,2.64-2.52,2.15,2.15,0,0,0,2.52.8c1.8-.58,3.31-2.92,3.37-5.22s-1.34-3.7-3.14-3.12a3.15,3.15,0,0,0-.82.41c0,.11,0,.22,0,.34C47,72.44,45.48,74.78,43.68,75.36Z"/><path class="cls-7" d="M63.65,68.92a2.14,2.14,0,0,1-2.52-.79,5.51,5.51,0,0,1-1.83,2.11c.08,2.08,1.42,3.32,3.14,2.77a5,5,0,0,0,2.63-2.51,2.18,2.18,0,0,0,2.53.79c1.79-.58,3.31-2.92,3.37-5.22s-1.35-3.7-3.14-3.12a3.28,3.28,0,0,0-.82.4c0,.12,0,.23,0,.35C67,66,65.45,68.34,63.65,68.92Z"/><path class="cls-7" d="M50.64,94.08a16.12,16.12,0,0,0,2.43-.58c11-3.56,20.29-17.87,20.67-32,.21-7.49-2.14-13.39-6-16.76a14,14,0,0,0-9.29,0,20.2,20.2,0,0,0-2.73,1.14C48,49.77,41.5,58.74,38.94,68.71a2.12,2.12,0,0,1,2.33.83A5,5,0,0,1,43.91,67c1.71-.54,3,.68,3.13,2.78a3.15,3.15,0,0,1,.82-.41c1.8-.58,3.21.8,3.14,3.12s-1.57,4.64-3.37,5.22a2.15,2.15,0,0,1-2.52-.8,5,5,0,0,1-2.64,2.52c-1.71.55-3-.69-3.13-2.77a3.45,3.45,0,0,1-.82.4,2.26,2.26,0,0,1-.75.12c-.11,7.26,2.19,13,6,16.3A13.39,13.39,0,0,0,50.64,94.08ZM58.72,62.3a2.15,2.15,0,0,1,2.51.79,5,5,0,0,1,2.65-2.51c1.7-.55,3,.68,3.13,2.77a3.28,3.28,0,0,1,.82-.4c1.79-.58,3.2.8,3.14,3.12s-1.58,4.64-3.37,5.22a2.18,2.18,0,0,1-2.53-.79A5,5,0,0,1,62.44,73c-1.72.55-3.06-.69-3.14-2.77a3.39,3.39,0,0,1-.81.4c-1.81.58-3.22-.82-3.16-3.11S56.91,62.89,58.72,62.3Z"/><path class="cls-6" d="M42.7,71.11c1.79-.58,3.2.81,3.14,3.12s-1.58,4.64-3.37,5.22-3.21-.82-3.15-3.12S40.9,71.69,42.7,71.11Z"/><path class="cls-6" d="M62.67,64.67c1.79-.58,3.2.8,3.14,3.12S64.23,72.43,62.44,73s-3.22-.82-3.16-3.12S60.86,65.25,62.67,64.67Z"/><path class="cls-5" d="M65.07,135.22a6.42,6.42,0,0,0,.74-2.71,3.82,3.82,0,0,0-.63-2.34,6.42,6.42,0,0,0-.74,2.72A3.81,3.81,0,0,0,65.07,135.22Z"/><path class="cls-5" d="M45.21,136.62a6.4,6.4,0,0,0-.72,2.71,3.73,3.73,0,0,0,.62,2.32,6.4,6.4,0,0,0,.73-2.7A3.74,3.74,0,0,0,45.21,136.62Z"/><path class="cls-6" d="M45.21,136.62a2.12,2.12,0,0,0-2.51-.79c-1.8.58-3.31,2.91-3.38,5.22s1.35,3.7,3.15,3.12a5,5,0,0,0,2.64-2.52,3.73,3.73,0,0,1-.62-2.32A6.4,6.4,0,0,1,45.21,136.62Z"/><path class="cls-6" d="M62.44,137.73a5,5,0,0,0,2.63-2.51,3.81,3.81,0,0,1-.63-2.33,6.42,6.42,0,0,1,.74-2.72,2.13,2.13,0,0,0-2.51-.78c-1.81.58-3.33,2.91-3.39,5.22S60.63,138.31,62.44,137.73Z"/><path class="cls-7" d="M65.07,135.22a2.16,2.16,0,0,0,2.53.78c1.79-.58,3.31-2.92,3.37-5.22s-1.35-3.69-3.14-3.11a4.9,4.9,0,0,0-2.65,2.5,3.82,3.82,0,0,1,.63,2.34A6.42,6.42,0,0,1,65.07,135.22Z"/><path class="cls-7" d="M47.86,134.11a5,5,0,0,0-2.65,2.51,3.74,3.74,0,0,1,.63,2.33,6.4,6.4,0,0,1-.73,2.7,2.15,2.15,0,0,0,2.52.8c1.8-.58,3.31-2.92,3.37-5.22S49.66,133.53,47.86,134.11Z"/><path class="cls-5" d="M35.38,138.68c-.06,2,1,3.26,2.39,3.24,0-.15,0-.28,0-.42a36.31,36.31,0,0,1,1.17-8.07l-.19,0C37,134,35.44,136.37,35.38,138.68Z"/><path class="cls-5" d="M45.21,136.62a2.12,2.12,0,0,0-2.51-.79c-1.8.58-3.31,2.91-3.38,5.22,0,.12,0,.23,0,.34a5.58,5.58,0,0,0,1.83-2.11,2.12,2.12,0,0,0,2.51.8c1.8-.58,3.31-2.92,3.38-5.22,0-.12,0-.23,0-.35A5.66,5.66,0,0,0,45.21,136.62Z"/><path class="cls-5" d="M65.18,130.17a2.13,2.13,0,0,0-2.51-.78c-1.81.58-3.33,2.91-3.39,5.22,0,.12,0,.23,0,.35a5.58,5.58,0,0,0,1.83-2.11,2.14,2.14,0,0,0,2.52.79c1.8-.58,3.31-2.92,3.37-5.22,0-.12,0-.23,0-.35A5.63,5.63,0,0,0,65.18,130.17Z"/><path class="cls-7" d="M37.77,141.92a2.55,2.55,0,0,0,.75-.12,3.15,3.15,0,0,0,.82-.41c0-.11,0-.22,0-.34.07-2.31,1.58-4.64,3.38-5.22a2.12,2.12,0,0,1,2.51.79A5.66,5.66,0,0,1,47,134.51c-.09-2.09-1.42-3.32-3.13-2.77a5,5,0,0,0-2.64,2.51,2.13,2.13,0,0,0-2.33-.82,36.31,36.31,0,0,0-1.17,8.07C37.76,141.64,37.77,141.77,37.77,141.92Z"/><path class="cls-7" d="M58.49,135.36a3.39,3.39,0,0,0,.81-.4c0-.12,0-.23,0-.35.06-2.31,1.58-4.64,3.39-5.22a2.13,2.13,0,0,1,2.51.78,5.63,5.63,0,0,1,1.83-2.1c-.09-2.1-1.43-3.32-3.13-2.77a5,5,0,0,0-2.65,2.51,2.13,2.13,0,0,0-2.51-.79c-1.81.59-3.32,2.91-3.39,5.22S56.68,135.94,58.49,135.36Z"/><path class="cls-8" d="M67.72,109.48c3.88,3.38,6.23,9.28,6,16.77-.38,14.1-9.64,28.41-20.67,32a17.43,17.43,0,0,1-2.43.58,13.39,13.39,0,0,1-6.89-.58,12.75,12.75,0,0,0,10.84,2.94,17.7,17.7,0,0,0,2.43-.57c11-3.56,20.28-17.88,20.67-32C78,118.84,73.9,111.74,67.72,109.48Z"/><path class="cls-7" d="M43.68,140.08a2.12,2.12,0,0,1-2.51-.8,5.58,5.58,0,0,1-1.83,2.11c.09,2.09,1.42,3.33,3.13,2.78a5,5,0,0,0,2.64-2.52,2.15,2.15,0,0,0,2.52.8c1.8-.58,3.31-2.92,3.37-5.22s-1.34-3.7-3.14-3.12a3.45,3.45,0,0,0-.82.4c0,.12,0,.23,0,.35C47,137.16,45.48,139.5,43.68,140.08Z"/><path class="cls-7" d="M63.65,133.64a2.14,2.14,0,0,1-2.52-.79A5.58,5.58,0,0,1,59.3,135c.08,2.08,1.42,3.32,3.14,2.76a4.9,4.9,0,0,0,2.63-2.5,2.16,2.16,0,0,0,2.53.78c1.79-.58,3.31-2.92,3.37-5.22s-1.35-3.69-3.14-3.11a3.28,3.28,0,0,0-.82.4c0,.12,0,.23,0,.35C67,130.72,65.45,133.06,63.65,133.64Z"/><path class="cls-7" d="M50.64,158.8a17.43,17.43,0,0,0,2.43-.58c11-3.56,20.29-17.87,20.67-32,.21-7.49-2.14-13.39-6-16.77a14.08,14.08,0,0,0-9.29,0,17.92,17.92,0,0,0-2.73,1.14c-7.73,3.82-14.2,12.8-16.76,22.77a2.13,2.13,0,0,1,2.33.82,5,5,0,0,1,2.64-2.51c1.71-.55,3,.68,3.13,2.77a3.45,3.45,0,0,1,.82-.4c1.8-.58,3.21.8,3.14,3.12s-1.57,4.64-3.37,5.22a2.15,2.15,0,0,1-2.52-.8,5,5,0,0,1-2.64,2.52c-1.71.55-3-.69-3.13-2.78a3.15,3.15,0,0,1-.82.41,2.55,2.55,0,0,1-.75.12c-.11,7.26,2.19,13,6,16.3A13.39,13.39,0,0,0,50.64,158.8ZM58.72,127a2.13,2.13,0,0,1,2.51.79,5,5,0,0,1,2.65-2.51c1.7-.55,3,.67,3.13,2.77a3.28,3.28,0,0,1,.82-.4c1.79-.58,3.2.8,3.14,3.11s-1.58,4.64-3.37,5.22a2.16,2.16,0,0,1-2.53-.78,4.9,4.9,0,0,1-2.63,2.5c-1.72.56-3.06-.68-3.14-2.76a3.39,3.39,0,0,1-.81.4c-1.81.58-3.22-.82-3.16-3.12S56.91,127.61,58.72,127Z"/><path class="cls-6" d="M42.7,135.83c1.79-.58,3.2.8,3.14,3.12s-1.58,4.64-3.37,5.22-3.21-.82-3.15-3.12S40.9,136.41,42.7,135.83Z"/><path class="cls-6" d="M62.67,129.39c1.79-.58,3.2.8,3.14,3.12s-1.58,4.64-3.37,5.22-3.22-.82-3.16-3.12S60.86,130,62.67,129.39Z"/><path class="cls-9" d="M138.08,183.11v14.55a11,11,0,1,1-22,0V128.91h-6V196c0,10.12,6.89,18.32,17,18.32s17.06-8.2,17.06-18.32V183.11Z"/><path class="cls-9" d="M144.27,189.76V175.2a11,11,0,0,1,22,0v23.9h6V176.89c0-10.12-6.88-18.32-17-18.32s-17,8.2-17,18.32v12.87Z"/><path class="cls-10" d="M113.69,97.42a49.7,49.7,0,0,1,10.17,1H103.52A49.63,49.63,0,0,1,113.69,97.42Z"/><path class="cls-11" d="M101.54,98.84l2-.4h34v16.37c-.34,5.8-3.77,22.15-23.87,22.15-19.47,0-23.88-16.5-23.88-22.43V98.84Z"/><path class="cls-9" d="M127,98.44a46.56,46.56,0,0,1-11.79,38.48c18.75-.8,22-16.45,22.36-22.11V98.44Z"/><path class="cls-12" d="M89.74,98.4c0,5.93,10.69,10.75,23.88,10.75s23.88-4.82,23.88-10.75-10.69-10.75-23.88-10.75S89.74,92.46,89.74,98.4Z"/><polygon class="cls-13" points="107.85 98.28 101.17 100.29 127.53 109.01 129.13 105.82 107.85 98.28"/><polygon class="cls-14" points="126.91 98.28 120.24 100.29 146.6 109.01 148.19 105.82 126.91 98.28"/><path class="cls-15" d="M107.54,99.4c0,1-1.54,1.8-3.43,1.8h0c-1.89,0-3.43-.8-3.43-1.8V77.07c0-1,1.54-1.8,3.43-1.8h0c1.89,0,3.43.81,3.43,1.8Z"/><path class="cls-16" d="M127,99.4c0,1-1.53,1.8-3.43,1.8h0c-1.89,0-3.42-.8-3.42-1.8V77.07c0-1,1.53-1.8,3.42-1.8h0c1.9,0,3.43.81,3.43,1.8Z"/></g></g></svg>