<svg xmlns="http://www.w3.org/2000/svg" xmlns:xlink="http://www.w3.org/1999/xlink" viewBox="0 0 201.55 280.68"><defs><style>.cls-1{isolation:isolate;}.cls-2{fill:url(#未命名的渐变_323);}.cls-3{fill:url(#未命名的渐变_48);}.cls-4,.cls-5,.cls-6,.cls-7{fill:#432e29;}.cls-4{opacity:0.9;}.cls-4,.cls-6{mix-blend-mode:multiply;}.cls-6{opacity:0.5;}.cls-7{opacity:0.3;mix-blend-mode:screen;}.cls-8{fill:url(#未命名的渐变_50);}.cls-9{fill:url(#未命名的渐变_50-2);}.cls-10{fill:url(#未命名的渐变_93);}.cls-11{fill:#5c585a;}.cls-12{fill:url(#未命名的渐变_323-2);}.cls-13{fill:url(#未命名的渐变_48-2);}.cls-14{fill:url(#未命名的渐变_50-3);}.cls-15{fill:url(#未命名的渐变_50-4);}.cls-16{fill:url(#未命名的渐变_93-2);}.cls-17{fill:url(#未命名的渐变_323-3);}.cls-18{fill:url(#未命名的渐变_48-3);}.cls-19{fill:url(#未命名的渐变_50-5);}.cls-20{fill:url(#未命名的渐变_50-6);}.cls-21{fill:url(#未命名的渐变_116);}.cls-22{fill:url(#未命名的渐变_116-2);}.cls-23{fill:url(#未命名的渐变_323-4);}.cls-24{fill:url(#未命名的渐变_48-4);}.cls-25{fill:url(#未命名的渐变_50-7);}.cls-26{fill:url(#未命名的渐变_50-8);}.cls-27{fill:url(#未命名的渐变_116-3);}.cls-28{fill:url(#未命名的渐变_116-4);}.cls-29{fill:url(#未命名的渐变_323-5);}.cls-30{fill:url(#未命名的渐变_323-6);}.cls-31{fill:url(#未命名的渐变_323-7);}.cls-32{fill:url(#未命名的渐变_323-8);}.cls-33{fill:url(#未命名的渐变_323-9);}.cls-34{fill:#777b84;}.cls-35{fill:#3a3e49;}.cls-36{fill:#424651;}.cls-37{fill:#6d717e;}.cls-38{fill:#3f414b;}.cls-39{fill:#61656e;}.cls-40{fill:url(#未命名的渐变_323-10);}.cls-41{fill:url(#未命名的渐变_323-11);}.cls-42{fill:url(#未命名的渐变_323-12);}.cls-43{fill:url(#未命名的渐变_334);}.cls-44{fill:url(#未命名的渐变_323-13);}.cls-45{fill:#353430;}.cls-46{fill:#878479;}.cls-47{fill:#3b3c37;}.cls-48{fill:#4a4740;}.cls-49{fill:url(#未命名的渐变_323-14);}.cls-50{fill:url(#未命名的渐变_323-15);}.cls-51{fill:url(#未命名的渐变_322);}.cls-52{fill:url(#未命名的渐变_334-2);}.cls-53{fill:url(#未命名的渐变_334-3);}.cls-54{fill:url(#未命名的渐变_323-16);}.cls-55{fill:url(#未命名的渐变_345);}.cls-56{fill:url(#未命名的渐变_323-17);}.cls-57{fill:url(#未命名的渐变_345-2);}.cls-58{fill:url(#未命名的渐变_334-4);}.cls-59{fill:#42454a;}.cls-60{fill:url(#未命名的渐变_334-5);}.cls-61{fill:url(#未命名的渐变_334-6);}.cls-62{fill:url(#未命名的渐变_323-18);}.cls-63{fill:url(#未命名的渐变_323-19);}.cls-64{fill:url(#未命名的渐变_323-20);}.cls-65{fill:url(#未命名的渐变_323-21);}.cls-66{fill:url(#未命名的渐变_323-22);}.cls-67{fill:url(#未命名的渐变_323-23);}.cls-68{fill:url(#未命名的渐变_323-24);}.cls-69{fill:url(#未命名的渐变_323-25);}.cls-70{fill:url(#未命名的渐变_323-26);}.cls-71{fill:url(#未命名的渐变_323-27);}.cls-72{fill:url(#未命名的渐变_323-28);}.cls-73{fill:url(#未命名的渐变_323-29);}.cls-74{fill:url(#未命名的渐变_323-30);}.cls-75{fill:url(#未命名的渐变_323-31);}.cls-76{fill:url(#未命名的渐变_323-32);}.cls-77{fill:url(#未命名的渐变_323-33);}.cls-78{fill:url(#未命名的渐变_323-34);}.cls-79{fill:url(#未命名的渐变_323-35);}.cls-80{fill:url(#未命名的渐变_323-36);}.cls-81{fill:url(#未命名的渐变_323-37);}.cls-82{fill:url(#未命名的渐变_334-7);}.cls-83{fill:#5f6267;}.cls-84{fill:#838792;}.cls-85{fill:#646668;}.cls-86{fill:#2b2e33;}.cls-87{fill:#56585b;}.cls-88{fill:url(#未命名的渐变_323-38);}.cls-89{fill:url(#未命名的渐变_323-39);}.cls-90{fill:url(#未命名的渐变_323-40);}.cls-91{fill:#2c302e;}.cls-92{fill:url(#未命名的渐变_323-41);}.cls-93{fill:url(#未命名的渐变_323-42);}.cls-94{fill:#2d343a;}.cls-95{fill:#82868f;}.cls-96{fill:#5e6164;}.cls-97{fill:url(#未命名的渐变_323-43);}.cls-98{fill:url(#未命名的渐变_323-44);}.cls-99{fill:url(#未命名的渐变_323-45);}.cls-100{fill:url(#未命名的渐变_323-46);}.cls-101{fill:url(#未命名的渐变_323-47);}.cls-102{fill:url(#未命名的渐变_48-5);}.cls-103{fill:url(#未命名的渐变_50-9);}.cls-104{fill:url(#未命名的渐变_50-10);}.cls-105{fill:url(#未命名的渐变_101);}.cls-106{fill:url(#未命名的渐变_101-2);}.cls-107{fill:url(#未命名的渐变_323-48);}.cls-108{fill:url(#未命名的渐变_48-6);}.cls-109{fill:url(#未命名的渐变_50-11);}.cls-110{fill:url(#未命名的渐变_50-12);}.cls-111{fill:url(#未命名的渐变_101-3);}.cls-112{fill:url(#未命名的渐变_101-4);}.cls-113{fill:url(#未命名的渐变_323-49);}.cls-114{fill:url(#未命名的渐变_323-50);}.cls-115{fill:url(#未命名的渐变_323-51);}.cls-116{fill:url(#未命名的渐变_323-52);}.cls-117{fill:url(#未命名的渐变_323-53);}.cls-118{fill:url(#未命名的渐变_323-54);}.cls-119{fill:url(#未命名的渐变_323-55);}.cls-120{fill:url(#未命名的渐变_323-56);}.cls-121{fill:url(#未命名的渐变_323-57);}.cls-122{fill:url(#未命名的渐变_118);}.cls-123{fill:url(#未命名的渐变_119);}.cls-124{fill:url(#未命名的渐变_119-2);}.cls-125{fill:url(#未命名的渐变_119-3);}.cls-126{fill:url(#未命名的渐变_118-2);}.cls-127{fill:#3a3c3f;}</style><linearGradient id="未命名的渐变_323" x1="1407.88" y1="734.8" x2="1407.88" y2="732.63" gradientTransform="matrix(0, -1, -1, 0, 920.65, 1414.83)" gradientUnits="userSpaceOnUse"><stop offset="0" stop-color="#333335"/><stop offset="0.03" stop-color="#3d3d40"/><stop offset="0.17" stop-color="#5e6167"/><stop offset="0.3" stop-color="#787c85"/><stop offset="0.43" stop-color="#8b909b"/><stop offset="0.55" stop-color="#969ca8"/><stop offset="0.67" stop-color="#9aa0ac"/><stop offset="1" stop-color="#6c6f77"/></linearGradient><linearGradient id="未命名的渐变_48" x1="183.04" y1="34.58" x2="190.59" y2="34.58" gradientUnits="userSpaceOnUse"><stop offset="0" stop-color="#250a0e"/><stop offset="0.38" stop-color="#32181c" stop-opacity="0.7"/><stop offset="0.43" stop-color="#3f2529" stop-opacity="0.79"/><stop offset="0.49" stop-color="#4e353a" stop-opacity="0.91"/><stop offset="0.56" stop-color="#583f45" stop-opacity="0.98"/><stop offset="0.62" stop-color="#5b4248"/><stop offset="0.93" stop-color="#3d2223"/></linearGradient><linearGradient id="未命名的渐变_50" x1="181.7" y1="13.4" x2="191.93" y2="13.4" gradientUnits="userSpaceOnUse"><stop offset="0" stop-color="#333335"/><stop offset="0.03" stop-color="#3d3d40"/><stop offset="0.16" stop-color="#5e6167"/><stop offset="0.28" stop-color="#787c85"/><stop offset="0.4" stop-color="#8b909b"/><stop offset="0.52" stop-color="#969ca8"/><stop offset="0.62" stop-color="#9aa0ac"/><stop offset="0.97" stop-color="#5f6268"/></linearGradient><linearGradient id="未命名的渐变_50-2" x1="181.7" y1="9.88" x2="191.93" y2="9.88" xlink:href="#未命名的渐变_50"/><linearGradient id="未命名的渐变_93" x1="1411.71" y1="737.93" x2="1411.71" y2="728.62" gradientTransform="matrix(0, -1, -1, 0, 920.65, 1414.83)" gradientUnits="userSpaceOnUse"><stop offset="0" stop-color="#322908"/><stop offset="0.06" stop-color="#483e0f"/><stop offset="0.26" stop-color="#897c23"/><stop offset="0.42" stop-color="#b9aa32"/><stop offset="0.55" stop-color="#d7c63b"/><stop offset="0.62" stop-color="#e2d13e"/><stop offset="0.79" stop-color="#514800"/><stop offset="0.93" stop-color="#8c8107"/></linearGradient><linearGradient id="未命名的渐变_323-2" x1="1407.91" y1="776.76" x2="1407.91" y2="774.59" xlink:href="#未命名的渐变_323"/><linearGradient id="未命名的渐变_48-2" x1="141.08" y1="34.55" x2="148.63" y2="34.55" xlink:href="#未命名的渐变_48"/><linearGradient id="未命名的渐变_50-3" x1="139.74" y1="13.37" x2="149.97" y2="13.37" xlink:href="#未命名的渐变_50"/><linearGradient id="未命名的渐变_50-4" x1="139.74" y1="9.84" x2="149.97" y2="9.84" xlink:href="#未命名的渐变_50"/><linearGradient id="未命名的渐变_93-2" x1="1411.75" y1="779.89" x2="1411.75" y2="770.58" xlink:href="#未命名的渐变_93"/><linearGradient id="未命名的渐变_323-3" x1="1404.5" y1="791.44" x2="1404.5" y2="789.27" xlink:href="#未命名的渐变_323"/><linearGradient id="未命名的渐变_48-3" x1="126.4" y1="37.96" x2="133.95" y2="37.96" xlink:href="#未命名的渐变_48"/><linearGradient id="未命名的渐变_50-5" x1="125.06" y1="16.78" x2="135.29" y2="16.78" xlink:href="#未命名的渐变_50"/><linearGradient id="未命名的渐变_50-6" x1="125.06" y1="13.25" x2="135.29" y2="13.25" xlink:href="#未命名的渐变_50"/><linearGradient id="未命名的渐变_116" x1="1408.34" y1="794.57" x2="1408.34" y2="785.26" gradientTransform="matrix(0, -1, -1, 0, 920.65, 1414.83)" gradientUnits="userSpaceOnUse"><stop offset="0" stop-color="#04110e"/><stop offset="0.13" stop-color="#12312a"/><stop offset="0.35" stop-color="#266053"/><stop offset="0.52" stop-color="#327e6c"/><stop offset="0.62" stop-color="#378976"/><stop offset="0.79" stop-color="#004734"/><stop offset="1" stop-color="#0e392e"/></linearGradient><linearGradient id="未命名的渐变_116-2" x1="124.11" y1="9.63" x2="136.25" y2="9.63" gradientTransform="matrix(1, 0, 0, 1, 0, 0)" xlink:href="#未命名的渐变_116"/><linearGradient id="未命名的渐变_323-4" x1="1404.74" y1="834.66" x2="1404.74" y2="832.5" xlink:href="#未命名的渐变_323"/><linearGradient id="未命名的渐变_48-4" x1="83.18" y1="37.73" x2="90.73" y2="37.73" xlink:href="#未命名的渐变_48"/><linearGradient id="未命名的渐变_50-7" x1="81.84" y1="16.54" x2="92.07" y2="16.54" xlink:href="#未命名的渐变_50"/><linearGradient id="未命名的渐变_50-8" x1="81.84" y1="13.02" x2="92.07" y2="13.02" xlink:href="#未命名的渐变_50"/><linearGradient id="未命名的渐变_116-3" x1="1408.57" y1="837.79" x2="1408.57" y2="828.48" xlink:href="#未命名的渐变_116"/><linearGradient id="未命名的渐变_116-4" x1="80.88" y1="9.4" x2="93.02" y2="9.4" gradientTransform="matrix(1, 0, 0, 1, 0, 0)" xlink:href="#未命名的渐变_116"/><linearGradient id="未命名的渐变_323-5" x1="1352.98" y1="736.17" x2="1352.98" y2="730.92" xlink:href="#未命名的渐变_323"/><linearGradient id="未命名的渐变_323-6" x1="184.48" y1="65.41" x2="189.73" y2="65.41" gradientTransform="matrix(1, 0, 0, 1, 0, 0)" xlink:href="#未命名的渐变_323"/><linearGradient id="未命名的渐变_323-7" x1="182.5" y1="55.06" x2="191.14" y2="55.06" gradientTransform="matrix(1, 0, 0, 1, 0, 0)" xlink:href="#未命名的渐变_323"/><linearGradient id="未命名的渐变_323-8" x1="1350.02" y1="792.89" x2="1350.02" y2="787.46" xlink:href="#未命名的渐变_323"/><linearGradient id="未命名的渐变_323-9" x1="127.75" y1="69.54" x2="133.19" y2="69.54" gradientTransform="matrix(1, 0, 0, 1, 0, 0)" xlink:href="#未命名的渐变_323"/><linearGradient id="未命名的渐变_323-10" x1="1295.77" y1="781.72" x2="1295.77" y2="778.71" gradientTransform="matrix(0.01, -1, -1, -0.01, 943.25, 1421.85)" xlink:href="#未命名的渐变_323"/><linearGradient id="未命名的渐变_323-11" x1="169.27" y1="158.98" x2="175.89" y2="158.98" gradientTransform="matrix(1, 0, 0, 1, 0, 0)" xlink:href="#未命名的渐变_323"/><linearGradient id="未命名的渐变_323-12" x1="170.05" y1="167.57" x2="175.11" y2="167.57" gradientTransform="matrix(1, 0, 0, 1, 0, 0)" xlink:href="#未命名的渐变_323"/><linearGradient id="未命名的渐变_334" x1="161.24" y1="194.28" x2="160.02" y2="182.99" gradientUnits="userSpaceOnUse"><stop offset="0.27" stop-color="#333335"/><stop offset="0.33" stop-color="#5b5d63"/><stop offset="0.39" stop-color="#7d7f8a"/><stop offset="0.45" stop-color="#979ba8"/><stop offset="0.51" stop-color="#aaaebe"/><stop offset="0.57" stop-color="#b5bacb"/><stop offset="0.63" stop-color="#b9becf"/><stop offset="0.88" stop-color="#6c6f77"/></linearGradient><linearGradient id="未命名的渐变_323-13" x1="125.85" y1="58.44" x2="134.5" y2="58.44" gradientTransform="matrix(1, 0, 0, 1, 0, 0)" xlink:href="#未命名的渐变_323"/><linearGradient id="未命名的渐变_323-14" x1="1232.87" y1="870.19" x2="1232.87" y2="851.9" xlink:href="#未命名的渐变_323"/><linearGradient id="未命名的渐变_323-15" x1="50.44" y1="261.02" x2="68.75" y2="261.02" gradientTransform="matrix(1, 0, 0, 1, 0, 0)" xlink:href="#未命名的渐变_323"/><linearGradient id="未命名的渐变_322" x1="140.89" y1="163.63" x2="158.88" y2="163.63" gradientTransform="matrix(1, 0, 0, 1, 0, 0)" xlink:href="#未命名的渐变_323"/><linearGradient id="未命名的渐变_334-2" x1="187.62" y1="100.23" x2="185.56" y2="81.21" xlink:href="#未命名的渐变_334"/><linearGradient id="未命名的渐变_334-3" x1="108.58" y1="102.5" x2="106.03" y2="78.96" xlink:href="#未命名的渐变_334"/><linearGradient id="未命名的渐变_323-16" x1="58.44" y1="108.57" x2="60.16" y2="86.18" gradientTransform="matrix(1, 0, 0, 1, 0, 0)" xlink:href="#未命名的渐变_323"/><linearGradient id="未命名的渐变_345" x1="92.39" y1="111.32" x2="92.39" y2="89.85" gradientUnits="userSpaceOnUse"><stop offset="0.12" stop-color="#7d808c"/><stop offset="0.26" stop-color="#7c7f8a"/><stop offset="1" stop-color="#797d86"/></linearGradient><linearGradient id="未命名的渐变_323-17" x1="150.07" y1="97.86" x2="151.3" y2="78.86" gradientTransform="matrix(1, 0, 0, 1, 0, 0)" xlink:href="#未命名的渐变_323"/><linearGradient id="未命名的渐变_345-2" x1="182.24" y1="98.24" x2="182.24" y2="81.92" xlink:href="#未命名的渐变_345"/><linearGradient id="未命名的渐变_334-4" x1="69.98" y1="114.49" x2="67.36" y2="90.31" xlink:href="#未命名的渐变_334"/><linearGradient id="未命名的渐变_334-5" x1="132.55" y1="107.13" x2="130.14" y2="84.88" xlink:href="#未命名的渐变_334"/><linearGradient id="未命名的渐变_334-6" x1="26.52" y1="110.66" x2="23.86" y2="86.14" xlink:href="#未命名的渐变_334"/><linearGradient id="未命名的渐变_323-18" x1="1326.36" y1="864.69" x2="1326.36" y2="854.84" xlink:href="#未命名的渐变_323"/><linearGradient id="未命名的渐变_323-19" x1="55.96" y1="95.9" x2="65.81" y2="95.9" gradientTransform="matrix(1, 0, 0, 1, 0, 0)" xlink:href="#未命名的渐变_323"/><linearGradient id="未命名的渐变_323-20" x1="1336.74" y1="837.5" x2="1336.74" y2="828.96" xlink:href="#未命名的渐变_323"/><linearGradient id="未命名的渐变_323-21" x1="83.14" y1="85.53" x2="91.69" y2="85.53" gradientTransform="matrix(1, 0, 0, 1, 0, 0)" xlink:href="#未命名的渐变_323"/><linearGradient id="未命名的渐变_323-22" x1="1332.31" y1="794.28" x2="1332.31" y2="785.74" xlink:href="#未命名的渐变_323"/><linearGradient id="未命名的渐变_323-23" x1="126.37" y1="89.96" x2="134.91" y2="89.96" gradientTransform="matrix(1, 0, 0, 1, 0, 0)" xlink:href="#未命名的渐变_323"/><linearGradient id="未命名的渐变_323-24" x1="1340.41" y1="779.33" x2="1340.41" y2="771.39" xlink:href="#未命名的渐变_323"/><linearGradient id="未命名的渐变_323-25" x1="141.31" y1="81.86" x2="149.26" y2="81.86" gradientTransform="matrix(1, 0, 0, 1, 0, 0)" xlink:href="#未命名的渐变_323"/><linearGradient id="未命名的渐变_323-26" x1="1329.89" y1="908.15" x2="1329.89" y2="898.85" xlink:href="#未命名的渐变_323"/><linearGradient id="未命名的渐变_323-27" x1="12.49" y1="92.37" x2="21.8" y2="92.37" gradientTransform="matrix(1, 0, 0, 1, 0, 0)" xlink:href="#未命名的渐变_323"/><linearGradient id="未命名的渐变_323-28" x1="1336.84" y1="737.51" x2="1336.84" y2="729.25" xlink:href="#未命名的渐变_323"/><linearGradient id="未命名的渐变_323-29" x1="183.14" y1="83.59" x2="191.4" y2="83.59" gradientTransform="matrix(1, 0, 0, 1, 0, 0)" xlink:href="#未命名的渐变_323"/><linearGradient id="未命名的渐变_323-30" x1="1344.44" y1="863.09" x2="1344.44" y2="856.82" xlink:href="#未命名的渐变_323"/><linearGradient id="未命名的渐变_323-31" x1="57.56" y1="75.12" x2="63.83" y2="75.12" gradientTransform="matrix(1, 0, 0, 1, 0, 0)" xlink:href="#未命名的渐变_323"/><linearGradient id="未命名的渐变_323-32" x1="1351.04" y1="836.12" x2="1351.04" y2="830.68" xlink:href="#未命名的渐变_323"/><linearGradient id="未命名的渐变_323-33" x1="84.53" y1="68.52" x2="89.97" y2="68.52" gradientTransform="matrix(1, 0, 0, 1, 0, 0)" xlink:href="#未命名的渐变_323"/><linearGradient id="未命名的渐变_323-34" x1="1353.37" y1="778.04" x2="1353.37" y2="773" xlink:href="#未命名的渐变_323"/><linearGradient id="未命名的渐变_323-35" x1="142.6" y1="66.19" x2="147.65" y2="66.19" gradientTransform="matrix(1, 0, 0, 1, 0, 0)" xlink:href="#未命名的渐变_323"/><linearGradient id="未命名的渐变_323-36" x1="1346.69" y1="906.64" x2="1346.69" y2="900.73" xlink:href="#未命名的渐变_323"/><linearGradient id="未命名的渐变_323-37" x1="14" y1="72.87" x2="19.92" y2="72.87" gradientTransform="matrix(1, 0, 0, 1, 0, 0)" xlink:href="#未命名的渐变_323"/><linearGradient id="未命名的渐变_334-7" x1="46.27" y1="240.74" x2="45.04" y2="229.45" xlink:href="#未命名的渐变_334"/><linearGradient id="未命名的渐变_323-38" x1="1269.33" y1="892.77" x2="1269.33" y2="890.1" xlink:href="#未命名的渐变_323"/><linearGradient id="未命名的渐变_323-39" x1="27.87" y1="176.65" x2="30.55" y2="176.65" gradientTransform="matrix(1, 0, 0, 1, 0, 0)" xlink:href="#未命名的渐变_323"/><linearGradient id="未命名的渐变_323-40" x1="27.87" y1="8500.68" x2="30.55" y2="8500.68" gradientTransform="matrix(1, 0, 0, -1, 0, 8637.62)" xlink:href="#未命名的渐变_323"/><linearGradient id="未命名的渐变_323-41" x1="25.73" y1="208.04" x2="32.35" y2="208.04" gradientTransform="matrix(1, 0, 0, 1, 0, 0)" xlink:href="#未命名的渐变_323"/><linearGradient id="未命名的渐变_323-42" x1="26.51" y1="216.63" x2="31.57" y2="216.63" gradientTransform="matrix(1, 0, 0, 1, 0, 0)" xlink:href="#未命名的渐变_323"/><linearGradient id="未命名的渐变_323-43" x1="12.32" y1="64.03" x2="20.96" y2="64.03" gradientTransform="matrix(1, 0, 0, 1, 0, 0)" xlink:href="#未命名的渐变_323"/><linearGradient id="未命名的渐变_323-44" x1="56.03" y1="64.46" x2="64.67" y2="64.46" gradientTransform="matrix(1, 0, 0, 1, 0, 0)" xlink:href="#未命名的渐变_323"/><linearGradient id="未命名的渐变_323-45" x1="82.63" y1="58.08" x2="91.28" y2="58.08" gradientTransform="matrix(1, 0, 0, 1, 0, 0)" xlink:href="#未命名的渐变_323"/><linearGradient id="未命名的渐变_323-46" x1="140.53" y1="54.62" x2="149.18" y2="54.62" gradientTransform="matrix(1, 0, 0, 1, 0, 0)" xlink:href="#未命名的渐变_323"/><linearGradient id="未命名的渐变_323-47" x1="1398.68" y1="904.97" x2="1398.68" y2="902.81" xlink:href="#未命名的渐变_323"/><linearGradient id="未命名的渐变_48-5" x1="12.87" y1="43.78" x2="20.42" y2="43.78" xlink:href="#未命名的渐变_48"/><linearGradient id="未命名的渐变_50-9" x1="11.53" y1="22.6" x2="21.76" y2="22.6" xlink:href="#未命名的渐变_50"/><linearGradient id="未命名的渐变_50-10" x1="11.53" y1="19.07" x2="21.76" y2="19.07" xlink:href="#未命名的渐变_50"/><linearGradient id="未命名的渐变_101" x1="1403.81" y1="908.1" x2="1403.81" y2="898.79" gradientTransform="matrix(0, -1, -1, 0, 920.65, 1414.83)" gradientUnits="userSpaceOnUse"><stop offset="0" stop-color="#360b05"/><stop offset="0.01" stop-color="#390c06"/><stop offset="0.22" stop-color="#7a271d"/><stop offset="0.4" stop-color="#aa3a2e"/><stop offset="0.54" stop-color="#c84638"/><stop offset="0.62" stop-color="#d34b3c"/><stop offset="0.79" stop-color="#761400"/><stop offset="1" stop-color="#522e23"/></linearGradient><linearGradient id="未命名的渐变_101-2" x1="10.57" y1="14.15" x2="22.71" y2="14.15" gradientTransform="matrix(1, 0, 0, 1, 0, 0)" xlink:href="#未命名的渐变_101"/><linearGradient id="未命名的渐变_323-48" x1="1398.36" y1="861.26" x2="1398.36" y2="859.1" xlink:href="#未命名的渐变_323"/><linearGradient id="未命名的渐变_48-6" x1="56.58" y1="44.1" x2="64.13" y2="44.1" xlink:href="#未命名的渐变_48"/><linearGradient id="未命名的渐变_50-11" x1="55.24" y1="22.92" x2="65.47" y2="22.92" xlink:href="#未命名的渐变_50"/><linearGradient id="未命名的渐变_50-12" x1="55.24" y1="19.4" x2="65.47" y2="19.4" xlink:href="#未命名的渐变_50"/><linearGradient id="未命名的渐变_101-3" x1="1403.49" y1="864.39" x2="1403.49" y2="855.08" xlink:href="#未命名的渐变_101"/><linearGradient id="未命名的渐变_101-4" x1="54.28" y1="14.48" x2="66.42" y2="14.48" gradientTransform="matrix(1, 0, 0, 1, 0, 0)" xlink:href="#未命名的渐变_101"/><linearGradient id="未命名的渐变_323-49" x1="-2923.72" y1="4881.31" x2="-2923.72" y2="4879.94" gradientTransform="matrix(0, 0.95, 1, 0, -4842.27, 2785.67)" xlink:href="#未命名的渐变_323"/><linearGradient id="未命名的渐变_323-50" x1="60.72" y1="18.35" x2="60.72" y2="16.44" gradientTransform="matrix(1, 0, 0, 1, 0, 0)" xlink:href="#未命名的渐变_323"/><linearGradient id="未命名的渐变_323-51" x1="16.3" y1="17.97" x2="16.3" y2="16.06" gradientTransform="matrix(1, 0, 0, 1, 0, 0)" xlink:href="#未命名的渐变_323"/><linearGradient id="未命名的渐变_323-52" x1="-2850.41" y1="4887.81" x2="-2850.41" y2="4886.45" gradientTransform="matrix(0, 0.95, 1, 0, -4779.32, 2710.22)" xlink:href="#未命名的渐变_323"/><linearGradient id="未命名的渐变_323-53" x1="130.16" y1="12.3" x2="130.16" y2="10.39" gradientTransform="matrix(1, 0, 0, 1, 0, 0)" xlink:href="#未命名的渐变_323"/><linearGradient id="未命名的渐变_323-54" x1="85.75" y1="11.92" x2="85.75" y2="10.01" gradientTransform="matrix(1, 0, 0, 1, 0, 0)" xlink:href="#未命名的渐变_323"/><linearGradient id="未命名的渐变_323-55" x1="-2789.87" y1="4891.5" x2="-2789.87" y2="4890.13" gradientTransform="matrix(0, 0.95, 1, 0, -4725.67, 2649.58)" xlink:href="#未命名的渐变_323"/><linearGradient id="未命名的渐变_323-56" x1="187.51" y1="8.98" x2="187.51" y2="7.07" gradientTransform="matrix(1, 0, 0, 1, 0, 0)" xlink:href="#未命名的渐变_323"/><linearGradient id="未命名的渐变_323-57" x1="143.09" y1="8.61" x2="143.09" y2="6.69" gradientTransform="matrix(1, 0, 0, 1, 0, 0)" xlink:href="#未命名的渐变_323"/><linearGradient id="未命名的渐变_118" x1="-2834.55" y1="4831.89" x2="-2834.82" y2="4835.31" gradientTransform="matrix(0.95, 0.01, 0.01, -1, 2774.75, 4916.22)" gradientUnits="userSpaceOnUse"><stop offset="0.24" stop-color="#333335"/><stop offset="0.25" stop-color="#3d3d40"/><stop offset="0.3" stop-color="#5e6167"/><stop offset="0.35" stop-color="#787c85"/><stop offset="0.39" stop-color="#8b909b"/><stop offset="0.44" stop-color="#969ca8"/><stop offset="0.48" stop-color="#9aa0ac"/><stop offset="0.7" stop-color="#6c6f77"/></linearGradient><linearGradient id="未命名的渐变_119" x1="-3102.84" y1="4818" x2="-3103.07" y2="4823.61" gradientTransform="matrix(0.95, 0.04, 0.05, -1, 2744.73, 5018.35)" gradientUnits="userSpaceOnUse"><stop offset="0.32" stop-color="#333335"/><stop offset="0.33" stop-color="#3d3d40"/><stop offset="0.36" stop-color="#5e6167"/><stop offset="0.39" stop-color="#787c85"/><stop offset="0.42" stop-color="#8b909b"/><stop offset="0.44" stop-color="#969ca8"/><stop offset="0.47" stop-color="#9aa0ac"/><stop offset="0.64" stop-color="#6c6f77"/></linearGradient><linearGradient id="未命名的渐变_119-2" x1="-3027.64" y1="4828.5" x2="-3027.87" y2="4834.11" xlink:href="#未命名的渐变_119"/><linearGradient id="未命名的渐变_119-3" x1="-2967.58" y1="4832.4" x2="-2967.81" y2="4838.01" xlink:href="#未命名的渐变_119"/><linearGradient id="未命名的渐变_118-2" x1="-2889.97" y1="4834.72" x2="-2890.24" y2="4838.14" xlink:href="#未命名的渐变_118"/></defs><title>刀闸</title><g class="cls-1"><g id="图层_2" data-name="图层 2"><g id="图层_1-2" data-name="图层 1"><rect class="cls-2" x="185.59" y="3.84" width="2.45" height="6.21"/><path class="cls-3" d="M190.59,52.89c-.06-1-.11-2.1-.11-3.49V16.27h-7.33V49.4c0,1.39,0,2.54-.11,3.49Z"/><path class="cls-4" d="M190.23,34.72c-.19-.09-.38-.18-.57-.25a9.37,9.37,0,0,0-2.73-.42,7.94,7.94,0,0,0-2.23.15,3.71,3.71,0,0,0-1.29.6v1.76l.87-.14a14.67,14.67,0,0,1,2.48-.11,8.4,8.4,0,0,1,3.47.91Z"/><path class="cls-5" d="M186.82,33c-4.28,0-6.22,1.93-6.22,1.93V36H193V34.91S191.09,33,186.82,33Z"/><path class="cls-6" d="M188.71,35a9.07,9.07,0,0,1-2.65.24l-2.25,0-2,0c-.41,0-.83,0-1.24-.07V36H193V34.91a6.81,6.81,0,0,0-2.37-1.32A3.35,3.35,0,0,1,188.71,35Z"/><path class="cls-7" d="M189.73,33.62l.13,0A11.33,11.33,0,0,0,181,34.82,15.48,15.48,0,0,1,189.73,33.62Z"/><path class="cls-4" d="M190.23,39a3.53,3.53,0,0,0-.57-.25,9.73,9.73,0,0,0-2.73-.43,7.94,7.94,0,0,0-2.23.15,3.9,3.9,0,0,0-1.29.6V40.8c.29,0,.58-.1.87-.13a13.7,13.7,0,0,1,2.48-.12,8.41,8.41,0,0,1,3.47.92Z"/><path class="cls-5" d="M186.82,37.23c-4.28,0-6.22,1.93-6.22,1.93v1.08H193V39.16S191.09,37.23,186.82,37.23Z"/><path class="cls-6" d="M188.71,39.28a9.06,9.06,0,0,1-2.65.23l-2.25,0-2,0c-.41,0-.83-.05-1.24-.06v.84H193V39.16a6.63,6.63,0,0,0-2.37-1.32A3.4,3.4,0,0,1,188.71,39.28Z"/><path class="cls-7" d="M189.73,37.86l.13,0A11.33,11.33,0,0,0,181,39.07,15.4,15.4,0,0,1,189.73,37.86Z"/><path class="cls-4" d="M190.23,43.21a4.7,4.7,0,0,0-.57-.25,9.73,9.73,0,0,0-2.73-.43,7.59,7.59,0,0,0-2.23.16,3.71,3.71,0,0,0-1.29.6V45l.87-.13a13.7,13.7,0,0,1,2.48-.11,8.25,8.25,0,0,1,3.47.91Z"/><path class="cls-5" d="M186.82,41.47c-4.28,0-6.22,1.93-6.22,1.93v1.08H193V43.4S191.09,41.47,186.82,41.47Z"/><path class="cls-6" d="M188.71,43.52a9.06,9.06,0,0,1-2.65.23l-2.25,0-2,0c-.41,0-.83-.06-1.24-.07v.84H193V43.4a6.63,6.63,0,0,0-2.37-1.32A3.4,3.4,0,0,1,188.71,43.52Z"/><path class="cls-7" d="M189.73,42.11l.13,0A11.37,11.37,0,0,0,181,43.31,15.48,15.48,0,0,1,189.73,42.11Z"/><path class="cls-4" d="M190.23,47.45c-.19-.09-.38-.18-.57-.25a9.72,9.72,0,0,0-2.73-.42,7.94,7.94,0,0,0-2.23.15,3.9,3.9,0,0,0-1.29.6v1.76l.87-.14a14.67,14.67,0,0,1,2.48-.11,8.26,8.26,0,0,1,3.47.92Z"/><path class="cls-5" d="M186.82,45.71c-4.28,0-6.22,1.93-6.22,1.93v1.08H193V47.64S191.09,45.71,186.82,45.71Z"/><path class="cls-6" d="M188.71,47.76a8.74,8.74,0,0,1-2.65.24l-2.25,0-2,0c-.41,0-.83-.05-1.24-.07v.84H193V47.64a6.81,6.81,0,0,0-2.37-1.32A3.31,3.31,0,0,1,188.71,47.76Z"/><path class="cls-7" d="M189.73,46.35l.13,0A11.33,11.33,0,0,0,181,47.55,15.48,15.48,0,0,1,189.73,46.35Z"/><path class="cls-4" d="M190.23,30.13a4.7,4.7,0,0,0-.57-.25,9.37,9.37,0,0,0-2.73-.42,7.58,7.58,0,0,0-2.23.15,3.71,3.71,0,0,0-1.29.6V32l.87-.14a13.7,13.7,0,0,1,2.48-.11,8.4,8.4,0,0,1,3.47.91Z"/><path class="cls-5" d="M186.82,28.39c-4.28,0-6.22,1.93-6.22,1.93V31.4H193V30.32S191.09,28.39,186.82,28.39Z"/><path class="cls-6" d="M188.71,30.44a9.42,9.42,0,0,1-2.65.24l-2.25,0-2,0c-.41,0-.83-.06-1.24-.07v.84H193V30.32A6.81,6.81,0,0,0,190.66,29,3.35,3.35,0,0,1,188.71,30.44Z"/><path class="cls-7" d="M189.73,29l.13,0A11.33,11.33,0,0,0,181,30.23,15.48,15.48,0,0,1,189.73,29Z"/><path class="cls-4" d="M190.23,25.54a4.7,4.7,0,0,0-.57-.25,9.73,9.73,0,0,0-2.73-.43,7.94,7.94,0,0,0-2.23.16,3.71,3.71,0,0,0-1.29.6v1.75l.87-.13a13.7,13.7,0,0,1,2.48-.11,8.25,8.25,0,0,1,3.47.91Z"/><path class="cls-5" d="M186.82,23.8c-4.28,0-6.22,1.93-6.22,1.93v1.08H193V25.73S191.09,23.8,186.82,23.8Z"/><path class="cls-6" d="M188.71,25.85a9.06,9.06,0,0,1-2.65.23l-2.25,0-2,0c-.41,0-.83-.06-1.24-.07v.84H193V25.73a6.63,6.63,0,0,0-2.37-1.32A3.4,3.4,0,0,1,188.71,25.85Z"/><path class="cls-7" d="M189.73,24.44l.13,0A11.37,11.37,0,0,0,181,25.64,15.48,15.48,0,0,1,189.73,24.44Z"/><path class="cls-4" d="M190.23,21a4.7,4.7,0,0,0-.57-.25,9.73,9.73,0,0,0-2.73-.43,7.59,7.59,0,0,0-2.23.16,3.54,3.54,0,0,0-1.29.6v1.75c.29,0,.58-.1.87-.13a12.85,12.85,0,0,1,2.48-.11,8.25,8.25,0,0,1,3.47.91Z"/><path class="cls-5" d="M186.82,19.21c-4.28,0-6.22,1.93-6.22,1.93v1.08H193V21.14S191.09,19.21,186.82,19.21Z"/><path class="cls-6" d="M188.71,21.26a9.06,9.06,0,0,1-2.65.23l-2.25,0-2,0c-.41,0-.83-.06-1.24-.07v.84H193V21.14a6.63,6.63,0,0,0-2.37-1.32A3.4,3.4,0,0,1,188.71,21.26Z"/><path class="cls-7" d="M189.73,19.85l.13,0A11.37,11.37,0,0,0,181,21.05,15.48,15.48,0,0,1,189.73,19.85Z"/><path class="cls-8" d="M191.81,10.41q-5-.18-10,0c-.07,0-.13,0-.13.06h0v.37L182.85,16v.34h0s.06.05.13.06c3.3.1,4.33.1,7.68,0,.07,0,.13,0,.13-.06h0V16l1.14-5.14v-.37h0S191.88,10.42,191.81,10.41Z"/><path class="cls-9" d="M191.81,9.19q-5-.18-10,0c-.07,0-.13,0-.13.05h0v1.27h0s.06.05.13.05q4.95.15,10,0c.07,0,.12,0,.12-.05h0V9.25h0S191.88,9.19,191.81,9.19Z"/><rect class="cls-10" x="181.62" y="0.03" width="10.51" height="6.17"/><path class="cls-11" d="M192.74,6.12c-3.91,0-7.87,0-11.84,0h-.15v.23h.15q5.86,0,11.84,0h.15V6.14h-.15Z"/><rect class="cls-12" x="143.63" y="3.81" width="2.45" height="6.21"/><path class="cls-13" d="M148.63,52.86c-.07-1-.11-2.1-.11-3.49V16.24h-7.33V49.37c0,1.39,0,2.54-.11,3.49Z"/><path class="cls-4" d="M148.27,34.69a4.23,4.23,0,0,0-.58-.25A9.6,9.6,0,0,0,145,34a7.59,7.59,0,0,0-2.23.16,3.58,3.58,0,0,0-1.3.6v1.75c.29,0,.58-.1.87-.13a13,13,0,0,1,2.49-.11,8.29,8.29,0,0,1,3.47.91Z"/><path class="cls-5" d="M144.85,33c-4.27,0-6.21,1.93-6.21,1.93V36h12.43V34.88S149.13,33,144.85,33Z"/><path class="cls-6" d="M146.74,35a9,9,0,0,1-2.64.23l-2.25,0-2,0c-.4,0-.82-.06-1.23-.07V36h12.43V34.88a6.62,6.62,0,0,0-2.38-1.32A3.37,3.37,0,0,1,146.74,35Z"/><path class="cls-7" d="M147.76,33.59l.14,0A11.37,11.37,0,0,0,139,34.79,15.43,15.43,0,0,1,147.76,33.59Z"/><path class="cls-4" d="M148.27,38.93a6,6,0,0,0-.58-.25,9.25,9.25,0,0,0-2.72-.42,7.94,7.94,0,0,0-2.23.15,3.75,3.75,0,0,0-1.3.6v1.76l.87-.14a14.83,14.83,0,0,1,2.49-.11,8.44,8.44,0,0,1,3.47.91Z"/><path class="cls-5" d="M144.85,37.19c-4.27,0-6.21,1.93-6.21,1.93V40.2h12.43V39.12S149.13,37.19,144.85,37.19Z"/><path class="cls-6" d="M146.74,39.24a9,9,0,0,1-2.64.24l-2.25,0-2,0c-.4,0-.82,0-1.23-.07v.84h12.43V39.12a6.81,6.81,0,0,0-2.38-1.32A3.32,3.32,0,0,1,146.74,39.24Z"/><path class="cls-7" d="M147.76,37.83l.14,0A11.33,11.33,0,0,0,139,39,15.43,15.43,0,0,1,147.76,37.83Z"/><path class="cls-4" d="M148.27,43.18a3.28,3.28,0,0,0-.58-.25A9.6,9.6,0,0,0,145,42.5a7.94,7.94,0,0,0-2.23.15,4,4,0,0,0-1.3.6V45c.29,0,.58-.1.87-.13a13.85,13.85,0,0,1,2.49-.12,8.45,8.45,0,0,1,3.47.92Z"/><path class="cls-5" d="M144.85,41.44c-4.27,0-6.21,1.93-6.21,1.93v1.08h12.43V43.37S149.13,41.44,144.85,41.44Z"/><path class="cls-6" d="M146.74,43.49a9,9,0,0,1-2.64.23l-2.25,0-2,0c-.4,0-.82-.06-1.23-.07v.84h12.43V43.37a6.62,6.62,0,0,0-2.38-1.32A3.37,3.37,0,0,1,146.74,43.49Z"/><path class="cls-7" d="M147.76,42.07l.14,0A11.33,11.33,0,0,0,139,43.28,15.35,15.35,0,0,1,147.76,42.07Z"/><path class="cls-4" d="M148.27,47.42a4.23,4.23,0,0,0-.58-.25,9.6,9.6,0,0,0-2.72-.43,7.94,7.94,0,0,0-2.23.16,3.75,3.75,0,0,0-1.3.6v1.75l.87-.13A13.85,13.85,0,0,1,144.8,49a8.29,8.29,0,0,1,3.47.91Z"/><path class="cls-5" d="M144.85,45.68c-4.27,0-6.21,1.93-6.21,1.93v1.08h12.43V47.61S149.13,45.68,144.85,45.68Z"/><path class="cls-6" d="M146.74,47.73a9,9,0,0,1-2.64.23l-2.25,0-2,0c-.4,0-.82-.06-1.23-.07v.84h12.43V47.61a6.62,6.62,0,0,0-2.38-1.32A3.37,3.37,0,0,1,146.74,47.73Z"/><path class="cls-7" d="M147.76,46.32l.14,0A11.37,11.37,0,0,0,139,47.52,15.43,15.43,0,0,1,147.76,46.32Z"/><path class="cls-4" d="M148.27,30.1a4.23,4.23,0,0,0-.58-.25,9.6,9.6,0,0,0-2.72-.43,7.94,7.94,0,0,0-2.23.15,3.78,3.78,0,0,0-1.3.61v1.75c.29,0,.58-.1.87-.13a13.85,13.85,0,0,1,2.49-.12,8.45,8.45,0,0,1,3.47.92Z"/><path class="cls-5" d="M144.85,28.36c-4.27,0-6.21,1.93-6.21,1.93v1.08h12.43V30.29S149.13,28.36,144.85,28.36Z"/><path class="cls-6" d="M146.74,30.41a9,9,0,0,1-2.64.23l-2.25,0-2,0c-.4,0-.82-.06-1.23-.07v.84h12.43V30.29A6.62,6.62,0,0,0,148.69,29,3.37,3.37,0,0,1,146.74,30.41Z"/><path class="cls-7" d="M147.76,29l.14,0A11.37,11.37,0,0,0,139,30.2,15.34,15.34,0,0,1,147.76,29Z"/><path class="cls-4" d="M148.27,25.51a3.28,3.28,0,0,0-.58-.25,9.6,9.6,0,0,0-2.72-.43,7.94,7.94,0,0,0-2.23.15,4,4,0,0,0-1.3.6v1.76c.29-.05.58-.1.87-.13a13.85,13.85,0,0,1,2.49-.12,8.45,8.45,0,0,1,3.47.92Z"/><path class="cls-5" d="M144.85,23.77c-4.27,0-6.21,1.93-6.21,1.93v1.08h12.43V25.7S149.13,23.77,144.85,23.77Z"/><path class="cls-6" d="M146.74,25.82a9,9,0,0,1-2.64.23l-2.25,0-2,0c-.4,0-.82-.06-1.23-.07v.84h12.43V25.7a6.62,6.62,0,0,0-2.38-1.32A3.37,3.37,0,0,1,146.74,25.82Z"/><path class="cls-7" d="M147.76,24.4l.14,0A11.33,11.33,0,0,0,139,25.61,15.35,15.35,0,0,1,147.76,24.4Z"/><path class="cls-4" d="M148.27,20.92a3.28,3.28,0,0,0-.58-.25,9.26,9.26,0,0,0-2.72-.43,7.94,7.94,0,0,0-2.23.15,4,4,0,0,0-1.3.6v1.76l.87-.14a14.83,14.83,0,0,1,2.49-.11,8.45,8.45,0,0,1,3.47.92Z"/><path class="cls-5" d="M144.85,19.18c-4.27,0-6.21,1.93-6.21,1.93v1.08h12.43V21.11S149.13,19.18,144.85,19.18Z"/><path class="cls-6" d="M146.74,21.23a9,9,0,0,1-2.64.23l-2.25,0-2,0c-.4,0-.82-.05-1.23-.07v.85h12.43V21.11a6.72,6.72,0,0,0-2.38-1.33A3.34,3.34,0,0,1,146.74,21.23Z"/><path class="cls-7" d="M147.76,19.81l.14,0A11.29,11.29,0,0,0,139,21,15.35,15.35,0,0,1,147.76,19.81Z"/><path class="cls-14" d="M149.84,10.38c-3.29-.12-6.63-.12-10,0-.07,0-.13,0-.13,0h0v.38L140.89,16v.35h0s.05.05.12.05c3.3.1,4.34.11,7.69,0,.07,0,.12,0,.12-.05h0V16L150,10.82v-.38h0S149.91,10.38,149.84,10.38Z"/><path class="cls-15" d="M149.84,9.15c-3.29-.12-6.63-.12-10,0-.07,0-.13,0-.13.06h0v1.26h0s.06.06.13.06c3.29.1,6.62.1,10,0,.07,0,.13,0,.13-.06h0V9.22h0S149.91,9.16,149.84,9.15Z"/><rect class="cls-16" x="139.65" width="10.51" height="6.17"/><path class="cls-11" d="M150.77,6.09c-3.91,0-7.86,0-11.83,0h-.15v.24h.15c3.91,0,7.86,0,11.83,0h.15V6.1h-.15Z"/><rect class="cls-17" x="128.95" y="7.22" width="2.45" height="6.21"/><path class="cls-18" d="M134,56.27c-.07-1-.11-2.1-.11-3.49V19.65h-7.33V52.78c0,1.39,0,2.54-.11,3.49Z"/><path class="cls-4" d="M133.59,38.1a4.7,4.7,0,0,0-.57-.25,9.73,9.73,0,0,0-2.73-.43,7.59,7.59,0,0,0-2.23.16,3.58,3.58,0,0,0-1.3.6v1.75c.29,0,.58-.1.88-.13a12.85,12.85,0,0,1,2.48-.11,8.25,8.25,0,0,1,3.47.91Z"/><path class="cls-5" d="M130.18,36.36c-4.28,0-6.22,1.93-6.22,1.93v1.08h12.43V38.29S134.45,36.36,130.18,36.36Z"/><path class="cls-6" d="M132.06,38.41a9,9,0,0,1-2.64.23l-2.25,0-2,0c-.4,0-.82-.06-1.23-.07v.84h12.43V38.29A6.62,6.62,0,0,0,134,37,3.34,3.34,0,0,1,132.06,38.41Z"/><path class="cls-7" d="M133.09,37l.13,0a11.37,11.37,0,0,0-8.87,1.18A15.46,15.46,0,0,1,133.09,37Z"/><path class="cls-4" d="M133.59,42.34c-.19-.09-.38-.18-.57-.25a9.72,9.72,0,0,0-2.73-.42,7.94,7.94,0,0,0-2.23.15,3.75,3.75,0,0,0-1.3.6v1.76l.88-.14a14.67,14.67,0,0,1,2.48-.11,8.4,8.4,0,0,1,3.47.91Z"/><path class="cls-5" d="M130.18,40.6c-4.28,0-6.22,1.93-6.22,1.93v1.08h12.43V42.53S134.45,40.6,130.18,40.6Z"/><path class="cls-6" d="M132.06,42.65a9,9,0,0,1-2.64.24l-2.25,0-2,0c-.4,0-.82-.05-1.23-.07v.84h12.43V42.53A6.81,6.81,0,0,0,134,41.21,3.26,3.26,0,0,1,132.06,42.65Z"/><path class="cls-7" d="M133.09,41.24l.13,0a11.33,11.33,0,0,0-8.87,1.17A15.46,15.46,0,0,1,133.09,41.24Z"/><path class="cls-4" d="M133.59,46.59a3.53,3.53,0,0,0-.57-.25,9.73,9.73,0,0,0-2.73-.43,7.94,7.94,0,0,0-2.23.15,4,4,0,0,0-1.3.6v1.76c.29,0,.58-.1.88-.13a13.7,13.7,0,0,1,2.48-.12,8.41,8.41,0,0,1,3.47.92Z"/><path class="cls-5" d="M130.18,44.85c-4.28,0-6.22,1.93-6.22,1.93v1.08h12.43V46.78S134.45,44.85,130.18,44.85Z"/><path class="cls-6" d="M132.06,46.9a9,9,0,0,1-2.64.23l-2.25,0-2,0c-.4,0-.82-.06-1.23-.07v.84h12.43V46.78A6.62,6.62,0,0,0,134,45.46,3.34,3.34,0,0,1,132.06,46.9Z"/><path class="cls-7" d="M133.09,45.48l.13,0a11.37,11.37,0,0,0-8.87,1.18A15.47,15.47,0,0,1,133.09,45.48Z"/><path class="cls-4" d="M133.59,50.83a4.7,4.7,0,0,0-.57-.25,9.73,9.73,0,0,0-2.73-.43,7.94,7.94,0,0,0-2.23.16,3.75,3.75,0,0,0-1.3.6v1.76l.88-.14a13.7,13.7,0,0,1,2.48-.11,8.4,8.4,0,0,1,3.47.91Z"/><path class="cls-5" d="M130.18,49.09C125.9,49.09,124,51,124,51V52.1h12.43V51S134.45,49.09,130.18,49.09Z"/><path class="cls-6" d="M132.06,51.14a9,9,0,0,1-2.64.23l-2.25,0-2,0c-.4,0-.82-.06-1.23-.07v.84h12.43V51A6.81,6.81,0,0,0,134,49.7,3.34,3.34,0,0,1,132.06,51.14Z"/><path class="cls-7" d="M133.09,49.73l.13,0a11.33,11.33,0,0,0-8.87,1.17A15.46,15.46,0,0,1,133.09,49.73Z"/><path class="cls-4" d="M133.59,33.51a4.7,4.7,0,0,0-.57-.25,9.73,9.73,0,0,0-2.73-.43,7.94,7.94,0,0,0-2.23.15,3.78,3.78,0,0,0-1.3.61v1.75c.29,0,.58-.1.88-.13a12.85,12.85,0,0,1,2.48-.11,8.25,8.25,0,0,1,3.47.91Z"/><path class="cls-5" d="M130.18,31.77c-4.28,0-6.22,1.93-6.22,1.93v1.08h12.43V33.7S134.45,31.77,130.18,31.77Z"/><path class="cls-6" d="M132.06,33.82a9,9,0,0,1-2.64.23l-2.25,0-2,0c-.4,0-.82-.06-1.23-.07v.84h12.43V33.7A6.62,6.62,0,0,0,134,32.38,3.34,3.34,0,0,1,132.06,33.82Z"/><path class="cls-7" d="M133.09,32.41l.13,0a11.37,11.37,0,0,0-8.87,1.18A15.38,15.38,0,0,1,133.09,32.41Z"/><path class="cls-4" d="M133.59,28.92a3.53,3.53,0,0,0-.57-.25,9.73,9.73,0,0,0-2.73-.43,7.94,7.94,0,0,0-2.23.15,3.78,3.78,0,0,0-1.3.61v1.75c.29,0,.58-.1.88-.13a13.7,13.7,0,0,1,2.48-.12,8.41,8.41,0,0,1,3.47.92Z"/><path class="cls-5" d="M130.18,27.18c-4.28,0-6.22,1.93-6.22,1.93v1.08h12.43V29.11S134.45,27.18,130.18,27.18Z"/><path class="cls-6" d="M132.06,29.23a9,9,0,0,1-2.64.23l-2.25,0-2,0c-.4,0-.82-.06-1.23-.07v.84h12.43V29.11A6.62,6.62,0,0,0,134,27.79,3.34,3.34,0,0,1,132.06,29.23Z"/><path class="cls-7" d="M133.09,27.81l.13,0A11.37,11.37,0,0,0,124.35,29,15.47,15.47,0,0,1,133.09,27.81Z"/><path class="cls-4" d="M133.59,24.33a3.53,3.53,0,0,0-.57-.25,9.38,9.38,0,0,0-2.73-.43,7.94,7.94,0,0,0-2.23.15,4,4,0,0,0-1.3.6v1.76l.88-.14a14.67,14.67,0,0,1,2.48-.11,8.41,8.41,0,0,1,3.47.92Z"/><path class="cls-5" d="M130.18,22.59c-4.28,0-6.22,1.93-6.22,1.93V25.6h12.43V24.52S134.45,22.59,130.18,22.59Z"/><path class="cls-6" d="M132.06,24.64a9,9,0,0,1-2.64.23l-2.25,0-2,0c-.4,0-.82-.05-1.23-.06v.84h12.43V24.52A6.62,6.62,0,0,0,134,23.2,3.34,3.34,0,0,1,132.06,24.64Z"/><path class="cls-7" d="M133.09,23.22l.13,0a11.33,11.33,0,0,0-8.87,1.18A15.38,15.38,0,0,1,133.09,23.22Z"/><path class="cls-19" d="M135.16,13.79c-3.29-.12-6.62-.12-10,0-.07,0-.13,0-.13.05h0v.38l1.15,5.13v.35h0s.06.05.13.05c3.29.11,4.33.11,7.68,0,.07,0,.12,0,.12-.05h0v-.35l1.15-5.13v-.38h0S135.24,13.79,135.16,13.79Z"/><path class="cls-20" d="M135.16,12.56c-3.29-.12-6.62-.12-10,0-.07,0-.13,0-.13.06h0v1.28s.06.05.13.05c3.3.1,6.63.1,10,0,.08,0,.13,0,.13-.05V12.63h0S135.24,12.57,135.16,12.56Z"/><rect class="cls-21" x="124.97" y="3.41" width="10.51" height="6.17"/><path class="cls-22" d="M136.1,9.5q-5.88,0-11.84,0h-.15v.24h.15q5.86,0,11.84,0h.15V9.51h-.15Z"/><rect class="cls-23" x="85.73" y="6.99" width="2.45" height="6.21"/><path class="cls-24" d="M90.73,56c-.07-1-.11-2.1-.11-3.49V19.42H83.29V52.55c0,1.39-.05,2.53-.11,3.49Z"/><path class="cls-4" d="M90.37,37.87a4.23,4.23,0,0,0-.58-.25,9.67,9.67,0,0,0-2.73-.43,7.87,7.87,0,0,0-2.22.15,3.78,3.78,0,0,0-1.3.61V39.7c.29,0,.58-.1.87-.13a13.85,13.85,0,0,1,2.49-.12,8.45,8.45,0,0,1,3.47.92Z"/><path class="cls-5" d="M87,36.13c-4.27,0-6.21,1.93-6.21,1.93v1.08H93.17V38.06S91.23,36.13,87,36.13Z"/><path class="cls-6" d="M88.84,38.18a9,9,0,0,1-2.64.23l-2.25,0-2,0c-.41,0-.82-.06-1.23-.07v.84H93.17V38.06a6.62,6.62,0,0,0-2.38-1.32A3.37,3.37,0,0,1,88.84,38.18Z"/><path class="cls-7" d="M89.86,36.77l.14,0A11.37,11.37,0,0,0,81.13,38,15.34,15.34,0,0,1,89.86,36.77Z"/><path class="cls-4" d="M90.37,42.11a4.23,4.23,0,0,0-.58-.25,9.32,9.32,0,0,0-2.73-.42,7.87,7.87,0,0,0-2.22.15,3.75,3.75,0,0,0-1.3.6V44l.87-.14a13.85,13.85,0,0,1,2.49-.11,8.44,8.44,0,0,1,3.47.91Z"/><path class="cls-5" d="M87,40.37c-4.27,0-6.21,1.93-6.21,1.93v1.08H93.17V42.3S91.23,40.37,87,40.37Z"/><path class="cls-6" d="M88.84,42.42a9,9,0,0,1-2.64.24l-2.25,0-2,0c-.41,0-.82-.06-1.23-.07v.84H93.17V42.3A6.81,6.81,0,0,0,90.79,41,3.32,3.32,0,0,1,88.84,42.42Z"/><path class="cls-7" d="M89.86,41,90,41a11.33,11.33,0,0,0-8.87,1.17A15.43,15.43,0,0,1,89.86,41Z"/><path class="cls-4" d="M90.37,46.36a3.28,3.28,0,0,0-.58-.25,9.33,9.33,0,0,0-2.73-.43,7.87,7.87,0,0,0-2.22.15,4,4,0,0,0-1.3.6v1.76l.87-.14a14.83,14.83,0,0,1,2.49-.11,8.45,8.45,0,0,1,3.47.92Z"/><path class="cls-5" d="M87,44.62c-4.27,0-6.21,1.93-6.21,1.93v1.08H93.17V46.55S91.23,44.62,87,44.62Z"/><path class="cls-6" d="M88.84,46.67a9,9,0,0,1-2.64.23l-2.25,0-2,0c-.41,0-.82-.05-1.23-.07v.85H93.17V46.55a6.72,6.72,0,0,0-2.38-1.33A3.34,3.34,0,0,1,88.84,46.67Z"/><path class="cls-7" d="M89.86,45.25l.14,0a11.29,11.29,0,0,0-8.87,1.18A15.35,15.35,0,0,1,89.86,45.25Z"/><path class="cls-4" d="M90.37,50.6a4.23,4.23,0,0,0-.58-.25,9.67,9.67,0,0,0-2.73-.43,7.52,7.52,0,0,0-2.22.16,3.58,3.58,0,0,0-1.3.6v1.75c.29,0,.58-.1.87-.13a13,13,0,0,1,2.49-.11,8.29,8.29,0,0,1,3.47.91Z"/><path class="cls-5" d="M87,48.86c-4.27,0-6.21,1.93-6.21,1.93v1.08H93.17V50.79S91.23,48.86,87,48.86Z"/><path class="cls-6" d="M88.84,50.91a9,9,0,0,1-2.64.23l-2.25,0-2,0c-.41,0-.82-.06-1.23-.07v.84H93.17V50.79a6.62,6.62,0,0,0-2.38-1.32A3.37,3.37,0,0,1,88.84,50.91Z"/><path class="cls-7" d="M89.86,49.5l.14,0a11.37,11.37,0,0,0-8.87,1.18A15.43,15.43,0,0,1,89.86,49.5Z"/><path class="cls-4" d="M90.37,33.28a3.28,3.28,0,0,0-.58-.25,9.67,9.67,0,0,0-2.73-.43,7.87,7.87,0,0,0-2.22.15,4,4,0,0,0-1.3.6v1.76c.29,0,.58-.1.87-.13a13.85,13.85,0,0,1,2.49-.12,8.45,8.45,0,0,1,3.47.92Z"/><path class="cls-5" d="M87,31.54c-4.27,0-6.21,1.93-6.21,1.93v1.08H93.17V33.47S91.23,31.54,87,31.54Z"/><path class="cls-6" d="M88.84,33.59a9,9,0,0,1-2.64.23L84,33.8l-2,0c-.41,0-.82-.06-1.23-.07v.84H93.17V33.47a6.62,6.62,0,0,0-2.38-1.32A3.37,3.37,0,0,1,88.84,33.59Z"/><path class="cls-7" d="M89.86,32.17l.14,0a11.33,11.33,0,0,0-8.87,1.18A15.35,15.35,0,0,1,89.86,32.17Z"/><path class="cls-4" d="M90.37,28.69a3.28,3.28,0,0,0-.58-.25A9.33,9.33,0,0,0,87.06,28a7.87,7.87,0,0,0-2.22.15,4,4,0,0,0-1.3.6v1.76l.87-.14a14.83,14.83,0,0,1,2.49-.11,8.45,8.45,0,0,1,3.47.92Z"/><path class="cls-5" d="M87,27c-4.27,0-6.21,1.93-6.21,1.93V30H93.17V28.88S91.23,27,87,27Z"/><path class="cls-6" d="M88.84,29a9,9,0,0,1-2.64.23l-2.25,0-2,0c-.41,0-.82-.05-1.23-.07V30H93.17V28.88a6.72,6.72,0,0,0-2.38-1.33A3.34,3.34,0,0,1,88.84,29Z"/><path class="cls-7" d="M89.86,27.58l.14,0a11.29,11.29,0,0,0-8.87,1.18A15.35,15.35,0,0,1,89.86,27.58Z"/><path class="cls-4" d="M90.37,24.09a6,6,0,0,0-.58-.25,9.66,9.66,0,0,0-2.73-.42,7.87,7.87,0,0,0-2.22.15,4,4,0,0,0-1.3.6v1.76l.87-.14a14.83,14.83,0,0,1,2.49-.11,8.3,8.3,0,0,1,3.47.92Z"/><path class="cls-5" d="M87,22.35c-4.27,0-6.21,1.93-6.21,1.93v1.08H93.17V24.28S91.23,22.35,87,22.35Z"/><path class="cls-6" d="M88.84,24.4a8.7,8.7,0,0,1-2.64.24l-2.25,0-2,0c-.41,0-.82-.05-1.23-.07v.84H93.17V24.28A6.81,6.81,0,0,0,90.79,23,3.28,3.28,0,0,1,88.84,24.4Z"/><path class="cls-7" d="M89.86,23,90,23a11.33,11.33,0,0,0-8.87,1.17A15.43,15.43,0,0,1,89.86,23Z"/><path class="cls-25" d="M91.94,13.56q-4.95-.18-10,0c-.07,0-.12,0-.12,0h0V14L83,19.13v.35h0s.06.05.13.05c3.3.1,4.33.11,7.68,0,.07,0,.13,0,.13-.05h0v-.35L92.07,14v-.38h0S92,13.56,91.94,13.56Z"/><path class="cls-26" d="M91.94,12.33q-4.95-.18-10,0c-.07,0-.12,0-.12.05v1.28h0s0,.05.12.06q5,.15,10,0c.07,0,.13,0,.13-.06h0V12.38S92,12.33,91.94,12.33Z"/><rect class="cls-27" x="81.75" y="3.18" width="10.51" height="6.17"/><path class="cls-28" d="M92.87,9.27Q87,9.24,81,9.27h-.15v.24H81q5.88,0,11.84,0H93V9.28h-.15Z"/><polygon class="cls-29" points="183.85 66.65 183.85 57.06 189.78 57.24 189.78 66.65 183.85 66.65"/><path class="cls-30" d="M189.78,66.71c0,.88-1.32,1.59-3,1.59s-3-.71-3-1.59,1.33-4.18,3-4.18S189.78,65.83,189.78,66.71Z"/><path class="cls-31" d="M191,52.92a32.15,32.15,0,0,0-8.43,0,.15.15,0,0,0-.1.16v4c0,.09,0,.16.1.16a37.13,37.13,0,0,0,8.43,0c.06,0,.11-.07.11-.16v-4A.16.16,0,0,0,191,52.92Z"/><rect class="cls-32" x="127.11" y="60.14" width="6.14" height="9.34"/><ellipse class="cls-33" cx="130.18" cy="69.54" rx="3.07" ry="1.59"/><polygon class="cls-34" points="173.37 199.76 173.37 226.96 169.69 227.95 169.69 200.65 173.37 199.76"/><polygon class="cls-35" points="169.69 200.65 169.69 227.94 164.65 226.68 164.65 199.42 169.69 200.65"/><polygon class="cls-34" points="35.05 252.49 35.05 279.69 31.38 280.68 31.38 253.39 35.05 252.49"/><polygon class="cls-35" points="31.38 253.38 31.38 280.67 26.33 279.41 26.33 252.16 31.38 253.38"/><polygon class="cls-34" points="189.53 169.68 189.53 200.49 174.94 204.42 174.94 173.23 189.53 169.68"/><polyline class="cls-36" points="189.53 173.17 189.55 200.44 176.22 204.06 176.2 176.45"/><polygon class="cls-34" points="189.53 173.56 189.55 200.48 176.59 203.98 176.57 176.72 189.53 173.56"/><polygon class="cls-35" points="174.94 173.2 174.94 204.38 154.9 199.35 154.9 168.35 174.94 173.2"/><polygon class="cls-37" points="191.92 169.54 191.92 171.18 175.31 175.65 175.31 173.69 191.92 169.54"/><polygon class="cls-38" points="175.31 173.66 175.31 175.6 152.51 169.88 152.51 168.13 175.31 173.66"/><polygon class="cls-39" points="168.88 164.16 191.92 169.53 175.31 173.69 152.51 168.07 168.88 164.16"/><polygon class="cls-40" points="171.08 168.54 172.22 71.32 175.24 71.34 174.1 168.56 171.08 168.54"/><path class="cls-41" d="M175.8,158.14a49.58,49.58,0,0,0-6.45,0s-.08,0-.08.07h0v1.54h0s0,.06.08.07a57.83,57.83,0,0,0,6.45,0s.09,0,.09-.07h0v-1.54h0S175.85,158.15,175.8,158.14Z"/><path class="cls-42" d="M175.05,166.32a19.45,19.45,0,0,0-4.94,0,.09.09,0,0,0-.06.1v2.33c0,.05,0,.1.06.1a22.05,22.05,0,0,0,4.94,0s.06,0,.06-.1v-2.33A.11.11,0,0,0,175.05,166.32Z"/><path class="cls-43" d="M167.07,185.46h0a2.14,2.14,0,0,0-2-.68l-.83.08c.26,0,.55-.07.83-.08l-12.14.91.86,7.07,13.65-1.54v0a5.51,5.51,0,0,0,.61-2.64A4.79,4.79,0,0,0,167.07,185.46Zm.15.28a1.61,1.61,0,0,1,.1.35A1.61,1.61,0,0,0,167.22,185.74Z"/><path class="cls-44" d="M134.39,56.31a31.72,31.72,0,0,0-8.43,0,.15.15,0,0,0-.11.16v4a.16.16,0,0,0,.11.16,37.72,37.72,0,0,0,8.43,0,.16.16,0,0,0,.11-.16v-4A.15.15,0,0,0,134.39,56.31Z"/><polygon class="cls-45" points="131.15 239.64 131.15 231.97 145.84 235.1 145.41 243.1 131.15 239.64"/><polygon class="cls-46" points="162.22 241.48 162.11 233.21 145.84 235.1 145.41 243.1 162.22 241.48"/><polygon class="cls-47" points="163.73 228.46 163.73 236.89 162.22 241.48 162.11 233.21 163.73 228.46"/><polygon class="cls-48" points="133.65 226.6 131.15 231.97 145.84 235.1 162.11 233.21 163.73 228.46 148.29 225.29 133.65 226.6"/><polygon class="cls-45" points="39.57 271.6 39.57 261.58 54.59 266.27 54.67 275.9 39.57 271.6"/><polygon class="cls-46" points="74.29 274.04 74.18 264.51 54.6 266.28 54.67 275.87 74.29 274.04"/><polygon class="cls-47" points="78.42 257.99 78.5 267.56 74.3 274.03 74.17 264.51 78.42 257.99"/><polygon class="cls-48" points="44.94 255.67 39.58 261.61 54.59 266.28 74.17 264.5 78.42 257.99 61.15 253.42 44.94 255.67"/><rect class="cls-49" x="48.28" y="103" width="20.66" height="157.93"/><ellipse class="cls-50" cx="58.6" cy="261.02" rx="10.34" ry="2.5"/><path class="cls-51" d="M156,230l3.09-135H141.12l-2.36,135h0s0,.05,0,.08c0,1.18,5.16,2.14,10,2.14s7.21-1,7.21-2.14c0,0,0-.05,0-.08Z"/><path class="cls-52" d="M201.55,89.55a5.68,5.68,0,0,0-4.47-5.7v-.08l-.45,0c-.15,0-.28,0-.43,0a5.12,5.12,0,0,0-1.31.19l-21.11,1.8A6.63,6.63,0,0,1,175.21,90a20,20,0,0,1-.09,2.45c-.08,1-.12,1.92-.27,2.86a2.82,2.82,0,0,1-2.6,2.6l23.4-2.63a4.69,4.69,0,0,0,.54.06,5,5,0,0,0,1.63-.31l.54-.06v-.13A5.83,5.83,0,0,0,201.55,89.55Z"/><path class="cls-53" d="M159,87a5.73,5.73,0,0,0-4.47-5.74v-.09l-.45,0c-.14,0-.28-.05-.43-.05a5.18,5.18,0,0,0-1.31.18L54.89,88.53l.09.09a9.94,9.94,0,0,1,3.18,8.12c0,.68-.14,4.21-.23,4.89,0,.22,0,.46-.06.69l95.26-9.66a5,5,0,0,0,.54.06,4.66,4.66,0,0,0,1.63-.29l.55-.05,0-.13A5.76,5.76,0,0,0,159,87Z"/><path class="cls-54" d="M33.5,86l58.89,3.89-1.33,21.47-60-5.76S23.7,97.49,28,91.15A18.15,18.15,0,0,1,33.5,86Z"/><ellipse class="cls-55" cx="92.39" cy="100.59" rx="7.24" ry="10.73"/><path class="cls-56" d="M125.51,78.68l56.73,3.07-1.14,18.43-57.7-4.69s-6.3-6.92-2.65-12.36A15.51,15.51,0,0,1,125.51,78.68Z"/><ellipse class="cls-57" cx="182.24" cy="90.96" rx="5.29" ry="9.21"/><path class="cls-58" d="M82.46,95.6h0c-.91-1.35-2.65-1.57-4.37-1.46l-1.78.19c.56-.08,1.17-.15,1.78-.19l-26,2,1.84,15.13,29.24-3.29v0a11.79,11.79,0,0,0,1.3-5.65A10.28,10.28,0,0,0,82.46,95.6Zm.32.59A3.31,3.31,0,0,1,83,97,4.09,4.09,0,0,0,82.78,96.19Z"/><ellipse class="cls-59" cx="53.78" cy="103.57" rx="5.36" ry="7.66"/><path class="cls-60" d="M164.83,91.61a6,6,0,0,0-1.17-2.72c-.14-.18-.29-.37-.46-.55a4.85,4.85,0,0,0-1.1-.92,3.37,3.37,0,0,0-1.17-.72L158,87l-29.33,2.39,0,.24L97,92.28c.08,0,.41.54.47.62s.3.47.44.71a10.53,10.53,0,0,1,.76,1.59,14.89,14.89,0,0,1,.88,3.67,14.73,14.73,0,0,1-1,7.34l31.68-3.56v0l33.43-3.78v0c0-.16.25-.48.32-.64a7.18,7.18,0,0,0,.32-.81,10.91,10.91,0,0,0,.45-1.79A12,12,0,0,0,164.83,91.61Z"/><path class="cls-61" d="M9.58,91.89,11.41,107l27.35-2.78a19.73,19.73,0,0,0,1.15-7.17,15.35,15.35,0,0,0-1.86-6.4A1.39,1.39,0,0,0,36.88,90l-2.06.19A9.41,9.41,0,0,1,36.88,90"/><ellipse class="cls-59" cx="10.13" cy="99.45" rx="5.36" ry="7.66" transform="translate(-1.05 0.11) rotate(-0.61)"/><rect class="cls-62" x="54.79" y="81.13" width="11.12" height="14.68"/><ellipse class="cls-63" cx="60.35" cy="95.9" rx="5.57" ry="2.5"/><rect class="cls-64" x="82.13" y="70.75" width="9.65" height="14.68"/><ellipse class="cls-65" cx="86.95" cy="85.53" rx="4.83" ry="2.5"/><rect class="cls-66" x="125.36" y="75.18" width="9.65" height="14.68"/><ellipse class="cls-67" cx="130.18" cy="89.96" rx="4.83" ry="2.5"/><rect class="cls-68" x="140.38" y="67.08" width="8.96" height="14.68"/><ellipse class="cls-69" cx="144.85" cy="81.86" rx="4.48" ry="2.5"/><rect class="cls-70" x="11.39" y="77.6" width="10.51" height="14.68"/><ellipse class="cls-71" cx="16.64" cy="92.37" rx="5.26" ry="2.5"/><polygon class="cls-72" points="182.16 83.49 182.16 72.49 191.48 72.77 191.48 83.49 182.16 83.49"/><ellipse class="cls-73" cx="186.82" cy="83.59" rx="4.66" ry="2.5"/><rect class="cls-74" x="56.82" y="65.72" width="7.07" height="9.34"/><ellipse class="cls-75" cx="60.35" cy="75.12" rx="3.54" ry="1.59"/><rect class="cls-76" x="83.89" y="59.12" width="6.14" height="9.34"/><ellipse class="cls-77" cx="86.95" cy="68.52" rx="3.07" ry="1.59"/><rect class="cls-78" x="142.01" y="56.79" width="5.7" height="9.34"/><ellipse class="cls-79" cx="144.85" cy="66.19" rx="2.85" ry="1.59"/><rect class="cls-80" x="13.3" y="63.48" width="6.69" height="9.34"/><ellipse class="cls-81" cx="16.64" cy="72.87" rx="3.34" ry="1.59"/><path class="cls-82" d="M52.09,231.93h0a2.14,2.14,0,0,0-2-.69l-.84.09q.41-.06.84-.09l-12.14.92.85,7.06,13.65-1.53v0A5.47,5.47,0,0,0,53,235,4.77,4.77,0,0,0,52.09,231.93Zm.15.27a1.7,1.7,0,0,1,.11.36A1.7,1.7,0,0,0,52.24,232.2Z"/><ellipse class="cls-59" cx="38.7" cy="221.38" rx="2.5" ry="3.58"/><polygon class="cls-34" points="46.89 219.18 46.89 249.98 32.3 253.91 32.3 222.72 46.89 219.18"/><polyline class="cls-36" points="46.89 222.66 46.91 249.93 33.58 253.55 33.56 225.94"/><polygon class="cls-34" points="46.89 223.06 46.91 249.98 33.95 253.47 33.93 226.21 46.89 223.06"/><polygon class="cls-35" points="32.3 222.69 32.3 253.87 12.26 248.84 12.26 217.84 32.3 222.69"/><polygon class="cls-83" points="30.19 227.61 29.2 227.72 12.22 223.41 13.21 223.3 30.19 227.61"/><polygon class="cls-84" points="30.2 253.03 29.21 253.13 29.2 227.71 30.19 227.6 30.2 253.03"/><polygon class="cls-37" points="49.28 219.03 49.28 220.67 32.68 225.14 32.68 223.18 49.28 219.03"/><polygon class="cls-38" points="32.68 223.15 32.68 225.1 9.87 219.38 9.87 217.62 32.68 223.15"/><polygon class="cls-39" points="26.25 213.65 49.28 219.03 32.68 223.18 9.87 217.56 26.25 213.65"/><path class="cls-85" d="M26.68,240.46a3.66,3.66,0,0,0-.58-2.81c-.5-.55-1-.26-1.24.64a3.75,3.75,0,0,0,.51,2.77C25.88,241.71,26.47,241.44,26.68,240.46Z"/><path class="cls-86" d="M26.53,240.47a3.58,3.58,0,0,0-.58-2.81c-.49-.54-1-.25-1.23.65a3.76,3.76,0,0,0,.51,2.77C25.74,241.72,26.33,241.46,26.53,240.47Z"/><polygon class="cls-87" points="24.66 239.58 24.69 240.03 25.78 239.51 25.79 239.07 24.66 239.58"/><polygon class="cls-83" points="24.66 239.58 25.79 239.07 25.57 238.86 24.66 239.32 24.66 239.58"/><polygon class="cls-86" points="24.22 238.42 23.93 238.93 24.73 241.08 25.03 240.53 24.22 238.42"/><polygon class="cls-87" points="25.03 240.53 24.73 241.08 25.13 241.03 25.43 240.47 25.03 240.53"/><polygon class="cls-83" points="24.22 238.42 25.03 240.53 25.43 240.47 24.59 238.35 24.22 238.42"/><rect class="cls-88" x="27.56" y="74.21" width="3.02" height="142.58"/><ellipse class="cls-89" cx="29.07" cy="176.65" rx="1.51" ry="2.77"/><ellipse class="cls-90" cx="29.07" cy="136.94" rx="1.51" ry="2.5"/><rect class="cls-91" x="27.56" y="137.03" width="3.02" height="53.58"/><path class="cls-92" d="M32.26,207.2a49.58,49.58,0,0,0-6.45,0,.08.08,0,0,0-.08.07h0v1.54h0s0,.06.08.07a57.83,57.83,0,0,0,6.45,0c.05,0,.09,0,.09-.07h0v-1.54h0A.08.08,0,0,0,32.26,207.2Z"/><path class="cls-93" d="M31.51,215.38a19,19,0,0,0-4.94,0,.09.09,0,0,0-.06.1v2.33a.09.09,0,0,0,.06.1,22.05,22.05,0,0,0,4.94,0,.11.11,0,0,0,.06-.1v-2.33A.11.11,0,0,0,31.51,215.38Z"/><rect class="cls-94" x="65.97" y="77.37" width="8.24" height="5.59"/><polygon class="cls-95" points="74.74 77.68 66.31 77.71 66.31 76.34 74.74 76.31 74.74 77.68"/><polygon class="cls-95" points="74.74 83.84 66.31 83.87 66.31 82.5 74.74 82.47 74.74 83.84"/><polygon class="cls-95" points="73.75 83.85 73.72 76.29 75.08 76.29 75.12 83.85 73.75 83.85"/><polygon class="cls-96" points="66.28 76.41 0 73.3 14.48 73.08 74.72 76.31 66.28 76.41"/><polygon class="cls-59" points="66.35 83.98 0 80.72 0 73.16 66.35 76.42 66.35 83.98"/><path class="cls-97" d="M20.86,61.89a32.15,32.15,0,0,0-8.43,0,.16.16,0,0,0-.11.16v4a.15.15,0,0,0,.11.16,37.72,37.72,0,0,0,8.43,0c.06,0,.1-.07.1-.16v-4A.15.15,0,0,0,20.86,61.89Z"/><path class="cls-98" d="M64.57,62.32a32.15,32.15,0,0,0-8.43,0,.16.16,0,0,0-.11.17v4c0,.09,0,.16.11.16a36.56,36.56,0,0,0,8.43,0c.06,0,.1-.07.1-.16v-4C64.67,62.4,64.63,62.33,64.57,62.32Z"/><path class="cls-99" d="M91.17,56a31.72,31.72,0,0,0-8.43,0,.15.15,0,0,0-.11.16v4a.16.16,0,0,0,.11.16,37.72,37.72,0,0,0,8.43,0,.16.16,0,0,0,.11-.16v-4A.15.15,0,0,0,91.17,56Z"/><path class="cls-100" d="M149.07,52.49a32.15,32.15,0,0,0-8.43,0,.16.16,0,0,0-.11.16v4a.16.16,0,0,0,.11.16,37.72,37.72,0,0,0,8.43,0,.16.16,0,0,0,.11-.16v-4A.16.16,0,0,0,149.07,52.49Z"/><rect class="cls-101" x="15.42" y="13.04" width="2.45" height="6.21"/><path class="cls-102" d="M20.42,62.09c-.07-1-.11-2.1-.11-3.49V25.47H13V58.6c0,1.39-.05,2.54-.11,3.49Z"/><path class="cls-4" d="M20.05,43.92a3.64,3.64,0,0,0-.57-.25,9.73,9.73,0,0,0-2.73-.43,7.52,7.52,0,0,0-2.22.16,3.51,3.51,0,0,0-1.3.6v1.75c.29,0,.58-.1.87-.13a13,13,0,0,1,2.49-.11,8.24,8.24,0,0,1,3.46.91Z"/><path class="cls-5" d="M16.64,42.18c-4.27,0-6.21,1.93-6.21,1.93v1.08H22.86V44.11S20.92,42.18,16.64,42.18Z"/><path class="cls-6" d="M18.53,44.23a9,9,0,0,1-2.64.23l-2.25,0-2,0c-.41,0-.83-.06-1.23-.07v.84H22.86V44.11a6.62,6.62,0,0,0-2.38-1.32A3.37,3.37,0,0,1,18.53,44.23Z"/><path class="cls-7" d="M19.55,42.82l.14,0A11.37,11.37,0,0,0,10.82,44,15.43,15.43,0,0,1,19.55,42.82Z"/><path class="cls-4" d="M20.05,48.16a4.91,4.91,0,0,0-.57-.25,9.37,9.37,0,0,0-2.73-.42,7.87,7.87,0,0,0-2.22.15,3.67,3.67,0,0,0-1.3.6V50l.87-.14a14.79,14.79,0,0,1,2.49-.11,8.4,8.4,0,0,1,3.46.91Z"/><path class="cls-5" d="M16.64,46.42c-4.27,0-6.21,1.93-6.21,1.93v1.08H22.86V48.35S20.92,46.42,16.64,46.42Z"/><path class="cls-6" d="M18.53,48.47a9,9,0,0,1-2.64.24l-2.25,0-2,0c-.41,0-.83,0-1.23-.07v.84H22.86V48.35A6.81,6.81,0,0,0,20.48,47,3.32,3.32,0,0,1,18.53,48.47Z"/><path class="cls-7" d="M19.55,47.06l.14,0a11.33,11.33,0,0,0-8.87,1.17A15.43,15.43,0,0,1,19.55,47.06Z"/><path class="cls-4" d="M20.05,52.41a2.9,2.9,0,0,0-.57-.25,9.73,9.73,0,0,0-2.73-.43,7.87,7.87,0,0,0-2.22.15,3.86,3.86,0,0,0-1.3.6v1.76c.29,0,.58-.1.87-.13A13.81,13.81,0,0,1,16.59,54a8.41,8.41,0,0,1,3.46.92Z"/><path class="cls-5" d="M16.64,50.67c-4.27,0-6.21,1.93-6.21,1.93v1.08H22.86V52.6S20.92,50.67,16.64,50.67Z"/><path class="cls-6" d="M18.53,52.72a9,9,0,0,1-2.64.23l-2.25,0-2,0c-.41,0-.83-.06-1.23-.07v.84H22.86V52.6a6.62,6.62,0,0,0-2.38-1.32A3.37,3.37,0,0,1,18.53,52.72Z"/><path class="cls-7" d="M19.55,51.3l.14,0a11.33,11.33,0,0,0-8.87,1.18A15.35,15.35,0,0,1,19.55,51.3Z"/><path class="cls-4" d="M20.05,56.65a3.64,3.64,0,0,0-.57-.25A9.73,9.73,0,0,0,16.75,56a7.87,7.87,0,0,0-2.22.16,3.67,3.67,0,0,0-1.3.6v1.76l.87-.14a13.81,13.81,0,0,1,2.49-.11,8.4,8.4,0,0,1,3.46.91Z"/><path class="cls-5" d="M16.64,54.91c-4.27,0-6.21,1.93-6.21,1.93v1.08H22.86V56.84S20.92,54.91,16.64,54.91Z"/><path class="cls-6" d="M18.53,57a9,9,0,0,1-2.64.23l-2.25,0-2,0c-.41,0-.83-.06-1.23-.07v.84H22.86V56.84a6.62,6.62,0,0,0-2.38-1.32A3.37,3.37,0,0,1,18.53,57Z"/><path class="cls-7" d="M19.55,55.55l.14,0a11.33,11.33,0,0,0-8.87,1.17A15.43,15.43,0,0,1,19.55,55.55Z"/><path class="cls-4" d="M20.05,39.33a3.64,3.64,0,0,0-.57-.25,9.73,9.73,0,0,0-2.73-.43,7.87,7.87,0,0,0-2.22.15,3.69,3.69,0,0,0-1.3.61v1.75c.29,0,.58-.1.87-.13a13,13,0,0,1,2.49-.11,8.24,8.24,0,0,1,3.46.91Z"/><path class="cls-5" d="M16.64,37.59c-4.27,0-6.21,1.93-6.21,1.93V40.6H22.86V39.52S20.92,37.59,16.64,37.59Z"/><path class="cls-6" d="M18.53,39.64a9,9,0,0,1-2.64.23l-2.25,0-2,0c-.41,0-.83-.06-1.23-.07v.84H22.86V39.52a6.62,6.62,0,0,0-2.38-1.32A3.37,3.37,0,0,1,18.53,39.64Z"/><path class="cls-7" d="M19.55,38.23l.14,0a11.37,11.37,0,0,0-8.87,1.18A15.34,15.34,0,0,1,19.55,38.23Z"/><path class="cls-4" d="M20.05,34.74a2.9,2.9,0,0,0-.57-.25,9.73,9.73,0,0,0-2.73-.43,7.87,7.87,0,0,0-2.22.15,3.86,3.86,0,0,0-1.3.6v1.76c.29,0,.58-.1.87-.13a13.81,13.81,0,0,1,2.49-.12,8.41,8.41,0,0,1,3.46.92Z"/><path class="cls-5" d="M16.64,33c-4.27,0-6.21,1.93-6.21,1.93V36H22.86V34.93S20.92,33,16.64,33Z"/><path class="cls-6" d="M18.53,35.05a9,9,0,0,1-2.64.23l-2.25,0-2,0c-.41,0-.83-.06-1.23-.07V36H22.86V34.93a6.62,6.62,0,0,0-2.38-1.32A3.37,3.37,0,0,1,18.53,35.05Z"/><path class="cls-7" d="M19.55,33.63l.14,0a11.37,11.37,0,0,0-8.87,1.18A15.35,15.35,0,0,1,19.55,33.63Z"/><path class="cls-4" d="M20.05,30.15a2.9,2.9,0,0,0-.57-.25,9.38,9.38,0,0,0-2.73-.43,7.87,7.87,0,0,0-2.22.15,3.86,3.86,0,0,0-1.3.6V32l.87-.14a14.79,14.79,0,0,1,2.49-.11,8.41,8.41,0,0,1,3.46.92Z"/><path class="cls-5" d="M16.64,28.41c-4.27,0-6.21,1.93-6.21,1.93v1.08H22.86V30.34S20.92,28.41,16.64,28.41Z"/><path class="cls-6" d="M18.53,30.46a9,9,0,0,1-2.64.23l-2.25,0-2,0c-.41,0-.83-.05-1.23-.06v.84H22.86V30.34A6.72,6.72,0,0,0,20.48,29,3.34,3.34,0,0,1,18.53,30.46Z"/><path class="cls-7" d="M19.55,29l.14,0a11.29,11.29,0,0,0-8.87,1.18A15.35,15.35,0,0,1,19.55,29Z"/><path class="cls-103" d="M21.63,19.61q-4.95-.18-10,0c-.07,0-.12,0-.12.05h0v.38l1.14,5.13v.35h0s.06.05.13.05c3.3.1,4.33.11,7.68,0,.07,0,.13,0,.13-.05h0v-.35l1.15-5.13v-.38h0S21.7,19.61,21.63,19.61Z"/><path class="cls-104" d="M21.63,18.38q-4.95-.18-10,0c-.07,0-.12,0-.12.06h0v1.26h0s.05.06.12.06q4.95.15,10,0c.07,0,.13,0,.13-.06h0V18.45h0S21.7,18.39,21.63,18.38Z"/><rect class="cls-105" x="11.44" y="7.93" width="10.51" height="6.17"/><path class="cls-106" d="M22.56,14q-5.86,0-11.84,0h-.15v.23h.15q5.88,0,11.84,0h.15V14h-.15Z"/><rect class="cls-107" x="59.13" y="13.36" width="2.45" height="6.21"/><path class="cls-108" d="M64.13,62.41c-.07-.95-.11-2.1-.11-3.49V25.79H56.69V58.92c0,1.39,0,2.54-.11,3.49Z"/><path class="cls-4" d="M63.76,44.24a4.91,4.91,0,0,0-.57-.25,9.72,9.72,0,0,0-2.73-.42,7.87,7.87,0,0,0-2.22.15,3.67,3.67,0,0,0-1.3.6v1.76l.87-.14a14.83,14.83,0,0,1,2.49-.11,8.22,8.22,0,0,1,3.46.92Z"/><path class="cls-5" d="M60.35,42.5c-4.27,0-6.21,1.93-6.21,1.93v1.08H66.57V44.43S64.63,42.5,60.35,42.5Z"/><path class="cls-6" d="M62.24,44.55a9,9,0,0,1-2.64.24l-2.25,0-2,0c-.41,0-.83-.05-1.23-.07v.84H66.57V44.43a6.81,6.81,0,0,0-2.38-1.32A3.28,3.28,0,0,1,62.24,44.55Z"/><path class="cls-7" d="M63.26,43.14l.14,0a11.33,11.33,0,0,0-8.87,1.17A15.43,15.43,0,0,1,63.26,43.14Z"/><path class="cls-4" d="M63.76,48.49a2.9,2.9,0,0,0-.57-.25,9.73,9.73,0,0,0-2.73-.43,7.87,7.87,0,0,0-2.22.15,3.69,3.69,0,0,0-1.3.61v1.75c.29,0,.58-.1.87-.13a13.85,13.85,0,0,1,2.49-.12,8.37,8.37,0,0,1,3.46.92Z"/><path class="cls-5" d="M60.35,46.75c-4.27,0-6.21,1.93-6.21,1.93v1.08H66.57V48.68S64.63,46.75,60.35,46.75Z"/><path class="cls-6" d="M62.24,48.8A9,9,0,0,1,59.6,49l-2.25,0-2,0c-.41,0-.83-.06-1.23-.07v.84H66.57V48.68a6.62,6.62,0,0,0-2.38-1.32A3.37,3.37,0,0,1,62.24,48.8Z"/><path class="cls-7" d="M63.26,47.38l.14,0a11.37,11.37,0,0,0-8.87,1.18A15.44,15.44,0,0,1,63.26,47.38Z"/><path class="cls-4" d="M63.76,52.73a3.64,3.64,0,0,0-.57-.25,9.73,9.73,0,0,0-2.73-.43,7.87,7.87,0,0,0-2.22.16,3.67,3.67,0,0,0-1.3.6v1.76l.87-.14a13.85,13.85,0,0,1,2.49-.11,8.36,8.36,0,0,1,3.46.91Z"/><path class="cls-5" d="M60.35,51c-4.27,0-6.21,1.93-6.21,1.93V54H66.57V52.92S64.63,51,60.35,51Z"/><path class="cls-6" d="M62.24,53a9,9,0,0,1-2.64.23l-2.25,0-2,0c-.41,0-.83-.06-1.23-.07V54H66.57V52.92a6.81,6.81,0,0,0-2.38-1.32A3.37,3.37,0,0,1,62.24,53Z"/><path class="cls-7" d="M63.26,51.63l.14,0a11.33,11.33,0,0,0-8.87,1.17A15.43,15.43,0,0,1,63.26,51.63Z"/><path class="cls-4" d="M63.76,57a4.91,4.91,0,0,0-.57-.25,9.72,9.72,0,0,0-2.73-.42,7.87,7.87,0,0,0-2.22.15,3.86,3.86,0,0,0-1.3.6v1.76l.87-.14a14.83,14.83,0,0,1,2.49-.11,8.22,8.22,0,0,1,3.46.92Z"/><path class="cls-5" d="M60.35,55.24c-4.27,0-6.21,1.92-6.21,1.92v1.08H66.57V57.16S64.63,55.24,60.35,55.24Z"/><path class="cls-6" d="M62.24,57.29a9,9,0,0,1-2.64.23l-2.25,0-2,0c-.41,0-.83,0-1.23-.07v.84H66.57V57.16a6.81,6.81,0,0,0-2.38-1.32A3.34,3.34,0,0,1,62.24,57.29Z"/><path class="cls-7" d="M63.26,55.87l.14,0a11.29,11.29,0,0,0-8.87,1.18A15.35,15.35,0,0,1,63.26,55.87Z"/><path class="cls-4" d="M63.76,39.65a4.91,4.91,0,0,0-.57-.25A9.37,9.37,0,0,0,60.46,39a7.87,7.87,0,0,0-2.22.15,3.67,3.67,0,0,0-1.3.6v1.76l.87-.14a14.83,14.83,0,0,1,2.49-.11,8.36,8.36,0,0,1,3.46.91Z"/><path class="cls-5" d="M60.35,37.91c-4.27,0-6.21,1.93-6.21,1.93v1.08H66.57V39.84S64.63,37.91,60.35,37.91Z"/><path class="cls-6" d="M62.24,40a9,9,0,0,1-2.64.24l-2.25,0-2,0c-.41,0-.83,0-1.23-.07v.84H66.57V39.84a6.81,6.81,0,0,0-2.38-1.32A3.32,3.32,0,0,1,62.24,40Z"/><path class="cls-7" d="M63.26,38.55l.14,0a11.33,11.33,0,0,0-8.87,1.17A15.43,15.43,0,0,1,63.26,38.55Z"/><path class="cls-4" d="M63.76,35.06a3.64,3.64,0,0,0-.57-.25,9.37,9.37,0,0,0-2.73-.42,7.51,7.51,0,0,0-2.22.15,3.67,3.67,0,0,0-1.3.6V36.9l.87-.14a13.85,13.85,0,0,1,2.49-.11,8.36,8.36,0,0,1,3.46.91Z"/><path class="cls-5" d="M60.35,33.32c-4.27,0-6.21,1.93-6.21,1.93v1.08H66.57V35.25S64.63,33.32,60.35,33.32Z"/><path class="cls-6" d="M62.24,35.37a9,9,0,0,1-2.64.23l-2.25,0-2,0c-.41,0-.83-.06-1.23-.07v.84H66.57V35.25a6.81,6.81,0,0,0-2.38-1.32A3.37,3.37,0,0,1,62.24,35.37Z"/><path class="cls-7" d="M63.26,34l.14,0a11.33,11.33,0,0,0-8.87,1.17A15.43,15.43,0,0,1,63.26,34Z"/><path class="cls-4" d="M63.76,30.47a3.64,3.64,0,0,0-.57-.25,9.73,9.73,0,0,0-2.73-.43,7.52,7.52,0,0,0-2.22.16,3.51,3.51,0,0,0-1.3.6V32.3c.29,0,.58-.1.87-.13a13,13,0,0,1,2.49-.11,8.21,8.21,0,0,1,3.46.91Z"/><path class="cls-5" d="M60.35,28.73c-4.27,0-6.21,1.93-6.21,1.93v1.08H66.57V30.66S64.63,28.73,60.35,28.73Z"/><path class="cls-6" d="M62.24,30.78A9,9,0,0,1,59.6,31l-2.25,0-2,0c-.41,0-.83-.06-1.23-.07v.84H66.57V30.66a6.62,6.62,0,0,0-2.38-1.32A3.37,3.37,0,0,1,62.24,30.78Z"/><path class="cls-7" d="M63.26,29.37l.14,0a11.37,11.37,0,0,0-8.87,1.18A15.43,15.43,0,0,1,63.26,29.37Z"/><path class="cls-109" d="M65.34,19.93q-5-.18-10,0c-.07,0-.12,0-.12.06h0v.38l1.14,5.13v.34h0s.06.06.13.06c3.3.1,4.33.1,7.68,0,.07,0,.13,0,.13-.06h0v-.34l1.15-5.13V20h0S65.41,19.94,65.34,19.93Z"/><path class="cls-110" d="M65.34,18.71q-5-.18-10,0c-.07,0-.12,0-.12.05h0V20h0s0,.05.12.05c3.3.1,6.63.11,10,0,.07,0,.13,0,.13-.05h0V18.77h0S65.41,18.71,65.34,18.71Z"/><rect class="cls-111" x="55.15" y="8.26" width="10.51" height="6.17"/><path class="cls-112" d="M66.27,14.35c-3.91,0-7.86,0-11.84,0h-.15v.24h.15q5.88,0,11.84,0h.15v-.24h-.15Z"/><rect class="cls-94" x="189.16" y="66.93" width="8.24" height="5.59"/><polygon class="cls-95" points="197.93 67.23 189.5 67.27 189.5 65.9 197.93 65.86 197.93 67.23"/><polygon class="cls-95" points="197.93 73.39 189.5 73.43 189.5 72.06 197.93 72.02 197.93 73.39"/><polygon class="cls-95" points="196.94 73.4 196.9 65.84 198.27 65.84 198.31 73.4 196.94 73.4"/><polygon class="cls-96" points="189.47 65.96 123.19 62.85 137.67 62.63 197.91 65.86 189.47 65.96"/><polygon class="cls-59" points="189.54 73.53 123.19 70.28 123.19 62.71 189.54 65.97 189.54 73.53"/><rect class="cls-94" x="137.72" y="71.75" width="8.24" height="5.59"/><polygon class="cls-95" points="146.49 72.06 138.06 72.09 138.06 70.73 146.49 70.69 146.49 72.06"/><polygon class="cls-95" points="146.49 78.22 138.06 78.25 138.06 76.89 146.49 76.85 146.49 78.22"/><polygon class="cls-95" points="145.5 78.23 145.47 70.67 146.84 70.67 146.87 78.23 145.5 78.23"/><polygon class="cls-96" points="138.04 70.79 71.75 67.68 86.23 67.46 146.48 70.69 138.04 70.79"/><polygon class="cls-59" points="138.1 78.36 71.75 75.1 71.75 67.54 138.1 70.8 138.1 78.36"/><rect class="cls-113" x="37.69" y="-5.38" width="1.54" height="46.01" transform="translate(20.58 55.96) rotate(-89.63)"/><rect class="cls-114" x="59.14" y="16.42" width="3.16" height="2.16"/><rect class="cls-115" x="14.72" y="16.04" width="3.16" height="2.16"/><rect class="cls-116" x="107.13" y="-11.43" width="1.54" height="46.01" transform="translate(95.63 119.4) rotate(-89.63)"/><rect class="cls-117" x="128.58" y="10.37" width="3.16" height="2.16"/><rect class="cls-118" x="84.17" y="9.99" width="3.16" height="2.16"/><rect class="cls-119" x="164.48" y="-14.75" width="1.54" height="46.01" transform="translate(155.92 173.45) rotate(-89.63)"/><rect class="cls-120" x="185.93" y="7.05" width="3.16" height="2.16"/><rect class="cls-121" x="141.51" y="6.67" width="3.16" height="2.16"/><polygon class="cls-122" points="59.26 69.72 185.66 59.65 185.65 61.19 59.25 71.27 59.26 69.72"/><polygon class="cls-123" points="18.36 63.99 56.13 64.21 56.06 65.75 18.29 65.53 18.36 63.99"/><polygon class="cls-124" points="89.97 56.85 127.74 57.08 127.66 58.61 89.9 58.39 89.97 56.85"/><polygon class="cls-125" points="146.95 55.63 184.72 55.85 184.65 57.39 146.88 57.17 146.95 55.63"/><polygon class="cls-126" points="6.81 66.56 133.22 56.48 133.21 58.02 6.8 68.1 6.81 66.56"/><polygon class="cls-95" points="58.46 68 58.46 77.07 55.65 80.4 58.61 83.42 61.91 80.61 61.91 67.92 58.46 68"/><polygon class="cls-59" points="58.22 68 58.22 77.07 55.41 80.4 58.37 83.42 61.66 80.61 61.66 67.92 58.22 68"/><ellipse class="cls-95" cx="59.76" cy="80" rx="0.41" ry="0.63"/><ellipse class="cls-127" cx="59.66" cy="80" rx="0.41" ry="0.63"/><polygon class="cls-95" points="181.65 57.55 181.65 66.63 178.84 69.95 181.8 72.98 185.09 70.17 185.09 57.47 181.65 57.55"/><polygon class="cls-59" points="181.41 57.55 181.41 66.63 178.6 69.95 181.56 72.98 184.85 70.17 184.85 57.47 181.41 57.55"/><ellipse class="cls-95" cx="182.95" cy="69.56" rx="0.41" ry="0.63"/><ellipse class="cls-127" cx="182.85" cy="69.56" rx="0.41" ry="0.63"/><polygon class="cls-95" points="9.52 65.73 9.52 74.81 12.33 78.13 9.37 81.15 6.08 78.34 6.08 65.65 9.52 65.73"/><polygon class="cls-59" points="9.77 65.73 9.77 74.81 12.58 78.13 9.62 81.15 6.32 78.34 6.32 65.65 9.77 65.73"/><ellipse class="cls-95" cx="8.23" cy="77.73" rx="0.41" ry="0.63"/><ellipse class="cls-127" cx="8.32" cy="77.73" rx="0.41" ry="0.63"/><polygon class="cls-95" points="132.71 55.28 132.71 64.36 135.52 67.68 132.56 70.71 129.27 67.9 129.27 55.2 132.71 55.28"/><polygon class="cls-59" points="132.95 55.28 132.95 64.36 135.76 67.68 132.81 70.71 129.51 67.9 129.51 55.2 132.95 55.28"/><ellipse class="cls-95" cx="131.41" cy="67.29" rx="0.41" ry="0.63"/><ellipse class="cls-127" cx="131.51" cy="67.29" rx="0.41" ry="0.63"/><polygon class="cls-95" points="81.27 60.11 81.27 69.19 84.08 72.51 81.13 75.53 77.83 72.72 77.83 60.03 81.27 60.11"/><polygon class="cls-59" points="81.52 60.11 81.52 69.19 84.33 72.51 81.37 75.53 78.07 72.72 78.07 60.03 81.52 60.11"/><ellipse class="cls-95" cx="79.98" cy="72.11" rx="0.41" ry="0.63"/><ellipse class="cls-127" cx="80.07" cy="72.11" rx="0.41" ry="0.63"/><polygon class="cls-95" points="130.21 62.38 130.21 71.45 127.4 74.78 130.36 77.8 133.66 74.99 133.66 62.3 130.21 62.38"/><polygon class="cls-59" points="129.97 62.38 129.97 71.45 127.16 74.78 130.12 77.8 133.41 74.99 133.41 62.3 129.97 62.38"/><ellipse class="cls-95" cx="131.51" cy="74.38" rx="0.41" ry="0.63"/><ellipse class="cls-127" cx="131.41" cy="74.38" rx="0.41" ry="0.63"/></g></g></g></svg>