<svg xmlns="http://www.w3.org/2000/svg" xmlns:xlink="http://www.w3.org/1999/xlink" viewBox="0 0 194.91 227.35"><defs><style>.cls-1{isolation:isolate;}.cls-2{fill:url(#未命名的渐变_106);}.cls-24,.cls-3{fill:#adaea9;}.cls-15,.cls-22,.cls-3,.cls-5{opacity:0.9;}.cls-10,.cls-14,.cls-15,.cls-18,.cls-19,.cls-21,.cls-22,.cls-23,.cls-3,.cls-5,.cls-7{mix-blend-mode:multiply;}.cls-4{fill:#9b9b9b;}.cls-5,.cls-6,.cls-7,.cls-8{fill:#828380;}.cls-10,.cls-14,.cls-18,.cls-19,.cls-7{opacity:0.5;}.cls-11,.cls-16,.cls-20,.cls-8{opacity:0.3;mix-blend-mode:screen;}.cls-10,.cls-11,.cls-9{fill:#1f2225;}.cls-12{fill:#dfba08;}.cls-13,.cls-14,.cls-15,.cls-16{fill:#432e29;}.cls-17,.cls-19,.cls-20,.cls-23{fill:#e0cebc;}.cls-18,.cls-21{fill:#cdcdcf;}.cls-22{fill:#bebab1;}.cls-25{fill:#91928d;}</style><linearGradient id="未命名的渐变_106" x1="16.39" y1="156.07" x2="178.52" y2="156.07" gradientUnits="userSpaceOnUse"><stop offset="0" stop-color="#a5a5a5"/><stop offset="0.21" stop-color="#a5a5a5"/><stop offset="0.27" stop-color="#b9b9ba"/><stop offset="0.72" stop-color="#b9b9ba"/><stop offset="0.79" stop-color="#d6d6d5"/><stop offset="1" stop-color="#d6d6d5"/></linearGradient></defs><title>电压互感器2</title><g class="cls-1"><g id="图层_2" data-name="图层 2"><g id="图层_1-2" data-name="图层 1"><rect class="cls-2" x="16.39" y="92.87" width="162.13" height="126.4"/><path class="cls-3" d="M178.52,92.87H16.39v3.27C28.6,94.54,41.71,94.8,54,94.68c42.09-.38,84.07-1.26,124.5,6.08Z"/><circle class="cls-4" cx="97.46" cy="202.27" r="6.42"/><path class="cls-5" d="M113.18,125.78h-1.82v-1.09H105.9v1.09H89.82v-1.09H84.36v1.09H82.54c-.87,0-1.57,1-1.57,2.2v25.2c0,1.22.7,2.2,1.57,2.2h30.64c.86,0,1.57-1,1.57-2.2V128C114.75,126.76,114,125.78,113.18,125.78Z"/><path class="cls-6" d="M113.94,151.81V127.22c0-1.38-.8-2.51-1.78-2.51H82c-1,0-1.78,1.13-1.78,2.51v24.59c0,1.38.79,2.5,1.78,2.5h30.21C113.14,154.31,113.94,153.19,113.94,151.81Z"/><path class="cls-7" d="M113.94,152.12c0,1.21-.7,2.19-1.56,2.19H81.73c-.86,0-1.56-1-1.56-2.19v-4.65l.58.19c7.18,2.42,14.78,1.47,21.91-1.25,2.63-1,5.35-2.37,7.16-5.23a17.13,17.13,0,0,0,2.2-9.45,25.86,25.86,0,0,0-1.27-7h1.63c.86,0,1.56,1,1.56,2.2Z"/><path class="cls-8" d="M110,125.36c-.15.07-21.51,0-27.52,0-.86,0-1.55,1-1.55,2.19v19.09Z"/><path class="cls-9" d="M108.85,153.32H85.41c-1.88,0-3.41-2.52-3.41-5.63V131.46c0-3.1,1.53-5.63,3.41-5.63h23.44c1.88,0,3.41,2.53,3.41,5.63v16.23C112.26,150.8,110.73,153.32,108.85,153.32Z"/><path class="cls-10" d="M109.27,125.83H85c-1.65,0-3,2.22-3,4.94v17.61a6.91,6.91,0,0,0,.76,3.26,29.1,29.1,0,0,1,1.74-10.35c1.7-4,4.65-6,7.47-7.56,6-3.32,12.44-5.72,18.6-3.43a17.83,17.83,0,0,0,1.69.59C112.26,128.05,110.92,125.83,109.27,125.83Z"/><path class="cls-11" d="M84,153a2,2,0,0,0,1,.33H90l15.68-27.49h-11Z"/><polygon class="cls-12" points="94.79 130.77 91.53 140.32 96.93 140.32 94.94 150.16 101.52 136.47 96.47 136.47 98.86 130.77 94.79 130.77"/><path class="cls-13" d="M50.82,63.33V19.55H34.31V63.33c0,9.51-2.54,10.56-2.54,10.56H53.36S50.82,72.84,50.82,63.33Z"/><path class="cls-13" d="M50.82,63.33V19.55H34.31V63.33c0,9.51-2.54,10.56-2.54,10.56H53.36S50.82,72.84,50.82,63.33Z"/><path class="cls-14" d="M53.36,73.89s-2.54-1-2.54-10.56V19.55H45c0,.28,0,.57.06.84,1.06,12.9.12,25.88-1.12,38.76-.3,3-.69,6.28-2.68,8.59A7.56,7.56,0,0,1,33.73,70c-.75,3.42-2,3.92-2,3.92H53.36Z"/><rect class="cls-13" x="28.84" y="79.62" width="27.45" height="6.04"/><path class="cls-15" d="M50.82,56.91a10.35,10.35,0,0,0-1.39-.56,24.49,24.49,0,0,0-6.6-1,20.18,20.18,0,0,0-5.38.34,9.64,9.64,0,0,0-3.14,1.35v4c.7-.1,1.4-.22,2.11-.31a36.55,36.55,0,0,1,6-.25,21.5,21.5,0,0,1,8.39,2.06Z"/><path class="cls-13" d="M42.56,53c-10.34,0-15,4.35-15,4.35v2.43H57.59V57.34S52.9,53,42.56,53Z"/><path class="cls-14" d="M47.13,57.61a23.19,23.19,0,0,1-6.39.52l-5.44-.05-4.79,0c-1,0-2-.12-3-.15v1.89H57.59V57.34a16.63,16.63,0,0,0-5.75-3A8.11,8.11,0,0,1,47.13,57.61Z"/><path class="cls-16" d="M49.6,54.43l.33.06a29.16,29.16,0,0,0-21.46,2.65C35.3,54.61,42.44,53.1,49.6,54.43Z"/><path class="cls-15" d="M50.82,46.57A10.35,10.35,0,0,0,49.43,46a24.49,24.49,0,0,0-6.6-1,20.18,20.18,0,0,0-5.38.34,9.45,9.45,0,0,0-3.14,1.36v4c.7-.1,1.4-.22,2.11-.3a35.48,35.48,0,0,1,6-.25,21.49,21.49,0,0,1,8.39,2.05Z"/><path class="cls-13" d="M42.56,42.66c-10.34,0-15,4.34-15,4.34v2.43H57.59V47S52.9,42.66,42.56,42.66Z"/><path class="cls-14" d="M47.13,47.27a23.19,23.19,0,0,1-6.39.53l-5.44-.06-4.79-.05c-1,0-2-.12-3-.15v1.89H57.59V47a16.63,16.63,0,0,0-5.75-3A8,8,0,0,1,47.13,47.27Z"/><path class="cls-16" d="M49.6,44.09l.33.06A29.16,29.16,0,0,0,28.47,46.8C35.3,44.27,42.44,42.76,49.6,44.09Z"/><path class="cls-15" d="M50.82,36.23a11.87,11.87,0,0,0-1.39-.56,24.9,24.9,0,0,0-6.6-1,20.6,20.6,0,0,0-5.38.34,9.45,9.45,0,0,0-3.14,1.36v4c.7-.1,1.4-.22,2.11-.3a36.55,36.55,0,0,1,6-.25,21.33,21.33,0,0,1,8.39,2.06Z"/><path class="cls-13" d="M42.56,32.32c-10.34,0-15,4.34-15,4.34v2.43H57.59V36.66S52.9,32.32,42.56,32.32Z"/><path class="cls-14" d="M47.13,36.93a23.19,23.19,0,0,1-6.39.53L35.3,37.4l-4.79,0c-1,0-2-.13-3-.16v1.89H57.59V36.66a16.52,16.52,0,0,0-5.75-3A8,8,0,0,1,47.13,36.93Z"/><path class="cls-16" d="M49.6,33.75l.33.06a29.26,29.26,0,0,0-21.46,2.65C35.3,33.93,42.44,32.42,49.6,33.75Z"/><path class="cls-15" d="M50.82,25.9a10.41,10.41,0,0,0-1.39-.57,24.9,24.9,0,0,0-6.6-1,20.18,20.18,0,0,0-5.38.35,9.43,9.43,0,0,0-3.14,1.35v4c.7-.11,1.4-.23,2.11-.31a36.55,36.55,0,0,1,6-.25,21.33,21.33,0,0,1,8.39,2.06Z"/><path class="cls-13" d="M42.56,22c-10.34,0-15,4.34-15,4.34v2.44H57.59V26.32S52.9,22,42.56,22Z"/><path class="cls-14" d="M47.13,26.59a23.19,23.19,0,0,1-6.39.53l-5.44-.05L30.51,27c-1,0-2-.13-3-.16v1.9H57.59V26.32a16.52,16.52,0,0,0-5.75-3A8,8,0,0,1,47.13,26.59Z"/><path class="cls-16" d="M49.6,23.41l.33.06a29.26,29.26,0,0,0-21.46,2.65C35.3,23.59,42.44,22.08,49.6,23.41Z"/><path class="cls-17" d="M48.9,15.55H36.22c-2.26,0-1.91,4-1.91,4H50.82S51.16,15.55,48.9,15.55Z"/><path class="cls-17" d="M44.82,9.73V0H40.3V9.73c0,5.56-3.47,5.82-3.47,5.82H48.3S44.82,15.29,44.82,9.73Z"/><path class="cls-18" d="M56.29,79.62H52.56a9.13,9.13,0,0,1-.7.91c-1.55,1.7-4,2.26-6.24,2.62-2,.32-4,.55-6.06.67a48.57,48.57,0,0,1-10.64-.49,22.58,22.58,0,0,0-.08,2.33H56.29Z"/><path class="cls-13" d="M56.29,79.62H28.84v-3a2.75,2.75,0,0,1,2.75-2.75h22a2.75,2.75,0,0,1,2.75,2.75Z"/><path class="cls-14" d="M53.36,73.89h-1a15.79,15.79,0,0,1-1,1.53,6.15,6.15,0,0,1-3.4,2,17.89,17.89,0,0,1-4,.4c-5.06.13-10.21.23-15.1-1v2.75H56.29v-2.8A2.93,2.93,0,0,0,53.36,73.89Z"/><path class="cls-16" d="M31.28,74.68a8.8,8.8,0,0,1,2.17-.3c2.77-.14,5.54-.17,8.31-.15,1.41,0,2.81,0,4.21.06l2.05,0c.36,0,1.51-.17,1.73.21s-.44.58-.68.65a3.8,3.8,0,0,1-1.26.11l-12.39-.22a9.09,9.09,0,0,0-4.58.73,2.73,2.73,0,0,1-.65.3c-.7.14-.62-.34-.24-.69A3.38,3.38,0,0,1,31.28,74.68Z"/><path class="cls-19" d="M48.9,15.55H47.72c0,.11,0,.22,0,.33a2.47,2.47,0,0,1-1.39,1.92,5.94,5.94,0,0,1-2.39.56,27.56,27.56,0,0,1-3.4.06,32.18,32.18,0,0,1-5.95-.75l-.19-.06a8.34,8.34,0,0,0-.1,1.94H50.82S51.16,15.55,48.9,15.55Z"/><path class="cls-20" d="M36.67,16a29.72,29.72,0,0,1,3.4-.12l5.35,0c.2,0,.45,0,.51.22a.34.34,0,0,1-.18.36,1,1,0,0,1-.42.07q-3.86.11-7.71,0a3.44,3.44,0,0,0-1.5.19,1.39,1.39,0,0,1-.5.19c-.52,0-.31-.43,0-.61A2.39,2.39,0,0,1,36.67,16Z"/><path class="cls-19" d="M42.56,15.55H48.3s-3.48-.26-3.48-5.82V0H43.3c0,.18,0,.37,0,.55-.05,3.22.09,6.45-.12,9.67a5.55,5.55,0,0,1-.91,3.13,3,3,0,0,1-3.1,1L39,14.28a3.57,3.57,0,0,1-2.14,1.27Z"/><path class="cls-20" d="M42.92.25l-2.39,0c.12,2.84.16,5.69.1,8.53a13.06,13.06,0,0,1-.7,4.62A13.48,13.48,0,0,0,41.17,6.9c0-2.07,0-4.15-.14-6.22A10.15,10.15,0,0,1,42.92.25Z"/><path class="cls-13" d="M105.71,63.33V19.55H89.2V63.33c0,9.51-2.54,10.56-2.54,10.56h21.59S105.71,72.84,105.71,63.33Z"/><path class="cls-13" d="M105.71,63.33V19.55H89.2V63.33c0,9.51-2.54,10.56-2.54,10.56h21.59S105.71,72.84,105.71,63.33Z"/><path class="cls-14" d="M108.25,73.89s-2.54-1-2.54-10.56V19.55h-5.8l.06.84c1.06,12.9.12,25.88-1.12,38.76-.29,3-.69,6.28-2.68,8.59A7.55,7.55,0,0,1,88.62,70c-.75,3.42-2,3.92-2,3.92h21.59Z"/><rect class="cls-13" x="83.73" y="79.62" width="27.45" height="6.04"/><path class="cls-15" d="M105.71,56.91a10.35,10.35,0,0,0-1.39-.56,24.42,24.42,0,0,0-6.59-1,20.25,20.25,0,0,0-5.39.34,9.64,9.64,0,0,0-3.14,1.35v4c.71-.1,1.41-.22,2.11-.31a36.6,36.6,0,0,1,6-.25,21.5,21.5,0,0,1,8.39,2.06Z"/><path class="cls-13" d="M97.46,53c-10.34,0-15,4.35-15,4.35v2.43h30.05V57.34S107.79,53,97.46,53Z"/><path class="cls-14" d="M102,57.61a23.19,23.19,0,0,1-6.39.52l-5.44-.05-4.78,0c-1,0-2-.12-3-.15v1.89h30.05V57.34a16.5,16.5,0,0,0-5.74-3A8.13,8.13,0,0,1,102,57.61Z"/><path class="cls-16" d="M104.49,54.43l.33.06a29.14,29.14,0,0,0-21.45,2.65C90.2,54.61,97.33,53.1,104.49,54.43Z"/><path class="cls-15" d="M105.71,46.57a10.35,10.35,0,0,0-1.39-.56,24.42,24.42,0,0,0-6.59-1,20.25,20.25,0,0,0-5.39.34,9.45,9.45,0,0,0-3.14,1.36v4c.71-.1,1.41-.22,2.11-.3a35.52,35.52,0,0,1,6-.25,21.49,21.49,0,0,1,8.39,2.05Z"/><path class="cls-13" d="M97.46,42.66c-10.34,0-15,4.34-15,4.34v2.43h30.05V47S107.79,42.66,97.46,42.66Z"/><path class="cls-14" d="M102,47.27a23.19,23.19,0,0,1-6.39.53l-5.44-.06-4.78-.05c-1,0-2-.12-3-.15v1.89h30.05V47a16.5,16.5,0,0,0-5.74-3A8,8,0,0,1,102,47.27Z"/><path class="cls-16" d="M104.49,44.09l.33.06A29.14,29.14,0,0,0,83.37,46.8C90.2,44.27,97.33,42.76,104.49,44.09Z"/><path class="cls-15" d="M105.71,36.23a11.87,11.87,0,0,0-1.39-.56,24.82,24.82,0,0,0-6.59-1,20.68,20.68,0,0,0-5.39.34,9.45,9.45,0,0,0-3.14,1.36v4c.71-.1,1.41-.22,2.11-.3a36.6,36.6,0,0,1,6-.25,21.33,21.33,0,0,1,8.39,2.06Z"/><path class="cls-13" d="M97.46,32.32c-10.34,0-15,4.34-15,4.34v2.43h30.05V36.66S107.79,32.32,97.46,32.32Z"/><path class="cls-14" d="M102,36.93a23.19,23.19,0,0,1-6.39.53l-5.44-.06-4.78,0c-1,0-2-.13-3-.16v1.89h30.05V36.66a16.4,16.4,0,0,0-5.74-3A8.07,8.07,0,0,1,102,36.93Z"/><path class="cls-16" d="M104.49,33.75l.33.06a29.24,29.24,0,0,0-21.45,2.65C90.2,33.93,97.33,32.42,104.49,33.75Z"/><path class="cls-15" d="M105.71,25.9a10.41,10.41,0,0,0-1.39-.57,24.82,24.82,0,0,0-6.59-1,20.26,20.26,0,0,0-5.39.35,9.43,9.43,0,0,0-3.14,1.35v4c.71-.11,1.41-.23,2.11-.31a36.6,36.6,0,0,1,6-.25,21.33,21.33,0,0,1,8.39,2.06Z"/><path class="cls-13" d="M97.46,22c-10.34,0-15,4.34-15,4.34v2.44h30.05V26.32S107.79,22,97.46,22Z"/><path class="cls-14" d="M102,26.59a23.19,23.19,0,0,1-6.39.53l-5.44-.05L85.41,27c-1,0-2-.13-3-.16v1.9h30.05V26.32a16.4,16.4,0,0,0-5.74-3A8.07,8.07,0,0,1,102,26.59Z"/><path class="cls-16" d="M104.49,23.41l.33.06a29.24,29.24,0,0,0-21.45,2.65C90.2,23.59,97.33,22.08,104.49,23.41Z"/><path class="cls-17" d="M103.8,15.55H91.11c-2.25,0-1.91,4-1.91,4h16.51S106.06,15.55,103.8,15.55Z"/><path class="cls-17" d="M99.71,9.73V0H95.2V9.73c0,5.56-3.48,5.82-3.48,5.82h11.47S99.71,15.29,99.71,9.73Z"/><path class="cls-18" d="M111.18,79.62h-3.73a7.84,7.84,0,0,1-.7.91c-1.55,1.7-4,2.26-6.24,2.62-2,.32-4,.55-6.06.67a48.48,48.48,0,0,1-10.63-.49,20.08,20.08,0,0,0-.09,2.33h27.45Z"/><path class="cls-13" d="M111.18,79.62H83.73v-3a2.75,2.75,0,0,1,2.75-2.75h22a2.75,2.75,0,0,1,2.75,2.75Z"/><path class="cls-14" d="M108.25,73.89h-1a14,14,0,0,1-1,1.53,6.22,6.22,0,0,1-3.4,2,18,18,0,0,1-4,.4c-5.06.13-10.21.23-15.1-1v2.75h27.45v-2.8A2.93,2.93,0,0,0,108.25,73.89Z"/><path class="cls-16" d="M86.17,74.68a8.82,8.82,0,0,1,2.18-.3c2.76-.14,5.53-.17,8.3-.15,1.41,0,2.81,0,4.21.06l2.06,0c.36,0,1.5-.17,1.72.21s-.44.58-.68.65a3.78,3.78,0,0,1-1.26.11l-12.39-.22a9.11,9.11,0,0,0-4.58.73,2.56,2.56,0,0,1-.65.3c-.69.14-.62-.34-.24-.69A3.38,3.38,0,0,1,86.17,74.68Z"/><path class="cls-19" d="M103.8,15.55h-1.19c0,.11,0,.22,0,.33a2.46,2.46,0,0,1-1.38,1.92,6,6,0,0,1-2.4.56,27.56,27.56,0,0,1-3.4.06,32.29,32.29,0,0,1-6-.75l-.19-.06a8.34,8.34,0,0,0-.1,1.94h16.51S106.06,15.55,103.8,15.55Z"/><path class="cls-20" d="M91.57,16a29.56,29.56,0,0,1,3.4-.12l5.35,0c.19,0,.44,0,.5.22a.34.34,0,0,1-.18.36,1,1,0,0,1-.42.07q-3.85.11-7.7,0a3.48,3.48,0,0,0-1.51.19,1.35,1.35,0,0,1-.49.19c-.53,0-.32-.43-.06-.61A2.39,2.39,0,0,1,91.57,16Z"/><path class="cls-19" d="M97.46,15.55h5.73s-3.48-.26-3.48-5.82V0H98.2a5.07,5.07,0,0,0,0,.55c0,3.22.1,6.45-.12,9.67a5.55,5.55,0,0,1-.91,3.13,3,3,0,0,1-3.1,1l-.18-.05a3.57,3.57,0,0,1-2.14,1.27Z"/><path class="cls-20" d="M97.81.25l-2.39,0c.13,2.84.16,5.69.1,8.53a12.62,12.62,0,0,1-.7,4.62A13.48,13.48,0,0,0,96.07,6.9c0-2.07,0-4.15-.15-6.22A10.15,10.15,0,0,1,97.81.25Z"/><path class="cls-13" d="M160.6,63.33V19.55H144.1V63.33c0,9.51-2.55,10.56-2.55,10.56h21.59S160.6,72.84,160.6,63.33Z"/><path class="cls-13" d="M160.6,63.33V19.55H144.1V63.33c0,9.51-2.55,10.56-2.55,10.56h21.59S160.6,72.84,160.6,63.33Z"/><path class="cls-14" d="M163.14,73.89s-2.54-1-2.54-10.56V19.55h-5.79c0,.28,0,.57.05.84,1.06,12.9.12,25.88-1.12,38.76-.29,3-.69,6.28-2.68,8.59A7.55,7.55,0,0,1,143.51,70c-.75,3.42-2,3.92-2,3.92h21.59Z"/><rect class="cls-13" x="138.62" y="79.62" width="27.45" height="6.04"/><path class="cls-15" d="M160.6,56.91a9.85,9.85,0,0,0-1.39-.56,24.37,24.37,0,0,0-6.59-1,20.28,20.28,0,0,0-5.39.34,9.59,9.59,0,0,0-3.13,1.35v4c.7-.1,1.4-.22,2.1-.31a36.72,36.72,0,0,1,6-.25,21.5,21.5,0,0,1,8.38,2.06Z"/><path class="cls-13" d="M152.35,53c-10.34,0-15,4.35-15,4.35v2.43h30.06V57.34S162.69,53,152.35,53Z"/><path class="cls-14" d="M156.91,57.61a23.12,23.12,0,0,1-6.39.52l-5.43-.05-4.79,0c-1,0-2-.12-3-.15v1.89h30.06V57.34a16.63,16.63,0,0,0-5.75-3A8.13,8.13,0,0,1,156.91,57.61Z"/><path class="cls-16" d="M159.39,54.43l.33.06a29.16,29.16,0,0,0-21.46,2.65C145.09,54.61,152.23,53.1,159.39,54.43Z"/><path class="cls-15" d="M160.6,46.57a9.85,9.85,0,0,0-1.39-.56,24.37,24.37,0,0,0-6.59-1,20.28,20.28,0,0,0-5.39.34,9.4,9.4,0,0,0-3.13,1.36v4c.7-.1,1.4-.22,2.1-.3a35.64,35.64,0,0,1,6-.25,21.49,21.49,0,0,1,8.38,2.05Z"/><path class="cls-13" d="M152.35,42.66c-10.34,0-15,4.34-15,4.34v2.43h30.06V47S162.69,42.66,152.35,42.66Z"/><path class="cls-14" d="M156.91,47.27a23.13,23.13,0,0,1-6.39.53l-5.43-.06-4.79-.05c-1,0-2-.12-3-.15v1.89h30.06V47a16.63,16.63,0,0,0-5.75-3A8,8,0,0,1,156.91,47.27Z"/><path class="cls-16" d="M159.39,44.09l.33.06a29.16,29.16,0,0,0-21.46,2.65C145.09,44.27,152.23,42.76,159.39,44.09Z"/><path class="cls-15" d="M160.6,36.23a11.21,11.21,0,0,0-1.39-.56,24.76,24.76,0,0,0-6.59-1,20.71,20.71,0,0,0-5.39.34,9.4,9.4,0,0,0-3.13,1.36v4c.7-.1,1.4-.22,2.1-.3a36.72,36.72,0,0,1,6-.25,21.32,21.32,0,0,1,8.38,2.06Z"/><path class="cls-13" d="M152.35,32.32c-10.34,0-15,4.34-15,4.34v2.43h30.06V36.66S162.69,32.32,152.35,32.32Z"/><path class="cls-14" d="M156.91,36.93a23.13,23.13,0,0,1-6.39.53l-5.43-.06-4.79,0c-1,0-2-.13-3-.16v1.89h30.06V36.66a16.52,16.52,0,0,0-5.75-3A8.07,8.07,0,0,1,156.91,36.93Z"/><path class="cls-16" d="M159.39,33.75l.33.06a29.26,29.26,0,0,0-21.46,2.65C145.09,33.93,152.23,32.42,159.39,33.75Z"/><path class="cls-15" d="M160.6,25.9a9.89,9.89,0,0,0-1.39-.57,24.76,24.76,0,0,0-6.59-1,20.28,20.28,0,0,0-5.39.35,9.38,9.38,0,0,0-3.13,1.35v4c.7-.11,1.4-.23,2.1-.31a36.72,36.72,0,0,1,6-.25,21.32,21.32,0,0,1,8.38,2.06Z"/><path class="cls-13" d="M152.35,22c-10.34,0-15,4.34-15,4.34v2.44h30.06V26.32S162.69,22,152.35,22Z"/><path class="cls-14" d="M156.91,26.59a23.13,23.13,0,0,1-6.39.53l-5.43-.05L140.3,27c-1,0-2-.13-3-.16v1.9h30.06V26.32a16.52,16.52,0,0,0-5.75-3A8.07,8.07,0,0,1,156.91,26.59Z"/><path class="cls-16" d="M159.39,23.41l.33.06a29.26,29.26,0,0,0-21.46,2.65C145.09,23.59,152.23,22.08,159.39,23.41Z"/><path class="cls-17" d="M158.69,15.55H146c-2.26,0-1.91,4-1.91,4h16.5S161,15.55,158.69,15.55Z"/><path class="cls-17" d="M154.61,9.73V0h-4.52V9.73c0,5.56-3.48,5.82-3.48,5.82h11.47S154.61,15.29,154.61,9.73Z"/><path class="cls-18" d="M166.07,79.62h-3.73a7.84,7.84,0,0,1-.7.91c-1.55,1.7-4,2.26-6.24,2.62-2,.32-4,.55-6.06.67a48.5,48.5,0,0,1-10.63-.49,20.08,20.08,0,0,0-.09,2.33h27.45Z"/><path class="cls-13" d="M166.07,79.62H138.62v-3a2.75,2.75,0,0,1,2.76-2.75h21.94a2.75,2.75,0,0,1,2.75,2.75Z"/><path class="cls-14" d="M163.14,73.89h-1a14,14,0,0,1-1,1.53,6.18,6.18,0,0,1-3.4,2,18,18,0,0,1-4,.4c-5.06.13-10.2.23-15.1-1v2.75h27.45v-2.8A2.93,2.93,0,0,0,163.14,73.89Z"/><path class="cls-16" d="M141.06,74.68a8.88,8.88,0,0,1,2.18-.3c2.77-.14,5.54-.17,8.31-.15l4.21.06,2.05,0c.36,0,1.51-.17,1.72.21s-.44.58-.67.65a3.83,3.83,0,0,1-1.26.11l-12.4-.22a9.05,9.05,0,0,0-4.57.73,2.73,2.73,0,0,1-.65.3c-.7.14-.62-.34-.25-.69A3.45,3.45,0,0,1,141.06,74.68Z"/><path class="cls-19" d="M158.69,15.55h-1.18c0,.11,0,.22,0,.33a2.43,2.43,0,0,1-1.38,1.92,6,6,0,0,1-2.4.56,27.53,27.53,0,0,1-3.4.06,32.07,32.07,0,0,1-5.94-.75l-.19-.06a8.34,8.34,0,0,0-.1,1.94h16.5S161,15.55,158.69,15.55Z"/><path class="cls-20" d="M146.46,16a29.64,29.64,0,0,1,3.4-.12l5.35,0c.2,0,.44,0,.5.22a.33.33,0,0,1-.18.36,1,1,0,0,1-.42.07q-3.84.11-7.7,0a3.48,3.48,0,0,0-1.51.19,1.28,1.28,0,0,1-.49.19c-.52,0-.31-.43,0-.61A2.35,2.35,0,0,1,146.46,16Z"/><path class="cls-19" d="M152.35,15.55h5.73s-3.47-.26-3.47-5.82V0h-1.52c0,.18,0,.37,0,.55-.05,3.22.1,6.45-.12,9.67a5.54,5.54,0,0,1-.9,3.13,3,3,0,0,1-3.1,1l-.19-.05a3.57,3.57,0,0,1-2.14,1.27Z"/><path class="cls-20" d="M152.7.25l-2.39,0c.13,2.84.16,5.69.1,8.53a12.62,12.62,0,0,1-.7,4.62A13.48,13.48,0,0,0,151,6.9c0-2.07,0-4.15-.15-6.22A10.33,10.33,0,0,1,152.7.25Z"/><polygon class="cls-13" points="70.01 81.72 62.83 81.72 62.83 85.66 77.18 85.66 77.18 81.72 70.01 81.72"/><path class="cls-13" d="M74.75,78V72.62a.92.92,0,0,0-.92-.92H66.18a.92.92,0,0,0-.91.92V78c0,3.32-1.72,3.69-1.72,3.69H76.47S74.75,81.35,74.75,78Z"/><path class="cls-14" d="M70,81.72h6.46s-1.72-.37-1.72-3.69V72.62a.92.92,0,0,0-.92-.92H72.57c0,.16,0,.32,0,.47a14.31,14.31,0,0,1-.11,3.64,6.07,6.07,0,0,1-1.86,3.85,5,5,0,0,1-3.44,1,9.45,9.45,0,0,1-1.82-.29,4.82,4.82,0,0,1-.46-.15,2.28,2.28,0,0,1-1.37,1.54Z"/><path class="cls-17" d="M71.52,67h-3c0,3.83-1.51,4.7-1.51,4.7h6S71.52,70.83,71.52,67Z"/><path class="cls-21" d="M77.18,81.72H75a1.09,1.09,0,0,0,0,.18,2.43,2.43,0,0,1-1,1.56,4.89,4.89,0,0,1-1.73.76c-3,.83-6.27.42-9.41-.18v1.62H77.18Z"/><path class="cls-22" d="M74.93,79.61A6.88,6.88,0,0,1,74.75,78,37.29,37.29,0,0,0,66,77.92a5.52,5.52,0,0,0-.71.1,6.43,6.43,0,0,1-.19,1.6c1.2-.11,2.39-.2,3.59-.28l2.08-.11A11.26,11.26,0,0,1,74.93,79.61Z"/><path class="cls-13" d="M76.24,77.08H63.78a1,1,0,0,0,0,1.9H76.24a1,1,0,0,0,0-1.9Z"/><path class="cls-14" d="M76.24,79a1,1,0,0,0,0-1.9H72a2,2,0,0,1-.12.4c-.25.57-1,.72-1.61.78-.87.08-1.74.14-2.61.17s-1.54,0-2.32,0a8.48,8.48,0,0,1-2.25-.23,1.2,1.2,0,0,1-.21-.12,1,1,0,0,0,.94.92H76.24Z"/><path class="cls-16" d="M63.54,77.36a1.8,1.8,0,0,1,.65-.09L71,77.16c.09,0,.21,0,.25.1a.18.18,0,0,1-.08.19.51.51,0,0,1-.21.06,44,44,0,0,1-6.39,0,1.32,1.32,0,0,0-.92.2c-.1.1-.37.39-.45.1S63.37,77.42,63.54,77.36Z"/><path class="cls-22" d="M68.67,75.66l2.08-.11a11.91,11.91,0,0,1,4,.34V74.35A37.84,37.84,0,0,0,66,74.24a5.52,5.52,0,0,0-.71.11v1.58C66.4,75.83,67.53,75.74,68.67,75.66Z"/><path class="cls-13" d="M76.24,73.4H63.78a.95.95,0,0,0,0,1.9H76.24a1,1,0,0,0,0-1.9Z"/><path class="cls-14" d="M76.24,75.3a1,1,0,0,0,0-1.9H72a1.69,1.69,0,0,1-.12.4c-.25.58-1,.72-1.61.78-.87.09-1.74.15-2.61.17s-1.54,0-2.32,0a8.92,8.92,0,0,1-2.25-.24,1.2,1.2,0,0,1-.21-.12,1,1,0,0,0,.94.92H76.24Z"/><path class="cls-16" d="M63.54,73.68a2,2,0,0,1,.65-.09l6.76-.1c.09,0,.21,0,.25.1a.19.19,0,0,1-.08.19.72.72,0,0,1-.21,0,44,44,0,0,1-6.39,0,1.22,1.22,0,0,0-.92.2c-.1.1-.37.38-.45.1S63.37,73.75,63.54,73.68Z"/><path class="cls-23" d="M67,71.7h6s-1.51-.87-1.51-4.7h-.89c0,.13,0,.27.05.4a7.16,7.16,0,0,1,.07,1.79,2.52,2.52,0,0,1-.59,1.6,1.74,1.74,0,0,1-1.48.44,2.4,2.4,0,0,1-1-.4A2.36,2.36,0,0,1,67,71.7Z"/><path class="cls-20" d="M68.67,67.49c0-.12,0-.27.14-.29a.16.16,0,0,1,.15.09.41.41,0,0,1,0,.19,7.87,7.87,0,0,1-.31,2.64,1.15,1.15,0,0,1-.17.41c-.06.07-.26.23-.37.16s0-.19,0-.26a6.66,6.66,0,0,0,.3-1A7,7,0,0,0,68.67,67.49Z"/><polygon class="cls-13" points="15.12 81.72 7.94 81.72 7.94 85.66 22.29 85.66 22.29 81.72 15.12 81.72"/><path class="cls-13" d="M19.86,78V72.62a.92.92,0,0,0-.92-.92H11.29a.92.92,0,0,0-.92.92V78c0,3.32-1.72,3.69-1.72,3.69H21.58S19.86,81.35,19.86,78Z"/><path class="cls-14" d="M15.12,81.72h6.46s-1.72-.37-1.72-3.69V72.62a.92.92,0,0,0-.92-.92H17.68l0,.47a14.31,14.31,0,0,1-.1,3.64,6.07,6.07,0,0,1-1.86,3.85,5.05,5.05,0,0,1-3.44,1,9.33,9.33,0,0,1-1.82-.29,4,4,0,0,1-.46-.15,2.28,2.28,0,0,1-1.38,1.54Z"/><path class="cls-17" d="M16.63,67h-3c0,3.83-1.51,4.7-1.51,4.7h6.05S16.63,70.83,16.63,67Z"/><path class="cls-21" d="M22.29,81.72H20.08a1.09,1.09,0,0,1,0,.18,2.38,2.38,0,0,1-1,1.56,5,5,0,0,1-1.73.76c-3.06.83-6.27.42-9.41-.18v1.62H22.29Z"/><path class="cls-22" d="M20,79.61A6.88,6.88,0,0,1,19.86,78a37.37,37.37,0,0,0-8.78-.11,6.06,6.06,0,0,0-.71.1,7,7,0,0,1-.18,1.6c1.19-.11,2.39-.2,3.59-.28l2.07-.11A11.33,11.33,0,0,1,20,79.61Z"/><path class="cls-13" d="M21.34,77.08H8.89a1,1,0,1,0,0,1.9H21.34a1,1,0,0,0,0-1.9Z"/><path class="cls-14" d="M21.34,79a1,1,0,0,0,0-1.9H17.07c0,.13-.07.27-.12.4-.26.57-1,.72-1.62.78-.86.08-1.73.14-2.6.17s-1.55,0-2.32,0a8.48,8.48,0,0,1-2.25-.23A.92.92,0,0,1,8,78.06a1,1,0,0,0,.94.92H21.34Z"/><path class="cls-16" d="M8.65,77.36a1.77,1.77,0,0,1,.65-.09l6.76-.11c.09,0,.21,0,.24.1a.16.16,0,0,1-.07.19.51.51,0,0,1-.21.06,44,44,0,0,1-6.39,0,1.32,1.32,0,0,0-.92.2c-.11.1-.37.39-.45.1S8.48,77.42,8.65,77.36Z"/><path class="cls-22" d="M13.78,75.66l2.07-.11a12,12,0,0,1,4,.34V74.35a37.92,37.92,0,0,0-8.78-.11,6.12,6.12,0,0,0-.71.11v1.58C11.51,75.83,12.64,75.74,13.78,75.66Z"/><path class="cls-13" d="M21.34,73.4H8.89a.95.95,0,1,0,0,1.9H21.34a1,1,0,1,0,0-1.9Z"/><path class="cls-14" d="M21.34,75.3a1,1,0,1,0,0-1.9H17.07a3.79,3.79,0,0,1-.12.4c-.26.58-1,.72-1.62.78-.86.09-1.73.15-2.6.17s-1.55,0-2.32,0a8.92,8.92,0,0,1-2.25-.24A.92.92,0,0,1,8,74.38a1,1,0,0,0,.94.92H21.34Z"/><path class="cls-16" d="M8.65,73.68a2,2,0,0,1,.65-.09l6.76-.1c.09,0,.21,0,.24.1a.17.17,0,0,1-.07.19.72.72,0,0,1-.21,0,44,44,0,0,1-6.39,0,1.22,1.22,0,0,0-.92.2c-.11.1-.37.38-.45.1S8.48,73.75,8.65,73.68Z"/><path class="cls-23" d="M12.09,71.7h6.05s-1.51-.87-1.51-4.7h-.89c0,.13,0,.27,0,.4a7.67,7.67,0,0,1,.07,1.79,2.47,2.47,0,0,1-.6,1.6,1.73,1.73,0,0,1-1.48.44,2.4,2.4,0,0,1-1-.4A2.36,2.36,0,0,1,12.09,71.7Z"/><path class="cls-20" d="M13.78,67.49c0-.12,0-.27.13-.29a.17.17,0,0,1,.16.09.41.41,0,0,1,0,.19,7.87,7.87,0,0,1-.31,2.64,1,1,0,0,1-.18.41c0,.07-.25.23-.36.16s0-.19,0-.26a8.2,8.2,0,0,0,.3-1A7.32,7.32,0,0,0,13.78,67.49Z"/><polygon class="cls-13" points="179.79 81.72 172.62 81.72 172.62 85.66 186.97 85.66 186.97 81.72 179.79 81.72"/><path class="cls-13" d="M184.54,78V72.62a.92.92,0,0,0-.92-.92H176a.92.92,0,0,0-.92.92V78c0,3.32-1.72,3.69-1.72,3.69h12.93S184.54,81.35,184.54,78Z"/><path class="cls-14" d="M179.79,81.72h6.47s-1.72-.37-1.72-3.69V72.62a.92.92,0,0,0-.92-.92h-1.26c0,.16,0,.32,0,.47a14.78,14.78,0,0,1-.1,3.64,6,6,0,0,1-1.87,3.85,5,5,0,0,1-3.43,1,9.33,9.33,0,0,1-1.82-.29,3.49,3.49,0,0,1-.46-.15,2.28,2.28,0,0,1-1.38,1.54Z"/><path class="cls-17" d="M181.31,67h-3c0,3.83-1.51,4.7-1.51,4.7h6S181.31,70.83,181.31,67Z"/><path class="cls-21" d="M187,81.72h-2.21a1.09,1.09,0,0,1,0,.18,2.38,2.38,0,0,1-1,1.56,5,5,0,0,1-1.73.76c-3.06.83-6.27.42-9.41-.18v1.62H187Z"/><path class="cls-22" d="M184.72,79.61a6.88,6.88,0,0,1-.18-1.58,37.37,37.37,0,0,0-8.78-.11,5.77,5.77,0,0,0-.71.1,7,7,0,0,1-.18,1.6c1.19-.11,2.39-.2,3.58-.28l2.08-.11A11.33,11.33,0,0,1,184.72,79.61Z"/><path class="cls-13" d="M186,77.08H173.57a1,1,0,0,0,0,1.9H186a1,1,0,0,0,0-1.9Z"/><path class="cls-14" d="M186,79a1,1,0,0,0,0-1.9h-4.27c0,.13-.07.27-.12.4-.26.57-1,.72-1.62.78-.86.08-1.73.14-2.6.17s-1.55,0-2.32,0a8.48,8.48,0,0,1-2.25-.23.92.92,0,0,1-.21-.12.94.94,0,0,0,.94.92H186Z"/><path class="cls-16" d="M173.33,77.36a1.74,1.74,0,0,1,.64-.09l6.76-.11c.1,0,.22,0,.25.1a.16.16,0,0,1-.07.19.55.55,0,0,1-.22.06,43.83,43.83,0,0,1-6.38,0,1.3,1.3,0,0,0-.92.2c-.11.1-.37.39-.45.1S173.16,77.42,173.33,77.36Z"/><path class="cls-22" d="M178.45,75.66l2.08-.11a12,12,0,0,1,4,.34V74.35a37.92,37.92,0,0,0-8.78-.11,5.81,5.81,0,0,0-.71.11v1.58C176.18,75.83,177.32,75.74,178.45,75.66Z"/><path class="cls-13" d="M186,73.4H173.57a1,1,0,0,0,0,1.9H186a.95.95,0,0,0,0-1.9Z"/><path class="cls-14" d="M186,75.3a.95.95,0,0,0,0-1.9h-4.27a3.79,3.79,0,0,1-.12.4c-.26.58-1,.72-1.62.78-.86.09-1.73.15-2.6.17s-1.55,0-2.32,0a8.92,8.92,0,0,1-2.25-.24.92.92,0,0,1-.21-.12.94.94,0,0,0,.94.92H186Z"/><path class="cls-16" d="M173.33,73.68a2,2,0,0,1,.64-.09l6.76-.1c.1,0,.22,0,.25.1a.17.17,0,0,1-.07.19.79.79,0,0,1-.22,0,43.83,43.83,0,0,1-6.38,0,1.21,1.21,0,0,0-.92.2c-.11.1-.37.38-.45.1S173.16,73.75,173.33,73.68Z"/><path class="cls-23" d="M176.77,71.7h6s-1.51-.87-1.51-4.7h-.89c0,.13,0,.27.05.4a8.26,8.26,0,0,1,.07,1.79,2.53,2.53,0,0,1-.6,1.6,1.73,1.73,0,0,1-1.48.44,2.4,2.4,0,0,1-1-.4A2.36,2.36,0,0,1,176.77,71.7Z"/><path class="cls-20" d="M178.46,67.49c0-.12,0-.27.13-.29a.18.18,0,0,1,.16.09.58.58,0,0,1,0,.19,8.13,8.13,0,0,1-.31,2.64,1,1,0,0,1-.18.41c-.05.07-.26.23-.36.16s0-.19,0-.26a8.2,8.2,0,0,0,.3-1A7.32,7.32,0,0,0,178.46,67.49Z"/><polygon class="cls-13" points="124.9 81.72 117.73 81.72 117.73 85.66 132.08 85.66 132.08 81.72 124.9 81.72"/><path class="cls-13" d="M129.65,78V72.62a.92.92,0,0,0-.92-.92h-7.65a.92.92,0,0,0-.92.92V78c0,3.32-1.72,3.69-1.72,3.69h12.93S129.65,81.35,129.65,78Z"/><path class="cls-14" d="M124.9,81.72h6.47s-1.72-.37-1.72-3.69V72.62a.92.92,0,0,0-.92-.92h-1.27c0,.16,0,.32,0,.47a14.31,14.31,0,0,1-.11,3.64,6,6,0,0,1-1.86,3.85,5,5,0,0,1-3.44,1,9.23,9.23,0,0,1-1.81-.29,3.49,3.49,0,0,1-.46-.15,2.28,2.28,0,0,1-1.38,1.54Z"/><path class="cls-17" d="M126.41,67h-3c0,3.83-1.51,4.7-1.51,4.7h6.05S126.41,70.83,126.41,67Z"/><path class="cls-21" d="M132.08,81.72h-2.21a1.09,1.09,0,0,1,0,.18,2.42,2.42,0,0,1-1,1.56,5,5,0,0,1-1.73.76c-3.06.83-6.27.42-9.41-.18v1.62h14.35Z"/><path class="cls-22" d="M129.83,79.61a6.36,6.36,0,0,1-.18-1.58,37.38,37.38,0,0,0-8.78-.11,5.52,5.52,0,0,0-.71.1,7,7,0,0,1-.18,1.6c1.19-.11,2.38-.2,3.58-.28l2.08-.11A11.33,11.33,0,0,1,129.83,79.61Z"/><path class="cls-13" d="M131.13,77.08H118.68a1,1,0,0,0,0,1.9h12.45a1,1,0,0,0,0-1.9Z"/><path class="cls-14" d="M131.13,79a1,1,0,0,0,0-1.9h-4.28a2,2,0,0,1-.12.4c-.25.57-1,.72-1.61.78-.87.08-1.74.14-2.6.17s-1.55,0-2.32,0a8.48,8.48,0,0,1-2.25-.23,1,1,0,0,1-.22-.12,1,1,0,0,0,1,.92h12.45Z"/><path class="cls-16" d="M118.44,77.36a1.71,1.71,0,0,1,.64-.09l6.76-.11c.1,0,.21,0,.25.1a.16.16,0,0,1-.08.19.51.51,0,0,1-.21.06,44,44,0,0,1-6.39,0,1.28,1.28,0,0,0-.91.2c-.11.1-.38.39-.45.1S118.27,77.42,118.44,77.36Z"/><path class="cls-22" d="M123.56,75.66l2.08-.11a12,12,0,0,1,4,.34V74.35a37.92,37.92,0,0,0-8.78-.11,5.52,5.52,0,0,0-.71.11v1.58C121.29,75.83,122.43,75.74,123.56,75.66Z"/><path class="cls-13" d="M131.13,73.4H118.68a.95.95,0,0,0,0,1.9h12.45a.95.95,0,1,0,0-1.9Z"/><path class="cls-14" d="M131.13,75.3a.95.95,0,1,0,0-1.9h-4.28a1.69,1.69,0,0,1-.12.4c-.25.58-1,.72-1.61.78-.87.09-1.74.15-2.6.17s-1.55,0-2.32,0A8.92,8.92,0,0,1,118,74.5a1,1,0,0,1-.22-.12,1,1,0,0,0,1,.92h12.45Z"/><path class="cls-16" d="M118.44,73.68a1.94,1.94,0,0,1,.64-.09l6.76-.1c.1,0,.21,0,.25.1a.16.16,0,0,1-.08.19.72.72,0,0,1-.21,0,44,44,0,0,1-6.39,0,1.19,1.19,0,0,0-.91.2c-.11.1-.38.38-.45.1S118.27,73.75,118.44,73.68Z"/><path class="cls-23" d="M121.88,71.7h6.05s-1.52-.87-1.52-4.7h-.89l.06.4a7.67,7.67,0,0,1,.06,1.79,2.46,2.46,0,0,1-.59,1.6,1.73,1.73,0,0,1-1.48.44,2.4,2.4,0,0,1-1-.4A2.36,2.36,0,0,1,121.88,71.7Z"/><path class="cls-20" d="M123.57,67.49c0-.12,0-.27.13-.29a.16.16,0,0,1,.15.09.59.59,0,0,1,.05.19,7.88,7.88,0,0,1-.32,2.64,1,1,0,0,1-.17.41c-.06.07-.26.23-.36.16s0-.19,0-.26c.11-.32.22-.63.3-1A7.75,7.75,0,0,0,123.57,67.49Z"/><rect class="cls-4" y="85.4" width="194.91" height="7.51" rx="2.99"/><path class="cls-24" d="M10,89l60.37,1.21,34.41.69c4.66.1,9.32.17,14,0a80.39,80.39,0,0,0,21.86-3.32,9.09,9.09,0,0,0,2.05-.89,5.63,5.63,0,0,0,.84-.61,6.66,6.66,0,0,0,.62-.69H3.75a3.74,3.74,0,0,0-3.7,3.23C3.05,88.74,8.43,89,10,89Z"/><rect class="cls-24" x="9.37" y="219.2" width="176.17" height="5.85"/><rect class="cls-25" x="9.37" y="221.5" width="176.17" height="5.85"/></g></g></g></svg>