<svg xmlns="http://www.w3.org/2000/svg" xmlns:xlink="http://www.w3.org/1999/xlink" viewBox="0 0 297.92 100.52"><defs><style>.cls-1{fill:#b6b6b6;}.cls-2,.cls-3{fill:#2dab66;}.cls-3{stroke:#fff;}.cls-3,.cls-5{stroke-miterlimit:10;stroke-width:3px;}.cls-4{fill:#fcdb00;}.cls-5{stroke:#0a0b0d;fill:url(#未命名的渐变_217);}.cls-6{font-size:34.35px;fill:#0a0b0d;font-family:SourceHanSansCN-Medium-GBpc-EUC-H, Source Han Sans CN;}.cls-7{fill:url(#linear-gradient);}.cls-8{fill:url(#linear-gradient-2);}.cls-9{fill:#fff;}.cls-10{fill:#6d6e70;}.cls-11{fill:url(#linear-gradient-3);}.cls-12{fill:url(#linear-gradient-4);}.cls-13{fill:url(#linear-gradient-5);}.cls-14{fill:url(#linear-gradient-6);}.cls-15{fill:#363636;}.cls-16{fill:url(#linear-gradient-7);}.cls-17{fill:url(#linear-gradient-8);}.cls-18{fill:url(#linear-gradient-9);}.cls-19{fill:url(#linear-gradient-10);}.cls-20{fill:url(#未命名的渐变_550);}.cls-21{fill:url(#未命名的渐变_549);}.cls-22{fill:url(#未命名的渐变_548);}.cls-23{fill:url(#未命名的渐变_547);}.cls-24{fill:url(#未命名的渐变_546);}.cls-25{fill:url(#未命名的渐变_545);}.cls-26{fill:url(#未命名的渐变_544);}.cls-27{fill:url(#未命名的渐变_542);}.cls-28{fill:url(#未命名的渐变_541);}.cls-29{fill:url(#未命名的渐变_540);}.cls-30{fill:url(#未命名的渐变_539);}.cls-31{fill:url(#未命名的渐变_538);}.cls-32{fill:url(#未命名的渐变_537);}.cls-33{fill:url(#未命名的渐变_536);}.cls-34{fill:url(#未命名的渐变_535);}.cls-35{fill:url(#未命名的渐变_534);}.cls-36{fill:url(#未命名的渐变_533);}.cls-37{fill:url(#未命名的渐变_532);}.cls-38{fill:url(#未命名的渐变_531);}.cls-39{fill:url(#未命名的渐变_530);}.cls-40{fill:url(#未命名的渐变_529);}.cls-41{fill:url(#未命名的渐变_528);}.cls-42{fill:url(#未命名的渐变_527);}.cls-43{fill:url(#未命名的渐变_526);}.cls-44{fill:url(#未命名的渐变_525);}.cls-45{fill:url(#linear-gradient-11);}.cls-46{fill:url(#linear-gradient-12);}.cls-47{fill:url(#未命名的渐变_524);}.cls-48{fill:url(#未命名的渐变_523);}.cls-49{fill:url(#未命名的渐变_522);}.cls-50{fill:url(#未命名的渐变_521);}.cls-51{fill:url(#未命名的渐变_520);}.cls-52{fill:url(#未命名的渐变_519);}.cls-53{fill:url(#未命名的渐变_518);}.cls-54{fill:url(#未命名的渐变_517);}.cls-55{fill:url(#未命名的渐变_516);}.cls-56{fill:url(#未命名的渐变_515);}.cls-57{fill:url(#未命名的渐变_514);}.cls-58{fill:url(#未命名的渐变_513);}.cls-59{fill:url(#未命名的渐变_512);}.cls-60{fill:url(#未命名的渐变_511);}.cls-61{fill:url(#未命名的渐变_510);}.cls-62{fill:url(#linear-gradient-13);}.cls-63{fill:url(#linear-gradient-14);}.cls-64{fill:url(#linear-gradient-15);}.cls-65{fill:url(#linear-gradient-16);}.cls-66{fill:url(#linear-gradient-17);}.cls-67{fill:url(#linear-gradient-18);}.cls-68{fill:url(#linear-gradient-19);}.cls-69{fill:url(#radial-gradient);}</style><linearGradient id="未命名的渐变_217" x1="6.72" y1="50.26" x2="291.2" y2="50.26" gradientTransform="translate(98.7 199.22) rotate(-90)" gradientUnits="userSpaceOnUse"><stop offset="0" stop-color="#ffdc52"/><stop offset="0.19" stop-color="#fddd4b"/><stop offset="0.4" stop-color="#fed442"/><stop offset="0.66" stop-color="#fd6"/><stop offset="1" stop-color="#fec526"/></linearGradient><linearGradient id="linear-gradient" x1="954.05" y1="-1865.52" x2="962.12" y2="-1865.71" gradientTransform="matrix(0.72, -0.69, 0.69, 0.72, 662.27, 2060.37)" gradientUnits="userSpaceOnUse"><stop offset="0" stop-color="#d4d4d4"/><stop offset="0.76" stop-color="#a6a6a6"/><stop offset="0.9" stop-color="#6b6b6b"/></linearGradient><linearGradient id="linear-gradient-2" x1="955.52" y1="-1867.22" x2="960.2" y2="-1867.17" gradientTransform="matrix(0.72, -0.69, 0.69, 0.72, 662.27, 2060.37)" gradientUnits="userSpaceOnUse"><stop offset="0.28" stop-color="#9c9c9c"/><stop offset="0.66" stop-color="#e3e3e3"/><stop offset="1" stop-color="#fff"/></linearGradient><linearGradient id="linear-gradient-3" x1="948.49" y1="-1885.54" x2="967.38" y2="-1885.56" gradientTransform="matrix(0.72, -0.69, 0.69, 0.72, 662.27, 2060.37)" gradientUnits="userSpaceOnUse"><stop offset="0" stop-color="#d4d4d4"/><stop offset="0.81" stop-color="#a6a6a6"/><stop offset="1" stop-color="#919191"/></linearGradient><linearGradient id="linear-gradient-4" x1="2976.24" y1="-1839.79" x2="2980.11" y2="-1839.76" gradientTransform="translate(3442.11 889.57) rotate(-134.25)" gradientUnits="userSpaceOnUse"><stop offset="0" stop-color="#fff"/><stop offset="0.34" stop-color="#e3e3e3"/><stop offset="0.72" stop-color="#9c9c9c"/></linearGradient><linearGradient id="linear-gradient-5" x1="2987.19" y1="215.86" x2="3006.09" y2="215.84" gradientTransform="matrix(-0.72, 0.69, -0.69, -0.72, 2377.24, -1858.74)" xlink:href="#linear-gradient-3"/><linearGradient id="linear-gradient-6" x1="863.44" y1="187.17" x2="867.32" y2="187.21" gradientTransform="translate(-402.6 -687.94) rotate(45.75)" xlink:href="#linear-gradient-4"/><linearGradient id="linear-gradient-7" x1="-111.09" y1="-227.85" x2="-90.38" y2="-222.92" gradientTransform="translate(136.4 290.26) rotate(3.04)" gradientUnits="userSpaceOnUse"><stop offset="0" stop-color="#d7d7d7"/><stop offset="1" stop-color="#535353"/></linearGradient><linearGradient id="linear-gradient-8" x1="-101.09" y1="-228.33" x2="-99.75" y2="-227.09" gradientTransform="translate(136.4 290.26) rotate(3.04)" gradientUnits="userSpaceOnUse"><stop offset="0" stop-color="#ebebeb"/><stop offset="0.05" stop-color="#e6e6e6"/><stop offset="0.1" stop-color="#d8d8d8"/><stop offset="0.16" stop-color="silver"/><stop offset="0.22" stop-color="#9f9f9f"/><stop offset="0.28" stop-color="#757575"/><stop offset="0.34" stop-color="#4a4a4a"/><stop offset="0.4" stop-color="#747474"/><stop offset="0.47" stop-color="#9f9f9f"/><stop offset="0.54" stop-color="silver"/><stop offset="0.6" stop-color="#d8d8d8"/><stop offset="0.66" stop-color="#e6e6e6"/><stop offset="0.71" stop-color="#ebebeb"/><stop offset="0.75" stop-color="#e3e3e3"/><stop offset="0.82" stop-color="#cdcdcd"/><stop offset="0.9" stop-color="#aaa"/><stop offset="0.99" stop-color="#797979"/><stop offset="1" stop-color="#737373"/></linearGradient><linearGradient id="linear-gradient-9" x1="-111.87" y1="-218.22" x2="-109.75" y2="-215.14" gradientTransform="translate(136.4 290.26) rotate(3.04)" gradientUnits="userSpaceOnUse"><stop offset="0" stop-color="#f1f1f1"/><stop offset="1" stop-color="#c4c4c4"/></linearGradient><linearGradient id="linear-gradient-10" x1="2601.04" y1="-1785.98" x2="2608.32" y2="-1785.98" gradientTransform="translate(3154.29 665.7) rotate(-134.29)" gradientUnits="userSpaceOnUse"><stop offset="0" stop-color="#4f4f4f"/><stop offset="0.09" stop-color="#4d4d4d"/><stop offset="0.25" stop-color="#555"/><stop offset="0.5" stop-color="#6b6b6b"/><stop offset="0.69" stop-color="gray"/><stop offset="0.92" stop-color="#4a4a4a"/><stop offset="1" stop-color="#2c2c2c"/></linearGradient><linearGradient id="未命名的渐变_550" x1="2610.25" y1="-1846.01" x2="2618.3" y2="-1846.01" gradientTransform="matrix(-0.64, -0.66, 0.67, -0.66, 2981.96, 566.78)" gradientUnits="userSpaceOnUse"><stop offset="0" stop-color="#4e4e4e"/><stop offset="0.09" stop-color="#4d4d4d"/><stop offset="0.17" stop-color="#525252"/><stop offset="0.2" stop-color="#555"/><stop offset="0.41" stop-color="#676767"/><stop offset="0.55" stop-color="#6e6e6e"/><stop offset="0.69" stop-color="#7d7d7d"/><stop offset="0.92" stop-color="#494848"/><stop offset="1" stop-color="#2c2c2b"/></linearGradient><linearGradient id="未命名的渐变_549" x1="2621.11" y1="-1914.46" x2="2630.06" y2="-1914.46" gradientTransform="matrix(-0.59, -0.61, 0.63, -0.61, 2809.62, 467.86)" gradientUnits="userSpaceOnUse"><stop offset="0" stop-color="#4c4c4c"/><stop offset="0.09" stop-color="#4e4e4e"/><stop offset="0.17" stop-color="#535353"/><stop offset="0.17" stop-color="#535353"/><stop offset="0.4" stop-color="#656565"/><stop offset="0.55" stop-color="#6c6c6c"/><stop offset="0.69" stop-color="#797979"/><stop offset="0.92" stop-color="#484747"/><stop offset="1" stop-color="#2c2b2b"/></linearGradient><linearGradient id="未命名的渐变_548" x1="2634.09" y1="-1993.22" x2="2644.12" y2="-1993.22" gradientTransform="matrix(-0.54, -0.55, 0.58, -0.57, 2637.29, 368.94)" gradientUnits="userSpaceOnUse"><stop offset="0" stop-color="#4b4b4b"/><stop offset="0.09" stop-color="#4e4e4e"/><stop offset="0.17" stop-color="#555"/><stop offset="0.37" stop-color="#626262"/><stop offset="0.55" stop-color="#696969"/><stop offset="0.69" stop-color="#767676"/><stop offset="0.92" stop-color="#464545"/><stop offset="1" stop-color="#2c2b2a"/></linearGradient><linearGradient id="未命名的渐变_547" x1="2649.89" y1="-2084.83" x2="2661.25" y2="-2084.83" gradientTransform="matrix(-0.48, -0.5, 0.54, -0.53, 2464.96, 270.02)" gradientUnits="userSpaceOnUse"><stop offset="0" stop-color="#4a4a4a"/><stop offset="0.09" stop-color="#4e4e4e"/><stop offset="0.16" stop-color="#565656"/><stop offset="0.17" stop-color="#575757"/><stop offset="0.33" stop-color="#5f5f5f"/><stop offset="0.55" stop-color="#666"/><stop offset="0.69" stop-color="#737272"/><stop offset="0.92" stop-color="#454444"/><stop offset="1" stop-color="#2b2a2a"/></linearGradient><linearGradient id="未命名的渐变_546" x1="2669.55" y1="-2192.71" x2="2682.57" y2="-2192.71" gradientTransform="matrix(-0.43, -0.44, 0.5, -0.48, 2292.63, 171.1)" gradientUnits="userSpaceOnUse"><stop offset="0" stop-color="#484848"/><stop offset="0.09" stop-color="#4f4f4f"/><stop offset="0.16" stop-color="#575757"/><stop offset="0.17" stop-color="#595959"/><stop offset="0.28" stop-color="#5d5d5d"/><stop offset="0.55" stop-color="#646464"/><stop offset="0.69" stop-color="#706f6f"/><stop offset="0.92" stop-color="#444242"/><stop offset="1" stop-color="#2b2a29"/></linearGradient><linearGradient id="未命名的渐变_545" x1="2694.7" y1="-2321.62" x2="2709.85" y2="-2321.62" gradientTransform="matrix(-0.37, -0.39, 0.45, -0.44, 2120.29, 72.18)" gradientUnits="userSpaceOnUse"><stop offset="0" stop-color="#474747"/><stop offset="0.09" stop-color="#4f4f4f"/><stop offset="0.15" stop-color="#575757"/><stop offset="0.17" stop-color="#5a5a5a"/><stop offset="0.19" stop-color="#5a5a5a"/><stop offset="0.55" stop-color="#616161"/><stop offset="0.69" stop-color="#6c6c6b"/><stop offset="0.92" stop-color="#434140"/><stop offset="1" stop-color="#2b2928"/></linearGradient><linearGradient id="未命名的渐变_544" x1="2728.03" y1="-2478.39" x2="2746.02" y2="-2478.39" gradientTransform="matrix(-0.32, -0.33, 0.41, -0.4, 1947.96, -26.74)" gradientUnits="userSpaceOnUse"><stop offset="0" stop-color="#464646"/><stop offset="0.09" stop-color="#4f4f4f"/><stop offset="0.15" stop-color="#575757"/><stop offset="0.17" stop-color="#5c5c5c"/><stop offset="0.55" stop-color="#5e5e5e"/><stop offset="0.69" stop-color="#696868"/><stop offset="0.92" stop-color="#413f3f"/><stop offset="1" stop-color="#2b2928"/></linearGradient><linearGradient id="未命名的渐变_542" x1="2774.37" y1="-2673.14" x2="2796.34" y2="-2673.14" gradientTransform="matrix(-0.27, -0.28, 0.37, -0.35, 1775.63, -125.66)" gradientUnits="userSpaceOnUse"><stop offset="0" stop-color="#454545"/><stop offset="0.09" stop-color="#505050"/><stop offset="0.14" stop-color="#585858"/><stop offset="0.17" stop-color="#5e5e5e"/><stop offset="0.55" stop-color="#5c5c5c"/><stop offset="0.69" stop-color="#666565"/><stop offset="0.92" stop-color="#403d3d"/><stop offset="1" stop-color="#2b2827"/></linearGradient><linearGradient id="未命名的渐变_541" x1="2843.29" y1="-2921.64" x2="2871.23" y2="-2921.64" gradientTransform="matrix(-0.21, -0.22, 0.32, -0.31, 1603.3, -224.58)" gradientUnits="userSpaceOnUse"><stop offset="0" stop-color="#434343"/><stop offset="0.09" stop-color="#505050"/><stop offset="0.14" stop-color="#585858"/><stop offset="0.17" stop-color="#606060"/><stop offset="0.19" stop-color="#606060"/><stop offset="0.55" stop-color="#595959"/><stop offset="0.69" stop-color="#636261"/><stop offset="0.92" stop-color="#3f3c3b"/><stop offset="1" stop-color="#2b2827"/></linearGradient><linearGradient id="未命名的渐变_540" x1="2957.01" y1="-3249.82" x2="2994.89" y2="-3249.82" gradientTransform="matrix(-0.16, -0.17, 0.28, -0.27, 1430.96, -323.5)" gradientUnits="userSpaceOnUse"><stop offset="0" stop-color="#424242"/><stop offset="0.09" stop-color="#505050"/><stop offset="0.14" stop-color="#585858"/><stop offset="0.17" stop-color="#616161"/><stop offset="0.28" stop-color="#5d5d5d"/><stop offset="0.55" stop-color="#565656"/><stop offset="0.69" stop-color="#5f5e5e"/><stop offset="0.92" stop-color="#3e3a3a"/><stop offset="1" stop-color="#2b2726"/></linearGradient><linearGradient id="未命名的渐变_539" x1="3181.75" y1="-3703.94" x2="3239.53" y2="-3703.94" gradientTransform="matrix(-0.1, -0.11, 0.23, -0.22, 1258.63, -422.43)" gradientUnits="userSpaceOnUse"><stop offset="0" stop-color="#414141"/><stop offset="0.09" stop-color="#515151"/><stop offset="0.13" stop-color="#595959"/><stop offset="0.17" stop-color="#636363"/><stop offset="0.33" stop-color="#5b5b5b"/><stop offset="0.55" stop-color="#545454"/><stop offset="0.69" stop-color="#5c5b5a"/><stop offset="0.92" stop-color="#3c3938"/><stop offset="1" stop-color="#2b2726"/></linearGradient><linearGradient id="未命名的渐变_538" x1="3846.76" y1="-4378.11" x2="3964.21" y2="-4378.11" gradientTransform="matrix(-0.05, -0.06, 0.19, -0.18, 1086.3, -521.35)" gradientUnits="userSpaceOnUse"><stop offset="0" stop-color="#3f3f3f"/><stop offset="0.09" stop-color="#515151"/><stop offset="0.13" stop-color="#595959"/><stop offset="0.17" stop-color="#656565"/><stop offset="0.37" stop-color="#585858"/><stop offset="0.55" stop-color="#515151"/><stop offset="0.69" stop-color="#595757"/><stop offset="0.92" stop-color="#3b3737"/><stop offset="1" stop-color="#2a2625"/></linearGradient><linearGradient id="未命名的渐变_537" x1="54.28" y1="48.57" x2="60.99" y2="48.57" gradientTransform="matrix(0, 0, 0.15, -0.14, 913.96, -620.27)" gradientUnits="userSpaceOnUse"><stop offset="0" stop-color="#3e3e3e"/><stop offset="0.09" stop-color="#525252"/><stop offset="0.13" stop-color="#5a5a5a"/><stop offset="0.17" stop-color="#666"/><stop offset="0.39" stop-color="#565656"/><stop offset="0.55" stop-color="#4f4f4f"/><stop offset="0.69" stop-color="#565454"/><stop offset="0.92" stop-color="#3a3635"/><stop offset="1" stop-color="#2a2624"/></linearGradient><linearGradient id="未命名的渐变_536" x1="1152.59" y1="-7370.51" x2="1273.9" y2="-7370.51" gradientTransform="matrix(0.06, 0.05, 0.1, -0.1, 741.63, -719.19)" gradientUnits="userSpaceOnUse"><stop offset="0" stop-color="#3d3d3d"/><stop offset="0.09" stop-color="#525252"/><stop offset="0.13" stop-color="#5a5a5a"/><stop offset="0.17" stop-color="#686868"/><stop offset="0.2" stop-color="#656565"/><stop offset="0.41" stop-color="#535353"/><stop offset="0.55" stop-color="#4c4c4c"/><stop offset="0.69" stop-color="#525150"/><stop offset="0.92" stop-color="#393433"/><stop offset="1" stop-color="#2a2524"/></linearGradient><linearGradient id="未命名的渐变_535" x1="1931.29" y1="-12495.59" x2="1992.92" y2="-12495.59" gradientTransform="matrix(0.11, 0.11, 0.06, -0.05, 569.3, -818.11)" gradientUnits="userSpaceOnUse"><stop offset="0" stop-color="#3b3b3b"/><stop offset="0.09" stop-color="#525252"/><stop offset="0.13" stop-color="#5a5a5a"/><stop offset="0.17" stop-color="#6a6a6a"/><stop offset="0.24" stop-color="#626262"/><stop offset="0.42" stop-color="#505050"/><stop offset="0.55" stop-color="#494949"/><stop offset="0.69" stop-color="#4f4d4d"/><stop offset="0.92" stop-color="#383232"/><stop offset="1" stop-color="#2a2523"/></linearGradient><linearGradient id="未命名的渐变_534" x1="2725.33" y1="-54340.7" x2="2767.25" y2="-54340.7" gradientTransform="matrix(0.17, 0.16, 0.01, -0.01, 396.97, -917.03)" gradientUnits="userSpaceOnUse"><stop offset="0" stop-color="#3a3a3a"/><stop offset="0.09" stop-color="#535353"/><stop offset="0.12" stop-color="#5b5b5b"/><stop offset="0.17" stop-color="#6c6c6c"/><stop offset="0.26" stop-color="#606060"/><stop offset="0.43" stop-color="#4e4e4e"/><stop offset="0.55" stop-color="#474747"/><stop offset="0.69" stop-color="#4c4a49"/><stop offset="0.92" stop-color="#363130"/><stop offset="1" stop-color="#2a2423"/></linearGradient><linearGradient id="未命名的渐变_533" x1="1857.02" y1="19754.78" x2="1888.69" y2="19754.78" gradientTransform="matrix(0.22, 0.22, -0.03, 0.03, 224.63, -1015.95)" gradientUnits="userSpaceOnUse"><stop offset="0" stop-color="#393939"/><stop offset="0.09" stop-color="#535353"/><stop offset="0.12" stop-color="#5b5b5b"/><stop offset="0.17" stop-color="#6d6d6d"/><stop offset="0.28" stop-color="#5d5d5d"/><stop offset="0.44" stop-color="#4b4b4b"/><stop offset="0.55" stop-color="#444"/><stop offset="0.69" stop-color="#484646"/><stop offset="0.92" stop-color="#352f2f"/><stop offset="1" stop-color="#2a2422"/></linearGradient><linearGradient id="未命名的渐变_532" x1="2087.53" y1="7779.12" x2="2113.28" y2="7779.12" gradientTransform="matrix(0.27, 0.27, -0.07, 0.08, 52.3, -1114.87)" gradientUnits="userSpaceOnUse"><stop offset="0" stop-color="#373737"/><stop offset="0.09" stop-color="#535353"/><stop offset="0.12" stop-color="#5b5b5b"/><stop offset="0.17" stop-color="#6f6f6f"/><stop offset="0.3" stop-color="#5a5a5a"/><stop offset="0.45" stop-color="#484848"/><stop offset="0.55" stop-color="#414141"/><stop offset="0.69" stop-color="#454342"/><stop offset="0.92" stop-color="#342e2d"/><stop offset="1" stop-color="#2a2321"/></linearGradient><linearGradient id="未命名的渐变_531" x1="2177.19" y1="4602.76" x2="2198.96" y2="4602.76" gradientTransform="matrix(0.33, 0.33, -0.12, 0.12, -120.03, -1213.79)" gradientUnits="userSpaceOnUse"><stop offset="0" stop-color="#363636"/><stop offset="0.09" stop-color="#545454"/><stop offset="0.12" stop-color="#5c5c5c"/><stop offset="0.17" stop-color="#717171"/><stop offset="0.31" stop-color="#585858"/><stop offset="0.45" stop-color="#464646"/><stop offset="0.55" stop-color="#3f3f3f"/><stop offset="0.69" stop-color="#42403f"/><stop offset="0.92" stop-color="#332c2b"/><stop offset="1" stop-color="#2a2321"/></linearGradient><linearGradient id="未命名的渐变_530" x1="2230.58" y1="3133.06" x2="2249.52" y2="3133.06" gradientTransform="matrix(0.38, 0.38, -0.16, 0.16, -292.36, -1312.71)" gradientUnits="userSpaceOnUse"><stop offset="0" stop-color="#353535"/><stop offset="0.09" stop-color="#545454"/><stop offset="0.12" stop-color="#5c5c5c"/><stop offset="0.17" stop-color="#727272"/><stop offset="0.17" stop-color="#737373"/><stop offset="0.17" stop-color="#737373"/><stop offset="0.33" stop-color="#555"/><stop offset="0.46" stop-color="#434343"/><stop offset="0.55" stop-color="#3c3c3c"/><stop offset="0.69" stop-color="#3f3c3c"/><stop offset="0.92" stop-color="#312a2a"/><stop offset="1" stop-color="#292220"/></linearGradient><linearGradient id="未命名的渐变_529" x1="2267.24" y1="2285.75" x2="2284.05" y2="2285.75" gradientTransform="matrix(0.43, 0.44, -0.2, 0.21, -464.7, -1411.63)" gradientUnits="userSpaceOnUse"><stop offset="0" stop-color="#343434"/><stop offset="0.09" stop-color="#545454"/><stop offset="0.12" stop-color="#5c5c5c"/><stop offset="0.17" stop-color="#727272"/><stop offset="0.17" stop-color="#747474"/><stop offset="0.19" stop-color="#707070"/><stop offset="0.34" stop-color="#525252"/><stop offset="0.46" stop-color="#404040"/><stop offset="0.55" stop-color="#393939"/><stop offset="0.69" stop-color="#3b3938"/><stop offset="0.92" stop-color="#302928"/><stop offset="1" stop-color="#292220"/></linearGradient><linearGradient id="未命名的渐变_528" x1="2294.31" y1="1734.55" x2="2309.46" y2="1734.55" gradientTransform="matrix(0.49, 0.49, -0.25, 0.25, -637.03, -1510.55)" gradientUnits="userSpaceOnUse"><stop offset="0" stop-color="#323232"/><stop offset="0.09" stop-color="#555"/><stop offset="0.12" stop-color="#5d5d5d"/><stop offset="0.17" stop-color="#737373"/><stop offset="0.17" stop-color="#767676"/><stop offset="0.2" stop-color="#6e6e6e"/><stop offset="0.35" stop-color="#505050"/><stop offset="0.47" stop-color="#3e3e3e"/><stop offset="0.55" stop-color="#373737"/><stop offset="0.69" stop-color="#383635"/><stop offset="0.92" stop-color="#2f2726"/><stop offset="1" stop-color="#29211f"/></linearGradient><linearGradient id="未命名的渐变_527" x1="2315.25" y1="1347.31" x2="2329.08" y2="1347.31" gradientTransform="matrix(0.54, 0.55, -0.29, 0.29, -809.36, -1609.47)" gradientUnits="userSpaceOnUse"><stop offset="0" stop-color="#313131"/><stop offset="0.09" stop-color="#555"/><stop offset="0.12" stop-color="#5d5d5d"/><stop offset="0.16" stop-color="#737373"/><stop offset="0.17" stop-color="#787878"/><stop offset="0.22" stop-color="#6b6b6b"/><stop offset="0.36" stop-color="#4d4d4d"/><stop offset="0.47" stop-color="#3b3b3b"/><stop offset="0.55" stop-color="#343434"/><stop offset="0.69" stop-color="#353231"/><stop offset="0.92" stop-color="#2e2625"/><stop offset="1" stop-color="#29211f"/></linearGradient><linearGradient id="未命名的渐变_526" x1="2331.99" y1="1060.34" x2="2344.73" y2="1060.34" gradientTransform="matrix(0.6, 0.6, -0.34, 0.33, -981.7, -1708.39)" gradientUnits="userSpaceOnUse"><stop offset="0" stop-color="#303030"/><stop offset="0.09" stop-color="#555"/><stop offset="0.12" stop-color="#5d5d5d"/><stop offset="0.16" stop-color="#737373"/><stop offset="0.17" stop-color="#7a7a7a"/><stop offset="0.24" stop-color="#686868"/><stop offset="0.37" stop-color="#4a4a4a"/><stop offset="0.48" stop-color="#383838"/><stop offset="0.55" stop-color="#313131"/><stop offset="0.69" stop-color="#322f2e"/><stop offset="0.92" stop-color="#2c2423"/><stop offset="1" stop-color="#29201e"/></linearGradient><linearGradient id="未命名的渐变_525" x1="2345.7" y1="839.16" x2="2357.54" y2="839.16" gradientTransform="matrix(0.65, 0.65, -0.38, 0.38, -1154.03, -1807.31)" gradientUnits="userSpaceOnUse"><stop offset="0" stop-color="#2e2e2e"/><stop offset="0.09" stop-color="#565656"/><stop offset="0.12" stop-color="#5e5e5e"/><stop offset="0.16" stop-color="#747474"/><stop offset="0.17" stop-color="#7b7b7b"/><stop offset="0.24" stop-color="#666"/><stop offset="0.37" stop-color="#484848"/><stop offset="0.48" stop-color="#363636"/><stop offset="0.55" stop-color="#2f2f2f"/><stop offset="0.69" stop-color="#2e2b2a"/><stop offset="0.92" stop-color="#2b2322"/><stop offset="1" stop-color="#29201d"/></linearGradient><linearGradient id="linear-gradient-11" x1="2357.14" y1="663.47" x2="2368.22" y2="663.47" gradientTransform="matrix(0.7, 0.71, -0.42, 0.42, -1326.36, -1906.23)" gradientUnits="userSpaceOnUse"><stop offset="0" stop-color="#2d2d2d"/><stop offset="0.17" stop-color="#7d7d7d"/><stop offset="0.26" stop-color="#636363"/><stop offset="0.38" stop-color="#454545"/><stop offset="0.48" stop-color="#333"/><stop offset="0.55" stop-color="#2c2c2c"/><stop offset="1" stop-color="#080808"/></linearGradient><linearGradient id="linear-gradient-12" x1="2599.78" y1="-1772.05" x2="2610.06" y2="-1772.05" xlink:href="#linear-gradient-10"/><linearGradient id="未命名的渐变_524" x1="2615.47" y1="-1872.21" x2="2627.2" y2="-1872.21" gradientTransform="matrix(-0.61, -0.63, 0.64, -0.63, 2874.25, 504.95)" gradientUnits="userSpaceOnUse"><stop offset="0" stop-color="#4d4d4d"/><stop offset="0.08" stop-color="#4d4d4d"/><stop offset="0.09" stop-color="#4d4d4d"/><stop offset="0.25" stop-color="#555"/><stop offset="0.49" stop-color="#6b6b6b"/><stop offset="0.5" stop-color="#6c6c6c"/><stop offset="0.58" stop-color="#767676"/><stop offset="0.69" stop-color="#7e7e7e"/><stop offset="0.91" stop-color="#4b4b4b"/><stop offset="0.92" stop-color="#4a4a4a"/><stop offset="1" stop-color="#2c2c2c"/></linearGradient><linearGradient id="未命名的渐变_523" x1="2636.27" y1="-1997.38" x2="2649.94" y2="-1997.38" gradientTransform="matrix(-0.52, -0.54, 0.57, -0.56, 2594.21, 344.21)" gradientUnits="userSpaceOnUse"><stop offset="0" stop-color="#4b4b4b"/><stop offset="0.08" stop-color="#4d4d4d"/><stop offset="0.09" stop-color="#4d4d4d"/><stop offset="0.24" stop-color="#555"/><stop offset="0.47" stop-color="#6b6b6b"/><stop offset="0.5" stop-color="#6e6e6e"/><stop offset="0.56" stop-color="#747474"/><stop offset="0.69" stop-color="#7c7c7c"/><stop offset="0.91" stop-color="#4b4b4b"/><stop offset="0.92" stop-color="#4a4a4a"/><stop offset="1" stop-color="#2c2c2c"/></linearGradient><linearGradient id="未命名的渐变_522" x1="2665.19" y1="-2158.29" x2="2681.58" y2="-2158.29" gradientTransform="matrix(-0.44, -0.45, 0.5, -0.49, 2314.17, 183.46)" gradientUnits="userSpaceOnUse"><stop offset="0" stop-color="#484848"/><stop offset="0.08" stop-color="#4c4c4c"/><stop offset="0.09" stop-color="#4d4d4d"/><stop offset="0.24" stop-color="#555"/><stop offset="0.47" stop-color="#6b6b6b"/><stop offset="0.5" stop-color="#6f6f6f"/><stop offset="0.54" stop-color="#727272"/><stop offset="0.69" stop-color="#7a7a7a"/><stop offset="0.91" stop-color="#4b4b4b"/><stop offset="0.92" stop-color="#4a4a4a"/><stop offset="1" stop-color="#2c2c2c"/></linearGradient><linearGradient id="未命名的渐变_521" x1="2708.22" y1="-2372.78" x2="2728.69" y2="-2372.78" gradientTransform="matrix(-0.35, -0.36, 0.43, -0.42, 2034.13, 22.72)" gradientUnits="userSpaceOnUse"><stop offset="0" stop-color="#464646"/><stop offset="0.08" stop-color="#4c4c4c"/><stop offset="0.09" stop-color="#4d4d4d"/><stop offset="0.23" stop-color="#555"/><stop offset="0.46" stop-color="#6b6b6b"/><stop offset="0.5" stop-color="#707070"/><stop offset="0.69" stop-color="#787878"/><stop offset="0.91" stop-color="#4b4b4b"/><stop offset="0.92" stop-color="#4a4a4a"/><stop offset="1" stop-color="#2c2c2c"/></linearGradient><linearGradient id="未命名的渐变_520" x1="2779.15" y1="-2673.02" x2="2806.46" y2="-2673.02" gradientTransform="matrix(-0.26, -0.27, 0.36, -0.35, 1754.09, -138.03)" gradientUnits="userSpaceOnUse"><stop offset="0" stop-color="#444"/><stop offset="0.08" stop-color="#4c4c4c"/><stop offset="0.09" stop-color="#4c4c4c"/><stop offset="0.22" stop-color="#545454"/><stop offset="0.44" stop-color="#6a6a6a"/><stop offset="0.5" stop-color="#727272"/><stop offset="0.69" stop-color="#767676"/><stop offset="0.91" stop-color="#4b4b4b"/><stop offset="0.92" stop-color="#494949"/><stop offset="1" stop-color="#2c2c2c"/></linearGradient><linearGradient id="未命名的渐变_519" x1="2918.99" y1="-3123.55" x2="2960.02" y2="-3123.55" gradientTransform="matrix(-0.17, -0.18, 0.29, -0.28, 1474.05, -298.77)" gradientUnits="userSpaceOnUse"><stop offset="0" stop-color="#424242"/><stop offset="0.08" stop-color="#4c4c4c"/><stop offset="0.09" stop-color="#4c4c4c"/><stop offset="0.22" stop-color="#545454"/><stop offset="0.43" stop-color="#6a6a6a"/><stop offset="0.5" stop-color="#737373"/><stop offset="0.69" stop-color="#747474"/><stop offset="0.91" stop-color="#4b4b4b"/><stop offset="0.92" stop-color="#494949"/><stop offset="1" stop-color="#2c2c2c"/></linearGradient><linearGradient id="未命名的渐变_518" x1="3330.39" y1="-3877" x2="3412.81" y2="-3877" gradientTransform="matrix(-0.08, -0.09, 0.22, -0.21, 1194, -459.52)" gradientUnits="userSpaceOnUse"><stop offset="0" stop-color="#404040"/><stop offset="0.08" stop-color="#4c4c4c"/><stop offset="0.09" stop-color="#4c4c4c"/><stop offset="0.22" stop-color="#545454"/><stop offset="0.43" stop-color="#6a6a6a"/><stop offset="0.5" stop-color="#747474"/><stop offset="0.69" stop-color="#727272"/><stop offset="0.91" stop-color="#4b4b4b"/><stop offset="0.92" stop-color="#494949"/><stop offset="1" stop-color="#2c2c2c"/></linearGradient><linearGradient id="未命名的渐变_517" x1="54.07" y1="39.29" x2="78.91" y2="39.29" gradientTransform="matrix(0, 0, 0.15, -0.14, 913.96, -620.27)" gradientUnits="userSpaceOnUse"><stop offset="0" stop-color="#3e3e3e"/><stop offset="0.08" stop-color="#4c4c4c"/><stop offset="0.09" stop-color="#4c4c4c"/><stop offset="0.22" stop-color="#545454"/><stop offset="0.41" stop-color="#6a6a6a"/><stop offset="0.5" stop-color="#767676"/><stop offset="0.69" stop-color="#707070"/><stop offset="0.91" stop-color="#4b4b4b"/><stop offset="0.92" stop-color="#494949"/><stop offset="1" stop-color="#2d2d2d"/></linearGradient><linearGradient id="未命名的渐变_516" x1="1717.85" y1="-9714.83" x2="1804.29" y2="-9714.83" gradientTransform="matrix(0.09, 0.09, 0.07, -0.07, 633.92, -781.01)" gradientUnits="userSpaceOnUse"><stop offset="0" stop-color="#3b3b3b"/><stop offset="0.08" stop-color="#4b4b4b"/><stop offset="0.09" stop-color="#4c4c4c"/><stop offset="0.21" stop-color="#545454"/><stop offset="0.41" stop-color="#6a6a6a"/><stop offset="0.5" stop-color="#777"/><stop offset="0.51" stop-color="#767676"/><stop offset="0.69" stop-color="#6e6e6e"/><stop offset="0.91" stop-color="#4a4a4a"/><stop offset="0.92" stop-color="#494949"/><stop offset="1" stop-color="#2d2d2d"/></linearGradient><linearGradient id="未命名的渐变_515" x1="8861.44" y1="-519858.02" x2="9106.2" y2="-519858.02" gradientTransform="matrix(0.18, 0.18, 0, 0, 353.88, -941.76)" gradientUnits="userSpaceOnUse"><stop offset="0" stop-color="#393939"/><stop offset="0.08" stop-color="#4b4b4b"/><stop offset="0.09" stop-color="#4c4c4c"/><stop offset="0.21" stop-color="#545454"/><stop offset="0.4" stop-color="#6a6a6a"/><stop offset="0.5" stop-color="#787878"/><stop offset="0.55" stop-color="#747474"/><stop offset="0.69" stop-color="#6c6c6c"/><stop offset="0.91" stop-color="#4a4a4a"/><stop offset="0.92" stop-color="#494949"/><stop offset="1" stop-color="#2d2d2d"/></linearGradient><linearGradient id="未命名的渐变_514" x1="2070.25" y1="8313.81" x2="2096.75" y2="8313.81" gradientTransform="matrix(0.27, 0.26, -0.07, 0.07, 73.84, -1102.5)" gradientUnits="userSpaceOnUse"><stop offset="0" stop-color="#373737"/><stop offset="0.08" stop-color="#4b4b4b"/><stop offset="0.09" stop-color="#4c4c4c"/><stop offset="0.21" stop-color="#545454"/><stop offset="0.4" stop-color="#6a6a6a"/><stop offset="0.5" stop-color="#797979"/><stop offset="0.57" stop-color="#727272"/><stop offset="0.69" stop-color="#6a6a6a"/><stop offset="0.91" stop-color="#4a4a4a"/><stop offset="0.92" stop-color="#494949"/><stop offset="1" stop-color="#2d2d2d"/></linearGradient><linearGradient id="未命名的渐变_513" x1="2206.1" y1="3683.46" x2="2225.1" y2="3683.46" gradientTransform="matrix(0.35, 0.35, -0.14, 0.14, -206.2, -1263.25)" gradientUnits="userSpaceOnUse"><stop offset="0" stop-color="#353535"/><stop offset="0.08" stop-color="#4b4b4b"/><stop offset="0.09" stop-color="#4c4c4c"/><stop offset="0.21" stop-color="#545454"/><stop offset="0.39" stop-color="#6a6a6a"/><stop offset="0.5" stop-color="#7b7b7b"/><stop offset="0.59" stop-color="#707070"/><stop offset="0.69" stop-color="#686868"/><stop offset="0.91" stop-color="#4a4a4a"/><stop offset="0.92" stop-color="#494949"/><stop offset="1" stop-color="#2d2d2d"/></linearGradient><linearGradient id="未命名的渐变_512" x1="2270.47" y1="2157.58" x2="2285.84" y2="2157.58" gradientTransform="matrix(0.44, 0.44, -0.21, 0.21, -486.24, -1423.99)" gradientUnits="userSpaceOnUse"><stop offset="0" stop-color="#333"/><stop offset="0.08" stop-color="#4b4b4b"/><stop offset="0.09" stop-color="#4b4b4b"/><stop offset="0.2" stop-color="#535353"/><stop offset="0.38" stop-color="#696969"/><stop offset="0.5" stop-color="#7c7c7c"/><stop offset="0.6" stop-color="#6e6e6e"/><stop offset="0.69" stop-color="#666"/><stop offset="0.91" stop-color="#4a4a4a"/><stop offset="0.92" stop-color="#484848"/><stop offset="1" stop-color="#2d2d2d"/></linearGradient><linearGradient id="未命名的渐变_511" x1="2310" y1="1397.82" x2="2322.86" y2="1397.82" gradientTransform="matrix(0.53, 0.53, -0.28, 0.28, -766.28, -1584.74)" gradientUnits="userSpaceOnUse"><stop offset="0" stop-color="#303030"/><stop offset="0.08" stop-color="#4a4a4a"/><stop offset="0.09" stop-color="#4b4b4b"/><stop offset="0.2" stop-color="#535353"/><stop offset="0.38" stop-color="#696969"/><stop offset="0.5" stop-color="#7d7d7d"/><stop offset="0.61" stop-color="#6c6c6c"/><stop offset="0.69" stop-color="#646464"/><stop offset="0.91" stop-color="#4a4a4a"/><stop offset="0.92" stop-color="#484848"/><stop offset="1" stop-color="#2d2d2d"/></linearGradient><linearGradient id="未命名的渐变_510" x1="2337.07" y1="942.94" x2="2348.12" y2="942.94" gradientTransform="matrix(0.62, 0.62, -0.35, 0.35, -1046.32, -1745.48)" gradientUnits="userSpaceOnUse"><stop offset="0" stop-color="#2e2e2e"/><stop offset="0.08" stop-color="#4a4a4a"/><stop offset="0.09" stop-color="#4b4b4b"/><stop offset="0.2" stop-color="#535353"/><stop offset="0.37" stop-color="#696969"/><stop offset="0.5" stop-color="#7f7f7f"/><stop offset="0.61" stop-color="#6a6a6a"/><stop offset="0.69" stop-color="#626262"/><stop offset="0.91" stop-color="#4a4a4a"/><stop offset="0.92" stop-color="#484848"/><stop offset="1" stop-color="#2d2d2d"/></linearGradient><linearGradient id="linear-gradient-13" x1="2356.87" y1="640.1" x2="2366.54" y2="640.1" gradientTransform="matrix(0.7, 0.71, -0.42, 0.42, -1326.36, -1906.23)" gradientUnits="userSpaceOnUse"><stop offset="0" stop-color="#2c2c2c"/><stop offset="0.08" stop-color="#4a4a4a"/><stop offset="0.5" stop-color="gray"/><stop offset="0.64" stop-color="#686868"/><stop offset="0.81" stop-color="#525252"/><stop offset="0.91" stop-color="#4a4a4a"/><stop offset="1" stop-color="#2d2d2d"/></linearGradient><linearGradient id="linear-gradient-14" x1="2363.98" y1="633.28" x2="2359.35" y2="633.28" gradientTransform="matrix(0.7, 0.71, -0.42, 0.42, -1326.36, -1906.23)" gradientUnits="userSpaceOnUse"><stop offset="0" stop-color="#444"/><stop offset="1" stop-color="#333"/></linearGradient><linearGradient id="linear-gradient-15" x1="2364.15" y1="660.46" x2="2359.55" y2="660.46" xlink:href="#linear-gradient-14"/><linearGradient id="linear-gradient-16" x1="2365.96" y1="632.45" x2="2366.31" y2="632.45" gradientTransform="matrix(0.7, 0.71, -0.42, 0.42, -1326.36, -1906.23)" gradientUnits="userSpaceOnUse"><stop offset="0" stop-color="#333"/><stop offset="1" stop-color="#444"/></linearGradient><linearGradient id="linear-gradient-17" x1="2366.18" y1="661.8" x2="2366.48" y2="661.8" xlink:href="#linear-gradient-16"/><linearGradient id="linear-gradient-18" x1="2357.33" y1="633.06" x2="2358.76" y2="633.06" xlink:href="#linear-gradient-14"/><linearGradient id="linear-gradient-19" x1="2357.53" y1="660.79" x2="2358.96" y2="660.79" xlink:href="#linear-gradient-14"/><radialGradient id="radial-gradient" cx="56.83" cy="50.26" r="35.42" gradientUnits="userSpaceOnUse"><stop offset="0" stop-color="#ff7a7a"/><stop offset="1" stop-color="#d60000"/></radialGradient></defs><title>设备在检修</title><g id="图层_2" data-name="图层 2"><g id="图层_1-2" data-name="图层 1"><path class="cls-1" d="M110.2-98.7h77.53a11.5,11.5,0,0,1,11.5,11.5V187.72a11.49,11.49,0,0,1-11.49,11.49H110.2A11.49,11.49,0,0,1,98.7,187.72V-87.21A11.5,11.5,0,0,1,110.2-98.7Z" transform="translate(199.22 -98.7) rotate(90)"/><rect class="cls-2" x="100.09" y="-96.58" width="97.74" height="293.68" rx="17.9" transform="translate(199.22 -98.7) rotate(90)"/><rect class="cls-3" x="103.03" y="-91.98" width="91.85" height="284.49" rx="8.9" transform="translate(199.22 -98.7) rotate(90)"/><path class="cls-4" d="M111.59-96.58h74.75a11.5,11.5,0,0,1,11.5,11.5V185.6a11.49,11.49,0,0,1-11.49,11.49H111.59a11.49,11.49,0,0,1-11.49-11.49V-85.09A11.5,11.5,0,0,1,111.59-96.58Z" transform="translate(199.22 -98.7) rotate(90)"/><rect class="cls-5" x="103.03" y="-91.98" width="91.85" height="284.49" rx="8.9" transform="translate(199.22 -98.7) rotate(90)"/><text class="cls-6" transform="translate(102.29 63.22)">设备在检修</text><path class="cls-7" d="M70.12,59.81a1.2,1.2,0,0,1-.22,1.66L66.29,65a1.21,1.21,0,0,1-1.68.16L45.11,44.87a1.21,1.21,0,0,1,.23-1.67L49,39.73a1.2,1.2,0,0,1,1.67-.17Z"/><path class="cls-8" d="M62.8,55.26a1.31,1.31,0,0,1,0,1.86l-.6.57a1.31,1.31,0,0,1-1.86,0L50.19,47.15a1.31,1.31,0,0,1,0-1.86l.59-.57a1.32,1.32,0,0,1,1.87,0Z"/><rect class="cls-9" x="53.87" y="42.03" width="0.54" height="22.31" transform="translate(-21.75 53.11) rotate(-44.44)"/><path class="cls-10" d="M50.2,43.57a10.53,10.53,0,0,0,1.9-2.47l-1.48-1.54a1.2,1.2,0,0,0-1.67.17L45.34,43.2a1.21,1.21,0,0,0-.23,1.67L46.2,46A10.32,10.32,0,0,0,50.2,43.57Z"/><path class="cls-11" d="M41.32,29.24l4.27,4.42c.68.7.91,1.57.53,1.94L41.58,40c-.39.38-1.25.11-1.92-.59L35.37,35a8.41,8.41,0,0,0,1.44,9.17c3.23,3.34,8.9,3.11,12.65-.52s4.16-9.28.93-12.62A8.39,8.39,0,0,0,41.32,29.24Z"/><path class="cls-9" d="M41.84,29.25l4.32,4.51a1.89,1.89,0,0,1,.51,1.05,2.29,2.29,0,0,0,0-.25,1.81,1.81,0,0,0-.53-1.29l-3.92-4.11Zm1.4,16.24a7.52,7.52,0,0,1-6.11-2.42,8,8,0,0,1-2-5.53c0,.1,0,.2,0,.3a8.05,8.05,0,0,0,2,5.78A7.56,7.56,0,0,0,43.24,46a9.34,9.34,0,0,0,6.31-3.1,9.79,9.79,0,0,0,2.59-7c0-.09,0-.17,0-.26a9.7,9.7,0,0,1-2.59,6.7A9.28,9.28,0,0,1,43.24,45.49Z"/><path class="cls-12" d="M47.44,37c.22-.21.74,0,1.16.4l.47.49c.42.44.59,1,.37,1.18l-4.39,4.34c-.22.21-.74,0-1.16-.4l-.48-.49c-.42-.43-.58-1-.37-1.18Z"/><path class="cls-10" d="M63.09,59.08a10.53,10.53,0,0,0-1.9,2.47l1.48,1.54a1.22,1.22,0,0,0,1.68-.16L68,59.45a1.2,1.2,0,0,0,.23-1.67L67.1,56.66A10.29,10.29,0,0,0,63.09,59.08Z"/><path class="cls-13" d="M72,73.42,67.7,69c-.68-.69-.91-1.56-.53-1.94l4.54-4.39c.39-.37,1.25-.11,1.92.59l4.3,4.43a8.39,8.39,0,0,0-1.45-9.16c-3.23-3.35-8.89-3.12-12.64.51s-4.17,9.28-.93,12.63A8.41,8.41,0,0,0,72,73.42Z"/><path class="cls-9" d="M71.45,73.4l-4.32-4.51a1.82,1.82,0,0,1-.5-1,1,1,0,0,0,0,.25,1.83,1.83,0,0,0,.53,1.29l3.92,4.11ZM70.06,57.16a7.58,7.58,0,0,1,6.11,2.42,8,8,0,0,1,2,5.54c0-.1,0-.2,0-.3a8,8,0,0,0-2-5.78,7.55,7.55,0,0,0-6.13-2.43,9.33,9.33,0,0,0-6.31,3.11,9.79,9.79,0,0,0-2.59,7l0,.26a9.71,9.71,0,0,1,2.58-6.7A9.34,9.34,0,0,1,70.06,57.16Z"/><path class="cls-14" d="M65.85,65.62c-.22.22-.73,0-1.16-.4l-.47-.49c-.42-.43-.59-1-.37-1.18l4.4-4.34c.22-.21.73,0,1.16.4l.47.49c.42.44.59,1,.37,1.18Z"/><path class="cls-15" d="M61.29,52.12h0l0,0,.88.91a6.64,6.64,0,0,0,.72-.64l-6.78-7a6.75,6.75,0,0,0-.93.91l2.7,2.9-4.5,4.38,1.5,1.59,4.5-4.41,1.37,1.44C60.9,52.22,61.09,52.21,61.29,52.12Z"/><path class="cls-16" d="M40,67,57.93,49.6h0c.09-.11-.17-.54-.59-1s-.84-.7-1-.6h0L38.51,65.47l-1.17.13-2.69,3.71.69.71.07.07.69.71,3.78-2.6Z"/><path class="cls-17" d="M39.85,66.93,57.66,49.56h0c.07-.09-.13-.43-.47-.78s-.68-.56-.77-.49h0L38.62,65.66Z"/><polygon class="cls-18" points="35.14 69.21 37.51 66.02 38.35 65.89 39.57 67.12 39.46 68.04 36.2 70.25 35.14 69.21"/><path class="cls-19" d="M54.93,45.81c-.26.33-.36.67-.22.82l4.5,4.63c.14.14.48,0,.8-.23Z"/><path class="cls-20" d="M54.93,45.81c-.26.33-.36.67-.22.82l4.5,4.63c.14.14.48,0,.8-.23Z"/><path class="cls-21" d="M54.93,45.82c-.26.32-.36.66-.21.81l4.49,4.62c.14.15.48,0,.8-.21Z"/><path class="cls-22" d="M54.93,45.82c-.26.32-.36.66-.21.81l4.49,4.62c.15.15.48,0,.79-.21Z"/><path class="cls-23" d="M54.93,45.82c-.26.32-.35.66-.21.81l4.49,4.62c.15.15.48,0,.79-.21Z"/><path class="cls-24" d="M54.93,45.82c-.26.32-.35.65-.21.8l4.49,4.63c.15.14.48,0,.79-.21Z"/><path class="cls-25" d="M54.92,45.82c-.25.31-.34.65-.2.8l4.5,4.63c.14.14.47,0,.78-.21Z"/><path class="cls-26" d="M54.92,45.83c-.25.3-.34.64-.19.79l4.49,4.62c.14.15.47.06.78-.19Z"/><path class="cls-27" d="M54.92,45.83c-.25.3-.34.64-.19.79l4.49,4.62c.15.15.47.06.77-.19Z"/><path class="cls-28" d="M54.92,45.83c-.25.3-.33.64-.19.79l4.49,4.62c.15.15.47.06.77-.19Z"/><path class="cls-29" d="M54.92,45.83c-.25.3-.33.64-.19.78l4.49,4.63c.15.14.47.06.77-.19Z"/><path class="cls-30" d="M54.91,45.83c-.24.3-.32.63-.18.78l4.5,4.63c.14.14.46.06.76-.18Z"/><path class="cls-31" d="M54.91,45.84c-.24.29-.32.62-.17.77l4.49,4.62c.14.15.46.07.76-.17Z"/><path class="cls-32" d="M54.91,45.84c-.24.29-.32.62-.17.77l4.49,4.62c.14.15.46.07.76-.17Z"/><path class="cls-33" d="M54.91,45.84c-.24.29-.31.62-.17.77l4.49,4.62c.15.15.46.07.75-.17Z"/><path class="cls-34" d="M54.91,45.84c-.24.29-.31.62-.17.76l4.49,4.63c.15.14.46.07.75-.17Z"/><path class="cls-35" d="M54.9,45.84c-.23.29-.3.61-.16.76l4.5,4.62c.14.15.45.08.74-.15Z"/><path class="cls-36" d="M54.9,45.84c-.23.29-.3.61-.15.76l4.49,4.62c.14.15.45.08.74-.15Z"/><path class="cls-37" d="M54.9,45.85c-.23.28-.3.6-.15.75l4.49,4.62c.14.15.45.08.74-.15Z"/><path class="cls-38" d="M54.9,45.85c-.23.28-.29.6-.15.75l4.49,4.62c.15.14.46.08.73-.15Z"/><path class="cls-39" d="M54.9,45.85c-.22.28-.29.6-.15.74l4.49,4.63c.15.14.46.08.73-.15Z"/><path class="cls-40" d="M54.89,45.85c-.21.28-.28.59-.14.74l4.5,4.62c.14.15.45.09.72-.13Z"/><path class="cls-41" d="M54.89,45.85c-.21.28-.28.59-.13.74l4.49,4.62c.14.15.45.09.72-.13Z"/><path class="cls-42" d="M54.89,45.86c-.21.27-.28.58-.13.73l4.49,4.62c.14.15.45.09.72-.13Z"/><path class="cls-43" d="M54.89,45.86c-.21.27-.27.58-.13.73l4.49,4.62c.15.14.45.09.71-.13Z"/><path class="cls-44" d="M54.89,45.86c-.21.27-.27.58-.13.72l4.49,4.63c.15.14.45.09.71-.13Z"/><path class="cls-45" d="M54.89,45.86c-.21.27-.27.57-.13.72l4.5,4.62c.14.15.44.1.7-.11Z"/><path class="cls-46" d="M78.43,34.13c1.16-1.18.4-2.71-.24-3.62a18.55,18.55,0,0,0-1.43-1.68,18.17,18.17,0,0,0-1.6-1.43c-.87-.73-2.39-1.47-3.55-.29l-8.19,8.33c-2.05,2.07-2.34,4.53-4.11,6.33-2.57,2.61-3.5,1.39-4.49,2.4a8.69,8.69,0,0,0-.92,1c.71.73,2.58,2.7,3.31,3.45h0l3.41,3.46a7.45,7.45,0,0,0,1-.93c1-1-.18-2,2.38-4.57,1.78-1.8,4.18-2.08,6.23-4.16Z"/><path class="cls-47" d="M76.75,28.84a17.64,17.64,0,0,1,1.42,1.69c.6.84,1.3,2.21.47,3.34a2.68,2.68,0,0,1-.23.26l-8.18,8.32A11.58,11.58,0,0,1,67,44.62a11.32,11.32,0,0,0-3,2,5.72,5.72,0,0,0-2,3.81,1.65,1.65,0,0,1-.41.75l-.2.2-.13.14a5.44,5.44,0,0,1-.67.59L59,50.43l-1.77-1.79h0l-1.73-1.81-1.57-1.63a4.48,4.48,0,0,1,.56-.66l.13-.13c.08-.08.15-.16.23-.23a1.51,1.51,0,0,1,.68-.4,5.55,5.55,0,0,0,3.79-2,11.74,11.74,0,0,0,2-3.13,11.7,11.7,0,0,1,2.12-3.2l8.18-8.32a1.62,1.62,0,0,1,.2-.18c1.1-.9,2.46-.24,3.29.42l.05.05A18.35,18.35,0,0,1,76.75,28.84Z"/><path class="cls-48" d="M76.74,28.86a16.28,16.28,0,0,1,1.42,1.68c.59.85,1.3,2.22.46,3.34a2.68,2.68,0,0,1-.23.26l-8.17,8.3A11.58,11.58,0,0,1,67,44.61a11.11,11.11,0,0,0-3,2,5.63,5.63,0,0,0-2,3.79,1.56,1.56,0,0,1-.4.76l-.19.2a1.85,1.85,0,0,0-.14.14,5.55,5.55,0,0,1-.67.59L59,50.41l-1.76-1.78h0c-.38-.38-1.06-1.1-1.73-1.8l-1.57-1.63a5.09,5.09,0,0,1,.57-.66l.12-.13.23-.22a1.58,1.58,0,0,1,.68-.39,5.53,5.53,0,0,0,3.78-2,11.46,11.46,0,0,0,2-3.13,12,12,0,0,1,2.13-3.2l8.17-8.31a1.62,1.62,0,0,1,.2-.18c1.09-.91,2.45-.24,3.28.42l0,0A20.81,20.81,0,0,1,76.74,28.86Z"/><path class="cls-49" d="M76.73,28.87a16.57,16.57,0,0,1,1.41,1.69c.59.84,1.31,2.21.45,3.33a2.46,2.46,0,0,1-.22.25l-8.16,8.29A11.44,11.44,0,0,1,67,44.6a11,11,0,0,0-3,2,5.69,5.69,0,0,0-2,3.78,1.63,1.63,0,0,1-.39.76l-.19.2a1.59,1.59,0,0,0-.13.13,4.93,4.93,0,0,1-.67.6L59,50.39l-1.76-1.78h0l-1.72-1.79c-.61-.65-1.22-1.28-1.57-1.64a5.19,5.19,0,0,1,.57-.65.8.8,0,0,1,.13-.13l.22-.23a1.61,1.61,0,0,1,.69-.37,5.55,5.55,0,0,0,3.76-2,11.46,11.46,0,0,0,2-3.13,12.13,12.13,0,0,1,2.12-3.21l8.17-8.3L71.8,27c1.09-.92,2.45-.24,3.28.42l0,0A19.47,19.47,0,0,1,76.73,28.87Z"/><path class="cls-50" d="M76.72,28.89a18.21,18.21,0,0,1,1.41,1.68c.59.85,1.31,2.22.44,3.32,0,.07-.16.19-.22.26l-8.14,8.27A11.48,11.48,0,0,1,67,44.59a11.18,11.18,0,0,0-3,2,5.69,5.69,0,0,0-2,3.76,1.69,1.69,0,0,1-.38.77l-.18.19-.14.14a5.69,5.69,0,0,1-.66.6c-.35-.37-1-1-1.63-1.66L57.28,48.6h0L55.55,46.8,54,45.16a6.15,6.15,0,0,1,.57-.65l.13-.13a2.39,2.39,0,0,1,.23-.22,1.48,1.48,0,0,1,.69-.36,5.53,5.53,0,0,0,3.74-2,11.72,11.72,0,0,0,2-3.12,11.78,11.78,0,0,1,2.12-3.22l8.16-8.29L71.8,27c1.08-.93,2.43-.24,3.26.42l0,0C75.67,27.92,76.22,28.39,76.72,28.89Z"/><path class="cls-51" d="M76.71,28.9a18.34,18.34,0,0,1,1.4,1.69c.59.84,1.32,2.21.44,3.31l-.22.25L70.2,42.41A11.7,11.7,0,0,1,67,44.58a11,11,0,0,0-3,2,5.67,5.67,0,0,0-2,3.74,1.67,1.67,0,0,1-.37.77l-.18.19-.13.14a5.43,5.43,0,0,1-.66.59L59,50.36c-.68-.69-1.38-1.39-1.75-1.78h0l-1.71-1.78L54,45.15a6.21,6.21,0,0,1,.58-.65l.12-.13.23-.21a1.55,1.55,0,0,1,.7-.35,5.53,5.53,0,0,0,3.72-2,11.63,11.63,0,0,0,2-3.12,11.78,11.78,0,0,1,2.12-3.22l8.15-8.28.18-.17c1.08-.94,2.43-.23,3.26.41l0,0C75.64,27.92,76.25,28.44,76.71,28.9Z"/><path class="cls-52" d="M76.7,28.91a19.06,19.06,0,0,1,1.4,1.69c.58.85,1.32,2.21.42,3.31a2.46,2.46,0,0,1-.22.25l-8.11,8.25A12,12,0,0,1,67,44.57a11,11,0,0,0-3,2,5.67,5.67,0,0,0-2,3.72,1.65,1.65,0,0,1-.36.78c-.06.06-.11.13-.18.19l-.13.14a5.51,5.51,0,0,1-.65.59l-1.63-1.65-1.74-1.77h0l-1.7-1.78c-.61-.64-1.21-1.27-1.57-1.63a5.34,5.34,0,0,1,.58-.65l.12-.13a2.19,2.19,0,0,1,.23-.21,1.52,1.52,0,0,1,.71-.34,5.51,5.51,0,0,0,3.7-2,11.63,11.63,0,0,0,2-3.12,11.64,11.64,0,0,1,2.12-3.22l8.14-8.27.18-.17c1.07-.95,2.42-.23,3.25.41l0,0C75.61,27.92,76.28,28.5,76.7,28.91Z"/><path class="cls-53" d="M76.68,28.93a17.54,17.54,0,0,1,1.4,1.68c.58.85,1.33,2.22.42,3.31a2.4,2.4,0,0,1-.22.24l-8.1,8.24A12,12,0,0,1,67,44.56a11.19,11.19,0,0,0-3,2,5.67,5.67,0,0,0-2,3.71,1.64,1.64,0,0,1-.35.78l-.17.19-.13.13a5.6,5.6,0,0,1-.66.6l-1.62-1.65-1.74-1.77h0l-1.7-1.77-1.56-1.63a5.19,5.19,0,0,1,.57-.65l.13-.13.22-.21a1.77,1.77,0,0,1,.71-.32,5.52,5.52,0,0,0,3.68-2,11.23,11.23,0,0,0,2-3.11,11.64,11.64,0,0,1,2.12-3.22l8.12-8.26.18-.17c1.07-.95,2.42-.23,3.25.41l0,0C75.58,27.92,76.31,28.55,76.68,28.93Z"/><path class="cls-54" d="M76.67,28.94a17.12,17.12,0,0,1,1.4,1.69c.57.85,1.33,2.21.41,3.3l-.22.24-8.09,8.22A11.84,11.84,0,0,1,67,44.55a10.77,10.77,0,0,0-3,2,5.65,5.65,0,0,0-2,3.69,1.72,1.72,0,0,1-.34.79l-.17.19-.13.13a5.68,5.68,0,0,1-.65.6L59.07,50.3c-.68-.68-1.36-1.38-1.73-1.76h0l-1.69-1.77-1.56-1.63a7.34,7.34,0,0,1,.57-.65l.13-.12a1.51,1.51,0,0,1,.23-.21,1.58,1.58,0,0,1,.71-.31,5.57,5.57,0,0,0,3.66-2,11.62,11.62,0,0,0,2-3.11,11.64,11.64,0,0,1,2.12-3.22l8.11-8.25.18-.17c1.06-1,2.4-.23,3.24.41l0,0C75.54,27.91,76.34,28.61,76.67,28.94Z"/><path class="cls-55" d="M76.66,29a17.7,17.7,0,0,1,1.4,1.69c.57.86,1.33,2.22.4,3.29l-.22.24-8.08,8.21A11.68,11.68,0,0,1,67,44.54a10.91,10.91,0,0,0-3,2,5.8,5.8,0,0,0-2,3.68,1.6,1.6,0,0,1-.32.79,1.45,1.45,0,0,1-.17.19l-.12.13a6.77,6.77,0,0,1-.65.6l-1.62-1.65-1.73-1.75h0l-1.69-1.76-1.56-1.63a6.21,6.21,0,0,1,.58-.64l.12-.13.23-.2a1.67,1.67,0,0,1,.72-.3,5.55,5.55,0,0,0,3.64-2,11.44,11.44,0,0,0,2-3.1,12.15,12.15,0,0,1,2.12-3.23l8.11-8.24.18-.17c1-1,2.39-.23,3.23.4l0,0C75.51,27.91,76.37,28.66,76.66,29Z"/><path class="cls-56" d="M76.65,29A17.22,17.22,0,0,1,78,30.66c.57.85,1.34,2.21.39,3.28,0,0-.18.2-.21.24S71,41.52,70.15,42.37A11.68,11.68,0,0,1,67,44.53a11.06,11.06,0,0,0-3,2,5.76,5.76,0,0,0-2,3.67,1.79,1.79,0,0,1-.3.79l-.17.19-.13.13a8.24,8.24,0,0,1-.64.6l-1.62-1.65c-.67-.68-1.36-1.37-1.72-1.75h0l-1.68-1.76-1.56-1.62a5.34,5.34,0,0,1,.58-.65l.13-.12a1,1,0,0,1,.22-.2,1.65,1.65,0,0,1,.73-.29,5.57,5.57,0,0,0,3.62-2,11.6,11.6,0,0,0,2-3.1,12.11,12.11,0,0,1,2.12-3.24c.85-.85,8.1-8.23,8.1-8.23l.17-.16c1-1,2.39-.22,3.23.4l0,0C75.48,27.91,76.4,28.72,76.65,29Z"/><path class="cls-57" d="M76.64,29A19.13,19.13,0,0,1,78,30.67c.56.86,1.34,2.22.38,3.28l-.21.23-8,8.18A11.88,11.88,0,0,1,67,44.52a11.21,11.21,0,0,0-3,2,5.81,5.81,0,0,0-2,3.65,1.85,1.85,0,0,1-.29.8l-.17.19-.12.13a8.24,8.24,0,0,1-.64.6L59.1,50.24,57.38,48.5h0c-.37-.37-1-1.07-1.68-1.74s-1.2-1.26-1.56-1.63a7.82,7.82,0,0,1,.58-.64,1.59,1.59,0,0,1,.13-.13,2,2,0,0,1,.22-.2,1.76,1.76,0,0,1,.73-.27,5.59,5.59,0,0,0,3.61-2,11.6,11.6,0,0,0,2-3.1,12.11,12.11,0,0,1,2.12-3.24l8.09-8.22.17-.16c1-1,2.38-.22,3.22.4l0,0C75.45,27.91,76.44,28.77,76.64,29Z"/><path class="cls-58" d="M76.63,29A16.92,16.92,0,0,1,78,30.69c.56.85,1.35,2.21.38,3.27l-.21.22-8,8.17a11.73,11.73,0,0,1-3.2,2.16,11.21,11.21,0,0,0-3,2,5.81,5.81,0,0,0-2,3.64,1.8,1.8,0,0,1-.28.8l-.16.19-.13.12a5.66,5.66,0,0,1-.64.6l-1.61-1.64-1.72-1.74h0l-1.67-1.74L54.15,45.1a7.93,7.93,0,0,1,.59-.64l.12-.13a2.11,2.11,0,0,1,.23-.19,1.79,1.79,0,0,1,.73-.26,5.59,5.59,0,0,0,3.59-2,11.6,11.6,0,0,0,2-3.1,12,12,0,0,1,2.12-3.24l8.08-8.21.16-.16c1-1,2.37-.22,3.21.39l0,0C75.42,27.91,76.47,28.83,76.63,29Z"/><path class="cls-59" d="M76.62,29A18.68,18.68,0,0,1,78,30.7c.55.86,1.35,2.21.37,3.27,0,0-.2.2-.22.22l-8,8.16a11.64,11.64,0,0,1-3.2,2.14,11.37,11.37,0,0,0-3,2,5.77,5.77,0,0,0-2,3.61,1.93,1.93,0,0,1-.27.81l-.16.18-.12.13a8.24,8.24,0,0,1-.64.6L59.12,50.2l-1.71-1.73h0c-.37-.37-1-1.06-1.67-1.73l-1.56-1.63a7.93,7.93,0,0,1,.59-.64,1.36,1.36,0,0,0,.12-.12,1.28,1.28,0,0,1,.23-.19,1.79,1.79,0,0,1,.74-.25,5.53,5.53,0,0,0,3.56-2,11.66,11.66,0,0,0,2-3.09,11.85,11.85,0,0,1,2.12-3.25l8.07-8.2.16-.16c1-1,2.36-.21,3.2.39l0,0C75.39,27.91,76.5,28.88,76.62,29Z"/><path class="cls-60" d="M76.61,29A16.7,16.7,0,0,1,78,30.72c.55.86,1.36,2.21.36,3.25a2.18,2.18,0,0,1-.21.22l-8,8.15a11.74,11.74,0,0,1-3.19,2.14,11.26,11.26,0,0,0-3,2,5.79,5.79,0,0,0-2,3.6,1.93,1.93,0,0,1-.26.81,1.29,1.29,0,0,1-.16.18l-.12.13a6.75,6.75,0,0,1-.63.6l-1.61-1.63-1.71-1.74h0l-1.66-1.73-1.56-1.63a8.1,8.1,0,0,1,.59-.63l.13-.13a1.24,1.24,0,0,1,.22-.18,2,2,0,0,1,.75-.24,5.58,5.58,0,0,0,3.54-2,11.45,11.45,0,0,0,2-3.08,11.85,11.85,0,0,1,2.12-3.25l8.06-8.19a1.21,1.21,0,0,1,.16-.16c1-1,2.35-.21,3.19.39l0,0C75.36,27.91,76.53,28.94,76.61,29Z"/><path class="cls-61" d="M76.6,29A18.35,18.35,0,0,1,78,30.73c.54.86,1.36,2.21.35,3.25,0,0-.2.21-.21.22l-8,8.13a11.74,11.74,0,0,1-3.19,2.14,11.06,11.06,0,0,0-3,2,5.77,5.77,0,0,0-2,3.58,2.09,2.09,0,0,1-.25.82,1.19,1.19,0,0,1-.15.18l-.12.13c-.23.23-.44.44-.63.6l-1.61-1.63-1.7-1.73h0L55.77,46.7l-1.56-1.62c.16-.19.37-.41.6-.64l.12-.12a1.24,1.24,0,0,1,.22-.19,2,2,0,0,1,.75-.22,5.57,5.57,0,0,0,3.53-2,11.61,11.61,0,0,0,2-3.08,12,12,0,0,1,2.11-3.25l8.05-8.18.16-.16c1-1,2.34-.21,3.19.39l0,0C75.33,27.91,76.56,29,76.6,29Z"/><path class="cls-62" d="M57.45,48.42h0l-1.65-1.72c-.58-.61-1.18-1.24-1.56-1.62.16-.19.37-.41.6-.64l.12-.12a1.5,1.5,0,0,1,1-.39,5.55,5.55,0,0,0,3.51-2,11.33,11.33,0,0,0,2-3.08,12.33,12.33,0,0,1,2.12-3.25l8.2-8.33c1-1,2.33-.2,3.18.38.29.2,1.66,1.42,1.66,1.42A17.7,17.7,0,0,1,78,30.75c.53.86,1.36,2.21.34,3.24l-8.2,8.33a11.45,11.45,0,0,1-3.19,2.14,11.21,11.21,0,0,0-3,2,5.84,5.84,0,0,0-2,3.57,1.58,1.58,0,0,1-.39,1l-.12.12a8.66,8.66,0,0,1-.62.61l-1.61-1.63c-.66-.67-1.34-1.35-1.7-1.73Z"/><path class="cls-63" d="M64.18,42.71c-.56-.59-.73-1.43.27-2.44l9.92-10.1c.95-1,1.67-.71,2.26-.1s.83,1.35-.12,2.31L66.59,42.47c-1,1-1.84.82-2.41.24Z"/><path class="cls-64" d="M57.22,48.66h0l-.56-.57L57.73,47c1-1,1.93-.93,2.55-.3s.67,1.59-.32,2.6l-1.07,1.09,0,0-1.63-1.66Z"/><path class="cls-65" d="M69,42.93c.11-.14.22-.26.32-.37l8.08-8.2a2.73,2.73,0,0,1,.25-.23c.08-.07.15.07.08.19a3.08,3.08,0,0,1-.45.65l-7.2,7.3a7.14,7.14,0,0,1-.92.8C69,43.2,68.85,43.08,69,42.93Z"/><path class="cls-66" d="M60.25,51.72l.92-.93c.09-.09.37-.39.47-.47s0,.33,0,.45a2.84,2.84,0,0,1-.55.66l-.56.56-.26-.27Z"/><path class="cls-67" d="M61.59,38.84a8.68,8.68,0,0,1,2-3.17l7.72-7.84c.49-.5,1.4-1,1.89-.41s.26.74-.3,1.3l-8.6,8.74a7,7,0,0,1-2.18,1.42C61.92,39,61.49,39.09,61.59,38.84Z"/><path class="cls-68" d="M55.35,46.69,54,45.33,54.4,45a3.43,3.43,0,0,1,2-1.17.71.71,0,0,1,.56.18,2.62,2.62,0,0,1-.86,2l-.73.74Z"/><path class="cls-69" d="M56.83,85.68A35.43,35.43,0,1,1,92.25,50.26,35.46,35.46,0,0,1,56.83,85.68Zm0-67.13A31.71,31.71,0,1,0,88.54,50.26,31.75,31.75,0,0,0,56.83,18.55Z"/></g></g></svg>