<svg xmlns="http://www.w3.org/2000/svg" viewBox="0 0 193.23 256.58"><defs><style>.cls-1{fill:#ffd100;stroke:#040404;stroke-linecap:round;stroke-linejoin:round;stroke-width:6px;}.cls-2{fill:#000805;}.cls-3{font-size:37.26px;fill:#050706;font-family:SourceHanSansCN-Bold-GBpc-EUC-H, Source Han Sans CN;letter-spacing:0.7em;}</style></defs><title>接地</title><g id="图层_2" data-name="图层 2"><g id="图层_1-2" data-name="图层 1"><path class="cls-1" d="M90,6.8l-86,149a7.6,7.6,0,0,0,6.58,11.4h172a7.6,7.6,0,0,0,6.58-11.4l-86-149A7.59,7.59,0,0,0,90,6.8Z"/><polygon class="cls-2" points="73.54 136.92 119.69 136.92 123.19 130.86 70.04 130.86 73.54 136.92"/><polygon class="cls-2" points="100.17 108.16 100.17 67.11 93.06 67.11 93.06 108.16 56.94 108.16 60.77 114.79 132.47 114.79 136.29 108.16 100.17 108.16"/><polygon class="cls-2" points="79.93 147.98 113.3 147.98 116.8 141.92 76.43 141.92 79.93 147.98"/><polygon class="cls-2" points="67.16 125.85 126.08 125.85 129.58 119.79 63.66 119.79 67.16 125.85"/><text class="cls-3" transform="translate(45.78 217.6)">接地</text></g></g></svg>