<svg xmlns="http://www.w3.org/2000/svg" xmlns:xlink="http://www.w3.org/1999/xlink" viewBox="0 0 239.23 213.34"><defs><style>.cls-1{fill:#a0a0a0;}.cls-2{fill:url(#未命名的渐变_288);}.cls-3{fill:url(#未命名的渐变_288-2);}.cls-4{fill:#eaaf7a;}.cls-5{fill:url(#未命名的渐变_288-3);}.cls-6{fill:#d89c60;}.cls-7{fill:#e9a660;}.cls-8{fill:url(#未命名的渐变_191);}.cls-9{fill:url(#未命名的渐变_191-2);}.cls-10{fill:url(#未命名的渐变_197);}.cls-11{fill:url(#未命名的渐变_197-2);}.cls-12{fill:#ccccce;}.cls-13{fill:url(#未命名的渐变_259);}.cls-14{fill:url(#未命名的渐变_197-3);}.cls-15{fill:url(#未命名的渐变_197-4);}.cls-16{fill:url(#未命名的渐变_259-2);}.cls-17{fill:url(#未命名的渐变_197-5);}.cls-18{fill:#bababa;}.cls-19{fill:url(#未命名的渐变_197-6);}.cls-20{fill:url(#未命名的渐变_197-7);}.cls-21{fill:url(#未命名的渐变_259-3);}.cls-22{fill:url(#未命名的渐变_197-8);}.cls-23{fill:url(#未命名的渐变_197-9);}.cls-24{fill:url(#未命名的渐变_259-4);}.cls-25{fill:url(#未命名的渐变_197-10);}.cls-26{fill:#454042;}.cls-27{fill:#b9b9bb;opacity:0.31;}.cls-28{fill:#5b5b5a;}.cls-29{fill:#9c9a9b;}.cls-30{fill:#824309;}.cls-31{fill:#f2a95a;}.cls-32{fill:url(#未命名的渐变_24);}.cls-33{fill:url(#未命名的渐变_39);}.cls-34{fill:#fcbc8a;}.cls-35{clip-path:url(#clip-path);}.cls-36{isolation:isolate;}.cls-37{clip-path:url(#clip-path-2);}.cls-38{fill:#fefdff;}.cls-39{fill:url(#未命名的渐变_297);}.cls-40{clip-path:url(#clip-path-3);}.cls-41{clip-path:url(#clip-path-4);}.cls-42{fill:url(#未命名的渐变_297-2);}.cls-43{clip-path:url(#clip-path-5);}.cls-44{clip-path:url(#clip-path-6);}.cls-45{fill:url(#未命名的渐变_297-3);}.cls-46{fill:url(#未命名的渐变_98);}.cls-47{fill:url(#未命名的渐变_70);}.cls-48{fill:url(#未命名的渐变_72);}</style><linearGradient id="未命名的渐变_288" x1="232.24" y1="161.78" x2="239.23" y2="161.78" gradientUnits="userSpaceOnUse"><stop offset="0.02" stop-color="#eaaf7a"/><stop offset="0.54" stop-color="#e6b39c"/><stop offset="1" stop-color="#eaaf7a"/></linearGradient><linearGradient id="未命名的渐变_288-2" x1="0" y1="173.42" x2="6.62" y2="173.42" xlink:href="#未命名的渐变_288"/><linearGradient id="未命名的渐变_288-3" x1="77" y1="194.38" x2="109.77" y2="194.38" xlink:href="#未命名的渐变_288"/><linearGradient id="未命名的渐变_191" y1="181.36" x2="6.62" y2="181.36" gradientUnits="userSpaceOnUse"><stop offset="0" stop-color="#e9a660"/><stop offset="0.51" stop-color="#f5b65c"/><stop offset="1" stop-color="#e9a660"/></linearGradient><linearGradient id="未命名的渐变_191-2" x1="77" y1="202.32" x2="109.77" y2="202.32" xlink:href="#未命名的渐变_191"/><linearGradient id="未命名的渐变_197" x1="227.81" y1="140.69" x2="233.64" y2="140.69" gradientTransform="matrix(1, 0, 0, 1, 0, -4.18)" gradientUnits="userSpaceOnUse"><stop offset="0" stop-color="#ccccce"/><stop offset="0.47" stop-color="#b6b4b5"/><stop offset="1" stop-color="#ccccce"/></linearGradient><linearGradient id="未命名的渐变_197-2" x1="34.27" y1="150.87" x2="39.78" y2="150.87" xlink:href="#未命名的渐变_197"/><linearGradient id="未命名的渐变_259" x1="98.44" y1="169.2" x2="125.75" y2="169.2" gradientTransform="matrix(1, 0, 0, 1, 0, -4.18)" gradientUnits="userSpaceOnUse"><stop offset="0" stop-color="#ccccce"/><stop offset="0.46" stop-color="#adabac"/><stop offset="1" stop-color="#ccccce"/></linearGradient><linearGradient id="未命名的渐变_197-3" x1="227.81" y1="147.63" x2="233.64" y2="147.63" xlink:href="#未命名的渐变_197"/><linearGradient id="未命名的渐变_197-4" x1="34.27" y1="157.81" x2="39.78" y2="157.81" xlink:href="#未命名的渐变_197"/><linearGradient id="未命名的渐变_259-2" x1="98.44" y1="176.15" x2="125.75" y2="176.15" xlink:href="#未命名的渐变_259"/><linearGradient id="未命名的渐变_197-5" x1="34.29" y1="137.3" x2="233.64" y2="137.3" xlink:href="#未命名的渐变_197"/><linearGradient id="未命名的渐变_197-6" x1="217.32" y1="117.33" x2="221.72" y2="117.33" xlink:href="#未命名的渐变_197"/><linearGradient id="未命名的渐变_197-7" x1="70.81" y1="124.43" x2="75.67" y2="124.43" xlink:href="#未命名的渐变_197"/><linearGradient id="未命名的渐变_259-3" x1="119.8" y1="138.68" x2="140.38" y2="138.68" xlink:href="#未命名的渐变_259"/><linearGradient id="未命名的渐变_197-8" x1="217.32" y1="130.61" x2="221.72" y2="130.61" xlink:href="#未命名的渐变_197"/><linearGradient id="未命名的渐变_197-9" x1="70.84" y1="138.28" x2="75.58" y2="138.28" xlink:href="#未命名的渐变_197"/><linearGradient id="未命名的渐变_259-4" x1="119.8" y1="152.1" x2="140.38" y2="152.1" xlink:href="#未命名的渐变_259"/><linearGradient id="未命名的渐变_197-10" x1="70.81" y1="105.41" x2="221.72" y2="105.41" xlink:href="#未命名的渐变_197"/><linearGradient id="未命名的渐变_24" x1="84.83" y1="326.87" x2="89.01" y2="326.87" gradientTransform="matrix(0.99, 0.17, -0.27, 0.97, 227.48, -285.37)" gradientUnits="userSpaceOnUse"><stop offset="0" stop-color="#fcbc8a"/><stop offset="0.47" stop-color="#fcc08c"/><stop offset="0.72" stop-color="#f2a95a"/></linearGradient><linearGradient id="未命名的渐变_39" x1="3685.64" y1="323.33" x2="3687.78" y2="323.33" gradientTransform="matrix(-0.99, -0.17, -0.24, 0.95, 3957.36, 366.04)" gradientUnits="userSpaceOnUse"><stop offset="0.01" stop-color="#fcbc8a"/><stop offset="0.28" stop-color="#fcc08c" stop-opacity="0.9"/><stop offset="0.62" stop-color="#f2a95a"/></linearGradient><clipPath id="clip-path"><path class="cls-1" d="M163.34,44l1.5.53c1.54.54,2.47,2.36,2.17,4.46-.36,2.47-2.31,4.4-4.34,4.31l-1.49-.53c2,.09,4-1.84,4.34-4.31C165.82,46.37,164.89,44.55,163.34,44Z"/></clipPath><clipPath id="clip-path-2"><path class="cls-1" d="M161.81,53.15l-1.49-.53a3,3,0,0,0,.86.16l1.49.53A3,3,0,0,1,161.81,53.15Z"/></clipPath><linearGradient id="未命名的渐变_297" x1="131.65" y1="86.23" x2="173.61" y2="44.27" gradientUnits="userSpaceOnUse"><stop offset="0.02" stop-color="#b5b5bf"/><stop offset="0.08" stop-color="#bdbdc6"/><stop offset="0.29" stop-color="#d3d3d9"/><stop offset="0.49" stop-color="#e0e0e5"/><stop offset="0.67" stop-color="#e4e4e9"/><stop offset="1" stop-color="#898995"/></linearGradient><clipPath id="clip-path-3"><path class="cls-1" d="M186,50.34l1.49.52c1.54.55,2.48,2.37,2.17,4.47-.36,2.47-2.3,4.4-4.34,4.31l-1.49-.53c2,.09,4-1.84,4.34-4.31C188.51,52.7,187.57,50.88,186,50.34Z"/></clipPath><clipPath id="clip-path-4"><path class="cls-1" d="M184.49,59.47,183,59a3,3,0,0,0,.86.16l1.49.53A2.74,2.74,0,0,1,184.49,59.47Z"/></clipPath><linearGradient id="未命名的渐变_297-2" x1="154.63" y1="92.12" x2="196.22" y2="50.53" xlink:href="#未命名的渐变_297"/><clipPath id="clip-path-5"><path class="cls-1" d="M207.21,57.88l1.49.53c1.54.55,2.48,2.36,2.17,4.46-.36,2.47-2.31,4.4-4.34,4.32L205,66.66c2,.08,4-1.85,4.34-4.32C209.69,60.24,208.75,58.43,207.21,57.88Z"/></clipPath><clipPath id="clip-path-6"><path class="cls-1" d="M205.67,67l-1.49-.53a3.05,3.05,0,0,0,.86.17l1.49.53A3.05,3.05,0,0,1,205.67,67Z"/></clipPath><linearGradient id="未命名的渐变_297-3" x1="176.31" y1="99.01" x2="217.32" y2="58" xlink:href="#未命名的渐变_297"/><radialGradient id="未命名的渐变_98" cx="201.41" cy="10.26" r="10.26" gradientUnits="userSpaceOnUse"><stop offset="0" stop-color="#403f42" stop-opacity="0.8"/><stop offset="0.31" stop-color="#3e3d40"/><stop offset="1"/></radialGradient><linearGradient id="未命名的渐变_70" x1="191.72" y1="23.17" x2="201.12" y2="23.17" gradientUnits="userSpaceOnUse"><stop offset="0" stop-color="#3e3d40"/><stop offset="1"/></linearGradient><linearGradient id="未命名的渐变_72" x1="185.96" y1="24.99" x2="204.71" y2="24.99" gradientUnits="userSpaceOnUse"><stop offset="0" stop-color="#403f42"/><stop offset="1"/></linearGradient></defs><title>手车刀闸</title><g id="图层_2" data-name="图层 2"><g id="图层_1-2" data-name="图层 1"><path class="cls-2" d="M239.23,149.57l0,20.28c0,1.51-2.33,3-7,4.13l0-20.28C236.9,152.57,239.23,151.07,239.23,149.57Z"/><path class="cls-3" d="M0,181.53l0-20.28c0,1.46,2.2,2.92,6.6,4.05l0,20.28C2.19,184.45,0,183,0,181.53Z"/><polygon class="cls-4" points="6.6 185.58 6.62 165.3 77.02 183.36 77 203.65 6.6 185.58"/><polygon class="cls-4" points="109.75 203.77 109.77 183.49 232.26 153.7 232.24 173.98 109.75 203.77"/><path class="cls-5" d="M77,203.64l0-20.28c8.94,2.3,23.6,2.35,32.75.13l0,20.28C100.6,206,85.94,205.94,77,203.64Z"/><path class="cls-6" d="M232.26,153.82,109.77,183.61c-9.15,2.22-23.81,2.16-32.75-.13L6.62,165.42c-8.94-2.29-8.77-6,.37-8.18l122.5-29.79c9.14-2.22,23.81-2.17,32.75.13l70.4,18.06C241.58,147.93,241.41,151.59,232.26,153.82Z"/><path class="cls-7" d="M239.23,157.51l0,20.28c0,1.5-2.33,3-7,4.13l0-20.28C236.9,160.51,239.23,159,239.23,157.51Z"/><path class="cls-8" d="M0,189.47l0-20.28c0,1.46,2.2,2.92,6.6,4.05l0,20.28C2.19,192.39,0,190.93,0,189.47Z"/><polygon class="cls-7" points="6.6 193.52 6.62 173.24 77.02 191.3 77 211.58 6.6 193.52"/><polygon class="cls-7" points="109.75 211.71 109.77 191.43 232.26 161.64 232.24 181.92 109.75 211.71"/><path class="cls-9" d="M77,211.58l0-20.28c8.94,2.3,23.6,2.35,32.75.13l0,20.28C100.6,213.93,85.94,213.88,77,211.58Z"/><path class="cls-10" d="M233.64,126.46l0,17.74c0,1.31-1.94,2.62-5.81,3.59l0-17.73C231.7,129.08,233.64,127.78,233.64,126.46Z"/><path class="cls-11" d="M34.27,153.88l0-17.74c0,1.28,1.82,2.56,5.49,3.56l0,17.74C36.09,156.44,34.26,155.15,34.27,153.88Z"/><polygon class="cls-12" points="39.76 157.44 39.78 139.7 98.45 155.65 98.44 173.39 39.76 157.44"/><polygon class="cls-12" points="125.73 173.57 125.75 155.83 227.83 130.06 227.81 147.79 125.73 173.57"/><path class="cls-13" d="M98.44,173.39l0-17.74c7.45,2,19.66,2.11,27.29.18l0,17.74C118.11,175.49,105.89,175.41,98.44,173.39Z"/><path class="cls-14" d="M233.64,133.41l0,17.73c0,1.31-1.94,2.62-5.81,3.6l0-17.74C231.7,136,233.64,134.72,233.64,133.41Z"/><path class="cls-15" d="M34.27,160.82l0-17.73c0,1.27,1.82,2.56,5.49,3.55l0,17.74C36.09,163.38,34.26,162.1,34.27,160.82Z"/><polygon class="cls-12" points="39.76 164.38 39.78 146.64 98.45 162.59 98.44 180.33 39.76 164.38"/><polygon class="cls-12" points="125.73 180.51 125.75 162.78 227.83 137 227.81 154.74 125.73 180.51"/><path class="cls-16" d="M98.44,180.33l0-17.74c7.45,2,19.66,2.11,27.29.19l0,17.73C118.11,182.44,105.89,182.35,98.44,180.33Z"/><path class="cls-17" d="M227.83,132.23,125.75,158c-7.63,1.92-19.84,1.84-27.29-.19L39.78,141.87c-7.45-2-7.31-5.22.31-7.15L142.18,109c7.62-1.93,19.84-1.85,27.29.18l58.67,16C235.59,127.1,235.45,130.31,227.83,132.23Z"/><path class="cls-18" d="M227.83,130.16,125.75,155.94c-7.63,1.92-19.84,1.84-27.29-.19L39.78,139.8c-7.45-2-7.31-5.22.31-7.15l102.09-25.77c7.62-1.93,19.84-1.85,27.29.18l58.67,16C235.59,125,235.45,128.24,227.83,130.16Z"/><path class="cls-18" d="M227.83,129.49,125.75,155.27c-7.63,1.93-19.84,1.84-27.29-.18l-58.68-16c-7.45-2-7.31-5.23.31-7.15l102.09-25.78c7.62-1.92,19.84-1.84,27.29.18l58.67,16C235.59,124.37,235.45,127.57,227.83,129.49Z"/><path class="cls-19" d="M221.72,97.65l0,29.46c0,1-1.46,2-4.38,2.71l0-29.38C220.25,99.71,221.72,98.64,221.72,97.65Z"/><path class="cls-20" d="M70.81,134.41l0-29.47c0,1,1.57,1.93,4.74,2.68l0,26.12C76.58,137.67,70.81,135.37,70.81,134.41Z"/><polygon class="cls-12" points="75.57 137.09 75.58 107.63 119.81 119.65 119.8 141.73 75.57 137.09"/><polygon class="cls-12" points="140.37 149.25 140.38 120.23 217.34 100.36 217.32 129.82 140.37 149.25"/><path class="cls-21" d="M119.8,149.11V119c5.62,1.52,14.83,2.26,20.57.81v30.13C134.62,151.37,125.41,150.64,119.8,149.11Z"/><path class="cls-22" d="M221.72,119l0,13.37c0,1-1.46,2-4.38,2.71l0-13.37C220.25,121,221.72,120,221.72,119Z"/><path class="cls-23" d="M70.84,139.64V126.27c0,1,1.58,1.93,4.73,2.69v13.36C72.41,141.57,70.84,140.6,70.84,139.64Z"/><polygon class="cls-12" points="75.57 142.32 75.58 128.96 119.81 140.98 119.8 154.35 75.57 142.32"/><polygon class="cls-12" points="140.37 154.49 140.38 141.12 217.34 121.69 217.32 135.06 140.37 154.49"/><path class="cls-24" d="M119.8,154.35V141a47.88,47.88,0,0,0,20.57.14v13.37A47.88,47.88,0,0,1,119.8,154.35Z"/><path class="cls-25" d="M217.32,100.61l-77.28,21a45,45,0,0,1-20.65-.15L75,108.45c-5.64-1.65-5.53-4.25.24-5.82l77.27-21a44.92,44.92,0,0,1,20.66.15l44.41,13C223.19,96.44,223.09,99,217.32,100.61Z"/><path class="cls-18" d="M217.34,100.66l-77,19.43a47.88,47.88,0,0,1-20.57-.14l-44.23-12c-5.61-1.53-5.51-4,.24-5.4l77-19.43a47.88,47.88,0,0,1,20.57.14l44.23,12C223.19,96.79,223.08,99.21,217.34,100.66Z"/><path class="cls-18" d="M217.32,100.15,140,119.58a48.29,48.29,0,0,1-20.66-.13L75,107.42c-5.64-1.52-5.54-3.94.24-5.39L152.47,82.6a48.29,48.29,0,0,1,20.66.14l44.42,12C223.19,96.29,223.09,98.7,217.32,100.15Z"/><path class="cls-26" d="M116.71,153.54l-2.68-.72V122.91c0-4.13,3.71-6,3.87-6.12l.23-.09,90.59-24.33,5,1.37L119,119.24a4.46,4.46,0,0,0-2.3,3.67Z"/><path class="cls-26" d="M74.19,141.21l-2.67-.67.58-31.17c.06-3.57,3.8-5.15,4-5.21l.24-.08L164.15,79.6l5,1.27-92,25.42c-.45.22-2.32,1.22-2.36,3.13Z"/><path class="cls-26" d="M93.1,147.35l-2.67-.68L91,115.53c.07-3.56,3.81-5.14,4-5.21l.23-.07,90.36-24.07,5,1.27-94.52,25c-.45.22-2.32,1.23-2.35,3.13Z"/><path class="cls-6" d="M89.49,177.9a.75.75,0,0,1-.07-.12.8.8,0,0,1,0-.41c.28-3.15,0-7.24,3.12-9.7a4.07,4.07,0,0,1,5,0c1.6,1,2.6,3.08,3.27,4.93,1,2.75.66,5.65.66,8.71-3.67-1-7.31-2.16-11-3.14C90.14,178.14,89.69,178.12,89.49,177.9Z"/><path class="cls-26" d="M101.24,174.47a12,12,0,0,0-.47-1.83c-.67-1.85-1.67-3.88-3.27-4.93a4.07,4.07,0,0,0-5,0c-3.16,2.46-2.84,6.55-3.12,9.7a.93.93,0,0,0,0,.41.75.75,0,0,0,.07.12.89.89,0,0,0,.48.22Z"/><path class="cls-27" d="M92.52,167.67c-3.16,2.46-2.84,7.09-3.12,10.23a.62.62,0,0,0,0,.13l.78,0a.62.62,0,0,0,0-.13c.28-3.15,0-7.91,3.12-10.37a4.29,4.29,0,0,1,1.16-.63A3.86,3.86,0,0,0,92.52,167.67Z"/><path class="cls-6" d="M59.93,169.6a.34.34,0,0,1-.06-.12,1.18,1.18,0,0,1,0-.42c.24-3.17,0-7.32,2.63-9.68,1.46-1.3,3-.75,4.19.22,1.35,1.13,2.19,3.23,2.75,5.12.83,2.83.56,5.75.56,8.85-3.09-1.21-6.3-2.33-9.41-3.47A1.39,1.39,0,0,1,59.93,169.6Z"/><path class="cls-26" d="M60.5,170l9.31-3.44a13.65,13.65,0,0,0-.39-1.88c-.56-1.89-1.4-4-2.75-5.12-1.16-1-2.73-1.52-4.19-.22-2.67,2.36-2.39,6.51-2.63,9.68a4.93,4.93,0,0,0,0,.86"/><path class="cls-27" d="M62.48,159.38c-2.67,2.36-2.39,7.05-2.63,10.22,0,.05,0,.26,0,.31l.66.13s0-.41,0-.46c.24-3.16,0-8,2.63-10.35a3,3,0,0,1,1-.6A2.74,2.74,0,0,0,62.48,159.38Z"/><path class="cls-6" d="M35.74,162.94a.37.37,0,0,1-.05-.11,1.59,1.59,0,0,1,0-.38c.21-2.87,0-6.65,2.25-8.76,1.25-1.17,2.59-.64,3.57.26a10.26,10.26,0,0,1,2.35,4.68c.71,2.58.48,5.23.48,8.05-2.64-1.14-5.25-2.33-7.91-3.4C36.21,163.19,35.89,163.16,35.74,162.94Z"/><path class="cls-26" d="M44.18,160.34a14.77,14.77,0,0,0-.34-1.71A10.26,10.26,0,0,0,41.49,154c-1-.9-2.32-1.43-3.57-.26-2.28,2.11-2,5.89-2.25,8.76a1.59,1.59,0,0,0,0,.38.37.37,0,0,0,.05.11.67.67,0,0,0,.34.23Z"/><path class="cls-27" d="M37.92,153.69c-2.28,2.11-2,6.38-2.25,9.25v.12h.56a.49.49,0,0,1,0-.12c.2-2.88,0-7.27,2.24-9.38a2.51,2.51,0,0,1,.83-.54A2.31,2.31,0,0,0,37.92,153.69Z"/><path class="cls-6" d="M214.26,158.61a.27.27,0,0,0,.07-.08.61.61,0,0,0,0-.3c-.27-2.27,0-5.23-2.94-7a4.76,4.76,0,0,0-4.68.05,7.32,7.32,0,0,0-3.07,3.58c-.94,2-.63,4.1-.63,6.31,3.45-.77,6.87-1.6,10.35-2.32C213.64,158.79,214.07,158.78,214.26,158.61Z"/><path class="cls-26" d="M203.21,156.19a6.32,6.32,0,0,1,.45-1.33,7.32,7.32,0,0,1,3.07-3.58,4.76,4.76,0,0,1,4.68-.05c3,1.77,2.67,4.73,2.94,7a.61.61,0,0,1,0,.3.27.27,0,0,1-.07.08.92.92,0,0,1-.45.17Z"/><path class="cls-27" d="M211.41,151.23c3,1.77,2.67,5.12,2.94,7.39v.09l-.73,0a.28.28,0,0,1,0-.09c-.27-2.27,0-5.72-2.94-7.48a4.1,4.1,0,0,0-1.09-.46A4.3,4.3,0,0,1,211.41,151.23Z"/><path class="cls-6" d="M170,169.55a.15.15,0,0,0,.06-.09.41.41,0,0,0,0-.29c-.26-2.27,0-5.23-2.93-7a4.78,4.78,0,0,0-4.69.05,7.38,7.38,0,0,0-3.07,3.58c-.93,2-.62,4.09-.62,6.31,3.45-.78,6.87-1.6,10.35-2.33A2.24,2.24,0,0,0,170,169.55Z"/><path class="cls-26" d="M159,167.13a6.69,6.69,0,0,1,.44-1.33,7.38,7.38,0,0,1,3.07-3.58,4.78,4.78,0,0,1,4.69-.05c3,1.77,2.67,4.73,2.93,7a.41.41,0,0,1,0,.29.15.15,0,0,1-.06.09.92.92,0,0,1-.45.16Z"/><path class="cls-27" d="M167.19,162.17c3,1.77,2.67,5.11,2.93,7.38a.38.38,0,0,1,0,.1l-.74,0v-.1c-.27-2.27,0-5.71-2.94-7.48a4.06,4.06,0,0,0-1.09-.45A4.17,4.17,0,0,1,167.19,162.17Z"/><path class="cls-28" d="M120.9,90.39l57.93,17.52s6.54,3.19,6.16,8.92l.95,49.53.3-49.26s-.11-7.51-6.25-8.94-59.1-18-59.1-18Z"/><ellipse class="cls-29" cx="127.79" cy="110.11" rx="2.44" ry="0.65"/><ellipse class="cls-29" cx="108.22" cy="102.3" rx="2.44" ry="0.65"/><rect class="cls-30" x="156.83" y="38.26" width="58.51" height="9.15" transform="matrix(0.97, 0.25, -0.25, 0.97, 16.64, -45.2)"/><polygon class="cls-31" points="228.75 63.49 222.1 55.38 226.75 36.14 233.97 44.1 228.75 63.49"/><path class="cls-32" d="M220.56,54.94,224.8,35.6l2,.51.76.91-4.19,19.07C221.12,56,221.11,55.86,220.56,54.94Z"/><path class="cls-33" d="M233.58,43.66s-.37-.41-.57-.61l-5.65,18.7,1.42,1.83.13-.54.28-1,.41-1.54.52-1.94.6-2.19.63-2.34.63-2.35.61-2.24.53-2,.28-1,.46-1.71c0-.15.16-.56.16-.56Z"/><polygon class="cls-30" points="157.71 44.75 150.85 36.71 222.09 55.51 228.73 63.47 157.71 44.75"/><polygon class="cls-34" points="167.06 47.19 157.71 44.74 150.85 36.7 160.09 39.16 167.06 47.19"/><polygon class="cls-34" points="213.38 59.51 192.25 53.83 185.21 45.76 206.78 51.36 213.38 59.51"/><polygon class="cls-34" points="213.45 59.56 192.32 53.89 185.21 45.76 206.78 51.36 213.45 59.56"/><polygon class="cls-34" points="213.48 59.56 192.35 53.88 185.21 45.76 206.78 51.36 213.48 59.56"/><polygon class="cls-34" points="189.03 53 167.34 47.39 163.71 40.12 182.78 45.21 189.03 53"/><polygon class="cls-30" points="182.61 46.62 187.5 52.6 183.82 51.66 182.61 46.62"/><path class="cls-34" d="M155.56,17.46,150.85,36.7l9.25,2.46,2.24-4.35a1.71,1.71,0,1,1,3,1.56l-1.89,3.68,19.3,5.17,2-3.83a1.71,1.71,0,1,1,3,1.56l-1.62,3.16,18.93,5,1.72-3.36a1.71,1.71,0,0,1,3.05,1.56L208.46,52l13.65,3.43,4.69-19.25Z"/><polygon class="cls-34" points="182.7 48.32 183.51 46.77 183.51 46.77 182.7 48.32"/><path class="cls-1" d="M163.34,44l1.5.53c1.54.54,2.47,2.36,2.17,4.46-.36,2.47-2.31,4.4-4.34,4.31l-1.49-.53c2,.09,4-1.84,4.34-4.31C165.82,46.37,164.89,44.55,163.34,44Z"/><g class="cls-35"><g class="cls-36"><path class="cls-1" d="M162.67,53.31l-1.49-.53a3.26,3.26,0,0,0,.62,0l1.49.53a3.26,3.26,0,0,1-.62,0"/><path class="cls-1" d="M163.29,53.28l-1.49-.53a3.72,3.72,0,0,0,1.43-.56l1.49.53a3.88,3.88,0,0,1-1.43.56"/><path class="cls-1" d="M164.72,52.72l-1.49-.53a5.05,5.05,0,0,0,.77-.63l1.49.53a4.61,4.61,0,0,1-.77.63"/><path class="cls-1" d="M165.49,52.09,164,51.56a6.06,6.06,0,0,0,.47-.54l1.49.53a6.06,6.06,0,0,1-.47.54"/><path class="cls-1" d="M166,51.55,164.47,51c.12-.17.24-.35.35-.54l1.49.53c-.11.19-.23.37-.35.54"/><path class="cls-1" d="M166.31,51l-1.49-.53c.1-.17.19-.36.28-.55l1.49.53c-.09.19-.18.38-.28.55"/><path class="cls-1" d="M166.59,50.46l-1.49-.53a6.56,6.56,0,0,0,.23-.62l1.49.53a6.56,6.56,0,0,1-.23.62"/><path class="cls-1" d="M166.82,49.84l-1.49-.53c.07-.25.13-.5.18-.77l1.49.53c-.05.27-.11.52-.18.77"/><path class="cls-1" d="M167,49.07l-1.49-.53v-.07c.3-2.1-.63-3.92-2.18-4.46l1.5.53c1.54.54,2.47,2.36,2.17,4.46v.07"/></g></g><path class="cls-1" d="M161.81,53.15l-1.49-.53a3,3,0,0,0,.86.16l1.49.53A3,3,0,0,1,161.81,53.15Z"/><g class="cls-37"><g class="cls-36"><path class="cls-1" d="M161.81,53.15l-1.49-.53h0l1.49.53h0"/><path class="cls-1" d="M161.84,53.16l-1.49-.53a3.39,3.39,0,0,0,.57.13l1.49.53a3.39,3.39,0,0,1-.57-.13"/><path class="cls-1" d="M162.41,53.29l-1.49-.53.26,0,1.49.53-.26,0"/></g></g><polygon class="cls-38" points="135.82 90.08 133.73 90.64 163.02 34.64 164.51 35.17 135.82 90.08"/><path class="cls-39" d="M164.51,35.17l5.8,11.11-20.54,40-14.12,3.92ZM162.66,53.3c2,.09,4-1.83,4.33-4.28s-1-4.5-3-4.59-4,1.83-4.32,4.28,1,4.5,3,4.59"/><path class="cls-1" d="M186,50.34l1.49.52c1.54.55,2.48,2.37,2.17,4.47-.36,2.47-2.3,4.4-4.34,4.31l-1.49-.53c2,.09,4-1.84,4.34-4.31C188.51,52.7,187.57,50.88,186,50.34Z"/><g class="cls-40"><g class="cls-36"><path class="cls-1" d="M185.35,59.64l-1.49-.53a3.18,3.18,0,0,0,.62,0l1.49.53a3.18,3.18,0,0,1-.62,0"/><path class="cls-1" d="M186,59.61l-1.49-.53a3.93,3.93,0,0,0,1.44-.56l1.49.52a3.78,3.78,0,0,1-1.44.57"/><path class="cls-1" d="M187.41,59l-1.49-.52a4.59,4.59,0,0,0,.77-.64l1.49.53a4.09,4.09,0,0,1-.77.63"/><path class="cls-1" d="M188.18,58.41l-1.49-.53a4.73,4.73,0,0,0,.46-.53l1.49.52a4.08,4.08,0,0,1-.46.54"/><path class="cls-1" d="M188.64,57.87l-1.49-.52a3.84,3.84,0,0,0,.35-.54l1.49.53a3.24,3.24,0,0,1-.35.53"/><path class="cls-1" d="M189,57.34l-1.49-.53a3.55,3.55,0,0,0,.28-.55l1.49.53a4.07,4.07,0,0,1-.28.55"/><path class="cls-1" d="M189.27,56.79l-1.49-.53a4.62,4.62,0,0,0,.23-.62l1.49.53a4.62,4.62,0,0,1-.23.62"/><path class="cls-1" d="M189.5,56.17,188,55.64a4.8,4.8,0,0,0,.18-.77l1.49.53a5.06,5.06,0,0,1-.18.77"/><path class="cls-1" d="M189.68,55.4l-1.49-.53V54.8c.31-2.1-.63-3.92-2.17-4.46l1.49.52c1.54.55,2.48,2.37,2.17,4.47v.07"/></g></g><path class="cls-1" d="M184.49,59.47,183,59a3,3,0,0,0,.86.16l1.49.53A2.74,2.74,0,0,1,184.49,59.47Z"/><g class="cls-41"><g class="cls-36"><path class="cls-1" d="M184.49,59.47,183,59h0l1.49.52h0"/><path class="cls-1" d="M184.52,59.48,183,59a3.39,3.39,0,0,0,.57.13l1.49.53a2.64,2.64,0,0,1-.57-.14"/><path class="cls-1" d="M185.09,59.62l-1.49-.53.26,0,1.49.53-.26,0"/></g></g><polygon class="cls-38" points="158.61 95.97 156.52 96.53 185.71 40.97 187.19 41.52 158.61 95.97"/><path class="cls-42" d="M187.19,41.5l6.24,10.24-20.9,40.53L158.5,96Zm-1.84,18.13c2,.08,4-1.83,4.32-4.28s-1-4.5-3-4.59-4,1.83-4.33,4.28,1,4.5,3,4.59"/><path class="cls-1" d="M207.21,57.88l1.49.53c1.54.55,2.48,2.36,2.17,4.46-.36,2.47-2.31,4.4-4.34,4.32L205,66.66c2,.08,4-1.85,4.34-4.32C209.69,60.24,208.75,58.43,207.21,57.88Z"/><g class="cls-43"><g class="cls-36"><path class="cls-1" d="M206.53,67.19,205,66.66a3.23,3.23,0,0,0,.62,0l1.49.53a4.3,4.3,0,0,1-.62,0"/><path class="cls-1" d="M207.15,67.15l-1.49-.53a3.72,3.72,0,0,0,1.43-.56l1.49.53a3.72,3.72,0,0,1-1.43.56"/><path class="cls-1" d="M208.58,66.59l-1.49-.53a4.24,4.24,0,0,0,.77-.63l1.5.53a4.68,4.68,0,0,1-.78.63"/><path class="cls-1" d="M209.36,66l-1.5-.53a6.06,6.06,0,0,0,.47-.54l1.49.53c-.15.19-.3.37-.46.54"/><path class="cls-1" d="M209.82,65.42l-1.49-.53c.12-.17.24-.35.35-.53l1.49.53c-.11.18-.23.36-.35.53"/><path class="cls-1" d="M210.17,64.89l-1.49-.53a4.87,4.87,0,0,0,.28-.56l1.49.53a5.85,5.85,0,0,1-.28.56"/><path class="cls-1" d="M210.45,64.33,209,63.8a5.67,5.67,0,0,0,.23-.62l1.49.53a5.67,5.67,0,0,1-.23.62"/><path class="cls-1" d="M210.68,63.71l-1.49-.53c.07-.24.13-.5.18-.76l1.49.53a6,6,0,0,1-.18.76"/><path class="cls-1" d="M210.86,63l-1.49-.53v-.08c.31-2.1-.63-3.91-2.17-4.46l1.49.53c1.54.55,2.48,2.36,2.17,4.46V63"/></g></g><path class="cls-1" d="M205.67,67l-1.49-.53a3.05,3.05,0,0,0,.86.17l1.49.53A3.05,3.05,0,0,1,205.67,67Z"/><g class="cls-44"><g class="cls-36"><path class="cls-1" d="M205.67,67l-1.49-.53h0l1.49.53h0"/><path class="cls-1" d="M205.7,67l-1.49-.53a2.63,2.63,0,0,0,.57.13l1.49.53a2.63,2.63,0,0,1-.57-.13"/><path class="cls-1" d="M206.27,67.16l-1.49-.53a2.06,2.06,0,0,0,.26,0l1.49.53-.26,0"/></g></g><polygon class="cls-38" points="180.25 102.76 178.16 103.32 206.89 48.53 208.38 49.05 180.25 102.76"/><path class="cls-45" d="M208.37,49l6.46,9.86-20.54,40-14.13,3.93Zm-1.85,18.13c2,.09,4-1.82,4.33-4.27s-1-4.51-3-4.59-4,1.83-4.33,4.27,1,4.51,3,4.59"/><polygon class="cls-34" points="228.76 63.5 217.26 60.44 208.52 52 222.13 55.42 228.76 63.5"/><path class="cls-34" d="M155.56,17.46,150.85,36.7l9.24,2.45,2.23-4.35a1.71,1.71,0,1,1,3,1.56L163.48,40l19.33,5.14,2-3.83a1.71,1.71,0,0,1,3,1.56l-1.63,3.16,18.91,5.07,1.72-3.36a1.71,1.71,0,0,1,3.05,1.56L208.46,52l13.65,3.43,4.69-19.25Z"/><polygon class="cls-34" points="187.52 46.41 186.19 46.07 193.18 54.1 194.15 54.37 187.52 46.41"/><polygon class="cls-30" points="205.12 51.93 204.32 50.91 186.9 46.27 193.65 54.24 202.59 56.71 205.12 51.93"/><polygon class="cls-34" points="172.16 48.68 169.56 47.97 163.49 40.05 167.64 41.15 172.16 48.68"/><polygon class="cls-30" points="182.66 46.74 181.44 45.24 166.58 41.06 172.15 48.64 180.53 50.8 182.66 46.74"/><circle class="cls-46" cx="201.41" cy="10.26" r="10.26"/><path class="cls-47" d="M194.83,18.13l-3.11,7.52,6.21,2.56,3.19-7.71A10.18,10.18,0,0,1,194.83,18.13Z"/><path class="cls-48" d="M186,21.3l2.28,4.56a.72.72,0,0,0,.48.39l15,3.85a.74.74,0,0,0,.89-.93c-.51-1.77-2.32-5.15-8.66-7.81l-.05,0c-.39-.14-7-2.48-9.67-1A.72.72,0,0,0,186,21.3Z"/></g></g></svg>