<svg xmlns="http://www.w3.org/2000/svg" xmlns:xlink="http://www.w3.org/1999/xlink" viewBox="0 0 176.75 120.53"><defs><style>.cls-1{fill:url(#linear-gradient);}.cls-2{fill:url(#linear-gradient-2);}.cls-3{fill:url(#未命名的渐变_599);}</style><linearGradient id="linear-gradient" x1="-47" y1="60.27" x2="83.24" y2="60.27" gradientUnits="userSpaceOnUse"><stop offset="0" stop-color="#27e9de"/><stop offset="0.52" stop-color="#03a4ec"/><stop offset="1" stop-color="#2547a8"/></linearGradient><linearGradient id="linear-gradient-2" x1="-47" y1="60.27" x2="83.25" y2="60.27" xlink:href="#linear-gradient"/><linearGradient id="未命名的渐变_599" x1="216.51" y1="60.27" x2="-100.74" y2="60.27" gradientUnits="userSpaceOnUse"><stop offset="0.17" stop-color="#0777a3"/><stop offset="0.28" stop-color="#0b8fdd"/><stop offset="0.51" stop-color="#0a90de"/></linearGradient></defs><title>箭头</title><g id="图层_2" data-name="图层 2"><g id="图层_1-2" data-name="图层 1"><path class="cls-1" d="M29.65,92.31h4.79a4,4,0,0,0,4-4V32.24a4,4,0,0,0-4-4H29.65a4,4,0,0,0-4,4V88.3A4,4,0,0,0,29.65,92.31Z"/><path class="cls-2" d="M15.21,28.22H5a5,5,0,0,0-5,5V87.29a5,5,0,0,0,5,5H15.21a4,4,0,0,0,4-4V32.24A4,4,0,0,0,15.21,28.22Z"/><path class="cls-3" d="M175,56.46,110.85,1.23A5,5,0,0,0,102.56,5V28.22H48.88a4,4,0,0,0-4,4V88.3a4,4,0,0,0,4,4h53.68V115.5a5,5,0,0,0,8.29,3.81L175,64.07A5,5,0,0,0,175,56.46Z"/></g></g></svg>