<svg xmlns="http://www.w3.org/2000/svg" xmlns:xlink="http://www.w3.org/1999/xlink" viewBox="0 0 175.01 200.73"><defs><style>.cls-1{isolation:isolate;}.cls-2,.cls-4,.cls-5{fill:#d69f32;}.cls-3{fill:#c4bbbb;}.cls-4,.cls-7{opacity:0.3;}.cls-12,.cls-24,.cls-4,.cls-7,.cls-9{mix-blend-mode:multiply;}.cls-13,.cls-14,.cls-5,.cls-8{mix-blend-mode:screen;}.cls-6,.cls-9{fill:#605858;}.cls-14,.cls-9{opacity:0.5;}.cls-10,.cls-12,.cls-13{fill:#f8bf3e;}.cls-11{fill:#d8d0d0;}.cls-12{opacity:0.6;}.cls-15{fill:url(#linear-gradient);}.cls-16{fill:url(#linear-gradient-2);}.cls-17{fill:url(#linear-gradient-3);}.cls-18{fill:url(#linear-gradient-4);}.cls-19{fill:url(#linear-gradient-5);}.cls-20{fill:url(#linear-gradient-6);}.cls-21{fill:url(#linear-gradient-7);}.cls-22{fill:url(#linear-gradient-8);}.cls-23{fill:url(#linear-gradient-9);}.cls-25{fill:url(#linear-gradient-10);}.cls-26{fill:url(#linear-gradient-11);}.cls-27{fill:url(#linear-gradient-12);}.cls-28{fill:url(#linear-gradient-13);}.cls-29{fill:url(#linear-gradient-14);}.cls-30{fill:url(#linear-gradient-15);}.cls-31{fill:url(#linear-gradient-16);}.cls-32{fill:url(#linear-gradient-17);}.cls-33{fill:url(#linear-gradient-18);}.cls-34{fill:url(#linear-gradient-19);}.cls-35{fill:url(#linear-gradient-20);}</style><linearGradient id="linear-gradient" x1="40.22" y1="35.8" x2="38.05" y2="33.57" gradientUnits="userSpaceOnUse"><stop offset="0"/><stop offset="0.5" stop-color="#f8bf3e"/><stop offset="1"/></linearGradient><linearGradient id="linear-gradient-2" x1="29.83" y1="50.19" x2="25.72" y2="47.38" xlink:href="#linear-gradient"/><linearGradient id="linear-gradient-3" x1="23.34" y1="66.19" x2="16.42" y2="63.9" xlink:href="#linear-gradient"/><linearGradient id="linear-gradient-4" x1="20.56" y1="82.96" x2="13.17" y2="82.67" xlink:href="#linear-gradient"/><linearGradient id="linear-gradient-5" x1="21.94" y1="100.11" x2="14.91" y2="101.16" xlink:href="#linear-gradient"/><linearGradient id="linear-gradient-6" x1="28.02" y1="116.04" x2="21.28" y2="118.44" xlink:href="#linear-gradient"/><linearGradient id="linear-gradient-7" x1="37.41" y1="129.6" x2="32.25" y2="133.47" xlink:href="#linear-gradient"/><linearGradient id="linear-gradient-8" x1="49.42" y1="141.09" x2="46.55" y2="144.55" xlink:href="#linear-gradient"/><linearGradient id="linear-gradient-9" x1="63.43" y1="150.51" x2="62.37" y2="152.74" xlink:href="#linear-gradient"/><linearGradient id="linear-gradient-10" x1="124.05" y1="135.04" x2="130.38" y2="143.95" gradientUnits="userSpaceOnUse"><stop offset="0" stop-color="#fff"/><stop offset="0.5" stop-color="#f8bf3e"/><stop offset="1" stop-color="#fff"/></linearGradient><linearGradient id="linear-gradient-11" x1="129.84" y1="120.63" x2="144.62" y2="132.01" xlink:href="#linear-gradient-10"/><linearGradient id="linear-gradient-12" x1="132.86" y1="107.19" x2="153.97" y2="116.11" xlink:href="#linear-gradient-10"/><linearGradient id="linear-gradient-13" x1="134.06" y1="94.67" x2="159.39" y2="98.77" xlink:href="#linear-gradient-10"/><linearGradient id="linear-gradient-14" x1="134.04" y1="86.19" x2="161.22" y2="86.19" xlink:href="#linear-gradient-10"/><linearGradient id="linear-gradient-15" x1="134.15" y1="90.26" x2="147.13" y2="90.26" xlink:href="#linear-gradient-10"/><linearGradient id="linear-gradient-16" x1="134.16" y1="73.57" x2="158.67" y2="68.06" xlink:href="#linear-gradient-10"/><linearGradient id="linear-gradient-17" x1="130.96" y1="61.79" x2="151.6" y2="50.07" xlink:href="#linear-gradient-10"/><linearGradient id="linear-gradient-18" x1="125.28" y1="49.33" x2="140.64" y2="34.79" xlink:href="#linear-gradient-10"/><linearGradient id="linear-gradient-19" x1="116.71" y1="37.21" x2="125.5" y2="23.49" xlink:href="#linear-gradient-10"/><linearGradient id="linear-gradient-20" x1="104.81" y1="25.5" x2="108.09" y2="16.82" xlink:href="#linear-gradient-10"/></defs><title>电力电感器</title><g class="cls-1"><g id="图层_2" data-name="图层 2"><g id="图层_1-2" data-name="图层 1"><path class="cls-2" d="M75,200.73a5.22,5.22,0,0,1-5.22-5.21V121.93a5.22,5.22,0,1,1,10.43,0v73.59A5.21,5.21,0,0,1,75,200.73Z"/><path class="cls-3" d="M69.76,183.7v11.82a5.22,5.22,0,0,0,10.43,0V183.7Z"/><path class="cls-4" d="M80.19,195.52V121.93a5.22,5.22,0,0,0-4.08-5.09c-.69,11.76-4.78,82.39-4.26,82.84a5.15,5.15,0,0,0,3.13,1A5.21,5.21,0,0,0,80.19,195.52Z"/><path class="cls-4" d="M78.24,117.87l-2.31,82.77a5.21,5.21,0,0,0,4.26-5.12V121.93A5.19,5.19,0,0,0,78.24,117.87Z"/><path class="cls-5" d="M69.76,121.93v73.59a3.11,3.11,0,0,0,0,.43l3-78.75A5.21,5.21,0,0,0,69.76,121.93Z"/><path class="cls-4" d="M69.76,171a104.81,104.81,0,0,0,10.43-1.7V157.69l-10.43-.85Z"/><path class="cls-4" d="M69.76,168.49a91.75,91.75,0,0,0,10.43-.19v-8l-10.43-.84Z"/><path class="cls-6" d="M87.41,7.63a80,80,0,1,0,80,80A80,80,0,0,0,87.41,7.63Zm0,118.89a38.94,38.94,0,1,1,38.93-38.94A39,39,0,0,1,87.41,126.52Z"/><g class="cls-7"><path class="cls-6" d="M56.39,111.08a38.91,38.91,0,0,1,54.52-54.52,38.92,38.92,0,1,0-54.52,54.52Z"/><path class="cls-6" d="M140,27.44A79.91,79.91,0,0,1,27.27,140.2,79.91,79.91,0,1,0,140,27.44Z"/></g><g class="cls-7"><path class="cls-6" d="M58.41,113.52a38.91,38.91,0,0,1,54.94-54.94,38.91,38.91,0,1,0-54.94,54.94Z"/><path class="cls-6" d="M142.37,29.56a79.92,79.92,0,0,1-113,113,79.92,79.92,0,1,0,113-113Z"/></g><g class="cls-8"><path class="cls-6" d="M89.5,128.61A38.91,38.91,0,0,0,116,61.14a38.91,38.91,0,0,1-55,55A38.86,38.86,0,0,0,89.5,128.61Z"/><path class="cls-6" d="M9.55,89.67A79.91,79.91,0,0,1,145,32.13a79.91,79.91,0,1,0-113,113A79.64,79.64,0,0,1,9.55,89.67Z"/></g><path class="cls-9" d="M79.19,125.64c-.88-.2-1.75-.42-2.61-.67L58.11,162a79.16,79.16,0,0,0,10.27,3.26Z"/><path class="cls-9" d="M48.87,157.61,68.5,124.05,41.24,152.82A78.83,78.83,0,0,0,48.87,157.61Z"/><path class="cls-9" d="M32.18,145.34,60.1,117.87S32,136.54,27,139.88Q29.46,142.73,32.18,145.34Z"/><path class="cls-9" d="M19.39,129.55,53,110.27,15.73,123Q17.41,126.36,19.39,129.55Z"/><path class="cls-9" d="M10.82,110.54l37-9.53L9,103.05Q9.71,106.86,10.82,110.54Z"/><path class="cls-9" d="M46,87.58,7.65,82.09c-.13,1.82-.19,3.65-.19,5.49,0,.6,0,1.19,0,1.78L46,91Z"/><path class="cls-9" d="M47.17,80.28l.63-3.9L11.65,62a78.46,78.46,0,0,0-2.47,9Z"/><path class="cls-9" d="M17.79,48.31,48.48,73.45s1.74-1,3.56-2.12a39.82,39.82,0,0,1,2.3-4.27c-7.56-4.39-36.44-18.7-36.55-18.75Z"/><path class="cls-9" d="M29.92,32.08c1.7,2.45,21.57,31.58,21.57,31.58L57,63.31a39.54,39.54,0,0,1,3.19-3.53L30,32Z"/><path class="cls-9" d="M59.49,55.35l4.84.9a39.09,39.09,0,0,1,3.76-2.45L45.57,19.48S59.49,55.35,59.49,55.35Z"/><path class="cls-9" d="M69.74,49.06l3.84,2.14c1.17-.45,2.37-.84,3.6-1.18l-6.74-36.9-6.27-2C64.09,11.1,69.74,49.06,69.74,49.06Z"/><path class="cls-9" d="M75.23,12.42s3.16,25.89,4.44,37a39.72,39.72,0,0,1,4-.59L85.22,46Z"/><path class="cls-9" d="M87.87,26.05c-.08.31,1.73,14.21,2.85,22.75.63.05,1.25.12,1.87.2C94.35,37.92,97.9,15.53,99,8.47a77.94,77.94,0,0,0-10-.82C88.68,13.42,88,25.7,87.87,26.05Z"/><path class="cls-9" d="M98.38,47.24l1.56,3.49c.9.3,1.79.63,2.66,1l14.83-38.25c-2.36-1-4.76-1.8-7.22-2.54Z"/><path class="cls-9" d="M128.19,18.83c-6.27,9.36-19.79,29.51-19.91,29.48s.21,3.76.46,6.73c.7.46,1.39.94,2.06,1.44l26.85-31A81.64,81.64,0,0,0,128.19,18.83Z"/><path class="cls-9" d="M145.08,32.26c-8.43,7.47-28.25,25.13-28,25.79a24.77,24.77,0,0,1,.17,4.55c.14.16.28.33.41.5l34.49-22.4A81.33,81.33,0,0,0,145.08,32.26Z"/><path class="cls-9" d="M156.9,48.07,123.4,65.18l1.08,6.09,36.59-14.78A79.37,79.37,0,0,0,156.9,48.07Z"/><path class="cls-9" d="M166.47,75.64a78,78,0,0,0-1.92-9.09l-5.69,1L126.78,81Z"/><path class="cls-9" d="M134,89.54l33.13,3.61c.12-1.84.19-3.69.19-5.57,0-.26,0-.53,0-.79L153.87,85.2Z"/><path class="cls-9" d="M166.25,100.89l-25-6-15.93,1.68c-.07.29-.13.57-.2.85l38.57,14.25A80,80,0,0,0,166.25,100.89Z"/><path class="cls-9" d="M160.9,119.07l-28.13-16.24-10.15,1.35c-.49,1-1,2.06-1.62,3,8.08,5,27,16.69,34.82,21.7A80.47,80.47,0,0,0,160.9,119.07Z"/><path class="cls-9" d="M132.77,121.45c-.13.13-7.87-4.63-15.24-9.22-.8,1-1.64,1.89-2.52,2.78l28.56,29.42a81.17,81.17,0,0,0,6.16-6.82C143.64,131.66,133,121.29,132.77,121.45Z"/><path class="cls-9" d="M112.45,117.37a39,39,0,0,1-5.21,3.7c5.69,10.5,15.07,27.9,19.22,36.26A80.77,80.77,0,0,0,136,151Z"/><path class="cls-9" d="M107.71,132l-6.18-8.1c-.92.35-1.85.68-2.8,1,2.73,10.73,7.88,31,10.17,39.77a79.54,79.54,0,0,0,9-3.13Z"/><path class="cls-9" d="M98.62,128.61l-2.21-3.16c-.69.17-1.38.31-2.09.44-.24,8-.88,29-1.26,41.44a80.8,80.8,0,0,0,8.87-1.12Z"/><path class="cls-10" d="M94.83,199.68a5.21,5.21,0,0,1-5.21-5.1l-1.54-70.83a5.21,5.21,0,1,1,10.42-.23l1.55,70.84a5.21,5.21,0,0,1-5.1,5.32Z"/><path class="cls-11" d="M89.62,194.58a5.21,5.21,0,0,0,5.21,5.1H95a5.21,5.21,0,0,0,5.1-5.32l-.26-11.71H89.36Z"/><path class="cls-12" d="M100.05,194.36,98.5,123.52a5.25,5.25,0,0,0-4-5L92.09,198.9a5.15,5.15,0,0,0,2.74.78H95A5.21,5.21,0,0,0,100.05,194.36Z"/><path class="cls-12" d="M96.84,119.82l-.63,79.67a5.21,5.21,0,0,0,3.84-5.13L98.5,123.52A5.22,5.22,0,0,0,96.84,119.82Z"/><path class="cls-13" d="M89.17,123.51a4.71,4.71,0,0,1,3.88-4.67l1.5-.27-1.24-.15h-.13a5.22,5.22,0,0,0-5.1,5.33L89.6,193.5Z"/><path class="cls-13" d="M119.88,105.51a5.13,5.13,0,0,0-2.81-1.14l30.53,23.72Z"/><path class="cls-10" d="M119.12,168.85a5.21,5.21,0,0,1-4.84-3.29l-17-42.65a5.21,5.21,0,1,1,9.69-3.84l17,42.64a5.22,5.22,0,0,1-2.92,6.77A5.29,5.29,0,0,1,119.12,168.85Z"/><path class="cls-12" d="M124,161.71l-17-42.64a5.2,5.2,0,0,0-4.45-3.28l16.85,53a5.28,5.28,0,0,0,1.63-.34A5.22,5.22,0,0,0,124,161.71Z"/><path class="cls-12" d="M122.37,167.71a5.21,5.21,0,0,0,1.6-6l-17-42.64a5.07,5.07,0,0,0-1.6-2.16Z"/><path class="cls-13" d="M115,166.75c-.46-1.11-13-36-17.4-48.16a5.2,5.2,0,0,0-.22,4.32l17,42.65A4.94,4.94,0,0,0,115,166.75Z"/><path class="cls-10" d="M137.25,158.42a5.2,5.2,0,0,1-4.21-2.14l-27.13-37a5.22,5.22,0,1,1,8.41-6.17l27.13,37a5.21,5.21,0,0,1-4.2,8.3Z"/><path class="cls-12" d="M141.45,150.12l-27.13-37a5.22,5.22,0,0,0-5.27-2l30.66,46.69c.21-.12.42-.24.62-.38A5.21,5.21,0,0,0,141.45,150.12Z"/><path class="cls-12" d="M141.26,156.5a5.19,5.19,0,0,0,.19-6.38l-27.13-37a5.19,5.19,0,0,0-3.21-2Z"/><path class="cls-13" d="M105.22,114.41a5.19,5.19,0,0,0,.69,4.87l22.64,30.88Z"/><path class="cls-10" d="M152.16,143.75a5.18,5.18,0,0,1-3.29-1.17l-35.58-29a5.22,5.22,0,0,1,6.59-8.09l35.58,29a5.22,5.22,0,0,1-3.3,9.26Z"/><path class="cls-12" d="M156.21,141.83a5.08,5.08,0,0,0,.49-.75l-45.14-32.9a5.24,5.24,0,0,0,1.73,5.42l35.58,29a5.22,5.22,0,0,0,7.34-.75Z"/><path class="cls-12" d="M111.67,111.25a5.23,5.23,0,0,0,1.62,2.35l35.58,29a5.18,5.18,0,0,0,3.29,1.17,5.25,5.25,0,0,0,1.71-.29Z"/><path class="cls-10" d="M162.91,125.81a5.22,5.22,0,0,1-2.17-.48L119,106.24a5.21,5.21,0,0,1,4.34-9.48l41.73,19.09a5.22,5.22,0,0,1-2.17,10Z"/><path class="cls-12" d="M167.84,122.29c-12.85-4.86-42.49-16.05-51.7-19.46a5.16,5.16,0,0,0,2.87,3.41l41.73,19.09a5.19,5.19,0,0,0,6.91-2.57C167.72,122.61,167.78,122.45,167.84,122.29Z"/><path class="cls-13" d="M165.08,115.85l-37.82-17.3,40.35,19.78A5.22,5.22,0,0,0,165.08,115.85Z"/><path class="cls-12" d="M116.51,103.82a5.21,5.21,0,0,0,2.5,2.42l41.73,19.09a5.22,5.22,0,0,0,2.17.48,5.16,5.16,0,0,0,3-1C159.18,121.83,130.39,109.67,116.51,103.82Z"/><path class="cls-10" d="M168.79,105.73a4.73,4.73,0,0,1-.91-.08l-45.19-8a5.21,5.21,0,1,1,1.81-10.27l45.19,8a5.21,5.21,0,0,1-.9,10.35Z"/><path class="cls-13" d="M173.67,98.7a5.24,5.24,0,0,0-4-3.32l-22.17-3.91C156.89,94.05,167.74,97.06,173.67,98.7Z"/><path class="cls-12" d="M118.47,93.49a5.21,5.21,0,0,0,4.22,4.2l45.19,8a4.73,4.73,0,0,0,.91.08,5.21,5.21,0,0,0,4.83-3.28C163,100.52,130.74,95.42,118.47,93.49Z"/><path class="cls-12" d="M120.25,96.55a5.35,5.35,0,0,0,2.44,1.14l45.19,8a4.73,4.73,0,0,0,.91.08,5.17,5.17,0,0,0,3.72-1.59C165.16,103.1,132.58,98.35,120.25,96.55Z"/><path class="cls-10" d="M169.8,91.41H123.91a5.22,5.22,0,0,1,0-10.43H169.8a5.22,5.22,0,0,1,0,10.43Z"/><path class="cls-13" d="M169.8,81H131c.59.14,31.77,1.49,42.83,2A5.2,5.2,0,0,0,169.8,81Z"/><path class="cls-12" d="M175,86.19a5.36,5.36,0,0,0-.09-1l-55.49,3.66a5.23,5.23,0,0,0,4.48,2.55H169.8A5.22,5.22,0,0,0,175,86.19Z"/><path class="cls-12" d="M123.91,91.41H169.8a5.23,5.23,0,0,0,5-3.74l-53.09,3.24A5.07,5.07,0,0,0,123.91,91.41Z"/><path class="cls-10" d="M122.38,82.26A5.21,5.21,0,0,1,121.07,72l44.41-11.55a5.21,5.21,0,1,1,2.63,10.09L123.7,82.09A5,5,0,0,1,122.38,82.26Z"/><path class="cls-13" d="M165.48,60.45l-37,9.63c.43-.11,28.34-6.41,40.74-9.21A5.16,5.16,0,0,0,165.48,60.45Z"/><path class="cls-12" d="M171.59,67.51,117.22,77.79a5.78,5.78,0,0,0,.12.57,5.2,5.2,0,0,0,5,3.9,5,5,0,0,0,1.32-.17l44.41-11.55A5.2,5.2,0,0,0,171.59,67.51Z"/><path class="cls-12" d="M171,68.57,119,81a5.19,5.19,0,0,0,3.38,1.27,5,5,0,0,0,1.32-.17l44.41-11.55A5.18,5.18,0,0,0,171,68.57Z"/><path class="cls-10" d="M118.61,73.79A5.22,5.22,0,0,1,116.06,64l40.07-22.36a5.22,5.22,0,1,1,5.08,9.11L121.15,73.13A5.21,5.21,0,0,1,118.61,73.79Z"/><path class="cls-12" d="M163.67,47.7,113.4,68.76a5.08,5.08,0,0,0,.65,2.36,5.23,5.23,0,0,0,7.1,2l40.06-22.36A5.21,5.21,0,0,0,163.67,47.7Z"/><path class="cls-13" d="M156.13,41.66,122.78,60.28l38.39-18.64A5.22,5.22,0,0,0,156.13,41.66Z"/><path class="cls-12" d="M163,49.06l-48,23.34a5.21,5.21,0,0,0,6.08.73l40.06-22.36A5.19,5.19,0,0,0,163,49.06Z"/><path class="cls-10" d="M112.82,66.55a5.21,5.21,0,0,1-3.61-9l33.15-31.73a5.21,5.21,0,0,1,7.21,7.53L116.42,65.1A5.19,5.19,0,0,1,112.82,66.55Z"/><path class="cls-12" d="M151.17,29.7,108.32,64a5.31,5.31,0,0,0,.73,1,5.21,5.21,0,0,0,7.37.16l33.15-31.73A5.19,5.19,0,0,0,151.17,29.7Z"/><path class="cls-12" d="M150.91,31.17,111.73,66.43a5,5,0,0,0,1.09.12,5.19,5.19,0,0,0,3.6-1.45l33.15-31.73A5.16,5.16,0,0,0,150.91,31.17Z"/><path class="cls-13" d="M142.36,25.84,113.67,53.3l32.65-28.88A5.14,5.14,0,0,0,142.36,25.84Z"/><path class="cls-10" d="M105.38,61a5.15,5.15,0,0,1-2.73-.78,5.21,5.21,0,0,1-1.7-7.17L125,14a5.22,5.22,0,0,1,8.88,5.48L109.83,58.52A5.22,5.22,0,0,1,105.38,61Z"/><path class="cls-12" d="M134.36,14.92,101.68,59.44a5.27,5.27,0,0,0,1,.78,5.15,5.15,0,0,0,2.73.78,5.22,5.22,0,0,0,4.45-2.48l24.09-39.05A5.22,5.22,0,0,0,134.36,14.92Z"/><path class="cls-12" d="M134.62,15.89,105.13,61l.25,0a5.22,5.22,0,0,0,4.45-2.48l24.09-39.05A5.25,5.25,0,0,0,134.62,15.89Z"/><path class="cls-13" d="M129.6,11.52A5.22,5.22,0,0,0,125,14L104.53,47.24Z"/><path class="cls-10" d="M96.8,57.5a5.46,5.46,0,0,1-1.53-.23,5.22,5.22,0,0,1-3.45-6.52L105.3,6.89a5.21,5.21,0,0,1,10,3.06L101.79,53.82A5.23,5.23,0,0,1,96.8,57.5Z"/><path class="cls-12" d="M115,6.3,93.76,56.51a5.23,5.23,0,0,0,1.51.76,5.46,5.46,0,0,0,1.53.23,5.23,5.23,0,0,0,5-3.68L115.27,10A5.19,5.19,0,0,0,115,6.3Z"/><path class="cls-12" d="M115.48,8,97.13,57.47a5.2,5.2,0,0,0,4.66-3.65L115.27,10A5.38,5.38,0,0,0,115.48,8Z"/><path class="cls-13" d="M105.3,6.89,93.41,45.59,108.47,3.54A5.19,5.19,0,0,0,105.3,6.89Z"/><path class="cls-10" d="M87.62,56.27h-.23a5.21,5.21,0,0,1-5-5.43L84.4,5a5.28,5.28,0,0,1,5.44-5,5.21,5.21,0,0,1,5,5.44l-2,45.84A5.21,5.21,0,0,1,87.62,56.27Z"/><path class="cls-13" d="M82.68,44.65,86.56,1A5.22,5.22,0,0,0,84.4,5L82.67,44.62Z"/><path class="cls-12" d="M93.44,1.67,87.26,56.25h.36a5.21,5.21,0,0,0,5.2-5l2-45.84A5.18,5.18,0,0,0,93.44,1.67Z"/><path class="cls-12" d="M89.18,56a5.21,5.21,0,0,0,3.64-4.73l2-45.84a5.21,5.21,0,0,0-.32-2.06Z"/><path class="cls-10" d="M78.4,57.4a5.22,5.22,0,0,1-5.09-4.13L63.7,8.4A5.22,5.22,0,0,1,73.9,6.22l9.61,44.87a5.21,5.21,0,0,1-4,6.19A5.15,5.15,0,0,1,78.4,57.4Z"/><path class="cls-12" d="M78.71,57.38a4.27,4.27,0,0,0,.79-.1,5.21,5.21,0,0,0,4-6.19L73.9,6.22a5.16,5.16,0,0,0-2.8-3.58Z"/><path class="cls-12" d="M73.9,6.22a5.13,5.13,0,0,0-1.88-3L81.92,56a5.22,5.22,0,0,0,1.59-4.94Z"/><path class="cls-13" d="M64.69,4.11a5.24,5.24,0,0,0-1,4.29L72,47.24Z"/><path class="cls-10" d="M69.79,60.8a5.2,5.2,0,0,1-4.66-2.87l-20.6-41a5.21,5.21,0,1,1,9.32-4.68l20.6,41a5.22,5.22,0,0,1-2.32,7A5.15,5.15,0,0,1,69.79,60.8Z"/><path class="cls-12" d="M70.06,60.79a5.35,5.35,0,0,0,2.07-.54,5.22,5.22,0,0,0,2.32-7l-20.6-41a5.21,5.21,0,0,0-3.93-2.82C53.56,18.39,66.08,50.56,70.06,60.79Z"/><path class="cls-12" d="M74.45,53.25l-20.6-41A5.2,5.2,0,0,0,51.26,9.8c2.74,4.6,19.61,45.32,21.55,50A5.22,5.22,0,0,0,74.45,53.25Z"/><path class="cls-13" d="M44.45,12.42a5.22,5.22,0,0,0,.08,4.5L62.12,52C60.42,47.68,49.69,24,44.45,12.42Z"/><path class="cls-10" d="M62.3,66.27a5.18,5.18,0,0,1-3.92-1.78L28.12,30A5.22,5.22,0,0,1,36,23.12l30.26,34.5a5.21,5.21,0,0,1-3.92,8.65Z"/><path class="cls-12" d="M31.44,21.38C41,33.94,60.61,59.58,64.87,65.59a6.22,6.22,0,0,0,.87-.61,5.22,5.22,0,0,0,.48-7.36L36,23.12A5.2,5.2,0,0,0,31.44,21.38Z"/><path class="cls-12" d="M36,23.12a5.13,5.13,0,0,0-2.76-1.63c5.67,6.74,26.87,33.63,33.59,42.17a5.2,5.2,0,0,0-.57-6Z"/><path class="cls-13" d="M26.87,26.05A5.18,5.18,0,0,0,28.12,30L53.53,59Z"/><path class="cls-10" d="M56.42,73.45a5.17,5.17,0,0,1-2.92-.9l-38-25.77a5.22,5.22,0,0,1,5.86-8.63l38,25.77a5.22,5.22,0,0,1-2.94,9.53Z"/><path class="cls-12" d="M59.36,63.92l-38-25.77a5.2,5.2,0,0,0-5.17-.39C28.68,47.2,55.66,67.69,60.34,71.68a4.21,4.21,0,0,0,.4-.52A5.21,5.21,0,0,0,59.36,63.92Z"/><path class="cls-12" d="M59.36,63.92l-38-25.77a5.11,5.11,0,0,0-3.26-.88c5,3.53,34.79,26.18,43.23,32.59A5.2,5.2,0,0,0,59.36,63.92Z"/><path class="cls-13" d="M13.28,42.82a5.2,5.2,0,0,0,2.25,4L38,62Z"/><path class="cls-10" d="M52.55,81.87a5,5,0,0,1-1.74-.3L7.57,66.19a5.21,5.21,0,1,1,3.5-9.82L54.3,71.75a5.21,5.21,0,0,1-1.75,10.12Z"/><path class="cls-13" d="M4.37,62.89a5.19,5.19,0,0,0,3.2,3.3L41.11,78.12Z"/><path class="cls-12" d="M54.3,71.75,11.07,56.37a5.15,5.15,0,0,0-3.92.17L57.47,78.41A5.21,5.21,0,0,0,54.3,71.75Z"/><path class="cls-12" d="M57.73,76a5.19,5.19,0,0,0-3.43-4.28L11.07,56.37a5,5,0,0,0-1.61-.3C17.56,59.21,47.74,71.85,57.73,76Z"/><path class="cls-10" d="M50.93,91a3.62,3.62,0,0,1-.46,0L4.76,87a5.21,5.21,0,1,1,.91-10.39l45.71,4A5.21,5.21,0,0,1,50.93,91Z"/><path class="cls-12" d="M4.76,87l45.71,4a3.62,3.62,0,0,0,.46,0,5.21,5.21,0,0,0,5.19-4.76,4.83,4.83,0,0,0,0-.85C42,85.07,8.87,84.31.46,83.92A5.2,5.2,0,0,0,4.76,87Z"/><path class="cls-12" d="M55.88,87.38,1.49,85.43A5.18,5.18,0,0,0,4.76,87l45.71,4a3.62,3.62,0,0,0,.46,0A5.21,5.21,0,0,0,55.88,87.38Z"/><path class="cls-13" d="M51.38,80.59l-45.71-4a5.2,5.2,0,0,0-3.78,1.19L54,81.61A5.22,5.22,0,0,0,51.38,80.59Z"/><path class="cls-10" d="M6.4,107.88a5.21,5.21,0,0,1-.86-10.35l45.24-7.64a5.21,5.21,0,1,1,1.74,10.28L7.27,107.81A5.1,5.1,0,0,1,6.4,107.88Z"/><path class="cls-12" d="M1.4,104.08a5.21,5.21,0,0,0,5,3.8,5.1,5.1,0,0,0,.87-.07l45.25-7.64a5.23,5.23,0,0,0,4.3-4.42Z"/><path class="cls-12" d="M55.53,98.51l-53,7.67a5.24,5.24,0,0,0,3.84,1.7,5.1,5.1,0,0,0,.87-.07l45.25-7.64A5.15,5.15,0,0,0,55.53,98.51Z"/><path class="cls-13" d="M55.12,91.14a5.23,5.23,0,0,0-4.34-1.25L5.54,97.53a5.23,5.23,0,0,0-2,.76Z"/><path class="cls-10" d="M12.82,127.8a5.22,5.22,0,0,1-2.14-10L52.54,99a5.21,5.21,0,1,1,4.27,9.51L15,127.34A5.24,5.24,0,0,1,12.82,127.8Z"/><path class="cls-12" d="M7.81,124a4.28,4.28,0,0,0,.25.68A5.2,5.2,0,0,0,15,127.34l41.86-18.79a5.18,5.18,0,0,0,3-4.08C46.57,109.43,14.8,121.32,7.81,124Z"/><path class="cls-12" d="M59.49,105.79,9.21,126.33a5.17,5.17,0,0,0,5.74,1l41.86-18.79A5.19,5.19,0,0,0,59.49,105.79Z"/><path class="cls-13" d="M57.59,99.47A5.2,5.2,0,0,0,52.54,99L10.68,117.82a4.9,4.9,0,0,0-1.2.76Z"/><path class="cls-10" d="M24,145.45a5.21,5.21,0,0,1-3.27-9.28l35.79-28.72a5.21,5.21,0,1,1,6.53,8.13L27.29,144.3A5.19,5.19,0,0,1,24,145.45Z"/><path class="cls-12" d="M20,143.5a5.21,5.21,0,0,0,7.33.8l35.79-28.72a5.19,5.19,0,0,0,1.68-5.66c-12.67,9-38.68,27.35-45.6,32.11A5.14,5.14,0,0,0,20,143.5Z"/><path class="cls-12" d="M64.8,113c-13.14,9.3-38.41,27.21-44,31.27a5.19,5.19,0,0,0,6.53,0l35.79-28.72A5.22,5.22,0,0,0,64.8,113Z"/><path class="cls-13" d="M60.94,106.44a5.22,5.22,0,0,0-4.39,1L20.76,136.17a5.19,5.19,0,0,0-1.27,1.51Z"/><path class="cls-10" d="M39.32,159.71a5.21,5.21,0,0,1-4.18-8.33l27.41-36.8a5.21,5.21,0,1,1,8.36,6.22l-27.4,36.81A5.18,5.18,0,0,1,39.32,159.71Z"/><path class="cls-12" d="M43.51,157.61l27.4-36.81a5.2,5.2,0,0,0,.37-5.63c-7.61,9-32,37.92-36,42.61a5.54,5.54,0,0,0,.91.9,5.25,5.25,0,0,0,3.11,1A5.18,5.18,0,0,0,43.51,157.61Z"/><path class="cls-12" d="M71.89,117,37.48,159.36a5.17,5.17,0,0,0,6-1.75l27.4-36.81A5.15,5.15,0,0,0,71.89,117Z"/><path class="cls-13" d="M67.17,112.51a5.17,5.17,0,0,0-4.62,2.07l-27.41,36.8a5,5,0,0,0-.64,1.21Z"/><path class="cls-10" d="M57.72,169.67a5.23,5.23,0,0,1-4.83-7.18L70.15,120a5.21,5.21,0,1,1,9.66,3.92L62.56,166.41A5.25,5.25,0,0,1,57.72,169.67Z"/><path class="cls-12" d="M79.81,123.89a5.21,5.21,0,0,0-.88-5.36L54.27,168.35a5.2,5.2,0,0,0,8.29-1.94Z"/><path class="cls-12" d="M62.56,166.41l17.25-42.52a5.31,5.31,0,0,0,.36-2.44L55.76,169.28a5.2,5.2,0,0,0,6.8-2.87Z"/><path class="cls-13" d="M52.55,163.85c.85-2,16-35.92,20.9-46.91a5.19,5.19,0,0,0-3.3,3L52.89,162.49A5.12,5.12,0,0,0,52.55,163.85Z"/><g class="cls-14"><path class="cls-15" d="M43.85,32.12l-1.77-2a91.1,91.1,0,0,0-7.9,6.81L36.88,40A86.45,86.45,0,0,1,43.85,32.12Z"/><path class="cls-16" d="M32.73,45.85,28.51,43a71.92,71.92,0,0,0-6.11,8.45L27.66,55A78.17,78.17,0,0,1,32.73,45.85Z"/><path class="cls-17" d="M25.06,61.34,18.4,59a62.31,62.31,0,0,0-3.48,9.83l7.33,2.61A74.17,74.17,0,0,1,25.06,61.34Z"/><path class="cls-18" d="M20.76,87.34A77.13,77.13,0,0,1,21.24,78l-7.93-.69a67.08,67.08,0,0,0-.42,10.43l7.9.69C20.78,88,20.76,87.69,20.76,87.34Z"/><path class="cls-19" d="M21.32,94.86l-7.64,1.29A69.08,69.08,0,0,0,16,106.34l7.65-1.29A58.61,58.61,0,0,1,21.32,94.86Z"/><path class="cls-20" d="M25.92,111l-7,3.13A64.79,64.79,0,0,0,24,123.26l6.87-3.08A68.16,68.16,0,0,1,25.92,111Z"/><path class="cls-21" d="M34.42,125.21l-5.55,4.45a73.25,73.25,0,0,0,7.37,7.46l5-4A87.32,87.32,0,0,1,34.42,125.21Z"/><path class="cls-22" d="M45.62,137.31l-3.4,4.57A87.46,87.46,0,0,0,51,147.5L53.67,144C51,142,48.3,139.75,45.62,137.31Z"/><path class="cls-23" d="M57.61,150.86a99.91,99.91,0,0,0,9.67,3.9l.64-1.58c-2.62-1.45-5.7-3.29-9-5.51Z"/></g><g class="cls-24"><path class="cls-25" d="M120.8,139.59l5.78,7.88a95.83,95.83,0,0,0,8.35-6.25l-8.56-11.67A75.1,75.1,0,0,1,120.8,139.59Z"/><path class="cls-26" d="M128,125.61l12.66,10.31a76.5,76.5,0,0,0,6.83-7.89l-16.16-13.17A80.71,80.71,0,0,1,128,125.61Z"/><path class="cls-27" d="M132,112.17l20,9.16a67.36,67.36,0,0,0,4.56-9.38l-23-10.51A104.51,104.51,0,0,1,132,112.17Z"/><path class="cls-28" d="M147.13,91.41h-13q-.09,4.31-.42,8.22l25.35,4.47a69.32,69.32,0,0,0,1.79-10.27Z"/><path class="cls-29" d="M134.19,89.12l12.94,2.29h13.93A77.39,77.39,0,0,0,161,81H134Q134.22,85.23,134.19,89.12Z"/><path class="cls-30" d="M134.15,91.41h13l-12.94-2.29C134.19,89.9,134.17,90.65,134.15,91.41Z"/><path class="cls-31" d="M133.93,79.43,160,72.64a79.87,79.87,0,0,0-2.34-10.17L132.47,69A69.66,69.66,0,0,1,133.93,79.43Z"/><path class="cls-32" d="M132,67.08l22.73-12.69a64.49,64.49,0,0,0-4.95-9.18L128.62,57A67.22,67.22,0,0,1,132,67.08Z"/><path class="cls-33" d="M127.48,54.52l17-16.3A63.23,63.23,0,0,0,137,30.93L122.17,45.16A74.27,74.27,0,0,1,127.48,54.52Z"/><path class="cls-34" d="M120,42l10-16.23a77.08,77.08,0,0,0-9.18-5l-7.9,12.81A84.45,84.45,0,0,1,120,42Z"/><path class="cls-35" d="M109.14,29.9l3.76-12.23a99.11,99.11,0,0,0-10-2.85l-2.4,7.83A103.51,103.51,0,0,1,109.14,29.9Z"/></g></g></g></g></svg>