<svg xmlns="http://www.w3.org/2000/svg" xmlns:xlink="http://www.w3.org/1999/xlink" viewBox="0 0 263.97 134.74"><defs><style>.cls-1{fill:url(#linear-gradient);}.cls-2{fill:url(#未命名的渐变_353);}.cls-3{fill:#8e6601;}.cls-4{fill:#936a01;}.cls-5{fill:#996e01;}.cls-6{fill:#9e7101;}.cls-7{fill:#a37501;}.cls-8{fill:#a97901;}.cls-9{fill:#ae7d01;}.cls-10{fill:#b38101;}.cls-11{fill:#b98402;}.cls-12{fill:#be8802;}.cls-13{fill:#c38c02;}.cls-14{fill:#c89002;}.cls-15{fill:#ce9402;}.cls-16{fill:#d39802;}.cls-17{fill:#d89b02;}.cls-18{fill:#de9f02;}.cls-19{fill:#e3a302;}.cls-20{fill:url(#未命名的渐变_341);}.cls-21,.cls-39{fill:#fff;}.cls-21{opacity:0.38;}.cls-22{fill:url(#radial-gradient);}.cls-23{fill:url(#radial-gradient-2);}.cls-24{fill:url(#radial-gradient-3);}.cls-25{fill:url(#radial-gradient-4);}.cls-26{fill:url(#radial-gradient-5);}.cls-27{fill:url(#radial-gradient-6);}.cls-28{fill:url(#radial-gradient-7);}.cls-29{fill:url(#radial-gradient-8);}.cls-30{fill:url(#radial-gradient-9);}.cls-31{fill:url(#radial-gradient-10);}.cls-32{fill:url(#radial-gradient-11);}.cls-33{fill:url(#radial-gradient-12);}.cls-34{fill:url(#radial-gradient-13);}.cls-35{fill:url(#radial-gradient-14);}.cls-36{fill:url(#radial-gradient-15);}.cls-37{fill:#da251c;}.cls-38{fill:#050d0e;}.cls-39{font-size:24.61px;font-family:SourceHanSansCN-Heavy-GBpc-EUC-H, Source Han Sans CN;letter-spacing:0.18em;}</style><linearGradient id="linear-gradient" x1="131.99" y1="134.74" x2="131.99" gradientUnits="userSpaceOnUse"><stop offset="0" stop-color="#392901"/><stop offset="0.04" stop-color="#8e7534"/><stop offset="0.1" stop-color="#725201"/><stop offset="0.92" stop-color="#725201"/><stop offset="0.96" stop-color="#fbecac"/><stop offset="1" stop-color="#725201"/></linearGradient><linearGradient id="未命名的渐变_353" y1="67.37" x2="263.97" y2="67.37" gradientUnits="userSpaceOnUse"><stop offset="0" stop-color="#e3b902"/><stop offset="0.86" stop-color="#f6cf2f"/><stop offset="1" stop-color="#f2b112"/></linearGradient><radialGradient id="未命名的渐变_341" cx="202.48" cy="67.28" r="97.41" gradientTransform="translate(-73.26) scale(1.01 1)" gradientUnits="userSpaceOnUse"><stop offset="0" stop-color="#f6cf2f"/><stop offset="1" stop-color="#f8c301"/></radialGradient><radialGradient id="radial-gradient" cx="153.06" cy="-451.01" r="112.58" gradientTransform="translate(28.41 379.44) scale(0.99 0.79)" gradientUnits="userSpaceOnUse"><stop offset="0" stop-color="#666"/><stop offset="0.41" stop-color="#333"/><stop offset="1"/></radialGradient><radialGradient id="radial-gradient-2" cx="153.06" cy="-317.22" r="112.58" xlink:href="#radial-gradient"/><radialGradient id="radial-gradient-3" cx="79.85" cy="-469.2" r="31.82" gradientTransform="translate(0 382.89) scale(1 0.81)" gradientUnits="userSpaceOnUse"><stop offset="0" stop-color="#a3a3a3"/><stop offset="0.41" stop-color="#858585"/><stop offset="1" stop-color="#333"/></radialGradient><radialGradient id="radial-gradient-4" cx="9244.94" cy="7577.49" r="7.16" gradientTransform="matrix(0, -0.99, -0.8, 0.47, 6307.56, 5655.81)" xlink:href="#radial-gradient"/><radialGradient id="radial-gradient-5" cx="9230.2" cy="7577.49" r="7.16" gradientTransform="matrix(0, -0.99, -0.8, 0.47, 6307.56, 5655.81)" xlink:href="#radial-gradient"/><radialGradient id="radial-gradient-6" cx="9215.47" cy="7577.49" r="7.16" gradientTransform="matrix(0, -0.99, -0.8, 0.47, 6307.56, 5655.81)" xlink:href="#radial-gradient"/><radialGradient id="radial-gradient-7" cx="9200.73" cy="7577.49" r="7.16" gradientTransform="matrix(0, -0.99, -0.8, 0.47, 6307.56, 5655.81)" xlink:href="#radial-gradient"/><radialGradient id="radial-gradient-8" cx="9185.99" cy="7577.49" r="7.16" gradientTransform="matrix(0, -0.99, -0.8, 0.47, 6307.56, 5655.81)" xlink:href="#radial-gradient"/><radialGradient id="radial-gradient-9" cx="9171.25" cy="7577.49" r="7.16" gradientTransform="matrix(0, -0.99, -0.8, 0.47, 6307.56, 5655.81)" xlink:href="#radial-gradient"/><radialGradient id="radial-gradient-10" cx="9389.69" cy="7883.55" r="7.16" gradientTransform="matrix(0, -0.99, -0.8, 0.47, 6307.56, 5655.81)" xlink:href="#radial-gradient"/><radialGradient id="radial-gradient-11" cx="9374.96" cy="7883.55" r="7.16" gradientTransform="matrix(0, -0.99, -0.8, 0.47, 6307.56, 5655.81)" xlink:href="#radial-gradient"/><radialGradient id="radial-gradient-12" cx="9360.22" cy="7883.55" r="7.16" gradientTransform="matrix(0, -0.99, -0.8, 0.47, 6307.56, 5655.81)" xlink:href="#radial-gradient"/><radialGradient id="radial-gradient-13" cx="9345.48" cy="7883.55" r="7.16" gradientTransform="matrix(0, -0.99, -0.8, 0.47, 6307.56, 5655.81)" xlink:href="#radial-gradient"/><radialGradient id="radial-gradient-14" cx="9330.74" cy="7883.55" r="7.16" gradientTransform="matrix(0, -0.99, -0.8, 0.47, 6307.56, 5655.81)" xlink:href="#radial-gradient"/><radialGradient id="radial-gradient-15" cx="9316" cy="7883.55" r="7.16" gradientTransform="matrix(0, -0.99, -0.8, 0.47, 6307.56, 5655.81)" xlink:href="#radial-gradient"/></defs><title>禁止合闸有人工作2</title><g id="图层_2" data-name="图层 2"><g id="图层_1-2" data-name="图层 1"><rect class="cls-1" width="263.97" height="134.74" rx="3.67"/><rect class="cls-2" y="2.05" width="263.97" height="130.64" rx="3.67"/><path class="cls-3" d="M9.66,127.27c-2.59,0-4.71-1.52-4.71-3.4V10.64C5,8.77,7.07,7.25,9.66,7.25H254.71c2.59,0,4.7,1.52,4.7,3.39V123.87c0,1.88-2.11,3.4-4.7,3.4Z"/><path class="cls-4" d="M9.73,127.23c-2.6,0-4.71-1.52-4.71-3.39V10.68C5,8.81,7.13,7.29,9.73,7.29H254.65c2.59,0,4.7,1.52,4.7,3.39V123.84c0,1.87-2.11,3.39-4.7,3.39Z"/><path class="cls-5" d="M9.79,127.18c-2.59,0-4.7-1.51-4.7-3.38V10.72c0-1.86,2.11-3.38,4.7-3.38h244.8c2.59,0,4.7,1.52,4.7,3.38V123.8c0,1.87-2.11,3.38-4.7,3.38Z"/><path class="cls-6" d="M9.85,127.13c-2.59,0-4.7-1.51-4.7-3.36v-113c0-1.86,2.11-3.37,4.7-3.37H254.53c2.59,0,4.7,1.51,4.7,3.37v113c0,1.85-2.11,3.36-4.7,3.36Z"/><path class="cls-7" d="M9.92,127.09c-2.59,0-4.7-1.51-4.7-3.36V10.79c0-1.85,2.11-3.35,4.7-3.35H254.47c2.59,0,4.7,1.5,4.7,3.35V123.73c0,1.85-2.11,3.36-4.7,3.36Z"/><path class="cls-8" d="M10,127c-2.59,0-4.7-1.5-4.7-3.34V10.83C5.28,9,7.39,7.49,10,7.49H254.41c2.59,0,4.69,1.5,4.69,3.34V123.7c0,1.84-2.1,3.34-4.69,3.34Z"/><path class="cls-9" d="M10,127c-2.58,0-4.69-1.5-4.69-3.34V10.87C5.35,9,7.46,7.54,10,7.54H254.35c2.59,0,4.69,1.49,4.69,3.33V123.66c0,1.84-2.1,3.34-4.69,3.34Z"/><path class="cls-10" d="M10.11,127c-2.59,0-4.7-1.49-4.7-3.32V10.91c0-1.84,2.11-3.33,4.7-3.33H254.29c2.59,0,4.69,1.49,4.69,3.33V123.63c0,1.83-2.1,3.32-4.69,3.32Z"/><path class="cls-11" d="M10.17,126.91c-2.59,0-4.69-1.49-4.69-3.31V10.94c0-1.82,2.1-3.31,4.69-3.31H254.23c2.58,0,4.69,1.49,4.69,3.31V123.6c0,1.82-2.11,3.31-4.69,3.31Z"/><path class="cls-12" d="M10.23,126.86c-2.58,0-4.68-1.48-4.68-3.3V11c0-1.82,2.1-3.3,4.68-3.3H254.17c2.58,0,4.69,1.48,4.69,3.3V123.56c0,1.82-2.11,3.3-4.69,3.3Z"/><path class="cls-13" d="M10.3,126.82c-2.59,0-4.69-1.48-4.69-3.29V11c0-1.82,2.1-3.29,4.69-3.29H254.11c2.58,0,4.69,1.47,4.69,3.29V123.53c0,1.81-2.11,3.29-4.69,3.29Z"/><path class="cls-14" d="M10.36,126.77c-2.58,0-4.68-1.47-4.68-3.28V11.05c0-1.8,2.1-3.27,4.68-3.27H254.05c2.58,0,4.68,1.47,4.68,3.27V123.49c0,1.81-2.1,3.28-4.68,3.28Z"/><path class="cls-15" d="M10.43,126.72c-2.59,0-4.69-1.46-4.69-3.26V11.09c0-1.8,2.1-3.26,4.69-3.26H254c2.58,0,4.68,1.46,4.68,3.26V123.46c0,1.8-2.1,3.26-4.68,3.26Z"/><path class="cls-16" d="M10.49,126.68c-2.58,0-4.68-1.46-4.68-3.26V11.13c0-1.8,2.1-3.26,4.68-3.26H253.93c2.58,0,4.68,1.46,4.68,3.26V123.42c0,1.8-2.1,3.26-4.68,3.26Z"/><path class="cls-17" d="M10.55,126.63c-2.58,0-4.67-1.45-4.67-3.24V11.17c0-1.79,2.09-3.25,4.67-3.25H253.87c2.58,0,4.68,1.46,4.68,3.25V123.39c0,1.79-2.1,3.24-4.68,3.24Z"/><path class="cls-18" d="M10.62,126.59c-2.58,0-4.68-1.45-4.68-3.23V11.2C5.94,9.42,8,8,10.62,8H253.81c2.58,0,4.68,1.45,4.68,3.23V123.36c0,1.78-2.1,3.23-4.68,3.23Z"/><path class="cls-19" d="M10.68,126.54C8.1,126.54,6,125.1,6,123.32V11.24C6,9.46,8.1,8,10.68,8H253.75c2.58,0,4.67,1.44,4.67,3.22V123.32c0,1.78-2.09,3.22-4.67,3.22Z"/><path class="cls-20" d="M10.68,126.54C8.1,126.54,6,125.1,6,123.32V11.24C6,9.46,8.1,8,10.68,8H253.75c2.58,0,4.67,1.44,4.67,3.22V123.32c0,1.78-2.09,3.22-4.67,3.22Z"/><path class="cls-21" d="M.37,85H.29a8,8,0,0,0,.16-1.58V13.55A39.09,39.09,0,0,1,.64,6.62C1,5,1.72,4.27,3,3.11,5,1.2,9.23,1.75,12.23,1.75h98.16C111.45,1.75.37,85,.37,85Z"/><path class="cls-22" d="M67.4,8.08,59.25,19.33h7.29L74.69,8.08Zm-15.19,0L44.06,19.33h7.29L59.5,8.08Zm-30.38,0L13.68,19.33H21L29.12,8.08ZM37,8.08,28.87,19.33h7.29L44.31,8.08ZM8.6,8.08c-1,0-1.86.57-1.86,1.28V18l7.19-9.94Zm74,0L74.44,19.33h7.29L89.88,8.08Zm175.7,1-7.39,10.21h5.56c1,0,1.86-.57,1.86-1.28V9.36A1,1,0,0,0,258.28,9.12Zm-160.51-1L89.63,19.33h7.29l8.15-11.25Zm15,0-8.15,11.25H112l8.15-11.25Zm15,0L119.7,19.33H127l8.14-11.25Zm15,0-8.14,11.25H142l8.15-11.25Zm15,0-8.15,11.25h7.3l8.15-11.25Zm15,0-8.15,11.25h7.3l8.14-11.25Zm15,0-8.14,11.25h7.29l8.15-11.25Zm15,0-8.15,11.25h7.3l8.15-11.25Zm15,0-8.15,11.25h7.3l8.14-11.25Zm15,0L225,19.33h7.29L240.4,8.08Zm15,0L240,19.33h7.3l8.15-11.25Z"/><path class="cls-23" d="M67.4,114.12l-8.15,11.25h7.29l8.15-11.25Zm-15.19,0-8.15,11.25h7.29l8.15-11.25Zm-30.38,0-8.15,11.25H21l8.15-11.25Zm15.19,0-8.15,11.25h7.29l8.15-11.25Zm-28.42,0c-1,0-1.86.57-1.86,1.27v8.67l7.19-9.94Zm74,0-8.14,11.25h7.29l8.15-11.25Zm175.7,1-7.39,10.21h5.56c1,0,1.86-.57,1.86-1.28v-8.7A.91.91,0,0,0,258.28,115.16Zm-160.51-1-8.14,11.25h7.29l8.15-11.25Zm15,0-8.15,11.25H112l8.15-11.25Zm15,0-8.15,11.25H127l8.14-11.25Zm15,0-8.14,11.25H142l8.15-11.25Zm15,0-8.15,11.25h7.3l8.15-11.25Zm15,0-8.15,11.25h7.3l8.14-11.25Zm15,0-8.14,11.25h7.29l8.15-11.25Zm15,0-8.15,11.25h7.3l8.15-11.25Zm15,0-8.15,11.25h7.3l8.14-11.25Zm15,0L225,125.37h7.29l8.15-11.25Zm15,0L240,125.37h7.3l8.15-11.25Z"/><path class="cls-24" d="M37,8.07,28.87,19.32h7.3L44.32,8.07Zm-15.19,0L13.68,19.32H21L29.13,8.07ZM44.06,19.32h7.3L59.51,8.07h-7.3ZM8.6,8.07c-1,0-1.86.57-1.86,1.28V18l7.2-9.94ZM59.94,18.38l8.54-1.72L74.7,8.07H67.4ZM77.72,14.8l8.55-1.73,3.62-5h-7.3ZM97.78,8.07l-2.26,3.12,8.58-1.77,1-1.35Z"/><polygon class="cls-25" points="258.31 20.21 258.31 29.84 251.41 38.88 251.41 29.25 258.31 20.21"/><polygon class="cls-26" points="258.31 34.86 258.31 44.49 251.41 53.53 251.41 43.9 258.31 34.86"/><polygon class="cls-27" points="258.31 49.5 258.31 59.14 251.41 68.18 251.41 58.55 258.31 49.5"/><polygon class="cls-28" points="258.31 64.15 258.31 73.78 251.41 82.82 251.41 73.19 258.31 64.15"/><polygon class="cls-29" points="258.31 78.8 258.31 88.43 251.41 97.47 251.41 87.84 258.31 78.8"/><polygon class="cls-30" points="258.31 93.44 258.31 103.08 251.41 112.12 251.41 102.48 258.31 93.44"/><polygon class="cls-31" points="13.63 20.21 13.63 29.84 6.74 38.88 6.74 29.25 13.63 20.21"/><polygon class="cls-32" points="13.63 34.86 13.63 44.49 6.74 53.53 6.74 43.9 13.63 34.86"/><polygon class="cls-33" points="13.63 49.5 13.63 59.14 6.74 68.18 6.74 58.55 13.63 49.5"/><polygon class="cls-34" points="13.63 64.15 13.63 73.78 6.74 82.82 6.74 73.19 13.63 64.15"/><polygon class="cls-35" points="13.63 78.8 13.63 88.43 6.74 97.47 6.74 87.84 13.63 78.8"/><polygon class="cls-36" points="13.63 93.44 13.63 103.08 6.74 112.12 6.74 102.48 13.63 93.44"/><path class="cls-37" d="M61.65,31.93A32.78,32.78,0,1,0,94.43,64.71,32.85,32.85,0,0,0,61.65,31.93ZM42.32,45.32l-.06,0Zm-8,19.39A27.26,27.26,0,0,1,40.8,47L79.17,85.75a27.38,27.38,0,0,1-44.9-21ZM81,84.13l.11-.11Zm2.1-2.36L44.82,43.14A27.36,27.36,0,0,1,83.05,81.77Z"/><polygon class="cls-38" points="68.22 65.36 73.73 62.38 72.35 59.99 66.22 63.34 68.22 65.36"/><path class="cls-38" d="M76.8,55.46a1.9,1.9,0,0,0-.19-.21h0l-.09-.08a.57.57,0,0,0-.13-.08h0a1.33,1.33,0,0,0-.52-.17h-.37l-.07,0a1.49,1.49,0,0,0-.4.15,1.36,1.36,0,0,0-.52,1.8h0a.06.06,0,0,1,0,0v0l1,1.64,1,1.69a1.34,1.34,0,0,0,.06.12.67.67,0,0,0,.12.16l0,0a1.34,1.34,0,0,0,1.71.32,1.38,1.38,0,0,0,.51-1.86.62.62,0,0,1-.08-.12l-1.92-3.34h0v0A.29.29,0,0,1,76.8,55.46Z"/><path class="cls-38" d="M72.39,56.56a.81.81,0,0,0-.18.12l-.07.06a.86.86,0,0,0-.13.14s0,0,0,0l-.08.14,0,.07a1.11,1.11,0,0,0-.07.16l0,.16v0a1.62,1.62,0,0,0,0,.44,1.16,1.16,0,0,0,0,.18v0l.09.23,0,0s0,0,0,0v0l1.95,3.33a.69.69,0,0,0,.05.13.88.88,0,0,0,.12.17l0,0a.8.8,0,0,0,.13.13l0,0a.38.38,0,0,0,.13.09l.08.06a.15.15,0,0,1,.07,0,1.47,1.47,0,0,0,1,.07,2.28,2.28,0,0,0,.28-.13,1.36,1.36,0,0,0,.49-1.85.42.42,0,0,0-.08-.12l-1.92-3.33v0A1.35,1.35,0,0,0,72.39,56.56Z"/><path class="cls-38" d="M80.1,53.94a0,0,0,0,0,0,0v0L81,55.56l.66-.35,1.74-.89-1-1.68v0A1.38,1.38,0,0,0,81.16,52h-.07a1.51,1.51,0,0,0-.49.17,1.38,1.38,0,0,0-.52,1.8Z"/><path class="cls-38" d="M77.15,55.23s0,0,0,.05l1.93,3.35s.05.08.07.13a1.35,1.35,0,0,0,1.84.49l.22-.15h0a1.43,1.43,0,0,0,.45-.84,2.16,2.16,0,0,0,0-.36,1.33,1.33,0,0,0-.15-.45l.15,0,.33.05h.08l.49,0h0a7.18,7.18,0,0,0,1,0,6.53,6.53,0,0,0,.66,3.27,2,2,0,0,1-1-1.18c0-1-.32-1.87-1.06-1.54-.26,0-.5.08-.42.23l0,.16a.34.34,0,0,1,0,.1v0a.85.85,0,0,1-.17.56s0,0,0,.06l0,0-.13.14h0l-.13.11,0,0a2.69,2.69,0,0,1-.38.19h0a2.05,2.05,0,0,1-.89.13h0l-.21,0a0,0,0,0,1,0,0l-.18,0-.06,0-.18-.08a1.78,1.78,0,0,1-2.61,1.73c0,.08,0,.17,0,.25a1.55,1.55,0,0,1-.08.23h0a1.6,1.6,0,0,1-1.23,1,.85.85,0,0,1-.23,0h-.37l-.13,0a.8.8,0,0,1-.21,0,1.1,1.1,0,0,0,.24.63l.7,1.15,1.32,2.15L77.57,68a3.06,3.06,0,0,0,2.14,1.07l1.06,1.66.92-.49L90,65.79l-1.3-3a4.88,4.88,0,0,0,0-2.52l-3.1-5.6a1.76,1.76,0,0,0-1.78-.23l-3.07,1.59-1.22-2.15h0a1.35,1.35,0,0,0-2.38,1.28S77.13,55.23,77.15,55.23Z"/><path class="cls-38" d="M67.15,47.52a24.19,24.19,0,0,1,8.57,3.9l1.09-2a27,27,0,0,0-9.23-4.1l.51-1.24-6.42,1.68,5.13,3.08Z"/><path class="cls-38" d="M47.87,55.61v25.7a15.43,15.43,0,0,0,2.53,1.84v-25Z"/><path class="cls-38" d="M60.14,57.22v-11a2.21,2.21,0,0,0-2.27-2.13H51v4Z"/><polygon class="cls-38" points="60.82 68.58 60.82 69.37 61.33 69.09 60.82 68.58"/><path class="cls-38" d="M90.52,66.14l-11,6.06,6,6.55A25,25,0,0,0,91.6,67.28Z"/><path class="cls-38" d="M51,58.79V79.24h6.83a2.43,2.43,0,0,0,2.27-2.41V67.9ZM55.6,72.12a1.89,1.89,0,1,1,1.88-1.88A1.89,1.89,0,0,1,55.6,72.12Z"/><path class="cls-38" d="M55.6,68.6a1.64,1.64,0,1,0,0,3.27,1.64,1.64,0,0,0,0-3.27Z"/><polygon class="cls-38" points="50.4 47.41 50.4 47.22 50.21 47.22 50.4 47.41"/><rect class="cls-37" x="106.67" y="31.54" width="128.89" height="71.86"/><text class="cls-39" transform="translate(115.39 62.12)">禁止合闸<tspan x="0" y="29.53">有人工作</tspan></text></g></g></svg>