<svg xmlns="http://www.w3.org/2000/svg" xmlns:xlink="http://www.w3.org/1999/xlink" viewBox="0 0 202.81 202.81"><defs><style>.cls-1{fill:#b6b6b6;}.cls-2,.cls-3{fill:#2dab66;}.cls-3,.cls-4{stroke:#fff;stroke-miterlimit:10;stroke-width:3px;}.cls-4{fill:url(#未命名的渐变_107);}.cls-5{fill:#fff;}.cls-6{font-size:30.05px;fill:#333;font-family:SourceHanSansCN-Bold-GBpc-EUC-H, Source Han Sans CN;}.cls-7{fill:#e3e3e8;}.cls-8{fill:url(#未命名的渐变_108);}.cls-9{fill:url(#未命名的渐变_110);}.cls-10{fill:url(#radial-gradient);}.cls-11{fill:#514c4e;}.cls-12{fill:url(#未命名的渐变_108-2);}.cls-13{fill:url(#未命名的渐变_110-2);}.cls-14{fill:url(#radial-gradient-2);}.cls-15{fill:url(#未命名的渐变_108-3);}.cls-16{fill:url(#未命名的渐变_110-3);}.cls-17{fill:url(#radial-gradient-3);}.cls-18{fill:url(#未命名的渐变_108-4);}.cls-19{fill:url(#未命名的渐变_110-4);}.cls-20{fill:url(#radial-gradient-4);}</style><linearGradient id="未命名的渐变_107" x1="8.22" y1="101.41" x2="194.59" y2="101.41" gradientTransform="translate(0 202.81) rotate(-90)" gradientUnits="userSpaceOnUse"><stop offset="0" stop-color="#1baf5a"/><stop offset="0.21" stop-color="#34c279"/><stop offset="0.43" stop-color="#34c278"/><stop offset="0.66" stop-color="#23b765"/><stop offset="0.85" stop-color="#15a24b"/></linearGradient><radialGradient id="未命名的渐变_108" cx="-44424.69" cy="60822.22" r="63.36" gradientTransform="translate(4895.89 -735.13) rotate(45) scale(0.07)" gradientUnits="userSpaceOnUse"><stop offset="0" stop-color="#b5b5bf"/><stop offset="0.01" stop-color="#afafb9"/><stop offset="0.04" stop-color="#91919d"/><stop offset="0.08" stop-color="#7b7b89"/><stop offset="0.11" stop-color="#6e6e7d"/><stop offset="0.15" stop-color="#6a6a79"/><stop offset="0.3" stop-color="#9b9ba5"/><stop offset="0.41" stop-color="#868694"/><stop offset="0.67" stop-color="#e4e4e9"/><stop offset="1" stop-color="#898995"/></radialGradient><linearGradient id="未命名的渐变_110" x1="-55415.92" y1="74697.66" x2="-55309.13" y2="74697.66" gradientTransform="translate(4939.23 -707.03) rotate(45) scale(0.05)" gradientUnits="userSpaceOnUse"><stop offset="0.01" stop-color="#fff"/><stop offset="0.49" stop-color="#262626"/><stop offset="0.81" stop-color="#fff"/></linearGradient><radialGradient id="radial-gradient" cx="-55354.8" cy="74697.13" r="183.69" gradientTransform="translate(4939.23 -707.03) rotate(45) scale(0.05)" gradientUnits="userSpaceOnUse"><stop offset="0" stop-color="#cccecf"/><stop offset="1" stop-color="#4d4d4f"/></radialGradient><radialGradient id="未命名的渐变_108-2" cx="-42743.8" cy="59141.32" r="63.36" xlink:href="#未命名的渐变_108"/><linearGradient id="未命名的渐变_110-2" x1="-53357.05" y1="72638.78" x2="-53250.25" y2="72638.78" xlink:href="#未命名的渐变_110"/><radialGradient id="radial-gradient-2" cx="-53295.92" cy="72638.26" r="183.69" xlink:href="#radial-gradient"/><radialGradient id="未命名的渐变_108-3" cx="-42774.98" cy="62471.93" r="63.36" xlink:href="#未命名的渐变_108"/><linearGradient id="未命名的渐变_110-3" x1="-53395.24" y1="76718.34" x2="-53288.45" y2="76718.34" xlink:href="#未命名的渐变_110"/><radialGradient id="radial-gradient-3" cx="-53334.12" cy="76717.82" r="183.69" xlink:href="#radial-gradient"/><radialGradient id="未命名的渐变_108-4" cx="-41094.08" cy="60791.03" r="63.36" xlink:href="#未命名的渐变_108"/><linearGradient id="未命名的渐变_110-4" x1="-51336.36" y1="74659.46" x2="-51229.57" y2="74659.46" xlink:href="#未命名的渐变_110"/><radialGradient id="radial-gradient-4" cx="-51275.24" cy="74658.94" r="183.69" xlink:href="#radial-gradient"/></defs><title>在此工作</title><g id="图层_2" data-name="图层 2"><g id="图层_1-2" data-name="图层 1"><path class="cls-1" d="M11.5,0H191.32a11.5,11.5,0,0,1,11.5,11.5V191.32a11.49,11.49,0,0,1-11.49,11.49H11.49A11.49,11.49,0,0,1,0,191.32V11.5A11.5,11.5,0,0,1,11.5,0Z" transform="translate(202.81 0) rotate(90)"/><rect class="cls-2" x="2.74" y="2.74" width="197.33" height="197.33" rx="17.9" transform="translate(202.81 0) rotate(90)"/><rect class="cls-3" x="8.22" y="8.22" width="186.37" height="186.37" rx="8.9" transform="translate(202.81 0) rotate(90)"/><path class="cls-2" d="M14.24,2.74H188.58a11.5,11.5,0,0,1,11.5,11.5V188.58a11.49,11.49,0,0,1-11.49,11.49H14.24A11.49,11.49,0,0,1,2.74,188.58V14.24A11.5,11.5,0,0,1,14.24,2.74Z" transform="translate(202.81 0) rotate(90)"/><rect class="cls-4" x="8.22" y="8.22" width="186.37" height="186.37" rx="8.9" transform="translate(202.81 0) rotate(90)"/><circle class="cls-5" cx="101.41" cy="101.41" r="69.28"/><text class="cls-6" transform="translate(41.31 115.92)">在此工作</text><path class="cls-7" d="M26.35,27.47a4.81,4.81,0,1,1,0-6.8A4.79,4.79,0,0,1,26.35,27.47Z"/><path class="cls-8" d="M20,27a4.15,4.15,0,1,1,5.87,0A4.16,4.16,0,0,1,20,27Z"/><path class="cls-9" d="M25.09,25.74a.37.37,0,0,0,0-.53L24,24.11a.39.39,0,0,1,0-.55l1.09-1.09a.37.37,0,0,0,0-.53l-.23-.23a.38.38,0,0,0-.55,0L23.23,22.8a.39.39,0,0,1-.55,0l-1.09-1.09a.38.38,0,0,0-.55,0l-.21.23a.35.35,0,0,0,0,.53l1.09,1.09a.44.44,0,0,1,0,.55L20.83,25.2a.35.35,0,0,0,0,.54L21,26a.41.41,0,0,0,.55,0l1.09-1.09a.38.38,0,0,1,.55,0L24.31,26a.41.41,0,0,0,.55,0Z"/><path class="cls-10" d="M25.19,25.56a.35.35,0,0,1-.1.18l-.23.23a.41.41,0,0,1-.55,0l-1.08-1.09a.38.38,0,0,0-.55,0L21.59,26A.41.41,0,0,1,21,26l-.21-.23a.22.22,0,0,1-.1-.18.34.34,0,0,0,.1.37l.21.23a.37.37,0,0,0,.55,0l1.09-1.1a.41.41,0,0,1,.55,0l1.08,1.1a.38.38,0,0,0,.55,0l.23-.23A.41.41,0,0,0,25.19,25.56Z"/><path class="cls-11" d="M20.73,22.3a.3.3,0,0,1,.08-.18L21,21.9a.39.39,0,0,1,.55,0L22.68,23a.39.39,0,0,0,.55,0l1.08-1.08a.39.39,0,0,1,.55,0l.23.22a.4.4,0,0,1,.1.18.38.38,0,0,0-.1-.36l-.23-.23a.38.38,0,0,0-.55,0L23.23,22.8a.39.39,0,0,1-.55,0l-1.09-1.09a.38.38,0,0,0-.55,0l-.21.23A.32.32,0,0,0,20.73,22.3Z"/><path class="cls-7" d="M182,27.47a4.81,4.81,0,1,1,0-6.8A4.79,4.79,0,0,1,182,27.47Z"/><path class="cls-12" d="M175.67,27a4.18,4.18,0,0,1,0-5.86,4.15,4.15,0,1,1,0,5.86Z"/><path class="cls-13" d="M180.74,25.74a.37.37,0,0,0,0-.53l-1.09-1.1a.39.39,0,0,1,0-.55l1.09-1.09a.37.37,0,0,0,0-.53l-.23-.23a.38.38,0,0,0-.55,0l-1.08,1.09a.39.39,0,0,1-.55,0l-1.09-1.09a.37.37,0,0,0-.55,0l-.21.23a.35.35,0,0,0,0,.53l1.09,1.09a.44.44,0,0,1,0,.55l-1.09,1.09a.35.35,0,0,0,0,.54l.21.23a.41.41,0,0,0,.55,0l1.09-1.09a.38.38,0,0,1,.55,0L180,26a.41.41,0,0,0,.55,0Z"/><path class="cls-14" d="M180.84,25.56a.35.35,0,0,1-.1.18l-.23.23a.41.41,0,0,1-.55,0l-1.08-1.09a.38.38,0,0,0-.55,0L177.24,26a.41.41,0,0,1-.55,0l-.21-.23c-.07,0-.08-.11-.1-.18a.34.34,0,0,0,.1.37l.21.23a.37.37,0,0,0,.55,0l1.09-1.1a.41.41,0,0,1,.55,0l1.08,1.1a.38.38,0,0,0,.55,0l.23-.23A.41.41,0,0,0,180.84,25.56Z"/><path class="cls-11" d="M176.38,22.3a.31.31,0,0,1,.09-.18l.22-.22a.39.39,0,0,1,.55,0L178.33,23a.39.39,0,0,0,.55,0L180,21.9a.39.39,0,0,1,.55,0l.23.22a.4.4,0,0,1,.1.18.38.38,0,0,0-.1-.36l-.23-.23a.38.38,0,0,0-.55,0l-1.08,1.09a.39.39,0,0,1-.55,0l-1.09-1.09a.37.37,0,0,0-.55,0l-.21.23A.32.32,0,0,0,176.38,22.3Z"/><path class="cls-7" d="M26.35,180.23a4.81,4.81,0,1,1,0-6.8A4.79,4.79,0,0,1,26.35,180.23Z"/><path class="cls-15" d="M20,179.77a4.15,4.15,0,1,1,5.87,0A4.17,4.17,0,0,1,20,179.77Z"/><path class="cls-16" d="M25.09,178.5a.36.36,0,0,0,0-.52L24,176.87a.39.39,0,0,1,0-.55l1.09-1.09a.37.37,0,0,0,0-.53l-.23-.23a.38.38,0,0,0-.55,0l-1.08,1.09a.38.38,0,0,1-.55,0l-1.09-1.09a.38.38,0,0,0-.55,0l-.21.23a.35.35,0,0,0,0,.53l1.09,1.09a.44.44,0,0,1,0,.55L20.83,178a.34.34,0,0,0,0,.53l.21.23a.39.39,0,0,0,.55,0l1.09-1.08a.36.36,0,0,1,.55,0l1.08,1.08a.39.39,0,0,0,.55,0Z"/><path class="cls-17" d="M25.19,178.33a.37.37,0,0,1-.1.17l-.23.23a.39.39,0,0,1-.55,0l-1.08-1.08a.36.36,0,0,0-.55,0l-1.09,1.08a.39.39,0,0,1-.55,0l-.21-.23a.22.22,0,0,1-.1-.17.35.35,0,0,0,.1.37l.21.23a.39.39,0,0,0,.55,0l1.09-1.1a.39.39,0,0,1,.55,0l1.08,1.1a.39.39,0,0,0,.55,0l.23-.23A.42.42,0,0,0,25.19,178.33Z"/><path class="cls-11" d="M20.73,175.06a.33.33,0,0,1,.08-.18l.23-.22a.39.39,0,0,1,.55,0l1.09,1.08a.38.38,0,0,0,.55,0l1.08-1.08a.39.39,0,0,1,.55,0l.23.22a.46.46,0,0,1,.1.18.4.4,0,0,0-.1-.36l-.23-.23a.38.38,0,0,0-.55,0l-1.08,1.09a.38.38,0,0,1-.55,0l-1.09-1.09a.38.38,0,0,0-.55,0l-.21.23A.33.33,0,0,0,20.73,175.06Z"/><path class="cls-7" d="M182,180.23a4.81,4.81,0,1,1,0-6.8A4.79,4.79,0,0,1,182,180.23Z"/><path class="cls-18" d="M175.67,179.77a4.19,4.19,0,0,1,0-5.87,4.15,4.15,0,1,1,0,5.87Z"/><path class="cls-19" d="M180.74,178.5a.36.36,0,0,0,0-.52l-1.09-1.11a.39.39,0,0,1,0-.55l1.09-1.09a.37.37,0,0,0,0-.53l-.23-.23a.38.38,0,0,0-.55,0l-1.08,1.09a.38.38,0,0,1-.55,0l-1.09-1.09a.37.37,0,0,0-.55,0l-.21.23a.35.35,0,0,0,0,.53l1.09,1.09a.44.44,0,0,1,0,.55l-1.09,1.1a.34.34,0,0,0,0,.53l.21.23a.39.39,0,0,0,.55,0l1.09-1.08a.36.36,0,0,1,.55,0l1.08,1.08a.39.39,0,0,0,.55,0Z"/><path class="cls-20" d="M180.84,178.33a.37.37,0,0,1-.1.17l-.23.23a.39.39,0,0,1-.55,0l-1.08-1.08a.36.36,0,0,0-.55,0l-1.09,1.08a.39.39,0,0,1-.55,0l-.21-.23c-.07,0-.08-.11-.1-.17a.35.35,0,0,0,.1.37l.21.23a.39.39,0,0,0,.55,0l1.09-1.1a.39.39,0,0,1,.55,0l1.08,1.1a.39.39,0,0,0,.55,0l.23-.23A.42.42,0,0,0,180.84,178.33Z"/><path class="cls-11" d="M176.38,175.06a.34.34,0,0,1,.09-.18l.22-.22a.39.39,0,0,1,.55,0l1.09,1.08a.38.38,0,0,0,.55,0l1.08-1.08a.39.39,0,0,1,.55,0l.23.22a.46.46,0,0,1,.1.18.4.4,0,0,0-.1-.36l-.23-.23a.38.38,0,0,0-.55,0l-1.08,1.09a.38.38,0,0,1-.55,0l-1.09-1.09a.37.37,0,0,0-.55,0l-.21.23A.33.33,0,0,0,176.38,175.06Z"/></g></g></svg>