<svg xmlns="http://www.w3.org/2000/svg" xmlns:xlink="http://www.w3.org/1999/xlink" viewBox="0 0 196.97 280.89"><defs><style>.cls-1{fill:#60706e;}.cls-2{fill:url(#未命名的渐变_15);}.cls-3{fill:url(#未命名的渐变_15-2);}.cls-4{fill:url(#未命名的渐变_15-3);}.cls-5{fill:url(#未命名的渐变_11);}.cls-6{fill:url(#未命名的渐变_11-2);}.cls-7{fill:url(#未命名的渐变_11-3);}.cls-8{fill:url(#未命名的渐变_11-4);}.cls-9{fill:url(#未命名的渐变_11-5);}.cls-10{fill:url(#未命名的渐变_11-6);}.cls-11{fill:url(#未命名的渐变_11-7);}.cls-12{fill:url(#未命名的渐变_11-8);}.cls-13{fill:url(#未命名的渐变_11-9);}.cls-14{fill:url(#未命名的渐变_11-10);}.cls-15{fill:url(#未命名的渐变_11-11);}.cls-16{fill:url(#未命名的渐变_11-12);}.cls-17{fill:url(#未命名的渐变_11-13);}.cls-18{fill:url(#未命名的渐变_11-14);}.cls-19{fill:#bdbebf;}.cls-20{fill:#678ca7;}.cls-21{fill:url(#未命名的渐变_15-4);}.cls-22{fill:url(#未命名的渐变_15-5);}.cls-23{fill:url(#未命名的渐变_15-6);}.cls-24{fill:url(#未命名的渐变_11-15);}.cls-25{fill:url(#未命名的渐变_11-16);}.cls-26{fill:url(#未命名的渐变_11-17);}.cls-27{fill:url(#未命名的渐变_11-18);}.cls-28{fill:url(#未命名的渐变_11-19);}.cls-29{fill:url(#未命名的渐变_11-20);}.cls-30{fill:url(#未命名的渐变_11-21);}.cls-31{fill:url(#未命名的渐变_11-22);}.cls-32{fill:url(#未命名的渐变_11-23);}.cls-33{fill:url(#未命名的渐变_14);}.cls-34{fill:#e8eae9;}.cls-35{fill:#eff5f3;}.cls-36{fill:url(#未命名的渐变_46);}.cls-37{fill:url(#未命名的渐变_59);}.cls-38{fill:url(#未命名的渐变_46-2);}.cls-39{fill:url(#未命名的渐变_59-2);}.cls-40{fill:url(#未命名的渐变_46-3);}.cls-41{fill:url(#未命名的渐变_59-3);}.cls-42{fill:url(#未命名的渐变_46-4);}.cls-43{fill:url(#未命名的渐变_59-4);}</style><linearGradient id="未命名的渐变_15" x1="196.81" y1="616.01" x2="0.22" y2="616.01" gradientTransform="matrix(1, 0, 0, -1, 0, 793.86)" gradientUnits="userSpaceOnUse"><stop offset="0" stop-color="#babfbd"/><stop offset="0.5" stop-color="#eff5f3"/><stop offset="1" stop-color="#babfbd"/></linearGradient><linearGradient id="未命名的渐变_15-2" x1="196.97" y1="681.15" x2="0" y2="681.15" xlink:href="#未命名的渐变_15"/><linearGradient id="未命名的渐变_15-3" x1="1.29" y1="603.73" x2="1.27" y2="603.73" xlink:href="#未命名的渐变_15"/><linearGradient id="未命名的渐变_11" x1="101.91" y1="698.6" x2="106.65" y2="698.6" gradientTransform="matrix(1, 0, 0, -1, 0, 793.86)" gradientUnits="userSpaceOnUse"><stop offset="0" stop-color="#babfbd"/><stop offset="0.54" stop-color="#eff5f3"/><stop offset="1" stop-color="#babfbd"/></linearGradient><linearGradient id="未命名的渐变_11-2" x1="122.97" y1="697.07" x2="127.71" y2="697.07" xlink:href="#未命名的渐变_11"/><linearGradient id="未命名的渐变_11-3" x1="145.09" y1="691.27" x2="149.88" y2="691.27" xlink:href="#未命名的渐变_11"/><linearGradient id="未命名的渐变_11-4" x1="165.98" y1="682.58" x2="170.72" y2="682.58" xlink:href="#未命名的渐变_11"/><linearGradient id="未命名的渐变_11-5" x1="188.1" y1="665.43" x2="192.84" y2="665.43" xlink:href="#未命名的渐变_11"/><linearGradient id="未命名的渐变_11-6" x1="80.66" y1="697.85" x2="85.4" y2="697.85" xlink:href="#未命名的渐变_11"/><linearGradient id="未命名的渐变_11-7" x1="58.9" y1="694.61" x2="63.64" y2="694.61" xlink:href="#未命名的渐变_11"/><linearGradient id="未命名的渐变_11-8" x1="37.3" y1="687.92" x2="42.06" y2="687.92" xlink:href="#未命名的渐变_11"/><linearGradient id="未命名的渐变_11-9" x1="15.18" y1="676.11" x2="19.92" y2="676.11" xlink:href="#未命名的渐变_11"/><linearGradient id="未命名的渐变_11-10" x1="44.84" y1="260.03" x2="52.85" y2="260.03" gradientTransform="matrix(1, 0, 0, 1, 0, 0)" xlink:href="#未命名的渐变_11"/><linearGradient id="未命名的渐变_11-11" x1="106" y1="269.52" x2="114.02" y2="269.52" gradientTransform="matrix(1, 0, 0, 1, 0, 0)" xlink:href="#未命名的渐变_11"/><linearGradient id="未命名的渐变_11-12" x1="164.4" y1="249.14" x2="172.42" y2="249.14" gradientTransform="matrix(1, 0, 0, 1, 0, 0)" xlink:href="#未命名的渐变_11"/><linearGradient id="未命名的渐变_11-13" x1="8.32" y1="229.89" x2="16.32" y2="229.89" gradientTransform="matrix(1, 0, 0, 1, 0, 0)" xlink:href="#未命名的渐变_11"/><linearGradient id="未命名的渐变_11-14" x1="185.8" y1="221.15" x2="193.8" y2="221.15" gradientTransform="matrix(1, 0, 0, 1, 0, 0)" xlink:href="#未命名的渐变_11"/><linearGradient id="未命名的渐变_15-4" x1="196.81" y1="101.47" x2="0.22" y2="101.47" gradientTransform="matrix(1, 0, 0, 1, 0, 0)" xlink:href="#未命名的渐变_15"/><linearGradient id="未命名的渐变_15-5" x1="196.97" y1="166.6" x2="0" y2="166.6" gradientTransform="matrix(1, 0, 0, 1, 0, 0)" xlink:href="#未命名的渐变_15"/><linearGradient id="未命名的渐变_15-6" x1="1.29" y1="89.18" x2="1.27" y2="89.18" gradientTransform="matrix(1, 0, 0, 1, 0, 0)" xlink:href="#未命名的渐变_15"/><linearGradient id="未命名的渐变_11-15" x1="101.91" y1="184.06" x2="106.65" y2="184.06" gradientTransform="matrix(1, 0, 0, 1, 0, 0)" xlink:href="#未命名的渐变_11"/><linearGradient id="未命名的渐变_11-16" x1="122.97" y1="182.52" x2="127.71" y2="182.52" gradientTransform="matrix(1, 0, 0, 1, 0, 0)" xlink:href="#未命名的渐变_11"/><linearGradient id="未命名的渐变_11-17" x1="145.09" y1="176.73" x2="149.88" y2="176.73" gradientTransform="matrix(1, 0, 0, 1, 0, 0)" xlink:href="#未命名的渐变_11"/><linearGradient id="未命名的渐变_11-18" x1="165.98" y1="168.04" x2="170.72" y2="168.04" gradientTransform="matrix(1, 0, 0, 1, 0, 0)" xlink:href="#未命名的渐变_11"/><linearGradient id="未命名的渐变_11-19" x1="188.1" y1="150.89" x2="192.84" y2="150.89" gradientTransform="matrix(1, 0, 0, 1, 0, 0)" xlink:href="#未命名的渐变_11"/><linearGradient id="未命名的渐变_11-20" x1="80.66" y1="183.3" x2="85.4" y2="183.3" gradientTransform="matrix(1, 0, 0, 1, 0, 0)" xlink:href="#未命名的渐变_11"/><linearGradient id="未命名的渐变_11-21" x1="58.9" y1="180.07" x2="63.64" y2="180.07" gradientTransform="matrix(1, 0, 0, 1, 0, 0)" xlink:href="#未命名的渐变_11"/><linearGradient id="未命名的渐变_11-22" x1="37.3" y1="173.37" x2="42.06" y2="173.37" gradientTransform="matrix(1, 0, 0, 1, 0, 0)" xlink:href="#未命名的渐变_11"/><linearGradient id="未命名的渐变_11-23" x1="15.18" y1="161.57" x2="19.92" y2="161.57" gradientTransform="matrix(1, 0, 0, 1, 0, 0)" xlink:href="#未命名的渐变_11"/><linearGradient id="未命名的渐变_14" x1="0.95" y1="232.32" x2="195.59" y2="232.32" gradientUnits="userSpaceOnUse"><stop offset="0.16" stop-color="#babfbd"/><stop offset="0.53" stop-color="#eff5f3"/><stop offset="0.87" stop-color="#babfbd"/></linearGradient><radialGradient id="未命名的渐变_46" cx="626.57" cy="-1427.07" r="5.72" gradientTransform="translate(185.58 1583.77) rotate(-24.16)" gradientUnits="userSpaceOnUse"><stop offset="0" stop-color="#e8eae9"/><stop offset="0.99" stop-color="#60706e"/></radialGradient><linearGradient id="未命名的渐变_59" x1="625.96" y1="-1420.04" x2="622.42" y2="-1421.62" gradientTransform="translate(185.58 1583.77) rotate(-24.16)" gradientUnits="userSpaceOnUse"><stop offset="0.02" stop-color="#bdbebf"/><stop offset="1" stop-color="#d6dbd9"/></linearGradient><radialGradient id="未命名的渐变_46-2" cx="508.09" cy="-1501.62" r="5.72" xlink:href="#未命名的渐变_46"/><linearGradient id="未命名的渐变_59-2" x1="507.48" y1="-1494.59" x2="503.94" y2="-1496.18" xlink:href="#未命名的渐变_59"/><radialGradient id="未命名的渐变_46-3" cx="468.71" cy="-1432.22" r="5.72" xlink:href="#未命名的渐变_46"/><linearGradient id="未命名的渐变_59-3" x1="468.11" y1="-1425.19" x2="464.57" y2="-1426.78" xlink:href="#未命名的渐变_59"/><radialGradient id="未命名的渐变_46-4" cx="586.67" cy="-1359.33" r="5.72" xlink:href="#未命名的渐变_46"/><linearGradient id="未命名的渐变_59-4" x1="586.06" y1="-1352.3" x2="582.52" y2="-1353.88" xlink:href="#未命名的渐变_59"/></defs><title>阻波器</title><g id="图层_2" data-name="图层 2"><g id="图层_1-2" data-name="图层 1"><path class="cls-1" d="M168.88,114v10.41a106.81,106.81,0,0,0-10-4.82V109.07a105.69,105.69,0,0,1,9.66,4.76Z"/><path class="cls-1" d="M158.93,131.58v-9.33a101.73,101.73,0,0,1,9.65,4.75l.33.19v9.2A105.55,105.55,0,0,0,158.93,131.58Z"/><path class="cls-1" d="M158.94,143.56v-9.34a106.58,106.58,0,0,1,9.64,4.75,3.72,3.72,0,0,1,.34.19v9.21A109.51,109.51,0,0,0,158.94,143.56Z"/><path class="cls-1" d="M179.24,105.89a87,87,0,0,0-9.18-6V88.83a69.29,69.29,0,0,1,9.18,6.48Z"/><path class="cls-1" d="M148.17,139.59v-9.44c3.29,1.06,6.48,2.26,9.58,3.55v9.35C154.65,141.78,151.45,140.64,148.17,139.59Z"/><path class="cls-1" d="M170.08,111.91v-9.17a70.13,70.13,0,0,1,9.18,6.51v8.63A83,83,0,0,0,170.08,111.91Z"/><path class="cls-1" d="M170.1,137.05V127.9a71,71,0,0,1,9.18,6.5V143A84,84,0,0,0,170.1,137.05Z"/><path class="cls-1" d="M170.09,125.08V114.71a74.19,74.19,0,0,1,9.18,6.52v9.82A84,84,0,0,0,170.09,125.08Z"/><path class="cls-1" d="M157.74,131.07c-3.11-1.27-6.31-2.41-9.58-3.46v-9.44c3.28,1.06,6.48,2.25,9.57,3.56Z"/><path class="cls-1" d="M170.12,149l0-9.16a72.25,72.25,0,0,1,9.19,6.52V155A84.83,84.83,0,0,0,170.12,149Z"/><path class="cls-1" d="M147,117.8v9.45c-2.28-.72-4.63-1.3-7-1.91,1.88-2.65,3.78-5.27,5.68-7.91C146.09,117.57,146.53,117.66,147,117.8Z"/><path class="cls-1" d="M157.71,108.55V119.1c-3.1-1.27-6.3-2.42-9.57-3.46V114l5.24-7.09C154.82,107.48,156.31,108,157.71,108.55Z"/><path class="cls-1" d="M168.57,101.86l.3.17v9.21a103.29,103.29,0,0,0-10-4.8v-6.9c.46-.59.91-1.18,1.35-1.78C163.11,99.05,165.93,100.37,168.57,101.86Z"/><path class="cls-1" d="M157.7,105.93c-.91-.38-1.88-.67-2.81-1,.94-1.26,1.87-2.53,2.81-3.78Z"/><path class="cls-1" d="M147,129.77v9.45q-4.69-1.46-9.57-2.61V129l1.11-1.57C141.37,128.14,144.2,128.9,147,129.77Z"/><path class="cls-1" d="M136.19,136.32c-1.13-.26-2.32-.43-3.46-.68,1.14-1.65,2.3-3.31,3.46-5Z"/><path class="cls-1" d="M191.25,154.6v-7.21a46.64,46.64,0,0,1,4.47,8c0,2.06,0,4.14,0,6.22A45.56,45.56,0,0,0,191.25,154.6Z"/><path class="cls-1" d="M191.26,166.58v-7.2a45.32,45.32,0,0,1,4.47,8c0,2.06,0,4.14,0,6.22A45,45,0,0,0,191.26,166.58Z"/><path class="cls-1" d="M191.24,142.61v-8.4a45.46,45.46,0,0,1,4.47,7.95v7.42A44.28,44.28,0,0,0,191.24,142.61Z"/><path class="cls-1" d="M191.22,129.43v-7.21a45.67,45.67,0,0,1,4.46,7.94q0,3.09,0,6.22A45.89,45.89,0,0,0,191.22,129.43Z"/><path class="cls-1" d="M168.87,99.27c-2.28-1.25-4.72-2.35-7.14-3.45q3.12-4.11,6.24-8.18c.24.14.5.26.74.39a.6.6,0,0,0,.15.09Z"/><path class="cls-1" d="M179.21,78.79c-.89-.68-1.87-1.33-2.83-2l2.83-3.59Z"/><path class="cls-1" d="M190,81.35v7.42a62.79,62.79,0,0,0-9.58-9.09v-8a3.61,3.61,0,0,1,.25-.3A67,67,0,0,1,190,81.35Z"/><path class="cls-1" d="M179.22,82.13V92A86.39,86.39,0,0,0,170.05,86V85l4.79-6.19Q177.12,80.38,179.22,82.13Z"/><path class="cls-1" d="M195.65,97.1a46,46,0,0,0-4.46-6.85V83a47.18,47.18,0,0,1,4.47,7.81Z"/><path class="cls-1" d="M191.2,103.43V95a45.71,45.71,0,0,1,4.46,7.81c0,2.45,0,4.94,0,7.49A45.85,45.85,0,0,0,191.2,103.43Z"/><path class="cls-1" d="M191.21,117.45v-9.27a45.87,45.87,0,0,1,4.47,7.82c0,2.75,0,5.55,0,8.39A44.84,44.84,0,0,0,191.21,117.45Z"/><path class="cls-1" d="M180.46,118.78l0-8.52A67.35,67.35,0,0,1,190,120.55v7.39A62.54,62.54,0,0,0,180.46,118.78Z"/><path class="cls-1" d="M180.48,143.94v-8.51A67.68,67.68,0,0,1,190,145.71v7.39A62.1,62.1,0,0,0,180.48,143.94Z"/><path class="cls-1" d="M180.47,132v-9.7A67.25,67.25,0,0,1,190,132.53v8.59A62.62,62.62,0,0,0,180.47,132Z"/><path class="cls-1" d="M180.44,106.8V96.33A66.88,66.88,0,0,1,190,106.52V116A61.6,61.6,0,0,0,180.44,106.8Z"/><path class="cls-1" d="M180.43,92.86l0-9.72A67.49,67.49,0,0,1,190,93.34V102A62.73,62.73,0,0,0,180.43,92.86Z"/><path class="cls-1" d="M191.17,71a45.55,45.55,0,0,1,4.46,7.8c0,2,0,4.12,0,6.29a45.34,45.34,0,0,0-4.47-6.85Z"/><path class="cls-1" d="M180.49,155.92v-8.5a67.8,67.8,0,0,1,9.58,10.28v7.39A61.23,61.23,0,0,0,180.49,155.92Z"/><path class="cls-1" d="M190,76.78a63.63,63.63,0,0,0-7.7-7.46L186,64.65c1.42,1.55,2.78,3.13,4,4.72Z"/><path class="cls-1" d="M180.4,71.7v-.55l.25.25A3.61,3.61,0,0,0,180.4,71.7Z"/><path class="cls-1" d="M26.59,148.83a85.39,85.39,0,0,0-7.72,4.86v-8.9A79,79,0,0,1,27.78,139l.67-.35v9.2C27.83,148.17,27.2,148.48,26.59,148.83Z"/><path class="cls-1" d="M26.59,136.86a84.25,84.25,0,0,0-7.73,4.87v-8.89A79.31,79.31,0,0,1,27.78,127c.21-.13.44-.24.65-.35v9.21C27.83,136.19,27.19,136.51,26.59,136.86Z"/><path class="cls-1" d="M18.81,90.93V80.85a79.5,79.5,0,0,1,9.11-6c.15-.09.32-.16.47-.25l0,10.4c-.57.31-1.13.6-1.68.91A90.61,90.61,0,0,0,18.81,90.93Z"/><path class="cls-1" d="M104.85,108.37V97.6q4.83.18,9.6.62V109C111.26,108.71,108.07,108.5,104.85,108.37Z"/><path class="cls-1" d="M26.59,124.87a91.59,91.59,0,0,0-7.74,4.9V119.68a78.62,78.62,0,0,1,8.94-5.85l.64-.34v10.42C27.82,124.22,27.19,124.54,26.59,124.87Z"/><path class="cls-1" d="M26.59,99.74a89.58,89.58,0,0,0-7.76,4.91l0-10.65a81.56,81.56,0,0,1,9.1-6l.49-.25v11C27.8,99.09,27.18,99.41,26.59,99.74Z"/><path class="cls-1" d="M158.87,70.05a103.21,103.21,0,0,1,9.84,4.82.46.46,0,0,1,.13.08V85.36q-4.77-2.6-10-4.79Z"/><path class="cls-1" d="M179.21,73.23l-2.83,3.59c-2-1.37-4.09-2.72-6.34-4V63.67a70.91,70.91,0,0,1,9.18,6.48Z"/><path class="cls-1" d="M158.89,94.46V83.21c3.15,1.36,6.19,2.84,9.09,4.43q-3.12,4.06-6.24,8.18C160.77,95.38,159.88,94.87,158.89,94.46Z"/><path class="cls-1" d="M168.83,63v9.22c-3.18-1.73-6.51-3.34-10-4.8V58.07a103.44,103.44,0,0,1,9.85,4.83Z"/><path class="cls-1" d="M174.84,78.77,170.05,85v-9.3Q172.53,77.13,174.84,78.77Z"/><path class="cls-1" d="M160.25,97.76c-.44.6-.89,1.19-1.35,1.78V97.09C159.37,97.31,159.78,97.55,160.25,97.76Z"/><path class="cls-1" d="M154.89,104.91c-2.23-.85-4.45-1.71-6.76-2.44V93q4.94,1.59,9.57,3.55v4.55C156.76,102.38,155.83,103.65,154.89,104.91Z"/><path class="cls-1" d="M157.67,66.9c-3.1-1.27-6.3-2.41-9.58-3.45V54c3.28,1.06,6.48,2.24,9.57,3.53Z"/><path class="cls-1" d="M17.59,69.82v8.81a65.67,65.67,0,0,0-9.79,8.79V79.14A70.41,70.41,0,0,1,17.59,69.82Z"/><path class="cls-1" d="M137.37,115.14c2.83.67,5.57,1.47,8.29,2.29-1.9,2.64-3.8,5.26-5.68,7.91-.88-.22-1.72-.5-2.6-.7Z"/><path class="cls-1" d="M148.09,66c3.28,1.06,6.49,2.23,9.58,3.53V80.07q-4.63-1.87-9.58-3.45Z"/><path class="cls-1" d="M115.67,120.9l0-9.57c3.35.34,6.67.75,10,1.29v9.55C122.33,121.65,119,121.22,115.67,120.9Z"/><path class="cls-1" d="M115.65,109.11V98.34c3.34.33,6.67.76,10,1.29v10.74C122.32,109.85,119,109.44,115.65,109.11Z"/><path class="cls-1" d="M115.64,95.93V86.36q5,.51,10,1.28v9.55C122.3,96.68,119,96.27,115.64,95.93Z"/><path class="cls-1" d="M125.55,58.21c-3.29-.5-6.6-.93-10-1.25V47.4c3.34.32,6.67.74,10,1.26Z"/><path class="cls-1" d="M115.6,59.37c3.35.31,6.67.74,10,1.26V71.38c-3.29-.51-6.6-.92-10-1.25Z"/><path class="cls-1" d="M114.4,56.85c-3.18-.29-6.39-.5-9.6-.6V46.66c3.21.13,6.42.33,9.6.62Z"/><path class="cls-1" d="M104.87,132.33v-9.59q4.83.2,9.61.63v9.57C111.29,132.65,108.08,132.44,104.87,132.33Z"/><path class="cls-1" d="M7.84,114.23v-10a71.52,71.52,0,0,1,9.79-9.31V105.5A65.89,65.89,0,0,0,7.84,114.23Z"/><path class="cls-1" d="M104.86,120.34v-9.57c3.22.12,6.42.34,9.6.63l0,9.57C111.28,120.67,108.08,120.47,104.86,120.34Z"/><path class="cls-1" d="M126.77,85.41V74q4.76.81,9.38,1.86V87.23C133.07,86.52,129.94,85.93,126.77,85.41Z"/><path class="cls-1" d="M115.68,133.05v-9.57c3.34.34,6.66.77,9.94,1.28v9.55C122.34,133.8,119,133.37,115.68,133.05Z"/><path class="cls-1" d="M146.9,63.07c-3.13-1-6.32-1.82-9.58-2.58V51q4.89,1.16,9.57,2.62Z"/><path class="cls-1" d="M137.36,99.49V90q4.89,1.17,9.57,2.64v9.45Q142.25,100.65,137.36,99.49Z"/><path class="cls-1" d="M137.32,63q4.89,1.16,9.58,2.64V76.25q-4.69-1.44-9.57-2.59Z"/><path class="cls-1" d="M148.12,90.49l0-11.34c3.3,1.08,6.49,2.24,9.58,3.54V94C154.6,92.68,151.4,91.54,148.12,90.49Z"/><path class="cls-1" d="M137.35,87.53V76.14c3.25.78,6.45,1.67,9.57,2.65V90.11Q142.24,88.67,137.35,87.53Z"/><path class="cls-1" d="M153.38,106.94,148.14,114v-9C149.93,105.58,151.64,106.29,153.38,106.94Z"/><path class="cls-1" d="M137.36,102q4.89,1.16,9.58,2.66v10.64q-4.69-1.45-9.58-2.61Z"/><path class="cls-1" d="M126.8,110.55V99.81c3.16.54,6.29,1.15,9.37,1.87l0,10.69Q131.55,111.34,126.8,110.55Z"/><path class="cls-1" d="M126.74,60.82c3.17.53,6.31,1.15,9.38,1.86l0,10.69c-3.09-.68-6.21-1.29-9.38-1.81Z"/><path class="cls-1" d="M126.81,122.52V113q4.76.81,9.38,1.87v9.5C133.11,123.65,130,123,126.81,122.52Z"/><path class="cls-1" d="M126.79,97.37l0-9.53q4.76.8,9.38,1.87V99.2C133.08,98.51,130,97.9,126.79,97.37Z"/><path class="cls-1" d="M132.73,135.64c-2-.4-3.91-.82-5.91-1.15V125c3.16.52,6.29,1.16,9.37,1.87v3.84C135,132.33,133.87,134,132.73,135.64Z"/><path class="cls-1" d="M138.5,127.42,137.39,129v-1.87C137.76,127.21,138.12,127.32,138.5,127.42Z"/><path class="cls-1" d="M136.12,60.22q-4.62-1-9.38-1.83V48.84c3.17.53,6.3,1.16,9.39,1.86Z"/><path class="cls-1" d="M26.59,111.72a86.3,86.3,0,0,0-7.76,4.89v-8.89a77.94,77.94,0,0,1,9-5.86l.63-.34v9.21C27.81,111.06,27.19,111.38,26.59,111.72Z"/><path class="cls-1" d="M103.59,44.22c-1.76,0-3.52-.08-5.28-.08-1.43,0-2.87,0-4.29.07l0-9.6q4.78-.11,9.58,0Z"/><path class="cls-1" d="M92.82,44.24c-3.14.08-6.27.26-9.38.51V35.19c3.11-.26,6.24-.44,9.37-.54Z"/><path class="cls-1" d="M82.24,44.87q-4.83.43-9.58,1.13V36.45c3.16-.46,6.35-.85,9.57-1.14Z"/><path class="cls-1" d="M7.87,151.3V143a71.07,71.07,0,0,1,9.78-9.25v8.81A68,68,0,0,0,7.87,151.3Z"/><path class="cls-1" d="M114.39,44.87c-3.19-.28-6.39-.49-9.6-.6V34.7c3.21.11,6.42.31,9.6.61Z"/><path class="cls-1" d="M7.82,91.09a70.85,70.85,0,0,1,9.78-9.31l0,10a65,65,0,0,0-9.79,8.77Z"/><path class="cls-1" d="M7.86,126.19l0-8.29a71.78,71.78,0,0,1,9.79-9.25v8.81A65.3,65.3,0,0,0,7.86,126.19Z"/><path class="cls-1" d="M7.87,139.35v-9.49a71.68,71.68,0,0,1,9.78-9.25v10A65.2,65.2,0,0,0,7.87,139.35Z"/><path class="cls-1" d="M7.89,163.25V155a71.15,71.15,0,0,1,9.79-9.24v8.81A67.52,67.52,0,0,0,7.89,163.25Z"/><path class="cls-1" d="M180.4,67.7V59.18A69,69,0,0,1,186,64.65l-3.71,4.67C181.64,68.78,181.07,68.22,180.4,67.7Z"/><path class="cls-1" d="M136.11,48.24c-3.08-.7-6.21-1.3-9.38-1.83V36.87c3.18.52,6.3,1.15,9.38,1.86Z"/><path class="cls-1" d="M125.54,46.23q-4.94-.76-10-1.24V35.42q5,.49,10,1.27Z"/><path class="cls-1" d="M146.88,51.1q-4.69-1.44-9.57-2.58V39q4.89,1.17,9.57,2.63Z"/><path class="cls-1" d="M157.66,54.92c-3.1-1.27-6.31-2.39-9.58-3.44V42c3.28,1.07,6.48,2.24,9.58,3.54Z"/><path class="cls-1" d="M179.2,66.81a84.7,84.7,0,0,0-9.17-6V51.69a71.54,71.54,0,0,1,9.18,6.47Z"/><path class="cls-1" d="M168.83,60.22a109.46,109.46,0,0,0-10-4.8V46.08a108.75,108.75,0,0,1,9.86,4.85l.11.06Z"/><path class="cls-1" d="M6.64,105.7v9.89A46.88,46.88,0,0,0,1,123.78v-9.27A44.64,44.64,0,0,1,6.64,105.7Z"/><path class="cls-1" d="M49.92,51.05q-4.81,1.47-9.38,3.25V44.93q4.56-1.82,9.38-3.33Z"/><path class="cls-1" d="M39.34,54.76c-3.38,1.38-6.65,2.88-9.78,4.51V50.05q4.68-2.52,9.77-4.64Z"/><path class="cls-1" d="M28.36,59.91c-.54.28-1.1.57-1.64.88a89.82,89.82,0,0,0-7.94,5V56.92a81.31,81.31,0,0,1,9.14-6l.45-.24Z"/><path class="cls-1" d="M71.46,46.18c-3.16.48-6.29,1.06-9.37,1.72V38.39q4.62-1,9.38-1.75Z"/><path class="cls-1" d="M60.89,48.16q-5,1.1-9.77,2.51V41.23q4.78-1.45,9.77-2.59Z"/><path class="cls-1" d="M17.59,66.67A65.67,65.67,0,0,0,7.8,75.46V67.19a71.63,71.63,0,0,1,9.79-9.33Z"/><path class="cls-1" d="M6.68,156.4l0,8.21a46.68,46.68,0,0,0-5.65,8.16v-7.72A46,46,0,0,1,6.68,156.4Z"/><path class="cls-1" d="M6.6,76.83A47.31,47.31,0,0,0,1,85.15V77.48A44.35,44.35,0,0,1,6.6,68.63Z"/><path class="cls-1" d="M6.68,144.45v8.21A46.47,46.47,0,0,0,1,160.83V153.1A45.3,45.3,0,0,1,6.68,144.45Z"/><path class="cls-1" d="M6.65,119.34v8.22A46.37,46.37,0,0,0,1,135.73V128A44.92,44.92,0,0,1,6.65,119.34Z"/><path class="cls-1" d="M6.66,131.3v9.41A46.24,46.24,0,0,0,1,148.87V140A45.28,45.28,0,0,1,6.66,131.3Z"/><path class="cls-1" d="M6.61,80.59v8.2A47.07,47.07,0,0,0,1,97.09V89.42A45.52,45.52,0,0,1,6.61,80.59Z"/><path class="cls-1" d="M6.62,92.54V102A47.18,47.18,0,0,0,1,110.24v-8.88A45.94,45.94,0,0,1,6.62,92.54Z"/><path class="cls-1" d="M115.62,84V72.53c3.35.33,6.67.74,10,1.28V85.22C122.29,84.71,119,84.28,115.62,84Z"/><path class="cls-1" d="M40.6,118.33V107.76q4.56-1.83,9.38-3.31v10.64Q45.18,116.55,40.6,118.33Z"/><path class="cls-1" d="M40.61,130.29v-9.36c3-1.21,6.18-2.32,9.39-3.32v9.44C46.79,128,43.66,129.11,40.61,130.29Z"/><path class="cls-1" d="M40.63,142.25v-9.36q4.56-1.81,9.38-3.32V139Q45.19,140.48,40.63,142.25Z"/><path class="cls-1" d="M40.58,105.16V95.79c3-1.21,6.17-2.31,9.38-3.31v9.44C46.76,102.89,43.63,104,40.58,105.16Z"/><path class="cls-1" d="M104.83,95.21V85.64c3.21.11,6.41.32,9.6.61v9.57Q109.66,95.39,104.83,95.21Z"/><path class="cls-1" d="M40.55,68.87c3-1.22,6.18-2.33,9.39-3.33V76.18c-3.21,1-6.35,2.06-9.39,3.25Z"/><path class="cls-1" d="M40.58,93.19V82c3-1.22,6.17-2.32,9.38-3.32V90Q45.15,91.42,40.58,93.19Z"/><path class="cls-1" d="M39.35,66.75a105,105,0,0,0-9.78,4.49V62a104.65,104.65,0,0,1,9.78-4.64Z"/><path class="cls-1" d="M51.16,89.58l0-11.24q4.8-1.45,9.77-2.59l0,11.33C57.61,87.82,54.35,88.64,51.16,89.58Z"/><path class="cls-1" d="M51.13,65.17q4.78-1.45,9.77-2.59V73.29c-3.31.74-6.58,1.57-9.77,2.51Z"/><path class="cls-1" d="M51.17,101.54V92.1q4.79-1.44,9.77-2.56v9.51Q56,100.15,51.17,101.54Z"/><path class="cls-1" d="M51.19,126.68v-9.45Q56,115.81,61,114.67v9.51C57.65,124.91,54.38,125.74,51.19,126.68Z"/><path class="cls-1" d="M51.19,114.71l0-10.64q4.78-1.44,9.77-2.57v10.71C57.64,112.94,54.37,113.77,51.19,114.71Z"/><path class="cls-1" d="M51.21,138.65l0-9.44c3.19-1,6.46-1.82,9.78-2.57v9.5C57.66,136.89,54.39,137.71,51.21,138.65Z"/><path class="cls-1" d="M49.94,63c-3.21,1-6.35,2.07-9.39,3.26V56.9c3-1.22,6.17-2.32,9.38-3.34Z"/><path class="cls-1" d="M28.36,62.65v9.22c-.54.3-1.11.58-1.65.89a87.14,87.14,0,0,0-7.92,5V68.89a79.69,79.69,0,0,1,9.12-6C28.06,62.81,28.22,62.74,28.36,62.65Z"/><path class="cls-1" d="M29.65,147.19V138a107,107,0,0,1,9.77-4.61v9.37C36.05,144.09,32.78,145.57,29.65,147.19Z"/><path class="cls-1" d="M29.6,98.13v-11a106,106,0,0,1,9.78-4.64V93.66C36,95,32.73,96.51,29.6,98.13Z"/><path class="cls-1" d="M29.64,135.23V126c3.13-1.66,6.38-3.21,9.77-4.61l0,9.37C36,132.12,32.77,133.6,29.64,135.23Z"/><path class="cls-1" d="M29.63,123.25v-10.4a105.7,105.7,0,0,1,9.77-4.62v10.56Q34.33,120.83,29.63,123.25Z"/><path class="cls-1" d="M29.61,110.09v-9.21a104.44,104.44,0,0,1,9.77-4.61v9.36C36,107,32.74,108.48,29.61,110.09Z"/><path class="cls-1" d="M29.57,74a106.13,106.13,0,0,1,9.79-4.63V79.9Q34.28,82,29.59,84.39Z"/><path class="cls-1" d="M83.49,95.67V86.11q4.67-.39,9.38-.53v9.58C89.73,95.25,86.6,95.41,83.49,95.67Z"/><path class="cls-1" d="M83.45,59.13c3.11-.26,6.25-.44,9.38-.53V69.37q-4.71.13-9.38.53Z"/><path class="cls-1" d="M83.47,83.7V72.3c3.1-.26,6.23-.43,9.37-.53l0,11.41Q88.14,83.32,83.47,83.7Z"/><path class="cls-1" d="M83.5,108.84V98.07c3.11-.25,6.24-.43,9.38-.52v10.77C89.75,108.42,86.61,108.59,83.5,108.84Z"/><path class="cls-1" d="M83.52,132.78v-9.57c3.12-.25,6.24-.43,9.38-.52l0,9.58Q88.19,132.39,83.52,132.78Z"/><path class="cls-1" d="M83.51,120.81v-9.57c3.11-.25,6.25-.43,9.38-.53v9.59C89.75,120.38,86.63,120.56,83.51,120.81Z"/><path class="cls-1" d="M72.74,122v-9.54c3.16-.46,6.36-.84,9.57-1.13v9.56C79.1,121.21,75.9,121.58,72.74,122Z"/><path class="cls-1" d="M72.75,134v-9.55q4.76-.7,9.57-1.12l0,9.55C79.11,133.18,75.91,133.55,72.75,134Z"/><path class="cls-1" d="M82.25,56.84c-3.22.29-6.41.66-9.57,1.13l0-9.54c3.17-.48,6.37-.85,9.58-1.15Z"/><path class="cls-1" d="M98.18,132.18c-1.37,0-2.73,0-4.08.06v-9.59c3.19-.06,6.39-.06,9.58,0v9.57C101.84,132.22,100,132.18,98.18,132.18Z"/><path class="cls-1" d="M98.18,120.22c-1.37,0-2.73,0-4.1,0V110.7c3.19-.09,6.39-.08,9.57,0v9.58C101.84,120.26,100,120.22,98.18,120.22Z"/><path class="cls-1" d="M98.18,108.24c-1.37,0-2.74,0-4.1.05V97.52c3.18-.08,6.38-.06,9.57,0v10.77C101.83,108.27,100,108.24,98.18,108.24Z"/><path class="cls-1" d="M103.6,56.2c-1.76-.05-3.53-.09-5.29-.09-1.43,0-2.86,0-4.29.06V46.59c3.19-.07,6.38-.07,9.57,0Z"/><path class="cls-1" d="M104.83,83.24l0-11.43q4.83.18,9.61.61V83.85Q109.64,83.42,104.83,83.24Z"/><path class="cls-1" d="M98.18,95.07c-1.38,0-2.74,0-4.12.05V85.55c3.19-.08,6.39-.06,9.58,0v9.57C101.82,95.11,100,95.07,98.18,95.07Z"/><path class="cls-1" d="M92.83,56.21c-3.14.09-6.27.27-9.38.52V47.17q4.66-.41,9.38-.55Z"/><path class="cls-1" d="M94,58.57c3.18-.09,6.39-.08,9.57,0l0,10.77c-1.77-.05-3.54-.09-5.31-.09-1.43,0-2.85,0-4.28.07Z"/><path class="cls-1" d="M98.18,83.11c-1.38,0-2.75,0-4.13,0V71.73c3.19-.07,6.38-.07,9.58,0V83.18C101.81,83.14,100,83.11,98.18,83.11Z"/><path class="cls-1" d="M104.8,58.64c3.21.11,6.42.32,9.61.61V70c-3.19-.29-6.4-.49-9.61-.6Z"/><path class="cls-1" d="M62.18,135.9l0-9.52c3.09-.67,6.22-1.24,9.39-1.74v9.55C68.39,134.67,65.26,135.24,62.18,135.9Z"/><path class="cls-1" d="M159,156.72V146.2c3.34,1.45,6.56,3,9.62,4.74l.35.2v10.4Q164.16,158.93,159,156.72Z"/><path class="cls-1" d="M148.18,152.76V142.12q4.94,1.6,9.58,3.56v10.55C154.66,155,151.46,153.81,148.18,152.76Z"/><path class="cls-1" d="M147,152.39q-4.68-1.45-9.57-2.6v-10.7q4.89,1.17,9.57,2.66Z"/><path class="cls-1" d="M191.28,179.76v-8.4a46.1,46.1,0,0,1,4.46,8c0,2.45,0,4.92,0,7.41A44.52,44.52,0,0,0,191.28,179.76Z"/><path class="cls-1" d="M170.13,162.2V151.85a70.36,70.36,0,0,1,9.17,6.52l0,9.81A89.18,89.18,0,0,0,170.13,162.2Z"/><path class="cls-1" d="M136.2,138.8v10.7c-3.07-.71-6.21-1.31-9.38-1.84v-3.45c1.45-2.13,2.93-4.27,4.41-6.4C132.9,138.14,134.57,138.42,136.2,138.8Z"/><path class="cls-1" d="M180.5,169.09V159.4a67.39,67.39,0,0,1,9.58,10.29v8.57A63.19,63.19,0,0,0,180.5,169.09Z"/><path class="cls-1" d="M125.64,147.48c-.3,0-.61-.07-.91-.11l.9-1.38Z"/><path class="cls-1" d="M26.59,162a85.83,85.83,0,0,0-7.7,4.86V156.76a78.36,78.36,0,0,1,8.9-5.82c.22-.13.45-.24.67-.35l0,10.4C27.84,161.32,27.2,161.64,26.59,162Z"/><path class="cls-1" d="M131.24,137.81c-1.48,2.13-3,4.27-4.41,6.4v-7.28C128.32,137.18,129.76,137.51,131.24,137.81Z"/><path class="cls-1" d="M124.73,147.37c-3-.45-6-.85-9-1.16V135.45c3.34.34,6.66.76,9.94,1.28V146Z"/><path class="cls-1" d="M104.89,145.49V134.72c3.21.12,6.41.32,9.6.63v10.76C111.31,145.81,108.1,145.61,104.89,145.49Z"/><path class="cls-1" d="M7.9,176.41v-9.48a71,71,0,0,1,9.79-9.23v10A66.32,66.32,0,0,0,7.9,176.41Z"/><path class="cls-1" d="M6.7,168.36v9.41a47.16,47.16,0,0,0-5.65,8.15V177A46.49,46.49,0,0,1,6.7,168.36Z"/><path class="cls-1" d="M51.22,151.81V141.17Q56,139.75,61,138.61v10.71C57.67,150.05,54.41,150.87,51.22,151.81Z"/><path class="cls-1" d="M29.66,160.36V149.94a105.64,105.64,0,0,1,9.77-4.61v10.56C36.06,157.25,32.79,158.73,29.66,160.36Z"/><path class="cls-1" d="M40.64,155.43V144.86c3-1.21,6.17-2.31,9.38-3.32v10.65Q45.21,153.64,40.64,155.43Z"/><path class="cls-1" d="M83.54,146V135.18c3.1-.25,6.24-.42,9.38-.53v10.79C89.78,145.52,86.64,145.69,83.54,146Z"/><path class="cls-1" d="M72.76,147.17V136.43c3.16-.46,6.36-.84,9.58-1.13v10.76C79.13,146.35,75.93,146.71,72.76,147.17Z"/><path class="cls-1" d="M98.18,145.35c-1.36,0-2.71,0-4.07.06V134.64c3.19-.09,6.39-.07,9.58,0v10.78C101.85,145.39,100,145.35,98.18,145.35Z"/><path class="cls-1" d="M62.19,149.06v-10.7c3.09-.66,6.21-1.27,9.37-1.75l0,10.75C68.4,147.83,65.27,148.41,62.19,149.06Z"/><path class="cls-1" d="M159,169.89V159.37a104.77,104.77,0,0,1,9.62,4.73l.35.21v10.4Q164.16,172.1,159,169.89Z"/><path class="cls-1" d="M148.18,165.92V155.28q4.94,1.62,9.58,3.57v10.54C154.66,168.12,151.46,167,148.18,165.92Z"/><path class="cls-1" d="M147,165.55q-4.68-1.44-9.57-2.6v-10.7q4.89,1.19,9.57,2.67Z"/><path class="cls-1" d="M191.28,192.93v-8.4a45.73,45.73,0,0,1,4.46,8c0,2.45,0,4.92,0,7.41A44.52,44.52,0,0,0,191.28,192.93Z"/><path class="cls-1" d="M170.13,175.37V165a71.38,71.38,0,0,1,9.17,6.53l0,9.81A89.18,89.18,0,0,0,170.13,175.37Z"/><path class="cls-1" d="M136.2,152v10.7c-3.07-.7-6.21-1.3-9.38-1.83v-3.45c1.45-2.14,2.93-4.27,4.41-6.4C132.9,151.3,134.57,151.59,136.2,152Z"/><path class="cls-1" d="M180.5,182.26v-9.7a67.91,67.91,0,0,1,9.58,10.3v8.57A62.23,62.23,0,0,0,180.5,182.26Z"/><path class="cls-1" d="M125.64,160.65c-.3-.05-.61-.07-.91-.12.3-.45.6-.9.9-1.37Z"/><path class="cls-1" d="M26.59,175.15a88.19,88.19,0,0,0-7.7,4.87V169.93a78.42,78.42,0,0,1,8.9-5.83l.67-.35,0,10.4C27.84,174.49,27.2,174.81,26.59,175.15Z"/><path class="cls-1" d="M131.24,151c-1.48,2.13-3,4.26-4.41,6.4V150.1C128.32,150.35,129.76,150.68,131.24,151Z"/><path class="cls-1" d="M124.73,160.53c-3-.45-6-.85-9-1.15V148.62c3.34.33,6.66.76,9.94,1.28v9.26C125.33,159.63,125,160.08,124.73,160.53Z"/><path class="cls-1" d="M104.89,158.65V147.88q4.82.18,9.6.63v10.76C111.31,159,108.1,158.77,104.89,158.65Z"/><path class="cls-1" d="M7.9,189.58V180.1a71.08,71.08,0,0,1,9.79-9.24v10A66.36,66.36,0,0,0,7.9,189.58Z"/><path class="cls-1" d="M6.7,181.53v9.41a46.4,46.4,0,0,0-5.65,8.15v-8.93A46.49,46.49,0,0,1,6.7,181.53Z"/><path class="cls-1" d="M51.22,165V154.34Q56,152.9,61,151.77v10.71Q56,163.58,51.22,165Z"/><path class="cls-1" d="M29.66,173.52V163.1q4.68-2.5,9.77-4.61v10.56C36.06,170.41,32.79,171.9,29.66,173.52Z"/><path class="cls-1" d="M40.64,168.59V158c3-1.21,6.17-2.31,9.38-3.31v10.64Q45.21,166.82,40.64,168.59Z"/><path class="cls-1" d="M83.54,159.11V148.35c3.1-.26,6.24-.42,9.38-.53V158.6C89.78,158.69,86.64,158.86,83.54,159.11Z"/><path class="cls-1" d="M72.76,160.34V149.6c3.16-.47,6.36-.84,9.58-1.13v10.76C79.13,159.52,75.93,159.88,72.76,160.34Z"/><path class="cls-1" d="M98.18,158.52c-1.36,0-2.71,0-4.07,0V147.8c3.19-.08,6.39-.06,9.58,0v10.77C101.85,158.56,100,158.52,98.18,158.52Z"/><path class="cls-1" d="M62.19,162.23V151.52c3.09-.66,6.21-1.26,9.37-1.74l0,10.74C68.4,161,65.27,161.57,62.19,162.23Z"/><path class="cls-1" d="M62.15,112V101.25c3.08-.68,6.21-1.25,9.38-1.73v10.73C68.37,110.73,65.23,111.3,62.15,112Z"/><path class="cls-1" d="M62.14,98.79V89.28c3.08-.66,6.21-1.25,9.38-1.74v9.54Q66.76,97.8,62.14,98.79Z"/><path class="cls-1" d="M62.1,62.33q4.62-1,9.38-1.75V71.32c-3.17.48-6.3,1.06-9.38,1.71Z"/><path class="cls-1" d="M62.13,86.82l0-11.33c3.08-.67,6.21-1.26,9.38-1.75V85.12C68.34,85.6,65.21,86.17,62.13,86.82Z"/><path class="cls-1" d="M71.48,58.14c-3.17.5-6.3,1.07-9.38,1.73V50.36c3.08-.68,6.21-1.26,9.37-1.76Z"/><path class="cls-1" d="M60.9,60.12c-3.32.75-6.58,1.58-9.77,2.52V53.2q4.79-1.46,9.77-2.59Z"/><path class="cls-1" d="M62.16,123.92v-9.51c3.08-.66,6.22-1.25,9.38-1.73l0,9.54C68.38,122.7,65.25,123.26,62.16,123.92Z"/><path class="cls-1" d="M72.73,110.07V99.32q4.74-.69,9.57-1.13V109C79.09,109.23,75.89,109.61,72.73,110.07Z"/><path class="cls-1" d="M72.7,84.93V73.55q4.74-.69,9.58-1.13v11.4Q77.46,84.24,72.7,84.93Z"/><path class="cls-1" d="M72.68,60.4c3.16-.48,6.35-.86,9.57-1.16V70c-3.22.29-6.41.67-9.57,1.12Z"/><path class="cls-1" d="M72.71,96.9V87.35c3.16-.45,6.35-.84,9.57-1.13v9.56Q77.46,96.21,72.71,96.9Z"/><path class="cls-2" d="M1.28,190l-.08,7.29a46.4,46.4,0,0,1,5.65-8.15V185L8,183.74v4a66.36,66.36,0,0,1,9.79-8.71v-5.63l1.2-1.26v6a89.72,89.72,0,0,1,7.7-4.87c.62-.34,1.25-.66,1.88-1v-5.41l1.2-.5v5.28c3.12-1.62,6.39-3.11,9.77-4.47v-4.89l1.2-.5v4.93q4.56-1.77,9.38-3.24V158l1.2-.5v5.71q4.78-1.39,9.77-2.49v-5.25l1.2-.22v5.22c3.08-.66,6.21-1.24,9.38-1.71v-5.17l1.2-.21v5.2c3.17-.46,6.37-.82,9.58-1.11v-5.8l1.19-.21v5.89c3.1-.25,6.24-.42,9.38-.51v-5.73l1.2.05v5.65c1.36,0,2.71-.05,4.07-.05,1.84,0,3.67,0,5.51.09v-5.25l1.19.06v5.23c3.21.12,6.42.33,9.6.62v-5.42l1.19.06v5.47c3,.31,6,.7,9,1.15.3.05.61.07.91.12v-6.24l1.2.46v6c3.17.53,6.31,1.13,9.38,1.83v-4.25l1.21.46v4.08q4.89,1.15,9.57,2.6v-3.07l1.2.46v3c3.28,1.06,6.48,2.2,9.58,3.47v-2.83l1.2.45v2.88q5.19,2.21,10,4.82V169l1.2.45v4.14a89.18,89.18,0,0,1,9.18,6v-4.49l1.2,1.39v4a62.23,62.23,0,0,1,9.58,9.17v-2l1.19,1.4v2.13a44.52,44.52,0,0,1,4.46,7c0-1.32,0-5.49,0-6.8l.94,1.09c0,3.13-.05,9-.05,12.21a72.59,72.59,0,0,0-4.84-7.93,74.49,74.49,0,0,0-22.9-21c-10.12-6-21.4-9.72-32.82-12.36-3.45-.8-6.95-1.46-10.44-2-10.59-1.75-21.18-2.13-31.89-2.2a138.6,138.6,0,0,0-30,2.86,121.81,121.81,0,0,0-18.51,5.5A120.59,120.59,0,0,0,24,177.93c-9.11,5.82-18,13.72-22.8,23.57l-1,.43L.29,190.5Z"/><path class="cls-3" d="M93.94,147.71c10.71.07,21.29.44,31.89,2.19,3.49.58,7,1.24,10.44,2,11.42,2.65,22.7,6.33,32.81,12.36a74.77,74.77,0,0,1,22.91,21,72.66,72.66,0,0,1,4.83,7.94c.06-47.82.11-90.16.15-117.38l-.6-1.47a1.77,1.77,0,0,0-.13-.55c-.11-.21-.23-.41-.34-.61A48.74,48.74,0,0,0,188,62.41,75.53,75.53,0,0,0,170.1,48.8c-19.73-11.08-45.66-16.63-71.58-16.63S46.66,37.72,26.93,48.8C14.83,55.61,6,64,1.16,73.2V71.54C.8,72.38.3,73.19,0,74.05L.29,190.56l1-.43c4.83-9.84,13.68-17.75,22.8-23.57a120.21,120.21,0,0,1,21.36-10.49A121.84,121.84,0,0,1,64,150.56M6.81,76.83a46.77,46.77,0,0,0-5.64,8.32V77.48A44.8,44.8,0,0,1,6.8,68.63Zm0,12a47,47,0,0,0-5.64,8.3V89.42a45.44,45.44,0,0,1,5.64-8.83Zm0,13.16a47.18,47.18,0,0,0-5.65,8.29v-8.88a45.46,45.46,0,0,1,5.65-8.82Zm0,13.64a47,47,0,0,0-5.64,8.19v-9.27a45,45,0,0,1,5.64-8.81Zm0,12a46.84,46.84,0,0,0-5.64,8.17V128a45.47,45.47,0,0,1,5.65-8.68Zm0,13.14a47.29,47.29,0,0,0-5.65,8.17V140a45.84,45.84,0,0,1,5.65-8.66Zm0,12a47.08,47.08,0,0,0-5.65,8.17V153.1a45.77,45.77,0,0,1,5.64-8.66Zm0,12a47.16,47.16,0,0,0-5.64,8.16v-7.72a46,46,0,0,1,5.64-8.65Zm0,13.16a46.24,46.24,0,0,0-5.65,8.15V177a46.41,46.41,0,0,1,5.64-8.63ZM17.79,66.67A66.59,66.59,0,0,0,8,75.45V67.18a71,71,0,0,1,9.79-9.32Zm0,12A65.67,65.67,0,0,0,8,87.42V79.14a70.88,70.88,0,0,1,9.78-9.32Zm0,13.17A64.94,64.94,0,0,0,8,100.57l0-9.48a71,71,0,0,1,9.79-9.31Zm0,13.7a65.89,65.89,0,0,0-9.79,8.73v-10a71.52,71.52,0,0,1,9.79-9.31Zm0,12a66.3,66.3,0,0,0-9.78,8.73V117.9a71.2,71.2,0,0,1,9.79-9.25Zm0,13.17a65.2,65.2,0,0,0-9.78,8.72l0-9.48a71.22,71.22,0,0,1,9.79-9.26Zm0,12a67.45,67.45,0,0,0-9.79,8.72V143a71.07,71.07,0,0,1,9.78-9.25Zm0,12a67.43,67.43,0,0,0-9.78,8.71l0-8.28a71.82,71.82,0,0,1,9.8-9.24Zm0,13.17a66.32,66.32,0,0,0-9.79,8.7v-9.48a69.91,69.91,0,0,1,9.79-9.23ZM28.57,59.91c-.54.28-1.1.57-1.64.87a92.24,92.24,0,0,0-7.94,5V56.92a80.42,80.42,0,0,1,9.14-6l.44-.24Zm0,12c-.54.3-1.11.58-1.65.89a85.77,85.77,0,0,0-7.92,5V68.89a79.69,79.69,0,0,1,9.12-6c.14-.09.31-.16.45-.25ZM28.6,85c-.56.31-1.13.6-1.67.91a89.33,89.33,0,0,0-7.92,5V80.85a78.63,78.63,0,0,1,9.11-6c.15-.09.31-.16.47-.25Zm0,13.74c-.6.33-1.22.65-1.81,1A88.28,88.28,0,0,0,19,104.65V94a79.76,79.76,0,0,1,9.1-6c.16-.08.33-.16.48-.25Zm0,12c-.62.33-1.23.65-1.83,1A86.3,86.3,0,0,0,19,116.61v-8.89a78.07,78.07,0,0,1,9-5.86c.2-.12.42-.23.63-.34Zm0,13.18c-.62.31-1.24.63-1.84,1a90,90,0,0,0-7.74,4.9l0-10.09a78.75,78.75,0,0,1,9-5.85c.2-.12.42-.23.64-.34Zm0,12c-.62.33-1.25.65-1.85,1a82.91,82.91,0,0,0-7.73,4.87v-8.89A77.54,77.54,0,0,1,28,127c.21-.13.43-.24.65-.35Zm0,12c-.62.35-1.25.67-1.86,1a84,84,0,0,0-7.72,4.86v-8.9A78.15,78.15,0,0,1,28,139c.21-.12.44-.23.67-.35Zm0,13.17c-.62.33-1.26.65-1.87,1a86,86,0,0,0-7.71,4.86V156.76A79.39,79.39,0,0,1,28,150.94c.22-.13.45-.24.67-.35ZM39.55,54.76q-5.09,2.07-9.78,4.51V50.05c3.13-1.68,6.38-3.23,9.78-4.65Zm0,12a103.83,103.83,0,0,0-9.78,4.49V62a104.65,104.65,0,0,1,9.78-4.64Zm0,13.15Q34.49,82,29.8,84.39l0-10.41q4.69-2.52,9.78-4.64Zm0,13.76c-3.39,1.37-6.65,2.85-9.78,4.47v-11a106,106,0,0,1,9.78-4.64Zm0,12c-3.38,1.35-6.65,2.85-9.78,4.46v-9.21a105.84,105.84,0,0,1,9.78-4.61Zm0,13.16c-3.38,1.36-6.65,2.85-9.78,4.46v-10.4a105.7,105.7,0,0,1,9.77-4.62Zm0,12c-3.39,1.36-6.66,2.84-9.79,4.47V126c3.13-1.66,6.39-3.21,9.78-4.61Zm0,12c-3.38,1.36-6.65,2.84-9.78,4.46V138a107.22,107.22,0,0,1,9.78-4.61Zm0,13.16c-3.38,1.36-6.64,2.84-9.77,4.47V149.94a107.07,107.07,0,0,1,9.78-4.61ZM50.13,51.05c-3.21,1-6.35,2.06-9.38,3.25V44.93c3-1.21,6.17-2.32,9.38-3.33Zm0,12q-4.81,1.47-9.38,3.26V56.9c3-1.22,6.17-2.32,9.38-3.34Zm0,13.17q-4.83,1.47-9.39,3.25V68.87c3-1.22,6.17-2.33,9.38-3.33Zm0,13.77c-3.21,1-6.35,2.06-9.38,3.24l0-11.16q4.56-1.83,9.39-3.32Zm0,12c-3.21,1-6.34,2.06-9.39,3.24V95.79c3-1.21,6.17-2.31,9.38-3.31Zm0,13.17q-4.81,1.45-9.38,3.24V107.76q4.56-1.83,9.38-3.31Zm0,12c-3.21,1-6.33,2.06-9.38,3.24v-9.36q4.56-1.82,9.38-3.32Zm0,12q-4.83,1.47-9.39,3.24v-9.36q4.56-1.81,9.39-3.32Zm0,13.18q-4.81,1.45-9.38,3.24V144.86c3-1.21,6.17-2.31,9.38-3.32Zm10.87-104q-5,1.1-9.78,2.51V41.23c3.18-1,6.45-1.83,9.77-2.59Zm0,12c-3.32.75-6.59,1.58-9.77,2.52V53.2q4.79-1.46,9.77-2.59Zm0,13.17q-5,1.11-9.77,2.51V65.17q4.78-1.45,9.77-2.59Zm0,13.79c-3.32.74-6.59,1.56-9.78,2.5V78.34q4.78-1.45,9.77-2.59Zm0,12c-3.32.73-6.59,1.56-9.77,2.49V92.1c3.18-1,6.45-1.82,9.77-2.56Zm0,13.16q-5,1.1-9.77,2.5V104.07q4.78-1.44,9.77-2.57Zm0,12c-3.31.73-6.58,1.56-9.77,2.5v-9.45q4.78-1.42,9.77-2.56Zm0,12c-3.31.75-6.58,1.57-9.76,2.51l0-9.44c3.19-1,6.46-1.82,9.77-2.57Zm0,13.18c-3.32.73-6.58,1.55-9.77,2.49V141.17c3.18-.95,6.45-1.81,9.77-2.56ZM71.67,46.18c-3.17.48-6.29,1.06-9.37,1.72l0-9.51q4.64-1,9.38-1.75Zm0,12c-3.16.5-6.29,1.07-9.38,1.73V50.36c3.08-.68,6.21-1.26,9.37-1.76Zm0,13.18c-3.17.48-6.3,1.06-9.39,1.71V62.33c3.08-.68,6.21-1.26,9.37-1.75Zm0,13.8c-3.16.47-6.29,1-9.38,1.7V75.49c3.08-.67,6.21-1.26,9.38-1.75Zm0,12c-3.16.48-6.29,1-9.37,1.71l0-9.51c3.09-.66,6.22-1.25,9.38-1.74Zm0,13.17Q67,111,62.36,112V101.25c3.08-.68,6.21-1.25,9.37-1.73Zm0,12c-3.17.48-6.3,1-9.38,1.7v-9.51c3.08-.66,6.22-1.25,9.38-1.73Zm0,12c-3.17.48-6.29,1.05-9.38,1.71v-9.52c3.09-.67,6.21-1.24,9.38-1.74Zm0,13.17c-3.16.47-6.29,1-9.38,1.7v-10.7c3.09-.66,6.22-1.27,9.38-1.75ZM82.45,44.87c-3.22.29-6.42.67-9.58,1.13V36.45c3.16-.46,6.36-.85,9.58-1.14Zm0,12c-3.22.29-6.42.66-9.58,1.13V48.43c3.17-.48,6.36-.85,9.58-1.16Zm0,13.17c-3.22.29-6.42.67-9.58,1.12V60.4c3.17-.48,6.36-.86,9.58-1.16Zm0,13.81c-3.21.28-6.41.65-9.57,1.11l0-11.38c3.16-.46,6.36-.84,9.58-1.13Zm0,12q-4.83.43-9.58,1.12V87.35c3.17-.45,6.36-.84,9.58-1.13Zm0,13.17c-3.22.28-6.41.66-9.58,1.12V99.32q4.76-.69,9.58-1.13Zm0,12c-3.21.29-6.41.66-9.58,1.11v-9.54q4.74-.69,9.57-1.13Zm0,12c-3.23.29-6.42.66-9.59,1.12v-9.55c3.16-.47,6.36-.84,9.57-1.12Zm0,13.17c-3.22.29-6.42.65-9.58,1.11V136.43c3.16-.46,6.36-.84,9.58-1.13ZM93,44.24c-3.13.08-6.26.26-9.37.51l0-9.56c3.12-.26,6.24-.44,9.38-.54Zm0,12c-3.13.09-6.27.27-9.37.52V47.17q4.66-.41,9.38-.55Zm0,13.16c-3.13.09-6.26.27-9.37.53V59.13c3.11-.26,6.24-.44,9.37-.53Zm0,13.81q-4.71.13-9.38.52V72.3c3.11-.26,6.24-.43,9.38-.53Zm0,12c-3.14.09-6.26.25-9.38.51V86.11c3.12-.26,6.24-.44,9.38-.53Zm0,13.16c-3.13.1-6.26.27-9.37.52l0-10.77c3.12-.26,6.24-.43,9.38-.52Zm0,12c-3.14.08-6.26.26-9.38.51v-9.57c3.11-.25,6.25-.43,9.38-.53Zm0,12q-4.71.12-9.38.51v-9.57c3.12-.25,6.24-.43,9.38-.52Zm0,13.17q-4.71.12-9.38.51V135.18c3.11-.25,6.25-.42,9.38-.53ZM103.8,44.22c-1.76,0-3.52-.08-5.28-.08-1.44,0-2.87,0-4.3.07v-9.6q4.79-.11,9.58,0Zm0,12c-1.76-.05-3.53-.09-5.29-.09-1.43,0-2.86,0-4.29.06V46.59c3.19-.07,6.38-.07,9.58,0Zm0,13.17c-1.76-.05-3.54-.09-5.3-.09-1.43,0-2.86,0-4.28.06V58.57c3.19-.09,6.39-.08,9.58,0Zm0,13.81c-1.81,0-3.63-.07-5.45-.07-1.37,0-2.74,0-4.13,0V71.73c3.2-.07,6.39-.07,9.58,0Zm0,12c-1.83,0-3.64-.09-5.47-.09-1.37,0-2.73,0-4.11.05V85.55c3.19-.08,6.39-.06,9.58,0Zm0,13.17c-1.83-.06-3.65-.09-5.48-.09-1.36,0-2.73,0-4.09.05V97.52c3.18-.08,6.37-.06,9.57,0Zm0,12c-1.82,0-3.65-.09-5.48-.09-1.36,0-2.72,0-4.09.05V110.7q4.78-.14,9.57,0Zm0,12c-1.84-.05-3.67-.09-5.51-.09-1.36,0-2.72,0-4.07.06v-9.59c3.19-.06,6.39-.06,9.58,0Zm0,13.17c-1.84-.05-3.68-.09-5.52-.09-1.35,0-2.71,0-4.06.06V134.64c3.19-.09,6.39-.07,9.58,0ZM114.6,44.87c-3.19-.28-6.39-.49-9.61-.6V34.7c3.22.11,6.43.31,9.61.61Zm0,12c-3.19-.29-6.39-.5-9.6-.6l0-9.59q4.83.2,9.61.61Zm0,13.17q-4.78-.43-9.6-.6V58.64c3.21.11,6.41.32,9.6.61Zm0,13.83c-3.18-.29-6.39-.49-9.6-.61V71.81c3.21.12,6.42.32,9.61.61Zm0,12q-4.77-.43-9.6-.61V85.63q4.83.18,9.61.62Zm0,13.17q-4.78-.42-9.61-.62V97.6q4.83.18,9.61.62Zm0,12c-3.19-.3-6.4-.5-9.61-.63v-9.57c3.22.12,6.42.34,9.6.63Zm0,12c-3.19-.29-6.4-.5-9.61-.61v-9.59c3.21.13,6.42.34,9.61.63Zm0,13.17c-3.19-.3-6.4-.5-9.61-.62V134.72c3.21.12,6.41.32,9.6.63Zm11-99.88c-3.28-.51-6.61-.92-9.95-1.24V35.42q5,.49,10,1.27Zm0,12c-3.28-.5-6.6-.93-9.94-1.25V47.4c3.34.32,6.66.74,9.94,1.26Zm0,13.17c-3.28-.51-6.6-.92-9.94-1.25V59.37c3.34.31,6.66.74,10,1.26Zm0,13.84c-3.29-.51-6.6-.94-10-1.25V72.53c3.35.33,6.67.74,10,1.28Zm0,12c-3.28-.51-6.6-.92-9.94-1.26l0-9.57q5,.51,10,1.28Zm0,13.18c-3.29-.52-6.6-.93-10-1.26V98.34c3.34.33,6.66.76,9.94,1.29Zm0,12c-3.28-.51-6.61-.94-9.95-1.26v-9.57c3.35.33,6.67.75,10,1.28Zm0,12c-3.28-.51-6.6-.94-10-1.26v-9.57q5,.51,9.95,1.28Zm0,13.17c-.3,0-.6-.07-.91-.11-3-.45-6-.85-9-1.16V135.45c3.35.34,6.67.76,10,1.28v10.75Zm10.48-99.24c-3.09-.7-6.21-1.3-9.38-1.83V36.87c3.17.52,6.3,1.15,9.38,1.86Zm0,12c-3.08-.7-6.22-1.31-9.38-1.83V48.84c3.17.53,6.3,1.16,9.38,1.86Zm0,13.15c-3.08-.68-6.21-1.29-9.38-1.81V60.82q4.76.8,9.38,1.86Zm0,13.86c-3.08-.71-6.2-1.3-9.37-1.82V74c3.17.54,6.3,1.16,9.37,1.86Zm0,12q-4.62-1-9.38-1.83V87.84q4.76.8,9.38,1.87Zm0,13.17c-3.08-.69-6.21-1.3-9.37-1.82l0-10.74c3.17.54,6.3,1.15,9.38,1.87Zm0,12c-3.08-.7-6.2-1.31-9.38-1.83V113c3.17.54,6.29,1.16,9.38,1.87Zm0,12c-1.14-.26-2.32-.43-3.47-.68-2-.4-3.91-.82-5.9-1.15V125c3.17.52,6.29,1.16,9.37,1.87v9.49Zm0,13.18c-3.08-.71-6.22-1.31-9.38-1.84V136.93c1.49.25,2.94.58,4.41.88,1.66.33,3.34.62,5,1Zm10.67-98.4q-4.69-1.44-9.58-2.58V39q4.89,1.15,9.58,2.63Zm0,12c-3.12-1-6.32-1.82-9.57-2.58l0-9.48q4.89,1.16,9.58,2.62Zm0,13.18c-3.13-1-6.33-1.83-9.57-2.59l0-10.69c3.25.77,6.45,1.65,9.57,2.64Zm0,13.86q-4.69-1.44-9.58-2.58V76.14q4.88,1.17,9.57,2.65Zm0,12c-3.12-1-6.32-1.83-9.57-2.6V90q4.89,1.17,9.57,2.64Zm0,13.18c-3.12-1-6.32-1.84-9.57-2.61V102q4.89,1.16,9.58,2.66Zm0,12c-2.28-.72-4.64-1.3-7-1.91-.87-.22-1.71-.5-2.59-.7v-9.5c2.82.67,5.57,1.47,8.29,2.29.42.14.87.23,1.29.37Zm0,12q-4.69-1.46-9.58-2.61v-9.5l1.12.31c2.87.72,5.7,1.48,8.46,2.35Zm0,13.17c-3.12-1-6.32-1.84-9.57-2.6l0-10.7q4.89,1.17,9.58,2.66Zm10.67-97.47c-3.09-1.27-6.3-2.39-9.57-3.44V42c3.28,1.07,6.48,2.24,9.57,3.54Zm0,12c-3.1-1.27-6.3-2.41-9.58-3.45V54c3.28,1.06,6.49,2.24,9.58,3.53Zm0,13.17c-3.09-1.25-6.3-2.4-9.58-3.45V66q4.92,1.59,9.58,3.53Zm0,13.88c-3.09-1.27-6.3-2.41-9.57-3.46l0-11.34c3.29,1.08,6.49,2.24,9.58,3.54Zm0,12c-.91-.38-1.89-.67-2.81-1-2.23-.85-4.45-1.71-6.76-2.44V93c3.28,1.06,6.48,2.25,9.57,3.55v9.35Zm0,13.17q-4.65-1.91-9.58-3.46V105c1.8.58,3.5,1.29,5.24,1.94,1.45.54,2.93,1,4.33,1.61Zm0,12c-3.1-1.27-6.3-2.41-9.57-3.46l0-9.44q4.93,1.59,9.58,3.56Zm0,12c-3.09-1.27-6.3-2.41-9.58-3.46v-9.44c3.28,1.06,6.48,2.26,9.57,3.55Zm0,13.18c-3.09-1.28-6.29-2.42-9.58-3.47V142.12q4.94,1.6,9.57,3.56Zm11.07-96a109.26,109.26,0,0,0-10-4.8V46.08a107.67,107.67,0,0,1,9.87,4.85L169,51Zm0,12c-3.19-1.73-6.51-3.34-10-4.8V58.07a104.63,104.63,0,0,1,9.85,4.83L169,63Zm0,13.17q-4.77-2.6-10-4.79l0-10.52a103.39,103.39,0,0,1,9.85,4.82l.13.08Zm0,13.91c-2.28-1.25-4.72-2.35-7.14-3.45-1-.44-1.86-.95-2.84-1.36V83.21c3.14,1.36,6.18,2.84,9.09,4.43.24.14.5.26.74.39a.55.55,0,0,0,.14.09Zm0,12a103.29,103.29,0,0,0-10-4.8V97.09c.47.22.89.46,1.36.67,2.85,1.29,5.67,2.61,8.32,4.1l.3.17Zm0,13.18a105.79,105.79,0,0,0-10-4.82V109.07a104.62,104.62,0,0,1,9.67,4.76l.31.18Zm0,12a106.75,106.75,0,0,0-10-4.81l0-9.33a101.92,101.92,0,0,1,9.66,4.75l.32.19Zm0,12a109.32,109.32,0,0,0-10-4.81v-9.34a105.26,105.26,0,0,1,9.64,4.75c.11.05.22.13.33.19Zm0,13.17q-4.77-2.61-10-4.82V146.2c3.34,1.45,6.57,3,9.63,4.74l.35.21Zm10.27-94.73a84.86,84.86,0,0,0-9.18-6V51.69a70.84,70.84,0,0,1,9.18,6.47Zm0,12c-.9-.68-1.88-1.33-2.83-2-2-1.37-4.09-2.72-6.34-4V63.67a71.49,71.49,0,0,1,9.17,6.48v8.64Zm0,13.17A87.42,87.42,0,0,0,170.26,86V75.66c1.65,1,3.26,2,4.8,3.11s3,2.19,4.38,3.36Zm0,13.93a88.07,88.07,0,0,0-9.18-6V88.83a70,70,0,0,1,9.18,6.48Zm0,12a83.35,83.35,0,0,0-9.17-6v-9.16a70,70,0,0,1,9.17,6.51Zm0,13.17a83.81,83.81,0,0,0-9.17-6V114.71a74.07,74.07,0,0,1,9.17,6.52Zm0,12a84.17,84.17,0,0,0-9.19-6V127.9a71,71,0,0,1,9.18,6.5Zm0,12a85,85,0,0,0-9.18-6v-9.16a71.43,71.43,0,0,1,9.18,6.52Zm0,13.17a88,88,0,0,0-9.17-6V151.85a71,71,0,0,1,9.17,6.52Zm10.67-91.4a62.8,62.8,0,0,0-7.69-7.46c-.64-.54-1.21-1.1-1.88-1.62V59.18a69.18,69.18,0,0,1,5.6,5.47c1.42,1.55,2.77,3.13,4,4.72Zm0,12a62.79,62.79,0,0,0-9.58-9.09V71.15l.25.25a67,67,0,0,1,9.33,9.95Zm0,13.19a61.81,61.81,0,0,0-9.57-9.1V83.14a67.41,67.41,0,0,1,9.58,10.2Zm0,14a62.1,62.1,0,0,0-9.57-9.16l0-10.46a66.39,66.39,0,0,1,9.58,10.19Zm0,12a61.63,61.63,0,0,0-9.57-9.16v-8.52a67.27,67.27,0,0,1,9.57,10.29Zm0,13.18a62.62,62.62,0,0,0-9.57-9.17v-9.7a67.76,67.76,0,0,1,9.57,10.28Zm0,12a62.1,62.1,0,0,0-9.57-9.16v-8.51a67.68,67.68,0,0,1,9.57,10.28Zm0,12a61.68,61.68,0,0,0-9.57-9.17v-8.5a67.21,67.21,0,0,1,9.57,10.28Zm0,13.17a63.66,63.66,0,0,0-9.58-9.17V159.4a66.81,66.81,0,0,1,9.57,10.29Zm5.55-93.15a45.27,45.27,0,0,0-4.46-6.85V71a45.63,45.63,0,0,1,4.47,7.8Zm0,12a46.86,46.86,0,0,0-4.46-6.85V83a46,46,0,0,1,4.46,7.81C195.85,92.86,195.85,95,195.86,97.1Zm0,13.19a45.16,45.16,0,0,0-4.47-6.86V95a46.39,46.39,0,0,1,4.46,7.81C195.87,105.25,195.87,107.74,195.87,110.29Zm0,14.1a44.18,44.18,0,0,0-4.48-6.94v-9.27a46.55,46.55,0,0,1,4.47,7.82Q195.88,120.13,195.89,124.39Zm0,12a45.89,45.89,0,0,0-4.47-6.95v-7.21a45.67,45.67,0,0,1,4.46,7.94Q195.89,133.25,195.9,136.38Zm0,13.2a44.09,44.09,0,0,0-4.47-7v-8.4a45.38,45.38,0,0,1,4.46,7.95Q195.9,145.82,195.91,149.58Zm0,12a44.74,44.74,0,0,0-4.46-7v-7.21a46.64,46.64,0,0,1,4.47,8Zm0,12a44.25,44.25,0,0,0-4.47-7v-7.2a46,46,0,0,1,4.47,8Zm0,13.19a44.52,44.52,0,0,0-4.46-7v-8.4a46.18,46.18,0,0,1,4.47,8Z"/><polygon class="cls-4" points="1.27 190.14 1.28 190.13 1.28 190.13 1.27 190.14"/><rect class="cls-5" x="101.91" y="33.44" width="4.74" height="123.63"/><rect class="cls-6" x="122.97" y="34.98" width="4.74" height="123.63"/><polygon class="cls-7" points="149.83 40.34 145.09 40.34 145.09 163.97 149.88 164.85 149.83 40.34"/><polygon class="cls-8" points="170.72 50.08 165.98 48.85 165.99 172.76 170.72 173.71 170.72 50.08"/><polygon class="cls-9" points="192.84 69.79 188.1 65.73 188.1 188.36 192.84 191.13 192.84 69.79"/><polygon class="cls-10" points="85.38 33.91 80.66 34.5 80.66 158.13 85.4 158.13 85.38 33.91"/><polygon class="cls-11" points="63.64 37.09 58.9 37.79 58.9 161.42 63.64 160.72 63.64 37.09"/><polygon class="cls-12" points="42.06 42.86 37.3 45.4 37.3 169.03 42.04 167.43 42.06 42.86"/><polygon class="cls-13" points="19.92 54.07 15.18 58.25 15.18 181.43 19.92 177.7 19.92 54.07"/><path class="cls-14" d="M48.84,272.51c2.21,0,4-2.24,4-5v-16.8c-2.73-1-5.4-2-8-3.17v20C44.84,270.27,46.63,272.51,48.84,272.51Z"/><path class="cls-15" d="M110,280.89c2.21,0,4-2.22,4-5V258.14c-.53,0-1,.13-1.55.17-2.16.17-4.32.18-6.47.26v17.35C106,278.67,107.79,280.89,110,280.89Z"/><path class="cls-16" d="M168.41,258.74c2.22,0,4-2.24,4-5v-14.2c-2.58,1.62-5.24,3.16-8,4.6v9.6C164.4,256.5,166.19,258.74,168.41,258.74Z"/><path class="cls-17" d="M12.33,236.39c2.17,0,3.91-2.15,4-4.81a80,80,0,0,1-8-8.19v8C8.32,234.17,10.12,236.39,12.33,236.39Z"/><path class="cls-18" d="M189.79,229.19c-2.17,0-3.91-2.15-4-4.81,2.92-2.62,5.62-8.43,8-11.28v11.12C193.8,227,192,229.19,189.79,229.19Z"/><path class="cls-19" d="M1.06,80.23S22.28,122.9,101.58,120.8c0,0,70.42.4,94.46-41.41l-.22,129.53-13.54,17.91-31.82,19.31-52.57,8.07-50.11-9.83L6.63,220,1,207.56Z"/><path class="cls-20" d="M168.88,165.31V154.9a106.75,106.75,0,0,1-10,4.81v10.54a105.69,105.69,0,0,0,9.66-4.76Z"/><path class="cls-20" d="M158.93,147.74v9.33a101.73,101.73,0,0,0,9.65-4.75l.33-.19v-9.2A108.06,108.06,0,0,1,158.93,147.74Z"/><path class="cls-20" d="M158.94,135.76v9.33a104,104,0,0,0,9.64-4.74,3.72,3.72,0,0,0,.34-.19V131A109.51,109.51,0,0,1,158.94,135.76Z"/><path class="cls-20" d="M179.24,173.43a87,87,0,0,1-9.18,6v11.09a70.23,70.23,0,0,0,9.18-6.48Z"/><path class="cls-20" d="M148.17,139.73v9.44c3.29-1.06,6.48-2.26,9.58-3.55v-9.35C154.65,137.54,151.45,138.68,148.17,139.73Z"/><path class="cls-20" d="M170.08,167.41v9.17a70.13,70.13,0,0,0,9.18-6.51v-8.63A83,83,0,0,1,170.08,167.41Z"/><path class="cls-20" d="M170.1,142.27v9.15a71,71,0,0,0,9.18-6.5v-8.63A84,84,0,0,1,170.1,142.27Z"/><path class="cls-20" d="M170.09,154.24v10.37a73.21,73.21,0,0,0,9.18-6.53v-9.81A84,84,0,0,1,170.09,154.24Z"/><path class="cls-20" d="M157.74,148.25c-3.11,1.27-6.31,2.4-9.58,3.45v9.45c3.28-1.06,6.48-2.25,9.57-3.56Z"/><path class="cls-20" d="M170.12,130.29l0,9.16a72.25,72.25,0,0,0,9.19-6.52v-8.62A84.83,84.83,0,0,1,170.12,130.29Z"/><path class="cls-20" d="M147,161.52v-9.45c-2.28.71-4.63,1.3-7,1.91,1.88,2.65,3.78,5.27,5.68,7.91C146.09,161.75,146.53,161.66,147,161.52Z"/><path class="cls-20" d="M157.71,170.77V160.22c-3.1,1.27-6.3,2.42-9.57,3.46v1.61l5.24,7.09C154.82,171.84,156.31,171.35,157.71,170.77Z"/><path class="cls-20" d="M168.57,177.46l.3-.17v-9.21a103.29,103.29,0,0,1-10,4.8v6.9c.46.59.91,1.18,1.35,1.78C163.11,180.27,165.93,179,168.57,177.46Z"/><path class="cls-20" d="M157.7,173.39c-.91.38-1.88.67-2.81,1,.94,1.26,1.87,2.53,2.81,3.78Z"/><path class="cls-20" d="M147,149.55V140.1q-4.69,1.46-9.57,2.61v7.61l1.11,1.58C141.37,151.18,144.2,150.42,147,149.55Z"/><path class="cls-20" d="M136.19,143c-1.13.25-2.32.43-3.46.68,1.14,1.65,2.3,3.31,3.46,5Z"/><path class="cls-20" d="M191.25,124.72v7.21a46.64,46.64,0,0,0,4.47-8c0-2.06,0-4.14,0-6.22A45.56,45.56,0,0,1,191.25,124.72Z"/><path class="cls-20" d="M191.26,112.74v7.2a45.32,45.32,0,0,0,4.47-8c0-2.06,0-4.14,0-6.22A45,45,0,0,1,191.26,112.74Z"/><path class="cls-20" d="M191.24,136.71v8.4a45.46,45.46,0,0,0,4.47-8v-7.42A44.74,44.74,0,0,1,191.24,136.71Z"/><path class="cls-20" d="M191.22,149.89v7.21a45.67,45.67,0,0,0,4.46-7.94c0-2.06,0-4.13,0-6.23A45.48,45.48,0,0,1,191.22,149.89Z"/><path class="cls-20" d="M168.87,180.05c-2.28,1.25-4.72,2.35-7.14,3.45q3.12,4.11,6.24,8.18c.24-.14.5-.26.74-.39l.15-.09Z"/><path class="cls-20" d="M179.21,200.53c-.89.68-1.87,1.33-2.83,2l2.83,3.59Z"/><path class="cls-20" d="M190,198v-7.42a62.79,62.79,0,0,1-9.58,9.09v8a3.61,3.61,0,0,0,.25.3A67,67,0,0,0,190,198Z"/><path class="cls-20" d="M179.22,197.19v-9.83a86.39,86.39,0,0,1-9.18,5.95v1.05c1.6,2,3.2,4.13,4.79,6.19Q177.12,198.95,179.22,197.19Z"/><path class="cls-20" d="M195.65,182.22a46,46,0,0,1-4.46,6.85v7.25a47.18,47.18,0,0,0,4.47-7.81Z"/><path class="cls-20" d="M191.2,175.88v8.44a45,45,0,0,0,4.46-7.81q0-3.66,0-7.48A45.27,45.27,0,0,1,191.2,175.88Z"/><path class="cls-20" d="M191.21,161.87v9.27a46.25,46.25,0,0,0,4.47-7.82c0-2.75,0-5.55,0-8.39A44.84,44.84,0,0,1,191.21,161.87Z"/><path class="cls-20" d="M180.46,160.54l0,8.52A67.35,67.35,0,0,0,190,158.77v-7.39A63,63,0,0,1,180.46,160.54Z"/><path class="cls-20" d="M180.48,135.38v8.51A67.68,67.68,0,0,0,190,133.61v-7.39A62.1,62.1,0,0,1,180.48,135.38Z"/><path class="cls-20" d="M180.47,147.37v9.7A67.25,67.25,0,0,0,190,146.79V138.2A62.62,62.62,0,0,1,180.47,147.37Z"/><path class="cls-20" d="M180.44,172.52V183A66.88,66.88,0,0,0,190,172.8v-9.43A61.6,61.6,0,0,1,180.44,172.52Z"/><path class="cls-20" d="M180.43,186.46l0,9.72A67.49,67.49,0,0,0,190,186v-8.62A62.73,62.73,0,0,1,180.43,186.46Z"/><path class="cls-20" d="M191.17,208.3a45.55,45.55,0,0,0,4.46-7.8q0-3,0-6.29a45.34,45.34,0,0,1-4.47,6.85Z"/><path class="cls-20" d="M180.49,123.4v8.5a67.8,67.8,0,0,0,9.58-10.28v-7.39A61.69,61.69,0,0,1,180.49,123.4Z"/><path class="cls-20" d="M190,202.54a63.63,63.63,0,0,1-7.7,7.46l3.71,4.67c1.42-1.55,2.78-3.13,4-4.72Z"/><path class="cls-20" d="M195.62,206.2a48.38,48.38,0,0,1-7.84,10.7c.94,1.2,1.89,2.4,2.84,3.58a36.69,36.69,0,0,0,5-14.26l0,0Z"/><path class="cls-20" d="M180.4,207.62v.55l.25-.25A3.61,3.61,0,0,1,180.4,207.62Z"/><path class="cls-20" d="M26.59,130.49a85.39,85.39,0,0,1-7.72-4.86v8.89a77.76,77.76,0,0,0,8.92,5.83l.67.35v-9.2C27.83,131.15,27.2,130.83,26.59,130.49Z"/><path class="cls-20" d="M26.59,142.46a86.46,86.46,0,0,1-7.73-4.87v8.89a79.31,79.31,0,0,0,8.93,5.84l.65.35v-9.21C27.83,143.13,27.19,142.81,26.59,142.46Z"/><path class="cls-20" d="M18.81,188.39v10.08a79.43,79.43,0,0,0,9.11,6c.15.1.32.17.47.26l0-10.41c-.57-.3-1.13-.59-1.68-.9A90.61,90.61,0,0,1,18.81,188.39Z"/><path class="cls-20" d="M104.85,171v10.77q4.83-.18,9.6-.62V170.33C111.26,170.61,108.07,170.81,104.85,171Z"/><path class="cls-20" d="M26.59,154.44a89.08,89.08,0,0,1-7.74-4.89v10.09a78.62,78.62,0,0,0,8.94,5.85l.64.34V155.41C27.82,155.1,27.19,154.77,26.59,154.44Z"/><path class="cls-20" d="M26.59,179.57a87.18,87.18,0,0,1-7.76-4.9l0,10.64a80.25,80.25,0,0,0,9.1,6l.49.25v-11C27.8,180.23,27.18,179.91,26.59,179.57Z"/><path class="cls-20" d="M158.87,209.27a100.93,100.93,0,0,0,9.84-4.83.42.42,0,0,0,.13-.07V194a109.26,109.26,0,0,1-10,4.8Z"/><path class="cls-20" d="M179.21,206.09l-2.83-3.59c-2,1.37-4.09,2.72-6.34,4v9.17a71.89,71.89,0,0,0,9.18-6.48Z"/><path class="cls-20" d="M158.89,184.86v11.25c3.15-1.36,6.19-2.84,9.09-4.43q-3.12-4.06-6.24-8.18C160.77,183.94,159.88,184.45,158.89,184.86Z"/><path class="cls-20" d="M168.83,216.35v-9.22a109.21,109.21,0,0,1-10,4.79v9.33a103.44,103.44,0,0,0,9.85-4.83Z"/><path class="cls-20" d="M174.84,200.55c-1.59-2.06-3.19-4.14-4.79-6.19v9.3Q172.53,202.19,174.84,200.55Z"/><path class="cls-20" d="M160.25,181.56c-.44-.6-.89-1.19-1.35-1.78v2.45C159.37,182,159.78,181.77,160.25,181.56Z"/><path class="cls-20" d="M154.89,174.41c-2.23.84-4.45,1.71-6.76,2.44v9.44q4.94-1.59,9.57-3.55v-4.55C156.76,176.94,155.83,175.67,154.89,174.41Z"/><path class="cls-20" d="M157.67,212.42c-3.1,1.27-6.3,2.4-9.58,3.44v9.45c3.28-1.06,6.48-2.24,9.57-3.54Z"/><path class="cls-20" d="M17.59,209.5v-8.81a65.67,65.67,0,0,1-9.79-8.79v8.28A70.41,70.41,0,0,0,17.59,209.5Z"/><path class="cls-20" d="M137.37,164.18c2.83-.68,5.57-1.47,8.29-2.29-1.9-2.64-3.8-5.26-5.68-7.91-.88.22-1.72.5-2.6.7Z"/><path class="cls-20" d="M148.09,213.33c3.28-1.06,6.49-2.23,9.58-3.53V199.25q-4.63,1.88-9.58,3.45Z"/><path class="cls-20" d="M115.67,158.42l0,9.56c3.35-.33,6.67-.75,10-1.28v-9.55C122.33,157.67,119,158.09,115.67,158.42Z"/><path class="cls-20" d="M115.65,170.21V181c3.34-.33,6.67-.76,10-1.29V169C122.32,169.47,119,169.88,115.65,170.21Z"/><path class="cls-20" d="M115.64,183.39V193q5-.51,10-1.28v-9.56C122.3,182.64,119,183.05,115.64,183.39Z"/><path class="cls-20" d="M125.55,221.11c-3.29.5-6.6.93-10,1.25v9.56c3.34-.32,6.67-.74,10-1.26Z"/><path class="cls-20" d="M115.6,220c3.35-.31,6.67-.74,10-1.27V207.94c-3.29.51-6.6.92-10,1.25Z"/><path class="cls-20" d="M114.4,222.47c-3.18.29-6.39.5-9.6.6v9.59c3.21-.13,6.42-.33,9.6-.62Z"/><path class="cls-20" d="M104.87,147v9.59q4.83-.2,9.61-.63v-9.57C111.29,146.67,108.08,146.88,104.87,147Z"/><path class="cls-20" d="M7.84,165.09v10a71.52,71.52,0,0,0,9.79,9.31V173.82A66.46,66.46,0,0,1,7.84,165.09Z"/><path class="cls-20" d="M104.86,159v9.58c3.22-.12,6.42-.34,9.6-.63l0-9.57C111.28,158.65,108.08,158.85,104.86,159Z"/><path class="cls-20" d="M126.77,193.91v11.42q4.76-.81,9.38-1.86V192.08C133.07,192.79,129.94,193.39,126.77,193.91Z"/><path class="cls-20" d="M115.68,146.27v9.57c3.34-.34,6.66-.77,9.94-1.28V145C122.34,145.52,119,146,115.68,146.27Z"/><path class="cls-20" d="M146.9,216.24q-4.69,1.44-9.58,2.59v9.48q4.89-1.16,9.57-2.62Z"/><path class="cls-20" d="M137.36,179.83v9.48q4.89-1.16,9.57-2.63v-9.45Q142.25,178.67,137.36,179.83Z"/><path class="cls-20" d="M137.32,216.35c3.26-.78,6.46-1.65,9.58-2.65V203.07q-4.69,1.44-9.57,2.59Z"/><path class="cls-20" d="M148.12,188.83l0,11.34c3.3-1.08,6.49-2.24,9.58-3.55V185.37C154.6,186.64,151.4,187.78,148.12,188.83Z"/><path class="cls-20" d="M137.35,191.79v11.39c3.25-.78,6.45-1.67,9.57-2.65V189.21Q142.24,190.65,137.35,191.79Z"/><path class="cls-20" d="M153.38,172.38l-5.24-7.09v9C149.93,173.74,151.64,173,153.38,172.38Z"/><path class="cls-20" d="M137.36,177.35q4.89-1.15,9.58-2.66V164.05q-4.69,1.45-9.58,2.6Z"/><path class="cls-20" d="M126.8,168.77v10.74c3.16-.54,6.29-1.15,9.37-1.87l0-10.7C133.09,167.64,130,168.24,126.8,168.77Z"/><path class="cls-20" d="M126.74,218.5c3.17-.53,6.31-1.15,9.38-1.86l0-10.69c-3.09.68-6.21,1.29-9.38,1.8Z"/><path class="cls-20" d="M126.81,156.8v9.54q4.76-.81,9.38-1.87V155C133.11,155.67,130,156.28,126.81,156.8Z"/><path class="cls-20" d="M126.79,181.94l0,9.54q4.76-.79,9.38-1.87v-9.49C133.08,180.81,130,181.42,126.79,181.94Z"/><path class="cls-20" d="M132.73,143.68c-2,.4-3.91.82-5.91,1.15v9.53c3.16-.52,6.29-1.16,9.37-1.87v-3.84C135,147,133.87,145.33,132.73,143.68Z"/><path class="cls-20" d="M138.5,151.9l-1.11-1.58v1.88C137.76,152.11,138.12,152,138.5,151.9Z"/><path class="cls-20" d="M136.12,219.1q-4.62,1.05-9.38,1.83v9.55c3.17-.53,6.3-1.16,9.39-1.86Z"/><path class="cls-20" d="M26.59,167.6a86.3,86.3,0,0,1-7.76-4.89v8.89a77.94,77.94,0,0,0,9,5.86q.31.18.63.33v-9.2C27.81,168.26,27.19,167.94,26.59,167.6Z"/><path class="cls-20" d="M103.59,235.1c-1.76.05-3.52.08-5.28.08-1.43,0-2.87,0-4.29-.07l0,9.59q4.78.12,9.58,0Z"/><path class="cls-20" d="M92.82,235.08c-3.14-.08-6.27-.27-9.38-.52v9.57c3.11.26,6.24.44,9.37.54Z"/><path class="cls-20" d="M82.24,234.45q-4.83-.44-9.58-1.13v9.55c3.16.46,6.35.85,9.57,1.14Z"/><path class="cls-20" d="M7.87,128v8.28a71.07,71.07,0,0,0,9.78,9.25v-8.81A68,68,0,0,1,7.87,128Z"/><path class="cls-20" d="M114.39,234.45q-4.78.42-9.6.6v9.57c3.21-.11,6.42-.31,9.6-.61Z"/><path class="cls-20" d="M7.82,188.23a70.8,70.8,0,0,0,9.78,9.3l0-10a65.58,65.58,0,0,1-9.79-8.77Z"/><path class="cls-20" d="M7.86,153.13l0,8.28a71.22,71.22,0,0,0,9.79,9.26v-8.81A65.3,65.3,0,0,1,7.86,153.13Z"/><path class="cls-20" d="M7.87,140v9.48a71.13,71.13,0,0,0,9.78,9.26v-10A65.2,65.2,0,0,1,7.87,140Z"/><path class="cls-20" d="M7.89,116.07v8.27a70.6,70.6,0,0,0,9.79,9.25v-8.81A67.52,67.52,0,0,1,7.89,116.07Z"/><path class="cls-20" d="M180.4,211.62v8.52a69,69,0,0,0,5.59-5.47L182.28,210C181.64,210.54,181.07,211.1,180.4,211.62Z"/><path class="cls-20" d="M136.11,231.08c-3.08.7-6.21,1.3-9.38,1.83v9.54c3.18-.53,6.3-1.15,9.38-1.86Z"/><path class="cls-20" d="M125.54,233.09q-4.94.76-10,1.24v9.57c3.34-.33,6.66-.75,10-1.28Z"/><path class="cls-20" d="M146.88,228.22q-4.69,1.44-9.57,2.58v9.5q4.89-1.17,9.57-2.63Z"/><path class="cls-20" d="M157.66,224.4c-3.1,1.27-6.31,2.39-9.58,3.44v9.45c3.28-1.07,6.48-2.24,9.58-3.54Z"/><path class="cls-20" d="M179.2,212.51a84.7,84.7,0,0,1-9.17,6v9.16a71.47,71.47,0,0,0,9.18-6.46Z"/><path class="cls-20" d="M168.83,219.1a109.46,109.46,0,0,1-10,4.8v9.33a106.13,106.13,0,0,0,9.86-4.84l.11-.06Z"/><path class="cls-20" d="M6.64,173.62v-9.89A46.88,46.88,0,0,1,1,155.54v9.27A44.64,44.64,0,0,0,6.64,173.62Z"/><path class="cls-20" d="M49.92,228.27q-4.81-1.47-9.38-3.26v9.38q4.56,1.81,9.38,3.33Z"/><path class="cls-20" d="M39.34,224.56c-3.38-1.38-6.65-2.88-9.78-4.51v9.22q4.68,2.52,9.77,4.64Z"/><path class="cls-20" d="M28.36,219.41c-.54-.28-1.1-.57-1.64-.88a89.82,89.82,0,0,1-7.94-5v8.89a81.31,81.31,0,0,0,9.14,6l.45.24Z"/><path class="cls-20" d="M71.46,233.14c-3.16-.48-6.29-1.06-9.37-1.72v9.51q4.62,1,9.38,1.75Z"/><path class="cls-20" d="M60.89,231.16q-5-1.09-9.77-2.51v9.44q4.78,1.44,9.77,2.59Z"/><path class="cls-20" d="M17.59,212.65a65.67,65.67,0,0,1-9.79-8.79v8.27a71.63,71.63,0,0,0,9.79,9.33Z"/><path class="cls-20" d="M6.68,122.92l0-8.22a46.24,46.24,0,0,1-5.65-8.15v7.72A46,46,0,0,0,6.68,122.92Z"/><path class="cls-20" d="M6.6,202.49A47.31,47.31,0,0,1,1,194.17v7.67a44.35,44.35,0,0,0,5.64,8.85Z"/><path class="cls-20" d="M6.68,134.87v-8.21A46.47,46.47,0,0,1,1,118.49v7.72A45.36,45.36,0,0,0,6.68,134.87Z"/><path class="cls-20" d="M6.65,160v-8.22A46.07,46.07,0,0,1,1,143.58v7.72A44.92,44.92,0,0,0,6.65,160Z"/><path class="cls-20" d="M6.66,148v-9.41A46.24,46.24,0,0,1,1,130.45v8.91A45.28,45.28,0,0,0,6.66,148Z"/><path class="cls-20" d="M6.61,198.73v-8.2A47.07,47.07,0,0,1,1,182.23v7.67A45.52,45.52,0,0,0,6.61,198.73Z"/><path class="cls-20" d="M6.62,186.78v-9.41A47.18,47.18,0,0,1,1,169.08V178A45.94,45.94,0,0,0,6.62,186.78Z"/><path class="cls-20" d="M115.62,195.35v11.44c3.35-.33,6.67-.74,10-1.28V194.09Q120.65,194.87,115.62,195.35Z"/><path class="cls-20" d="M40.6,161v10.57q4.56,1.81,9.38,3.31V164.23C46.78,163.26,43.65,162.17,40.6,161Z"/><path class="cls-20" d="M40.61,149v9.36c3,1.21,6.18,2.32,9.39,3.32v-9.44C46.79,151.3,43.66,150.21,40.61,149Z"/><path class="cls-20" d="M40.63,137.06v9.37q4.56,1.81,9.38,3.32V140.3Q45.19,138.85,40.63,137.06Z"/><path class="cls-20" d="M40.58,174.16v9.36c3,1.22,6.17,2.32,9.38,3.32V177.4C46.76,176.43,43.63,175.34,40.58,174.16Z"/><path class="cls-20" d="M104.83,184.11v9.57c3.21-.11,6.41-.32,9.6-.61V183.5Q109.66,183.94,104.83,184.11Z"/><path class="cls-20" d="M40.55,210.45c3,1.21,6.18,2.33,9.39,3.33V203.14c-3.21-1-6.35-2.07-9.39-3.25Z"/><path class="cls-20" d="M40.58,186.13v11.16c3,1.22,6.17,2.32,9.38,3.32V189.37Q45.15,187.9,40.58,186.13Z"/><path class="cls-20" d="M39.35,212.57c-3.38-1.35-6.65-2.86-9.78-4.49v9.22a107.24,107.24,0,0,0,9.78,4.64Z"/><path class="cls-20" d="M51.16,189.74l0,11.24q4.8,1.46,9.77,2.59l0-11.33Q56,191.13,51.16,189.74Z"/><path class="cls-20" d="M51.13,214.15q4.78,1.44,9.77,2.59V206c-3.31-.74-6.58-1.57-9.77-2.52Z"/><path class="cls-20" d="M51.17,177.78v9.44q4.79,1.44,9.77,2.56v-9.51Q56,179.18,51.17,177.78Z"/><path class="cls-20" d="M51.19,152.64v9.44Q56,163.52,61,164.65v-9.51C57.65,154.41,54.38,153.58,51.19,152.64Z"/><path class="cls-20" d="M51.19,164.61l0,10.64q4.78,1.44,9.77,2.57V167.11C57.64,166.38,54.37,165.55,51.19,164.61Z"/><path class="cls-20" d="M51.21,140.67l0,9.44c3.19,1,6.46,1.82,9.78,2.57v-9.51C57.66,142.42,54.39,141.61,51.21,140.67Z"/><path class="cls-20" d="M49.94,216.31c-3.21-1-6.35-2.07-9.39-3.26v9.37q4.56,1.82,9.38,3.33Z"/><path class="cls-20" d="M28.36,216.67v-9.22c-.54-.3-1.11-.58-1.65-.89a87.14,87.14,0,0,1-7.92-5v8.88a79.69,79.69,0,0,0,9.12,6C28.06,216.51,28.22,216.58,28.36,216.67Z"/><path class="cls-20" d="M29.65,132.13v9.22A107,107,0,0,0,39.42,146v-9.37C36.05,135.23,32.78,133.75,29.65,132.13Z"/><path class="cls-20" d="M29.6,181.19v11c3.13,1.68,6.38,3.23,9.78,4.64V185.65C36,184.29,32.73,182.81,29.6,181.19Z"/><path class="cls-20" d="M29.64,144.09v9.22q4.69,2.5,9.77,4.62l0-9.37C36,147.2,32.77,145.72,29.64,144.09Z"/><path class="cls-20" d="M29.63,156.06v10.41c3.12,1.67,6.38,3.22,9.77,4.62V160.53Q34.33,158.49,29.63,156.06Z"/><path class="cls-20" d="M29.61,169.23v9.21a104.44,104.44,0,0,0,9.77,4.61v-9.36C36,172.34,32.74,170.84,29.61,169.23Z"/><path class="cls-20" d="M29.57,205.34A106.13,106.13,0,0,0,39.36,210V199.41q-5.09-2-9.78-4.48Z"/><path class="cls-20" d="M83.49,183.65v9.56c3.11.25,6.24.44,9.38.53v-9.58C89.73,184.07,86.6,183.91,83.49,183.65Z"/><path class="cls-20" d="M83.45,220.19c3.11.26,6.25.44,9.38.53V210q-4.71-.13-9.38-.53Z"/><path class="cls-20" d="M83.47,195.62V207c3.1.26,6.23.43,9.37.53l0-11.42Q88.14,196,83.47,195.62Z"/><path class="cls-20" d="M83.5,170.48v10.76q4.67.39,9.38.53V171C89.75,170.9,86.61,170.73,83.5,170.48Z"/><path class="cls-20" d="M83.52,146.54v9.56c3.12.26,6.24.44,9.38.53l0-9.58C89.76,147,86.63,146.8,83.52,146.54Z"/><path class="cls-20" d="M83.51,158.51v9.57c3.11.25,6.25.43,9.38.53V159C89.75,158.94,86.63,158.76,83.51,158.51Z"/><path class="cls-20" d="M72.74,157.29v9.53c3.16.47,6.36.85,9.57,1.14V158.4C79.1,158.11,75.9,157.74,72.74,157.29Z"/><path class="cls-20" d="M72.75,145.31v9.55q4.76.7,9.57,1.12l0-9.55C79.11,146.14,75.91,145.77,72.75,145.31Z"/><path class="cls-20" d="M82.25,222.48c-3.22-.29-6.41-.66-9.57-1.13l0,9.54c3.17.47,6.37.85,9.58,1.15Z"/><path class="cls-20" d="M98.18,147.14c-1.37,0-2.73,0-4.08-.06v9.59c3.19.05,6.39.05,9.58,0V147C101.84,147.1,100,147.14,98.18,147.14Z"/><path class="cls-20" d="M98.18,159.1c-1.37,0-2.73,0-4.1,0v9.57c3.19.09,6.39.08,9.57,0V159C101.84,159.06,100,159.1,98.18,159.1Z"/><path class="cls-20" d="M98.18,171.08c-1.37,0-2.74,0-4.1-.06V181.8c3.18.07,6.38.06,9.57,0V171C101.83,171.05,100,171.08,98.18,171.08Z"/><path class="cls-20" d="M103.6,223.12c-1.76,0-3.53.09-5.29.09-1.43,0-2.86,0-4.29-.06v9.58c3.19.07,6.38.07,9.57,0Z"/><path class="cls-20" d="M104.83,196.08l0,11.43c3.22-.12,6.42-.33,9.61-.61V195.47C111.24,195.75,108,196,104.83,196.08Z"/><path class="cls-20" d="M98.18,184.24c-1.38,0-2.74,0-4.12,0v9.57c3.19.07,6.39.06,9.58,0v-9.57C101.82,184.21,100,184.24,98.18,184.24Z"/><path class="cls-20" d="M92.83,223.11q-4.71-.15-9.38-.52v9.56q4.66.4,9.38.54Z"/><path class="cls-20" d="M94,220.75c3.18.09,6.39.08,9.57,0l0-10.77c-1.77.05-3.54.09-5.31.09-1.43,0-2.85,0-4.28-.07Z"/><path class="cls-20" d="M98.18,196.21c-1.38,0-2.75,0-4.13-.05v11.43c3.19.07,6.38.07,9.58,0V196.13C101.81,196.18,100,196.21,98.18,196.21Z"/><path class="cls-20" d="M104.8,220.68c3.21-.11,6.42-.32,9.61-.61V209.3c-3.19.29-6.4.49-9.61.6Z"/><path class="cls-20" d="M62.18,143.42l0,9.52c3.09.67,6.22,1.24,9.39,1.74v-9.55C68.39,144.65,65.26,144.08,62.18,143.42Z"/><path class="cls-20" d="M159,122.59v10.52a104.77,104.77,0,0,0,9.62-4.73,3.24,3.24,0,0,0,.35-.21v-10.4A108.31,108.31,0,0,1,159,122.59Z"/><path class="cls-20" d="M148.18,126.56V137.2q4.94-1.6,9.58-3.56V123.09C154.66,124.37,151.46,125.51,148.18,126.56Z"/><path class="cls-20" d="M147,126.93q-4.68,1.45-9.57,2.6v10.7c3.26-.78,6.45-1.68,9.57-2.66Z"/><path class="cls-20" d="M191.28,99.56V108a46.1,46.1,0,0,0,4.46-8c0-2.45,0-4.92,0-7.41A45,45,0,0,1,191.28,99.56Z"/><path class="cls-20" d="M170.13,117.12v10.35a70.36,70.36,0,0,0,9.17-6.52l0-9.82A87.6,87.6,0,0,1,170.13,117.12Z"/><path class="cls-20" d="M136.2,140.52v-10.7c-3.07.71-6.21,1.3-9.38,1.83v3.46c1.45,2.13,2.93,4.27,4.41,6.4C132.9,141.18,134.57,140.89,136.2,140.52Z"/><path class="cls-20" d="M180.5,110.22v9.7a67.39,67.39,0,0,0,9.58-10.29v-8.57A62.66,62.66,0,0,1,180.5,110.22Z"/><path class="cls-20" d="M125.64,131.84c-.3,0-.61.07-.91.11l.9,1.37Z"/><path class="cls-20" d="M26.59,117.33a90.58,90.58,0,0,1-7.7-4.86v10.09a78.36,78.36,0,0,0,8.9,5.82l.67.35,0-10.4C27.84,118,27.2,117.68,26.59,117.33Z"/><path class="cls-20" d="M131.24,141.51c-1.48-2.13-3-4.27-4.41-6.4v7.28C128.32,142.13,129.76,141.8,131.24,141.51Z"/><path class="cls-20" d="M124.73,132c-3,.45-6,.85-9,1.16v10.76c3.34-.34,6.66-.76,9.94-1.28v-9.27Z"/><path class="cls-20" d="M104.89,133.83V144.6c3.21-.12,6.41-.32,9.6-.63V133.21C111.31,133.51,108.1,133.71,104.89,133.83Z"/><path class="cls-20" d="M7.9,102.9v9.48a71.08,71.08,0,0,0,9.79,9.24v-10A65.8,65.8,0,0,1,7.9,102.9Z"/><path class="cls-20" d="M6.7,111v-9.41A47.16,47.16,0,0,1,1.06,93.4v8.92A46.22,46.22,0,0,0,6.7,111Z"/><path class="cls-20" d="M51.22,127.51v10.63Q56,139.58,61,140.71V130C57.67,129.27,54.41,128.45,51.22,127.51Z"/><path class="cls-20" d="M29.66,119v10.42A105.64,105.64,0,0,0,39.43,134V123.43C36.06,122.07,32.79,120.59,29.66,119Z"/><path class="cls-20" d="M40.64,123.89v10.57c3,1.21,6.17,2.31,9.38,3.32V127.13Q45.21,125.68,40.64,123.89Z"/><path class="cls-20" d="M83.54,133.37v10.77c3.1.25,6.24.42,9.38.52V133.88C89.78,133.8,86.64,133.63,83.54,133.37Z"/><path class="cls-20" d="M72.76,132.15v10.73c3.16.47,6.36.85,9.58,1.14V133.26C79.13,133,75.93,132.61,72.76,132.15Z"/><path class="cls-20" d="M98.18,134c-1.36,0-2.71,0-4.07-.06v10.77c3.19.09,6.39.07,9.58,0V133.87C101.85,133.93,100,134,98.18,134Z"/><path class="cls-20" d="M62.19,130.26V141c3.09.66,6.21,1.26,9.37,1.75l0-10.75C68.4,131.49,65.27,130.91,62.19,130.26Z"/><path class="cls-20" d="M159,109.43V120c3.34-1.45,6.56-3,9.62-4.73l.35-.21v-10.4Q164.16,107.22,159,109.43Z"/><path class="cls-20" d="M148.18,113.4V124q4.94-1.61,9.58-3.56V109.93C154.66,111.2,151.46,112.34,148.18,113.4Z"/><path class="cls-20" d="M147,113.76q-4.68,1.45-9.57,2.61v10.69q4.89-1.17,9.57-2.66Z"/><path class="cls-20" d="M191.28,86.39v8.4a45.73,45.73,0,0,0,4.46-8c0-2.45,0-4.92,0-7.41A44.52,44.52,0,0,1,191.28,86.39Z"/><path class="cls-20" d="M170.13,104V114.3a70.36,70.36,0,0,0,9.17-6.52l0-9.81A89.18,89.18,0,0,1,170.13,104Z"/><path class="cls-20" d="M136.2,127.35V116.66c-3.07.7-6.21,1.3-9.38,1.83v3.45c1.45,2.13,2.93,4.27,4.41,6.4C132.9,128,134.57,127.73,136.2,127.35Z"/><path class="cls-20" d="M180.5,97.06v9.7a67.91,67.91,0,0,0,9.58-10.3V87.89A62.23,62.23,0,0,1,180.5,97.06Z"/><path class="cls-20" d="M125.64,118.67c-.3,0-.61.07-.91.12.3.45.6.9.9,1.37Z"/><path class="cls-20" d="M26.59,104.16a85.83,85.83,0,0,1-7.7-4.86v10.09a78.42,78.42,0,0,0,8.9,5.83l.67.35,0-10.41C27.84,104.83,27.2,104.51,26.59,104.16Z"/><path class="cls-20" d="M131.24,128.34c-1.48-2.13-3-4.27-4.41-6.4v7.28C128.32,129,129.76,128.64,131.24,128.34Z"/><path class="cls-20" d="M124.73,118.79c-3,.45-6,.84-9,1.15V130.7c3.34-.33,6.66-.76,9.94-1.28v-9.26C125.33,119.69,125,119.24,124.73,118.79Z"/><path class="cls-20" d="M104.89,120.67v10.76q4.82-.17,9.6-.62V120.05C111.31,120.34,108.1,120.55,104.89,120.67Z"/><path class="cls-20" d="M7.9,89.74v9.48a71.08,71.08,0,0,0,9.79,9.24v-10A66.36,66.36,0,0,1,7.9,89.74Z"/><path class="cls-20" d="M6.7,97.79V88.38a46.4,46.4,0,0,1-5.65-8.15v8.93A46.49,46.49,0,0,0,6.7,97.79Z"/><path class="cls-20" d="M51.22,114.34V125c3.19,1,6.45,1.82,9.77,2.57V116.83Q56,115.75,51.22,114.34Z"/><path class="cls-20" d="M29.66,105.8v10.41a103.12,103.12,0,0,0,9.77,4.61V110.27C36.06,108.9,32.79,107.42,29.66,105.8Z"/><path class="cls-20" d="M40.64,110.72V121.3c3,1.21,6.17,2.31,9.38,3.31V114Q45.21,112.51,40.64,110.72Z"/><path class="cls-20" d="M83.54,120.2V131c3.1.25,6.24.42,9.38.53V120.72C89.78,120.63,86.64,120.46,83.54,120.2Z"/><path class="cls-20" d="M72.76,119v10.74c3.16.46,6.36.84,9.58,1.13V120.09C79.13,119.8,75.93,119.44,72.76,119Z"/><path class="cls-20" d="M98.18,120.8c-1.36,0-2.71,0-4.07,0v10.77c3.19.08,6.39.06,9.58,0V120.71C101.85,120.76,100,120.8,98.18,120.8Z"/><path class="cls-20" d="M62.19,117.09V127.8c3.09.66,6.21,1.26,9.37,1.74l0-10.74C68.4,118.33,65.27,117.74,62.19,117.09Z"/><path class="cls-20" d="M62.15,167.36v10.71c3.08.68,6.21,1.25,9.38,1.73V169.07C68.37,168.59,65.23,168,62.15,167.36Z"/><path class="cls-20" d="M62.14,180.53V190c3.08.66,6.21,1.25,9.38,1.74v-9.54Q66.76,181.52,62.14,180.53Z"/><path class="cls-20" d="M62.1,217q4.62,1,9.38,1.75V208c-3.17-.48-6.3-1.06-9.38-1.71Z"/><path class="cls-20" d="M62.13,192.5l0,11.33c3.08.67,6.21,1.26,9.38,1.75V194.2C68.34,193.72,65.21,193.15,62.13,192.5Z"/><path class="cls-20" d="M71.48,221.18c-3.17-.5-6.3-1.07-9.38-1.73V229c3.08.68,6.21,1.26,9.37,1.76Z"/><path class="cls-20" d="M60.9,219.19q-5-1.11-9.77-2.51v9.44q4.79,1.45,9.77,2.58Z"/><path class="cls-20" d="M62.16,155.39v9.52c3.08.66,6.22,1.25,9.38,1.73l0-9.54C68.38,156.62,65.25,156.06,62.16,155.39Z"/><path class="cls-20" d="M72.73,169.25V180q4.74.7,9.57,1.14V170.36C79.09,170.09,75.89,169.71,72.73,169.25Z"/><path class="cls-20" d="M72.7,194.39v11.37q4.74.7,9.58,1.14V195.5Q77.46,195.08,72.7,194.39Z"/><path class="cls-20" d="M72.68,218.92q4.74.71,9.57,1.16V209.31q-4.83-.44-9.57-1.13Z"/><path class="cls-20" d="M72.71,182.42V192c3.16.45,6.35.84,9.57,1.13v-9.57C79.07,183.24,75.88,182.88,72.71,182.42Z"/><path class="cls-21" d="M1.28,89.32,1.2,82a46.4,46.4,0,0,0,5.65,8.15v4.14L8,95.58v-4a66.36,66.36,0,0,0,9.79,8.71v5.63l1.2,1.26v-6a87.28,87.28,0,0,0,7.7,4.86c.62.35,1.25.67,1.88,1v5.42l1.2.5V107.6c3.12,1.62,6.39,3.1,9.77,4.46V117l1.2.5v-4.93q4.56,1.78,9.38,3.24v5.6l1.2.5v-5.72q4.78,1.41,9.77,2.49v5.26l1.2.21v-5.21c3.08.65,6.21,1.23,9.38,1.71v5.17l1.2.21v-5.2c3.17.46,6.37.82,9.58,1.11v5.8l1.19.21V122c3.1.26,6.24.43,9.38.52v5.73l1.2-.05v-5.65c1.36,0,2.71,0,4.07,0,1.84,0,3.67,0,5.51-.09v5.25l1.19-.06v-5.23c3.21-.12,6.42-.33,9.6-.62v5.42l1.19-.06v-5.47c3-.31,6-.7,9-1.16.3,0,.61-.06.91-.11v6.24l1.2-.46v-6c3.17-.53,6.31-1.13,9.38-1.83v4.25l1.21-.46v-4.08q4.89-1.15,9.57-2.61v3.07l1.2-.45v-3c3.28-1.06,6.48-2.2,9.58-3.48v2.84l1.2-.45v-2.88q5.19-2.2,10-4.82v3.93l1.2-.45v-4.14a89.18,89.18,0,0,0,9.18-6v4.49l1.2-1.39v-4a62.7,62.7,0,0,0,9.58-9.17v2l1.19-1.4V88.19a44.52,44.52,0,0,0,4.46-7c0,1.32,0,5.49,0,6.8l.94-1.09c0-3.13-.05-9-.05-12.21a72.59,72.59,0,0,1-4.84,7.93,74.61,74.61,0,0,1-22.9,21c-10.12,6-21.4,9.72-32.82,12.36-3.45.8-6.95,1.46-10.44,2-10.59,1.75-21.18,2.12-31.89,2.2a138.6,138.6,0,0,1-30-2.86,121.84,121.84,0,0,1-18.51-5.51A120.54,120.54,0,0,1,24,101.39C14.9,95.57,6,87.67,1.21,77.82l-1-.43L.29,88.81Z"/><path class="cls-22" d="M64,128.76a121.84,121.84,0,0,1-18.51-5.51,120.21,120.21,0,0,1-21.36-10.49C15,106.94,6.11,99,1.28,89.19l-1-.44L0,205.27c.3.86.8,1.67,1.16,2.51v-1.66c4.83,9.21,13.67,17.59,25.77,24.4,19.73,11.08,45.66,16.63,71.59,16.63s51.85-5.55,71.58-16.63A75.29,75.29,0,0,0,188,216.9a48.46,48.46,0,0,0,7.91-10.84c.11-.2.23-.4.34-.62a1.69,1.69,0,0,0,.13-.54l.6-1.47c0-27.22-.09-69.56-.15-117.38A72.66,72.66,0,0,1,192,94a74.77,74.77,0,0,1-22.91,21c-10.11,6-21.39,9.71-32.81,12.36-3.46.8-7,1.46-10.44,2-10.6,1.75-21.18,2.12-31.89,2.19M6.8,210.69a44.8,44.8,0,0,1-5.64-8.85v-7.67a46.77,46.77,0,0,0,5.64,8.32Zm0-12a45.44,45.44,0,0,1-5.64-8.83v-7.67a47,47,0,0,0,5.64,8.3Zm0-11.95A45.46,45.46,0,0,1,1.18,178v-8.88a47.18,47.18,0,0,0,5.65,8.29Zm0-13.16a45,45,0,0,1-5.64-8.81v-9.27a47.36,47.36,0,0,0,5.64,8.19Zm0-13.64a45.47,45.47,0,0,1-5.65-8.68v-7.71a46.84,46.84,0,0,0,5.64,8.17Zm0-12a45.84,45.84,0,0,1-5.65-8.66v-8.91a46.85,46.85,0,0,0,5.65,8.16Zm0-13.15a46,46,0,0,1-5.64-8.65v-7.73a47.08,47.08,0,0,0,5.65,8.17Zm0-12a46,46,0,0,1-5.64-8.65v-7.72A46.71,46.71,0,0,0,6.9,114.7Zm0-12a46.15,46.15,0,0,1-5.64-8.64V93.4a46.61,46.61,0,0,0,5.65,8.15Zm10.89,110.5A71.05,71.05,0,0,1,8,212.13v-8.27a66.08,66.08,0,0,0,9.78,8.79Zm0-12A70.88,70.88,0,0,1,8,200.18V191.9a65.67,65.67,0,0,0,9.79,8.79Zm0-12A70.3,70.3,0,0,1,8,188.23l0-9.48a65.48,65.48,0,0,0,9.78,8.77Zm0-13.15A71.52,71.52,0,0,1,8,175.07v-10a66.46,66.46,0,0,0,9.79,8.73Zm0-13.71a71.2,71.2,0,0,1-9.79-9.25v-8.29a66.3,66.3,0,0,0,9.78,8.73Zm0-12a71.22,71.22,0,0,1-9.79-9.26l0-9.48a65.2,65.2,0,0,0,9.78,8.72Zm0-13.16a71.07,71.07,0,0,1-9.78-9.25V128a67.45,67.45,0,0,0,9.79,8.72Zm0-12a71.82,71.82,0,0,1-9.8-9.24l0-8.28a67.43,67.43,0,0,0,9.78,8.71Zm0-12a69.38,69.38,0,0,1-9.79-9.24V102.9a65.8,65.8,0,0,0,9.79,8.71Zm10.67,107-.44-.24a80.42,80.42,0,0,1-9.14-6v-8.89a89.82,89.82,0,0,0,7.94,5c.54.31,1.1.6,1.64.88Zm0-12c-.14-.09-.31-.16-.45-.25a79.69,79.69,0,0,1-9.12-6v-8.88a85.77,85.77,0,0,0,7.92,5c.54.31,1.11.59,1.65.89Zm0-12c-.16-.09-.32-.16-.47-.26a78.57,78.57,0,0,1-9.11-6V188.39a89.33,89.33,0,0,0,7.92,5c.54.31,1.11.6,1.67.9Zm0-13.16c-.15-.09-.32-.17-.48-.25a78.5,78.5,0,0,1-9.1-6V174.67a86,86,0,0,0,7.77,4.9c.59.34,1.21.66,1.81,1Zm0-13.75c-.21-.1-.43-.21-.63-.33a78.07,78.07,0,0,1-9-5.86v-8.89a86.3,86.3,0,0,0,7.76,4.89c.6.34,1.21.66,1.83,1Zm0-12c-.22-.11-.44-.22-.64-.34A78.75,78.75,0,0,1,19,159.64l0-10.09a87.59,87.59,0,0,0,7.74,4.89c.6.33,1.22.66,1.84,1Zm0-13.16-.65-.35a77.54,77.54,0,0,1-8.93-5.84v-8.89a82.91,82.91,0,0,0,7.73,4.87c.6.35,1.23.67,1.85,1Zm0-12c-.23-.12-.46-.23-.67-.35a78.15,78.15,0,0,1-8.92-5.82v-8.9a84,84,0,0,0,7.72,4.86c.61.34,1.24.66,1.86,1Zm0-12-.67-.35a79.39,79.39,0,0,1-8.91-5.82V112.47a90.79,90.79,0,0,0,7.71,4.86c.61.35,1.25.66,1.87,1ZM39.54,233.91c-3.4-1.41-6.65-3-9.78-4.64v-9.22q4.69,2.44,9.78,4.51Zm0-12a107.24,107.24,0,0,1-9.78-4.64v-9.22a106.42,106.42,0,0,0,9.78,4.49Zm0-12a107.19,107.19,0,0,1-9.78-4.63l0-10.41q4.69,2.43,9.78,4.48Zm0-13.15a106,106,0,0,1-9.78-4.64v-11q4.69,2.43,9.78,4.46Zm0-13.77a105.84,105.84,0,0,1-9.78-4.61v-9.21c3.13,1.61,6.4,3.11,9.78,4.46Zm0-12c-3.39-1.4-6.65-3-9.77-4.62V156.06c3.13,1.62,6.4,3.1,9.78,4.47Zm0-13.16q-5.09-2.12-9.78-4.62v-9.22c3.13,1.63,6.4,3.11,9.79,4.47Zm0-12a107.22,107.22,0,0,1-9.78-4.61v-9.22c3.13,1.62,6.4,3.1,9.78,4.46Zm0-12a107.07,107.07,0,0,1-9.78-4.61V119c3.13,1.63,6.39,3.11,9.77,4.47ZM50.12,237.72c-3.21-1-6.35-2.12-9.38-3.33V225c3,1.2,6.17,2.28,9.38,3.26Zm0-12c-3.21-1-6.35-2.12-9.38-3.33v-9.37q4.56,1.78,9.38,3.26Zm0-12c-3.21-1-6.35-2.11-9.38-3.33V199.89q4.56,1.77,9.39,3.25Zm0-13.17q-4.83-1.5-9.39-3.32l0-11.16c3,1.18,6.17,2.26,9.38,3.24Zm0-13.77c-3.21-1-6.35-2.1-9.38-3.32v-9.36c3.05,1.18,6.18,2.27,9.39,3.24Zm0-12q-4.82-1.49-9.38-3.31V161c3,1.18,6.17,2.27,9.38,3.24Zm0-13.16q-4.81-1.5-9.38-3.32V149c3,1.18,6.17,2.27,9.38,3.24Zm0-12q-4.83-1.51-9.39-3.32v-9.37q4.56,1.78,9.39,3.25Zm0-12c-3.21-1-6.35-2.11-9.38-3.32V123.89q4.56,1.78,9.38,3.24Zm10.87,102.9c-3.32-.76-6.59-1.63-9.77-2.59v-9.44q4.8,1.41,9.78,2.51Zm0-12q-5-1.12-9.77-2.59v-9.44c3.18.94,6.45,1.77,9.77,2.51Zm0-12q-5-1.14-9.77-2.59V203.51c3.19,1,6.45,1.78,9.77,2.52Zm0-13.17q-5-1.14-9.77-2.59V189.74c3.19.94,6.46,1.76,9.78,2.5Zm0-13.79c-3.32-.74-6.59-1.6-9.77-2.56v-9.44c3.18.93,6.45,1.76,9.77,2.49Zm0-12q-5-1.14-9.77-2.57V164.61q4.78,1.41,9.77,2.5Zm0-13.17q-5-1.12-9.77-2.57v-9.44c3.19.94,6.46,1.77,9.77,2.5Zm0-12c-3.31-.75-6.58-1.61-9.77-2.57l0-9.44c3.18.94,6.45,1.75,9.76,2.5Zm0-12c-3.32-.75-6.59-1.61-9.77-2.57V127.51c3.19.94,6.45,1.76,9.77,2.49Zm10.47,102q-4.74-.74-9.38-1.75l0-9.51c3.08.66,6.2,1.24,9.37,1.72Zm0-12c-3.16-.5-6.29-1.08-9.37-1.76v-9.51c3.09.66,6.22,1.23,9.38,1.73Zm0-12c-3.16-.49-6.29-1.07-9.37-1.75v-10.7c3.09.65,6.22,1.23,9.39,1.71Zm0-13.16c-3.17-.49-6.3-1.08-9.38-1.75V192.5q4.64,1,9.38,1.7Zm0-13.8c-3.16-.49-6.29-1.08-9.38-1.74l0-9.51c3.08.66,6.21,1.23,9.37,1.71Zm0-12c-3.16-.48-6.29-1.05-9.37-1.73V167.36q4.62,1,9.38,1.71Zm0-13.16c-3.16-.48-6.3-1.07-9.38-1.73v-9.52c3.08.67,6.21,1.23,9.38,1.71Zm0-12c-3.17-.5-6.29-1.07-9.38-1.74v-9.52c3.09.66,6.21,1.23,9.38,1.71Zm0-12c-3.16-.49-6.29-1.09-9.38-1.75v-10.7c3.09.65,6.22,1.23,9.38,1.7ZM82.44,244c-3.22-.29-6.42-.68-9.58-1.14v-9.55c3.16.46,6.36.84,9.58,1.13Zm0-12c-3.22-.3-6.41-.67-9.58-1.15v-9.54c3.16.47,6.36.84,9.58,1.13Zm0-12c-3.22-.3-6.41-.68-9.58-1.16V208.18c3.16.46,6.36.84,9.58,1.13Zm0-13.18c-3.22-.29-6.42-.67-9.58-1.14l0-11.37c3.16.46,6.36.83,9.57,1.11Zm0-13.8c-3.22-.29-6.41-.68-9.58-1.13v-9.55c3.17.46,6.36.82,9.58,1.11Zm0-12q-4.83-.44-9.58-1.14V169.25c3.17.46,6.36.84,9.58,1.11Zm0-13.17q-4.83-.44-9.57-1.14v-9.53c3.17.45,6.37.82,9.58,1.11Zm0-12c-3.21-.28-6.41-.65-9.57-1.12v-9.55c3.17.46,6.36.83,9.59,1.12Zm0-12c-3.22-.29-6.42-.67-9.58-1.14V132.15c3.16.46,6.36.82,9.58,1.11ZM93,244.67c-3.14-.1-6.26-.28-9.38-.54l0-9.56c3.11.24,6.24.43,9.37.51Zm0-12q-4.71-.15-9.38-.55v-9.56c3.1.25,6.24.42,9.37.52Zm0-12c-3.13-.09-6.26-.27-9.37-.53V209.42c3.11.26,6.24.44,9.37.53Zm0-13.17c-3.14-.1-6.27-.27-9.38-.53V195.61q4.66.4,9.38.52Zm0-13.81c-3.14-.09-6.26-.28-9.38-.53v-9.56c3.12.26,6.24.42,9.38.51Zm0-12c-3.14-.09-6.26-.27-9.38-.53l0-10.76c3.11.25,6.24.42,9.37.52Zm0-13.16c-3.13-.1-6.27-.28-9.38-.53v-9.57c3.12.25,6.24.43,9.38.5Zm0-12c-3.14-.09-6.26-.27-9.38-.53v-9.56c3.11.26,6.24.42,9.38.51Zm0-12c-3.13-.11-6.27-.28-9.38-.53V133.37q4.67.39,9.38.51Zm10.68,100q-4.8.15-9.58,0v-9.6c1.43,0,2.86.07,4.3.07,1.76,0,3.52,0,5.28-.08Zm0-12c-3.2.1-6.39.1-9.58,0v-9.58c1.43,0,2.86.06,4.29.06,1.76,0,3.53,0,5.29-.09Zm0-12c-3.19.11-6.39.12-9.58,0V210c1.42.05,2.85.07,4.28.07,1.76,0,3.54,0,5.3-.09Zm0-13.16c-3.19.1-6.38.1-9.58,0V196.16c1.39,0,2.76.05,4.13.05,1.82,0,3.64,0,5.45-.08Zm0-13.83c-3.19.1-6.39.11-9.58,0V184.2c1.38,0,2.74,0,4.11,0,1.83,0,3.64,0,5.47-.08Zm0-12q-4.8.15-9.57,0V171c1.36,0,2.73.06,4.09.06,1.83,0,3.65,0,5.48-.09Zm0-13.16q-4.78.15-9.57,0v-9.57c1.37,0,2.73,0,4.09,0,1.83,0,3.66,0,5.48-.09Zm0-12c-3.19.1-6.39.1-9.58,0v-9.59c1.35,0,2.71.06,4.07.06,1.84,0,3.67,0,5.51-.1Zm0-12c-3.19.1-6.39.12-9.58,0V133.91c1.35,0,2.71.06,4.06.06,1.84,0,3.68,0,5.52-.1ZM114.59,244c-3.18.3-6.39.5-9.61.61v-9.57c3.22-.11,6.42-.32,9.61-.6Zm0-12c-3.19.29-6.39.49-9.61.62l0-9.59c3.21-.1,6.41-.31,9.6-.6Zm0-12c-3.19.29-6.39.5-9.6.61V209.9q4.82-.17,9.6-.6Zm0-13.17c-3.19.28-6.4.49-9.61.61V196.08c3.21-.12,6.42-.33,9.6-.61Zm0-13.83c-3.19.29-6.39.5-9.61.61v-9.57q4.83-.18,9.6-.61Zm0-12q-4.79.43-9.61.62V171c3.22-.14,6.42-.34,9.61-.62Zm0-13.18c-3.18.29-6.38.51-9.6.63V159c3.21-.12,6.42-.32,9.61-.62Zm0-12c-3.19.29-6.4.5-9.61.63V147c3.21-.11,6.42-.32,9.61-.61Zm0-12c-3.19.31-6.39.51-9.6.63V133.83c3.21-.12,6.42-.32,9.61-.62Zm11,98.66q-4.92.78-10,1.27v-9.57c3.34-.32,6.67-.73,9.95-1.24Zm0-12c-3.28.52-6.6.94-9.94,1.26v-9.56c3.34-.32,6.66-.75,9.94-1.25Zm0-12c-3.29.52-6.61.95-10,1.26V209.19c3.34-.33,6.66-.74,9.94-1.25Zm0-13.18c-3.28.54-6.6,1-10,1.28V195.35c3.35-.32,6.66-.74,10-1.26Zm0-13.83q-4.92.76-10,1.28l0-9.57c3.34-.34,6.66-.75,9.94-1.27Zm0-12c-3.28.53-6.6,1-9.94,1.29V170.21c3.35-.33,6.66-.74,10-1.26Zm0-13.16c-3.28.53-6.6.95-10,1.28v-9.57c3.34-.32,6.67-.75,9.95-1.26Zm0-12q-4.92.76-9.95,1.28v-9.57c3.35-.32,6.67-.75,10-1.27Zm0-21.24v9.27c-3.28.52-6.6.94-10,1.28V133.11c3-.31,6-.71,9-1.16.31,0,.61-.06.91-.11Zm10.47,107.27q-4.62,1.07-9.38,1.86v-9.54c3.17-.53,6.29-1.13,9.38-1.83Zm0-12c-3.08.7-6.21,1.33-9.38,1.86v-9.55c3.16-.52,6.3-1.13,9.38-1.83Zm0-12q-4.62,1.06-9.38,1.86V207.76c3.17-.52,6.3-1.13,9.38-1.81Zm0-13.17c-3.07.7-6.2,1.32-9.37,1.86V193.91c3.17-.52,6.29-1.12,9.37-1.83Zm0-13.86q-4.62,1.08-9.38,1.87v-9.54q4.76-.78,9.38-1.82Zm0-12c-3.08.72-6.21,1.33-9.38,1.87l0-10.74c3.16-.53,6.29-1.13,9.37-1.82Zm0-13.17c-3.09.71-6.21,1.33-9.38,1.87V156.8c3.18-.52,6.3-1.13,9.38-1.83Zm0-15.82v3.84c-3.08.71-6.2,1.35-9.37,1.87v-9.53c2-.33,3.94-.75,5.9-1.15,1.15-.25,2.33-.42,3.47-.68Zm0-8.13c-1.62.37-3.3.66-5,1-1.47.29-2.92.62-4.41.88V131.66c3.16-.54,6.3-1.13,9.38-1.84Zm10.68,97.15q-4.68,1.47-9.58,2.63v-9.5q4.89-1.14,9.58-2.58Zm0-12q-4.68,1.47-9.58,2.62l0-9.48c3.25-.76,6.45-1.63,9.57-2.59Zm0-12c-3.12,1-6.32,1.87-9.57,2.65l0-10.69c3.24-.77,6.44-1.63,9.57-2.59Zm0-13.17q-4.69,1.47-9.57,2.65V191.79q4.89-1.14,9.58-2.58Zm0-13.85q-4.68,1.47-9.57,2.63v-9.48c3.25-.77,6.45-1.64,9.57-2.6Zm0-12q-4.69,1.5-9.58,2.66v-10.7c3.25-.76,6.45-1.63,9.57-2.6Zm0-13.17c-.42.14-.87.23-1.29.37-2.72.82-5.47,1.61-8.29,2.29v-9.5c.88-.2,1.72-.48,2.59-.7,2.35-.61,4.71-1.2,7-1.91Zm0-12c-2.76.87-5.59,1.63-8.46,2.35-.38.09-.74.21-1.12.3v-9.49q4.88-1.16,9.58-2.61Zm0-12q-4.69,1.49-9.58,2.66l0-10.7c3.25-.76,6.45-1.63,9.57-2.6Zm10.67,96.18c-3.09,1.3-6.29,2.47-9.57,3.54v-9.45c3.27-1.05,6.48-2.17,9.57-3.44Zm0-12c-3.09,1.3-6.3,2.48-9.58,3.54v-9.45c3.28-1,6.48-2.17,9.58-3.44Zm0-12q-4.65,1.95-9.58,3.53V202.7c3.28-1,6.49-2.2,9.58-3.45Zm0-13.18c-3.09,1.31-6.29,2.47-9.58,3.55l0-11.34c3.27-1.05,6.48-2.19,9.57-3.46Zm0-18.43v4.55c-3.09,1.3-6.29,2.49-9.57,3.55v-9.44c2.31-.73,4.53-1.6,6.76-2.44.92-.35,1.9-.64,2.81-1Zm0-7.42c-1.4.58-2.88,1.07-4.33,1.61-1.74.65-3.44,1.36-5.24,1.94V163.68q4.92-1.56,9.58-3.46Zm0-13.18q-4.65,2-9.58,3.56l0-9.45c3.27-1,6.47-2.18,9.57-3.45Zm0-12c-3.09,1.29-6.29,2.49-9.57,3.55v-9.44c3.28-1,6.49-2.19,9.58-3.46Zm0-12q-4.63,2-9.57,3.56V126.56c3.29-1,6.49-2.19,9.58-3.47ZM169,228.33l-.11.06a107.67,107.67,0,0,1-9.87,4.85V223.9a109.26,109.26,0,0,0,10-4.8Zm0-12-.12.07a104.63,104.63,0,0,1-9.85,4.83v-9.33a109.4,109.4,0,0,0,10-4.79Zm0-12a.56.56,0,0,1-.13.07,101.11,101.11,0,0,1-9.85,4.83l0-10.52a109.26,109.26,0,0,0,10-4.8Zm0-13.17a.55.55,0,0,0-.14.09c-.24.13-.5.25-.74.39-2.91,1.59-6,3.07-9.09,4.43V184.86c1-.41,1.88-.92,2.84-1.36,2.42-1.1,4.86-2.2,7.14-3.45Zm0-13.91-.3.17c-2.65,1.49-5.47,2.81-8.32,4.1-.47.21-.89.45-1.36.67v-9.35a103.29,103.29,0,0,0,10-4.8Zm0-12-.31.18a104.62,104.62,0,0,1-9.67,4.76V159.71a103.34,103.34,0,0,0,10-4.81Zm0-13.18-.32.19a101.92,101.92,0,0,1-9.66,4.75l0-9.33a109.32,109.32,0,0,0,10-4.81Zm0-12c-.11.06-.22.14-.33.19a105.2,105.2,0,0,1-9.64,4.74v-9.33a109.32,109.32,0,0,0,10-4.81Zm0-12-.35.21c-3.06,1.71-6.29,3.29-9.63,4.74V122.59a108.31,108.31,0,0,0,10-4.82Zm10.27,93a69.83,69.83,0,0,1-9.18,6.46v-9.16a84.86,84.86,0,0,0,9.18-6Zm0-15.07v3.08a72.49,72.49,0,0,1-9.17,6.48v-9.17c2.25-1.26,4.33-2.61,6.34-4,.95-.64,1.93-1.29,2.83-2Zm0-8.9q-2.1,1.76-4.38,3.36c-1.54,1.09-3.15,2.13-4.8,3.11V193.31a87.42,87.42,0,0,0,9.18-5.95Zm0-13.18a70.91,70.91,0,0,1-9.18,6.48V179.4a88.07,88.07,0,0,0,9.18-6Zm0-13.94a70,70,0,0,1-9.17,6.51v-9.17a81.88,81.88,0,0,0,9.17-6Zm0-12a73.1,73.1,0,0,1-9.17,6.53V154.24a83.81,83.81,0,0,0,9.17-6Zm0-13.16a71,71,0,0,1-9.18,6.5v-9.15a84.17,84.17,0,0,0,9.19-6Zm0-12a71.43,71.43,0,0,1-9.18,6.52v-9.16a85,85,0,0,0,9.18-6Zm0-12a71,71,0,0,1-9.17,6.52V117.12a86.4,86.4,0,0,0,9.17-6Zm10.67,89c-1.2,1.59-2.55,3.17-4,4.72a69.18,69.18,0,0,1-5.6,5.47v-8.52c.67-.52,1.24-1.08,1.88-1.62a62.8,62.8,0,0,0,7.69-7.46Zm0-12a67,67,0,0,1-9.33,9.95l-.25.25v-8.53a62.79,62.79,0,0,0,9.58-9.09Zm0-12a67.41,67.41,0,0,1-9.58,10.2v-9.72a61.81,61.81,0,0,0,9.57-9.1Zm0-13.18A66.39,66.39,0,0,1,180.63,183l0-10.47a62,62,0,0,0,9.57-9.15Zm0-14a67.27,67.27,0,0,1-9.57,10.29v-8.52a62.1,62.1,0,0,0,9.57-9.16Zm0-12a67.76,67.76,0,0,1-9.57,10.28v-9.7a62.62,62.62,0,0,0,9.57-9.17Zm0-13.18a67.68,67.68,0,0,1-9.57,10.28v-8.51a62.1,62.1,0,0,0,9.57-9.16Zm0-12a67.21,67.21,0,0,1-9.57,10.28v-8.5a62.14,62.14,0,0,0,9.57-9.17Zm0-12a66.81,66.81,0,0,1-9.57,10.29v-9.7a63.12,63.12,0,0,0,9.58-9.16Zm5.57,90.87a45.63,45.63,0,0,1-4.47,7.8v-7.24a45.27,45.27,0,0,0,4.46-6.85Zm0-12a46.39,46.39,0,0,1-4.46,7.81v-7.25a46.86,46.86,0,0,0,4.46-6.85Q195.84,185.43,195.85,188.51Zm0-12a45.63,45.63,0,0,1-4.46,7.81v-8.44a44.59,44.59,0,0,0,4.47-6.85Q195.87,172.86,195.86,176.51Zm0-13.19a47,47,0,0,1-4.47,7.82v-9.27a44.18,44.18,0,0,0,4.48-6.94Q195.88,159.19,195.88,163.32Zm0-14.16a45.67,45.67,0,0,1-4.46,7.94v-7.21a45.48,45.48,0,0,0,4.47-7C195.89,145,195.89,147.1,195.89,149.16Zm0-12a45.38,45.38,0,0,1-4.46,8v-8.4a44.09,44.09,0,0,0,4.47-7C195.9,132.24,195.9,134.72,195.9,137.16Zm0-13.19a46.64,46.64,0,0,1-4.47,8v-7.21a44.74,44.74,0,0,0,4.46-7Zm0-12a46,46,0,0,1-4.47,8v-7.2a44.25,44.25,0,0,0,4.47-7Zm0-12a46.18,46.18,0,0,1-4.47,8v-8.4a45,45,0,0,0,4.46-7Z"/><polygon class="cls-23" points="1.27 89.18 1.28 89.19 1.28 89.19 1.27 89.18"/><rect class="cls-24" x="101.91" y="122.24" width="4.74" height="123.63"/><rect class="cls-25" x="122.97" y="120.71" width="4.74" height="123.63"/><polygon class="cls-26" points="149.83 238.98 145.09 238.98 145.09 115.35 149.88 114.47 149.83 238.98"/><polygon class="cls-27" points="170.72 229.24 165.98 230.47 165.99 106.56 170.72 105.61 170.72 229.24"/><polygon class="cls-28" points="192.84 209.53 188.1 213.59 188.1 90.96 192.84 88.19 192.84 209.53"/><polygon class="cls-29" points="85.38 245.41 80.66 244.82 80.66 121.19 85.4 121.19 85.38 245.41"/><polygon class="cls-30" points="63.64 242.23 58.9 241.53 58.9 117.9 63.64 118.6 63.64 242.23"/><polygon class="cls-31" points="42.06 236.46 37.3 233.92 37.3 110.29 42.04 111.89 42.06 236.46"/><polygon class="cls-32" points="19.92 225.25 15.18 221.07 15.18 97.89 19.92 101.62 19.92 225.25"/><path class="cls-33" d="M169.9,230.52c-19.74,11.08-45.67,16.63-71.59,16.63s-51.85-5.55-71.59-16.63C14.62,223.71,5.78,215.33,1,206.12v1.44c2.1,12.58,11.49,24.82,28.16,34.45,38.17,22,100,22,138.2,0,10.87-6.28,18.64-13.66,23.31-21.53,3.89-5.88,5-13.75,5-13.75s-6.13,8.5-7.81,10.17A75.43,75.43,0,0,1,169.9,230.52Z"/><polygon class="cls-34" points="17.92 111.03 21.8 113.05 26.46 95.4 22.58 93.39 17.92 111.03"/><polygon class="cls-1" points="22.58 93.39 26.38 95.38 181.67 31.84 177.87 29.85 22.58 93.39"/><polygon class="cls-35" points="181.64 31.83 26.34 95.37 21.68 113.02 176.98 49.48 181.64 31.83"/><polygon class="cls-34" points="168.9 130.58 164.63 131.54 164.61 113.29 168.88 112.33 168.9 130.58"/><polygon class="cls-35" points="168.88 112.33 164.7 113.29 30.7 12.31 34.88 11.36 168.88 112.33"/><polygon class="cls-1" points="30.73 12.31 164.74 113.29 164.75 131.54 30.75 30.57 30.73 12.31"/><polygon class="cls-1" points="96.79 62.04 114.1 75.38 98.48 81.79 81.31 68.72 96.79 62.04"/><polygon class="cls-35" points="100.71 60.94 118.65 74.47 114.27 75.25 97.23 62.39 100.71 60.94"/><polygon class="cls-1" points="101.78 61 81.21 69.42 84.75 71.42 106.22 62.69 101.78 61"/><polygon class="cls-35" points="82.47 72.42 99.83 65.34 99.83 80.97 97.51 82.01 82.47 72.42"/><circle class="cls-36" cx="173.22" cy="25.26" r="5.72"/><path class="cls-37" d="M171.67,30.77l.13,2.54,3.75-.11-.14-2.66A5.75,5.75,0,0,1,171.67,30.77Z"/><circle class="cls-38" cx="34.6" cy="5.72" r="5.72"/><path class="cls-39" d="M33.05,11.23l.14,2.54,3.74-.11L36.8,11A5.72,5.72,0,0,1,33.05,11.23Z"/><circle class="cls-40" cx="27.08" cy="85.16" r="5.72"/><path class="cls-41" d="M25.53,90.67l.13,2.54,3.75-.11-.14-2.66A5.62,5.62,0,0,1,25.53,90.67Z"/><circle class="cls-42" cx="164.54" cy="103.39" r="5.72"/><path class="cls-43" d="M163,108.9l.13,2.54,3.75-.11-.14-2.65A5.68,5.68,0,0,1,163,108.9Z"/></g></g></svg>