<svg xmlns="http://www.w3.org/2000/svg" xmlns:xlink="http://www.w3.org/1999/xlink" viewBox="0 0 95.48 257.56"><defs><style>.cls-1{isolation:isolate;}.cls-2,.cls-3{fill:#a09a98;}.cls-2{opacity:0.67;}.cls-4{fill:#d3c27f;}.cls-5{fill:url(#未命名的渐变_338);}.cls-6{fill:url(#未命名的渐变_338-2);}.cls-7{fill:#fdee9e;}.cls-8{fill:#a87f27;}.cls-10,.cls-9{fill:#f8bf3e;}.cls-10,.cls-12{mix-blend-mode:screen;}.cls-103,.cls-11,.cls-117,.cls-21,.cls-23,.cls-25{mix-blend-mode:multiply;}.cls-13{fill:url(#未命名的渐变_265);}.cls-14{fill:url(#未命名的渐变_265-2);}.cls-15{opacity:0.21;}.cls-16{fill:url(#未命名的渐变_278);}.cls-17{fill:url(#未命名的渐变_278-2);}.cls-18{fill:url(#未命名的渐变_278-3);}.cls-19{fill:url(#未命名的渐变_278-4);}.cls-20{fill:#187581;}.cls-21{opacity:0.6;}.cls-22{fill:url(#linear-gradient);}.cls-23{fill:#209ba5;opacity:0.7;}.cls-24,.cls-25{fill:#e74e4d;}.cls-26{fill:url(#linear-gradient-2);}.cls-27{fill:url(#linear-gradient-3);}.cls-28{fill:url(#linear-gradient-4);}.cls-29{fill:url(#linear-gradient-5);}.cls-30{fill:url(#linear-gradient-6);}.cls-31{fill:url(#linear-gradient-7);}.cls-32{fill:url(#linear-gradient-8);}.cls-33{fill:url(#linear-gradient-9);}.cls-34{fill:url(#linear-gradient-10);}.cls-35{fill:url(#linear-gradient-11);}.cls-36{fill:url(#linear-gradient-12);}.cls-37{fill:url(#linear-gradient-13);}.cls-38{fill:url(#linear-gradient-14);}.cls-39{fill:url(#linear-gradient-15);}.cls-40{fill:url(#linear-gradient-16);}.cls-41{fill:url(#linear-gradient-17);}.cls-42{fill:url(#linear-gradient-18);}.cls-43{fill:url(#linear-gradient-19);}.cls-44{fill:url(#linear-gradient-20);}.cls-45{fill:url(#linear-gradient-21);}.cls-46{fill:url(#linear-gradient-22);}.cls-47{fill:url(#linear-gradient-23);}.cls-48{fill:url(#linear-gradient-24);}.cls-49{fill:url(#linear-gradient-25);}.cls-50{fill:url(#linear-gradient-26);}.cls-51{fill:url(#linear-gradient-27);}.cls-52{fill:url(#linear-gradient-28);}.cls-53{fill:url(#linear-gradient-29);}.cls-54{fill:url(#linear-gradient-30);}.cls-55{fill:url(#linear-gradient-31);}.cls-56{fill:url(#linear-gradient-32);}.cls-57{fill:url(#linear-gradient-33);}.cls-58{fill:url(#linear-gradient-34);}.cls-59{fill:url(#linear-gradient-35);}.cls-60{fill:url(#linear-gradient-36);}.cls-61{fill:url(#linear-gradient-37);}.cls-62{fill:url(#linear-gradient-38);}.cls-63{fill:url(#linear-gradient-39);}.cls-64{fill:url(#linear-gradient-40);}.cls-65{fill:url(#linear-gradient-41);}.cls-66{fill:url(#linear-gradient-42);}.cls-67{fill:url(#linear-gradient-43);}.cls-68{fill:url(#linear-gradient-44);}.cls-69{fill:url(#linear-gradient-45);}.cls-70{fill:url(#linear-gradient-46);}.cls-71{fill:url(#linear-gradient-47);}.cls-72{fill:url(#linear-gradient-48);}.cls-73{fill:url(#linear-gradient-49);}.cls-74{fill:url(#linear-gradient-50);}.cls-75{fill:url(#linear-gradient-51);}.cls-76{fill:url(#linear-gradient-52);}.cls-77{fill:url(#linear-gradient-53);}.cls-78{fill:url(#linear-gradient-54);}.cls-79{fill:url(#linear-gradient-55);}.cls-80{fill:url(#linear-gradient-56);}.cls-81{fill:url(#linear-gradient-57);}.cls-82{fill:url(#linear-gradient-58);}.cls-83{fill:#604115;}.cls-84{fill:url(#linear-gradient-59);}.cls-101,.cls-102,.cls-106,.cls-109,.cls-111,.cls-115,.cls-116,.cls-85,.cls-88,.cls-92,.cls-95,.cls-97{mix-blend-mode:color-dodge;}.cls-85{fill:url(#linear-gradient-60);}.cls-86{fill:#8e8583;}.cls-87{fill:url(#linear-gradient-61);}.cls-88{fill:url(#linear-gradient-62);}.cls-89{fill:url(#linear-gradient-63);}.cls-90{fill:#d1d1e0;}.cls-91{fill:url(#linear-gradient-64);}.cls-106,.cls-92{opacity:0.5;}.cls-92{fill:url(#linear-gradient-65);}.cls-93{fill:url(#linear-gradient-66);}.cls-94{fill:url(#linear-gradient-67);}.cls-95{fill:url(#linear-gradient-68);}.cls-96{fill:url(#linear-gradient-69);}.cls-97{fill:url(#linear-gradient-70);}.cls-98{fill:url(#linear-gradient-71);}.cls-99{fill:url(#linear-gradient-72);}.cls-100{fill:url(#linear-gradient-73);}.cls-101{fill:url(#linear-gradient-74);}.cls-102{fill:url(#linear-gradient-75);}.cls-103{fill:url(#linear-gradient-76);}.cls-104{fill:url(#linear-gradient-77);}.cls-105{fill:url(#linear-gradient-78);}.cls-106{fill:url(#linear-gradient-79);}.cls-107{fill:url(#linear-gradient-80);}.cls-108{fill:url(#linear-gradient-81);}.cls-109{fill:url(#linear-gradient-82);}.cls-110{fill:url(#linear-gradient-83);}.cls-111{fill:url(#linear-gradient-84);}.cls-112{fill:url(#linear-gradient-85);}.cls-113{fill:url(#linear-gradient-86);}.cls-114{fill:url(#linear-gradient-87);}.cls-115{fill:url(#linear-gradient-88);}.cls-116{fill:url(#linear-gradient-89);}.cls-117{fill:url(#linear-gradient-90);}.cls-118{fill:url(#linear-gradient-91);}.cls-119{fill:url(#linear-gradient-92);}.cls-120{fill:url(#linear-gradient-93);}.cls-121{fill:url(#linear-gradient-94);}.cls-122{fill:url(#linear-gradient-95);}.cls-123{fill:url(#linear-gradient-96);}.cls-124{fill:url(#linear-gradient-97);}.cls-125{fill:url(#linear-gradient-98);}.cls-126{fill:url(#linear-gradient-99);}.cls-127{fill:url(#linear-gradient-100);}.cls-128{fill:url(#linear-gradient-101);}.cls-129{fill:url(#linear-gradient-102);}.cls-130{fill:url(#linear-gradient-103);}.cls-131{fill:url(#linear-gradient-104);}.cls-132{fill:url(#linear-gradient-105);}.cls-133{fill:url(#linear-gradient-106);}.cls-134{fill:url(#linear-gradient-107);}.cls-135{fill:url(#linear-gradient-108);}.cls-136{fill:url(#linear-gradient-109);}.cls-137{fill:url(#linear-gradient-110);}.cls-138{fill:url(#linear-gradient-111);}.cls-139{fill:url(#linear-gradient-112);}.cls-140{fill:url(#linear-gradient-113);}.cls-141{fill:url(#linear-gradient-114);}.cls-142{fill:url(#linear-gradient-115);}.cls-143{fill:url(#linear-gradient-116);}.cls-144{fill:url(#linear-gradient-117);}.cls-145{fill:url(#linear-gradient-118);}.cls-146{fill:url(#linear-gradient-119);}.cls-147{fill:url(#linear-gradient-120);}.cls-148{fill:url(#linear-gradient-121);}.cls-149{fill:url(#linear-gradient-122);}.cls-150{fill:url(#linear-gradient-123);}.cls-151{fill:url(#linear-gradient-124);}.cls-152{fill:url(#linear-gradient-125);}.cls-153{fill:url(#linear-gradient-126);}.cls-154{fill:url(#linear-gradient-127);}.cls-155{fill:url(#linear-gradient-128);}.cls-156{fill:url(#linear-gradient-129);}.cls-157{fill:url(#linear-gradient-130);}.cls-158{fill:url(#linear-gradient-131);}.cls-159{fill:url(#linear-gradient-132);}.cls-160{fill:url(#linear-gradient-133);}.cls-161{fill:url(#linear-gradient-134);}.cls-162{fill:url(#linear-gradient-135);}.cls-163{fill:url(#linear-gradient-136);}.cls-164{fill:url(#linear-gradient-137);}.cls-165{fill:url(#linear-gradient-138);}.cls-166{fill:url(#linear-gradient-139);}.cls-167{fill:url(#linear-gradient-140);}.cls-168{fill:url(#linear-gradient-141);}.cls-169{fill:url(#linear-gradient-142);}.cls-170{fill:url(#linear-gradient-143);}.cls-171{fill:url(#linear-gradient-144);}.cls-172{fill:url(#linear-gradient-145);}.cls-173{fill:url(#linear-gradient-146);}.cls-174{fill:url(#linear-gradient-147);}.cls-175{fill:url(#linear-gradient-148);}</style><linearGradient id="未命名的渐变_338" x1="3.38" y1="170.25" x2="90.76" y2="170.25" gradientUnits="userSpaceOnUse"><stop offset="0" stop-color="#edb84f"/><stop offset="0.3" stop-color="#7f5935"/><stop offset="0.51" stop-color="#7f5935"/><stop offset="0.73" stop-color="#7f5935"/><stop offset="1" stop-color="#edb84f"/></linearGradient><linearGradient id="未命名的渐变_338-2" x1="3.14" y1="169.75" x2="3.77" y2="169.75" xlink:href="#未命名的渐变_338"/><linearGradient id="未命名的渐变_265" x1="-181.04" y1="92.36" x2="-83.86" y2="92.36" gradientTransform="matrix(1, 0, -0.08, 1, 187.12, 10.22)" gradientUnits="userSpaceOnUse"><stop offset="0" stop-color="#d3995b"/><stop offset="0.5" stop-color="#fed59a"/><stop offset="0.99" stop-color="#d3995b"/></linearGradient><linearGradient id="未命名的渐变_265-2" x1="-181.27" y1="92.34" x2="-170.6" y2="92.34" xlink:href="#未命名的渐变_265"/><linearGradient id="未命名的渐变_278" x1="56.86" y1="55.77" x2="90.06" y2="55.77" gradientUnits="userSpaceOnUse"><stop offset="0" stop-color="#c98f49"/><stop offset="1" stop-color="#492f1b"/></linearGradient><linearGradient id="未命名的渐变_278-2" x1="714.38" y1="55.77" x2="747.58" y2="55.77" gradientTransform="matrix(-1, 0, 0, 1, 752.7, 0)" xlink:href="#未命名的渐变_278"/><linearGradient id="未命名的渐变_278-3" x1="56.86" y1="145.3" x2="90.06" y2="145.3" xlink:href="#未命名的渐变_278"/><linearGradient id="未命名的渐变_278-4" x1="714.38" y1="145.3" x2="747.58" y2="145.3" gradientTransform="matrix(-1, 0, 0, 1, 752.7, 0)" xlink:href="#未命名的渐变_278"/><linearGradient id="linear-gradient" x1="-1802.56" y1="1852.45" x2="-1792.69" y2="1852.45" gradientTransform="matrix(0, 1, 1, 0, -1779, 1838.89)" gradientUnits="userSpaceOnUse"><stop offset="0" stop-color="#fff"/><stop offset="0.5" stop-color="#209ba5"/><stop offset="1" stop-color="#fff"/></linearGradient><linearGradient id="linear-gradient-2" x1="-1803.99" y1="1868.17" x2="-1790.39" y2="1868.17" gradientTransform="matrix(0, 1, 1, 0, -1779, 1838.89)" gradientUnits="userSpaceOnUse"><stop offset="0" stop-color="#fff"/><stop offset="0.5" stop-color="#a3221e"/><stop offset="1" stop-color="#fff"/></linearGradient><linearGradient id="linear-gradient-3" x1="-1803.99" y1="1865.76" x2="-1790.39" y2="1865.76" xlink:href="#linear-gradient-2"/><linearGradient id="linear-gradient-4" x1="-1803.99" y1="1863.35" x2="-1790.39" y2="1863.35" xlink:href="#linear-gradient-2"/><linearGradient id="linear-gradient-5" x1="-1803.99" y1="1860.95" x2="-1790.39" y2="1860.95" xlink:href="#linear-gradient-2"/><linearGradient id="linear-gradient-6" x1="-1803.99" y1="1858.54" x2="-1790.39" y2="1858.54" xlink:href="#linear-gradient-2"/><linearGradient id="linear-gradient-7" x1="-1803.99" y1="1856.13" x2="-1790.39" y2="1856.13" xlink:href="#linear-gradient-2"/><linearGradient id="linear-gradient-8" x1="-1803.99" y1="1853.73" x2="-1790.39" y2="1853.73" xlink:href="#linear-gradient-2"/><linearGradient id="linear-gradient-9" x1="-1803.99" y1="1851.32" x2="-1790.39" y2="1851.32" xlink:href="#linear-gradient-2"/><linearGradient id="linear-gradient-10" x1="-1803.99" y1="1848.91" x2="-1790.39" y2="1848.91" xlink:href="#linear-gradient-2"/><linearGradient id="linear-gradient-11" x1="-1803.99" y1="1846.5" x2="-1790.39" y2="1846.5" xlink:href="#linear-gradient-2"/><linearGradient id="linear-gradient-12" x1="-1803.99" y1="1844.1" x2="-1790.39" y2="1844.1" xlink:href="#linear-gradient-2"/><linearGradient id="linear-gradient-13" x1="-1803.99" y1="1841.69" x2="-1790.39" y2="1841.69" xlink:href="#linear-gradient-2"/><linearGradient id="linear-gradient-14" x1="-1803.99" y1="1839.28" x2="-1790.39" y2="1839.28" xlink:href="#linear-gradient-2"/><linearGradient id="linear-gradient-15" x1="-1803.99" y1="1836.87" x2="-1790.39" y2="1836.87" xlink:href="#linear-gradient-2"/><linearGradient id="linear-gradient-16" x1="-1808.77" y1="1868.17" x2="-1805.54" y2="1868.17" gradientTransform="matrix(0, 1, 1, 0, -1779, 1838.89)" gradientUnits="userSpaceOnUse"><stop offset="0"/><stop offset="0.5" stop-color="#e74e4d"/><stop offset="1"/></linearGradient><linearGradient id="linear-gradient-17" x1="-1808.77" y1="1865.76" x2="-1805.54" y2="1865.76" xlink:href="#linear-gradient-16"/><linearGradient id="linear-gradient-18" x1="-1808.77" y1="1863.35" x2="-1805.54" y2="1863.35" xlink:href="#linear-gradient-16"/><linearGradient id="linear-gradient-19" x1="-1808.77" y1="1860.95" x2="-1805.54" y2="1860.95" xlink:href="#linear-gradient-16"/><linearGradient id="linear-gradient-20" x1="-1808.77" y1="1858.54" x2="-1805.54" y2="1858.54" xlink:href="#linear-gradient-16"/><linearGradient id="linear-gradient-21" x1="-1808.77" y1="1856.13" x2="-1805.54" y2="1856.13" xlink:href="#linear-gradient-16"/><linearGradient id="linear-gradient-22" x1="-1808.77" y1="1853.73" x2="-1805.54" y2="1853.73" xlink:href="#linear-gradient-16"/><linearGradient id="linear-gradient-23" x1="-1808.77" y1="1851.32" x2="-1805.54" y2="1851.32" xlink:href="#linear-gradient-16"/><linearGradient id="linear-gradient-24" x1="-1808.77" y1="1848.91" x2="-1805.54" y2="1848.91" xlink:href="#linear-gradient-16"/><linearGradient id="linear-gradient-25" x1="-1808.77" y1="1846.5" x2="-1805.54" y2="1846.5" xlink:href="#linear-gradient-16"/><linearGradient id="linear-gradient-26" x1="-1808.77" y1="1844.1" x2="-1805.54" y2="1844.1" xlink:href="#linear-gradient-16"/><linearGradient id="linear-gradient-27" x1="-1808.77" y1="1841.69" x2="-1805.54" y2="1841.69" xlink:href="#linear-gradient-16"/><linearGradient id="linear-gradient-28" x1="-1808.77" y1="1839.28" x2="-1805.54" y2="1839.28" xlink:href="#linear-gradient-16"/><linearGradient id="linear-gradient-29" x1="-1808.77" y1="1836.87" x2="-1805.54" y2="1836.87" xlink:href="#linear-gradient-16"/><linearGradient id="linear-gradient-30" x1="-1802.56" y1="1800.48" x2="-1792.69" y2="1800.48" xlink:href="#linear-gradient"/><linearGradient id="linear-gradient-31" x1="-1803.99" y1="1816.2" x2="-1790.39" y2="1816.2" xlink:href="#linear-gradient-2"/><linearGradient id="linear-gradient-32" x1="-1803.99" y1="1813.79" x2="-1790.39" y2="1813.79" xlink:href="#linear-gradient-2"/><linearGradient id="linear-gradient-33" x1="-1803.99" y1="1811.38" x2="-1790.39" y2="1811.38" xlink:href="#linear-gradient-2"/><linearGradient id="linear-gradient-34" x1="-1803.99" y1="1808.98" x2="-1790.39" y2="1808.98" xlink:href="#linear-gradient-2"/><linearGradient id="linear-gradient-35" x1="-1803.99" y1="1806.57" x2="-1790.39" y2="1806.57" xlink:href="#linear-gradient-2"/><linearGradient id="linear-gradient-36" x1="-1803.99" y1="1804.16" x2="-1790.39" y2="1804.16" xlink:href="#linear-gradient-2"/><linearGradient id="linear-gradient-37" x1="-1803.99" y1="1801.76" x2="-1790.39" y2="1801.76" xlink:href="#linear-gradient-2"/><linearGradient id="linear-gradient-38" x1="-1803.99" y1="1799.35" x2="-1790.39" y2="1799.35" xlink:href="#linear-gradient-2"/><linearGradient id="linear-gradient-39" x1="-1803.99" y1="1796.94" x2="-1790.39" y2="1796.94" xlink:href="#linear-gradient-2"/><linearGradient id="linear-gradient-40" x1="-1803.99" y1="1794.53" x2="-1790.39" y2="1794.53" xlink:href="#linear-gradient-2"/><linearGradient id="linear-gradient-41" x1="-1803.99" y1="1792.13" x2="-1790.39" y2="1792.13" xlink:href="#linear-gradient-2"/><linearGradient id="linear-gradient-42" x1="-1803.99" y1="1789.72" x2="-1790.39" y2="1789.72" xlink:href="#linear-gradient-2"/><linearGradient id="linear-gradient-43" x1="-1803.99" y1="1787.31" x2="-1790.39" y2="1787.31" xlink:href="#linear-gradient-2"/><linearGradient id="linear-gradient-44" x1="-1803.99" y1="1784.9" x2="-1790.39" y2="1784.9" xlink:href="#linear-gradient-2"/><linearGradient id="linear-gradient-45" x1="-1808.77" y1="1816.2" x2="-1805.54" y2="1816.2" xlink:href="#linear-gradient-16"/><linearGradient id="linear-gradient-46" x1="-1808.77" y1="1813.79" x2="-1805.54" y2="1813.79" xlink:href="#linear-gradient-16"/><linearGradient id="linear-gradient-47" x1="-1808.77" y1="1811.38" x2="-1805.54" y2="1811.38" xlink:href="#linear-gradient-16"/><linearGradient id="linear-gradient-48" x1="-1808.77" y1="1808.98" x2="-1805.54" y2="1808.98" xlink:href="#linear-gradient-16"/><linearGradient id="linear-gradient-49" x1="-1808.77" y1="1806.57" x2="-1805.54" y2="1806.57" xlink:href="#linear-gradient-16"/><linearGradient id="linear-gradient-50" x1="-1808.77" y1="1804.16" x2="-1805.54" y2="1804.16" xlink:href="#linear-gradient-16"/><linearGradient id="linear-gradient-51" x1="-1808.77" y1="1801.76" x2="-1805.54" y2="1801.76" xlink:href="#linear-gradient-16"/><linearGradient id="linear-gradient-52" x1="-1808.77" y1="1799.35" x2="-1805.54" y2="1799.35" xlink:href="#linear-gradient-16"/><linearGradient id="linear-gradient-53" x1="-1808.77" y1="1796.94" x2="-1805.54" y2="1796.94" xlink:href="#linear-gradient-16"/><linearGradient id="linear-gradient-54" x1="-1808.77" y1="1794.53" x2="-1805.54" y2="1794.53" xlink:href="#linear-gradient-16"/><linearGradient id="linear-gradient-55" x1="-1808.77" y1="1792.13" x2="-1805.54" y2="1792.13" xlink:href="#linear-gradient-16"/><linearGradient id="linear-gradient-56" x1="-1808.77" y1="1789.72" x2="-1805.54" y2="1789.72" xlink:href="#linear-gradient-16"/><linearGradient id="linear-gradient-57" x1="-1808.77" y1="1787.31" x2="-1805.54" y2="1787.31" xlink:href="#linear-gradient-16"/><linearGradient id="linear-gradient-58" x1="-1808.77" y1="1784.9" x2="-1805.54" y2="1784.9" xlink:href="#linear-gradient-16"/><linearGradient id="linear-gradient-59" x1="64.81" y1="193.22" x2="70.62" y2="193.22" gradientUnits="userSpaceOnUse"><stop offset="0" stop-color="#b5b5bf"/><stop offset="0.01" stop-color="#afafb9"/><stop offset="0.04" stop-color="#91919d"/><stop offset="0.08" stop-color="#7b7b89"/><stop offset="0.11" stop-color="#6e6e7d"/><stop offset="0.15" stop-color="#6a6a79"/><stop offset="0.3" stop-color="#9b9ba5"/><stop offset="0.41" stop-color="#868694"/><stop offset="0.67" stop-color="#e4e4e9"/><stop offset="1" stop-color="#898995"/></linearGradient><linearGradient id="linear-gradient-60" x1="64.81" y1="193.22" x2="70.62" y2="193.22" gradientUnits="userSpaceOnUse"><stop offset="0"/><stop offset="0.28"/><stop offset="0.68" stop-color="#303030"/><stop offset="1"/></linearGradient><linearGradient id="linear-gradient-61" x1="21.75" y1="193.06" x2="27.57" y2="193.06" xlink:href="#linear-gradient-59"/><linearGradient id="linear-gradient-62" x1="21.75" y1="193.06" x2="27.57" y2="193.06" xlink:href="#linear-gradient-60"/><linearGradient id="linear-gradient-63" x1="70.35" y1="156.54" x2="61.47" y2="166.69" gradientUnits="userSpaceOnUse"><stop offset="0" stop-color="#fafaff"/><stop offset="0.02" stop-color="#f4f4f9"/><stop offset="0.3" stop-color="#adadb4"/><stop offset="0.53" stop-color="#787882"/><stop offset="0.71" stop-color="#585863"/><stop offset="0.8" stop-color="#4c4c57"/></linearGradient><linearGradient id="linear-gradient-64" x1="67.66" y1="160.46" x2="67.8" y2="162.94" xlink:href="#linear-gradient-63"/><linearGradient id="linear-gradient-65" x1="67.78" y1="158.59" x2="67.62" y2="162.78" gradientUnits="userSpaceOnUse"><stop offset="0" stop-color="#a9a9b1"/><stop offset="0.07" stop-color="#828288"/><stop offset="0.16" stop-color="#5f5f64"/><stop offset="0.24" stop-color="#424245"/><stop offset="0.34" stop-color="#2a2a2c"/><stop offset="0.45" stop-color="#171718"/><stop offset="0.57" stop-color="#0a0a0a"/><stop offset="0.72" stop-color="#020202"/><stop offset="1"/></linearGradient><linearGradient id="linear-gradient-66" x1="59.31" y1="161.23" x2="68.57" y2="160.5" gradientUnits="userSpaceOnUse"><stop offset="0" stop-color="#e4e4e9"/><stop offset="0.77" stop-color="#6a6a79"/><stop offset="0.83" stop-color="#757583"/><stop offset="0.96" stop-color="#92929d"/><stop offset="1" stop-color="#9f9fa8"/></linearGradient><linearGradient id="linear-gradient-67" x1="72.49" y1="158.69" x2="66.87" y2="167.66" xlink:href="#linear-gradient-63"/><linearGradient id="linear-gradient-68" x1="67.67" y1="160.9" x2="75.91" y2="160.75" xlink:href="#linear-gradient-65"/><linearGradient id="linear-gradient-69" x1="65.44" y1="164.26" x2="76.21" y2="148.12" xlink:href="#linear-gradient-63"/><linearGradient id="linear-gradient-70" x1="61.14" y1="167.32" x2="72.45" y2="156.18" xlink:href="#linear-gradient-65"/><linearGradient id="linear-gradient-71" x1="70.21" y1="159.13" x2="69.59" y2="163.53" xlink:href="#linear-gradient-63"/><linearGradient id="linear-gradient-72" x1="66.04" y1="159.05" x2="64.18" y2="164.59" xlink:href="#linear-gradient-63"/><linearGradient id="linear-gradient-73" x1="62.82" y1="162.76" x2="72.61" y2="162.76" xlink:href="#linear-gradient-59"/><linearGradient id="linear-gradient-74" x1="62.82" y1="162.76" x2="72.61" y2="162.76" xlink:href="#linear-gradient-60"/><linearGradient id="linear-gradient-75" x1="67.72" y1="162.4" x2="67.72" y2="162.71" xlink:href="#linear-gradient-65"/><linearGradient id="linear-gradient-76" x1="67.72" y1="162.93" x2="67.72" y2="163.09" gradientUnits="userSpaceOnUse"><stop offset="0" stop-color="#fff"/><stop offset="0.11" stop-color="#f7f7f7"/><stop offset="0.28" stop-color="#e1e1e3"/><stop offset="0.49" stop-color="#bdbdc1"/><stop offset="0.73" stop-color="#8b8b92"/><stop offset="1" stop-color="#4c4c57"/></linearGradient><linearGradient id="linear-gradient-77" x1="27.29" y1="156.54" x2="18.41" y2="166.69" xlink:href="#linear-gradient-63"/><linearGradient id="linear-gradient-78" x1="24.61" y1="160.46" x2="24.75" y2="162.94" xlink:href="#linear-gradient-63"/><linearGradient id="linear-gradient-79" x1="24.73" y1="158.59" x2="24.57" y2="162.78" xlink:href="#linear-gradient-65"/><linearGradient id="linear-gradient-80" x1="16.26" y1="161.23" x2="25.51" y2="160.5" xlink:href="#linear-gradient-66"/><linearGradient id="linear-gradient-81" x1="29.43" y1="158.69" x2="23.81" y2="167.66" xlink:href="#linear-gradient-63"/><linearGradient id="linear-gradient-82" x1="24.62" y1="160.9" x2="32.86" y2="160.75" xlink:href="#linear-gradient-65"/><linearGradient id="linear-gradient-83" x1="22.38" y1="164.26" x2="33.16" y2="148.12" xlink:href="#linear-gradient-63"/><linearGradient id="linear-gradient-84" x1="18.09" y1="167.32" x2="29.4" y2="156.18" xlink:href="#linear-gradient-65"/><linearGradient id="linear-gradient-85" x1="27.15" y1="159.13" x2="26.54" y2="163.53" xlink:href="#linear-gradient-63"/><linearGradient id="linear-gradient-86" x1="22.98" y1="159.05" x2="21.13" y2="164.59" xlink:href="#linear-gradient-63"/><linearGradient id="linear-gradient-87" x1="19.76" y1="162.76" x2="29.56" y2="162.76" xlink:href="#linear-gradient-59"/><linearGradient id="linear-gradient-88" x1="19.76" y1="162.76" x2="29.56" y2="162.76" xlink:href="#linear-gradient-60"/><linearGradient id="linear-gradient-89" x1="24.66" y1="162.4" x2="24.66" y2="162.71" xlink:href="#linear-gradient-65"/><linearGradient id="linear-gradient-90" x1="24.66" y1="162.93" x2="24.66" y2="163.09" xlink:href="#linear-gradient-76"/><linearGradient id="linear-gradient-91" x1="2659.59" y1="1800.48" x2="2669.46" y2="1800.48" gradientTransform="translate(-1779 2791.29) rotate(-90)" xlink:href="#linear-gradient"/><linearGradient id="linear-gradient-92" x1="2658.16" y1="1816.2" x2="2671.77" y2="1816.2" gradientTransform="translate(-1779 2791.29) rotate(-90)" xlink:href="#linear-gradient-2"/><linearGradient id="linear-gradient-93" x1="2658.16" y1="1813.79" x2="2671.77" y2="1813.79" gradientTransform="translate(-1779 2791.29) rotate(-90)" xlink:href="#linear-gradient-2"/><linearGradient id="linear-gradient-94" x1="2658.16" y1="1811.38" x2="2671.77" y2="1811.38" gradientTransform="translate(-1779 2791.29) rotate(-90)" xlink:href="#linear-gradient-2"/><linearGradient id="linear-gradient-95" x1="2658.16" y1="1808.98" x2="2671.77" y2="1808.98" gradientTransform="translate(-1779 2791.29) rotate(-90)" xlink:href="#linear-gradient-2"/><linearGradient id="linear-gradient-96" x1="2658.16" y1="1806.57" x2="2671.77" y2="1806.57" gradientTransform="translate(-1779 2791.29) rotate(-90)" xlink:href="#linear-gradient-2"/><linearGradient id="linear-gradient-97" x1="2658.16" y1="1804.16" x2="2671.77" y2="1804.16" gradientTransform="translate(-1779 2791.29) rotate(-90)" xlink:href="#linear-gradient-2"/><linearGradient id="linear-gradient-98" x1="2658.16" y1="1801.76" x2="2671.77" y2="1801.76" gradientTransform="translate(-1779 2791.29) rotate(-90)" xlink:href="#linear-gradient-2"/><linearGradient id="linear-gradient-99" x1="2658.16" y1="1799.35" x2="2671.77" y2="1799.35" gradientTransform="translate(-1779 2791.29) rotate(-90)" xlink:href="#linear-gradient-2"/><linearGradient id="linear-gradient-100" x1="2658.16" y1="1796.94" x2="2671.77" y2="1796.94" gradientTransform="translate(-1779 2791.29) rotate(-90)" xlink:href="#linear-gradient-2"/><linearGradient id="linear-gradient-101" x1="2658.16" y1="1794.53" x2="2671.77" y2="1794.53" gradientTransform="translate(-1779 2791.29) rotate(-90)" xlink:href="#linear-gradient-2"/><linearGradient id="linear-gradient-102" x1="2658.16" y1="1792.13" x2="2671.77" y2="1792.13" gradientTransform="translate(-1779 2791.29) rotate(-90)" xlink:href="#linear-gradient-2"/><linearGradient id="linear-gradient-103" x1="2658.16" y1="1789.72" x2="2671.77" y2="1789.72" gradientTransform="translate(-1779 2791.29) rotate(-90)" xlink:href="#linear-gradient-2"/><linearGradient id="linear-gradient-104" x1="2658.16" y1="1787.31" x2="2671.77" y2="1787.31" gradientTransform="translate(-1779 2791.29) rotate(-90)" xlink:href="#linear-gradient-2"/><linearGradient id="linear-gradient-105" x1="2658.16" y1="1784.9" x2="2671.77" y2="1784.9" gradientTransform="translate(-1779 2791.29) rotate(-90)" xlink:href="#linear-gradient-2"/><linearGradient id="linear-gradient-106" x1="2653.38" y1="1816.2" x2="2656.62" y2="1816.2" gradientTransform="translate(-1779 2791.29) rotate(-90)" xlink:href="#linear-gradient-16"/><linearGradient id="linear-gradient-107" x1="2653.38" y1="1813.79" x2="2656.62" y2="1813.79" gradientTransform="translate(-1779 2791.29) rotate(-90)" xlink:href="#linear-gradient-16"/><linearGradient id="linear-gradient-108" x1="2653.38" y1="1811.38" x2="2656.62" y2="1811.38" gradientTransform="translate(-1779 2791.29) rotate(-90)" xlink:href="#linear-gradient-16"/><linearGradient id="linear-gradient-109" x1="2653.38" y1="1808.98" x2="2656.62" y2="1808.98" gradientTransform="translate(-1779 2791.29) rotate(-90)" xlink:href="#linear-gradient-16"/><linearGradient id="linear-gradient-110" x1="2653.38" y1="1806.57" x2="2656.62" y2="1806.57" gradientTransform="translate(-1779 2791.29) rotate(-90)" xlink:href="#linear-gradient-16"/><linearGradient id="linear-gradient-111" x1="2653.38" y1="1804.16" x2="2656.62" y2="1804.16" gradientTransform="translate(-1779 2791.29) rotate(-90)" xlink:href="#linear-gradient-16"/><linearGradient id="linear-gradient-112" x1="2653.38" y1="1801.76" x2="2656.62" y2="1801.76" gradientTransform="translate(-1779 2791.29) rotate(-90)" xlink:href="#linear-gradient-16"/><linearGradient id="linear-gradient-113" x1="2653.38" y1="1799.35" x2="2656.62" y2="1799.35" gradientTransform="translate(-1779 2791.29) rotate(-90)" xlink:href="#linear-gradient-16"/><linearGradient id="linear-gradient-114" x1="2653.38" y1="1796.94" x2="2656.62" y2="1796.94" gradientTransform="translate(-1779 2791.29) rotate(-90)" xlink:href="#linear-gradient-16"/><linearGradient id="linear-gradient-115" x1="2653.38" y1="1794.53" x2="2656.62" y2="1794.53" gradientTransform="translate(-1779 2791.29) rotate(-90)" xlink:href="#linear-gradient-16"/><linearGradient id="linear-gradient-116" x1="2653.38" y1="1792.13" x2="2656.62" y2="1792.13" gradientTransform="translate(-1779 2791.29) rotate(-90)" xlink:href="#linear-gradient-16"/><linearGradient id="linear-gradient-117" x1="2653.38" y1="1789.72" x2="2656.62" y2="1789.72" gradientTransform="translate(-1779 2791.29) rotate(-90)" xlink:href="#linear-gradient-16"/><linearGradient id="linear-gradient-118" x1="2653.38" y1="1787.31" x2="2656.62" y2="1787.31" gradientTransform="translate(-1779 2791.29) rotate(-90)" xlink:href="#linear-gradient-16"/><linearGradient id="linear-gradient-119" x1="2653.38" y1="1784.9" x2="2656.62" y2="1784.9" gradientTransform="translate(-1779 2791.29) rotate(-90)" xlink:href="#linear-gradient-16"/><linearGradient id="linear-gradient-120" x1="2659.59" y1="1852.45" x2="2669.46" y2="1852.45" gradientTransform="translate(-1779 2791.29) rotate(-90)" xlink:href="#linear-gradient"/><linearGradient id="linear-gradient-121" x1="2658.16" y1="1868.17" x2="2671.77" y2="1868.17" gradientTransform="translate(-1779 2791.29) rotate(-90)" xlink:href="#linear-gradient-2"/><linearGradient id="linear-gradient-122" x1="2658.16" y1="1865.76" x2="2671.77" y2="1865.76" gradientTransform="translate(-1779 2791.29) rotate(-90)" xlink:href="#linear-gradient-2"/><linearGradient id="linear-gradient-123" x1="2658.16" y1="1863.35" x2="2671.77" y2="1863.35" gradientTransform="translate(-1779 2791.29) rotate(-90)" xlink:href="#linear-gradient-2"/><linearGradient id="linear-gradient-124" x1="2658.16" y1="1860.95" x2="2671.77" y2="1860.95" gradientTransform="translate(-1779 2791.29) rotate(-90)" xlink:href="#linear-gradient-2"/><linearGradient id="linear-gradient-125" x1="2658.16" y1="1858.54" x2="2671.77" y2="1858.54" gradientTransform="translate(-1779 2791.29) rotate(-90)" xlink:href="#linear-gradient-2"/><linearGradient id="linear-gradient-126" x1="2658.16" y1="1856.13" x2="2671.77" y2="1856.13" gradientTransform="translate(-1779 2791.29) rotate(-90)" xlink:href="#linear-gradient-2"/><linearGradient id="linear-gradient-127" x1="2658.16" y1="1853.73" x2="2671.77" y2="1853.73" gradientTransform="translate(-1779 2791.29) rotate(-90)" xlink:href="#linear-gradient-2"/><linearGradient id="linear-gradient-128" x1="2658.16" y1="1851.32" x2="2671.77" y2="1851.32" gradientTransform="translate(-1779 2791.29) rotate(-90)" xlink:href="#linear-gradient-2"/><linearGradient id="linear-gradient-129" x1="2658.16" y1="1848.91" x2="2671.77" y2="1848.91" gradientTransform="translate(-1779 2791.29) rotate(-90)" xlink:href="#linear-gradient-2"/><linearGradient id="linear-gradient-130" x1="2658.16" y1="1846.5" x2="2671.77" y2="1846.5" gradientTransform="translate(-1779 2791.29) rotate(-90)" xlink:href="#linear-gradient-2"/><linearGradient id="linear-gradient-131" x1="2658.16" y1="1844.1" x2="2671.77" y2="1844.1" gradientTransform="translate(-1779 2791.29) rotate(-90)" xlink:href="#linear-gradient-2"/><linearGradient id="linear-gradient-132" x1="2658.16" y1="1841.69" x2="2671.77" y2="1841.69" gradientTransform="translate(-1779 2791.29) rotate(-90)" xlink:href="#linear-gradient-2"/><linearGradient id="linear-gradient-133" x1="2658.16" y1="1839.28" x2="2671.77" y2="1839.28" gradientTransform="translate(-1779 2791.29) rotate(-90)" xlink:href="#linear-gradient-2"/><linearGradient id="linear-gradient-134" x1="2658.16" y1="1836.87" x2="2671.77" y2="1836.87" gradientTransform="translate(-1779 2791.29) rotate(-90)" xlink:href="#linear-gradient-2"/><linearGradient id="linear-gradient-135" x1="2653.38" y1="1868.17" x2="2656.62" y2="1868.17" gradientTransform="translate(-1779 2791.29) rotate(-90)" xlink:href="#linear-gradient-16"/><linearGradient id="linear-gradient-136" x1="2653.38" y1="1865.76" x2="2656.62" y2="1865.76" gradientTransform="translate(-1779 2791.29) rotate(-90)" xlink:href="#linear-gradient-16"/><linearGradient id="linear-gradient-137" x1="2653.38" y1="1863.35" x2="2656.62" y2="1863.35" gradientTransform="translate(-1779 2791.29) rotate(-90)" xlink:href="#linear-gradient-16"/><linearGradient id="linear-gradient-138" x1="2653.38" y1="1860.95" x2="2656.62" y2="1860.95" gradientTransform="translate(-1779 2791.29) rotate(-90)" xlink:href="#linear-gradient-16"/><linearGradient id="linear-gradient-139" x1="2653.38" y1="1858.54" x2="2656.62" y2="1858.54" gradientTransform="translate(-1779 2791.29) rotate(-90)" xlink:href="#linear-gradient-16"/><linearGradient id="linear-gradient-140" x1="2653.38" y1="1856.13" x2="2656.62" y2="1856.13" gradientTransform="translate(-1779 2791.29) rotate(-90)" xlink:href="#linear-gradient-16"/><linearGradient id="linear-gradient-141" x1="2653.38" y1="1853.73" x2="2656.62" y2="1853.73" gradientTransform="translate(-1779 2791.29) rotate(-90)" xlink:href="#linear-gradient-16"/><linearGradient id="linear-gradient-142" x1="2653.38" y1="1851.32" x2="2656.62" y2="1851.32" gradientTransform="translate(-1779 2791.29) rotate(-90)" xlink:href="#linear-gradient-16"/><linearGradient id="linear-gradient-143" x1="2653.38" y1="1848.91" x2="2656.62" y2="1848.91" gradientTransform="translate(-1779 2791.29) rotate(-90)" xlink:href="#linear-gradient-16"/><linearGradient id="linear-gradient-144" x1="2653.38" y1="1846.5" x2="2656.62" y2="1846.5" gradientTransform="translate(-1779 2791.29) rotate(-90)" xlink:href="#linear-gradient-16"/><linearGradient id="linear-gradient-145" x1="2653.38" y1="1844.1" x2="2656.62" y2="1844.1" gradientTransform="translate(-1779 2791.29) rotate(-90)" xlink:href="#linear-gradient-16"/><linearGradient id="linear-gradient-146" x1="2653.38" y1="1841.69" x2="2656.62" y2="1841.69" gradientTransform="translate(-1779 2791.29) rotate(-90)" xlink:href="#linear-gradient-16"/><linearGradient id="linear-gradient-147" x1="2653.38" y1="1839.28" x2="2656.62" y2="1839.28" gradientTransform="translate(-1779 2791.29) rotate(-90)" xlink:href="#linear-gradient-16"/><linearGradient id="linear-gradient-148" x1="2653.38" y1="1836.87" x2="2656.62" y2="1836.87" gradientTransform="translate(-1779 2791.29) rotate(-90)" xlink:href="#linear-gradient-16"/></defs><title>分裂电抗</title><g class="cls-1"><g id="图层_2" data-name="图层 2"><g id="图层_1-2" data-name="图层 1"><path class="cls-2" d="M80.58,231.87H14.93C6.72,231.87,0,235.24,0,243.46v14H3.35v-14c0-6.39,5.2-8.28,11.58-8.28H80.58c6.39,0,11.59,1.89,11.59,8.28v14h3.31v-14C95.48,235.24,88.8,231.87,80.58,231.87Z"/><path class="cls-3" d="M80.58,230.4H14.93C6.72,230.4,0,233.77,0,242v15.57H3.35V242c0-6.39,5.2-8.28,11.58-8.28H80.58c6.39,0,11.59,1.89,11.59,8.28v15.57h3.31V242C95.48,233.77,88.8,230.4,80.58,230.4Z"/><polygon class="cls-4" points="0.06 211.97 0.16 108.94 0.58 70.52 0.48 188.88 0.06 211.97"/><rect class="cls-5" x="3.38" y="110.08" width="87.38" height="120.33" rx="2.13"/><path class="cls-6" d="M3.38,229V110.08c0,.77-.55,0,0,0l.39,119.09C3.22,229.17,3.39,229.79,3.38,229Z"/><path class="cls-4" d="M90.13,230,89.64,108.9c.19,0,.37-.74.38-1.61l1.34,121.43C91.34,229.59,90.32,230,90.13,230Z"/><polygon class="cls-4" points="91.32 228.42 90.02 107.29 91.29 69.88 91.34 185.14 91.32 228.42"/><polygon class="cls-7" points="90 188.26 90.08 70.25 94.27 70.25 94.34 188.26 90 188.26"/><rect class="cls-7" x="0.39" y="70.6" width="3.26" height="118.01"/><polygon class="cls-7" points="91.34 210.2 91.4 69.76 94.29 69.76 94.34 210.2 91.34 210.2"/><rect class="cls-7" x="0.03" y="70.17" width="3.6" height="140.44"/><polygon class="cls-4" points="0.06 198.67 0.16 74.37 0.58 35.95 0.48 154.31 0.06 198.67"/><rect class="cls-8" x="3.64" y="75.51" width="87.12" height="123.27"/><path class="cls-8" d="M3.64,197.36V75.51c0,.79-.54,0,0,0L4,198.74C3.48,198.74,3.65,198.15,3.64,197.36Z"/><path class="cls-4" d="M90.13,198.11,89.64,75.36c.19,0,.37-.76.38-1.64l1.34,123.14C91.34,197.74,90.32,198.11,90.13,198.11Z"/><polygon class="cls-4" points="91.32 198.11 90.02 73.72 91.29 35.31 91.34 153.67 91.32 198.11"/><polygon class="cls-7" points="90 153.69 90.08 35.67 94.27 35.67 94.34 153.69 90 153.69"/><rect class="cls-7" x="0.39" y="36.02" width="3.26" height="118.01"/><polygon class="cls-7" points="91.31 175.63 91.37 35.18 94.29 35.18 94.34 175.63 91.31 175.63"/><rect class="cls-7" x="0.03" y="35.6" width="3.48" height="140.44"/><path class="cls-9" d="M46.64,185.52a16.91,16.91,0,1,1,16.91-16.91A16.93,16.93,0,0,1,46.64,185.52Zm0-31.8a14.9,14.9,0,1,0,14.9,14.89A14.91,14.91,0,0,0,46.64,153.72Z"/><path class="cls-9" d="M46.64,183.17A14.56,14.56,0,1,1,61.2,168.61,14.58,14.58,0,0,1,46.64,183.17Zm0-27.11A12.55,12.55,0,1,0,59.2,168.61,12.56,12.56,0,0,0,46.64,156.06Z"/><path class="cls-9" d="M46.64,180.83a12.22,12.22,0,1,1,12.22-12.22A12.23,12.23,0,0,1,46.64,180.83Zm0-22.43a10.21,10.21,0,1,0,10.21,10.21A10.22,10.22,0,0,0,46.64,158.4Z"/><path class="cls-9" d="M46.64,178.49a9.88,9.88,0,1,1,9.88-9.88A9.89,9.89,0,0,1,46.64,178.49Zm0-17.74a7.87,7.87,0,1,0,7.87,7.86A7.87,7.87,0,0,0,46.64,160.75Z"/><path class="cls-10" d="M46.64,184.92A16.31,16.31,0,1,1,63,168.61,16.33,16.33,0,0,1,46.64,184.92Zm0-31.79a15.49,15.49,0,1,0,15.49,15.48A15.49,15.49,0,0,0,46.64,153.13Z"/><path class="cls-10" d="M46.64,182.58a14,14,0,1,1,14-14A14,14,0,0,1,46.64,182.58Zm0-27.11a13.15,13.15,0,1,0,13.15,13.14A13.16,13.16,0,0,0,46.64,155.47Z"/><path class="cls-10" d="M46.64,180.24a11.63,11.63,0,1,1,11.63-11.63A11.64,11.64,0,0,1,46.64,180.24Zm0-22.43a10.81,10.81,0,1,0,10.81,10.8A10.82,10.82,0,0,0,46.64,157.81Z"/><path class="cls-10" d="M46.64,177.89a9.28,9.28,0,1,1,9.29-9.28A9.29,9.29,0,0,1,46.64,177.89Zm0-17.74a8.46,8.46,0,1,0,8.46,8.46A8.47,8.47,0,0,0,46.64,160.15Z"/><g class="cls-11"><path class="cls-9" d="M63.55,168.61a16.94,16.94,0,0,0-10.2-15.51l-.89,1.8a14.89,14.89,0,1,1-13.18,26.65l-.89,1.81a16.89,16.89,0,0,0,25.16-14.75Z"/><path class="cls-9" d="M61.2,168.61a14.58,14.58,0,0,0-8.89-13.41L51.42,157a12.55,12.55,0,1,1-11.1,22.44l-.89,1.8A14.55,14.55,0,0,0,61.2,168.61Z"/><path class="cls-9" d="M58.86,168.61a12.23,12.23,0,0,0-7.59-11.3l-.89,1.8a10.21,10.21,0,1,1-9,18.24l-.89,1.8a12.21,12.21,0,0,0,18.39-10.54Z"/><path class="cls-9" d="M56.52,168.61a9.87,9.87,0,0,0-6.29-9.19l-.89,1.8a7.87,7.87,0,1,1-6.93,14l-.9,1.81a9.88,9.88,0,0,0,15-8.44Z"/></g><g class="cls-12"><path class="cls-9" d="M30,168.83A16.89,16.89,0,0,1,58.7,156.78a16.89,16.89,0,1,0-23.89,23.88A16.83,16.83,0,0,1,30,168.83Z"/><path class="cls-9" d="M46.86,183.72A14.89,14.89,0,0,0,57.28,158.2a14.88,14.88,0,0,1-21.05,21A14.84,14.84,0,0,0,46.86,183.72Z"/></g><g class="cls-12"><path class="cls-9" d="M32.3,168.83A14.55,14.55,0,0,1,57,158.43,14.55,14.55,0,1,0,36.46,179,14.52,14.52,0,0,1,32.3,168.83Z"/><path class="cls-9" d="M46.86,181.38a12.55,12.55,0,0,0,8.76-21.53,12.54,12.54,0,0,1-17.74,17.74A12.54,12.54,0,0,0,46.86,181.38Z"/></g><g class="cls-12"><path class="cls-9" d="M46.86,179A10.2,10.2,0,0,0,54,161.51a10.2,10.2,0,0,1-14.42,14.42A10.19,10.19,0,0,0,46.86,179Z"/><path class="cls-9" d="M34.64,168.83a12.21,12.21,0,0,1,20.74-8.74,12.21,12.21,0,1,0-17.26,17.26A12.16,12.16,0,0,1,34.64,168.83Z"/></g><g class="cls-12"><path class="cls-9" d="M46.86,176.69a7.86,7.86,0,0,0,5.45-13.53,7.86,7.86,0,0,1-11.12,11.12A7.9,7.9,0,0,0,46.86,176.69Z"/><path class="cls-9" d="M37,168.83a9.87,9.87,0,0,1,16.75-7.09,9.87,9.87,0,1,0-13.95,14A9.85,9.85,0,0,1,37,168.83Z"/></g><path class="cls-9" d="M46.64,175.89a7.28,7.28,0,1,1,7.28-7.28A7.29,7.29,0,0,1,46.64,175.89Zm0-13.07a5.8,5.8,0,1,0,5.8,5.79A5.8,5.8,0,0,0,46.64,162.82Z"/><path class="cls-10" d="M46.64,175.45a6.84,6.84,0,1,1,6.84-6.84A6.85,6.85,0,0,1,46.64,175.45Zm0-13.07a6.23,6.23,0,1,0,6.24,6.23A6.24,6.24,0,0,0,46.64,162.38Z"/><g class="cls-12"><path class="cls-9" d="M46.8,174.56a5.79,5.79,0,0,0,4-10,5.79,5.79,0,0,1-8.19,8.19A5.79,5.79,0,0,0,46.8,174.56Z"/><path class="cls-9" d="M39.53,168.77a7.27,7.27,0,0,1,12.33-5.22,7.27,7.27,0,1,0-10.28,10.28A7.24,7.24,0,0,1,39.53,168.77Z"/></g><path class="cls-9" d="M46.64,173.61a5,5,0,1,1,5-5A5,5,0,0,1,46.64,173.61Zm0-9a4,4,0,1,0,4,4A4,4,0,0,0,46.64,164.64Z"/><path class="cls-10" d="M46.64,173.31a4.7,4.7,0,1,1,4.7-4.7A4.71,4.71,0,0,1,46.64,173.31Zm0-9a4.28,4.28,0,1,0,4.28,4.27A4.27,4.27,0,0,0,46.64,164.34Z"/><g class="cls-12"><path class="cls-9" d="M46.75,172.7a4,4,0,0,0,2.76-6.84,3.93,3.93,0,0,1,1.11,2.75,4,4,0,0,1-6.73,2.87A4,4,0,0,0,46.75,172.7Z"/><path class="cls-9" d="M41.76,168.72a5,5,0,0,1,8.47-3.58,5,5,0,1,0-7.06,7.06A5,5,0,0,1,41.76,168.72Z"/></g><path class="cls-9" d="M46.64,172.06a3.45,3.45,0,1,1,3.45-3.45A3.45,3.45,0,0,1,46.64,172.06Zm0-6.19a2.75,2.75,0,1,0,2.75,2.74A2.74,2.74,0,0,0,46.64,165.87Z"/><path class="cls-10" d="M46.64,171.85a3.24,3.24,0,1,1,3.24-3.24A3.24,3.24,0,0,1,46.64,171.85Zm0-6.19a3,3,0,1,0,3,3A3,3,0,0,0,46.64,165.66Z"/><g class="cls-12"><path class="cls-9" d="M46.72,171.43a2.74,2.74,0,0,0,1.9-4.72,2.78,2.78,0,0,1,.77,1.9,2.75,2.75,0,0,1-2.75,2.75,2.78,2.78,0,0,1-1.9-.77A2.73,2.73,0,0,0,46.72,171.43Z"/><path class="cls-9" d="M43.28,168.69a3.43,3.43,0,0,1,5.83-2.47,3.4,3.4,0,0,0-2.47-1.05,3.45,3.45,0,0,0-3.44,3.44,3.4,3.4,0,0,0,1,2.47A3.42,3.42,0,0,1,43.28,168.69Z"/></g><path class="cls-9" d="M46.64,170.83a2.22,2.22,0,1,1,2.22-2.22A2.22,2.22,0,0,1,46.64,170.83Zm0-4a1.77,1.77,0,1,0,1.77,1.76A1.76,1.76,0,0,0,46.64,166.85Z"/><path class="cls-10" d="M46.64,170.69a2.08,2.08,0,1,1,2.08-2.08A2.08,2.08,0,0,1,46.64,170.69Zm0-4a1.9,1.9,0,1,0,1.9,1.89A1.89,1.89,0,0,0,46.64,166.72Z"/><g class="cls-12"><path class="cls-9" d="M46.69,170.42a1.76,1.76,0,0,0,1.76-1.76,1.73,1.73,0,0,0-.54-1.27,1.75,1.75,0,0,1,.5,1.22,1.77,1.77,0,0,1-1.77,1.77,1.75,1.75,0,0,1-1.22-.5A1.73,1.73,0,0,0,46.69,170.42Z"/><path class="cls-9" d="M44.48,168.66a2.21,2.21,0,0,1,3.75-1.59,2.21,2.21,0,0,0-3.8,1.54,2.18,2.18,0,0,0,.68,1.59A2.19,2.19,0,0,1,44.48,168.66Z"/></g><path class="cls-9" d="M46.64,170.14a1.53,1.53,0,1,1,1.53-1.53A1.52,1.52,0,0,1,46.64,170.14Zm0-2.74a1.22,1.22,0,1,0,1.22,1.21A1.21,1.21,0,0,0,46.64,167.4Z"/><path class="cls-10" d="M46.64,170.05a1.44,1.44,0,1,1,1.44-1.44A1.43,1.43,0,0,1,46.64,170.05Zm0-2.75A1.31,1.31,0,1,0,48,168.61,1.31,1.31,0,0,0,46.64,167.3Z"/><g class="cls-12"><path class="cls-9" d="M46.68,169.86a1.21,1.21,0,0,0,.84-2.09,1.22,1.22,0,0,1-1.72,1.72A1.21,1.21,0,0,0,46.68,169.86Z"/><path class="cls-9" d="M45.15,168.65a1.53,1.53,0,0,1,1.53-1.53,1.5,1.5,0,0,1,1.06.43,1.53,1.53,0,1,0-2.16,2.16A1.51,1.51,0,0,1,45.15,168.65Z"/></g><path class="cls-9" d="M46.64,169.41a.8.8,0,1,1,.8-.8A.79.79,0,0,1,46.64,169.41Zm0-1.43a.63.63,0,0,0-.63.63.64.64,0,1,0,.63-.63Z"/><path class="cls-10" d="M46.64,169.36a.75.75,0,1,1,0-1.5.75.75,0,1,1,0,1.5Zm0-1.43a.69.69,0,1,0,.69.68A.69.69,0,0,0,46.64,167.93Z"/><g class="cls-12"><path class="cls-9" d="M46.66,169.27a.64.64,0,0,0,.64-.64.65.65,0,0,0-.2-.46.65.65,0,0,1,.18.44.64.64,0,0,1-.64.64.65.65,0,0,1-.44-.18A.65.65,0,0,0,46.66,169.27Z"/><path class="cls-9" d="M45.86,168.63a.8.8,0,0,1,.8-.8.81.81,0,0,1,.56.23.82.82,0,0,0-.58-.25.79.79,0,0,0-.79.8.81.81,0,0,0,.24.58A.81.81,0,0,1,45.86,168.63Z"/></g><polygon class="cls-4" points="0.06 163.37 0.16 39.06 0.58 0.64 0.48 119.01 0.06 163.37"/><rect class="cls-13" x="3.64" y="40.21" width="87.12" height="123.95"/><path class="cls-14" d="M3.64,162.72V40.21c0,.79-.54,0,0,0L4,164.11C3.48,164.11,3.65,163.51,3.64,162.72Z"/><path class="cls-4" d="M90.13,161.46l-.49-122.1c.19,0,.37-.75.38-1.63l1.34,122.48C91.34,161.09,90.32,161.46,90.13,161.46Z"/><polygon class="cls-4" points="91.32 159.91 90.02 37.73 91.29 0 91.34 116.26 91.32 159.91"/><polygon class="cls-7" points="91.06 118.38 91.13 0.37 94.28 0.37 94.34 118.38 91.06 118.38"/><rect class="cls-7" x="0.4" y="0.72" width="3.35" height="118.01"/><rect class="cls-7" x="0.03" y="0.29" width="3.48" height="140.44"/><g class="cls-15"><path class="cls-16" d="M90.06,46.36h0a.89.89,0,0,0-.88-.87.83.83,0,0,0-.44.12c.07,0,.06.15.12.2-.24.16-.54.25-.55.55h0v1.28h-.64V46.36h0a.88.88,0,0,0-.87-.87.84.84,0,0,0-.45.12c.07,0,.06.15.12.2-.23.16-.54.25-.55.55h0v1.28h-.64V46.36h0a.88.88,0,0,0-.87-.87.83.83,0,0,0-.44.12c.07,0,.06.15.11.2-.23.16-.54.25-.54.55h0v1.28h-.63V46.36h0a.88.88,0,0,0-.87-.87.83.83,0,0,0-.44.12c.07,0,.06.15.12.2-.24.16-.54.25-.55.55h0v1.28h-.64V46.36h0a.88.88,0,0,0-.88-.87.83.83,0,0,0-.44.12c.07,0,.06.15.12.2-.23.16-.54.25-.55.55h0v1.28H78V46.36h0a.88.88,0,0,0-.87-.87.89.89,0,0,0-.45.12c.07,0,.07.15.12.2-.23.16-.54.25-.55.55h0v1.28h-.63V46.36h0a.88.88,0,0,0-.87-.87.83.83,0,0,0-.44.12c.07,0,.06.15.12.2-.24.16-.54.25-.55.55h0v1.28h-.63V46.36h0a.89.89,0,0,0-.88-.87.83.83,0,0,0-.44.12c.07,0,.06.15.12.2-.24.16-.54.25-.55.55h0v1.28H70.8V46.36h0a.88.88,0,0,0-.87-.87.84.84,0,0,0-.45.12c.07,0,.06.15.12.2-.23.16-.54.25-.55.55h0v1.28h-.64V46.36h0a.88.88,0,0,0-.87-.87.83.83,0,0,0-.44.12c.07,0,.06.15.11.2-.23.16-.54.25-.54.55h0v1.28H66V46.36h0a.88.88,0,0,0-.87-.87.83.83,0,0,0-.44.12c.07,0,.06.15.12.2-.24.16-.54.25-.55.55h0v1.28h-.64V46.36h0a.89.89,0,0,0-.88-.87.83.83,0,0,0-.44.12c.07,0,.06.15.12.2-.24.16-.54.25-.55.55h0v1.28h-.64V46.36h0a.88.88,0,0,0-.87-.87.84.84,0,0,0-.45.12c.07,0,.07.15.12.2-.23.16-.54.25-.55.55h0v1.28h-.64V46.36h0a.88.88,0,0,0-.87-.87.83.83,0,0,0-.44.12c.07,0,.06.15.11.2-.24.16-.56.25-.56.56v1.28h-.12v4.92h0v9.87h0v1.48H57v1.27c0,.31.32.4.56.56,0,.06,0,.16-.11.2a.83.83,0,0,0,.44.12.87.87,0,0,0,.88-.88V63.91h.64v1.27c0,.31.32.4.56.56-.05.06-.05.16-.12.2a.84.84,0,0,0,.45.12.87.87,0,0,0,.88-.88V63.91h.64v1.27c0,.31.32.4.56.56-.06.06,0,.16-.12.2a.83.83,0,0,0,.44.12.88.88,0,0,0,.89-.88V63.91h.64v1.27c0,.31.32.4.56.56-.06.06,0,.16-.12.2a.83.83,0,0,0,.44.12.88.88,0,0,0,.89-.88V63.91h.63v1.27c0,.31.32.4.56.56-.05.06,0,.16-.11.2a.83.83,0,0,0,.44.12.87.87,0,0,0,.88-.88V63.91H69v1.27c0,.31.32.4.56.56-.06.06,0,.16-.12.2a.84.84,0,0,0,.45.12.88.88,0,0,0,.88-.88V63.91h.64v1.27c0,.31.32.4.56.56-.06.06,0,.16-.12.2a.83.83,0,0,0,.44.12.88.88,0,0,0,.89-.88V63.91h.63v1.27c0,.31.32.4.57.56-.06.06,0,.16-.12.2a.83.83,0,0,0,.44.12.88.88,0,0,0,.89-.88V63.91h.63v1.27c0,.31.32.4.56.56,0,.06,0,.16-.12.2a.89.89,0,0,0,.45.12.87.87,0,0,0,.88-.88V63.91h.64v1.27c0,.31.32.4.56.56-.06.06,0,.16-.12.2a.83.83,0,0,0,.44.12.88.88,0,0,0,.89-.88V63.91h.64v1.27c0,.31.32.4.56.56-.06.06,0,.16-.12.2a.83.83,0,0,0,.44.12.88.88,0,0,0,.89-.88V63.91h.63v1.27c0,.31.32.4.56.56,0,.06,0,.16-.11.2a.83.83,0,0,0,.44.12.87.87,0,0,0,.88-.88V63.91h.64v1.27c0,.31.32.4.56.56-.06.06,0,.16-.12.2a.84.84,0,0,0,.45.12.87.87,0,0,0,.88-.88V63.91h.64v1.27c0,.31.32.4.56.56-.06.06,0,.16-.12.2a.83.83,0,0,0,.44.12.88.88,0,0,0,.89-.88V46.36Z"/></g><g class="cls-15"><path class="cls-17" d="M5.12,46.36h0A.88.88,0,0,1,6,45.48a.83.83,0,0,1,.44.12c-.07,0-.06.15-.11.2.23.16.54.25.54.55h0v1.28h.63V46.36h0a.88.88,0,0,1,.87-.87.83.83,0,0,1,.44.12c-.07,0-.06.15-.12.2.24.16.54.25.55.55h0v1.28h.64V46.36h0a.89.89,0,0,1,.88-.87.83.83,0,0,1,.44.12c-.07,0-.06.15-.12.2.24.16.54.25.55.55h0v1.28h.64V46.36h0a.88.88,0,0,1,.87-.87.84.84,0,0,1,.45.12c-.07,0-.07.15-.12.2.23.16.54.25.55.55h0v1.28h.64V46.36h0a.88.88,0,0,1,.87-.87.83.83,0,0,1,.44.12c-.07,0-.06.15-.11.2.23.16.54.25.54.55h0v1.28h.63V46.36h0a.88.88,0,0,1,.87-.87.83.83,0,0,1,.44.12c-.07,0-.06.15-.12.2.24.16.54.25.55.55h0v1.28h.64V46.36h0a.88.88,0,0,1,.88-.87.83.83,0,0,1,.44.12c-.07,0-.06.15-.12.2.23.16.54.25.55.55h0v1.28H22V46.36h0a.88.88,0,0,1,.87-.87.89.89,0,0,1,.45.12c-.07,0-.07.15-.12.2.23.16.54.25.54.55h0v1.28h.63V46.36h0a.88.88,0,0,1,.87-.87.83.83,0,0,1,.44.12c-.07,0-.06.15-.11.2.23.16.53.25.54.55h0v1.28h.63V46.36h0a.89.89,0,0,1,.88-.87.83.83,0,0,1,.44.12c-.07,0-.06.15-.12.2.24.16.54.25.55.55h0v1.28h.64V46.36h0a.88.88,0,0,1,.87-.87.84.84,0,0,1,.45.12c-.07,0-.06.15-.12.2.23.16.54.25.55.55h0v1.28h.64V46.36h0a.88.88,0,0,1,.87-.87.83.83,0,0,1,.44.12c-.07,0-.06.15-.11.2.23.16.54.25.54.55h0v1.28H34V46.36h0a.88.88,0,0,1,.87-.87.83.83,0,0,1,.44.12c-.07,0-.06.15-.12.2.24.16.54.25.55.55h0v1.28h.64V46.36h0a.89.89,0,0,1,.88-.87.83.83,0,0,1,.44.12c-.07,0-.06.15-.12.2.24.16.56.25.56.56v1.28h.13v4.92h0v9.87h0v1.48h-.13v1.27c0,.31-.32.4-.56.56.06.06.05.16.12.2a.83.83,0,0,1-.44.12.88.88,0,0,1-.89-.88V63.91h-.64v1.27c0,.31-.32.4-.56.56.06.06,0,.16.12.2a.83.83,0,0,1-.44.12.88.88,0,0,1-.89-.88V63.91h-.63v1.27c0,.31-.32.4-.56.56,0,.06,0,.16.11.2a.83.83,0,0,1-.44.12.87.87,0,0,1-.88-.88V63.91H31v1.27c0,.31-.32.4-.56.56.06.06.05.16.12.2a.84.84,0,0,1-.45.12.88.88,0,0,1-.88-.88V63.91h-.64v1.27c0,.31-.32.4-.56.56.06.06.05.16.12.2a.83.83,0,0,1-.44.12.88.88,0,0,1-.89-.88V63.91h-.63v1.27c0,.31-.32.4-.56.56.05.06,0,.16.11.2a.83.83,0,0,1-.44.12.88.88,0,0,1-.89-.88V63.91h-.63v1.27c0,.31-.32.4-.56.56.05.06.05.16.12.2a.89.89,0,0,1-.45.12.87.87,0,0,1-.88-.88V63.91h-.64v1.27c0,.31-.32.4-.56.56.06.06.05.16.12.2a.83.83,0,0,1-.44.12.88.88,0,0,1-.89-.88V63.91h-.64v1.27c0,.31-.32.4-.56.56.06.06.05.16.12.2a.83.83,0,0,1-.44.12.88.88,0,0,1-.89-.88V63.91h-.63v1.27c0,.31-.32.4-.56.56.05.06,0,.16.11.2a.83.83,0,0,1-.44.12.87.87,0,0,1-.88-.88V63.91h-.64v1.27c0,.31-.32.4-.56.56.06.06,0,.16.12.2a.84.84,0,0,1-.45.12.87.87,0,0,1-.88-.88V63.91H11.7v1.27c0,.31-.32.4-.56.56.06.06,0,.16.12.2a.83.83,0,0,1-.44.12.88.88,0,0,1-.89-.88V63.91H9.29v1.27c0,.31-.32.4-.56.56.06.06,0,.16.12.2a.83.83,0,0,1-.44.12.88.88,0,0,1-.89-.88V63.91H6.89v1.27c0,.31-.32.4-.56.56,0,.06,0,.16.11.2a.83.83,0,0,1-.44.12.87.87,0,0,1-.88-.88V46.36Z"/></g><g class="cls-15"><path class="cls-18" d="M90.06,135.9v0h0a.89.89,0,0,0-.88-.87.93.93,0,0,0-.44.12c.07,0,.06.15.12.21-.24.15-.54.24-.55.54h0v1.29h-.64V135.9h0v0h0a.88.88,0,0,0-.87-.87.94.94,0,0,0-.45.12c.07,0,.06.15.12.21-.23.15-.54.24-.55.54h0v1.29h-.64V135.9h0v0h0a.88.88,0,0,0-.87-.87.93.93,0,0,0-.44.12c.07,0,.06.15.11.21-.23.15-.54.24-.54.54h0v1.29h-.63V135.9h0A.88.88,0,0,0,82,135a.93.93,0,0,0-.44.12c.07,0,.06.15.12.21-.24.15-.54.24-.55.54h0v1.29h-.64V135.9h0v0h0a.88.88,0,0,0-.88-.87.93.93,0,0,0-.44.12c.07,0,.06.15.12.21-.23.15-.54.24-.55.54h0v1.29H78V135.9h0v0h0a.88.88,0,0,0-.87-.87,1,1,0,0,0-.45.12c.07,0,.07.15.12.21-.23.15-.54.24-.55.54h0v1.29h-.63V135.9h0v0h0a.88.88,0,0,0-.87-.87.93.93,0,0,0-.44.12c.07,0,.06.15.12.21-.24.15-.54.24-.55.54h0v1.29h-.63V135.9h0v0h0a.89.89,0,0,0-.88-.87.93.93,0,0,0-.44.12c.07,0,.06.15.12.21-.24.15-.54.24-.55.54h0v1.29H70.8V135.9h0v0h0a.88.88,0,0,0-.87-.87.94.94,0,0,0-.45.12c.07,0,.06.15.12.21-.23.15-.54.24-.55.54h0v1.29h-.64V135.9h0v0h0a.88.88,0,0,0-.87-.87.93.93,0,0,0-.44.12c.07,0,.06.15.11.21-.23.15-.54.24-.54.54h0v1.29H66V135.9h0v0h0a.88.88,0,0,0-.87-.87.93.93,0,0,0-.44.12c.07,0,.06.15.12.21-.24.15-.54.24-.55.54h0v1.29h-.64V135.9h0v0h0a.89.89,0,0,0-.88-.87.93.93,0,0,0-.44.12c.07,0,.06.15.12.21-.24.15-.54.24-.55.54h0v1.29h-.64V135.9h0v0h0a.88.88,0,0,0-.87-.87.94.94,0,0,0-.45.12c.07,0,.07.15.12.21-.23.15-.54.24-.55.54h0v1.29h-.64V135.9h0v0h0a.88.88,0,0,0-.87-.87.93.93,0,0,0-.44.12c.07,0,.06.15.11.21-.24.15-.56.25-.56.56v1.27h-.12v4.92h0V152h0v1.48H57v1.27c0,.31.32.4.56.56,0,.06,0,.16-.11.2a.84.84,0,0,0,.44.13.88.88,0,0,0,.88-.89v-1.27h.64v1.27c0,.31.32.4.56.56-.05.06-.05.16-.12.2a.85.85,0,0,0,.45.13.88.88,0,0,0,.88-.89v-1.27h.64v1.27c0,.31.32.4.56.56-.06.06,0,.16-.12.2a.84.84,0,0,0,.44.13.89.89,0,0,0,.89-.89v-1.27h.64v1.27c0,.31.32.4.56.56-.06.06,0,.16-.12.2a.84.84,0,0,0,.44.13.89.89,0,0,0,.89-.89v-1.27h.63v1.27c0,.31.32.4.56.56-.05.06,0,.16-.11.2a.84.84,0,0,0,.44.13.88.88,0,0,0,.88-.89v-1.27H69v1.27c0,.31.32.4.56.56-.06.06,0,.16-.12.2a.85.85,0,0,0,.45.13.89.89,0,0,0,.88-.89v-1.27h.64v1.27c0,.31.32.4.56.56-.06.06,0,.16-.12.2a.84.84,0,0,0,.44.13.89.89,0,0,0,.89-.89v-1.27h.63v1.27c0,.31.32.4.57.56-.06.06,0,.16-.12.2a.84.84,0,0,0,.44.13.89.89,0,0,0,.89-.89v-1.27h.63v1.27c0,.31.32.4.56.56,0,.06,0,.16-.12.2a.9.9,0,0,0,.45.13.88.88,0,0,0,.88-.89v-1.27h.64v1.27c0,.31.32.4.56.56-.06.06,0,.16-.12.2a.84.84,0,0,0,.44.13.89.89,0,0,0,.89-.89v-1.27h.64v1.27c0,.31.32.4.56.56-.06.06,0,.16-.12.2a.84.84,0,0,0,.44.13.89.89,0,0,0,.89-.89v-1.27h.63v1.27c0,.31.32.4.56.56,0,.06,0,.16-.11.2a.84.84,0,0,0,.44.13.88.88,0,0,0,.88-.89v-1.27h.64v1.27c0,.31.32.4.56.56-.06.06,0,.16-.12.2a.85.85,0,0,0,.45.13.88.88,0,0,0,.88-.89v-1.27h.64v1.27c0,.31.32.4.56.56-.06.06,0,.16-.12.2a.84.84,0,0,0,.44.13.89.89,0,0,0,.89-.89V135.9Z"/></g><g class="cls-15"><path class="cls-19" d="M5.12,135.9v0h0A.88.88,0,0,1,6,135a.93.93,0,0,1,.44.12c-.07,0-.06.15-.11.21.23.15.54.24.54.54h0v1.29h.63V135.9h0v0h0a.88.88,0,0,1,.87-.87.93.93,0,0,1,.44.12c-.07,0-.06.15-.12.21.24.15.54.24.55.54h0v1.29h.64V135.9h0v0h0a.89.89,0,0,1,.88-.87.93.93,0,0,1,.44.12c-.07,0-.06.15-.12.21.24.15.54.24.55.54h0v1.29h.64V135.9h0a.88.88,0,0,1,.87-.87.94.94,0,0,1,.45.12c-.07,0-.07.15-.12.21.23.15.54.24.55.54h0v1.29h.64V135.9h0v0h0a.88.88,0,0,1,.87-.87.93.93,0,0,1,.44.12c-.07,0-.06.15-.11.21.23.15.54.24.54.54h0v1.29h.63V135.9h0v0h0A.88.88,0,0,1,18,135a.93.93,0,0,1,.44.12c-.07,0-.06.15-.12.21.24.15.54.24.55.54h0v1.29h.64V135.9h0v0h0a.88.88,0,0,1,.88-.87.93.93,0,0,1,.44.12c-.07,0-.06.15-.12.21.23.15.54.24.55.54h0v1.29H22V135.9h0v0h0a.88.88,0,0,1,.87-.87,1,1,0,0,1,.45.12c-.07,0-.07.15-.12.21.23.15.54.24.54.54h0v1.29h.63V135.9h0v0h0a.88.88,0,0,1,.87-.87.93.93,0,0,1,.44.12c-.07,0-.06.15-.11.21.23.15.53.24.54.54h0v1.29h.63V135.9h0v0h0a.89.89,0,0,1,.88-.87.93.93,0,0,1,.44.12c-.07,0-.06.15-.12.21.24.15.54.24.55.54h0v1.29h.64V135.9h0v0h0a.88.88,0,0,1,.87-.87.94.94,0,0,1,.45.12c-.07,0-.06.15-.12.21.23.15.54.24.55.54h0v1.29h.64V135.9h0v0h0a.88.88,0,0,1,.87-.87.93.93,0,0,1,.44.12c-.07,0-.06.15-.11.21.23.15.54.24.54.54h0v1.29H34V135.9h0v0h0a.88.88,0,0,1,.87-.87.93.93,0,0,1,.44.12c-.07,0-.06.15-.12.21.24.15.54.24.55.54h0v1.29h.64V135.9h0v0h0a.89.89,0,0,1,.88-.87.93.93,0,0,1,.44.12c-.07,0-.06.15-.12.21.24.15.56.25.56.56v1.27h.13v4.92h0V152h0v1.48h-.13v1.27c0,.31-.32.4-.56.56.06.06.05.16.12.2a.84.84,0,0,1-.44.13.89.89,0,0,1-.89-.89v-1.27h-.64v1.27c0,.31-.32.4-.56.56.06.06,0,.16.12.2a.84.84,0,0,1-.44.13.89.89,0,0,1-.89-.89v-1.27h-.63v1.27c0,.31-.32.4-.56.56,0,.06,0,.16.11.2a.84.84,0,0,1-.44.13.88.88,0,0,1-.88-.89v-1.27H31v1.27c0,.31-.32.4-.56.56.06.06.05.16.12.2a.85.85,0,0,1-.45.13.89.89,0,0,1-.88-.89v-1.27h-.64v1.27c0,.31-.32.4-.56.56.06.06.05.16.12.2a.84.84,0,0,1-.44.13.89.89,0,0,1-.89-.89v-1.27h-.63v1.27c0,.31-.32.4-.56.56.05.06,0,.16.11.2a.84.84,0,0,1-.44.13.89.89,0,0,1-.89-.89v-1.27h-.63v1.27c0,.31-.32.4-.56.56.05.06.05.16.12.2a.9.9,0,0,1-.45.13.88.88,0,0,1-.88-.89v-1.27h-.64v1.27c0,.31-.32.4-.56.56.06.06.05.16.12.2a.84.84,0,0,1-.44.13.89.89,0,0,1-.89-.89v-1.27h-.64v1.27c0,.31-.32.4-.56.56.06.06.05.16.12.2a.84.84,0,0,1-.44.13.89.89,0,0,1-.89-.89v-1.27h-.63v1.27c0,.31-.32.4-.56.56.05.06,0,.16.11.2a.84.84,0,0,1-.44.13.88.88,0,0,1-.88-.89v-1.27h-.64v1.27c0,.31-.32.4-.56.56.06.06,0,.16.12.2a.85.85,0,0,1-.45.13.88.88,0,0,1-.88-.89v-1.27H11.7v1.27c0,.31-.32.4-.56.56.06.06,0,.16.12.2a.84.84,0,0,1-.44.13.89.89,0,0,1-.89-.89v-1.27H9.29v1.27c0,.31-.32.4-.56.56.06.06,0,.16.12.2a.84.84,0,0,1-.44.13.89.89,0,0,1-.89-.89v-1.27H6.89v1.27c0,.31-.32.4-.56.56,0,.06,0,.16.11.2a.84.84,0,0,1-.44.13.88.88,0,0,1-.88-.89V135.9Z"/></g><path d="M55.16,20.35a5.4,5.4,0,0,0-5.4,5.39v2.55h0v7h0s0,.1,0,.15v.1s0,0,0,.06v0h0a5,5,0,0,0,4.15,4.54,1.23,1.23,0,0,0,.32.07H57V37.88H54.72a2.63,2.63,0,0,1-2.63-2.57l-.17-7V25.74a3.24,3.24,0,0,1,6.48,0v7.49h2.16V25.74A5.4,5.4,0,0,0,55.16,20.35Z"/><path d="M45.35,35.25v-7h0V25.74a5.4,5.4,0,0,0-10.8,0v7.49H36.7V25.74a3.24,3.24,0,0,1,6.48,0V28.3l-.17,7a2.63,2.63,0,0,1-2.63,2.57H38.11v2.33h2.75a1.08,1.08,0,0,0,.31-.07,5,5,0,0,0,4.16-4.54h0v0a.14.14,0,0,0,0-.06v-.1s0-.1,0-.15Z"/><rect class="cls-20" x="56.87" y="31.4" width="33.18" height="16.27"/><g class="cls-21"><rect class="cls-22" x="56.86" y="36.33" width="33.19" height="9.87"/></g><rect class="cls-23" x="58.76" y="31.4" width="0.36" height="16.27"/><rect class="cls-23" x="61.17" y="31.4" width="0.36" height="16.27"/><rect class="cls-23" x="63.58" y="31.4" width="0.36" height="16.27"/><rect class="cls-23" x="65.99" y="31.4" width="0.36" height="16.27"/><rect class="cls-23" x="68.39" y="31.4" width="0.36" height="16.27"/><rect class="cls-23" x="70.8" y="31.4" width="0.36" height="16.27"/><rect class="cls-23" x="73.21" y="31.4" width="0.36" height="16.27"/><rect class="cls-23" x="75.62" y="31.4" width="0.36" height="16.27"/><rect class="cls-23" x="78.02" y="31.4" width="0.36" height="16.27"/><rect class="cls-23" x="80.43" y="31.4" width="0.36" height="16.27"/><rect class="cls-23" x="82.84" y="31.4" width="0.36" height="16.27"/><rect class="cls-23" x="85.24" y="31.4" width="0.36" height="16.27"/><rect class="cls-23" x="87.65" y="31.4" width="0.36" height="16.27"/><path class="cls-24" d="M90.06,48.94V30.13a.89.89,0,1,0-1.77,0V48.94a.89.89,0,1,0,1.77,0Z"/><path class="cls-24" d="M87.65,48.94V30.13a.89.89,0,1,0-1.77,0V48.94a.89.89,0,1,0,1.77,0Z"/><path class="cls-24" d="M85.24,48.94V30.13a.89.89,0,1,0-1.77,0V48.94a.89.89,0,1,0,1.77,0Z"/><path class="cls-24" d="M82.84,48.94V30.13a.89.89,0,1,0-1.77,0V48.94a.89.89,0,1,0,1.77,0Z"/><path class="cls-24" d="M80.43,48.94V30.13a.89.89,0,1,0-1.77,0V48.94a.89.89,0,1,0,1.77,0Z"/><path class="cls-24" d="M78,48.94V30.13a.89.89,0,1,0-1.77,0V48.94a.89.89,0,1,0,1.77,0Z"/><path class="cls-24" d="M75.62,48.94V30.13a.89.89,0,0,0-1.78,0V48.94a.89.89,0,0,0,1.78,0Z"/><path class="cls-24" d="M73.21,48.94V30.13a.89.89,0,1,0-1.77,0V48.94a.89.89,0,1,0,1.77,0Z"/><path class="cls-24" d="M70.8,48.94V30.13a.89.89,0,1,0-1.77,0V48.94a.89.89,0,1,0,1.77,0Z"/><path class="cls-24" d="M68.39,48.94V30.13a.89.89,0,1,0-1.77,0V48.94a.89.89,0,1,0,1.77,0Z"/><path class="cls-24" d="M66,48.94V30.13a.89.89,0,1,0-1.77,0V48.94a.89.89,0,1,0,1.77,0Z"/><path class="cls-24" d="M63.58,48.94V30.13a.89.89,0,1,0-1.77,0V48.94a.89.89,0,1,0,1.77,0Z"/><path class="cls-24" d="M61.17,48.94V30.13a.89.89,0,1,0-1.77,0V48.94a.89.89,0,1,0,1.77,0Z"/><path class="cls-24" d="M58.76,48.94V30.13a.89.89,0,1,0-1.77,0V48.94a.89.89,0,1,0,1.77,0Z"/><path class="cls-25" d="M57.88,48.94V30.13a.87.87,0,0,0-.44-.76.84.84,0,0,1,.44-.13.88.88,0,0,1,.88.89V48.94a.88.88,0,0,1-.88.89.93.93,0,0,1-.44-.12A.9.9,0,0,0,57.88,48.94Z"/><path class="cls-25" d="M60.29,48.94V30.13a.86.86,0,0,0-.45-.76.85.85,0,0,1,.45-.13.88.88,0,0,1,.88.89V48.94a.88.88,0,0,1-.88.89.94.94,0,0,1-.45-.12A.89.89,0,0,0,60.29,48.94Z"/><path class="cls-25" d="M62.69,48.94V30.13a.87.87,0,0,0-.44-.76.84.84,0,0,1,.44-.13.89.89,0,0,1,.89.89V48.94a.89.89,0,0,1-.89.89.93.93,0,0,1-.44-.12A.9.9,0,0,0,62.69,48.94Z"/><path class="cls-25" d="M65.1,48.94V30.13a.87.87,0,0,0-.44-.76.84.84,0,0,1,.44-.13.89.89,0,0,1,.89.89V48.94a.89.89,0,0,1-.89.89.93.93,0,0,1-.44-.12A.9.9,0,0,0,65.1,48.94Z"/><path class="cls-25" d="M67.51,48.94V30.13a.87.87,0,0,0-.44-.76.84.84,0,0,1,.44-.13.88.88,0,0,1,.88.89V48.94a.88.88,0,0,1-.88.89.93.93,0,0,1-.44-.12A.9.9,0,0,0,67.51,48.94Z"/><path class="cls-25" d="M69.92,48.94V30.13a.86.86,0,0,0-.45-.76.85.85,0,0,1,.45-.13.89.89,0,0,1,.88.89V48.94a.89.89,0,0,1-.88.89.94.94,0,0,1-.45-.12A.89.89,0,0,0,69.92,48.94Z"/><path class="cls-25" d="M72.32,48.94V30.13a.87.87,0,0,0-.44-.76.84.84,0,0,1,.44-.13.89.89,0,0,1,.89.89V48.94a.89.89,0,0,1-.89.89.93.93,0,0,1-.44-.12A.9.9,0,0,0,72.32,48.94Z"/><path class="cls-25" d="M74.73,48.94V30.13a.87.87,0,0,0-.44-.76.84.84,0,0,1,.44-.13.89.89,0,0,1,.89.89V48.94a.89.89,0,0,1-.89.89.93.93,0,0,1-.44-.12A.9.9,0,0,0,74.73,48.94Z"/><path class="cls-25" d="M77.14,48.94V30.13a.86.86,0,0,0-.45-.76.9.9,0,0,1,.45-.13.88.88,0,0,1,.88.89V48.94a.88.88,0,0,1-.88.89,1,1,0,0,1-.45-.12A.89.89,0,0,0,77.14,48.94Z"/><path class="cls-25" d="M79.54,48.94V30.13a.85.85,0,0,0-.44-.76.84.84,0,0,1,.44-.13.89.89,0,0,1,.89.89V48.94a.89.89,0,0,1-.89.89.93.93,0,0,1-.44-.12A.88.88,0,0,0,79.54,48.94Z"/><path class="cls-25" d="M82,48.94V30.13a.87.87,0,0,0-.44-.76.84.84,0,0,1,.44-.13.89.89,0,0,1,.89.89V48.94a.89.89,0,0,1-.89.89.93.93,0,0,1-.44-.12A.9.9,0,0,0,82,48.94Z"/><path class="cls-25" d="M84.36,48.94V30.13a.87.87,0,0,0-.44-.76.84.84,0,0,1,.44-.13.88.88,0,0,1,.88.89V48.94a.88.88,0,0,1-.88.89.93.93,0,0,1-.44-.12A.9.9,0,0,0,84.36,48.94Z"/><path class="cls-25" d="M86.77,48.94V30.13a.86.86,0,0,0-.45-.76.85.85,0,0,1,.45-.13.88.88,0,0,1,.88.89V48.94a.88.88,0,0,1-.88.89.94.94,0,0,1-.45-.12A.89.89,0,0,0,86.77,48.94Z"/><path class="cls-25" d="M89.17,48.94V30.13a.87.87,0,0,0-.44-.76.84.84,0,0,1,.44-.13.89.89,0,0,1,.89.89V48.94a.89.89,0,0,1-.89.89.93.93,0,0,1-.44-.12A.9.9,0,0,0,89.17,48.94Z"/><g class="cls-11"><rect class="cls-26" x="88.29" y="34.9" width="1.77" height="13.6"/><rect class="cls-27" x="85.88" y="34.9" width="1.77" height="13.6"/><rect class="cls-28" x="83.47" y="34.9" width="1.77" height="13.6"/><rect class="cls-29" x="81.07" y="34.9" width="1.77" height="13.6"/><rect class="cls-30" x="78.66" y="34.9" width="1.77" height="13.6"/><rect class="cls-31" x="76.25" y="34.9" width="1.77" height="13.6"/><rect class="cls-32" x="73.84" y="34.9" width="1.77" height="13.6"/><rect class="cls-33" x="71.44" y="34.9" width="1.77" height="13.6"/><rect class="cls-34" x="69.03" y="34.9" width="1.77" height="13.6"/><rect class="cls-35" x="66.62" y="34.9" width="1.77" height="13.6"/><rect class="cls-36" x="64.22" y="34.9" width="1.77" height="13.6"/><rect class="cls-37" x="61.81" y="34.9" width="1.77" height="13.6"/><rect class="cls-38" x="59.4" y="34.9" width="1.77" height="13.6"/><rect class="cls-39" x="56.99" y="34.9" width="1.77" height="13.6"/></g><g class="cls-12"><path class="cls-40" d="M88.29,30.12h1.77v3.23H88.29V30.13Z"/><path class="cls-41" d="M85.88,30.12h1.77v3.23H85.88V30.13Z"/><path class="cls-42" d="M83.48,30.12h1.76v3.23H83.47V30.13Z"/><path class="cls-43" d="M81.07,30.12h1.77v3.23H81.07V30.13Z"/><path class="cls-44" d="M78.66,30.12h1.77v3.23H78.66V30.13Z"/><path class="cls-45" d="M76.25,30.12H78v3.23H76.25V30.13Z"/><path class="cls-46" d="M73.85,30.12h1.76s0,3.23,0,3.23H73.84V30.13Z"/><path class="cls-47" d="M71.44,30.12h1.77v3.23H71.44V30.13Z"/><path class="cls-48" d="M69,30.12H70.8v3.23H69V30.13Z"/><path class="cls-49" d="M66.62,30.12h1.77v3.23H66.62V30.13Z"/><path class="cls-50" d="M64.22,30.12H66s0,3.23,0,3.23H64.22V30.13Z"/><path class="cls-51" d="M61.81,30.12h1.77v3.23H61.81V30.13Z"/><path class="cls-52" d="M59.4,30.12h1.77v3.23H59.4V30.13Z"/><path class="cls-53" d="M58.76,33.35H57V30.13h1.77Z"/></g><rect class="cls-20" x="4.9" y="31.4" width="33.18" height="16.27"/><g class="cls-21"><rect class="cls-54" x="4.89" y="36.33" width="33.19" height="9.87"/></g><rect class="cls-23" x="6.8" y="31.4" width="0.36" height="16.27"/><rect class="cls-23" x="9.2" y="31.4" width="0.36" height="16.27"/><rect class="cls-23" x="11.61" y="31.4" width="0.36" height="16.27"/><rect class="cls-23" x="14.02" y="31.4" width="0.36" height="16.27"/><rect class="cls-23" x="16.42" y="31.4" width="0.36" height="16.27"/><rect class="cls-23" x="18.83" y="31.4" width="0.36" height="16.27"/><rect class="cls-23" x="21.24" y="31.4" width="0.36" height="16.27"/><rect class="cls-23" x="23.65" y="31.4" width="0.36" height="16.27"/><rect class="cls-23" x="26.05" y="31.4" width="0.36" height="16.27"/><rect class="cls-23" x="28.46" y="31.4" width="0.36" height="16.27"/><rect class="cls-23" x="30.87" y="31.4" width="0.36" height="16.27"/><rect class="cls-23" x="33.28" y="31.4" width="0.36" height="16.27"/><rect class="cls-23" x="35.68" y="31.4" width="0.36" height="16.27"/><path class="cls-24" d="M38.09,48.94V30.13a.89.89,0,1,0-1.77,0V48.94a.89.89,0,1,0,1.77,0Z"/><path class="cls-24" d="M35.68,48.94V30.13a.89.89,0,1,0-1.77,0V48.94a.89.89,0,1,0,1.77,0Z"/><path class="cls-24" d="M33.28,48.94V30.13a.89.89,0,1,0-1.78,0V48.94a.89.89,0,0,0,1.78,0Z"/><path class="cls-24" d="M30.87,48.94V30.13a.89.89,0,1,0-1.77,0V48.94a.89.89,0,1,0,1.77,0Z"/><path class="cls-24" d="M28.46,48.94V30.13a.89.89,0,1,0-1.77,0V48.94a.89.89,0,1,0,1.77,0Z"/><path class="cls-24" d="M26.05,48.94V30.13a.89.89,0,1,0-1.77,0V48.94a.89.89,0,1,0,1.77,0Z"/><path class="cls-24" d="M23.65,48.94V30.13a.89.89,0,1,0-1.77,0V48.94a.89.89,0,1,0,1.77,0Z"/><path class="cls-24" d="M21.24,48.94V30.13a.89.89,0,1,0-1.77,0V48.94a.89.89,0,1,0,1.77,0Z"/><path class="cls-24" d="M18.83,48.94V30.13a.89.89,0,1,0-1.77,0V48.94a.89.89,0,1,0,1.77,0Z"/><path class="cls-24" d="M16.42,48.94V30.13a.89.89,0,1,0-1.77,0V48.94a.89.89,0,1,0,1.77,0Z"/><path class="cls-24" d="M14,48.94V30.13a.89.89,0,1,0-1.77,0V48.94a.89.89,0,1,0,1.77,0Z"/><path class="cls-24" d="M11.61,48.94V30.13a.89.89,0,1,0-1.77,0V48.94a.89.89,0,1,0,1.77,0Z"/><path class="cls-24" d="M9.2,48.94V30.13a.89.89,0,1,0-1.77,0V48.94a.89.89,0,1,0,1.77,0Z"/><path class="cls-24" d="M6.8,48.94V30.13a.89.89,0,1,0-1.78,0V48.94a.89.89,0,0,0,1.78,0Z"/><path class="cls-25" d="M5.91,48.94V30.13a.87.87,0,0,0-.44-.76.84.84,0,0,1,.44-.13.89.89,0,0,1,.89.89V48.94a.89.89,0,0,1-.89.89.93.93,0,0,1-.44-.12A.9.9,0,0,0,5.91,48.94Z"/><path class="cls-25" d="M8.32,48.94V30.13a.86.86,0,0,0-.45-.76.85.85,0,0,1,.45-.13.88.88,0,0,1,.88.89V48.94a.88.88,0,0,1-.88.89.94.94,0,0,1-.45-.12A.89.89,0,0,0,8.32,48.94Z"/><path class="cls-25" d="M10.72,48.94V30.13a.87.87,0,0,0-.44-.76.84.84,0,0,1,.44-.13.89.89,0,0,1,.89.89V48.94a.89.89,0,0,1-.89.89.93.93,0,0,1-.44-.12A.9.9,0,0,0,10.72,48.94Z"/><path class="cls-25" d="M13.13,48.94V30.13a.87.87,0,0,0-.44-.76.84.84,0,0,1,.44-.13.89.89,0,0,1,.89.89V48.94a.89.89,0,0,1-.89.89.93.93,0,0,1-.44-.12A.9.9,0,0,0,13.13,48.94Z"/><path class="cls-25" d="M15.54,48.94V30.13a.87.87,0,0,0-.44-.76.84.84,0,0,1,.44-.13.88.88,0,0,1,.88.89V48.94a.88.88,0,0,1-.88.89.93.93,0,0,1-.44-.12A.9.9,0,0,0,15.54,48.94Z"/><path class="cls-25" d="M18,48.94V30.13a.86.86,0,0,0-.45-.76.85.85,0,0,1,.45-.13.89.89,0,0,1,.88.89V48.94a.89.89,0,0,1-.88.89.94.94,0,0,1-.45-.12A.89.89,0,0,0,18,48.94Z"/><path class="cls-25" d="M20.35,48.94V30.13a.87.87,0,0,0-.44-.76.84.84,0,0,1,.44-.13.89.89,0,0,1,.89.89V48.94a.89.89,0,0,1-.89.89.93.93,0,0,1-.44-.12A.9.9,0,0,0,20.35,48.94Z"/><path class="cls-25" d="M22.76,48.94V30.13a.87.87,0,0,0-.44-.76.84.84,0,0,1,.44-.13.89.89,0,0,1,.89.89V48.94a.89.89,0,0,1-.89.89.93.93,0,0,1-.44-.12A.9.9,0,0,0,22.76,48.94Z"/><path class="cls-25" d="M25.17,48.94V30.13a.87.87,0,0,0-.44-.76.84.84,0,0,1,.44-.13.88.88,0,0,1,.88.89V48.94a.88.88,0,0,1-.88.89.93.93,0,0,1-.44-.12A.9.9,0,0,0,25.17,48.94Z"/><path class="cls-25" d="M27.58,48.94V30.13a.86.86,0,0,0-.45-.76.85.85,0,0,1,.45-.13.89.89,0,0,1,.88.89V48.94a.89.89,0,0,1-.88.89.94.94,0,0,1-.45-.12A.89.89,0,0,0,27.58,48.94Z"/><path class="cls-25" d="M30,48.94V30.13a.87.87,0,0,0-.44-.76.84.84,0,0,1,.44-.13.89.89,0,0,1,.89.89V48.94a.89.89,0,0,1-.89.89.93.93,0,0,1-.44-.12A.9.9,0,0,0,30,48.94Z"/><path class="cls-25" d="M32.39,48.94V30.13a.87.87,0,0,0-.44-.76.84.84,0,0,1,.44-.13.89.89,0,0,1,.89.89V48.94a.89.89,0,0,1-.89.89.93.93,0,0,1-.44-.12A.9.9,0,0,0,32.39,48.94Z"/><path class="cls-25" d="M34.8,48.94V30.13a.86.86,0,0,0-.45-.76.85.85,0,0,1,.45-.13.88.88,0,0,1,.88.89V48.94a.88.88,0,0,1-.88.89.94.94,0,0,1-.45-.12A.89.89,0,0,0,34.8,48.94Z"/><path class="cls-25" d="M37.2,48.94V30.13a.87.87,0,0,0-.44-.76.84.84,0,0,1,.44-.13.89.89,0,0,1,.89.89V48.94a.89.89,0,0,1-.89.89.93.93,0,0,1-.44-.12A.9.9,0,0,0,37.2,48.94Z"/><g class="cls-11"><rect class="cls-55" x="36.32" y="34.9" width="1.77" height="13.6"/><rect class="cls-56" x="33.91" y="34.9" width="1.77" height="13.6"/><rect class="cls-57" x="31.5" y="34.9" width="1.77" height="13.6"/><rect class="cls-58" x="29.1" y="34.9" width="1.77" height="13.6"/><rect class="cls-59" x="26.69" y="34.9" width="1.77" height="13.6"/><rect class="cls-60" x="24.28" y="34.9" width="1.77" height="13.6"/><rect class="cls-61" x="21.88" y="34.9" width="1.77" height="13.6"/><rect class="cls-62" x="19.47" y="34.9" width="1.77" height="13.6"/><rect class="cls-63" x="17.06" y="34.9" width="1.77" height="13.6"/><rect class="cls-64" x="14.65" y="34.9" width="1.77" height="13.6"/><rect class="cls-65" x="12.25" y="34.9" width="1.77" height="13.6"/><rect class="cls-66" x="9.84" y="34.9" width="1.77" height="13.6"/><rect class="cls-67" x="7.43" y="34.9" width="1.77" height="13.6"/><rect class="cls-68" x="5.02" y="34.9" width="1.77" height="13.6"/></g><g class="cls-12"><path class="cls-69" d="M36.32,30.12h1.77v3.23H36.32V30.13Z"/><path class="cls-70" d="M33.91,30.12h1.77v3.23H33.91V30.13Z"/><path class="cls-71" d="M31.51,30.12h1.76s0,3.23,0,3.23H31.5V30.13Z"/><path class="cls-72" d="M29.1,30.12h1.77v3.23H29.1V30.13Z"/><path class="cls-73" d="M26.69,30.12h1.77v3.23H26.69V30.13Z"/><path class="cls-74" d="M24.28,30.12h1.77v3.23H24.28V30.13Z"/><path class="cls-75" d="M21.88,30.12h1.76s0,3.23,0,3.23H21.88V30.13Z"/><path class="cls-76" d="M19.47,30.12h1.77v3.23H19.47V30.13Z"/><path class="cls-77" d="M17.06,30.12h1.77v3.23H17.06V30.13Z"/><path class="cls-78" d="M14.65,30.12h1.77v3.23H14.65V30.13Z"/><path class="cls-79" d="M12.25,30.12H14v3.23H12.25V30.13Z"/><path class="cls-80" d="M9.84,30.12h1.77v3.23H9.84V30.13Z"/><path class="cls-81" d="M7.43,30.12H9.2v3.23H7.43V30.13Z"/><path class="cls-82" d="M6.8,33.35H5V30.13H6.79S6.8,33.35,6.8,33.35Z"/></g><polygon points="47.11 185.54 44.65 185.42 44.65 189.9 47.04 189.9 47.04 188.81 47.04 188.81 47.04 186.63 47.04 186.63 47.11 185.54"/><ellipse class="cls-83" cx="67.72" cy="225.01" rx="3.77" ry="2.08"/><ellipse class="cls-83" cx="67.72" cy="195.19" rx="3.77" ry="2.08"/><rect class="cls-84" x="64.81" y="159.9" width="5.81" height="66.62" rx="0.73"/><rect class="cls-85" x="64.81" y="159.9" width="5.81" height="66.62" rx="1"/><rect class="cls-86" x="63.21" y="164" width="10.59" height="3.26"/><path class="cls-83" d="M71,195.19h0c-.23.82-1.56,1.48-3.34,1.48s-2.86-.6-3.22-1.34c0-.06-.19-.1-.2-.15H64c0,1.15,1.68,2.08,3.77,2.08s3.77-.93,3.77-2.08Z"/><path class="cls-8" d="M64.33,196.13a4.35,4.35,0,0,0,3,1.12,6,6,0,0,0,3.29-.75l0,2.91h-6S64.31,196.11,64.33,196.13Z"/><path class="cls-83" d="M71,225h0c-.23.82-1.56,1.48-3.34,1.48s-2.86-.6-3.22-1.34c0-.06-.19-.09-.2-.15H64c0,1.15,1.68,2.08,3.77,2.08s3.77-.93,3.77-2.08Z"/><ellipse class="cls-83" cx="24.66" cy="225.01" rx="3.77" ry="2.08"/><ellipse class="cls-83" cx="24.66" cy="195.19" rx="3.77" ry="2.08"/><rect class="cls-87" x="21.75" y="159.59" width="5.81" height="66.94" rx="0.59"/><rect class="cls-88" x="21.75" y="159.59" width="5.81" height="66.94" rx="1.34"/><rect class="cls-86" x="20.15" y="164" width="10.59" height="3.26"/><path class="cls-83" d="M28,195.19h0c-.24.82-1.57,1.48-3.34,1.48s-2.86-.6-3.23-1.34c0-.06-.18-.1-.19-.15h-.32c0,1.15,1.69,2.08,3.77,2.08s3.77-.93,3.77-2.08Z"/><path class="cls-8" d="M21.28,196.13a4.33,4.33,0,0,0,3,1.12,6,6,0,0,0,3.29-.75l0,2.91h-6S21.25,196.11,21.28,196.13Z"/><path class="cls-83" d="M28,225h0c-.24.82-1.57,1.48-3.34,1.48s-2.86-.6-3.23-1.34c0-.06-.18-.09-.19-.15h-.32c0,1.15,1.69,2.08,3.77,2.08s3.77-.93,3.77-2.08Z"/><ellipse class="cls-89" cx="67.71" cy="159.55" rx="4.57" ry="1.68"/><path class="cls-90" d="M70.14,159.4c-.07,0-.14,0-.14.11a.12.12,0,0,0-.13-.11H65.58a.12.12,0,0,0-.13.11.13.13,0,0,0-.14-.11h-2a.11.11,0,0,0-.12.1v2.36a.11.11,0,0,0,.12.1h2a.13.13,0,0,0,.14-.11.12.12,0,0,0,.13.11h4.29a.12.12,0,0,0,.13-.11c0,.06.07.11.14.11h2a.11.11,0,0,0,.12-.1V159.5a.11.11,0,0,0-.12-.1Z"/><path class="cls-91" d="M63.17,161.22v.66c0,.06,0,.1.12.1a67.32,67.32,0,0,0,8.87,0c.07,0,.12,0,.12-.1v-.66a.11.11,0,0,0-.12-.1H63.29A.11.11,0,0,0,63.17,161.22Z"/><path class="cls-92" d="M72.28,160.42v-.64c0-.05,0-.08-.12-.09-3-.09-5.92-.09-8.87,0-.07,0-.12,0-.12.09v.64c0,.05.06.08.12.08h8.87C72.22,160.5,72.28,160.47,72.28,160.42Z"/><path class="cls-93" d="M65.45,159.81v2.05c0,.06-.06.1-.14.1h-2c-.06,0-.12,0-.12-.08V159.8c0-.05.06-.09.12-.09h2C65.39,159.71,65.45,159.76,65.45,159.81Z"/><path class="cls-94" d="M72.28,159.8v2.08s-.06.08-.12.08h-2c-.07,0-.14,0-.14-.1v-2.05c0-.05.07-.1.14-.1h2C72.22,159.71,72.28,159.75,72.28,159.8Z"/><path class="cls-95" d="M72.28,159.8v2.08s-.06.08-.12.08h-2c-.07,0-.14,0-.14-.1v-2.05c0-.05.07-.1.14-.1h2C72.22,159.71,72.28,159.75,72.28,159.8Z"/><path class="cls-96" d="M70,159.81v2.05c0,.06-.06.1-.13.1H65.62c-.07,0-.13,0-.13-.1v-2.05a.12.12,0,0,1,.13-.1h4.21A.12.12,0,0,1,70,159.81Z"/><path class="cls-97" d="M70,159.81v2.05c0,.06-.06.1-.13.1H65.62c-.07,0-.13,0-.13-.1v-2.05a.12.12,0,0,1,.13-.1h4.21A.12.12,0,0,1,70,159.81Z"/><rect class="cls-98" x="69.96" y="159.64" width="0.04" height="2.21"/><rect class="cls-99" x="65.45" y="159.64" width="0.04" height="2.21"/><path class="cls-100" d="M72.36,163.05H63.07c-.14,0-.25,0-.25-.08v-.43s.11-.08.25-.08h9.29c.14,0,.25,0,.25.08V163C72.61,163,72.5,163.05,72.36,163.05Z"/><path class="cls-101" d="M72.36,163.05H63.07c-.14,0-.25,0-.25-.08v-.43s.11-.08.25-.08h9.29c.14,0,.25,0,.25.08V163C72.61,163,72.5,163.05,72.36,163.05Z"/><path class="cls-102" d="M72.36,162.63H63.07c-.14,0-.25,0-.25-.08h0s.11-.08.25-.08h9.29c.14,0,.25,0,.25.08h0S72.5,162.63,72.36,162.63Z"/><path class="cls-103" d="M72.36,163.05H63.07c-.14,0-.25,0-.25-.08h0c0-.05.11-.09.25-.09h9.29c.14,0,.25,0,.25.09h0C72.61,163,72.5,163.05,72.36,163.05Z"/><ellipse class="cls-104" cx="24.65" cy="159.55" rx="4.57" ry="1.68"/><path class="cls-90" d="M27.09,159.4a.14.14,0,0,1-.28,0H22.53a.13.13,0,0,0-.14.11.12.12,0,0,0-.13-.11h-2c-.07,0-.12,0-.12.1v2.36c0,.06.05.1.12.1h2a.12.12,0,0,0,.13-.11.13.13,0,0,0,.14.11h4.28a.14.14,0,0,1,.28,0h2c.07,0,.12,0,.12-.1V159.5c0-.06,0-.1-.12-.1Z"/><path class="cls-105" d="M20.12,161.22v.66a.1.1,0,0,0,.11.1,67.47,67.47,0,0,0,8.88,0,.1.1,0,0,0,.11-.1v-.66c0-.06,0-.1-.12-.1H20.24C20.17,161.12,20.12,161.16,20.12,161.22Z"/><path class="cls-106" d="M29.22,160.42v-.64c0-.05,0-.08-.11-.09q-4.44-.13-8.88,0c-.06,0-.11,0-.11.09v.64c0,.05.05.08.12.08H29.1C29.17,160.5,29.22,160.47,29.22,160.42Z"/><path class="cls-107" d="M22.39,159.81v2.05c0,.06-.06.1-.13.1h-2c-.07,0-.12,0-.12-.08V159.8c0-.05.05-.09.12-.09h2A.12.12,0,0,1,22.39,159.81Z"/><path class="cls-108" d="M29.22,159.8v2.08s0,.08-.12.08h-2c-.08,0-.14,0-.14-.1v-2.05c0-.05.06-.1.14-.1h2C29.17,159.71,29.22,159.75,29.22,159.8Z"/><path class="cls-109" d="M29.22,159.8v2.08s0,.08-.12.08h-2c-.08,0-.14,0-.14-.1v-2.05c0-.05.06-.1.14-.1h2C29.17,159.71,29.22,159.75,29.22,159.8Z"/><path class="cls-110" d="M26.91,159.81v2.05c0,.06-.06.1-.13.1H22.57c-.08,0-.14,0-.14-.1v-2.05c0-.05.06-.1.14-.1h4.21A.12.12,0,0,1,26.91,159.81Z"/><path class="cls-111" d="M26.91,159.81v2.05c0,.06-.06.1-.13.1H22.57c-.08,0-.14,0-.14-.1v-2.05c0-.05.06-.1.14-.1h4.21A.12.12,0,0,1,26.91,159.81Z"/><rect class="cls-112" x="26.91" y="159.64" width="0.04" height="2.21"/><rect class="cls-113" x="22.39" y="159.64" width="0.04" height="2.21"/><path class="cls-114" d="M29.31,163.05H20c-.14,0-.26,0-.26-.08v-.43s.12-.08.26-.08h9.29c.13,0,.25,0,.25.08V163C29.56,163,29.44,163.05,29.31,163.05Z"/><path class="cls-115" d="M29.31,163.05H20c-.14,0-.26,0-.26-.08v-.43s.12-.08.26-.08h9.29c.13,0,.25,0,.25.08V163C29.56,163,29.44,163.05,29.31,163.05Z"/><path class="cls-116" d="M29.31,162.63H20c-.14,0-.26,0-.26-.08h0s.12-.08.26-.08h9.29c.13,0,.25,0,.25.08h0S29.44,162.63,29.31,162.63Z"/><path class="cls-117" d="M29.31,163.05H20c-.14,0-.26,0-.26-.08h0c0-.05.12-.09.26-.09h9.29c.13,0,.25,0,.25.09h0C29.56,163,29.44,163.05,29.31,163.05Z"/><rect class="cls-86" x="63.21" y="198.72" width="10.59" height="3.43"/><rect class="cls-86" x="20.15" y="198.72" width="10.59" height="3.43"/><path class="cls-3" d="M79.93,167.29H15.06C7,167.29.34,163.91.34,155.7V140.13H3.62V155.7c0,6.39,5.13,8.28,11.44,8.28H79.93c6.31,0,11.45-1.89,11.45-8.28V140.13h3.27V155.7C94.65,163.91,88.05,167.29,79.93,167.29Z"/><path class="cls-3" d="M79.93,202H15.06C7,202,.34,198.67.34,190.46V174.89H3.62v15.57c0,6.38,5.13,8.27,11.44,8.27H79.93c6.31,0,11.45-1.89,11.45-8.27V174.89h3.27v15.57C94.65,198.67,88.05,202,79.93,202Z"/><path class="cls-3" d="M79.93,233.67H15.06C7,233.67.34,230.3.34,222.09V206.52H3.62v15.57c0,6.38,5.13,8.27,11.44,8.27H79.93c6.31,0,11.45-1.89,11.45-8.27V206.52h3.27v15.57C94.65,230.3,88.05,233.67,79.93,233.67Z"/><rect class="cls-20" x="4.9" y="120.35" width="33.18" height="16.27"/><g class="cls-21"><rect class="cls-118" x="4.89" y="121.83" width="33.19" height="9.87"/></g><rect class="cls-23" x="6.8" y="120.35" width="0.36" height="16.27"/><rect class="cls-23" x="9.2" y="120.35" width="0.36" height="16.27"/><rect class="cls-23" x="11.61" y="120.35" width="0.36" height="16.27"/><rect class="cls-23" x="14.02" y="120.35" width="0.36" height="16.27"/><rect class="cls-23" x="16.42" y="120.35" width="0.36" height="16.27"/><rect class="cls-23" x="18.83" y="120.35" width="0.36" height="16.27"/><rect class="cls-23" x="21.24" y="120.35" width="0.36" height="16.27"/><rect class="cls-23" x="23.65" y="120.35" width="0.36" height="16.27"/><rect class="cls-23" x="26.05" y="120.35" width="0.36" height="16.27"/><rect class="cls-23" x="28.46" y="120.35" width="0.36" height="16.27"/><rect class="cls-23" x="30.87" y="120.35" width="0.36" height="16.27"/><rect class="cls-23" x="33.28" y="120.35" width="0.36" height="16.27"/><rect class="cls-23" x="35.68" y="120.35" width="0.36" height="16.27"/><path class="cls-24" d="M38.09,119.08v18.81a.89.89,0,1,1-1.77,0V119.08a.89.89,0,1,1,1.77,0Z"/><path class="cls-24" d="M35.68,119.08v18.81a.89.89,0,1,1-1.77,0V119.08a.89.89,0,1,1,1.77,0Z"/><path class="cls-24" d="M33.28,119.08v18.81a.89.89,0,1,1-1.78,0V119.08a.89.89,0,0,1,1.78,0Z"/><path class="cls-24" d="M30.87,119.08v18.81a.89.89,0,1,1-1.77,0V119.08a.89.89,0,1,1,1.77,0Z"/><path class="cls-24" d="M28.46,119.08v18.81a.89.89,0,1,1-1.77,0V119.08a.89.89,0,1,1,1.77,0Z"/><path class="cls-24" d="M26.05,119.08v18.81a.89.89,0,1,1-1.77,0V119.08a.89.89,0,1,1,1.77,0Z"/><path class="cls-24" d="M23.65,119.08v18.81a.89.89,0,1,1-1.77,0V119.08a.89.89,0,1,1,1.77,0Z"/><path class="cls-24" d="M21.24,119.08v18.81a.89.89,0,1,1-1.77,0V119.08a.89.89,0,1,1,1.77,0Z"/><path class="cls-24" d="M18.83,119.08v18.81a.89.89,0,1,1-1.77,0V119.08a.89.89,0,1,1,1.77,0Z"/><path class="cls-24" d="M16.42,119.08v18.81a.89.89,0,1,1-1.77,0V119.08a.89.89,0,1,1,1.77,0Z"/><path class="cls-24" d="M14,119.08v18.81a.89.89,0,1,1-1.77,0V119.08a.89.89,0,1,1,1.77,0Z"/><path class="cls-24" d="M11.61,119.08v18.81a.89.89,0,1,1-1.77,0V119.08a.89.89,0,1,1,1.77,0Z"/><path class="cls-24" d="M9.2,119.08v18.81a.89.89,0,1,1-1.77,0V119.08a.89.89,0,1,1,1.77,0Z"/><path class="cls-24" d="M6.8,119.08v18.81a.89.89,0,0,1-1.78,0V119.08a.89.89,0,1,1,1.78,0Z"/><path class="cls-25" d="M5.91,119.08v18.81a.9.9,0,0,1-.44.77.93.93,0,0,0,.44.12.89.89,0,0,0,.89-.89V119.08a.89.89,0,0,0-.89-.89.93.93,0,0,0-.44.12A.9.9,0,0,1,5.91,119.08Z"/><path class="cls-25" d="M8.32,119.08v18.81a.89.89,0,0,1-.45.77.94.94,0,0,0,.45.12.88.88,0,0,0,.88-.89V119.08a.88.88,0,0,0-.88-.89.94.94,0,0,0-.45.12A.89.89,0,0,1,8.32,119.08Z"/><path class="cls-25" d="M10.72,119.08v18.81a.9.9,0,0,1-.44.77.93.93,0,0,0,.44.12.89.89,0,0,0,.89-.89V119.08a.89.89,0,0,0-.89-.89.93.93,0,0,0-.44.12A.9.9,0,0,1,10.72,119.08Z"/><path class="cls-25" d="M13.13,119.08v18.81a.9.9,0,0,1-.44.77.93.93,0,0,0,.44.12.89.89,0,0,0,.89-.89V119.08a.89.89,0,0,0-.89-.89.93.93,0,0,0-.44.12A.9.9,0,0,1,13.13,119.08Z"/><path class="cls-25" d="M15.54,119.08v18.81a.9.9,0,0,1-.44.77.93.93,0,0,0,.44.12.88.88,0,0,0,.88-.89V119.08a.88.88,0,0,0-.88-.89.93.93,0,0,0-.44.12A.9.9,0,0,1,15.54,119.08Z"/><path class="cls-25" d="M18,119.08v18.81a.89.89,0,0,1-.45.77.94.94,0,0,0,.45.12.89.89,0,0,0,.88-.89V119.08a.89.89,0,0,0-.88-.89.94.94,0,0,0-.45.12A.89.89,0,0,1,18,119.08Z"/><path class="cls-25" d="M20.35,119.08v18.81a.9.9,0,0,1-.44.77.93.93,0,0,0,.44.12.89.89,0,0,0,.89-.89V119.08a.89.89,0,0,0-.89-.89.93.93,0,0,0-.44.12A.9.9,0,0,1,20.35,119.08Z"/><path class="cls-25" d="M22.76,119.08v18.81a.9.9,0,0,1-.44.77.93.93,0,0,0,.44.12.89.89,0,0,0,.89-.89V119.08a.89.89,0,0,0-.89-.89.93.93,0,0,0-.44.12A.9.9,0,0,1,22.76,119.08Z"/><path class="cls-25" d="M25.17,119.08v18.81a.9.9,0,0,1-.44.77.93.93,0,0,0,.44.12.88.88,0,0,0,.88-.89V119.08a.88.88,0,0,0-.88-.89.93.93,0,0,0-.44.12A.9.9,0,0,1,25.17,119.08Z"/><path class="cls-25" d="M27.58,119.08v18.81a.89.89,0,0,1-.45.77.94.94,0,0,0,.45.12.89.89,0,0,0,.88-.89V119.08a.89.89,0,0,0-.88-.89.94.94,0,0,0-.45.12A.89.89,0,0,1,27.58,119.08Z"/><path class="cls-25" d="M30,119.08v18.81a.9.9,0,0,1-.44.77.93.93,0,0,0,.44.12.89.89,0,0,0,.89-.89V119.08a.89.89,0,0,0-.89-.89.93.93,0,0,0-.44.12A.9.9,0,0,1,30,119.08Z"/><path class="cls-25" d="M32.39,119.08v18.81a.9.9,0,0,1-.44.77.93.93,0,0,0,.44.12.89.89,0,0,0,.89-.89V119.08a.89.89,0,0,0-.89-.89.93.93,0,0,0-.44.12A.9.9,0,0,1,32.39,119.08Z"/><path class="cls-25" d="M34.8,119.08v18.81a.89.89,0,0,1-.45.77.94.94,0,0,0,.45.12.88.88,0,0,0,.88-.89V119.08a.88.88,0,0,0-.88-.89.94.94,0,0,0-.45.12A.89.89,0,0,1,34.8,119.08Z"/><path class="cls-25" d="M37.2,119.08v18.81a.9.9,0,0,1-.44.77.93.93,0,0,0,.44.12.89.89,0,0,0,.89-.89V119.08a.89.89,0,0,0-.89-.89.93.93,0,0,0-.44.12A.9.9,0,0,1,37.2,119.08Z"/><g class="cls-11"><rect class="cls-119" x="36.32" y="119.52" width="1.77" height="13.6"/><rect class="cls-120" x="33.91" y="119.52" width="1.77" height="13.6"/><rect class="cls-121" x="31.5" y="119.52" width="1.77" height="13.6"/><rect class="cls-122" x="29.1" y="119.52" width="1.77" height="13.6"/><rect class="cls-123" x="26.69" y="119.52" width="1.77" height="13.6"/><rect class="cls-124" x="24.28" y="119.52" width="1.77" height="13.6"/><rect class="cls-125" x="21.88" y="119.52" width="1.77" height="13.6"/><rect class="cls-126" x="19.47" y="119.52" width="1.77" height="13.6"/><rect class="cls-127" x="17.06" y="119.52" width="1.77" height="13.6"/><rect class="cls-128" x="14.65" y="119.52" width="1.77" height="13.6"/><rect class="cls-129" x="12.25" y="119.52" width="1.77" height="13.6"/><rect class="cls-130" x="9.84" y="119.52" width="1.77" height="13.6"/><rect class="cls-131" x="7.43" y="119.52" width="1.77" height="13.6"/><rect class="cls-132" x="5.02" y="119.52" width="1.77" height="13.6"/></g><g class="cls-12"><path class="cls-133" d="M36.32,137.91h1.77v-3.24H36.32v3.24Z"/><path class="cls-134" d="M33.91,137.91h1.77v-3.24H33.91v3.24Z"/><path class="cls-135" d="M31.51,137.91h1.76s0-3.24,0-3.24H31.5v3.24Z"/><path class="cls-136" d="M29.1,137.91h1.77v-3.24H29.1v3.24Z"/><path class="cls-137" d="M26.69,137.91h1.77v-3.24H26.69v3.24Z"/><path class="cls-138" d="M24.28,137.91h1.77v-3.24H24.28v3.24Z"/><path class="cls-139" d="M21.88,137.91h1.76s0-3.24,0-3.24H21.88v3.24Z"/><path class="cls-140" d="M19.47,137.91h1.77v-3.24H19.47v3.24Z"/><path class="cls-141" d="M17.06,137.91h1.77v-3.24H17.06v3.24Z"/><path class="cls-142" d="M14.65,137.91h1.77v-3.24H14.65v3.24Z"/><path class="cls-143" d="M12.25,137.91H14v-3.24H12.25v3.24Z"/><path class="cls-144" d="M9.84,137.91h1.77v-3.24H9.84v3.24Z"/><path class="cls-145" d="M7.43,137.91H9.2v-3.24H7.43v3.24Z"/><path class="cls-146" d="M6.8,134.67H5v3.22s1.77,0,1.77,0S6.8,134.67,6.8,134.67Z"/></g><rect class="cls-20" x="56.87" y="120.35" width="33.18" height="16.27"/><g class="cls-21"><rect class="cls-147" x="56.86" y="121.83" width="33.19" height="9.87"/></g><rect class="cls-23" x="58.76" y="120.35" width="0.36" height="16.27"/><rect class="cls-23" x="61.17" y="120.35" width="0.36" height="16.27"/><rect class="cls-23" x="63.58" y="120.35" width="0.36" height="16.27"/><rect class="cls-23" x="65.99" y="120.35" width="0.36" height="16.27"/><rect class="cls-23" x="68.39" y="120.35" width="0.36" height="16.27"/><rect class="cls-23" x="70.8" y="120.35" width="0.36" height="16.27"/><rect class="cls-23" x="73.21" y="120.35" width="0.36" height="16.27"/><rect class="cls-23" x="75.62" y="120.35" width="0.36" height="16.27"/><rect class="cls-23" x="78.02" y="120.35" width="0.36" height="16.27"/><rect class="cls-23" x="80.43" y="120.35" width="0.36" height="16.27"/><rect class="cls-23" x="82.84" y="120.35" width="0.36" height="16.27"/><rect class="cls-23" x="85.24" y="120.35" width="0.36" height="16.27"/><rect class="cls-23" x="87.65" y="120.35" width="0.36" height="16.27"/><path class="cls-24" d="M90.06,119.08v18.81a.89.89,0,1,1-1.77,0V119.08a.89.89,0,1,1,1.77,0Z"/><path class="cls-24" d="M87.65,119.08v18.81a.89.89,0,1,1-1.77,0V119.08a.89.89,0,1,1,1.77,0Z"/><path class="cls-24" d="M85.24,119.08v18.81a.89.89,0,1,1-1.77,0V119.08a.89.89,0,1,1,1.77,0Z"/><path class="cls-24" d="M82.84,119.08v18.81a.89.89,0,1,1-1.77,0V119.08a.89.89,0,1,1,1.77,0Z"/><path class="cls-24" d="M80.43,119.08v18.81a.89.89,0,1,1-1.77,0V119.08a.89.89,0,1,1,1.77,0Z"/><path class="cls-24" d="M78,119.08v18.81a.89.89,0,1,1-1.77,0V119.08a.89.89,0,1,1,1.77,0Z"/><path class="cls-24" d="M75.62,119.08v18.81a.89.89,0,1,1-1.78,0V119.08a.89.89,0,0,1,1.78,0Z"/><path class="cls-24" d="M73.21,119.08v18.81a.89.89,0,1,1-1.77,0V119.08a.89.89,0,1,1,1.77,0Z"/><path class="cls-24" d="M70.8,119.08v18.81a.89.89,0,1,1-1.77,0V119.08a.89.89,0,1,1,1.77,0Z"/><path class="cls-24" d="M68.39,119.08v18.81a.89.89,0,1,1-1.77,0V119.08a.89.89,0,1,1,1.77,0Z"/><path class="cls-24" d="M66,119.08v18.81a.89.89,0,1,1-1.77,0V119.08a.89.89,0,1,1,1.77,0Z"/><path class="cls-24" d="M63.58,119.08v18.81a.89.89,0,1,1-1.77,0V119.08a.89.89,0,1,1,1.77,0Z"/><path class="cls-24" d="M61.17,119.08v18.81a.89.89,0,1,1-1.77,0V119.08a.89.89,0,1,1,1.77,0Z"/><path class="cls-24" d="M58.76,119.08v18.81a.89.89,0,1,1-1.77,0V119.08a.89.89,0,1,1,1.77,0Z"/><path class="cls-25" d="M57.88,119.08v18.81a.9.9,0,0,1-.44.77.93.93,0,0,0,.44.12.88.88,0,0,0,.88-.89V119.08a.88.88,0,0,0-.88-.89.93.93,0,0,0-.44.12A.9.9,0,0,1,57.88,119.08Z"/><path class="cls-25" d="M60.29,119.08v18.81a.89.89,0,0,1-.45.77.94.94,0,0,0,.45.12.88.88,0,0,0,.88-.89V119.08a.88.88,0,0,0-.88-.89.94.94,0,0,0-.45.12A.89.89,0,0,1,60.29,119.08Z"/><path class="cls-25" d="M62.69,119.08v18.81a.9.9,0,0,1-.44.77.93.93,0,0,0,.44.12.89.89,0,0,0,.89-.89V119.08a.89.89,0,0,0-.89-.89.93.93,0,0,0-.44.12A.9.9,0,0,1,62.69,119.08Z"/><path class="cls-25" d="M65.1,119.08v18.81a.9.9,0,0,1-.44.77.93.93,0,0,0,.44.12.89.89,0,0,0,.89-.89V119.08a.89.89,0,0,0-.89-.89.93.93,0,0,0-.44.12A.9.9,0,0,1,65.1,119.08Z"/><path class="cls-25" d="M67.51,119.08v18.81a.9.9,0,0,1-.44.77.93.93,0,0,0,.44.12.88.88,0,0,0,.88-.89V119.08a.88.88,0,0,0-.88-.89.93.93,0,0,0-.44.12A.9.9,0,0,1,67.51,119.08Z"/><path class="cls-25" d="M69.92,119.08v18.81a.89.89,0,0,1-.45.77.94.94,0,0,0,.45.12.89.89,0,0,0,.88-.89V119.08a.89.89,0,0,0-.88-.89.94.94,0,0,0-.45.12A.89.89,0,0,1,69.92,119.08Z"/><path class="cls-25" d="M72.32,119.08v18.81a.9.9,0,0,1-.44.77.93.93,0,0,0,.44.12.89.89,0,0,0,.89-.89V119.08a.89.89,0,0,0-.89-.89.93.93,0,0,0-.44.12A.9.9,0,0,1,72.32,119.08Z"/><path class="cls-25" d="M74.73,119.08v18.81a.9.9,0,0,1-.44.77.93.93,0,0,0,.44.12.89.89,0,0,0,.89-.89V119.08a.89.89,0,0,0-.89-.89.93.93,0,0,0-.44.12A.9.9,0,0,1,74.73,119.08Z"/><path class="cls-25" d="M77.14,119.08v18.81a.89.89,0,0,1-.45.77,1,1,0,0,0,.45.12.88.88,0,0,0,.88-.89V119.08a.88.88,0,0,0-.88-.89,1,1,0,0,0-.45.12A.89.89,0,0,1,77.14,119.08Z"/><path class="cls-25" d="M79.54,119.08v18.81a.88.88,0,0,1-.44.77.93.93,0,0,0,.44.12.89.89,0,0,0,.89-.89V119.08a.89.89,0,0,0-.89-.89.93.93,0,0,0-.44.12A.88.88,0,0,1,79.54,119.08Z"/><path class="cls-25" d="M82,119.08v18.81a.9.9,0,0,1-.44.77.93.93,0,0,0,.44.12.89.89,0,0,0,.89-.89V119.08a.89.89,0,0,0-.89-.89.93.93,0,0,0-.44.12A.9.9,0,0,1,82,119.08Z"/><path class="cls-25" d="M84.36,119.08v18.81a.9.9,0,0,1-.44.77.93.93,0,0,0,.44.12.88.88,0,0,0,.88-.89V119.08a.88.88,0,0,0-.88-.89.93.93,0,0,0-.44.12A.9.9,0,0,1,84.36,119.08Z"/><path class="cls-25" d="M86.77,119.08v18.81a.89.89,0,0,1-.45.77.94.94,0,0,0,.45.12.88.88,0,0,0,.88-.89V119.08a.88.88,0,0,0-.88-.89.94.94,0,0,0-.45.12A.89.89,0,0,1,86.77,119.08Z"/><path class="cls-25" d="M89.17,119.08v18.81a.9.9,0,0,1-.44.77.93.93,0,0,0,.44.12.89.89,0,0,0,.89-.89V119.08a.89.89,0,0,0-.89-.89.93.93,0,0,0-.44.12A.9.9,0,0,1,89.17,119.08Z"/><g class="cls-11"><rect class="cls-148" x="88.29" y="119.52" width="1.77" height="13.6"/><rect class="cls-149" x="85.88" y="119.52" width="1.77" height="13.6"/><rect class="cls-150" x="83.47" y="119.52" width="1.77" height="13.6"/><rect class="cls-151" x="81.07" y="119.52" width="1.77" height="13.6"/><rect class="cls-152" x="78.66" y="119.52" width="1.77" height="13.6"/><rect class="cls-153" x="76.25" y="119.52" width="1.77" height="13.6"/><rect class="cls-154" x="73.84" y="119.52" width="1.77" height="13.6"/><rect class="cls-155" x="71.44" y="119.52" width="1.77" height="13.6"/><rect class="cls-156" x="69.03" y="119.52" width="1.77" height="13.6"/><rect class="cls-157" x="66.62" y="119.52" width="1.77" height="13.6"/><rect class="cls-158" x="64.22" y="119.52" width="1.77" height="13.6"/><rect class="cls-159" x="61.81" y="119.52" width="1.77" height="13.6"/><rect class="cls-160" x="59.4" y="119.52" width="1.77" height="13.6"/><rect class="cls-161" x="56.99" y="119.52" width="1.77" height="13.6"/></g><g class="cls-12"><path class="cls-162" d="M88.29,137.91h1.77v-3.24H88.29v3.24Z"/><path class="cls-163" d="M85.88,137.91h1.77v-3.24H85.88v3.24Z"/><path class="cls-164" d="M83.48,137.91h1.76v-3.24H83.47v3.24Z"/><path class="cls-165" d="M81.07,137.91h1.77v-3.24H81.07v3.24Z"/><path class="cls-166" d="M78.66,137.91h1.77v-3.24H78.66v3.24Z"/><path class="cls-167" d="M76.25,137.91H78v-3.24H76.25v3.24Z"/><path class="cls-168" d="M73.85,137.91h1.76s0-3.24,0-3.24H73.84v3.24Z"/><path class="cls-169" d="M71.44,137.91h1.77v-3.24H71.44v3.24Z"/><path class="cls-170" d="M69,137.91H70.8v-3.24H69v3.24Z"/><path class="cls-171" d="M66.62,137.91h1.77v-3.24H66.62v3.24Z"/><path class="cls-172" d="M64.22,137.91H66s0-3.24,0-3.24H64.22v3.24Z"/><path class="cls-173" d="M61.81,137.91h1.77v-3.24H61.81v3.24Z"/><path class="cls-174" d="M59.4,137.91h1.77v-3.24H59.4v3.24Z"/><path class="cls-175" d="M58.76,134.67H57v3.22s1.77,0,1.77,0Z"/></g><path d="M44.66,188a9.51,9.51,0,0,1-2.31,3.5,11.2,11.2,0,0,1-7.51,2.5,8.7,8.7,0,0,1-6-1.95c-2.17-2-2.43-5.41-1.93-8.34a20.6,20.6,0,0,1,4.42-9.66c2.3-2.73,5.35-4.68,7.67-7.39,2.6-3,3.79-6.9,4.51-10.75,1.3-7,.79-14.6.67-21.67a9.77,9.77,0,0,0-.49-3.49,5.13,5.13,0,0,0-5.78-3c0,.78,0,1.57,0,2.35a2.49,2.49,0,0,1,3.24,1.1,7.31,7.31,0,0,1,.68,3.71c0,3.63,0,7.26,0,10.89a55.09,55.09,0,0,1-.67,10.74,18.37,18.37,0,0,1-4.88,9.83c-2.94,2.81-6,5.12-8.28,8.58-2.6,4-4.51,9.33-3.31,14.09,1.27,5,6.64,7.77,11.62,7.22a13.28,13.28,0,0,0,9.7-6.41,14.63,14.63,0,0,0,.62-1.87Z"/><path d="M64,186.45a76.24,76.24,0,0,0-4.38-11.36c-.53-1-1.08-2-1.62-3a41.8,41.8,0,0,1-3.54-8.32,49.39,49.39,0,0,1-1.59-11.35c-.23-6.47.35-13,.07-19.43-.07-1.47-.07-3.19,1.08-4.11a3.91,3.91,0,0,1,2.93-.58V126c-2.28-.29-4.84.72-5.78,2.82a8.65,8.65,0,0,0-.5,3.55c0,1.32,0,15.9,0,15.9s0,5.44,0,5.44a48.83,48.83,0,0,0,.52,6.41c.72,4.61,2.87,8.92,4.95,13.09a83.2,83.2,0,0,1,4.21,10,61.36,61.36,0,0,1,2.3,7.39,3.33,3.33,0,0,1-.09,2.27,3.09,3.09,0,0,1-2.1,1.28c-4.84,1.18-11.43-.76-13.35-5.78a.76.76,0,0,0-.27-.4.68.68,0,0,0-.34-.06l-1.45,0a26.19,26.19,0,0,0,2.37,4.22A11.82,11.82,0,0,0,51.71,195,15.67,15.67,0,0,0,63,195.2a4.23,4.23,0,0,0,2.42-1.8c.58-1.16.15-2.55-.29-3.77C64.71,188.58,64.35,187.52,64,186.45Z"/></g></g></g></svg>