<svg xmlns="http://www.w3.org/2000/svg" xmlns:xlink="http://www.w3.org/1999/xlink" viewBox="0 0 185.96 289.51"><defs><style>.cls-1{isolation:isolate;}.cls-2{fill:#d1d1e0;}.cls-3{fill:url(#linear-gradient);}.cls-4{fill:url(#linear-gradient-2);}.cls-111,.cls-17,.cls-28,.cls-43,.cls-5,.cls-59,.cls-62,.cls-88,.cls-99{opacity:0.5;}.cls-10,.cls-102,.cls-104,.cls-17,.cls-20,.cls-22,.cls-28,.cls-31,.cls-33,.cls-43,.cls-46,.cls-48,.cls-5,.cls-8,.cls-88,.cls-91,.cls-93,.cls-99{mix-blend-mode:color-dodge;}.cls-5{fill:url(#linear-gradient-3);}.cls-6{fill:url(#linear-gradient-4);}.cls-7{fill:url(#linear-gradient-5);}.cls-8{fill:url(#linear-gradient-6);}.cls-9{fill:url(#linear-gradient-7);}.cls-10{fill:url(#linear-gradient-8);}.cls-11{fill:url(#linear-gradient-9);}.cls-12{fill:url(#linear-gradient-10);}.cls-13{fill:#9b9ba7;}.cls-14{fill:url(#未命名的渐变_138);}.cls-15{fill:url(#linear-gradient-11);}.cls-16{fill:url(#linear-gradient-12);}.cls-17{fill:url(#linear-gradient-13);}.cls-18{fill:url(#linear-gradient-14);}.cls-19{fill:url(#linear-gradient-15);}.cls-20{fill:url(#linear-gradient-16);}.cls-21{fill:url(#linear-gradient-17);}.cls-22{fill:url(#linear-gradient-18);}.cls-23{fill:url(#linear-gradient-19);}.cls-24{fill:url(#linear-gradient-20);}.cls-25{fill:url(#linear-gradient-21);}.cls-26{fill:url(#linear-gradient-22);}.cls-27{fill:url(#linear-gradient-23);}.cls-28{fill:url(#linear-gradient-24);}.cls-29{fill:url(#linear-gradient-25);}.cls-30{fill:url(#linear-gradient-26);}.cls-31{fill:url(#linear-gradient-27);}.cls-32{fill:url(#linear-gradient-28);}.cls-33{fill:url(#linear-gradient-29);}.cls-34{fill:url(#linear-gradient-30);}.cls-35{fill:url(#linear-gradient-31);}.cls-36{fill:url(#未命名的渐变_23);}.cls-37{fill:url(#未命名的渐变_23-2);}.cls-38{fill:none;stroke:#9f9fa0;stroke-miterlimit:10;stroke-width:0.1px;}.cls-39{fill:url(#未命名的渐变_138-2);}.cls-40{fill:url(#linear-gradient-32);}.cls-41{fill:url(#linear-gradient-33);}.cls-42{fill:url(#linear-gradient-34);}.cls-43{fill:url(#linear-gradient-35);}.cls-44{fill:url(#linear-gradient-36);}.cls-45{fill:url(#linear-gradient-37);}.cls-46{fill:url(#linear-gradient-38);}.cls-47{fill:url(#linear-gradient-39);}.cls-48{fill:url(#linear-gradient-40);}.cls-49{fill:url(#linear-gradient-41);}.cls-50{fill:url(#linear-gradient-42);}.cls-51{fill:url(#未命名的渐变_23-3);}.cls-52{fill:#56bbed;}.cls-53{fill:url(#未命名的渐变_122);}.cls-54{fill:#2cafce;}.cls-55{fill:url(#未命名的渐变_124);}.cls-56{opacity:0.45;}.cls-111,.cls-56,.cls-59,.cls-60,.cls-62{mix-blend-mode:multiply;}.cls-57{fill:url(#未命名的渐变_94);}.cls-58,.cls-59,.cls-60,.cls-61{fill:#47abe5;}.cls-115,.cls-60{opacity:0.3;}.cls-115,.cls-61,.cls-68{mix-blend-mode:screen;}.cls-63{fill:url(#linear-gradient-43);}.cls-64{fill:url(#linear-gradient-44);}.cls-65{fill:url(#linear-gradient-45);}.cls-66{fill:url(#linear-gradient-46);}.cls-67{fill:url(#linear-gradient-47);}.cls-68{opacity:0.6;}.cls-69{fill:url(#linear-gradient-48);}.cls-70{fill:url(#linear-gradient-49);}.cls-71{fill:url(#linear-gradient-50);}.cls-72{fill:url(#linear-gradient-51);}.cls-73{fill:url(#linear-gradient-52);}.cls-74{fill:url(#linear-gradient-53);}.cls-75{fill:url(#linear-gradient-54);}.cls-76{fill:url(#linear-gradient-55);}.cls-77{fill:url(#linear-gradient-56);}.cls-78{fill:url(#linear-gradient-57);}.cls-79{fill:url(#linear-gradient-58);}.cls-80{fill:url(#linear-gradient-59);}.cls-81{fill:url(#linear-gradient-60);}.cls-82{fill:url(#linear-gradient-61);}.cls-83{fill:url(#linear-gradient-62);}.cls-84{fill:url(#linear-gradient-63);}.cls-85{fill:url(#未命名的渐变_23-4);}.cls-86{fill:url(#linear-gradient-64);}.cls-87{fill:url(#linear-gradient-65);}.cls-88{fill:url(#linear-gradient-66);}.cls-89{fill:url(#linear-gradient-67);}.cls-90{fill:url(#linear-gradient-68);}.cls-91{fill:url(#linear-gradient-69);}.cls-92{fill:url(#linear-gradient-70);}.cls-93{fill:url(#linear-gradient-71);}.cls-94{fill:url(#linear-gradient-72);}.cls-95{fill:url(#linear-gradient-73);}.cls-96{fill:url(#linear-gradient-74);}.cls-97{fill:url(#linear-gradient-75);}.cls-98{fill:url(#linear-gradient-76);}.cls-99{fill:url(#linear-gradient-77);}.cls-100{fill:url(#linear-gradient-78);}.cls-101{fill:url(#linear-gradient-79);}.cls-102{fill:url(#linear-gradient-80);}.cls-103{fill:url(#linear-gradient-81);}.cls-104{fill:url(#linear-gradient-82);}.cls-105{fill:url(#linear-gradient-83);}.cls-106{fill:url(#linear-gradient-84);}.cls-107{fill:url(#未命名的渐变_23-5);}.cls-108{fill:url(#未命名的渐变_23-6);}.cls-109{fill:url(#未命名的渐变_138-3);}.cls-110{fill:url(#未命名的渐变_138-4);}.cls-111{fill:url(#未命名的渐变_138-5);}.cls-112{fill:url(#未命名的渐变_138-6);}.cls-113{fill:url(#未命名的渐变_138-7);}.cls-114{fill:url(#未命名的渐变_138-8);}.cls-116{fill:url(#未命名的渐变_138-9);}.cls-117{fill:url(#未命名的渐变_138-10);}.cls-118{fill:url(#未命名的渐变_138-11);}.cls-119{fill:url(#未命名的渐变_138-12);}.cls-120{fill:url(#未命名的渐变_130);}.cls-121{fill:url(#未命名的渐变_61);}.cls-122{fill:url(#未命名的渐变_61-2);}.cls-123{fill:url(#未命名的渐变_138-13);}</style><linearGradient id="linear-gradient" x1="103.24" y1="868.44" x2="103.36" y2="870.6" gradientTransform="translate(0 -849.58)" gradientUnits="userSpaceOnUse"><stop offset="0" stop-color="#fafaff"/><stop offset="0.02" stop-color="#f4f4f9"/><stop offset="0.3" stop-color="#adadb4"/><stop offset="0.53" stop-color="#787882"/><stop offset="0.71" stop-color="#585863"/><stop offset="0.8" stop-color="#4c4c57"/></linearGradient><linearGradient id="linear-gradient-2" x1="105.68" y1="865.2" x2="97.64" y2="874.38" xlink:href="#linear-gradient"/><linearGradient id="linear-gradient-3" x1="103.35" y1="866.49" x2="103.19" y2="870.48" gradientTransform="translate(0 -849.58)" gradientUnits="userSpaceOnUse"><stop offset="0" stop-color="#a9a9b1"/><stop offset="0.07" stop-color="#828288"/><stop offset="0.16" stop-color="#5f5f64"/><stop offset="0.24" stop-color="#424245"/><stop offset="0.34" stop-color="#2a2a2c"/><stop offset="0.45" stop-color="#171718"/><stop offset="0.57" stop-color="#0a0a0a"/><stop offset="0.72" stop-color="#020202"/><stop offset="1"/></linearGradient><linearGradient id="linear-gradient-4" x1="95.7" y1="869.01" x2="104.07" y2="868.34" gradientTransform="translate(0 -849.58)" gradientUnits="userSpaceOnUse"><stop offset="0" stop-color="#e4e4e9"/><stop offset="0.77" stop-color="#6a6a79"/><stop offset="0.83" stop-color="#757583"/><stop offset="0.96" stop-color="#92929d"/><stop offset="1" stop-color="#9f9fa8"/></linearGradient><linearGradient id="linear-gradient-5" x1="107.64" y1="866.62" x2="102.32" y2="875.1" xlink:href="#linear-gradient"/><linearGradient id="linear-gradient-6" x1="103.24" y1="868.71" x2="110.66" y2="868.57" xlink:href="#linear-gradient-3"/><linearGradient id="linear-gradient-7" x1="101.16" y1="871.84" x2="111.2" y2="856.8" xlink:href="#linear-gradient"/><linearGradient id="linear-gradient-8" x1="97.21" y1="874.64" x2="107.66" y2="864.35" xlink:href="#linear-gradient-3"/><linearGradient id="linear-gradient-9" x1="105.53" y1="867.19" x2="104.97" y2="871.17" xlink:href="#linear-gradient"/><linearGradient id="linear-gradient-10" x1="101.77" y1="867.12" x2="100.1" y2="872.13" xlink:href="#linear-gradient"/><linearGradient id="未命名的渐变_138" x1="1409.1" y1="2324.5" x2="1417.16" y2="2324.5" gradientTransform="translate(-1295.9 -2062.8)" gradientUnits="userSpaceOnUse"><stop offset="0" stop-color="#877151"/><stop offset="0.15" stop-color="#b7a37b"/><stop offset="0.25" stop-color="#d8cfc0"/><stop offset="0.44" stop-color="#9b885d"/><stop offset="0.6" stop-color="#897952"/><stop offset="0.8" stop-color="#726444"/><stop offset="0.97" stop-color="#685c3e"/><stop offset="1" stop-color="#8e8355"/></linearGradient><linearGradient id="linear-gradient-11" x1="-2153.77" y1="2999.81" x2="-2153.56" y2="3003.74" gradientTransform="matrix(0, 1, 1, 0, -2910.04, 2436.65)" xlink:href="#linear-gradient"/><linearGradient id="linear-gradient-12" x1="-2150.31" y1="2994.67" x2="-2161.64" y2="3007.62" gradientTransform="matrix(0, 1, 1, 0, -2910.04, 2436.65)" xlink:href="#linear-gradient"/><linearGradient id="linear-gradient-13" x1="-2153.57" y1="2995.85" x2="-2153.86" y2="3003.26" gradientTransform="matrix(0, 1, 1, 0, -2910.04, 2436.65)" xlink:href="#linear-gradient-3"/><linearGradient id="linear-gradient-14" x1="-2164.11" y1="3000.49" x2="-2152.43" y2="2999.56" gradientTransform="matrix(0, 1, 1, 0, -2910.04, 2436.65)" xlink:href="#linear-gradient-4"/><linearGradient id="linear-gradient-15" x1="-2147.26" y1="2996.35" x2="-2156.8" y2="3011.57" gradientTransform="matrix(0, 1, 1, 0, -2910.04, 2436.65)" xlink:href="#linear-gradient"/><linearGradient id="linear-gradient-16" x1="-2153.79" y1="3000.07" x2="-2143.72" y2="2999.89" gradientTransform="matrix(0, 1, 1, 0, -2910.04, 2436.65)" xlink:href="#linear-gradient-3"/><linearGradient id="linear-gradient-17" x1="-2157.22" y1="3005.3" x2="-2140.53" y2="2980.3" gradientTransform="matrix(0, 1, 1, 0, -2910.04, 2436.65)" xlink:href="#linear-gradient"/><linearGradient id="linear-gradient-18" x1="-2163.34" y1="3009.5" x2="-2146.74" y2="2993.16" gradientTransform="matrix(0, 1, 1, 0, -2910.04, 2436.65)" xlink:href="#linear-gradient-3"/><linearGradient id="linear-gradient-19" x1="-2150.53" y1="2997" x2="-2151.67" y2="3005.15" gradientTransform="matrix(0, 1, 1, 0, -2910.04, 2436.65)" xlink:href="#linear-gradient"/><linearGradient id="linear-gradient-20" x1="-2155.36" y1="2996.87" x2="-2158.78" y2="3007.11" gradientTransform="matrix(0, 1, 1, 0, -2910.04, 2436.65)" xlink:href="#linear-gradient"/><linearGradient id="linear-gradient-21" x1="-2151.46" y1="2992.61" x2="-2155.89" y2="2992.61" gradientTransform="matrix(1, 0, 0, -1, 2236.24, 3275.58)" gradientUnits="userSpaceOnUse"><stop offset="0" stop-color="#b5b5bf"/><stop offset="0.01" stop-color="#afafb9"/><stop offset="0.04" stop-color="#91919d"/><stop offset="0.08" stop-color="#7b7b89"/><stop offset="0.11" stop-color="#6e6e7d"/><stop offset="0.15" stop-color="#6a6a79"/><stop offset="0.3" stop-color="#9b9ba5"/><stop offset="0.41" stop-color="#868694"/><stop offset="0.67" stop-color="#e4e4e9"/><stop offset="1" stop-color="#898995"/></linearGradient><linearGradient id="linear-gradient-22" x1="-2153.77" y1="2994.2" x2="-2153.56" y2="2998.13" gradientTransform="matrix(0, 1, 1, 0, -2910.04, 2436.65)" xlink:href="#linear-gradient"/><linearGradient id="linear-gradient-23" x1="-2150.31" y1="2989.06" x2="-2161.64" y2="3002.01" gradientTransform="matrix(0, 1, 1, 0, -2910.04, 2436.65)" xlink:href="#linear-gradient"/><linearGradient id="linear-gradient-24" x1="-2153.57" y1="2990.24" x2="-2153.86" y2="2997.64" gradientTransform="matrix(0, 1, 1, 0, -2910.04, 2436.65)" xlink:href="#linear-gradient-3"/><linearGradient id="linear-gradient-25" x1="-2164.11" y1="2994.88" x2="-2152.43" y2="2993.95" gradientTransform="matrix(0, 1, 1, 0, -2910.04, 2436.65)" xlink:href="#linear-gradient-4"/><linearGradient id="linear-gradient-26" x1="-2147.26" y1="2990.74" x2="-2156.8" y2="3005.96" gradientTransform="matrix(0, 1, 1, 0, -2910.04, 2436.65)" xlink:href="#linear-gradient"/><linearGradient id="linear-gradient-27" x1="-2153.79" y1="2994.46" x2="-2143.72" y2="2994.27" gradientTransform="matrix(0, 1, 1, 0, -2910.04, 2436.65)" xlink:href="#linear-gradient-3"/><linearGradient id="linear-gradient-28" x1="-2157.22" y1="2999.69" x2="-2140.53" y2="2974.69" gradientTransform="matrix(0, 1, 1, 0, -2910.04, 2436.65)" xlink:href="#linear-gradient"/><linearGradient id="linear-gradient-29" x1="-2163.34" y1="3003.89" x2="-2146.74" y2="2987.55" gradientTransform="matrix(0, 1, 1, 0, -2910.04, 2436.65)" xlink:href="#linear-gradient-3"/><linearGradient id="linear-gradient-30" x1="-2150.53" y1="2991.39" x2="-2151.67" y2="2999.54" gradientTransform="matrix(0, 1, 1, 0, -2910.04, 2436.65)" xlink:href="#linear-gradient"/><linearGradient id="linear-gradient-31" x1="-2155.36" y1="2991.26" x2="-2158.78" y2="3001.5" gradientTransform="matrix(0, 1, 1, 0, -2910.04, 2436.65)" xlink:href="#linear-gradient"/><linearGradient id="未命名的渐变_23" x1="88.91" y1="3661.36" x2="102.81" y2="3647.47" gradientTransform="matrix(1, 0, 0, -1, 0, 3926.59)" gradientUnits="userSpaceOnUse"><stop offset="0" stop-color="#868694"/><stop offset="0.5" stop-color="#e4e4e9"/><stop offset="1" stop-color="#898995"/></linearGradient><linearGradient id="未命名的渐变_23-2" x1="90.54" y1="3659.73" x2="103.62" y2="3646.65" xlink:href="#未命名的渐变_23"/><linearGradient id="未命名的渐变_138-2" x1="96.8" y1="277.92" x2="137.66" y2="277.92" gradientTransform="matrix(1, 0, 0, 1, 0, 0)" xlink:href="#未命名的渐变_138"/><linearGradient id="linear-gradient-32" x1="104.69" y1="1103.54" x2="100.26" y2="1103.54" gradientTransform="translate(0 -849.58)" xlink:href="#linear-gradient-21"/><linearGradient id="linear-gradient-33" x1="102.38" y1="1105.13" x2="102.6" y2="1109.06" xlink:href="#linear-gradient"/><linearGradient id="linear-gradient-34" x1="105.84" y1="1099.99" x2="94.51" y2="1112.94" xlink:href="#linear-gradient"/><linearGradient id="linear-gradient-35" x1="102.58" y1="1101.16" x2="102.29" y2="1108.57" xlink:href="#linear-gradient-3"/><linearGradient id="linear-gradient-36" x1="92.04" y1="1105.81" x2="103.72" y2="1104.88" xlink:href="#linear-gradient-4"/><linearGradient id="linear-gradient-37" x1="108.89" y1="1101.67" x2="99.35" y2="1116.89" xlink:href="#linear-gradient"/><linearGradient id="linear-gradient-38" x1="102.37" y1="1105.39" x2="112.43" y2="1105.2" xlink:href="#linear-gradient-3"/><linearGradient id="linear-gradient-39" x1="98.93" y1="1110.62" x2="115.62" y2="1085.62" xlink:href="#linear-gradient"/><linearGradient id="linear-gradient-40" x1="92.82" y1="1114.82" x2="109.41" y2="1098.48" xlink:href="#linear-gradient-3"/><linearGradient id="linear-gradient-41" x1="105.62" y1="1102.32" x2="104.48" y2="1110.47" xlink:href="#linear-gradient"/><linearGradient id="linear-gradient-42" x1="100.8" y1="1102.19" x2="97.37" y2="1112.43" xlink:href="#linear-gradient"/><linearGradient id="未命名的渐变_23-3" x1="84.99" y1="261.68" x2="116.03" y2="261.68" gradientTransform="matrix(1, 0, 0, 1, 0, 0)" xlink:href="#未命名的渐变_23"/><linearGradient id="未命名的渐变_122" x1="43.35" y1="152.26" x2="88.16" y2="152.26" gradientUnits="userSpaceOnUse"><stop offset="0" stop-color="#67b7e3"/><stop offset="1" stop-color="#3fa1d8"/></linearGradient><linearGradient id="未命名的渐变_124" x1="39.11" y1="152.26" x2="92.41" y2="152.26" gradientUnits="userSpaceOnUse"><stop offset="0" stop-color="#67b7e3"/><stop offset="1" stop-color="#389ed6"/></linearGradient><linearGradient id="未命名的渐变_94" x1="58.66" y1="152.37" x2="80.47" y2="152.37" gradientUnits="userSpaceOnUse"><stop offset="0" stop-color="#fff"/><stop offset="0.5" stop-color="#45a9dd"/><stop offset="1" stop-color="#fff"/></linearGradient><linearGradient id="linear-gradient-43" x1="1419.55" y1="2255.61" x2="1419.55" y2="2297.73" gradientTransform="translate(-2200.17 1544.09) rotate(-90)" gradientUnits="userSpaceOnUse"><stop offset="0" stop-color="#fff"/><stop offset="0.5" stop-color="#47abe5"/><stop offset="1" stop-color="#fff"/></linearGradient><linearGradient id="linear-gradient-44" x1="1434.28" y1="2255.61" x2="1434.28" y2="2297.73" xlink:href="#linear-gradient-43"/><linearGradient id="linear-gradient-45" x1="1449" y1="2255.61" x2="1449" y2="2297.73" xlink:href="#linear-gradient-43"/><linearGradient id="linear-gradient-46" x1="1463.73" y1="2255.61" x2="1463.73" y2="2297.73" xlink:href="#linear-gradient-43"/><linearGradient id="linear-gradient-47" x1="1478.46" y1="2255.61" x2="1478.46" y2="2297.73" xlink:href="#linear-gradient-43"/><linearGradient id="linear-gradient-48" x1="1419.55" y1="2233.63" x2="1419.55" y2="2242.65" gradientTransform="translate(-2200.17 1544.09) rotate(-90)" gradientUnits="userSpaceOnUse"><stop offset="0"/><stop offset="0.5" stop-color="#47abe5"/><stop offset="1"/></linearGradient><linearGradient id="linear-gradient-49" x1="1434.28" y1="2233.63" x2="1434.28" y2="2242.65" xlink:href="#linear-gradient-48"/><linearGradient id="linear-gradient-50" x1="1449" y1="2233.63" x2="1449" y2="2242.65" xlink:href="#linear-gradient-48"/><linearGradient id="linear-gradient-51" x1="1463.73" y1="2233.63" x2="1463.73" y2="2242.65" xlink:href="#linear-gradient-48"/><linearGradient id="linear-gradient-52" x1="1478.46" y1="2233.63" x2="1478.46" y2="2242.65" xlink:href="#linear-gradient-48"/><linearGradient id="linear-gradient-53" x1="1305.51" y1="2255.61" x2="1305.51" y2="2297.73" xlink:href="#linear-gradient-43"/><linearGradient id="linear-gradient-54" x1="1320.24" y1="2255.61" x2="1320.24" y2="2297.73" xlink:href="#linear-gradient-43"/><linearGradient id="linear-gradient-55" x1="1334.97" y1="2255.61" x2="1334.97" y2="2297.73" xlink:href="#linear-gradient-43"/><linearGradient id="linear-gradient-56" x1="1349.69" y1="2255.61" x2="1349.69" y2="2297.73" xlink:href="#linear-gradient-43"/><linearGradient id="linear-gradient-57" x1="1364.42" y1="2255.61" x2="1364.42" y2="2297.73" xlink:href="#linear-gradient-43"/><linearGradient id="linear-gradient-58" x1="1305.51" y1="2233.63" x2="1305.51" y2="2242.65" xlink:href="#linear-gradient-48"/><linearGradient id="linear-gradient-59" x1="1320.24" y1="2233.63" x2="1320.24" y2="2242.65" xlink:href="#linear-gradient-48"/><linearGradient id="linear-gradient-60" x1="1334.97" y1="2233.63" x2="1334.97" y2="2242.65" xlink:href="#linear-gradient-48"/><linearGradient id="linear-gradient-61" x1="1349.69" y1="2233.63" x2="1349.69" y2="2242.65" xlink:href="#linear-gradient-48"/><linearGradient id="linear-gradient-62" x1="1364.42" y1="2233.63" x2="1364.42" y2="2242.65" xlink:href="#linear-gradient-48"/><linearGradient id="linear-gradient-63" x1="147.21" y1="164.52" x2="159.25" y2="164.52" gradientTransform="matrix(1, 0, 0, 1, 0, 0)" xlink:href="#linear-gradient-21"/><linearGradient id="未命名的渐变_23-4" x1="92.77" y1="28.27" x2="164.09" y2="28.27" gradientTransform="matrix(1, 0, 0, 1, 0, 0)" xlink:href="#未命名的渐变_23"/><linearGradient id="linear-gradient-64" x1="1484.35" y1="2985.15" x2="1484.56" y2="2989.08" gradientTransform="translate(-2910.04 1489.94) rotate(-90)" xlink:href="#linear-gradient"/><linearGradient id="linear-gradient-65" x1="1487.81" y1="2980.01" x2="1476.48" y2="2992.96" gradientTransform="translate(-2910.04 1489.94) rotate(-90)" xlink:href="#linear-gradient"/><linearGradient id="linear-gradient-66" x1="1484.55" y1="2981.18" x2="1484.26" y2="2988.59" gradientTransform="translate(-2910.04 1489.94) rotate(-90)" xlink:href="#linear-gradient-3"/><linearGradient id="linear-gradient-67" x1="1474.01" y1="2985.83" x2="1485.69" y2="2984.9" gradientTransform="translate(-2910.04 1489.94) rotate(-90)" xlink:href="#linear-gradient-4"/><linearGradient id="linear-gradient-68" x1="1490.86" y1="2981.69" x2="1481.32" y2="2996.91" gradientTransform="translate(-2910.04 1489.94) rotate(-90)" xlink:href="#linear-gradient"/><linearGradient id="linear-gradient-69" x1="1484.33" y1="2985.41" x2="1494.4" y2="2985.22" gradientTransform="translate(-2910.04 1489.94) rotate(-90)" xlink:href="#linear-gradient-3"/><linearGradient id="linear-gradient-70" x1="1480.9" y1="2990.64" x2="1497.59" y2="2965.64" gradientTransform="translate(-2910.04 1489.94) rotate(-90)" xlink:href="#linear-gradient"/><linearGradient id="linear-gradient-71" x1="1474.78" y1="2994.84" x2="1491.38" y2="2978.5" gradientTransform="translate(-2910.04 1489.94) rotate(-90)" xlink:href="#linear-gradient-3"/><linearGradient id="linear-gradient-72" x1="1487.59" y1="2982.34" x2="1486.45" y2="2990.49" gradientTransform="translate(-2910.04 1489.94) rotate(-90)" xlink:href="#linear-gradient"/><linearGradient id="linear-gradient-73" x1="1482.76" y1="2982.21" x2="1479.34" y2="2992.45" gradientTransform="translate(-2910.04 1489.94) rotate(-90)" xlink:href="#linear-gradient"/><linearGradient id="linear-gradient-74" x1="1486.66" y1="2977.94" x2="1482.23" y2="2977.94" gradientTransform="translate(-1416.54 -2972.45)" xlink:href="#linear-gradient-21"/><linearGradient id="linear-gradient-75" x1="1484.35" y1="2979.54" x2="1484.56" y2="2983.47" gradientTransform="translate(-2910.04 1489.94) rotate(-90)" xlink:href="#linear-gradient"/><linearGradient id="linear-gradient-76" x1="1487.81" y1="2974.4" x2="1476.48" y2="2987.35" gradientTransform="translate(-2910.04 1489.94) rotate(-90)" xlink:href="#linear-gradient"/><linearGradient id="linear-gradient-77" x1="1484.55" y1="2975.57" x2="1484.26" y2="2982.98" gradientTransform="translate(-2910.04 1489.94) rotate(-90)" xlink:href="#linear-gradient-3"/><linearGradient id="linear-gradient-78" x1="1474.01" y1="2980.22" x2="1485.69" y2="2979.29" gradientTransform="translate(-2910.04 1489.94) rotate(-90)" xlink:href="#linear-gradient-4"/><linearGradient id="linear-gradient-79" x1="1490.86" y1="2976.07" x2="1481.32" y2="2991.3" gradientTransform="translate(-2910.04 1489.94) rotate(-90)" xlink:href="#linear-gradient"/><linearGradient id="linear-gradient-80" x1="1484.33" y1="2979.8" x2="1494.4" y2="2979.61" gradientTransform="translate(-2910.04 1489.94) rotate(-90)" xlink:href="#linear-gradient-3"/><linearGradient id="linear-gradient-81" x1="1480.9" y1="2985.02" x2="1497.59" y2="2960.03" gradientTransform="translate(-2910.04 1489.94) rotate(-90)" xlink:href="#linear-gradient"/><linearGradient id="linear-gradient-82" x1="1474.78" y1="2989.23" x2="1491.38" y2="2972.89" gradientTransform="translate(-2910.04 1489.94) rotate(-90)" xlink:href="#linear-gradient-3"/><linearGradient id="linear-gradient-83" x1="1487.59" y1="2976.73" x2="1486.45" y2="2984.88" gradientTransform="translate(-2910.04 1489.94) rotate(-90)" xlink:href="#linear-gradient"/><linearGradient id="linear-gradient-84" x1="1482.76" y1="2976.59" x2="1479.34" y2="2986.84" gradientTransform="translate(-2910.04 1489.94) rotate(-90)" xlink:href="#linear-gradient"/><linearGradient id="未命名的渐变_23-5" x1="78.32" y1="27.32" x2="100.37" y2="5.27" gradientTransform="matrix(1, 0, 0, 1, 0, 0)" xlink:href="#未命名的渐变_23"/><linearGradient id="未命名的渐变_23-6" x1="79.95" y1="25.69" x2="101.18" y2="4.46" gradientTransform="matrix(1, 0, 0, 1, 0, 0)" xlink:href="#未命名的渐变_23"/><linearGradient id="未命名的渐变_138-3" x1="145.9" y1="43.74" x2="160.56" y2="43.74" gradientTransform="matrix(1, 0, 0, 1, 0, 0)" xlink:href="#未命名的渐变_138"/><linearGradient id="未命名的渐变_138-4" x1="160.04" y1="44.23" x2="166.3" y2="44.23" gradientTransform="matrix(1, 0, 0, 1, 0, 0)" xlink:href="#未命名的渐变_138"/><linearGradient id="未命名的渐变_138-5" x1="160.04" y1="44.23" x2="166.3" y2="44.23" gradientTransform="matrix(1, 0, 0, 1, 0, 0)" xlink:href="#未命名的渐变_138"/><linearGradient id="未命名的渐变_138-6" x1="164.91" y1="45.86" x2="185.96" y2="45.86" gradientTransform="matrix(1, 0, 0, 1, 0, 0)" xlink:href="#未命名的渐变_138"/><linearGradient id="未命名的渐变_138-7" x1="172.42" y1="47.13" x2="182.86" y2="47.13" gradientTransform="matrix(1, 0, 0, 1, 0, 0)" xlink:href="#未命名的渐变_138"/><linearGradient id="未命名的渐变_138-8" x1="164.91" y1="45.08" x2="182.08" y2="45.08" gradientTransform="matrix(1, 0, 0, 1, 0, 0)" xlink:href="#未命名的渐变_138"/><linearGradient id="未命名的渐变_138-9" x1="168.53" y1="44.41" x2="179.45" y2="44.41" gradientTransform="matrix(1, 0, 0, 1, 0, 0)" xlink:href="#未命名的渐变_138"/><linearGradient id="未命名的渐变_138-10" x1="167.68" y1="47.24" x2="185.96" y2="47.24" gradientTransform="matrix(1, 0, 0, 1, 0, 0)" xlink:href="#未命名的渐变_138"/><linearGradient id="未命名的渐变_138-11" x1="136.57" y1="265.76" x2="148.88" y2="265.76" gradientTransform="matrix(1, 0, 0, 1, 0, 0)" xlink:href="#未命名的渐变_138"/><linearGradient id="未命名的渐变_138-12" x1="139.96" y1="265.76" x2="144" y2="265.76" gradientTransform="matrix(1, 0, 0, 1, 0, 0)" xlink:href="#未命名的渐变_138"/><linearGradient id="未命名的渐变_130" x1="143.59" y1="264.02" x2="141.48" y2="266.21" gradientUnits="userSpaceOnUse"><stop offset="0" stop-color="#877151"/><stop offset="0.15" stop-color="#b7a37b"/><stop offset="0.44" stop-color="#9b885d"/><stop offset="0.73" stop-color="#897952"/><stop offset="1" stop-color="#8e8355"/></linearGradient><linearGradient id="未命名的渐变_61" x1="-1890.18" y1="1577.19" x2="-1890.18" y2="1568.08" gradientTransform="matrix(-1, 0, 0, -1.2, -1761.75, 2162.84)" gradientUnits="userSpaceOnUse"><stop offset="0" stop-color="#bfc0c3"/><stop offset="0.33" stop-color="#c7c8ca"/><stop offset="0.51" stop-color="#c3c4c7"/><stop offset="0.67" stop-color="#b9b9bc"/><stop offset="0.83" stop-color="#a7a7aa"/><stop offset="0.89" stop-color="#9d9da1"/></linearGradient><linearGradient id="未命名的渐变_61-2" x1="129.22" y1="284.65" x2="129.22" y2="273.5" gradientTransform="matrix(1, 0, 0, 1, 0, 0)" xlink:href="#未命名的渐变_61"/><linearGradient id="未命名的渐变_138-13" x1="145.9" y1="264.22" x2="160.56" y2="264.22" gradientTransform="matrix(1, 0, 0, 1, 0, 0)" xlink:href="#未命名的渐变_138"/></defs><title>熔断器手车变压</title><g class="cls-1"><g id="图层_2" data-name="图层 2"><g id="图层_1-2" data-name="图层 1"><g id="_8" data-name="8"><path class="cls-2" d="M105.46,18c-.06,0-.12,0-.12.09s0-.09-.12-.09h-3.86c-.07,0-.12,0-.12.09s-.06-.09-.12-.09H99.3c-.06,0-.1,0-.1.08v2a.09.09,0,0,0,.1.09h1.82a.12.12,0,0,0,.12-.1.11.11,0,0,0,.12.1h3.86a.11.11,0,0,0,.12-.1.12.12,0,0,0,.12.1h1.82a.09.09,0,0,0,.1-.09v-2s0-.08-.1-.08Z"/><path class="cls-3" d="M99.2,19.53v.57s0,.08.1.09a66.39,66.39,0,0,0,8,0c.06,0,.1,0,.1-.09v-.57c0-.05,0-.08-.1-.08h-8C99.24,19.45,99.2,19.48,99.2,19.53Z"/><path class="cls-4" d="M107.38,18.66V18a.09.09,0,0,0-.1-.08,55.93,55.93,0,0,0-8,0,.09.09,0,0,0-.1.08v.62a.09.09,0,0,0,.1.09h8A.09.09,0,0,0,107.38,18.66Z"/><path class="cls-5" d="M107.38,18.66V18a.09.09,0,0,0-.1-.08q-4-.13-8,0a.09.09,0,0,0-.1.08v.62a.09.09,0,0,0,.1.09h8A.09.09,0,0,0,107.38,18.66Z"/><path class="cls-6" d="M101.24,18.07v2a.12.12,0,0,1-.12.1H99.3a.09.09,0,0,1-.1-.09v-2s0-.08.1-.08h1.82C101.18,18,101.24,18,101.24,18.07Z"/><path class="cls-7" d="M107.38,18.06v2a.09.09,0,0,1-.1.09h-1.82a.12.12,0,0,1-.12-.1v-2c0-.05.06-.09.12-.09h1.82C107.34,18,107.38,18,107.38,18.06Z"/><path class="cls-8" d="M107.38,18.06v2a.09.09,0,0,1-.1.09h-1.82a.12.12,0,0,1-.12-.1v-2c0-.05.06-.09.12-.09h1.82C107.34,18,107.38,18,107.38,18.06Z"/><path class="cls-9" d="M105.3,18.07v2a.11.11,0,0,1-.12.1H101.4a.11.11,0,0,1-.12-.1v-2c0-.05,0-.09.12-.09h3.78C105.25,18,105.3,18,105.3,18.07Z"/><path class="cls-10" d="M105.3,18.07v2a.11.11,0,0,1-.12.1H101.4a.11.11,0,0,1-.12-.1v-2c0-.05,0-.09.12-.09h3.78C105.25,18,105.3,18,105.3,18.07Z"/><rect class="cls-11" x="105.3" y="18.07" width="0.04" height="2"/><rect class="cls-12" x="101.24" y="18.07" width="0.04" height="2"/></g><path class="cls-13" d="M137.65,277.82l-1.3-1c2.66-3.54,5.07-7.31,2.82-11a9.78,9.78,0,0,0-4.88-3.83,17.49,17.49,0,0,0-13,0l-.61-1.51a19.09,19.09,0,0,1,14.18,0,11.45,11.45,0,0,1,5.69,4.51C143.57,270,139.87,274.87,137.65,277.82Z"/><path class="cls-13" d="M137.6,277.64l-1.26-1c4-5,3.91-12.48,3.86-13.64-4.06-8.18-19.34-1.43-19.49-1.36l-.67-1.48c.69-.32,17.07-7.55,21.71,2.29l.07.3C141.85,263.08,142.37,271.76,137.6,277.64Z"/><rect class="cls-14" x="113.2" y="257.75" width="8.06" height="7.92" transform="translate(-144.48 378.93) rotate(-90)"/><g id="_8-2" data-name="8"><path class="cls-2" d="M87.71,285.89a.16.16,0,1,0,0-.32v-5.19a.16.16,0,1,0,0-.32v-2.44a.15.15,0,0,1,.17-.14H92a.16.16,0,0,1,.18.14v2.44a.16.16,0,1,0,0,.32v5.19a.16.16,0,1,0,0,.32v2.44a.16.16,0,0,1-.18.14H87.88a.15.15,0,0,1-.17-.14Z"/><path class="cls-15" d="M90.89,277.48h1.17c.09,0,.17.06.17.13a56.56,56.56,0,0,1,0,10.73c0,.07-.08.13-.17.13H90.89a.16.16,0,0,1-.17-.14V277.62A.16.16,0,0,1,90.89,277.48Z"/><path class="cls-16" d="M89.11,288.47H87.84a.17.17,0,0,1-.17-.13,48.73,48.73,0,0,1,0-10.73.17.17,0,0,1,.17-.13h1.27a.16.16,0,0,1,.18.14v10.71A.16.16,0,0,1,89.11,288.47Z"/><path class="cls-17" d="M89.11,288.47H87.84c-.09,0-.17-.06-.17-.13a101.06,101.06,0,0,1,0-10.73c0-.07.08-.13.17-.13h1.27a.16.16,0,0,1,.18.14v10.71A.16.16,0,0,1,89.11,288.47Z"/><path class="cls-18" d="M87.9,280.22H92a.18.18,0,0,0,.2-.16v-2.44a.16.16,0,0,0-.18-.14H87.88a.15.15,0,0,0-.17.14v2.44A.17.17,0,0,0,87.9,280.22Z"/><path class="cls-19" d="M87.88,288.47H92a.16.16,0,0,0,.18-.14v-2.44a.18.18,0,0,0-.2-.16H87.9a.17.17,0,0,0-.19.16v2.44A.15.15,0,0,0,87.88,288.47Z"/><path class="cls-20" d="M87.88,288.47H92a.16.16,0,0,0,.18-.14v-2.44a.18.18,0,0,0-.2-.16H87.9a.17.17,0,0,0-.19.16v2.44A.15.15,0,0,0,87.88,288.47Z"/><path class="cls-21" d="M87.9,285.68H92a.18.18,0,0,0,.2-.16v-5.09a.18.18,0,0,0-.2-.16H87.9a.17.17,0,0,0-.19.16v5.09A.17.17,0,0,0,87.9,285.68Z"/><path class="cls-22" d="M87.9,285.68H92a.18.18,0,0,0,.2-.16v-5.09a.18.18,0,0,0-.2-.16H87.9a.17.17,0,0,0-.19.16v5.09A.17.17,0,0,0,87.9,285.68Z"/><rect class="cls-23" x="87.9" y="285.68" width="4.09" height="0.05"/><rect class="cls-24" x="87.9" y="280.22" width="4.09" height="0.05"/></g><rect class="cls-25" x="80.35" y="278.64" width="4.43" height="8.66" transform="translate(365.54 200.41) rotate(90)"/><g id="_8-3" data-name="8"><path class="cls-2" d="M82.09,285.89a.16.16,0,1,0,0-.32v-5.19a.16.16,0,1,0,0-.32v-2.44a.16.16,0,0,1,.18-.14h4.14a.16.16,0,0,1,.18.14v2.44a.16.16,0,1,0,0,.32v5.19a.16.16,0,1,0,0,.32v2.44a.16.16,0,0,1-.18.14H82.27a.16.16,0,0,1-.18-.14Z"/><path class="cls-26" d="M85.28,277.48h1.17c.09,0,.17.06.17.13a57.4,57.4,0,0,1,0,10.73c0,.07-.08.13-.17.13H85.28a.16.16,0,0,1-.17-.14V277.62A.16.16,0,0,1,85.28,277.48Z"/><path class="cls-27" d="M83.5,288.47H82.23a.17.17,0,0,1-.17-.13,48.73,48.73,0,0,1,0-10.73.17.17,0,0,1,.17-.13H83.5a.15.15,0,0,1,.17.14v10.71A.15.15,0,0,1,83.5,288.47Z"/><path class="cls-28" d="M83.5,288.47H82.23c-.09,0-.17-.06-.17-.13a101.06,101.06,0,0,1,0-10.73c0-.07.08-.13.17-.13H83.5a.15.15,0,0,1,.17.14v10.71A.15.15,0,0,1,83.5,288.47Z"/><path class="cls-29" d="M82.29,280.22h4.1a.18.18,0,0,0,.2-.16v-2.44a.16.16,0,0,0-.18-.14H82.27a.16.16,0,0,0-.18.14v2.44A.18.18,0,0,0,82.29,280.22Z"/><path class="cls-30" d="M82.27,288.47h4.14a.16.16,0,0,0,.18-.14v-2.44a.18.18,0,0,0-.2-.16h-4.1a.18.18,0,0,0-.2.16v2.44A.16.16,0,0,0,82.27,288.47Z"/><path class="cls-31" d="M82.27,288.47h4.14a.16.16,0,0,0,.18-.14v-2.44a.18.18,0,0,0-.2-.16h-4.1a.18.18,0,0,0-.2.16v2.44A.16.16,0,0,0,82.27,288.47Z"/><path class="cls-32" d="M82.29,285.68h4.1a.18.18,0,0,0,.2-.16v-5.09a.18.18,0,0,0-.2-.16h-4.1a.18.18,0,0,0-.2.16v5.09A.18.18,0,0,0,82.29,285.68Z"/><path class="cls-33" d="M82.29,285.68h4.1a.18.18,0,0,0,.2-.16v-5.09a.18.18,0,0,0-.2-.16h-4.1a.18.18,0,0,0-.2.16v5.09A.18.18,0,0,0,82.29,285.68Z"/><rect class="cls-34" x="82.29" y="285.68" width="4.09" height="0.05"/><rect class="cls-35" x="82.29" y="280.22" width="4.09" height="0.05"/></g><path class="cls-36" d="M114.94,267H92.18a4.32,4.32,0,0,0-4.3,4.3v17.18H86.25V269.66a4.32,4.32,0,0,1,4.3-4.3h24.39Z"/><path class="cls-37" d="M114.94,268.62H93.81a4.32,4.32,0,0,0-4.3,4.3v15.55H87.88V271.29a4.32,4.32,0,0,1,4.3-4.3h22.76Z"/><path class="cls-38" d="M87.88,288.47V272s-.63-4.84,5.07-5.07h22"/><path class="cls-39" d="M137.62,272.1v-1.88c-1.11-2-2.77,1.88-2.77,1.88v7.07a5.58,5.58,0,1,1-11.16,0V272.1h0v-5.49H113l-16.16-.29v2.39h14.14l9.67,13.2.06-.18a8.51,8.51,0,0,0,17-.75V272.1Z"/><rect class="cls-40" x="100.26" y="249.63" width="4.43" height="8.66"/><g id="_8-4" data-name="8"><path class="cls-2" d="M105.39,253.49a.16.16,0,1,1-.32,0H99.88a.16.16,0,1,1-.32,0H97.12a.16.16,0,0,0-.14.17v4.15a.16.16,0,0,0,.14.17h2.44a.16.16,0,1,1,.32,0h5.19a.16.16,0,1,1,.32,0h2.44a.16.16,0,0,0,.14-.17v-4.15a.16.16,0,0,0-.14-.17Z"/><path class="cls-41" d="M97,256.67v1.17a.17.17,0,0,0,.13.18,57.4,57.4,0,0,0,10.73,0,.17.17,0,0,0,.13-.18v-1.17a.16.16,0,0,0-.14-.17H97.12A.16.16,0,0,0,97,256.67Z"/><path class="cls-42" d="M108,254.9v-1.28a.17.17,0,0,0-.13-.17,49.35,49.35,0,0,0-10.73,0,.17.17,0,0,0-.13.17v1.28a.16.16,0,0,0,.14.17h10.71A.16.16,0,0,0,108,254.9Z"/><path class="cls-43" d="M108,254.9v-1.28c0-.09-.06-.17-.13-.17a101.06,101.06,0,0,0-10.73,0c-.07,0-.13.08-.13.17v1.28a.16.16,0,0,0,.14.17h10.71A.16.16,0,0,0,108,254.9Z"/><path class="cls-44" d="M99.72,253.69v4.09a.18.18,0,0,1-.16.2H97.12a.16.16,0,0,1-.14-.17v-4.15a.16.16,0,0,1,.14-.17h2.44A.18.18,0,0,1,99.72,253.69Z"/><path class="cls-45" d="M108,253.66v4.15a.16.16,0,0,1-.14.17h-2.44a.18.18,0,0,1-.16-.2v-4.09a.18.18,0,0,1,.16-.2h2.44A.16.16,0,0,1,108,253.66Z"/><path class="cls-46" d="M108,253.66v4.15a.16.16,0,0,1-.14.17h-2.44a.18.18,0,0,1-.16-.2v-4.09a.18.18,0,0,1,.16-.2h2.44A.16.16,0,0,1,108,253.66Z"/><path class="cls-47" d="M105.18,253.69v4.09a.18.18,0,0,1-.16.2H99.93a.18.18,0,0,1-.16-.2v-4.09a.18.18,0,0,1,.16-.2H105A.18.18,0,0,1,105.18,253.69Z"/><path class="cls-48" d="M105.18,253.69v4.09a.18.18,0,0,1-.16.2H99.93a.18.18,0,0,1-.16-.2v-4.09a.18.18,0,0,1,.16-.2H105A.18.18,0,0,1,105.18,253.69Z"/><rect class="cls-49" x="105.18" y="253.69" width="0.05" height="4.09"/><rect class="cls-50" x="99.73" y="253.69" width="0.05" height="4.09"/></g><rect class="cls-51" x="84.99" y="257.61" width="31.04" height="8.15"/><path class="cls-52" d="M4.08,168.1a4.08,4.08,0,0,1-2-7.64l23.53-13a4.13,4.13,0,0,1,2-.51H37.74a4.08,4.08,0,0,1,0,8.15H28.66L6.05,167.59A4,4,0,0,1,4.08,168.1Z"/><path class="cls-53" d="M88.16,65.29h0V39.11c0-6-4.18-10.93-9.33-10.93H52.68c-5.15,0-9.33,4.89-9.33,10.93V65.29h0V266.76h0V268c0,4.63,3.21,8.38,7.16,8.38H81c4,0,7.16-3.75,7.16-8.38v-1.2h0Z"/><rect class="cls-54" x="38.2" y="133.87" width="55.11" height="36.78" rx="5.03"/><rect class="cls-55" x="39.11" y="134.79" width="53.3" height="34.94" rx="5.03"/><g class="cls-56"><rect class="cls-57" x="58.66" y="28.39" width="21.81" height="247.96"/></g><path class="cls-58" d="M30.06,124.54c0,3.42,1.95,6.2,4.35,6.2h62.7c2.4,0,4.35-2.78,4.35-6.2s-1.95-6.19-4.35-6.19H34.41C32,118.35,30.06,121.12,30.06,124.54Z"/><path class="cls-58" d="M30.06,109.81c0,3.42,1.95,6.2,4.35,6.2h62.7c2.4,0,4.35-2.78,4.35-6.2s-1.95-6.19-4.35-6.19H34.41C32,103.62,30.06,106.39,30.06,109.81Z"/><path class="cls-58" d="M30.06,95.08c0,3.42,1.95,6.2,4.35,6.2h62.7c2.4,0,4.35-2.78,4.35-6.2s-1.95-6.19-4.35-6.19H34.41C32,88.89,30.06,91.66,30.06,95.08Z"/><path class="cls-58" d="M30.06,80.36c0,3.42,1.95,6.19,4.35,6.19h62.7c2.4,0,4.35-2.77,4.35-6.19s-1.95-6.2-4.35-6.2H34.41C32,74.16,30.06,76.93,30.06,80.36Z"/><path class="cls-58" d="M30.06,65.63c0,3.42,1.95,6.19,4.35,6.19h62.7c2.4,0,4.35-2.77,4.35-6.19s-1.95-6.2-4.35-6.2H34.41C32,59.43,30.06,62.21,30.06,65.63Z"/><path class="cls-59" d="M31.22,120.35l68,9.6a6.9,6.9,0,0,0,2.27-5.41c0-3.42-1.95-6.19-4.35-6.19H34.41A3.91,3.91,0,0,0,31.22,120.35Z"/><path class="cls-60" d="M97.11,118.35H34.41a3,3,0,0,0-.42.06l67.47,6.13C101.46,121.12,99.51,118.35,97.11,118.35Z"/><path class="cls-61" d="M30.83,122.89l.08-2a8,8,0,0,0-.85,3.66c0,3.42,1.95,6.2,4.35,6.2h62.7L34.93,129.2C32.55,129.14,30.69,126.27,30.83,122.89Z"/><path class="cls-59" d="M31.22,105.62l68,9.6a6.9,6.9,0,0,0,2.27-5.41c0-3.42-1.95-6.19-4.35-6.19H34.41A3.93,3.93,0,0,0,31.22,105.62Z"/><path class="cls-60" d="M97.11,103.62H34.41a3,3,0,0,0-.42.06l67.47,6.13C101.46,106.39,99.51,103.62,97.11,103.62Z"/><path class="cls-61" d="M30.83,108.16l.08-2a8,8,0,0,0-.85,3.66c0,3.42,1.95,6.2,4.35,6.2h62.7l-62.18-1.54C32.55,114.41,30.69,111.54,30.83,108.16Z"/><path class="cls-59" d="M31.22,90.89l68,9.6a6.88,6.88,0,0,0,2.27-5.41c0-3.42-1.95-6.19-4.35-6.19H34.41A3.93,3.93,0,0,0,31.22,90.89Z"/><path class="cls-60" d="M97.11,88.89H34.41A3,3,0,0,0,34,89l67.47,6.13C101.46,91.66,99.51,88.89,97.11,88.89Z"/><path class="cls-61" d="M30.83,93.44l.08-2a8,8,0,0,0-.85,3.65c0,3.42,1.95,6.2,4.35,6.2h62.7L34.93,99.74C32.55,99.68,30.69,96.82,30.83,93.44Z"/><path class="cls-59" d="M31.22,76.16l68,9.6a6.87,6.87,0,0,0,2.27-5.4c0-3.43-1.95-6.2-4.35-6.2H34.41A3.93,3.93,0,0,0,31.22,76.16Z"/><path class="cls-60" d="M97.11,74.16H34.41a3,3,0,0,0-.42.06l67.47,6.14C101.46,76.93,99.51,74.16,97.11,74.16Z"/><path class="cls-61" d="M30.83,78.71l.08-2a8,8,0,0,0-.85,3.66c0,3.42,1.95,6.19,4.35,6.19h62.7L34.93,85C32.55,85,30.69,82.09,30.83,78.71Z"/><path class="cls-59" d="M31.22,61.43l68,9.61a6.91,6.91,0,0,0,2.27-5.41c0-3.42-1.95-6.2-4.35-6.2H34.41A3.93,3.93,0,0,0,31.22,61.43Z"/><path class="cls-60" d="M97.11,59.43H34.41a3,3,0,0,0-.42.06l67.47,6.14C101.46,62.21,99.51,59.43,97.11,59.43Z"/><path class="cls-61" d="M30.83,64l.08-2a8,8,0,0,0-.85,3.66c0,3.42,1.95,6.19,4.35,6.19h62.7L34.93,70.28C32.55,70.23,30.69,67.36,30.83,64Z"/><g class="cls-62"><rect class="cls-63" x="55.32" y="118.35" width="41.79" height="12.39"/><rect class="cls-64" x="55.32" y="103.62" width="41.79" height="12.39"/><rect class="cls-65" x="55.32" y="88.89" width="41.79" height="12.39"/><rect class="cls-66" x="55.32" y="74.16" width="41.79" height="12.39"/><rect class="cls-67" x="55.32" y="59.43" width="41.79" height="12.39"/></g><g class="cls-68"><rect class="cls-69" x="33.43" y="118.35" width="8.95" height="12.39"/><rect class="cls-70" x="33.43" y="103.62" width="8.95" height="12.39"/><rect class="cls-71" x="33.43" y="88.89" width="8.95" height="12.39"/><rect class="cls-72" x="33.43" y="74.16" width="8.95" height="12.39"/><rect class="cls-73" x="33.43" y="59.43" width="8.95" height="12.39"/></g><path class="cls-58" d="M30.06,238.58c0,3.42,1.95,6.19,4.35,6.19h62.7c2.4,0,4.35-2.77,4.35-6.19s-1.95-6.2-4.35-6.2H34.41C32,232.38,30.06,235.16,30.06,238.58Z"/><path class="cls-58" d="M30.06,223.85c0,3.42,1.95,6.19,4.35,6.19h62.7c2.4,0,4.35-2.77,4.35-6.19s-1.95-6.19-4.35-6.19H34.41C32,217.66,30.06,220.43,30.06,223.85Z"/><path class="cls-58" d="M30.06,209.12c0,3.42,1.95,6.2,4.35,6.2h62.7c2.4,0,4.35-2.78,4.35-6.2s-1.95-6.19-4.35-6.19H34.41C32,202.93,30.06,205.7,30.06,209.12Z"/><path class="cls-58" d="M30.06,194.39c0,3.42,1.95,6.2,4.35,6.2h62.7c2.4,0,4.35-2.78,4.35-6.2s-1.95-6.19-4.35-6.19H34.41C32,188.2,30.06,191,30.06,194.39Z"/><path class="cls-58" d="M30.06,179.66c0,3.43,1.95,6.2,4.35,6.2h62.7c2.4,0,4.35-2.77,4.35-6.2s-1.95-6.19-4.35-6.19H34.41C32,173.47,30.06,176.24,30.06,179.66Z"/><path class="cls-59" d="M31.22,234.39l68,9.6a6.91,6.91,0,0,0,2.27-5.41c0-3.42-1.95-6.2-4.35-6.2H34.41A3.92,3.92,0,0,0,31.22,234.39Z"/><path class="cls-60" d="M97.11,232.38H34.41a3,3,0,0,0-.42.06l67.47,6.14C101.46,235.16,99.51,232.38,97.11,232.38Z"/><path class="cls-61" d="M30.83,236.93l.08-2a8,8,0,0,0-.85,3.66c0,3.42,1.95,6.19,4.35,6.19h62.7l-62.18-1.53C32.55,243.18,30.69,240.31,30.83,236.93Z"/><path class="cls-59" d="M31.22,219.66l68,9.6a6.9,6.9,0,0,0,2.27-5.41c0-3.42-1.95-6.19-4.35-6.19H34.41A3.91,3.91,0,0,0,31.22,219.66Z"/><path class="cls-60" d="M97.11,217.66H34.41a3,3,0,0,0-.42.06l67.47,6.13C101.46,220.43,99.51,217.66,97.11,217.66Z"/><path class="cls-61" d="M30.83,222.2l.08-2a8,8,0,0,0-.85,3.66c0,3.42,1.95,6.19,4.35,6.19h62.7l-62.18-1.53C32.55,228.45,30.69,225.58,30.83,222.2Z"/><path class="cls-59" d="M31.22,204.93l68,9.6a6.9,6.9,0,0,0,2.27-5.41c0-3.42-1.95-6.19-4.35-6.19H34.41A3.91,3.91,0,0,0,31.22,204.93Z"/><path class="cls-60" d="M97.11,202.93H34.41A3,3,0,0,0,34,203l67.47,6.13C101.46,205.7,99.51,202.93,97.11,202.93Z"/><path class="cls-61" d="M30.83,207.47l.08-2a8,8,0,0,0-.85,3.66c0,3.42,1.95,6.2,4.35,6.2h62.7l-62.18-1.54C32.55,213.72,30.69,210.85,30.83,207.47Z"/><path class="cls-59" d="M31.22,190.2l68,9.6a6.9,6.9,0,0,0,2.27-5.41c0-3.42-1.95-6.19-4.35-6.19H34.41A3.93,3.93,0,0,0,31.22,190.2Z"/><path class="cls-60" d="M97.11,188.2H34.41a3,3,0,0,0-.42.06l67.47,6.13C101.46,191,99.51,188.2,97.11,188.2Z"/><path class="cls-61" d="M30.83,192.75l.08-2a8,8,0,0,0-.85,3.65c0,3.42,1.95,6.2,4.35,6.2h62.7l-62.18-1.54C32.55,199,30.69,196.13,30.83,192.75Z"/><path class="cls-59" d="M31.22,175.47l68,9.6a6.88,6.88,0,0,0,2.27-5.41c0-3.42-1.95-6.19-4.35-6.19H34.41A3.93,3.93,0,0,0,31.22,175.47Z"/><path class="cls-60" d="M97.11,173.47H34.41a3,3,0,0,0-.42.06l67.47,6.13C101.46,176.24,99.51,173.47,97.11,173.47Z"/><path class="cls-61" d="M30.83,178l.08-2a8,8,0,0,0-.85,3.65c0,3.43,1.95,6.2,4.35,6.2h62.7l-62.18-1.54C32.55,184.26,30.69,181.4,30.83,178Z"/><g class="cls-62"><rect class="cls-74" x="55.32" y="232.38" width="41.79" height="12.39"/><rect class="cls-75" x="55.32" y="217.66" width="41.79" height="12.39"/><rect class="cls-76" x="55.32" y="202.93" width="41.79" height="12.39"/><rect class="cls-77" x="55.32" y="188.2" width="41.79" height="12.39"/><rect class="cls-78" x="55.32" y="173.47" width="41.79" height="12.39"/></g><g class="cls-68"><rect class="cls-79" x="33.43" y="232.38" width="8.95" height="12.39"/><rect class="cls-80" x="33.43" y="217.66" width="8.95" height="12.39"/><rect class="cls-81" x="33.43" y="202.93" width="8.95" height="12.39"/><rect class="cls-82" x="33.43" y="188.2" width="8.95" height="12.39"/><rect class="cls-83" x="33.43" y="173.47" width="8.95" height="12.39"/></g><rect class="cls-84" x="147.21" y="52.52" width="12.04" height="224"/><rect class="cls-85" x="92.77" y="22.84" width="71.32" height="10.86"/><g id="_8-5" data-name="8"><path class="cls-2" d="M73,2.58a.18.18,0,0,0,.2.16.19.19,0,0,0-.2.17V8.09a.18.18,0,0,0,.2.16.19.19,0,0,0-.2.17v2.44a.17.17,0,0,0,.18.14h4.14a.16.16,0,0,0,.17-.14V8.42a.18.18,0,0,0-.19-.17.17.17,0,0,0,.19-.16V2.91a.18.18,0,0,0-.19-.17.17.17,0,0,0,.19-.16V.14A.15.15,0,0,0,77.36,0H73.22A.16.16,0,0,0,73,.14Z"/><path class="cls-86" d="M76.23,11H77.4a.16.16,0,0,0,.17-.14,57.3,57.3,0,0,0,0-10.72A.16.16,0,0,0,77.4,0H76.23a.16.16,0,0,0-.17.14V10.86A.17.17,0,0,0,76.23,11Z"/><path class="cls-87" d="M74.45,0H73.18A.16.16,0,0,0,73,.14a48.64,48.64,0,0,0,0,10.72.16.16,0,0,0,.17.14h1.27a.16.16,0,0,0,.17-.14V.14A.15.15,0,0,0,74.45,0Z"/><path class="cls-88" d="M74.45,0H73.18A.16.16,0,0,0,73,.14a100.88,100.88,0,0,0,0,10.72.16.16,0,0,0,.17.14h1.27a.16.16,0,0,0,.17-.14V.14A.15.15,0,0,0,74.45,0Z"/><path class="cls-89" d="M73.24,8.25h4.1a.18.18,0,0,1,.19.17v2.44a.16.16,0,0,1-.17.14H73.22a.17.17,0,0,1-.18-.14V8.42A.19.19,0,0,1,73.24,8.25Z"/><path class="cls-90" d="M73.22,0h4.14a.15.15,0,0,1,.17.14V2.58a.17.17,0,0,1-.19.16h-4.1a.18.18,0,0,1-.2-.16V.14A.16.16,0,0,1,73.22,0Z"/><path class="cls-91" d="M73.22,0h4.14a.15.15,0,0,1,.17.14V2.58a.17.17,0,0,1-.19.16h-4.1a.18.18,0,0,1-.2-.16V.14A.16.16,0,0,1,73.22,0Z"/><path class="cls-92" d="M73.24,2.79h4.1a.18.18,0,0,1,.19.17V8a.17.17,0,0,1-.19.16h-4.1A.18.18,0,0,1,73,8V3A.19.19,0,0,1,73.24,2.79Z"/><path class="cls-93" d="M73.24,2.79h4.1a.18.18,0,0,1,.19.17V8a.17.17,0,0,1-.19.16h-4.1A.18.18,0,0,1,73,8V3A.19.19,0,0,1,73.24,2.79Z"/><rect class="cls-94" x="73.24" y="2.74" width="4.09" height="0.05"/><rect class="cls-95" x="73.24" y="8.2" width="4.09" height="0.05"/></g><rect class="cls-96" x="65.69" y="1.17" width="4.43" height="8.66" transform="translate(62.4 73.4) rotate(-90)"/><g id="_8-6" data-name="8"><path class="cls-2" d="M67.43,2.58a.18.18,0,0,0,.2.16.19.19,0,0,0-.2.17V8.09a.18.18,0,0,0,.2.16.19.19,0,0,0-.2.17v2.44a.17.17,0,0,0,.17.14h4.15a.16.16,0,0,0,.17-.14V8.42a.19.19,0,0,0-.19-.17.18.18,0,0,0,.19-.16V2.91a.19.19,0,0,0-.19-.17.18.18,0,0,0,.19-.16V.14A.15.15,0,0,0,71.75,0H67.6a.16.16,0,0,0-.17.14Z"/><path class="cls-97" d="M70.62,11h1.17a.16.16,0,0,0,.17-.14A57.3,57.3,0,0,0,72,.14.16.16,0,0,0,71.79,0H70.62a.15.15,0,0,0-.17.14V10.86A.16.16,0,0,0,70.62,11Z"/><path class="cls-98" d="M68.84,0H67.57a.18.18,0,0,0-.18.14,49.26,49.26,0,0,0,0,10.72.18.18,0,0,0,.18.14h1.27a.17.17,0,0,0,.17-.14V.14A.16.16,0,0,0,68.84,0Z"/><path class="cls-99" d="M68.84,0H67.57a.18.18,0,0,0-.18.14,106.47,106.47,0,0,0,0,10.72.18.18,0,0,0,.18.14h1.27a.17.17,0,0,0,.17-.14V.14A.16.16,0,0,0,68.84,0Z"/><path class="cls-100" d="M67.63,8.25h4.1a.19.19,0,0,1,.19.17v2.44a.16.16,0,0,1-.17.14H67.6a.17.17,0,0,1-.17-.14V8.42A.19.19,0,0,1,67.63,8.25Z"/><path class="cls-101" d="M67.6,0h4.15a.15.15,0,0,1,.17.14V2.58a.18.18,0,0,1-.19.16h-4.1a.18.18,0,0,1-.2-.16V.14A.16.16,0,0,1,67.6,0Z"/><path class="cls-102" d="M67.6,0h4.15a.15.15,0,0,1,.17.14V2.58a.18.18,0,0,1-.19.16h-4.1a.18.18,0,0,1-.2-.16V.14A.16.16,0,0,1,67.6,0Z"/><path class="cls-103" d="M67.63,2.79h4.1a.19.19,0,0,1,.19.17V8a.18.18,0,0,1-.19.16h-4.1a.18.18,0,0,1-.2-.16V3A.19.19,0,0,1,67.63,2.79Z"/><path class="cls-104" d="M67.63,2.79h4.1a.19.19,0,0,1,.19.17V8a.18.18,0,0,1-.19.16h-4.1a.18.18,0,0,1-.2-.16V3A.19.19,0,0,1,67.63,2.79Z"/><rect class="cls-105" x="67.63" y="2.74" width="4.09" height="0.05"/><rect class="cls-106" x="67.63" y="8.2" width="4.09" height="0.05"/></g><path class="cls-107" d="M116.57,21.48h-39a4.31,4.31,0,0,1-4.3-4.3V0H71.59v18.8a4.32,4.32,0,0,0,4.3,4.3h40.68Z"/><path class="cls-108" d="M116.57,19.85H79.15a4.31,4.31,0,0,1-4.3-4.3V0H73.22V17.18a4.31,4.31,0,0,0,4.3,4.3h39.05Z"/><path class="cls-38" d="M73.22,0V16.5s-.63,4.84,5.07,5.07h38.28"/><rect class="cls-109" x="145.9" y="32.97" width="14.66" height="21.54"/><polygon class="cls-110" points="166.3 43.61 166.3 51.36 160.04 51.36 160.04 37.09 166.3 43.61"/><path class="cls-111" d="M166.3,43.61V45.8c-.5.14-1.05.17-1.56.28-2,.44-3.29-.86-3.56,1.12a8.73,8.73,0,0,0,.22,3.22,7.9,7.9,0,0,0,.34.94H160V37.09Z"/><path class="cls-112" d="M175.43,35.33A10.53,10.53,0,1,0,186,45.86,10.52,10.52,0,0,0,175.43,35.33Zm0,4.31a6.22,6.22,0,1,1-6.21,6.21A6.22,6.22,0,0,1,175.43,39.64Z"/><g class="cls-62"><path class="cls-113" d="M175.43,52.07a6.23,6.23,0,0,0,6.22-6.22,6.14,6.14,0,0,0-2-4.52,6.19,6.19,0,1,1-7.24,9.93A6.13,6.13,0,0,0,175.43,52.07Z"/><path class="cls-114" d="M182.08,37.75A10.48,10.48,0,0,0,170,54.83a10.49,10.49,0,1,1,12.08-17.08Z"/></g><g class="cls-115"><path class="cls-116" d="M168.53,45.16a6.19,6.19,0,0,1,10.92-4,6.18,6.18,0,0,0-8.72,8.72A6.17,6.17,0,0,1,168.53,45.16Z"/><path class="cls-117" d="M174.74,55.69A10.49,10.49,0,0,0,182.5,38.1a10.49,10.49,0,1,1-14.82,14.82A10.41,10.41,0,0,0,174.74,55.69Z"/></g><path class="cls-118" d="M148.88,261.77h-8.32a4,4,0,1,0,0,8h8.32Z"/><g id="_5" data-name="5"><path class="cls-119" d="M144,265.76a2,2,0,1,1-2-2A2,2,0,0,1,144,265.76Z"/><circle class="cls-120" cx="142.07" cy="265.59" r="1.78"/></g><rect class="cls-121" x="121.15" y="269.41" width="16.4" height="10.94" rx="5.47" transform="translate(-146.13 402.94) rotate(-89.73)"/><circle class="cls-122" cx="129.22" cy="279.08" r="5.57"/><rect class="cls-123" x="145.9" y="253.45" width="14.66" height="21.54"/></g></g></g></svg>