<svg xmlns="http://www.w3.org/2000/svg" viewBox="0 0 237.46 256.59"><defs><style>.cls-1{fill:#82cbca;}.cls-2{fill:#f1b91f;}.cls-3{fill:#e7b11d;}.cls-4{fill:#2f5b80;}.cls-5{fill:#224661;}.cls-6{fill:#6aa1c0;}.cls-7{fill:#6295b1;}.cls-8,.cls-9{fill:#fff;}.cls-9{opacity:0.2;}</style></defs><title>闪烁灯</title><g id="图层_2" data-name="图层 2"><g id="图层_1-2" data-name="图层 1"><path class="cls-1" d="M188.93,212.49a.82.82,0,0,1-1.17-.18L169,186.36a.87.87,0,0,1,.18-1.19l1.91-1.45a.85.85,0,0,1,1.19.14l20,25a.84.84,0,0,1-.14,1.18ZM45.29,209a.83.83,0,0,1-1.18.12L41,206.51a.83.83,0,0,1-.08-1.18l21.14-24.07a.85.85,0,0,1,1.19-.09l1.85,1.55a.85.85,0,0,1,.13,1.19Zm178.23-36.37a.83.83,0,0,1-1.13.35l-28.15-15.29a.86.86,0,0,1-.35-1.15l1.1-2.14a.86.86,0,0,1,1.13-.39L225,167.88a.85.85,0,0,1,.39,1.13ZM12.55,168a.84.84,0,0,1-1.12-.4L9.77,164a.83.83,0,0,1,.44-1.1l29.47-12.54a.87.87,0,0,1,1.12.44l1,2.18a.87.87,0,0,1-.4,1.13Zm224.81-46.41a.84.84,0,0,1-.87.8l-32-1.52a.85.85,0,0,1-.81-.88l.06-2.41c0-.47,0-.9,0-1s.38-.12.84-.12h32c.46,0,.84.05.84.12s0,.5,0,1ZM33.72,116.8a3.16,3.16,0,0,1-.84.06H.84A3.16,3.16,0,0,1,0,116.8s0-.44,0-.91L.1,112a.82.82,0,0,1,.87-.8l32,1.47a.85.85,0,0,1,.81.88l-.05,2.31C33.72,116.36,33.72,116.76,33.72,116.8Zm164-33.74a.84.84,0,0,1-1.11-.44l-1-2.17a.87.87,0,0,1,.4-1.13l28.82-14a.84.84,0,0,1,1.12.4l1.67,3.65a.84.84,0,0,1-.44,1.1ZM42.43,79.2a.85.85,0,0,1-1.13.39L12.43,65.71A.84.84,0,0,1,12,64.59L13.88,61A.83.83,0,0,1,15,60.66L43.18,75.91a.86.86,0,0,1,.35,1.15ZM175.3,52.14a.86.86,0,0,1-1.2.09l-1.85-1.54a.87.87,0,0,1-.13-1.2l19.94-25.07a.83.83,0,0,1,1.18-.12l3.09,2.57a.83.83,0,0,1,.08,1.18Zm-109-2.33a.85.85,0,0,1-1.19-.13l-20-25a.83.83,0,0,1,.13-1.17l3.2-2.44a.84.84,0,0,1,1.17.18l18.8,25.93a.86.86,0,0,1-.18,1.19ZM141.7,34a.85.85,0,0,1-1,.6L138.34,34a.85.85,0,0,1-.64-1l7.05-31.25a.83.83,0,0,1,1-.63l3.91,1a.84.84,0,0,1,.59,1Zm-41.22-.29a.87.87,0,0,1-1-.65L92.32,1.82a.84.84,0,0,1,.63-1l4-.81a.84.84,0,0,1,1,.68l5.63,31.53a.86.86,0,0,1-.68,1Z"/><path class="cls-2" d="M185.22,118.54a66.49,66.49,0,1,0-95.13,60v13.25a28.64,28.64,0,0,0,57.28,0V178.56A66.5,66.5,0,0,0,185.22,118.54Z"/><path class="cls-3" d="M118.73,176.88a66.59,66.59,0,0,1-66.4-61.58c0,1.07-.08,2.15-.08,3.24a66.49,66.49,0,0,0,37.84,60v13.25a28.64,28.64,0,0,0,57.28,0V178.56a66.5,66.5,0,0,0,37.85-60c0-1.09,0-2.17-.08-3.24A66.6,66.6,0,0,1,118.73,176.88Z"/><path class="cls-4" d="M90.09,193.37V217a28.59,28.59,0,0,0,9.65,21.43,19,19,0,0,0,38,0A28.56,28.56,0,0,0,147.37,217V193.37Z"/><path class="cls-5" d="M118.73,246a33.77,33.77,0,0,0-15.07,3.2,19,19,0,0,0,30.15,0A33.82,33.82,0,0,0,118.73,246Z"/><path class="cls-5" d="M90.09,193.37V217a28.59,28.59,0,0,0,9.65,21.43,19,19,0,0,0,38,0A28.56,28.56,0,0,0,147.37,217V193.37Zm54.72,24.43a25.66,25.66,0,0,1-8.66,19.25,17.07,17.07,0,0,1-34.11,0,25.64,25.64,0,0,1-8.67-19.25V196.59h51.44Z"/><path class="cls-5" d="M142.79,232.51A28.5,28.5,0,0,0,147.37,217V193.37H90.09V217a28.5,28.5,0,0,0,4.58,15.52Z"/><path class="cls-6" d="M152.09,193.37a3.42,3.42,0,0,1-3.42,3.42H88.79a3.42,3.42,0,0,1-3.42-3.42h0A3.42,3.42,0,0,1,88.79,190h59.88a3.42,3.42,0,0,1,3.42,3.42Z"/><path class="cls-6" d="M152.09,204.85a3.42,3.42,0,0,1-3.42,3.42H88.79a3.42,3.42,0,0,1-3.42-3.42h0a3.43,3.43,0,0,1,3.42-3.43h59.88a3.43,3.43,0,0,1,3.42,3.43Z"/><path class="cls-6" d="M152.09,216.08a3.42,3.42,0,0,1-3.42,3.42H88.79a3.42,3.42,0,0,1-3.42-3.42h0a3.42,3.42,0,0,1,3.42-3.42h59.88a3.42,3.42,0,0,1,3.42,3.42Z"/><path class="cls-6" d="M149.73,227.88a3.42,3.42,0,0,1-3.42,3.42H91.15a3.42,3.42,0,0,1-3.42-3.42h0a3.42,3.42,0,0,1,3.42-3.42h55.16a3.42,3.42,0,0,1,3.42,3.42Z"/><path class="cls-7" d="M148.67,194.43H88.79a3.41,3.41,0,0,1-3.2-2.24,3.3,3.3,0,0,0-.22,1.18,3.42,3.42,0,0,0,3.42,3.42h59.88a3.42,3.42,0,0,0,3.42-3.42,3.53,3.53,0,0,0-.21-1.18A3.42,3.42,0,0,1,148.67,194.43Z"/><path class="cls-7" d="M148.67,205.91H88.79a3.42,3.42,0,0,1-3.2-2.24,3.3,3.3,0,0,0-.22,1.18,3.42,3.42,0,0,0,3.42,3.42h59.88a3.42,3.42,0,0,0,3.42-3.42,3.53,3.53,0,0,0-.21-1.18A3.43,3.43,0,0,1,148.67,205.91Z"/><path class="cls-7" d="M148.67,217.14H88.79a3.41,3.41,0,0,1-3.2-2.24,3.3,3.3,0,0,0-.22,1.18,3.42,3.42,0,0,0,3.42,3.42h59.88a3.42,3.42,0,0,0,3.42-3.42,3.53,3.53,0,0,0-.21-1.18A3.42,3.42,0,0,1,148.67,217.14Z"/><path class="cls-7" d="M146.31,228.94H91.15A3.41,3.41,0,0,1,88,226.7a3.3,3.3,0,0,0-.22,1.18,3.42,3.42,0,0,0,3.42,3.42h55.16a3.42,3.42,0,0,0,3.42-3.42,3.53,3.53,0,0,0-.21-1.18A3.42,3.42,0,0,1,146.31,228.94Z"/><path class="cls-8" d="M138,126.57l-1.7-.73a8.18,8.18,0,0,0-4.24-1c-2.11.28-3.68,2-5.54,2.92-2.46,1.16-4.83,2.54-7.22,3.84l-3.62,2a2.29,2.29,0,0,1-2,.07l-16.68-7.6a2.29,2.29,0,0,0-3.21,2.41l.15,1.1,8.3,58.39a2.29,2.29,0,0,0,4.54-.56L105.1,171.9q-1.38-13.18-2.75-26.37c-.27-2.65-.55-5.29-.83-7.94a4.3,4.3,0,0,1,0-1.64c.85-3.16,4.75-.69,6.46.09l5.6,2.55a2.29,2.29,0,0,0,2-.08c5.1-2.78,10.21-5.52,15.29-8.34a3.34,3.34,0,0,1,2.38-.58,8.15,8.15,0,0,1,2.12.76c.79.37,1.56.76,1.78,1.67a5,5,0,0,1,0,1.72c-1.31,12.95-2.73,25.89-4.06,38.85L131.79,186a4.24,4.24,0,0,0,.54,3.24,2.16,2.16,0,0,0,2.92.24,4.2,4.2,0,0,0,1.12-2.78c2.26-13.58,3.79-27.32,5.68-41,.65-4.72,1.32-9.44,1.95-14.16a4,4,0,0,0,0-1.62c-.27-.93-1.2-1.35-2-1.7Z"/><path class="cls-9" d="M161.68,107.64a51.17,51.17,0,1,1-51.16-51.16A51.16,51.16,0,0,1,161.68,107.64Z"/><circle class="cls-9" cx="97.26" cy="89.57" r="26.11"/></g></g></svg>