<svg xmlns="http://www.w3.org/2000/svg" xmlns:xlink="http://www.w3.org/1999/xlink" viewBox="0 0 262.67 170.55"><defs><style>.cls-1{fill:url(#未命名的渐变_91);}.cls-2,.cls-6,.cls-7{fill:#fff;}.cls-3{fill:url(#未命名的渐变_147);}.cls-4{fill:#da251c;}.cls-5{fill:#050d0e;}.cls-6{font-size:23.51px;font-family:SourceHanSansCN-Bold-GBpc-EUC-H, Source Han Sans CN;letter-spacing:0.18em;}.cls-7{fill-rule:evenodd;}</style><linearGradient id="未命名的渐变_91" y1="80.14" x2="262.67" y2="80.14" gradientUnits="userSpaceOnUse"><stop offset="0" stop-color="#e70012"/><stop offset="1" stop-color="#da251c"/></linearGradient><linearGradient id="未命名的渐变_147" x1="131.33" y1="5.52" x2="131.33" y2="154.76" gradientUnits="userSpaceOnUse"><stop offset="0" stop-color="#fff"/><stop offset="0.99" stop-color="#ccccda" stop-opacity="0.3"/></linearGradient></defs><title>禁止操作</title><g id="图层_2" data-name="图层 2"><g id="图层_1-2" data-name="图层 1"><rect class="cls-1" width="262.67" height="160.28" rx="7.11"/><rect class="cls-2" x="3.11" y="3.09" width="256.45" height="154.11" rx="7.11"/><rect class="cls-3" x="5.85" y="5.52" width="250.96" height="149.24" rx="7.11"/><path class="cls-4" d="M5.85,116.71h251a0,0,0,0,1,0,0v30.95a7.11,7.11,0,0,1-7.11,7.11H13a7.11,7.11,0,0,1-7.11-7.11V116.71A0,0,0,0,1,5.85,116.71Z"/><path class="cls-4" d="M188.56,22.33A36.69,36.69,0,1,0,225.25,59,36.76,36.76,0,0,0,188.56,22.33Zm-21.64,15-.06.06Zm-9,21.7a30.52,30.52,0,0,1,7.31-19.84l42.95,43.4A30.64,30.64,0,0,1,157.91,59Zm52.25,21.75.13-.13A1.59,1.59,0,0,0,210.16,80.77Zm2.35-2.65L169.73,34.88a30.62,30.62,0,0,1,42.78,43.24Z"/><polygon class="cls-5" points="195.91 59.76 202.08 56.42 200.54 53.74 193.68 57.5 195.91 59.76"/><path class="cls-5" d="M205.52,48.67a1.61,1.61,0,0,0-.22-.23h0l-.1-.09a1.29,1.29,0,0,0-.16-.09v0a2,2,0,0,0-.58-.19H204l-.08,0a1.65,1.65,0,0,0-.44.16,1.53,1.53,0,0,0-.59,2h0a.06.06,0,0,1,0,0l0,0L204,52.17l1.09,1.9.08.13a.59.59,0,0,0,.13.18l0,0a1.49,1.49,0,0,0,1.91.35,1.55,1.55,0,0,0,.58-2.08.61.61,0,0,1-.1-.14l-2.14-3.73h0v0A.54.54,0,0,1,205.52,48.67Z"/><path class="cls-5" d="M200.58,49.9l-.2.14-.07.06a1.22,1.22,0,0,0-.15.17.1.1,0,0,0,0,0,.86.86,0,0,0-.1.16.25.25,0,0,0,0,.07c0,.06,0,.12-.08.19a1.36,1.36,0,0,1,0,.17v0a1.6,1.6,0,0,0,0,.49,1.06,1.06,0,0,0,0,.19v0a2.15,2.15,0,0,0,.1.27l0,0h0v0l2.18,3.73.06.14a.85.85,0,0,0,.14.19s0,0,0,0l.14.15.06,0a.4.4,0,0,0,.15.1l.09.07a.19.19,0,0,1,.08,0,1.55,1.55,0,0,0,1.08.08,1.75,1.75,0,0,0,.31-.15,1.51,1.51,0,0,0,.55-2.06.37.37,0,0,0-.09-.14l-2.14-3.73v0A1.53,1.53,0,0,0,200.58,49.9Z"/><path class="cls-5" d="M209.21,47a0,0,0,0,0,0,0v0l1,1.74.74-.38,1.95-1-1.08-1.88v0a1.53,1.53,0,0,0-1.46-.74h-.08a1.5,1.5,0,0,0-.54.18,1.53,1.53,0,0,0-.59,2Z"/><path class="cls-5" d="M205.91,48.42s0,0,0,0l2.16,3.74c0,.06,0,.09.08.15a1.52,1.52,0,0,0,2.06.56l.25-.18h0a1.53,1.53,0,0,0,.5-.94,1.34,1.34,0,0,0,0-.4,1.41,1.41,0,0,0-.17-.5,1,1,0,0,1,.17,0c.12,0,.25,0,.37.06h.09l.55,0h.05a6.5,6.5,0,0,0,1.18-.05,7.27,7.27,0,0,0,.74,3.66,2.21,2.21,0,0,1-1.08-1.33c0-1.08-.36-2.08-1.19-1.72-.29,0-.56.09-.48.26a1.16,1.16,0,0,1,0,.18.49.49,0,0,1,0,.12h0a1,1,0,0,1-.18.63l-.05.07,0,.06a1.06,1.06,0,0,0-.15.15h0l-.14.12,0,0a2.49,2.49,0,0,1-.43.22h0a2.21,2.21,0,0,1-1,.14h0l-.23,0h0a1,1,0,0,1-.2-.06l-.07,0a1.21,1.21,0,0,1-.2-.09,2,2,0,0,1-2.92,1.93,2.33,2.33,0,0,1-.05.28,1.6,1.6,0,0,1-.08.26h0A1.82,1.82,0,0,1,204,57a1.07,1.07,0,0,1-.25,0h-.42l-.15,0a1.55,1.55,0,0,1-.23-.06,1.31,1.31,0,0,0,.27.71l.78,1.29,1.48,2.4.86,1.42a3.4,3.4,0,0,0,2.39,1.2l1.2,1.86,1-.55,9.3-5-1.47-3.3a5.38,5.38,0,0,0,0-2.82l-3.47-6.26a2,2,0,0,0-2-.27l-3.43,1.79L208.56,47h0a1.51,1.51,0,0,0-2.07-.56,1.54,1.54,0,0,0-.59,2S205.89,48.42,205.91,48.42Z"/><path class="cls-5" d="M194.72,39.79a27,27,0,0,1,9.6,4.36l1.21-2.22a30.61,30.61,0,0,0-10.33-4.59l.57-1.38-7.19,1.88,5.74,3.44Z"/><path class="cls-5" d="M173.14,48.84V77.6A17.58,17.58,0,0,0,176,79.67v-28Z"/><path class="cls-5" d="M186.87,50.64V38.33a2.47,2.47,0,0,0-2.54-2.39h-7.64v4.44Z"/><polygon class="cls-5" points="187.63 63.36 187.63 64.24 188.2 63.93 187.63 63.36"/><path class="cls-5" d="M220.87,60.63,208.51,67.4l6.71,7.34a28.06,28.06,0,0,0,6.86-12.84Z"/><path class="cls-5" d="M176.69,52.39v22.9h7.64a2.73,2.73,0,0,0,2.54-2.7v-10Zm5.1,14.93a2.12,2.12,0,1,1,2.1-2.1A2.1,2.1,0,0,1,181.79,67.32Z"/><path class="cls-5" d="M181.79,63.38a1.83,1.83,0,1,0,1.82,1.84A1.83,1.83,0,0,0,181.79,63.38Z"/><polygon class="cls-5" points="175.97 39.66 175.97 39.45 175.76 39.45 175.97 39.66"/><path class="cls-4" d="M71.23,83.18l0,0a1.44,1.44,0,0,0,0,2,1.39,1.39,0,1,0,1.95-2A1.34,1.34,0,0,0,71.23,83.18Z"/><path class="cls-4" d="M127.69,88.24,90.88,24.48a5.32,5.32,0,0,0-9.22,0L44.85,88.24a5.33,5.33,0,0,0,4.61,8h73.62A5.33,5.33,0,0,0,127.69,88.24ZM90.25,73.42l1-1.07a1.38,1.38,0,0,1,1.94,0l8.51,8.8a1.42,1.42,0,0,1,0,2l-3.89,4a1.38,1.38,0,0,1-1.94,0l-8.54-8.81a1.43,1.43,0,0,1,0-2l1-1-1.68-1.72L74.78,86.78a2.7,2.7,0,0,1-3.82.09l-.09-.09-1-1a2.87,2.87,0,0,1,0-4L83.32,70.34,74.38,61.2H71.61l-3.24-5.36L71,53.13l5.36,3.38v2.81l8.94,9.25,2.62-2.23a9.26,9.26,0,0,1,.87-11.85,8.82,8.82,0,0,1,9.7-2l-5.64,5.81,4.85,5,5.81-5.84a9.3,9.3,0,0,1-1.94,10,8.76,8.76,0,0,1-10.7,1.45l-2.35,2.68Z"/><text class="cls-6" transform="translate(48.46 145.96)">待维修 严禁操作</text><path class="cls-7" d="M40.41,147.05H17.87a.73.73,0,0,1-.64-1.1l11.26-19.53a.73.73,0,0,1,1.27,0L41,145.94A.74.74,0,0,1,40.41,147.05Z"/><rect class="cls-4" x="27.07" y="131.32" width="3.86" height="13.79" rx="1.72"/><path class="cls-7" d="M29,142h.35l0,0h.09l0,0h.08l0,0,0,0h.05l0,0h0l0,0h0l0,0h0l0,0,0,0,0,0h0l0,0h0l0,0v0l0,0,0,0,0,0v0l0,0,0,0v.13l0,0v.19l0,0v.23h0v.46l0,0v.13l0,0,0,0v0l0,0,0,0v0h0l0,0,0,0v0h0l0,0,0,0,0,0h0l0,0h0l0,0h0l0,0h0l0,0h-.05l0,0h-.17l0,0h-.58l0,0h-.06l0,0h-.08l0,0h-.06l0,0h0l0,0h0l0,0h0v0h0l0,0,0,0,0,0h0l0,0v0h0l0,0v0l0,0,0,0v0l0,0v0l0,0v-.16l0,0v-.41h0v-.4l0,0v-.15l0,0v0l0,0v0l0,0,0,0v0l0,0,0,0v0h0l0,0,0,0,0,0h0l0,0h0v0l0,0h0l0,0h0l0,0H29Zm-9.26,3.26H38.3l-9.26-16-9.27,16Zm8.07-11.41h0v-.34h0v0h0v-.06h0v0h0v0h0l0,0h0v0h0l0,0h0v0h.05v0h.09l0,0,0,0,0,0h0l0,0,0,0,0,0h.05l0,0h1l0,0h.09l0,0,0,0h0l0,0,0,0,0,0h0l0,0,0,0,0,0,0,0,0,0,0,0,0,0v0l0,0v0l0,0v.1l0,0V134l-.33,4a20.11,20.11,0,0,1-.21,2.8v.27l0,0v0l0,0v0l0,0h0l0,0,0,0v0l0,0,0,0,0,0h0l0,0,0,0,0,0,0,0h0l0,0,0,0h0l0,0H29l0,0h-.2l0,0h0l0,0h0l0,0v0h0l0,0v0l0,0v0h0v-.1c-.07-.32-.07-.61-.12-1Z"/></g></g></svg>