<svg xmlns="http://www.w3.org/2000/svg" xmlns:xlink="http://www.w3.org/1999/xlink" viewBox="0 0 227.61 153.26"><defs><style>.cls-1{isolation:isolate;}.cls-2,.cls-3,.cls-4{fill:#b7b7b7;}.cls-10,.cls-12,.cls-14,.cls-15,.cls-16,.cls-17,.cls-18,.cls-19,.cls-20,.cls-21,.cls-22,.cls-23,.cls-24,.cls-25,.cls-26,.cls-27,.cls-28,.cls-29,.cls-3,.cls-30,.cls-31,.cls-32,.cls-33,.cls-7,.cls-8{mix-blend-mode:multiply;}.cls-13,.cls-34,.cls-4,.cls-6{mix-blend-mode:screen;}.cls-10,.cls-5,.cls-6,.cls-7{fill:#564343;}.cls-7,.cls-9{opacity:0.3;}.cls-10,.cls-8{opacity:0.6;}.cls-8{fill:url(#linear-gradient);}.cls-9{mix-blend-mode:color-dodge;fill:url(#linear-gradient-2);}.cls-11{fill:#dd7917;}.cls-12,.cls-13{fill:#b7610b;}.cls-12{opacity:0.5;}.cls-14{fill:url(#linear-gradient-3);}.cls-15{fill:url(#linear-gradient-4);}.cls-16{fill:url(#linear-gradient-5);}.cls-17{fill:url(#linear-gradient-6);}.cls-18{fill:url(#linear-gradient-7);}.cls-19{fill:url(#linear-gradient-8);}.cls-20{fill:url(#linear-gradient-9);}.cls-21{fill:url(#linear-gradient-10);}.cls-22{fill:url(#linear-gradient-11);}.cls-23{fill:url(#linear-gradient-12);}.cls-24{fill:url(#linear-gradient-13);}.cls-25{fill:url(#linear-gradient-14);}.cls-26{fill:url(#linear-gradient-15);}.cls-27{fill:url(#linear-gradient-16);}.cls-28{fill:url(#linear-gradient-17);}.cls-29{fill:url(#linear-gradient-18);}.cls-30{fill:url(#linear-gradient-19);}.cls-31{fill:url(#linear-gradient-20);}.cls-32{fill:url(#linear-gradient-21);}.cls-33{fill:url(#linear-gradient-22);}.cls-35{fill:url(#linear-gradient-23);}.cls-36{fill:url(#linear-gradient-24);}.cls-37{fill:url(#linear-gradient-25);}.cls-38{fill:url(#linear-gradient-26);}.cls-39{fill:url(#linear-gradient-27);}.cls-40{fill:url(#linear-gradient-28);}.cls-41{fill:url(#linear-gradient-29);}.cls-42{fill:url(#linear-gradient-30);}.cls-43{fill:url(#linear-gradient-31);}.cls-44{fill:url(#linear-gradient-32);}.cls-45{fill:url(#linear-gradient-33);}.cls-46{fill:url(#linear-gradient-34);}.cls-47{fill:url(#linear-gradient-35);}.cls-48{fill:url(#linear-gradient-36);}.cls-49{fill:url(#linear-gradient-37);}.cls-50{fill:url(#linear-gradient-38);}.cls-51{fill:url(#linear-gradient-39);}.cls-52{fill:url(#linear-gradient-40);}.cls-53{fill:url(#linear-gradient-41);}</style><linearGradient id="linear-gradient" x1="113.8" y1="24.93" x2="113.8" y2="56.68" gradientUnits="userSpaceOnUse"><stop offset="0" stop-color="#fff"/><stop offset="0.5" stop-color="#564343"/><stop offset="1" stop-color="#fff"/></linearGradient><linearGradient id="linear-gradient-2" x1="113.8" y1="3223.29" x2="113.8" y2="3246.32" gradientTransform="matrix(1, 0, 0, -0.37, 0, 1204.78)" gradientUnits="userSpaceOnUse"><stop offset="0"/><stop offset="0.5" stop-color="#564343"/><stop offset="1"/></linearGradient><linearGradient id="linear-gradient-3" x1="7511.67" y1="-5260.68" x2="7548.96" y2="-5260.68" gradientTransform="translate(5272.78 7554.81) rotate(-90)" gradientUnits="userSpaceOnUse"><stop offset="0" stop-color="#fff"/><stop offset="0.5" stop-color="#dd7917"/><stop offset="1" stop-color="#fff"/></linearGradient><linearGradient id="linear-gradient-4" x1="7511.67" y1="-5249.96" x2="7548.96" y2="-5249.96" xlink:href="#linear-gradient-3"/><linearGradient id="linear-gradient-5" x1="7511.67" y1="-5239.25" x2="7548.96" y2="-5239.25" xlink:href="#linear-gradient-3"/><linearGradient id="linear-gradient-6" x1="7511.67" y1="-5228.53" x2="7548.96" y2="-5228.53" xlink:href="#linear-gradient-3"/><linearGradient id="linear-gradient-7" x1="7511.67" y1="-5217.82" x2="7548.96" y2="-5217.82" xlink:href="#linear-gradient-3"/><linearGradient id="linear-gradient-8" x1="7511.67" y1="-5207.1" x2="7548.96" y2="-5207.1" xlink:href="#linear-gradient-3"/><linearGradient id="linear-gradient-9" x1="7511.67" y1="-5196.39" x2="7548.96" y2="-5196.39" xlink:href="#linear-gradient-3"/><linearGradient id="linear-gradient-10" x1="7511.67" y1="-5185.67" x2="7548.96" y2="-5185.67" xlink:href="#linear-gradient-3"/><linearGradient id="linear-gradient-11" x1="7511.67" y1="-5174.96" x2="7548.96" y2="-5174.96" xlink:href="#linear-gradient-3"/><linearGradient id="linear-gradient-12" x1="7511.67" y1="-5164.24" x2="7548.96" y2="-5164.24" xlink:href="#linear-gradient-3"/><linearGradient id="linear-gradient-13" x1="7511.67" y1="-5153.67" x2="7548.96" y2="-5153.67" xlink:href="#linear-gradient-3"/><linearGradient id="linear-gradient-14" x1="7511.67" y1="-5142.92" x2="7548.96" y2="-5142.92" xlink:href="#linear-gradient-3"/><linearGradient id="linear-gradient-15" x1="7511.67" y1="-5132.26" x2="7548.96" y2="-5132.26" xlink:href="#linear-gradient-3"/><linearGradient id="linear-gradient-16" x1="7511.67" y1="-5121.52" x2="7548.96" y2="-5121.52" xlink:href="#linear-gradient-3"/><linearGradient id="linear-gradient-17" x1="7511.49" y1="-5110.85" x2="7548.77" y2="-5110.85" xlink:href="#linear-gradient-3"/><linearGradient id="linear-gradient-18" x1="7511.67" y1="-5100.12" x2="7548.96" y2="-5100.12" xlink:href="#linear-gradient-3"/><linearGradient id="linear-gradient-19" x1="7511.67" y1="-5089.43" x2="7548.96" y2="-5089.43" xlink:href="#linear-gradient-3"/><linearGradient id="linear-gradient-20" x1="7511.67" y1="-5078.71" x2="7548.96" y2="-5078.71" xlink:href="#linear-gradient-3"/><linearGradient id="linear-gradient-21" x1="7511.67" y1="-5067.97" x2="7548.96" y2="-5067.97" xlink:href="#linear-gradient-3"/><linearGradient id="linear-gradient-22" x1="7511.46" y1="-5057.3" x2="7548.75" y2="-5057.3" xlink:href="#linear-gradient-3"/><linearGradient id="linear-gradient-23" x1="7487.5" y1="-5249.97" x2="7498.8" y2="-5249.97" gradientTransform="translate(5272.78 7554.81) rotate(-90)" gradientUnits="userSpaceOnUse"><stop offset="0"/><stop offset="0.5" stop-color="#dd7917"/><stop offset="1"/></linearGradient><linearGradient id="linear-gradient-24" x1="7487.5" y1="-5239.38" x2="7498.8" y2="-5239.38" xlink:href="#linear-gradient-23"/><linearGradient id="linear-gradient-25" x1="7487.22" y1="-5228.62" x2="7498.52" y2="-5228.62" xlink:href="#linear-gradient-23"/><linearGradient id="linear-gradient-26" x1="7487.5" y1="-5217.87" x2="7498.8" y2="-5217.87" xlink:href="#linear-gradient-23"/><linearGradient id="linear-gradient-27" x1="7487.5" y1="-5207.28" x2="7498.8" y2="-5207.28" xlink:href="#linear-gradient-23"/><linearGradient id="linear-gradient-28" x1="7487.5" y1="-5196.41" x2="7498.8" y2="-5196.41" xlink:href="#linear-gradient-23"/><linearGradient id="linear-gradient-29" x1="7487.5" y1="-5185.76" x2="7498.8" y2="-5185.76" xlink:href="#linear-gradient-23"/><linearGradient id="linear-gradient-30" x1="7487.5" y1="-5175.01" x2="7498.8" y2="-5175.01" xlink:href="#linear-gradient-23"/><linearGradient id="linear-gradient-31" x1="7487.61" y1="-5164.3" x2="7498.91" y2="-5164.3" xlink:href="#linear-gradient-23"/><linearGradient id="linear-gradient-32" x1="7487.5" y1="-5153.66" x2="7498.8" y2="-5153.66" xlink:href="#linear-gradient-23"/><linearGradient id="linear-gradient-33" x1="7487.5" y1="-5142.9" x2="7498.8" y2="-5142.9" xlink:href="#linear-gradient-23"/><linearGradient id="linear-gradient-34" x1="7487.5" y1="-5132.31" x2="7498.8" y2="-5132.31" xlink:href="#linear-gradient-23"/><linearGradient id="linear-gradient-35" x1="7487.5" y1="-5121.5" x2="7498.8" y2="-5121.5" xlink:href="#linear-gradient-23"/><linearGradient id="linear-gradient-36" x1="7487.5" y1="-5110.85" x2="7498.8" y2="-5110.85" xlink:href="#linear-gradient-23"/><linearGradient id="linear-gradient-37" x1="7487.5" y1="-5100.15" x2="7498.8" y2="-5100.15" xlink:href="#linear-gradient-23"/><linearGradient id="linear-gradient-38" x1="7487.5" y1="-5089.4" x2="7498.8" y2="-5089.4" xlink:href="#linear-gradient-23"/><linearGradient id="linear-gradient-39" x1="7487.5" y1="-5078.72" x2="7498.8" y2="-5078.72" xlink:href="#linear-gradient-23"/><linearGradient id="linear-gradient-40" x1="7487.5" y1="-5067.99" x2="7498.8" y2="-5067.99" xlink:href="#linear-gradient-23"/><linearGradient id="linear-gradient-41" x1="7487.56" y1="-5057.28" x2="7498.86" y2="-5057.28" xlink:href="#linear-gradient-23"/></defs><title>电力电感器2</title><g class="cls-1"><g id="图层_2" data-name="图层 2"><g id="图层_1-2" data-name="图层 1"><path class="cls-2" d="M7.22,45.78V148.63a4.63,4.63,0,0,0,9.26,0V45.78Z"/><path class="cls-3" d="M8.53,45.78l5.6,106.86a4.6,4.6,0,0,0,2.35-4V45.78Z"/><polygon class="cls-3" points="11.33 45.78 16.48 148.63 16.48 45.78 11.33 45.78"/><path class="cls-4" d="M8.54,147.8l-1.29-102h0V148.63a4.63,4.63,0,0,0,4.63,4.63,4.57,4.57,0,0,0,1.49-.26l-2.47-1.36A4.51,4.51,0,0,1,8.54,147.8Z"/><path class="cls-5" d="M222.2,61.41H5.41L0,59.58V12.37l5.41-1.83H222.2l5.41,1.83V59.58Z"/><polygon class="cls-6" points="0 59.58 5.41 12.37 218.53 10.54 5.41 10.54 0 12.37 0 59.58"/><path class="cls-7" d="M5.41,61.41H222.2l5.41-1.83V12.37l-5.41-1.83h-3.67l-10.78,38.3L0,59.58Z"/><path class="cls-7" d="M5.41,61.41H222.2l5.41-1.83V12.37l-9,44.46Z"/><rect class="cls-8" y="24.31" width="227.61" height="32.52"/><rect class="cls-9" y="12.37" width="227.61" height="8.66"/><rect class="cls-10" x="38.63" y="10.54" width="1.96" height="50.87"/><rect class="cls-10" x="57.01" y="10.54" width="1.96" height="50.87"/><rect class="cls-10" x="75.4" y="10.54" width="1.96" height="50.87"/><rect class="cls-10" x="93.78" y="10.54" width="1.96" height="50.87"/><rect class="cls-10" x="112.17" y="10.54" width="1.96" height="50.87"/><rect class="cls-10" x="130.55" y="10.54" width="1.96" height="50.87"/><rect class="cls-10" x="148.94" y="10.54" width="1.96" height="50.87"/><rect class="cls-10" x="167.32" y="10.54" width="1.96" height="50.87"/><rect class="cls-10" x="185.71" y="10.54" width="1.96" height="50.87"/><rect class="cls-10" x="204.09" y="10.54" width="1.96" height="50.87"/><path class="cls-11" d="M38.15,67.31V4.63a4.64,4.64,0,0,0-9.27,0V67.31a4.64,4.64,0,1,0,9.27,0Z"/><path class="cls-12" d="M30.05,1.58l5.74,69.74a4.6,4.6,0,0,0,2.36-4V4.63a4.62,4.62,0,0,0-8.1-3Z"/><path class="cls-12" d="M33.51,0a4.78,4.78,0,0,0-.65.07l5.29,67.24V4.63A4.63,4.63,0,0,0,33.51,0Z"/><path class="cls-13" d="M28.88,4.63V67.31A4.63,4.63,0,0,0,33.51,72,4.58,4.58,0,0,0,35,71.68l-2.47-1.36a4.46,4.46,0,0,1-2.32-3.84Z"/><path class="cls-11" d="M48.85,67.31V4.63a4.64,4.64,0,0,0-9.27,0V67.31a4.64,4.64,0,1,0,9.27,0Z"/><path class="cls-12" d="M40.76,1.58,46.5,71.32a4.59,4.59,0,0,0,2.35-4V4.63a4.61,4.61,0,0,0-8.09-3Z"/><path class="cls-12" d="M44.22,0a4.46,4.46,0,0,0-.65.07l5.28,67.24V4.63A4.63,4.63,0,0,0,44.22,0Z"/><path class="cls-13" d="M39.58,4.63V67.31a4.58,4.58,0,0,0,6.13,4.37l-2.48-1.36a4.5,4.5,0,0,1-2.32-3.84Z"/><path class="cls-11" d="M59.56,67.31V4.63a4.64,4.64,0,0,0-9.27,0V67.31a4.64,4.64,0,1,0,9.27,0Z"/><path class="cls-12" d="M51.46,1.58,57.2,71.32a4.6,4.6,0,0,0,2.36-4V4.63a4.62,4.62,0,0,0-8.1-3Z"/><path class="cls-12" d="M54.92,0a4.78,4.78,0,0,0-.65.07l5.29,67.24V4.63A4.63,4.63,0,0,0,54.92,0Z"/><path class="cls-13" d="M50.29,4.63V67.31A4.63,4.63,0,0,0,54.92,72a4.69,4.69,0,0,0,1.5-.27l-2.48-1.36a4.48,4.48,0,0,1-2.32-3.84Z"/><path class="cls-11" d="M70.26,67.31V4.63a4.64,4.64,0,0,0-9.27,0V67.31a4.64,4.64,0,1,0,9.27,0Z"/><path class="cls-12" d="M62.17,1.58l5.74,69.74a4.59,4.59,0,0,0,2.35-4V4.63a4.61,4.61,0,0,0-8.09-3Z"/><path class="cls-12" d="M65.63,0A4.62,4.62,0,0,0,65,.07l5.28,67.24V4.63A4.63,4.63,0,0,0,65.63,0Z"/><path class="cls-13" d="M61,4.63V67.31a4.58,4.58,0,0,0,6.13,4.37l-2.48-1.36a4.5,4.5,0,0,1-2.32-3.84Z"/><path class="cls-11" d="M81,67.31V4.63a4.64,4.64,0,0,0-9.27,0V67.31a4.64,4.64,0,1,0,9.27,0Z"/><path class="cls-12" d="M72.88,1.58l5.73,69.74a4.6,4.6,0,0,0,2.36-4V4.63A4.63,4.63,0,0,0,76.33,0,4.58,4.58,0,0,0,72.88,1.58Z"/><path class="cls-12" d="M76.33,0a4.78,4.78,0,0,0-.65.07L81,67.31V4.63A4.63,4.63,0,0,0,76.33,0Z"/><path class="cls-13" d="M71.7,4.63V67.31a4.58,4.58,0,0,0,6.13,4.37l-2.48-1.36A4.48,4.48,0,0,1,73,66.48Z"/><path class="cls-11" d="M91.67,67.31V4.63a4.63,4.63,0,1,0-9.26,0V67.31a4.63,4.63,0,1,0,9.26,0Z"/><path class="cls-12" d="M83.58,1.58l5.74,69.74a4.59,4.59,0,0,0,2.35-4V4.63a4.61,4.61,0,0,0-8.09-3Z"/><path class="cls-12" d="M87,0a4.62,4.62,0,0,0-.65.07l5.28,67.24V4.63A4.63,4.63,0,0,0,87,0Z"/><path class="cls-13" d="M82.41,4.63V67.31A4.63,4.63,0,0,0,87,72a4.58,4.58,0,0,0,1.49-.27l-2.47-1.36a4.49,4.49,0,0,1-2.33-3.84Z"/><path class="cls-11" d="M102.38,67.31V4.63a4.64,4.64,0,0,0-9.27,0V67.31a4.64,4.64,0,1,0,9.27,0Z"/><path class="cls-12" d="M94.29,1.58,100,71.32a4.59,4.59,0,0,0,2.35-4V4.63a4.61,4.61,0,0,0-8.09-3Z"/><path class="cls-12" d="M97.75,0a4.46,4.46,0,0,0-.65.07l5.28,67.24V4.63A4.63,4.63,0,0,0,97.75,0Z"/><path class="cls-13" d="M93.11,4.63V67.31a4.58,4.58,0,0,0,6.13,4.37l-2.48-1.36a4.48,4.48,0,0,1-2.32-3.84Z"/><path class="cls-11" d="M113.09,67.31V4.63a4.64,4.64,0,0,0-9.27,0V67.31a4.64,4.64,0,1,0,9.27,0Z"/><path class="cls-12" d="M105,1.58l5.74,69.74a4.6,4.6,0,0,0,2.36-4V4.63a4.62,4.62,0,0,0-8.1-3Z"/><path class="cls-12" d="M108.45,0a4.78,4.78,0,0,0-.65.07l5.29,67.24V4.63A4.63,4.63,0,0,0,108.45,0Z"/><path class="cls-13" d="M103.82,4.63V67.31A4.63,4.63,0,0,0,108.45,72a4.58,4.58,0,0,0,1.49-.27l-2.47-1.36a4.48,4.48,0,0,1-2.32-3.84Z"/><path class="cls-11" d="M123.79,67.31V4.63a4.64,4.64,0,0,0-9.27,0V67.31a4.64,4.64,0,1,0,9.27,0Z"/><path class="cls-12" d="M115.7,1.58l5.74,69.74a4.59,4.59,0,0,0,2.35-4V4.63a4.61,4.61,0,0,0-8.09-3Z"/><path class="cls-12" d="M119.16,0a4.46,4.46,0,0,0-.65.07l5.28,67.24V4.63A4.63,4.63,0,0,0,119.16,0Z"/><path class="cls-13" d="M114.52,4.63V67.31a4.58,4.58,0,0,0,6.13,4.37l-2.48-1.36a4.5,4.5,0,0,1-2.32-3.84Z"/><path class="cls-11" d="M134.5,67.31V4.63a4.64,4.64,0,0,0-9.27,0V67.31a4.64,4.64,0,1,0,9.27,0Z"/><path class="cls-12" d="M126.4,1.58l5.74,69.74a4.6,4.6,0,0,0,2.36-4V4.63a4.62,4.62,0,0,0-8.1-3Z"/><path class="cls-12" d="M129.86,0a4.78,4.78,0,0,0-.65.07l5.29,67.24V4.63A4.63,4.63,0,0,0,129.86,0Z"/><path class="cls-13" d="M125.23,4.63V67.31A4.63,4.63,0,0,0,129.86,72a4.69,4.69,0,0,0,1.5-.27l-2.48-1.36a4.48,4.48,0,0,1-2.32-3.84Z"/><path class="cls-11" d="M145.2,67.31V4.63a4.64,4.64,0,0,0-9.27,0V67.31a4.64,4.64,0,1,0,9.27,0Z"/><path class="cls-12" d="M137.11,1.58l5.74,69.74a4.59,4.59,0,0,0,2.35-4V4.63a4.61,4.61,0,0,0-8.09-3Z"/><path class="cls-12" d="M140.57,0a4.62,4.62,0,0,0-.65.07l5.28,67.24V4.63A4.63,4.63,0,0,0,140.57,0Z"/><path class="cls-13" d="M135.93,4.63V67.31a4.58,4.58,0,0,0,6.13,4.37l-2.47-1.36a4.49,4.49,0,0,1-2.33-3.84Z"/><path class="cls-11" d="M155.91,67.31V4.63a4.64,4.64,0,0,0-9.27,0V67.31a4.64,4.64,0,1,0,9.27,0Z"/><path class="cls-12" d="M147.82,1.58l5.73,69.74a4.6,4.6,0,0,0,2.36-4V4.63A4.63,4.63,0,0,0,151.27,0,4.58,4.58,0,0,0,147.82,1.58Z"/><path class="cls-12" d="M151.27,0a4.78,4.78,0,0,0-.65.07l5.29,67.24V4.63A4.63,4.63,0,0,0,151.27,0Z"/><path class="cls-13" d="M146.64,4.63V67.31a4.58,4.58,0,0,0,6.13,4.37l-2.48-1.36A4.48,4.48,0,0,1,148,66.48Z"/><path class="cls-11" d="M166.61,67.31V4.63a4.63,4.63,0,0,0-9.26,0V67.31a4.63,4.63,0,1,0,9.26,0Z"/><path class="cls-12" d="M158.52,1.58l5.74,69.74a4.59,4.59,0,0,0,2.35-4V4.63a4.61,4.61,0,0,0-8.09-3Z"/><path class="cls-12" d="M162,0a4.62,4.62,0,0,0-.65.07l5.28,67.24V4.63A4.63,4.63,0,0,0,162,0Z"/><path class="cls-13" d="M157.35,4.63V67.31A4.63,4.63,0,0,0,162,72a4.58,4.58,0,0,0,1.49-.27L161,70.32a4.49,4.49,0,0,1-2.33-3.84Z"/><path class="cls-11" d="M177.32,67.31V4.63a4.64,4.64,0,0,0-9.27,0V67.31a4.64,4.64,0,1,0,9.27,0Z"/><path class="cls-12" d="M169.23,1.58,175,71.32a4.59,4.59,0,0,0,2.35-4V4.63a4.61,4.61,0,0,0-8.09-3Z"/><path class="cls-12" d="M172.69,0a4.46,4.46,0,0,0-.65.07l5.28,67.24V4.63A4.63,4.63,0,0,0,172.69,0Z"/><path class="cls-13" d="M168.05,4.63V67.31a4.58,4.58,0,0,0,6.13,4.37l-2.48-1.36a4.48,4.48,0,0,1-2.32-3.84Z"/><path class="cls-11" d="M188,67.31V4.63a4.64,4.64,0,0,0-9.27,0V67.31a4.64,4.64,0,1,0,9.27,0Z"/><path class="cls-12" d="M179.93,1.58l5.74,69.74a4.6,4.6,0,0,0,2.36-4V4.63a4.62,4.62,0,0,0-8.1-3Z"/><path class="cls-12" d="M183.39,0a4.78,4.78,0,0,0-.65.07L188,67.31V4.63A4.63,4.63,0,0,0,183.39,0Z"/><path class="cls-13" d="M178.76,4.63V67.31A4.63,4.63,0,0,0,183.39,72a4.58,4.58,0,0,0,1.49-.27l-2.47-1.36a4.48,4.48,0,0,1-2.32-3.84Z"/><path class="cls-11" d="M198.73,67.31V4.63a4.64,4.64,0,0,0-9.27,0V67.31a4.64,4.64,0,1,0,9.27,0Z"/><path class="cls-12" d="M190.64,1.58l5.74,69.74a4.59,4.59,0,0,0,2.35-4V4.63a4.61,4.61,0,0,0-8.09-3Z"/><path class="cls-12" d="M194.1,0a4.62,4.62,0,0,0-.65.07l5.28,67.24V4.63A4.63,4.63,0,0,0,194.1,0Z"/><path class="cls-13" d="M189.46,4.63V67.31a4.58,4.58,0,0,0,6.13,4.37l-2.48-1.36a4.5,4.5,0,0,1-2.32-3.84Z"/><path class="cls-11" d="M209.44,67.31V4.63a4.64,4.64,0,0,0-9.27,0V67.31a4.64,4.64,0,1,0,9.27,0Z"/><path class="cls-12" d="M201.34,1.58l5.74,69.74a4.6,4.6,0,0,0,2.36-4V4.63a4.62,4.62,0,0,0-8.1-3Z"/><path class="cls-12" d="M204.8,0a4.78,4.78,0,0,0-.65.07l5.29,67.24V4.63A4.63,4.63,0,0,0,204.8,0Z"/><path class="cls-13" d="M200.17,4.63V67.31a4.58,4.58,0,0,0,6.13,4.37l-2.48-1.36a4.48,4.48,0,0,1-2.32-3.84Z"/><path class="cls-11" d="M220.14,148.63V4.63a4.63,4.63,0,1,0-9.26,0v144a4.63,4.63,0,0,0,9.26,0Z"/><path class="cls-12" d="M212.05,1.58l5.74,151.06a4.6,4.6,0,0,0,2.35-4V4.63a4.61,4.61,0,0,0-8.09-3Z"/><path class="cls-12" d="M215.51,0a4.62,4.62,0,0,0-.65.07l5.28,148.56V4.63A4.63,4.63,0,0,0,215.51,0Z"/><path class="cls-13" d="M210.88,4.63v144A4.6,4.6,0,0,0,217,153l-2.47-1.36a4.51,4.51,0,0,1-2.33-3.84Z"/><path class="cls-11" d="M27.44,67.31V4.63a4.64,4.64,0,0,0-9.27,0V67.31a4.64,4.64,0,1,0,9.27,0Z"/><path class="cls-12" d="M19.35,1.58l5.74,69.74a4.59,4.59,0,0,0,2.35-4V4.63a4.61,4.61,0,0,0-8.09-3Z"/><path class="cls-12" d="M22.81,0a4.46,4.46,0,0,0-.65.07l5.28,67.24V4.63A4.63,4.63,0,0,0,22.81,0Z"/><path class="cls-13" d="M18.17,4.63V67.31a4.58,4.58,0,0,0,6.13,4.37l-2.48-1.36a4.48,4.48,0,0,1-2.32-3.84Z"/><rect class="cls-14" x="7.47" y="5.85" width="9.27" height="37.29"/><rect class="cls-15" x="18.18" y="5.85" width="9.27" height="37.29"/><rect class="cls-16" x="28.9" y="5.85" width="9.27" height="37.29"/><rect class="cls-17" x="39.61" y="5.85" width="9.27" height="37.29"/><rect class="cls-18" x="50.33" y="5.85" width="9.27" height="37.29"/><rect class="cls-19" x="61.04" y="5.85" width="9.27" height="37.29"/><rect class="cls-20" x="71.76" y="5.85" width="9.27" height="37.29"/><rect class="cls-21" x="82.47" y="5.85" width="9.27" height="37.29"/><rect class="cls-22" x="93.19" y="5.85" width="9.27" height="37.29"/><rect class="cls-23" x="103.9" y="5.85" width="9.27" height="37.29"/><rect class="cls-24" x="114.48" y="5.85" width="9.27" height="37.29"/><rect class="cls-25" x="125.22" y="5.85" width="9.27" height="37.29"/><rect class="cls-26" x="135.88" y="5.85" width="9.27" height="37.29"/><rect class="cls-27" x="146.62" y="5.85" width="9.27" height="37.29"/><rect class="cls-28" x="157.3" y="6.04" width="9.27" height="37.29"/><rect class="cls-29" x="168.03" y="5.85" width="9.27" height="37.29"/><rect class="cls-30" x="178.71" y="5.85" width="9.27" height="37.29"/><rect class="cls-31" x="189.43" y="5.85" width="9.27" height="37.29"/><rect class="cls-32" x="200.17" y="5.85" width="9.27" height="37.29"/><rect class="cls-33" x="210.85" y="6.07" width="9.27" height="37.29"/><g class="cls-34"><rect class="cls-35" x="18.17" y="56.01" width="9.27" height="11.3"/><rect class="cls-36" x="28.76" y="56.01" width="9.27" height="11.3"/><rect class="cls-37" x="39.52" y="56.3" width="9.27" height="11.3"/><rect class="cls-38" x="50.28" y="56.01" width="9.27" height="11.3"/><rect class="cls-39" x="60.87" y="56.01" width="9.27" height="11.3"/><rect class="cls-40" x="71.74" y="56.01" width="9.27" height="11.3"/><rect class="cls-41" x="82.38" y="56.01" width="9.27" height="11.3"/><rect class="cls-42" x="93.14" y="56.01" width="9.27" height="11.3"/><rect class="cls-43" x="103.84" y="55.9" width="9.27" height="11.3"/><rect class="cls-44" x="114.48" y="56.01" width="9.27" height="11.3"/><rect class="cls-45" x="125.24" y="56.01" width="9.27" height="11.3"/><rect class="cls-46" x="135.83" y="56.01" width="9.27" height="11.3"/><rect class="cls-47" x="146.65" y="56.01" width="9.27" height="11.3"/><rect class="cls-48" x="157.29" y="56.01" width="9.27" height="11.3"/><rect class="cls-49" x="167.99" y="56.01" width="9.27" height="11.3"/><rect class="cls-50" x="178.75" y="56.01" width="9.27" height="11.3"/><rect class="cls-51" x="189.42" y="56.01" width="9.27" height="11.3"/><rect class="cls-52" x="200.15" y="56.01" width="9.27" height="11.3"/><rect class="cls-53" x="210.86" y="55.95" width="9.27" height="11.3"/></g><path class="cls-2" d="M210.88,45.78V148.63a4.63,4.63,0,0,0,9.26,0V45.78Z"/><path class="cls-3" d="M212.19,45.78l5.6,106.86a4.6,4.6,0,0,0,2.35-4V45.78Z"/><polygon class="cls-3" points="214.99 45.78 220.14 148.63 220.14 45.78 214.99 45.78"/><path class="cls-4" d="M212.2,147.8l-1.29-102h0V148.63A4.6,4.6,0,0,0,217,153l-2.47-1.36A4.51,4.51,0,0,1,212.2,147.8Z"/><path class="cls-11" d="M16.48,61.93V4.63a4.63,4.63,0,0,0-9.26,0v57.3Z"/><polygon class="cls-13" points="8.45 61.93 7.22 4.63 7.22 61.93 8.45 61.93"/><path class="cls-12" d="M16.48,61.93V4.63a4.61,4.61,0,0,0-8.09-3l5,60.35Z"/><path class="cls-12" d="M16.48,61.93V4.63A4.63,4.63,0,0,0,11.85,0a4.62,4.62,0,0,0-.65.07l4.86,61.86Z"/></g></g></g></svg>