<svg xmlns="http://www.w3.org/2000/svg" xmlns:xlink="http://www.w3.org/1999/xlink" viewBox="0 0 94.11 244.97"><defs><style>.cls-1{isolation:isolate;}.cls-2{fill:#dcdce1;}.cls-3{fill:#b9b9c1;}.cls-4{fill:url(#linear-gradient);}.cls-5{fill:url(#未命名的渐变_274);}.cls-6{fill:url(#未命名的渐变_263);}.cls-7{fill:#d1d1e0;}.cls-8{fill:#808084;}.cls-9{fill:url(#linear-gradient-2);}.cls-10,.cls-103,.cls-112,.cls-121,.cls-130,.cls-139,.cls-148,.cls-157,.cls-166,.cls-178,.cls-182,.cls-184,.cls-19,.cls-28,.cls-37,.cls-46,.cls-55,.cls-64,.cls-73,.cls-82,.cls-91{opacity:0.5;}.cls-10,.cls-103,.cls-110,.cls-112,.cls-119,.cls-121,.cls-128,.cls-130,.cls-137,.cls-139,.cls-146,.cls-148,.cls-155,.cls-157,.cls-164,.cls-166,.cls-17,.cls-173,.cls-19,.cls-26,.cls-28,.cls-35,.cls-37,.cls-44,.cls-46,.cls-53,.cls-55,.cls-62,.cls-64,.cls-71,.cls-73,.cls-80,.cls-82,.cls-89,.cls-91,.cls-98{mix-blend-mode:color-dodge;}.cls-10{fill:url(#linear-gradient-3);}.cls-11{fill:url(#未命名的渐变_277);}.cls-12{fill:url(#未命名的渐变_281);}.cls-13{fill:url(#linear-gradient-4);}.cls-14{fill:url(#linear-gradient-5);}.cls-15{fill:url(#linear-gradient-6);}.cls-16{fill:url(#未命名的渐变_285);}.cls-17{fill:url(#linear-gradient-7);}.cls-18{fill:url(#linear-gradient-8);}.cls-19{fill:url(#linear-gradient-9);}.cls-20{fill:url(#未命名的渐变_277-2);}.cls-21{fill:url(#未命名的渐变_281-2);}.cls-22{fill:url(#linear-gradient-10);}.cls-23{fill:url(#linear-gradient-11);}.cls-24{fill:url(#linear-gradient-12);}.cls-25{fill:url(#未命名的渐变_285-2);}.cls-26{fill:url(#linear-gradient-13);}.cls-27{fill:url(#linear-gradient-14);}.cls-28{fill:url(#linear-gradient-15);}.cls-29{fill:url(#未命名的渐变_277-3);}.cls-30{fill:url(#未命名的渐变_281-3);}.cls-31{fill:url(#linear-gradient-16);}.cls-32{fill:url(#linear-gradient-17);}.cls-33{fill:url(#linear-gradient-18);}.cls-34{fill:url(#未命名的渐变_285-3);}.cls-35{fill:url(#linear-gradient-19);}.cls-36{fill:url(#linear-gradient-20);}.cls-37{fill:url(#linear-gradient-21);}.cls-38{fill:url(#未命名的渐变_277-4);}.cls-39{fill:url(#未命名的渐变_281-4);}.cls-40{fill:url(#linear-gradient-22);}.cls-41{fill:url(#linear-gradient-23);}.cls-42{fill:url(#linear-gradient-24);}.cls-43{fill:url(#未命名的渐变_285-4);}.cls-44{fill:url(#linear-gradient-25);}.cls-45{fill:url(#linear-gradient-26);}.cls-46{fill:url(#linear-gradient-27);}.cls-47{fill:url(#未命名的渐变_277-5);}.cls-48{fill:url(#未命名的渐变_281-5);}.cls-49{fill:url(#linear-gradient-28);}.cls-50{fill:url(#linear-gradient-29);}.cls-51{fill:url(#linear-gradient-30);}.cls-52{fill:url(#未命名的渐变_285-5);}.cls-53{fill:url(#linear-gradient-31);}.cls-54{fill:url(#linear-gradient-32);}.cls-55{fill:url(#linear-gradient-33);}.cls-56{fill:url(#未命名的渐变_277-6);}.cls-57{fill:url(#未命名的渐变_281-6);}.cls-58{fill:url(#linear-gradient-34);}.cls-59{fill:url(#linear-gradient-35);}.cls-60{fill:url(#linear-gradient-36);}.cls-61{fill:url(#未命名的渐变_285-6);}.cls-62{fill:url(#linear-gradient-37);}.cls-63{fill:url(#linear-gradient-38);}.cls-64{fill:url(#linear-gradient-39);}.cls-65{fill:url(#未命名的渐变_277-7);}.cls-66{fill:url(#未命名的渐变_281-7);}.cls-67{fill:url(#linear-gradient-40);}.cls-68{fill:url(#linear-gradient-41);}.cls-69{fill:url(#linear-gradient-42);}.cls-70{fill:url(#未命名的渐变_285-7);}.cls-71{fill:url(#linear-gradient-43);}.cls-72{fill:url(#linear-gradient-44);}.cls-73{fill:url(#linear-gradient-45);}.cls-74{fill:url(#未命名的渐变_277-8);}.cls-75{fill:url(#未命名的渐变_281-8);}.cls-76{fill:url(#linear-gradient-46);}.cls-77{fill:url(#linear-gradient-47);}.cls-78{fill:url(#linear-gradient-48);}.cls-79{fill:url(#未命名的渐变_285-8);}.cls-80{fill:url(#linear-gradient-49);}.cls-81{fill:url(#linear-gradient-50);}.cls-82{fill:url(#linear-gradient-51);}.cls-83{fill:url(#未命名的渐变_277-9);}.cls-84{fill:url(#未命名的渐变_281-9);}.cls-85{fill:url(#linear-gradient-52);}.cls-86{fill:url(#linear-gradient-53);}.cls-87{fill:url(#linear-gradient-54);}.cls-88{fill:url(#未命名的渐变_285-9);}.cls-89{fill:url(#linear-gradient-55);}.cls-90{fill:url(#linear-gradient-56);}.cls-91{fill:url(#linear-gradient-57);}.cls-92{fill:url(#未命名的渐变_277-10);}.cls-93{fill:url(#未命名的渐变_281-10);}.cls-94{fill:url(#linear-gradient-58);}.cls-95{fill:url(#linear-gradient-59);}.cls-96{fill:url(#linear-gradient-60);}.cls-97{fill:url(#未命名的渐变_285-10);}.cls-98{fill:url(#linear-gradient-61);}.cls-99{fill:url(#未命名的渐变_274-2);}.cls-100{fill:#b5b5bf;}.cls-101{fill:url(#未命名的渐变_263-2);}.cls-102{fill:url(#linear-gradient-62);}.cls-103{fill:url(#linear-gradient-63);}.cls-104{fill:url(#未命名的渐变_277-11);}.cls-105{fill:url(#未命名的渐变_281-11);}.cls-106{fill:url(#linear-gradient-64);}.cls-107{fill:url(#linear-gradient-65);}.cls-108{fill:url(#linear-gradient-66);}.cls-109{fill:url(#未命名的渐变_285-11);}.cls-110{fill:url(#linear-gradient-67);}.cls-111{fill:url(#linear-gradient-68);}.cls-112{fill:url(#linear-gradient-69);}.cls-113{fill:url(#未命名的渐变_277-12);}.cls-114{fill:url(#未命名的渐变_281-12);}.cls-115{fill:url(#linear-gradient-70);}.cls-116{fill:url(#linear-gradient-71);}.cls-117{fill:url(#linear-gradient-72);}.cls-118{fill:url(#未命名的渐变_285-12);}.cls-119{fill:url(#linear-gradient-73);}.cls-120{fill:url(#linear-gradient-74);}.cls-121{fill:url(#linear-gradient-75);}.cls-122{fill:url(#未命名的渐变_277-13);}.cls-123{fill:url(#未命名的渐变_281-13);}.cls-124{fill:url(#linear-gradient-76);}.cls-125{fill:url(#linear-gradient-77);}.cls-126{fill:url(#linear-gradient-78);}.cls-127{fill:url(#未命名的渐变_285-13);}.cls-128{fill:url(#linear-gradient-79);}.cls-129{fill:url(#linear-gradient-80);}.cls-130{fill:url(#linear-gradient-81);}.cls-131{fill:url(#未命名的渐变_277-14);}.cls-132{fill:url(#未命名的渐变_281-14);}.cls-133{fill:url(#linear-gradient-82);}.cls-134{fill:url(#linear-gradient-83);}.cls-135{fill:url(#linear-gradient-84);}.cls-136{fill:url(#未命名的渐变_285-14);}.cls-137{fill:url(#linear-gradient-85);}.cls-138{fill:url(#linear-gradient-86);}.cls-139{fill:url(#linear-gradient-87);}.cls-140{fill:url(#未命名的渐变_277-15);}.cls-141{fill:url(#未命名的渐变_281-15);}.cls-142{fill:url(#linear-gradient-88);}.cls-143{fill:url(#linear-gradient-89);}.cls-144{fill:url(#linear-gradient-90);}.cls-145{fill:url(#未命名的渐变_285-15);}.cls-146{fill:url(#linear-gradient-91);}.cls-147{fill:url(#linear-gradient-92);}.cls-148{fill:url(#linear-gradient-93);}.cls-149{fill:url(#未命名的渐变_277-16);}.cls-150{fill:url(#未命名的渐变_281-16);}.cls-151{fill:url(#linear-gradient-94);}.cls-152{fill:url(#linear-gradient-95);}.cls-153{fill:url(#linear-gradient-96);}.cls-154{fill:url(#未命名的渐变_285-16);}.cls-155{fill:url(#linear-gradient-97);}.cls-156{fill:url(#linear-gradient-98);}.cls-157{fill:url(#linear-gradient-99);}.cls-158{fill:url(#未命名的渐变_277-17);}.cls-159{fill:url(#未命名的渐变_281-17);}.cls-160{fill:url(#linear-gradient-100);}.cls-161{fill:url(#linear-gradient-101);}.cls-162{fill:url(#linear-gradient-102);}.cls-163{fill:url(#未命名的渐变_285-17);}.cls-164{fill:url(#linear-gradient-103);}.cls-165{fill:url(#linear-gradient-104);}.cls-166{fill:url(#linear-gradient-105);}.cls-167{fill:url(#未命名的渐变_277-18);}.cls-168{fill:url(#未命名的渐变_281-18);}.cls-169{fill:url(#linear-gradient-106);}.cls-170{fill:url(#linear-gradient-107);}.cls-171{fill:url(#linear-gradient-108);}.cls-172{fill:url(#未命名的渐变_285-18);}.cls-173{fill:url(#linear-gradient-109);}.cls-174{fill:url(#未命名的渐变_274-3);}.cls-175{fill:url(#未命名的渐变_274-4);}.cls-176{fill:url(#未命名的渐变_263-3);}.cls-177,.cls-178,.cls-179,.cls-180{fill:#432e29;}.cls-178,.cls-179,.cls-182,.cls-183,.cls-184{mix-blend-mode:multiply;}.cls-179,.cls-183{opacity:0.9;}.cls-180,.cls-185{opacity:0.3;mix-blend-mode:screen;}.cls-181,.cls-182,.cls-183{fill:#adaea9;}.cls-186{fill:url(#未命名的渐变_274-5);}.cls-187{fill:url(#未命名的渐变_274-6);}.cls-188{fill:#bfbfbf;}.cls-189{fill:#fff;}.cls-190{fill:#a2a2a2;}.cls-191{fill:#a13335;stroke:#423b3b;stroke-miterlimit:10;stroke-width:0.25px;}.cls-192{fill:url(#linear-gradient-110);}.cls-193{fill:url(#linear-gradient-111);}</style><linearGradient id="linear-gradient" x1="2.09" y1="198.65" x2="92.02" y2="198.65" gradientUnits="userSpaceOnUse"><stop offset="0" stop-color="#b5b5bf"/><stop offset="0.01" stop-color="#afafb9"/><stop offset="0.04" stop-color="#91919d"/><stop offset="0.08" stop-color="#7b7b89"/><stop offset="0.11" stop-color="#6e6e7d"/><stop offset="0.15" stop-color="#6a6a79"/><stop offset="0.3" stop-color="#9b9ba5"/><stop offset="0.41" stop-color="#868694"/><stop offset="0.67" stop-color="#e4e4e9"/><stop offset="1" stop-color="#898995"/></linearGradient><linearGradient id="未命名的渐变_274" y1="151.51" x2="94.11" y2="151.51" gradientUnits="userSpaceOnUse"><stop offset="0.1" stop-color="#b5b5bf"/><stop offset="0.52" stop-color="#e1e1e6"/><stop offset="0.93" stop-color="#b9b9c1"/></linearGradient><linearGradient id="未命名的渐变_263" y1="148.3" x2="94.11" y2="148.3" gradientUnits="userSpaceOnUse"><stop offset="0" stop-color="#6a6a79"/><stop offset="0.38" stop-color="#9b9ba5"/><stop offset="0.49" stop-color="#9b9ba5"/><stop offset="0.57" stop-color="#9b9ba5"/><stop offset="0.99" stop-color="#6a6a79"/></linearGradient><linearGradient id="linear-gradient-2" x1="55.31" y1="157.29" x2="52.27" y2="160.77" gradientUnits="userSpaceOnUse"><stop offset="0" stop-color="#fafaff"/><stop offset="0.02" stop-color="#f4f4f9"/><stop offset="0.3" stop-color="#adadb4"/><stop offset="0.53" stop-color="#787882"/><stop offset="0.71" stop-color="#585863"/><stop offset="0.8" stop-color="#4c4c57"/></linearGradient><linearGradient id="linear-gradient-3" x1="54.43" y1="157.58" x2="54.35" y2="159.64" gradientUnits="userSpaceOnUse"><stop offset="0" stop-color="#a9a9b1"/><stop offset="0.07" stop-color="#828288"/><stop offset="0.16" stop-color="#5f5f64"/><stop offset="0.24" stop-color="#424245"/><stop offset="0.34" stop-color="#2a2a2c"/><stop offset="0.45" stop-color="#171718"/><stop offset="0.57" stop-color="#0a0a0a"/><stop offset="0.72" stop-color="#020202"/><stop offset="1"/></linearGradient><linearGradient id="未命名的渐变_277" x1="51.61" y1="158.87" x2="54.75" y2="158.62" gradientUnits="userSpaceOnUse"><stop offset="0" stop-color="#e4e4e9"/><stop offset="0.77" stop-color="#afafb6"/><stop offset="0.94" stop-color="#a4a4ac"/><stop offset="1" stop-color="#9f9fa8"/></linearGradient><linearGradient id="未命名的渐变_281" x1="56.14" y1="157.72" x2="53.49" y2="161.95" gradientUnits="userSpaceOnUse"><stop offset="0" stop-color="#fafaff"/><stop offset="0.29" stop-color="#d9d9df"/><stop offset="0.62" stop-color="#b9b9c1"/><stop offset="0.8" stop-color="#adadb5"/></linearGradient><linearGradient id="linear-gradient-4" x1="53.43" y1="160.19" x2="58.02" y2="153.32" xlink:href="#linear-gradient-2"/><linearGradient id="linear-gradient-5" x1="55.25" y1="157.89" x2="54.93" y2="160.19" xlink:href="#linear-gradient-2"/><linearGradient id="linear-gradient-6" x1="53.97" y1="157.86" x2="53.01" y2="160.74" xlink:href="#linear-gradient-2"/><linearGradient id="未命名的渐变_285" x1="52.72" y1="159.86" x2="56.07" y2="159.86" gradientUnits="userSpaceOnUse"><stop offset="0" stop-color="#b5b5bf"/><stop offset="0.1" stop-color="#bdbdc6"/><stop offset="0.41" stop-color="#d3d3d9"/><stop offset="0.72" stop-color="#e0e0e5"/><stop offset="1" stop-color="#e4e4e9"/></linearGradient><linearGradient id="linear-gradient-7" x1="54.39" y1="159.33" x2="54.39" y2="159.6" xlink:href="#linear-gradient-3"/><linearGradient id="linear-gradient-8" x1="65.65" y1="156.84" x2="62.61" y2="160.32" xlink:href="#linear-gradient-2"/><linearGradient id="linear-gradient-9" x1="64.77" y1="157.13" x2="64.69" y2="159.2" xlink:href="#linear-gradient-3"/><linearGradient id="未命名的渐变_277-2" x1="61.95" y1="158.42" x2="65.09" y2="158.18" xlink:href="#未命名的渐变_277"/><linearGradient id="未命名的渐变_281-2" x1="66.48" y1="157.28" x2="63.83" y2="161.5" xlink:href="#未命名的渐变_281"/><linearGradient id="linear-gradient-10" x1="63.77" y1="159.75" x2="68.36" y2="152.88" xlink:href="#linear-gradient-2"/><linearGradient id="linear-gradient-11" x1="65.59" y1="157.45" x2="65.27" y2="159.74" xlink:href="#linear-gradient-2"/><linearGradient id="linear-gradient-12" x1="64.31" y1="157.41" x2="63.35" y2="160.29" xlink:href="#linear-gradient-2"/><linearGradient id="未命名的渐变_285-2" x1="63.06" y1="159.41" x2="66.41" y2="159.41" xlink:href="#未命名的渐变_285"/><linearGradient id="linear-gradient-13" x1="64.73" y1="158.89" x2="64.73" y2="159.15" xlink:href="#linear-gradient-3"/><linearGradient id="linear-gradient-14" x1="86.41" y1="149.66" x2="83.36" y2="153.14" xlink:href="#linear-gradient-2"/><linearGradient id="linear-gradient-15" x1="85.53" y1="149.95" x2="85.45" y2="152.01" xlink:href="#linear-gradient-3"/><linearGradient id="未命名的渐变_277-3" x1="82.71" y1="151.24" x2="85.84" y2="150.99" xlink:href="#未命名的渐变_277"/><linearGradient id="未命名的渐变_281-3" x1="87.24" y1="150.09" x2="84.59" y2="154.32" xlink:href="#未命名的渐变_281"/><linearGradient id="linear-gradient-16" x1="84.53" y1="152.56" x2="89.12" y2="145.69" xlink:href="#linear-gradient-2"/><linearGradient id="linear-gradient-17" x1="86.35" y1="150.26" x2="86.03" y2="152.56" xlink:href="#linear-gradient-2"/><linearGradient id="linear-gradient-18" x1="85.07" y1="150.23" x2="84.11" y2="153.11" xlink:href="#linear-gradient-2"/><linearGradient id="未命名的渐变_285-3" x1="83.81" y1="152.23" x2="87.17" y2="152.23" xlink:href="#未命名的渐变_285"/><linearGradient id="linear-gradient-19" x1="85.49" y1="151.7" x2="85.49" y2="151.97" xlink:href="#linear-gradient-3"/><linearGradient id="linear-gradient-20" x1="77.46" y1="153.68" x2="74.42" y2="157.16" xlink:href="#linear-gradient-2"/><linearGradient id="linear-gradient-21" x1="76.59" y1="153.97" x2="76.51" y2="156.03" xlink:href="#linear-gradient-3"/><linearGradient id="未命名的渐变_277-4" x1="73.77" y1="155.26" x2="76.9" y2="155.01" xlink:href="#未命名的渐变_277"/><linearGradient id="未命名的渐变_281-4" x1="78.29" y1="154.11" x2="75.65" y2="158.34" xlink:href="#未命名的渐变_281"/><linearGradient id="linear-gradient-22" x1="75.58" y1="156.58" x2="80.17" y2="149.71" xlink:href="#linear-gradient-2"/><linearGradient id="linear-gradient-23" x1="77.4" y1="154.28" x2="77.08" y2="156.58" xlink:href="#linear-gradient-2"/><linearGradient id="linear-gradient-24" x1="76.12" y1="154.25" x2="75.16" y2="157.13" xlink:href="#linear-gradient-2"/><linearGradient id="未命名的渐变_285-4" x1="74.87" y1="156.25" x2="78.22" y2="156.25" xlink:href="#未命名的渐变_285"/><linearGradient id="linear-gradient-25" x1="76.55" y1="155.72" x2="76.55" y2="155.99" xlink:href="#linear-gradient-3"/><linearGradient id="linear-gradient-26" x1="88.78" y1="142.58" x2="85.74" y2="146.06" xlink:href="#linear-gradient-2"/><linearGradient id="linear-gradient-27" x1="87.91" y1="142.87" x2="87.83" y2="144.93" xlink:href="#linear-gradient-3"/><linearGradient id="未命名的渐变_277-5" x1="85.09" y1="144.16" x2="88.22" y2="143.91" xlink:href="#未命名的渐变_277"/><linearGradient id="未命名的渐变_281-5" x1="89.61" y1="143.02" x2="86.97" y2="147.24" xlink:href="#未命名的渐变_281"/><linearGradient id="linear-gradient-28" x1="86.91" y1="145.49" x2="91.49" y2="138.61" xlink:href="#linear-gradient-2"/><linearGradient id="linear-gradient-29" x1="88.72" y1="143.19" x2="88.4" y2="145.48" xlink:href="#linear-gradient-2"/><linearGradient id="linear-gradient-30" x1="87.45" y1="143.15" x2="86.48" y2="146.03" xlink:href="#linear-gradient-2"/><linearGradient id="未命名的渐变_285-5" x1="86.19" y1="145.15" x2="89.54" y2="145.15" xlink:href="#未命名的渐变_285"/><linearGradient id="linear-gradient-31" x1="87.87" y1="144.62" x2="87.87" y2="144.89" xlink:href="#linear-gradient-3"/><linearGradient id="linear-gradient-32" x1="43.77" y1="157.42" x2="40.72" y2="160.9" xlink:href="#linear-gradient-2"/><linearGradient id="linear-gradient-33" x1="42.89" y1="157.71" x2="42.81" y2="159.77" xlink:href="#linear-gradient-3"/><linearGradient id="未命名的渐变_277-6" x1="40.07" y1="159" x2="43.2" y2="158.75" xlink:href="#未命名的渐变_277"/><linearGradient id="未命名的渐变_281-6" x1="44.6" y1="157.86" x2="41.95" y2="162.08" xlink:href="#未命名的渐变_281"/><linearGradient id="linear-gradient-34" x1="41.89" y1="160.33" x2="46.47" y2="153.46" xlink:href="#linear-gradient-2"/><linearGradient id="linear-gradient-35" x1="43.71" y1="158.03" x2="43.39" y2="160.32" xlink:href="#linear-gradient-2"/><linearGradient id="linear-gradient-36" x1="42.43" y1="157.99" x2="41.47" y2="160.87" xlink:href="#linear-gradient-2"/><linearGradient id="未命名的渐变_285-6" x1="41.17" y1="159.99" x2="44.53" y2="159.99" xlink:href="#未命名的渐变_285"/><linearGradient id="linear-gradient-37" x1="42.85" y1="159.47" x2="42.85" y2="159.73" xlink:href="#linear-gradient-3"/><linearGradient id="linear-gradient-38" x1="33.69" y1="156.66" x2="30.65" y2="160.14" xlink:href="#linear-gradient-2"/><linearGradient id="linear-gradient-39" x1="32.82" y1="156.95" x2="32.74" y2="159.02" xlink:href="#linear-gradient-3"/><linearGradient id="未命名的渐变_277-7" x1="30" y1="158.24" x2="33.13" y2="157.99" xlink:href="#未命名的渐变_277"/><linearGradient id="未命名的渐变_281-7" x1="34.52" y1="157.1" x2="31.88" y2="161.32" xlink:href="#未命名的渐变_281"/><linearGradient id="linear-gradient-40" x1="31.81" y1="159.57" x2="36.4" y2="152.7" xlink:href="#linear-gradient-2"/><linearGradient id="linear-gradient-41" x1="33.63" y1="157.27" x2="33.31" y2="159.56" xlink:href="#linear-gradient-2"/><linearGradient id="linear-gradient-42" x1="32.36" y1="157.23" x2="31.39" y2="160.11" xlink:href="#linear-gradient-2"/><linearGradient id="未命名的渐变_285-7" x1="31.1" y1="159.23" x2="34.45" y2="159.23" xlink:href="#未命名的渐变_285"/><linearGradient id="linear-gradient-43" x1="32.78" y1="158.71" x2="32.78" y2="158.97" xlink:href="#linear-gradient-3"/><linearGradient id="linear-gradient-44" x1="22.42" y1="155.06" x2="19.37" y2="158.54" xlink:href="#linear-gradient-2"/><linearGradient id="linear-gradient-45" x1="21.54" y1="155.35" x2="21.46" y2="157.41" xlink:href="#linear-gradient-3"/><linearGradient id="未命名的渐变_277-8" x1="18.72" y1="156.64" x2="21.85" y2="156.39" xlink:href="#未命名的渐变_277"/><linearGradient id="未命名的渐变_281-8" x1="23.25" y1="155.5" x2="20.6" y2="159.72" xlink:href="#未命名的渐变_281"/><linearGradient id="linear-gradient-46" x1="20.54" y1="157.97" x2="25.12" y2="151.09" xlink:href="#linear-gradient-2"/><linearGradient id="linear-gradient-47" x1="22.36" y1="155.67" x2="22.04" y2="157.96" xlink:href="#linear-gradient-2"/><linearGradient id="linear-gradient-48" x1="21.08" y1="155.63" x2="20.12" y2="158.51" xlink:href="#linear-gradient-2"/><linearGradient id="未命名的渐变_285-8" x1="19.82" y1="157.63" x2="23.18" y2="157.63" xlink:href="#未命名的渐变_285"/><linearGradient id="linear-gradient-49" x1="21.5" y1="157.1" x2="21.5" y2="157.37" xlink:href="#linear-gradient-3"/><linearGradient id="linear-gradient-50" x1="12.18" y1="150.91" x2="9.14" y2="154.39" xlink:href="#linear-gradient-2"/><linearGradient id="linear-gradient-51" x1="11.31" y1="151.2" x2="11.23" y2="153.27" xlink:href="#linear-gradient-3"/><linearGradient id="未命名的渐变_277-9" x1="8.49" y1="152.49" x2="11.62" y2="152.25" xlink:href="#未命名的渐变_277"/><linearGradient id="未命名的渐变_281-9" x1="13.01" y1="151.35" x2="10.37" y2="155.57" xlink:href="#未命名的渐变_281"/><linearGradient id="linear-gradient-52" x1="10.3" y1="153.82" x2="14.89" y2="146.95" xlink:href="#linear-gradient-2"/><linearGradient id="linear-gradient-53" x1="12.12" y1="151.52" x2="11.8" y2="153.81" xlink:href="#linear-gradient-2"/><linearGradient id="linear-gradient-54" x1="10.85" y1="151.48" x2="9.88" y2="154.36" xlink:href="#linear-gradient-2"/><linearGradient id="未命名的渐变_285-9" x1="9.59" y1="153.48" x2="12.94" y2="153.48" xlink:href="#未命名的渐变_285"/><linearGradient id="linear-gradient-55" x1="11.27" y1="152.96" x2="11.27" y2="153.22" xlink:href="#linear-gradient-3"/><linearGradient id="linear-gradient-56" x1="7.75" y1="143.38" x2="4.71" y2="146.86" xlink:href="#linear-gradient-2"/><linearGradient id="linear-gradient-57" x1="6.88" y1="143.67" x2="6.8" y2="145.73" xlink:href="#linear-gradient-3"/><linearGradient id="未命名的渐变_277-10" x1="4.06" y1="144.96" x2="7.19" y2="144.71" xlink:href="#未命名的渐变_277"/><linearGradient id="未命名的渐变_281-10" x1="8.58" y1="143.82" x2="5.94" y2="148.04" xlink:href="#未命名的渐变_281"/><linearGradient id="linear-gradient-58" x1="5.87" y1="146.29" x2="10.46" y2="139.42" xlink:href="#linear-gradient-2"/><linearGradient id="linear-gradient-59" x1="7.69" y1="143.99" x2="7.37" y2="146.28" xlink:href="#linear-gradient-2"/><linearGradient id="linear-gradient-60" x1="6.42" y1="143.95" x2="5.45" y2="146.83" xlink:href="#linear-gradient-2"/><linearGradient id="未命名的渐变_285-10" x1="5.16" y1="145.95" x2="8.51" y2="145.95" xlink:href="#未命名的渐变_285"/><linearGradient id="linear-gradient-61" x1="6.84" y1="145.43" x2="6.84" y2="145.69" xlink:href="#linear-gradient-3"/><linearGradient id="未命名的渐变_274-2" x1="10.4" y1="146.07" x2="83.72" y2="146.07" xlink:href="#未命名的渐变_274"/><linearGradient id="未命名的渐变_263-2" x1="10.4" y1="138.76" x2="83.72" y2="138.76" xlink:href="#未命名的渐变_263"/><linearGradient id="linear-gradient-62" x1="54.78" y1="145.7" x2="51.73" y2="149.18" xlink:href="#linear-gradient-2"/><linearGradient id="linear-gradient-63" x1="53.9" y1="145.99" x2="53.82" y2="148.05" xlink:href="#linear-gradient-3"/><linearGradient id="未命名的渐变_277-11" x1="51.08" y1="147.28" x2="54.21" y2="147.03" xlink:href="#未命名的渐变_277"/><linearGradient id="未命名的渐变_281-11" x1="55.61" y1="146.14" x2="52.96" y2="150.36" xlink:href="#未命名的渐变_281"/><linearGradient id="linear-gradient-64" x1="52.9" y1="148.61" x2="57.48" y2="141.73" xlink:href="#linear-gradient-2"/><linearGradient id="linear-gradient-65" x1="54.72" y1="146.31" x2="54.4" y2="148.6" xlink:href="#linear-gradient-2"/><linearGradient id="linear-gradient-66" x1="53.44" y1="146.27" x2="52.47" y2="149.15" xlink:href="#linear-gradient-2"/><linearGradient id="未命名的渐变_285-11" x1="52.18" y1="148.27" x2="55.54" y2="148.27" xlink:href="#未命名的渐变_285"/><linearGradient id="linear-gradient-67" x1="53.86" y1="147.74" x2="53.86" y2="148.01" xlink:href="#linear-gradient-3"/><linearGradient id="linear-gradient-68" x1="64.85" y1="144.45" x2="61.8" y2="147.93" xlink:href="#linear-gradient-2"/><linearGradient id="linear-gradient-69" x1="63.97" y1="144.74" x2="63.89" y2="146.8" xlink:href="#linear-gradient-3"/><linearGradient id="未命名的渐变_277-12" x1="61.15" y1="146.03" x2="64.28" y2="145.78" xlink:href="#未命名的渐变_277"/><linearGradient id="未命名的渐变_281-12" x1="65.68" y1="144.89" x2="63.03" y2="149.11" xlink:href="#未命名的渐变_281"/><linearGradient id="linear-gradient-70" x1="62.97" y1="147.36" x2="67.56" y2="140.49" xlink:href="#linear-gradient-2"/><linearGradient id="linear-gradient-71" x1="64.79" y1="145.06" x2="64.47" y2="147.35" xlink:href="#linear-gradient-2"/><linearGradient id="linear-gradient-72" x1="63.51" y1="145.02" x2="62.55" y2="147.9" xlink:href="#linear-gradient-2"/><linearGradient id="未命名的渐变_285-12" x1="62.25" y1="147.02" x2="65.61" y2="147.02" xlink:href="#未命名的渐变_285"/><linearGradient id="linear-gradient-73" x1="63.93" y1="146.5" x2="63.93" y2="146.76" xlink:href="#linear-gradient-3"/><linearGradient id="linear-gradient-74" x1="82.13" y1="135.79" x2="79.08" y2="139.27" xlink:href="#linear-gradient-2"/><linearGradient id="linear-gradient-75" x1="81.25" y1="136.08" x2="81.17" y2="138.15" xlink:href="#linear-gradient-3"/><linearGradient id="未命名的渐变_277-13" x1="78.43" y1="137.38" x2="81.57" y2="137.13" xlink:href="#未命名的渐变_277"/><linearGradient id="未命名的渐变_281-13" x1="82.96" y1="136.23" x2="80.31" y2="140.46" xlink:href="#未命名的渐变_281"/><linearGradient id="linear-gradient-76" x1="80.25" y1="138.7" x2="84.84" y2="131.83" xlink:href="#linear-gradient-2"/><linearGradient id="linear-gradient-77" x1="82.07" y1="136.4" x2="81.75" y2="138.7" xlink:href="#linear-gradient-2"/><linearGradient id="linear-gradient-78" x1="80.79" y1="136.36" x2="79.83" y2="139.25" xlink:href="#linear-gradient-2"/><linearGradient id="未命名的渐变_285-13" x1="79.53" y1="138.37" x2="82.89" y2="138.37" xlink:href="#未命名的渐变_285"/><linearGradient id="linear-gradient-79" x1="81.21" y1="137.84" x2="81.21" y2="138.11" xlink:href="#linear-gradient-3"/><linearGradient id="linear-gradient-80" x1="76.84" y1="140.8" x2="73.79" y2="144.27" xlink:href="#linear-gradient-2"/><linearGradient id="linear-gradient-81" x1="75.96" y1="141.08" x2="75.88" y2="143.15" xlink:href="#linear-gradient-3"/><linearGradient id="未命名的渐变_277-14" x1="73.14" y1="142.38" x2="76.27" y2="142.13" xlink:href="#未命名的渐变_277"/><linearGradient id="未命名的渐变_281-14" x1="77.67" y1="141.23" x2="75.02" y2="145.46" xlink:href="#未命名的渐变_281"/><linearGradient id="linear-gradient-82" x1="74.96" y1="143.7" x2="79.55" y2="136.83" xlink:href="#linear-gradient-2"/><linearGradient id="linear-gradient-83" x1="76.78" y1="141.4" x2="76.46" y2="143.7" xlink:href="#linear-gradient-2"/><linearGradient id="linear-gradient-84" x1="75.5" y1="141.36" x2="74.54" y2="144.25" xlink:href="#linear-gradient-2"/><linearGradient id="未命名的渐变_285-14" x1="74.24" y1="143.37" x2="77.6" y2="143.37" xlink:href="#未命名的渐变_285"/><linearGradient id="linear-gradient-85" x1="75.92" y1="142.84" x2="75.92" y2="143.11" xlink:href="#linear-gradient-3"/><linearGradient id="linear-gradient-86" x1="43.23" y1="145.83" x2="40.19" y2="149.31" xlink:href="#linear-gradient-2"/><linearGradient id="linear-gradient-87" x1="42.36" y1="146.12" x2="42.27" y2="148.19" xlink:href="#linear-gradient-3"/><linearGradient id="未命名的渐变_277-15" x1="39.54" y1="147.42" x2="42.67" y2="147.17" xlink:href="#未命名的渐变_277"/><linearGradient id="未命名的渐变_281-15" x1="44.06" y1="146.27" x2="41.41" y2="150.49" xlink:href="#未命名的渐变_281"/><linearGradient id="linear-gradient-88" x1="41.35" y1="148.74" x2="45.94" y2="141.87" xlink:href="#linear-gradient-2"/><linearGradient id="linear-gradient-89" x1="43.17" y1="146.44" x2="42.85" y2="148.73" xlink:href="#linear-gradient-2"/><linearGradient id="linear-gradient-90" x1="41.89" y1="146.4" x2="40.93" y2="149.28" xlink:href="#linear-gradient-2"/><linearGradient id="未命名的渐变_285-15" x1="40.64" y1="148.4" x2="43.99" y2="148.4" xlink:href="#未命名的渐变_285"/><linearGradient id="linear-gradient-91" x1="42.31" y1="147.88" x2="42.31" y2="148.14" xlink:href="#linear-gradient-3"/><linearGradient id="linear-gradient-92" x1="33.16" y1="144.94" x2="30.11" y2="148.42" xlink:href="#linear-gradient-2"/><linearGradient id="linear-gradient-93" x1="32.28" y1="145.23" x2="32.2" y2="147.29" xlink:href="#linear-gradient-3"/><linearGradient id="未命名的渐变_277-16" x1="29.46" y1="146.52" x2="32.59" y2="146.27" xlink:href="#未命名的渐变_277"/><linearGradient id="未命名的渐变_281-16" x1="33.99" y1="145.38" x2="31.34" y2="149.6" xlink:href="#未命名的渐变_281"/><linearGradient id="linear-gradient-94" x1="31.28" y1="147.85" x2="35.87" y2="140.97" xlink:href="#linear-gradient-2"/><linearGradient id="linear-gradient-95" x1="33.1" y1="145.55" x2="32.78" y2="147.84" xlink:href="#linear-gradient-2"/><linearGradient id="linear-gradient-96" x1="31.82" y1="145.51" x2="30.86" y2="148.39" xlink:href="#linear-gradient-2"/><linearGradient id="未命名的渐变_285-16" x1="30.56" y1="147.51" x2="33.92" y2="147.51" xlink:href="#未命名的渐变_285"/><linearGradient id="linear-gradient-97" x1="32.24" y1="146.98" x2="32.24" y2="147.25" xlink:href="#linear-gradient-3"/><linearGradient id="linear-gradient-98" x1="22" y1="142.18" x2="18.96" y2="145.65" xlink:href="#linear-gradient-2"/><linearGradient id="linear-gradient-99" x1="21.13" y1="142.46" x2="21.05" y2="144.53" xlink:href="#linear-gradient-3"/><linearGradient id="未命名的渐变_277-17" x1="18.31" y1="143.76" x2="21.44" y2="143.51" xlink:href="#未命名的渐变_277"/><linearGradient id="未命名的渐变_281-17" x1="22.83" y1="142.61" x2="20.19" y2="146.84" xlink:href="#未命名的渐变_281"/><linearGradient id="linear-gradient-100" x1="20.12" y1="145.08" x2="24.71" y2="138.21" xlink:href="#linear-gradient-2"/><linearGradient id="linear-gradient-101" x1="21.94" y1="142.78" x2="21.62" y2="145.08" xlink:href="#linear-gradient-2"/><linearGradient id="linear-gradient-102" x1="20.66" y1="142.74" x2="19.7" y2="145.63" xlink:href="#linear-gradient-2"/><linearGradient id="未命名的渐变_285-17" x1="19.41" y1="144.75" x2="22.76" y2="144.75" xlink:href="#未命名的渐变_285"/><linearGradient id="linear-gradient-103" x1="21.09" y1="144.22" x2="21.09" y2="144.49" xlink:href="#linear-gradient-3"/><linearGradient id="linear-gradient-104" x1="14.72" y1="136.74" x2="11.68" y2="140.22" xlink:href="#linear-gradient-2"/><linearGradient id="linear-gradient-105" x1="13.85" y1="137.03" x2="13.77" y2="139.09" xlink:href="#linear-gradient-3"/><linearGradient id="未命名的渐变_277-18" x1="11.03" y1="138.32" x2="14.16" y2="138.07" xlink:href="#未命名的渐变_277"/><linearGradient id="未命名的渐变_281-18" x1="15.55" y1="137.17" x2="12.91" y2="141.4" xlink:href="#未命名的渐变_281"/><linearGradient id="linear-gradient-106" x1="12.85" y1="139.64" x2="17.43" y2="132.77" xlink:href="#linear-gradient-2"/><linearGradient id="linear-gradient-107" x1="14.66" y1="137.35" x2="14.34" y2="139.64" xlink:href="#linear-gradient-2"/><linearGradient id="linear-gradient-108" x1="13.39" y1="137.31" x2="12.42" y2="140.19" xlink:href="#linear-gradient-2"/><linearGradient id="未命名的渐变_285-18" x1="12.13" y1="139.31" x2="15.48" y2="139.31" xlink:href="#未命名的渐变_285"/><linearGradient id="linear-gradient-109" x1="13.81" y1="138.78" x2="13.81" y2="139.05" xlink:href="#linear-gradient-3"/><linearGradient id="未命名的渐变_274-3" x1="15.63" y1="136.82" x2="78.48" y2="136.82" xlink:href="#未命名的渐变_274"/><linearGradient id="未命名的渐变_274-4" x1="15.63" y1="130.53" x2="78.48" y2="130.53" xlink:href="#未命名的渐变_274"/><linearGradient id="未命名的渐变_263-3" x1="15.63" y1="125.82" x2="78.48" y2="125.82" xlink:href="#未命名的渐变_263"/><linearGradient id="未命名的渐变_274-5" x1="10.16" y1="21.98" x2="83.95" y2="21.98" xlink:href="#未命名的渐变_274"/><linearGradient id="未命名的渐变_274-6" x1="19.32" y1="35.78" x2="74.88" y2="35.78" xlink:href="#未命名的渐变_274"/><linearGradient id="linear-gradient-110" x1="29.32" y1="193.81" x2="30.97" y2="193.81" xlink:href="#linear-gradient"/><linearGradient id="linear-gradient-111" x1="29.32" y1="207.19" x2="30.97" y2="207.19" xlink:href="#linear-gradient"/></defs><title>电容式电压互感器</title><g class="cls-1"><g id="图层_2" data-name="图层 2"><g id="图层_1-2" data-name="图层 1"><polygon class="cls-2" points="88.89 239.79 88.86 240.94 88.28 241.18 88.89 239.79"/><polygon class="cls-2" points="77.74 236.36 69.23 239.78 79.78 244.97 85.09 244.67 88.55 242.25 88.89 240.91 77.74 236.36"/><path class="cls-3" d="M77.74,235.24l-8.51,3.41,10.55,5.19,5.31-.29,3.46-2.43.34-1.33Zm5.79,6.63c-.65,0-1.18-.28-1.18-.62s.53-.62,1.18-.62,1.18.28,1.18.62S84.18,241.87,83.53,241.87Z"/><polygon class="cls-2" points="5.23 239.79 5.25 240.94 5.83 241.18 5.23 239.79"/><polygon class="cls-2" points="16.37 236.36 24.88 239.78 14.33 244.97 9.03 244.67 5.56 242.25 5.23 240.91 16.37 236.36"/><path class="cls-3" d="M5.23,239.79l.33,1.33L9,243.55l5.3.29,10.55-5.19-8.51-3.41Zm4.17,1.46c0-.34.53-.62,1.18-.62s1.18.28,1.18.62-.53.62-1.18.62S9.4,241.59,9.4,241.25Z"/><path class="cls-2" d="M91.79,231.41c-8.32,8-25.21,13.43-44.72,13.43-19.71,0-36.76-5.57-45-13.68V209.23l0,0v-54H92v76Z"/><path class="cls-4" d="M91.79,230c-8.32,8-25.21,13.43-44.72,13.43-19.71,0-36.76-5.58-45-13.68V207.83l0,0v-54H92v76Z"/><ellipse class="cls-5" cx="47.06" cy="151.51" rx="47.06" ry="13.73"/><ellipse class="cls-6" cx="47.06" cy="148.3" rx="47.06" ry="13.73"/><path class="cls-7" d="M55.18,158.1s0,0,0,.06,0-.06,0-.06H53.71s0,0,0,.06,0-.06,0-.06H53s0,0,0,.05v1.17a0,0,0,0,0,0,.05h.65s0,0,0-.06,0,.06,0,.06H55.1s0,0,0-.06,0,.06,0,.06h.65a0,0,0,0,0,0-.05v-1.17s0-.05,0-.05Z"/><path class="cls-8" d="M52.94,159v.33a0,0,0,0,0,0,0,15.08,15.08,0,0,0,2.85,0,0,0,0,0,0,0,0V159a0,0,0,0,0,0-.05H53A0,0,0,0,0,52.94,159Z"/><path class="cls-9" d="M55.87,158.5v-.36a.07.07,0,0,0,0,0,12.35,12.35,0,0,0-2.85,0,.07.07,0,0,0,0,0v.36a0,0,0,0,0,0,.05h2.85A0,0,0,0,0,55.87,158.5Z"/><path class="cls-10" d="M55.87,158.5v-.36s0,0,0,0a27.09,27.09,0,0,0-2.85,0s0,0,0,0v.36a0,0,0,0,0,0,.05h2.85A0,0,0,0,0,55.87,158.5Z"/><path class="cls-11" d="M53.67,158.16v1.15s0,.06,0,.06H53a0,0,0,0,1,0-.05v-1.17s0-.05,0-.05h.65S53.67,158.13,53.67,158.16Z"/><path class="cls-12" d="M55.87,158.15v1.17a0,0,0,0,1,0,.05h-.65s0,0,0-.06v-1.15s0-.06,0-.06h.65S55.87,158.13,55.87,158.15Z"/><path class="cls-13" d="M55.13,158.16v1.15a.06.06,0,0,1-.05.06H53.73a.06.06,0,0,1,0-.06v-1.15a.06.06,0,0,1,0-.06h1.35A.06.06,0,0,1,55.13,158.16Z"/><rect class="cls-14" x="55.13" y="158.16" width="0.01" height="1.15"/><rect class="cls-15" x="53.67" y="158.16" width="0.01" height="1.15"/><path class="cls-16" d="M56,160.33H52.8a.07.07,0,0,1-.08-.07v-.8a.08.08,0,0,1,.08-.08H56a.09.09,0,0,1,.08.08v.8A.08.08,0,0,1,56,160.33Z"/><path class="cls-17" d="M56,159.53H52.8a.07.07,0,0,1-.08-.07h0a.08.08,0,0,1,.08-.08H56a.09.09,0,0,1,.08.08h0A.08.08,0,0,1,56,159.53Z"/><path class="cls-7" d="M65.52,157.66a0,0,0,1,1-.08,0H64.05a0,0,0,1,1-.08,0h-.65a0,0,0,0,0,0,.05v1.16a0,0,0,0,0,0,0H64a0,0,0,1,1,.08,0h1.39a0,0,0,1,1,.08,0h.65a0,0,0,0,0,0,0v-1.16a0,0,0,0,0,0-.05Z"/><path class="cls-8" d="M63.28,158.55v.33a0,0,0,0,0,0,.05,13.57,13.57,0,0,0,2.85,0s0,0,0-.05v-.33a0,0,0,0,0,0,0H63.32A0,0,0,0,0,63.28,158.55Z"/><path class="cls-18" d="M66.21,158.05v-.35s0,0,0,0a12.35,12.35,0,0,0-2.85,0,0,0,0,0,0,0,0v.35a0,0,0,0,0,0,0h2.85A0,0,0,0,0,66.21,158.05Z"/><path class="cls-19" d="M66.21,158.05v-.35s0,0,0,0a22.59,22.59,0,0,0-2.85,0,0,0,0,0,0,0,0v.35a0,0,0,0,0,0,0h2.85A0,0,0,0,0,66.21,158.05Z"/><path class="cls-20" d="M64,157.71v1.16a0,0,0,0,1,0,0h-.65a0,0,0,0,1,0,0v-1.16a0,0,0,0,1,0-.05H64A0,0,0,0,1,64,157.71Z"/><path class="cls-21" d="M66.21,157.71v1.16a0,0,0,0,1,0,0h-.65a0,0,0,0,1,0,0v-1.16a0,0,0,0,1,0-.05h.65A0,0,0,0,1,66.21,157.71Z"/><path class="cls-22" d="M65.47,157.71v1.16a0,0,0,0,1,0,0H64.07a0,0,0,0,1,0,0v-1.16a0,0,0,0,1,0-.05h1.35A0,0,0,0,1,65.47,157.71Z"/><rect class="cls-23" x="65.47" y="157.71" width="0.01" height="1.15"/><rect class="cls-24" x="64.01" y="157.71" width="0.01" height="1.15"/><path class="cls-25" d="M66.33,159.89H63.14a.08.08,0,0,1-.08-.08V159a.07.07,0,0,1,.08-.07h3.19a.08.08,0,0,1,.08.07v.8A.09.09,0,0,1,66.33,159.89Z"/><path class="cls-26" d="M66.33,159.09H63.14a.08.08,0,0,1-.08-.08h0a.07.07,0,0,1,.08-.07h3.19a.08.08,0,0,1,.08.07h0A.09.09,0,0,1,66.33,159.09Z"/><path class="cls-7" d="M86.28,150.47s0,0,0,.06a.06.06,0,0,0,0-.06H84.81s0,0,0,.06,0-.06,0-.06h-.65s0,0,0,.05v1.17s0,.05,0,.05h.65s0,0,0-.06,0,.06,0,.06h1.38a.06.06,0,0,0,0-.06s0,.06,0,.06h.65a0,0,0,0,0,0-.05v-1.17s0-.05,0-.05Z"/><path class="cls-8" d="M84,151.37v.33s0,.05,0,.05a15.18,15.18,0,0,0,2.86,0,0,0,0,0,0,0-.05v-.33a0,0,0,0,0,0-.05H84.08S84,151.34,84,151.37Z"/><path class="cls-27" d="M87,150.87v-.36a.07.07,0,0,0,0,0,12.43,12.43,0,0,0-2.86,0,.05.05,0,0,0,0,0v.36s0,0,0,0h2.85A0,0,0,0,0,87,150.87Z"/><path class="cls-28" d="M87,150.87v-.36s0,0,0,0a27.28,27.28,0,0,0-2.86,0s0,0,0,0v.36s0,0,0,0h2.85A0,0,0,0,0,87,150.87Z"/><path class="cls-29" d="M84.77,150.53v1.15s0,.06,0,.06h-.65s0,0,0-.05v-1.17s0-.05,0-.05h.65S84.77,150.5,84.77,150.53Z"/><path class="cls-30" d="M87,150.52v1.17a0,0,0,0,1,0,.05h-.65s0,0,0-.06v-1.15s0-.06,0-.06h.65S87,150.5,87,150.52Z"/><path class="cls-31" d="M86.22,150.53v1.15s0,.06,0,.06H84.82s0,0,0-.06v-1.15s0-.06,0-.06h1.36S86.22,150.5,86.22,150.53Z"/><rect class="cls-32" x="86.22" y="150.53" width="0.01" height="1.15"/><rect class="cls-33" x="84.77" y="150.53" width="0.01" height="1.15"/><path class="cls-34" d="M87.08,152.7H83.9a.08.08,0,0,1-.09-.07v-.8a.09.09,0,0,1,.09-.08h3.18a.09.09,0,0,1,.09.08v.8A.08.08,0,0,1,87.08,152.7Z"/><path class="cls-35" d="M87.08,151.9H83.9a.08.08,0,0,1-.09-.07h0a.09.09,0,0,1,.09-.08h3.18a.09.09,0,0,1,.09.08h0A.08.08,0,0,1,87.08,151.9Z"/><path class="cls-7" d="M77.33,154.49s0,0,0,.06,0-.06,0-.06H75.87a.06.06,0,0,0-.05.06s0-.06,0-.06h-.65s0,0,0,0v1.17a0,0,0,0,0,0,0h.65s0,0,0-.06a.06.06,0,0,0,.05.06h1.38s0,0,0-.06,0,.06,0,.06H78s0,0,0,0v-1.17s0,0,0,0Z"/><path class="cls-8" d="M75.09,155.39v.33a0,0,0,0,0,0,.05,15.18,15.18,0,0,0,2.86,0s0,0,0-.05v-.33s0,0,0,0H75.13A0,0,0,0,0,75.09,155.39Z"/><path class="cls-36" d="M78,154.89v-.36a.05.05,0,0,0,0-.05,12.43,12.43,0,0,0-2.86,0,.07.07,0,0,0,0,.05v.36a0,0,0,0,0,0,.05H78S78,154.92,78,154.89Z"/><path class="cls-37" d="M78,154.89v-.36s0-.05,0-.05a27.28,27.28,0,0,0-2.86,0s0,0,0,.05v.36a0,0,0,0,0,0,.05H78S78,154.92,78,154.89Z"/><path class="cls-38" d="M75.82,154.55v1.15s0,.06,0,.06h-.65a0,0,0,0,1,0,0v-1.17s0,0,0,0h.65S75.82,154.52,75.82,154.55Z"/><path class="cls-39" d="M78,154.54v1.17s0,0,0,0h-.65s0,0,0-.06v-1.15s0-.06,0-.06H78S78,154.52,78,154.54Z"/><path class="cls-40" d="M77.28,154.55v1.15s0,.06,0,.06H75.88s0,0,0-.06v-1.15s0-.06,0-.06h1.36S77.28,154.52,77.28,154.55Z"/><rect class="cls-41" x="77.28" y="154.55" width="0.01" height="1.15"/><rect class="cls-42" x="75.82" y="154.55" width="0.01" height="1.15"/><path class="cls-43" d="M78.14,156.72H75a.08.08,0,0,1-.08-.07v-.8a.09.09,0,0,1,.08-.08h3.19a.09.09,0,0,1,.08.08v.8A.08.08,0,0,1,78.14,156.72Z"/><path class="cls-44" d="M78.14,155.92H75a.08.08,0,0,1-.08-.07h0a.09.09,0,0,1,.08-.08h3.19a.09.09,0,0,1,.08.08h0A.08.08,0,0,1,78.14,155.92Z"/><path class="cls-7" d="M88.66,143.4a0,0,0,0,0,0,0,0,0,0,0,0,0,0H87.19a0,0,0,0,0,0,0,0,0,0,0,0,0,0h-.65a0,0,0,0,0,0,0v1.17a0,0,0,0,0,0,0h.65s0,0,0-.06a.06.06,0,0,0,0,.06h1.38s0,0,0-.06a.06.06,0,0,0,0,.06h.65s0,0,0,0v-1.17s0,0,0,0Z"/><path class="cls-8" d="M86.41,144.29v.33a0,0,0,0,0,0,0,14.39,14.39,0,0,0,2.86,0s0,0,0,0v-.33s0,0,0,0H86.45S86.41,144.27,86.41,144.29Z"/><path class="cls-45" d="M89.34,143.79v-.36a.05.05,0,0,0,0-.05,13,13,0,0,0-2.86,0,.07.07,0,0,0,0,.05v.36a0,0,0,0,0,0,.05h2.86S89.34,143.82,89.34,143.79Z"/><path class="cls-46" d="M89.34,143.79v-.36a.05.05,0,0,0,0-.05,27.28,27.28,0,0,0-2.86,0,.07.07,0,0,0,0,.05v.36a0,0,0,0,0,0,.05h2.86S89.34,143.82,89.34,143.79Z"/><path class="cls-47" d="M87.14,143.45v1.15s0,.06,0,.06h-.65a0,0,0,0,1,0,0v-1.17a0,0,0,0,1,0,0h.65A0,0,0,0,1,87.14,143.45Z"/><path class="cls-48" d="M89.34,143.44v1.17s0,0,0,0h-.65a.06.06,0,0,1,0-.06v-1.15a0,0,0,0,1,0,0h.65S89.34,143.42,89.34,143.44Z"/><path class="cls-49" d="M88.6,143.45v1.15s0,.06,0,.06H87.2s0,0,0-.06v-1.15a0,0,0,0,1,0,0h1.36A0,0,0,0,1,88.6,143.45Z"/><rect class="cls-50" x="88.6" y="143.45" width="0.01" height="1.15"/><rect class="cls-51" x="87.15" y="143.45" width="0.01" height="1.15"/><path class="cls-52" d="M89.46,145.62H86.27a.08.08,0,0,1-.08-.07v-.8a.08.08,0,0,1,.08-.07h3.19a.07.07,0,0,1,.08.07v.8A.07.07,0,0,1,89.46,145.62Z"/><path class="cls-53" d="M89.46,144.82H86.27a.08.08,0,0,1-.08-.07h0a.08.08,0,0,1,.08-.07h3.19a.07.07,0,0,1,.08.07h0A.07.07,0,0,1,89.46,144.82Z"/><path class="cls-7" d="M43.64,158.24s0,0,0,0a0,0,0,0,0-.05,0H42.17a0,0,0,0,0,0,0,0,0,0,0,0-.05,0h-.65s0,0,0,0v1.16s0,.05,0,.05h.65a0,0,0,0,0,.05-.05,0,0,0,0,0,0,.05h1.38a0,0,0,0,0,.05-.05s0,.05,0,.05h.65a0,0,0,0,0,0-.05v-1.16a0,0,0,0,0,0,0Z"/><path class="cls-8" d="M41.4,159.13v.33s0,0,0,0a13.67,13.67,0,0,0,2.86,0,0,0,0,0,0,0,0v-.33a0,0,0,0,0,0,0H41.43S41.4,159.11,41.4,159.13Z"/><path class="cls-54" d="M44.33,158.63v-.35a0,0,0,0,0,0-.05,12.43,12.43,0,0,0-2.86,0s0,0,0,.05v.35s0,.05,0,.05h2.86A0,0,0,0,0,44.33,158.63Z"/><path class="cls-55" d="M44.33,158.63v-.35a0,0,0,0,0,0-.05,22.74,22.74,0,0,0-2.86,0s0,0,0,.05v.35s0,.05,0,.05h2.86A0,0,0,0,0,44.33,158.63Z"/><path class="cls-56" d="M42.13,158.29v1.16a0,0,0,0,1-.05.05h-.65s0,0,0-.05v-1.16s0,0,0,0h.65A0,0,0,0,1,42.13,158.29Z"/><path class="cls-57" d="M44.33,158.29v1.16a0,0,0,0,1,0,.05h-.65s0,0,0-.05v-1.16s0,0,0,0h.65A0,0,0,0,1,44.33,158.29Z"/><path class="cls-58" d="M43.58,158.29v1.16a0,0,0,0,1,0,.05H42.18a0,0,0,0,1,0-.05v-1.16a0,0,0,0,1,0,0h1.36A0,0,0,0,1,43.58,158.29Z"/><rect class="cls-59" x="43.58" y="158.29" width="0.01" height="1.15"/><rect class="cls-60" x="42.13" y="158.29" width="0.01" height="1.15"/><path class="cls-61" d="M44.44,160.47H41.26a.09.09,0,0,1-.09-.08v-.8a.08.08,0,0,1,.09-.07h3.18a.08.08,0,0,1,.09.07v.8A.09.09,0,0,1,44.44,160.47Z"/><path class="cls-62" d="M44.44,159.67H41.26a.09.09,0,0,1-.09-.08h0a.08.08,0,0,1,.09-.07h3.18a.08.08,0,0,1,.09.07h0A.09.09,0,0,1,44.44,159.67Z"/><path class="cls-7" d="M33.57,157.48a0,0,0,0,0,0,.05,0,0,0,0,0,0-.05H32.1a0,0,0,0,0-.05.05,0,0,0,0,0,0-.05h-.65a0,0,0,0,0,0,.05v1.16a0,0,0,0,0,0,.05H32a0,0,0,0,0,0-.05,0,0,0,0,0,.05.05h1.38a0,0,0,0,0,0-.05,0,0,0,0,0,0,.05h.65s0,0,0-.05v-1.16s0-.05,0-.05Z"/><path class="cls-8" d="M31.32,158.37v.33a0,0,0,0,0,0,.05,13.67,13.67,0,0,0,2.86,0s0,0,0-.05v-.33s0,0,0,0H31.36A0,0,0,0,0,31.32,158.37Z"/><path class="cls-63" d="M34.25,157.87v-.35s0-.05,0-.05a12.43,12.43,0,0,0-2.86,0,0,0,0,0,0,0,.05v.35a0,0,0,0,0,0,0h2.86S34.25,157.9,34.25,157.87Z"/><path class="cls-64" d="M34.25,157.87v-.35s0-.05,0-.05a22.74,22.74,0,0,0-2.86,0,0,0,0,0,0,0,.05v.35a0,0,0,0,0,0,0h2.86S34.25,157.9,34.25,157.87Z"/><path class="cls-65" d="M32.05,157.53v1.16a0,0,0,0,1,0,.05h-.65a0,0,0,0,1,0-.05v-1.16a0,0,0,0,1,0-.05H32A0,0,0,0,1,32.05,157.53Z"/><path class="cls-66" d="M34.25,157.53v1.16s0,.05,0,.05h-.65a0,0,0,0,1,0-.05v-1.16a0,0,0,0,1,0-.05h.65S34.25,157.5,34.25,157.53Z"/><path class="cls-67" d="M33.51,157.53v1.16a0,0,0,0,1,0,.05H32.11a0,0,0,0,1,0-.05v-1.16a0,0,0,0,1,0-.05h1.36A0,0,0,0,1,33.51,157.53Z"/><rect class="cls-68" x="33.51" y="157.53" width="0.01" height="1.15"/><rect class="cls-69" x="32.05" y="157.53" width="0.01" height="1.15"/><path class="cls-70" d="M34.37,159.71H31.18a.09.09,0,0,1-.08-.08v-.8a.08.08,0,0,1,.08-.07h3.19a.07.07,0,0,1,.08.07v.8A.08.08,0,0,1,34.37,159.71Z"/><path class="cls-71" d="M34.37,158.91H31.18a.09.09,0,0,1-.08-.08h0a.08.08,0,0,1,.08-.07h3.19a.07.07,0,0,1,.08.07h0A.08.08,0,0,1,34.37,158.91Z"/><path class="cls-7" d="M22.29,155.88a0,0,0,0,0,0,.05,0,0,0,0,0-.05-.05H20.82a0,0,0,0,0,0,.05,0,0,0,0,0-.05-.05h-.65s0,0,0,0v1.17s0,0,0,0h.65a.06.06,0,0,0,.05-.06s0,.06,0,.06H22.2a.06.06,0,0,0,.05-.06s0,.06,0,.06h.65a0,0,0,0,0,0,0v-1.17a0,0,0,0,0,0,0Z"/><path class="cls-8" d="M20.05,156.77v.33s0,.05,0,.05a14.39,14.39,0,0,0,2.86,0,0,0,0,0,0,0-.05v-.33s0-.05,0-.05H20.08S20.05,156.75,20.05,156.77Z"/><path class="cls-72" d="M23,156.27v-.36a.07.07,0,0,0,0,0,13,13,0,0,0-2.86,0,.05.05,0,0,0,0,0v.36s0,0,0,0h2.86A0,0,0,0,0,23,156.27Z"/><path class="cls-73" d="M23,156.27v-.36a.07.07,0,0,0,0,0,27.28,27.28,0,0,0-2.86,0,.05.05,0,0,0,0,0v.36s0,0,0,0h2.86A0,0,0,0,0,23,156.27Z"/><path class="cls-74" d="M20.78,155.93v1.15a.06.06,0,0,1-.05.06h-.65s0,0,0,0v-1.17s0,0,0,0h.65A0,0,0,0,1,20.78,155.93Z"/><path class="cls-75" d="M23,155.92v1.17a0,0,0,0,1,0,0h-.65s0,0,0-.06v-1.15a0,0,0,0,1,0-.05h.65A0,0,0,0,1,23,155.92Z"/><path class="cls-76" d="M22.23,155.93v1.15s0,.06,0,.06H20.83s0,0,0-.06v-1.15a0,0,0,0,1,0-.05h1.36A0,0,0,0,1,22.23,155.93Z"/><rect class="cls-77" x="22.23" y="155.93" width="0.01" height="1.15"/><rect class="cls-78" x="20.78" y="155.93" width="0.01" height="1.15"/><path class="cls-79" d="M23.09,158.1H19.91a.08.08,0,0,1-.09-.07v-.8a.08.08,0,0,1,.09-.07h3.18a.08.08,0,0,1,.09.07v.8A.08.08,0,0,1,23.09,158.1Z"/><path class="cls-80" d="M23.09,157.3H19.91a.08.08,0,0,1-.09-.07h0a.08.08,0,0,1,.09-.07h3.18a.08.08,0,0,1,.09.07h0A.08.08,0,0,1,23.09,157.3Z"/><path class="cls-7" d="M12.06,151.73a0,0,0,0,0-.05.05,0,0,0,0,0,0-.05H10.59a0,0,0,0,0-.05.05,0,0,0,0,0,0-.05H9.85a0,0,0,0,0,0,.05v1.16a0,0,0,0,0,0,.05h.65a0,0,0,0,0,0-.05,0,0,0,0,0,.05.05H12a0,0,0,0,0,0-.05,0,0,0,0,0,.05.05h.65s0,0,0-.05v-1.16s0-.05,0-.05Z"/><path class="cls-8" d="M9.81,152.63V153a0,0,0,0,0,0,.05,13.67,13.67,0,0,0,2.86,0s0,0,0-.05v-.32s0,0,0,0H9.85A0,0,0,0,0,9.81,152.63Z"/><path class="cls-81" d="M12.74,152.12v-.35s0-.05,0-.05a12.43,12.43,0,0,0-2.86,0,0,0,0,0,0,0,.05v.35a0,0,0,0,0,0,0h2.86S12.74,152.15,12.74,152.12Z"/><path class="cls-82" d="M12.74,152.12v-.35s0-.05,0-.05a22.74,22.74,0,0,0-2.86,0,0,0,0,0,0,0,.05v.35a0,0,0,0,0,0,0h2.86S12.74,152.15,12.74,152.12Z"/><path class="cls-83" d="M10.54,151.78v1.16a0,0,0,0,1,0,.05H9.85a0,0,0,0,1,0-.05v-1.16a0,0,0,0,1,0-.05h.65A0,0,0,0,1,10.54,151.78Z"/><path class="cls-84" d="M12.74,151.78v1.16s0,.05,0,.05h-.65a0,0,0,0,1-.05-.05v-1.16a0,0,0,0,1,.05-.05h.65S12.74,151.75,12.74,151.78Z"/><path class="cls-85" d="M12,151.78v1.16a0,0,0,0,1,0,.05H10.6a0,0,0,0,1,0-.05v-1.16a0,0,0,0,1,0-.05H12A0,0,0,0,1,12,151.78Z"/><rect class="cls-86" x="12" y="151.78" width="0.01" height="1.15"/><rect class="cls-87" x="10.54" y="151.78" width="0.01" height="1.15"/><path class="cls-88" d="M12.86,154H9.67a.09.09,0,0,1-.08-.08v-.8a.08.08,0,0,1,.08-.07h3.19a.07.07,0,0,1,.08.07v.8A.08.08,0,0,1,12.86,154Z"/><path class="cls-89" d="M12.86,153.16H9.67a.09.09,0,0,1-.08-.08h0a.08.08,0,0,1,.08-.07h3.19a.07.07,0,0,1,.08.07h0A.08.08,0,0,1,12.86,153.16Z"/><path class="cls-7" d="M7.63,144.2a0,0,0,0,0,0,.05,0,0,0,0,0,0-.05H6.16a0,0,0,0,0,0,.05,0,0,0,0,0,0-.05H5.42a0,0,0,0,0,0,.05v1.16a0,0,0,0,0,0,.05h.65a0,0,0,0,0,0-.05,0,0,0,0,0,0,.05H7.54a0,0,0,0,0,0-.05,0,0,0,0,0,0,.05h.65s0,0,0-.05v-1.16s0-.05,0-.05Z"/><path class="cls-8" d="M5.38,145.09v.33a0,0,0,0,0,0,.05,13.67,13.67,0,0,0,2.86,0s0,0,0-.05v-.33s0,0,0,0H5.42A0,0,0,0,0,5.38,145.09Z"/><path class="cls-90" d="M8.31,144.59v-.35s0-.05,0-.05a12.43,12.43,0,0,0-2.86,0,0,0,0,0,0,0,.05v.35a0,0,0,0,0,0,0H8.28S8.31,144.62,8.31,144.59Z"/><path class="cls-91" d="M8.31,144.59v-.35s0-.05,0-.05a22.74,22.74,0,0,0-2.86,0,0,0,0,0,0,0,.05v.35a0,0,0,0,0,0,0H8.28S8.31,144.62,8.31,144.59Z"/><path class="cls-92" d="M6.11,144.25v1.16a0,0,0,0,1,0,.05H5.42a0,0,0,0,1,0-.05v-1.16a0,0,0,0,1,0-.05h.65A0,0,0,0,1,6.11,144.25Z"/><path class="cls-93" d="M8.31,144.25v1.16s0,.05,0,.05H7.63a0,0,0,0,1,0-.05v-1.16a0,0,0,0,1,0-.05h.65S8.31,144.22,8.31,144.25Z"/><path class="cls-94" d="M7.57,144.25v1.16a0,0,0,0,1,0,.05H6.17a0,0,0,0,1,0-.05v-1.16a0,0,0,0,1,0-.05H7.53A0,0,0,0,1,7.57,144.25Z"/><rect class="cls-95" x="7.57" y="144.25" width="0.01" height="1.15"/><rect class="cls-96" x="6.11" y="144.25" width="0.01" height="1.15"/><path class="cls-97" d="M8.43,146.43H5.24a.09.09,0,0,1-.08-.08v-.8a.08.08,0,0,1,.08-.07H8.43a.08.08,0,0,1,.08.07v.8A.09.09,0,0,1,8.43,146.43Z"/><path class="cls-98" d="M8.43,145.63H5.24a.09.09,0,0,1-.08-.08h0a.08.08,0,0,1,.08-.07H8.43a.08.08,0,0,1,.08.07h0A.09.09,0,0,1,8.43,145.63Z"/><ellipse class="cls-99" cx="47.06" cy="146.07" rx="36.66" ry="10.7"/><rect class="cls-100" x="10.4" y="138.67" width="2.94" height="8.02"/><rect class="cls-3" x="80.77" y="138.67" width="2.94" height="8.02"/><ellipse class="cls-101" cx="47.06" cy="138.76" rx="36.66" ry="10.7"/><path class="cls-7" d="M54.65,146.52a0,0,0,0,0,0,0,0,0,0,0,0,0,0H53.18a0,0,0,0,0,0,0,0,0,0,0,0,0,0h-.65a0,0,0,0,0,0,0v1.17a0,0,0,0,0,0,.05h.65a.06.06,0,0,0,0-.06s0,.06,0,.06h1.38s0,0,0-.06a.06.06,0,0,0,0,.06h.65a0,0,0,0,0,0-.05v-1.17a0,0,0,0,0,0,0Z"/><path class="cls-8" d="M52.4,147.41v.33a0,0,0,0,0,0,0,14.39,14.39,0,0,0,2.86,0,0,0,0,0,0,0,0v-.33s0,0,0,0H52.44S52.4,147.39,52.4,147.41Z"/><path class="cls-102" d="M55.34,146.91v-.36a.07.07,0,0,0,0-.05,13,13,0,0,0-2.86,0,.07.07,0,0,0,0,.05v.36a0,0,0,0,0,0,.05H55.3A0,0,0,0,0,55.34,146.91Z"/><path class="cls-103" d="M55.34,146.91v-.36a.07.07,0,0,0,0-.05,27.28,27.28,0,0,0-2.86,0,.07.07,0,0,0,0,.05v.36a0,0,0,0,0,0,.05H55.3A0,0,0,0,0,55.34,146.91Z"/><path class="cls-104" d="M53.14,146.57v1.15a.06.06,0,0,1,0,.06h-.65a0,0,0,0,1,0-.05v-1.17a0,0,0,0,1,0,0h.65A0,0,0,0,1,53.14,146.57Z"/><path class="cls-105" d="M55.34,146.56v1.17a0,0,0,0,1,0,.05h-.65a.06.06,0,0,1,0-.06v-1.15a0,0,0,0,1,0,0h.65A0,0,0,0,1,55.34,146.56Z"/><path class="cls-106" d="M54.59,146.57v1.15s0,.06,0,.06H53.19s0,0,0-.06v-1.15a0,0,0,0,1,0,0h1.36A0,0,0,0,1,54.59,146.57Z"/><rect class="cls-107" x="54.59" y="146.57" width="0.01" height="1.15"/><rect class="cls-108" x="53.14" y="146.57" width="0.01" height="1.15"/><path class="cls-109" d="M55.45,148.74H52.27a.08.08,0,0,1-.09-.07v-.8a.08.08,0,0,1,.09-.07h3.18a.08.08,0,0,1,.09.07v.8A.08.08,0,0,1,55.45,148.74Z"/><path class="cls-110" d="M55.45,147.94H52.27a.08.08,0,0,1-.09-.07h0a.08.08,0,0,1,.09-.07h3.18a.08.08,0,0,1,.09.07h0A.08.08,0,0,1,55.45,147.94Z"/><path class="cls-7" d="M64.72,145.27a0,0,0,0,0,0,0,0,0,0,0,0-.05,0H63.25a0,0,0,1,1-.08,0h-.65s0,0,0,0v1.16s0,.05,0,.05h.65a0,0,0,1,1,.08,0h1.38a0,0,0,0,0,.05-.05,0,0,0,0,0,0,.05h.65a0,0,0,0,0,0-.05v-1.16a0,0,0,0,0,0,0Z"/><path class="cls-8" d="M62.48,146.16v.33s0,0,0,0a13.67,13.67,0,0,0,2.86,0,0,0,0,0,0,0,0v-.33a0,0,0,0,0,0,0H62.52A0,0,0,0,0,62.48,146.16Z"/><path class="cls-111" d="M65.41,145.66v-.35a0,0,0,0,0,0-.05,12.43,12.43,0,0,0-2.86,0s0,0,0,.05v.35s0,.05,0,.05h2.85A0,0,0,0,0,65.41,145.66Z"/><path class="cls-112" d="M65.41,145.66v-.35a0,0,0,0,0,0-.05,22.74,22.74,0,0,0-2.86,0s0,0,0,.05v.35s0,.05,0,.05h2.85A0,0,0,0,0,65.41,145.66Z"/><path class="cls-113" d="M63.21,145.32v1.16a0,0,0,0,1,0,.05h-.65s0,0,0-.05v-1.16s0,0,0,0h.65A0,0,0,0,1,63.21,145.32Z"/><path class="cls-114" d="M65.41,145.32v1.16a0,0,0,0,1,0,.05h-.65a0,0,0,0,1,0-.05v-1.16a0,0,0,0,1,0,0h.65A0,0,0,0,1,65.41,145.32Z"/><path class="cls-115" d="M64.66,145.32v1.16a0,0,0,0,1,0,.05H63.27a0,0,0,0,1-.05-.05v-1.16a0,0,0,0,1,.05,0h1.35A0,0,0,0,1,64.66,145.32Z"/><rect class="cls-116" x="64.66" y="145.32" width="0.01" height="1.15"/><rect class="cls-117" x="63.21" y="145.32" width="0.01" height="1.15"/><rect class="cls-118" x="62.25" y="146.55" width="3.36" height="0.95" rx="0.09"/><path class="cls-119" d="M65.52,146.7H62.34a.09.09,0,0,1-.09-.08h0a.08.08,0,0,1,.09-.07h3.18a.08.08,0,0,1,.09.07h0A.09.09,0,0,1,65.52,146.7Z"/><path class="cls-7" d="M82,136.61s0,0,0,.06a.06.06,0,0,0,0-.06H80.53s0,0,0,.06,0-.06,0-.06H79.8a0,0,0,0,0,0,0v1.17s0,0,0,0h.65s0,0,0-.06,0,.06,0,.06h1.38a.06.06,0,0,0,0-.06s0,.06,0,.06h.65s0,0,0,0v-1.17a0,0,0,0,0,0,0Z"/><path class="cls-8" d="M79.76,137.51v.33a.05.05,0,0,0,0,0,15.18,15.18,0,0,0,2.86,0,.07.07,0,0,0,0,0v-.33a0,0,0,0,0,0,0H79.8A0,0,0,0,0,79.76,137.51Z"/><path class="cls-120" d="M82.69,137v-.36a0,0,0,0,0,0-.05,12.43,12.43,0,0,0-2.86,0s0,0,0,.05V137s0,.05,0,.05h2.85S82.69,137,82.69,137Z"/><path class="cls-121" d="M82.69,137v-.36a0,0,0,0,0,0-.05,27.28,27.28,0,0,0-2.86,0s0,0,0,.05V137s0,.05,0,.05h2.85S82.69,137,82.69,137Z"/><path class="cls-122" d="M80.49,136.67v1.15s0,.06,0,.06H79.8s0,0,0,0v-1.17a0,0,0,0,1,0,0h.65S80.49,136.64,80.49,136.67Z"/><path class="cls-123" d="M82.69,136.66v1.17s0,0,0,0H82s0,0,0-.06v-1.15s0-.06,0-.06h.65A0,0,0,0,1,82.69,136.66Z"/><path class="cls-124" d="M81.94,136.67v1.15s0,.06,0,.06H80.55a.06.06,0,0,1,0-.06v-1.15a.06.06,0,0,1,0-.06H81.9S81.94,136.64,81.94,136.67Z"/><rect class="cls-125" x="81.94" y="136.67" width="0.01" height="1.15"/><rect class="cls-126" x="80.49" y="136.67" width="0.01" height="1.15"/><path class="cls-127" d="M82.8,138.84H79.62a.08.08,0,0,1-.09-.07V138a.08.08,0,0,1,.09-.08H82.8a.08.08,0,0,1,.09.08v.8A.08.08,0,0,1,82.8,138.84Z"/><path class="cls-128" d="M82.8,138H79.62a.08.08,0,0,1-.09-.07h0a.08.08,0,0,1,.09-.08H82.8a.08.08,0,0,1,.09.08h0A.08.08,0,0,1,82.8,138Z"/><path class="cls-7" d="M76.71,141.61s0,0,0,.06a.06.06,0,0,0,0-.06H75.24s0,0,0,.06,0-.06,0-.06h-.65s0,0,0,0v1.17s0,0,0,0h.65s0,0,0-.06,0,.06,0,.06h1.38a.06.06,0,0,0,0-.06s0,.06,0,.06h.65s0,0,0,0v-1.17a0,0,0,0,0,0,0Z"/><path class="cls-8" d="M74.47,142.51v.33a.05.05,0,0,0,0,0,15.18,15.18,0,0,0,2.86,0,.07.07,0,0,0,0,0v-.33a0,0,0,0,0,0,0H74.51S74.47,142.48,74.47,142.51Z"/><path class="cls-129" d="M77.4,142v-.36a0,0,0,0,0,0-.05,12.43,12.43,0,0,0-2.86,0s0,0,0,.05V142s0,.05,0,.05h2.85A0,0,0,0,0,77.4,142Z"/><path class="cls-130" d="M77.4,142v-.36a0,0,0,0,0,0-.05,27.28,27.28,0,0,0-2.86,0s0,0,0,.05V142s0,.05,0,.05h2.85A0,0,0,0,0,77.4,142Z"/><path class="cls-131" d="M75.2,141.67v1.15s0,.06,0,.06h-.65s0,0,0,0v-1.17s0,0,0,0h.65S75.2,141.64,75.2,141.67Z"/><path class="cls-132" d="M77.4,141.66v1.17s0,0,0,0h-.65s0,0,0-.06v-1.15s0-.06,0-.06h.65A0,0,0,0,1,77.4,141.66Z"/><path class="cls-133" d="M76.65,141.67v1.15s0,.06,0,.06H75.26a.06.06,0,0,1-.05-.06v-1.15a.06.06,0,0,1,.05-.06h1.35S76.65,141.64,76.65,141.67Z"/><rect class="cls-134" x="76.65" y="141.67" width="0.01" height="1.15"/><rect class="cls-135" x="75.2" y="141.67" width="0.01" height="1.15"/><path class="cls-136" d="M77.51,143.84H74.33a.08.08,0,0,1-.09-.07V143a.09.09,0,0,1,.09-.08h3.18a.09.09,0,0,1,.09.08v.8A.08.08,0,0,1,77.51,143.84Z"/><path class="cls-137" d="M77.51,143H74.33a.08.08,0,0,1-.09-.07h0a.09.09,0,0,1,.09-.08h3.18a.09.09,0,0,1,.09.08h0A.08.08,0,0,1,77.51,143Z"/><path class="cls-7" d="M43.1,146.65a0,0,0,1,1-.08,0H41.64a0,0,0,0,0,0,0,0,0,0,0,0,0,0H40.9a0,0,0,0,0,0,0v1.16a0,0,0,0,0,0,0h.65a0,0,0,0,0,0,0,0,0,0,0,0,0,0H43a0,0,0,1,1,.08,0h.65a0,0,0,0,0,0,0V146.7a0,0,0,0,0,0,0Z"/><path class="cls-8" d="M40.86,147.55v.32a0,0,0,0,0,0,0,13.67,13.67,0,0,0,2.86,0s0,0,0,0v-.32a0,0,0,0,0,0-.05H40.9A0,0,0,0,0,40.86,147.55Z"/><path class="cls-138" d="M43.79,147.05v-.36s0-.05,0-.05a12.43,12.43,0,0,0-2.86,0,0,0,0,0,0,0,.05v.36a0,0,0,0,0,0,0h2.85A0,0,0,0,0,43.79,147.05Z"/><path class="cls-139" d="M43.79,147.05v-.36s0-.05,0-.05a27.28,27.28,0,0,0-2.86,0,0,0,0,0,0,0,.05v.36a0,0,0,0,0,0,0h2.85A0,0,0,0,0,43.79,147.05Z"/><path class="cls-140" d="M41.59,146.7v1.16a0,0,0,0,1,0,0H40.9a0,0,0,0,1,0,0V146.7a0,0,0,0,1,0,0h.65A0,0,0,0,1,41.59,146.7Z"/><path class="cls-141" d="M43.79,146.7v1.16a0,0,0,0,1,0,0H43.1a0,0,0,0,1,0,0V146.7a0,0,0,0,1,0,0h.65A0,0,0,0,1,43.79,146.7Z"/><path class="cls-142" d="M43.05,146.7v1.16a0,0,0,0,1,0,0H41.65s0,0,0,0V146.7s0,0,0,0H43A0,0,0,0,1,43.05,146.7Z"/><rect class="cls-143" x="43.05" y="146.7" width="0.01" height="1.15"/><rect class="cls-144" x="41.59" y="146.7" width="0.01" height="1.15"/><path class="cls-145" d="M43.91,148.88H40.72a.07.07,0,0,1-.08-.08V148a.07.07,0,0,1,.08-.07h3.19A.08.08,0,0,1,44,148v.8A.08.08,0,0,1,43.91,148.88Z"/><path class="cls-146" d="M43.91,148.08H40.72a.08.08,0,0,1-.08-.08h0a.07.07,0,0,1,.08-.07h3.19A.08.08,0,0,1,44,148h0A.09.09,0,0,1,43.91,148.08Z"/><path class="cls-7" d="M33,145.76a0,0,0,0,0,0,.05,0,0,0,0,0-.05-.05H31.56a0,0,0,1,1-.08,0h-.65a0,0,0,0,0,0,0V147s0,.05,0,.05h.65s0,0,0-.06,0,.06,0,.06h1.38A.06.06,0,0,0,33,147s0,.06,0,.06h.65a0,0,0,0,0,0-.05V145.8a0,0,0,0,0,0,0Z"/><path class="cls-8" d="M30.79,146.65V147s0,.05,0,.05a14.39,14.39,0,0,0,2.86,0,0,0,0,0,0,0-.05v-.33s0-.05,0-.05H30.83S30.79,146.63,30.79,146.65Z"/><path class="cls-147" d="M33.72,146.15v-.36a0,0,0,0,0,0,0,11.9,11.9,0,0,0-2.86,0s0,0,0,0v.36s0,0,0,0h2.85A0,0,0,0,0,33.72,146.15Z"/><path class="cls-148" d="M33.72,146.15v-.36a0,0,0,0,0,0,0,22.74,22.74,0,0,0-2.86,0s0,0,0,0v.36s0,0,0,0h2.85A0,0,0,0,0,33.72,146.15Z"/><path class="cls-149" d="M31.52,145.81V147s0,.06,0,.06h-.65s0,0,0-.05V145.8a0,0,0,0,1,0,0h.65A0,0,0,0,1,31.52,145.81Z"/><path class="cls-150" d="M33.72,145.8V147a0,0,0,0,1,0,.05H33s0,0,0-.06v-1.15a0,0,0,0,1,0-.05h.65A0,0,0,0,1,33.72,145.8Z"/><path class="cls-151" d="M33,145.81V147s0,.06,0,.06H31.58a.06.06,0,0,1,0-.06v-1.15a0,0,0,0,1,0-.05h1.35A0,0,0,0,1,33,145.81Z"/><rect class="cls-152" x="32.97" y="145.81" width="0.01" height="1.15"/><rect class="cls-153" x="31.52" y="145.81" width="0.01" height="1.15"/><path class="cls-154" d="M33.83,148H30.65a.09.09,0,0,1-.09-.08v-.8a.08.08,0,0,1,.09-.07h3.18a.08.08,0,0,1,.09.07v.8A.09.09,0,0,1,33.83,148Z"/><path class="cls-155" d="M33.83,147.18H30.65a.08.08,0,0,1-.09-.07h0a.08.08,0,0,1,.09-.07h3.18a.08.08,0,0,1,.09.07h0A.08.08,0,0,1,33.83,147.18Z"/><path class="cls-7" d="M21.87,143s0,0,0,.06,0-.06,0-.06H20.41a.06.06,0,0,0-.05.06s0-.06,0-.06h-.65a0,0,0,0,0,0,0v1.17s0,0,0,0h.65s0,0,0-.06a.06.06,0,0,0,.05.06h1.38s0,0,0-.06,0,.06,0,.06h.65s0,0,0,0V143s0,0,0,0Z"/><path class="cls-8" d="M19.63,143.89v.33a.07.07,0,0,0,0,.05,15.18,15.18,0,0,0,2.86,0,.05.05,0,0,0,0-.05v-.33s0,0,0,0H19.67A0,0,0,0,0,19.63,143.89Z"/><path class="cls-156" d="M22.56,143.39V143s0-.05,0-.05a12.43,12.43,0,0,0-2.86,0,0,0,0,0,0,0,.05v.36a0,0,0,0,0,0,.05h2.85S22.56,143.42,22.56,143.39Z"/><path class="cls-157" d="M22.56,143.39V143s0-.05,0-.05a27.28,27.28,0,0,0-2.86,0,0,0,0,0,0,0,.05v.36a0,0,0,0,0,0,.05h2.85S22.56,143.42,22.56,143.39Z"/><path class="cls-158" d="M20.36,143.05v1.15s0,.06,0,.06h-.65s0,0,0,0V143a0,0,0,0,1,0,0h.65S20.36,143,20.36,143.05Z"/><path class="cls-159" d="M22.56,143v1.17s0,0,0,0h-.65s0,0,0-.06v-1.15s0-.06,0-.06h.65S22.56,143,22.56,143Z"/><path class="cls-160" d="M21.82,143.05v1.15s0,.06,0,.06H20.42s0,0,0-.06v-1.15s0-.06,0-.06h1.36S21.82,143,21.82,143.05Z"/><rect class="cls-161" x="21.82" y="143.05" width="0.01" height="1.15"/><rect class="cls-162" x="20.36" y="143.05" width="0.01" height="1.15"/><path class="cls-163" d="M22.68,145.22H19.49a.08.08,0,0,1-.08-.07v-.8a.09.09,0,0,1,.08-.08h3.19a.09.09,0,0,1,.08.08v.8A.08.08,0,0,1,22.68,145.22Z"/><path class="cls-164" d="M22.68,144.42H19.49a.08.08,0,0,1-.08-.07h0a.09.09,0,0,1,.08-.08h3.19a.09.09,0,0,1,.08.08h0A.08.08,0,0,1,22.68,144.42Z"/><path class="cls-7" d="M14.6,137.55a.06.06,0,0,0,0,.06s0-.06,0-.06H13.13a.06.06,0,0,0-.05.06s0-.06,0-.06h-.65s0,0,0,0v1.17a0,0,0,0,0,0,0H13s0,0,0-.06a.06.06,0,0,0,.05.06h1.38s0,0,0-.06a.06.06,0,0,0,0,.06h.65s0,0,0,0V137.6s0,0,0,0Z"/><path class="cls-8" d="M12.35,138.45v.33a0,0,0,0,0,0,.05,15.18,15.18,0,0,0,2.86,0s0,0,0-.05v-.33s0,0,0,0H12.39A0,0,0,0,0,12.35,138.45Z"/><path class="cls-165" d="M15.28,138v-.36a.05.05,0,0,0,0-.05,12.43,12.43,0,0,0-2.86,0,.07.07,0,0,0,0,.05V138a0,0,0,0,0,0,.05h2.86S15.28,138,15.28,138Z"/><path class="cls-166" d="M15.28,138v-.36a.05.05,0,0,0,0-.05,27.28,27.28,0,0,0-2.86,0,.07.07,0,0,0,0,.05V138a0,0,0,0,0,0,.05h2.86S15.28,138,15.28,138Z"/><path class="cls-167" d="M13.08,137.61v1.15s0,.06,0,.06h-.65a0,0,0,0,1,0,0V137.6s0,0,0,0H13S13.08,137.58,13.08,137.61Z"/><path class="cls-168" d="M15.28,137.6v1.17s0,0,0,0H14.6a.06.06,0,0,1,0-.06v-1.15a.06.06,0,0,1,0-.06h.65S15.28,137.58,15.28,137.6Z"/><path class="cls-169" d="M14.54,137.61v1.15s0,.06,0,.06H13.14s0,0,0-.06v-1.15s0-.06,0-.06H14.5S14.54,137.58,14.54,137.61Z"/><rect class="cls-170" x="14.54" y="137.61" width="0.01" height="1.15"/><rect class="cls-171" x="13.09" y="137.61" width="0.01" height="1.15"/><path class="cls-172" d="M15.4,139.78H12.21a.08.08,0,0,1-.08-.07v-.8a.09.09,0,0,1,.08-.08H15.4a.08.08,0,0,1,.08.08v.8A.07.07,0,0,1,15.4,139.78Z"/><path class="cls-173" d="M15.4,139H12.21a.08.08,0,0,1-.08-.07h0a.09.09,0,0,1,.08-.08H15.4a.08.08,0,0,1,.08.08h0A.07.07,0,0,1,15.4,139Z"/><ellipse class="cls-174" cx="47.06" cy="136.82" rx="31.42" ry="9.17"/><ellipse class="cls-175" cx="47.06" cy="130.53" rx="31.42" ry="9.17"/><rect class="cls-100" x="15.63" y="125.48" width="2.52" height="11.87"/><rect class="cls-3" x="75.96" y="125.48" width="2.52" height="11.87"/><ellipse class="cls-176" cx="47.06" cy="125.82" rx="31.42" ry="9.17"/><path class="cls-177" d="M74.55,29.11H20.48V121h-.24v7.82c7.11,2.14,16.81,4.57,27.28,4.57a79.16,79.16,0,0,0,27-4.51Z"/><path class="cls-178" d="M74.55,29.11h-19c0,.55.1,1.09.17,1.61,2.61,18.37,1.53,55.41-.88,73.81C53.65,113.88,44.73,121,34.08,121H20.24v7.82c8.1,2.43,16.81,4.57,27.28,4.57a79.72,79.72,0,0,0,27-4.51Z"/><path class="cls-179" d="M74.1,118.45c-1.48-.35-14.56-.66-16.12-.91-6.95-1.1-2.74-1.42-10-1.56a134.37,134.37,0,0,0-17.65.56A51.06,51.06,0,0,0,20,118.74v6.42c2.3-.17,4.6-.36,6.9-.5,6.54-.37,13.13-.56,19.71-.4-2.12-.06,7.63-1.49,27.47,3.34Z"/><path class="cls-177" d="M47.06,112.1c-33.87,0-36.63,7.05-36.63,7.05v3.95h74.3v-3.95S80.93,112.1,47.06,112.1Z"/><path class="cls-178" d="M62,119.59a151.35,151.35,0,0,1-21,.85l-17.81-.09c-5.22,0-4.14,0-9.37-.07-3.23,0-.22-.21-3.46-.26v3.08h74.3v-3.95s-6-2.76-18.83-4.83C62.46,117,68.2,118.75,62,119.59Z"/><path class="cls-180" d="M58.55,114.42l1.08.1c-23.38-3.09-25-1.52-46.12,4.3C35.89,114.72,35.09,112.26,58.55,114.42Z"/><path class="cls-179" d="M74.1,104.93c-1.48-.35-14.56-.67-16.12-.91-6.95-1.1-2.74-1.42-10-1.56a132.67,132.67,0,0,0-17.65.56A51.06,51.06,0,0,0,20,105.22v6.42c2.3-.17,4.6-.37,6.9-.5,6.54-.38,13.13-.57,19.71-.41a130.89,130.89,0,0,1,27.47,3.35Z"/><path class="cls-177" d="M47.06,98.57c-33.87,0-36.63,7.06-36.63,7.06v4h74.3v-4S80.93,98.57,47.06,98.57Z"/><path class="cls-178" d="M62,106.07a152.92,152.92,0,0,1-21,.85l-17.81-.09c-5.22,0-4.14,0-9.37-.08-3.23,0-.22-.2-3.46-.25v3.08h74.3v-4s-6-2.77-18.83-4.83C62.46,103.45,68.2,105.23,62,106.07Z"/><path class="cls-180" d="M58.55,100.9l1.08.1c-23.38-3.09-25-1.52-46.12,4.3C35.89,101.2,35.09,98.74,58.55,100.9Z"/><path class="cls-179" d="M74.1,91.41c-1.48-.35-14.56-.67-16.12-.91-6.95-1.1-2.74-1.42-10-1.56a132.67,132.67,0,0,0-17.65.56A51.06,51.06,0,0,0,20,91.7v6.42c2.3-.17,4.6-.37,6.9-.5,6.54-.38,13.13-.57,19.71-.41a130.89,130.89,0,0,1,27.47,3.35Z"/><path class="cls-177" d="M47.06,85.05c-33.87,0-36.63,7-36.63,7v4h74.3v-4S80.93,85.05,47.06,85.05Z"/><path class="cls-178" d="M50.45,92.55a154.38,154.38,0,0,1-20.94.85c-5.94,0-.31-.06-6.25-.09-5.22,0-4.14,0-9.37-.08-3.23,0-.22-.2-3.46-.25v3.07h74.3v-4s-6-2.76-18.83-4.82C62.46,89.92,56.64,91.71,50.45,92.55Z"/><path class="cls-180" d="M58.55,87.38l1.08.1c-23.38-3.1-25-1.52-46.12,4.3C35.89,87.67,35.09,85.22,58.55,87.38Z"/><path class="cls-179" d="M74.62,77.89c-1.48-.36-14.56-.67-16.11-.92-7-1.1-2.75-1.41-10-1.55A134.38,134.38,0,0,0,30.82,76a51.86,51.86,0,0,0-10.28,2.2V84.6c2.31-.17,4.61-.37,6.91-.5,6.53-.38,13.13-.57,19.7-.41A131.56,131.56,0,0,1,74.62,87Z"/><path class="cls-177" d="M47.58,71.53c-33.87,0-36.62,7-36.62,7v4h74.3v-4S81.45,71.53,47.58,71.53Z"/><path class="cls-178" d="M62.54,79a152.77,152.77,0,0,1-20.94.86l-17.81-.09c-5.23,0-4.15-.05-9.38-.08-3.22,0-.22-.2-3.45-.25v3.07h74.3v-4s-6-2.76-18.83-4.83C63,76.4,68.73,78.19,62.54,79Z"/><path class="cls-180" d="M59.07,73.86l1.08.1C36.77,70.86,35.2,72.44,14,78.26,36.41,74.15,35.62,71.7,59.07,73.86Z"/><path class="cls-179" d="M74.1,64.37C72.62,64,59.54,63.7,58,63.45c-6.95-1.1-2.74-1.42-10-1.55a132.67,132.67,0,0,0-17.65.55A51.76,51.76,0,0,0,20,64.65v6.42c2.3-.17,4.6-.36,6.9-.49,6.54-.38,13.13-.57,19.71-.41A131.56,131.56,0,0,1,74.1,73.51Z"/><path class="cls-177" d="M47.06,58c-33.87,0-36.63,7.05-36.63,7.05v4h74.3v-4S80.93,58,47.06,58Z"/><path class="cls-178" d="M62,65.5a152.91,152.91,0,0,1-21,.86l-17.81-.09c-5.22,0-4.14,0-9.37-.08-3.23,0-.22-.2-3.46-.25V69h74.3v-4s-6-2.76-18.83-4.83C62.46,62.88,68.2,64.67,62,65.5Z"/><path class="cls-180" d="M58.55,60.34l1.08.1c-23.38-3.1-25-1.52-46.12,4.29C35.89,60.63,35.09,58.18,58.55,60.34Z"/><path class="cls-179" d="M74.1,50.84c-1.48-.35-14.56-.66-16.12-.91-6.95-1.1-2.74-1.42-10-1.56a134.37,134.37,0,0,0-17.65.56A51.76,51.76,0,0,0,20,51.13v6.42c2.3-.17,4.6-.36,6.9-.49,6.54-.38,13.13-.57,19.71-.41A131.56,131.56,0,0,1,74.1,60Z"/><path class="cls-177" d="M47.06,44.49c-33.87,0-36.63,7-36.63,7v4h74.3v-4S80.93,44.49,47.06,44.49Z"/><path class="cls-178" d="M62,52a151.35,151.35,0,0,1-21,.85l-17.81-.08c-5.22,0-4.14-.06-9.37-.08-3.23,0-.22-.21-3.46-.25v3.07h74.3v-4s-6-2.76-18.83-4.83C62.46,49.36,68.2,51.14,62,52Z"/><path class="cls-180" d="M58.55,46.81l1.08.1c-23.38-3.09-25-1.52-46.12,4.3C35.89,47.11,35.09,44.65,58.55,46.81Z"/><rect class="cls-181" x="16.43" y="11.16" width="6.82" height="3.88"/><path class="cls-182" d="M23.25,11.16H21.89c-.08.31-.1.65-.17,1A3.15,3.15,0,0,1,19,14.34a5.61,5.61,0,0,1-2-.14,6.13,6.13,0,0,1-.58-.21v1h6.82Z"/><path class="cls-183" d="M16.43,12.46a6.81,6.81,0,0,0,2.31.83,13.49,13.49,0,0,0,3.36,0,5,5,0,0,0,1.15-.2v-2H16.43Z"/><path class="cls-181" d="M19.84,0a6.52,6.52,0,1,0,6.52,6.52A6.52,6.52,0,0,0,19.84,0Zm0,10.37a3.85,3.85,0,1,1,3.85-3.85A3.86,3.86,0,0,1,19.84,10.37Z"/><g class="cls-184"><path class="cls-181" d="M16,6.52A3.84,3.84,0,0,1,22.65,3.9,3.84,3.84,0,1,0,16.5,8.39,3.85,3.85,0,0,1,16,6.52Z"/><path class="cls-181" d="M24.86,2.4A6.49,6.49,0,0,1,14.28,9.88,6.5,6.5,0,1,0,24.86,2.4Z"/></g><g class="cls-185"><path class="cls-181" d="M20.27,10.79A3.83,3.83,0,0,0,22.75,4a3.8,3.8,0,0,1,.94,2.49,3.86,3.86,0,0,1-3.85,3.85,3.77,3.77,0,0,1-2.48-.94A3.79,3.79,0,0,0,20.27,10.79Z"/><path class="cls-181" d="M13.75,7A6.5,6.5,0,0,1,24.64,2.14a6.5,6.5,0,1,0-9.17,9.18A6.45,6.45,0,0,1,13.75,7Z"/></g><rect class="cls-181" x="70.86" y="11.16" width="6.82" height="3.88"/><path class="cls-182" d="M77.68,11.16H76.32c-.08.31-.1.65-.17,1a3.15,3.15,0,0,1-2.71,2.21,5.61,5.61,0,0,1-2-.14,6.13,6.13,0,0,1-.58-.21v1h6.82Z"/><path class="cls-183" d="M70.86,12.46a6.81,6.81,0,0,0,2.31.83,13.49,13.49,0,0,0,3.36,0,5,5,0,0,0,1.15-.2v-2H70.86Z"/><path class="cls-181" d="M74.27,0a6.52,6.52,0,1,0,6.52,6.52A6.52,6.52,0,0,0,74.27,0Zm0,10.37a3.85,3.85,0,1,1,3.85-3.85A3.86,3.86,0,0,1,74.27,10.37Z"/><g class="cls-184"><path class="cls-181" d="M70.42,6.52A3.84,3.84,0,0,1,77.08,3.9a3.84,3.84,0,1,0-6.15,4.49A3.85,3.85,0,0,1,70.42,6.52Z"/><path class="cls-181" d="M79.29,2.4A6.49,6.49,0,0,1,68.71,9.88,6.5,6.5,0,1,0,79.29,2.4Z"/></g><g class="cls-185"><path class="cls-181" d="M74.7,10.79A3.83,3.83,0,0,0,77.18,4a3.8,3.8,0,0,1,.94,2.49,3.83,3.83,0,0,1-6.34,2.91A3.83,3.83,0,0,0,74.7,10.79Z"/><path class="cls-181" d="M68.18,7A6.5,6.5,0,0,1,79.07,2.14a6.5,6.5,0,1,0-9.17,9.18A6.45,6.45,0,0,1,68.18,7Z"/></g><path class="cls-186" d="M82.06,28.84h-70c-1,0-1.89-.48-1.89-1.06V16.19c0-.59.85-1.07,1.89-1.07h70c1,0,1.89.48,1.89,1.07V27.78C84,28.36,83.11,28.84,82.06,28.84Z"/><path class="cls-187" d="M73.46,42.64H20.74c-.79,0-1.42-.48-1.42-1.07V30c0-.59.63-1.07,1.42-1.07H73.46c.79,0,1.42.48,1.42,1.07V41.57C74.88,42.16,74.25,42.64,73.46,42.64Z"/><path class="cls-182" d="M74.88,30.51V29.9c0-.59-.63-1.07-1.42-1.07H20.74c-.79,0-1.42.48-1.42,1.07v.61Z"/><polygon class="cls-2" points="82.03 240.68 73.97 237.39 73.97 226.79 79.19 228.92 82.03 233.96 82.03 240.68"/><polygon class="cls-2" points="73.97 226.79 73.22 227.07 74.26 228.05 74.38 227.27 73.97 226.79"/><polygon class="cls-2" points="82.03 240.68 81.28 240.96 80.89 239.89 82.03 240.68"/><path class="cls-3" d="M78.44,229.2l-5.22-2.13v10.6L81.28,241v-6.72Zm-1.19,5.19a2,2,0,0,1-1.19-1.67c0-.66.53-1,1.19-.7a2,2,0,0,1,1.19,1.67C78.44,234.34,77.91,234.66,77.25,234.39Z"/><polygon class="cls-2" points="12.08 240.68 20.15 237.39 20.15 226.79 14.93 228.92 12.08 233.96 12.08 240.68"/><polygon class="cls-2" points="20.15 226.79 20.9 227.07 19.85 228.05 19.73 227.27 20.15 226.79"/><polygon class="cls-2" points="12.08 240.68 12.83 240.96 13.22 239.89 12.08 240.68"/><path class="cls-3" d="M12.83,234.24V241l8.07-3.29v-10.6l-5.22,2.13Zm2.85-.55A2,2,0,0,1,16.86,232c.66-.27,1.19,0,1.19.7a2,2,0,0,1-1.19,1.67C16.21,234.66,15.68,234.34,15.68,233.69Z"/><path class="cls-188" d="M60.66,186.73v-4.2a2.36,2.36,0,0,1,2.52,2.17v4.21A2.37,2.37,0,0,0,60.66,186.73Z"/><path class="cls-188" d="M30.93,188.91V184.7a2.36,2.36,0,0,1,2.52-2.17v4.2A2.37,2.37,0,0,0,30.93,188.91Z"/><rect class="cls-188" x="33.45" y="182.53" width="27.21" height="4.2"/><path class="cls-189" d="M60.66,186.73a2.37,2.37,0,0,1,2.52,2.18v23.57a2.37,2.37,0,0,1-2.52,2.17H33.45a2.37,2.37,0,0,1-2.52-2.17V188.91a2.37,2.37,0,0,1,2.52-2.18Z"/><path class="cls-190" d="M59.12,188.32a2.09,2.09,0,0,1,2.23,1.92v20.9a2.1,2.1,0,0,1-2.23,1.93H35a2.1,2.1,0,0,1-2.23-1.93v-20.9A2.09,2.09,0,0,1,35,188.32Z"/><circle class="cls-189" cx="47.06" cy="200.87" r="11.33"/><circle class="cls-191" cx="47.06" cy="200.87" r="8.26"/><circle class="cls-191" cx="47.06" cy="200.87" r="5.19"/><circle class="cls-189" cx="47.06" cy="200.87" r="0.87"/><circle class="cls-189" cx="47.06" cy="194.49" r="0.87"/><circle class="cls-189" cx="47.06" cy="207.4" r="0.87"/><circle class="cls-189" cx="41.86" cy="196.46" r="0.87"/><circle class="cls-189" cx="40.53" cy="199.06" r="0.87"/><circle class="cls-189" cx="52.35" cy="196.46" r="0.87"/><circle class="cls-189" cx="53.69" cy="199.06" r="0.87"/><rect class="cls-192" x="29.32" y="191.32" width="1.65" height="4.99"/><rect class="cls-193" x="29.32" y="204.69" width="1.65" height="4.99"/><path class="cls-189" d="M27.2,186.55c1.51-.82,2.73-.43,2.73.86V213a5.19,5.19,0,0,1-2.73,3.85L15.57,227.23c-1.5.82-2.72.43-2.72-.86V200.81c0-1.73,1.45-2.95,2.71-3.92.86-.66,1.65-1.39,2.46-2.12l6-5.34,2.29-2.06A6.5,6.5,0,0,1,27.2,186.55Z"/><path class="cls-190" d="M26.58,188.11c1.4-.76,2.52-.4,2.52.8v23.57A4.8,4.8,0,0,1,26.58,216l-10.39,9.64c-1.39.76-2.51.4-2.51-.79V201.3c0-1.72,1.52-2.74,2.7-3.74.72-.61,1.39-1.27,2.08-1.91l5.67-5.26,1.76-1.63A3.86,3.86,0,0,1,26.58,188.11Z"/></g></g></g></svg>