<?xml version="1.0" encoding="UTF-8" standalone="no"?>
<svg
   xmlns:dc="http://purl.org/dc/elements/1.1/"
   xmlns:cc="http://creativecommons.org/ns#"
   xmlns:rdf="http://www.w3.org/1999/02/22-rdf-syntax-ns#"
   xmlns:svg="http://www.w3.org/2000/svg"
   xmlns="http://www.w3.org/2000/svg"
   xmlns:sodipodi="http://sodipodi.sourceforge.net/DTD/sodipodi-0.dtd"
   xmlns:inkscape="http://www.inkscape.org/namespaces/inkscape"
   version="1.1"
   id="图层_1"
   x="0px"
   y="0px"
   width="95px"
   height="40px"
   viewBox="0 0 95 40"
   enable-background="new 0 0 95 40"
   xml:space="preserve"
   sodipodi:docname="电机_10-01.svg"><metadata
   id="metadata85"><rdf:RDF><cc:Work
       rdf:about=""><dc:format>image/svg+xml</dc:format><dc:type
         rdf:resource="http://purl.org/dc/dcmitype/StillImage" /></cc:Work></rdf:RDF></metadata><defs
   id="defs83" /><sodipodi:namedview
   pagecolor="#ffffff"
   bordercolor="#666666"
   borderopacity="1"
   objecttolerance="10"
   gridtolerance="10"
   guidetolerance="10"
   inkscape:pageopacity="0"
   inkscape:pageshadow="2"
   inkscape:window-width="640"
   inkscape:window-height="480"
   id="namedview81" />
<g
   id="g78">
	<g
   id="g16">
		<g
   id="g12">
			<path
   fill="#999999"
   d="M52.312,0.5c-0.429,0-0.855,0.009-1.279,0.025C50.948,0.521,50.87,0.5,50.785,0.5H5.483     C2.73,0.5,0.5,2.746,0.5,5.516v28.969c0,2.77,2.23,5.016,4.983,5.016h45.302c0.085,0,0.163-0.021,0.247-0.025     c0.424,0.016,0.851,0.025,1.279,0.025c13.91,0,22.596-8.73,22.596-19.5S66.222,0.5,52.312,0.5z"
   id="path2" />
			<path
   fill="#ACACAC"
   d="M52.312,4.705c-0.429,0-0.855,0.007-1.279,0.02c-0.084-0.003-0.162-0.02-0.247-0.02H5.483     C2.73,4.705,0.5,6.467,0.5,8.639v22.723c0,2.172,2.23,3.934,4.983,3.934h45.302c0.085,0,0.163-0.017,0.247-0.02     c0.424,0.012,0.851,0.02,1.279,0.02c13.91,0,22.596-6.848,22.596-15.295S66.222,4.705,52.312,4.705z"
   id="path4" />
			<path
   fill="#BFBFBF"
   d="M52.312,8.91c-0.429,0-0.855,0.005-1.279,0.014C50.948,8.922,50.87,8.91,50.785,8.91H5.483     C2.73,8.91,0.5,10.188,0.5,11.762v16.476c0,1.574,2.23,2.852,4.983,2.852h45.302c0.085,0,0.163-0.012,0.247-0.014     c0.424,0.008,0.851,0.014,1.279,0.014c13.91,0,22.596-4.965,22.596-11.09S66.222,8.91,52.312,8.91z"
   id="path6" />
			<path
   fill="#D2D2D2"
   d="M52.312,13.115c-0.429,0-0.855,0.003-1.279,0.009c-0.084-0.001-0.162-0.009-0.247-0.009H5.483     c-2.753,0-4.983,0.793-4.983,1.771v10.229c0,0.978,2.23,1.771,4.983,1.771h45.302c0.085,0,0.163-0.008,0.247-0.009     c0.424,0.006,0.851,0.009,1.279,0.009c13.91,0,22.596-3.082,22.596-6.885S66.222,13.115,52.312,13.115z"
   id="path8" />
			<path
   fill="#E6E6E6"
   d="M52.312,17.32c-0.429,0-0.855,0.001-1.279,0.003c-0.084,0-0.162-0.003-0.247-0.003H5.483     c-2.753,0-4.983,0.309-4.983,0.688v3.982c0,0.38,2.23,0.688,4.983,0.688h45.302c0.085,0,0.163-0.003,0.247-0.003     c0.424,0.002,0.851,0.003,1.279,0.003c13.91,0,22.596-1.199,22.596-2.68S66.222,17.32,52.312,17.32z"
   id="path10" />
		</g>
		<path
   d="M52.312,40c-0.436,0-0.867-0.01-1.299-0.025C50.925,39.991,50.856,40,50.785,40H5.483C2.46,40,0,37.525,0,34.484V5.516    C0,2.475,2.46,0,5.483,0h45.302c0.071,0,0.141,0.008,0.208,0.018C51.444,0.009,51.876,0,52.312,0c13.383,0,23.096,8.411,23.096,20    C75.407,31.588,65.694,40,52.312,40z M51.009,38.975C51.47,38.99,51.89,39,52.312,39c13.01,0,22.096-7.813,22.096-19    c0-11.188-9.086-19-22.096-19c-0.422,0-0.842,0.009-1.26,0.024c-0.097-0.002-0.149-0.009-0.201-0.017L5.483,1    C3.011,1,1,3.025,1,5.516v28.969C1,36.974,3.011,39,5.483,39h45.302C50.903,38.984,50.956,38.978,51.009,38.975z"
   id="path14" />
	</g>
	<g
   id="g22">
		<rect
   x="12.984"
   y="0.5"
   fill="#666666"
   width="40.58"
   height="39"
   id="rect18" />
		<path
   d="M54.064,40h-41.58V0h41.58V40z M13.484,39h39.58V1h-39.58V39z"
   id="path20" />
	</g>
	<rect
   x="12.984"
   y="3.421"
   width="42.966"
   height="1.688"
   id="rect24" />
	<rect
   x="12.984"
   y="7.434"
   width="42.966"
   height="1.688"
   id="rect26" />
	<rect
   x="12.984"
   y="11.446"
   width="42.966"
   height="1.688"
   id="rect28" />
	<rect
   x="12.984"
   y="15.459"
   width="42.966"
   height="1.688"
   id="rect30" />
	<rect
   x="12.984"
   y="19.472"
   width="42.966"
   height="1.687"
   id="rect32" />
	<g
   id="g38">
		<rect
   x="12.984"
   y="21.377"
   fill="#999999"
   width="42.966"
   height="1.688"
   id="rect34" />
		<path
   d="M56.45,23.564H12.484v-2.688H56.45V23.564z M13.484,22.564H55.45v-0.688H13.484V22.564z"
   id="path36" />
	</g>
	<g
   id="g44">
		<rect
   x="12.984"
   y="28.859"
   fill="#999999"
   width="42.966"
   height="2.398"
   id="rect40" />
		<path
   d="M56.45,31.758H12.484v-3.398H56.45V31.758z M13.484,30.758H55.45v-1.398H13.484V30.758z"
   id="path42" />
	</g>
	<rect
   x="12.984"
   y="23.484"
   width="42.966"
   height="1.687"
   id="rect46" />
	<rect
   x="12.984"
   y="27.496"
   width="42.966"
   height="1.688"
   id="rect48" />
	<rect
   x="12.984"
   y="31.51"
   width="42.966"
   height="1.687"
   id="rect50" />
	<rect
   x="12.984"
   y="35.521"
   width="42.966"
   height="1.688"
   id="rect52" />
	<g
   id="g58">
		<rect
   x="18.925"
   y="11.446"
   fill="#999999"
   width="18.561"
   height="28.054"
   id="rect54" />
		<path
   d="M37.985,40H18.425V10.946h19.561V40z M19.425,39h17.561V11.946H19.425V39z"
   id="path56" />
	</g>
	<rect
   x="20.642"
   y="13.355"
   fill="#CCCCCC"
   width="16.264"
   height="1.129"
   id="rect60" />
	<rect
   x="20.642"
   y="13.355"
   fill="#CCCCCC"
   width="1.121"
   height="25.776"
   id="rect62" />
	<g
   id="g68">
		<rect
   x="74.907"
   y="16.869"
   fill="#CCCCCC"
   width="2.215"
   height="6.262"
   id="rect64" />
		<path
   d="M77.622,23.631h-3.215v-7.262h3.215V23.631z M75.407,22.631h1.215v-5.262h-1.215V22.631z"
   id="path66" />
	</g>
	<g
   id="g74">
		<rect
   x="77.122"
   y="18.191"
   fill="#666666"
   width="17.378"
   height="3.617"
   id="rect70" />
		<path
   d="M95,22.309H76.622v-4.617H95V22.309z M77.622,21.309H94v-2.617H77.622V21.309z"
   id="path72" />
	</g>
	<rect
   x="77.745"
   y="18.668"
   fill="#CCCCCC"
   width="16.132"
   height="1.057"
   id="rect76" />
</g>
</svg>
