<?xml version="1.0" encoding="UTF-8" standalone="no"?>
<svg
   xmlns:dc="http://purl.org/dc/elements/1.1/"
   xmlns:cc="http://creativecommons.org/ns#"
   xmlns:rdf="http://www.w3.org/1999/02/22-rdf-syntax-ns#"
   xmlns:svg="http://www.w3.org/2000/svg"
   xmlns="http://www.w3.org/2000/svg"
   xmlns:sodipodi="http://sodipodi.sourceforge.net/DTD/sodipodi-0.dtd"
   xmlns:inkscape="http://www.inkscape.org/namespaces/inkscape"
   version="1.1"
   id="图层_1"
   x="0px"
   y="0px"
   width="95px"
   height="41px"
   viewBox="0 0 95 41"
   enable-background="new 0 0 95 41"
   xml:space="preserve"
   sodipodi:docname="电机_11-01.svg"><metadata
   id="metadata129"><rdf:RDF><cc:Work
       rdf:about=""><dc:format>image/svg+xml</dc:format><dc:type
         rdf:resource="http://purl.org/dc/dcmitype/StillImage" /></cc:Work></rdf:RDF></metadata><defs
   id="defs127" /><sodipodi:namedview
   pagecolor="#ffffff"
   bordercolor="#666666"
   borderopacity="1"
   objecttolerance="10"
   gridtolerance="10"
   guidetolerance="10"
   inkscape:pageopacity="0"
   inkscape:pageshadow="2"
   inkscape:window-width="640"
   inkscape:window-height="480"
   id="namedview125" />
<g
   id="g122">
	<g
   id="g16">
		<g
   id="g12">
			<rect
   x="33.439"
   y="2.128"
   fill="#666666"
   width="51.681"
   height="36.832"
   id="rect2" />
			<rect
   x="33.439"
   y="6.097"
   fill="#808080"
   width="51.681"
   height="28.895"
   id="rect4" />
			<rect
   x="33.439"
   y="10.065"
   fill="#999999"
   width="51.681"
   height="20.956"
   id="rect6" />
			<rect
   x="33.439"
   y="14.034"
   fill="#B3B3B3"
   width="51.681"
   height="13.019"
   id="rect8" />
			<rect
   x="33.439"
   y="18.002"
   fill="#CCCCCC"
   width="51.681"
   height="5.082"
   id="rect10" />
		</g>
		<path
   d="M85.62,39.46H32.939V1.628H85.62V39.46z M33.939,38.46H84.62V2.628H33.939V38.46z"
   id="path14" />
	</g>
	<g
   id="g32">
		<g
   id="g28">
			<polygon
   fill="#666666"
   points="33.439,2.128 26.314,6.174 26.314,34.913 33.439,38.96    "
   id="polygon18" />
			<polygon
   fill="#797979"
   points="33.439,6.097 26.314,9.132 26.314,31.956 33.439,34.991    "
   id="polygon20" />
			<polygon
   fill="#8C8C8C"
   points="33.439,10.066 26.314,12.089 26.314,29 33.439,31.023    "
   id="polygon22" />
			<polygon
   fill="#9F9F9F"
   points="33.439,14.035 26.314,15.047 26.314,26.043 33.439,27.055    "
   id="polygon24" />
			<rect
   x="26.314"
   y="18.004"
   fill="#B3B3B3"
   width="7.125"
   height="5.082"
   id="rect26" />
		</g>
		<path
   d="M33.939,39.818l-8.125-4.614V5.883l8.125-4.614V39.818z M26.814,34.622l6.125,3.479V2.987l-6.125,3.479V34.622z"
   id="path30" />
	</g>
	<g
   id="g48">
		<g
   id="g44">
			<polygon
   fill="#666666"
   points="85.12,38.96 94.5,34.913 94.5,6.174 85.12,2.128    "
   id="polygon34" />
			<polygon
   fill="#808080"
   points="85.12,34.991 94.5,31.956 94.5,9.131 85.12,6.097    "
   id="polygon36" />
			<polygon
   fill="#999999"
   points="85.12,31.021 94.5,28.998 94.5,12.088 85.12,10.065    "
   id="polygon38" />
			<polygon
   fill="#B3B3B3"
   points="85.12,27.053 94.5,26.041 94.5,15.045 85.12,14.034    "
   id="polygon40" />
			<rect
   x="85.12"
   y="18.002"
   fill="#CCCCCC"
   width="9.38"
   height="5.082"
   id="rect42" />
		</g>
		<path
   d="M84.62,39.721V1.368L95,5.846v29.396L84.62,39.721z M85.62,2.888v35.311L94,34.584V6.503L85.62,2.888z"
   id="path46" />
	</g>
	<g
   id="g86">
		<g
   id="g60">
			<path
   d="M87.422,9.504H84.62V5.073h2.802V9.504z M85.62,8.504h0.802V6.073H85.62V8.504z"
   id="path50" />
			<g
   id="g58">
				<rect
   x="85.12"
   y="5.574"
   fill="#7F7F7F"
   width="1.802"
   height="3.43"
   id="rect52" />
				<rect
   x="85.12"
   y="6.31"
   fill="#9D9D9D"
   width="1.802"
   height="2.01"
   id="rect54" />
				<rect
   x="85.12"
   y="5.574"
   fill="#F2F2F2"
   width="1.802"
   height="0.735"
   id="rect56" />
			</g>
		</g>
		<g
   id="g72">
			<path
   d="M87.422,23.119H84.62V18.69h2.802V23.119z M85.62,22.119h0.802V19.69H85.62V22.119z"
   id="path62" />
			<g
   id="g70">
				<rect
   x="85.12"
   y="19.19"
   fill="#7F7F7F"
   width="1.802"
   height="3.429"
   id="rect64" />
				<rect
   x="85.12"
   y="19.926"
   fill="#9D9D9D"
   width="1.802"
   height="2.009"
   id="rect66" />
				<rect
   x="85.12"
   y="19.19"
   fill="#F2F2F2"
   width="1.802"
   height="0.736"
   id="rect68" />
			</g>
		</g>
		<g
   id="g84">
			<path
   d="M87.422,36.736H84.62v-4.432h2.802V36.736z M85.62,35.736h0.802v-2.432H85.62V35.736z"
   id="path74" />
			<g
   id="g82">
				<rect
   x="85.12"
   y="32.807"
   fill="#7F7F7F"
   width="1.802"
   height="3.43"
   id="rect76" />
				<rect
   x="85.12"
   y="33.541"
   fill="#9D9D9D"
   width="1.802"
   height="2.01"
   id="rect78" />
				<rect
   x="85.12"
   y="32.807"
   fill="#F2F2F2"
   width="1.802"
   height="0.734"
   id="rect80" />
			</g>
		</g>
	</g>
	<rect
   x="24.004"
   width="2.311"
   height="41"
   id="rect88" />
	<path
   d="M24.504,22.807H0v-4.525h24.504V22.807z M1,21.807h22.504v-2.525H1V21.807z"
   id="path90" />
	<g
   id="g102">
		<rect
   x="0.5"
   y="18.781"
   fill="#4D4D4D"
   width="23.504"
   height="3.525"
   id="rect92" />
		<rect
   x="0.5"
   y="19.042"
   fill="#959495"
   width="23.504"
   height="2.925"
   id="rect94" />
		<rect
   x="0.5"
   y="19.302"
   fill="#B8B8B8"
   width="23.504"
   height="2.326"
   id="rect96" />
		<rect
   x="0.5"
   y="19.563"
   fill="#DCDBDC"
   width="23.504"
   height="1.726"
   id="rect98" />
		<rect
   x="0.5"
   y="19.823"
   fill="#FFFFFF"
   width="23.504"
   height="1.125"
   id="rect100" />
	</g>
	<g
   id="g108">
		<rect
   x="33.439"
   y="15.56"
   fill="#999999"
   width="23.158"
   height="23.4"
   id="rect104" />
		<path
   d="M57.098,39.46H32.939v-24.4h24.158V39.46z M33.939,38.46h22.158v-22.4H33.939V38.46z"
   id="path106" />
	</g>
	<rect
   x="36.627"
   y="18.781"
   fill="#FFFFFF"
   width="16.782"
   height="16.957"
   id="rect110" />
	<rect
   x="36.627"
   y="19.823"
   width="15.753"
   height="15.915"
   id="rect112" />
	<rect
   x="37.654"
   y="19.823"
   fill="#B2B2B2"
   width="14.726"
   height="14.877"
   id="rect114" />
	<g
   id="g120">
		<rect
   x="34.313"
   y="0.509"
   fill="#797979"
   width="41.125"
   height="4.182"
   id="rect116" />
		<path
   d="M75.938,5.191H33.813V0.009h42.125V5.191z M34.813,4.191h40.125V1.009H34.813V4.191z"
   id="path118" />
	</g>
</g>
</svg>
