<?xml version="1.0" encoding="UTF-8" standalone="no"?>
<svg
   xmlns:dc="http://purl.org/dc/elements/1.1/"
   xmlns:cc="http://creativecommons.org/ns#"
   xmlns:rdf="http://www.w3.org/1999/02/22-rdf-syntax-ns#"
   xmlns:svg="http://www.w3.org/2000/svg"
   xmlns="http://www.w3.org/2000/svg"
   xmlns:sodipodi="http://sodipodi.sourceforge.net/DTD/sodipodi-0.dtd"
   xmlns:inkscape="http://www.inkscape.org/namespaces/inkscape"
   version="1.1"
   id="图层_1"
   x="0px"
   y="0px"
   width="85px"
   height="70px"
   viewBox="0 0 85 70"
   enable-background="new 0 0 85 70"
   xml:space="preserve"
   sodipodi:docname="电机_13-01.svg"><metadata
   id="metadata191"><rdf:RDF><cc:Work
       rdf:about=""><dc:format>image/svg+xml</dc:format><dc:type
         rdf:resource="http://purl.org/dc/dcmitype/StillImage" /></cc:Work></rdf:RDF></metadata><defs
   id="defs189" /><sodipodi:namedview
   pagecolor="#ffffff"
   bordercolor="#666666"
   borderopacity="1"
   objecttolerance="10"
   gridtolerance="10"
   guidetolerance="10"
   inkscape:pageopacity="0"
   inkscape:pageshadow="2"
   inkscape:window-width="640"
   inkscape:window-height="480"
   id="namedview187" />
<g
   id="g184">
	<g
   id="g8">
		<rect
   x="80.139"
   y="3.744"
   fill="#43A143"
   width="4.361"
   height="52.779"
   id="rect2" />
		<rect
   x="80.139"
   y="3.744"
   fill="#82E082"
   width="4.361"
   height="6.987"
   id="rect4" />
		<rect
   x="80.139"
   y="42.174"
   fill="#005E00"
   width="4.361"
   height="14.35"
   id="rect6" />
	</g>
	<g
   id="g14">
		<rect
   x="20.44"
   y="10.731"
   fill="#43A143"
   width="2.866"
   height="38.805"
   id="rect10" />
		<path
   d="M23.807,50.036H19.94V10.231h3.866V50.036z M20.94,49.036h1.866V11.231H20.94V49.036z"
   id="path12" />
	</g>
	<g
   id="g20">
		<rect
   x="17.574"
   y="14.6"
   fill="#43A143"
   width="2.866"
   height="31.068"
   id="rect16" />
		<path
   d="M20.94,46.168h-3.866V14.1h3.866V46.168z M18.074,45.168h1.866V15.1h-1.866V45.168z"
   id="path18" />
	</g>
	<g
   id="g32">
		<rect
   x="0.5"
   y="24.956"
   fill="#666666"
   width="17.074"
   height="10.357"
   id="rect22" />
		<rect
   x="0.5"
   y="25.995"
   fill="#898989"
   width="17.074"
   height="8.277"
   id="rect24" />
		<rect
   x="0.5"
   y="27.035"
   fill="#ACACAC"
   width="17.074"
   height="6.197"
   id="rect26" />
		<rect
   x="0.5"
   y="28.075"
   fill="#CFCFCF"
   width="17.074"
   height="4.118"
   id="rect28" />
		<rect
   x="0.5"
   y="29.115"
   fill="#F2F2F2"
   width="17.074"
   height="2.038"
   id="rect30" />
	</g>
	<path
   d="M18.074,35.813H0V24.456h18.074V35.813z M1,34.812h16.074v-9.356H1V34.812z"
   id="path34" />
	<g
   id="g42">
		<rect
   x="47.36"
   y="0.5"
   fill="#43A143"
   width="16.202"
   height="58.27"
   id="rect36" />
		<rect
   x="47.36"
   y="0.5"
   fill="#82E082"
   width="16.202"
   height="6.738"
   id="rect38" />
		<rect
   x="47.36"
   y="52.406"
   fill="#005E00"
   width="16.202"
   height="6.363"
   id="rect40" />
	</g>
	<path
   d="M64.063,59.27H46.86V0h17.202V59.27z M47.86,58.27h15.202V1H47.86V58.27z"
   id="path44" />
	<rect
   x="42.126"
   y="0.5"
   fill="#43A143"
   width="5.234"
   height="66.38"
   id="rect46" />
	<rect
   x="42.126"
   y="0.5"
   fill="#82E082"
   width="5.234"
   height="6.738"
   id="rect48" />
	<g
   id="g54">
		<rect
   x="23.307"
   y="6.739"
   fill="#43A143"
   width="18.819"
   height="60.141"
   id="rect50" />
		<rect
   x="23.307"
   y="6.739"
   fill="#82E082"
   width="18.819"
   height="7.237"
   id="rect52" />
	</g>
	<path
   d="M42.626,67.38H22.807V6.239h19.819V67.38z M23.807,66.38h17.819V7.239H23.807V66.38z"
   id="path56" />
	<g
   id="g62">
		<rect
   x="21.438"
   y="66.88"
   fill="#005E00"
   width="37.763"
   height="2.62"
   id="rect58" />
		<path
   d="M59.7,70H20.938v-3.62H59.7V70z M21.938,69H58.7v-1.62H21.938V69z"
   id="path60" />
	</g>
	<path
   fill="#82E082"
   d="M63.563,10.731v38.805h16.576V10.731H63.563z M65.307,36.089h13.086v6.687H65.307V36.089z M65.307,17.52   h13.086v6.687H65.307V17.52z"
   id="path64" />
	<path
   fill="#005E00"
   d="M63.563,31.943v17.593h16.576V31.943H63.563z M65.307,36.089h13.086v6.687H65.307V36.089z"
   id="path66" />
	<path
   fill="#43A143"
   d="M80.139,27.701V10.731H63.563v16.969H80.139z M78.393,24.207H65.307V17.52h13.086V24.207z"
   id="path68" />
	<path
   d="M85,57.023h-5.361V3.244H85V57.023z M80.639,56.023H84V4.244h-3.361V56.023z"
   id="path70" />
	<path
   d="M80.639,50.036H63.063V10.231h17.576V50.036z M64.063,49.036h15.576V11.231H64.063V49.036z"
   id="path72" />
	<path
   d="M47.86,67.38h-6.234V0h6.234V67.38z M42.626,66.38h4.234V1h-4.234V66.38z"
   id="path74" />
	<g
   id="g86">
		<path
   d="M66.793,8.926h-3.73v-6.15h3.73V8.926z M64.063,7.926h1.73v-4.15h-1.73V7.926z"
   id="path76" />
		<g
   id="g84">
			<rect
   x="63.563"
   y="3.276"
   fill="#7F7F7F"
   width="2.73"
   height="5.149"
   id="rect78" />
			<rect
   x="63.563"
   y="4.381"
   fill="#9D9D9D"
   width="2.73"
   height="3.017"
   id="rect80" />
			<rect
   x="63.563"
   y="3.276"
   fill="#F2F2F2"
   width="2.73"
   height="1.105"
   id="rect82" />
		</g>
	</g>
	<g
   id="g98">
		<path
   d="M66.793,32.709h-3.73v-6.15h3.73V32.709z M64.063,31.709h1.73v-4.15h-1.73V31.709z"
   id="path88" />
		<g
   id="g96">
			<rect
   x="63.563"
   y="27.06"
   fill="#7F7F7F"
   width="2.73"
   height="5.149"
   id="rect90" />
			<rect
   x="63.563"
   y="28.165"
   fill="#9D9D9D"
   width="2.73"
   height="3.018"
   id="rect92" />
			<rect
   x="63.563"
   y="27.06"
   fill="#F2F2F2"
   width="2.73"
   height="1.105"
   id="rect94" />
		</g>
	</g>
	<g
   id="g110">
		<path
   d="M66.793,56.494h-3.73v-6.15h3.73V56.494z M64.063,55.494h1.73v-4.15h-1.73V55.494z"
   id="path100" />
		<g
   id="g108">
			<rect
   x="63.563"
   y="50.844"
   fill="#7F7F7F"
   width="2.73"
   height="5.15"
   id="rect102" />
			<rect
   x="63.563"
   y="51.949"
   fill="#9D9D9D"
   width="2.73"
   height="3.018"
   id="rect104" />
			<rect
   x="63.563"
   y="50.844"
   fill="#F2F2F2"
   width="2.73"
   height="1.105"
   id="rect106" />
		</g>
	</g>
	<g
   id="g122">
		<path
   d="M42.626,8.926h-3.729v-6.15h3.729V8.926z M39.896,7.926h1.729v-4.15h-1.729V7.926z"
   id="path112" />
		<g
   id="g120">
			<rect
   x="39.396"
   y="3.276"
   fill="#7F7F7F"
   width="2.729"
   height="5.149"
   id="rect114" />
			<rect
   x="39.396"
   y="4.381"
   fill="#9D9D9D"
   width="2.729"
   height="3.017"
   id="rect116" />
			<rect
   x="39.396"
   y="3.276"
   fill="#F2F2F2"
   width="2.729"
   height="1.105"
   id="rect118" />
		</g>
	</g>
	<g
   id="g134">
		<path
   d="M42.626,32.709h-3.729v-6.15h3.729V32.709z M39.896,31.709h1.729v-4.15h-1.729V31.709z"
   id="path124" />
		<g
   id="g132">
			<rect
   x="39.396"
   y="27.06"
   fill="#7F7F7F"
   width="2.729"
   height="5.149"
   id="rect126" />
			<rect
   x="39.396"
   y="28.165"
   fill="#9D9D9D"
   width="2.729"
   height="3.018"
   id="rect128" />
			<rect
   x="39.396"
   y="27.06"
   fill="#F2F2F2"
   width="2.729"
   height="1.105"
   id="rect130" />
		</g>
	</g>
	<g
   id="g146">
		<path
   d="M42.626,56.494h-3.729v-6.15h3.729V56.494z M39.896,55.494h1.729v-4.15h-1.729V55.494z"
   id="path136" />
		<g
   id="g144">
			<rect
   x="39.396"
   y="50.844"
   fill="#7F7F7F"
   width="2.729"
   height="5.15"
   id="rect138" />
			<rect
   x="39.396"
   y="51.949"
   fill="#9D9D9D"
   width="2.729"
   height="3.018"
   id="rect140" />
			<rect
   x="39.396"
   y="50.844"
   fill="#F2F2F2"
   width="2.729"
   height="1.105"
   id="rect142" />
		</g>
	</g>
	<g
   id="g158">
		<path
   d="M20.873,20.108h-2.365v-3.574h2.365V20.108z M19.508,19.108h0.365v-1.574h-0.365V19.108z"
   id="path148" />
		<g
   id="g156">
			<rect
   x="19.008"
   y="17.034"
   fill="#7F7F7F"
   width="1.365"
   height="2.574"
   id="rect150" />
			<rect
   x="19.008"
   y="17.586"
   fill="#9D9D9D"
   width="1.365"
   height="1.508"
   id="rect152" />
			<rect
   x="19.008"
   y="17.034"
   fill="#F2F2F2"
   width="1.365"
   height="0.552"
   id="rect154" />
		</g>
	</g>
	<g
   id="g170">
		<path
   d="M20.873,31.998h-2.365v-3.574h2.365V31.998z M19.508,30.998h0.365v-1.574h-0.365V30.998z"
   id="path160" />
		<g
   id="g168">
			<rect
   x="19.008"
   y="28.923"
   fill="#7F7F7F"
   width="1.365"
   height="2.574"
   id="rect162" />
			<rect
   x="19.008"
   y="29.476"
   fill="#9D9D9D"
   width="1.365"
   height="1.508"
   id="rect164" />
			<rect
   x="19.008"
   y="28.923"
   fill="#F2F2F2"
   width="1.365"
   height="0.553"
   id="rect166" />
		</g>
	</g>
	<g
   id="g182">
		<path
   d="M20.873,43.888h-2.365v-3.575h2.365V43.888z M19.508,42.888h0.365v-1.575h-0.365V42.888z"
   id="path172" />
		<g
   id="g180">
			<rect
   x="19.008"
   y="40.813"
   fill="#7F7F7F"
   width="1.365"
   height="2.575"
   id="rect174" />
			<rect
   x="19.008"
   y="41.365"
   fill="#9D9D9D"
   width="1.365"
   height="1.51"
   id="rect176" />
			<rect
   x="19.008"
   y="40.813"
   fill="#F2F2F2"
   width="1.365"
   height="0.553"
   id="rect178" />
		</g>
	</g>
</g>
</svg>
