<?xml version="1.0" encoding="UTF-8" standalone="no"?>
<svg
   xmlns:dc="http://purl.org/dc/elements/1.1/"
   xmlns:cc="http://creativecommons.org/ns#"
   xmlns:rdf="http://www.w3.org/1999/02/22-rdf-syntax-ns#"
   xmlns:svg="http://www.w3.org/2000/svg"
   xmlns="http://www.w3.org/2000/svg"
   xmlns:sodipodi="http://sodipodi.sourceforge.net/DTD/sodipodi-0.dtd"
   xmlns:inkscape="http://www.inkscape.org/namespaces/inkscape"
   version="1.1"
   id="图层_1"
   x="0px"
   y="0px"
   width="85px"
   height="70px"
   viewBox="0 0 85 70"
   enable-background="new 0 0 85 70"
   xml:space="preserve"
   sodipodi:docname="电机_14-01.svg"><metadata
   id="metadata191"><rdf:RDF><cc:Work
       rdf:about=""><dc:format>image/svg+xml</dc:format><dc:type
         rdf:resource="http://purl.org/dc/dcmitype/StillImage" /></cc:Work></rdf:RDF></metadata><defs
   id="defs189" /><sodipodi:namedview
   pagecolor="#ffffff"
   bordercolor="#666666"
   borderopacity="1"
   objecttolerance="10"
   gridtolerance="10"
   guidetolerance="10"
   inkscape:pageopacity="0"
   inkscape:pageshadow="2"
   inkscape:window-width="640"
   inkscape:window-height="480"
   id="namedview187" />
<g
   id="g184">
	<g
   id="g8">
		<rect
   x="0.5"
   y="3.744"
   fill="#43A143"
   width="4.362"
   height="52.779"
   id="rect2" />
		<rect
   x="0.5"
   y="3.744"
   fill="#82E082"
   width="4.362"
   height="6.987"
   id="rect4" />
		<rect
   x="0.5"
   y="42.174"
   fill="#005E00"
   width="4.362"
   height="14.35"
   id="rect6" />
	</g>
	<g
   id="g14">
		<rect
   x="61.692"
   y="10.731"
   fill="#43A143"
   width="2.867"
   height="38.805"
   id="rect10" />
		<path
   d="M65.06,50.036h-3.867V10.231h3.867V50.036z M62.192,49.036h1.867V11.231h-1.867V49.036z"
   id="path12" />
	</g>
	<g
   id="g20">
		<rect
   x="64.56"
   y="14.6"
   fill="#43A143"
   width="2.866"
   height="31.068"
   id="rect16" />
		<path
   d="M67.926,46.168H64.06V14.1h3.866V46.168z M65.06,45.168h1.866V15.1H65.06V45.168z"
   id="path18" />
	</g>
	<g
   id="g32">
		<rect
   x="67.426"
   y="24.956"
   fill="#666666"
   width="17.074"
   height="10.356"
   id="rect22" />
		<rect
   x="67.426"
   y="25.995"
   fill="#898989"
   width="17.074"
   height="8.277"
   id="rect24" />
		<rect
   x="67.426"
   y="27.035"
   fill="#ACACAC"
   width="17.074"
   height="6.197"
   id="rect26" />
		<rect
   x="67.426"
   y="28.075"
   fill="#CFCFCF"
   width="17.074"
   height="4.117"
   id="rect28" />
		<rect
   x="67.426"
   y="29.115"
   fill="#F2F2F2"
   width="17.074"
   height="2.038"
   id="rect30" />
	</g>
	<path
   d="M85,35.812H66.926V24.456H85V35.812z M67.926,34.812H84v-9.356H67.926V34.812z"
   id="path34" />
	<g
   id="g42">
		<rect
   x="21.438"
   y="0.5"
   fill="#43A143"
   width="16.202"
   height="58.27"
   id="rect36" />
		<rect
   x="21.438"
   y="0.5"
   fill="#82E082"
   width="16.202"
   height="6.738"
   id="rect38" />
		<rect
   x="21.438"
   y="52.406"
   fill="#005E00"
   width="16.202"
   height="6.363"
   id="rect40" />
	</g>
	<path
   d="M38.14,59.27H20.938V0H38.14V59.27z M21.938,58.27H37.14V1H21.938V58.27z"
   id="path44" />
	<rect
   x="37.64"
   y="0.5"
   fill="#43A143"
   width="5.234"
   height="66.38"
   id="rect46" />
	<rect
   x="37.64"
   y="0.5"
   fill="#82E082"
   width="5.234"
   height="6.738"
   id="rect48" />
	<g
   id="g54">
		<rect
   x="42.874"
   y="6.739"
   fill="#43A143"
   width="18.818"
   height="60.141"
   id="rect50" />
		<rect
   x="42.874"
   y="6.739"
   fill="#82E082"
   width="18.818"
   height="7.237"
   id="rect52" />
	</g>
	<path
   d="M62.192,67.38H42.374V6.239h19.818V67.38z M43.374,66.38h17.818V7.239H43.374V66.38z"
   id="path56" />
	<g
   id="g62">
		<rect
   x="25.8"
   y="66.88"
   fill="#005E00"
   width="37.763"
   height="2.62"
   id="rect58" />
		<path
   d="M64.063,70H25.3v-3.62h38.763V70z M26.3,69h36.763v-1.62H26.3V69z"
   id="path60" />
	</g>
	<path
   fill="#82E082"
   d="M4.862,10.731v38.805h16.575V10.731H4.862z M19.692,42.775H6.606v-6.687h13.086V42.775z M19.692,24.207   H6.606V17.52h13.086V24.207z"
   id="path64" />
	<path
   fill="#005E00"
   d="M4.862,31.943v17.593h16.575V31.943H4.862z M19.692,42.775H6.606v-6.687h13.086V42.775z"
   id="path66" />
	<path
   fill="#43A143"
   d="M21.438,27.701V10.731H4.862v16.969H21.438z M6.606,17.52h13.086v6.687H6.606V17.52z"
   id="path68" />
	<path
   d="M5.362,57.023H0V3.244h5.362V57.023z M1,56.023h3.362V4.244H1V56.023z"
   id="path70" />
	<path
   d="M21.938,50.036H4.362V10.231h17.575V50.036z M5.362,49.036h15.575V11.231H5.362V49.036z"
   id="path72" />
	<path
   d="M43.374,67.38H37.14V0h6.234V67.38z M38.14,66.38h4.234V1H38.14V66.38z"
   id="path74" />
	<g
   id="g86">
		<path
   d="M21.938,8.926h-3.729v-6.15h3.729V8.926z M19.208,7.926h1.729v-4.15h-1.729V7.926z"
   id="path76" />
		<g
   id="g84">
			<rect
   x="18.708"
   y="3.276"
   fill="#7F7F7F"
   width="2.729"
   height="5.149"
   id="rect78" />
			<rect
   x="18.708"
   y="4.381"
   fill="#9D9D9D"
   width="2.729"
   height="3.017"
   id="rect80" />
			<rect
   x="18.708"
   y="3.276"
   fill="#F2F2F2"
   width="2.729"
   height="1.105"
   id="rect82" />
		</g>
	</g>
	<g
   id="g98">
		<path
   d="M21.938,32.709h-3.729v-6.15h3.729V32.709z M19.208,31.709h1.729v-4.15h-1.729V31.709z"
   id="path88" />
		<g
   id="g96">
			<rect
   x="18.708"
   y="27.06"
   fill="#7F7F7F"
   width="2.729"
   height="5.149"
   id="rect90" />
			<rect
   x="18.708"
   y="28.165"
   fill="#9D9D9D"
   width="2.729"
   height="3.018"
   id="rect92" />
			<rect
   x="18.708"
   y="27.06"
   fill="#F2F2F2"
   width="2.729"
   height="1.105"
   id="rect94" />
		</g>
	</g>
	<g
   id="g110">
		<path
   d="M21.938,56.494h-3.729v-6.15h3.729V56.494z M19.208,55.494h1.729v-4.15h-1.729V55.494z"
   id="path100" />
		<g
   id="g108">
			<rect
   x="18.708"
   y="50.844"
   fill="#7F7F7F"
   width="2.729"
   height="5.15"
   id="rect102" />
			<rect
   x="18.708"
   y="51.949"
   fill="#9D9D9D"
   width="2.729"
   height="3.018"
   id="rect104" />
			<rect
   x="18.708"
   y="50.844"
   fill="#F2F2F2"
   width="2.729"
   height="1.105"
   id="rect106" />
		</g>
	</g>
	<g
   id="g122">
		<path
   d="M46.104,8.926h-3.73v-6.15h3.73V8.926z M43.374,7.926h1.73v-4.15h-1.73V7.926z"
   id="path112" />
		<g
   id="g120">
			<rect
   x="42.874"
   y="3.276"
   fill="#7F7F7F"
   width="2.73"
   height="5.149"
   id="rect114" />
			<rect
   x="42.874"
   y="4.381"
   fill="#9D9D9D"
   width="2.73"
   height="3.017"
   id="rect116" />
			<rect
   x="42.874"
   y="3.276"
   fill="#F2F2F2"
   width="2.73"
   height="1.105"
   id="rect118" />
		</g>
	</g>
	<g
   id="g134">
		<path
   d="M46.104,32.709h-3.73v-6.15h3.73V32.709z M43.374,31.709h1.73v-4.15h-1.73V31.709z"
   id="path124" />
		<g
   id="g132">
			<rect
   x="42.874"
   y="27.06"
   fill="#7F7F7F"
   width="2.73"
   height="5.149"
   id="rect126" />
			<rect
   x="42.874"
   y="28.165"
   fill="#9D9D9D"
   width="2.73"
   height="3.018"
   id="rect128" />
			<rect
   x="42.874"
   y="27.06"
   fill="#F2F2F2"
   width="2.73"
   height="1.105"
   id="rect130" />
		</g>
	</g>
	<g
   id="g146">
		<path
   d="M46.104,56.494h-3.73v-6.15h3.73V56.494z M43.374,55.494h1.73v-4.15h-1.73V55.494z"
   id="path136" />
		<g
   id="g144">
			<rect
   x="42.874"
   y="50.844"
   fill="#7F7F7F"
   width="2.73"
   height="5.15"
   id="rect138" />
			<rect
   x="42.874"
   y="51.949"
   fill="#9D9D9D"
   width="2.73"
   height="3.018"
   id="rect140" />
			<rect
   x="42.874"
   y="50.844"
   fill="#F2F2F2"
   width="2.73"
   height="1.105"
   id="rect142" />
		</g>
	</g>
	<g
   id="g158">
		<path
   d="M66.493,20.108h-2.365v-3.574h2.365V20.108z M65.128,19.108h0.365v-1.574h-0.365V19.108z"
   id="path148" />
		<g
   id="g156">
			<rect
   x="64.628"
   y="17.034"
   fill="#7F7F7F"
   width="1.365"
   height="2.574"
   id="rect150" />
			<rect
   x="64.628"
   y="17.586"
   fill="#9D9D9D"
   width="1.365"
   height="1.508"
   id="rect152" />
			<rect
   x="64.628"
   y="17.034"
   fill="#F2F2F2"
   width="1.365"
   height="0.552"
   id="rect154" />
		</g>
	</g>
	<g
   id="g170">
		<path
   d="M66.493,31.998h-2.365v-3.574h2.365V31.998z M65.128,30.998h0.365v-1.574h-0.365V30.998z"
   id="path160" />
		<g
   id="g168">
			<rect
   x="64.628"
   y="28.923"
   fill="#7F7F7F"
   width="1.365"
   height="2.574"
   id="rect162" />
			<rect
   x="64.628"
   y="29.476"
   fill="#9D9D9D"
   width="1.365"
   height="1.508"
   id="rect164" />
			<rect
   x="64.628"
   y="28.923"
   fill="#F2F2F2"
   width="1.365"
   height="0.553"
   id="rect166" />
		</g>
	</g>
	<g
   id="g182">
		<path
   d="M66.493,43.888h-2.365v-3.575h2.365V43.888z M65.128,42.888h0.365v-1.575h-0.365V42.888z"
   id="path172" />
		<g
   id="g180">
			<rect
   x="64.628"
   y="40.813"
   fill="#7F7F7F"
   width="1.365"
   height="2.575"
   id="rect174" />
			<rect
   x="64.628"
   y="41.365"
   fill="#9D9D9D"
   width="1.365"
   height="1.51"
   id="rect176" />
			<rect
   x="64.628"
   y="40.813"
   fill="#F2F2F2"
   width="1.365"
   height="0.553"
   id="rect178" />
		</g>
	</g>
</g>
</svg>
