<?xml version="1.0" encoding="UTF-8" standalone="no"?>
<svg
   xmlns:dc="http://purl.org/dc/elements/1.1/"
   xmlns:cc="http://creativecommons.org/ns#"
   xmlns:rdf="http://www.w3.org/1999/02/22-rdf-syntax-ns#"
   xmlns:svg="http://www.w3.org/2000/svg"
   xmlns="http://www.w3.org/2000/svg"
   xmlns:sodipodi="http://sodipodi.sourceforge.net/DTD/sodipodi-0.dtd"
   xmlns:inkscape="http://www.inkscape.org/namespaces/inkscape"
   version="1.1"
   id="图层_1"
   x="0px"
   y="0px"
   width="71px"
   height="85px"
   viewBox="0 0 71 85"
   enable-background="new 0 0 71 85"
   xml:space="preserve"
   sodipodi:docname="电机_17-01.svg"><metadata
   id="metadata57"><rdf:RDF><cc:Work
       rdf:about=""><dc:format>image/svg+xml</dc:format><dc:type
         rdf:resource="http://purl.org/dc/dcmitype/StillImage" /></cc:Work></rdf:RDF></metadata><defs
   id="defs55" /><sodipodi:namedview
   pagecolor="#ffffff"
   bordercolor="#666666"
   borderopacity="1"
   objecttolerance="10"
   gridtolerance="10"
   guidetolerance="10"
   inkscape:pageopacity="0"
   inkscape:pageshadow="2"
   inkscape:window-width="640"
   inkscape:window-height="480"
   id="namedview53" />
<g
   id="g50">
	<g
   id="g6">
		<rect
   x="15.67"
   y="0.5"
   fill="#B2B2B2"
   width="7.916"
   height="84"
   id="rect2" />
		<path
   d="M24.086,85H15.17V0h8.916V85z M16.17,84h6.916V1H16.17V84z"
   id="path4" />
	</g>
	<g
   id="g12">
		<rect
   x="13.362"
   y="24.959"
   fill="#B2B2B2"
   width="2.308"
   height="35.082"
   id="rect8" />
		<path
   d="M16.17,60.541h-3.308V24.459h3.308V60.541z M13.862,59.541h1.308V25.459h-1.308V59.541z"
   id="path10" />
	</g>
	<g
   id="g18">
		<rect
   x="0.5"
   y="40.063"
   fill="#B2B2B2"
   width="12.862"
   height="4.875"
   id="rect14" />
		<path
   d="M13.862,45.438H0v-5.875h13.862V45.438z M1,44.438h11.862v-3.875H1V44.438z"
   id="path16" />
	</g>
	<g
   id="g24">
		<rect
   x="23.586"
   y="21.084"
   fill="#808080"
   width="46.914"
   height="42.832"
   id="rect20" />
		<path
   d="M71,64.416H23.086V20.584H71V64.416z M24.086,63.416H70V21.584H24.086V63.416z"
   id="path22" />
	</g>
	<g
   id="g30">
		<rect
   x="23.586"
   y="19.146"
   fill="#666666"
   width="41.637"
   height="3.875"
   id="rect26" />
		<path
   d="M65.723,23.521H23.086v-4.875h42.637V23.521z M24.086,22.521h40.637v-2.875H24.086V22.521z"
   id="path28" />
	</g>
	<g
   id="g36">
		<rect
   x="23.586"
   y="61.979"
   fill="#666666"
   width="41.637"
   height="3.875"
   id="rect32" />
		<path
   d="M65.723,66.354H23.086v-4.875h42.637V66.354z M24.086,65.354h40.637v-2.875H24.086V65.354z"
   id="path34" />
	</g>
	<g
   id="g42">
		<rect
   x="46.26"
   y="14.979"
   fill="#4D4D4D"
   width="16.325"
   height="4.167"
   id="rect38" />
		<path
   d="M63.085,19.646H45.76v-5.167h17.325V19.646z M46.76,18.646h15.325v-3.167H46.76V18.646z"
   id="path40" />
	</g>
	<g
   id="g48">
		<rect
   x="48.073"
   y="5.813"
   fill="#333333"
   width="12.698"
   height="9.166"
   id="rect44" />
		<path
   d="M61.271,15.479H47.573V5.313h13.698V15.479z M48.573,14.479h11.698V6.313H48.573V14.479z"
   id="path46" />
	</g>
</g>
</svg>
