<?xml version="1.0" encoding="UTF-8" standalone="no"?>
<svg
   xmlns:dc="http://purl.org/dc/elements/1.1/"
   xmlns:cc="http://creativecommons.org/ns#"
   xmlns:rdf="http://www.w3.org/1999/02/22-rdf-syntax-ns#"
   xmlns:svg="http://www.w3.org/2000/svg"
   xmlns="http://www.w3.org/2000/svg"
   xmlns:sodipodi="http://sodipodi.sourceforge.net/DTD/sodipodi-0.dtd"
   xmlns:inkscape="http://www.inkscape.org/namespaces/inkscape"
   version="1.1"
   id="图层_1"
   x="0px"
   y="0px"
   width="106px"
   height="59px"
   viewBox="0 0 106 59"
   enable-background="new 0 0 106 59"
   xml:space="preserve"
   sodipodi:docname="电机_19-01.svg"><metadata
   id="metadata89"><rdf:RDF><cc:Work
       rdf:about=""><dc:format>image/svg+xml</dc:format><dc:type
         rdf:resource="http://purl.org/dc/dcmitype/StillImage" /></cc:Work></rdf:RDF></metadata><defs
   id="defs87" /><sodipodi:namedview
   pagecolor="#ffffff"
   bordercolor="#666666"
   borderopacity="1"
   objecttolerance="10"
   gridtolerance="10"
   guidetolerance="10"
   inkscape:pageopacity="0"
   inkscape:pageshadow="2"
   inkscape:window-width="640"
   inkscape:window-height="480"
   id="namedview85" />
<g
   id="g82">
	<g
   id="g6">
		<rect
   x="0.5"
   y="24.515"
   fill="#CCCCCC"
   width="22.725"
   height="4.069"
   id="rect2" />
		<path
   d="M23.725,29.084H0v-5.069h23.725V29.084z M1,28.084h21.725v-3.069H1V28.084z"
   id="path4" />
	</g>
	<g
   id="g80">
		<g
   id="g18">
			<polygon
   fill="#7F7F7F"
   points="93.408,0.5 105.5,4.489 105.5,48.611 93.408,52.6 34.444,52.6 34.444,0.5    "
   id="polygon8" />
			<polygon
   fill="#999999"
   points="93.408,6.275 105.5,9.38 105.5,43.721 93.408,46.824 34.444,46.824 34.444,6.275    "
   id="polygon10" />
			<polygon
   fill="#B2B2B2"
   points="93.408,12.05 105.5,14.271 105.5,38.83 93.408,41.05 34.444,41.05 34.444,12.05    "
   id="polygon12" />
			<polygon
   fill="#CCCCCC"
   points="93.408,17.825 105.5,19.161 105.5,33.938 93.408,35.274 34.444,35.274 34.444,17.825    "
   id="polygon14" />
			<polygon
   fill="#E5E5E5"
   points="93.408,23.601 105.5,24.052 105.5,29.048 93.408,29.5 34.444,29.5 34.444,23.601    "
   id="polygon16" />
		</g>
		<path
   d="M93.488,53.1H33.944V0l59.62,0.025L106,4.127v44.845L93.488,53.1z M34.944,52.1h58.384L105,48.25V4.85L93.328,1H34.944    V52.1z"
   id="path20" />
		<g
   id="g36">
			<g
   id="g32">
				<polygon
   fill="#7F7F7F"
   points="25.304,42.919 34.444,46.907 34.444,6.191 25.304,10.18     "
   id="polygon22" />
				<polygon
   fill="#999999"
   points="25.304,39.378 34.444,42.503 34.444,10.596 25.304,13.722     "
   id="polygon24" />
				<polygon
   fill="#B2B2B2"
   points="25.304,35.837 34.444,38.1 34.444,15 25.304,17.263     "
   id="polygon26" />
				<polygon
   fill="#CCCCCC"
   points="25.304,32.296 34.444,33.695 34.444,19.404 25.304,20.804     "
   id="polygon28" />
				<polygon
   fill="#E5E5E5"
   points="25.304,28.754 34.444,29.291 34.444,23.808 25.304,24.345     "
   id="polygon30" />
			</g>
			<path
   d="M34.944,47.671l-10.141-4.425V9.853l10.141-4.425V47.671z M25.804,42.592l8.141,3.552V6.955l-8.141,3.552V42.592z"
   id="path34" />
		</g>
		<rect
   x="21.147"
   y="14.584"
   width="4.156"
   height="23.931"
   id="rect38" />
		<rect
   x="42.423"
   y="52.6"
   width="43.009"
   height="5.9"
   id="rect40" />
		<g
   id="g46">
			<rect
   x="57.755"
   y="34.069"
   fill="#B2B2B2"
   width="24.434"
   height="24.431"
   id="rect42" />
			<path
   d="M82.688,59H57.255V33.569h25.434V59z M58.255,58h23.434V34.569H58.255V58z"
   id="path44" />
		</g>
		<rect
   x="75.592"
   y="36.895"
   width="3.323"
   height="3.324"
   id="rect48" />
		<rect
   x="60.933"
   y="36.895"
   width="3.324"
   height="3.324"
   id="rect50" />
		<rect
   x="75.592"
   y="52.227"
   width="3.323"
   height="3.322"
   id="rect52" />
		<rect
   x="60.933"
   y="52.227"
   width="3.324"
   height="3.322"
   id="rect54" />
		<rect
   x="36.688"
   y="2.993"
   width="52.356"
   height="1.122"
   id="rect56" />
		<rect
   x="36.688"
   y="0.682"
   width="52.356"
   height="1.122"
   id="rect58" />
		<rect
   x="36.688"
   y="5.631"
   width="52.356"
   height="1.122"
   id="rect60" />
		<rect
   x="36.688"
   y="8.27"
   width="52.356"
   height="1.122"
   id="rect62" />
		<rect
   x="36.688"
   y="10.908"
   width="52.356"
   height="1.122"
   id="rect64" />
		<rect
   x="36.688"
   y="13.546"
   width="52.356"
   height="1.122"
   id="rect66" />
		<rect
   x="36.688"
   y="16.184"
   width="52.356"
   height="1.122"
   id="rect68" />
		<rect
   x="36.688"
   y="18.823"
   width="52.356"
   height="1.122"
   id="rect70" />
		<rect
   x="36.688"
   y="21.461"
   width="52.356"
   height="1.122"
   id="rect72" />
		<rect
   x="36.688"
   y="24.1"
   width="52.356"
   height="1.122"
   id="rect74" />
		<rect
   x="36.688"
   y="26.738"
   width="52.356"
   height="1.122"
   id="rect76" />
		<rect
   x="36.688"
   y="29.377"
   width="52.356"
   height="1.122"
   id="rect78" />
	</g>
</g>
</svg>
