<?xml version="1.0" encoding="UTF-8" standalone="no"?>
<svg
   xmlns:dc="http://purl.org/dc/elements/1.1/"
   xmlns:cc="http://creativecommons.org/ns#"
   xmlns:rdf="http://www.w3.org/1999/02/22-rdf-syntax-ns#"
   xmlns:svg="http://www.w3.org/2000/svg"
   xmlns="http://www.w3.org/2000/svg"
   xmlns:sodipodi="http://sodipodi.sourceforge.net/DTD/sodipodi-0.dtd"
   xmlns:inkscape="http://www.inkscape.org/namespaces/inkscape"
   version="1.1"
   id="图层_1"
   x="0px"
   y="0px"
   width="106px"
   height="59px"
   viewBox="0 0 106 59"
   enable-background="new 0 0 106 59"
   xml:space="preserve"
   sodipodi:docname="电机_20-01.svg"><metadata
   id="metadata89"><rdf:RDF><cc:Work
       rdf:about=""><dc:format>image/svg+xml</dc:format><dc:type
         rdf:resource="http://purl.org/dc/dcmitype/StillImage" /></cc:Work></rdf:RDF></metadata><defs
   id="defs87" /><sodipodi:namedview
   pagecolor="#ffffff"
   bordercolor="#666666"
   borderopacity="1"
   objecttolerance="10"
   gridtolerance="10"
   guidetolerance="10"
   inkscape:pageopacity="0"
   inkscape:pageshadow="2"
   inkscape:window-width="640"
   inkscape:window-height="480"
   id="namedview85" />
<g
   id="g82">
	<g
   id="g6">
		<rect
   x="82.776"
   y="24.515"
   fill="#CCCCCC"
   width="22.724"
   height="4.069"
   id="rect2" />
		<path
   d="M106,29.084H82.276v-5.069H106V29.084z M83.276,28.084H105v-3.069H83.276V28.084z"
   id="path4" />
	</g>
	<g
   id="g80">
		<g
   id="g18">
			<polygon
   fill="#7F7F7F"
   points="12.593,0.5 0.5,4.489 0.5,48.611 12.593,52.6 71.557,52.6 71.557,0.5    "
   id="polygon8" />
			<polygon
   fill="#999999"
   points="12.593,6.275 0.5,9.38 0.5,43.721 12.593,46.824 71.557,46.824 71.557,6.275    "
   id="polygon10" />
			<polygon
   fill="#B2B2B2"
   points="12.593,12.05 0.5,14.271 0.5,38.83 12.593,41.05 71.557,41.05 71.557,12.05    "
   id="polygon12" />
			<polygon
   fill="#CCCCCC"
   points="12.593,17.825 0.5,19.161 0.5,33.938 12.593,35.274 71.557,35.274 71.557,17.825    "
   id="polygon14" />
			<polygon
   fill="#E5E5E5"
   points="12.593,23.601 0.5,24.052 0.5,29.048 12.593,29.5 71.557,29.5 71.557,23.601    "
   id="polygon16" />
		</g>
		<path
   d="M72.057,53.1l-59.62-0.025L0,48.973V4.127L12.593,0h59.464V53.1z M12.673,52.1h58.384V1H12.673L1,4.851V48.25L12.673,52.1    z"
   id="path20" />
		<g
   id="g36">
			<g
   id="g32">
				<polygon
   fill="#7F7F7F"
   points="80.698,42.919 71.557,46.907 71.557,6.191 80.698,10.18     "
   id="polygon22" />
				<polygon
   fill="#999999"
   points="80.698,39.378 71.557,42.503 71.557,10.596 80.698,13.722     "
   id="polygon24" />
				<polygon
   fill="#B2B2B2"
   points="80.698,35.837 71.557,38.1 71.557,15 80.698,17.263     "
   id="polygon26" />
				<polygon
   fill="#CCCCCC"
   points="80.698,32.296 71.557,33.695 71.557,19.404 80.698,20.804     "
   id="polygon28" />
				<polygon
   fill="#E5E5E5"
   points="80.698,28.754 71.557,29.291 71.557,23.808 80.698,24.345     "
   id="polygon30" />
			</g>
			<path
   d="M71.057,47.671V5.428l10.142,4.425v33.393L71.057,47.671z M72.057,6.955v39.188l8.142-3.552V10.507L72.057,6.955z"
   id="path34" />
		</g>
		<rect
   x="80.698"
   y="14.584"
   width="4.156"
   height="23.931"
   id="rect38" />
		<rect
   x="20.568"
   y="52.6"
   width="43.01"
   height="5.9"
   id="rect40" />
		<g
   id="g46">
			<rect
   x="23.812"
   y="34.069"
   fill="#B2B2B2"
   width="24.434"
   height="24.431"
   id="rect42" />
			<path
   d="M48.745,59H23.312V33.569h25.434V59z M24.312,58h23.434V34.569H24.312V58z"
   id="path44" />
		</g>
		<rect
   x="27.086"
   y="36.895"
   width="3.323"
   height="3.324"
   id="rect48" />
		<rect
   x="41.743"
   y="36.895"
   width="3.325"
   height="3.324"
   id="rect50" />
		<rect
   x="27.086"
   y="52.227"
   width="3.323"
   height="3.322"
   id="rect52" />
		<rect
   x="41.743"
   y="52.227"
   width="3.325"
   height="3.322"
   id="rect54" />
		<rect
   x="16.956"
   y="2.993"
   width="52.356"
   height="1.122"
   id="rect56" />
		<rect
   x="16.956"
   y="0.682"
   width="52.356"
   height="1.122"
   id="rect58" />
		<rect
   x="16.956"
   y="5.631"
   width="52.356"
   height="1.122"
   id="rect60" />
		<rect
   x="16.956"
   y="8.27"
   width="52.356"
   height="1.122"
   id="rect62" />
		<rect
   x="16.956"
   y="10.908"
   width="52.356"
   height="1.122"
   id="rect64" />
		<rect
   x="16.956"
   y="13.546"
   width="52.356"
   height="1.122"
   id="rect66" />
		<rect
   x="16.956"
   y="16.184"
   width="52.356"
   height="1.122"
   id="rect68" />
		<rect
   x="16.956"
   y="18.823"
   width="52.356"
   height="1.122"
   id="rect70" />
		<rect
   x="16.956"
   y="21.461"
   width="52.356"
   height="1.122"
   id="rect72" />
		<rect
   x="16.956"
   y="24.1"
   width="52.356"
   height="1.122"
   id="rect74" />
		<rect
   x="16.956"
   y="26.738"
   width="52.356"
   height="1.122"
   id="rect76" />
		<rect
   x="16.956"
   y="29.377"
   width="52.356"
   height="1.122"
   id="rect78" />
	</g>
</g>
</svg>
