<?xml version="1.0" encoding="UTF-8" standalone="no"?>
<svg
   xmlns:dc="http://purl.org/dc/elements/1.1/"
   xmlns:cc="http://creativecommons.org/ns#"
   xmlns:rdf="http://www.w3.org/1999/02/22-rdf-syntax-ns#"
   xmlns:svg="http://www.w3.org/2000/svg"
   xmlns="http://www.w3.org/2000/svg"
   xmlns:sodipodi="http://sodipodi.sourceforge.net/DTD/sodipodi-0.dtd"
   xmlns:inkscape="http://www.inkscape.org/namespaces/inkscape"
   version="1.1"
   id="图层_1"
   x="0px"
   y="0px"
   width="88px"
   height="34px"
   viewBox="0 0 88 34"
   enable-background="new 0 0 88 34"
   xml:space="preserve"
   sodipodi:docname="电机_21-01.svg"><metadata
   id="metadata107"><rdf:RDF><cc:Work
       rdf:about=""><dc:format>image/svg+xml</dc:format><dc:type
         rdf:resource="http://purl.org/dc/dcmitype/StillImage" /></cc:Work></rdf:RDF></metadata><defs
   id="defs105" /><sodipodi:namedview
   pagecolor="#ffffff"
   bordercolor="#666666"
   borderopacity="1"
   objecttolerance="10"
   gridtolerance="10"
   guidetolerance="10"
   inkscape:pageopacity="0"
   inkscape:pageshadow="2"
   inkscape:window-width="640"
   inkscape:window-height="480"
   id="namedview103" />
<g
   id="g100">
	<g
   id="g6">
		<rect
   x="80.84"
   y="9.558"
   fill="#FF6600"
   width="1.948"
   height="19.382"
   id="rect2" />
		<path
   d="M83.288,29.439H80.34V9.058h2.948V29.439z M81.34,28.439h0.948V10.058H81.34V28.439z"
   id="path4" />
	</g>
	<g
   id="g12">
		<rect
   x="42.781"
   y="9.558"
   fill="#FF6600"
   width="38.059"
   height="21.915"
   id="rect8" />
		<path
   d="M81.34,31.973H42.281V9.058H81.34V31.973z M43.281,30.973H80.34V10.058H43.281V30.973z"
   id="path10" />
	</g>
	<g
   id="g30">
		<rect
   x="42.781"
   y="23.529"
   width="33.85"
   height="1.457"
   id="rect14" />
		<rect
   x="42.781"
   y="26"
   width="33.85"
   height="1.457"
   id="rect16" />
		<rect
   x="42.781"
   y="28.47"
   width="33.85"
   height="1.457"
   id="rect18" />
		<rect
   x="42.781"
   y="21.06"
   width="33.85"
   height="1.456"
   id="rect20" />
		<rect
   x="42.781"
   y="18.589"
   width="33.85"
   height="1.457"
   id="rect22" />
		<rect
   x="42.781"
   y="16.119"
   width="33.85"
   height="1.457"
   id="rect24" />
		<rect
   x="42.781"
   y="13.648"
   width="33.85"
   height="1.457"
   id="rect26" />
		<rect
   x="42.781"
   y="11.179"
   width="33.85"
   height="1.457"
   id="rect28" />
	</g>
	<g
   id="g36">
		<rect
   x="68.967"
   y="0.5"
   fill="#E54C00"
   width="18.533"
   height="9.058"
   id="rect32" />
		<path
   d="M88,10.058H68.467V0H88V10.058z M69.467,9.058H87V1H69.467V9.058z"
   id="path34" />
	</g>
	<g
   id="g42">
		<rect
   x="77.888"
   y="3.907"
   fill="#FF6600"
   width="4.587"
   height="2.241"
   id="rect38" />
		<path
   d="M82.975,6.648h-5.587V3.407h5.587V6.648z M78.388,5.648h3.587V4.407h-3.587V5.648z"
   id="path40" />
	</g>
	<g
   id="g48">
		<rect
   x="71.291"
   y="3.907"
   fill="#FF6600"
   width="4.586"
   height="2.241"
   id="rect44" />
		<path
   d="M76.377,6.648h-5.586V3.407h5.586V6.648z M71.791,5.648h3.586V4.407h-3.586V5.648z"
   id="path46" />
	</g>
	<rect
   x="73.584"
   y="9.558"
   width="1.059"
   height="21.915"
   id="rect50" />
	<g
   id="g62">
		<rect
   x="20.102"
   y="8.671"
   fill="#FF6600"
   width="25.193"
   height="23.688"
   id="rect52" />
		<rect
   x="20.102"
   y="9.643"
   fill="#FE7E19"
   width="25.193"
   height="21.744"
   id="rect54" />
		<rect
   x="20.102"
   y="10.615"
   fill="#FC9732"
   width="25.193"
   height="19.799"
   id="rect56" />
		<rect
   x="20.102"
   y="11.587"
   fill="#FBAF4B"
   width="25.193"
   height="17.855"
   id="rect58" />
		<rect
   x="20.102"
   y="12.56"
   fill="#F9C764"
   width="25.193"
   height="15.91"
   id="rect60" />
	</g>
	<path
   d="M45.795,32.859H19.602V8.171h26.193V32.859z M20.602,31.859h24.193V9.171H20.602V31.859z"
   id="path64" />
	<g
   id="g70">
		<polygon
   fill="#FF6600"
   points="23.117,7.53 23.117,14.377 32.541,14.377 32.541,7.53 35.055,7.53 35.055,14.377 37.316,14.377     37.316,7.53 39.829,7.53 39.829,14.377 42.091,14.377 42.091,7.53 45.295,7.53 45.295,33.5 42.091,33.5 42.091,26.797     39.829,26.797 39.829,33.5 37.316,33.5 37.316,26.797 35.055,26.797 35.055,33.5 32.541,33.5 32.541,26.797 23.117,26.797     23.117,33.5 20.102,33.5 20.102,7.53   "
   id="polygon66" />
		<path
   d="M45.795,34h-4.204v-6.703h-1.262V34h-3.513v-6.703h-1.262V34h-3.514v-6.703h-8.424V34h-4.016V7.03h4.016v6.847h8.424V7.03    h3.514v6.847h1.262V7.03h3.513v6.847h1.262V7.03h4.204V34z M42.591,33h2.204V8.03h-2.204v6.847h-3.262V8.03h-1.513v6.847h-3.262    V8.03h-1.514v6.847H22.617V8.03h-2.016V33h2.016v-6.703h10.424V33h1.514v-6.703h3.262V33h1.513v-6.703h3.262V33z"
   id="path68" />
	</g>
	<g
   id="g82">
		<rect
   x="15.201"
   y="11.907"
   fill="#B2B2B2"
   width="4.9"
   height="17.216"
   id="rect72" />
		<rect
   x="15.201"
   y="13.742"
   fill="#C5C5C5"
   width="4.9"
   height="13.545"
   id="rect74" />
		<rect
   x="15.201"
   y="15.578"
   fill="#D9D9D9"
   width="4.9"
   height="9.875"
   id="rect76" />
		<rect
   x="15.201"
   y="17.413"
   fill="#ECECEC"
   width="4.9"
   height="6.204"
   id="rect78" />
		<rect
   x="15.201"
   y="19.248"
   fill="#FFFFFF"
   width="4.9"
   height="2.533"
   id="rect80" />
	</g>
	<path
   d="M20.602,29.623h-5.9V11.407h5.9V29.623z M15.701,28.623h3.9V12.407h-3.9V28.623z"
   id="path84" />
	<g
   id="g96">
		<rect
   x="0.5"
   y="18.589"
   fill="#D9D9D9"
   width="14.701"
   height="3.668"
   id="rect86" />
		<rect
   x="0.5"
   y="18.953"
   fill="#E3E3E3"
   width="14.701"
   height="2.939"
   id="rect88" />
		<rect
   x="0.5"
   y="19.317"
   fill="#ECECEC"
   width="14.701"
   height="2.211"
   id="rect90" />
		<rect
   x="0.5"
   y="19.682"
   fill="#F6F6F6"
   width="14.701"
   height="1.482"
   id="rect92" />
		<rect
   x="0.5"
   y="20.046"
   fill="#FFFFFF"
   width="14.701"
   height="0.754"
   id="rect94" />
	</g>
	<path
   d="M15.701,22.757H0v-4.668h15.701V22.757z M1,21.757h13.701v-2.668H1V21.757z"
   id="path98" />
</g>
</svg>
