<?xml version="1.0" encoding="UTF-8" standalone="no"?>
<svg
   xmlns:dc="http://purl.org/dc/elements/1.1/"
   xmlns:cc="http://creativecommons.org/ns#"
   xmlns:rdf="http://www.w3.org/1999/02/22-rdf-syntax-ns#"
   xmlns:svg="http://www.w3.org/2000/svg"
   xmlns="http://www.w3.org/2000/svg"
   xmlns:sodipodi="http://sodipodi.sourceforge.net/DTD/sodipodi-0.dtd"
   xmlns:inkscape="http://www.inkscape.org/namespaces/inkscape"
   version="1.1"
   id="图层_1"
   x="0px"
   y="0px"
   width="88px"
   height="34px"
   viewBox="0 0 88 34"
   enable-background="new 0 0 88 34"
   xml:space="preserve"
   sodipodi:docname="电机_22-01.svg"><metadata
   id="metadata107"><rdf:RDF><cc:Work
       rdf:about=""><dc:format>image/svg+xml</dc:format><dc:type
         rdf:resource="http://purl.org/dc/dcmitype/StillImage" /></cc:Work></rdf:RDF></metadata><defs
   id="defs105" /><sodipodi:namedview
   pagecolor="#ffffff"
   bordercolor="#666666"
   borderopacity="1"
   objecttolerance="10"
   gridtolerance="10"
   guidetolerance="10"
   inkscape:pageopacity="0"
   inkscape:pageshadow="2"
   inkscape:window-width="640"
   inkscape:window-height="480"
   id="namedview103" />
<g
   id="g100">
	<g
   id="g6">
		<rect
   x="5.212"
   y="9.558"
   fill="#FF6600"
   width="1.947"
   height="19.382"
   id="rect2" />
		<path
   d="M7.659,29.439H4.712V9.058h2.947V29.439z M5.712,28.439h0.947V10.058H5.712V28.439z"
   id="path4" />
	</g>
	<g
   id="g12">
		<rect
   x="7.159"
   y="9.558"
   fill="#FF6600"
   width="38.059"
   height="21.915"
   id="rect8" />
		<path
   d="M45.718,31.973H6.659V9.058h39.059V31.973z M7.659,30.973h37.059V10.058H7.659V30.973z"
   id="path10" />
	</g>
	<g
   id="g30">
		<rect
   x="11.368"
   y="23.529"
   width="33.85"
   height="1.457"
   id="rect14" />
		<rect
   x="11.368"
   y="26"
   width="33.85"
   height="1.457"
   id="rect16" />
		<rect
   x="11.368"
   y="28.471"
   width="33.85"
   height="1.457"
   id="rect18" />
		<rect
   x="11.368"
   y="21.06"
   width="33.85"
   height="1.457"
   id="rect20" />
		<rect
   x="11.368"
   y="18.59"
   width="33.85"
   height="1.457"
   id="rect22" />
		<rect
   x="11.368"
   y="16.119"
   width="33.85"
   height="1.457"
   id="rect24" />
		<rect
   x="11.368"
   y="13.649"
   width="33.85"
   height="1.457"
   id="rect26" />
		<rect
   x="11.368"
   y="11.179"
   width="33.85"
   height="1.457"
   id="rect28" />
	</g>
	<g
   id="g36">
		<rect
   x="0.5"
   y="0.5"
   fill="#E54C00"
   width="18.534"
   height="9.058"
   id="rect32" />
		<path
   d="M19.534,10.058H0V0h19.534V10.058z M1,9.058h17.534V1H1V9.058z"
   id="path34" />
	</g>
	<g
   id="g42">
		<rect
   x="5.526"
   y="3.908"
   fill="#FF6600"
   width="4.586"
   height="2.241"
   id="rect38" />
		<path
   d="M10.612,6.649H5.026V3.408h5.586V6.649z M6.026,5.649h3.586V4.408H6.026V5.649z"
   id="path40" />
	</g>
	<g
   id="g48">
		<rect
   x="12.122"
   y="3.908"
   fill="#FF6600"
   width="4.587"
   height="2.241"
   id="rect44" />
		<path
   d="M17.209,6.649h-5.587V3.408h5.587V6.649z M12.622,5.649h3.587V4.408h-3.587V5.649z"
   id="path46" />
	</g>
	<rect
   x="13.358"
   y="9.558"
   width="1.058"
   height="21.915"
   id="rect50" />
	<g
   id="g62">
		<rect
   x="42.705"
   y="8.671"
   fill="#FF6600"
   width="25.193"
   height="23.688"
   id="rect52" />
		<rect
   x="42.705"
   y="9.643"
   fill="#FE7E19"
   width="25.193"
   height="21.744"
   id="rect54" />
		<rect
   x="42.705"
   y="10.615"
   fill="#FC9732"
   width="25.193"
   height="19.8"
   id="rect56" />
		<rect
   x="42.705"
   y="11.588"
   fill="#FBAF4B"
   width="25.193"
   height="17.855"
   id="rect58" />
		<rect
   x="42.705"
   y="12.56"
   fill="#F9C764"
   width="25.193"
   height="15.911"
   id="rect60" />
	</g>
	<path
   d="M68.398,32.859H42.205V8.171h26.193V32.859z M43.205,31.859h24.193V9.171H43.205V31.859z"
   id="path64" />
	<g
   id="g70">
		<polygon
   fill="#FF6600"
   points="64.883,7.531 64.883,14.377 55.459,14.377 55.459,7.531 52.946,7.531 52.946,14.377     50.685,14.377 50.685,7.531 48.171,7.531 48.171,14.377 45.909,14.377 45.909,7.531 42.705,7.531 42.705,33.5 45.909,33.5     45.909,26.798 48.171,26.798 48.171,33.5 50.685,33.5 50.685,26.798 52.946,26.798 52.946,33.5 55.459,33.5 55.459,26.798     64.883,26.798 64.883,33.5 67.898,33.5 67.898,7.531   "
   id="polygon66" />
		<path
   d="M68.398,34h-4.016v-6.702h-8.424V34h-3.513v-6.702h-1.262V34h-3.514v-6.702h-1.262V34h-4.204V7.031h4.204v6.847h1.262    V7.031h3.514v6.847h1.262V7.031h3.513v6.847h8.424V7.031h4.016V34z M65.383,33h2.016V8.031h-2.016v6.847H54.959V8.031h-1.513    v6.847h-3.262V8.031h-1.514v6.847h-3.262V8.031h-2.204V33h2.204v-6.702h3.262V33h1.514v-6.702h3.262V33h1.513v-6.702h10.424V33z"
   id="path68" />
	</g>
	<g
   id="g82">
		<rect
   x="67.898"
   y="11.907"
   fill="#B2B2B2"
   width="4.9"
   height="17.216"
   id="rect72" />
		<rect
   x="67.898"
   y="13.742"
   fill="#C5C5C5"
   width="4.9"
   height="13.546"
   id="rect74" />
		<rect
   x="67.898"
   y="15.578"
   fill="#D9D9D9"
   width="4.9"
   height="9.875"
   id="rect76" />
		<rect
   x="67.898"
   y="17.413"
   fill="#ECECEC"
   width="4.9"
   height="6.204"
   id="rect78" />
		<rect
   x="67.898"
   y="19.248"
   fill="#FFFFFF"
   width="4.9"
   height="2.534"
   id="rect80" />
	</g>
	<path
   d="M73.299,29.623h-5.9V11.407h5.9V29.623z M68.398,28.623h3.9V12.407h-3.9V28.623z"
   id="path84" />
	<g
   id="g96">
		<rect
   x="72.799"
   y="18.59"
   fill="#D9D9D9"
   width="14.701"
   height="3.668"
   id="rect86" />
		<rect
   x="72.799"
   y="18.954"
   fill="#E3E3E3"
   width="14.701"
   height="2.939"
   id="rect88" />
		<rect
   x="72.799"
   y="19.318"
   fill="#ECECEC"
   width="14.701"
   height="2.211"
   id="rect90" />
		<rect
   x="72.799"
   y="19.683"
   fill="#F6F6F6"
   width="14.701"
   height="1.482"
   id="rect92" />
		<rect
   x="72.799"
   y="20.047"
   fill="#FFFFFF"
   width="14.701"
   height="0.754"
   id="rect94" />
	</g>
	<path
   d="M88,22.758H72.299V18.09H88V22.758z M73.299,21.758H87V19.09H73.299V21.758z"
   id="path98" />
</g>
</svg>
