<?xml version="1.0" encoding="UTF-8" standalone="no"?>
<svg
   xmlns:dc="http://purl.org/dc/elements/1.1/"
   xmlns:cc="http://creativecommons.org/ns#"
   xmlns:rdf="http://www.w3.org/1999/02/22-rdf-syntax-ns#"
   xmlns:svg="http://www.w3.org/2000/svg"
   xmlns="http://www.w3.org/2000/svg"
   xmlns:sodipodi="http://sodipodi.sourceforge.net/DTD/sodipodi-0.dtd"
   xmlns:inkscape="http://www.inkscape.org/namespaces/inkscape"
   version="1.1"
   id="图层_1"
   x="0px"
   y="0px"
   width="85px"
   height="45px"
   viewBox="0 0 85 45"
   enable-background="new 0 0 85 45"
   xml:space="preserve"
   sodipodi:docname="电机_23-01.svg"><metadata
   id="metadata79"><rdf:RDF><cc:Work
       rdf:about=""><dc:format>image/svg+xml</dc:format><dc:type
         rdf:resource="http://purl.org/dc/dcmitype/StillImage" /></cc:Work></rdf:RDF></metadata><defs
   id="defs77" /><sodipodi:namedview
   pagecolor="#ffffff"
   bordercolor="#666666"
   borderopacity="1"
   objecttolerance="10"
   gridtolerance="10"
   guidetolerance="10"
   inkscape:pageopacity="0"
   inkscape:pageshadow="2"
   inkscape:window-width="640"
   inkscape:window-height="480"
   id="namedview75" />
<g
   id="g72">
	<g
   id="g16">
		<g
   id="g12">
			<rect
   x="6.237"
   y="0.5"
   fill="#7F7F7F"
   width="50.605"
   height="44"
   id="rect2" />
			<rect
   x="6.237"
   y="4.876"
   fill="#999999"
   width="50.605"
   height="35.249"
   id="rect4" />
			<rect
   x="6.237"
   y="9.251"
   fill="#B2B2B2"
   width="50.605"
   height="26.498"
   id="rect6" />
			<rect
   x="6.237"
   y="13.626"
   fill="#CCCCCC"
   width="50.605"
   height="17.747"
   id="rect8" />
			<rect
   x="6.237"
   y="18.002"
   fill="#E5E5E5"
   width="50.605"
   height="8.996"
   id="rect10" />
		</g>
		<path
   d="M57.343,45H5.737V0h51.605V45z M6.737,44h49.605V1H6.737V44z"
   id="path14" />
	</g>
	<g
   id="g32">
		<g
   id="g28">
			<rect
   x="56.843"
   y="0.5"
   fill="#7F7F7F"
   width="5.737"
   height="44"
   id="rect18" />
			<rect
   x="56.843"
   y="4.876"
   fill="#999999"
   width="5.737"
   height="35.249"
   id="rect20" />
			<rect
   x="56.843"
   y="9.251"
   fill="#B2B2B2"
   width="5.737"
   height="26.498"
   id="rect22" />
			<rect
   x="56.843"
   y="13.626"
   fill="#CCCCCC"
   width="5.737"
   height="17.747"
   id="rect24" />
			<rect
   x="56.843"
   y="18.002"
   fill="#E5E5E5"
   width="5.737"
   height="8.996"
   id="rect26" />
		</g>
		<path
   d="M63.08,45h-6.737V0h6.737V45z M57.343,44h4.737V1h-4.737V44z"
   id="path30" />
	</g>
	<g
   id="g48">
		<g
   id="g44">
			<polygon
   fill="#7F7F7F"
   points="84.5,33.637 62.58,39.631 62.58,5.368 84.5,11.362    "
   id="polygon34" />
			<polygon
   fill="#999999"
   points="84.5,31.729 62.58,36.224 62.58,8.775 84.5,13.271    "
   id="polygon36" />
			<polygon
   fill="#B2B2B2"
   points="84.5,29.819 62.58,32.816 62.58,12.183 84.5,15.18    "
   id="polygon38" />
			<polygon
   fill="#CCCCCC"
   points="84.5,27.91 62.58,29.409 62.58,15.591 84.5,17.089    "
   id="polygon40" />
			<rect
   x="62.58"
   y="18.998"
   fill="#E5E5E5"
   width="21.92"
   height="7.004"
   id="rect42" />
		</g>
		<path
   d="M62.08,40.287V4.713L85,10.98V34.02L62.08,40.287z M63.08,6.023v32.953L84,33.256V11.744L63.08,6.023z"
   id="path46" />
	</g>
	<g
   id="g60">
		<polygon
   fill="#7F7F7F"
   points="6.237,44.5 0.5,38.506 0.5,6.495 6.237,0.5   "
   id="polygon50" />
		<polygon
   fill="#999999"
   points="6.237,40.125 0.5,35.629 0.5,9.372 6.237,4.876   "
   id="polygon52" />
		<polygon
   fill="#B2B2B2"
   points="6.237,35.749 0.5,32.752 0.5,12.249 6.237,9.251   "
   id="polygon54" />
		<polygon
   fill="#CCCCCC"
   points="6.237,31.373 0.5,29.875 0.5,15.125 6.237,13.626   "
   id="polygon56" />
		<rect
   x="0.5"
   y="18.002"
   fill="#E5E5E5"
   width="5.737"
   height="8.996"
   id="rect58" />
	</g>
	<path
   d="M6.237,45c-0.134,0-0.266-0.054-0.361-0.154l-5.737-5.994c-0.089-0.094-0.14-0.217-0.14-0.346V6.495   c0-0.129,0.051-0.253,0.14-0.346l5.737-5.995c0.141-0.148,0.358-0.195,0.548-0.119C6.613,0.112,6.737,0.296,6.737,0.5v44   c0,0.205-0.124,0.389-0.313,0.465C6.363,44.988,6.3,45,6.237,45z M1.001,38.305l4.736,4.949V1.747L1.001,6.696V38.305z"
   id="path62" />
	<g
   id="g68">
		<rect
   x="13.832"
   y="15.691"
   fill="#999999"
   width="17.708"
   height="28.809"
   id="rect64" />
		<path
   d="M32.04,45H13.332V15.191H32.04V45z M14.332,44H31.04V16.191H14.332V44z"
   id="path66" />
	</g>
	<rect
   x="15.833"
   y="18.002"
   fill="#CCCCCC"
   width="15.113"
   height="25.896"
   id="rect70" />
</g>
</svg>
