<?xml version="1.0" encoding="UTF-8" standalone="no"?>
<svg
   xmlns:dc="http://purl.org/dc/elements/1.1/"
   xmlns:cc="http://creativecommons.org/ns#"
   xmlns:rdf="http://www.w3.org/1999/02/22-rdf-syntax-ns#"
   xmlns:svg="http://www.w3.org/2000/svg"
   xmlns="http://www.w3.org/2000/svg"
   xmlns:xlink="http://www.w3.org/1999/xlink"
   xmlns:sodipodi="http://sodipodi.sourceforge.net/DTD/sodipodi-0.dtd"
   xmlns:inkscape="http://www.inkscape.org/namespaces/inkscape"
   version="1.1"
   id="图层_1"
   x="0px"
   y="0px"
   width="64px"
   height="61px"
   viewBox="0 0 64 61"
   enable-background="new 0 0 64 61"
   xml:space="preserve"
   sodipodi:docname="电机_25-01.svg"><metadata
   id="metadata85"><rdf:RDF><cc:Work
       rdf:about=""><dc:format>image/svg+xml</dc:format><dc:type
         rdf:resource="http://purl.org/dc/dcmitype/StillImage" /></cc:Work></rdf:RDF></metadata><defs
   id="defs83" /><sodipodi:namedview
   pagecolor="#ffffff"
   bordercolor="#666666"
   borderopacity="1"
   objecttolerance="10"
   gridtolerance="10"
   guidetolerance="10"
   inkscape:pageopacity="0"
   inkscape:pageshadow="2"
   inkscape:window-width="640"
   inkscape:window-height="480"
   id="namedview81" />
<g
   id="g78">
	<g
   id="g6">
		<ellipse
   fill="#FF6600"
   cx="35.138"
   cy="28.737"
   rx="28.362"
   ry="28.235"
   id="ellipse2" />
		<path
   d="M35.137,57.473c-15.914,0-28.861-12.891-28.861-28.735C6.275,12.892,19.223,0,35.137,0C51.052,0,64,12.892,64,28.737    C64,44.582,51.052,57.473,35.137,57.473z M35.137,1C19.773,1,7.275,13.442,7.275,28.737c0,15.292,12.498,27.735,27.861,27.735    S63,44.029,63,28.737C63,13.442,50.5,1,35.137,1z"
   id="path4" />
	</g>
	<g
   id="g36">
		<defs
   id="defs9">
			<ellipse
   id="SVGID_1_"
   cx="35.138"
   cy="28.737"
   rx="28.362"
   ry="28.235" />
		</defs>
		<clipPath
   id="SVGID_2_">
			<use
   xlink:href="#SVGID_1_"
   overflow="visible"
   id="use11" />
		</clipPath>
		<g
   clip-path="url(#SVGID_2_)"
   id="g34">
			<rect
   x="35.122"
   y="-4.134"
   transform="matrix(0.4843 0.8749 -0.8749 0.4843 20.7056 -29.7887)"
   width="1"
   height="13.608"
   id="rect14" />
			<rect
   x="26.896"
   y="-4.738"
   transform="matrix(0.5048 0.8632 -0.8632 0.5048 15.978 -22.2646)"
   width="1"
   height="15.066"
   id="rect16" />
			<rect
   x="42.465"
   y="-2.66"
   transform="matrix(0.5529 0.8333 -0.8333 0.5529 22.8819 -33.8296)"
   width="1"
   height="14.135"
   id="rect18" />
			<rect
   x="49.795"
   y="1.689"
   transform="matrix(0.5646 0.8254 -0.8254 0.5646 28.7625 -37.8919)"
   width="1"
   height="13.252"
   id="rect20" />
			<rect
   x="55.262"
   y="7.321"
   transform="matrix(0.5646 0.8254 -0.8254 0.5646 35.7918 -39.952)"
   width="1"
   height="13.252"
   id="rect22" />
			<rect
   x="58.32"
   y="14.658"
   transform="matrix(0.5652 0.8249 -0.8249 0.5652 43.1305 -39.2682)"
   width="1"
   height="13.253"
   id="rect24" />
			<rect
   x="59.564"
   y="21.652"
   transform="matrix(0.5664 0.8242 -0.8242 0.5664 49.3513 -37.2398)"
   width="1"
   height="13.252"
   id="rect26" />
			<rect
   x="59.564"
   y="27.279"
   transform="matrix(0.5664 0.8242 -0.8242 0.5664 53.9892 -34.7995)"
   width="1"
   height="13.252"
   id="rect28" />
			<rect
   x="58.32"
   y="33.312"
   transform="matrix(0.5657 0.8246 -0.8246 0.5657 58.48 -31.1578)"
   width="1"
   height="13.254"
   id="rect30" />
			<rect
   x="54.92"
   y="39.609"
   transform="matrix(0.5657 0.8246 -0.8246 0.5657 62.1951 -25.6199)"
   width="1"
   height="13.252"
   id="rect32" />
		</g>
	</g>
	<g
   id="g42">
		<ellipse
   fill="#FF6600"
   cx="28.702"
   cy="32.553"
   rx="28.073"
   ry="27.947"
   id="ellipse38" />
		<path
   d="M28.702,61C12.947,61,0.129,48.238,0.129,32.553c0-15.687,12.818-28.448,28.573-28.448s28.573,12.762,28.573,28.448    C57.275,48.238,44.457,61,28.702,61z M28.702,5.104c-15.204,0-27.573,12.313-27.573,27.448C1.129,47.688,13.498,60,28.702,60    s27.573-12.313,27.573-27.447C56.275,17.417,43.906,5.104,28.702,5.104z"
   id="path40" />
	</g>
	<g
   id="g48">
		<ellipse
   fill="#FF6600"
   cx="27.752"
   cy="33.146"
   rx="27.252"
   ry="27.132"
   id="ellipse44" />
		<path
   d="M27.752,60.777C12.449,60.777,0,48.381,0,33.146s12.449-27.63,27.752-27.63s27.752,12.395,27.752,27.63    S43.055,60.777,27.752,60.777z M27.752,6.516C13.001,6.516,1,18.462,1,33.146C1,47.83,13.001,59.777,27.752,59.777    c14.752,0,26.752-11.947,26.752-26.632C54.504,18.462,42.504,6.516,27.752,6.516z"
   id="path46" />
	</g>
	<g
   id="g68">
		<g
   id="g54">
			<ellipse
   fill="#FF6600"
   cx="28.88"
   cy="32.448"
   rx="7.862"
   ry="7.827"
   id="ellipse50" />
			<path
   d="M28.879,40.775c-4.61,0-8.361-3.736-8.361-8.327c0-4.593,3.751-8.329,8.361-8.329c4.611,0,8.363,3.736,8.363,8.329     C37.242,37.039,33.49,40.775,28.879,40.775z M28.879,25.119c-4.059,0-7.361,3.288-7.361,7.329c0,4.04,3.303,7.327,7.361,7.327     c4.061,0,7.363-3.287,7.363-7.327C36.242,28.407,32.939,25.119,28.879,25.119z"
   id="path52" />
		</g>
		<g
   id="g60">
			<ellipse
   fill="#FF6600"
   cx="27.752"
   cy="33.147"
   rx="6.377"
   ry="6.347"
   id="ellipse56" />
			<path
   d="M27.752,39.994c-3.792,0-6.877-3.072-6.877-6.847c0-3.776,3.085-6.849,6.877-6.849s6.877,3.072,6.877,6.849     C34.629,36.922,31.544,39.994,27.752,39.994z M27.752,27.299c-3.24,0-5.877,2.624-5.877,5.849c0,3.224,2.637,5.847,5.877,5.847     s5.877-2.623,5.877-5.847C33.629,29.923,30.992,27.299,27.752,27.299z"
   id="path58" />
		</g>
		<g
   id="g66">
			<ellipse
   fill="#FF6600"
   cx="25.284"
   cy="34.325"
   rx="6.377"
   ry="6.347"
   id="ellipse62" />
			<path
   d="M25.283,41.172c-3.791,0-6.876-3.072-6.876-6.847c0-3.775,3.085-6.848,6.876-6.848c3.793,0,6.878,3.072,6.878,6.848     C32.161,38.1,29.076,41.172,25.283,41.172z M25.283,28.478c-3.24,0-5.876,2.623-5.876,5.848c0,3.224,2.636,5.847,5.876,5.847     c3.241,0,5.878-2.623,5.878-5.847C31.161,31.101,28.524,28.478,25.283,28.478z"
   id="path64" />
		</g>
	</g>
	<g
   id="g76">
		<path
   d="M14.516,38.83c-0.758-1.744-1.18-3.664-1.18-5.683c0-4.447,2.031-8.42,5.221-11.053l-3.166-5.457    c-5.051,3.754-8.32,9.751-8.32,16.51c0,2.878,0.596,5.618,1.668,8.106L14.516,38.83z"
   id="path70" />
		<path
   d="M27.505,18.806c0.083-0.001,0.163-0.012,0.247-0.012c7.961,0,14.416,6.426,14.416,14.354c0,0.351-0.027,0.696-0.053,1.043    h6.292c0.019-0.347,0.026-0.692,0.026-1.043c0-11.192-8.971-20.293-20.146-20.577L27.505,18.806z"
   id="path72" />
		<path
   d="M37.811,43.416c-2.599,2.523-6.144,4.084-10.059,4.084c-3.117,0-5.996-0.996-8.354-2.67l-3.149,5.428    c3.288,2.195,7.245,3.477,11.503,3.477c5.956,0,11.319-2.508,15.094-6.52L37.811,43.416z"
   id="path74" />
	</g>
</g>
</svg>
