<?xml version="1.0" encoding="UTF-8" standalone="no"?>
<svg
   xmlns:dc="http://purl.org/dc/elements/1.1/"
   xmlns:cc="http://creativecommons.org/ns#"
   xmlns:rdf="http://www.w3.org/1999/02/22-rdf-syntax-ns#"
   xmlns:svg="http://www.w3.org/2000/svg"
   xmlns="http://www.w3.org/2000/svg"
   xmlns:sodipodi="http://sodipodi.sourceforge.net/DTD/sodipodi-0.dtd"
   xmlns:inkscape="http://www.inkscape.org/namespaces/inkscape"
   version="1.1"
   id="图层_1"
   x="0px"
   y="0px"
   width="94px"
   height="35px"
   viewBox="0 0 94 35"
   enable-background="new 0 0 94 35"
   xml:space="preserve"
   sodipodi:docname="电机_03-01.svg"><metadata
   id="metadata67"><rdf:RDF><cc:Work
       rdf:about=""><dc:format>image/svg+xml</dc:format><dc:type
         rdf:resource="http://purl.org/dc/dcmitype/StillImage" /></cc:Work></rdf:RDF></metadata><defs
   id="defs65" /><sodipodi:namedview
   pagecolor="#ffffff"
   bordercolor="#666666"
   borderopacity="1"
   objecttolerance="10"
   gridtolerance="10"
   guidetolerance="10"
   inkscape:pageopacity="0"
   inkscape:pageshadow="2"
   inkscape:window-width="640"
   inkscape:window-height="480"
   id="namedview63" />
<g
   id="g60">
	<g
   id="g16">
		<g
   id="g12">
			<path
   fill="#006838"
   d="M41.242,0.5c0.433,0,0.863,0.008,1.291,0.021C42.616,0.519,42.696,0.5,42.781,0.5h45.692     c2.776,0,5.026,1.958,5.026,4.373v25.254c0,2.414-2.25,4.373-5.026,4.373H42.781c-0.085,0-0.165-0.018-0.248-0.021     c-0.428,0.014-0.858,0.021-1.291,0.021c-14.03,0-22.791-7.611-22.791-17S27.212,0.5,41.242,0.5z"
   id="path2" />
			<path
   fill="#237F3A"
   d="M41.242,4.166c0.433,0,0.863,0.006,1.291,0.017c0.083-0.002,0.163-0.017,0.248-0.017h45.692     c2.776,0,5.026,1.536,5.026,3.43v19.809c0,1.893-2.25,3.43-5.026,3.43H42.781c-0.085,0-0.165-0.014-0.248-0.017     c-0.428,0.011-0.858,0.017-1.291,0.017c-14.03,0-22.791-5.97-22.791-13.334S27.212,4.166,41.242,4.166z"
   id="path4" />
			<path
   fill="#46973C"
   d="M41.242,7.832c0.433,0,0.863,0.004,1.291,0.012c0.083-0.001,0.163-0.012,0.248-0.012h45.692     c2.776,0,5.026,1.113,5.026,2.487v14.363c0,1.372-2.25,2.486-5.026,2.486H42.781c-0.085,0-0.165-0.01-0.248-0.012     c-0.428,0.008-0.858,0.012-1.291,0.012c-14.03,0-22.791-4.328-22.791-9.668C18.451,12.161,27.212,7.832,41.242,7.832z"
   id="path6" />
			<path
   fill="#68AE3D"
   d="M41.242,11.498c0.433,0,0.863,0.003,1.291,0.007c0.083-0.001,0.163-0.007,0.248-0.007h45.692     c2.776,0,5.026,0.691,5.026,1.544v8.916c0,0.853-2.25,1.544-5.026,1.544H42.781c-0.085,0-0.165-0.006-0.248-0.007     c-0.428,0.004-0.858,0.007-1.291,0.007c-14.03,0-22.791-2.688-22.791-6.002S27.212,11.498,41.242,11.498z"
   id="path8" />
			<path
   fill="#8BC53F"
   d="M41.242,15.164c0.433,0,0.863,0.001,1.291,0.002c0.083,0,0.163-0.002,0.248-0.002h45.692     c2.776,0,5.026,0.269,5.026,0.601v3.471c0,0.331-2.25,0.601-5.026,0.601H42.781c-0.085,0-0.165-0.002-0.248-0.002     c-0.428,0.001-0.858,0.002-1.291,0.002c-14.03,0-22.791-1.046-22.791-2.336S27.212,15.164,41.242,15.164z"
   id="path10" />
		</g>
		<path
   d="M88.474,35H42.781c-0.068,0-0.135-0.008-0.2-0.016C42.116,34.992,41.681,35,41.242,35c-13.495,0-23.291-7.36-23.291-17.5    C17.951,7.359,27.747,0,41.242,0c0.438,0,0.874,0.008,1.308,0.022C42.648,0.007,42.714,0,42.781,0h45.692    C91.521,0,94,2.186,94,4.873v25.254C94,32.813,91.521,35,88.474,35z M42.517,33.979c0.089,0.002,0.137,0.008,0.184,0.014    L88.474,34C90.97,34,93,32.262,93,30.127V4.873C93,2.737,90.97,1,88.474,1H42.781c-0.125,0.014-0.178,0.02-0.23,0.021    C42.094,1.008,41.67,1,41.242,1C28.118,1,18.951,7.785,18.951,17.5S28.118,34,41.242,34C41.67,34,42.094,33.992,42.517,33.979z"
   id="path14" />
	</g>
	<g
   id="g22">
		<rect
   x="39.979"
   y="0.5"
   fill="#006838"
   width="40.928"
   height="34"
   id="rect18" />
		<path
   d="M81.407,35H39.479V0h41.928V35z M40.479,34h39.928V1H40.479V34z"
   id="path20" />
	</g>
	<rect
   x="37.571"
   y="3.047"
   width="43.336"
   height="1.471"
   id="rect24" />
	<rect
   x="37.571"
   y="6.545"
   width="43.336"
   height="1.471"
   id="rect26" />
	<rect
   x="37.571"
   y="10.043"
   width="43.336"
   height="1.471"
   id="rect28" />
	<rect
   x="37.571"
   y="13.541"
   width="43.336"
   height="1.471"
   id="rect30" />
	<rect
   x="37.571"
   y="17.04"
   width="43.336"
   height="1.47"
   id="rect32" />
	<rect
   x="37.571"
   y="18.701"
   fill="#8BC53F"
   width="43.336"
   height="1.47"
   id="rect34" />
	<rect
   x="37.571"
   y="25.225"
   fill="#8BC53F"
   width="43.336"
   height="2.09"
   id="rect36" />
	<rect
   x="37.571"
   y="20.537"
   width="43.336"
   height="1.471"
   id="rect38" />
	<rect
   x="37.571"
   y="24.035"
   width="43.336"
   height="1.471"
   id="rect40" />
	<rect
   x="37.571"
   y="27.533"
   width="43.336"
   height="1.471"
   id="rect42" />
	<rect
   x="37.571"
   y="31.032"
   width="43.336"
   height="1.47"
   id="rect44" />
	<g
   id="g50">
		<rect
   x="16.218"
   y="14.334"
   fill="#8BC53F"
   width="2.233"
   height="6.331"
   id="rect46" />
		<path
   d="M18.951,21.165h-3.233v-7.331h3.233V21.165z M16.718,20.165h1.233v-5.331h-1.233V20.165z"
   id="path48" />
	</g>
	<g
   id="g56">
		<rect
   x="0.5"
   y="15.671"
   fill="#006838"
   width="15.718"
   height="3.657"
   id="rect52" />
		<path
   d="M16.718,19.828H0v-4.657h16.718V19.828z M1,18.828h14.718v-2.657H1V18.828z"
   id="path54" />
	</g>
	<rect
   x="1.128"
   y="16.153"
   fill="#8BC53F"
   width="14.461"
   height="1.068"
   id="rect58" />
</g>
</svg>
