<?xml version="1.0" encoding="UTF-8" standalone="no"?>
<svg
   xmlns:dc="http://purl.org/dc/elements/1.1/"
   xmlns:cc="http://creativecommons.org/ns#"
   xmlns:rdf="http://www.w3.org/1999/02/22-rdf-syntax-ns#"
   xmlns:svg="http://www.w3.org/2000/svg"
   xmlns="http://www.w3.org/2000/svg"
   xmlns:sodipodi="http://sodipodi.sourceforge.net/DTD/sodipodi-0.dtd"
   xmlns:inkscape="http://www.inkscape.org/namespaces/inkscape"
   version="1.1"
   id="图层_1"
   x="0px"
   y="0px"
   width="85.63px"
   height="61.451px"
   viewBox="420.03 81.194 85.63 61.451"
   enable-background="new 420.03 81.194 85.63 61.451"
   xml:space="preserve"
   sodipodi:docname="电机补充-04.svg"><metadata
   id="metadata23"><rdf:RDF><cc:Work
       rdf:about=""><dc:format>image/svg+xml</dc:format><dc:type
         rdf:resource="http://purl.org/dc/dcmitype/StillImage" /></cc:Work></rdf:RDF></metadata><defs
   id="defs21" /><sodipodi:namedview
   pagecolor="#ffffff"
   bordercolor="#666666"
   borderopacity="1"
   objecttolerance="10"
   gridtolerance="10"
   guidetolerance="10"
   inkscape:pageopacity="0"
   inkscape:pageshadow="2"
   inkscape:window-width="640"
   inkscape:window-height="480"
   id="namedview19" />
<g
   id="g16">
	<polygon
   fill="#7F7F7F"
   stroke="#231815"
   stroke-width="0.5"
   stroke-miterlimit="10"
   points="491.131,137.675 484.73,142.274    478.2,129.944 486.66,129.944  "
   id="polygon2" />
	<path
   fill="#7F7F7F"
   stroke="#231815"
   stroke-width="0.5"
   stroke-miterlimit="10"
   d="M505.41,103.694   c0,11.03-3.021,20.18-6.979,21.939l-5.069,3.44c3.489-2.67,6.05-11.23,6.05-21.38c0-12.29-3.75-22.25-8.37-22.25l6-4   C501.66,81.444,505.41,91.404,505.41,103.694z"
   id="path4" />
	<path
   fill="#7F7F7F"
   stroke="#231815"
   stroke-width="0.5"
   stroke-miterlimit="10"
   d="M497.04,81.444l-6,4h-62.39   c-0.53,0-1.051,0.13-1.561,0.39l4.96-3.3c0.369-0.31,0.739-0.56,1.119-0.74c0.48-0.22,0.971-0.35,1.48-0.35H497.04z"
   id="path6" />
	<path
   fill="#CCCCCC"
   stroke="#231815"
   stroke-width="0.5"
   stroke-miterlimit="10"
   d="M428.65,85.444v44.5   c-4.631,0-8.37-9.96-8.37-22.25c0-10.87,2.93-19.92,6.811-21.86C427.601,85.574,428.12,85.444,428.65,85.444z"
   id="path8" />
	
		<rect
   x="428.65"
   y="85.444"
   fill="#CCCCCC"
   stroke="#231815"
   stroke-width="0.5"
   stroke-miterlimit="10"
   width="62.39"
   height="44.5"
   id="rect10" />
	<path
   fill="#CCCCCC"
   stroke="#231815"
   stroke-width="0.5"
   stroke-miterlimit="10"
   d="M499.41,107.694   c0,10.149-2.561,18.71-6.05,21.38l-0.49,0.33c-0.59,0.36-1.2,0.54-1.83,0.54v-44.5C495.66,85.444,499.41,95.404,499.41,107.694z"
   id="path12" />
	<polygon
   fill="#CCCCCC"
   stroke="#231815"
   stroke-width="0.5"
   stroke-miterlimit="10"
   points="484.73,142.274 434.96,142.274    441.49,129.944 478.2,129.944  "
   id="polygon14" />
</g>
</svg>
