<?xml version="1.0" encoding="UTF-8" standalone="no"?>
<svg
   xmlns:dc="http://purl.org/dc/elements/1.1/"
   xmlns:cc="http://creativecommons.org/ns#"
   xmlns:rdf="http://www.w3.org/1999/02/22-rdf-syntax-ns#"
   xmlns:svg="http://www.w3.org/2000/svg"
   xmlns="http://www.w3.org/2000/svg"
   xmlns:sodipodi="http://sodipodi.sourceforge.net/DTD/sodipodi-0.dtd"
   xmlns:inkscape="http://www.inkscape.org/namespaces/inkscape"
   version="1.1"
   id="图层_1"
   x="0px"
   y="0px"
   width="94px"
   height="35px"
   viewBox="0 0 94 35"
   enable-background="new 0 0 94 35"
   xml:space="preserve"
   sodipodi:docname="电机_04-01.svg"><metadata
   id="metadata67"><rdf:RDF><cc:Work
       rdf:about=""><dc:format>image/svg+xml</dc:format><dc:type
         rdf:resource="http://purl.org/dc/dcmitype/StillImage" /></cc:Work></rdf:RDF></metadata><defs
   id="defs65" /><sodipodi:namedview
   pagecolor="#ffffff"
   bordercolor="#666666"
   borderopacity="1"
   objecttolerance="10"
   gridtolerance="10"
   guidetolerance="10"
   inkscape:pageopacity="0"
   inkscape:pageshadow="2"
   inkscape:window-width="640"
   inkscape:window-height="480"
   id="namedview63" />
<g
   id="g60">
	<g
   id="g16">
		<g
   id="g12">
			<path
   fill="#006838"
   d="M52.758,0.5c-0.433,0-0.862,0.008-1.291,0.021C51.384,0.519,51.304,0.5,51.219,0.5H5.526     C2.75,0.5,0.5,2.458,0.5,4.873v25.254c0,2.414,2.25,4.373,5.026,4.373h45.692c0.085,0,0.165-0.018,0.248-0.021     c0.429,0.014,0.858,0.021,1.291,0.021c14.03,0,22.791-7.611,22.791-17S66.788,0.5,52.758,0.5z"
   id="path2" />
			<path
   fill="#237F3A"
   d="M52.758,4.166c-0.433,0-0.862,0.006-1.291,0.017c-0.083-0.002-0.163-0.017-0.248-0.017H5.526     C2.75,4.166,0.5,5.702,0.5,7.596v19.809c0,1.894,2.25,3.43,5.026,3.43h45.692c0.085,0,0.165-0.014,0.248-0.017     c0.429,0.011,0.858,0.017,1.291,0.017c14.03,0,22.791-5.97,22.791-13.334S66.788,4.166,52.758,4.166z"
   id="path4" />
			<path
   fill="#46973C"
   d="M52.758,7.832c-0.433,0-0.862,0.004-1.291,0.012c-0.083-0.001-0.163-0.012-0.248-0.012H5.526     C2.75,7.832,0.5,8.945,0.5,10.319v14.363c0,1.373,2.25,2.486,5.026,2.486h45.692c0.085,0,0.165-0.01,0.248-0.012     c0.429,0.008,0.858,0.012,1.291,0.012c14.03,0,22.791-4.328,22.791-9.668C75.549,12.161,66.788,7.832,52.758,7.832z"
   id="path6" />
			<path
   fill="#68AE3D"
   d="M52.758,11.498c-0.433,0-0.862,0.003-1.291,0.007c-0.083-0.001-0.163-0.007-0.248-0.007H5.526     c-2.776,0-5.026,0.691-5.026,1.544v8.916c0,0.853,2.25,1.545,5.026,1.545h45.692c0.085,0,0.165-0.007,0.248-0.008     c0.429,0.004,0.858,0.008,1.291,0.008c14.03,0,22.791-2.688,22.791-6.003S66.788,11.498,52.758,11.498z"
   id="path8" />
			<path
   fill="#8BC53F"
   d="M52.758,15.164c-0.433,0-0.862,0.001-1.291,0.002c-0.083,0-0.163-0.002-0.248-0.002H5.526     c-2.776,0-5.026,0.269-5.026,0.601v3.471c0,0.332,2.25,0.602,5.026,0.602h45.692c0.085,0,0.165-0.003,0.248-0.003     c0.429,0.001,0.858,0.003,1.291,0.003c14.03,0,22.791-1.047,22.791-2.337S66.788,15.164,52.758,15.164z"
   id="path10" />
		</g>
		<path
   d="M52.758,35c-0.438,0-0.873-0.008-1.308-0.022C51.354,34.992,51.287,35,51.219,35H5.526C2.479,35,0,32.813,0,30.127V4.873    C0,2.186,2.479,0,5.526,0h45.692c0.067,0,0.133,0.007,0.198,0.015C51.885,0.008,52.319,0,52.758,0    c13.496,0,23.291,7.359,23.291,17.5C76.049,27.64,66.254,35,52.758,35z M51.443,33.979C51.906,33.992,52.331,34,52.758,34    c13.125,0,22.291-6.785,22.291-16.5S65.883,1,52.758,1c-0.427,0-0.852,0.008-1.274,0.021c-0.087-0.002-0.14-0.008-0.191-0.015    L5.526,1C3.03,1,1,2.737,1,4.873v25.254C1,32.262,3.03,34,5.526,34h45.692C51.348,33.986,51.395,33.98,51.443,33.979z"
   id="path14" />
	</g>
	<g
   id="g22">
		<rect
   x="13.093"
   y="0.5"
   fill="#006838"
   width="40.929"
   height="34"
   id="rect18" />
		<path
   d="M54.521,35H12.593V0h41.929V35z M13.593,34h39.929V1H13.593V34z"
   id="path20" />
	</g>
	<rect
   x="13.093"
   y="3.047"
   width="43.336"
   height="1.471"
   id="rect24" />
	<rect
   x="13.093"
   y="6.545"
   width="43.336"
   height="1.471"
   id="rect26" />
	<rect
   x="13.093"
   y="10.043"
   width="43.336"
   height="1.471"
   id="rect28" />
	<rect
   x="13.093"
   y="13.541"
   width="43.336"
   height="1.471"
   id="rect30" />
	<rect
   x="13.093"
   y="17.04"
   width="43.336"
   height="1.47"
   id="rect32" />
	<rect
   x="13.093"
   y="18.701"
   fill="#8BC53F"
   width="43.336"
   height="1.47"
   id="rect34" />
	<rect
   x="13.093"
   y="25.225"
   fill="#8BC53F"
   width="43.336"
   height="2.09"
   id="rect36" />
	<rect
   x="13.093"
   y="20.538"
   width="43.336"
   height="1.471"
   id="rect38" />
	<rect
   x="13.093"
   y="24.035"
   width="43.336"
   height="1.471"
   id="rect40" />
	<rect
   x="13.093"
   y="27.533"
   width="43.336"
   height="1.471"
   id="rect42" />
	<rect
   x="13.093"
   y="31.032"
   width="43.336"
   height="1.47"
   id="rect44" />
	<g
   id="g50">
		<rect
   x="75.549"
   y="14.334"
   fill="#8BC53F"
   width="2.234"
   height="6.331"
   id="rect46" />
		<path
   d="M78.283,21.165h-3.234v-7.331h3.234V21.165z M76.049,20.165h1.234v-5.331h-1.234V20.165z"
   id="path48" />
	</g>
	<g
   id="g56">
		<rect
   x="77.783"
   y="15.671"
   fill="#006838"
   width="15.717"
   height="3.657"
   id="rect52" />
		<path
   d="M94,19.828H77.283v-4.657H94V19.828z M78.283,18.828H93v-2.657H78.283V18.828z"
   id="path54" />
	</g>
	<rect
   x="78.411"
   y="16.153"
   fill="#8BC53F"
   width="14.461"
   height="1.068"
   id="rect58" />
</g>
</svg>
