<?xml version="1.0" encoding="UTF-8" standalone="no"?>
<svg
   xmlns:dc="http://purl.org/dc/elements/1.1/"
   xmlns:cc="http://creativecommons.org/ns#"
   xmlns:rdf="http://www.w3.org/1999/02/22-rdf-syntax-ns#"
   xmlns:svg="http://www.w3.org/2000/svg"
   xmlns="http://www.w3.org/2000/svg"
   xmlns:sodipodi="http://sodipodi.sourceforge.net/DTD/sodipodi-0.dtd"
   xmlns:inkscape="http://www.inkscape.org/namespaces/inkscape"
   version="1.1"
   id="图层_1"
   x="0px"
   y="0px"
   width="91px"
   height="54px"
   viewBox="0 0 91 54"
   enable-background="new 0 0 91 54"
   xml:space="preserve"
   sodipodi:docname="电机_05-01.svg"><metadata
   id="metadata265"><rdf:RDF><cc:Work
       rdf:about=""><dc:format>image/svg+xml</dc:format><dc:type
         rdf:resource="http://purl.org/dc/dcmitype/StillImage" /></cc:Work></rdf:RDF></metadata><defs
   id="defs263" /><sodipodi:namedview
   pagecolor="#ffffff"
   bordercolor="#666666"
   borderopacity="1"
   objecttolerance="10"
   gridtolerance="10"
   guidetolerance="10"
   inkscape:pageopacity="0"
   inkscape:pageshadow="2"
   inkscape:window-width="640"
   inkscape:window-height="480"
   id="namedview261" />
<g
   id="g258">
	<g
   id="g14">
		<g
   id="g12">
			<rect
   x="0.5"
   y="14.325"
   fill="#565656"
   width="27.68"
   height="6.849"
   id="rect2" />
			<rect
   x="0.5"
   y="14.993"
   fill="#7D7D7D"
   width="27.68"
   height="5.513"
   id="rect4" />
			<rect
   x="0.5"
   y="15.661"
   fill="#A4A4A4"
   width="27.68"
   height="4.176"
   id="rect6" />
			<rect
   x="0.5"
   y="16.329"
   fill="#CACACA"
   width="27.68"
   height="2.84"
   id="rect8" />
			<rect
   x="0.5"
   y="16.998"
   fill="#F1F1F1"
   width="27.68"
   height="1.503"
   id="rect10" />
		</g>
	</g>
	<g
   id="g28">
		<g
   id="g26">
			<rect
   x="28.18"
   y="7.141"
   fill="#565656"
   width="5.42"
   height="25.185"
   id="rect16" />
			<rect
   x="28.18"
   y="9.598"
   fill="#7D7D7D"
   width="5.42"
   height="20.271"
   id="rect18" />
			<rect
   x="28.18"
   y="12.055"
   fill="#A4A4A4"
   width="5.42"
   height="15.356"
   id="rect20" />
			<rect
   x="28.18"
   y="14.512"
   fill="#CACACA"
   width="5.42"
   height="10.442"
   id="rect22" />
			<rect
   x="28.18"
   y="16.969"
   fill="#F1F1F1"
   width="5.42"
   height="5.528"
   id="rect24" />
		</g>
	</g>
	<g
   id="g42">
		<g
   id="g40">
			<rect
   x="33.6"
   y="1.878"
   fill="#565656"
   width="41.894"
   height="35.709"
   id="rect30" />
			<rect
   x="33.6"
   y="5.362"
   fill="#7D7D7D"
   width="41.894"
   height="28.741"
   id="rect32" />
			<rect
   x="33.6"
   y="8.846"
   fill="#A4A4A4"
   width="41.894"
   height="21.774"
   id="rect34" />
			<rect
   x="33.6"
   y="12.33"
   fill="#CACACA"
   width="41.894"
   height="14.807"
   id="rect36" />
			<rect
   x="33.6"
   y="15.813"
   fill="#F1F1F1"
   width="41.894"
   height="7.839"
   id="rect38" />
		</g>
	</g>
	<path
   d="M28.68,21.674H0v-7.849h28.68V21.674z M1,20.674h26.68v-5.849H1V20.674z"
   id="path44" />
	<path
   d="M34.1,32.825h-6.42V6.641h6.42V32.825z M28.68,31.825h4.42V7.641h-4.42V31.825z"
   id="path46" />
	<path
   d="M75.993,38.088H33.1V1.378h42.894V38.088z M34.1,37.088h40.894V2.378H34.1V37.088z"
   id="path48" />
	<g
   id="g62">
		<g
   id="g60">
			<rect
   x="75.493"
   y="0.5"
   fill="#565656"
   width="2.063"
   height="38.466"
   id="rect50" />
			<rect
   x="75.493"
   y="4.253"
   fill="#7D7D7D"
   width="2.063"
   height="30.96"
   id="rect52" />
			<rect
   x="75.493"
   y="8.006"
   fill="#A4A4A4"
   width="2.063"
   height="23.454"
   id="rect54" />
			<rect
   x="75.493"
   y="11.758"
   fill="#CACACA"
   width="2.063"
   height="15.949"
   id="rect56" />
			<rect
   x="75.493"
   y="15.511"
   fill="#F1F1F1"
   width="2.063"
   height="8.443"
   id="rect58" />
		</g>
	</g>
	<path
   d="M78.057,39.466h-3.063V0h3.063V39.466z M75.993,38.466h1.063V1h-1.063V38.466z"
   id="path64" />
	<g
   id="g78">
		<g
   id="g76">
			<rect
   x="77.557"
   y="0.5"
   fill="#565656"
   width="2.063"
   height="38.466"
   id="rect66" />
			<rect
   x="77.557"
   y="4.253"
   fill="#7D7D7D"
   width="2.063"
   height="30.96"
   id="rect68" />
			<rect
   x="77.557"
   y="8.006"
   fill="#A4A4A4"
   width="2.063"
   height="23.454"
   id="rect70" />
			<rect
   x="77.557"
   y="11.758"
   fill="#CACACA"
   width="2.063"
   height="15.949"
   id="rect72" />
			<rect
   x="77.557"
   y="15.511"
   fill="#F1F1F1"
   width="2.063"
   height="8.443"
   id="rect74" />
		</g>
	</g>
	<path
   d="M80.12,39.466h-3.063V0h3.063V39.466z M78.057,38.466h1.063V1h-1.063V38.466z"
   id="path80" />
	<g
   id="g92">
		<polygon
   fill="#565656"
   points="90.5,26.938 79.62,38.966 79.62,0.5 90.5,12.528   "
   id="polygon82" />
		<polygon
   fill="#7D7D7D"
   points="90.5,25.189 79.62,35.213 79.62,4.253 90.5,14.276   "
   id="polygon84" />
		<polygon
   fill="#A4A4A4"
   points="90.5,23.441 79.62,31.46 79.62,8.006 90.5,16.024   "
   id="polygon86" />
		<polygon
   fill="#CACACA"
   points="90.5,21.693 79.62,27.708 79.62,11.758 90.5,17.772   "
   id="polygon88" />
		<polygon
   fill="#F1F1F1"
   points="90.5,19.945 79.62,23.955 79.62,15.511 90.5,19.521   "
   id="polygon90" />
	</g>
	<path
   d="M79.62,39.467c-0.061,0-0.121-0.012-0.18-0.034c-0.193-0.074-0.321-0.26-0.321-0.467V0.5c0-0.207,0.128-0.393,0.321-0.467   c0.193-0.074,0.411-0.022,0.551,0.131l10.88,12.028C90.954,12.285,91,12.404,91,12.528v14.409c0,0.124-0.046,0.244-0.129,0.335   l-10.88,12.028C79.895,39.408,79.759,39.467,79.62,39.467z M80.121,1.799v35.868L90,26.745V12.721L80.121,1.799z"
   id="path94" />
	<g
   id="g100">
		<rect
   x="30.348"
   y="36.084"
   fill="#B3B3B3"
   width="43.02"
   height="4.385"
   id="rect96" />
		<path
   d="M73.867,40.969h-44.02v-5.385h44.02V40.969z M30.848,39.969h42.02v-3.385h-42.02V39.969z"
   id="path98" />
	</g>
	<g
   id="g112">
		<rect
   x="24.345"
   y="40.469"
   fill="#7D7D7D"
   width="55.025"
   height="4.386"
   id="rect102" />
		<rect
   x="30.098"
   y="40.469"
   fill="#9A9A9A"
   width="43.52"
   height="4.386"
   id="rect104" />
		<rect
   x="35.85"
   y="40.469"
   fill="#B7B7B7"
   width="32.015"
   height="4.386"
   id="rect106" />
		<rect
   x="41.603"
   y="40.469"
   fill="#D4D4D4"
   width="20.51"
   height="4.386"
   id="rect108" />
		<rect
   x="47.355"
   y="40.469"
   fill="#F1F1F1"
   width="9.004"
   height="4.386"
   id="rect110" />
	</g>
	<path
   d="M79.87,45.354H23.845v-5.386H79.87V45.354z M24.845,44.354H78.87v-3.386H24.845V44.354z"
   id="path114" />
	<g
   id="g120">
		<polygon
   fill="#666666"
   points="85.373,53.5 18.342,53.5 24.345,44.854 79.37,44.854   "
   id="polygon116" />
		<path
   d="M85.373,54H18.342c-0.186,0-0.356-0.104-0.443-0.268c-0.086-0.166-0.073-0.365,0.033-0.518l6.002-8.646    c0.094-0.135,0.247-0.216,0.411-0.216H79.37c0.164,0,0.317,0.081,0.411,0.216l6.002,8.646c0.106,0.152,0.119,0.352,0.033,0.518    C85.729,53.896,85.559,54,85.373,54z M19.299,53h65.117l-5.308-7.645H24.606L19.299,53z"
   id="path118" />
	</g>
	<g
   id="g192">
		<g
   id="g130">
			<g
   id="g126">
				<rect
   x="14.777"
   y="0.5"
   fill="#666666"
   width="14.695"
   height="2.819"
   id="rect122" />
				<rect
   x="14.777"
   y="0.5"
   fill="#B1B1B1"
   width="14.695"
   height="1.41"
   id="rect124" />
			</g>
			<path
   d="M29.973,3.819H14.277V0h15.695V3.819z M15.277,2.819h13.695V1H15.277V2.819z"
   id="path128" />
		</g>
		<g
   id="g140">
			<g
   id="g136">
				<rect
   x="14.777"
   y="5.862"
   fill="#666666"
   width="14.695"
   height="2.819"
   id="rect132" />
				<rect
   x="14.777"
   y="5.862"
   fill="#B1B1B1"
   width="14.695"
   height="1.41"
   id="rect134" />
			</g>
			<path
   d="M29.973,9.181H14.277V5.362h15.695V9.181z M15.277,8.181h13.695V6.362H15.277V8.181z"
   id="path138" />
		</g>
		<g
   id="g150">
			<g
   id="g146">
				<rect
   x="14.777"
   y="11.223"
   fill="#666666"
   width="14.695"
   height="2.819"
   id="rect142" />
				<rect
   x="14.777"
   y="11.223"
   fill="#B1B1B1"
   width="14.695"
   height="1.41"
   id="rect144" />
			</g>
			<path
   d="M29.973,14.542H14.277v-3.819h15.695V14.542z M15.277,13.542h13.695v-1.819H15.277V13.542z"
   id="path148" />
		</g>
		<g
   id="g160">
			<g
   id="g156">
				<rect
   x="14.777"
   y="16.585"
   fill="#666666"
   width="14.695"
   height="2.819"
   id="rect152" />
				<rect
   x="14.777"
   y="16.585"
   fill="#B1B1B1"
   width="14.695"
   height="1.41"
   id="rect154" />
			</g>
			<path
   d="M29.973,19.904H14.277v-3.819h15.695V19.904z M15.277,18.904h13.695v-1.819H15.277V18.904z"
   id="path158" />
		</g>
		<g
   id="g170">
			<g
   id="g166">
				<rect
   x="14.746"
   y="21.947"
   fill="#666666"
   width="14.695"
   height="2.819"
   id="rect162" />
				<rect
   x="14.746"
   y="21.947"
   fill="#B1B1B1"
   width="14.695"
   height="1.409"
   id="rect164" />
			</g>
			<path
   d="M29.941,25.266H14.246v-3.819h15.695V25.266z M15.246,24.266h13.695v-1.819H15.246V24.266z"
   id="path168" />
		</g>
		<g
   id="g180">
			<g
   id="g176">
				<rect
   x="14.746"
   y="27.308"
   fill="#666666"
   width="14.695"
   height="2.819"
   id="rect172" />
				<rect
   x="14.746"
   y="27.308"
   fill="#B1B1B1"
   width="14.695"
   height="1.41"
   id="rect174" />
			</g>
			<path
   d="M29.941,30.627H14.246v-3.819h15.695V30.627z M15.246,29.627h13.695v-1.819H15.246V29.627z"
   id="path178" />
		</g>
		<g
   id="g190">
			<g
   id="g186">
				<rect
   x="14.746"
   y="32.67"
   fill="#666666"
   width="14.695"
   height="2.818"
   id="rect182" />
				<rect
   x="14.746"
   y="32.67"
   fill="#B1B1B1"
   width="14.695"
   height="1.409"
   id="rect184" />
			</g>
			<path
   d="M29.941,35.988H14.246V32.17h15.695V35.988z M15.246,34.988h13.695V33.17H15.246V34.988z"
   id="path188" />
		</g>
	</g>
	<path
   d="M24.22,35.957h-4.188V0h4.188V35.957z M21.031,34.957h2.188V1h-2.188V34.957z"
   id="path194" />
	<g
   id="g208">
		<g
   id="g206">
			<rect
   x="20.531"
   y="0.5"
   fill="#565656"
   width="3.188"
   height="34.957"
   id="rect196" />
			<rect
   x="20.531"
   y="3.911"
   fill="#7D7D7D"
   width="3.188"
   height="28.136"
   id="rect198" />
			<rect
   x="20.531"
   y="7.321"
   fill="#A4A4A4"
   width="3.188"
   height="21.315"
   id="rect200" />
			<rect
   x="20.531"
   y="10.731"
   fill="#CACACA"
   width="3.188"
   height="14.494"
   id="rect202" />
			<rect
   x="20.531"
   y="14.142"
   fill="#F1F1F1"
   width="3.188"
   height="7.673"
   id="rect204" />
		</g>
	</g>
	<g
   id="g214">
		<rect
   x="40.915"
   y="9.396"
   fill="#666666"
   width="27.263"
   height="17.912"
   id="rect210" />
		<path
   d="M68.678,27.808H40.415V8.896h28.263V27.808z M41.415,26.808h26.263V9.896H41.415V26.808z"
   id="path212" />
	</g>
	<g
   id="g220">
		<rect
   x="39.221"
   y="7.435"
   fill="#F1F1F1"
   width="3.915"
   height="3.922"
   id="rect216" />
		<path
   d="M43.636,11.857h-4.915V6.935h4.915V11.857z M39.721,10.857h2.915V7.935h-2.915V10.857z"
   id="path218" />
	</g>
	<g
   id="g226">
		<rect
   x="66.219"
   y="7.435"
   fill="#F1F1F1"
   width="3.916"
   height="3.922"
   id="rect222" />
		<path
   d="M70.635,11.857h-4.916V6.935h4.916V11.857z M66.719,10.857h2.916V7.935h-2.916V10.857z"
   id="path224" />
	</g>
	<g
   id="g232">
		<rect
   x="39.221"
   y="25.347"
   fill="#F1F1F1"
   width="3.915"
   height="3.923"
   id="rect228" />
		<path
   d="M43.636,29.77h-4.915v-4.923h4.915V29.77z M39.721,28.77h2.915v-2.923h-2.915V28.77z"
   id="path230" />
	</g>
	<g
   id="g238">
		<rect
   x="66.219"
   y="25.347"
   fill="#F1F1F1"
   width="3.916"
   height="3.923"
   id="rect234" />
		<path
   d="M70.635,29.77h-4.916v-4.923h4.916V29.77z M66.719,28.77h2.916v-2.923h-2.916V28.77z"
   id="path236" />
	</g>
	<g
   id="g244">
		<rect
   x="44.115"
   y="12.99"
   fill="#37B34A"
   width="10.703"
   height="10.724"
   id="rect240" />
		<path
   d="M55.318,24.214H43.615V12.49h11.703V24.214z M44.615,23.214h9.703V13.49h-9.703V23.214z"
   id="path242" />
	</g>
	<g
   id="g250">
		<rect
   x="56.359"
   y="12.99"
   fill="#FFF100"
   width="8.379"
   height="4.132"
   id="rect246" />
		<path
   d="M65.238,17.623h-9.379V12.49h9.379V17.623z M56.859,16.623h7.379V13.49h-7.379V16.623z"
   id="path248" />
	</g>
	<g
   id="g256">
		<rect
   x="56.359"
   y="19.336"
   fill="#EC1C24"
   width="8.379"
   height="4.377"
   id="rect252" />
		<path
   d="M65.238,24.214h-9.379v-5.377h9.379V24.214z M56.859,23.214h7.379v-3.377h-7.379V23.214z"
   id="path254" />
	</g>
</g>
</svg>
