<?xml version="1.0" encoding="UTF-8" standalone="no"?>
<svg
   xmlns:dc="http://purl.org/dc/elements/1.1/"
   xmlns:cc="http://creativecommons.org/ns#"
   xmlns:rdf="http://www.w3.org/1999/02/22-rdf-syntax-ns#"
   xmlns:svg="http://www.w3.org/2000/svg"
   xmlns="http://www.w3.org/2000/svg"
   xmlns:sodipodi="http://sodipodi.sourceforge.net/DTD/sodipodi-0.dtd"
   xmlns:inkscape="http://www.inkscape.org/namespaces/inkscape"
   version="1.1"
   id="图层_1"
   x="0px"
   y="0px"
   width="91px"
   height="54px"
   viewBox="0 0 91 54"
   enable-background="new 0 0 91 54"
   xml:space="preserve"
   sodipodi:docname="电机_06-01.svg"><metadata
   id="metadata265"><rdf:RDF><cc:Work
       rdf:about=""><dc:format>image/svg+xml</dc:format><dc:type
         rdf:resource="http://purl.org/dc/dcmitype/StillImage" /></cc:Work></rdf:RDF></metadata><defs
   id="defs263" /><sodipodi:namedview
   pagecolor="#ffffff"
   bordercolor="#666666"
   borderopacity="1"
   objecttolerance="10"
   gridtolerance="10"
   guidetolerance="10"
   inkscape:pageopacity="0"
   inkscape:pageshadow="2"
   inkscape:window-width="640"
   inkscape:window-height="480"
   id="namedview261" />
<g
   id="g258">
	<g
   id="g14">
		<g
   id="g12">
			<rect
   x="62.82"
   y="14.325"
   fill="#565656"
   width="27.68"
   height="6.849"
   id="rect2" />
			<rect
   x="62.82"
   y="14.993"
   fill="#7D7D7D"
   width="27.68"
   height="5.513"
   id="rect4" />
			<rect
   x="62.82"
   y="15.661"
   fill="#A4A4A4"
   width="27.68"
   height="4.176"
   id="rect6" />
			<rect
   x="62.82"
   y="16.329"
   fill="#CACACA"
   width="27.68"
   height="2.84"
   id="rect8" />
			<rect
   x="62.82"
   y="16.998"
   fill="#F1F1F1"
   width="27.68"
   height="1.503"
   id="rect10" />
		</g>
	</g>
	<g
   id="g28">
		<g
   id="g26">
			<rect
   x="57.401"
   y="7.141"
   fill="#565656"
   width="5.419"
   height="25.185"
   id="rect16" />
			<rect
   x="57.401"
   y="9.598"
   fill="#7D7D7D"
   width="5.419"
   height="20.271"
   id="rect18" />
			<rect
   x="57.401"
   y="12.055"
   fill="#A4A4A4"
   width="5.419"
   height="15.356"
   id="rect20" />
			<rect
   x="57.401"
   y="14.512"
   fill="#CACACA"
   width="5.419"
   height="10.442"
   id="rect22" />
			<rect
   x="57.401"
   y="16.969"
   fill="#F1F1F1"
   width="5.419"
   height="5.528"
   id="rect24" />
		</g>
	</g>
	<g
   id="g42">
		<g
   id="g40">
			<rect
   x="15.507"
   y="1.878"
   fill="#565656"
   width="41.895"
   height="35.709"
   id="rect30" />
			<rect
   x="15.507"
   y="5.362"
   fill="#7D7D7D"
   width="41.895"
   height="28.741"
   id="rect32" />
			<rect
   x="15.507"
   y="8.846"
   fill="#A4A4A4"
   width="41.895"
   height="21.774"
   id="rect34" />
			<rect
   x="15.507"
   y="12.33"
   fill="#CACACA"
   width="41.895"
   height="14.807"
   id="rect36" />
			<rect
   x="15.507"
   y="15.813"
   fill="#F1F1F1"
   width="41.895"
   height="7.839"
   id="rect38" />
		</g>
	</g>
	<path
   d="M91,21.674H62.32v-7.849H91V21.674z M63.32,20.674H90v-5.849H63.32V20.674z"
   id="path44" />
	<path
   d="M63.32,32.825h-6.419V6.641h6.419V32.825z M57.901,31.825h4.419V7.641h-4.419V31.825z"
   id="path46" />
	<path
   d="M57.901,38.088H15.007V1.378h42.895V38.088z M16.007,37.088h40.895V2.378H16.007V37.088z"
   id="path48" />
	<g
   id="g62">
		<g
   id="g60">
			<rect
   x="13.443"
   y="0.5"
   fill="#565656"
   width="2.063"
   height="38.466"
   id="rect50" />
			<rect
   x="13.443"
   y="4.253"
   fill="#7D7D7D"
   width="2.063"
   height="30.96"
   id="rect52" />
			<rect
   x="13.443"
   y="8.006"
   fill="#A4A4A4"
   width="2.063"
   height="23.454"
   id="rect54" />
			<rect
   x="13.443"
   y="11.758"
   fill="#CACACA"
   width="2.063"
   height="15.949"
   id="rect56" />
			<rect
   x="13.443"
   y="15.511"
   fill="#F1F1F1"
   width="2.063"
   height="8.443"
   id="rect58" />
		</g>
	</g>
	<path
   d="M16.007,39.466h-3.063V0h3.063V39.466z M13.943,38.466h1.063V1h-1.063V38.466z"
   id="path64" />
	<g
   id="g78">
		<g
   id="g76">
			<rect
   x="11.38"
   y="0.5"
   fill="#565656"
   width="2.063"
   height="38.466"
   id="rect66" />
			<rect
   x="11.38"
   y="4.253"
   fill="#7D7D7D"
   width="2.063"
   height="30.96"
   id="rect68" />
			<rect
   x="11.38"
   y="8.006"
   fill="#A4A4A4"
   width="2.063"
   height="23.454"
   id="rect70" />
			<rect
   x="11.38"
   y="11.758"
   fill="#CACACA"
   width="2.063"
   height="15.949"
   id="rect72" />
			<rect
   x="11.38"
   y="15.511"
   fill="#F1F1F1"
   width="2.063"
   height="8.443"
   id="rect74" />
		</g>
	</g>
	<path
   d="M13.943,39.466H10.88V0h3.063V39.466z M11.88,38.466h1.063V1H11.88V38.466z"
   id="path80" />
	<g
   id="g92">
		<polygon
   fill="#565656"
   points="0.5,26.938 11.38,38.966 11.38,0.5 0.5,12.528   "
   id="polygon82" />
		<polygon
   fill="#7D7D7D"
   points="0.5,25.189 11.38,35.213 11.38,4.253 0.5,14.276   "
   id="polygon84" />
		<polygon
   fill="#A4A4A4"
   points="0.5,23.441 11.38,31.46 11.38,8.006 0.5,16.024   "
   id="polygon86" />
		<polygon
   fill="#CACACA"
   points="0.5,21.693 11.38,27.708 11.38,11.758 0.5,17.772   "
   id="polygon88" />
		<polygon
   fill="#F1F1F1"
   points="0.5,19.945 11.38,23.955 11.38,15.511 0.5,19.521   "
   id="polygon90" />
	</g>
	<path
   d="M11.38,39.467c-0.139,0-0.274-0.059-0.371-0.166L0.129,27.273c-0.083-0.092-0.13-0.211-0.13-0.335V12.528   c0-0.124,0.047-0.244,0.13-0.335l10.88-12.028c0.139-0.154,0.357-0.205,0.551-0.131c0.193,0.074,0.32,0.26,0.32,0.467v38.466   c0,0.207-0.127,0.393-0.32,0.467C11.501,39.455,11.44,39.467,11.38,39.467z M1.001,26.745l9.879,10.922V1.799L1.001,12.721V26.745z   "
   id="path94" />
	<g
   id="g100">
		<rect
   x="17.633"
   y="36.084"
   fill="#B3B3B3"
   width="43.02"
   height="4.385"
   id="rect96" />
		<path
   d="M61.152,40.969h-44.02v-5.385h44.02V40.969z M18.133,39.969h42.02v-3.385h-42.02V39.969z"
   id="path98" />
	</g>
	<g
   id="g112">
		<rect
   x="11.63"
   y="40.469"
   fill="#7D7D7D"
   width="55.025"
   height="4.386"
   id="rect102" />
		<rect
   x="17.383"
   y="40.469"
   fill="#9A9A9A"
   width="43.52"
   height="4.386"
   id="rect104" />
		<rect
   x="23.135"
   y="40.469"
   fill="#B7B7B7"
   width="32.015"
   height="4.386"
   id="rect106" />
		<rect
   x="28.888"
   y="40.469"
   fill="#D4D4D4"
   width="20.51"
   height="4.386"
   id="rect108" />
		<rect
   x="34.641"
   y="40.469"
   fill="#F1F1F1"
   width="9.004"
   height="4.386"
   id="rect110" />
	</g>
	<path
   d="M67.155,45.354H11.13v-5.386h56.025V45.354z M12.13,44.354h54.025v-3.386H12.13V44.354z"
   id="path114" />
	<g
   id="g120">
		<polygon
   fill="#666666"
   points="5.628,53.5 72.657,53.5 66.655,44.854 11.63,44.854   "
   id="polygon116" />
		<path
   d="M72.657,54H5.628c-0.187,0-0.357-0.104-0.443-0.268c-0.087-0.166-0.074-0.365,0.031-0.518l6.003-8.646    c0.094-0.135,0.247-0.216,0.411-0.216h55.025c0.164,0,0.317,0.081,0.411,0.216l6.003,8.646c0.105,0.152,0.118,0.352,0.031,0.518    C73.015,53.896,72.844,54,72.657,54z M6.584,53h65.117l-5.308-7.645H11.892L6.584,53z"
   id="path118" />
	</g>
	<g
   id="g192">
		<g
   id="g130">
			<g
   id="g126">
				<rect
   x="61.528"
   y="0.5"
   fill="#666666"
   width="14.693"
   height="2.819"
   id="rect122" />
				<rect
   x="61.528"
   y="0.5"
   fill="#B1B1B1"
   width="14.693"
   height="1.41"
   id="rect124" />
			</g>
			<path
   d="M76.722,3.819H61.028V0h15.693V3.819z M62.028,2.819h13.693V1H62.028V2.819z"
   id="path128" />
		</g>
		<g
   id="g140">
			<g
   id="g136">
				<rect
   x="61.528"
   y="5.862"
   fill="#666666"
   width="14.693"
   height="2.819"
   id="rect132" />
				<rect
   x="61.528"
   y="5.862"
   fill="#B1B1B1"
   width="14.693"
   height="1.41"
   id="rect134" />
			</g>
			<path
   d="M76.722,9.181H61.028V5.362h15.693V9.181z M62.028,8.181h13.693V6.362H62.028V8.181z"
   id="path138" />
		</g>
		<g
   id="g150">
			<g
   id="g146">
				<rect
   x="61.528"
   y="11.223"
   fill="#666666"
   width="14.693"
   height="2.819"
   id="rect142" />
				<rect
   x="61.528"
   y="11.223"
   fill="#B1B1B1"
   width="14.693"
   height="1.41"
   id="rect144" />
			</g>
			<path
   d="M76.722,14.542H61.028v-3.819h15.693V14.542z M62.028,13.542h13.693v-1.819H62.028V13.542z"
   id="path148" />
		</g>
		<g
   id="g160">
			<g
   id="g156">
				<rect
   x="61.528"
   y="16.585"
   fill="#666666"
   width="14.693"
   height="2.819"
   id="rect152" />
				<rect
   x="61.528"
   y="16.585"
   fill="#B1B1B1"
   width="14.693"
   height="1.41"
   id="rect154" />
			</g>
			<path
   d="M76.722,19.904H61.028v-3.819h15.693V19.904z M62.028,18.904h13.693v-1.819H62.028V18.904z"
   id="path158" />
		</g>
		<g
   id="g170">
			<g
   id="g166">
				<rect
   x="61.56"
   y="21.947"
   fill="#666666"
   width="14.693"
   height="2.819"
   id="rect162" />
				<rect
   x="61.56"
   y="21.947"
   fill="#B1B1B1"
   width="14.693"
   height="1.409"
   id="rect164" />
			</g>
			<path
   d="M76.753,25.266H61.06v-3.819h15.693V25.266z M62.06,24.266h13.693v-1.819H62.06V24.266z"
   id="path168" />
		</g>
		<g
   id="g180">
			<g
   id="g176">
				<rect
   x="61.56"
   y="27.308"
   fill="#666666"
   width="14.693"
   height="2.819"
   id="rect172" />
				<rect
   x="61.56"
   y="27.308"
   fill="#B1B1B1"
   width="14.693"
   height="1.41"
   id="rect174" />
			</g>
			<path
   d="M76.753,30.627H61.06v-3.819h15.693V30.627z M62.06,29.627h13.693v-1.819H62.06V29.627z"
   id="path178" />
		</g>
		<g
   id="g190">
			<g
   id="g186">
				<rect
   x="61.56"
   y="32.67"
   fill="#666666"
   width="14.693"
   height="2.818"
   id="rect182" />
				<rect
   x="61.56"
   y="32.67"
   fill="#B1B1B1"
   width="14.693"
   height="1.409"
   id="rect184" />
			</g>
			<path
   d="M76.753,35.988H61.06V32.17h15.693V35.988z M62.06,34.988h13.693V33.17H62.06V34.988z"
   id="path188" />
		</g>
	</g>
	<path
   d="M70.97,35.957H66.78V0h4.189V35.957z M67.78,34.957h2.189V1H67.78V34.957z"
   id="path194" />
	<g
   id="g208">
		<g
   id="g206">
			<rect
   x="67.28"
   y="0.5"
   fill="#565656"
   width="3.189"
   height="34.957"
   id="rect196" />
			<rect
   x="67.28"
   y="3.911"
   fill="#7D7D7D"
   width="3.189"
   height="28.136"
   id="rect198" />
			<rect
   x="67.28"
   y="7.321"
   fill="#A4A4A4"
   width="3.189"
   height="21.315"
   id="rect200" />
			<rect
   x="67.28"
   y="10.731"
   fill="#CACACA"
   width="3.189"
   height="14.494"
   id="rect202" />
			<rect
   x="67.28"
   y="14.142"
   fill="#F1F1F1"
   width="3.189"
   height="7.673"
   id="rect204" />
		</g>
	</g>
	<g
   id="g214">
		<rect
   x="22.823"
   y="9.396"
   fill="#666666"
   width="27.262"
   height="17.912"
   id="rect210" />
		<path
   d="M50.585,27.808H22.323V8.896h28.262V27.808z M23.323,26.808h26.262V9.896H23.323V26.808z"
   id="path212" />
	</g>
	<g
   id="g220">
		<rect
   x="47.864"
   y="7.435"
   fill="#F1F1F1"
   width="3.915"
   height="3.922"
   id="rect216" />
		<path
   d="M52.279,11.857h-4.915V6.935h4.915V11.857z M48.364,10.857h2.915V7.935h-2.915V10.857z"
   id="path218" />
	</g>
	<g
   id="g226">
		<rect
   x="20.866"
   y="7.435"
   fill="#F1F1F1"
   width="3.914"
   height="3.922"
   id="rect222" />
		<path
   d="M25.28,11.857h-4.914V6.935h4.914V11.857z M21.366,10.857h2.914V7.935h-2.914V10.857z"
   id="path224" />
	</g>
	<g
   id="g232">
		<rect
   x="47.864"
   y="25.347"
   fill="#F1F1F1"
   width="3.915"
   height="3.923"
   id="rect228" />
		<path
   d="M52.279,29.77h-4.915v-4.923h4.915V29.77z M48.364,28.77h2.915v-2.923h-2.915V28.77z"
   id="path230" />
	</g>
	<g
   id="g238">
		<rect
   x="20.866"
   y="25.347"
   fill="#F1F1F1"
   width="3.914"
   height="3.923"
   id="rect234" />
		<path
   d="M25.28,29.77h-4.914v-4.923h4.914V29.77z M21.366,28.77h2.914v-2.923h-2.914V28.77z"
   id="path236" />
	</g>
	<g
   id="g244">
		<rect
   x="36.181"
   y="12.99"
   fill="#37B34A"
   width="10.703"
   height="10.724"
   id="rect240" />
		<path
   d="M47.384,24.214H35.681V12.49h11.703V24.214z M36.681,23.214h9.703V13.49h-9.703V23.214z"
   id="path242" />
	</g>
	<g
   id="g250">
		<rect
   x="26.262"
   y="12.99"
   fill="#FFF100"
   width="8.379"
   height="4.132"
   id="rect246" />
		<path
   d="M35.141,17.623h-9.379V12.49h9.379V17.623z M26.762,16.623h7.379V13.49h-7.379V16.623z"
   id="path248" />
	</g>
	<g
   id="g256">
		<rect
   x="26.262"
   y="19.336"
   fill="#EC1C24"
   width="8.379"
   height="4.377"
   id="rect252" />
		<path
   d="M35.141,24.214h-9.379v-5.377h9.379V24.214z M26.762,23.214h7.379v-3.377h-7.379V23.214z"
   id="path254" />
	</g>
</g>
</svg>
