<?xml version="1.0" encoding="UTF-8" standalone="no"?>
<svg
   xmlns:dc="http://purl.org/dc/elements/1.1/"
   xmlns:cc="http://creativecommons.org/ns#"
   xmlns:rdf="http://www.w3.org/1999/02/22-rdf-syntax-ns#"
   xmlns:svg="http://www.w3.org/2000/svg"
   xmlns="http://www.w3.org/2000/svg"
   xmlns:sodipodi="http://sodipodi.sourceforge.net/DTD/sodipodi-0.dtd"
   xmlns:inkscape="http://www.inkscape.org/namespaces/inkscape"
   version="1.1"
   id="图层_1"
   x="0px"
   y="0px"
   width="134.658px"
   height="129.844px"
   viewBox="197.24 322.748 134.658 129.844"
   enable-background="new 197.24 322.748 134.658 129.844"
   xml:space="preserve"
   sodipodi:docname="加工设备-10.svg"><metadata
   id="metadata41"><rdf:RDF><cc:Work
       rdf:about=""><dc:format>image/svg+xml</dc:format><dc:type
         rdf:resource="http://purl.org/dc/dcmitype/StillImage" /></cc:Work></rdf:RDF></metadata><defs
   id="defs39" /><sodipodi:namedview
   pagecolor="#ffffff"
   bordercolor="#666666"
   borderopacity="1"
   objecttolerance="10"
   gridtolerance="10"
   guidetolerance="10"
   inkscape:pageopacity="0"
   inkscape:pageshadow="2"
   inkscape:window-width="640"
   inkscape:window-height="480"
   id="namedview37" />
<g
   id="g34">
	
		<rect
   x="197.49"
   y="331.412"
   fill="#005F7F"
   stroke="#231815"
   stroke-width="0.5"
   stroke-miterlimit="10"
   width="134.158"
   height="5.259"
   id="rect2" />
	
		<rect
   x="197.49"
   y="421.262"
   fill="#005F7F"
   stroke="#231815"
   stroke-width="0.5"
   stroke-miterlimit="10"
   width="134.158"
   height="5.258"
   id="rect4" />
	
		<rect
   x="197.49"
   y="336.671"
   fill="#40A9CC"
   stroke="#231815"
   stroke-width="0.5"
   stroke-miterlimit="10"
   width="134.158"
   height="84.591"
   id="rect6" />
	<g
   id="g16">
		
			<rect
   x="229.867"
   y="322.998"
   fill="#40A9CC"
   stroke="#231815"
   stroke-width="0.5"
   stroke-miterlimit="10"
   width="34.703"
   height="98.264"
   id="rect8" />
		<g
   id="g14">
			<path
   fill="#005F7F"
   stroke="#231815"
   stroke-width="0.5"
   stroke-miterlimit="10"
   d="M256.318,400.615     c0,5.957-2.283,6.763-5.078,1.788l-11.029-19.65c-2.793-4.975-2.793-13.117,0-18.092l11.029-19.648     c2.795-4.977,5.078-4.172,5.078,1.787V400.615z"
   id="path10" />
			<path
   fill="#005F7F"
   stroke="#231815"
   stroke-width="0.5"
   stroke-miterlimit="10"
   d="M256.318,400.615     c0,5.957-2.283,6.763-5.078,1.788l-11.029-19.65c-2.793-4.975-2.793-13.117,0-18.092l11.029-19.648     c2.795-4.977,5.078-4.172,5.078,1.787V400.615z"
   id="path12" />
		</g>
	</g>
	<g
   id="g26">
		
			<rect
   x="264.57"
   y="322.998"
   fill="#40A9CC"
   stroke="#231815"
   stroke-width="0.5"
   stroke-miterlimit="10"
   width="34.702"
   height="98.264"
   id="rect18" />
		<g
   id="g24">
			<path
   fill="#005F7F"
   stroke="#231815"
   stroke-width="0.5"
   stroke-miterlimit="10"
   d="M272.82,400.615     c0,5.957,2.283,6.763,5.078,1.788l11.029-19.65c2.793-4.975,2.793-13.117,0-18.092l-11.029-19.648     c-2.795-4.977-5.078-4.172-5.078,1.787V400.615z"
   id="path20" />
			<path
   fill="#005F7F"
   stroke="#231815"
   stroke-width="0.5"
   stroke-miterlimit="10"
   d="M272.82,400.615     c0,5.957,2.283,6.763,5.078,1.788l11.029-19.65c2.793-4.975,2.793-13.117,0-18.092l-11.029-19.648     c-2.795-4.977-5.078-4.172-5.078,1.787V400.615z"
   id="path22" />
		</g>
	</g>
	<polygon
   fill="#054051"
   stroke="#231815"
   stroke-width="0.5"
   stroke-miterlimit="10"
   points="331.648,426.521 331.648,442.35    322.713,442.35 322.713,444.983 206.43,444.983 206.43,442.35 197.494,442.35 197.494,426.521  "
   id="polygon28" />
	
		<rect
   x="229.867"
   y="426.521"
   fill="#005F7F"
   stroke="#231815"
   stroke-width="0.5"
   stroke-miterlimit="10"
   width="8.25"
   height="25.821"
   id="rect30" />
	
		<rect
   x="291.023"
   y="426.521"
   fill="#005F7F"
   stroke="#231815"
   stroke-width="0.5"
   stroke-miterlimit="10"
   width="8.249"
   height="25.821"
   id="rect32" />
</g>
</svg>
