<?xml version="1.0" encoding="UTF-8" standalone="no"?>
<svg
   xmlns:dc="http://purl.org/dc/elements/1.1/"
   xmlns:cc="http://creativecommons.org/ns#"
   xmlns:rdf="http://www.w3.org/1999/02/22-rdf-syntax-ns#"
   xmlns:svg="http://www.w3.org/2000/svg"
   xmlns="http://www.w3.org/2000/svg"
   xmlns:sodipodi="http://sodipodi.sourceforge.net/DTD/sodipodi-0.dtd"
   xmlns:inkscape="http://www.inkscape.org/namespaces/inkscape"
   version="1.1"
   id="图层_1"
   x="0px"
   y="0px"
   width="129.834px"
   height="125.834px"
   viewBox="356.236 471.091 129.834 125.834"
   enable-background="new 356.236 471.091 129.834 125.834"
   xml:space="preserve"
   sodipodi:docname="加工设备-15.svg"><metadata
   id="metadata51"><rdf:RDF><cc:Work
       rdf:about=""><dc:format>image/svg+xml</dc:format><dc:type
         rdf:resource="http://purl.org/dc/dcmitype/StillImage" /></cc:Work></rdf:RDF></metadata><defs
   id="defs49" /><sodipodi:namedview
   pagecolor="#ffffff"
   bordercolor="#666666"
   borderopacity="1"
   objecttolerance="10"
   gridtolerance="10"
   guidetolerance="10"
   inkscape:pageopacity="0"
   inkscape:pageshadow="2"
   inkscape:window-width="640"
   inkscape:window-height="480"
   id="namedview47" />
<g
   id="g44">
	<path
   fill="#4FAAD3"
   stroke="#231815"
   stroke-width="0.5"
   stroke-miterlimit="10"
   d="M435.887,482.174v-10.833h-31.651v10.833   c-5.291,0-9.58,4.29-9.58,9.58v74.92h72.5v-84.5H435.887z"
   id="path2" />
	
		<rect
   x="356.486"
   y="492.007"
   fill="#4FAAD3"
   stroke="#231815"
   stroke-width="0.5"
   stroke-miterlimit="10"
   width="38.168"
   height="74.667"
   id="rect4" />
	
		<rect
   x="371.377"
   y="482.174"
   fill="#4FAAD3"
   stroke="#231815"
   stroke-width="0.5"
   stroke-miterlimit="10"
   width="23.277"
   height="9.833"
   id="rect6" />
	<g
   id="g14">
		<path
   fill="#19698C"
   stroke="#231815"
   stroke-width="0.5"
   stroke-miterlimit="10"
   d="M377.484,535.085v14.391h-6.58    c-1.66,0-3-1.351-3-3v-11.391H377.484z"
   id="path8" />
		<path
   fill="#2BB3EF"
   stroke="#231815"
   stroke-width="0.5"
   stroke-miterlimit="10"
   d="M383.014,512.205v34.271c0,1.649-1.34,3-3,3    h-2.528v-14.391h-9.58v-11.5h9.58v-14.38h2.528C381.674,509.205,383.014,510.545,383.014,512.205z"
   id="path10" />
		<path
   fill="#19698C"
   stroke="#231815"
   stroke-width="0.5"
   stroke-miterlimit="10"
   d="M377.484,509.205v14.38h-9.58v-11.38    c0-1.66,1.34-3,3-3H377.484L377.484,509.205z"
   id="path12" />
	</g>
	
		<rect
   x="394.654"
   y="492.007"
   fill="#2BB3EF"
   stroke="#231815"
   stroke-width="0.5"
   stroke-miterlimit="10"
   width="4.692"
   height="67.334"
   id="rect16" />
	
		<rect
   x="435.887"
   y="479.34"
   fill="#4FAAD3"
   stroke="#231815"
   stroke-width="0.5"
   stroke-miterlimit="10"
   width="36.601"
   height="2.834"
   id="rect18" />
	
		<rect
   x="467.154"
   y="549.476"
   fill="#4FAAD3"
   stroke="#231815"
   stroke-width="0.5"
   stroke-miterlimit="10"
   width="5.332"
   height="17.198"
   id="rect20" />
	
		<rect
   x="402.75"
   y="492.007"
   fill="#63BFE0"
   stroke="#231815"
   stroke-width="0.5"
   stroke-miterlimit="10"
   width="31.938"
   height="67.334"
   id="rect22" />
	<path
   fill="#19698C"
   stroke="#231815"
   stroke-width="0.5"
   stroke-miterlimit="10"
   d="M427.635,499.193   c-0.319-0.119-0.672-0.189-1.041-0.189h-2.858h-12.892c-1.66,0-3,1.351-3,3v35.32v9.58v2.438c0,1.65,1.34,3,3,3h0.851h2.01h12.891   c1.66,0,3-1.35,3-3v-35.319v-4.83v-7.189C429.594,500.714,428.783,499.614,427.635,499.193z"
   id="path24" />
	<g
   opacity="0.9"
   id="g30">
		<path
   opacity="0.7"
   fill="#FFFFFF"
   enable-background="new    "
   d="M427.41,499.858l-19.293,46.513v-9.34l15.49-37.357h2.789    C426.756,499.674,427.098,499.742,427.41,499.858z"
   id="path26" />
		<polygon
   opacity="0.7"
   fill="#FFFFFF"
   enable-background="new    "
   points="429.32,509.607 429.32,514.316 413.83,551.674     411.871,551.674   "
   id="polygon28" />
	</g>
	
		<rect
   x="363.152"
   y="566.674"
   fill="#19698C"
   stroke="#231815"
   stroke-width="0.5"
   stroke-miterlimit="10"
   width="19.082"
   height="30.001"
   id="rect32" />
	
		<rect
   x="423.822"
   y="566.674"
   fill="#19698C"
   stroke="#231815"
   stroke-width="0.5"
   stroke-miterlimit="10"
   width="39.33"
   height="30.001"
   id="rect34" />
	
		<rect
   x="463.152"
   y="566.674"
   fill="#19698C"
   stroke="#231815"
   stroke-width="0.5"
   stroke-miterlimit="10"
   width="22.668"
   height="30.001"
   id="rect36" />
	
		<rect
   x="382.234"
   y="566.674"
   fill="#19698C"
   stroke="#231815"
   stroke-width="0.5"
   stroke-miterlimit="10"
   width="41.588"
   height="24.668"
   id="rect38" />
	<g
   id="g42">
		<polygon
   fill="#DDDDDD"
   points="458.654,582.674 396,582.674 396,563.007 398,563.007 398,580.674 458.654,580.674   "
   id="polygon40" />
	</g>
</g>
</svg>
