<?xml version="1.0" encoding="UTF-8" standalone="no"?>
<svg
   xmlns:dc="http://purl.org/dc/elements/1.1/"
   xmlns:cc="http://creativecommons.org/ns#"
   xmlns:rdf="http://www.w3.org/1999/02/22-rdf-syntax-ns#"
   xmlns:svg="http://www.w3.org/2000/svg"
   xmlns="http://www.w3.org/2000/svg"
   xmlns:sodipodi="http://sodipodi.sourceforge.net/DTD/sodipodi-0.dtd"
   xmlns:inkscape="http://www.inkscape.org/namespaces/inkscape"
   version="1.1"
   id="图层_1"
   x="0px"
   y="0px"
   width="129.834px"
   height="125.834px"
   viewBox="514.089 471.091 129.834 125.834"
   enable-background="new 514.089 471.091 129.834 125.834"
   xml:space="preserve"
   sodipodi:docname="加工设备-16.svg"><metadata
   id="metadata51"><rdf:RDF><cc:Work
       rdf:about=""><dc:format>image/svg+xml</dc:format><dc:type
         rdf:resource="http://purl.org/dc/dcmitype/StillImage" /></cc:Work></rdf:RDF></metadata><defs
   id="defs49" /><sodipodi:namedview
   pagecolor="#ffffff"
   bordercolor="#666666"
   borderopacity="1"
   objecttolerance="10"
   gridtolerance="10"
   guidetolerance="10"
   inkscape:pageopacity="0"
   inkscape:pageshadow="2"
   inkscape:window-width="640"
   inkscape:window-height="480"
   id="namedview47" />
<g
   id="g44">
	<path
   fill="#939393"
   stroke="#1B1B1B"
   stroke-width="0.5"
   stroke-miterlimit="10"
   d="M593.739,482.174v-10.833h-31.652v10.833   c-5.291,0-9.58,4.29-9.58,9.58v74.92h72.5v-84.5H593.739z"
   id="path2" />
	
		<rect
   x="514.339"
   y="492.007"
   fill="#939393"
   stroke="#1B1B1B"
   stroke-width="0.5"
   stroke-miterlimit="10"
   width="38.168"
   height="74.667"
   id="rect4" />
	
		<rect
   x="529.229"
   y="482.174"
   fill="#939393"
   stroke="#1B1B1B"
   stroke-width="0.5"
   stroke-miterlimit="10"
   width="23.277"
   height="9.833"
   id="rect6" />
	<g
   id="g14">
		<path
   fill="#555555"
   stroke="#1B1B1B"
   stroke-width="0.5"
   stroke-miterlimit="10"
   d="M535.337,535.085v14.391h-6.58    c-1.66,0-3-1.351-3-3v-11.391H535.337z"
   id="path8" />
		<path
   fill="#919191"
   stroke="#1B1B1B"
   stroke-width="0.5"
   stroke-miterlimit="10"
   d="M540.866,512.205v34.271c0,1.649-1.34,3-3,3    h-2.529v-14.391h-9.58v-11.5h9.58v-14.38h2.529C539.526,509.205,540.866,510.545,540.866,512.205z"
   id="path10" />
		<path
   fill="#555555"
   stroke="#1B1B1B"
   stroke-width="0.5"
   stroke-miterlimit="10"
   d="M535.337,509.205v14.38h-9.58v-11.38    c0-1.66,1.34-3,3-3H535.337L535.337,509.205z"
   id="path12" />
	</g>
	
		<rect
   x="552.507"
   y="492.007"
   fill="#919191"
   stroke="#1B1B1B"
   stroke-width="0.5"
   stroke-miterlimit="10"
   width="4.693"
   height="67.334"
   id="rect16" />
	
		<rect
   x="593.739"
   y="479.34"
   fill="#939393"
   stroke="#1B1B1B"
   stroke-width="0.5"
   stroke-miterlimit="10"
   width="36.6"
   height="2.834"
   id="rect18" />
	
		<rect
   x="625.007"
   y="549.476"
   fill="#939393"
   stroke="#1B1B1B"
   stroke-width="0.5"
   stroke-miterlimit="10"
   width="5.332"
   height="17.198"
   id="rect20" />
	
		<rect
   x="560.604"
   y="492.007"
   fill="#A7A7A7"
   stroke="#1B1B1B"
   stroke-width="0.5"
   stroke-miterlimit="10"
   width="31.938"
   height="67.334"
   id="rect22" />
	<path
   fill="#555555"
   stroke="#1B1B1B"
   stroke-width="0.5"
   stroke-miterlimit="10"
   d="M585.487,499.193   c-0.32-0.119-0.672-0.189-1.041-0.189h-2.859h-12.891c-1.66,0-3,1.351-3,3v35.32v9.58v2.438c0,1.65,1.34,3,3,3h0.85h2.01h12.892   c1.66,0,3-1.35,3-3v-35.319v-4.83v-7.189C587.446,500.714,586.636,499.614,585.487,499.193z"
   id="path24" />
	<g
   opacity="0.9"
   id="g30">
		<path
   opacity="0.7"
   fill="#FFFFFF"
   enable-background="new    "
   d="M585.263,499.858l-19.293,46.513v-9.34l15.49-37.357h2.789    C584.608,499.674,584.95,499.742,585.263,499.858z"
   id="path26" />
		<polygon
   opacity="0.7"
   fill="#FFFFFF"
   enable-background="new    "
   points="587.173,509.607 587.173,514.316 571.683,551.674     569.724,551.674   "
   id="polygon28" />
	</g>
	
		<rect
   x="521.005"
   y="566.674"
   fill="#555555"
   stroke="#1B1B1B"
   stroke-width="0.5"
   stroke-miterlimit="10"
   width="19.082"
   height="30.001"
   id="rect32" />
	
		<rect
   x="581.675"
   y="566.674"
   fill="#555555"
   stroke="#1B1B1B"
   stroke-width="0.5"
   stroke-miterlimit="10"
   width="39.33"
   height="30.001"
   id="rect34" />
	
		<rect
   x="621.005"
   y="566.674"
   fill="#555555"
   stroke="#1B1B1B"
   stroke-width="0.5"
   stroke-miterlimit="10"
   width="22.668"
   height="30.001"
   id="rect36" />
	
		<rect
   x="540.087"
   y="566.674"
   fill="#555555"
   stroke="#1B1B1B"
   stroke-width="0.5"
   stroke-miterlimit="10"
   width="41.588"
   height="24.668"
   id="rect38" />
	<g
   id="g42">
		<polygon
   fill="#DDDDDD"
   points="616.507,582.674 553.854,582.674 553.854,563.007 555.854,563.007 555.854,580.674     616.507,580.674   "
   id="polygon40" />
	</g>
</g>
</svg>
