<?xml version="1.0" encoding="UTF-8" standalone="no"?>
<svg
   xmlns:dc="http://purl.org/dc/elements/1.1/"
   xmlns:cc="http://creativecommons.org/ns#"
   xmlns:rdf="http://www.w3.org/1999/02/22-rdf-syntax-ns#"
   xmlns:svg="http://www.w3.org/2000/svg"
   xmlns="http://www.w3.org/2000/svg"
   xmlns:sodipodi="http://sodipodi.sourceforge.net/DTD/sodipodi-0.dtd"
   xmlns:inkscape="http://www.inkscape.org/namespaces/inkscape"
   version="1.1"
   id="图层_1"
   x="0px"
   y="0px"
   width="72.677px"
   height="107.626px"
   viewBox="384.814 628.334 72.677 107.626"
   enable-background="new 384.814 628.334 72.677 107.626"
   xml:space="preserve"
   sodipodi:docname="加工设备-19.svg"><metadata
   id="metadata54"><rdf:RDF><cc:Work
       rdf:about=""><dc:format>image/svg+xml</dc:format><dc:type
         rdf:resource="http://purl.org/dc/dcmitype/StillImage" /></cc:Work></rdf:RDF></metadata><defs
   id="defs52" /><sodipodi:namedview
   pagecolor="#ffffff"
   bordercolor="#666666"
   borderopacity="1"
   objecttolerance="10"
   gridtolerance="10"
   guidetolerance="10"
   inkscape:pageopacity="0"
   inkscape:pageshadow="2"
   inkscape:window-width="640"
   inkscape:window-height="480"
   id="namedview50" />
<g
   id="g47">
	
		<linearGradient
   id="SVGID_1_"
   gradientUnits="userSpaceOnUse"
   x1="380.9189"
   y1="197.6631"
   x2="444.709"
   y2="197.6631"
   gradientTransform="matrix(1 0 0 -1 8.3398 909.04)">
		<stop
   offset="0.0197"
   style="stop-color:#358BBA"
   id="stop2" />
		<stop
   offset="0.5"
   style="stop-color:#97D7ED"
   id="stop4" />
		<stop
   offset="1"
   style="stop-color:#358BBA"
   id="stop6" />
	</linearGradient>
	<path
   fill="url(#SVGID_1_)"
   stroke="#1B1B1B"
   stroke-width="0.5"
   stroke-miterlimit="10"
   d="M453.049,726.044   C453.049,726.043,453.049,726.043,453.049,726.044c0-0.271-0.046-0.539-0.118-0.802l-5.606-38.198h-52.34l-5.607,38.198   c-0.072,0.263-0.118,0.528-0.118,0.801c0,0,0,0,0,0.001l0,0l0,0c0.001,5.339,14.28,9.666,31.896,9.666   S453.048,731.383,453.049,726.044L453.049,726.044L453.049,726.044z"
   id="path9" />
	
		<linearGradient
   id="SVGID_2_"
   gradientUnits="userSpaceOnUse"
   x1="398.8311"
   y1="278.3936"
   x2="426.7939"
   y2="278.3936"
   gradientTransform="matrix(1 0 0 -1 8.3398 909.04)">
		<stop
   offset="0.0197"
   style="stop-color:#358BBA"
   id="stop11" />
		<stop
   offset="0.5"
   style="stop-color:#97D7ED"
   id="stop13" />
		<stop
   offset="1"
   style="stop-color:#358BBA"
   id="stop15" />
	</linearGradient>
	
		<rect
   x="407.171"
   y="628.584"
   fill="url(#SVGID_2_)"
   stroke="#1B1B1B"
   stroke-width="0.5"
   stroke-miterlimit="10"
   width="27.963"
   height="4.125"
   id="rect18" />
	
		<linearGradient
   id="SVGID_3_"
   gradientUnits="userSpaceOnUse"
   x1="376.7246"
   y1="242.1777"
   x2="448.9014"
   y2="242.1777"
   gradientTransform="matrix(1 0 0 -1 8.3398 909.04)">
		<stop
   offset="0.0197"
   style="stop-color:#358BBA"
   id="stop20" />
		<stop
   offset="0.5"
   style="stop-color:#97D7ED"
   id="stop22" />
		<stop
   offset="1"
   style="stop-color:#358BBA"
   id="stop24" />
	</linearGradient>
	<path
   fill="url(#SVGID_3_)"
   stroke="#1B1B1B"
   stroke-width="0.5"
   stroke-miterlimit="10"
   d="M421.152,631.376   c-19.932,0-36.088,4.053-36.088,9.051v52.871c0,4.998,16.156,9.051,36.088,9.051s36.089-4.053,36.089-9.051v-52.871   C457.241,635.429,441.084,631.376,421.152,631.376z"
   id="path27" />
	<g
   id="g35">
		
			<rect
   x="410.909"
   y="714.543"
   fill="#81C6E1"
   stroke="#1B1B1B"
   stroke-width="0.5"
   stroke-miterlimit="10"
   width="20.488"
   height="12.499"
   id="rect29" />
		<polygon
   fill="#B2E8F7"
   points="413.095,716.729 429.544,716.729 431.397,714.875 411.241,714.875 411.241,726.86     413.095,725.007   "
   id="polygon31" />
		<polygon
   fill="#368CBB"
   points="429.544,725.007 413.095,725.007 411.241,726.86 431.397,726.86 431.397,714.875 429.544,716.729       "
   id="polygon33" />
	</g>
	<g
   id="g43">
		
			<rect
   x="414.924"
   y="647.813"
   fill="#81C6E1"
   stroke="#1B1B1B"
   stroke-width="0.5"
   stroke-miterlimit="10"
   width="12.459"
   height="7.601"
   id="rect37" />
		<polygon
   fill="#B2E8F7"
   points="416.253,649.142 426.256,649.142 427.383,648.015 415.126,648.015 415.126,655.303     416.253,654.176   "
   id="polygon39" />
		<polygon
   fill="#368CBB"
   points="426.256,654.176 416.253,654.176 415.126,655.303 427.383,655.303 427.383,648.015     426.256,649.142   "
   id="polygon41" />
	</g>
	<path
   fill="#368CBB"
   d="M422.175,696.188c0,0.563-0.457,1.021-1.021,1.021l0,0c-0.564,0-1.022-0.458-1.022-1.021v-18.959   c0-0.563,0.458-1.021,1.022-1.021l0,0c0.563,0,1.021,0.458,1.021,1.021V696.188z"
   id="path45" />
</g>
</svg>
