<?xml version="1.0" encoding="UTF-8" standalone="no"?>
<svg
   xmlns:dc="http://purl.org/dc/elements/1.1/"
   xmlns:cc="http://creativecommons.org/ns#"
   xmlns:rdf="http://www.w3.org/1999/02/22-rdf-syntax-ns#"
   xmlns:svg="http://www.w3.org/2000/svg"
   xmlns="http://www.w3.org/2000/svg"
   xmlns:sodipodi="http://sodipodi.sourceforge.net/DTD/sodipodi-0.dtd"
   xmlns:inkscape="http://www.inkscape.org/namespaces/inkscape"
   version="1.1"
   id="图层_1"
   x="0px"
   y="0px"
   width="72.676px"
   height="107.626px"
   viewBox="542.668 628.334 72.676 107.626"
   enable-background="new 542.668 628.334 72.676 107.626"
   xml:space="preserve"
   sodipodi:docname="加工设备-20.svg"><metadata
   id="metadata54"><rdf:RDF><cc:Work
       rdf:about=""><dc:format>image/svg+xml</dc:format><dc:type
         rdf:resource="http://purl.org/dc/dcmitype/StillImage" /></cc:Work></rdf:RDF></metadata><defs
   id="defs52" /><sodipodi:namedview
   pagecolor="#ffffff"
   bordercolor="#666666"
   borderopacity="1"
   objecttolerance="10"
   gridtolerance="10"
   guidetolerance="10"
   inkscape:pageopacity="0"
   inkscape:pageshadow="2"
   inkscape:window-width="640"
   inkscape:window-height="480"
   id="namedview50" />
<g
   id="g47">
	
		<linearGradient
   id="SVGID_1_"
   gradientUnits="userSpaceOnUse"
   x1="538.7725"
   y1="197.6631"
   x2="602.5625"
   y2="197.6631"
   gradientTransform="matrix(1 0 0 -1 8.3398 909.04)">
		<stop
   offset="0.0197"
   style="stop-color:#767676"
   id="stop2" />
		<stop
   offset="0.5"
   style="stop-color:#C6C6C6"
   id="stop4" />
		<stop
   offset="1"
   style="stop-color:#767676"
   id="stop6" />
	</linearGradient>
	<path
   fill="url(#SVGID_1_)"
   stroke="#1B1B1B"
   stroke-width="0.5"
   stroke-miterlimit="10"
   d="M610.902,726.044   C610.902,726.043,610.902,726.043,610.902,726.044c0-0.271-0.047-0.539-0.119-0.802l-5.607-38.198h-52.34l-5.607,38.198   c-0.071,0.263-0.116,0.528-0.116,0.801c0,0,0,0,0,0.001l0,0l0,0c0,5.339,14.278,9.666,31.895,9.666S610.9,731.383,610.902,726.044   L610.902,726.044L610.902,726.044z"
   id="path9" />
	
		<linearGradient
   id="SVGID_2_"
   gradientUnits="userSpaceOnUse"
   x1="556.6836"
   y1="278.3936"
   x2="584.6465"
   y2="278.3936"
   gradientTransform="matrix(1 0 0 -1 8.3398 909.04)">
		<stop
   offset="0.0197"
   style="stop-color:#767676"
   id="stop11" />
		<stop
   offset="0.5"
   style="stop-color:#C6C6C6"
   id="stop13" />
		<stop
   offset="1"
   style="stop-color:#767676"
   id="stop15" />
	</linearGradient>
	
		<rect
   x="565.023"
   y="628.584"
   fill="url(#SVGID_2_)"
   stroke="#1B1B1B"
   stroke-width="0.5"
   stroke-miterlimit="10"
   width="27.963"
   height="4.125"
   id="rect18" />
	
		<linearGradient
   id="SVGID_3_"
   gradientUnits="userSpaceOnUse"
   x1="534.5781"
   y1="242.1777"
   x2="606.7539"
   y2="242.1777"
   gradientTransform="matrix(1 0 0 -1 8.3398 909.04)">
		<stop
   offset="0.0197"
   style="stop-color:#767676"
   id="stop20" />
		<stop
   offset="0.5"
   style="stop-color:#C6C6C6"
   id="stop22" />
		<stop
   offset="1"
   style="stop-color:#767676"
   id="stop24" />
	</linearGradient>
	<path
   fill="url(#SVGID_3_)"
   stroke="#1B1B1B"
   stroke-width="0.5"
   stroke-miterlimit="10"
   d="M579.006,631.376   c-19.932,0-36.088,4.053-36.088,9.051v52.871c0,4.998,16.156,9.051,36.088,9.051s36.088-4.053,36.088-9.051v-52.871   C615.094,635.429,598.938,631.376,579.006,631.376z"
   id="path27" />
	<g
   id="g35">
		
			<rect
   x="568.762"
   y="714.543"
   fill="#B4B4B4"
   stroke="#1B1B1B"
   stroke-width="0.5"
   stroke-miterlimit="10"
   width="20.488"
   height="12.499"
   id="rect29" />
		<polygon
   fill="#D9D9D9"
   points="570.947,716.729 587.396,716.729 589.25,714.875 569.094,714.875 569.094,726.86 570.947,725.007       "
   id="polygon31" />
		<polygon
   fill="#777777"
   points="587.396,725.007 570.947,725.007 569.094,726.86 589.25,726.86 589.25,714.875 587.396,716.729       "
   id="polygon33" />
	</g>
	<g
   id="g43">
		
			<rect
   x="572.777"
   y="647.813"
   fill="#B4B4B4"
   stroke="#1B1B1B"
   stroke-width="0.5"
   stroke-miterlimit="10"
   width="12.459"
   height="7.601"
   id="rect37" />
		<polygon
   fill="#D9D9D9"
   points="574.105,649.142 584.109,649.142 585.236,648.015 572.979,648.015 572.979,655.303     574.105,654.176   "
   id="polygon39" />
		<polygon
   fill="#777777"
   points="584.109,654.176 574.105,654.176 572.979,655.303 585.236,655.303 585.236,648.015     584.109,649.142   "
   id="polygon41" />
	</g>
	<path
   fill="#777777"
   d="M580.027,696.188c0,0.563-0.457,1.021-1.021,1.021l0,0c-0.563,0-1.021-0.458-1.021-1.021v-18.959   c0-0.563,0.457-1.021,1.021-1.021l0,0c0.564,0,1.021,0.458,1.021,1.021V696.188z"
   id="path45" />
</g>
</svg>
