<?xml version="1.0" encoding="UTF-8" standalone="no"?>
<svg
   xmlns:dc="http://purl.org/dc/elements/1.1/"
   xmlns:cc="http://creativecommons.org/ns#"
   xmlns:rdf="http://www.w3.org/1999/02/22-rdf-syntax-ns#"
   xmlns:svg="http://www.w3.org/2000/svg"
   xmlns="http://www.w3.org/2000/svg"
   xmlns:sodipodi="http://sodipodi.sourceforge.net/DTD/sodipodi-0.dtd"
   xmlns:inkscape="http://www.inkscape.org/namespaces/inkscape"
   version="1.1"
   id="图层_1"
   x="0px"
   y="0px"
   width="105.42px"
   height="105.437px"
   viewBox="53.812 772.058 105.42 105.437"
   enable-background="new 53.812 772.058 105.42 105.437"
   xml:space="preserve"
   sodipodi:docname="加工设备-21.svg"><metadata
   id="metadata13"><rdf:RDF><cc:Work
       rdf:about=""><dc:format>image/svg+xml</dc:format><dc:type
         rdf:resource="http://purl.org/dc/dcmitype/StillImage" /></cc:Work></rdf:RDF></metadata><defs
   id="defs11" /><sodipodi:namedview
   pagecolor="#ffffff"
   bordercolor="#666666"
   borderopacity="1"
   objecttolerance="10"
   gridtolerance="10"
   guidetolerance="10"
   inkscape:pageopacity="0"
   inkscape:pageshadow="2"
   inkscape:window-width="640"
   inkscape:window-height="480"
   id="namedview9" />
<g
   id="g6">
	<path
   fill="#E5E5E5"
   stroke="#231815"
   stroke-width="0.5"
   stroke-miterlimit="10"
   d="M158.423,829l-2.157-4.498   c-0.001-0.122-0.008-0.243-0.009-0.365l2.334,1.232l-2.475-4.353c-0.009-0.115-0.017-0.231-0.026-0.349l2.415,1.066l-2.756-4.146   c-0.018-0.12-0.028-0.242-0.047-0.361l2.464,0.889l-3.037-3.94c-0.026-0.122-0.057-0.241-0.084-0.361l2.53,0.717l-3.305-3.721   c-0.034-0.116-0.065-0.235-0.101-0.354l2.566,0.537l-3.538-3.462c-0.045-0.123-0.097-0.242-0.144-0.364l2.598,0.357l-3.793-3.228   c-0.05-0.111-0.1-0.224-0.151-0.334l2.621,0.176l-3.992-2.94c-0.061-0.113-0.123-0.226-0.185-0.336l2.621-0.007l-4.214-2.674   c-0.065-0.102-0.131-0.202-0.195-0.305l2.628-0.189l-4.385-2.369c-0.071-0.099-0.138-0.198-0.21-0.295l2.597-0.372l-4.554-2.065   c-0.077-0.09-0.155-0.178-0.232-0.268l2.581-0.558l-4.686-1.74c-0.082-0.084-0.16-0.173-0.243-0.256l2.527-0.731l-4.792-1.409   c-0.09-0.08-0.182-0.156-0.271-0.235l2.478-0.909l-4.882-1.072c-0.093-0.071-0.184-0.146-0.276-0.218l2.4-1.077l-4.921-0.727   c-0.104-0.068-0.21-0.134-0.314-0.202l2.319-1.241l-4.974-0.383c-0.104-0.06-0.207-0.119-0.312-0.179l2.225-1.4l-4.948-0.032   c-0.117-0.058-0.238-0.106-0.355-0.162l2.114-1.547l-4.967,0.313c-0.114-0.046-0.229-0.091-0.343-0.136l2.006-1.693l-4.916,0.657   c-0.12-0.039-0.236-0.083-0.356-0.12l1.871-1.817l-4.871,1c-0.121-0.028-0.242-0.056-0.363-0.084l1.752-1.957l-4.801,1.342   c-0.117-0.021-0.233-0.044-0.351-0.063l1.613-2.076l-4.684,1.671c-0.126-0.013-0.253-0.018-0.378-0.027l1.469-2.189l-4.591,2.008   c-0.116-0.003-0.232-0.006-0.35-0.009l1.318-2.294l-4.429,2.317c-0.117,0.005-0.236,0.004-0.354,0.009l1.148-2.368l-4.243,2.613   c-0.123,0.014-0.245,0.032-0.367,0.047l0.982-2.448l-4.057,2.907c-0.119,0.021-0.238,0.041-0.356,0.063l0.809-2.507l-3.817,3.16   c-0.125,0.032-0.25,0.065-0.375,0.1l0.629-2.544l-3.602,3.433c-0.119,0.039-0.236,0.08-0.355,0.12L91,775.074l-3.349,3.67   c-0.115,0.047-0.234,0.089-0.35,0.138l0.269-2.604l-3.087,3.897c-0.113,0.056-0.225,0.115-0.337,0.173l0.087-2.63l-2.814,4.114   c-0.105,0.062-0.213,0.12-0.317,0.182l-0.097-2.627l-2.517,4.293c-0.104,0.071-0.204,0.146-0.307,0.219l-0.281-2.621l-2.223,4.481   c-0.093,0.073-0.187,0.145-0.278,0.219l-0.464-2.598l-1.895,4.602c-0.093,0.084-0.181,0.176-0.272,0.261l-0.644-2.559l-1.579,4.753   c-0.081,0.085-0.162,0.169-0.242,0.254l-0.822-2.513l-1.237,4.826c-0.079,0.095-0.157,0.189-0.234,0.285l-0.991-2.438l-0.9,4.918   c-0.07,0.098-0.139,0.194-0.208,0.291l-1.162-2.371l-0.553,4.948c-0.064,0.104-0.135,0.205-0.198,0.311l-1.316-2.27l-0.206,4.978   c-0.058,0.108-0.112,0.221-0.17,0.33l-1.478-2.181l0.142,4.976c-0.05,0.112-0.104,0.224-0.153,0.338l-1.619-2.064l0.486,4.938   c-0.043,0.12-0.081,0.244-0.123,0.365l-1.764-1.949l0.834,4.913c-0.033,0.117-0.068,0.234-0.101,0.354l-1.896-1.823l1.169,4.819   c-0.025,0.127-0.047,0.255-0.072,0.382l-2.017-1.685l1.515,4.765c-0.016,0.118-0.03,0.237-0.045,0.356l-2.142-1.55l1.844,4.649   c-0.007,0.118-0.02,0.234-0.026,0.353l-2.238-1.392l2.159,4.501c0.001,0.122,0.008,0.243,0.009,0.365l-2.337-1.235l2.478,4.354   c0.008,0.115,0.017,0.231,0.026,0.349l-2.419-1.069l2.76,4.148c0.018,0.12,0.027,0.242,0.046,0.361l-2.467-0.892l3.04,3.942   c0.026,0.122,0.057,0.242,0.084,0.363l-2.534-0.72l3.309,3.723c0.034,0.116,0.065,0.235,0.101,0.354l-2.57-0.539l3.542,3.464   c0.045,0.123,0.097,0.242,0.144,0.364l-2.602-0.357l3.797,3.228c0.051,0.111,0.1,0.224,0.151,0.335l-2.625-0.177l3.996,2.941   c0.061,0.112,0.123,0.225,0.185,0.337l-2.625,0.007l4.219,2.674c0.064,0.102,0.13,0.202,0.194,0.303l-2.632,0.191l4.389,2.37   c0.071,0.097,0.137,0.196,0.209,0.293l-2.6,0.373l4.559,2.063c0.076,0.09,0.154,0.179,0.23,0.269l-2.584,0.558l4.689,1.741   c0.082,0.084,0.159,0.171,0.242,0.254l-2.53,0.732l4.795,1.408c0.089,0.08,0.181,0.156,0.271,0.235l-2.479,0.911l4.884,1.07   c0.094,0.071,0.185,0.146,0.277,0.219L74,865.441l4.923,0.725c0.104,0.068,0.211,0.133,0.314,0.201l-2.321,1.244l4.976,0.38   c0.104,0.06,0.207,0.121,0.312,0.18l-2.227,1.401l4.951,0.031c0.117,0.058,0.237,0.106,0.354,0.162l-2.116,1.55l4.97-0.315   c0.114,0.046,0.228,0.091,0.342,0.135l-2.008,1.696l4.918-0.658c0.119,0.038,0.236,0.082,0.355,0.119l-1.872,1.821l4.874-1.003   c0.12,0.027,0.241,0.055,0.361,0.083l-1.753,1.962l4.804-1.346c0.118,0.021,0.234,0.044,0.353,0.063l-1.61,2.077l4.686-1.672   c0.124,0.013,0.25,0.018,0.373,0.027l-1.466,2.19l4.591-2.009c0.116,0.003,0.231,0.006,0.347,0.009l-1.314,2.295l4.429-2.318   c0.116-0.005,0.234-0.004,0.351-0.009l-1.145,2.368l4.244-2.614c0.122-0.013,0.241-0.031,0.363-0.046l-0.979,2.448l4.058-2.908   c0.117-0.021,0.235-0.041,0.353-0.063l-0.806,2.506l3.817-3.161c0.125-0.032,0.248-0.065,0.372-0.099l-0.626,2.544l3.603-3.435   c0.117-0.038,0.233-0.079,0.351-0.118l-0.448,2.591l3.35-3.672c0.114-0.047,0.231-0.088,0.346-0.136l-0.266,2.604l3.088-3.9   c0.112-0.055,0.222-0.114,0.333-0.17l-0.084,2.63l2.816-4.117c0.104-0.061,0.209-0.118,0.313-0.18l0.1,2.627l2.518-4.296   c0.103-0.069,0.201-0.146,0.303-0.215l0.284,2.619l2.224-4.483c0.091-0.072,0.184-0.144,0.274-0.216l0.467,2.598l1.896-4.604   c0.091-0.084,0.178-0.174,0.269-0.258l0.646,2.558l1.579-4.755c0.08-0.083,0.16-0.167,0.239-0.251l0.825,2.511l1.236-4.826   c0.078-0.095,0.155-0.189,0.232-0.283l0.994,2.438l0.899-4.919c0.069-0.097,0.138-0.192,0.206-0.289l1.165,2.369l0.552-4.949   c0.063-0.104,0.133-0.202,0.196-0.307l1.318,2.266l0.205-4.978c0.058-0.107,0.112-0.219,0.168-0.326l1.479,2.177l-0.142-4.974   c0.049-0.111,0.103-0.223,0.151-0.336l1.62,2.062l-0.486-4.938c0.043-0.12,0.081-0.243,0.123-0.362l1.763,1.945l-0.833-4.911   c0.033-0.116,0.068-0.233,0.101-0.353l1.895,1.82l-1.168-4.817c0.026-0.126,0.047-0.254,0.072-0.38l2.015,1.681l-1.513-4.762   c0.016-0.118,0.03-0.237,0.046-0.355l2.139,1.545l-1.842-4.646c0.007-0.118,0.021-0.234,0.026-0.353L158.423,829z"
   id="path2" />
	<circle
   fill="#333333"
   stroke="#231815"
   stroke-width="0.5"
   stroke-miterlimit="10"
   cx="106.523"
   cy="824.777"
   r="4.667"
   id="circle4" />
</g>
</svg>
