<?xml version="1.0" encoding="UTF-8" standalone="no"?>
<svg
   xmlns:dc="http://purl.org/dc/elements/1.1/"
   xmlns:cc="http://creativecommons.org/ns#"
   xmlns:rdf="http://www.w3.org/1999/02/22-rdf-syntax-ns#"
   xmlns:svg="http://www.w3.org/2000/svg"
   xmlns="http://www.w3.org/2000/svg"
   xmlns:xlink="http://www.w3.org/1999/xlink"
   xmlns:sodipodi="http://sodipodi.sourceforge.net/DTD/sodipodi-0.dtd"
   xmlns:inkscape="http://www.inkscape.org/namespaces/inkscape"
   version="1.1"
   id="图层_1"
   x="0px"
   y="0px"
   width="105.415px"
   height="105.443px"
   viewBox="186.396 772.054 105.415 105.443"
   enable-background="new 186.396 772.054 105.415 105.443"
   xml:space="preserve"
   sodipodi:docname="加工设备-22.svg"><metadata
   id="metadata15"><rdf:RDF><cc:Work
       rdf:about=""><dc:format>image/svg+xml</dc:format><dc:type
         rdf:resource="http://purl.org/dc/dcmitype/StillImage" /></cc:Work></rdf:RDF></metadata><defs
   id="defs13" /><sodipodi:namedview
   pagecolor="#ffffff"
   bordercolor="#666666"
   borderopacity="1"
   objecttolerance="10"
   gridtolerance="10"
   guidetolerance="10"
   inkscape:pageopacity="0"
   inkscape:pageshadow="2"
   inkscape:window-width="640"
   inkscape:window-height="480"
   id="namedview11" />
<g
   id="g8">
	
		<image
   xlink:href="../../../KinSealStudio3.1/externadd/%E5%8A%A0%E5%B7%A5%E8%AE%BE%E5%A4%87/EE8E3C18.png"
   id="image2"
   transform="matrix(0.2377 0 0 0.2377 188.584 774.2598)"
   height="425"
   width="425"
   enable-background="new    "
   overflow="visible">
	</image>
	<path
   fill="#231815"
   d="M239.73,877.497l1.301-2.69l-4.98,2.606l1.486-2.595l-5.15,2.254l1.664-2.485l-5.295,1.891l1.832-2.363   l-5.412,1.516l1.992-2.229l-5.506,1.133l2.143-2.084l-5.572,0.746l2.285-1.93l-5.611,0.355l2.412-1.766l-5.621-0.037l2.531-1.593   l-5.607-0.429l2.637-1.413l-5.563-0.817l2.729-1.227l-5.492-1.205l2.807-1.031l-5.396-1.585l2.875-0.833l-5.273-1.957l2.926-0.633   l-5.125-2.319l2.963-0.425l-4.949-2.674l2.984-0.217l-4.752-3.012l2.996-0.008l-4.531-3.336l2.988,0.201l-4.289-3.646l2.967,0.408   l-4.023-3.936l2.932,0.615l-3.738-4.205l2.881,0.817l-3.436-4.456l2.816,1.017l-3.117-4.685l2.74,1.211l-2.783-4.892l2.648,1.399   l-2.436-5.074l2.545,1.581l-2.076-5.23l2.428,1.756l-1.705-5.365l2.301,1.922l-1.328-5.471l2.16,2.076l-0.941-5.549l2.01,2.222   l-0.553-5.603l1.85,2.357l-0.16-5.627l1.682,2.479l0.232-5.624l1.504,2.592l0.625-5.595l1.318,2.69l1.014-5.536l1.127,2.774   l1.398-5.451l0.932,2.847l1.773-5.341l0.73,2.903l2.143-5.203l0.527,2.948l2.5-5.041l0.318,2.977l2.848-4.854l0.109,2.994   l3.178-4.646l-0.098,2.993l3.494-4.412l-0.309,2.979l3.795-4.158l-0.516,2.951l4.074-3.883l-0.719,2.906l4.336-3.588l-0.92,2.85   l4.574-3.278l-1.115,2.779l4.791-2.951l-1.307,2.695l4.986-2.609l-1.492,2.597l5.156-2.255l-1.668,2.486l5.299-1.891l-1.836,2.361   l5.406-1.512l-1.992,2.227l5.506-1.131l-2.143,2.082l5.572-0.745l-2.283,1.928l5.609-0.354l-2.41,1.765l5.619,0.038l-2.529,1.591   l5.605,0.431l-2.637,1.411l5.563,0.82l-2.727,1.223l5.49,1.206l-2.805,1.031l5.395,1.586l-2.873,0.832l5.271,1.958l-2.922,0.63   l5.119,2.322l-2.959,0.424l4.947,2.674l-2.982,0.216l4.748,3.014l-2.99,0.008l4.527,3.335l-2.986-0.2l4.285,3.643l-2.961-0.406   l4.018,3.932l-2.926-0.612l3.732,4.202l-2.875-0.813l3.432,4.452l-2.811-1.014l3.111,4.682l-2.734-1.207l2.779,4.888l-2.645-1.396   l2.432,5.07l-2.541-1.576l2.072,5.228l-2.426-1.752l1.703,5.359l-2.297-1.916l1.326,5.468l-2.158-2.073l0.939,5.545l-2.008-2.217   l0.553,5.597l-1.85-2.352l0.16,5.619l-1.68-2.474l-0.232,5.617l-1.504-2.584l-0.623,5.588l-1.32-2.686l-1.012,5.531l-1.131-2.769   l-1.395,5.446l-0.934-2.843l-1.771,5.337l-0.734-2.897l-2.139,5.198l-0.529-2.943l-2.498,5.037l-0.322-2.974l-2.844,4.852   l-0.113-2.988l-3.174,4.642l0.096-2.99l-3.492,4.41l0.305-2.978l-3.791,4.154l0.51-2.947l-4.068,3.88l0.715-2.903l-4.332,3.586   l0.916-2.848l-4.57,3.275l1.111-2.776L239.73,877.497z M237.613,874.24l0.82,0.021l-1.098,1.916l3.775-1.95l0.77-0.025   l-0.955,1.975l3.621-2.202c0.07-0.007,0.139-0.017,0.207-0.024l0.57-0.07l-0.818,2.045l3.463-2.452l0.764-0.138l-0.672,2.089   l3.256-2.665l0.777-0.203l-0.521,2.12l3.078-2.9l0.744-0.25l-0.373,2.159l2.863-3.103l0.73-0.298l-0.221,2.17l2.643-3.298   l0.707-0.356l-0.07,2.193l2.412-3.485l0.672-0.394l0.084,2.19l2.16-3.638l0.646-0.452l0.236,2.187l1.912-3.802l0.602-0.479   l0.391,2.17l1.631-3.901l0.578-0.543l0.539,2.135l1.367-4.037l0.525-0.555l0.689,2.097l1.072-4.094l0.498-0.605l0.83,2.031   l0.789-4.179l0.447-0.63l0.973,1.978l0.492-4.2l0.414-0.662l1.098,1.887l0.199-4.229l0.359-0.699l1.234,1.816l-0.119-4.173   l0.34-0.771l1.352,1.718l-0.408-4.141l0.281-0.813l1.469,1.623l-0.699-4.122l0.227-0.811l1.58,1.518l-0.979-4.039l0.166-0.845   l1.678,1.401l-1.27-3.999l0.107-0.826l1.785,1.289l-1.547-3.901l0.016-0.228c0.006-0.061,0.01-0.118,0.014-0.179l0.021-0.423   l1.869,1.159l-1.813-3.832l-0.012-0.784l1.947,1.028l-2.084-3.712l-0.061-0.766l2.018,0.891l-2.322-3.535l-0.021-0.175   c-0.008-0.063-0.016-0.123-0.025-0.185l-0.064-0.416l2.055,0.739l-2.561-3.361l-0.176-0.771l2.111,0.599l-2.789-3.176l-0.221-0.755   l2.139,0.448l-2.984-2.956c-0.025-0.069-0.053-0.137-0.08-0.204l-0.215-0.552l2.168,0.299l-3.207-2.76l-0.328-0.714l2.189,0.146   l-3.375-2.517l-0.387-0.703l2.186-0.006l-3.566-2.289l-0.42-0.659l2.189-0.159l-3.713-2.034l-0.461-0.63l2.166-0.311l-3.859-1.776   l-0.506-0.587l2.154-0.464l-3.975-1.503l-0.541-0.552l2.111-0.612l-4.066-1.221l-0.586-0.513l2.068-0.76l-4.145-0.935l-0.607-0.474   l2-0.897l-4.176-0.641l-0.664-0.432l1.936-1.037l-4.227-0.349l-0.676-0.384l1.857-1.169l-4.199-0.053   c-0.061-0.028-0.121-0.056-0.182-0.082l-0.553-0.259l1.764-1.289l-4.17,0.263l-0.783-0.31l1.672-1.411l-4.125,0.551l-0.213-0.07   c-0.064-0.022-0.129-0.045-0.193-0.064l-0.402-0.125l1.559-1.516l-4.088,0.84l-0.826-0.192l1.463-1.635l-4.028,1.13l-0.818-0.142   l1.346-1.73l-3.93,1.401l-0.057-0.005c-0.068-0.008-0.137-0.013-0.205-0.018l-0.59-0.048l1.227-1.83l-3.857,1.688l-0.824-0.021   l1.1-1.914l-3.773,1.948l-0.771,0.025l0.955-1.973l-3.615,2.198l-0.783,0.098l0.818-2.044l-3.461,2.45l-0.768,0.142l0.676-2.091   l-3.254,2.663l-0.781,0.206l0.523-2.121l-3.074,2.897l-0.752,0.254l0.377-2.159l-2.861,3.099l-0.156,0.063   c-0.064,0.024-0.127,0.049-0.189,0.075l-0.391,0.165l0.225-2.171l-2.641,3.294l-0.711,0.363l0.072-2.195l-2.41,3.479l-0.678,0.395   l-0.08-2.188l-2.158,3.633l-0.65,0.462l-0.234-2.19l-1.91,3.799l-0.605,0.482l-0.389-2.169l-1.631,3.897   c-0.049,0.044-0.096,0.089-0.143,0.135l-0.438,0.409l-0.537-2.135l-1.365,4.033l-0.529,0.559l-0.686-2.098l-1.074,4.094l-0.5,0.61   l-0.826-2.035l-0.791,4.177l-0.449,0.629l-0.969-1.976l-0.494,4.198l-0.098,0.151c-0.033,0.052-0.066,0.104-0.1,0.156l-0.219,0.359   l-1.098-1.892l-0.197,4.227l-0.363,0.702l-1.232-1.817l0.119,4.173l-0.342,0.775l-1.35-1.723l0.408,4.142l-0.279,0.814   l-1.473-1.627l0.701,4.123l-0.227,0.813l-1.582-1.521l0.98,4.04l-0.166,0.849l-1.682-1.403l1.271,4l-0.104,0.829l-1.789-1.294   l1.549,3.902l-0.055,0.828l-1.867-1.161l1.813,3.834l0.012,0.784l-1.947-1.03l2.084,3.716l0.063,0.766l-2.021-0.895l2.324,3.537   l0.023,0.178c0.006,0.062,0.014,0.121,0.023,0.183l0.064,0.417l-2.057-0.743l2.563,3.363l0.176,0.771l-2.115-0.6l2.793,3.177   l0.221,0.755l-2.143-0.448l2.988,2.956c0.025,0.069,0.053,0.138,0.08,0.204l0.215,0.553l-2.172-0.301l3.209,2.761l0.33,0.716   l-2.191-0.147l3.377,2.519l0.387,0.703l-2.189,0.006l3.572,2.292l0.42,0.655l-2.195,0.159l3.717,2.034l0.098,0.141   c0.037,0.051,0.072,0.102,0.109,0.15l0.256,0.338l-2.172,0.313l3.865,1.775l0.504,0.587l-2.158,0.465l3.979,1.503l0.539,0.551   l-2.113,0.613l4.07,1.221l0.584,0.511l-2.07,0.762l4.145,0.933l0.611,0.474l-2.004,0.899l4.176,0.639l0.664,0.433l-1.936,1.037   l4.229,0.349l0.676,0.384l-1.859,1.17l4.203,0.051l0.732,0.342l-1.766,1.291l4.174-0.265l0.785,0.306l-1.678,1.417l4.125-0.552   l0.809,0.261l-1.561,1.519l4.092-0.842l0.824,0.191l-1.463,1.638l4.033-1.13l0.82,0.142l-1.344,1.731l3.934-1.402l0.057,0.006   c0.066,0.007,0.135,0.012,0.203,0.017l0.586,0.05l-1.225,1.829L237.613,874.24z"
   id="path4" />
	<circle
   fill="#333333"
   stroke="#231815"
   stroke-width="0.5"
   stroke-miterlimit="10"
   cx="239.103"
   cy="824.777"
   r="4.667"
   id="circle6" />
</g>
</svg>
