<?xml version="1.0" encoding="UTF-8" standalone="no"?>
<svg
   xmlns:dc="http://purl.org/dc/elements/1.1/"
   xmlns:cc="http://creativecommons.org/ns#"
   xmlns:rdf="http://www.w3.org/1999/02/22-rdf-syntax-ns#"
   xmlns:svg="http://www.w3.org/2000/svg"
   xmlns="http://www.w3.org/2000/svg"
   xmlns:sodipodi="http://sodipodi.sourceforge.net/DTD/sodipodi-0.dtd"
   xmlns:inkscape="http://www.inkscape.org/namespaces/inkscape"
   version="1.1"
   id="图层_1"
   x="0px"
   y="0px"
   width="113.768px"
   height="90.609px"
   viewBox="208.33 206.768 113.768 90.609"
   enable-background="new 208.33 206.768 113.768 90.609"
   xml:space="preserve"
   sodipodi:docname="加工设备-06.svg"><metadata
   id="metadata49"><rdf:RDF><cc:Work
       rdf:about=""><dc:format>image/svg+xml</dc:format><dc:type
         rdf:resource="http://purl.org/dc/dcmitype/StillImage" /></cc:Work></rdf:RDF></metadata><defs
   id="defs47" /><sodipodi:namedview
   pagecolor="#ffffff"
   bordercolor="#666666"
   borderopacity="1"
   objecttolerance="10"
   gridtolerance="10"
   guidetolerance="10"
   inkscape:pageopacity="0"
   inkscape:pageshadow="2"
   inkscape:window-width="640"
   inkscape:window-height="480"
   id="namedview45" />
<g
   id="g42">
	<polygon
   fill="#898989"
   stroke="#1B1B1B"
   stroke-width="0.5"
   stroke-miterlimit="10"
   points="303.697,242.002 299.1,230.532    292.354,224.127 262.85,222.419 262.85,246.786 297.182,246.786 306.184,246.786 314.184,246.786 314.184,242.002  "
   id="polygon2" />
	<path
   fill="#6A6A6A"
   stroke="#1B1B1B"
   stroke-width="0.5"
   stroke-miterlimit="10"
   d="M283.83,209.833l-9.541,9.54   c-0.539-0.41-1.109-0.79-1.721-1.11l9.84-9.84L283.83,209.833z"
   id="path4" />
	<path
   fill="#6A6A6A"
   stroke="#1B1B1B"
   stroke-width="0.5"
   stroke-miterlimit="10"
   d="M224.137,207.122l9.539,9.54   c-0.41,0.54-0.789,1.11-1.109,1.721l-9.84-9.84L224.137,207.122z"
   id="path6" />
	<path
   fill="#6A6A6A"
   stroke="#1B1B1B"
   stroke-width="0.5"
   stroke-miterlimit="10"
   d="M218.617,216.752h13.492   c0.092,0.672,0.227,1.344,0.432,2.001h-13.916L218.617,216.752z"
   id="path8" />
	<path
   fill="#5C5C5C"
   stroke="#1B1B1B"
   stroke-width="0.5"
   stroke-miterlimit="10"
   d="M277.199,233.813   c-0.051,1.41-0.34,5.556-0.811,6.806h-3.82v7.824c-5.91,4.29-27.629,7.13-39.43,7.13h-1.559v-4.13   c10.059-0.61,19.068-3.25,24.229-7v-17.19l4.621-6.5v-4h6v17.06H277.199z"
   id="path10" />
	
		<rect
   x="218.889"
   y="258.26"
   fill="#767676"
   stroke="#1B1B1B"
   stroke-width="0.5"
   stroke-miterlimit="10"
   width="46.799"
   height="33.242"
   id="rect12" />
	
		<rect
   x="265.688"
   y="258.26"
   fill="#767676"
   stroke="#1B1B1B"
   stroke-width="0.5"
   stroke-miterlimit="10"
   width="46.799"
   height="33.242"
   id="rect14" />
	<polygon
   fill="#898989"
   points="264.789,270.286 219.789,278.286 219.789,258.46 264.789,258.46  "
   id="polygon16" />
	<polygon
   fill="#898989"
   points="311.586,261.953 266.586,270.286 266.586,258.46 311.586,258.46  "
   id="polygon18" />
	
		<rect
   x="221.65"
   y="291.501"
   fill="#6A6A6A"
   stroke="#1B1B1B"
   stroke-width="0.5"
   stroke-miterlimit="10"
   width="88.074"
   height="5.626"
   id="rect20" />
	<polygon
   fill="#767676"
   stroke="#1B1B1B"
   stroke-width="0.5"
   stroke-miterlimit="10"
   points="218.889,239.252 218.889,291.502    208.58,291.502 208.58,241.652 210.979,239.252  "
   id="polygon22" />
	<polygon
   fill="#767676"
   stroke="#1B1B1B"
   stroke-width="0.5"
   stroke-miterlimit="10"
   points="225.582,251.568 225.582,239.252    218.889,239.252 218.889,258.26 219.422,258.26 219.422,258.262 321.848,258.262 321.848,251.568  "
   id="polygon24" />
	<polygon
   fill="#767676"
   stroke="#1B1B1B"
   stroke-width="0.5"
   stroke-miterlimit="10"
   points="256.229,246.786 306.184,246.786    306.184,251.568 249.184,251.568  "
   id="polygon26" />
	<path
   fill="#767676"
   stroke="#1B1B1B"
   stroke-width="0.5"
   stroke-miterlimit="10"
   d="M260.43,212.752v8l-4.621,6.5v17.19   c-5.16,3.75-14.17,6.39-24.229,7c-1.461,0.08-2.941,0.13-4.441,0.13h-1.559v-21.4c0-3.47,1.01-6.7,2.76-9.41   c3.1-4.82,8.51-8.01,14.66-8.01H260.43z"
   id="path28" />
	<path
   fill="#767676"
   stroke="#1B1B1B"
   stroke-width="0.5"
   stroke-miterlimit="10"
   d="M281.959,232.088   c0,1.908-0.365,3.719-0.996,5.396H266.43v-20.719c0.061,0,0.121-0.012,0.193-0.012c2.625,0,5.105,0.656,7.268,1.834   c0.74,0.389,1.434,0.851,2.09,1.35C279.613,222.744,281.959,227.142,281.959,232.088z"
   id="path30" />
	
		<rect
   x="258.1"
   y="242.002"
   fill="#767676"
   stroke="#1B1B1B"
   stroke-width="0.5"
   stroke-miterlimit="10"
   width="3.5"
   height="9.566"
   id="rect32" />
	
		<rect
   x="314.184"
   y="222.419"
   fill="#898989"
   stroke="#1B1B1B"
   stroke-width="0.5"
   stroke-miterlimit="10"
   width="3"
   height="29.149"
   id="rect34" />
	
		<rect
   x="309.725"
   y="230.532"
   fill="#898989"
   stroke="#1B1B1B"
   stroke-width="0.5"
   stroke-miterlimit="10"
   width="4.459"
   height="12.923"
   id="rect36" />
	
		<line
   fill="none"
   stroke="#1B1B1B"
   stroke-width="0.5"
   stroke-miterlimit="10"
   x1="278.521"
   y1="222.419"
   x2="306.184"
   y2="222.419"
   id="line38" />
	
		<line
   fill="none"
   stroke="#1B1B1B"
   stroke-width="0.5"
   stroke-miterlimit="10"
   x1="303.932"
   y1="222.419"
   x2="303.932"
   y2="242.002"
   id="line40" />
</g>
</svg>
