<?xml version="1.0" encoding="UTF-8" standalone="no"?>
<svg
   xmlns:dc="http://purl.org/dc/elements/1.1/"
   xmlns:cc="http://creativecommons.org/ns#"
   xmlns:rdf="http://www.w3.org/1999/02/22-rdf-syntax-ns#"
   xmlns:svg="http://www.w3.org/2000/svg"
   xmlns="http://www.w3.org/2000/svg"
   xmlns:sodipodi="http://sodipodi.sourceforge.net/DTD/sodipodi-0.dtd"
   xmlns:inkscape="http://www.inkscape.org/namespaces/inkscape"
   version="1.1"
   id="图层_1"
   x="0px"
   y="0px"
   width="111.833px"
   height="113.167px"
   viewBox="33.698 391.749 111.833 113.167"
   enable-background="new 33.698 391.749 111.833 113.167"
   xml:space="preserve"
   sodipodi:docname="成品设备-11.svg"><metadata
   id="metadata171"><rdf:RDF><cc:Work
       rdf:about=""><dc:format>image/svg+xml</dc:format><dc:type
         rdf:resource="http://purl.org/dc/dcmitype/StillImage" /></cc:Work></rdf:RDF></metadata><defs
   id="defs169" /><sodipodi:namedview
   pagecolor="#ffffff"
   bordercolor="#666666"
   borderopacity="1"
   objecttolerance="10"
   gridtolerance="10"
   guidetolerance="10"
   inkscape:pageopacity="0"
   inkscape:pageshadow="2"
   inkscape:window-width="640"
   inkscape:window-height="480"
   id="namedview167" />
<g
   id="g164">
	
		<rect
   x="33.948"
   y="399.999"
   fill="#5E7CAD"
   stroke="#231815"
   stroke-width="0.5"
   stroke-linecap="round"
   stroke-linejoin="round"
   stroke-miterlimit="10"
   width="94.666"
   height="104.667"
   id="rect2" />
	
		<polygon
   fill="#2F4D7C"
   stroke="#231815"
   stroke-width="0.5"
   stroke-linecap="round"
   stroke-linejoin="round"
   stroke-miterlimit="10"
   points="   145.281,496.666 128.614,504.666 128.614,399.999 145.281,391.999  "
   id="polygon4" />
	
		<polygon
   fill="#7F99CC"
   stroke="#231815"
   stroke-width="0.5"
   stroke-linecap="round"
   stroke-linejoin="round"
   stroke-miterlimit="10"
   points="   145.281,391.999 50.615,391.999 33.948,399.999 128.614,399.999  "
   id="polygon6" />
	
		<line
   fill="none"
   stroke="#231815"
   stroke-width="0.5"
   stroke-linecap="round"
   stroke-linejoin="round"
   stroke-miterlimit="10"
   x1="68.278"
   y1="395.999"
   x2="79.278"
   y2="395.999"
   id="line8" />
	
		<line
   fill="none"
   stroke="#231815"
   stroke-width="0.5"
   stroke-linecap="round"
   stroke-linejoin="round"
   stroke-miterlimit="10"
   x1="98.278"
   y1="395.999"
   x2="109.278"
   y2="395.999"
   id="line10" />
	<rect
   x="103.113"
   y="440.166"
   fill="#231815"
   width="19.832"
   height="9.167"
   id="rect12" />
	<rect
   x="106.446"
   y="442.501"
   fill="#0BD305"
   width="3.583"
   height="4.583"
   id="rect14" />
	<rect
   x="110.779"
   y="442.501"
   fill="#E20A0A"
   width="3.583"
   height="4.583"
   id="rect16" />
	<rect
   x="115.112"
   y="442.501"
   fill="#0BD305"
   width="3.583"
   height="4.583"
   id="rect18" />
	<rect
   x="103.113"
   y="452.333"
   fill="#231815"
   width="19.832"
   height="9.167"
   id="rect20" />
	<rect
   x="106.446"
   y="454.668"
   fill="#0BD305"
   width="3.583"
   height="4.583"
   id="rect22" />
	<rect
   x="110.779"
   y="454.668"
   fill="#E20A0A"
   width="3.583"
   height="4.583"
   id="rect24" />
	<rect
   x="115.112"
   y="454.668"
   fill="#0BD305"
   width="3.583"
   height="4.583"
   id="rect26" />
	<g
   id="g94">
		<rect
   x="40.946"
   y="440.166"
   fill="#231815"
   width="55.667"
   height="24.333"
   id="rect28" />
		<polygon
   fill="#2F4D7C"
   points="42.546,441.565 96.613,441.565 96.613,440.166 40.946,440.166 40.946,464.499 42.546,464.499       "
   id="polygon30" />
		<polygon
   fill="#7F99CC"
   points="95.014,463.1 42.546,463.1 40.946,464.499 96.613,464.499 96.613,440.166 95.014,441.565   "
   id="polygon32" />
		<g
   id="g58">
			<g
   id="g36">
				<rect
   x="42.546"
   y="443.863"
   fill="#4C6699"
   width="52.468"
   height="1"
   id="rect34" />
			</g>
			<g
   id="g40">
				<rect
   x="42.546"
   y="447.051"
   fill="#4C6699"
   width="52.468"
   height="1"
   id="rect38" />
			</g>
			<g
   id="g44">
				<rect
   x="42.546"
   y="450.238"
   fill="#4C6699"
   width="52.468"
   height="1"
   id="rect42" />
			</g>
			<g
   id="g48">
				<rect
   x="42.546"
   y="453.426"
   fill="#4C6699"
   width="52.468"
   height="1"
   id="rect46" />
			</g>
			<g
   id="g52">
				<rect
   x="42.546"
   y="456.613"
   fill="#4C6699"
   width="52.468"
   height="1"
   id="rect50" />
			</g>
			<g
   id="g56">
				<rect
   x="42.546"
   y="459.801"
   fill="#4C6699"
   width="52.468"
   height="1"
   id="rect54" />
			</g>
		</g>
		<g
   id="g92">
			<rect
   x="44.249"
   y="441.47"
   fill="#4C6699"
   width="1"
   height="21.64"
   id="rect60" />
			<rect
   x="47.437"
   y="441.47"
   fill="#4C6699"
   width="1"
   height="21.64"
   id="rect62" />
			<rect
   x="50.624"
   y="441.47"
   fill="#4C6699"
   width="1"
   height="21.64"
   id="rect64" />
			<rect
   x="53.812"
   y="441.47"
   fill="#4C6699"
   width="1"
   height="21.64"
   id="rect66" />
			<rect
   x="56.999"
   y="441.47"
   fill="#4C6699"
   width="1"
   height="21.64"
   id="rect68" />
			<rect
   x="60.187"
   y="441.47"
   fill="#4C6699"
   width="1"
   height="21.64"
   id="rect70" />
			<rect
   x="63.499"
   y="441.47"
   fill="#4C6699"
   width="1"
   height="21.64"
   id="rect72" />
			<rect
   x="66.687"
   y="441.47"
   fill="#4C6699"
   width="1"
   height="21.64"
   id="rect74" />
			<rect
   x="69.874"
   y="441.47"
   fill="#4C6699"
   width="1"
   height="21.64"
   id="rect76" />
			<rect
   x="73.062"
   y="441.47"
   fill="#4C6699"
   width="1"
   height="21.64"
   id="rect78" />
			<rect
   x="76.249"
   y="441.47"
   fill="#4C6699"
   width="1"
   height="21.64"
   id="rect80" />
			<rect
   x="79.437"
   y="441.47"
   fill="#4C6699"
   width="1"
   height="21.64"
   id="rect82" />
			<rect
   x="82.749"
   y="441.47"
   fill="#4C6699"
   width="1"
   height="21.64"
   id="rect84" />
			<rect
   x="85.937"
   y="441.47"
   fill="#4C6699"
   width="1"
   height="21.64"
   id="rect86" />
			<rect
   x="89.124"
   y="441.47"
   fill="#4C6699"
   width="1"
   height="21.64"
   id="rect88" />
			<rect
   x="92.312"
   y="441.47"
   fill="#4C6699"
   width="1"
   height="21.64"
   id="rect90" />
		</g>
	</g>
	<g
   id="g162">
		<rect
   x="40.946"
   y="471.615"
   fill="#231815"
   width="55.667"
   height="24.333"
   id="rect96" />
		<polygon
   fill="#2F4D7C"
   points="42.546,473.015 96.613,473.015 96.613,471.615 40.946,471.615 40.946,495.948 42.546,495.948       "
   id="polygon98" />
		<polygon
   fill="#7F99CC"
   points="95.014,494.549 42.546,494.549 40.946,495.948 96.613,495.948 96.613,471.615 95.014,473.015       "
   id="polygon100" />
		<g
   id="g126">
			<g
   id="g104">
				<rect
   x="42.546"
   y="475.313"
   fill="#4C6699"
   width="52.468"
   height="1"
   id="rect102" />
			</g>
			<g
   id="g108">
				<rect
   x="42.546"
   y="478.5"
   fill="#4C6699"
   width="52.468"
   height="1"
   id="rect106" />
			</g>
			<g
   id="g112">
				<rect
   x="42.546"
   y="481.688"
   fill="#4C6699"
   width="52.468"
   height="1"
   id="rect110" />
			</g>
			<g
   id="g116">
				<rect
   x="42.546"
   y="484.875"
   fill="#4C6699"
   width="52.468"
   height="1"
   id="rect114" />
			</g>
			<g
   id="g120">
				<rect
   x="42.546"
   y="488.063"
   fill="#4C6699"
   width="52.468"
   height="1"
   id="rect118" />
			</g>
			<g
   id="g124">
				<rect
   x="42.546"
   y="491.25"
   fill="#4C6699"
   width="52.468"
   height="1"
   id="rect122" />
			</g>
		</g>
		<g
   id="g160">
			<rect
   x="44.249"
   y="472.919"
   fill="#4C6699"
   width="1"
   height="21.639"
   id="rect128" />
			<rect
   x="47.437"
   y="472.919"
   fill="#4C6699"
   width="1"
   height="21.639"
   id="rect130" />
			<rect
   x="50.624"
   y="472.919"
   fill="#4C6699"
   width="1"
   height="21.639"
   id="rect132" />
			<rect
   x="53.812"
   y="472.919"
   fill="#4C6699"
   width="1"
   height="21.639"
   id="rect134" />
			<rect
   x="56.999"
   y="472.919"
   fill="#4C6699"
   width="1"
   height="21.639"
   id="rect136" />
			<rect
   x="60.187"
   y="472.919"
   fill="#4C6699"
   width="1"
   height="21.639"
   id="rect138" />
			<rect
   x="63.499"
   y="472.919"
   fill="#4C6699"
   width="1"
   height="21.639"
   id="rect140" />
			<rect
   x="66.687"
   y="472.919"
   fill="#4C6699"
   width="1"
   height="21.639"
   id="rect142" />
			<rect
   x="69.874"
   y="472.919"
   fill="#4C6699"
   width="1"
   height="21.639"
   id="rect144" />
			<rect
   x="73.062"
   y="472.919"
   fill="#4C6699"
   width="1"
   height="21.639"
   id="rect146" />
			<rect
   x="76.249"
   y="472.919"
   fill="#4C6699"
   width="1"
   height="21.639"
   id="rect148" />
			<rect
   x="79.437"
   y="472.919"
   fill="#4C6699"
   width="1"
   height="21.639"
   id="rect150" />
			<rect
   x="82.749"
   y="472.919"
   fill="#4C6699"
   width="1"
   height="21.639"
   id="rect152" />
			<rect
   x="85.937"
   y="472.919"
   fill="#4C6699"
   width="1"
   height="21.639"
   id="rect154" />
			<rect
   x="89.124"
   y="472.919"
   fill="#4C6699"
   width="1"
   height="21.639"
   id="rect156" />
			<rect
   x="92.312"
   y="472.919"
   fill="#4C6699"
   width="1"
   height="21.639"
   id="rect158" />
		</g>
	</g>
</g>
</svg>
