<?xml version="1.0" encoding="UTF-8" standalone="no"?>
<svg
   xmlns:dc="http://purl.org/dc/elements/1.1/"
   xmlns:cc="http://creativecommons.org/ns#"
   xmlns:rdf="http://www.w3.org/1999/02/22-rdf-syntax-ns#"
   xmlns:svg="http://www.w3.org/2000/svg"
   xmlns="http://www.w3.org/2000/svg"
   xmlns:sodipodi="http://sodipodi.sourceforge.net/DTD/sodipodi-0.dtd"
   xmlns:inkscape="http://www.inkscape.org/namespaces/inkscape"
   version="1.1"
   id="图层_1"
   x="0px"
   y="0px"
   width="111.833px"
   height="113.167px"
   viewBox="353.478 391.749 111.833 113.167"
   enable-background="new 353.478 391.749 111.833 113.167"
   xml:space="preserve"
   sodipodi:docname="成品设备-13.svg"><metadata
   id="metadata171"><rdf:RDF><cc:Work
       rdf:about=""><dc:format>image/svg+xml</dc:format><dc:type
         rdf:resource="http://purl.org/dc/dcmitype/StillImage" /></cc:Work></rdf:RDF></metadata><defs
   id="defs169" /><sodipodi:namedview
   pagecolor="#ffffff"
   bordercolor="#666666"
   borderopacity="1"
   objecttolerance="10"
   gridtolerance="10"
   guidetolerance="10"
   inkscape:pageopacity="0"
   inkscape:pageshadow="2"
   inkscape:window-width="640"
   inkscape:window-height="480"
   id="namedview167" />
<g
   id="g164">
	
		<rect
   x="353.728"
   y="399.999"
   fill="#5694AD"
   stroke="#231815"
   stroke-width="0.5"
   stroke-linecap="round"
   stroke-linejoin="round"
   stroke-miterlimit="10"
   width="94.666"
   height="104.667"
   id="rect2" />
	
		<polygon
   fill="#2A667C"
   stroke="#231815"
   stroke-width="0.5"
   stroke-linecap="round"
   stroke-linejoin="round"
   stroke-miterlimit="10"
   points="   465.061,496.666 448.394,504.666 448.394,399.999 465.061,391.999  "
   id="polygon4" />
	
		<polygon
   fill="#76B0CC"
   stroke="#231815"
   stroke-width="0.5"
   stroke-linecap="round"
   stroke-linejoin="round"
   stroke-miterlimit="10"
   points="   465.061,391.999 370.395,391.999 353.728,399.999 448.394,399.999  "
   id="polygon6" />
	
		<line
   fill="none"
   stroke="#231815"
   stroke-width="0.5"
   stroke-linecap="round"
   stroke-linejoin="round"
   stroke-miterlimit="10"
   x1="388.058"
   y1="395.999"
   x2="399.058"
   y2="395.999"
   id="line8" />
	
		<line
   fill="none"
   stroke="#231815"
   stroke-width="0.5"
   stroke-linecap="round"
   stroke-linejoin="round"
   stroke-miterlimit="10"
   x1="418.058"
   y1="395.999"
   x2="429.058"
   y2="395.999"
   id="line10" />
	<rect
   x="422.893"
   y="440.166"
   fill="#231815"
   width="19.832"
   height="9.167"
   id="rect12" />
	<rect
   x="426.226"
   y="442.501"
   fill="#40D300"
   width="3.583"
   height="4.583"
   id="rect14" />
	<rect
   x="430.559"
   y="442.501"
   fill="#E20046"
   width="3.583"
   height="4.583"
   id="rect16" />
	<rect
   x="434.892"
   y="442.501"
   fill="#40D300"
   width="3.583"
   height="4.583"
   id="rect18" />
	<rect
   x="422.893"
   y="452.333"
   fill="#231815"
   width="19.832"
   height="9.167"
   id="rect20" />
	<rect
   x="426.226"
   y="454.668"
   fill="#40D300"
   width="3.583"
   height="4.583"
   id="rect22" />
	<rect
   x="430.559"
   y="454.668"
   fill="#E20046"
   width="3.583"
   height="4.583"
   id="rect24" />
	<rect
   x="434.892"
   y="454.668"
   fill="#40D300"
   width="3.583"
   height="4.583"
   id="rect26" />
	<g
   id="g94">
		<rect
   x="360.726"
   y="440.166"
   fill="#231815"
   width="55.667"
   height="24.333"
   id="rect28" />
		<polygon
   fill="#2A667C"
   points="362.325,441.565 416.393,441.565 416.393,440.166 360.726,440.166 360.726,464.499     362.325,464.499   "
   id="polygon30" />
		<polygon
   fill="#76B0CC"
   points="414.793,463.1 362.325,463.1 360.726,464.499 416.393,464.499 416.393,440.166 414.793,441.565       "
   id="polygon32" />
		<g
   id="g58">
			<g
   id="g36">
				<rect
   x="362.325"
   y="443.863"
   fill="#457D99"
   width="52.468"
   height="1"
   id="rect34" />
			</g>
			<g
   id="g40">
				<rect
   x="362.325"
   y="447.051"
   fill="#457D99"
   width="52.468"
   height="1"
   id="rect38" />
			</g>
			<g
   id="g44">
				<rect
   x="362.325"
   y="450.238"
   fill="#457D99"
   width="52.468"
   height="1"
   id="rect42" />
			</g>
			<g
   id="g48">
				<rect
   x="362.325"
   y="453.426"
   fill="#457D99"
   width="52.468"
   height="1"
   id="rect46" />
			</g>
			<g
   id="g52">
				<rect
   x="362.325"
   y="456.613"
   fill="#457D99"
   width="52.468"
   height="1"
   id="rect50" />
			</g>
			<g
   id="g56">
				<rect
   x="362.325"
   y="459.801"
   fill="#457D99"
   width="52.468"
   height="1"
   id="rect54" />
			</g>
		</g>
		<g
   id="g92">
			<rect
   x="364.028"
   y="441.47"
   fill="#457D99"
   width="1"
   height="21.64"
   id="rect60" />
			<rect
   x="367.216"
   y="441.47"
   fill="#457D99"
   width="1"
   height="21.64"
   id="rect62" />
			<rect
   x="370.403"
   y="441.47"
   fill="#457D99"
   width="1"
   height="21.64"
   id="rect64" />
			<rect
   x="373.591"
   y="441.47"
   fill="#457D99"
   width="1"
   height="21.64"
   id="rect66" />
			<rect
   x="376.778"
   y="441.47"
   fill="#457D99"
   width="1"
   height="21.64"
   id="rect68" />
			<rect
   x="379.966"
   y="441.47"
   fill="#457D99"
   width="1"
   height="21.64"
   id="rect70" />
			<rect
   x="383.278"
   y="441.47"
   fill="#457D99"
   width="1"
   height="21.64"
   id="rect72" />
			<rect
   x="386.466"
   y="441.47"
   fill="#457D99"
   width="1"
   height="21.64"
   id="rect74" />
			<rect
   x="389.653"
   y="441.47"
   fill="#457D99"
   width="1"
   height="21.64"
   id="rect76" />
			<rect
   x="392.841"
   y="441.47"
   fill="#457D99"
   width="1"
   height="21.64"
   id="rect78" />
			<rect
   x="396.028"
   y="441.47"
   fill="#457D99"
   width="1"
   height="21.64"
   id="rect80" />
			<rect
   x="399.216"
   y="441.47"
   fill="#457D99"
   width="1"
   height="21.64"
   id="rect82" />
			<rect
   x="402.528"
   y="441.47"
   fill="#457D99"
   width="1"
   height="21.64"
   id="rect84" />
			<rect
   x="405.716"
   y="441.47"
   fill="#457D99"
   width="1"
   height="21.64"
   id="rect86" />
			<rect
   x="408.903"
   y="441.47"
   fill="#457D99"
   width="1"
   height="21.64"
   id="rect88" />
			<rect
   x="412.091"
   y="441.47"
   fill="#457D99"
   width="1"
   height="21.64"
   id="rect90" />
		</g>
	</g>
	<g
   id="g162">
		<rect
   x="360.726"
   y="471.615"
   fill="#231815"
   width="55.667"
   height="24.333"
   id="rect96" />
		<polygon
   fill="#2A667C"
   points="362.325,473.015 416.393,473.015 416.393,471.615 360.726,471.615 360.726,495.948     362.325,495.948   "
   id="polygon98" />
		<polygon
   fill="#76B0CC"
   points="414.793,494.549 362.325,494.549 360.726,495.948 416.393,495.948 416.393,471.615     414.793,473.015   "
   id="polygon100" />
		<g
   id="g126">
			<g
   id="g104">
				<rect
   x="362.325"
   y="475.313"
   fill="#457D99"
   width="52.468"
   height="1"
   id="rect102" />
			</g>
			<g
   id="g108">
				<rect
   x="362.325"
   y="478.5"
   fill="#457D99"
   width="52.468"
   height="1"
   id="rect106" />
			</g>
			<g
   id="g112">
				<rect
   x="362.325"
   y="481.688"
   fill="#457D99"
   width="52.468"
   height="1"
   id="rect110" />
			</g>
			<g
   id="g116">
				<rect
   x="362.325"
   y="484.875"
   fill="#457D99"
   width="52.468"
   height="1"
   id="rect114" />
			</g>
			<g
   id="g120">
				<rect
   x="362.325"
   y="488.063"
   fill="#457D99"
   width="52.468"
   height="1"
   id="rect118" />
			</g>
			<g
   id="g124">
				<rect
   x="362.325"
   y="491.25"
   fill="#457D99"
   width="52.468"
   height="1"
   id="rect122" />
			</g>
		</g>
		<g
   id="g160">
			<rect
   x="364.028"
   y="472.919"
   fill="#457D99"
   width="1"
   height="21.639"
   id="rect128" />
			<rect
   x="367.216"
   y="472.919"
   fill="#457D99"
   width="1"
   height="21.639"
   id="rect130" />
			<rect
   x="370.403"
   y="472.919"
   fill="#457D99"
   width="1"
   height="21.639"
   id="rect132" />
			<rect
   x="373.591"
   y="472.919"
   fill="#457D99"
   width="1"
   height="21.639"
   id="rect134" />
			<rect
   x="376.778"
   y="472.919"
   fill="#457D99"
   width="1"
   height="21.639"
   id="rect136" />
			<rect
   x="379.966"
   y="472.919"
   fill="#457D99"
   width="1"
   height="21.639"
   id="rect138" />
			<rect
   x="383.278"
   y="472.919"
   fill="#457D99"
   width="1"
   height="21.639"
   id="rect140" />
			<rect
   x="386.466"
   y="472.919"
   fill="#457D99"
   width="1"
   height="21.639"
   id="rect142" />
			<rect
   x="389.653"
   y="472.919"
   fill="#457D99"
   width="1"
   height="21.639"
   id="rect144" />
			<rect
   x="392.841"
   y="472.919"
   fill="#457D99"
   width="1"
   height="21.639"
   id="rect146" />
			<rect
   x="396.028"
   y="472.919"
   fill="#457D99"
   width="1"
   height="21.639"
   id="rect148" />
			<rect
   x="399.216"
   y="472.919"
   fill="#457D99"
   width="1"
   height="21.639"
   id="rect150" />
			<rect
   x="402.528"
   y="472.919"
   fill="#457D99"
   width="1"
   height="21.639"
   id="rect152" />
			<rect
   x="405.716"
   y="472.919"
   fill="#457D99"
   width="1"
   height="21.639"
   id="rect154" />
			<rect
   x="408.903"
   y="472.919"
   fill="#457D99"
   width="1"
   height="21.639"
   id="rect156" />
			<rect
   x="412.091"
   y="472.919"
   fill="#457D99"
   width="1"
   height="21.639"
   id="rect158" />
		</g>
	</g>
</g>
</svg>
