<?xml version="1.0" encoding="UTF-8" standalone="no"?>
<svg
   xmlns:dc="http://purl.org/dc/elements/1.1/"
   xmlns:cc="http://creativecommons.org/ns#"
   xmlns:rdf="http://www.w3.org/1999/02/22-rdf-syntax-ns#"
   xmlns:svg="http://www.w3.org/2000/svg"
   xmlns="http://www.w3.org/2000/svg"
   xmlns:sodipodi="http://sodipodi.sourceforge.net/DTD/sodipodi-0.dtd"
   xmlns:inkscape="http://www.inkscape.org/namespaces/inkscape"
   version="1.1"
   id="图层_1"
   x="0px"
   y="0px"
   width="111.833px"
   height="113.167px"
   viewBox="513.367 391.749 111.833 113.167"
   enable-background="new 513.367 391.749 111.833 113.167"
   xml:space="preserve"
   sodipodi:docname="成品设备-14.svg"><metadata
   id="metadata171"><rdf:RDF><cc:Work
       rdf:about=""><dc:format>image/svg+xml</dc:format><dc:type
         rdf:resource="http://purl.org/dc/dcmitype/StillImage" /></cc:Work></rdf:RDF></metadata><defs
   id="defs169" /><sodipodi:namedview
   pagecolor="#ffffff"
   bordercolor="#666666"
   borderopacity="1"
   objecttolerance="10"
   gridtolerance="10"
   guidetolerance="10"
   inkscape:pageopacity="0"
   inkscape:pageshadow="2"
   inkscape:window-width="640"
   inkscape:window-height="480"
   id="namedview167" />
<g
   id="g164">
	
		<rect
   x="513.617"
   y="399.999"
   fill="#848484"
   stroke="#1B1B1B"
   stroke-width="0.5"
   stroke-linecap="round"
   stroke-linejoin="round"
   stroke-miterlimit="10"
   width="94.666"
   height="104.667"
   id="rect2" />
	
		<polygon
   fill="#565656"
   stroke="#1B1B1B"
   stroke-width="0.5"
   stroke-linecap="round"
   stroke-linejoin="round"
   stroke-miterlimit="10"
   points="   624.95,496.666 608.283,504.666 608.283,399.999 624.95,391.999  "
   id="polygon4" />
	
		<polygon
   fill="#A2A2A2"
   stroke="#1B1B1B"
   stroke-width="0.5"
   stroke-linecap="round"
   stroke-linejoin="round"
   stroke-miterlimit="10"
   points="   624.95,391.999 530.284,391.999 513.617,399.999 608.283,399.999  "
   id="polygon6" />
	
		<line
   fill="none"
   stroke="#1B1B1B"
   stroke-width="0.5"
   stroke-linecap="round"
   stroke-linejoin="round"
   stroke-miterlimit="10"
   x1="547.947"
   y1="395.999"
   x2="558.947"
   y2="395.999"
   id="line8" />
	
		<line
   fill="none"
   stroke="#1B1B1B"
   stroke-width="0.5"
   stroke-linecap="round"
   stroke-linejoin="round"
   stroke-miterlimit="10"
   x1="577.947"
   y1="395.999"
   x2="588.947"
   y2="395.999"
   id="line10" />
	<rect
   x="582.782"
   y="440.166"
   fill="#1B1B1B"
   width="19.832"
   height="9.167"
   id="rect12" />
	<rect
   x="586.115"
   y="442.501"
   fill="#909090"
   width="3.583"
   height="4.583"
   id="rect14" />
	<rect
   x="590.448"
   y="442.501"
   fill="#4C4C4C"
   width="3.583"
   height="4.583"
   id="rect16" />
	<rect
   x="594.781"
   y="442.501"
   fill="#909090"
   width="3.583"
   height="4.583"
   id="rect18" />
	<rect
   x="582.782"
   y="452.333"
   fill="#1B1B1B"
   width="19.832"
   height="9.167"
   id="rect20" />
	<rect
   x="586.115"
   y="454.668"
   fill="#909090"
   width="3.583"
   height="4.583"
   id="rect22" />
	<rect
   x="590.448"
   y="454.668"
   fill="#4C4C4C"
   width="3.583"
   height="4.583"
   id="rect24" />
	<rect
   x="594.781"
   y="454.668"
   fill="#909090"
   width="3.583"
   height="4.583"
   id="rect26" />
	<g
   id="g94">
		<rect
   x="520.615"
   y="440.166"
   fill="#1B1B1B"
   width="55.667"
   height="24.333"
   id="rect28" />
		<polygon
   fill="#565656"
   points="522.215,441.565 576.282,441.565 576.282,440.166 520.615,440.166 520.615,464.499     522.215,464.499   "
   id="polygon30" />
		<polygon
   fill="#A2A2A2"
   points="574.683,463.1 522.215,463.1 520.615,464.499 576.282,464.499 576.282,440.166 574.683,441.565       "
   id="polygon32" />
		<g
   id="g58">
			<g
   id="g36">
				<rect
   x="522.215"
   y="443.863"
   fill="#6F6F6F"
   width="52.468"
   height="1"
   id="rect34" />
			</g>
			<g
   id="g40">
				<rect
   x="522.215"
   y="447.051"
   fill="#6F6F6F"
   width="52.468"
   height="1"
   id="rect38" />
			</g>
			<g
   id="g44">
				<rect
   x="522.215"
   y="450.238"
   fill="#6F6F6F"
   width="52.468"
   height="1"
   id="rect42" />
			</g>
			<g
   id="g48">
				<rect
   x="522.215"
   y="453.426"
   fill="#6F6F6F"
   width="52.468"
   height="1"
   id="rect46" />
			</g>
			<g
   id="g52">
				<rect
   x="522.215"
   y="456.613"
   fill="#6F6F6F"
   width="52.468"
   height="1"
   id="rect50" />
			</g>
			<g
   id="g56">
				<rect
   x="522.215"
   y="459.801"
   fill="#6F6F6F"
   width="52.468"
   height="1"
   id="rect54" />
			</g>
		</g>
		<g
   id="g92">
			<rect
   x="523.918"
   y="441.47"
   fill="#6F6F6F"
   width="1"
   height="21.64"
   id="rect60" />
			<rect
   x="527.105"
   y="441.47"
   fill="#6F6F6F"
   width="1"
   height="21.64"
   id="rect62" />
			<rect
   x="530.293"
   y="441.47"
   fill="#6F6F6F"
   width="1"
   height="21.64"
   id="rect64" />
			<rect
   x="533.48"
   y="441.47"
   fill="#6F6F6F"
   width="1"
   height="21.64"
   id="rect66" />
			<rect
   x="536.668"
   y="441.47"
   fill="#6F6F6F"
   width="1"
   height="21.64"
   id="rect68" />
			<rect
   x="539.855"
   y="441.47"
   fill="#6F6F6F"
   width="1"
   height="21.64"
   id="rect70" />
			<rect
   x="543.168"
   y="441.47"
   fill="#6F6F6F"
   width="1"
   height="21.64"
   id="rect72" />
			<rect
   x="546.355"
   y="441.47"
   fill="#6F6F6F"
   width="1"
   height="21.64"
   id="rect74" />
			<rect
   x="549.543"
   y="441.47"
   fill="#6F6F6F"
   width="1"
   height="21.64"
   id="rect76" />
			<rect
   x="552.73"
   y="441.47"
   fill="#6F6F6F"
   width="1"
   height="21.64"
   id="rect78" />
			<rect
   x="555.918"
   y="441.47"
   fill="#6F6F6F"
   width="1"
   height="21.64"
   id="rect80" />
			<rect
   x="559.105"
   y="441.47"
   fill="#6F6F6F"
   width="1"
   height="21.64"
   id="rect82" />
			<rect
   x="562.418"
   y="441.47"
   fill="#6F6F6F"
   width="1"
   height="21.64"
   id="rect84" />
			<rect
   x="565.605"
   y="441.47"
   fill="#6F6F6F"
   width="1"
   height="21.64"
   id="rect86" />
			<rect
   x="568.793"
   y="441.47"
   fill="#6F6F6F"
   width="1"
   height="21.64"
   id="rect88" />
			<rect
   x="571.98"
   y="441.47"
   fill="#6F6F6F"
   width="1"
   height="21.64"
   id="rect90" />
		</g>
	</g>
	<g
   id="g162">
		<rect
   x="520.615"
   y="471.615"
   fill="#1B1B1B"
   width="55.667"
   height="24.333"
   id="rect96" />
		<polygon
   fill="#565656"
   points="522.215,473.015 576.282,473.015 576.282,471.615 520.615,471.615 520.615,495.948     522.215,495.948   "
   id="polygon98" />
		<polygon
   fill="#A2A2A2"
   points="574.683,494.549 522.215,494.549 520.615,495.948 576.282,495.948 576.282,471.615     574.683,473.015   "
   id="polygon100" />
		<g
   id="g126">
			<g
   id="g104">
				<rect
   x="522.215"
   y="475.313"
   fill="#6F6F6F"
   width="52.468"
   height="1"
   id="rect102" />
			</g>
			<g
   id="g108">
				<rect
   x="522.215"
   y="478.5"
   fill="#6F6F6F"
   width="52.468"
   height="1"
   id="rect106" />
			</g>
			<g
   id="g112">
				<rect
   x="522.215"
   y="481.688"
   fill="#6F6F6F"
   width="52.468"
   height="1"
   id="rect110" />
			</g>
			<g
   id="g116">
				<rect
   x="522.215"
   y="484.875"
   fill="#6F6F6F"
   width="52.468"
   height="1"
   id="rect114" />
			</g>
			<g
   id="g120">
				<rect
   x="522.215"
   y="488.063"
   fill="#6F6F6F"
   width="52.468"
   height="1"
   id="rect118" />
			</g>
			<g
   id="g124">
				<rect
   x="522.215"
   y="491.25"
   fill="#6F6F6F"
   width="52.468"
   height="1"
   id="rect122" />
			</g>
		</g>
		<g
   id="g160">
			<rect
   x="523.918"
   y="472.919"
   fill="#6F6F6F"
   width="1"
   height="21.639"
   id="rect128" />
			<rect
   x="527.105"
   y="472.919"
   fill="#6F6F6F"
   width="1"
   height="21.639"
   id="rect130" />
			<rect
   x="530.293"
   y="472.919"
   fill="#6F6F6F"
   width="1"
   height="21.639"
   id="rect132" />
			<rect
   x="533.48"
   y="472.919"
   fill="#6F6F6F"
   width="1"
   height="21.639"
   id="rect134" />
			<rect
   x="536.668"
   y="472.919"
   fill="#6F6F6F"
   width="1"
   height="21.639"
   id="rect136" />
			<rect
   x="539.855"
   y="472.919"
   fill="#6F6F6F"
   width="1"
   height="21.639"
   id="rect138" />
			<rect
   x="543.168"
   y="472.919"
   fill="#6F6F6F"
   width="1"
   height="21.639"
   id="rect140" />
			<rect
   x="546.355"
   y="472.919"
   fill="#6F6F6F"
   width="1"
   height="21.639"
   id="rect142" />
			<rect
   x="549.543"
   y="472.919"
   fill="#6F6F6F"
   width="1"
   height="21.639"
   id="rect144" />
			<rect
   x="552.73"
   y="472.919"
   fill="#6F6F6F"
   width="1"
   height="21.639"
   id="rect146" />
			<rect
   x="555.918"
   y="472.919"
   fill="#6F6F6F"
   width="1"
   height="21.639"
   id="rect148" />
			<rect
   x="559.105"
   y="472.919"
   fill="#6F6F6F"
   width="1"
   height="21.639"
   id="rect150" />
			<rect
   x="562.418"
   y="472.919"
   fill="#6F6F6F"
   width="1"
   height="21.639"
   id="rect152" />
			<rect
   x="565.605"
   y="472.919"
   fill="#6F6F6F"
   width="1"
   height="21.639"
   id="rect154" />
			<rect
   x="568.793"
   y="472.919"
   fill="#6F6F6F"
   width="1"
   height="21.639"
   id="rect156" />
			<rect
   x="571.98"
   y="472.919"
   fill="#6F6F6F"
   width="1"
   height="21.639"
   id="rect158" />
		</g>
	</g>
</g>
</svg>
