<?xml version="1.0" encoding="UTF-8" standalone="no"?>
<svg
   xmlns:dc="http://purl.org/dc/elements/1.1/"
   xmlns:cc="http://creativecommons.org/ns#"
   xmlns:rdf="http://www.w3.org/1999/02/22-rdf-syntax-ns#"
   xmlns:svg="http://www.w3.org/2000/svg"
   xmlns="http://www.w3.org/2000/svg"
   xmlns:sodipodi="http://sodipodi.sourceforge.net/DTD/sodipodi-0.dtd"
   xmlns:inkscape="http://www.inkscape.org/namespaces/inkscape"
   version="1.1"
   id="图层_1"
   x="0px"
   y="0px"
   width="112.398px"
   height="143.979px"
   viewBox="33.698 534.511 112.398 143.979"
   enable-background="new 33.698 534.511 112.398 143.979"
   xml:space="preserve"
   sodipodi:docname="成品设备-15.svg"><metadata
   id="metadata61"><rdf:RDF><cc:Work
       rdf:about=""><dc:format>image/svg+xml</dc:format><dc:type
         rdf:resource="http://purl.org/dc/dcmitype/StillImage" /></cc:Work></rdf:RDF></metadata><defs
   id="defs59" /><sodipodi:namedview
   pagecolor="#ffffff"
   bordercolor="#666666"
   borderopacity="1"
   objecttolerance="10"
   gridtolerance="10"
   guidetolerance="10"
   inkscape:pageopacity="0"
   inkscape:pageshadow="2"
   inkscape:window-width="640"
   inkscape:window-height="480"
   id="namedview57" />
<g
   id="g54">
	<g
   id="g8">
		
			<rect
   x="61.179"
   y="620.9"
   fill="#E0E0E0"
   stroke="#231815"
   stroke-width="0.5"
   stroke-miterlimit="10"
   width="25.133"
   height="39.802"
   id="rect2" />
		
			<polygon
   fill="#C6C6C6"
   stroke="#231815"
   stroke-width="0.5"
   stroke-linecap="round"
   stroke-linejoin="round"
   stroke-miterlimit="10"
   points="    90.177,655.646 86.312,660.702 86.312,620.9 90.177,615.845   "
   id="polygon4" />
		
			<polygon
   fill="#C6C6C6"
   stroke="#231815"
   stroke-width="0.5"
   stroke-linecap="round"
   stroke-linejoin="round"
   stroke-miterlimit="10"
   points="    90.177,615.845 67.44,615.845 61.179,620.9 86.312,620.9   "
   id="polygon6" />
	</g>
	<g
   id="g16">
		
			<rect
   x="33.948"
   y="636.907"
   fill="#E0E0E0"
   stroke="#231815"
   stroke-width="0.5"
   stroke-miterlimit="10"
   width="29.31"
   height="41.332"
   id="rect10" />
		
			<polygon
   fill="#C6C6C6"
   stroke="#231815"
   stroke-width="0.5"
   stroke-linecap="round"
   stroke-linejoin="round"
   stroke-miterlimit="10"
   points="    67.766,672.989 63.258,678.239 63.258,636.907 67.766,631.657   "
   id="polygon12" />
		
			<polygon
   fill="#C6C6C6"
   stroke="#231815"
   stroke-width="0.5"
   stroke-linecap="round"
   stroke-linejoin="round"
   stroke-miterlimit="10"
   points="    67.766,631.657 41.25,631.657 33.948,636.907 63.258,636.907   "
   id="polygon14" />
	</g>
	<g
   id="g24">
		
			<rect
   x="103.092"
   y="620.9"
   fill="#E0E0E0"
   stroke="#231815"
   stroke-width="0.5"
   stroke-miterlimit="10"
   width="37.055"
   height="39.802"
   id="rect18" />
		
			<polygon
   fill="#C6C6C6"
   stroke="#231815"
   stroke-width="0.5"
   stroke-linecap="round"
   stroke-linejoin="round"
   stroke-miterlimit="10"
   points="    145.846,655.646 140.146,660.702 140.146,620.9 145.846,615.845   "
   id="polygon20" />
		
			<polygon
   fill="#C6C6C6"
   stroke="#231815"
   stroke-width="0.5"
   stroke-linecap="round"
   stroke-linejoin="round"
   stroke-miterlimit="10"
   points="    145.846,615.845 112.323,615.845 103.092,620.9 140.146,620.9   "
   id="polygon22" />
	</g>
	<g
   id="g32">
		
			<rect
   x="82.512"
   y="636.907"
   fill="#E0E0E0"
   stroke="#231815"
   stroke-width="0.5"
   stroke-miterlimit="10"
   width="38.479"
   height="41.332"
   id="rect26" />
		
			<polygon
   fill="#C6C6C6"
   stroke="#231815"
   stroke-width="0.5"
   stroke-linecap="round"
   stroke-linejoin="round"
   stroke-miterlimit="10"
   points="    126.909,672.989 120.991,678.239 120.991,636.907 126.909,631.657   "
   id="polygon28" />
		
			<polygon
   fill="#C6C6C6"
   stroke="#231815"
   stroke-width="0.5"
   stroke-linecap="round"
   stroke-linejoin="round"
   stroke-miterlimit="10"
   points="    126.909,631.657 92.098,631.657 82.512,636.907 120.991,636.907   "
   id="polygon30" />
	</g>
	<g
   id="g42">
		
			<path
   fill="#2F507F"
   stroke="#231815"
   stroke-width="0.5"
   stroke-linecap="round"
   stroke-linejoin="round"
   stroke-miterlimit="10"
   d="    M136.47,554.666v62.787l-3.852,2.695v-61.631c0-10.997-8.907-19.904-19.896-19.904H87.041c-4.518,0-8.686,1.502-12.019,4.034    c3.631-4.796,9.389-7.887,15.87-7.887h25.683C127.563,534.762,136.47,543.669,136.47,554.666z"
   id="path34" />
		
			<path
   fill="#2F507F"
   stroke="#231815"
   stroke-width="0.5"
   stroke-linecap="round"
   stroke-linejoin="round"
   stroke-miterlimit="10"
   d="    M86.443,554.06c-0.038,0.202-0.048,0.404-0.048,0.606l-0.02,61.63l-3.832,3.833v-61.61    C82.544,556.235,84.248,554.357,86.443,554.06z"
   id="path36" />
		
			<path
   fill="#5E7CAD"
   stroke="#231815"
   stroke-width="0.5"
   stroke-linecap="round"
   stroke-linejoin="round"
   stroke-miterlimit="10"
   d="    M132.618,558.519v61.631h-15.407v-61.631c0-2.484-2.013-4.496-4.488-4.496H87.041c-0.202,0-0.404,0.009-0.598,0.037    c-2.195,0.299-3.899,2.177-3.899,4.459v61.631H67.136v-61.631c0-6.479,3.092-12.239,7.887-15.869    c3.333-2.533,7.501-4.035,12.019-4.035h25.682C123.711,538.613,132.618,547.521,132.618,558.519z"
   id="path38" />
		<path
   opacity="0.7"
   fill="#87A7D6"
   enable-background="new    "
   d="M132.616,558.519v7.328l-15.407,5.933v-13.261    c0-2.484-2.013-4.496-4.488-4.496H87.039c-0.202,0-0.404,0.009-0.598,0.037c-2.195,0.299-3.899,2.177-3.899,4.459v26.589    l-15.407,5.932v-32.521c0-6.479,3.091-12.239,7.886-15.869c3.332-2.533,7.502-4.035,12.019-4.035h25.682    C123.709,538.613,132.616,547.521,132.616,558.519z"
   id="path40" />
	</g>
	<g
   id="g52">
		
			<path
   fill="#2F507F"
   stroke="#231815"
   stroke-width="0.5"
   stroke-linecap="round"
   stroke-linejoin="round"
   stroke-miterlimit="10"
   d="    M114.3,567.706v64.801l-4,3.199v-64c0-11.42-9.25-20.67-20.66-20.67H62.97c-4.69,0-9.02,1.56-12.48,4.189    c3.771-4.979,9.75-8.189,16.48-8.189h26.67C105.05,547.036,114.3,556.286,114.3,567.706z"
   id="path44" />
		
			<path
   fill="#2F507F"
   stroke="#231815"
   stroke-width="0.5"
   stroke-linecap="round"
   stroke-linejoin="round"
   stroke-miterlimit="10"
   d="    M62.35,567.076c-0.04,0.21-0.05,0.42-0.05,0.63v64l-0.021,1.201l-3.979,2.778v-63.979C58.3,569.336,60.069,567.386,62.35,567.076z    "
   id="path46" />
		
			<path
   fill="#5E7CAD"
   stroke="#231815"
   stroke-width="0.5"
   stroke-linecap="round"
   stroke-linejoin="round"
   stroke-miterlimit="10"
   d="    M110.3,571.706v64h-16v-64c0-2.58-2.09-4.67-4.66-4.67H62.97c-0.21,0-0.42,0.01-0.62,0.04c-2.28,0.31-4.05,2.26-4.05,4.63v64h-16    v-64c0-6.729,3.21-12.71,8.189-16.479c3.461-2.631,7.79-4.189,12.48-4.189h26.67C101.05,551.036,110.3,560.286,110.3,571.706z"
   id="path48" />
		<path
   opacity="0.7"
   fill="#87A7D6"
   enable-background="new    "
   d="M110.298,571.706v7.61l-16,6.159v-13.771    c0-2.58-2.09-4.67-4.66-4.67h-26.67c-0.21,0-0.42,0.01-0.62,0.04c-2.28,0.31-4.05,2.26-4.05,4.63v27.61l-16,6.159v-33.771    c0-6.729,3.21-12.71,8.189-16.479c3.46-2.631,7.79-4.189,12.48-4.189h26.67C101.048,551.036,110.298,560.286,110.298,571.706z"
   id="path50" />
	</g>
</g>
</svg>
