<?xml version="1.0" encoding="UTF-8" standalone="no"?>
<svg
   xmlns:dc="http://purl.org/dc/elements/1.1/"
   xmlns:cc="http://creativecommons.org/ns#"
   xmlns:rdf="http://www.w3.org/1999/02/22-rdf-syntax-ns#"
   xmlns:svg="http://www.w3.org/2000/svg"
   xmlns="http://www.w3.org/2000/svg"
   xmlns:sodipodi="http://sodipodi.sourceforge.net/DTD/sodipodi-0.dtd"
   xmlns:inkscape="http://www.inkscape.org/namespaces/inkscape"
   version="1.1"
   id="图层_1"
   x="0px"
   y="0px"
   width="112.397px"
   height="143.979px"
   viewBox="179.441 534.511 112.397 143.979"
   enable-background="new 179.441 534.511 112.397 143.979"
   xml:space="preserve"
   sodipodi:docname="成品设备-16.svg"><metadata
   id="metadata61"><rdf:RDF><cc:Work
       rdf:about=""><dc:format>image/svg+xml</dc:format><dc:type
         rdf:resource="http://purl.org/dc/dcmitype/StillImage" /></cc:Work></rdf:RDF></metadata><defs
   id="defs59" /><sodipodi:namedview
   pagecolor="#ffffff"
   bordercolor="#666666"
   borderopacity="1"
   objecttolerance="10"
   gridtolerance="10"
   guidetolerance="10"
   inkscape:pageopacity="0"
   inkscape:pageshadow="2"
   inkscape:window-width="640"
   inkscape:window-height="480"
   id="namedview57" />
<g
   id="g54">
	<g
   id="g8">
		
			<rect
   x="206.922"
   y="620.9"
   fill="#C4B1E0"
   stroke="#231815"
   stroke-width="0.5"
   stroke-miterlimit="10"
   width="25.133"
   height="39.802"
   id="rect2" />
		
			<polygon
   fill="#AD9CC6"
   stroke="#231815"
   stroke-width="0.5"
   stroke-linecap="round"
   stroke-linejoin="round"
   stroke-miterlimit="10"
   points="    235.92,655.646 232.055,660.702 232.055,620.9 235.92,615.845   "
   id="polygon4" />
		
			<polygon
   fill="#AD9CC6"
   stroke="#231815"
   stroke-width="0.5"
   stroke-linecap="round"
   stroke-linejoin="round"
   stroke-miterlimit="10"
   points="    235.92,615.845 213.184,615.845 206.922,620.9 232.055,620.9   "
   id="polygon6" />
	</g>
	<g
   id="g16">
		
			<rect
   x="179.691"
   y="636.907"
   fill="#C4B1E0"
   stroke="#231815"
   stroke-width="0.5"
   stroke-miterlimit="10"
   width="29.309"
   height="41.332"
   id="rect10" />
		
			<polygon
   fill="#AD9CC6"
   stroke="#231815"
   stroke-width="0.5"
   stroke-linecap="round"
   stroke-linejoin="round"
   stroke-miterlimit="10"
   points="    213.508,672.989 209,678.239 209,636.907 213.508,631.657   "
   id="polygon12" />
		
			<polygon
   fill="#AD9CC6"
   stroke="#231815"
   stroke-width="0.5"
   stroke-linecap="round"
   stroke-linejoin="round"
   stroke-miterlimit="10"
   points="    213.508,631.657 186.992,631.657 179.691,636.907 209,636.907   "
   id="polygon14" />
	</g>
	<g
   id="g24">
		
			<rect
   x="248.834"
   y="620.9"
   fill="#C4B1E0"
   stroke="#231815"
   stroke-width="0.5"
   stroke-miterlimit="10"
   width="37.055"
   height="39.802"
   id="rect18" />
		
			<polygon
   fill="#AD9CC6"
   stroke="#231815"
   stroke-width="0.5"
   stroke-linecap="round"
   stroke-linejoin="round"
   stroke-miterlimit="10"
   points="    291.588,655.646 285.889,660.702 285.889,620.9 291.588,615.845   "
   id="polygon20" />
		
			<polygon
   fill="#AD9CC6"
   stroke="#231815"
   stroke-width="0.5"
   stroke-linecap="round"
   stroke-linejoin="round"
   stroke-miterlimit="10"
   points="    291.588,615.845 258.066,615.845 248.834,620.9 285.889,620.9   "
   id="polygon22" />
	</g>
	<g
   id="g32">
		
			<rect
   x="228.254"
   y="636.907"
   fill="#C4B1E0"
   stroke="#231815"
   stroke-width="0.5"
   stroke-miterlimit="10"
   width="38.48"
   height="41.332"
   id="rect26" />
		
			<polygon
   fill="#AD9CC6"
   stroke="#231815"
   stroke-width="0.5"
   stroke-linecap="round"
   stroke-linejoin="round"
   stroke-miterlimit="10"
   points="    272.652,672.989 266.734,678.239 266.734,636.907 272.652,631.657   "
   id="polygon28" />
		
			<polygon
   fill="#AD9CC6"
   stroke="#231815"
   stroke-width="0.5"
   stroke-linecap="round"
   stroke-linejoin="round"
   stroke-miterlimit="10"
   points="    272.652,631.657 237.84,631.657 228.254,636.907 266.734,636.907   "
   id="polygon30" />
	</g>
	<g
   id="g42">
		
			<path
   fill="#257F14"
   stroke="#231815"
   stroke-width="0.5"
   stroke-linecap="round"
   stroke-linejoin="round"
   stroke-miterlimit="10"
   d="    M282.213,554.666v62.787l-3.852,2.695v-61.631c0-10.997-8.908-19.904-19.896-19.904h-25.682c-4.518,0-8.686,1.502-12.018,4.034    c3.631-4.796,9.389-7.887,15.869-7.887h25.684C273.305,534.762,282.213,543.669,282.213,554.666z"
   id="path34" />
		
			<path
   fill="#257F14"
   stroke="#231815"
   stroke-width="0.5"
   stroke-linecap="round"
   stroke-linejoin="round"
   stroke-miterlimit="10"
   d="    M232.186,554.06c-0.037,0.202-0.047,0.404-0.047,0.606l-0.02,61.63l-3.832,3.833v-61.61    C228.287,556.235,229.99,554.357,232.186,554.06z"
   id="path36" />
		
			<path
   fill="#49AD3A"
   stroke="#231815"
   stroke-width="0.5"
   stroke-linecap="round"
   stroke-linejoin="round"
   stroke-miterlimit="10"
   d="    M278.361,558.519v61.631h-15.408v-61.631c0-2.484-2.012-4.496-4.488-4.496h-25.682c-0.201,0-0.404,0.009-0.598,0.037    c-2.195,0.299-3.898,2.177-3.898,4.459v61.631h-15.408v-61.631c0-6.479,3.092-12.239,7.887-15.869    c3.332-2.533,7.5-4.035,12.018-4.035h25.682C269.453,538.613,278.361,547.521,278.361,558.519z"
   id="path38" />
		<path
   opacity="0.7"
   fill="#6DD65A"
   enable-background="new    "
   d="M278.359,558.519v7.328l-15.408,5.933v-13.261    c0-2.484-2.012-4.496-4.488-4.496h-25.682c-0.201,0-0.404,0.009-0.598,0.037c-2.195,0.299-3.898,2.177-3.898,4.459v26.589    l-15.408,5.932v-32.521c0-6.479,3.092-12.239,7.887-15.869c3.332-2.533,7.502-4.035,12.018-4.035h25.682    C269.451,538.613,278.359,547.521,278.359,558.519z"
   id="path40" />
	</g>
	<g
   id="g52">
		
			<path
   fill="#257F14"
   stroke="#231815"
   stroke-width="0.5"
   stroke-linecap="round"
   stroke-linejoin="round"
   stroke-miterlimit="10"
   d="    M260.043,567.706v64.801l-4,3.199v-64c0-11.42-9.25-20.67-20.66-20.67h-26.67c-4.691,0-9.02,1.56-12.48,4.189    c3.77-4.979,9.75-8.189,16.48-8.189h26.67C250.793,547.036,260.043,556.286,260.043,567.706z"
   id="path44" />
		
			<path
   fill="#257F14"
   stroke="#231815"
   stroke-width="0.5"
   stroke-linecap="round"
   stroke-linejoin="round"
   stroke-miterlimit="10"
   d="    M208.092,567.076c-0.039,0.21-0.049,0.42-0.049,0.63v64l-0.021,1.201l-3.979,2.778v-63.979    C204.043,569.336,205.813,567.386,208.092,567.076z"
   id="path46" />
		
			<path
   fill="#49AD3A"
   stroke="#231815"
   stroke-width="0.5"
   stroke-linecap="round"
   stroke-linejoin="round"
   stroke-miterlimit="10"
   d="    M256.043,571.706v64h-16v-64c0-2.58-2.09-4.67-4.66-4.67h-26.67c-0.211,0-0.42,0.01-0.621,0.04c-2.279,0.31-4.049,2.26-4.049,4.63    v64h-16v-64c0-6.729,3.209-12.71,8.189-16.479c3.461-2.631,7.789-4.189,12.48-4.189h26.67    C246.793,551.036,256.043,560.286,256.043,571.706z"
   id="path48" />
		<path
   opacity="0.7"
   fill="#6DD65A"
   enable-background="new    "
   d="M256.041,571.706v7.61l-16,6.159v-13.771    c0-2.58-2.09-4.67-4.66-4.67h-26.67c-0.211,0-0.42,0.01-0.621,0.04c-2.279,0.31-4.049,2.26-4.049,4.63v27.61l-16,6.159v-33.771    c0-6.729,3.209-12.71,8.189-16.479c3.459-2.631,7.789-4.189,12.48-4.189h26.67C246.791,551.036,256.041,560.286,256.041,571.706z"
   id="path50" />
	</g>
</g>
</svg>
