<?xml version="1.0" encoding="UTF-8" standalone="no"?>
<svg
   xmlns:dc="http://purl.org/dc/elements/1.1/"
   xmlns:cc="http://creativecommons.org/ns#"
   xmlns:rdf="http://www.w3.org/1999/02/22-rdf-syntax-ns#"
   xmlns:svg="http://www.w3.org/2000/svg"
   xmlns="http://www.w3.org/2000/svg"
   xmlns:sodipodi="http://sodipodi.sourceforge.net/DTD/sodipodi-0.dtd"
   xmlns:inkscape="http://www.inkscape.org/namespaces/inkscape"
   version="1.1"
   id="图层_1"
   x="0px"
   y="0px"
   width="36.616px"
   height="145.702px"
   viewBox="184.046 60.786 36.616 145.702"
   enable-background="new 184.046 60.786 36.616 145.702"
   xml:space="preserve"
   sodipodi:docname="成品设备-02.svg"><metadata
   id="metadata127"><rdf:RDF><cc:Work
       rdf:about=""><dc:format>image/svg+xml</dc:format><dc:type
         rdf:resource="http://purl.org/dc/dcmitype/StillImage" /></cc:Work></rdf:RDF></metadata><defs
   id="defs125" /><sodipodi:namedview
   pagecolor="#ffffff"
   bordercolor="#666666"
   borderopacity="1"
   objecttolerance="10"
   gridtolerance="10"
   guidetolerance="10"
   inkscape:pageopacity="0"
   inkscape:pageshadow="2"
   inkscape:window-width="640"
   inkscape:window-height="480"
   id="namedview123" />
<g
   id="g120">
	
		<rect
   x="184.296"
   y="78.726"
   fill="#8A8C8E"
   stroke="#231815"
   stroke-width="0.5"
   stroke-miterlimit="10"
   width="36.116"
   height="127.512"
   id="rect2" />
	
		<rect
   x="184.296"
   y="61.036"
   fill="#8A8C8E"
   stroke="#231815"
   stroke-width="0.5"
   stroke-miterlimit="10"
   width="3.439"
   height="17.69"
   id="rect4" />
	
		<rect
   x="216.973"
   y="61.036"
   fill="#8A8C8E"
   stroke="#231815"
   stroke-width="0.5"
   stroke-miterlimit="10"
   width="3.439"
   height="17.69"
   id="rect6" />
	<g
   id="g62">
		
			<rect
   x="187.735"
   y="82.284"
   fill="#B2B2B2"
   stroke="#231815"
   stroke-width="0.5"
   stroke-miterlimit="10"
   width="29.239"
   height="58.184"
   id="rect8" />
		
			<line
   fill="none"
   stroke="#231815"
   stroke-width="0.5"
   stroke-miterlimit="10"
   x1="190.153"
   y1="82.284"
   x2="187.735"
   y2="84.702"
   id="line10" />
		<polyline
   fill="none"
   stroke="#231815"
   stroke-width="0.5"
   stroke-miterlimit="10"
   points="196.919,82.284 193.993,85.21     190.61,88.593 187.735,91.468   "
   id="polyline12" />
		<polyline
   fill="none"
   stroke="#231815"
   stroke-width="0.5"
   stroke-miterlimit="10"
   points="203.685,82.284 200.767,85.21     197.376,88.593 193.993,91.977 190.61,95.367 187.735,98.242   "
   id="polyline14" />
		<polyline
   fill="none"
   stroke="#231815"
   stroke-width="0.5"
   stroke-miterlimit="10"
   points="187.735,105.008 190.61,102.133     193.993,98.75 197.383,95.367 200.767,91.984 204.149,88.593 207.533,85.21 210.459,82.284   "
   id="polyline16" />
		<polyline
   fill="none"
   stroke="#231815"
   stroke-width="0.5"
   stroke-miterlimit="10"
   points="216.975,82.542 214.299,85.21     210.916,88.593 207.533,91.977 204.149,95.367 200.767,98.75 197.376,102.133 193.993,105.517 190.61,108.899 187.735,111.774       "
   id="polyline18" />
		<polyline
   fill="none"
   stroke="#231815"
   stroke-width="0.5"
   stroke-miterlimit="10"
   points="216.975,89.308 214.306,91.984     210.923,95.367 207.533,98.75 204.149,102.133 200.767,105.523 197.383,108.907 194,112.29 190.617,115.673 187.735,118.547   "
   id="polyline20" />
		<polyline
   fill="none"
   stroke="#231815"
   stroke-width="0.5"
   stroke-miterlimit="10"
   points="187.735,125.314 190.61,122.439     194,119.056 197.383,115.673 200.767,112.29 204.149,108.907 207.533,105.517 210.916,102.133 214.306,98.75 216.975,96.075   "
   id="polyline22" />
		<polyline
   fill="none"
   stroke="#231815"
   stroke-width="0.5"
   stroke-miterlimit="10"
   points="187.735,132.08 190.61,129.206     193.993,125.822 197.383,122.439 200.767,119.056 204.149,115.673 207.533,112.29 210.916,108.899 214.299,105.517     216.975,102.841   "
   id="polyline24" />
		<polyline
   fill="none"
   stroke="#231815"
   stroke-width="0.5"
   stroke-miterlimit="10"
   points="187.735,138.854 190.61,135.979     193.993,132.596 197.376,129.206 200.767,125.822 204.149,122.439 207.533,119.056 210.916,115.673 214.299,112.282     216.975,109.607   "
   id="polyline26" />
		<polyline
   fill="none"
   stroke="#231815"
   stroke-width="0.5"
   stroke-miterlimit="10"
   points="216.975,116.38 214.299,119.056     210.916,122.439 207.533,125.822 204.149,129.206 200.767,132.596 197.376,135.979 193.993,139.362 192.888,140.468   "
   id="polyline28" />
		<polyline
   fill="none"
   stroke="#231815"
   stroke-width="0.5"
   stroke-miterlimit="10"
   points="216.975,123.154 214.299,125.822     210.916,129.206 207.533,132.589 204.149,135.979 200.767,139.362 199.653,140.468   "
   id="polyline30" />
		<polyline
   fill="none"
   stroke="#231815"
   stroke-width="0.5"
   stroke-miterlimit="10"
   points="216.975,129.92 214.306,132.596     210.923,135.979 207.533,139.362 206.428,140.468   "
   id="polyline32" />
		<polyline
   fill="none"
   stroke="#231815"
   stroke-width="0.5"
   stroke-miterlimit="10"
   points="216.975,136.687 214.306,139.362     213.193,140.468   "
   id="polyline34" />
		<polyline
   fill="none"
   stroke="#231815"
   stroke-width="0.5"
   stroke-miterlimit="10"
   points="216.975,87.886 214.299,85.21     211.373,82.284   "
   id="polyline36" />
		<polyline
   fill="none"
   stroke="#231815"
   stroke-width="0.5"
   stroke-miterlimit="10"
   points="216.975,94.652 214.306,91.984     210.916,88.593 207.533,85.21 204.606,82.284   "
   id="polyline38" />
		<polyline
   fill="none"
   stroke="#231815"
   stroke-width="0.5"
   stroke-miterlimit="10"
   points="216.975,101.418 214.306,98.75     210.923,95.367 207.533,91.977 204.149,88.593 200.767,85.21 197.84,82.284   "
   id="polyline40" />
		<polyline
   fill="none"
   stroke="#231815"
   stroke-width="0.5"
   stroke-miterlimit="10"
   points="216.975,108.192 214.299,105.517     210.916,102.133 207.533,98.75 204.149,95.367 200.767,91.984 197.376,88.593 193.993,85.21 191.066,82.284   "
   id="polyline42" />
		<polyline
   fill="none"
   stroke="#231815"
   stroke-width="0.5"
   stroke-miterlimit="10"
   points="187.735,85.719 190.61,88.593     193.993,91.977 197.383,95.367 200.767,98.75 204.149,102.133 207.533,105.517 210.916,108.899 214.299,112.282 216.975,114.958       "
   id="polyline44" />
		<polyline
   fill="none"
   stroke="#231815"
   stroke-width="0.5"
   stroke-miterlimit="10"
   points="216.975,121.732 214.299,119.056     210.916,115.673 207.533,112.29 204.149,108.907 200.767,105.523 197.376,102.133 193.993,98.75 190.61,95.367 187.735,92.493       "
   id="polyline46" />
		<polyline
   fill="none"
   stroke="#231815"
   stroke-width="0.5"
   stroke-miterlimit="10"
   points="216.975,128.498 214.299,125.822     210.916,122.439 207.533,119.056 204.149,115.673 200.767,112.29 197.383,108.907 193.993,105.517 190.61,102.133 187.735,99.259       "
   id="polyline48" />
		<polyline
   fill="none"
   stroke="#231815"
   stroke-width="0.5"
   stroke-miterlimit="10"
   points="216.975,135.264 214.306,132.596     210.916,129.206 207.533,125.822 204.149,122.439 200.767,119.056 197.383,115.673 194,112.29 190.61,108.899 187.735,106.025       "
   id="polyline50" />
		<polyline
   fill="none"
   stroke="#231815"
   stroke-width="0.5"
   stroke-miterlimit="10"
   points="187.735,112.792 190.617,115.673     194,119.056 197.383,122.439 200.767,125.822 204.149,129.206 207.533,132.589 210.923,135.979 214.306,139.362 215.412,140.468       "
   id="polyline52" />
		<polyline
   fill="none"
   stroke="#231815"
   stroke-width="0.5"
   stroke-miterlimit="10"
   points="187.735,119.565 190.61,122.439     193.993,125.822 197.376,129.206 200.767,132.596 204.149,135.979 207.533,139.362 208.639,140.468   "
   id="polyline54" />
		<polyline
   fill="none"
   stroke="#231815"
   stroke-width="0.5"
   stroke-miterlimit="10"
   points="187.735,126.331 190.61,129.206     193.993,132.596 197.376,135.979 200.767,139.362 201.872,140.468   "
   id="polyline56" />
		<polyline
   fill="none"
   stroke="#231815"
   stroke-width="0.5"
   stroke-miterlimit="10"
   points="195.099,140.468 193.993,139.362     190.61,135.979 187.735,133.104   "
   id="polyline58" />
		
			<line
   fill="none"
   stroke="#231815"
   stroke-width="0.5"
   stroke-miterlimit="10"
   x1="188.332"
   y1="140.468"
   x2="187.735"
   y2="139.871"
   id="line60" />
	</g>
	<g
   id="g118">
		
			<rect
   x="187.735"
   y="144.491"
   fill="#B2B2B2"
   stroke="#231815"
   stroke-width="0.5"
   stroke-miterlimit="10"
   width="29.239"
   height="58.184"
   id="rect64" />
		
			<line
   fill="none"
   stroke="#231815"
   stroke-width="0.5"
   stroke-miterlimit="10"
   x1="190.153"
   y1="144.491"
   x2="187.735"
   y2="146.909"
   id="line66" />
		<polyline
   fill="none"
   stroke="#231815"
   stroke-width="0.5"
   stroke-miterlimit="10"
   points="196.919,144.491 193.993,147.417     190.61,150.801 187.735,153.675   "
   id="polyline68" />
		<polyline
   fill="none"
   stroke="#231815"
   stroke-width="0.5"
   stroke-miterlimit="10"
   points="203.685,144.491 200.767,147.417     197.376,150.801 193.993,154.184 190.61,157.574 187.735,160.449   "
   id="polyline70" />
		<polyline
   fill="none"
   stroke="#231815"
   stroke-width="0.5"
   stroke-miterlimit="10"
   points="187.735,167.215 190.61,164.34     193.993,160.957 197.383,157.574 200.767,154.191 204.149,150.801 207.533,147.417 210.459,144.491   "
   id="polyline72" />
		<polyline
   fill="none"
   stroke="#231815"
   stroke-width="0.5"
   stroke-miterlimit="10"
   points="216.975,144.75 214.299,147.417     210.916,150.801 207.533,154.184 204.149,157.574 200.767,160.957 197.376,164.34 193.993,167.724 190.61,171.106     187.735,173.981   "
   id="polyline74" />
		<polyline
   fill="none"
   stroke="#231815"
   stroke-width="0.5"
   stroke-miterlimit="10"
   points="216.975,151.515 214.306,154.191     210.923,157.574 207.533,160.957 204.149,164.34 200.767,167.731 197.383,171.114 194,174.497 190.617,177.88 187.735,180.755       "
   id="polyline76" />
		<polyline
   fill="none"
   stroke="#231815"
   stroke-width="0.5"
   stroke-miterlimit="10"
   points="187.735,187.521 190.61,184.646     194,181.264 197.383,177.88 200.767,174.497 204.149,171.114 207.533,167.724 210.916,164.34 214.306,160.957 216.975,158.282       "
   id="polyline78" />
		<polyline
   fill="none"
   stroke="#231815"
   stroke-width="0.5"
   stroke-miterlimit="10"
   points="187.735,194.288 190.61,191.413     193.993,188.03 197.383,184.646 200.767,181.264 204.149,177.88 207.533,174.497 210.916,171.106 214.299,167.724     216.975,165.048   "
   id="polyline80" />
		<polyline
   fill="none"
   stroke="#231815"
   stroke-width="0.5"
   stroke-miterlimit="10"
   points="187.735,201.061 190.61,198.187     193.993,194.803 197.376,191.413 200.767,188.03 204.149,184.646 207.533,181.264 210.916,177.88 214.299,174.49 216.975,171.814       "
   id="polyline82" />
		<polyline
   fill="none"
   stroke="#231815"
   stroke-width="0.5"
   stroke-miterlimit="10"
   points="216.975,178.588 214.299,181.264     210.916,184.646 207.533,188.03 204.149,191.413 200.767,194.803 197.376,198.187 193.993,201.57 192.888,202.675   "
   id="polyline84" />
		<polyline
   fill="none"
   stroke="#231815"
   stroke-width="0.5"
   stroke-miterlimit="10"
   points="216.975,185.361 214.299,188.03     210.916,191.413 207.533,194.796 204.149,198.187 200.767,201.57 199.653,202.675   "
   id="polyline86" />
		<polyline
   fill="none"
   stroke="#231815"
   stroke-width="0.5"
   stroke-miterlimit="10"
   points="216.975,192.128 214.306,194.803     210.923,198.187 207.533,201.57 206.428,202.675   "
   id="polyline88" />
		<polyline
   fill="none"
   stroke="#231815"
   stroke-width="0.5"
   stroke-miterlimit="10"
   points="216.975,198.894 214.306,201.57     213.193,202.675   "
   id="polyline90" />
		<polyline
   fill="none"
   stroke="#231815"
   stroke-width="0.5"
   stroke-miterlimit="10"
   points="216.975,150.093 214.299,147.417     211.373,144.491   "
   id="polyline92" />
		<polyline
   fill="none"
   stroke="#231815"
   stroke-width="0.5"
   stroke-miterlimit="10"
   points="216.975,156.859 214.306,154.191     210.916,150.801 207.533,147.417 204.606,144.491   "
   id="polyline94" />
		<polyline
   fill="none"
   stroke="#231815"
   stroke-width="0.5"
   stroke-miterlimit="10"
   points="216.975,163.625 214.306,160.957     210.923,157.574 207.533,154.184 204.149,150.801 200.767,147.417 197.84,144.491   "
   id="polyline96" />
		<polyline
   fill="none"
   stroke="#231815"
   stroke-width="0.5"
   stroke-miterlimit="10"
   points="216.975,170.399 214.299,167.724     210.916,164.34 207.533,160.957 204.149,157.574 200.767,154.191 197.376,150.801 193.993,147.417 191.066,144.491   "
   id="polyline98" />
		<polyline
   fill="none"
   stroke="#231815"
   stroke-width="0.5"
   stroke-miterlimit="10"
   points="187.735,147.926 190.61,150.801     193.993,154.184 197.383,157.574 200.767,160.957 204.149,164.34 207.533,167.724 210.916,171.106 214.299,174.49     216.975,177.166   "
   id="polyline100" />
		<polyline
   fill="none"
   stroke="#231815"
   stroke-width="0.5"
   stroke-miterlimit="10"
   points="216.975,183.939 214.299,181.264     210.916,177.88 207.533,174.497 204.149,171.114 200.767,167.731 197.376,164.34 193.993,160.957 190.61,157.574 187.735,154.7       "
   id="polyline102" />
		<polyline
   fill="none"
   stroke="#231815"
   stroke-width="0.5"
   stroke-miterlimit="10"
   points="216.975,190.705 214.299,188.03     210.916,184.646 207.533,181.264 204.149,177.88 200.767,174.497 197.383,171.114 193.993,167.724 190.61,164.34 187.735,161.466       "
   id="polyline104" />
		<polyline
   fill="none"
   stroke="#231815"
   stroke-width="0.5"
   stroke-miterlimit="10"
   points="216.975,197.472 214.306,194.803     210.916,191.413 207.533,188.03 204.149,184.646 200.767,181.264 197.383,177.88 194,174.497 190.61,171.106 187.735,168.232       "
   id="polyline106" />
		<polyline
   fill="none"
   stroke="#231815"
   stroke-width="0.5"
   stroke-miterlimit="10"
   points="187.735,174.999 190.617,177.88     194,181.264 197.383,184.646 200.767,188.03 204.149,191.413 207.533,194.796 210.923,198.187 214.306,201.57 215.412,202.675       "
   id="polyline108" />
		<polyline
   fill="none"
   stroke="#231815"
   stroke-width="0.5"
   stroke-miterlimit="10"
   points="187.735,181.772 190.61,184.646     193.993,188.03 197.376,191.413 200.767,194.803 204.149,198.187 207.533,201.57 208.639,202.675   "
   id="polyline110" />
		<polyline
   fill="none"
   stroke="#231815"
   stroke-width="0.5"
   stroke-miterlimit="10"
   points="187.735,188.538 190.61,191.413     193.993,194.803 197.376,198.187 200.767,201.57 201.872,202.675   "
   id="polyline112" />
		<polyline
   fill="none"
   stroke="#231815"
   stroke-width="0.5"
   stroke-miterlimit="10"
   points="195.099,202.675 193.993,201.57     190.61,198.187 187.735,195.312   "
   id="polyline114" />
		
			<line
   fill="none"
   stroke="#231815"
   stroke-width="0.5"
   stroke-miterlimit="10"
   x1="188.332"
   y1="202.675"
   x2="187.735"
   y2="202.078"
   id="line116" />
	</g>
</g>
</svg>
