<?xml version="1.0" encoding="UTF-8" standalone="no"?>
<svg
   xmlns:dc="http://purl.org/dc/elements/1.1/"
   xmlns:cc="http://creativecommons.org/ns#"
   xmlns:rdf="http://www.w3.org/1999/02/22-rdf-syntax-ns#"
   xmlns:svg="http://www.w3.org/2000/svg"
   xmlns="http://www.w3.org/2000/svg"
   xmlns:sodipodi="http://sodipodi.sourceforge.net/DTD/sodipodi-0.dtd"
   xmlns:inkscape="http://www.inkscape.org/namespaces/inkscape"
   version="1.1"
   id="图层_1"
   x="0px"
   y="0px"
   width="105.542px"
   height="97.25px"
   viewBox="305.85 712.14 105.542 97.25"
   enable-background="new 305.85 712.14 105.542 97.25"
   xml:space="preserve"
   sodipodi:docname="成品设备-21.svg"><metadata
   id="metadata35"><rdf:RDF><cc:Work
       rdf:about=""><dc:format>image/svg+xml</dc:format><dc:type
         rdf:resource="http://purl.org/dc/dcmitype/StillImage" /></cc:Work></rdf:RDF></metadata><defs
   id="defs33" /><sodipodi:namedview
   pagecolor="#ffffff"
   bordercolor="#666666"
   borderopacity="1"
   objecttolerance="10"
   gridtolerance="10"
   guidetolerance="10"
   inkscape:pageopacity="0"
   inkscape:pageshadow="2"
   inkscape:window-width="640"
   inkscape:window-height="480"
   id="namedview31" />
<g
   id="g28">
	
		<rect
   x="311.863"
   y="719.8"
   fill="#50BDCE"
   stroke="#231815"
   stroke-width="0.5"
   stroke-linecap="round"
   stroke-linejoin="round"
   stroke-miterlimit="10"
   width="88.104"
   height="69.99"
   id="rect2" />
	
		<polygon
   fill="#23747F"
   stroke="#231815"
   stroke-width="0.5"
   stroke-linecap="round"
   stroke-linejoin="round"
   stroke-miterlimit="10"
   points="   411.083,797.628 399.968,805.039 399.968,719.8 411.083,712.39  "
   id="polygon4" />
	
		<polygon
   fill="#7FDEEA"
   stroke="#231815"
   stroke-width="0.5"
   stroke-linecap="round"
   stroke-linejoin="round"
   stroke-miterlimit="10"
   points="   411.142,712.39 323.038,712.39 311.863,719.8 399.968,719.8  "
   id="polygon6" />
	
		<path
   fill="#FFFFFF"
   stroke="#231815"
   stroke-width="0.5"
   stroke-linecap="round"
   stroke-linejoin="round"
   stroke-miterlimit="10"
   d="   M392.557,774.626c0,3.94-3.193,7.136-7.136,7.136h-59.012c-3.94,0-7.136-3.194-7.136-7.136v-39.662   c0-3.939,3.194-7.136,7.136-7.136h59.012c3.941,0,7.136,3.195,7.136,7.136V774.626z"
   id="path8" />
	
		<path
   fill="#7FDEEA"
   stroke="#231815"
   stroke-width="0.5"
   stroke-linecap="round"
   stroke-linejoin="round"
   stroke-miterlimit="10"
   d="   M327.508,729.476v50.64h-1.096c-3.029,0-5.491-2.462-5.491-5.491v-39.655c0-3.03,2.462-5.492,5.491-5.492L327.508,729.476   L327.508,729.476z"
   id="path10" />
	
		<path
   fill="#7FDEEA"
   stroke="#231815"
   stroke-width="0.5"
   stroke-linecap="round"
   stroke-linejoin="round"
   stroke-miterlimit="10"
   d="   M390.91,734.968v39.655c0,3.029-2.463,5.491-5.492,5.491h-1.919v-50.639h1.919C388.447,729.476,390.91,731.938,390.91,734.968z"
   id="path12" />
	
		<rect
   x="327.508"
   y="729.476"
   fill="#191919"
   stroke="#231815"
   stroke-width="0.5"
   stroke-linecap="round"
   stroke-linejoin="round"
   stroke-miterlimit="10"
   width="55.991"
   height="39.729"
   id="rect14" />
	
		<polygon
   fill="#23747F"
   stroke="#231815"
   stroke-width="0.5"
   stroke-linecap="round"
   stroke-linejoin="round"
   stroke-miterlimit="10"
   points="   383.499,769.204 383.499,780.114 327.508,780.114 338.624,769.204  "
   id="polygon16" />
	
		<rect
   x="306.1"
   y="793.906"
   fill="#50BDCE"
   stroke="#231815"
   stroke-width="0.5"
   stroke-linecap="round"
   stroke-linejoin="round"
   stroke-miterlimit="10"
   width="87.486"
   height="15.232"
   id="rect18" />
	
		<polygon
   fill="#7FDEEA"
   stroke="#231815"
   stroke-width="0.5"
   stroke-linecap="round"
   stroke-linejoin="round"
   stroke-miterlimit="10"
   points="   393.586,793.906 306.1,793.906 311.863,789.79 399.968,789.79  "
   id="polygon20" />
	
		<polygon
   fill="#23747F"
   stroke="#231815"
   stroke-width="0.5"
   stroke-linecap="round"
   stroke-linejoin="round"
   stroke-miterlimit="10"
   points="   399.968,789.79 393.586,793.906 393.586,809.14 399.968,805.022  "
   id="polygon22" />
	
		<rect
   x="331.007"
   y="796.171"
   fill="#191919"
   stroke="#231815"
   stroke-width="0.5"
   stroke-linecap="round"
   stroke-linejoin="round"
   stroke-miterlimit="10"
   width="37.671"
   height="10.704"
   id="rect24" />
	
		<polygon
   fill="#23747F"
   stroke="#231815"
   stroke-width="0.5"
   stroke-linecap="round"
   stroke-linejoin="round"
   stroke-miterlimit="10"
   points="   338.418,729.476 327.508,729.476 327.508,780.114 338.418,769.376  "
   id="polygon26" />
</g>
</svg>
