<?xml version="1.0" encoding="UTF-8" standalone="no"?>
<svg
   xmlns:dc="http://purl.org/dc/elements/1.1/"
   xmlns:cc="http://creativecommons.org/ns#"
   xmlns:rdf="http://www.w3.org/1999/02/22-rdf-syntax-ns#"
   xmlns:svg="http://www.w3.org/2000/svg"
   xmlns="http://www.w3.org/2000/svg"
   xmlns:sodipodi="http://sodipodi.sourceforge.net/DTD/sodipodi-0.dtd"
   xmlns:inkscape="http://www.inkscape.org/namespaces/inkscape"
   version="1.1"
   id="图层_1"
   x="0px"
   y="0px"
   width="123.117px"
   height="103.52px"
   viewBox="404.137 249.737 123.117 103.52"
   enable-background="new 404.137 249.737 123.117 103.52"
   xml:space="preserve"
   sodipodi:docname="成品设备-09.svg"><metadata
   id="metadata91"><rdf:RDF><cc:Work
       rdf:about=""><dc:format>image/svg+xml</dc:format><dc:type
         rdf:resource="http://purl.org/dc/dcmitype/StillImage" /></cc:Work></rdf:RDF></metadata><defs
   id="defs89" /><sodipodi:namedview
   pagecolor="#ffffff"
   bordercolor="#666666"
   borderopacity="1"
   objecttolerance="10"
   gridtolerance="10"
   guidetolerance="10"
   inkscape:pageopacity="0"
   inkscape:pageshadow="2"
   inkscape:window-width="640"
   inkscape:window-height="480"
   id="namedview87" />
<g
   id="g84">
	
		<rect
   x="404.387"
   y="249.987"
   fill="#A9D4FF"
   stroke="#231815"
   stroke-width="0.5"
   stroke-linecap="round"
   stroke-linejoin="round"
   stroke-miterlimit="10"
   width="122.617"
   height="103.02"
   id="rect2" />
	
		<rect
   x="409.343"
   y="262.349"
   fill="#85BCFF"
   stroke="#231815"
   stroke-width="0.5"
   stroke-linecap="round"
   stroke-linejoin="round"
   stroke-miterlimit="10"
   width="55.244"
   height="90.658"
   id="rect4" />
	<polygon
   fill="#C5E5FF"
   points="410.889,264.049 464.587,264.049 464.587,262.349 409.343,262.349 409.343,353.007    410.889,353.007  "
   id="polygon6" />
	<polygon
   fill="#62ABF4"
   points="463.042,351.307 410.889,351.307 409.343,353.007 464.587,353.007 464.587,262.349    463.042,264.049  "
   id="polygon8" />
	<g
   id="g18">
		
			<rect
   x="408.478"
   y="269.995"
   fill="#4EC9F4"
   stroke="#1789BC"
   stroke-width="0.5"
   stroke-miterlimit="10"
   width="1.33"
   height="10.419"
   id="rect10" />
		
			<rect
   x="408.478"
   y="291.645"
   fill="#4EC9F4"
   stroke="#1789BC"
   stroke-width="0.5"
   stroke-miterlimit="10"
   width="1.33"
   height="10.418"
   id="rect12" />
		
			<rect
   x="408.478"
   y="313.292"
   fill="#4EC9F4"
   stroke="#1789BC"
   stroke-width="0.5"
   stroke-miterlimit="10"
   width="1.33"
   height="10.42"
   id="rect14" />
		
			<rect
   x="408.478"
   y="334.941"
   fill="#4EC9F4"
   stroke="#1789BC"
   stroke-width="0.5"
   stroke-miterlimit="10"
   width="1.33"
   height="10.419"
   id="rect16" />
	</g>
	
		<rect
   x="466.804"
   y="262.349"
   fill="#85BCFF"
   stroke="#231815"
   stroke-width="0.5"
   stroke-linecap="round"
   stroke-linejoin="round"
   stroke-miterlimit="10"
   width="55.244"
   height="90.658"
   id="rect20" />
	<polygon
   fill="#C5E5FF"
   points="520.503,264.049 466.804,264.049 466.804,262.349 522.048,262.349 522.048,353.007    520.503,353.007  "
   id="polygon22" />
	<polygon
   fill="#62ABF4"
   points="468.35,351.307 520.503,351.307 522.048,353.007 466.804,353.007 466.804,262.349 468.35,264.049     "
   id="polygon24" />
	<g
   id="g34">
		
			<rect
   x="521.583"
   y="269.995"
   fill="#4EC9F4"
   stroke="#1789BC"
   stroke-width="0.5"
   stroke-miterlimit="10"
   width="1.33"
   height="10.419"
   id="rect26" />
		
			<rect
   x="521.583"
   y="291.645"
   fill="#4EC9F4"
   stroke="#1789BC"
   stroke-width="0.5"
   stroke-miterlimit="10"
   width="1.33"
   height="10.418"
   id="rect28" />
		
			<rect
   x="521.583"
   y="313.292"
   fill="#4EC9F4"
   stroke="#1789BC"
   stroke-width="0.5"
   stroke-miterlimit="10"
   width="1.33"
   height="10.42"
   id="rect30" />
		
			<rect
   x="521.583"
   y="334.941"
   fill="#4EC9F4"
   stroke="#1789BC"
   stroke-width="0.5"
   stroke-miterlimit="10"
   width="1.33"
   height="10.419"
   id="rect32" />
	</g>
	<polygon
   opacity="0.7"
   fill="#A5D3F2"
   enable-background="new    "
   points="464.15,299.058 408.906,316.926 408.906,262.349    464.15,262.349  "
   id="polygon36" />
	<polygon
   opacity="0.7"
   fill="#A5D3F2"
   enable-background="new    "
   points="466.367,299.731 521.611,283.563 521.611,262.349    466.367,262.349  "
   id="polygon38" />
	<g
   id="g54">
		<line
   fill="none"
   stroke="#2998D6"
   stroke-miterlimit="10"
   x1="417.069"
   y1="264.049"
   x2="417.069"
   y2="351.307"
   id="line40" />
		<line
   fill="none"
   stroke="#2998D6"
   stroke-miterlimit="10"
   x1="423.701"
   y1="264.049"
   x2="423.701"
   y2="351.307"
   id="line42" />
		<line
   fill="none"
   stroke="#2998D6"
   stroke-miterlimit="10"
   x1="430.334"
   y1="264.049"
   x2="430.334"
   y2="351.307"
   id="line44" />
		<line
   fill="none"
   stroke="#2998D6"
   stroke-miterlimit="10"
   x1="436.965"
   y1="264.049"
   x2="436.965"
   y2="351.307"
   id="line46" />
		<line
   fill="none"
   stroke="#2998D6"
   stroke-miterlimit="10"
   x1="443.597"
   y1="264.049"
   x2="443.597"
   y2="351.307"
   id="line48" />
		<line
   fill="none"
   stroke="#2998D6"
   stroke-miterlimit="10"
   x1="450.229"
   y1="264.049"
   x2="450.229"
   y2="351.307"
   id="line50" />
		<line
   fill="none"
   stroke="#2998D6"
   stroke-miterlimit="10"
   x1="456.86"
   y1="264.049"
   x2="456.86"
   y2="351.307"
   id="line52" />
	</g>
	<g
   id="g70">
		<line
   fill="none"
   stroke="#2998D6"
   stroke-miterlimit="10"
   x1="514.321"
   y1="264.049"
   x2="514.321"
   y2="351.307"
   id="line56" />
		<line
   fill="none"
   stroke="#2998D6"
   stroke-miterlimit="10"
   x1="507.69"
   y1="264.049"
   x2="507.69"
   y2="351.307"
   id="line58" />
		<line
   fill="none"
   stroke="#2998D6"
   stroke-miterlimit="10"
   x1="501.058"
   y1="264.049"
   x2="501.058"
   y2="351.307"
   id="line60" />
		<line
   fill="none"
   stroke="#2998D6"
   stroke-miterlimit="10"
   x1="494.426"
   y1="264.049"
   x2="494.426"
   y2="351.307"
   id="line62" />
		<line
   fill="none"
   stroke="#2998D6"
   stroke-miterlimit="10"
   x1="487.794"
   y1="264.049"
   x2="487.794"
   y2="351.307"
   id="line64" />
		<line
   fill="none"
   stroke="#2998D6"
   stroke-miterlimit="10"
   x1="481.162"
   y1="264.049"
   x2="481.162"
   y2="351.307"
   id="line66" />
		<line
   fill="none"
   stroke="#2998D6"
   stroke-miterlimit="10"
   x1="474.53"
   y1="264.049"
   x2="474.53"
   y2="351.307"
   id="line68" />
	</g>
	<g
   id="g76">
		
			<rect
   x="455.077"
   y="303.235"
   fill="#A9D4FF"
   stroke="#231815"
   stroke-width="0.5"
   stroke-linecap="round"
   stroke-linejoin="round"
   stroke-miterlimit="10"
   width="4.598"
   height="15.874"
   id="rect72" />
		<rect
   x="457.544"
   y="303.463"
   fill="#2998D6"
   width="1.963"
   height="15.418"
   id="rect74" />
	</g>
	<g
   id="g82">
		
			<rect
   x="471.717"
   y="303.235"
   fill="#A9D4FF"
   stroke="#231815"
   stroke-width="0.5"
   stroke-linecap="round"
   stroke-linejoin="round"
   stroke-miterlimit="10"
   width="4.599"
   height="15.874"
   id="rect78" />
		<rect
   x="471.885"
   y="303.463"
   fill="#2998D6"
   width="1.963"
   height="15.418"
   id="rect80" />
	</g>
</g>
</svg>
