<?xml version="1.0" encoding="UTF-8" standalone="no"?>
<svg
   xmlns:dc="http://purl.org/dc/elements/1.1/"
   xmlns:cc="http://creativecommons.org/ns#"
   xmlns:rdf="http://www.w3.org/1999/02/22-rdf-syntax-ns#"
   xmlns:svg="http://www.w3.org/2000/svg"
   xmlns="http://www.w3.org/2000/svg"
   xmlns:sodipodi="http://sodipodi.sourceforge.net/DTD/sodipodi-0.dtd"
   xmlns:inkscape="http://www.inkscape.org/namespaces/inkscape"
   version="1.1"
   id="图层_1"
   x="0px"
   y="0px"
   width="109.883px"
   height="109.862px"
   viewBox="152.962 364.392 109.883 109.862"
   enable-background="new 152.962 364.392 109.883 109.862"
   xml:space="preserve"
   sodipodi:docname="01-13.svg"><metadata
   id="metadata31"><rdf:RDF><cc:Work
       rdf:about=""><dc:format>image/svg+xml</dc:format><dc:type
         rdf:resource="http://purl.org/dc/dcmitype/StillImage" /></cc:Work></rdf:RDF></metadata><defs
   id="defs29" /><sodipodi:namedview
   pagecolor="#ffffff"
   bordercolor="#666666"
   borderopacity="1"
   objecttolerance="10"
   gridtolerance="10"
   guidetolerance="10"
   inkscape:pageopacity="0"
   inkscape:pageshadow="2"
   inkscape:window-width="640"
   inkscape:window-height="480"
   id="namedview27" />
<g
   id="g24">
	<g
   id="g14">
		<g
   id="g10">
			<polygon
   fill="#BFBFBF"
   points="205.281,416.722 153.798,401.628 190.191,365.234    "
   id="polygon2" />
			<polygon
   fill="#D9D9D9"
   points="220.365,468.195 153.798,401.628 205.281,416.722    "
   id="polygon4" />
			<polygon
   fill="#CCCCCC"
   points="256.766,431.808 220.371,468.202 220.365,468.195 205.281,416.722 256.759,431.802    "
   id="polygon6" />
			<polygon
   fill="#B2B2B2"
   points="256.759,431.802 205.281,416.722 190.191,365.234    "
   id="polygon8" />
		</g>
		
			<rect
   x="157.765"
   y="390.736"
   transform="matrix(-0.7071 -0.7071 0.7071 -0.7071 55.7743 856.523)"
   fill="none"
   stroke="#231815"
   stroke-width="0.5"
   stroke-miterlimit="10"
   width="95.03"
   height="51.948"
   id="rect12" />
	</g>
	<g
   id="g22">
		
			<rect
   x="255.418"
   y="428.64"
   transform="matrix(-0.7071 -0.7071 0.7071 -0.7071 138.5403 916.6398)"
   fill="#898585"
   stroke="#231815"
   stroke-width="0.5"
   stroke-miterlimit="10"
   width="7.364"
   height="1.979"
   id="rect16" />
		
			<rect
   x="214.517"
   y="469.541"
   transform="matrix(-0.7071 -0.7071 0.7071 -0.7071 39.7504 957.5283)"
   fill="#898585"
   stroke="#231815"
   stroke-width="0.5"
   stroke-miterlimit="10"
   width="7.365"
   height="1.979"
   id="rect18" />
		
			<rect
   x="236.806"
   y="418.269"
   transform="matrix(-0.707 -0.7072 0.7072 -0.707 89.1319 937.0978)"
   fill="#B2B2B2"
   stroke="#231815"
   stroke-width="0.5"
   stroke-miterlimit="10"
   width="3.73"
   height="63.636"
   id="rect20" />
	</g>
</g>
</svg>
