<?xml version="1.0" encoding="UTF-8" standalone="no"?>
<svg
   xmlns:dc="http://purl.org/dc/elements/1.1/"
   xmlns:cc="http://creativecommons.org/ns#"
   xmlns:rdf="http://www.w3.org/1999/02/22-rdf-syntax-ns#"
   xmlns:svg="http://www.w3.org/2000/svg"
   xmlns="http://www.w3.org/2000/svg"
   xmlns:sodipodi="http://sodipodi.sourceforge.net/DTD/sodipodi-0.dtd"
   xmlns:inkscape="http://www.inkscape.org/namespaces/inkscape"
   version="1.1"
   id="图层_1"
   x="0px"
   y="0px"
   width="109.853px"
   height="109.887px"
   viewBox="400.707 364.369 109.853 109.887"
   enable-background="new 400.707 364.369 109.853 109.887"
   xml:space="preserve"
   sodipodi:docname="01-15.svg"><metadata
   id="metadata31"><rdf:RDF><cc:Work
       rdf:about=""><dc:format>image/svg+xml</dc:format><dc:type
         rdf:resource="http://purl.org/dc/dcmitype/StillImage" /></cc:Work></rdf:RDF></metadata><defs
   id="defs29" /><sodipodi:namedview
   pagecolor="#ffffff"
   bordercolor="#666666"
   borderopacity="1"
   objecttolerance="10"
   gridtolerance="10"
   guidetolerance="10"
   inkscape:pageopacity="0"
   inkscape:pageshadow="2"
   inkscape:window-width="640"
   inkscape:window-height="480"
   id="namedview27" />
<g
   id="g24">
	<g
   id="g14">
		<g
   id="g10">
			<polygon
   fill="#BFBFBF"
   points="453.036,421.935 437.943,473.42 401.549,437.024    "
   id="polygon2" />
			<polygon
   fill="#D9D9D9"
   points="504.511,406.851 437.943,473.42 453.036,421.935    "
   id="polygon4" />
			<polygon
   fill="#CCCCCC"
   points="468.123,370.451 504.518,406.845 504.511,406.851 453.036,421.935 468.117,370.458    "
   id="polygon6" />
			<polygon
   fill="#B2B2B2"
   points="468.117,370.458 453.036,421.935 401.549,437.024    "
   id="polygon8" />
		</g>
		
			<rect
   x="405.511"
   y="395.964"
   transform="matrix(-0.7071 0.7071 -0.7071 -0.7071 1071.7173 399.9566)"
   fill="none"
   stroke="#231815"
   stroke-width="0.5"
   stroke-miterlimit="10"
   width="95.029"
   height="51.948"
   id="rect12" />
	</g>
	<g
   id="g22">
		
			<rect
   x="462.261"
   y="367.13"
   transform="matrix(-0.7071 0.7071 -0.7071 -0.7071 1055.7153 298.9462)"
   fill="#898585"
   stroke="#231815"
   stroke-width="0.5"
   stroke-miterlimit="10"
   width="7.365"
   height="1.978"
   id="rect16" />
		
			<rect
   x="503.162"
   y="408.031"
   transform="matrix(-0.707 0.7072 -0.7072 -0.707 1154.4518 339.7876)"
   fill="#898585"
   stroke="#231815"
   stroke-width="0.5"
   stroke-miterlimit="10"
   width="7.365"
   height="1.979"
   id="rect18" />
		
			<rect
   x="484.526"
   y="356.725"
   transform="matrix(-0.7074 0.7068 -0.7068 -0.7074 1105.0884 319.5825)"
   fill="#B2B2B2"
   stroke="#231815"
   stroke-width="0.5"
   stroke-miterlimit="10"
   width="3.73"
   height="63.636"
   id="rect20" />
	</g>
</g>
</svg>
