<?xml version="1.0" encoding="UTF-8" standalone="no"?>
<svg
   xmlns:dc="http://purl.org/dc/elements/1.1/"
   xmlns:cc="http://creativecommons.org/ns#"
   xmlns:rdf="http://www.w3.org/1999/02/22-rdf-syntax-ns#"
   xmlns:svg="http://www.w3.org/2000/svg"
   xmlns="http://www.w3.org/2000/svg"
   xmlns:sodipodi="http://sodipodi.sourceforge.net/DTD/sodipodi-0.dtd"
   xmlns:inkscape="http://www.inkscape.org/namespaces/inkscape"
   version="1.1"
   id="图层_1"
   x="0px"
   y="0px"
   width="92.168px"
   height="92.136px"
   viewBox="469.672 546.027 92.168 92.136"
   enable-background="new 469.672 546.027 92.168 92.136"
   xml:space="preserve"
   sodipodi:docname="01-22.svg"><metadata
   id="metadata57"><rdf:RDF><cc:Work
       rdf:about=""><dc:format>image/svg+xml</dc:format><dc:type
         rdf:resource="http://purl.org/dc/dcmitype/StillImage" /></cc:Work></rdf:RDF></metadata><defs
   id="defs55" /><sodipodi:namedview
   pagecolor="#ffffff"
   bordercolor="#666666"
   borderopacity="1"
   objecttolerance="10"
   gridtolerance="10"
   guidetolerance="10"
   inkscape:pageopacity="0"
   inkscape:pageshadow="2"
   inkscape:window-width="640"
   inkscape:window-height="480"
   id="namedview53" />
<g
   id="g50">
	<g
   id="g24">
		<g
   id="g14">
			<g
   id="g10">
				<polygon
   fill="#BFBFBF"
   points="531.992,608.327 505.44,600.543 524.211,581.772     "
   id="polygon2" />
				<polygon
   fill="#D9D9D9"
   points="539.772,634.875 505.44,600.543 531.992,608.327     "
   id="polygon4" />
				<polygon
   fill="#CCCCCC"
   points="558.545,616.107 539.775,634.878 539.772,634.875 531.992,608.327 558.542,616.104     "
   id="polygon6" />
				<polygon
   fill="#B2B2B2"
   points="558.542,616.104 531.992,608.327 524.211,581.772     "
   id="polygon8" />
			</g>
			
				<rect
   x="507.487"
   y="594.92"
   transform="matrix(-0.7071 -0.7071 0.7071 -0.7071 478.0222 1414.6355)"
   fill="none"
   stroke="#231815"
   stroke-width="0.5"
   stroke-miterlimit="10"
   width="49.009"
   height="26.792"
   id="rect12" />
		</g>
		<g
   id="g22">
			
				<rect
   x="557.883"
   y="614.47"
   transform="matrix(-0.7071 -0.7071 0.7071 -0.7071 520.7513 1445.6627)"
   fill="#898585"
   stroke="#231815"
   stroke-width="0.5"
   stroke-miterlimit="10"
   width="3.799"
   height="1.021"
   id="rect16" />
			
				<rect
   x="536.756"
   y="635.562"
   transform="matrix(-0.7071 -0.7071 0.7071 -0.7071 469.7697 1466.731)"
   fill="#898585"
   stroke="#231815"
   stroke-width="0.5"
   stroke-miterlimit="10"
   width="3.798"
   height="1.021"
   id="rect18" />
			
				<rect
   x="548.24"
   y="609.116"
   transform="matrix(-0.7071 -0.7071 0.7071 -0.7071 495.2325 1456.1832)"
   fill="#B2B2B2"
   stroke="#231815"
   stroke-width="0.5"
   stroke-miterlimit="10"
   width="1.924"
   height="32.82"
   id="rect20" />
		</g>
	</g>
	<g
   id="g48">
		<g
   id="g38">
			<g
   id="g34">
				<polygon
   fill="#BFBFBF"
   points="496.826,573.19 470.273,565.406 489.043,546.637     "
   id="polygon26" />
				<polygon
   fill="#D9D9D9"
   points="504.605,599.737 470.273,565.406 496.826,573.19     "
   id="polygon28" />
				<polygon
   fill="#CCCCCC"
   points="523.379,580.971 504.608,599.74 504.605,599.737 496.826,573.19 523.375,580.969     "
   id="polygon30" />
				<polygon
   fill="#B2B2B2"
   points="523.375,580.969 496.826,573.19 489.043,546.637     "
   id="polygon32" />
			</g>
			
				<rect
   x="472.321"
   y="559.784"
   transform="matrix(-0.7071 -0.7071 0.7071 -0.7071 442.8446 1329.7894)"
   fill="none"
   stroke="#231815"
   stroke-width="0.5"
   stroke-miterlimit="10"
   width="49.009"
   height="26.792"
   id="rect36" />
		</g>
		<g
   id="g46">
			
				<rect
   x="522.714"
   y="579.333"
   transform="matrix(-0.707 -0.7072 0.7072 -0.707 485.4186 1360.8057)"
   fill="#898585"
   stroke="#231815"
   stroke-width="0.5"
   stroke-miterlimit="10"
   width="3.799"
   height="1.021"
   id="rect40" />
			
				<rect
   x="501.588"
   y="600.426"
   transform="matrix(-0.7071 -0.7071 0.7071 -0.7071 434.5798 1381.8833)"
   fill="#898585"
   stroke="#231815"
   stroke-width="0.5"
   stroke-miterlimit="10"
   width="3.798"
   height="1.022"
   id="rect42" />
			
				<rect
   x="513.073"
   y="573.98"
   transform="matrix(-0.7071 -0.7071 0.7071 -0.7071 460.0434 1371.3359)"
   fill="#B2B2B2"
   stroke="#231815"
   stroke-width="0.5"
   stroke-miterlimit="10"
   width="1.924"
   height="32.82"
   id="rect44" />
		</g>
	</g>
</g>
</svg>
