<?xml version="1.0" encoding="UTF-8" standalone="no"?>
<svg
   xmlns:dc="http://purl.org/dc/elements/1.1/"
   xmlns:cc="http://creativecommons.org/ns#"
   xmlns:rdf="http://www.w3.org/1999/02/22-rdf-syntax-ns#"
   xmlns:svg="http://www.w3.org/2000/svg"
   xmlns="http://www.w3.org/2000/svg"
   xmlns:sodipodi="http://sodipodi.sourceforge.net/DTD/sodipodi-0.dtd"
   xmlns:inkscape="http://www.inkscape.org/namespaces/inkscape"
   version="1.1"
   id="图层_1"
   x="0px"
   y="0px"
   width="92.231px"
   height="92.129px"
   viewBox="576 546.033 92.231 92.129"
   enable-background="new 576 546.033 92.231 92.129"
   xml:space="preserve"
   sodipodi:docname="01-23.svg"><metadata
   id="metadata57"><rdf:RDF><cc:Work
       rdf:about=""><dc:format>image/svg+xml</dc:format><dc:type
         rdf:resource="http://purl.org/dc/dcmitype/StillImage" /></cc:Work></rdf:RDF></metadata><defs
   id="defs55" /><sodipodi:namedview
   pagecolor="#ffffff"
   bordercolor="#666666"
   borderopacity="1"
   objecttolerance="10"
   gridtolerance="10"
   guidetolerance="10"
   inkscape:pageopacity="0"
   inkscape:pageshadow="2"
   inkscape:window-width="640"
   inkscape:window-height="480"
   id="namedview53" />
<g
   id="g50">
	<g
   id="g24">
		<g
   id="g14">
			<g
   id="g10">
				<polygon
   fill="#BFBFBF"
   points="605.902,608.327 632.454,600.543 613.685,581.772     "
   id="polygon2" />
				<polygon
   fill="#D9D9D9"
   points="598.122,634.875 632.454,600.543 605.902,608.327     "
   id="polygon4" />
				<polygon
   fill="#CCCCCC"
   points="579.35,616.107 598.119,634.878 598.122,634.875 605.902,608.327 579.353,616.104     "
   id="polygon6" />
				<polygon
   fill="#B2B2B2"
   points="579.353,616.104 605.902,608.327 613.685,581.772     "
   id="polygon8" />
			</g>
			
				<rect
   x="581.407"
   y="594.928"
   transform="matrix(0.7071 -0.7071 0.7071 0.7071 -252.6824 606.6185)"
   fill="none"
   stroke="#231815"
   stroke-width="0.5"
   stroke-miterlimit="10"
   width="49.01"
   height="26.791"
   id="rect12" />
		</g>
		<g
   id="g22">
			
				<rect
   x="576.256"
   y="614.443"
   transform="matrix(0.707 -0.7072 0.7072 0.707 -265.5042 589.0867)"
   fill="#898585"
   stroke="#231815"
   stroke-width="0.5"
   stroke-miterlimit="10"
   width="3.799"
   height="1.021"
   id="rect16" />
			
				<rect
   x="597.35"
   y="635.571"
   transform="matrix(0.7071 -0.7071 0.7071 0.7071 -274.2614 610.0369)"
   fill="#898585"
   stroke="#231815"
   stroke-width="0.5"
   stroke-miterlimit="10"
   width="3.798"
   height="1.021"
   id="rect18" />
			
				<rect
   x="587.68"
   y="609.116"
   transform="matrix(0.7069 -0.7074 0.7074 0.7069 -269.915 599.7535)"
   fill="#B2B2B2"
   stroke="#231815"
   stroke-width="0.5"
   stroke-miterlimit="10"
   width="1.923"
   height="32.822"
   id="rect20" />
		</g>
	</g>
	<g
   id="g48">
		<g
   id="g38">
			<g
   id="g34">
				<polygon
   fill="#BFBFBF"
   points="641.068,573.19 667.621,565.406 648.852,546.637     "
   id="polygon26" />
				<polygon
   fill="#D9D9D9"
   points="633.289,599.737 667.621,565.406 641.068,573.19     "
   id="polygon28" />
				<polygon
   fill="#CCCCCC"
   points="614.516,580.971 633.286,599.74 633.289,599.737 641.068,573.19 614.521,580.969     "
   id="polygon30" />
				<polygon
   fill="#B2B2B2"
   points="614.521,580.969 641.068,573.19 648.852,546.637     "
   id="polygon32" />
			</g>
			
				<rect
   x="616.574"
   y="559.791"
   transform="matrix(0.7071 -0.7071 0.7071 0.7071 -217.5363 621.1934)"
   fill="none"
   stroke="#231815"
   stroke-width="0.5"
   stroke-miterlimit="10"
   width="49.009"
   height="26.791"
   id="rect36" />
		</g>
		<g
   id="g46">
			
				<rect
   x="611.422"
   y="579.339"
   transform="matrix(0.7071 -0.7071 0.7071 0.7071 -230.3777 603.5176)"
   fill="#898585"
   stroke="#231815"
   stroke-width="0.5"
   stroke-miterlimit="10"
   width="3.799"
   height="1.021"
   id="rect40" />
			
				<rect
   x="632.517"
   y="600.433"
   transform="matrix(0.7071 -0.7071 0.7071 0.7071 -239.1153 624.6118)"
   fill="#898585"
   stroke="#231815"
   stroke-width="0.5"
   stroke-miterlimit="10"
   width="3.798"
   height="1.021"
   id="rect42" />
			
				<rect
   x="622.907"
   y="573.987"
   transform="matrix(0.7071 -0.7071 0.7071 0.7071 -234.7466 614.0649)"
   fill="#B2B2B2"
   stroke="#231815"
   stroke-width="0.5"
   stroke-miterlimit="10"
   width="1.924"
   height="32.82"
   id="rect44" />
		</g>
	</g>
</g>
</svg>
