<?xml version="1.0" encoding="UTF-8" standalone="no"?>
<svg
   xmlns:dc="http://purl.org/dc/elements/1.1/"
   xmlns:cc="http://creativecommons.org/ns#"
   xmlns:rdf="http://www.w3.org/1999/02/22-rdf-syntax-ns#"
   xmlns:svg="http://www.w3.org/2000/svg"
   xmlns="http://www.w3.org/2000/svg"
   xmlns:sodipodi="http://sodipodi.sourceforge.net/DTD/sodipodi-0.dtd"
   xmlns:inkscape="http://www.inkscape.org/namespaces/inkscape"
   version="1.1"
   id="图层_1"
   x="0px"
   y="0px"
   width="77.212px"
   height="77.189px"
   viewBox="137.67 693.881 77.212 77.189"
   enable-background="new 137.67 693.881 77.212 77.189"
   xml:space="preserve"
   sodipodi:docname="01-25.svg"><metadata
   id="metadata85"><rdf:RDF><cc:Work
       rdf:about=""><dc:format>image/svg+xml</dc:format><dc:type
         rdf:resource="http://purl.org/dc/dcmitype/StillImage" /></cc:Work></rdf:RDF></metadata><defs
   id="defs83" /><sodipodi:namedview
   pagecolor="#ffffff"
   bordercolor="#666666"
   borderopacity="1"
   objecttolerance="10"
   gridtolerance="10"
   guidetolerance="10"
   inkscape:pageopacity="0"
   inkscape:pageshadow="2"
   inkscape:window-width="640"
   inkscape:window-height="480"
   id="namedview81" />
<g
   id="g78">
	<g
   id="g38">
		<g
   id="g18">
			<polygon
   fill="#B2B2B2"
   points="200.552,756.772 188.006,753.095 196.875,744.227    "
   id="polygon2" />
			<polygon
   fill="#BFBFBF"
   points="204.228,769.315 188.006,753.095 200.552,756.772    "
   id="polygon4" />
			<polygon
   fill="#D9D9D9"
   points="213.098,760.448 204.229,769.317 204.228,769.315 200.552,756.772 213.096,760.446    "
   id="polygon6" />
			<polygon
   fill="#CCCCCC"
   points="213.096,760.446 200.552,756.772 196.875,744.227    "
   id="polygon8" />
			
				<rect
   x="188.996"
   y="750.447"
   transform="matrix(-0.7071 -0.7071 0.7071 -0.7071 -192.7101 1433.7317)"
   fill="none"
   stroke="#231815"
   stroke-width="0.5"
   stroke-miterlimit="10"
   width="23.157"
   height="12.659"
   id="rect10" />
			
				<rect
   x="212.772"
   y="759.671"
   transform="matrix(-0.7071 -0.7071 0.7071 -0.7071 -172.5839 1448.3381)"
   fill="#898585"
   stroke="#231815"
   stroke-width="0.5"
   stroke-miterlimit="10"
   width="1.794"
   height="0.483"
   id="rect12" />
			
				<rect
   x="202.832"
   y="769.653"
   transform="matrix(-0.7075 -0.7067 0.7067 -0.7075 -196.213 1458.5818)"
   fill="#898585"
   stroke="#231815"
   stroke-width="0.5"
   stroke-miterlimit="10"
   width="1.795"
   height="0.483"
   id="rect14" />
			
				<rect
   x="208.269"
   y="757.165"
   transform="matrix(-0.7066 -0.7076 0.7076 -0.7066 -185.0898 1453.0852)"
   fill="#B2B2B2"
   stroke="#231815"
   stroke-width="0.5"
   stroke-miterlimit="10"
   width="0.908"
   height="15.505"
   id="rect16" />
		</g>
		<g
   id="g36">
			<polygon
   fill="#B2B2B2"
   points="183.895,740.115 171.349,736.437 180.217,727.568    "
   id="polygon20" />
			<polygon
   fill="#BFBFBF"
   points="187.569,752.657 171.349,736.437 183.895,740.115    "
   id="polygon22" />
			<polygon
   fill="#D9D9D9"
   points="196.439,743.79 187.571,752.659 187.569,752.657 183.895,740.115 196.438,743.789    "
   id="polygon24" />
			<polygon
   fill="#CCCCCC"
   points="196.438,743.789 183.895,740.115 180.217,727.568    "
   id="polygon26" />
			
				<rect
   x="172.3"
   y="733.765"
   transform="matrix(-0.7071 -0.7071 0.7071 -0.7071 -209.418 1393.447)"
   fill="none"
   stroke="#231815"
   stroke-width="0.5"
   stroke-miterlimit="10"
   width="23.155"
   height="12.659"
   id="rect28" />
			
				<rect
   x="196.114"
   y="743.014"
   transform="matrix(-0.7072 -0.707 0.707 -0.7072 -189.1136 1408.1981)"
   fill="#898585"
   stroke="#231815"
   stroke-width="0.5"
   stroke-miterlimit="10"
   width="1.794"
   height="0.483"
   id="rect30" />
			
				<rect
   x="186.148"
   y="752.98"
   transform="matrix(-0.7071 -0.7071 0.7071 -0.7071 -213.3031 1418.0908)"
   fill="#898585"
   stroke="#231815"
   stroke-width="0.5"
   stroke-miterlimit="10"
   width="1.794"
   height="0.483"
   id="rect32" />
			
				<rect
   x="191.608"
   y="740.506"
   transform="matrix(-0.7066 -0.7076 0.7076 -0.7066 -201.7322 1412.868)"
   fill="#B2B2B2"
   stroke="#231815"
   stroke-width="0.5"
   stroke-miterlimit="10"
   width="0.909"
   height="15.507"
   id="rect34" />
		</g>
	</g>
	<g
   id="g76">
		<g
   id="g56">
			<polygon
   fill="#B2B2B2"
   points="167.341,723.562 154.795,719.885 163.664,711.015    "
   id="polygon40" />
			<polygon
   fill="#BFBFBF"
   points="171.017,736.104 154.795,719.885 167.341,723.562    "
   id="polygon42" />
			<polygon
   fill="#D9D9D9"
   points="179.886,727.236 171.018,736.105 171.017,736.104 167.341,723.562 179.884,727.236    "
   id="polygon44" />
			<polygon
   fill="#CCCCCC"
   points="179.884,727.236 167.341,723.562 163.664,711.015    "
   id="polygon46" />
			
				<rect
   x="155.785"
   y="717.236"
   transform="matrix(-0.7071 -0.7071 0.7071 -0.7071 -225.9415 1353.5403)"
   fill="none"
   stroke="#231815"
   stroke-width="0.5"
   stroke-miterlimit="10"
   width="23.156"
   height="12.657"
   id="rect48" />
			
				<rect
   x="179.535"
   y="726.446"
   transform="matrix(-0.7066 -0.7077 0.7077 -0.7066 -206.3198 1367.8201)"
   fill="#898585"
   stroke="#231815"
   stroke-width="0.5"
   stroke-miterlimit="10"
   width="1.795"
   height="0.481"
   id="rect50" />
			
				<rect
   x="169.595"
   y="736.427"
   transform="matrix(-0.7071 -0.7071 0.7071 -0.7071 -229.8548 1378.1265)"
   fill="#898585"
   stroke="#231815"
   stroke-width="0.5"
   stroke-miterlimit="10"
   width="1.794"
   height="0.482"
   id="rect52" />
			
				<rect
   x="174.997"
   y="723.919"
   transform="matrix(-0.706 -0.7082 0.7082 -0.706 -218.8307 1372.5077)"
   fill="#B2B2B2"
   stroke="#231815"
   stroke-width="0.5"
   stroke-miterlimit="10"
   width="0.909"
   height="15.507"
   id="rect54" />
		</g>
		<g
   id="g74">
			<polygon
   fill="#B2B2B2"
   points="150.683,706.904 138.137,703.226 147.006,694.357    "
   id="polygon58" />
			<polygon
   fill="#BFBFBF"
   points="154.358,719.446 138.137,703.226 150.683,706.904    "
   id="polygon60" />
			<polygon
   fill="#D9D9D9"
   points="163.229,710.58 154.359,719.448 154.358,719.446 150.683,706.904 163.227,710.578    "
   id="polygon62" />
			<polygon
   fill="#CCCCCC"
   points="163.227,710.578 150.683,706.904 147.006,694.357    "
   id="polygon64" />
			
				<rect
   x="139.108"
   y="700.567"
   transform="matrix(-0.7071 -0.7071 0.7071 -0.7071 -242.623 1313.2926)"
   fill="none"
   stroke="#231815"
   stroke-width="0.5"
   stroke-miterlimit="10"
   width="23.156"
   height="12.658"
   id="rect66" />
			
				<rect
   x="162.928"
   y="709.818"
   transform="matrix(-0.7074 -0.7068 0.7068 -0.7074 -222.1828 1328.1385)"
   fill="#898585"
   stroke="#231815"
   stroke-width="0.5"
   stroke-miterlimit="10"
   width="1.795"
   height="0.483"
   id="rect68" />
			
				<rect
   x="152.912"
   y="719.755"
   transform="matrix(-0.7068 -0.7074 0.7074 -0.7068 -246.7825 1337.7164)"
   fill="#898585"
   stroke="#231815"
   stroke-width="0.5"
   stroke-miterlimit="10"
   width="1.796"
   height="0.483"
   id="rect70" />
			
				<rect
   x="158.395"
   y="707.295"
   transform="matrix(-0.7066 -0.7076 0.7076 -0.7066 -234.9132 1332.6873)"
   fill="#B2B2B2"
   stroke="#231815"
   stroke-width="0.5"
   stroke-miterlimit="10"
   width="0.908"
   height="15.506"
   id="rect72" />
		</g>
	</g>
</g>
</svg>
