<?xml version="1.0" encoding="UTF-8" standalone="no"?>
<svg
   xmlns:dc="http://purl.org/dc/elements/1.1/"
   xmlns:cc="http://creativecommons.org/ns#"
   xmlns:rdf="http://www.w3.org/1999/02/22-rdf-syntax-ns#"
   xmlns:svg="http://www.w3.org/2000/svg"
   xmlns="http://www.w3.org/2000/svg"
   xmlns:sodipodi="http://sodipodi.sourceforge.net/DTD/sodipodi-0.dtd"
   xmlns:inkscape="http://www.inkscape.org/namespaces/inkscape"
   version="1.1"
   id="图层_1"
   x="0px"
   y="0px"
   width="77.173px"
   height="77.173px"
   viewBox="234.164 693.89 77.173 77.173"
   enable-background="new 234.164 693.89 77.173 77.173"
   xml:space="preserve"
   sodipodi:docname="01-26.svg"><metadata
   id="metadata85"><rdf:RDF><cc:Work
       rdf:about=""><dc:format>image/svg+xml</dc:format><dc:type
         rdf:resource="http://purl.org/dc/dcmitype/StillImage" /></cc:Work></rdf:RDF></metadata><defs
   id="defs83" /><sodipodi:namedview
   pagecolor="#ffffff"
   bordercolor="#666666"
   borderopacity="1"
   objecttolerance="10"
   gridtolerance="10"
   guidetolerance="10"
   inkscape:pageopacity="0"
   inkscape:pageshadow="2"
   inkscape:window-width="640"
   inkscape:window-height="480"
   id="namedview81" />
<g
   id="g78">
	<g
   id="g38">
		<g
   id="g18">
			<polygon
   fill="#B2B2B2"
   points="248.445,756.772 260.99,753.095 252.122,744.227    "
   id="polygon2" />
			<polygon
   fill="#BFBFBF"
   points="244.77,769.315 260.99,753.095 248.445,756.772    "
   id="polygon4" />
			<polygon
   fill="#D9D9D9"
   points="235.899,760.448 244.768,769.317 244.77,769.315 248.445,756.772 235.9,760.446    "
   id="polygon6" />
			<polygon
   fill="#CCCCCC"
   points="235.9,760.446 248.445,756.772 252.122,744.227    "
   id="polygon8" />
			
				<rect
   x="236.885"
   y="750.425"
   transform="matrix(0.7071 -0.7071 0.7071 0.7071 -462.327 397.3277)"
   fill="none"
   stroke="#231815"
   stroke-width="0.5"
   stroke-miterlimit="10"
   width="23.157"
   height="12.657"
   id="rect10" />
			
				<rect
   x="234.455"
   y="759.653"
   transform="matrix(0.7075 -0.7067 0.7067 0.7075 -468.1796 388.5811)"
   fill="#898585"
   stroke="#231815"
   stroke-width="0.5"
   stroke-miterlimit="10"
   width="1.795"
   height="0.483"
   id="rect12" />
			
				<rect
   x="244.422"
   y="769.618"
   transform="matrix(0.7071 -0.7071 0.7071 0.7071 -472.5209 398.9538)"
   fill="#898585"
   stroke="#231815"
   stroke-width="0.5"
   stroke-miterlimit="10"
   width="1.795"
   height="0.483"
   id="rect14" />
			
				<rect
   x="239.867"
   y="757.153"
   transform="matrix(0.7071 -0.7071 0.7071 0.7071 -470.4818 393.9684)"
   fill="#B2B2B2"
   stroke="#231815"
   stroke-width="0.5"
   stroke-miterlimit="10"
   width="0.909"
   height="15.507"
   id="rect16" />
		</g>
		<g
   id="g36">
			<polygon
   fill="#B2B2B2"
   points="265.103,740.115 277.648,736.437 268.779,727.568    "
   id="polygon20" />
			<polygon
   fill="#BFBFBF"
   points="261.427,752.657 277.648,736.437 265.103,740.115    "
   id="polygon22" />
			<polygon
   fill="#D9D9D9"
   points="252.557,743.79 261.426,752.659 261.427,752.657 265.103,740.115 252.559,743.789    "
   id="polygon24" />
			<polygon
   fill="#CCCCCC"
   points="252.559,743.789 265.103,740.115 268.779,727.568    "
   id="polygon26" />
			
				<rect
   x="253.533"
   y="733.788"
   transform="matrix(0.7071 -0.7071 0.7071 0.7071 -445.6923 404.2366)"
   fill="none"
   stroke="#231815"
   stroke-width="0.5"
   stroke-miterlimit="10"
   width="23.155"
   height="12.658"
   id="rect28" />
			
				<rect
   x="251.084"
   y="743.052"
   transform="matrix(0.7066 -0.7077 0.7077 0.7066 -452.0505 396.4252)"
   fill="#898585"
   stroke="#231815"
   stroke-width="0.5"
   stroke-miterlimit="10"
   width="1.795"
   height="0.482"
   id="rect30" />
			
				<rect
   x="261.078"
   y="752.961"
   transform="matrix(0.7072 -0.707 0.707 0.7072 -455.7968 405.7148)"
   fill="#898585"
   stroke="#231815"
   stroke-width="0.5"
   stroke-miterlimit="10"
   width="1.796"
   height="0.482"
   id="rect32" />
			
				<rect
   x="256.511"
   y="740.52"
   transform="matrix(0.706 -0.7082 0.7082 0.706 -454.3723 401.947)"
   fill="#B2B2B2"
   stroke="#231815"
   stroke-width="0.5"
   stroke-miterlimit="10"
   width="0.909"
   height="15.506"
   id="rect34" />
		</g>
	</g>
	<g
   id="g76">
		<g
   id="g56">
			<polygon
   fill="#B2B2B2"
   points="281.656,723.562 294.202,719.885 285.332,711.015    "
   id="polygon40" />
			<polygon
   fill="#BFBFBF"
   points="277.979,736.104 294.202,719.885 281.656,723.562    "
   id="polygon42" />
			<polygon
   fill="#D9D9D9"
   points="269.11,727.236 277.979,736.105 277.979,736.104 281.656,723.562 269.112,727.236    "
   id="polygon44" />
			<polygon
   fill="#CCCCCC"
   points="269.112,727.236 281.656,723.562 285.332,711.015    "
   id="polygon46" />
			
				<rect
   x="270.086"
   y="717.234"
   transform="matrix(0.7071 -0.7071 0.7071 0.7071 -429.1429 411.1038)"
   fill="none"
   stroke="#231815"
   stroke-width="0.5"
   stroke-miterlimit="10"
   width="23.156"
   height="12.657"
   id="rect48" />
			
				<rect
   x="267.639"
   y="726.498"
   transform="matrix(0.7068 -0.7074 0.7074 0.7068 -435.3546 403.0117)"
   fill="#898585"
   stroke="#231815"
   stroke-width="0.5"
   stroke-miterlimit="10"
   width="1.795"
   height="0.482"
   id="rect50" />
			
				<rect
   x="277.619"
   y="736.437"
   transform="matrix(0.7071 -0.7071 0.7071 0.7071 -439.3344 412.7081)"
   fill="#898585"
   stroke="#231815"
   stroke-width="0.5"
   stroke-miterlimit="10"
   width="1.794"
   height="0.482"
   id="rect52" />
			
				<rect
   x="273.065"
   y="723.966"
   transform="matrix(0.706 -0.7082 0.7082 0.706 -437.7834 408.8036)"
   fill="#B2B2B2"
   stroke="#231815"
   stroke-width="0.5"
   stroke-miterlimit="10"
   width="0.909"
   height="15.507"
   id="rect54" />
		</g>
		<g
   id="g74">
			<polygon
   fill="#B2B2B2"
   points="298.313,706.904 310.859,703.226 301.991,694.357    "
   id="polygon58" />
			<polygon
   fill="#BFBFBF"
   points="294.638,719.446 310.859,703.226 298.313,706.904    "
   id="polygon60" />
			<polygon
   fill="#D9D9D9"
   points="285.769,710.58 294.637,719.448 294.638,719.446 298.313,706.904 285.77,710.578    "
   id="polygon62" />
			<polygon
   fill="#CCCCCC"
   points="285.77,710.578 298.313,706.904 301.991,694.357    "
   id="polygon64" />
			
				<rect
   x="286.743"
   y="700.576"
   transform="matrix(0.7071 -0.7071 0.7071 0.7071 -412.4814 417.9929)"
   fill="none"
   stroke="#231815"
   stroke-width="0.5"
   stroke-miterlimit="10"
   width="23.156"
   height="12.658"
   id="rect66" />
			
				<rect
   x="284.32"
   y="709.783"
   transform="matrix(0.7072 -0.707 0.707 0.7072 -418.4667 409.5057)"
   fill="#898585"
   stroke="#231815"
   stroke-width="0.5"
   stroke-miterlimit="10"
   width="1.796"
   height="0.483"
   id="rect68" />
			
				<rect
   x="294.222"
   y="719.764"
   transform="matrix(0.7066 -0.7077 0.7077 0.7066 -422.9131 420.1184)"
   fill="#898585"
   stroke="#231815"
   stroke-width="0.5"
   stroke-miterlimit="10"
   width="1.795"
   height="0.483"
   id="rect70" />
			
				<rect
   x="289.752"
   y="707.246"
   transform="matrix(0.7066 -0.7076 0.7076 0.7066 -420.8093 415.1656)"
   fill="#B2B2B2"
   stroke="#231815"
   stroke-width="0.5"
   stroke-miterlimit="10"
   width="0.908"
   height="15.506"
   id="rect72" />
		</g>
	</g>
</g>
</svg>
