<?xml version="1.0" encoding="UTF-8" standalone="no"?>
<svg
   xmlns:dc="http://purl.org/dc/elements/1.1/"
   xmlns:cc="http://creativecommons.org/ns#"
   xmlns:rdf="http://www.w3.org/1999/02/22-rdf-syntax-ns#"
   xmlns:svg="http://www.w3.org/2000/svg"
   xmlns="http://www.w3.org/2000/svg"
   xmlns:sodipodi="http://sodipodi.sourceforge.net/DTD/sodipodi-0.dtd"
   xmlns:inkscape="http://www.inkscape.org/namespaces/inkscape"
   version="1.1"
   id="图层_1"
   x="0px"
   y="0px"
   width="94.749px"
   height="16.006px"
   viewBox="328.806 724.47 94.749 16.006"
   enable-background="new 328.806 724.47 94.749 16.006"
   xml:space="preserve"
   sodipodi:docname="01-27.svg"><metadata
   id="metadata85"><rdf:RDF><cc:Work
       rdf:about=""><dc:format>image/svg+xml</dc:format><dc:type
         rdf:resource="http://purl.org/dc/dcmitype/StillImage" /></cc:Work></rdf:RDF></metadata><defs
   id="defs83" /><sodipodi:namedview
   pagecolor="#ffffff"
   bordercolor="#666666"
   borderopacity="1"
   objecttolerance="10"
   gridtolerance="10"
   guidetolerance="10"
   inkscape:pageopacity="0"
   inkscape:pageshadow="2"
   inkscape:window-width="640"
   inkscape:window-height="480"
   id="namedview81" />
<g
   id="g78">
	<g
   id="g38">
		<g
   id="g18">
			<polygon
   fill="#B2B2B2"
   points="411.16,732.474 399.689,738.743 399.689,726.202    "
   id="polygon2" />
			<polygon
   fill="#BFBFBF"
   points="422.629,738.743 399.689,738.743 411.16,732.474    "
   id="polygon4" />
			<polygon
   fill="#D9D9D9"
   points="422.631,726.202 422.631,738.743 422.629,738.743 411.16,732.474 422.629,726.202    "
   id="polygon6" />
			<polygon
   fill="#CCCCCC"
   points="422.629,726.202 411.16,732.474 399.689,726.202    "
   id="polygon8" />
			
				<rect
   x="399.58"
   y="726.144"
   fill="none"
   stroke="#231815"
   stroke-width="0.5"
   stroke-miterlimit="10"
   width="23.156"
   height="12.658"
   id="rect10" />
			
				<rect
   x="421.762"
   y="725.182"
   fill="#898585"
   stroke="#231815"
   stroke-width="0.5"
   stroke-miterlimit="10"
   width="1.793"
   height="0.483"
   id="rect12" />
			
				<rect
   x="421.762"
   y="739.278"
   fill="#898585"
   stroke="#231815"
   stroke-width="0.5"
   stroke-miterlimit="10"
   width="1.793"
   height="0.484"
   id="rect14" />
			
				<rect
   x="422.205"
   y="724.72"
   fill="#B2B2B2"
   stroke="#231815"
   stroke-width="0.5"
   stroke-miterlimit="10"
   width="0.908"
   height="15.506"
   id="rect16" />
		</g>
		<g
   id="g36">
			<polygon
   fill="#B2B2B2"
   points="387.604,732.474 376.131,738.743 376.131,726.202    "
   id="polygon20" />
			<polygon
   fill="#BFBFBF"
   points="399.072,738.743 376.131,738.743 387.604,732.474    "
   id="polygon22" />
			<polygon
   fill="#D9D9D9"
   points="399.074,726.202 399.074,738.743 399.072,738.743 387.604,732.474 399.072,726.202    "
   id="polygon24" />
			<polygon
   fill="#CCCCCC"
   points="399.072,726.202 387.604,732.474 376.131,726.202    "
   id="polygon26" />
			
				<rect
   x="376.023"
   y="726.144"
   fill="none"
   stroke="#231815"
   stroke-width="0.5"
   stroke-miterlimit="10"
   width="23.153"
   height="12.658"
   id="rect28" />
			
				<rect
   x="398.203"
   y="725.183"
   fill="#898585"
   stroke="#231815"
   stroke-width="0.5"
   stroke-miterlimit="10"
   width="1.795"
   height="0.484"
   id="rect30" />
			
				<rect
   x="398.203"
   y="739.278"
   fill="#898585"
   stroke="#231815"
   stroke-width="0.5"
   stroke-miterlimit="10"
   width="1.795"
   height="0.484"
   id="rect32" />
			
				<rect
   x="398.646"
   y="724.72"
   fill="#B2B2B2"
   stroke="#231815"
   stroke-width="0.5"
   stroke-miterlimit="10"
   width="0.908"
   height="15.506"
   id="rect34" />
		</g>
	</g>
	<g
   id="g76">
		<g
   id="g56">
			<polygon
   fill="#B2B2B2"
   points="364.193,732.474 352.721,738.743 352.723,726.202    "
   id="polygon40" />
			<polygon
   fill="#BFBFBF"
   points="375.662,738.743 352.721,738.743 364.193,732.474    "
   id="polygon42" />
			<polygon
   fill="#D9D9D9"
   points="375.664,726.202 375.664,738.743 375.662,738.743 364.193,732.474 375.662,726.202    "
   id="polygon44" />
			<polygon
   fill="#CCCCCC"
   points="375.662,726.202 364.193,732.474 352.723,726.202    "
   id="polygon46" />
			
				<rect
   x="352.613"
   y="726.144"
   fill="none"
   stroke="#231815"
   stroke-width="0.5"
   stroke-miterlimit="10"
   width="23.155"
   height="12.658"
   id="rect48" />
			
				<rect
   x="374.795"
   y="725.184"
   fill="#898585"
   stroke="#231815"
   stroke-width="0.5"
   stroke-miterlimit="10"
   width="1.793"
   height="0.481"
   id="rect50" />
			
				<rect
   x="374.795"
   y="739.278"
   fill="#898585"
   stroke="#231815"
   stroke-width="0.5"
   stroke-miterlimit="10"
   width="1.793"
   height="0.482"
   id="rect52" />
			
				<rect
   x="375.236"
   y="724.72"
   fill="#B2B2B2"
   stroke="#231815"
   stroke-width="0.5"
   stroke-miterlimit="10"
   width="0.907"
   height="15.506"
   id="rect54" />
		</g>
		<g
   id="g74">
			<polygon
   fill="#B2B2B2"
   points="340.637,732.474 329.164,738.743 329.164,726.202    "
   id="polygon58" />
			<polygon
   fill="#BFBFBF"
   points="352.104,738.743 329.164,738.743 340.637,732.474    "
   id="polygon60" />
			<polygon
   fill="#D9D9D9"
   points="352.105,726.202 352.105,738.743 352.104,738.743 340.637,732.474 352.104,726.202    "
   id="polygon62" />
			<polygon
   fill="#CCCCCC"
   points="352.104,726.202 340.637,732.474 329.164,726.202    "
   id="polygon64" />
			
				<rect
   x="329.056"
   y="726.144"
   fill="none"
   stroke="#231815"
   stroke-width="0.5"
   stroke-miterlimit="10"
   width="23.158"
   height="12.658"
   id="rect66" />
			
				<rect
   x="351.236"
   y="725.183"
   fill="#898585"
   stroke="#231815"
   stroke-width="0.5"
   stroke-miterlimit="10"
   width="1.795"
   height="0.481"
   id="rect68" />
			
				<rect
   x="351.236"
   y="739.278"
   fill="#898585"
   stroke="#231815"
   stroke-width="0.5"
   stroke-miterlimit="10"
   width="1.795"
   height="0.482"
   id="rect70" />
			
				<rect
   x="351.679"
   y="724.72"
   fill="#B2B2B2"
   stroke="#231815"
   stroke-width="0.5"
   stroke-miterlimit="10"
   width="0.908"
   height="15.506"
   id="rect72" />
		</g>
	</g>
</g>
</svg>
