<?xml version="1.0" encoding="UTF-8" standalone="no"?>
<svg
   xmlns:dc="http://purl.org/dc/elements/1.1/"
   xmlns:cc="http://creativecommons.org/ns#"
   xmlns:rdf="http://www.w3.org/1999/02/22-rdf-syntax-ns#"
   xmlns:svg="http://www.w3.org/2000/svg"
   xmlns="http://www.w3.org/2000/svg"
   xmlns:sodipodi="http://sodipodi.sourceforge.net/DTD/sodipodi-0.dtd"
   xmlns:inkscape="http://www.inkscape.org/namespaces/inkscape"
   version="1.1"
   id="图层_1"
   x="0px"
   y="0px"
   width="16.007px"
   height="94.75px"
   viewBox="446.889 684.973 16.007 94.75"
   enable-background="new 446.889 684.973 16.007 94.75"
   xml:space="preserve"
   sodipodi:docname="01-28.svg"><metadata
   id="metadata85"><rdf:RDF><cc:Work
       rdf:about=""><dc:format>image/svg+xml</dc:format><dc:type
         rdf:resource="http://purl.org/dc/dcmitype/StillImage" /></cc:Work></rdf:RDF></metadata><defs
   id="defs83" /><sodipodi:namedview
   pagecolor="#ffffff"
   bordercolor="#666666"
   borderopacity="1"
   objecttolerance="10"
   gridtolerance="10"
   guidetolerance="10"
   inkscape:pageopacity="0"
   inkscape:pageshadow="2"
   inkscape:window-width="640"
   inkscape:window-height="480"
   id="namedview81" />
<g
   id="g78">
	<g
   id="g38">
		<g
   id="g18">
			<polygon
   fill="#B2B2B2"
   points="454.892,767.328 448.621,755.856 461.163,755.856    "
   id="polygon2" />
			<polygon
   fill="#BFBFBF"
   points="448.621,778.798 448.621,755.856 454.892,767.328    "
   id="polygon4" />
			<polygon
   fill="#D9D9D9"
   points="461.163,778.799 448.621,778.8 448.621,778.798 454.892,767.328 461.163,778.798    "
   id="polygon6" />
			<polygon
   fill="#CCCCCC"
   points="461.163,778.798 454.892,767.328 461.163,755.856    "
   id="polygon8" />
			
				<rect
   x="448.563"
   y="755.748"
   fill="none"
   stroke="#231815"
   stroke-width="0.5"
   stroke-miterlimit="10"
   width="12.657"
   height="23.156"
   id="rect10" />
			
				<rect
   x="461.699"
   y="777.929"
   fill="#898585"
   stroke="#231815"
   stroke-width="0.5"
   stroke-miterlimit="10"
   width="0.482"
   height="1.794"
   id="rect12" />
			
				<rect
   x="447.604"
   y="777.929"
   fill="#898585"
   stroke="#231815"
   stroke-width="0.5"
   stroke-miterlimit="10"
   width="0.481"
   height="1.794"
   id="rect14" />
			
				<rect
   x="447.139"
   y="778.371"
   fill="#B2B2B2"
   stroke="#231815"
   stroke-width="0.5"
   stroke-miterlimit="10"
   width="15.507"
   height="0.909"
   id="rect16" />
		</g>
		<g
   id="g36">
			<polygon
   fill="#B2B2B2"
   points="454.892,743.771 448.621,732.3 461.163,732.3    "
   id="polygon20" />
			<polygon
   fill="#BFBFBF"
   points="448.621,755.238 448.621,732.3 454.892,743.771    "
   id="polygon22" />
			<polygon
   fill="#D9D9D9"
   points="461.163,755.241 448.621,755.241 448.621,755.238 454.892,743.771 461.163,755.238    "
   id="polygon24" />
			<polygon
   fill="#CCCCCC"
   points="461.163,755.238 454.892,743.771 461.163,732.3    "
   id="polygon26" />
			
				<rect
   x="448.563"
   y="732.19"
   fill="none"
   stroke="#231815"
   stroke-width="0.5"
   stroke-miterlimit="10"
   width="12.657"
   height="23.155"
   id="rect28" />
			
				<rect
   x="461.698"
   y="754.371"
   fill="#898585"
   stroke="#231815"
   stroke-width="0.5"
   stroke-miterlimit="10"
   width="0.482"
   height="1.795"
   id="rect30" />
			
				<rect
   x="447.604"
   y="754.371"
   fill="#898585"
   stroke="#231815"
   stroke-width="0.5"
   stroke-miterlimit="10"
   width="0.481"
   height="1.795"
   id="rect32" />
			
				<rect
   x="447.139"
   y="754.813"
   fill="#B2B2B2"
   stroke="#231815"
   stroke-width="0.5"
   stroke-miterlimit="10"
   width="15.507"
   height="0.909"
   id="rect34" />
		</g>
	</g>
	<g
   id="g76">
		<g
   id="g56">
			<polygon
   fill="#B2B2B2"
   points="454.892,720.36 448.621,708.889 461.163,708.89    "
   id="polygon40" />
			<polygon
   fill="#BFBFBF"
   points="448.622,731.829 448.621,708.889 454.892,720.36    "
   id="polygon42" />
			<polygon
   fill="#D9D9D9"
   points="461.163,731.831 448.621,731.831 448.622,731.829 454.892,720.36 461.163,731.829    "
   id="polygon44" />
			<polygon
   fill="#CCCCCC"
   points="461.163,731.829 454.892,720.36 461.163,708.89    "
   id="polygon46" />
			
				<rect
   x="448.563"
   y="708.78"
   fill="none"
   stroke="#231815"
   stroke-width="0.5"
   stroke-miterlimit="10"
   width="12.657"
   height="23.156"
   id="rect48" />
			
				<rect
   x="461.699"
   y="730.962"
   fill="#898585"
   stroke="#231815"
   stroke-width="0.5"
   stroke-miterlimit="10"
   width="0.481"
   height="1.794"
   id="rect50" />
			
				<rect
   x="447.604"
   y="730.962"
   fill="#898585"
   stroke="#231815"
   stroke-width="0.5"
   stroke-miterlimit="10"
   width="0.481"
   height="1.794"
   id="rect52" />
			
				<rect
   x="447.139"
   y="731.404"
   fill="#B2B2B2"
   stroke="#231815"
   stroke-width="0.5"
   stroke-miterlimit="10"
   width="15.507"
   height="0.908"
   id="rect54" />
		</g>
		<g
   id="g74">
			<polygon
   fill="#B2B2B2"
   points="454.892,696.804 448.621,685.331 461.163,685.331    "
   id="polygon58" />
			<polygon
   fill="#BFBFBF"
   points="448.622,708.271 448.621,685.331 454.892,696.804    "
   id="polygon60" />
			<polygon
   fill="#D9D9D9"
   points="461.163,708.273 448.621,708.273 448.622,708.271 454.892,696.804 461.163,708.271    "
   id="polygon62" />
			<polygon
   fill="#CCCCCC"
   points="461.163,708.271 454.892,696.804 461.163,685.331    "
   id="polygon64" />
			
				<rect
   x="448.563"
   y="685.223"
   fill="none"
   stroke="#231815"
   stroke-width="0.5"
   stroke-miterlimit="10"
   width="12.657"
   height="23.156"
   id="rect66" />
			
				<rect
   x="461.699"
   y="707.403"
   fill="#898585"
   stroke="#231815"
   stroke-width="0.5"
   stroke-miterlimit="10"
   width="0.481"
   height="1.795"
   id="rect68" />
			
				<rect
   x="447.604"
   y="707.403"
   fill="#898585"
   stroke="#231815"
   stroke-width="0.5"
   stroke-miterlimit="10"
   width="0.481"
   height="1.795"
   id="rect70" />
			
				<rect
   x="447.139"
   y="707.846"
   fill="#B2B2B2"
   stroke="#231815"
   stroke-width="0.5"
   stroke-miterlimit="10"
   width="15.507"
   height="0.908"
   id="rect72" />
		</g>
	</g>
</g>
</svg>
