<?xml version="1.0" encoding="UTF-8" standalone="no"?>
<svg
   xmlns:dc="http://purl.org/dc/elements/1.1/"
   xmlns:cc="http://creativecommons.org/ns#"
   xmlns:rdf="http://www.w3.org/1999/02/22-rdf-syntax-ns#"
   xmlns:svg="http://www.w3.org/2000/svg"
   xmlns="http://www.w3.org/2000/svg"
   xmlns:sodipodi="http://sodipodi.sourceforge.net/DTD/sodipodi-0.dtd"
   xmlns:inkscape="http://www.inkscape.org/namespaces/inkscape"
   version="1.1"
   id="图层_1"
   x="0px"
   y="0px"
   width="106.83px"
   height="104.789px"
   viewBox="561.396 942.771 106.83 104.789"
   enable-background="new 561.396 942.771 106.83 104.789"
   xml:space="preserve"
   sodipodi:docname="01-41.svg"><metadata
   id="metadata45"><rdf:RDF><cc:Work
       rdf:about=""><dc:format>image/svg+xml</dc:format><dc:type
         rdf:resource="http://purl.org/dc/dcmitype/StillImage" /></cc:Work></rdf:RDF></metadata><defs
   id="defs43" /><sodipodi:namedview
   pagecolor="#ffffff"
   bordercolor="#666666"
   borderopacity="1"
   objecttolerance="10"
   gridtolerance="10"
   guidetolerance="10"
   inkscape:pageopacity="0"
   inkscape:pageshadow="2"
   inkscape:window-width="640"
   inkscape:window-height="480"
   id="namedview41" />
<g
   id="g38">
	
		<rect
   x="566.777"
   y="943.021"
   fill="#D9D9D9"
   stroke="#231815"
   stroke-width="0.5"
   stroke-miterlimit="10"
   width="45.617"
   height="8.779"
   id="rect2" />
	
		<line
   fill="none"
   stroke="#231815"
   stroke-width="0.5"
   stroke-miterlimit="10"
   x1="566.991"
   y1="1017.982"
   x2="566.781"
   y2="1017.771"
   id="line4" />
	
		<line
   fill="none"
   stroke="#231815"
   stroke-width="0.5"
   stroke-miterlimit="10"
   x1="566.991"
   y1="1009.904"
   x2="566.781"
   y2="1010.114"
   id="line6" />
	<polygon
   fill="#B2B2B2"
   points="589.589,993.129 612.185,951.787 566.988,951.787  "
   id="polygon8" />
	<polygon
   fill="#BFBFBF"
   points="612.185,1034.457 612.185,951.787 589.589,993.129  "
   id="polygon10" />
	<polygon
   fill="#D9D9D9"
   points="566.988,1034.466 612.185,1034.466 612.185,1034.457 589.589,993.129 566.988,1034.457  "
   id="polygon12" />
	<polygon
   fill="#CCCCCC"
   points="566.988,1034.457 589.589,993.129 566.988,951.787  "
   id="polygon14" />
	
		<rect
   x="566.777"
   y="951.397"
   fill="none"
   stroke="#231815"
   stroke-width="0.5"
   stroke-miterlimit="10"
   width="45.617"
   height="83.448"
   id="rect16" />
	
		<rect
   x="566.777"
   y="1034.457"
   fill="#D9D9D9"
   stroke="#231815"
   stroke-width="0.5"
   stroke-miterlimit="10"
   width="45.617"
   height="8.778"
   id="rect18" />
	<g
   id="g26">
		
			<rect
   x="563.321"
   y="1040.843"
   fill="#898585"
   stroke="#231815"
   stroke-width="0.5"
   stroke-miterlimit="10"
   width="1.735"
   height="6.468"
   id="rect20" />
		
			<rect
   x="614.114"
   y="1040.843"
   fill="#898585"
   stroke="#231815"
   stroke-width="0.5"
   stroke-miterlimit="10"
   width="1.737"
   height="6.468"
   id="rect22" />
		
			<rect
   x="561.646"
   y="1042.438"
   fill="#B2B2B2"
   stroke="#231815"
   stroke-width="0.5"
   stroke-miterlimit="10"
   width="55.883"
   height="3.274"
   id="rect24" />
	</g>
	<g
   id="g36">
		<polyline
   fill="#D9D9D9"
   stroke="#231815"
   stroke-width="0.5"
   stroke-miterlimit="10"
   points="612.356,953.327 612.392,953.362     659.688,1000.67 625.493,1034.854 612.392,1021.754 612.181,1021.543   "
   id="polyline28" />
		
			<rect
   x="618.699"
   y="1038.764"
   transform="matrix(-0.707 -0.7072 0.7072 -0.707 327.1875 2215.1196)"
   fill="#898585"
   stroke="#231815"
   stroke-width="0.5"
   stroke-miterlimit="10"
   width="7.56"
   height="2.031"
   id="rect30" />
		
			<rect
   x="660.576"
   y="996.754"
   transform="matrix(-0.707 -0.7072 0.7072 -0.707 428.3842 2173.0269)"
   fill="#898585"
   stroke="#231815"
   stroke-width="0.5"
   stroke-miterlimit="10"
   width="7.561"
   height="2.031"
   id="rect32" />
		
			<rect
   x="641.508"
   y="986.112"
   transform="matrix(-0.7071 -0.7071 0.7071 -0.7071 378.0082 2194.1255)"
   fill="#B2B2B2"
   stroke="#231815"
   stroke-width="0.5"
   stroke-miterlimit="10"
   width="3.828"
   height="65.326"
   id="rect34" />
	</g>
</g>
</svg>
