<?xml version="1.0" encoding="UTF-8" standalone="no"?>
<svg
   xmlns:dc="http://purl.org/dc/elements/1.1/"
   xmlns:cc="http://creativecommons.org/ns#"
   xmlns:rdf="http://www.w3.org/1999/02/22-rdf-syntax-ns#"
   xmlns:svg="http://www.w3.org/2000/svg"
   xmlns="http://www.w3.org/2000/svg"
   xmlns:sodipodi="http://sodipodi.sourceforge.net/DTD/sodipodi-0.dtd"
   xmlns:inkscape="http://www.inkscape.org/namespaces/inkscape"
   version="1.1"
   id="图层_1"
   x="0px"
   y="0px"
   width="104.79px"
   height="106.431px"
   viewBox="179.756 1084.5 104.79 106.431"
   enable-background="new 179.756 1084.5 104.79 106.431"
   xml:space="preserve"
   sodipodi:docname="01-43.svg"><metadata
   id="metadata45"><rdf:RDF><cc:Work
       rdf:about=""><dc:format>image/svg+xml</dc:format><dc:type
         rdf:resource="http://purl.org/dc/dcmitype/StillImage" /></cc:Work></rdf:RDF></metadata><defs
   id="defs43" /><sodipodi:namedview
   pagecolor="#ffffff"
   bordercolor="#666666"
   borderopacity="1"
   objecttolerance="10"
   gridtolerance="10"
   guidetolerance="10"
   inkscape:pageopacity="0"
   inkscape:pageshadow="2"
   inkscape:window-width="640"
   inkscape:window-height="480"
   id="namedview41" />
<g
   id="g38">
	
		<rect
   x="180.006"
   y="1089.884"
   fill="#D9D9D9"
   stroke="#231815"
   stroke-width="0.5"
   stroke-miterlimit="10"
   width="8.779"
   height="45.618"
   id="rect2" />
	
		<line
   fill="none"
   stroke="#231815"
   stroke-width="0.5"
   stroke-miterlimit="10"
   x1="254.758"
   y1="1089.886"
   x2="254.969"
   y2="1090.096"
   id="line4" />
	
		<line
   fill="none"
   stroke="#231815"
   stroke-width="0.5"
   stroke-miterlimit="10"
   x1="247.1"
   y1="1089.886"
   x2="246.891"
   y2="1090.096"
   id="line6" />
	<polyline
   fill="#D9D9D9"
   stroke="#231815"
   stroke-width="0.5"
   stroke-miterlimit="10"
   points="256.987,1135.285 257.198,1135.496    270.3,1148.598 236.114,1182.795 188.808,1135.496 188.773,1135.462  "
   id="polyline8" />
	<polygon
   fill="#B2B2B2"
   points="230.114,1112.693 188.773,1135.289 188.773,1090.094  "
   id="polygon10" />
	<polygon
   fill="#BFBFBF"
   points="271.442,1135.289 188.773,1135.289 230.114,1112.693  "
   id="polygon12" />
	<polygon
   fill="#D9D9D9"
   points="271.451,1090.094 271.451,1135.289 271.442,1135.289 230.114,1112.693 271.442,1090.094  "
   id="polygon14" />
	<polygon
   fill="#CCCCCC"
   points="271.442,1090.094 230.114,1112.693 188.773,1090.094  "
   id="polygon16" />
	
		<rect
   x="188.383"
   y="1089.884"
   fill="none"
   stroke="#231815"
   stroke-width="0.5"
   stroke-miterlimit="10"
   width="83.449"
   height="45.618"
   id="rect18" />
	
		<rect
   x="271.442"
   y="1089.884"
   fill="#D9D9D9"
   stroke="#231815"
   stroke-width="0.5"
   stroke-miterlimit="10"
   width="8.78"
   height="45.618"
   id="rect20" />
	<g
   id="g28">
		
			<rect
   x="277.828"
   y="1086.427"
   fill="#898585"
   stroke="#231815"
   stroke-width="0.5"
   stroke-miterlimit="10"
   width="6.468"
   height="1.735"
   id="rect22" />
		
			<rect
   x="277.828"
   y="1137.219"
   fill="#898585"
   stroke="#231815"
   stroke-width="0.5"
   stroke-miterlimit="10"
   width="6.468"
   height="1.737"
   id="rect24" />
		
			<rect
   x="279.425"
   y="1084.75"
   fill="#B2B2B2"
   stroke="#231815"
   stroke-width="0.5"
   stroke-miterlimit="10"
   width="3.274"
   height="55.883"
   id="rect26" />
	</g>
	<g
   id="g36">
		
			<rect
   x="228.55"
   y="1186.072"
   transform="matrix(0.7072 0.707 -0.707 0.7072 907.2616 183.2847)"
   fill="#898585"
   stroke="#231815"
   stroke-width="0.5"
   stroke-miterlimit="10"
   width="7.559"
   height="2.031"
   id="rect30" />
		
			<rect
   x="270.586"
   y="1144.119"
   transform="matrix(0.7071 0.7071 -0.7071 0.7071 890.0923 141.3961)"
   fill="#898585"
   stroke="#231815"
   stroke-width="0.5"
   stroke-miterlimit="10"
   width="7.56"
   height="2.031"
   id="rect32" />
		
			<rect
   x="251.459"
   y="1133.465"
   transform="matrix(0.7072 0.707 -0.707 0.7072 898.6973 162.3313)"
   fill="#B2B2B2"
   stroke="#231815"
   stroke-width="0.5"
   stroke-miterlimit="10"
   width="3.827"
   height="65.326"
   id="rect34" />
	</g>
</g>
</svg>
