<?xml version="1.0" encoding="UTF-8" standalone="no"?>
<svg
   xmlns:dc="http://purl.org/dc/elements/1.1/"
   xmlns:cc="http://creativecommons.org/ns#"
   xmlns:rdf="http://www.w3.org/1999/02/22-rdf-syntax-ns#"
   xmlns:svg="http://www.w3.org/2000/svg"
   xmlns="http://www.w3.org/2000/svg"
   xmlns:sodipodi="http://sodipodi.sourceforge.net/DTD/sodipodi-0.dtd"
   xmlns:inkscape="http://www.inkscape.org/namespaces/inkscape"
   version="1.1"
   id="图层_1"
   x="0px"
   y="0px"
   viewBox="0 0 41.6 41.6"
   style="enable-background:new 0 0 41.6 41.6;"
   xml:space="preserve"
   sodipodi:docname="UPS电源_261.svg"><metadata
   id="metadata15"><rdf:RDF><cc:Work
       rdf:about=""><dc:format>image/svg+xml</dc:format><dc:type
         rdf:resource="http://purl.org/dc/dcmitype/StillImage" /></cc:Work></rdf:RDF></metadata><defs
   id="defs13" /><sodipodi:namedview
   pagecolor="#ffffff"
   bordercolor="#666666"
   borderopacity="1"
   objecttolerance="10"
   gridtolerance="10"
   guidetolerance="10"
   inkscape:pageopacity="0"
   inkscape:pageshadow="2"
   inkscape:window-width="640"
   inkscape:window-height="480"
   id="namedview11" />
<style
   type="text/css"
   id="style2">
	.st0{fill:#1296DB;}
</style>
<title
   id="title4">资源 261</title>
<g
   id="图层_2_1_">
	<g
   id="图层_2-2">
		<path
   class="st0"
   d="M20.8,0C9.3,0,0,9.3,0,20.8s9.3,20.8,20.8,20.8c11.5,0,20.8-9.3,20.8-20.8C41.6,9.3,32.3,0,20.8,0    C20.8,0,20.8,0,20.8,0z M21.6,30.3c0,0.8-0.7,1.5-1.5,1.5h-0.3c-0.8,0-1.5-0.6-1.5-1.5c0,0,0,0,0,0v-8.6H9.5v8.6    c0,0.8-0.7,1.5-1.5,1.5c0,0,0,0,0,0H7.7c-0.8,0-1.5-0.7-1.5-1.5V11.4c0-0.8,0.6-1.5,1.5-1.5c0,0,0,0,0,0H8c0.8,0,1.5,0.7,1.5,1.5    c0,0,0,0,0,0v7.3h8.9v-7.3c0-0.8,0.7-1.5,1.5-1.5c0,0,0,0,0,0h0.3c0.8,0,1.5,0.7,1.5,1.5c0,0,0,0,0,0L21.6,30.3z M35.5,30.3    c0,0.8-0.7,1.5-1.5,1.5h-9.6c-0.8,0-1.4-0.7-1.4-1.5c0-0.3,0.1-0.6,0.3-0.8l7.5-11.1h-5.4c-0.8,0-1.5-0.7-1.5-1.5c0,0,0,0,0,0l0,0    c0-0.8,0.7-1.5,1.5-1.5h8.4c0.8,0,1.5,0.7,1.5,1.5c0,0,0,0,0,0c0,0.3-0.1,0.6-0.3,0.8l-7.6,11.1H34C34.8,28.8,35.5,29.4,35.5,30.3    L35.5,30.3L35.5,30.3L35.5,30.3z"
   id="path6" />
	</g>
</g>
</svg>
