<?xml version="1.0" encoding="UTF-8" standalone="no"?>
<svg
   xmlns:dc="http://purl.org/dc/elements/1.1/"
   xmlns:cc="http://creativecommons.org/ns#"
   xmlns:rdf="http://www.w3.org/1999/02/22-rdf-syntax-ns#"
   xmlns:svg="http://www.w3.org/2000/svg"
   xmlns="http://www.w3.org/2000/svg"
   xmlns:sodipodi="http://sodipodi.sourceforge.net/DTD/sodipodi-0.dtd"
   xmlns:inkscape="http://www.inkscape.org/namespaces/inkscape"
   version="1.1"
   id="图层_1"
   x="0px"
   y="0px"
   viewBox="0 0 53.2 53.2"
   style="enable-background:new 0 0 53.2 53.2;"
   xml:space="preserve"
   sodipodi:docname="立体按钮一_122.svg"><metadata
   id="metadata49"><rdf:RDF><cc:Work
       rdf:about=""><dc:format>image/svg+xml</dc:format><dc:type
         rdf:resource="http://purl.org/dc/dcmitype/StillImage" /></cc:Work></rdf:RDF></metadata><defs
   id="defs47" /><sodipodi:namedview
   pagecolor="#ffffff"
   bordercolor="#666666"
   borderopacity="1"
   objecttolerance="10"
   gridtolerance="10"
   guidetolerance="10"
   inkscape:pageopacity="0"
   inkscape:pageshadow="2"
   inkscape:window-width="640"
   inkscape:window-height="480"
   id="namedview45" />
<style
   type="text/css"
   id="style2">
	.st0{fill:url(#SVGID_1_);}
	.st1{fill:#E5E5E5;}
	.st2{fill:url(#SVGID_2_);}
	.st3{fill:url(#SVGID_3_);}
	.st4{fill:#FFFFFF;}
	.st5{fill:url(#SVGID_4_);}
	.st6{fill:#999694;}
</style>
<title
   id="title4">资源 122</title>
<g
   id="图层_2_1_">
	<g
   id="图层_1-2">
		
			<linearGradient
   id="SVGID_1_"
   gradientUnits="userSpaceOnUse"
   x1="18.2994"
   y1="49.3298"
   x2="37.9994"
   y2="2.0298"
   gradientTransform="matrix(1 0 0 -1 0 56)">
			<stop
   offset="0"
   style="stop-color:#EFEFF4"
   id="stop6" />
			<stop
   offset="1"
   style="stop-color:#BBBBBB"
   id="stop8" />
		</linearGradient>
		<path
   class="st0"
   d="M26.6,52.9c-14.5,0-26.3-11.8-26.3-26.3S12.1,0.3,26.6,0.3s26.3,11.8,26.3,26.3l0,0    C52.9,41.1,41.1,52.9,26.6,52.9z"
   id="path11" />
		<path
   class="st1"
   d="M26.6,0.6c14.4,0,26,11.7,26,26.1s-11.7,26-26,26S0.6,41,0.6,26.6C0.6,12.2,12.2,0.6,26.6,0.6 M26.6,0    C11.9,0,0,11.9,0,26.6s11.9,26.6,26.6,26.6s26.6-11.9,26.6-26.6c0,0,0,0,0,0C53.2,11.9,41.3,0,26.6,0C26.6,0,26.6,0,26.6,0z"
   id="path13" />
		
			<linearGradient
   id="SVGID_2_"
   gradientUnits="userSpaceOnUse"
   x1="44.4173"
   y1="6.7779"
   x2="15.2973"
   y2="43.0479"
   gradientTransform="matrix(1 0 0 -1 0 56)">
			<stop
   offset="0"
   style="stop-color:#FFFFFF"
   id="stop15" />
			<stop
   offset="1"
   style="stop-color:#999999"
   id="stop17" />
		</linearGradient>
		<path
   class="st2"
   d="M47.9,27c0,11.7-9.5,21.3-21.2,21.3c-11.7,0-21.3-9.5-21.3-21.2S14.8,5.8,26.6,5.8c0,0,0,0,0,0    C38.3,5.8,47.9,15.3,47.9,27z"
   id="path20" />
		
			<radialGradient
   id="SVGID_3_"
   cx="21886.4746"
   cy="7059.4565"
   r="175.49"
   gradientTransform="matrix(0.11 0 0 -0.11 -2326.0601 759.91)"
   gradientUnits="userSpaceOnUse">
			<stop
   offset="0"
   style="stop-color:#EFEFEE"
   id="stop22" />
			<stop
   offset="0.31"
   style="stop-color:#EAE9E8"
   id="stop24" />
			<stop
   offset="1"
   style="stop-color:#DCDAD9"
   id="stop26" />
		</radialGradient>
		<path
   class="st3"
   d="M26.6,44.7C16.9,44.6,9,36.8,9,27S16.9,9.4,26.6,9.4c9.7,0,17.6,7.9,17.6,17.6C44.2,36.7,36.3,44.6,26.6,44.7    C26.6,44.7,26.6,44.7,26.6,44.7z"
   id="path29" />
		<path
   class="st4"
   d="M20.7,16c0.4,0.6-0.2,1.7-1.4,2.4s-2.4,0.7-2.7,0.1s0.2-1.8,1.4-2.5S20.4,15.3,20.7,16z"
   id="path31" />
		
			<linearGradient
   id="SVGID_4_"
   gradientUnits="userSpaceOnUse"
   x1="26.4994"
   y1="29.1544"
   x2="34.1194"
   y2="14.9043"
   gradientTransform="matrix(1 0 0 -1 0 56)">
			<stop
   offset="0.25"
   style="stop-color:#D7D6D4"
   id="stop33" />
			<stop
   offset="1"
   style="stop-color:#B9B7B4"
   id="stop35" />
		</linearGradient>
		<path
   class="st5"
   d="M37.4,12.4c0.1,0.8,0.2,1.7,0.2,2.5c0,10.1-8.1,18.2-18.2,18.2c-3.9,0-7.7-1.3-10.9-3.6    c1.4,10,10.6,16.9,20.5,15.6S46,34.6,44.7,24.6C44,19.7,41.4,15.3,37.4,12.4z"
   id="path38" />
		<path
   class="st6"
   d="M26.6,10c9.4,0,17,7.6,17,17s-7.6,17-17,17s-17-7.6-17-17S17.2,10,26.6,10 M26.6,8.8C16.5,8.8,8.4,17,8.4,27    c0,10.1,8.2,18.2,18.2,18.2S44.8,37.1,44.8,27c0,0,0,0,0,0C44.8,16.9,36.7,8.8,26.6,8.8L26.6,8.8z"
   id="path40" />
	</g>
</g>
</svg>
