<?xml version="1.0" encoding="UTF-8" standalone="no"?>
<svg
   xmlns:dc="http://purl.org/dc/elements/1.1/"
   xmlns:cc="http://creativecommons.org/ns#"
   xmlns:rdf="http://www.w3.org/1999/02/22-rdf-syntax-ns#"
   xmlns:svg="http://www.w3.org/2000/svg"
   xmlns="http://www.w3.org/2000/svg"
   xmlns:sodipodi="http://sodipodi.sourceforge.net/DTD/sodipodi-0.dtd"
   xmlns:inkscape="http://www.inkscape.org/namespaces/inkscape"
   version="1.1"
   id="图层_1"
   x="0px"
   y="0px"
   viewBox="0 0 52.8 52.8"
   style="enable-background:new 0 0 52.8 52.8;"
   xml:space="preserve"
   sodipodi:docname="空气净化器_058.svg"><metadata
   id="metadata17"><rdf:RDF><cc:Work
       rdf:about=""><dc:format>image/svg+xml</dc:format><dc:type
         rdf:resource="http://purl.org/dc/dcmitype/StillImage" /></cc:Work></rdf:RDF></metadata><defs
   id="defs15" /><sodipodi:namedview
   pagecolor="#ffffff"
   bordercolor="#666666"
   borderopacity="1"
   objecttolerance="10"
   gridtolerance="10"
   guidetolerance="10"
   inkscape:pageopacity="0"
   inkscape:pageshadow="2"
   inkscape:window-width="640"
   inkscape:window-height="480"
   id="namedview13" />
<style
   type="text/css"
   id="style2">
	.st0{fill:#1296DB;}
</style>
<title
   id="title4">资源 58</title>
<g
   id="图层_2_1_">
	<g
   id="图层_1-2">
		<path
   class="st0"
   d="M14.6,17.3c-1.7,0.2-2.5,1.1-2.5,2.5c-0.1,1.3,0.9,2.5,2.2,2.6c0.1,0,0.2,0,0.3,0c1.4,0.1,2.5-1,2.6-2.4    c0-0.1,0-0.1,0-0.2C17.2,18.4,16,17.3,14.6,17.3z"
   id="path6" />
		<path
   class="st0"
   d="M26.4,0C11.8,0,0,11.8,0,26.4s11.8,26.4,26.4,26.4S52.8,41,52.8,26.4c0,0,0,0,0,0C52.8,11.8,41,0,26.4,0z     M14.6,24.7c-2.9-0.2-4.5-1.9-4.8-4.9c0.2-2.8,1.7-4.4,4.8-4.8c2.6,0.1,4.7,2.2,4.8,4.8C19,22.8,17.4,24.5,14.6,24.7z M28,37    c2.8-0.1,4.2-1.5,4.4-4.4h5.3c-0.4,5.1-3.5,7.7-9.6,7.7c-6.4-0.1-9.6-4.1-9.8-11.8c0.1-7.7,3.4-11.6,9.7-11.9    c6.1,0.1,9.3,2.8,9.6,7.9h-5.3c-0.2-2.8-1.7-4.2-4.4-4.4c-2.8,0.1-4.3,3-4.5,8.5C23.7,34.2,25.2,37,28,37L28,37z"
   id="path8" />
	</g>
</g>
</svg>
