<?xml version="1.0" encoding="UTF-8" standalone="no"?>
<svg
   xmlns:dc="http://purl.org/dc/elements/1.1/"
   xmlns:cc="http://creativecommons.org/ns#"
   xmlns:rdf="http://www.w3.org/1999/02/22-rdf-syntax-ns#"
   xmlns:svg="http://www.w3.org/2000/svg"
   xmlns="http://www.w3.org/2000/svg"
   xmlns:sodipodi="http://sodipodi.sourceforge.net/DTD/sodipodi-0.dtd"
   xmlns:inkscape="http://www.inkscape.org/namespaces/inkscape"
   version="1.1"
   id="图层_1"
   x="0px"
   y="0px"
   viewBox="0 0 55 50.7"
   style="enable-background:new 0 0 55 50.7;"
   xml:space="preserve"
   sodipodi:docname="UPS电源_135.svg"><metadata
   id="metadata15"><rdf:RDF><cc:Work
       rdf:about=""><dc:format>image/svg+xml</dc:format><dc:type
         rdf:resource="http://purl.org/dc/dcmitype/StillImage" /></cc:Work></rdf:RDF></metadata><defs
   id="defs13" /><sodipodi:namedview
   pagecolor="#ffffff"
   bordercolor="#666666"
   borderopacity="1"
   objecttolerance="10"
   gridtolerance="10"
   guidetolerance="10"
   inkscape:pageopacity="0"
   inkscape:pageshadow="2"
   inkscape:window-width="640"
   inkscape:window-height="480"
   id="namedview11" />
<style
   type="text/css"
   id="style2">
	.st0{fill:#1296DB;}
</style>
<title
   id="title4">资源 135</title>
<g
   id="图层_2_1_">
	<g
   id="图层_2-2">
		<path
   class="st0"
   d="M27.5,6.5c-0.7,0-1.2,0.5-1.2,1.2c0,0,0,0,0,0v5.5c0.1,0.7,0.6,1.1,1.3,1.1c0.6-0.1,1-0.5,1.1-1.1V7.7    C28.7,7.1,28.1,6.5,27.5,6.5z M18.5,9.8c-0.3-0.6-1-0.8-1.6-0.5c-0.6,0.3-0.8,1-0.5,1.6c0,0.1,0.1,0.1,0.1,0.1l2.8,4.8    c0.3,0.6,1,0.9,1.6,0.6c0.6-0.3,0.9-1,0.6-1.6c0-0.1-0.1-0.1-0.1-0.2L18.5,9.8z M15.5,19.4l-4.8-2.7c-0.6-0.3-1.3-0.1-1.6,0.4    c-0.3,0.6-0.1,1.3,0.4,1.6l4.8,2.7c0.6,0.3,1.3,0.1,1.6-0.4C16.2,20.4,16,19.7,15.5,19.4C15.5,19.4,15.5,19.4,15.5,19.4z M38,9.3    c-0.6-0.3-1.3-0.1-1.6,0.4l-2.7,4.8c-0.4,0.5-0.4,1.2,0.1,1.7c0.5,0.4,1.2,0.4,1.7-0.1c0.1-0.1,0.2-0.3,0.3-0.4l2.8-4.7    C38.8,10.4,38.6,9.7,38,9.3C38,9.3,38,9.3,38,9.3z M39,21c0.3,0.6,1.1,0.8,1.6,0.4l4.8-2.7c0.6-0.3,0.7-1.1,0.4-1.6    c-0.3-0.5-1-0.7-1.6-0.4l-4.8,2.7C38.9,19.7,38.7,20.4,39,21z M44.1,0H10.9C4.9,0,0,4.9,0,10.9v29c0,6,4.9,10.8,10.9,10.8h33.3    c6,0,10.9-4.9,10.9-10.8v-29C55,4.8,50.1,0,44.1,0z M47.9,4.4c1.3,0,2.4,1.1,2.4,2.4c0,1.3-1.1,2.4-2.4,2.4    c-1.3,0-2.4-1.1-2.4-2.4S46.6,4.4,47.9,4.4L47.9,4.4z M7.4,4.4c1.3,0,2.4,1.1,2.4,2.4S8.7,9.2,7.4,9.2C6.1,9.2,5,8.1,5,6.8    C5,5.5,6.1,4.4,7.4,4.4C7.4,4.4,7.4,4.4,7.4,4.4z M7.4,45C6.1,45,5,43.9,5,42.6s1.1-2.4,2.4-2.4c1.3,0,2.4,1.1,2.4,2.4    S8.7,45,7.4,45C7.4,45,7.4,45,7.4,45z M29.9,46.7h-5.2c0,0-5.7-13.9-5.6-13.9h4.7l3.7,10.8L31,32.8h4.7L29.9,46.7L29.9,46.7z     M47.9,45c-1.3,0-2.4-1.1-2.4-2.4c0-1.3,1.1-2.4,2.4-2.4c1.3,0,2.4,1.1,2.4,2.4C50.3,43.9,49.2,45,47.9,45    C47.9,45,47.9,45,47.9,45L47.9,45z M50.3,28.1H32.4c0-0.1,0-0.2,0-0.3c0-0.7-0.2-1.4-0.4-2c0-0.2,0-0.6,0.1-1    c0.1-0.5,4.6-6.1,5.3-7.2s0-1,0-1c-2.7,1-7.7,5.5-8.2,5.9c-0.4,0.2-0.9,0.4-1.4,0.4h-0.3c-2.7,0-4.9,2.2-4.9,4.9    c0,0.1,0,0.2,0,0.3H4.7c0-0.4,0-0.8,0-1.2C4.4,14.3,14.4,3.9,27,3.6s23,9.7,23.3,22.3c0,0.3,0,0.6,0,1    C50.3,27.3,50.3,27.7,50.3,28.1L50.3,28.1z"
   id="path6" />
	</g>
</g>
</svg>
