<?xml version="1.0" encoding="UTF-8" standalone="no"?>
<svg
   xmlns:dc="http://purl.org/dc/elements/1.1/"
   xmlns:cc="http://creativecommons.org/ns#"
   xmlns:rdf="http://www.w3.org/1999/02/22-rdf-syntax-ns#"
   xmlns:svg="http://www.w3.org/2000/svg"
   xmlns="http://www.w3.org/2000/svg"
   xmlns:sodipodi="http://sodipodi.sourceforge.net/DTD/sodipodi-0.dtd"
   xmlns:inkscape="http://www.inkscape.org/namespaces/inkscape"
   version="1.1"
   id="图层_1"
   x="0px"
   y="0px"
   viewBox="0 0 47.9 48"
   style="enable-background:new 0 0 47.9 48;"
   xml:space="preserve"
   sodipodi:docname="UPS电源_211.svg"><metadata
   id="metadata15"><rdf:RDF><cc:Work
       rdf:about=""><dc:format>image/svg+xml</dc:format><dc:type
         rdf:resource="http://purl.org/dc/dcmitype/StillImage" /></cc:Work></rdf:RDF></metadata><defs
   id="defs13" /><sodipodi:namedview
   pagecolor="#ffffff"
   bordercolor="#666666"
   borderopacity="1"
   objecttolerance="10"
   gridtolerance="10"
   guidetolerance="10"
   inkscape:pageopacity="0"
   inkscape:pageshadow="2"
   inkscape:window-width="640"
   inkscape:window-height="480"
   id="namedview11" />
<style
   type="text/css"
   id="style2">
	.st0{fill:#1296DB;}
</style>
<title
   id="title4">资源 211</title>
<g
   id="图层_2_1_">
	<g
   id="图层_2-2">
		<path
   class="st0"
   d="M2,32.9C2,34.1,3,35,4.1,35c1.1,0,2.1-1,2.1-2.1c0-1.1-1-2.1-2.1-2.1C3,30.9,2,31.8,2,32.9z M9.4,41.9    c0,1.2,0.9,2.1,2.1,2.1c1.2,0,2.1-0.9,2.1-2.1c0-1.2-0.9-2.1-2.1-2.1C10.4,39.8,9.4,40.7,9.4,41.9L9.4,41.9z M24,0    C10.7,0,0,10.8,0,24.1c0,3.4,0.7,6.7,2.1,9.8l3.8-1.8c-1.2-2.5-1.7-5.3-1.7-8.1C4.2,13.2,13.1,4.3,24,4.3    c10.9,0,19.8,8.8,19.8,19.8c0,10.9-8.8,19.7-19.7,19.8c-4,0-8-1.2-11.3-3.5l-2.6,2.9c0.1,0,0.2,0.1,0.2,0.2c0,0.1,0,0.2-0.1,0.2    c10.9,7.6,25.8,5,33.4-5.9c2.8-4,4.3-8.8,4.3-13.7C47.9,10.8,37.2,0,24,0z M4.7,38.2c0,1.1,0.9,2.1,2.1,2.1c1.1,0,2.1-0.9,2.1-2.1    c0-1.1-0.9-2.1-2.1-2.1c0,0,0,0,0,0C5.7,36.2,4.8,37.1,4.7,38.2z M23.4,34.2L23.4,34.2c-0.4,0-0.6-0.2-0.7-0.5l-4.4-10.3L15,27.7    c-0.2,0.3-0.5,0.5-0.9,0.5H7.7C7.3,28.1,7,27.7,7,27.3c0-0.4,0.3-0.9,0.7-0.9h5.9l4.2-5.4c0.1-0.3,0.4-0.5,0.7-0.5    c0.3,0,0.6,0.2,0.6,0.5l4.6,10.2l4.7-6.7c0.1-0.3,0.4-0.4,0.7-0.4c0.3,0,0.5,0.2,0.6,0.5L31,29h9.6c0.5,0,0.8,0.4,0.8,0.9    c0,0.4-0.3,0.9-0.7,0.9H30.3c-0.3,0-0.7,0-0.8-0.3l-0.8-2.9l-4.3,6.3C24.3,34.1,23.6,34.2,23.4,34.2L23.4,34.2z M30,16.7h-3    l0.7-5.8l-5.8,7.6h3l-0.7,5.8L30,16.7z"
   id="path6" />
	</g>
</g>
</svg>
