<?xml version="1.0" encoding="UTF-8" standalone="no"?>
<svg
   xmlns:dc="http://purl.org/dc/elements/1.1/"
   xmlns:cc="http://creativecommons.org/ns#"
   xmlns:rdf="http://www.w3.org/1999/02/22-rdf-syntax-ns#"
   xmlns:svg="http://www.w3.org/2000/svg"
   xmlns="http://www.w3.org/2000/svg"
   xmlns:sodipodi="http://sodipodi.sourceforge.net/DTD/sodipodi-0.dtd"
   xmlns:inkscape="http://www.inkscape.org/namespaces/inkscape"
   version="1.1"
   id="图层_1"
   x="0px"
   y="0px"
   width="72.501px"
   height="112.784px"
   viewBox="35.858 60.255 72.501 112.784"
   enable-background="new 35.858 60.255 72.501 112.784"
   xml:space="preserve"
   sodipodi:docname="01-01.svg"><metadata
   id="metadata81"><rdf:RDF><cc:Work
       rdf:about=""><dc:format>image/svg+xml</dc:format><dc:type
         rdf:resource="http://purl.org/dc/dcmitype/StillImage" /></cc:Work></rdf:RDF></metadata><defs
   id="defs79" /><sodipodi:namedview
   pagecolor="#ffffff"
   bordercolor="#666666"
   borderopacity="1"
   objecttolerance="10"
   gridtolerance="10"
   guidetolerance="10"
   inkscape:pageopacity="0"
   inkscape:pageshadow="2"
   inkscape:window-width="640"
   inkscape:window-height="480"
   id="namedview77" />
<g
   id="g74">
	
		<rect
   x="40.967"
   y="169.289"
   fill="#7F7F59"
   stroke="#231815"
   stroke-width="0.5"
   stroke-linecap="round"
   stroke-linejoin="round"
   stroke-miterlimit="10"
   width="52.431"
   height="3.5"
   id="rect2" />
	
		<polygon
   fill="#7F7F59"
   stroke="#231815"
   stroke-width="0.5"
   stroke-linecap="round"
   stroke-linejoin="round"
   stroke-miterlimit="10"
   points="   102.704,168.022 93.397,172.789 93.397,169.289 102.704,165.123  "
   id="polygon4" />
	
		<rect
   x="36.108"
   y="67.144"
   fill="#B2B29B"
   stroke="#231815"
   stroke-width="0.5"
   stroke-linecap="round"
   stroke-linejoin="round"
   stroke-miterlimit="10"
   width="62"
   height="102.145"
   id="rect6" />
	
		<rect
   x="36.108"
   y="67.144"
   fill="#B2B29B"
   stroke="#231815"
   stroke-width="0.5"
   stroke-linecap="round"
   stroke-linejoin="round"
   stroke-miterlimit="10"
   width="62"
   height="102.145"
   id="rect8" />
	
		<polygon
   fill="#DBDBD5"
   stroke="#231815"
   stroke-width="0.5"
   stroke-linecap="round"
   stroke-linejoin="round"
   stroke-miterlimit="10"
   points="   98.108,67.144 36.108,67.144 51.608,60.505 108.109,60.505  "
   id="polygon10" />
	
		<polygon
   fill="#B2B29B"
   stroke="#231815"
   stroke-width="0.5"
   stroke-linecap="round"
   stroke-linejoin="round"
   stroke-miterlimit="10"
   points="   108.109,163.289 98.108,169.289 98.108,67.144 108.109,60.505  "
   id="polygon12" />
	<polygon
   fill="#CCCCBD"
   points="97.608,109.492 36.608,139.628 36.608,67.535 97.608,67.535  "
   id="polygon14" />
	
		<line
   fill="none"
   stroke="#231815"
   stroke-width="0.5"
   stroke-linecap="round"
   stroke-linejoin="round"
   stroke-miterlimit="10"
   x1="36.108"
   y1="77.289"
   x2="98.108"
   y2="77.289"
   id="line16" />
	
		<line
   fill="none"
   stroke="#231815"
   stroke-width="0.5"
   stroke-linecap="round"
   stroke-linejoin="round"
   stroke-miterlimit="10"
   x1="36.108"
   y1="81.523"
   x2="98.108"
   y2="81.523"
   id="line18" />
	
		<line
   fill="none"
   stroke="#231815"
   stroke-width="0.5"
   stroke-linecap="round"
   stroke-linejoin="round"
   stroke-miterlimit="10"
   x1="36.108"
   y1="85.758"
   x2="98.108"
   y2="85.758"
   id="line20" />
	
		<line
   fill="none"
   stroke="#231815"
   stroke-width="0.5"
   stroke-linecap="round"
   stroke-linejoin="round"
   stroke-miterlimit="10"
   x1="36.108"
   y1="89.992"
   x2="98.108"
   y2="89.992"
   id="line22" />
	
		<line
   fill="none"
   stroke="#231815"
   stroke-width="0.5"
   stroke-linecap="round"
   stroke-linejoin="round"
   stroke-miterlimit="10"
   x1="65.608"
   y1="89.992"
   x2="65.608"
   y2="168.956"
   id="line24" />
	
		<rect
   x="69.436"
   y="108.956"
   fill="#DBDBD5"
   stroke="#231815"
   stroke-width="0.5"
   stroke-linecap="round"
   stroke-linejoin="round"
   stroke-miterlimit="10"
   width="24.763"
   height="18.521"
   id="rect26" />
	
		<rect
   x="36.108"
   y="101.414"
   fill="#DBDBD5"
   stroke="#231815"
   stroke-width="0.5"
   stroke-linecap="round"
   stroke-linejoin="round"
   stroke-miterlimit="10"
   width="18"
   height="33.605"
   id="rect28" />
	<rect
   x="40.525"
   y="101.623"
   fill="#CCCCBD"
   width="5.363"
   height="33.188"
   id="rect30" />
	<rect
   x="36.108"
   y="101.414"
   fill="#231815"
   width="1.334"
   height="33.605"
   id="rect32" />
	
		<rect
   x="69.436"
   y="95.035"
   stroke="#231815"
   stroke-width="0.5"
   stroke-linecap="round"
   stroke-linejoin="round"
   stroke-miterlimit="10"
   width="24.763"
   height="10.588"
   id="rect34" />
	<g
   id="g46">
		<rect
   x="92.483"
   y="97.164"
   fill="#B2B29B"
   width="1.125"
   height="1.125"
   id="rect36" />
		<rect
   x="92.483"
   y="98.727"
   fill="#B2B29B"
   width="1.125"
   height="1.125"
   id="rect38" />
		<rect
   x="92.483"
   y="100.289"
   fill="#B2B29B"
   width="1.125"
   height="1.125"
   id="rect40" />
		<rect
   x="92.483"
   y="101.852"
   fill="#B2B29B"
   width="1.125"
   height="1.125"
   id="rect42" />
		<rect
   x="92.483"
   y="103.414"
   fill="#B2B29B"
   width="1.125"
   height="1.125"
   id="rect44" />
	</g>
	<polygon
   fill="#B2B29B"
   points="93.817,96.36 93.817,95.198 69.817,95.198 69.817,105.459 70.979,105.459 70.979,104.539    72.004,104.539 72.004,103.414 70.979,103.414 70.979,102.977 72.004,102.977 72.004,101.852 70.979,101.852 70.979,101.414    72.004,101.414 72.004,100.289 70.979,100.289 70.979,99.852 72.004,99.852 72.004,98.727 70.979,98.727 70.979,98.289    72.004,98.289 72.004,97.164 70.979,97.164 70.979,96.36  "
   id="polygon48" />
	<line
   fill="none"
   stroke="#231815"
   stroke-miterlimit="10"
   x1="68.589"
   y1="151.039"
   x2="95.604"
   y2="151.039"
   id="line50" />
	<line
   fill="none"
   stroke="#231815"
   stroke-miterlimit="10"
   x1="68.589"
   y1="153.998"
   x2="95.604"
   y2="153.998"
   id="line52" />
	<line
   fill="none"
   stroke="#231815"
   stroke-miterlimit="10"
   x1="68.589"
   y1="156.956"
   x2="95.604"
   y2="156.956"
   id="line54" />
	<line
   fill="none"
   stroke="#231815"
   stroke-miterlimit="10"
   x1="68.589"
   y1="159.915"
   x2="95.604"
   y2="159.915"
   id="line56" />
	<line
   fill="none"
   stroke="#231815"
   stroke-miterlimit="10"
   x1="68.589"
   y1="162.873"
   x2="95.604"
   y2="162.873"
   id="line58" />
	<line
   fill="none"
   stroke="#231815"
   stroke-miterlimit="10"
   x1="68.589"
   y1="165.832"
   x2="95.604"
   y2="165.832"
   id="line60" />
	<g
   id="g72">
		
			<rect
   x="48.275"
   y="104.195"
   fill="#B2B29B"
   stroke="#231815"
   stroke-width="0.5"
   stroke-miterlimit="10"
   width="4.125"
   height="4.125"
   id="rect62" />
		
			<rect
   x="48.275"
   y="110.175"
   fill="#B2B29B"
   stroke="#231815"
   stroke-width="0.5"
   stroke-miterlimit="10"
   width="4.125"
   height="4.125"
   id="rect64" />
		
			<rect
   x="48.275"
   y="116.154"
   fill="#B2B29B"
   stroke="#231815"
   stroke-width="0.5"
   stroke-miterlimit="10"
   width="4.125"
   height="4.125"
   id="rect66" />
		
			<rect
   x="48.275"
   y="122.135"
   fill="#B2B29B"
   stroke="#231815"
   stroke-width="0.5"
   stroke-miterlimit="10"
   width="4.125"
   height="4.125"
   id="rect68" />
		
			<rect
   x="48.275"
   y="128.112"
   fill="#B2B29B"
   stroke="#231815"
   stroke-width="0.5"
   stroke-miterlimit="10"
   width="4.125"
   height="4.125"
   id="rect70" />
	</g>
</g>
</svg>
