<?xml version="1.0" encoding="UTF-8" standalone="no"?>
<svg
   xmlns:dc="http://purl.org/dc/elements/1.1/"
   xmlns:cc="http://creativecommons.org/ns#"
   xmlns:rdf="http://www.w3.org/1999/02/22-rdf-syntax-ns#"
   xmlns:svg="http://www.w3.org/2000/svg"
   xmlns="http://www.w3.org/2000/svg"
   xmlns:sodipodi="http://sodipodi.sourceforge.net/DTD/sodipodi-0.dtd"
   xmlns:inkscape="http://www.inkscape.org/namespaces/inkscape"
   version="1.1"
   id="图层_1"
   x="0px"
   y="0px"
   width="117.501px"
   height="105.5px"
   viewBox="161.859 305.724 117.501 105.5"
   enable-background="new 161.859 305.724 117.501 105.5"
   xml:space="preserve"
   sodipodi:docname="01-11.svg"><metadata
   id="metadata51"><rdf:RDF><cc:Work
       rdf:about=""><dc:format>image/svg+xml</dc:format><dc:type
         rdf:resource="http://purl.org/dc/dcmitype/StillImage" /></cc:Work></rdf:RDF></metadata><defs
   id="defs49" /><sodipodi:namedview
   pagecolor="#ffffff"
   bordercolor="#666666"
   borderopacity="1"
   objecttolerance="10"
   gridtolerance="10"
   guidetolerance="10"
   inkscape:pageopacity="0"
   inkscape:pageshadow="2"
   inkscape:window-width="640"
   inkscape:window-height="480"
   id="namedview47" />
<g
   id="g44">
	
		<path
   fill="#767676"
   stroke="#1B1B1B"
   stroke-width="0.5"
   stroke-linecap="round"
   stroke-linejoin="round"
   stroke-miterlimit="10"
   d="   M273.68,409.474c0.02-0.011,0.039-0.03,0.05-0.051l3.72-3.75c0.131-0.119,0.25-0.239,0.37-0.38l0.17-0.17v-0.04   c0.69-0.851,1.12-1.931,1.12-3.109v-91c0-2.761-2.24-5-5-5h-103c-1.279,0-2.439,0.5-3.32,1.29l-0.01-0.021l-0.13,0.131   c-0.05,0.05-0.09,0.09-0.14,0.141l-3.68,3.689l-0.5,0.5c-0.011,0.01-0.021,0.01-0.021,0.021"
   id="path2" />
	
		<path
   fill="#A6A6A6"
   stroke="#1B1B1B"
   stroke-width="0.5"
   stroke-linecap="round"
   stroke-linejoin="round"
   stroke-miterlimit="10"
   d="   M275.109,405.974c0,2.762-2.238,5-5,5h-103c-2.762,0-5-2.238-5-5v-91c0-2.763,2.238-5,5-5h103c2.762,0,5,2.237,5,5V405.974z"
   id="path4" />
	<g
   id="g38">
		
			<path
   fill="#D9D9D9"
   stroke="#5D5D5D"
   stroke-width="0.5"
   stroke-linecap="round"
   stroke-linejoin="round"
   stroke-miterlimit="10"
   d="    M263.109,357.215c0,2.763-2.238,5-5,5h-79c-2.762,0-5-2.237-5-5v-33.5c0-2.762,2.238-5,5-5h79c2.762,0,5,2.238,5,5V357.215z"
   id="path6" />
		<g
   id="g36">
			
				<rect
   x="174.109"
   y="368.633"
   fill="#FFFFFF"
   stroke="#767676"
   stroke-width="0.5"
   stroke-linecap="round"
   stroke-linejoin="round"
   stroke-miterlimit="10"
   width="25"
   height="30"
   id="rect8" />
			
				<rect
   x="206.109"
   y="368.633"
   fill="#FFFFFF"
   stroke="#767676"
   stroke-width="0.5"
   stroke-linecap="round"
   stroke-linejoin="round"
   stroke-miterlimit="10"
   width="25"
   height="30"
   id="rect10" />
			
				<rect
   x="238.109"
   y="368.633"
   fill="#FFFFFF"
   stroke="#767676"
   stroke-width="0.5"
   stroke-linecap="round"
   stroke-linejoin="round"
   stroke-miterlimit="10"
   width="25"
   height="30"
   id="rect12" />
			<g
   id="g22">
				<g
   id="g18">
					
						<polygon
   fill="#FFFFFF"
   stroke="#1B1B1B"
   stroke-width="0.5"
   stroke-linecap="round"
   stroke-linejoin="round"
   stroke-miterlimit="10"
   points="       177.161,386.869 186.609,376.395 196.058,386.869      "
   id="polygon14" />
					<polygon
   fill="#E5E5E5"
   points="186.648,376.66 186.063,377.316 194.303,386.545 195.475,386.545      "
   id="polygon16" />
				</g>
				
					<line
   fill="none"
   stroke="#1B1B1B"
   stroke-width="0.5"
   stroke-miterlimit="10"
   x1="177.161"
   y1="390.869"
   x2="196.058"
   y2="390.869"
   id="line20" />
			</g>
			<g
   id="g32">
				<g
   id="g28">
					
						<polygon
   fill="#FFFFFF"
   stroke="#1B1B1B"
   stroke-width="0.5"
   stroke-linecap="round"
   stroke-linejoin="round"
   stroke-miterlimit="10"
   points="       228.058,380.395 218.609,390.869 209.161,380.395      "
   id="polygon24" />
					<polygon
   fill="#E5E5E5"
   points="218.57,390.604 219.156,389.947 210.916,380.719 209.744,380.719      "
   id="polygon26" />
				</g>
				
					<line
   fill="none"
   stroke="#1B1B1B"
   stroke-width="0.5"
   stroke-miterlimit="10"
   x1="228.058"
   y1="376.395"
   x2="209.161"
   y2="376.395"
   id="line30" />
			</g>
			
				<line
   fill="none"
   stroke="#1B1B1B"
   stroke-width="0.5"
   stroke-linecap="round"
   stroke-linejoin="round"
   stroke-miterlimit="10"
   x1="258.922"
   y1="375.32"
   x2="242.297"
   y2="391.945"
   id="line34" />
		</g>
	</g>
	
		<line
   fill="none"
   stroke="#1B1B1B"
   stroke-width="0.5"
   stroke-linecap="round"
   stroke-linejoin="round"
   stroke-miterlimit="10"
   x1="275.109"
   y1="314.974"
   x2="279.109"
   y2="310.974"
   id="line40" />
	
		<line
   fill="none"
   stroke="#1B1B1B"
   stroke-width="0.5"
   stroke-linecap="round"
   stroke-linejoin="round"
   stroke-miterlimit="10"
   x1="270.109"
   y1="309.974"
   x2="275.109"
   y2="305.974"
   id="line42" />
</g>
</svg>
