<?xml version="1.0" encoding="UTF-8" standalone="no"?>
<svg
   xmlns:dc="http://purl.org/dc/elements/1.1/"
   xmlns:cc="http://creativecommons.org/ns#"
   xmlns:rdf="http://www.w3.org/1999/02/22-rdf-syntax-ns#"
   xmlns:svg="http://www.w3.org/2000/svg"
   xmlns="http://www.w3.org/2000/svg"
   xmlns:sodipodi="http://sodipodi.sourceforge.net/DTD/sodipodi-0.dtd"
   xmlns:inkscape="http://www.inkscape.org/namespaces/inkscape"
   version="1.1"
   id="图层_1"
   x="0px"
   y="0px"
   width="122.833px"
   height="64.166px"
   viewBox="25.271 202.123 122.833 64.166"
   enable-background="new 25.271 202.123 122.833 64.166"
   xml:space="preserve"
   sodipodi:docname="01-06.svg"><metadata
   id="metadata133"><rdf:RDF><cc:Work
       rdf:about=""><dc:format>image/svg+xml</dc:format><dc:type
         rdf:resource="http://purl.org/dc/dcmitype/StillImage" /></cc:Work></rdf:RDF></metadata><defs
   id="defs131" /><sodipodi:namedview
   pagecolor="#ffffff"
   bordercolor="#666666"
   borderopacity="1"
   objecttolerance="10"
   gridtolerance="10"
   guidetolerance="10"
   inkscape:pageopacity="0"
   inkscape:pageshadow="2"
   inkscape:window-width="640"
   inkscape:window-height="480"
   id="namedview129" />
<g
   id="g126">
	
		<rect
   x="30.521"
   y="208.039"
   fill="#8CA0BF"
   stroke="#231815"
   stroke-width="0.5"
   stroke-linecap="round"
   stroke-linejoin="round"
   stroke-miterlimit="10"
   width="12.667"
   height="58"
   id="rect2" />
	
		<rect
   x="50.854"
   y="204.602"
   fill="#8CA0BF"
   stroke="#231815"
   stroke-width="0.5"
   stroke-linecap="round"
   stroke-linejoin="round"
   stroke-miterlimit="10"
   width="81.333"
   height="57.104"
   id="rect4" />
	
		<rect
   x="125.854"
   y="208.039"
   fill="#8CA0BF"
   stroke="#231815"
   stroke-width="0.5"
   stroke-linecap="round"
   stroke-linejoin="round"
   stroke-miterlimit="10"
   width="12.667"
   height="58"
   id="rect6" />
	
		<polygon
   fill="#B2C9EA"
   stroke="#231815"
   stroke-width="0.5"
   stroke-linecap="round"
   stroke-linejoin="round"
   stroke-miterlimit="10"
   points="   142.271,202.373 135.187,202.373 55.854,202.373 50.854,202.373 43.188,202.373 30.521,208.039 43.188,208.039 50.872,204.602    131.516,204.602 125.854,208.039 138.521,208.039 147.854,202.373  "
   id="polygon8" />
	
		<polygon
   fill="#596D8C"
   stroke="#231815"
   stroke-width="0.5"
   stroke-linecap="round"
   stroke-linejoin="round"
   stroke-miterlimit="10"
   points="   138.521,208.039 138.521,214.411 133.521,217.306 133.521,245.973 138.521,243.078 138.521,266.039 147.854,260.373    147.854,202.373  "
   id="polygon10" />
	
		<rect
   x="25.521"
   y="217.306"
   fill="#8CA0BF"
   stroke="#231815"
   stroke-width="0.5"
   stroke-linecap="round"
   stroke-linejoin="round"
   stroke-miterlimit="10"
   width="12.667"
   height="28.667"
   id="rect12" />
	
		<rect
   x="25.521"
   y="217.306"
   fill="#CE4242"
   stroke="#231815"
   stroke-width="0.5"
   stroke-linecap="round"
   stroke-linejoin="round"
   stroke-miterlimit="10"
   width="12.667"
   height="7.482"
   id="rect14" />
	
		<rect
   x="26.854"
   y="226.727"
   fill="#596D8C"
   stroke="#231815"
   stroke-width="0.5"
   stroke-linecap="round"
   stroke-linejoin="round"
   stroke-miterlimit="10"
   width="10"
   height="17.997"
   id="rect16" />
	
		<polygon
   fill="#596D8C"
   stroke="#231815"
   stroke-width="0.5"
   stroke-linecap="round"
   stroke-linejoin="round"
   stroke-miterlimit="10"
   points="   43.188,208.039 43.188,214.392 38.188,217.306 38.188,245.973 43.188,243.059 43.188,266.039 50.854,261.603 50.854,204.602  "
   id="polygon18" />
	
		<polygon
   fill="#94B1D3"
   stroke="#231815"
   stroke-width="0.5"
   stroke-linecap="round"
   stroke-linejoin="round"
   stroke-miterlimit="10"
   points="   43.188,214.411 30.521,214.411 25.521,217.306 38.188,217.306  "
   id="polygon20" />
	
		<rect
   x="50.854"
   y="214.411"
   fill="#3F5677"
   stroke="#231815"
   stroke-width="0.5"
   stroke-linecap="round"
   stroke-linejoin="round"
   stroke-miterlimit="10"
   width="8.332"
   height="47.294"
   id="rect22" />
	
		<rect
   x="59.187"
   y="214.411"
   fill="#3F5677"
   stroke="#231815"
   stroke-width="0.5"
   stroke-linecap="round"
   stroke-linejoin="round"
   stroke-miterlimit="10"
   width="8.332"
   height="47.294"
   id="rect24" />
	
		<rect
   x="67.519"
   y="214.411"
   fill="#3F5677"
   stroke="#231815"
   stroke-width="0.5"
   stroke-linecap="round"
   stroke-linejoin="round"
   stroke-miterlimit="10"
   width="8.332"
   height="47.294"
   id="rect26" />
	
		<rect
   x="75.851"
   y="214.411"
   fill="#3F5677"
   stroke="#231815"
   stroke-width="0.5"
   stroke-linecap="round"
   stroke-linejoin="round"
   stroke-miterlimit="10"
   width="8.332"
   height="47.294"
   id="rect28" />
	
		<rect
   x="84.183"
   y="214.411"
   fill="#3F5677"
   stroke="#231815"
   stroke-width="0.5"
   stroke-linecap="round"
   stroke-linejoin="round"
   stroke-miterlimit="10"
   width="8.332"
   height="47.294"
   id="rect30" />
	
		<rect
   x="92.515"
   y="214.411"
   fill="#3F5677"
   stroke="#231815"
   stroke-width="0.5"
   stroke-linecap="round"
   stroke-linejoin="round"
   stroke-miterlimit="10"
   width="8.332"
   height="47.294"
   id="rect32" />
	
		<rect
   x="100.847"
   y="214.411"
   fill="#3F5677"
   stroke="#231815"
   stroke-width="0.5"
   stroke-linecap="round"
   stroke-linejoin="round"
   stroke-miterlimit="10"
   width="8.332"
   height="47.294"
   id="rect34" />
	
		<rect
   x="109.179"
   y="214.411"
   fill="#3F5677"
   stroke="#231815"
   stroke-width="0.5"
   stroke-linecap="round"
   stroke-linejoin="round"
   stroke-miterlimit="10"
   width="8.332"
   height="47.294"
   id="rect36" />
	
		<rect
   x="117.511"
   y="214.411"
   fill="#3F5677"
   stroke="#231815"
   stroke-width="0.5"
   stroke-linecap="round"
   stroke-linejoin="round"
   stroke-miterlimit="10"
   width="8.094"
   height="47.294"
   id="rect38" />
	
		<rect
   x="120.854"
   y="217.306"
   fill="#8CA0BF"
   stroke="#231815"
   stroke-width="0.5"
   stroke-linecap="round"
   stroke-linejoin="round"
   stroke-miterlimit="10"
   width="12.667"
   height="28.667"
   id="rect40" />
	
		<polygon
   fill="#94B1D3"
   stroke="#231815"
   stroke-width="0.5"
   stroke-linecap="round"
   stroke-linejoin="round"
   stroke-miterlimit="10"
   points="   138.521,214.411 125.854,214.411 120.854,217.306 133.521,217.306  "
   id="polygon42" />
	
		<rect
   x="120.854"
   y="217.306"
   fill="#CE4242"
   stroke="#231815"
   stroke-width="0.5"
   stroke-linecap="round"
   stroke-linejoin="round"
   stroke-miterlimit="10"
   width="12.667"
   height="7.482"
   id="rect44" />
	
		<rect
   x="38.188"
   y="217.306"
   fill="#8CA0BF"
   stroke="#231815"
   stroke-width="0.5"
   stroke-linecap="round"
   stroke-linejoin="round"
   stroke-miterlimit="10"
   width="82.667"
   height="28.667"
   id="rect46" />
	
		<rect
   x="41.854"
   y="226.727"
   fill="#596D8C"
   stroke="#231815"
   stroke-width="0.5"
   stroke-linecap="round"
   stroke-linejoin="round"
   stroke-miterlimit="10"
   width="75.333"
   height="16.514"
   id="rect48" />
	
		<rect
   x="41.854"
   y="217.306"
   fill="#CE4242"
   stroke="#231815"
   stroke-width="0.5"
   stroke-linecap="round"
   stroke-linejoin="round"
   stroke-miterlimit="10"
   width="75.333"
   height="7.482"
   id="rect50" />
	
		<polygon
   fill="#94B1D3"
   stroke="#231815"
   stroke-width="0.5"
   stroke-linecap="round"
   stroke-linejoin="round"
   stroke-miterlimit="10"
   points="   125.854,214.411 43.188,214.411 38.188,217.306 120.854,217.306  "
   id="polygon52" />
	<g
   id="g102">
		<g
   id="g60">
			
				<path
   fill="#94B1D3"
   stroke="#231815"
   stroke-width="0.5"
   stroke-linecap="round"
   stroke-linejoin="round"
   stroke-miterlimit="10"
   d="     M61.156,212.119v3.048c0,0.645,1.337,1.165,2.986,1.165s2.986-0.521,2.986-1.165v-3.048H61.156z"
   id="path54" />
			<path
   fill="#3F5677"
   d="M65.802,212.119v3.048c0,0.555-0.994,1.017-2.323,1.135c0.214,0.02,0.436,0.03,0.664,0.03     c1.649,0,2.986-0.521,2.986-1.165v-3.048H65.802z"
   id="path56" />
			
				<ellipse
   fill="#94B1D3"
   stroke="#231815"
   stroke-width="0.5"
   stroke-linecap="round"
   stroke-linejoin="round"
   stroke-miterlimit="10"
   cx="64.143"
   cy="212.119"
   rx="2.986"
   ry="0.83"
   id="ellipse58" />
		</g>
		<g
   id="g68">
			
				<path
   fill="#94B1D3"
   stroke="#231815"
   stroke-width="0.5"
   stroke-linecap="round"
   stroke-linejoin="round"
   stroke-miterlimit="10"
   d="     M70.3,212.119v3.048c0,0.645,1.337,1.165,2.986,1.165s2.986-0.521,2.986-1.165v-3.048H70.3z"
   id="path62" />
			<path
   fill="#3F5677"
   d="M74.945,212.119v3.048c0,0.555-0.994,1.017-2.323,1.135c0.214,0.02,0.436,0.03,0.664,0.03     c1.649,0,2.986-0.521,2.986-1.165v-3.048H74.945z"
   id="path64" />
			
				<ellipse
   fill="#94B1D3"
   stroke="#231815"
   stroke-width="0.5"
   stroke-linecap="round"
   stroke-linejoin="round"
   stroke-miterlimit="10"
   cx="73.286"
   cy="212.119"
   rx="2.986"
   ry="0.83"
   id="ellipse66" />
		</g>
		<g
   id="g76">
			
				<path
   fill="#94B1D3"
   stroke="#231815"
   stroke-width="0.5"
   stroke-linecap="round"
   stroke-linejoin="round"
   stroke-miterlimit="10"
   d="     M79.443,212.119v3.048c0,0.645,1.337,1.165,2.986,1.165c1.649,0,2.986-0.521,2.986-1.165v-3.048H79.443z"
   id="path70" />
			<path
   fill="#3F5677"
   d="M84.089,212.119v3.048c0,0.555-0.994,1.017-2.323,1.135c0.214,0.02,0.436,0.03,0.664,0.03     c1.649,0,2.986-0.521,2.986-1.165v-3.048H84.089z"
   id="path72" />
			
				<ellipse
   fill="#94B1D3"
   stroke="#231815"
   stroke-width="0.5"
   stroke-linecap="round"
   stroke-linejoin="round"
   stroke-miterlimit="10"
   cx="82.43"
   cy="212.119"
   rx="2.986"
   ry="0.83"
   id="ellipse74" />
		</g>
		<g
   id="g84">
			
				<path
   fill="#94B1D3"
   stroke="#231815"
   stroke-width="0.5"
   stroke-linecap="round"
   stroke-linejoin="round"
   stroke-miterlimit="10"
   d="     M88.587,212.119v3.048c0,0.645,1.337,1.165,2.986,1.165c1.649,0,2.986-0.521,2.986-1.165v-3.048H88.587z"
   id="path78" />
			<path
   fill="#3F5677"
   d="M93.232,212.119v3.048c0,0.555-0.994,1.017-2.323,1.135c0.214,0.02,0.436,0.03,0.664,0.03     c1.649,0,2.986-0.521,2.986-1.165v-3.048H93.232z"
   id="path80" />
			
				<ellipse
   fill="#94B1D3"
   stroke="#231815"
   stroke-width="0.5"
   stroke-linecap="round"
   stroke-linejoin="round"
   stroke-miterlimit="10"
   cx="91.573"
   cy="212.119"
   rx="2.986"
   ry="0.83"
   id="ellipse82" />
		</g>
		<g
   id="g92">
			
				<path
   fill="#94B1D3"
   stroke="#231815"
   stroke-width="0.5"
   stroke-linecap="round"
   stroke-linejoin="round"
   stroke-miterlimit="10"
   d="     M97.73,212.119v3.048c0,0.645,1.337,1.165,2.986,1.165c1.649,0,2.986-0.521,2.986-1.165v-3.048H97.73z"
   id="path86" />
			<path
   fill="#3F5677"
   d="M102.376,212.119v3.048c0,0.555-0.994,1.017-2.323,1.135c0.214,0.02,0.436,0.03,0.664,0.03     c1.649,0,2.986-0.521,2.986-1.165v-3.048H102.376z"
   id="path88" />
			
				<ellipse
   fill="#94B1D3"
   stroke="#231815"
   stroke-width="0.5"
   stroke-linecap="round"
   stroke-linejoin="round"
   stroke-miterlimit="10"
   cx="100.717"
   cy="212.119"
   rx="2.986"
   ry="0.83"
   id="ellipse90" />
		</g>
		<g
   id="g100">
			
				<path
   fill="#94B1D3"
   stroke="#231815"
   stroke-width="0.5"
   stroke-linecap="round"
   stroke-linejoin="round"
   stroke-miterlimit="10"
   d="     M106.874,212.119v3.048c0,0.645,1.337,1.165,2.986,1.165s2.986-0.521,2.986-1.165v-3.048H106.874z"
   id="path94" />
			<path
   fill="#3F5677"
   d="M111.52,212.119v3.048c0,0.555-0.994,1.017-2.323,1.135c0.214,0.02,0.436,0.03,0.664,0.03     c1.649,0,2.986-0.521,2.986-1.165v-3.048H111.52z"
   id="path96" />
			
				<ellipse
   fill="#94B1D3"
   stroke="#231815"
   stroke-width="0.5"
   stroke-linecap="round"
   stroke-linejoin="round"
   stroke-miterlimit="10"
   cx="109.86"
   cy="212.119"
   rx="2.986"
   ry="0.83"
   id="ellipse98" />
		</g>
	</g>
	
		<rect
   x="46.188"
   y="227.789"
   fill="#94B1D3"
   stroke="#231815"
   stroke-width="0.5"
   stroke-linecap="round"
   stroke-linejoin="round"
   stroke-miterlimit="10"
   width="3.166"
   height="3.167"
   id="rect104" />
	
		<rect
   x="52.521"
   y="227.789"
   fill="#94B1D3"
   stroke="#231815"
   stroke-width="0.5"
   stroke-linecap="round"
   stroke-linejoin="round"
   stroke-miterlimit="10"
   width="3.166"
   height="3.167"
   id="rect106" />
	
		<rect
   x="58.854"
   y="227.789"
   fill="#94B1D3"
   stroke="#231815"
   stroke-width="0.5"
   stroke-linecap="round"
   stroke-linejoin="round"
   stroke-miterlimit="10"
   width="3.166"
   height="3.167"
   id="rect108" />
	
		<rect
   x="65.187"
   y="227.789"
   fill="#94B1D3"
   stroke="#231815"
   stroke-width="0.5"
   stroke-linecap="round"
   stroke-linejoin="round"
   stroke-miterlimit="10"
   width="3.166"
   height="3.167"
   id="rect110" />
	
		<rect
   x="71.52"
   y="227.789"
   fill="#94B1D3"
   stroke="#231815"
   stroke-width="0.5"
   stroke-linecap="round"
   stroke-linejoin="round"
   stroke-miterlimit="10"
   width="3.166"
   height="3.167"
   id="rect112" />
	
		<rect
   x="77.853"
   y="227.789"
   fill="#94B1D3"
   stroke="#231815"
   stroke-width="0.5"
   stroke-linecap="round"
   stroke-linejoin="round"
   stroke-miterlimit="10"
   width="3.166"
   height="3.167"
   id="rect114" />
	
		<rect
   x="84.186"
   y="227.789"
   fill="#94B1D3"
   stroke="#231815"
   stroke-width="0.5"
   stroke-linecap="round"
   stroke-linejoin="round"
   stroke-miterlimit="10"
   width="3.166"
   height="3.167"
   id="rect116" />
	
		<rect
   x="90.519"
   y="227.789"
   fill="#94B1D3"
   stroke="#231815"
   stroke-width="0.5"
   stroke-linecap="round"
   stroke-linejoin="round"
   stroke-miterlimit="10"
   width="3.166"
   height="3.167"
   id="rect118" />
	
		<rect
   x="96.852"
   y="227.789"
   fill="#94B1D3"
   stroke="#231815"
   stroke-width="0.5"
   stroke-linecap="round"
   stroke-linejoin="round"
   stroke-miterlimit="10"
   width="3.166"
   height="3.167"
   id="rect120" />
	
		<rect
   x="103.185"
   y="227.789"
   fill="#94B1D3"
   stroke="#231815"
   stroke-width="0.5"
   stroke-linecap="round"
   stroke-linejoin="round"
   stroke-miterlimit="10"
   width="3.166"
   height="3.167"
   id="rect122" />
	
		<rect
   x="109.518"
   y="227.789"
   fill="#94B1D3"
   stroke="#231815"
   stroke-width="0.5"
   stroke-linecap="round"
   stroke-linejoin="round"
   stroke-miterlimit="10"
   width="3.166"
   height="3.167"
   id="rect124" />
</g>
</svg>
