<?xml version="1.0" encoding="UTF-8" standalone="no"?>
<svg
   xmlns:dc="http://purl.org/dc/elements/1.1/"
   xmlns:cc="http://creativecommons.org/ns#"
   xmlns:rdf="http://www.w3.org/1999/02/22-rdf-syntax-ns#"
   xmlns:svg="http://www.w3.org/2000/svg"
   xmlns="http://www.w3.org/2000/svg"
   xmlns:sodipodi="http://sodipodi.sourceforge.net/DTD/sodipodi-0.dtd"
   xmlns:inkscape="http://www.inkscape.org/namespaces/inkscape"
   version="1.1"
   id="图层_1"
   x="0px"
   y="0px"
   width="122.833px"
   height="64.166px"
   viewBox="165.712 204.689 122.833 64.166"
   enable-background="new 165.712 204.689 122.833 64.166"
   xml:space="preserve"
   sodipodi:docname="01-07.svg"><metadata
   id="metadata133"><rdf:RDF><cc:Work
       rdf:about=""><dc:format>image/svg+xml</dc:format><dc:type
         rdf:resource="http://purl.org/dc/dcmitype/StillImage" /></cc:Work></rdf:RDF></metadata><defs
   id="defs131" /><sodipodi:namedview
   pagecolor="#ffffff"
   bordercolor="#666666"
   borderopacity="1"
   objecttolerance="10"
   gridtolerance="10"
   guidetolerance="10"
   inkscape:pageopacity="0"
   inkscape:pageshadow="2"
   inkscape:window-width="640"
   inkscape:window-height="480"
   id="namedview129" />
<g
   id="g126">
	
		<rect
   x="170.962"
   y="210.605"
   fill="#BFB5AE"
   stroke="#231815"
   stroke-width="0.5"
   stroke-linecap="round"
   stroke-linejoin="round"
   stroke-miterlimit="10"
   width="12.667"
   height="58"
   id="rect2" />
	
		<rect
   x="191.296"
   y="207.168"
   fill="#BFB5AE"
   stroke="#231815"
   stroke-width="0.5"
   stroke-linecap="round"
   stroke-linejoin="round"
   stroke-miterlimit="10"
   width="81.333"
   height="57.104"
   id="rect4" />
	
		<rect
   x="266.296"
   y="210.605"
   fill="#BFB5AE"
   stroke="#231815"
   stroke-width="0.5"
   stroke-linecap="round"
   stroke-linejoin="round"
   stroke-miterlimit="10"
   width="12.667"
   height="58"
   id="rect6" />
	
		<polygon
   fill="#EAE2DC"
   stroke="#231815"
   stroke-width="0.5"
   stroke-linecap="round"
   stroke-linejoin="round"
   stroke-miterlimit="10"
   points="   282.712,204.939 275.628,204.939 196.296,204.939 191.296,204.939 183.629,204.939 170.962,210.605 183.629,210.605    191.313,207.168 271.957,207.168 266.296,210.605 278.963,210.605 288.295,204.939  "
   id="polygon8" />
	
		<polygon
   fill="#8C7D72"
   stroke="#231815"
   stroke-width="0.5"
   stroke-linecap="round"
   stroke-linejoin="round"
   stroke-miterlimit="10"
   points="   278.963,210.605 278.963,216.978 273.963,219.873 273.963,248.54 278.963,245.645 278.963,268.605 288.295,262.939    288.295,204.939  "
   id="polygon10" />
	
		<rect
   x="165.962"
   y="219.873"
   fill="#BFB5AE"
   stroke="#231815"
   stroke-width="0.5"
   stroke-linecap="round"
   stroke-linejoin="round"
   stroke-miterlimit="10"
   width="12.667"
   height="28.667"
   id="rect12" />
	
		<rect
   x="165.962"
   y="219.873"
   fill="#67CE6A"
   stroke="#231815"
   stroke-width="0.5"
   stroke-linecap="round"
   stroke-linejoin="round"
   stroke-miterlimit="10"
   width="12.667"
   height="7.483"
   id="rect14" />
	
		<rect
   x="167.295"
   y="229.293"
   fill="#8C7D72"
   stroke="#231815"
   stroke-width="0.5"
   stroke-linecap="round"
   stroke-linejoin="round"
   stroke-miterlimit="10"
   width="10"
   height="17.997"
   id="rect16" />
	
		<polygon
   fill="#8C7D72"
   stroke="#231815"
   stroke-width="0.5"
   stroke-linecap="round"
   stroke-linejoin="round"
   stroke-miterlimit="10"
   points="   183.629,210.605 183.629,216.958 178.629,219.873 178.629,248.54 183.629,245.625 183.629,268.605 191.296,264.169    191.296,207.168  "
   id="polygon18" />
	
		<polygon
   fill="#D3C4BA"
   stroke="#231815"
   stroke-width="0.5"
   stroke-linecap="round"
   stroke-linejoin="round"
   stroke-miterlimit="10"
   points="   183.629,216.978 170.962,216.978 165.962,219.873 178.629,219.873  "
   id="polygon20" />
	
		<rect
   x="191.296"
   y="216.978"
   fill="#776354"
   stroke="#231815"
   stroke-width="0.5"
   stroke-linecap="round"
   stroke-linejoin="round"
   stroke-miterlimit="10"
   width="8.332"
   height="47.294"
   id="rect22" />
	
		<rect
   x="199.628"
   y="216.978"
   fill="#776354"
   stroke="#231815"
   stroke-width="0.5"
   stroke-linecap="round"
   stroke-linejoin="round"
   stroke-miterlimit="10"
   width="8.332"
   height="47.294"
   id="rect24" />
	
		<rect
   x="207.96"
   y="216.978"
   fill="#776354"
   stroke="#231815"
   stroke-width="0.5"
   stroke-linecap="round"
   stroke-linejoin="round"
   stroke-miterlimit="10"
   width="8.332"
   height="47.294"
   id="rect26" />
	
		<rect
   x="216.292"
   y="216.978"
   fill="#776354"
   stroke="#231815"
   stroke-width="0.5"
   stroke-linecap="round"
   stroke-linejoin="round"
   stroke-miterlimit="10"
   width="8.332"
   height="47.294"
   id="rect28" />
	
		<rect
   x="224.624"
   y="216.978"
   fill="#776354"
   stroke="#231815"
   stroke-width="0.5"
   stroke-linecap="round"
   stroke-linejoin="round"
   stroke-miterlimit="10"
   width="8.332"
   height="47.294"
   id="rect30" />
	
		<rect
   x="232.956"
   y="216.978"
   fill="#776354"
   stroke="#231815"
   stroke-width="0.5"
   stroke-linecap="round"
   stroke-linejoin="round"
   stroke-miterlimit="10"
   width="8.332"
   height="47.294"
   id="rect32" />
	
		<rect
   x="241.288"
   y="216.978"
   fill="#776354"
   stroke="#231815"
   stroke-width="0.5"
   stroke-linecap="round"
   stroke-linejoin="round"
   stroke-miterlimit="10"
   width="8.332"
   height="47.294"
   id="rect34" />
	
		<rect
   x="249.62"
   y="216.978"
   fill="#776354"
   stroke="#231815"
   stroke-width="0.5"
   stroke-linecap="round"
   stroke-linejoin="round"
   stroke-miterlimit="10"
   width="8.332"
   height="47.294"
   id="rect36" />
	
		<rect
   x="257.952"
   y="216.978"
   fill="#776354"
   stroke="#231815"
   stroke-width="0.5"
   stroke-linecap="round"
   stroke-linejoin="round"
   stroke-miterlimit="10"
   width="8.094"
   height="47.294"
   id="rect38" />
	
		<rect
   x="261.296"
   y="219.873"
   fill="#BFB5AE"
   stroke="#231815"
   stroke-width="0.5"
   stroke-linecap="round"
   stroke-linejoin="round"
   stroke-miterlimit="10"
   width="12.667"
   height="28.667"
   id="rect40" />
	
		<polygon
   fill="#D3C4BA"
   stroke="#231815"
   stroke-width="0.5"
   stroke-linecap="round"
   stroke-linejoin="round"
   stroke-miterlimit="10"
   points="   278.963,216.978 266.296,216.978 261.296,219.873 273.963,219.873  "
   id="polygon42" />
	
		<rect
   x="261.296"
   y="219.873"
   fill="#67CE6A"
   stroke="#231815"
   stroke-width="0.5"
   stroke-linecap="round"
   stroke-linejoin="round"
   stroke-miterlimit="10"
   width="12.667"
   height="7.483"
   id="rect44" />
	
		<rect
   x="178.629"
   y="219.873"
   fill="#BFB5AE"
   stroke="#231815"
   stroke-width="0.5"
   stroke-linecap="round"
   stroke-linejoin="round"
   stroke-miterlimit="10"
   width="82.667"
   height="28.667"
   id="rect46" />
	
		<rect
   x="182.296"
   y="229.293"
   fill="#8C7D72"
   stroke="#231815"
   stroke-width="0.5"
   stroke-linecap="round"
   stroke-linejoin="round"
   stroke-miterlimit="10"
   width="75.333"
   height="16.515"
   id="rect48" />
	
		<rect
   x="182.296"
   y="219.873"
   fill="#67CE6A"
   stroke="#231815"
   stroke-width="0.5"
   stroke-linecap="round"
   stroke-linejoin="round"
   stroke-miterlimit="10"
   width="75.333"
   height="7.483"
   id="rect50" />
	
		<polygon
   fill="#D3C4BA"
   stroke="#231815"
   stroke-width="0.5"
   stroke-linecap="round"
   stroke-linejoin="round"
   stroke-miterlimit="10"
   points="   266.296,216.978 183.629,216.978 178.629,219.873 261.296,219.873  "
   id="polygon52" />
	<g
   id="g102">
		<g
   id="g60">
			
				<path
   fill="#D3C4BA"
   stroke="#231815"
   stroke-width="0.5"
   stroke-linecap="round"
   stroke-linejoin="round"
   stroke-miterlimit="10"
   d="     M201.598,214.686v3.048c0,0.644,1.337,1.165,2.986,1.165s2.986-0.521,2.986-1.165v-3.048H201.598z"
   id="path54" />
			<path
   fill="#776354"
   d="M206.243,214.686v3.048c0,0.554-0.994,1.016-2.323,1.134c0.214,0.021,0.436,0.031,0.664,0.031     c1.649,0,2.986-0.521,2.986-1.165v-3.048H206.243z"
   id="path56" />
			
				<ellipse
   fill="#D3C4BA"
   stroke="#231815"
   stroke-width="0.5"
   stroke-linecap="round"
   stroke-linejoin="round"
   stroke-miterlimit="10"
   cx="204.584"
   cy="214.686"
   rx="2.986"
   ry="0.83"
   id="ellipse58" />
		</g>
		<g
   id="g68">
			
				<path
   fill="#D3C4BA"
   stroke="#231815"
   stroke-width="0.5"
   stroke-linecap="round"
   stroke-linejoin="round"
   stroke-miterlimit="10"
   d="     M210.741,214.686v3.048c0,0.644,1.337,1.165,2.986,1.165s2.986-0.521,2.986-1.165v-3.048H210.741z"
   id="path62" />
			<path
   fill="#776354"
   d="M215.387,214.686v3.048c0,0.554-0.994,1.016-2.323,1.134c0.214,0.021,0.436,0.031,0.664,0.031     c1.649,0,2.986-0.521,2.986-1.165v-3.048H215.387z"
   id="path64" />
			
				<ellipse
   fill="#D3C4BA"
   stroke="#231815"
   stroke-width="0.5"
   stroke-linecap="round"
   stroke-linejoin="round"
   stroke-miterlimit="10"
   cx="213.728"
   cy="214.686"
   rx="2.986"
   ry="0.83"
   id="ellipse66" />
		</g>
		<g
   id="g76">
			
				<path
   fill="#D3C4BA"
   stroke="#231815"
   stroke-width="0.5"
   stroke-linecap="round"
   stroke-linejoin="round"
   stroke-miterlimit="10"
   d="     M219.885,214.686v3.048c0,0.644,1.337,1.165,2.986,1.165s2.986-0.521,2.986-1.165v-3.048H219.885z"
   id="path70" />
			<path
   fill="#776354"
   d="M224.53,214.686v3.048c0,0.554-0.994,1.016-2.323,1.134c0.214,0.021,0.436,0.031,0.664,0.031     c1.649,0,2.986-0.521,2.986-1.165v-3.048H224.53z"
   id="path72" />
			
				<ellipse
   fill="#D3C4BA"
   stroke="#231815"
   stroke-width="0.5"
   stroke-linecap="round"
   stroke-linejoin="round"
   stroke-miterlimit="10"
   cx="222.871"
   cy="214.686"
   rx="2.986"
   ry="0.83"
   id="ellipse74" />
		</g>
		<g
   id="g84">
			
				<path
   fill="#D3C4BA"
   stroke="#231815"
   stroke-width="0.5"
   stroke-linecap="round"
   stroke-linejoin="round"
   stroke-miterlimit="10"
   d="     M229.028,214.686v3.048c0,0.644,1.337,1.165,2.986,1.165s2.986-0.521,2.986-1.165v-3.048H229.028z"
   id="path78" />
			<path
   fill="#776354"
   d="M233.674,214.686v3.048c0,0.554-0.994,1.016-2.323,1.134c0.214,0.021,0.436,0.031,0.664,0.031     c1.649,0,2.986-0.521,2.986-1.165v-3.048H233.674z"
   id="path80" />
			
				<ellipse
   fill="#D3C4BA"
   stroke="#231815"
   stroke-width="0.5"
   stroke-linecap="round"
   stroke-linejoin="round"
   stroke-miterlimit="10"
   cx="232.015"
   cy="214.686"
   rx="2.986"
   ry="0.83"
   id="ellipse82" />
		</g>
		<g
   id="g92">
			
				<path
   fill="#D3C4BA"
   stroke="#231815"
   stroke-width="0.5"
   stroke-linecap="round"
   stroke-linejoin="round"
   stroke-miterlimit="10"
   d="     M238.172,214.686v3.048c0,0.644,1.337,1.165,2.986,1.165c1.649,0,2.986-0.521,2.986-1.165v-3.048H238.172z"
   id="path86" />
			<path
   fill="#776354"
   d="M242.817,214.686v3.048c0,0.554-0.994,1.016-2.323,1.134c0.214,0.021,0.436,0.031,0.664,0.031     c1.649,0,2.986-0.521,2.986-1.165v-3.048H242.817z"
   id="path88" />
			
				<ellipse
   fill="#D3C4BA"
   stroke="#231815"
   stroke-width="0.5"
   stroke-linecap="round"
   stroke-linejoin="round"
   stroke-miterlimit="10"
   cx="241.158"
   cy="214.686"
   rx="2.986"
   ry="0.83"
   id="ellipse90" />
		</g>
		<g
   id="g100">
			
				<path
   fill="#D3C4BA"
   stroke="#231815"
   stroke-width="0.5"
   stroke-linecap="round"
   stroke-linejoin="round"
   stroke-miterlimit="10"
   d="     M247.315,214.686v3.048c0,0.644,1.337,1.165,2.986,1.165c1.649,0,2.986-0.521,2.986-1.165v-3.048H247.315z"
   id="path94" />
			<path
   fill="#776354"
   d="M251.961,214.686v3.048c0,0.554-0.994,1.016-2.323,1.134c0.214,0.021,0.436,0.031,0.664,0.031     c1.649,0,2.986-0.521,2.986-1.165v-3.048H251.961z"
   id="path96" />
			
				<ellipse
   fill="#D3C4BA"
   stroke="#231815"
   stroke-width="0.5"
   stroke-linecap="round"
   stroke-linejoin="round"
   stroke-miterlimit="10"
   cx="250.302"
   cy="214.686"
   rx="2.986"
   ry="0.83"
   id="ellipse98" />
		</g>
	</g>
	
		<rect
   x="186.629"
   y="230.355"
   fill="#D3C4BA"
   stroke="#231815"
   stroke-width="0.5"
   stroke-linecap="round"
   stroke-linejoin="round"
   stroke-miterlimit="10"
   width="3.166"
   height="3.167"
   id="rect104" />
	
		<rect
   x="192.962"
   y="230.355"
   fill="#D3C4BA"
   stroke="#231815"
   stroke-width="0.5"
   stroke-linecap="round"
   stroke-linejoin="round"
   stroke-miterlimit="10"
   width="3.166"
   height="3.167"
   id="rect106" />
	
		<rect
   x="199.295"
   y="230.355"
   fill="#D3C4BA"
   stroke="#231815"
   stroke-width="0.5"
   stroke-linecap="round"
   stroke-linejoin="round"
   stroke-miterlimit="10"
   width="3.166"
   height="3.167"
   id="rect108" />
	
		<rect
   x="205.628"
   y="230.355"
   fill="#D3C4BA"
   stroke="#231815"
   stroke-width="0.5"
   stroke-linecap="round"
   stroke-linejoin="round"
   stroke-miterlimit="10"
   width="3.166"
   height="3.167"
   id="rect110" />
	
		<rect
   x="211.961"
   y="230.355"
   fill="#D3C4BA"
   stroke="#231815"
   stroke-width="0.5"
   stroke-linecap="round"
   stroke-linejoin="round"
   stroke-miterlimit="10"
   width="3.166"
   height="3.167"
   id="rect112" />
	
		<rect
   x="218.294"
   y="230.355"
   fill="#D3C4BA"
   stroke="#231815"
   stroke-width="0.5"
   stroke-linecap="round"
   stroke-linejoin="round"
   stroke-miterlimit="10"
   width="3.166"
   height="3.167"
   id="rect114" />
	
		<rect
   x="224.627"
   y="230.355"
   fill="#D3C4BA"
   stroke="#231815"
   stroke-width="0.5"
   stroke-linecap="round"
   stroke-linejoin="round"
   stroke-miterlimit="10"
   width="3.166"
   height="3.167"
   id="rect116" />
	
		<rect
   x="230.96"
   y="230.355"
   fill="#D3C4BA"
   stroke="#231815"
   stroke-width="0.5"
   stroke-linecap="round"
   stroke-linejoin="round"
   stroke-miterlimit="10"
   width="3.166"
   height="3.167"
   id="rect118" />
	
		<rect
   x="237.293"
   y="230.355"
   fill="#D3C4BA"
   stroke="#231815"
   stroke-width="0.5"
   stroke-linecap="round"
   stroke-linejoin="round"
   stroke-miterlimit="10"
   width="3.166"
   height="3.167"
   id="rect120" />
	
		<rect
   x="243.626"
   y="230.355"
   fill="#D3C4BA"
   stroke="#231815"
   stroke-width="0.5"
   stroke-linecap="round"
   stroke-linejoin="round"
   stroke-miterlimit="10"
   width="3.166"
   height="3.167"
   id="rect122" />
	
		<rect
   x="249.959"
   y="230.355"
   fill="#D3C4BA"
   stroke="#231815"
   stroke-width="0.5"
   stroke-linecap="round"
   stroke-linejoin="round"
   stroke-miterlimit="10"
   width="3.166"
   height="3.167"
   id="rect124" />
</g>
</svg>
