<?xml version="1.0" encoding="UTF-8"?>
<svg width="905px" height="579px" viewBox="0 0 905 579" version="1.1" xmlns="http://www.w3.org/2000/svg" xmlns:xlink="http://www.w3.org/1999/xlink">
    <!-- Generator: Sketch 61 (89581) - https://sketch.com -->
    <title>chenter</title>
    <desc>Created with Sketch.</desc>
    <defs>
        <path d="M22,0 L338.822877,0 L338.822877,0 L352.318329,13.4475067 C455.170147,13.4475067 519.224818,13.4475067 544.482342,13.4475067 L561.205484,0 L875.435736,0 C888.69057,-5.98758718e-15 899.435736,10.745166 899.435736,24 L899.435736,573.98698 L899.435736,573.98698 L867.808075,573.61211 L848.143609,563.937213 L51.5409008,563.937213 L33.2716721,573.98698 L0,573.98698 L0,22 C-1.48797825e-15,9.8497355 9.8497355,2.23196738e-15 22,0 Z" id="path-1"></path>
        <filter x="-1.4%" y="-2.2%" width="102.8%" height="104.4%" filterUnits="objectBoundingBox" id="filter-3">
            <feGaussianBlur stdDeviation="10" in="SourceAlpha" result="shadowBlurInner1"></feGaussianBlur>
            <feOffset dx="0" dy="1" in="shadowBlurInner1" result="shadowOffsetInner1"></feOffset>
            <feComposite in="shadowOffsetInner1" in2="SourceAlpha" operator="arithmetic" k2="-1" k3="1" result="shadowInnerInner1"></feComposite>
            <feColorMatrix values="0 0 0 0 0.0705882353   0 0 0 0 0.556862745   0 0 0 0 0.909803922  0 0 0 0.343454641 0" type="matrix" in="shadowInnerInner1"></feColorMatrix>
        </filter>
    </defs>
    <g id="页面-1" stroke="none" stroke-width="1" fill="none" fill-rule="evenodd">
        <g id="1406科技蓝大数据可视化大屏统计管理后台Ui首页" transform="translate(-508.000000, -127.000000)">
            <g id="chenter" transform="translate(510.000000, 127.000000)">
                <g id="编组-51">
                    <g id="编组-40">
                        <g id="编组" transform="translate(450.000000, 288.500000) scale(-1, 1) translate(-450.000000, -288.500000) ">
                            <rect id="矩形" fill="#1273DB" x="65.6147987" y="561.242662" width="761.915125" height="14.1193122" rx="7.05965612"></rect>
                            <g id="位图" transform="translate(0.000000, 2.647371)">
                                <mask id="mask-2" fill="white">
                                    <use xlink:href="#path-1"></use>
                                </mask>
                                <g id="蒙版">
                                    <use fill="#050D4B" fill-rule="evenodd" xlink:href="#path-1"></use>
                                    <use fill="black" fill-opacity="1" filter="url(#filter-3)" xlink:href="#path-1"></use>
                                    <path stroke="#1480F0" stroke-width="2" d="M352.7315,12.4475067 C486.921125,12.4475067 487.255227,12.4475067 544.130151,12.4475067 L560.853293,-1 L875.435736,-1 C889.242855,-1 900.435736,10.1928813 900.435736,24 L900.435736,574.998903 L867.569796,574.609356 L847.910928,564.937213 L51.7977954,564.937213 L33.5285667,574.98698 L-1,574.98698 L-1,22 C-1,9.29745075 9.29745075,-1 22,-1 L339.236049,-1 L352.7315,12.4475067 Z"></path>
                                </g>
                                <g id="编组-37" opacity="0.320988913" mask="url(#mask-2)">
                                    <g transform="translate(-8.302484, -2.779598)" opacity="0.400000006">
                                        <g id="编组-33">
                                            <g id="编组-32" transform="translate(0.000000, 31.965377)" opacity="0.5" stroke="#00E0DB" stroke-width="1.67894671">
                                                <g id="编组-21">
                                                    <line x1="0" y1="0.694899491" x2="913.273209" y2="0.694899491" id="路径-2"></line>
                                                    <line x1="0" y1="21.819844" x2="913.273209" y2="21.819844" id="路径-2"></line>
                                                    <line x1="0" y1="42.9447886" x2="913.273209" y2="42.9447886" id="路径-2"></line>
                                                    <line x1="0" y1="64.0697331" x2="913.273209" y2="64.0697331" id="路径-2"></line>
                                                    <line x1="0" y1="85.1946776" x2="913.273209" y2="85.1946776" id="路径-2"></line>
                                                    <line x1="0" y1="106.319622" x2="913.273209" y2="106.319622" id="路径-2"></line>
                                                </g>
                                                <g id="编组-26" transform="translate(0.000000, 400.262107)">
                                                    <line x1="0" y1="0.694899491" x2="913.273209" y2="0.694899491" id="路径-2"></line>
                                                    <line x1="0" y1="21.819844" x2="913.273209" y2="21.819844" id="路径-2"></line>
                                                    <line x1="0" y1="42.9447886" x2="913.273209" y2="42.9447886" id="路径-2"></line>
                                                    <line x1="0" y1="64.0697331" x2="913.273209" y2="64.0697331" id="路径-2"></line>
                                                    <line x1="0" y1="85.1946776" x2="913.273209" y2="85.1946776" id="路径-2"></line>
                                                    <line x1="0" y1="106.319622" x2="913.273209" y2="106.319622" id="路径-2"></line>
                                                </g>
                                            </g>
                                            <g id="编组-27" transform="translate(44.279913, 0.000000)" opacity="0.5" stroke="#00E0DB" stroke-width="1.67894671">
                                                <line x1="1.38374729" y1="0" x2="1.38374729" y2="573.98698" id="路径-3"></line>
                                                <line x1="139.758476" y1="0" x2="139.758476" y2="573.98698" id="路径-3"></line>
                                                <line x1="687.722401" y1="0" x2="687.722401" y2="573.98698" id="路径-3"></line>
                                                <line x1="823.329636" y1="0" x2="823.329636" y2="573.98698" id="路径-3"></line>
                                                <line x1="549.347673" y1="0" x2="549.347673" y2="573.98698" id="路径-3"></line>
                                                <line x1="413.740439" y1="0" x2="413.740439" y2="573.98698" id="路径-3"></line>
                                                <line x1="275.36571" y1="0" x2="275.36571" y2="573.98698" id="路径-3"></line>
                                            </g>
                                        </g>
                                        <g id="编组-36" transform="translate(41.512419, 30.575578)">
                                            <g id="编组-35" fill="#00E0DB">
                                                <g id="编组-34">
                                                    <ellipse id="椭圆形" cx="4.15124186" cy="2.08469847" rx="4.15124186" ry="2.08469847"></ellipse>
                                                    <ellipse id="椭圆形" cx="141.603472" cy="2.08469847" rx="4.15124186" ry="2.08469847"></ellipse>
                                                    <ellipse id="椭圆形" cx="279.055703" cy="2.08469847" rx="4.15124186" ry="2.08469847"></ellipse>
                                                    <ellipse id="椭圆形" cx="416.507933" cy="2.08469847" rx="4.15124186" ry="2.08469847"></ellipse>
                                                    <ellipse id="椭圆形" cx="551.192669" cy="2.08469847" rx="4.15124186" ry="2.08469847"></ellipse>
                                                    <ellipse id="椭圆形" cx="691.412394" cy="2.08469847" rx="4.15124186" ry="2.08469847"></ellipse>
                                                    <ellipse id="椭圆形" cx="826.09713" cy="2.08469847" rx="4.15124186" ry="2.08469847"></ellipse>
                                                </g>
                                                <g id="编组-34" transform="translate(0.000000, 21.124945)">
                                                    <ellipse id="椭圆形" cx="4.15124186" cy="2.08469847" rx="4.15124186" ry="2.08469847"></ellipse>
                                                    <ellipse id="椭圆形" cx="141.603472" cy="2.08469847" rx="4.15124186" ry="2.08469847"></ellipse>
                                                    <ellipse id="椭圆形" cx="279.055703" cy="2.08469847" rx="4.15124186" ry="2.08469847"></ellipse>
                                                    <ellipse id="椭圆形" cx="416.507933" cy="2.08469847" rx="4.15124186" ry="2.08469847"></ellipse>
                                                    <ellipse id="椭圆形" cx="551.192669" cy="2.08469847" rx="4.15124186" ry="2.08469847"></ellipse>
                                                    <ellipse id="椭圆形" cx="691.412394" cy="2.08469847" rx="4.15124186" ry="2.08469847"></ellipse>
                                                    <ellipse id="椭圆形" cx="826.09713" cy="2.08469847" rx="4.15124186" ry="2.08469847"></ellipse>
                                                </g>
                                                <g id="编组-34" transform="translate(0.000000, 42.249889)">
                                                    <ellipse id="椭圆形" cx="4.15124186" cy="2.08469847" rx="4.15124186" ry="2.08469847"></ellipse>
                                                    <ellipse id="椭圆形" cx="141.603472" cy="2.08469847" rx="4.15124186" ry="2.08469847"></ellipse>
                                                    <ellipse id="椭圆形" cx="279.055703" cy="2.08469847" rx="4.15124186" ry="2.08469847"></ellipse>
                                                    <ellipse id="椭圆形" cx="416.507933" cy="2.08469847" rx="4.15124186" ry="2.08469847"></ellipse>
                                                    <ellipse id="椭圆形" cx="551.192669" cy="2.08469847" rx="4.15124186" ry="2.08469847"></ellipse>
                                                    <ellipse id="椭圆形" cx="691.412394" cy="2.08469847" rx="4.15124186" ry="2.08469847"></ellipse>
                                                    <ellipse id="椭圆形" cx="826.09713" cy="2.08469847" rx="4.15124186" ry="2.08469847"></ellipse>
                                                </g>
                                                <g id="编组-34" transform="translate(0.000000, 63.374834)">
                                                    <ellipse id="椭圆形" cx="4.15124186" cy="2.08469847" rx="4.15124186" ry="2.08469847"></ellipse>
                                                    <ellipse id="椭圆形" cx="141.603472" cy="2.08469847" rx="4.15124186" ry="2.08469847"></ellipse>
                                                    <ellipse id="椭圆形" cx="279.055703" cy="2.08469847" rx="4.15124186" ry="2.08469847"></ellipse>
                                                    <ellipse id="椭圆形" cx="416.507933" cy="2.08469847" rx="4.15124186" ry="2.08469847"></ellipse>
                                                    <ellipse id="椭圆形" cx="551.192669" cy="2.08469847" rx="4.15124186" ry="2.08469847"></ellipse>
                                                    <ellipse id="椭圆形" cx="691.412394" cy="2.08469847" rx="4.15124186" ry="2.08469847"></ellipse>
                                                    <ellipse id="椭圆形" cx="826.09713" cy="2.08469847" rx="4.15124186" ry="2.08469847"></ellipse>
                                                </g>
                                                <g id="编组-34" transform="translate(0.000000, 84.499778)">
                                                    <ellipse id="椭圆形" cx="4.15124186" cy="2.08469847" rx="4.15124186" ry="2.08469847"></ellipse>
                                                    <ellipse id="椭圆形" cx="141.603472" cy="2.08469847" rx="4.15124186" ry="2.08469847"></ellipse>
                                                    <ellipse id="椭圆形" cx="279.055703" cy="2.08469847" rx="4.15124186" ry="2.08469847"></ellipse>
                                                    <ellipse id="椭圆形" cx="416.507933" cy="2.08469847" rx="4.15124186" ry="2.08469847"></ellipse>
                                                    <ellipse id="椭圆形" cx="551.192669" cy="2.08469847" rx="4.15124186" ry="2.08469847"></ellipse>
                                                    <ellipse id="椭圆形" cx="691.412394" cy="2.08469847" rx="4.15124186" ry="2.08469847"></ellipse>
                                                    <ellipse id="椭圆形" cx="826.09713" cy="2.08469847" rx="4.15124186" ry="2.08469847"></ellipse>
                                                </g>
                                                <g id="编组-34" transform="translate(0.000000, 105.624723)">
                                                    <ellipse id="椭圆形" cx="4.15124186" cy="2.08469847" rx="4.15124186" ry="2.08469847"></ellipse>
                                                    <ellipse id="椭圆形" cx="141.603472" cy="2.08469847" rx="4.15124186" ry="2.08469847"></ellipse>
                                                    <ellipse id="椭圆形" cx="279.055703" cy="2.08469847" rx="4.15124186" ry="2.08469847"></ellipse>
                                                    <ellipse id="椭圆形" cx="416.507933" cy="2.08469847" rx="4.15124186" ry="2.08469847"></ellipse>
                                                    <ellipse id="椭圆形" cx="551.192669" cy="2.08469847" rx="4.15124186" ry="2.08469847"></ellipse>
                                                    <ellipse id="椭圆形" cx="691.412394" cy="2.08469847" rx="4.15124186" ry="2.08469847"></ellipse>
                                                    <ellipse id="椭圆形" cx="826.09713" cy="2.08469847" rx="4.15124186" ry="2.08469847"></ellipse>
                                                </g>
                                            </g>
                                            <g id="编组-35" transform="translate(0.000000, 400.262107)" fill="#00E0DB">
                                                <g id="编组-34">
                                                    <ellipse id="椭圆形" cx="4.15124186" cy="2.08469847" rx="4.15124186" ry="2.08469847"></ellipse>
                                                    <ellipse id="椭圆形" cx="141.603472" cy="2.08469847" rx="4.15124186" ry="2.08469847"></ellipse>
                                                    <ellipse id="椭圆形" cx="279.055703" cy="2.08469847" rx="4.15124186" ry="2.08469847"></ellipse>
                                                    <ellipse id="椭圆形" cx="416.507933" cy="2.08469847" rx="4.15124186" ry="2.08469847"></ellipse>
                                                    <ellipse id="椭圆形" cx="551.192669" cy="2.08469847" rx="4.15124186" ry="2.08469847"></ellipse>
                                                    <ellipse id="椭圆形" cx="691.412394" cy="2.08469847" rx="4.15124186" ry="2.08469847"></ellipse>
                                                    <ellipse id="椭圆形" cx="826.09713" cy="2.08469847" rx="4.15124186" ry="2.08469847"></ellipse>
                                                </g>
                                                <g id="编组-34" transform="translate(0.000000, 21.124945)">
                                                    <ellipse id="椭圆形" cx="4.15124186" cy="2.08469847" rx="4.15124186" ry="2.08469847"></ellipse>
                                                    <ellipse id="椭圆形" cx="141.603472" cy="2.08469847" rx="4.15124186" ry="2.08469847"></ellipse>
                                                    <ellipse id="椭圆形" cx="279.055703" cy="2.08469847" rx="4.15124186" ry="2.08469847"></ellipse>
                                                    <ellipse id="椭圆形" cx="416.507933" cy="2.08469847" rx="4.15124186" ry="2.08469847"></ellipse>
                                                    <ellipse id="椭圆形" cx="551.192669" cy="2.08469847" rx="4.15124186" ry="2.08469847"></ellipse>
                                                    <ellipse id="椭圆形" cx="691.412394" cy="2.08469847" rx="4.15124186" ry="2.08469847"></ellipse>
                                                    <ellipse id="椭圆形" cx="826.09713" cy="2.08469847" rx="4.15124186" ry="2.08469847"></ellipse>
                                                </g>
                                                <g id="编组-34" transform="translate(0.000000, 42.249889)">
                                                    <ellipse id="椭圆形" cx="4.15124186" cy="2.08469847" rx="4.15124186" ry="2.08469847"></ellipse>
                                                    <ellipse id="椭圆形" cx="141.603472" cy="2.08469847" rx="4.15124186" ry="2.08469847"></ellipse>
                                                    <ellipse id="椭圆形" cx="279.055703" cy="2.08469847" rx="4.15124186" ry="2.08469847"></ellipse>
                                                    <ellipse id="椭圆形" cx="416.507933" cy="2.08469847" rx="4.15124186" ry="2.08469847"></ellipse>
                                                    <ellipse id="椭圆形" cx="551.192669" cy="2.08469847" rx="4.15124186" ry="2.08469847"></ellipse>
                                                    <ellipse id="椭圆形" cx="691.412394" cy="2.08469847" rx="4.15124186" ry="2.08469847"></ellipse>
                                                    <ellipse id="椭圆形" cx="826.09713" cy="2.08469847" rx="4.15124186" ry="2.08469847"></ellipse>
                                                </g>
                                                <g id="编组-34" transform="translate(0.000000, 63.374834)">
                                                    <ellipse id="椭圆形" cx="4.15124186" cy="2.08469847" rx="4.15124186" ry="2.08469847"></ellipse>
                                                    <ellipse id="椭圆形" cx="141.603472" cy="2.08469847" rx="4.15124186" ry="2.08469847"></ellipse>
                                                    <ellipse id="椭圆形" cx="279.055703" cy="2.08469847" rx="4.15124186" ry="2.08469847"></ellipse>
                                                    <ellipse id="椭圆形" cx="416.507933" cy="2.08469847" rx="4.15124186" ry="2.08469847"></ellipse>
                                                    <ellipse id="椭圆形" cx="551.192669" cy="2.08469847" rx="4.15124186" ry="2.08469847"></ellipse>
                                                    <ellipse id="椭圆形" cx="691.412394" cy="2.08469847" rx="4.15124186" ry="2.08469847"></ellipse>
                                                    <ellipse id="椭圆形" cx="826.09713" cy="2.08469847" rx="4.15124186" ry="2.08469847"></ellipse>
                                                </g>
                                                <g id="编组-34" transform="translate(0.000000, 84.499778)">
                                                    <ellipse id="椭圆形" cx="4.15124186" cy="2.08469847" rx="4.15124186" ry="2.08469847"></ellipse>
                                                    <ellipse id="椭圆形" cx="141.603472" cy="2.08469847" rx="4.15124186" ry="2.08469847"></ellipse>
                                                    <ellipse id="椭圆形" cx="279.055703" cy="2.08469847" rx="4.15124186" ry="2.08469847"></ellipse>
                                                    <ellipse id="椭圆形" cx="416.507933" cy="2.08469847" rx="4.15124186" ry="2.08469847"></ellipse>
                                                    <ellipse id="椭圆形" cx="551.192669" cy="2.08469847" rx="4.15124186" ry="2.08469847"></ellipse>
                                                    <ellipse id="椭圆形" cx="691.412394" cy="2.08469847" rx="4.15124186" ry="2.08469847"></ellipse>
                                                    <ellipse id="椭圆形" cx="826.09713" cy="2.08469847" rx="4.15124186" ry="2.08469847"></ellipse>
                                                </g>
                                                <g id="编组-34" transform="translate(0.000000, 105.624723)">
                                                    <ellipse id="椭圆形" cx="4.15124186" cy="2.08469847" rx="4.15124186" ry="2.08469847"></ellipse>
                                                    <ellipse id="椭圆形" cx="141.603472" cy="2.08469847" rx="4.15124186" ry="2.08469847"></ellipse>
                                                    <ellipse id="椭圆形" cx="279.055703" cy="2.08469847" rx="4.15124186" ry="2.08469847"></ellipse>
                                                    <ellipse id="椭圆形" cx="416.507933" cy="2.08469847" rx="4.15124186" ry="2.08469847"></ellipse>
                                                    <ellipse id="椭圆形" cx="551.192669" cy="2.08469847" rx="4.15124186" ry="2.08469847"></ellipse>
                                                    <ellipse id="椭圆形" cx="691.412394" cy="2.08469847" rx="4.15124186" ry="2.08469847"></ellipse>
                                                    <ellipse id="椭圆形" cx="826.09713" cy="2.08469847" rx="4.15124186" ry="2.08469847"></ellipse>
                                                </g>
                                            </g>
                                        </g>
                                    </g>
                                </g>
                            </g>
                            <path d="M373.12296,0 L524.91839,0 C524.91839,3.89894042 521.757674,7.05965612 517.858733,7.05965612 L380.182616,7.05965612 C376.283675,7.05965612 373.12296,3.89894042 373.12296,0 L373.12296,0 L373.12296,0 Z" id="矩形" fill="#1273DB"></path>
                        </g>
                    </g>
                    <g id="编组-49" transform="translate(1.000000, 3.000000)" stroke="#77A5FF" stroke-linecap="round" stroke-width="4.92134831">
                        <path d="M29.2069993,1.24344979e-14 C29.2069993,1.24344979e-14 23.6756186,1.24344979e-14 12.6128573,1.24344979e-14 L-8.17124146e-14,13.6010625 L-8.17124146e-14,30.0939422" id="路径-10"></path>
                        <path d="M899.206999,1.24344979e-14 C899.206999,1.24344979e-14 893.675619,1.24344979e-14 882.612857,1.24344979e-14 L870,13.6010625 L870,30.0939422" id="路径-10" transform="translate(884.603500, 15.046971) scale(-1, 1) translate(-884.603500, -15.046971) "></path>
                    </g>
                </g>
            </g>
        </g>
    </g>
</svg>