<?xml version="1.0" encoding="UTF-8"?>
<svg width="368px" height="205px" viewBox="0 0 368 205" version="1.1" xmlns="http://www.w3.org/2000/svg" xmlns:xlink="http://www.w3.org/1999/xlink">
    <!-- Generator: Sketch 61 (89581) - https://sketch.com -->
    <title>环境</title>
    <desc>Created with Sketch.</desc>
    <defs>
        <polygon id="path-1" points="9.51968915e-13 6.13676058 7.60577777 0 231.345674 0 251.252831 8.65217022 348.769881 8.65217022 348.809775 160.002831 357.427221 165.565821 357.427221 189.310045 349.714619 195.967375 6.47928994 195.999676 0 190.501817"></polygon>
        <filter x="-1.4%" y="-2.6%" width="102.8%" height="105.1%" filterUnits="objectBoundingBox" id="filter-2">
            <feGaussianBlur stdDeviation="5" in="SourceAlpha" result="shadowBlurInner1"></feGaussianBlur>
            <feOffset dx="0" dy="0" in="shadowBlurInner1" result="shadowOffsetInner1"></feOffset>
            <feComposite in="shadowOffsetInner1" in2="SourceAlpha" operator="arithmetic" k2="-1" k3="1" result="shadowInnerInner1"></feComposite>
            <feColorMatrix values="0 0 0 0 0.101960784   0 0 0 0 0.356862745   0 0 0 0 0.792156863  0 0 0 1 0" type="matrix" in="shadowInnerInner1"></feColorMatrix>
        </filter>
        <path d="M348.288568,32 L348.288568,33 L251.284882,33 L231.657882,39.0030233 L231.655882,38.999 L1.07988166,39 L1.07988166,38 L231.546882,37.999 L251.098882,32.019 L251.099219,32 L348.288568,32 Z" id="path-3"></path>
        <filter x="-2.6%" y="-128.5%" width="105.2%" height="357.0%" filterUnits="objectBoundingBox" id="filter-4">
            <feOffset dx="0" dy="0" in="SourceAlpha" result="shadowOffsetOuter1"></feOffset>
            <feGaussianBlur stdDeviation="3" in="shadowOffsetOuter1" result="shadowBlurOuter1"></feGaussianBlur>
            <feColorMatrix values="0 0 0 0 0.101960784   0 0 0 0 0.356862745   0 0 0 0 0.792156863  0 0 0 1 0" type="matrix" in="shadowBlurOuter1"></feColorMatrix>
        </filter>
    </defs>
    <g id="页面1" stroke="none" stroke-width="1" fill="none" fill-rule="evenodd">
        <g id="首页缩小" transform="translate(-75.000000, -165.000000)">
            <g id="分组-31" transform="translate(78.000000, 98.000000)">
                <g id="环境" transform="translate(1.000000, 68.000000)">
                    <g id="框1">
                        <g id="分组-22" transform="translate(0.079882, 0.000000)">
                            <g id="矩形">
                                <use fill-opacity="0.5" fill="#08276A" fill-rule="evenodd" xlink:href="#path-1"></use>
                                <use fill="black" fill-opacity="1" filter="url(#filter-2)" xlink:href="#path-1"></use>
                                <path stroke="#1A5BCA" stroke-width="1" d="M0.5,6.3757922 L0.5,190.270337 L6.66281547,195.499659 L349.528651,195.467392 L356.927221,189.081127 L356.927221,165.838179 L348.309847,160.275235 L348.270012,9.15217022 L251.252831,9.15217022 L251.053528,9.11073149 L231.241715,0.5 L7.78233881,0.5 L0.5,6.3757922 Z" stroke-linejoin="square"></path>
                            </g>
                            <polyline id="形状" stroke="#00A3FF" stroke-width="2" stroke-linecap="round" points="348.801775 133 348.801775 160.350933 357.440828 165.73469 357.440828 181"></polyline>
                            <polyline id="路径" stroke="#00A3FF" stroke-width="2" stroke-linecap="round" points="0 17 0 6.5763037 7.52091958 0 21.5976331 0"></polyline>
                            <polyline id="路径-copy" stroke="#00A3FF" stroke-width="2" stroke-linecap="round" transform="translate(10.258876, 187.000000) rotate(-90.000000) translate(-10.258876, -187.000000) " points="1.25887574 197.258876 1.25887574 183.474308 7.61079351 176.741124 19.2588757 176.741124"></polyline>
                            <polyline id="路径-copy-2" stroke="#00A3FF" stroke-width="2" stroke-linecap="round" transform="translate(345.490770, 197.503966) scale(-1, 1) rotate(-90.000000) translate(-345.490770, -197.503966) " points="340.986804 214.710712 340.986804 189.275661 349.994736 180.29722"></polyline>
                            <path d="M247.292899,197 L318.565089,197 C318.565089,200.313708 315.878797,203 312.565089,203 L253.292899,203 C249.979191,203 247.292899,200.313708 247.292899,197 L247.292899,197 L247.292899,197 Z" id="矩形" fill="#1A5BCA" opacity="0.296991257"></path>
                            <g id="合并形状">
                                <use fill="black" fill-opacity="1" filter="url(#filter-4)" xlink:href="#path-3"></use>
                                <use fill="#1A5BCA" fill-rule="evenodd" xlink:href="#path-3"></use>
                            </g>
                        </g>
                    </g>
                </g>
            </g>
        </g>
    </g>
</svg>