<?xml version="1.0" encoding="UTF-8"?>
<svg width="414px" height="203px" viewBox="0 0 414 203" version="1.1" xmlns="http://www.w3.org/2000/svg" xmlns:xlink="http://www.w3.org/1999/xlink">
    <!-- Generator: Sketch 61 (89581) - https://sketch.com -->
    <title>总入住率</title>
    <desc>Created with Sketch.</desc>
    <defs>
        <polygon id="path-1" points="4.31578947 6.14836399 11.9149869 0 284.2497 8.08242362e-14 304.341833 8.04676512 401.224376 8.03197526 407.910736 13.745117 407.910736 188.705879 401.437288 195 12.9473684 195 4.31578947 187.628453"></polygon>
        <filter x="-1.2%" y="-2.6%" width="102.5%" height="105.1%" filterUnits="objectBoundingBox" id="filter-2">
            <feGaussianBlur stdDeviation="5" in="SourceAlpha" result="shadowBlurInner1"></feGaussianBlur>
            <feOffset dx="0" dy="0" in="shadowBlurInner1" result="shadowOffsetInner1"></feOffset>
            <feComposite in="shadowOffsetInner1" in2="SourceAlpha" operator="arithmetic" k2="-1" k3="1" result="shadowInnerInner1"></feComposite>
            <feColorMatrix values="0 0 0 0 0.101960784   0 0 0 0 0.356862745   0 0 0 0 0.792156863  0 0 0 1 0" type="matrix" in="shadowInnerInner1"></feColorMatrix>
        </filter>
        <path d="M407.689629,31 L407.689629,31.9995359 L305.18999,31.9993929 L284.68861,37.9984945 L284.687737,37.996 L5.39473684,37.9967511 L5.39473684,36.9972152 L284.689267,36.9973587 L305.188737,31.001 L305.189629,31 L407.689629,31 Z" id="path-3"></path>
        <filter x="-2.2%" y="-128.6%" width="104.5%" height="357.2%" filterUnits="objectBoundingBox" id="filter-4">
            <feOffset dx="0" dy="0" in="SourceAlpha" result="shadowOffsetOuter1"></feOffset>
            <feGaussianBlur stdDeviation="3" in="shadowOffsetOuter1" result="shadowBlurOuter1"></feGaussianBlur>
            <feColorMatrix values="0 0 0 0 0.101960784   0 0 0 0 0.356862745   0 0 0 0 0.792156863  0 0 0 1 0" type="matrix" in="shadowBlurOuter1"></feColorMatrix>
        </filter>
    </defs>
    <g id="页面1" stroke="none" stroke-width="1" fill="none" fill-rule="evenodd">
        <g id="首页缩小" transform="translate(-892.000000, -165.000000)">
            <g id="分组-31" transform="translate(78.000000, 98.000000)">
                <g id="总入住率" transform="translate(815.000000, 68.000000)">
                    <g id="Group-Copy-9">
                        <g id="框5">
                            <g id="分组-22-copy" transform="translate(0.078947, 0.000000)">
                                <g id="矩形">
                                    <use fill-opacity="0.50317029" fill="#08276A" fill-rule="evenodd" xlink:href="#path-1"></use>
                                    <use fill="black" fill-opacity="1" filter="url(#filter-2)" xlink:href="#path-1"></use>
                                    <path stroke="#1A5BCA" stroke-width="1" d="M4.81578947,6.38698217 L4.81578947,187.397939 L13.1318183,194.5 L401.234283,194.5 L407.410736,188.494647 L407.410736,13.9755559 L401.039889,8.53200343 L304.341909,8.54676511 L304.15594,8.51092446 L284.153299,0.5 L12.0919266,0.5 L4.81578947,6.38698217 Z" stroke-linejoin="square"></path>
                                </g>
                                <polyline id="路径" stroke="#00A3FF" stroke-width="2" stroke-linecap="round" points="4.31578947 17 4.31578947 6.5763037 11.8302021 0 25.8947368 0"></polyline>
                                <polyline id="路径-copy" stroke="#00A3FF" stroke-width="2" stroke-linecap="round" transform="translate(397.592105, 186.000000) scale(-1, 1) rotate(-90.000000) translate(-397.592105, -186.000000) " points="388.592105 196.25 388.592105 182.477358 394.944023 175.75 406.592105 175.75"></polyline>
                                <polyline id="路径-copy" stroke="#00A3FF" stroke-width="2" stroke-linecap="round" transform="translate(397.592105, 17.000000) scale(-1, -1) rotate(-90.000000) translate(-397.592105, -17.000000) " points="388.592105 27.25 388.592105 13.4773585 394.944023 6.75 406.592105 6.75"></polyline>
                                <path d="M41,195 L112.210526,195 C112.210526,198.313708 109.524235,201 106.210526,201 L47,201 C43.6862915,201 41,198.313708 41,195 L41,195 L41,195 Z" id="矩形" fill="#1A5BCA" opacity="0.296991257"></path>
                                <polyline id="路径-copy-2" stroke="#00A3FF" stroke-width="2" stroke-linecap="round" transform="translate(16.652386, 195.003966) rotate(-90.000000) translate(-16.652386, -195.003966) " points="11.6484197 211.656352 11.6484197 189.480148 21.6563516 178.35158"></polyline>
                                <g id="合并形状">
                                    <use fill="black" fill-opacity="1" filter="url(#filter-4)" xlink:href="#path-3"></use>
                                    <use fill="#1A5BCA" fill-rule="evenodd" xlink:href="#path-3"></use>
                                </g>
                            </g>
                        </g>
                    </g>
                </g>
            </g>
        </g>
    </g>
</svg>