<?xml version="1.0" encoding="UTF-8"?>
<svg width="243px" height="143px" viewBox="0 0 243 143" version="1.1" xmlns="http://www.w3.org/2000/svg" xmlns:xlink="http://www.w3.org/1999/xlink">
    <!-- Generator: Sketch 61 (89581) - https://sketch.com -->
    <title>编组 31</title>
    <desc>Created with Sketch.</desc>
    <defs>
        <linearGradient x1="50%" y1="0%" x2="50%" y2="100%" id="linearGradient-1">
            <stop stop-color="#21D9D7" offset="0%"></stop>
            <stop stop-color="#162D56" offset="100%"></stop>
        </linearGradient>
        <linearGradient x1="50%" y1="0%" x2="50%" y2="100%" id="linearGradient-2">
            <stop stop-color="#21D9D7" offset="0%"></stop>
            <stop stop-color="#162D56" offset="100%"></stop>
        </linearGradient>
        <linearGradient x1="50%" y1="0%" x2="50%" y2="100%" id="linearGradient-3">
            <stop stop-color="#21D9D7" offset="0%"></stop>
            <stop stop-color="#162D56" offset="100%"></stop>
        </linearGradient>
        <linearGradient x1="50%" y1="0%" x2="50%" y2="100%" id="linearGradient-4">
            <stop stop-color="#21D9D7" offset="0%"></stop>
            <stop stop-color="#162D56" offset="100%"></stop>
        </linearGradient>
        <linearGradient x1="50%" y1="0%" x2="50%" y2="100%" id="linearGradient-5">
            <stop stop-color="#21D9D7" offset="0%"></stop>
            <stop stop-color="#162D56" offset="100%"></stop>
        </linearGradient>
        <linearGradient x1="50%" y1="0%" x2="50%" y2="100%" id="linearGradient-6">
            <stop stop-color="#21D9D7" offset="0%"></stop>
            <stop stop-color="#162D56" offset="100%"></stop>
        </linearGradient>
    </defs>
    <g id="页面-1" stroke="none" stroke-width="1" fill="none" fill-rule="evenodd">
        <g id="0103科技感可视化大数据智慧税务统计大屏展示平台" transform="translate(-15.000000, -474.000000)">
            <g id="编组-47" transform="translate(0.000000, 404.000000)">
                <g id="编组-31" transform="translate(15.000000, 70.000000)">
                    <g id="编组-40">
                        <g id="编组-43" opacity="0.5" stroke="#3D7FFF">
                            <g id="数字/匡备份-4">
                                <g id="编组-3">
                                    <rect id="矩形" stroke-width="2" fill="#2F558F" opacity="0.300000012" transform="translate(121.500000, 71.500000) scale(1, -1) translate(-121.500000, -71.500000) " x="1" y="1" width="241" height="141"></rect>
                                    <g id="编组-2" transform="translate(1.070485, 1.000000)" stroke-width="1.5">
                                        <polyline id="路径-7" points="0 4 0 0 5 0"></polyline>
                                        <polyline id="路径-7" transform="translate(238.355301, 2.000000) scale(-1, 1) translate(-238.355301, -2.000000) " points="235.855301 4 235.855301 0 240.855301 0"></polyline>
                                    </g>
                                    <g id="编组" transform="translate(1.070485, 138.000000)" stroke-width="1.5">
                                        <polyline id="路径-7" transform="translate(2.500000, 2.000000) scale(1, -1) translate(-2.500000, -2.000000) " points="0 4 0 0 5 0"></polyline>
                                        <polyline id="路径-7" transform="translate(238.355301, 2.000000) scale(-1, -1) translate(-238.355301, -2.000000) " points="235.855301 4 235.855301 0 240.855301 0"></polyline>
                                    </g>
                                </g>
                            </g>
                        </g>
                        <g id="编组-34" transform="translate(14.127907, 42.000000)"></g>
                    </g>
                    <g id="编组备份" opacity="0.5" transform="translate(22.000000, 97.000000)" fill-rule="nonzero">
                        <polygon id="路径" fill="url(#linearGradient-1)" points="0 46 0 23 4 23 4 46"></polygon>
                        <polygon id="路径" fill="url(#linearGradient-2)" points="39 46 39 19.4693878 43 19.4693878 43 46"></polygon>
                        <polygon id="路径" fill="url(#linearGradient-3)" points="79 46 79 33 83 33 83 46"></polygon>
                        <polygon id="路径" fill="url(#linearGradient-4)" points="118 46 118 10 122 10 122 46"></polygon>
                        <polygon id="路径" fill="url(#linearGradient-5)" points="157 46 157 0 161 0 161 46"></polygon>
                        <polygon id="路径" fill="url(#linearGradient-6)" points="196 46 196 2.12244898 200 2.12244898 200 46"></polygon>
                    </g>
                </g>
            </g>
        </g>
    </g>
</svg>