<?xml version="1.0" encoding="UTF-8" standalone="no"?>
<svg
   xmlns:dc="http://purl.org/dc/elements/1.1/"
   xmlns:cc="http://creativecommons.org/ns#"
   xmlns:rdf="http://www.w3.org/1999/02/22-rdf-syntax-ns#"
   xmlns:svg="http://www.w3.org/2000/svg"
   xmlns="http://www.w3.org/2000/svg"
   xmlns:sodipodi="http://sodipodi.sourceforge.net/DTD/sodipodi-0.dtd"
   xmlns:inkscape="http://www.inkscape.org/namespaces/inkscape"
   version="1.1"
   id="图层_1"
   x="0px"
   y="0px"
   width="145.446px"
   height="83.461px"
   viewBox="348.213 364.418 145.446 83.461"
   enable-background="new 348.213 364.418 145.446 83.461"
   xml:space="preserve"
   sodipodi:docname="采矿-10.svg"><metadata
   id="metadata265"><rdf:RDF><cc:Work
       rdf:about=""><dc:format>image/svg+xml</dc:format><dc:type
         rdf:resource="http://purl.org/dc/dcmitype/StillImage" /></cc:Work></rdf:RDF></metadata><defs
   id="defs263" /><sodipodi:namedview
   pagecolor="#ffffff"
   bordercolor="#666666"
   borderopacity="1"
   objecttolerance="10"
   gridtolerance="10"
   guidetolerance="10"
   inkscape:pageopacity="0"
   inkscape:pageshadow="2"
   inkscape:window-width="640"
   inkscape:window-height="480"
   id="namedview261" />
<g
   id="g258">
	<path
   fill="#616161"
   stroke="#231815"
   stroke-width="0.5"
   stroke-miterlimit="10"
   d="M348.529,444.575   c0,0,8.078-20.56,21.71-26.688c13.632-6.13,3.532-20.268,18.681-25.82c0,0-5.049-20.866,4.544-22.551   c9.594-1.685,22.721-11.275,30.293,2.355c7.573,13.632,25.177,21.205,35.31,38.876s15.503,3.534,21.652,13.632   c6.15,10.099,12.278,11.612,12.278,11.612s-6.12,3.535-29.097,3.535c0,0-22.33-2.021-37.295,3.027   c-14.966,5.05-23.549,5.05-36.677,5.05C376.803,447.604,355.598,448.109,348.529,444.575z"
   id="path2" />
	<path
   fill="#565655"
   d="M492.995,435.991c0,0-6.118,3.536-29.097,3.536c0,0-22.326-2.022-37.291,3.028   c-13.891,4.688-22.289,5.029-33.922,5.044l8.34-26.552c3.451-3.728,7.238-6.915,10.866-9.542   c8.497-6.158,9.898-28.242,9.876-42.557c0.696,0.826,1.362,1.796,1.991,2.925c7.573,13.632,25.174,21.205,35.309,38.874   c10.133,17.669,15.502,3.536,21.65,13.632C486.869,434.477,492.995,435.991,492.995,435.991z"
   id="path4" />
	<g
   id="g10">
		<g
   id="g8">
			<path
   fill="#444241"
   d="M397.638,374.005c-0.709,1.208-1.249,2.489-1.768,3.787c-0.313,0.78,1.618,0.515,1.905,0.472     c0.634-0.099,1.268-0.265,1.857-0.516c0.28-0.119,0.886-0.357,1.019-0.688c0.519-1.299,1.059-2.58,1.768-3.787     c0.43-0.732-1.714-0.5-1.905-0.472C399.694,372.928,398.113,373.193,397.638,374.005L397.638,374.005z"
   id="path6" />
		</g>
	</g>
	<g
   id="g16">
		<g
   id="g14">
			<path
   fill="#444241"
   d="M401.108,376.389c0,0.588,0,1.178,0,1.768c0,0.476,0.577,0.89,0.949,1.051     c0.57,0.248,1.228,0.273,1.831,0.156c0.604-0.117,1.203-0.387,1.641-0.83c0.4-0.408,0.486-0.782,0.486-1.33     c0-0.589,0-1.178,0-1.768c0-0.477-0.577-0.891-0.949-1.052c-0.57-0.247-1.228-0.272-1.831-0.155     c-0.604,0.117-1.203,0.387-1.641,0.83C401.194,375.466,401.108,375.84,401.108,376.389L401.108,376.389z"
   id="path12" />
		</g>
	</g>
	<g
   id="g22">
		<g
   id="g20">
			<path
   fill="#444241"
   d="M398.336,386.709c-0.807,0.822-1.493,1.751-2.02,2.775c-0.141,0.273,0.131,0.627,0.275,0.824     c0.351,0.478,0.795,0.892,1.253,1.262c0.193,0.156,2.071,1.619,2.359,1.06c0.524-1.026,1.212-1.955,2.02-2.776     c0.459-0.469-1.293-1.895-1.528-2.086C400.373,387.507,398.828,386.208,398.336,386.709L398.336,386.709z"
   id="path18" />
		</g>
	</g>
	<g
   id="g28">
		<g
   id="g26">
			<path
   fill="#444241"
   d="M398.434,389.633c0,0.506,0,1.01,0,1.516c0,1.166,1.347,2,2.323,2.276c0.776,0.222,2.38,0.242,2.38-0.94     c0-0.506,0-1.01,0-1.516c0-1.166-1.346-2-2.322-2.277C400.037,388.471,398.434,388.449,398.434,389.633L398.434,389.633z"
   id="path24" />
		</g>
	</g>
	<g
   id="g34">
		<g
   id="g32">
			<path
   fill="#444241"
   d="M391.333,391.979c-0.653,0.698-1.006,1.709-1.308,2.599c-0.062,0.179,0.063,0.385,0.191,0.5     c0.734,0.655,1.427,0.448,2.279,0.159c0.432-0.146-0.199-0.914-0.588-0.782c-0.339,0.114-0.938,0.446-1.258,0.16     c0.063,0.167,0.128,0.334,0.191,0.5c0.284-0.837,0.604-1.794,1.218-2.45C392.357,392.348,391.628,391.662,391.333,391.979     L391.333,391.979z"
   id="path30" />
		</g>
	</g>
	<g
   id="g40">
		<g
   id="g38">
			<path
   fill="#444241"
   d="M393.485,394.216c0,0.168,0,0.337,0,0.505c0,0.299,0.967,0.117,0.967-0.256c0-0.168,0-0.337,0-0.505     C394.452,393.662,393.485,393.843,393.485,394.216L393.485,394.216z"
   id="path36" />
		</g>
	</g>
	<g
   id="g46">
		<g
   id="g44">
			<path
   fill="#444241"
   d="M381.481,411.906c-2.234,0.39-4.099,1.504-5.607,3.186c-0.161,0.18-0.036,0.42,0.159,0.506     c3.665,1.612,6.623-0.344,10.097-1.494c0.622-0.205-0.005-0.807-0.479-0.649c-3.037,1.007-5.835,2.968-9.089,1.536     c0.054,0.168,0.105,0.337,0.158,0.505c1.354-1.507,2.984-2.522,4.996-2.875C382.365,412.506,382.035,411.811,381.481,411.906     L381.481,411.906z"
   id="path42" />
		</g>
	</g>
	<g
   id="g52">
		<g
   id="g50">
			<path
   fill="#444241"
   d="M387.142,415.482c5.563,0.562,11.059,1.675,16.662,1.769c0.646,0.011,0.637-0.876,0.021-0.887     c-5.605-0.095-11.1-1.206-16.662-1.769C386.517,414.531,386.534,415.422,387.142,415.482L387.142,415.482z"
   id="path48" />
		</g>
	</g>
	<g
   id="g58">
		<g
   id="g56">
			<path
   fill="#231815"
   d="M439.926,399.044c-2.031,4.011-4.353,7.965-3.533,12.622c0.039,0.223,0.986,0.208,0.982,0.188     c-0.819-4.655,1.502-8.609,3.533-12.621C440.93,399.189,440.02,398.859,439.926,399.044L439.926,399.044z"
   id="path54" />
		</g>
	</g>
	<g
   id="g64">
		<g
   id="g62">
			<path
   fill="#231815"
   d="M438.577,407.87c1.093,2.401,0.901,5.116,0.001,7.549c-0.08,0.218,0.675,0.692,0.649,0.761     c0.905-2.443,1.101-5.183,0.001-7.599C439.108,408.316,438.643,408.014,438.577,407.87L438.577,407.87z"
   id="path60" />
		</g>
	</g>
	<g
   id="g70">
		<g
   id="g68">
			<path
   fill="#231815"
   d="M452.615,425.127c6.255,4.375,13.676,7.416,21.368,7.636c0.156,0.005,0.914-0.179,0.728-0.482     c-0.852-1.396-1.719-1.592-3.072-2.583c-0.288-0.211-1.15,0.259-0.848,0.479c0.859,0.629,2.602,1.832,2.988,2.464     c0.242-0.161,0.483-0.321,0.728-0.482c-7.568-0.217-14.89-3.206-21.044-7.511C453.171,424.441,452.311,424.914,452.615,425.127     L452.615,425.127z"
   id="path66" />
		</g>
	</g>
	<g
   id="g76">
		<g
   id="g74">
			<path
   fill="#231815"
   d="M460.369,425.13c2.388,4.833,7.307,5.567,12.112,6.729c-0.028-0.008-0.269-0.76-0.513-0.818     c-3.82-0.924-9.134-1.38-11.113-5.388C460.793,425.525,460.188,424.764,460.369,425.13L460.369,425.13z"
   id="path72" />
		</g>
	</g>
	<g
   id="g82">
		<g
   id="g80">
			<path
   fill="#444241"
   d="M366.428,434.102c-4.588,3.023-9.244,5.828-13.223,9.661c-0.222,0.214-0.12,0.564,0.146,0.688     c6.35,2.918,12.634-2.157,17.666-5.553c-0.238-0.199-0.479-0.399-0.718-0.601c-1.008,1.253-1.699,2.665-2.524,4.039     c-0.135,0.222,0.002,0.494,0.22,0.599c1.548,0.739,2.593,0.666,4.298,0.563c0.646-0.038,0.539-0.91-0.07-0.873     c-1.096,0.258-2.057-0.066-2.882-0.975c0.613-1.021,1.098-1.979,1.848-2.91c0.307-0.381-0.39-0.822-0.719-0.601     c-4.036,2.722-8.217,6.028-13.256,6.37c-4.959,0.337,0.275-3.25,1.59-4.23c2.616-1.955,5.45-3.626,8.177-5.423     C367.509,434.508,366.898,433.791,366.428,434.102L366.428,434.102z"
   id="path78" />
		</g>
	</g>
	<g
   id="g88">
		<g
   id="g86">
			<path
   fill="#444241"
   d="M383.387,439.604c0,0.169,0,0.337,0,0.505c0,0.451,0.965,0.227,0.965-0.15c0-0.169,0-0.337,0-0.505     C384.352,439.001,383.387,439.227,383.387,439.604L383.387,439.604z"
   id="path84" />
		</g>
	</g>
	<g
   id="g94">
		<g
   id="g92">
			<path
   fill="#444241"
   d="M384.546,417.063c4.567,2.502,9.197,4.461,14.497,4.102c0.613-0.042,0.555-0.672-0.055-0.631     c-5.043,0.343-9.453-1.609-13.776-3.979C384.857,416.361,384.018,416.771,384.546,417.063L384.546,417.063z"
   id="path90" />
		</g>
	</g>
	<g
   id="g100">
		<g
   id="g98">
			<path
   fill="#444241"
   d="M388.884,416.672c4.56,0.979,9.179,1.612,13.632,3.03c0.629,0.2,0.597-0.569,0.07-0.736     c-4.455-1.417-9.073-2.052-13.632-3.03C388.313,415.798,388.335,416.555,388.884,416.672L388.884,416.672z"
   id="path96" />
		</g>
	</g>
	<g
   id="g106">
		<g
   id="g104">
			<path
   fill="#444241"
   d="M394.325,418.072c2.675,0,5.354,0.013,7.994,0.5c0.466,0.086-0.35-0.463-0.55-0.498     c-2.692-0.498-5.432-0.51-8.161-0.51C393.336,417.564,394.093,418.072,394.325,418.072L394.325,418.072z"
   id="path102" />
		</g>
	</g>
	<g
   id="g112">
		<g
   id="g110">
			<path
   fill="#444241"
   d="M397.104,419.052c1.517,0,3.03,0,4.546,0c0.681,0,0.226-0.446-0.218-0.446c-1.516,0-3.029,0-4.545,0     C396.207,418.604,396.662,419.052,397.104,419.052L397.104,419.052z"
   id="path108" />
		</g>
	</g>
	<g
   id="g118">
		<g
   id="g116">
			<path
   fill="#444241"
   d="M394.135,418.955c2.692,0,5.387,0,8.078,0c0.157,0,1.102-0.254,0.676-0.254c-2.692,0-5.387,0-8.08,0     C394.652,418.701,393.709,418.955,394.135,418.955L394.135,418.955z"
   id="path114" />
		</g>
	</g>
	<g
   id="g124">
		<g
   id="g122">
			<path
   fill="#444241"
   d="M401.211,419.756c1.682,0,3.365,0,5.047,0c0.508,0,0.017-0.844-0.348-0.844c-1.685,0-3.365,0-5.049,0     C400.354,418.912,400.847,419.756,401.211,419.756L401.211,419.756z"
   id="path120" />
		</g>
	</g>
	<g
   id="g130">
		<g
   id="g128">
			<path
   fill="#231815"
   d="M418.361,400.045c1.418,1.455,2.169,3.116,2.522,5.104c0.094,0.529,1.058,0.438,0.949-0.162     c-0.383-2.15-1.252-3.932-2.779-5.498C418.655,399.078,417.907,399.578,418.361,400.045L418.361,400.045z"
   id="path126" />
		</g>
	</g>
	<g
   id="g136">
		<g
   id="g134">
			<path
   fill="#231815"
   d="M423.163,401.712c0.648,2.181,1.145,4.681-0.06,6.767c-1.187,2.056-3.916,2.489-6.058,2.648     c-0.653,0.049-0.211,0.798,0.295,0.76c2.484-0.185,5.136-0.754,6.627-2.938c1.449-2.124,0.806-5.075,0.13-7.342     C423.965,401.161,422.998,401.157,423.163,401.712L423.163,401.712z"
   id="path132" />
		</g>
	</g>
	<g
   id="g142">
		<g
   id="g140">
			<path
   fill="#444241"
   d="M397.873,376.979c0.379,0,0.758,0,1.136,0c0.132,0-0.188-0.302-0.202-0.313     c-0.131-0.11-0.354-0.308-0.538-0.308c-0.379,0-0.758,0-1.136,0c-0.132,0,0.188,0.302,0.202,0.313     C397.466,376.781,397.688,376.979,397.873,376.979L397.873,376.979z"
   id="path138" />
		</g>
	</g>
	<g
   id="g148">
		<g
   id="g146">
			<path
   fill="#444241"
   d="M403.813,371.866c-1.615,0.616-3.5,1.886-4.235,3.509c-0.768,1.689,0.946,2.7,2.342,2.984     c0.32,0.065,0.021-0.854-0.311-0.922c-0.622-0.127-1.74-0.313-1.516-1.164c0.146-0.553,0.612-1.037,0.996-1.436     c0.863-0.896,2.006-1.634,3.167-2.076C404.564,372.646,404.147,371.739,403.813,371.866L403.813,371.866z"
   id="path144" />
		</g>
	</g>
	<g
   id="g154">
		<g
   id="g152">
			<path
   fill="#444241"
   d="M404.405,375.318c-0.572,0.73-1.022,1.709-0.259,2.479c0.666,0.672,1.817,0.758,2.704,0.854     c0.634,0.067,0.607-0.875,0.048-0.936c-0.643-0.068-1.317-0.132-1.914-0.396c-0.685-0.301-0.118-0.981,0.195-1.383     C405.522,375.499,404.77,374.854,404.405,375.318L404.405,375.318z"
   id="path150" />
		</g>
	</g>
	<g
   id="g160">
		<g
   id="g158">
			<path
   fill="#444241"
   d="M399.252,376.787c1.576,1.455,3.815,1.745,5.877,1.764c0.653,0.008,0.185-0.73-0.295-0.734     c-1.721-0.016-3.602-0.244-4.916-1.457C399.555,376.023,398.77,376.343,399.252,376.787L399.252,376.787z"
   id="path156" />
		</g>
	</g>
	<g
   id="g166">
		<g
   id="g164">
			<path
   fill="#444241"
   d="M397.393,377.623c2.373,1.906,6.163,1.746,9.006,1.311c0.457-0.068,0.846-0.844,0.198-0.744     c-2.631,0.403-6.215,0.617-8.415-1.149C397.844,376.768,397.014,377.318,397.393,377.623L397.393,377.623z"
   id="path162" />
		</g>
	</g>
	<g
   id="g172">
		<g
   id="g170">
			<path
   fill="#444241"
   d="M395.807,376.417c2.978,1.972,6.388,2.724,9.899,3.046c0.211,0.02,1.007-0.27,0.822-0.287     c-3.472-0.318-6.848-1.063-9.79-3.013C396.523,376.021,395.752,376.381,395.807,376.417L395.807,376.417z"
   id="path168" />
		</g>
	</g>
	<g
   id="g178">
		<g
   id="g176">
			<path
   fill="#444241"
   d="M399.98,378.7c2.423,1.708,7.161,2.297,9.887,1.063c0.383-0.174-0.336-0.855-0.685-0.697     c-2.335,1.058-6.768,0.64-8.856-0.832C399.832,377.885,399.481,378.35,399.98,378.7L399.98,378.7z"
   id="path174" />
		</g>
	</g>
	<g
   id="g184">
		<g
   id="g182">
			<path
   fill="#444241"
   d="M400.63,378.828c2.329,1.048,4.857,0.74,7.338,0.718c0.593-0.005,0.738-0.839,0.086-0.832     c-2.292,0.021-4.706,0.36-6.86-0.608C400.711,377.889,400.053,378.568,400.63,378.828L400.63,378.828z"
   id="path180" />
		</g>
	</g>
	<g
   id="g190">
		<g
   id="g188">
			<path
   fill="#444241"
   d="M403.744,378.506c2.027,0.887,4.167,1.738,6.402,1.208c0.107-0.024-0.669-0.077-0.864-0.03     c-1.438,0.34-3.291-0.692-4.577-1.256C404.448,378.314,403.843,378.549,403.744,378.506L403.744,378.506z"
   id="path186" />
		</g>
	</g>
	<g
   id="g196">
		<g
   id="g194">
			<path
   fill="#444241"
   d="M405.585,378.67c0.778,0.284,1.587,0.475,2.366,0.758c0.184,0.067,0.447-0.046,0.609-0.121     c0.024-0.012,0.424-0.229,0.268-0.285c-0.779-0.283-1.587-0.474-2.366-0.758c-0.184-0.066-0.447,0.047-0.61,0.123     C405.827,378.396,405.429,378.613,405.585,378.67L405.585,378.67z"
   id="path192" />
		</g>
	</g>
	<g
   id="g202">
		<g
   id="g200">
			<path
   fill="#444241"
   d="M389.26,384.736c0.279,6.078,7.273,10.75,12.982,10.673c0.229-0.005,0.921-0.627,0.619-0.623     c-5.601,0.077-12.491-4.585-12.767-10.535C390.087,384.051,389.248,384.48,389.26,384.736L389.26,384.736z"
   id="path198" />
		</g>
	</g>
	<g
   id="g208">
		<g
   id="g206">
			<path
   fill="#444241"
   d="M397.428,390.857c0.838,1.641,1.956,3.037,3.611,3.9c0.529,0.276,0.347-0.652-0.004-0.836     c-1.342-0.701-2.271-1.837-2.951-3.169C397.851,390.297,397.125,390.264,397.428,390.857L397.428,390.857z"
   id="path204" />
		</g>
	</g>
	<g
   id="g214">
		<g
   id="g212">
			<path
   fill="#444241"
   d="M396.887,390.893c1.939,2.349,4.612,3.258,7.444,4.104c0.071,0.021-0.259-0.728-0.529-0.81     c-2.417-0.724-5.016-1.441-6.689-3.47C396.744,390.273,396.516,390.441,396.887,390.893L396.887,390.893z"
   id="path210" />
		</g>
	</g>
	<g
   id="g220">
		<g
   id="g218">
			<path
   fill="#444241"
   d="M394.784,388.757c1.933,3.71,6.809,4.778,10.591,5.345c0.664,0.1,0.375-0.463-0.092-0.533     c-3.443-0.514-7.846-1.377-9.604-4.752C395.538,388.541,394.579,388.361,394.784,388.757L394.784,388.757z"
   id="path216" />
		</g>
	</g>
	<g
   id="g226">
		<g
   id="g224">
			<path
   fill="#444241"
   d="M402.607,389.866c0.965,2.614,3.14,4.038,5.694,4.916c0.043,0.015-0.146-0.8-0.393-0.884     c-1.885-0.646-4.162-1.649-4.906-3.67C402.933,390.037,402.391,389.275,402.607,389.866L402.607,389.866z"
   id="path222" />
		</g>
	</g>
	<g
   id="g232">
		<g
   id="g230">
			<path
   fill="#444241"
   d="M408.236,392.104c1.896,1.867,4.011,3.465,6.258,4.886c0.593,0.374,0.122-0.075-0.152-0.248     c-1.93-1.22-3.729-2.601-5.354-4.203C408.843,392.396,408.164,392.032,408.236,392.104L408.236,392.104z"
   id="path228" />
		</g>
	</g>
	<g
   id="g238">
		<g
   id="g236">
			<path
   fill="#444241"
   d="M394.804,391.568c1.42,6.854,10.564,8.783,16.503,8.608c0.224-0.007,0.934-0.573,0.668-0.565     c-5.895,0.174-14.912-1.788-16.313-8.56C395.639,390.943,394.748,391.3,394.804,391.568L394.804,391.568z"
   id="path234" />
		</g>
	</g>
	<g
   id="g244">
		<g
   id="g242">
			<path
   fill="#444241"
   d="M404.377,391.751c1.833,2.229,4.459,3.267,7.218,3.843c0.271,0.057,1.127-0.377,0.597-0.488     c-2.655-0.556-5.157-1.588-6.917-3.729C405.086,391.146,404.163,391.49,404.377,391.751L404.377,391.751z"
   id="path240" />
		</g>
	</g>
	<g
   id="g250">
		<g
   id="g248">
			<path
   fill="#444241"
   d="M404.448,394.143c3.521,1.471,7.188,2.49,10.854,3.533c0.314,0.09,1.029-0.535,0.754-0.613     c-3.666-1.043-7.331-2.063-10.854-3.533C404.901,393.402,404.156,394.02,404.448,394.143L404.448,394.143z"
   id="path246" />
		</g>
	</g>
	<g
   id="g256">
		<g
   id="g254">
			<path
   fill="#444241"
   d="M400.842,393.738c5.611,2.787,12.873,6.797,19.369,5.57c0.427-0.08-0.096-0.924-0.479-0.852     c-6.326,1.193-13.504-2.803-19.005-5.536C400.21,392.664,400.514,393.575,400.842,393.738L400.842,393.738z"
   id="path252" />
		</g>
	</g>
</g>
</svg>
