<?xml version="1.0" encoding="UTF-8" standalone="no"?>
<svg
   xmlns:dc="http://purl.org/dc/elements/1.1/"
   xmlns:cc="http://creativecommons.org/ns#"
   xmlns:rdf="http://www.w3.org/1999/02/22-rdf-syntax-ns#"
   xmlns:svg="http://www.w3.org/2000/svg"
   xmlns="http://www.w3.org/2000/svg"
   xmlns:sodipodi="http://sodipodi.sourceforge.net/DTD/sodipodi-0.dtd"
   xmlns:inkscape="http://www.inkscape.org/namespaces/inkscape"
   version="1.1"
   id="图层_1"
   x="0px"
   y="0px"
   width="154.191px"
   height="70.368px"
   viewBox="503.325 377.514 154.191 70.368"
   enable-background="new 503.325 377.514 154.191 70.368"
   xml:space="preserve"
   sodipodi:docname="采矿-11.svg"><metadata
   id="metadata23"><rdf:RDF><cc:Work
       rdf:about=""><dc:format>image/svg+xml</dc:format><dc:type
         rdf:resource="http://purl.org/dc/dcmitype/StillImage" /></cc:Work></rdf:RDF></metadata><defs
   id="defs21" /><sodipodi:namedview
   pagecolor="#ffffff"
   bordercolor="#666666"
   borderopacity="1"
   objecttolerance="10"
   gridtolerance="10"
   guidetolerance="10"
   inkscape:pageopacity="0"
   inkscape:pageshadow="2"
   inkscape:window-width="640"
   inkscape:window-height="480"
   id="namedview19" />
<g
   id="g16">
	<path
   fill="#616161"
   stroke="#231815"
   stroke-width="0.5"
   stroke-miterlimit="10"
   d="M516.18,443.58h-12.15   c0,0,10.801-8.776,12.15-9.788c1.352-1.013,11.477-0.675,14.853-9.113c3.374-8.438-0.002-14.176,9.448-21.938   c9.452-7.764,15.527-2.024,20.928-8.775c5.4-6.75,3.376-16.201,14.853-16.201c11.476,0,17.913,1.351,19.082,9.113   c1.168,7.764,10.401,24.639,17.938,26.326c7.533,1.688,4.157-8.102,7.194-2.531c3.038,5.57,4.728,22.108,11.14,25.146   s10.071-3.714,19.719,4.05c9.646,7.764,4.63,3.714,4.63,3.714h-47.3c0,0,7.762,4.05-5.738,4.05s-45.902,0-45.902,0   s8.102-3.714-3.037-3.714s-32.401,0-32.401,0S507.403,445.941,516.18,443.58z"
   id="path2" />
	<g
   id="g14">
		<path
   fill="#444241"
   d="M590.591,396.721c0.378-0.029,0.747-0.13,1.081-0.293c0.116,0.229,0.221,0.471,0.345,0.729    c0.16,0.332,0.572,0.617,0.852,0.833c0.514,0.397,1.063,0.752,1.631,1.069c0.437,0.248,0.901,0.498,1.386,0.639    c0.094,0.025,0.531,0.142,0.394-0.145c-0.344-0.707-0.617-1.334-1.176-1.912c-0.735-0.761-1.68-1.357-2.625-1.845    c0.19-0.226,0.344-0.485,0.434-0.786c0.038-0.132,0.082-0.266,0.125-0.396c1.112,0.263,2.424-0.103,3.033-1.111    c0.658-1.095-0.003-2.353-1.12-2.778c-0.936-0.358-1.935-0.559-2.907-0.461c-0.483-0.767-1.602-1.141-2.438-1.076    c-1.246,0.094-2.367,0.957-2.366,2.269c0.002,1.638,0.226,2.992,1.1,4.399C588.759,396.541,589.857,396.775,590.591,396.721z     M593.297,394.1c-0.006,0.004-0.012,0.006-0.02,0.01c0.035-0.059,0.071-0.118,0.111-0.176    C593.325,394.027,593.304,394.073,593.297,394.1z"
   id="path4" />
		<path
   fill="#444241"
   d="M615.128,428.238c-2.337-0.134-4.659,0.043-6.998,0.043c-0.306,0-0.586-0.022-0.854-0.055    c1.911-1.464,0.218-3.908-1.902-3.646c-0.008-0.021-0.011-0.029-0.019-0.053c-0.332-0.931-0.416-1.933-0.497-2.905    c-0.082-0.959-0.11-1.92-0.117-2.881c0.559-0.719,0.985-1.541,1.208-2.5c0.115-0.496-0.613-0.449-1.217-0.334    c-0.015-0.268-0.067-0.502-0.157-0.707c0.437-0.268,0.906-0.494,1.404-0.66c0.553-0.184-1.102-1.273-1.246-1.37    c-0.53-0.348-2.131-1.543-2.845-1.306c-0.034,0.012-0.069,0.027-0.104,0.039c-0.867,0.027-2.599,0.518-2.751,0.594    c-2.799,1.385-4.44,3.284-5.934,5.566c-0.86,0.481-1.786,0.836-2.782,1.08c-1.298-0.957-3.399-1.019-5.361-0.363    c-2.896,0.968-5.137,2.729-8.324,2.332c-4.176-0.522-7.864-2.657-12.143-2.926c-0.702-0.045-1.191,0.179-1.513,0.537    c-0.751-0.117-1.506-0.222-2.269-0.31c-0.451-0.158-1.013-0.205-1.569-0.155c-2.152-0.176-4.316-0.188-6.424,0.065    c-0.009-0.027-0.001-0.06-0.015-0.087c-0.697-1.309-1.718-2.122-3.245-2.223c-1.114-0.072-2.607,0.438-3.182,1.469    c-0.504,0.904,0.265,1.449,1.051,1.623c0.045,0.031,0.082,0.057,0.105,0.074c0.096,0.088,0.184,0.186,0.266,0.283    c0.003,0.002,0.021,0.029,0.044,0.066c-0.094,0.035-0.188,0.064-0.279,0.103c-1.075,0.437,0.355,1.16,0.787,1.293    c1.073,0.331,2.414,0.451,3.479,0.019c1.658-0.676,3.449-0.946,5.275-0.977c0.105,0.191,0.279,0.391,0.557,0.602    c10.308,7.802,24.278,9.029,37.022,9.221c1.813,0.969,3.808,1.297,5.93,1.388c0.344,0.016,0.646-0.013,0.916-0.066    c3.163,1.794,8.43,0.629,11.565,0.809C615.039,432.039,618.16,428.412,615.128,428.238z M586.771,422.059    c-0.025,0.11-0.027,0.221-0.033,0.331C586.732,422.293,586.741,422.186,586.771,422.059z M591.469,420.714    c-0.021-0.002-0.042-0.008-0.063-0.011c-0.024-0.075-0.039-0.158-0.068-0.23c0.113-0.035,0.228-0.068,0.337-0.104    C591.606,420.48,591.538,420.598,591.469,420.714z"
   id="path6" />
		<path
   fill="#444241"
   d="M644.479,440.124c-2.985-0.748-7.326,1.394-9.25-1.72c-0.805-1.304-5.247,1.1-4.534,2.251    c2.396,3.878,6.758,1.435,10.323,2.33C642.321,443.313,646.374,440.6,644.479,440.124z"
   id="path8" />
		<path
   fill="#444241"
   d="M552.161,439.848c-3.277-1.919-3.827-5.014-3.533-8.566c0.033-0.411-0.231-0.649-0.647-0.757    c0.036-0.024,0.066-0.052,0.071-0.089c0.028-0.209-0.62-0.376-0.692-0.397c-0.177-0.055-0.357-0.098-0.537-0.144    c0.037-0.128,0.078-0.255,0.106-0.386c0.306-1.361-2.404-0.993-3.891,0.025c-0.416,0-0.833,0-1.249,0    c-0.075,0-0.746-0.019-0.775,0.188c-0.028,0.209,0.62,0.376,0.693,0.398c0.189,0.061,0.388,0.105,0.585,0.155    c-0.073,0.119-0.132,0.246-0.16,0.373c-0.582,2.608-4.088,4.139-6.256,5.149c-2.553,1.194-5.28,2.159-8.061,2.641    c-1.79,0.31-3.958,2.968-0.934,2.953c0.708-0.003,1.4-0.022,2.092-0.062c0.051,1.234,1.115,2.518,2.522,2.489    c1.144-0.024,2.263-0.105,3.375-0.235c0.813,0.272,1.761,0.201,2.387-0.353c2.465,0,4.931,0,7.396,0    c0.684,0,0.992-0.535,1.094-1.149c0.276-0.042,0.554-0.087,0.821-0.148c0.273-0.063,0.494-0.176,0.688-0.31    c0.146,0.098,0.289,0.195,0.445,0.287c0.945,0.554,2.271,0.176,3.193-0.251C551.212,441.517,553.088,440.389,552.161,439.848z"
   id="path10" />
		<path
   fill="#444241"
   d="M541.666,412.645c2.92,0.196,6.001,0.594,9.155,1c0.646,0.836,1.555,1.565,2.217,1.558    c2.328-0.031,4.622-0.168,6.882-0.543c8.427,0.657,16.78,0.123,23.464-5.076c0.404-0.313-0.012-1.364-0.642-2.345    c0.904,0,1.807,0,2.711,0c1.226,0,1.875-1.271,1.498-2.332c-0.449-1.268-1.731-1.938-3.012-1.938c-3.525,0-7.053,0-10.577,0    c-0.684-0.676-1.779-0.846-2.688-0.861c-1.038-0.021-2.074-0.166-3.116-0.26c-0.188-0.127-0.394-0.229-0.595-0.289    c-1.166-0.351-2.591-0.086-3.411,0.849c-0.478,0.545-0.616,1.165-0.619,1.87c-0.007,1.195,1.759,1.524,2.63,1.465    c0.271,0.199,0.569,0.359,0.901,0.46c-0.051,0.036-0.102,0.071-0.154,0.108c-1.965,0.262-3.884,0.646-5.77,1.135    c-0.11-0.055-0.216-0.094-0.317-0.096c-3.499-0.098-6.965-0.572-10.464-0.676c-3.613-0.105-6.782,1.971-10.464,1.688    C538.558,408.313,540.393,412.547,541.666,412.645z"
   id="path12" />
	</g>
</g>
</svg>
