<?xml version="1.0" encoding="UTF-8" standalone="no"?>
<svg
   xmlns:dc="http://purl.org/dc/elements/1.1/"
   xmlns:cc="http://creativecommons.org/ns#"
   xmlns:rdf="http://www.w3.org/1999/02/22-rdf-syntax-ns#"
   xmlns:svg="http://www.w3.org/2000/svg"
   xmlns="http://www.w3.org/2000/svg"
   xmlns:sodipodi="http://sodipodi.sourceforge.net/DTD/sodipodi-0.dtd"
   xmlns:inkscape="http://www.inkscape.org/namespaces/inkscape"
   version="1.1"
   id="图层_1"
   x="0px"
   y="0px"
   width="98.311px"
   height="105.181px"
   viewBox="38.637 472.715 98.311 105.181"
   enable-background="new 38.637 472.715 98.311 105.181"
   xml:space="preserve"
   sodipodi:docname="采矿-12.svg"><metadata
   id="metadata89"><rdf:RDF><cc:Work
       rdf:about=""><dc:format>image/svg+xml</dc:format><dc:type
         rdf:resource="http://purl.org/dc/dcmitype/StillImage" /></cc:Work></rdf:RDF></metadata><defs
   id="defs87" /><sodipodi:namedview
   pagecolor="#ffffff"
   bordercolor="#666666"
   borderopacity="1"
   objecttolerance="10"
   gridtolerance="10"
   guidetolerance="10"
   inkscape:pageopacity="0"
   inkscape:pageshadow="2"
   inkscape:window-width="640"
   inkscape:window-height="480"
   id="namedview85" />
<g
   id="g82">
	<polygon
   fill="#B28804"
   stroke="#231815"
   stroke-width="0.5"
   stroke-miterlimit="10"
   points="105.067,565.054 70.514,565.054    71.77,561.829 103.813,561.829  "
   id="polygon2" />
	<g
   id="g26">
		<path
   fill="#4C4C4C"
   stroke="#231815"
   stroke-width="0.5"
   stroke-miterlimit="10"
   d="M42.711,497.43c0,0,1.119-7.093,9.332-7.839    c8.214-0.747,5.229,0,5.229,0s1.679-8.026,7.278-11.388c5.601-3.359,9.708-5.411,14.561-5.227    c4.853,0.186,12.506,4.292,14.373,4.666c1.866,0.374,9.52-0.934,15.307,3.921c5.787,4.854,6.533,5.975,11.946,7.094    c5.414,1.12,11.386-0.188,12.133,8.771S42.711,497.43,42.711,497.43z"
   id="path4" />
		<g
   id="g8">
			<path
   fill="#231815"
   d="M59.693,491.003c1.863-0.099,3.577,0.01,3.923,2.501c0.284,2.049,5.854,1.84,5.6,0.013     c-0.637-4.587-5.59-5.547-9.517-5.339c-0.8,0.042-2.799,0.203-2.803,1.406C56.893,490.728,58.895,491.046,59.693,491.003     L59.693,491.003z"
   id="path6" />
		</g>
		<g
   id="g12">
			<path
   fill="#231815"
   d="M95.762,481.626c1.042,1.367,2.271,2.487,3.605,3.563c1.305,1.053,1.907,2.123,2.695,3.582     c0.582,1.078,1.315,2.337,2.383,3.011c1.018,0.642,0.396-1.042,0.218-1.371c-1.193-2.209-2.272-4.501-3.996-6.364     c-0.753-0.813-1.479-1.614-2.322-2.34c-0.784-0.674-1.685-1.242-2.315-2.072c-0.096-0.124-1.707-1.96-1.82-1.12     C94.069,479.551,95.195,480.881,95.762,481.626L95.762,481.626z"
   id="path10" />
		</g>
		<g
   id="g16">
			<path
   fill="#231815"
   d="M115.705,490.801c1.145,0.135,2.114,0.743,3.106,1.295c1.391,0.777,2.758,1.52,4.249,2.096     c0.869,0.335,2.63,0.338,2.704-0.948c0.076-1.34-1.447-2.245-2.499-2.65c-2.997-1.156-5.391-3.316-8.699-3.705     c-1.013-0.12-2.348,0.306-1.972,1.597C112.963,489.74,114.468,490.655,115.705,490.801L115.705,490.801z"
   id="path14" />
		</g>
		<g
   id="g20">
			<path
   fill="#231815"
   d="M118.102,490.023c-1.991-0.12-4.116,0.926-5.319,2.502c-1.064,1.394,2.573,5.427,3.216,4.585     c1.098-1.438,2.928-2.463,4.76-2.354c1.084,0.064,0.085-2.013-0.091-2.325C120.193,491.587,119.212,490.091,118.102,490.023     L118.102,490.023z"
   id="path18" />
		</g>
		<g
   id="g24">
			<path
   fill="#231815"
   d="M60.505,491.681c5.366-1.942,11.183-3.585,16.831-1.899c1.207,0.359,0.2-1.204-0.052-1.499     c-0.803-0.949-1.909-1.88-3.119-2.241c-5.894-1.758-11.901-0.198-17.517,1.835C55.626,488.245,59.223,492.144,60.505,491.681     L60.505,491.681z"
   id="path22" />
		</g>
	</g>
	
		<rect
   x="38.887"
   y="499.375"
   fill="#E5B200"
   stroke="#231815"
   stroke-width="0.5"
   stroke-miterlimit="10"
   width="97.811"
   height="2.674"
   id="rect28" />
	
		<rect
   x="38.887"
   y="497.43"
   fill="#FFFFFF"
   stroke="#231815"
   stroke-width="0.5"
   stroke-miterlimit="10"
   width="97.811"
   height="1.945"
   id="rect30" />
	<polygon
   fill="#FFD940"
   stroke="#231815"
   stroke-width="0.5"
   stroke-miterlimit="10"
   points="132.875,502.044 125.035,555.423    117.42,561.829 58.161,561.829 50.545,555.423 42.705,502.044  "
   id="polygon32" />
	<polygon
   fill="#E5B200"
   points="125.035,554.974 117.42,561.38 58.161,561.38 50.545,554.974  "
   id="polygon34" />
	<polygon
   fill="#E5B200"
   points="132.386,502.269 129.028,525.896 124.565,506.054 50.619,506.054 46.757,525.896 43.195,502.269     "
   id="polygon36" />
	<polygon
   fill="#E5B200"
   stroke="#231815"
   stroke-width="0.5"
   stroke-miterlimit="10"
   points="71.77,561.829 70.514,565.054    67.189,573.588 58.161,573.588 58.161,561.829  "
   id="polygon38" />
	<circle
   fill="#FFD940"
   stroke="#231815"
   stroke-width="0.5"
   stroke-miterlimit="10"
   cx="63.061"
   cy="570.95"
   r="6.695"
   id="circle40" />
	<circle
   fill="#E5B200"
   stroke="#231815"
   stroke-width="0.5"
   stroke-miterlimit="10"
   cx="63.061"
   cy="570.95"
   r="3.357"
   id="circle42" />
	<polygon
   fill="#E5B200"
   stroke="#231815"
   stroke-width="0.5"
   stroke-miterlimit="10"
   points="117.42,561.829 117.42,573.588    108.393,573.588 105.067,565.054 103.813,561.829  "
   id="polygon44" />
	<g
   id="g50">
		<circle
   fill="#FFD940"
   stroke="#231815"
   stroke-width="0.5"
   stroke-miterlimit="10"
   cx="112.524"
   cy="570.95"
   r="6.694"
   id="circle46" />
		<circle
   fill="#E5B200"
   stroke="#231815"
   stroke-width="0.5"
   stroke-miterlimit="10"
   cx="112.524"
   cy="570.95"
   r="3.356"
   id="circle48" />
	</g>
	<polygon
   fill="#E5B200"
   points="60.604,554.974 64.563,512.269 68.521,554.974  "
   id="polygon52" />
	<polygon
   fill="#B28804"
   points="64.931,516.232 64.563,512.269 60.604,554.974 61.338,554.974  "
   id="polygon54" />
	<polygon
   fill="#FFE780"
   points="64.36,516.232 64.728,512.269 68.687,554.974 67.952,554.974  "
   id="polygon56" />
	<polygon
   fill="#E5B200"
   points="72.176,554.974 76.135,512.269 80.095,554.974  "
   id="polygon58" />
	<polygon
   fill="#B28804"
   points="76.503,516.232 76.135,512.269 72.176,554.974 72.91,554.974  "
   id="polygon60" />
	<polygon
   fill="#FFE780"
   points="75.934,516.232 76.301,512.269 80.26,554.974 79.525,554.974  "
   id="polygon62" />
	<polygon
   fill="#E5B200"
   points="83.749,554.974 87.708,512.269 91.668,554.974  "
   id="polygon64" />
	<polygon
   fill="#B28804"
   points="88.075,516.232 87.708,512.269 83.749,554.974 84.483,554.974  "
   id="polygon66" />
	<polygon
   fill="#FFE780"
   points="87.506,516.232 87.873,512.269 91.832,554.974 91.098,554.974  "
   id="polygon68" />
	<polygon
   fill="#E5B200"
   points="95.322,554.974 99.281,512.269 103.24,554.974  "
   id="polygon70" />
	<polygon
   fill="#B28804"
   points="99.648,516.232 99.281,512.269 95.322,554.974 96.057,554.974  "
   id="polygon72" />
	<polygon
   fill="#FFE780"
   points="99.078,516.232 99.446,512.269 103.405,554.974 102.671,554.974  "
   id="polygon74" />
	<polygon
   fill="#E5B200"
   points="106.895,554.974 110.854,512.269 114.813,554.974  "
   id="polygon76" />
	<polygon
   fill="#B28804"
   points="111.221,516.232 110.854,512.269 106.895,554.974 107.629,554.974  "
   id="polygon78" />
	<polygon
   fill="#FFE780"
   points="110.651,516.232 111.02,512.269 114.979,554.974 114.243,554.974  "
   id="polygon80" />
</g>
</svg>
