<?xml version="1.0" encoding="UTF-8" standalone="no"?>
<svg
   xmlns:dc="http://purl.org/dc/elements/1.1/"
   xmlns:cc="http://creativecommons.org/ns#"
   xmlns:rdf="http://www.w3.org/1999/02/22-rdf-syntax-ns#"
   xmlns:svg="http://www.w3.org/2000/svg"
   xmlns="http://www.w3.org/2000/svg"
   xmlns:sodipodi="http://sodipodi.sourceforge.net/DTD/sodipodi-0.dtd"
   xmlns:inkscape="http://www.inkscape.org/namespaces/inkscape"
   version="1.1"
   id="图层_1"
   x="0px"
   y="0px"
   width="98.311px"
   height="105.179px"
   viewBox="204.621 472.715 98.311 105.179"
   enable-background="new 204.621 472.715 98.311 105.179"
   xml:space="preserve"
   sodipodi:docname="采矿-13.svg"><metadata
   id="metadata103"><rdf:RDF><cc:Work
       rdf:about=""><dc:format>image/svg+xml</dc:format><dc:type
         rdf:resource="http://purl.org/dc/dcmitype/StillImage" /></cc:Work></rdf:RDF></metadata><defs
   id="defs101" /><sodipodi:namedview
   pagecolor="#ffffff"
   bordercolor="#666666"
   borderopacity="1"
   objecttolerance="10"
   gridtolerance="10"
   guidetolerance="10"
   inkscape:pageopacity="0"
   inkscape:pageshadow="2"
   inkscape:window-width="640"
   inkscape:window-height="480"
   id="namedview99" />
<g
   id="g96">
	<polygon
   fill="#4C4C4C"
   stroke="#231815"
   stroke-width="0.5"
   stroke-miterlimit="10"
   points="271.053,565.054 236.498,565.054    237.754,561.829 269.797,561.829  "
   id="polygon2" />
	<g
   id="g26">
		<path
   fill="#4C4C4C"
   stroke="#231815"
   stroke-width="0.5"
   stroke-miterlimit="10"
   d="M208.695,497.43c0,0,1.119-7.093,9.332-7.839    c8.215-0.747,5.229,0,5.229,0s1.68-8.026,7.279-11.388c5.6-3.359,9.707-5.411,14.561-5.227c4.852,0.187,12.506,4.292,14.373,4.666    c1.865,0.374,9.52-0.934,15.307,3.921c5.787,4.854,6.533,5.975,11.945,7.094c5.414,1.12,11.387-0.188,12.133,8.771    C299.602,506.391,208.695,497.43,208.695,497.43z"
   id="path4" />
		<g
   id="g8">
			<path
   fill="#231815"
   d="M225.678,491.003c1.863-0.099,3.578,0.01,3.924,2.501c0.283,2.049,5.854,1.84,5.6,0.013     c-0.637-4.587-5.59-5.547-9.518-5.339c-0.799,0.042-2.799,0.203-2.803,1.406C222.877,490.728,224.879,491.046,225.678,491.003     L225.678,491.003z"
   id="path6" />
		</g>
		<g
   id="g12">
			<path
   fill="#231815"
   d="M261.746,481.626c1.043,1.367,2.271,2.487,3.605,3.563c1.305,1.053,1.908,2.123,2.695,3.582     c0.582,1.078,1.316,2.337,2.383,3.011c1.018,0.642,0.396-1.042,0.219-1.371c-1.193-2.209-2.273-4.501-3.996-6.364     c-0.754-0.813-1.479-1.614-2.322-2.34c-0.785-0.674-1.686-1.242-2.316-2.072c-0.096-0.124-1.707-1.96-1.82-1.12     C260.055,479.551,261.18,480.881,261.746,481.626L261.746,481.626z"
   id="path10" />
		</g>
		<g
   id="g16">
			<path
   fill="#231815"
   d="M281.689,490.801c1.145,0.135,2.115,0.743,3.107,1.295c1.391,0.777,2.758,1.52,4.248,2.096     c0.869,0.335,2.631,0.338,2.705-0.948c0.076-1.34-1.447-2.245-2.5-2.65c-2.996-1.156-5.391-3.316-8.699-3.705     c-1.012-0.12-2.348,0.306-1.971,1.597C278.947,489.74,280.453,490.655,281.689,490.801L281.689,490.801z"
   id="path14" />
		</g>
		<g
   id="g20">
			<path
   fill="#231815"
   d="M284.086,490.023c-1.99-0.12-4.115,0.926-5.318,2.502c-1.064,1.394,2.572,5.427,3.215,4.585     c1.098-1.438,2.928-2.463,4.76-2.354c1.084,0.064,0.086-2.013-0.09-2.325C286.178,491.587,285.197,490.091,284.086,490.023     L284.086,490.023z"
   id="path18" />
		</g>
		<g
   id="g24">
			<path
   fill="#231815"
   d="M226.49,491.681c5.365-1.942,11.182-3.585,16.83-1.899c1.207,0.359,0.201-1.204-0.051-1.499     c-0.803-0.949-1.91-1.88-3.119-2.241c-5.895-1.758-11.902-0.198-17.518,1.835C221.611,488.245,225.207,492.144,226.49,491.681     L226.49,491.681z"
   id="path22" />
		</g>
	</g>
	
		<rect
   x="204.871"
   y="499.375"
   fill="#7F7F7F"
   stroke="#231815"
   stroke-width="0.5"
   stroke-miterlimit="10"
   width="97.811"
   height="2.674"
   id="rect28" />
	
		<rect
   x="204.871"
   y="497.43"
   fill="#FFFFFF"
   stroke="#231815"
   stroke-width="0.5"
   stroke-miterlimit="10"
   width="97.811"
   height="1.945"
   id="rect30" />
	<polygon
   fill="#7F7F7F"
   stroke="#231815"
   stroke-width="0.5"
   stroke-miterlimit="10"
   points="298.859,502.044 291.02,555.423    283.404,561.829 224.146,561.829 216.529,555.423 208.689,502.044  "
   id="polygon32" />
	<polygon
   fill="#666666"
   points="291.02,554.974 283.404,561.38 224.146,561.38 216.529,554.974  "
   id="polygon34" />
	<polygon
   fill="#666666"
   points="298.371,502.269 295.014,525.896 290.551,506.054 216.604,506.054 212.742,525.896 209.18,502.269     "
   id="polygon36" />
	<polygon
   fill="#CCCCCC"
   stroke="#231815"
   stroke-width="0.5"
   stroke-miterlimit="10"
   points="237.754,561.829 236.498,565.054    233.174,573.588 224.146,573.588 224.146,561.829  "
   id="polygon38" />
	<g
   id="g44">
		<circle
   fill="#7F7F7F"
   stroke="#231815"
   stroke-width="0.5"
   stroke-miterlimit="10"
   cx="229.046"
   cy="570.95"
   r="6.694"
   id="circle40" />
		<circle
   fill="#4C4C4C"
   stroke="#231815"
   stroke-width="0.5"
   stroke-miterlimit="10"
   cx="229.046"
   cy="570.95"
   r="3.356"
   id="circle42" />
	</g>
	<polygon
   fill="#CCCCCC"
   stroke="#231815"
   stroke-width="0.5"
   stroke-miterlimit="10"
   points="283.404,561.829 283.404,573.588    274.377,573.588 271.053,565.054 269.797,561.829  "
   id="polygon46" />
	<g
   id="g52">
		<circle
   fill="#7F7F7F"
   stroke="#231815"
   stroke-width="0.5"
   stroke-miterlimit="10"
   cx="278.509"
   cy="570.95"
   r="6.694"
   id="circle48" />
		<circle
   fill="#4C4C4C"
   stroke="#231815"
   stroke-width="0.5"
   stroke-miterlimit="10"
   cx="278.509"
   cy="570.95"
   r="3.356"
   id="circle50" />
	</g>
	<g
   id="g94">
		<g
   id="g60">
			<polygon
   fill="#666666"
   points="226.588,554.974 230.547,512.269 234.506,554.974    "
   id="polygon54" />
			<polygon
   fill="#231815"
   points="230.916,516.232 230.547,512.269 226.588,554.974 227.322,554.974    "
   id="polygon56" />
			<polygon
   fill="#CCCCCC"
   points="230.346,516.232 230.713,512.269 234.672,554.974 233.938,554.974    "
   id="polygon58" />
		</g>
		<g
   id="g68">
			<polygon
   fill="#666666"
   points="238.16,554.974 242.119,512.269 246.08,554.974    "
   id="polygon62" />
			<polygon
   fill="#231815"
   points="242.488,516.232 242.119,512.269 238.16,554.974 238.895,554.974    "
   id="polygon64" />
			<polygon
   fill="#CCCCCC"
   points="241.918,516.232 242.285,512.269 246.244,554.974 245.51,554.974    "
   id="polygon66" />
		</g>
		<g
   id="g76">
			<polygon
   fill="#666666"
   points="249.734,554.974 253.693,512.269 257.652,554.974    "
   id="polygon70" />
			<polygon
   fill="#231815"
   points="254.061,516.232 253.693,512.269 249.734,554.974 250.469,554.974    "
   id="polygon72" />
			<polygon
   fill="#CCCCCC"
   points="253.49,516.232 253.857,512.269 257.816,554.974 257.082,554.974    "
   id="polygon74" />
		</g>
		<g
   id="g84">
			<polygon
   fill="#666666"
   points="261.307,554.974 265.266,512.269 269.225,554.974    "
   id="polygon78" />
			<polygon
   fill="#231815"
   points="265.633,516.232 265.266,512.269 261.307,554.974 262.041,554.974    "
   id="polygon80" />
			<polygon
   fill="#CCCCCC"
   points="265.063,516.232 265.432,512.269 269.391,554.974 268.656,554.974    "
   id="polygon82" />
		</g>
		<g
   id="g92">
			<polygon
   fill="#666666"
   points="272.879,554.974 276.838,512.269 280.797,554.974    "
   id="polygon86" />
			<polygon
   fill="#231815"
   points="277.205,516.232 276.838,512.269 272.879,554.974 273.613,554.974    "
   id="polygon88" />
			<polygon
   fill="#CCCCCC"
   points="276.637,516.232 277.004,512.269 280.963,554.974 280.229,554.974    "
   id="polygon90" />
		</g>
	</g>
</g>
</svg>
