<?xml version="1.0" encoding="UTF-8" standalone="no"?>
<svg
   xmlns:dc="http://purl.org/dc/elements/1.1/"
   xmlns:cc="http://creativecommons.org/ns#"
   xmlns:rdf="http://www.w3.org/1999/02/22-rdf-syntax-ns#"
   xmlns:svg="http://www.w3.org/2000/svg"
   xmlns="http://www.w3.org/2000/svg"
   xmlns:sodipodi="http://sodipodi.sourceforge.net/DTD/sodipodi-0.dtd"
   xmlns:inkscape="http://www.inkscape.org/namespaces/inkscape"
   version="1.1"
   id="图层_1"
   x="0px"
   y="0px"
   width="118.201px"
   height="118.724px"
   viewBox="385.86 78.601 118.201 118.724"
   enable-background="new 385.86 78.601 118.201 118.724"
   xml:space="preserve"
   sodipodi:docname="采矿-03.svg"><metadata
   id="metadata23"><rdf:RDF><cc:Work
       rdf:about=""><dc:format>image/svg+xml</dc:format><dc:type
         rdf:resource="http://purl.org/dc/dcmitype/StillImage" /></cc:Work></rdf:RDF></metadata><defs
   id="defs21" /><sodipodi:namedview
   pagecolor="#ffffff"
   bordercolor="#666666"
   borderopacity="1"
   objecttolerance="10"
   gridtolerance="10"
   guidetolerance="10"
   inkscape:pageopacity="0"
   inkscape:pageshadow="2"
   inkscape:window-width="640"
   inkscape:window-height="480"
   id="namedview19" />
<g
   id="g16">
	<polygon
   fill="#FFCC00"
   stroke="#231815"
   stroke-width="0.5"
   stroke-miterlimit="10"
   points="475.124,100.414 485.114,95.021    460.464,92.363 468.005,83.877 468.003,83.878 468.005,83.876 455.173,87.039 443.933,89.809 448.116,79.257 427.526,93.064    427.849,81.718 413.222,101.735 409.646,90.962 402.745,114.776 395.698,105.875 397.36,130.613 387.694,124.658 397.718,147.336    386.599,145.047 403.772,162.929 392.54,164.58 414.796,175.51 404.804,180.904 429.456,183.563 421.913,192.049 445.987,186.116    441.802,196.669 462.394,182.861 462.071,194.208 476.7,174.191 480.276,184.965 487.177,161.15 494.222,170.051 492.56,145.313    502.226,151.267 492.204,128.588 503.323,130.878 486.147,112.996 497.38,111.343  "
   id="polygon2" />
	<circle
   fill="#E5B200"
   stroke="#231815"
   stroke-width="0.5"
   stroke-miterlimit="10"
   cx="444.96"
   cy="137.963"
   r="39.744"
   id="circle4" />
	<circle
   fill="#FFCC00"
   stroke="#231815"
   stroke-width="0.5"
   stroke-miterlimit="10"
   cx="444.959"
   cy="137.963"
   r="21.023"
   id="circle6" />
	<circle
   fill="#E5B200"
   stroke="#231815"
   stroke-width="0.5"
   stroke-miterlimit="10"
   cx="444.96"
   cy="137.963"
   r="11.425"
   id="circle8" />
	<circle
   fill="#E5B200"
   stroke="#231815"
   stroke-width="0.5"
   stroke-miterlimit="10"
   cx="427.67"
   cy="117.359"
   r="4.57"
   id="circle10" />
	<circle
   fill="#E5B200"
   stroke="#231815"
   stroke-width="0.5"
   stroke-miterlimit="10"
   cx="435.761"
   cy="163.238"
   r="4.568"
   id="circle12" />
	<circle
   fill="#E5B200"
   stroke="#231815"
   stroke-width="0.5"
   stroke-miterlimit="10"
   cx="471.449"
   cy="133.291"
   r="4.569"
   id="circle14" />
</g>
</svg>
