<?xml version="1.0" encoding="UTF-8" standalone="no"?>
<svg
   xmlns:dc="http://purl.org/dc/elements/1.1/"
   xmlns:cc="http://creativecommons.org/ns#"
   xmlns:rdf="http://www.w3.org/1999/02/22-rdf-syntax-ns#"
   xmlns:svg="http://www.w3.org/2000/svg"
   xmlns="http://www.w3.org/2000/svg"
   xmlns:sodipodi="http://sodipodi.sourceforge.net/DTD/sodipodi-0.dtd"
   xmlns:inkscape="http://www.inkscape.org/namespaces/inkscape"
   version="1.1"
   id="图层_1"
   x="0px"
   y="0px"
   width="194.335px"
   height="112.971px"
   viewBox="250.939 218.735 194.335 112.971"
   enable-background="new 250.939 218.735 194.335 112.971"
   xml:space="preserve"
   sodipodi:docname="采矿-06.svg"><metadata
   id="metadata127"><rdf:RDF><cc:Work
       rdf:about=""><dc:format>image/svg+xml</dc:format><dc:type
         rdf:resource="http://purl.org/dc/dcmitype/StillImage" /></cc:Work></rdf:RDF></metadata><defs
   id="defs125" /><sodipodi:namedview
   pagecolor="#ffffff"
   bordercolor="#666666"
   borderopacity="1"
   objecttolerance="10"
   gridtolerance="10"
   guidetolerance="10"
   inkscape:pageopacity="0"
   inkscape:pageshadow="2"
   inkscape:window-width="640"
   inkscape:window-height="480"
   id="namedview123" />
<g
   id="g120">
	<path
   fill="#B7743D"
   stroke="#231815"
   stroke-width="0.5"
   stroke-miterlimit="10"
   d="M293.91,240.08c0,0-3.678-2.388,19.225-6.881   c12.875-2.526,17.959-12.769,30.672-13.111c13.425-0.361,15.984-3.368,28.08,2.406c12.097,5.774,18.383,10.929,25.775,17.586   c7.393,6.658,25.512,13.333,25.512,13.333L293.91,240.08z"
   id="path2" />
	<g
   id="g118">
		<polygon
   fill="#F4C914"
   stroke="#231815"
   stroke-width="0.5"
   stroke-miterlimit="10"
   points="319.926,244.444 275.119,244.444     268.477,267.647 261.168,267.647 261.168,288.946 319.926,288.946   "
   id="polygon4" />
		
			<rect
   x="314.023"
   y="317.541"
   fill="#E5B200"
   stroke="#231815"
   stroke-width="0.5"
   stroke-miterlimit="10"
   width="72.11"
   height="3.372"
   id="rect6" />
		<polygon
   fill="#E5B200"
   stroke="#231815"
   stroke-width="0.5"
   stroke-miterlimit="10"
   points="402.273,317.536 312.982,317.536     288.721,281.272 416.496,273.683   "
   id="polygon8" />
		<rect
   x="324.109"
   y="288.944"
   fill="#F4C914"
   width="66.229"
   height="2.929"
   id="rect10" />
		<polygon
   fill="#FFD940"
   stroke="#231815"
   stroke-width="0.5"
   stroke-miterlimit="10"
   points="297.26,246.974 268.197,242.054     268.197,238.54 439.48,248.801 444.963,268.833 314.969,295.61   "
   id="polygon12" />
		<g
   id="g20">
			<path
   fill="#333333"
   stroke="#231815"
   stroke-width="0.5"
   stroke-miterlimit="10"
   d="M319.002,306.364     c0,13.856-11.236,25.092-25.092,25.092c-13.857,0-25.094-11.235-25.094-25.092c0-13.857,11.236-25.092,25.094-25.092     C307.766,281.272,319.002,292.507,319.002,306.364z"
   id="path14" />
			<circle
   fill="#666666"
   stroke="#231815"
   stroke-width="0.5"
   stroke-miterlimit="10"
   cx="293.909"
   cy="306.364"
   r="10.935"
   id="circle16" />
			<circle
   fill="#E5B200"
   stroke="#231815"
   stroke-width="0.5"
   stroke-miterlimit="10"
   cx="293.909"
   cy="306.364"
   r="8.138"
   id="circle18" />
		</g>
		<g
   id="g28">
			<polygon
   fill="#F4C914"
   points="339.359,259.476 316.309,259.476 308.752,250.066 331.801,250.066    "
   id="polygon22" />
			<polygon
   fill="#E5B200"
   points="311.439,251.144 332.666,251.144 331.801,250.066 308.752,250.066 316.309,259.476      318.133,259.476    "
   id="polygon24" />
			<polygon
   fill="#FFF78F"
   points="336.672,258.4 317.268,258.4 316.309,259.476 339.359,259.476 331.801,250.066 330.844,251.144         "
   id="polygon26" />
		</g>
		<g
   id="g36">
			<polygon
   fill="#F4C914"
   points="369.967,259.476 346.918,259.476 339.359,250.066 362.41,250.066    "
   id="polygon30" />
			<polygon
   fill="#E5B200"
   points="342.049,251.144 363.275,251.144 362.41,250.066 339.359,250.066 346.918,259.476      348.74,259.476    "
   id="polygon32" />
			<polygon
   fill="#FFF78F"
   points="367.279,258.4 347.877,258.4 346.918,259.476 369.967,259.476 362.41,250.066 361.451,251.144         "
   id="polygon34" />
		</g>
		<g
   id="g44">
			<polygon
   fill="#F4C914"
   points="400.576,259.476 377.525,259.476 369.967,250.066 393.016,250.066    "
   id="polygon38" />
			<polygon
   fill="#E5B200"
   points="372.656,251.144 393.883,251.144 393.016,250.066 369.967,250.066 377.525,259.476      379.35,259.476    "
   id="polygon40" />
			<polygon
   fill="#FFF78F"
   points="397.887,258.4 378.484,258.4 377.525,259.476 400.576,259.476 393.016,250.066 392.059,251.144         "
   id="polygon42" />
		</g>
		<g
   id="g52">
			<polygon
   fill="#F4C914"
   points="347.971,273.683 324.92,273.683 317.361,264.274 340.41,264.274    "
   id="polygon46" />
			<polygon
   fill="#E5B200"
   points="320.051,265.352 341.275,265.352 340.41,264.274 317.361,264.274 324.92,273.683      326.742,273.683    "
   id="polygon48" />
			<polygon
   fill="#FFF78F"
   points="345.281,272.608 325.879,272.608 324.92,273.683 347.971,273.683 340.41,264.274      339.453,265.352    "
   id="polygon50" />
		</g>
		<g
   id="g60">
			<polygon
   fill="#F4C914"
   points="378.578,273.683 355.529,273.683 347.971,264.274 371.02,264.274    "
   id="polygon54" />
			<polygon
   fill="#E5B200"
   points="350.658,265.352 371.887,265.352 371.02,264.274 347.971,264.274 355.529,273.683      357.352,273.683    "
   id="polygon56" />
			<polygon
   fill="#FFF78F"
   points="375.889,272.608 356.486,272.608 355.529,273.683 378.578,273.683 371.02,264.274      370.061,265.352    "
   id="polygon58" />
		</g>
		<g
   id="g68">
			<polygon
   fill="#F4C914"
   points="409.188,273.683 386.135,273.683 378.578,264.274 401.627,264.274    "
   id="polygon62" />
			<polygon
   fill="#E5B200"
   points="381.266,265.352 402.494,265.352 401.627,264.274 378.578,264.274 386.135,273.683      387.959,273.683    "
   id="polygon64" />
			<polygon
   fill="#FFF78F"
   points="406.498,272.608 387.094,272.608 386.135,273.683 409.188,273.683 401.627,264.274      400.672,265.352    "
   id="polygon66" />
		</g>
		<g
   id="g76">
			<polygon
   fill="#F4C914"
   points="429.867,259.476 406.816,259.476 399.258,250.066 422.307,250.066    "
   id="polygon70" />
			<polygon
   fill="#E5B200"
   points="401.947,251.144 423.174,251.144 422.307,250.066 399.258,250.066 406.816,259.476      408.639,259.476    "
   id="polygon72" />
			<polygon
   fill="#FFF78F"
   points="427.178,258.4 407.775,258.4 406.816,259.476 429.867,259.476 422.307,250.066 421.35,251.144         "
   id="polygon74" />
		</g>
		<rect
   x="324.057"
   y="295.61"
   fill="#F4C914"
   width="30.607"
   height="16.914"
   id="rect78" />
		<rect
   x="357.664"
   y="295.61"
   fill="#F4C914"
   width="10.143"
   height="16.914"
   id="rect80" />
		<polygon
   fill="#333333"
   stroke="#333333"
   stroke-width="0.5"
   stroke-miterlimit="10"
   points="286.191,261.031 274.383,261.031     278.072,249.012 286.191,249.012   "
   id="polygon82" />
		
			<rect
   x="288.756"
   y="249.012"
   fill="#333333"
   stroke="#333333"
   stroke-width="0.5"
   stroke-miterlimit="10"
   width="5.131"
   height="12.02"
   id="rect84" />
		
			<rect
   x="251.189"
   y="267.553"
   fill="none"
   stroke="#231815"
   stroke-width="0.5"
   stroke-miterlimit="10"
   width="58.131"
   height="12.452"
   id="rect86" />
		
			<line
   fill="none"
   stroke="#231815"
   stroke-width="0.5"
   stroke-miterlimit="10"
   x1="251.189"
   y1="273.779"
   x2="309.32"
   y2="273.779"
   id="line88" />
		
			<line
   fill="none"
   stroke="#231815"
   stroke-width="0.5"
   stroke-miterlimit="10"
   x1="256.389"
   y1="267.553"
   x2="256.389"
   y2="280.004"
   id="line90" />
		
			<line
   fill="none"
   stroke="#231815"
   stroke-width="0.5"
   stroke-miterlimit="10"
   x1="266.371"
   y1="267.553"
   x2="266.371"
   y2="280.004"
   id="line92" />
		
			<line
   fill="none"
   stroke="#231815"
   stroke-width="0.5"
   stroke-miterlimit="10"
   x1="271.711"
   y1="267.553"
   x2="271.711"
   y2="280.004"
   id="line94" />
		
			<line
   fill="none"
   stroke="#231815"
   stroke-width="0.5"
   stroke-miterlimit="10"
   x1="277.053"
   y1="267.553"
   x2="277.053"
   y2="280.004"
   id="line96" />
		
			<line
   fill="none"
   stroke="#231815"
   stroke-width="0.5"
   stroke-miterlimit="10"
   x1="282.396"
   y1="267.553"
   x2="282.396"
   y2="280.004"
   id="line98" />
		
			<line
   fill="none"
   stroke="#231815"
   stroke-width="0.5"
   stroke-miterlimit="10"
   x1="287.738"
   y1="267.553"
   x2="287.738"
   y2="280.004"
   id="line100" />
		
			<line
   fill="none"
   stroke="#231815"
   stroke-width="0.5"
   stroke-miterlimit="10"
   x1="293.08"
   y1="267.553"
   x2="293.08"
   y2="280.004"
   id="line102" />
		
			<line
   fill="none"
   stroke="#231815"
   stroke-width="0.5"
   stroke-miterlimit="10"
   x1="298.422"
   y1="267.553"
   x2="298.422"
   y2="280.004"
   id="line104" />
		
			<line
   fill="none"
   stroke="#231815"
   stroke-width="0.5"
   stroke-miterlimit="10"
   x1="303.766"
   y1="267.553"
   x2="303.766"
   y2="280.004"
   id="line106" />
		<polygon
   fill="#9FAFBC"
   stroke="#231815"
   stroke-width="0.5"
   stroke-miterlimit="10"
   points="312.549,288.946 309.32,280.004     270.908,280.004   "
   id="polygon108" />
		<g
   id="g116">
			<circle
   fill="#333333"
   stroke="#231815"
   stroke-width="0.5"
   stroke-miterlimit="10"
   cx="397.662"
   cy="306.364"
   r="25.092"
   id="circle110" />
			<circle
   fill="#666666"
   stroke="#231815"
   stroke-width="0.5"
   stroke-miterlimit="10"
   cx="397.662"
   cy="306.364"
   r="10.934"
   id="circle112" />
			<circle
   fill="#E5B200"
   stroke="#231815"
   stroke-width="0.5"
   stroke-miterlimit="10"
   cx="397.662"
   cy="306.364"
   r="8.139"
   id="circle114" />
		</g>
	</g>
</g>
</svg>
