<?xml version="1.0" encoding="UTF-8" standalone="no"?>
<svg
   xmlns:dc="http://purl.org/dc/elements/1.1/"
   xmlns:cc="http://creativecommons.org/ns#"
   xmlns:rdf="http://www.w3.org/1999/02/22-rdf-syntax-ns#"
   xmlns:svg="http://www.w3.org/2000/svg"
   xmlns="http://www.w3.org/2000/svg"
   xmlns:sodipodi="http://sodipodi.sourceforge.net/DTD/sodipodi-0.dtd"
   xmlns:inkscape="http://www.inkscape.org/namespaces/inkscape"
   version="1.1"
   id="图层_1"
   x="0px"
   y="0px"
   width="194.336px"
   height="112.971px"
   viewBox="463.24 218.735 194.336 112.971"
   enable-background="new 463.24 218.735 194.336 112.971"
   xml:space="preserve"
   sodipodi:docname="采矿-07.svg"><metadata
   id="metadata127"><rdf:RDF><cc:Work
       rdf:about=""><dc:format>image/svg+xml</dc:format><dc:type
         rdf:resource="http://purl.org/dc/dcmitype/StillImage" /></cc:Work></rdf:RDF></metadata><defs
   id="defs125" /><sodipodi:namedview
   pagecolor="#ffffff"
   bordercolor="#666666"
   borderopacity="1"
   objecttolerance="10"
   gridtolerance="10"
   guidetolerance="10"
   inkscape:pageopacity="0"
   inkscape:pageshadow="2"
   inkscape:window-width="640"
   inkscape:window-height="480"
   id="namedview123" />
<g
   id="g120">
	<path
   fill="#484A4F"
   stroke="#231815"
   stroke-width="0.5"
   stroke-miterlimit="10"
   d="M506.211,240.08c0,0-3.676-2.388,19.227-6.881   c12.875-2.526,17.959-12.769,30.673-13.111c13.423-0.361,15.981-3.368,28.077,2.406c12.097,5.774,18.386,10.929,25.776,17.586   c7.393,6.658,25.512,13.333,25.512,13.333L506.211,240.08z"
   id="path2" />
	<g
   id="g118">
		<polygon
   fill="#F4C914"
   stroke="#231815"
   stroke-width="0.5"
   stroke-miterlimit="10"
   points="532.229,244.444 487.422,244.444     480.78,267.647 473.471,267.647 473.471,288.946 532.229,288.946   "
   id="polygon4" />
		
			<rect
   x="526.324"
   y="317.541"
   fill="#E5B200"
   stroke="#231815"
   stroke-width="0.5"
   stroke-miterlimit="10"
   width="72.113"
   height="3.372"
   id="rect6" />
		<polygon
   fill="#E5B200"
   stroke="#231815"
   stroke-width="0.5"
   stroke-miterlimit="10"
   points="614.577,317.536 525.283,317.536     501.022,281.272 628.797,273.683   "
   id="polygon8" />
		<rect
   x="536.411"
   y="288.944"
   fill="#F4C914"
   width="66.229"
   height="2.929"
   id="rect10" />
		<polygon
   fill="#FFD940"
   stroke="#231815"
   stroke-width="0.5"
   stroke-miterlimit="10"
   points="509.563,246.974 480.5,242.054     480.5,238.54 651.782,248.801 657.265,268.833 527.27,295.61   "
   id="polygon12" />
		<g
   id="g20">
			<circle
   fill="#333333"
   stroke="#231815"
   stroke-width="0.5"
   stroke-miterlimit="10"
   cx="506.211"
   cy="306.364"
   r="25.092"
   id="circle14" />
			<circle
   fill="#666666"
   stroke="#231815"
   stroke-width="0.5"
   stroke-miterlimit="10"
   cx="506.211"
   cy="306.364"
   r="10.935"
   id="circle16" />
			<circle
   fill="#E5B200"
   stroke="#231815"
   stroke-width="0.5"
   stroke-miterlimit="10"
   cx="506.211"
   cy="306.364"
   r="8.138"
   id="circle18" />
		</g>
		<g
   id="g28">
			<polygon
   fill="#F4C914"
   points="551.662,259.476 528.611,259.476 521.053,250.066 544.102,250.066    "
   id="polygon22" />
			<polygon
   fill="#E5B200"
   points="523.741,251.144 544.969,251.144 544.102,250.066 521.053,250.066 528.611,259.476      530.435,259.476    "
   id="polygon24" />
			<polygon
   fill="#FFF78F"
   points="548.974,258.4 529.57,258.4 528.611,259.476 551.662,259.476 544.102,250.066 543.146,251.144         "
   id="polygon26" />
		</g>
		<g
   id="g36">
			<polygon
   fill="#F4C914"
   points="582.27,259.476 559.221,259.476 551.662,250.066 574.712,250.066    "
   id="polygon30" />
			<polygon
   fill="#E5B200"
   points="554.351,251.144 575.577,251.144 574.712,250.066 551.662,250.066 559.221,259.476      561.043,259.476    "
   id="polygon32" />
			<polygon
   fill="#FFF78F"
   points="579.581,258.4 560.178,258.4 559.221,259.476 582.27,259.476 574.712,250.066 573.753,251.144         "
   id="polygon34" />
		</g>
		<g
   id="g44">
			<polygon
   fill="#F4C914"
   points="612.879,259.476 589.828,259.476 582.27,250.066 605.318,250.066    "
   id="polygon38" />
			<polygon
   fill="#E5B200"
   points="584.958,251.144 606.186,251.144 605.318,250.066 582.27,250.066 589.828,259.476      591.65,259.476    "
   id="polygon40" />
			<polygon
   fill="#FFF78F"
   points="610.19,258.4 590.786,258.4 589.828,259.476 612.879,259.476 605.318,250.066 604.362,251.144         "
   id="polygon42" />
		</g>
		<g
   id="g52">
			<polygon
   fill="#F4C914"
   points="560.271,273.683 537.222,273.683 529.663,264.274 552.712,264.274    "
   id="polygon46" />
			<polygon
   fill="#E5B200"
   points="532.352,265.352 553.579,265.352 552.712,264.274 529.663,264.274 537.222,273.683      539.045,273.683    "
   id="polygon48" />
			<polygon
   fill="#FFF78F"
   points="557.584,272.608 538.18,272.608 537.222,273.683 560.271,273.683 552.712,264.274      551.756,265.352    "
   id="polygon50" />
		</g>
		<g
   id="g60">
			<polygon
   fill="#F4C914"
   points="590.88,273.683 567.831,273.683 560.271,264.274 583.322,264.274    "
   id="polygon54" />
			<polygon
   fill="#E5B200"
   points="562.961,265.352 584.188,265.352 583.322,264.274 560.271,264.274 567.831,273.683      569.653,273.683    "
   id="polygon56" />
			<polygon
   fill="#FFF78F"
   points="588.191,272.608 568.789,272.608 567.831,273.683 590.88,273.683 583.322,264.274      582.363,265.352    "
   id="polygon58" />
		</g>
		<g
   id="g68">
			<polygon
   fill="#F4C914"
   points="621.488,273.683 598.438,273.683 590.88,264.274 613.93,264.274    "
   id="polygon62" />
			<polygon
   fill="#E5B200"
   points="593.568,265.352 614.796,265.352 613.93,264.274 590.88,264.274 598.438,273.683      600.262,273.683    "
   id="polygon64" />
			<polygon
   fill="#FFF78F"
   points="618.801,272.608 599.396,272.608 598.438,273.683 621.488,273.683 613.93,264.274      612.973,265.352    "
   id="polygon66" />
		</g>
		<g
   id="g76">
			<polygon
   fill="#F4C914"
   points="642.169,259.476 619.118,259.476 611.561,250.066 634.609,250.066    "
   id="polygon70" />
			<polygon
   fill="#E5B200"
   points="614.249,251.144 635.476,251.144 634.609,250.066 611.561,250.066 619.118,259.476      620.941,259.476    "
   id="polygon72" />
			<polygon
   fill="#FFF78F"
   points="639.48,258.4 620.077,258.4 619.118,259.476 642.169,259.476 634.609,250.066 633.651,251.144         "
   id="polygon74" />
		</g>
		<rect
   x="536.358"
   y="295.61"
   fill="#F4C914"
   width="30.607"
   height="16.914"
   id="rect78" />
		<rect
   x="569.966"
   y="295.61"
   fill="#F4C914"
   width="10.144"
   height="16.914"
   id="rect80" />
		<polygon
   fill="#333333"
   stroke="#333333"
   stroke-width="0.5"
   stroke-miterlimit="10"
   points="498.492,261.031 486.684,261.031     490.374,249.012 498.492,249.012   "
   id="polygon82" />
		
			<rect
   x="501.059"
   y="249.012"
   fill="#333333"
   stroke="#333333"
   stroke-width="0.5"
   stroke-miterlimit="10"
   width="5.131"
   height="12.02"
   id="rect84" />
		
			<rect
   x="463.49"
   y="267.553"
   fill="none"
   stroke="#231815"
   stroke-width="0.5"
   stroke-miterlimit="10"
   width="58.133"
   height="12.452"
   id="rect86" />
		
			<line
   fill="none"
   stroke="#231815"
   stroke-width="0.5"
   stroke-miterlimit="10"
   x1="463.49"
   y1="273.779"
   x2="521.623"
   y2="273.779"
   id="line88" />
		
			<line
   fill="none"
   stroke="#231815"
   stroke-width="0.5"
   stroke-miterlimit="10"
   x1="468.69"
   y1="267.553"
   x2="468.69"
   y2="280.004"
   id="line90" />
		
			<line
   fill="none"
   stroke="#231815"
   stroke-width="0.5"
   stroke-miterlimit="10"
   x1="478.672"
   y1="267.553"
   x2="478.672"
   y2="280.004"
   id="line92" />
		
			<line
   fill="none"
   stroke="#231815"
   stroke-width="0.5"
   stroke-miterlimit="10"
   x1="484.014"
   y1="267.553"
   x2="484.014"
   y2="280.004"
   id="line94" />
		
			<line
   fill="none"
   stroke="#231815"
   stroke-width="0.5"
   stroke-miterlimit="10"
   x1="489.355"
   y1="267.553"
   x2="489.355"
   y2="280.004"
   id="line96" />
		
			<line
   fill="none"
   stroke="#231815"
   stroke-width="0.5"
   stroke-miterlimit="10"
   x1="494.698"
   y1="267.553"
   x2="494.698"
   y2="280.004"
   id="line98" />
		
			<line
   fill="none"
   stroke="#231815"
   stroke-width="0.5"
   stroke-miterlimit="10"
   x1="500.04"
   y1="267.553"
   x2="500.04"
   y2="280.004"
   id="line100" />
		
			<line
   fill="none"
   stroke="#231815"
   stroke-width="0.5"
   stroke-miterlimit="10"
   x1="505.383"
   y1="267.553"
   x2="505.383"
   y2="280.004"
   id="line102" />
		
			<line
   fill="none"
   stroke="#231815"
   stroke-width="0.5"
   stroke-miterlimit="10"
   x1="510.725"
   y1="267.553"
   x2="510.725"
   y2="280.004"
   id="line104" />
		
			<line
   fill="none"
   stroke="#231815"
   stroke-width="0.5"
   stroke-miterlimit="10"
   x1="516.066"
   y1="267.553"
   x2="516.066"
   y2="280.004"
   id="line106" />
		<polygon
   fill="#9FAFBC"
   stroke="#231815"
   stroke-width="0.5"
   stroke-miterlimit="10"
   points="524.852,288.946 521.623,280.004     483.212,280.004   "
   id="polygon108" />
		<g
   id="g116">
			<circle
   fill="#333333"
   stroke="#231815"
   stroke-width="0.5"
   stroke-miterlimit="10"
   cx="609.964"
   cy="306.364"
   r="25.091"
   id="circle110" />
			<circle
   fill="#666666"
   stroke="#231815"
   stroke-width="0.5"
   stroke-miterlimit="10"
   cx="609.964"
   cy="306.364"
   r="10.935"
   id="circle112" />
			<circle
   fill="#E5B200"
   stroke="#231815"
   stroke-width="0.5"
   stroke-miterlimit="10"
   cx="609.964"
   cy="306.364"
   r="8.137"
   id="circle114" />
		</g>
	</g>
</g>
</svg>
