<?xml version="1.0" encoding="UTF-8" standalone="no"?>
<svg
   xmlns:dc="http://purl.org/dc/elements/1.1/"
   xmlns:cc="http://creativecommons.org/ns#"
   xmlns:rdf="http://www.w3.org/1999/02/22-rdf-syntax-ns#"
   xmlns:svg="http://www.w3.org/2000/svg"
   xmlns="http://www.w3.org/2000/svg"
   xmlns:sodipodi="http://sodipodi.sourceforge.net/DTD/sodipodi-0.dtd"
   xmlns:inkscape="http://www.inkscape.org/namespaces/inkscape"
   version="1.1"
   id="图层_1"
   x="0px"
   y="0px"
   width="124.721px"
   height="77.093px"
   viewBox="38.637 370.786 124.721 77.093"
   enable-background="new 38.637 370.786 124.721 77.093"
   xml:space="preserve"
   sodipodi:docname="采矿-08.svg"><metadata
   id="metadata21"><rdf:RDF><cc:Work
       rdf:about=""><dc:format>image/svg+xml</dc:format><dc:type
         rdf:resource="http://purl.org/dc/dcmitype/StillImage" /></cc:Work></rdf:RDF></metadata><defs
   id="defs19" /><sodipodi:namedview
   pagecolor="#ffffff"
   bordercolor="#666666"
   borderopacity="1"
   objecttolerance="10"
   gridtolerance="10"
   guidetolerance="10"
   inkscape:pageopacity="0"
   inkscape:pageshadow="2"
   inkscape:window-width="640"
   inkscape:window-height="480"
   id="namedview17" />
<g
   id="g14">
	<path
   fill="#B7743D"
   stroke="#231815"
   stroke-width="0.5"
   stroke-miterlimit="10"
   d="M62.883,408.107l9.625-14.438   c0,0,1.924-8.182,12.511-2.406c10.589,5.774,8.982-23.845,19.185-19.856c10.202,3.987,15.4,16.114,18.288,20.692   c2.888,4.579,8.075,8.182,8.662,11.068c0.586,2.889-0.626,3.977,8.142,12.157c8.768,8.182,30.836,29.986,21.593,30.099   c-19.886,0.241-28.78,4.055-43.222,1.067c-16.109-3.333-20.135-4.066-26.872-1.659c-6.737,2.405-39.923-0.722-45.718-0.632   c-16.739,0.261,5.775-20.212,5.775-20.212S64.808,412.439,62.883,408.107z"
   id="path2" />
	<path
   fill="#663300"
   d="M62.31,408.264c0,0,9.625,2.405,12.513-2.889c0,0,6.256,3.85,8.662,0c2.407-3.85,12.994-8.182,7.219-9.145   c-5.774-0.961,8.696,9.271,1.702,12.576c-6.996,3.307-12.112,6.188-15.417,2.104C73.683,406.824,66.882,414.277,62.31,408.264z"
   id="path4" />
	<path
   fill="#663300"
   d="M51.332,430.086c0,0,6.417,6.736,10.267,4.812s7.699-1.258,8.662-2.232   c0.963-0.975,5.775,1.643,6.737,2.579c0.963,0.938-1.604,8.316-2.245,5.43s-3.209-6.097-8.663-3.209   c-5.454,2.887-9.428,3.118-9.304,0C56.911,434.345,51.332,430.086,51.332,430.086z"
   id="path6" />
	<path
   fill="#663300"
   d="M110.154,418.965c0,0-2.072,4.025,2.532,4.025s5.296-9.434,7.137-4.025c1.842,5.406-3.775,9.78,3.407,6.559   c7.184-3.224,5.137,2.763,6.16-0.23c1.023-2.992-1.846,4.146-9.851,5.525c-8.005,1.382-10.307,4.145-8.235,0   c2.072-4.146,2.715-8.288-3.477-4.374c-6.192,3.914-3.66-5.813-6.653-1.294c-2.992,4.517-4.604,8.658-7.366,4.056   c-2.762-4.604,1.15-8.057,7.366-7.136C107.391,422.989,110.154,418.965,110.154,418.965z"
   id="path8" />
	<path
   fill="#663300"
   d="M111.248,398.037c0,0,0.163,0.218,0.484,0.549c1.366,1.404,5.595,4.846,12.349,2.247"
   id="path10" />
	<path
   fill="#663300"
   d="M142.441,420.975c0,0,5.832,7.291-5.469,11.666C136.973,432.641,150.569,437.446,142.441,420.975z"
   id="path12" />
</g>
</svg>
