<?xml version="1.0" encoding="UTF-8" standalone="no"?>
<svg
   xmlns:dc="http://purl.org/dc/elements/1.1/"
   xmlns:cc="http://creativecommons.org/ns#"
   xmlns:rdf="http://www.w3.org/1999/02/22-rdf-syntax-ns#"
   xmlns:svg="http://www.w3.org/2000/svg"
   xmlns="http://www.w3.org/2000/svg"
   xmlns:sodipodi="http://sodipodi.sourceforge.net/DTD/sodipodi-0.dtd"
   xmlns:inkscape="http://www.inkscape.org/namespaces/inkscape"
   version="1.1"
   id="图层_1"
   x="0px"
   y="0px"
   width="114.91px"
   height="114.91px"
   viewBox="31.008 143.926 114.91 114.91"
   enable-background="new 31.008 143.926 114.91 114.91"
   xml:space="preserve"
   sodipodi:docname="传感器-01.svg"><metadata
   id="metadata51"><rdf:RDF><cc:Work
       rdf:about=""><dc:format>image/svg+xml</dc:format><dc:type
         rdf:resource="http://purl.org/dc/dcmitype/StillImage" /></cc:Work></rdf:RDF></metadata><defs
   id="defs49" /><sodipodi:namedview
   pagecolor="#ffffff"
   bordercolor="#666666"
   borderopacity="1"
   objecttolerance="10"
   gridtolerance="10"
   guidetolerance="10"
   inkscape:pageopacity="0"
   inkscape:pageshadow="2"
   inkscape:window-width="640"
   inkscape:window-height="480"
   id="namedview47" />
<g
   id="g44">
	
		<rect
   x="31.258"
   y="144.176"
   fill="#878383"
   stroke="#231815"
   stroke-width="0.5"
   stroke-miterlimit="10"
   width="114.41"
   height="114.41"
   id="rect2" />
	<g
   id="g42">
		<path
   fill="#CCCCCC"
   stroke="#000000"
   stroke-miterlimit="10"
   d="M131.268,253.932h-85.17c-3.688-3.688-5.708-5.707-9.395-9.395    v-85.258c3.688-3.688,5.707-5.708,9.395-9.396h85.258c3.688,3.688,5.708,5.708,9.395,9.396v85.258    C136.976,248.225,134.956,250.244,131.268,253.932z"
   id="path4" />
		<g
   id="g10">
			<path
   fill="#EFEFEF"
   d="M38.81,158.576c1.054-1.054,2.107-2.107,3.249-3.249C41.005,156.293,39.951,157.346,38.81,158.576z"
   id="path6" />
			<path
   fill="#EFEFEF"
   d="M129.951,149.883H47.415c-0.702,0.703-1.405,1.405-2.02,2.02h82.537     c4.215,4.215,6.498,6.498,10.712,10.712v82.537c0.614-0.615,1.317-1.317,2.02-2.02v-82.449     C136.449,156.468,134.166,154.098,129.951,149.883z"
   id="path8" />
		</g>
		
			<rect
   x="56.546"
   y="213.629"
   fill="#EFEFEF"
   stroke="#231815"
   stroke-width="0.5"
   stroke-miterlimit="10"
   width="64.186"
   height="26.078"
   id="rect12" />
		
			<rect
   x="48.907"
   y="167.269"
   fill="#EFEFEF"
   stroke="#231815"
   stroke-width="0.5"
   stroke-miterlimit="10"
   width="79.463"
   height="37.844"
   id="rect14" />
		
			<rect
   x="67.083"
   y="172.361"
   fill="#333333"
   stroke="#231815"
   stroke-width="0.5"
   stroke-miterlimit="10"
   width="43.288"
   height="10.186"
   id="rect16" />
		<g
   id="g26">
			
				<rect
   x="73.317"
   y="192.732"
   fill="#333333"
   stroke="#231815"
   stroke-width="0.5"
   stroke-miterlimit="10"
   width="12.029"
   height="2.283"
   id="rect18" />
			<polygon
   fill="#333333"
   stroke="#231815"
   stroke-width="0.5"
   stroke-miterlimit="10"
   points="67.522,192.732 62.605,192.732      62.605,187.902 60.41,187.902 60.41,192.732 55.493,192.732 55.493,195.015 60.41,195.015 60.41,199.932 62.605,199.932      62.605,195.015 67.522,195.015    "
   id="polygon20" />
			<path
   fill="#333333"
   stroke="#231815"
   stroke-width="0.5"
   stroke-miterlimit="10"
   d="M104.049,190.361l-7.024,7.024L90,190.361     H104.049z"
   id="path22" />
			<path
   fill="#333333"
   stroke="#231815"
   stroke-width="0.5"
   stroke-miterlimit="10"
   d="M107.912,197.385l7.024-7.024l7.024,7.024     H107.912z"
   id="path24" />
		</g>
		<path
   fill="none"
   stroke="#231815"
   stroke-width="0.5"
   stroke-miterlimit="10"
   d="M82.01,236.107h-1.932    c-3.688,0-6.673-2.985-6.673-6.673v-5.356c0-3.688,2.985-6.673,6.673-6.673h1.932c3.688,0,6.673,2.985,6.673,6.673v5.356    C88.683,233.034,85.698,236.107,82.01,236.107z"
   id="path28" />
		<g
   id="g32">
			<path
   d="M92.897,226.449h5.708v-0.263c0-0.176,0-0.264,0.088-0.352c0.087-0.088,0.175-0.088,0.263-0.088s0.176,0,0.264,0.088     c0.087,0.088,0.087,0.176,0.087,0.352v1.054h-7.112v-1.054c1.493-1.317,2.985-2.722,4.39-4.127     c0.702-0.615,1.142-1.142,1.405-1.405c0.264-0.264,0.439-0.615,0.527-0.791c0.088-0.263,0.176-0.439,0.176-0.702     c0-0.615-0.264-1.229-0.791-1.668c-0.527-0.527-1.142-0.703-1.844-0.703c-0.615,0-1.229,0.176-1.756,0.527     c-0.527,0.352-0.79,0.791-0.966,1.405c0,0.175-0.087,0.263-0.175,0.263c-0.088,0.088-0.176,0.088-0.264,0.088     s-0.175,0-0.263-0.088s-0.088-0.176-0.088-0.263c0-0.264,0.176-0.703,0.439-1.142c0.351-0.439,0.703-0.878,1.317-1.142     c0.615-0.263,1.054-0.439,1.668-0.439c0.878,0,1.668,0.351,2.371,0.966c0.703,0.615,0.966,1.405,0.966,2.195     c0,0.351-0.087,0.614-0.175,0.966c-0.088,0.351-0.264,0.614-0.527,0.966c-0.264,0.351-0.703,0.878-1.405,1.493     C95.444,224.166,94.039,225.483,92.897,226.449L92.897,226.449z"
   id="path30" />
		</g>
		<circle
   fill="#EFEFEF"
   stroke="#231815"
   stroke-width="0.5"
   stroke-miterlimit="10"
   cx="38.81"
   cy="151.463"
   r="2.546"
   id="circle34" />
		<circle
   fill="#EFEFEF"
   stroke="#231815"
   stroke-width="0.5"
   stroke-miterlimit="10"
   cx="138.117"
   cy="151.463"
   r="2.546"
   id="circle36" />
		<circle
   fill="#EFEFEF"
   stroke="#231815"
   stroke-width="0.5"
   stroke-miterlimit="10"
   cx="38.81"
   cy="251.297"
   r="2.546"
   id="circle38" />
		<circle
   fill="#EFEFEF"
   stroke="#231815"
   stroke-width="0.5"
   stroke-miterlimit="10"
   cx="138.117"
   cy="251.297"
   r="2.546"
   id="circle40" />
	</g>
</g>
</svg>
