<?xml version="1.0" encoding="UTF-8" standalone="no"?>
<svg
   xmlns:dc="http://purl.org/dc/elements/1.1/"
   xmlns:cc="http://creativecommons.org/ns#"
   xmlns:rdf="http://www.w3.org/1999/02/22-rdf-syntax-ns#"
   xmlns:svg="http://www.w3.org/2000/svg"
   xmlns="http://www.w3.org/2000/svg"
   xmlns:sodipodi="http://sodipodi.sourceforge.net/DTD/sodipodi-0.dtd"
   xmlns:inkscape="http://www.inkscape.org/namespaces/inkscape"
   version="1.1"
   id="图层_1"
   x="0px"
   y="0px"
   width="91.817px"
   height="84.832px"
   viewBox="49.184 584.774 91.817 84.832"
   enable-background="new 49.184 584.774 91.817 84.832"
   xml:space="preserve"
   sodipodi:docname="传感器-13.svg"><metadata
   id="metadata39"><rdf:RDF><cc:Work
       rdf:about=""><dc:format>image/svg+xml</dc:format><dc:type
         rdf:resource="http://purl.org/dc/dcmitype/StillImage" /></cc:Work></rdf:RDF></metadata><defs
   id="defs37" /><sodipodi:namedview
   pagecolor="#ffffff"
   bordercolor="#666666"
   borderopacity="1"
   objecttolerance="10"
   gridtolerance="10"
   guidetolerance="10"
   inkscape:pageopacity="0"
   inkscape:pageshadow="2"
   inkscape:window-width="640"
   inkscape:window-height="480"
   id="namedview35" />
<g
   id="g32">
	
		<rect
   x="49.434"
   y="641.59"
   fill="#CCC8C8"
   stroke="#231815"
   stroke-width="0.5"
   stroke-miterlimit="10"
   width="91.317"
   height="25.112"
   id="rect2" />
	<g
   id="g30">
		<path
   fill="#CCC8C8"
   stroke="#231815"
   stroke-width="0.5"
   stroke-miterlimit="10"
   d="M136.712,620.517    c0.79,5.006,0.702,9.923-0.264,14.664c-1.844,9.746-7.2,18.526-14.839,24.761c-3.776,3.073-8.078,5.444-12.82,7.112    c-2.283,0.79-4.653,1.405-7.112,1.756c-7.551,1.229-15.015,0.352-21.688-2.283c-4.566-1.756-8.868-4.302-12.556-7.551    c-7.2-6.234-12.38-15.015-14.049-25.2c-0.79-5.005-0.702-9.922,0.264-14.663c1.932-9.746,7.288-18.439,14.839-24.673l0,0    c3.775-3.073,8.078-5.444,12.819-7.112c2.283-0.791,4.654-1.405,7.112-1.757c7.551-1.229,15.015-0.351,21.688,2.283    c4.566,1.756,8.868,4.303,12.556,7.552C129.951,601.639,135.044,610.332,136.712,620.517z"
   id="path4" />
		<path
   fill="#E5E5E5"
   stroke="#231815"
   stroke-width="0.5"
   stroke-miterlimit="10"
   d="M110.107,587.766l-4.215,10.976    c-4.829-1.844-10.185-2.458-15.629-1.58c-1.756,0.264-3.512,0.702-5.18,1.317l-3.863-11.063c2.283-0.791,4.653-1.405,7.112-1.757    C96.059,584.342,103.434,585.22,110.107,587.766z"
   id="path6" />
		<path
   fill="#E5E5E5"
   stroke="#231815"
   stroke-width="0.5"
   stroke-miterlimit="10"
   d="M108.878,666.966    c-2.283,0.79-4.653,1.405-7.112,1.756c-7.551,1.229-15.015,0.352-21.688-2.282l4.214-10.889c4.83,1.845,10.186,2.459,15.717,1.581    c1.756-0.264,3.512-0.702,5.181-1.317L108.878,666.966z"
   id="path8" />
		<path
   fill="#E5E5E5"
   stroke="#231815"
   stroke-width="0.5"
   stroke-miterlimit="10"
   d="M136.712,620.517l-11.59,1.845    c-1.142-7.376-4.917-13.698-10.098-18.176l7.639-8.868C129.951,601.551,135.044,610.332,136.712,620.517z"
   id="path10" />
		<path
   fill="#E5E5E5"
   stroke="#231815"
   stroke-width="0.5"
   stroke-miterlimit="10"
   d="M75.863,603.57    c-5.532,4.479-9.307,10.801-10.712,17.825L53.649,619.2c1.932-9.834,7.288-18.527,14.839-24.761L75.863,603.57z"
   id="path12" />
		<path
   fill="#E5E5E5"
   stroke="#231815"
   stroke-width="0.5"
   stroke-miterlimit="10"
   d="M75.161,650.195l-7.639,8.868    c-7.2-6.234-12.38-15.015-14.049-25.2l11.59-1.844C66.205,639.308,69.893,645.629,75.161,650.195z"
   id="path14" />
		<path
   fill="#E5E5E5"
   stroke="#231815"
   stroke-width="0.5"
   stroke-miterlimit="10"
   d="M136.449,635.181    c-1.844,9.746-7.2,18.526-14.839,24.761l-7.375-9.044c5.531-4.478,9.307-10.8,10.712-17.824L136.449,635.181z"
   id="path16" />
		<path
   fill="none"
   stroke="#FF1717"
   stroke-width="0.5"
   stroke-miterlimit="10"
   d="M59.093,632.897    c1.405,8.78,5.883,16.42,12.117,21.863"
   id="path18" />
		<path
   fill="none"
   stroke="#FF1717"
   stroke-width="0.5"
   stroke-miterlimit="10"
   d="M118.098,655.551    c6.585-5.355,11.239-12.995,12.819-21.424"
   id="path20" />
		<path
   fill="none"
   stroke="#FF1717"
   stroke-width="0.5"
   stroke-miterlimit="10"
   d="M83.151,592.683    c2.02-0.702,4.039-1.229,6.146-1.58c6.585-1.054,12.995-0.264,18.791,1.932"
   id="path22" />
		<path
   fill="none"
   stroke="#FF1717"
   stroke-width="0.5"
   stroke-miterlimit="10"
   d="M118.976,599.619    c6.234,5.444,10.712,12.995,12.117,21.864"
   id="path24" />
		<path
   fill="none"
   stroke="#FF1717"
   stroke-width="0.5"
   stroke-miterlimit="10"
   d="M82.098,661.259    c5.795,2.195,12.205,2.985,18.79,1.932c2.107-0.352,4.215-0.878,6.146-1.581"
   id="path26" />
		<path
   fill="none"
   stroke="#FF1717"
   stroke-width="0.5"
   stroke-miterlimit="10"
   d="M59.268,620.254    c1.668-8.43,6.234-16.068,12.82-21.425"
   id="path28" />
	</g>
</g>
</svg>
