<?xml version="1.0" encoding="UTF-8" standalone="no"?>
<svg
   xmlns:dc="http://purl.org/dc/elements/1.1/"
   xmlns:cc="http://creativecommons.org/ns#"
   xmlns:rdf="http://www.w3.org/1999/02/22-rdf-syntax-ns#"
   xmlns:svg="http://www.w3.org/2000/svg"
   xmlns="http://www.w3.org/2000/svg"
   xmlns:sodipodi="http://sodipodi.sourceforge.net/DTD/sodipodi-0.dtd"
   xmlns:inkscape="http://www.inkscape.org/namespaces/inkscape"
   version="1.1"
   id="图层_1"
   x="0px"
   y="0px"
   width="94.451px"
   height="90.149px"
   viewBox="165.174 295.301 94.451 90.149"
   enable-background="new 165.174 295.301 94.451 90.149"
   xml:space="preserve"
   sodipodi:docname="传感器-06.svg"><metadata
   id="metadata51"><rdf:RDF><cc:Work
       rdf:about=""><dc:format>image/svg+xml</dc:format><dc:type
         rdf:resource="http://purl.org/dc/dcmitype/StillImage" /></cc:Work></rdf:RDF></metadata><defs
   id="defs49" /><sodipodi:namedview
   pagecolor="#ffffff"
   bordercolor="#666666"
   borderopacity="1"
   objecttolerance="10"
   gridtolerance="10"
   guidetolerance="10"
   inkscape:pageopacity="0"
   inkscape:pageshadow="2"
   inkscape:window-width="640"
   inkscape:window-height="480"
   id="namedview47" />
<g
   id="g44">
	<path
   fill="#443F3F"
   stroke="#231815"
   stroke-width="0.5"
   stroke-miterlimit="10"
   d="M253.229,385.2h-81.659   c-3.424,0-6.146-2.722-6.146-6.146v-77.356c0-3.424,2.722-6.146,6.146-6.146h81.659c3.424,0,6.146,2.722,6.146,6.146v77.356   C259.375,382.39,256.654,385.2,253.229,385.2z"
   id="path2" />
	<path
   fill="#999999"
   stroke="#231815"
   stroke-width="0.5"
   stroke-miterlimit="10"
   d="M250.595,316.8h-76.39   c-1.581,0-2.898-1.317-2.898-2.897v-9.922c0-1.581,1.317-2.897,2.898-2.897h76.39c1.581,0,2.897,1.317,2.897,2.897v9.922   C253.581,315.483,252.263,316.8,250.595,316.8z"
   id="path4" />
	<path
   fill="#999999"
   stroke="#231815"
   stroke-width="0.5"
   stroke-miterlimit="10"
   d="M250.595,380.283h-76.39   c-1.581,0-2.898-1.317-2.898-2.898v-54.351c0-1.581,1.317-2.897,2.898-2.897h76.39c1.581,0,2.897,1.317,2.897,2.897v54.351   C253.581,378.966,252.263,380.283,250.595,380.283z"
   id="path6" />
	<g
   id="g14">
		
			<rect
   x="176.137"
   y="326.02"
   fill="#006633"
   stroke="#231815"
   stroke-width="0.5"
   stroke-miterlimit="10"
   width="59.532"
   height="15.717"
   id="rect8" />
		
			<rect
   x="238.478"
   y="326.02"
   fill="#FF0000"
   stroke="#231815"
   stroke-width="0.5"
   stroke-miterlimit="10"
   width="10.361"
   height="7.112"
   id="rect10" />
		
			<rect
   x="238.478"
   y="334.625"
   fill="#00FFFF"
   stroke="#231815"
   stroke-width="0.5"
   stroke-miterlimit="10"
   width="10.361"
   height="7.112"
   id="rect12" />
	</g>
	<rect
   x="176.137"
   y="346.566"
   fill="#BABABA"
   width="72.702"
   height="28.712"
   id="rect16" />
	<g
   id="g42">
		
			<rect
   x="180.263"
   y="350.956"
   fill="#009933"
   stroke="#231815"
   stroke-width="0.5"
   stroke-miterlimit="10"
   width="8.078"
   height="8.078"
   id="rect18" />
		
			<rect
   x="191.502"
   y="350.956"
   fill="#009933"
   stroke="#231815"
   stroke-width="0.5"
   stroke-miterlimit="10"
   width="8.078"
   height="8.078"
   id="rect20" />
		
			<rect
   x="202.741"
   y="350.956"
   fill="#009933"
   stroke="#231815"
   stroke-width="0.5"
   stroke-miterlimit="10"
   width="8.078"
   height="8.078"
   id="rect22" />
		
			<rect
   x="214.068"
   y="350.956"
   fill="#009933"
   stroke="#231815"
   stroke-width="0.5"
   stroke-miterlimit="10"
   width="8.078"
   height="8.078"
   id="rect24" />
		
			<rect
   x="225.307"
   y="350.956"
   fill="#009933"
   stroke="#231815"
   stroke-width="0.5"
   stroke-miterlimit="10"
   width="8.078"
   height="8.078"
   id="rect26" />
		
			<rect
   x="236.546"
   y="350.956"
   fill="#009933"
   stroke="#231815"
   stroke-width="0.5"
   stroke-miterlimit="10"
   width="8.078"
   height="8.078"
   id="rect28" />
		
			<rect
   x="180.263"
   y="362.722"
   fill="#009933"
   stroke="#231815"
   stroke-width="0.5"
   stroke-miterlimit="10"
   width="8.078"
   height="8.078"
   id="rect30" />
		
			<rect
   x="191.502"
   y="362.722"
   fill="#009933"
   stroke="#231815"
   stroke-width="0.5"
   stroke-miterlimit="10"
   width="8.078"
   height="8.078"
   id="rect32" />
		
			<rect
   x="202.741"
   y="362.722"
   fill="#009933"
   stroke="#231815"
   stroke-width="0.5"
   stroke-miterlimit="10"
   width="8.078"
   height="8.078"
   id="rect34" />
		
			<rect
   x="214.068"
   y="362.722"
   fill="#009933"
   stroke="#231815"
   stroke-width="0.5"
   stroke-miterlimit="10"
   width="8.078"
   height="8.078"
   id="rect36" />
		
			<rect
   x="225.307"
   y="362.722"
   fill="#009933"
   stroke="#231815"
   stroke-width="0.5"
   stroke-miterlimit="10"
   width="8.078"
   height="8.078"
   id="rect38" />
		
			<rect
   x="236.546"
   y="362.722"
   fill="#009933"
   stroke="#231815"
   stroke-width="0.5"
   stroke-miterlimit="10"
   width="8.078"
   height="8.078"
   id="rect40" />
	</g>
</g>
</svg>
