<?xml version="1.0" standalone="no"?><!DOCTYPE svg PUBLIC "-//W3C//DTD SVG 1.1//EN" "http://www.w3.org/Graphics/SVG/1.1/DTD/svg11.dtd"><svg t="1670222259775" class="icon" viewBox="0 0 1024 1024" version="1.1" xmlns="http://www.w3.org/2000/svg" p-id="10469" xmlns:xlink="http://www.w3.org/1999/xlink" width="200" height="200"><path d="M444.536 618.444l74.316 65.84 61.025-65.84-64.994-427.641h-1.248z" fill="#ffffff" p-id="10470"></path><path d="M512.207 63.868c-247.516 0-448.167 200.651-448.167 448.167 0 116.262 44.273 222.182 116.876 301.827l63.794-40.923c-61.26-62.797-100.586-147.086-105.615-240.49h57.454v-36.585h-57.658c8.21-192.797 162.505-347.77 355.024-357.05v51.99H530.5v-51.99c192.518 9.281 346.813 164.253 355.023 357.05h-57.819v36.585h57.615c-4.974 92.381-43.497 175.845-103.61 238.419l61.789 42.994c72.603-79.645 116.876-185.565 116.876-301.827-0.001-247.516-200.652-448.167-448.167-448.167z" fill="#ffffff" p-id="10471"></path></svg>