<?xml version="1.0" standalone="no"?><!DOCTYPE svg PUBLIC "-//W3C//DTD SVG 1.1//EN" "http://www.w3.org/Graphics/SVG/1.1/DTD/svg11.dtd"><svg t="1670227685577" class="icon" viewBox="0 0 1024 1024" version="1.1" xmlns="http://www.w3.org/2000/svg" p-id="16312" xmlns:xlink="http://www.w3.org/1999/xlink" width="200" height="200"><path d="M512 981.333333c-59.733333 0-123.733333-12.8-183.466667-38.4-238.933333-102.4-349.866667-375.466667-247.466666-614.4C128 217.6 213.333333 128 324.266667 81.066667c21.333333-8.533333 46.933333 0 55.466666 21.333333s0 46.933333-21.333333 55.466667c-89.6 42.666667-162.133333 115.2-200.533333 204.8-81.066667 196.266667 8.533333 422.4 204.8 503.466666 196.266667 81.066667 422.4-8.533333 503.466666-204.8 8.533333-21.333333 34.133333-29.866667 55.466667-21.333333 21.333333 8.533333 29.866667 34.133333 21.333333 55.466667C870.4 874.666667 695.466667 981.333333 512 981.333333z" p-id="16313" fill="#ffffff"></path><path d="M938.666667 554.666667H512c-25.6 0-42.666667-17.066667-42.666667-42.666667V85.333333c0-25.6 17.066667-42.666667 42.666667-42.666666 260.266667 0 469.333333 209.066667 469.333333 469.333333 0 25.6-17.066667 42.666667-42.666666 42.666667z m-384-85.333334h337.066666c-21.333333-179.2-162.133333-320-337.066666-337.066666V469.333333z" p-id="16314" fill="#ffffff"></path></svg>