<svg width="100%" height="100%" viewBox="0 0 100 100" fill="none" xmlns="http://www.w3.org/2000/svg">
 <!-- 主设备外框 -->
 <rect x="25" y="30" width="50" height="40" rx="4" fill="#f3f4f6" stroke="#9ca3af" stroke-width="1.5"/>
 
 <!-- 顶部标题栏 -->
 <rect x="25" y="30" width="50" height="8" rx="4" fill="#6b7280"/>
 <rect x="25" y="34" width="50" height="4" fill="#6b7280"/>
 
 <!-- 配置模板图标 -->
 <rect x="30" y="42" width="16" height="2" rx="1" fill="#9ca3af"/>
 <rect x="30" y="46" width="12" height="2" rx="1" fill="#d1d5db"/>
 <rect x="30" y="50" width="20" height="2" rx="1" fill="#9ca3af"/>
 <rect x="30" y="54" width="8" height="2" rx="1" fill="#d1d5db"/>
 <rect x="30" y="58" width="18" height="2" rx="1" fill="#9ca3af"/>
 <rect x="30" y="62" width="14" height="2" rx="1" fill="#d1d5db"/>
 
 <!-- 设置齿轮 -->
 <g transform="translate(62, 52)">
   <circle r="6" fill="none" stroke="#9ca3af" stroke-width="1.5"/>
   <circle r="2" fill="#6b7280"/>
   <!-- 齿轮齿 -->
   <g stroke="#9ca3af" stroke-width="1.5" stroke-linecap="round">
     <line x1="0" y1="-8" x2="0" y2="-6"/>
     <line x1="0" y1="6" x2="0" y2="8"/>
     <line x1="6" y1="0" x2="8" y2="0"/>
     <line x1="-6" y1="0" x2="-8" y2="0"/>
   </g>
 </g>
 
 <!-- 文档页面层叠效果 -->
 <rect x="27" y="28" width="46" height="38" rx="3" fill="none" stroke="#d1d5db" stroke-width="1" opacity="0.5"/>
 <rect x="29" y="26" width="42" height="36" rx="3" fill="none" stroke="#e5e7eb" stroke-width="1" opacity="0.3"/>
</svg>