<?xml version="1.0" encoding="UTF-8" standalone="no"?>
<svg
   xmlns:a="http://ns.adobe.com/AdobeSVGViewerExtensions/3.0/"
   xmlns:dc="http://purl.org/dc/elements/1.1/"
   xmlns:cc="http://creativecommons.org/ns#"
   xmlns:rdf="http://www.w3.org/1999/02/22-rdf-syntax-ns#"
   xmlns:svg="http://www.w3.org/2000/svg"
   xmlns="http://www.w3.org/2000/svg"
   xmlns:sodipodi="http://sodipodi.sourceforge.net/DTD/sodipodi-0.dtd"
   xmlns:inkscape="http://www.inkscape.org/namespaces/inkscape"
   version="1.1"
   id="图层_1"
   x="0px"
   y="0px"
   width="65px"
   height="65px"
   viewBox="0 0 65 65"
   enable-background="new 0 0 65 65"
   xml:space="preserve"
   sodipodi:docname="排风机_01-01.svg"><metadata
   id="metadata114"><rdf:RDF><cc:Work
       rdf:about=""><dc:format>image/svg+xml</dc:format><dc:type
         rdf:resource="http://purl.org/dc/dcmitype/StillImage" /></cc:Work></rdf:RDF></metadata><defs
   id="defs112" /><sodipodi:namedview
   pagecolor="#ffffff"
   bordercolor="#666666"
   borderopacity="1"
   objecttolerance="10"
   gridtolerance="10"
   guidetolerance="10"
   inkscape:pageopacity="0"
   inkscape:pageshadow="2"
   inkscape:window-width="640"
   inkscape:window-height="480"
   id="namedview110" />
<g
   id="g107">
	<path
   fill="#7F7F7F"
   d="M65,61.546C65,63.453,63.453,65,61.545,65H3.454C1.547,65,0,63.453,0,61.546V3.455C0,1.547,1.547,0,3.454,0   h58.091C63.453,0,65,1.547,65,3.455V61.546z"
   id="path2" />
	<linearGradient
   id="SVGID_1_"
   gradientUnits="userSpaceOnUse"
   x1="5.4258"
   y1="4.2339"
   x2="57.7416"
   y2="58.8532">
		<stop
   offset="0"
   style="stop-color:#EFECE7"
   id="stop4" />
		<stop
   offset="1"
   style="stop-color:#AFADB2"
   id="stop6" />
		<a:midPointStop
   offset="0"
   style="stop-color:#EFECE7" />
		<a:midPointStop
   offset="0.5"
   style="stop-color:#EFECE7" />
		<a:midPointStop
   offset="1"
   style="stop-color:#AFADB2" />
	</linearGradient>
	<path
   fill="url(#SVGID_1_)"
   d="M62.183,59.027c0,1.742-1.413,3.156-3.155,3.156H5.973c-1.742,0-3.155-1.414-3.155-3.156V5.974   c0-1.743,1.413-3.156,3.155-3.156h53.055c1.742,0,3.155,1.413,3.155,3.156V59.027z"
   id="path9" />
	<linearGradient
   id="SVGID_2_"
   gradientUnits="userSpaceOnUse"
   x1="60.4941"
   y1="58.3887"
   x2="12.4977"
   y2="14.0026">
		<stop
   offset="0"
   style="stop-color:#9C909E"
   id="stop11" />
		<stop
   offset="1"
   style="stop-color:#D0CDCD;stop-opacity:0"
   id="stop13" />
		<a:midPointStop
   offset="0"
   style="stop-color:#9C909E" />
		<a:midPointStop
   offset="0.5"
   style="stop-color:#9C909E" />
		<a:midPointStop
   offset="1"
   style="stop-color:#D0CDCD;stop-opacity:0" />
	</linearGradient>
	<path
   opacity="0.7"
   fill="url(#SVGID_2_)"
   d="M59.027,2.817h-1.445v55.216H2.817v0.994c0,1.742,1.413,3.156,3.155,3.156h53.055   c1.742,0,3.155-1.414,3.155-3.156V5.974C62.183,4.23,60.77,2.817,59.027,2.817z"
   id="path16" />
	<linearGradient
   id="SVGID_3_"
   gradientUnits="userSpaceOnUse"
   x1="32.5005"
   y1="21.2964"
   x2="32.5005"
   y2="4.6382">
		<stop
   offset="0"
   style="stop-color:#FFFFFF;stop-opacity:0"
   id="stop18" />
		<stop
   offset="1"
   style="stop-color:#FFFFFF"
   id="stop20" />
		<a:midPointStop
   offset="0"
   style="stop-color:#FFFFFF;stop-opacity:0" />
		<a:midPointStop
   offset="0.5"
   style="stop-color:#FFFFFF;stop-opacity:0" />
		<a:midPointStop
   offset="1"
   style="stop-color:#FFFFFF" />
	</linearGradient>
	<path
   opacity="0.7"
   fill="url(#SVGID_3_)"
   d="M62.183,21.608V5.974c0-1.743-1.413-3.156-3.155-3.156H5.973   c-1.742,0-3.155,1.413-3.155,3.156v15.635H62.183z"
   id="path23" />
	<linearGradient
   id="SVGID_4_"
   gradientUnits="userSpaceOnUse"
   x1="49.0244"
   y1="47.7822"
   x2="-4.8887"
   y2="-2.0754">
		<stop
   offset="0"
   style="stop-color:#7A7890"
   id="stop25" />
		<stop
   offset="1"
   style="stop-color:#D0CDCD;stop-opacity:0"
   id="stop27" />
		<a:midPointStop
   offset="0"
   style="stop-color:#7A7890" />
		<a:midPointStop
   offset="0.5"
   style="stop-color:#7A7890" />
		<a:midPointStop
   offset="1"
   style="stop-color:#D0CDCD;stop-opacity:0" />
	</linearGradient>
	<circle
   fill="url(#SVGID_4_)"
   cx="32.5"
   cy="32.501"
   r="25.329"
   id="circle30" />
	<linearGradient
   id="SVGID_5_"
   gradientUnits="userSpaceOnUse"
   x1="48.4385"
   y1="47.2402"
   x2="-3.5623"
   y2="-0.849">
		<stop
   offset="0"
   style="stop-color:#D0CDCD;stop-opacity:0.2"
   id="stop32" />
		<stop
   offset="0.8011"
   style="stop-color:#7D7B92;stop-opacity:0.9699"
   id="stop34" />
		<stop
   offset="1"
   style="stop-color:#7A7890"
   id="stop36" />
		<a:midPointStop
   offset="0"
   style="stop-color:#D0CDCD;stop-opacity:0.2" />
		<a:midPointStop
   offset="0.5"
   style="stop-color:#D0CDCD;stop-opacity:0.2" />
		<a:midPointStop
   offset="0.8011"
   style="stop-color:#7D7B92;stop-opacity:0.9699" />
		<a:midPointStop
   offset="0.5"
   style="stop-color:#7D7B92;stop-opacity:0.9699" />
		<a:midPointStop
   offset="1"
   style="stop-color:#7A7890" />
	</linearGradient>
	<circle
   fill="url(#SVGID_5_)"
   cx="32.5"
   cy="32.501"
   r="24.431"
   id="circle39" />
	<g
   id="g101">
		<g
   id="g59">
			<path
   fill="#F7F8F9"
   d="M36.236,12.539c-0.243-0.18-0.501-0.34-0.778-0.479c-0.282-0.163-0.575-0.296-0.876-0.399     c-0.223-0.066-0.445-0.122-0.662-0.168c-0.475-0.098-0.951-0.14-1.425-0.132c-0.473-0.008-0.95,0.034-1.425,0.132     c-0.217,0.046-0.438,0.102-0.662,0.168c-0.301,0.104-0.594,0.236-0.875,0.399c-0.277,0.139-0.535,0.299-0.778,0.479     c-2.489,1.83-3.205,5.051-2.188,7.527c0.041,0.289,0.1,0.574,0.173,0.859c0.547,1.294,1.054,2.546,1.427,3.821     c0.074,0.256,0.144,0.512,0.207,0.769c0.603,2.248,0.724,5.445,2.748,6.598c0.254,0.145,0.536,0.257,0.854,0.33     c0.179,0.021,0.352,0.04,0.52,0.058c0.168-0.018,0.341-0.036,0.52-0.058c0.317-0.073,0.601-0.186,0.853-0.33     c2.025-1.152,2.146-4.35,2.749-6.598c0.063-0.257,0.133-0.513,0.208-0.769c0.373-1.275,0.879-2.527,1.426-3.821     c0.073-0.285,0.133-0.57,0.174-0.859C39.441,17.59,38.726,14.369,36.236,12.539z"
   id="path41" />
			<linearGradient
   id="SVGID_6_"
   gradientUnits="userSpaceOnUse"
   x1="23.6602"
   y1="21.8584"
   x2="38.3337"
   y2="21.9778">
				<stop
   offset="0"
   style="stop-color:#7A7890"
   id="stop43" />
				<stop
   offset="0.1989"
   style="stop-color:#7D7B92;stop-opacity:0.9699"
   id="stop45" />
				<stop
   offset="1"
   style="stop-color:#D0CDCD;stop-opacity:0.2"
   id="stop47" />
				<a:midPointStop
   offset="0"
   style="stop-color:#7A7890" />
				<a:midPointStop
   offset="0.5"
   style="stop-color:#7A7890" />
				<a:midPointStop
   offset="0.1989"
   style="stop-color:#7D7B92;stop-opacity:0.9699" />
				<a:midPointStop
   offset="0.5"
   style="stop-color:#7D7B92;stop-opacity:0.9699" />
				<a:midPointStop
   offset="1"
   style="stop-color:#D0CDCD;stop-opacity:0.2" />
			</linearGradient>
			<path
   fill="url(#SVGID_6_)"
   d="M32.495,32.501c0.168-0.018,0.341-0.036,0.52-0.058c0.317-0.073,0.601-0.186,0.853-0.33     c2.025-1.152,2.146-4.35,2.749-6.598c0.063-0.257,0.133-0.513,0.208-0.769c0.373-1.275,0.879-2.527,1.426-3.821     c0.073-0.285,0.133-0.57,0.174-0.859c1.018-2.477,0.302-5.697-2.188-7.527c-0.243-0.18-0.501-0.34-0.778-0.479     c-0.282-0.163-0.575-0.296-0.876-0.399c-0.223-0.066-0.445-0.122-0.662-0.168c-0.475-0.098-0.951-0.14-1.425-0.132"
   id="path50" />
			<linearGradient
   id="SVGID_7_"
   gradientUnits="userSpaceOnUse"
   x1="32.4917"
   y1="18.0112"
   x2="32.4917"
   y2="12.5807">
				<stop
   offset="0"
   style="stop-color:#FFFFFF;stop-opacity:0"
   id="stop52" />
				<stop
   offset="1"
   style="stop-color:#FFFFFF"
   id="stop54" />
				<a:midPointStop
   offset="0"
   style="stop-color:#FFFFFF;stop-opacity:0" />
				<a:midPointStop
   offset="0.5"
   style="stop-color:#FFFFFF;stop-opacity:0" />
				<a:midPointStop
   offset="1"
   style="stop-color:#FFFFFF" />
			</linearGradient>
			<path
   fill="url(#SVGID_7_)"
   d="M38.842,18.264c0.167-2.083-0.693-4.316-2.61-5.725c-0.243-0.18-0.501-0.34-0.778-0.479     c-0.281-0.163-0.574-0.296-0.875-0.399c-0.224-0.066-0.445-0.122-0.662-0.168c-0.475-0.098-0.952-0.14-1.426-0.132     c-0.472-0.008-0.949,0.034-1.424,0.132c-0.218,0.046-0.438,0.102-0.662,0.168c-0.302,0.104-0.595,0.236-0.876,0.399     c-0.277,0.139-0.535,0.299-0.778,0.479c-1.916,1.408-2.776,3.642-2.609,5.725H38.842z"
   id="path57" />
		</g>
		<g
   id="g79">
			<path
   fill="#F7F8F9"
   d="M13.337,39.242c-0.034,0.301-0.044,0.604-0.025,0.913c0.001,0.325,0.032,0.646,0.094,0.958     c0.053,0.227,0.115,0.446,0.185,0.657c0.153,0.46,0.354,0.895,0.599,1.3c0.229,0.413,0.505,0.805,0.826,1.168     c0.148,0.166,0.307,0.328,0.478,0.488c0.239,0.21,0.501,0.397,0.782,0.56c0.259,0.171,0.526,0.313,0.804,0.435     c2.83,1.24,5.977,0.25,7.612-1.869c0.23-0.181,0.448-0.374,0.658-0.58c0.847-1.121,1.678-2.186,2.597-3.146     c0.183-0.191,0.371-0.38,0.562-0.563c1.645-1.646,4.354-3.35,4.341-5.679c-0.003-0.291-0.048-0.592-0.143-0.903     c-0.07-0.166-0.14-0.325-0.21-0.479c-0.099-0.139-0.201-0.278-0.309-0.422c-0.224-0.238-0.462-0.427-0.712-0.574     c-2.012-1.177-4.841,0.317-7.089,0.918c-0.255,0.075-0.511,0.143-0.77,0.206c-1.291,0.315-2.628,0.503-4.022,0.676     c-0.284,0.078-0.56,0.17-0.831,0.279C16.109,33.941,13.678,36.172,13.337,39.242z"
   id="path61" />
			
				<linearGradient
   id="SVGID_8_"
   gradientUnits="userSpaceOnUse"
   x1="-56.2852"
   y1="-2918.5034"
   x2="-41.6127"
   y2="-2918.384"
   gradientTransform="matrix(-0.5 -0.866 0.866 -0.5 2526.9778 -1462.5212)">
				<stop
   offset="0"
   style="stop-color:#7A7890"
   id="stop63" />
				<stop
   offset="0.1989"
   style="stop-color:#7D7B92;stop-opacity:0.9699"
   id="stop65" />
				<stop
   offset="1"
   style="stop-color:#D0CDCD;stop-opacity:0.2"
   id="stop67" />
				<a:midPointStop
   offset="0"
   style="stop-color:#7A7890" />
				<a:midPointStop
   offset="0.5"
   style="stop-color:#7A7890" />
				<a:midPointStop
   offset="0.1989"
   style="stop-color:#7D7B92;stop-opacity:0.9699" />
				<a:midPointStop
   offset="0.5"
   style="stop-color:#7D7B92;stop-opacity:0.9699" />
				<a:midPointStop
   offset="1"
   style="stop-color:#D0CDCD;stop-opacity:0.2" />
			</linearGradient>
			<path
   fill="url(#SVGID_8_)"
   d="M32.495,32.501c-0.099-0.139-0.201-0.278-0.309-0.422c-0.224-0.238-0.462-0.427-0.712-0.574     c-2.012-1.177-4.841,0.317-7.089,0.918c-0.255,0.075-0.511,0.143-0.77,0.206c-1.291,0.315-2.628,0.503-4.022,0.676     c-0.284,0.078-0.56,0.17-0.831,0.279c-2.653,0.357-5.085,2.588-5.426,5.658c-0.034,0.301-0.044,0.604-0.025,0.913     c0.001,0.325,0.032,0.646,0.094,0.958c0.053,0.227,0.115,0.446,0.185,0.657c0.153,0.46,0.354,0.895,0.599,1.3"
   id="path70" />
			
				<linearGradient
   id="SVGID_9_"
   gradientUnits="userSpaceOnUse"
   x1="-47.4551"
   y1="-2922.3511"
   x2="-47.4551"
   y2="-2927.7813"
   gradientTransform="matrix(-0.5 -0.866 0.866 -0.5 2526.9778 -1462.5212)">
				<stop
   offset="0"
   style="stop-color:#FFFFFF;stop-opacity:0"
   id="stop72" />
				<stop
   offset="1"
   style="stop-color:#FFFFFF"
   id="stop74" />
				<a:midPointStop
   offset="0"
   style="stop-color:#FFFFFF;stop-opacity:0" />
				<a:midPointStop
   offset="0.5"
   style="stop-color:#FFFFFF;stop-opacity:0" />
				<a:midPointStop
   offset="1"
   style="stop-color:#FFFFFF" />
			</linearGradient>
			<path
   fill="url(#SVGID_9_)"
   d="M16.992,34.124c-1.888,0.896-3.39,2.758-3.652,5.122c-0.034,0.301-0.044,0.604-0.025,0.913     c0,0.325,0.031,0.645,0.093,0.958c0.054,0.227,0.115,0.445,0.186,0.657c0.152,0.46,0.354,0.895,0.598,1.3     c0.229,0.412,0.505,0.805,0.826,1.168c0.148,0.166,0.307,0.328,0.478,0.488c0.239,0.209,0.501,0.397,0.782,0.56     c0.259,0.171,0.526,0.313,0.804,0.435c2.179,0.955,4.542,0.584,6.263-0.602L16.992,34.124z"
   id="path77" />
		</g>
		<g
   id="g99">
			<path
   fill="#F7F8F9"
   d="M47.912,45.721c0.277-0.12,0.545-0.264,0.804-0.434c0.282-0.164,0.543-0.35,0.783-0.56     c0.171-0.16,0.329-0.323,0.477-0.489c0.321-0.363,0.597-0.754,0.826-1.168c0.244-0.404,0.445-0.84,0.599-1.299     c0.069-0.212,0.132-0.432,0.186-0.658c0.061-0.313,0.093-0.633,0.093-0.957c0.019-0.311,0.009-0.613-0.026-0.914     c-0.34-3.07-2.771-5.301-5.425-5.658c-0.271-0.109-0.548-0.2-0.831-0.279c-1.395-0.173-2.73-0.36-4.022-0.676     c-0.258-0.063-0.515-0.131-0.77-0.205c-2.248-0.602-5.077-2.096-7.088-0.919c-0.252,0.147-0.489,0.337-0.712,0.574     c-0.108,0.145-0.212,0.283-0.31,0.422c-0.07,0.153-0.14,0.313-0.21,0.478c-0.096,0.313-0.14,0.613-0.142,0.904     c-0.014,2.33,2.695,4.033,4.339,5.679c0.191,0.185,0.379,0.372,0.563,0.563c0.919,0.961,1.75,2.025,2.597,3.146     c0.211,0.207,0.429,0.4,0.658,0.58C41.936,45.971,45.083,46.961,47.912,45.721z"
   id="path81" />
			
				<linearGradient
   id="SVGID_10_"
   gradientUnits="userSpaceOnUse"
   x1="2530.5713"
   y1="-1517.7529"
   x2="2545.2405"
   y2="-1517.6337"
   gradientTransform="matrix(-0.5 0.866 -0.866 -0.5 -2.9607 -2920.177)">
				<stop
   offset="0"
   style="stop-color:#7A7890"
   id="stop83" />
				<stop
   offset="0.1989"
   style="stop-color:#7D7B92;stop-opacity:0.9699"
   id="stop85" />
				<stop
   offset="1"
   style="stop-color:#D0CDCD;stop-opacity:0.2"
   id="stop87" />
				<a:midPointStop
   offset="0"
   style="stop-color:#7A7890" />
				<a:midPointStop
   offset="0.5"
   style="stop-color:#7A7890" />
				<a:midPointStop
   offset="0.1989"
   style="stop-color:#7D7B92;stop-opacity:0.9699" />
				<a:midPointStop
   offset="0.5"
   style="stop-color:#7D7B92;stop-opacity:0.9699" />
				<a:midPointStop
   offset="1"
   style="stop-color:#D0CDCD;stop-opacity:0.2" />
			</linearGradient>
			<path
   fill="url(#SVGID_10_)"
   d="M32.495,32.501c-0.07,0.153-0.14,0.313-0.21,0.478c-0.096,0.313-0.14,0.613-0.142,0.904     c-0.014,2.33,2.695,4.033,4.339,5.679c0.191,0.185,0.379,0.372,0.563,0.563c0.919,0.961,1.75,2.025,2.597,3.146     c0.211,0.207,0.429,0.4,0.658,0.58c1.636,2.119,4.783,3.109,7.612,1.869c0.277-0.12,0.545-0.264,0.804-0.434     c0.282-0.164,0.543-0.35,0.783-0.56c0.171-0.16,0.329-0.323,0.477-0.489c0.321-0.363,0.597-0.754,0.826-1.168"
   id="path90" />
			
				<linearGradient
   id="SVGID_11_"
   gradientUnits="userSpaceOnUse"
   x1="2539.3984"
   y1="-1521.5986"
   x2="2539.3984"
   y2="-1527.0295"
   gradientTransform="matrix(-0.5 0.866 -0.866 -0.5 -2.9607 -2920.177)">
				<stop
   offset="0"
   style="stop-color:#FFFFFF;stop-opacity:0"
   id="stop92" />
				<stop
   offset="1"
   style="stop-color:#FFFFFF"
   id="stop94" />
				<a:midPointStop
   offset="0"
   style="stop-color:#FFFFFF;stop-opacity:0" />
				<a:midPointStop
   offset="0.5"
   style="stop-color:#FFFFFF;stop-opacity:0" />
				<a:midPointStop
   offset="1"
   style="stop-color:#FFFFFF" />
			</linearGradient>
			<path
   fill="url(#SVGID_11_)"
   d="M41.652,45.115c1.721,1.186,4.084,1.557,6.262,0.602c0.277-0.12,0.545-0.264,0.805-0.434     c0.281-0.163,0.543-0.351,0.782-0.56c0.17-0.16,0.329-0.323,0.477-0.489c0.322-0.363,0.599-0.754,0.827-1.168     c0.242-0.404,0.445-0.84,0.598-1.299c0.07-0.212,0.132-0.431,0.186-0.658c0.061-0.313,0.094-0.633,0.094-0.957     c0.018-0.311,0.008-0.613-0.027-0.913c-0.262-2.364-1.764-4.227-3.652-5.123L41.652,45.115z"
   id="path97" />
		</g>
	</g>
	<circle
   fill="#6B768E"
   cx="32.5"
   cy="32.501"
   r="4.936"
   id="circle103" />
	<circle
   fill="#FFFFFF"
   cx="32.5"
   cy="32.501"
   r="3.949"
   id="circle105" />
</g>
</svg>
