<?xml version="1.0" encoding="UTF-8" standalone="no"?>
<svg
   xmlns:a="http://ns.adobe.com/AdobeSVGViewerExtensions/3.0/"
   xmlns:dc="http://purl.org/dc/elements/1.1/"
   xmlns:cc="http://creativecommons.org/ns#"
   xmlns:rdf="http://www.w3.org/1999/02/22-rdf-syntax-ns#"
   xmlns:svg="http://www.w3.org/2000/svg"
   xmlns="http://www.w3.org/2000/svg"
   xmlns:sodipodi="http://sodipodi.sourceforge.net/DTD/sodipodi-0.dtd"
   xmlns:inkscape="http://www.inkscape.org/namespaces/inkscape"
   version="1.1"
   id="图层_1"
   x="0px"
   y="0px"
   width="50px"
   height="50px"
   viewBox="0 0 50 50"
   enable-background="new 0 0 50 50"
   xml:space="preserve"
   sodipodi:docname="排风机_11-01.svg"><metadata
   id="metadata91"><rdf:RDF><cc:Work
       rdf:about=""><dc:format>image/svg+xml</dc:format><dc:type
         rdf:resource="http://purl.org/dc/dcmitype/StillImage" /></cc:Work></rdf:RDF></metadata><defs
   id="defs89" /><sodipodi:namedview
   pagecolor="#ffffff"
   bordercolor="#666666"
   borderopacity="1"
   objecttolerance="10"
   gridtolerance="10"
   guidetolerance="10"
   inkscape:pageopacity="0"
   inkscape:pageshadow="2"
   inkscape:window-width="640"
   inkscape:window-height="480"
   id="namedview87" />
<g
   id="g84">
	<linearGradient
   id="SVGID_1_"
   gradientUnits="userSpaceOnUse"
   x1="41.3096"
   y1="40.082"
   x2="-11.903"
   y2="-9.1278">
		<stop
   offset="0"
   style="stop-color:#7A7890"
   id="stop2" />
		<stop
   offset="1"
   style="stop-color:#D0CDCD;stop-opacity:0"
   id="stop4" />
		<a:midPointStop
   offset="0"
   style="stop-color:#7A7890" />
		<a:midPointStop
   offset="0.5"
   style="stop-color:#7A7890" />
		<a:midPointStop
   offset="1"
   style="stop-color:#D0CDCD;stop-opacity:0" />
	</linearGradient>
	<circle
   fill="url(#SVGID_1_)"
   cx="25"
   cy="25"
   r="25"
   id="circle7" />
	<linearGradient
   id="SVGID_2_"
   gradientUnits="userSpaceOnUse"
   x1="40.7305"
   y1="39.5469"
   x2="-10.5937"
   y2="-7.9167">
		<stop
   offset="0"
   style="stop-color:#D0CDCD;stop-opacity:0.2"
   id="stop9" />
		<stop
   offset="0.8011"
   style="stop-color:#7D7B92;stop-opacity:0.9699"
   id="stop11" />
		<stop
   offset="1"
   style="stop-color:#7A7890"
   id="stop13" />
		<a:midPointStop
   offset="0"
   style="stop-color:#D0CDCD;stop-opacity:0.2" />
		<a:midPointStop
   offset="0.5"
   style="stop-color:#D0CDCD;stop-opacity:0.2" />
		<a:midPointStop
   offset="0.8011"
   style="stop-color:#7D7B92;stop-opacity:0.9699" />
		<a:midPointStop
   offset="0.5"
   style="stop-color:#7D7B92;stop-opacity:0.9699" />
		<a:midPointStop
   offset="1"
   style="stop-color:#7A7890" />
	</linearGradient>
	<circle
   fill="url(#SVGID_2_)"
   cx="25"
   cy="25"
   r="24.114"
   id="circle16" />
	<g
   id="g78">
		<g
   id="g36">
			<path
   fill="#F7F8F9"
   d="M9.778,11.951c-0.273,0.119-0.537,0.261-0.793,0.43c-0.277,0.16-0.535,0.345-0.772,0.551     c-0.167,0.158-0.324,0.32-0.471,0.483c-0.318,0.357-0.589,0.745-0.815,1.153c-0.24,0.398-0.439,0.828-0.59,1.282     c-0.069,0.209-0.13,0.425-0.183,0.649c-0.061,0.308-0.092,0.624-0.092,0.945c-0.018,0.305-0.008,0.604,0.025,0.9     c0.335,3.031,2.736,5.232,5.354,5.585c0.268,0.107,0.541,0.198,0.821,0.276c1.376,0.171,2.695,0.355,3.971,0.666     c0.254,0.063,0.507,0.129,0.759,0.203c2.219,0.594,5.011,2.067,6.996,0.906c0.248-0.146,0.483-0.332,0.702-0.566     c0.106-0.142,0.208-0.28,0.306-0.416c0.069-0.152,0.139-0.31,0.208-0.472c0.094-0.308,0.138-0.605,0.139-0.893     c0.014-2.299-2.66-3.981-4.283-5.605c-0.189-0.181-0.374-0.366-0.554-0.557c-0.907-0.948-1.727-1.998-2.563-3.104     c-0.207-0.203-0.422-0.395-0.648-0.573C15.677,11.704,12.571,10.727,9.778,11.951z"
   id="path18" />
			
				<linearGradient
   id="SVGID_3_"
   gradientUnits="userSpaceOnUse"
   x1="-654.3428"
   y1="-1731.687"
   x2="-639.8598"
   y2="-1731.5692"
   gradientTransform="matrix(0.5 -0.866 0.866 0.5 1838.3502 326.4818)">
				<stop
   offset="0"
   style="stop-color:#7A7890"
   id="stop20" />
				<stop
   offset="0.1989"
   style="stop-color:#7D7B92;stop-opacity:0.9699"
   id="stop22" />
				<stop
   offset="1"
   style="stop-color:#D0CDCD;stop-opacity:0.2"
   id="stop24" />
				<a:midPointStop
   offset="0"
   style="stop-color:#7A7890" />
				<a:midPointStop
   offset="0.5"
   style="stop-color:#7A7890" />
				<a:midPointStop
   offset="0.1989"
   style="stop-color:#7D7B92;stop-opacity:0.9699" />
				<a:midPointStop
   offset="0.5"
   style="stop-color:#7D7B92;stop-opacity:0.9699" />
				<a:midPointStop
   offset="1"
   style="stop-color:#D0CDCD;stop-opacity:0.2" />
			</linearGradient>
			<path
   fill="url(#SVGID_3_)"
   d="M24.995,25c0.069-0.152,0.139-0.31,0.208-0.472c0.094-0.308,0.138-0.605,0.139-0.893     c0.014-2.299-2.66-3.981-4.283-5.605c-0.189-0.181-0.374-0.366-0.554-0.557c-0.907-0.948-1.727-1.998-2.563-3.104     c-0.207-0.203-0.422-0.395-0.648-0.573c-1.615-2.092-4.721-3.069-7.515-1.845c-0.273,0.119-0.537,0.261-0.793,0.43     c-0.277,0.16-0.535,0.345-0.772,0.551c-0.167,0.158-0.324,0.32-0.471,0.483c-0.318,0.357-0.589,0.745-0.815,1.153"
   id="path27" />
			
				<linearGradient
   id="SVGID_4_"
   gradientUnits="userSpaceOnUse"
   x1="-645.6265"
   y1="-1735.4844"
   x2="-645.6265"
   y2="-1740.8439"
   gradientTransform="matrix(0.5 -0.866 0.866 0.5 1838.3502 326.4818)">
				<stop
   offset="0"
   style="stop-color:#FFFFFF;stop-opacity:0"
   id="stop29" />
				<stop
   offset="1"
   style="stop-color:#FFFFFF"
   id="stop31" />
				<a:midPointStop
   offset="0"
   style="stop-color:#FFFFFF;stop-opacity:0" />
				<a:midPointStop
   offset="0.5"
   style="stop-color:#FFFFFF;stop-opacity:0" />
				<a:midPointStop
   offset="1"
   style="stop-color:#FFFFFF" />
			</linearGradient>
			<path
   fill="url(#SVGID_4_)"
   d="M15.957,12.55c-1.698-1.172-4.031-1.537-6.182-0.595c-0.272,0.119-0.537,0.261-0.792,0.429     c-0.279,0.16-0.536,0.346-0.774,0.552c-0.167,0.158-0.324,0.32-0.47,0.483c-0.318,0.357-0.59,0.744-0.815,1.153     c-0.24,0.399-0.44,0.828-0.591,1.282c-0.068,0.208-0.129,0.424-0.183,0.649c-0.061,0.308-0.093,0.623-0.092,0.945     c-0.019,0.305-0.008,0.604,0.025,0.9c0.259,2.333,1.742,4.171,3.605,5.056L15.957,12.55z"
   id="path34" />
		</g>
		<g
   id="g56">
			<path
   fill="#F7F8F9"
   d="M21.303,44.702c0.24,0.178,0.494,0.336,0.768,0.473c0.277,0.16,0.567,0.29,0.864,0.392     c0.221,0.068,0.44,0.123,0.654,0.168c0.469,0.096,0.939,0.138,1.406,0.129c0.467,0.009,0.938-0.033,1.406-0.129     c0.215-0.045,0.433-0.101,0.653-0.168c0.297-0.102,0.587-0.23,0.864-0.393c0.273-0.137,0.527-0.294,0.768-0.472     c2.457-1.806,3.164-4.985,2.16-7.43c-0.043-0.286-0.1-0.567-0.172-0.849c-0.54-1.277-1.039-2.512-1.408-3.771     c-0.072-0.252-0.142-0.505-0.204-0.76c-0.595-2.217-0.714-5.374-2.713-6.511c-0.25-0.142-0.53-0.253-0.842-0.326     c-0.176-0.021-0.347-0.039-0.513-0.056c-0.166,0.017-0.337,0.034-0.514,0.057c-0.313,0.073-0.591,0.183-0.841,0.325     c-1.998,1.137-2.118,4.294-2.712,6.511c-0.063,0.255-0.131,0.508-0.205,0.76c-0.368,1.26-0.868,2.494-1.408,3.771     c-0.072,0.281-0.13,0.563-0.171,0.849C18.141,39.717,18.846,42.896,21.303,44.702z"
   id="path38" />
			
				<linearGradient
   id="SVGID_5_"
   gradientUnits="userSpaceOnUse"
   x1="1783.9316"
   y1="-2633.9531"
   x2="1798.4113"
   y2="-2633.8354"
   gradientTransform="matrix(-1 0 0 -1 1817.6445 -2598.4492)">
				<stop
   offset="0"
   style="stop-color:#7A7890"
   id="stop40" />
				<stop
   offset="0.1989"
   style="stop-color:#7D7B92;stop-opacity:0.9699"
   id="stop42" />
				<stop
   offset="1"
   style="stop-color:#D0CDCD;stop-opacity:0.2"
   id="stop44" />
				<a:midPointStop
   offset="0"
   style="stop-color:#7A7890" />
				<a:midPointStop
   offset="0.5"
   style="stop-color:#7A7890" />
				<a:midPointStop
   offset="0.1989"
   style="stop-color:#7D7B92;stop-opacity:0.9699" />
				<a:midPointStop
   offset="0.5"
   style="stop-color:#7D7B92;stop-opacity:0.9699" />
				<a:midPointStop
   offset="1"
   style="stop-color:#D0CDCD;stop-opacity:0.2" />
			</linearGradient>
			<path
   fill="url(#SVGID_5_)"
   d="M24.995,25c-0.166,0.017-0.337,0.034-0.514,0.057c-0.313,0.073-0.591,0.183-0.841,0.325     c-1.998,1.137-2.118,4.294-2.712,6.511c-0.063,0.255-0.131,0.508-0.205,0.76c-0.368,1.26-0.868,2.494-1.408,3.771     c-0.072,0.281-0.13,0.563-0.171,0.849c-1.003,2.444-0.298,5.624,2.16,7.43c0.24,0.178,0.494,0.336,0.768,0.473     c0.277,0.16,0.567,0.29,0.864,0.392c0.221,0.068,0.44,0.123,0.654,0.168c0.469,0.096,0.939,0.138,1.406,0.129"
   id="path47" />
			
				<linearGradient
   id="SVGID_6_"
   gradientUnits="userSpaceOnUse"
   x1="1792.6455"
   y1="-2637.75"
   x2="1792.6455"
   y2="-2643.1091"
   gradientTransform="matrix(-1 0 0 -1 1817.6445 -2598.4492)">
				<stop
   offset="0"
   style="stop-color:#FFFFFF;stop-opacity:0"
   id="stop49" />
				<stop
   offset="1"
   style="stop-color:#FFFFFF"
   id="stop51" />
				<a:midPointStop
   offset="0"
   style="stop-color:#FFFFFF;stop-opacity:0" />
				<a:midPointStop
   offset="0.5"
   style="stop-color:#FFFFFF;stop-opacity:0" />
				<a:midPointStop
   offset="1"
   style="stop-color:#FFFFFF" />
			</linearGradient>
			<path
   fill="url(#SVGID_6_)"
   d="M18.731,39.052c-0.165,2.056,0.684,4.259,2.576,5.65c0.24,0.177,0.495,0.335,0.768,0.473     c0.279,0.161,0.566,0.29,0.865,0.392c0.22,0.067,0.438,0.123,0.654,0.168c0.468,0.096,0.938,0.138,1.405,0.129     c0.467,0.009,0.938-0.033,1.406-0.129c0.215-0.045,0.432-0.1,0.653-0.166c0.298-0.104,0.587-0.233,0.864-0.394     c0.273-0.137,0.527-0.294,0.768-0.472c1.891-1.392,2.742-3.595,2.576-5.651H18.731z"
   id="path54" />
		</g>
		<g
   id="g76">
			<path
   fill="#F7F8F9"
   d="M43.903,18.346c0.034-0.296,0.043-0.596,0.025-0.9c0-0.322-0.031-0.638-0.092-0.945     c-0.053-0.225-0.113-0.441-0.182-0.649c-0.152-0.454-0.352-0.883-0.592-1.282c-0.225-0.408-0.498-0.796-0.814-1.153     c-0.147-0.163-0.303-0.324-0.473-0.483c-0.236-0.205-0.493-0.392-0.771-0.551c-0.255-0.169-0.52-0.311-0.793-0.43     c-2.793-1.225-5.898-0.247-7.514,1.846c-0.227,0.178-0.441,0.369-0.648,0.572c-0.838,1.106-1.657,2.156-2.563,3.104     c-0.182,0.189-0.367,0.376-0.557,0.557c-1.623,1.625-4.297,3.307-4.283,5.605c0.003,0.288,0.047,0.585,0.14,0.892     c0.069,0.163,0.139,0.32,0.208,0.473c0.098,0.136,0.198,0.274,0.306,0.415c0.22,0.235,0.454,0.422,0.702,0.567     c1.984,1.162,4.777-0.313,6.995-0.906c0.253-0.073,0.505-0.14,0.76-0.203c1.274-0.311,2.595-0.495,3.972-0.666     c0.279-0.078,0.553-0.169,0.818-0.276C41.167,23.579,43.567,21.377,43.903,18.346z"
   id="path58" />
			
				<linearGradient
   id="SVGID_7_"
   gradientUnits="userSpaceOnUse"
   x1="1346.125"
   y1="-70.7251"
   x2="1360.6046"
   y2="-70.6073"
   gradientTransform="matrix(0.5 0.866 -0.866 0.5 -704.5778 -1118.183)">
				<stop
   offset="0"
   style="stop-color:#7A7890"
   id="stop60" />
				<stop
   offset="0.1989"
   style="stop-color:#7D7B92;stop-opacity:0.9699"
   id="stop62" />
				<stop
   offset="1"
   style="stop-color:#D0CDCD;stop-opacity:0.2"
   id="stop64" />
				<a:midPointStop
   offset="0"
   style="stop-color:#7A7890" />
				<a:midPointStop
   offset="0.5"
   style="stop-color:#7A7890" />
				<a:midPointStop
   offset="0.1989"
   style="stop-color:#7D7B92;stop-opacity:0.9699" />
				<a:midPointStop
   offset="0.5"
   style="stop-color:#7D7B92;stop-opacity:0.9699" />
				<a:midPointStop
   offset="1"
   style="stop-color:#D0CDCD;stop-opacity:0.2" />
			</linearGradient>
			<path
   fill="url(#SVGID_7_)"
   d="M24.995,25c0.098,0.136,0.198,0.274,0.306,0.415c0.22,0.235,0.454,0.422,0.702,0.567     c1.984,1.162,4.777-0.313,6.995-0.906c0.253-0.073,0.505-0.14,0.76-0.203c1.274-0.311,2.595-0.495,3.972-0.666     c0.279-0.078,0.553-0.169,0.818-0.276c2.619-0.352,5.02-2.554,5.355-5.585c0.034-0.296,0.043-0.596,0.025-0.9     c0-0.322-0.031-0.638-0.092-0.945c-0.053-0.225-0.113-0.441-0.182-0.649c-0.152-0.454-0.352-0.883-0.592-1.282"
   id="path67" />
			
				<linearGradient
   id="SVGID_8_"
   gradientUnits="userSpaceOnUse"
   x1="1354.8379"
   y1="-74.5225"
   x2="1354.8379"
   y2="-79.8819"
   gradientTransform="matrix(0.5 0.866 -0.866 0.5 -704.5778 -1118.183)">
				<stop
   offset="0"
   style="stop-color:#FFFFFF;stop-opacity:0"
   id="stop69" />
				<stop
   offset="1"
   style="stop-color:#FFFFFF"
   id="stop71" />
				<a:midPointStop
   offset="0"
   style="stop-color:#FFFFFF;stop-opacity:0" />
				<a:midPointStop
   offset="0.5"
   style="stop-color:#FFFFFF;stop-opacity:0" />
				<a:midPointStop
   offset="1"
   style="stop-color:#FFFFFF" />
			</linearGradient>
			<path
   fill="url(#SVGID_8_)"
   d="M40.297,23.397c1.863-0.885,3.347-2.722,3.604-5.056c0.033-0.296,0.043-0.595,0.025-0.9     c0-0.321-0.031-0.637-0.092-0.945c-0.053-0.225-0.114-0.441-0.182-0.649c-0.151-0.454-0.352-0.882-0.592-1.282     c-0.226-0.408-0.498-0.795-0.814-1.153c-0.146-0.163-0.304-0.325-0.471-0.483c-0.238-0.205-0.496-0.391-0.773-0.552     c-0.256-0.168-0.52-0.309-0.792-0.428c-2.15-0.942-4.483-0.577-6.183,0.594L40.297,23.397z"
   id="path74" />
		</g>
	</g>
	<circle
   fill="#6B768E"
   cx="24.999"
   cy="25"
   r="4.871"
   id="circle80" />
	<circle
   fill="#FFFFFF"
   cx="25"
   cy="25"
   r="3.897"
   id="circle82" />
</g>
</svg>
