<?xml version="1.0" encoding="UTF-8" standalone="no"?>
<svg
   xmlns:a="http://ns.adobe.com/AdobeSVGViewerExtensions/3.0/"
   xmlns:dc="http://purl.org/dc/elements/1.1/"
   xmlns:cc="http://creativecommons.org/ns#"
   xmlns:rdf="http://www.w3.org/1999/02/22-rdf-syntax-ns#"
   xmlns:svg="http://www.w3.org/2000/svg"
   xmlns="http://www.w3.org/2000/svg"
   xmlns:sodipodi="http://sodipodi.sourceforge.net/DTD/sodipodi-0.dtd"
   xmlns:inkscape="http://www.inkscape.org/namespaces/inkscape"
   version="1.1"
   id="图层_1"
   x="0px"
   y="0px"
   width="50px"
   height="50px"
   viewBox="0 0 50 50"
   enable-background="new 0 0 50 50"
   xml:space="preserve"
   sodipodi:docname="排风机_12-01.svg"><metadata
   id="metadata91"><rdf:RDF><cc:Work
       rdf:about=""><dc:format>image/svg+xml</dc:format><dc:type
         rdf:resource="http://purl.org/dc/dcmitype/StillImage" /></cc:Work></rdf:RDF></metadata><defs
   id="defs89" /><sodipodi:namedview
   pagecolor="#ffffff"
   bordercolor="#666666"
   borderopacity="1"
   objecttolerance="10"
   gridtolerance="10"
   guidetolerance="10"
   inkscape:pageopacity="0"
   inkscape:pageshadow="2"
   inkscape:window-width="640"
   inkscape:window-height="480"
   id="namedview87" />
<g
   id="g84">
	<linearGradient
   id="SVGID_1_"
   gradientUnits="userSpaceOnUse"
   x1="41.3096"
   y1="40.082"
   x2="-11.902"
   y2="-9.1269">
		<stop
   offset="0"
   style="stop-color:#7A7890"
   id="stop2" />
		<stop
   offset="1"
   style="stop-color:#D0CDCD;stop-opacity:0"
   id="stop4" />
		<a:midPointStop
   offset="0"
   style="stop-color:#7A7890" />
		<a:midPointStop
   offset="0.5"
   style="stop-color:#7A7890" />
		<a:midPointStop
   offset="1"
   style="stop-color:#D0CDCD;stop-opacity:0" />
	</linearGradient>
	<circle
   fill="url(#SVGID_1_)"
   cx="25"
   cy="25"
   r="25"
   id="circle7" />
	<linearGradient
   id="SVGID_2_"
   gradientUnits="userSpaceOnUse"
   x1="40.7305"
   y1="39.5469"
   x2="-10.5937"
   y2="-7.9167">
		<stop
   offset="0"
   style="stop-color:#D0CDCD;stop-opacity:0.2"
   id="stop9" />
		<stop
   offset="0.8011"
   style="stop-color:#7D7B92;stop-opacity:0.9699"
   id="stop11" />
		<stop
   offset="1"
   style="stop-color:#7A7890"
   id="stop13" />
		<a:midPointStop
   offset="0"
   style="stop-color:#D0CDCD;stop-opacity:0.2" />
		<a:midPointStop
   offset="0.5"
   style="stop-color:#D0CDCD;stop-opacity:0.2" />
		<a:midPointStop
   offset="0.8011"
   style="stop-color:#7D7B92;stop-opacity:0.9699" />
		<a:midPointStop
   offset="0.5"
   style="stop-color:#7D7B92;stop-opacity:0.9699" />
		<a:midPointStop
   offset="1"
   style="stop-color:#7A7890" />
	</linearGradient>
	<circle
   fill="url(#SVGID_2_)"
   cx="25"
   cy="25"
   r="24.113"
   id="circle16" />
	<g
   id="g78">
		<g
   id="g36">
			<path
   fill="#F7F8F9"
   d="M5.293,21.309c-0.178,0.24-0.335,0.493-0.473,0.768c-0.16,0.277-0.291,0.567-0.393,0.864     c-0.065,0.221-0.121,0.439-0.166,0.653C4.166,24.063,4.123,24.533,4.131,25c-0.008,0.466,0.033,0.938,0.129,1.406     c0.045,0.215,0.101,0.432,0.167,0.652c0.102,0.298,0.232,0.587,0.393,0.865c0.138,0.273,0.295,0.528,0.473,0.768     c1.807,2.457,4.985,3.164,7.43,2.159c0.285-0.041,0.567-0.099,0.849-0.171c1.277-0.54,2.512-1.039,3.772-1.408     c0.251-0.072,0.504-0.143,0.757-0.204c2.219-0.596,5.375-0.715,6.513-2.713c0.141-0.249,0.252-0.528,0.326-0.842     c0.02-0.176,0.039-0.346,0.055-0.513c-0.016-0.166-0.035-0.337-0.055-0.513c-0.074-0.313-0.184-0.592-0.326-0.842     c-1.139-1.998-4.294-2.118-6.512-2.713c-0.254-0.063-0.508-0.131-0.759-0.205c-1.259-0.368-2.495-0.866-3.771-1.407     c-0.282-0.073-0.563-0.131-0.849-0.172C10.278,18.146,7.1,18.851,5.293,21.309z"
   id="path18" />
			
				<linearGradient
   id="SVGID_3_"
   gradientUnits="userSpaceOnUse"
   x1="-69.271"
   y1="-2688.8789"
   x2="-54.7903"
   y2="-2688.7612"
   gradientTransform="matrix(0 -1 1 0 2703.3691 -35.5527)">
				<stop
   offset="0"
   style="stop-color:#7A7890"
   id="stop20" />
				<stop
   offset="0.1989"
   style="stop-color:#7D7B92;stop-opacity:0.9699"
   id="stop22" />
				<stop
   offset="1"
   style="stop-color:#D0CDCD;stop-opacity:0.2"
   id="stop24" />
				<a:midPointStop
   offset="0"
   style="stop-color:#7A7890" />
				<a:midPointStop
   offset="0.5"
   style="stop-color:#7A7890" />
				<a:midPointStop
   offset="0.1989"
   style="stop-color:#7D7B92;stop-opacity:0.9699" />
				<a:midPointStop
   offset="0.5"
   style="stop-color:#7D7B92;stop-opacity:0.9699" />
				<a:midPointStop
   offset="1"
   style="stop-color:#D0CDCD;stop-opacity:0.2" />
			</linearGradient>
			<path
   fill="url(#SVGID_3_)"
   d="M24.995,25c-0.016-0.166-0.035-0.337-0.055-0.513c-0.074-0.313-0.184-0.592-0.326-0.842     c-1.139-1.998-4.294-2.118-6.512-2.713c-0.254-0.063-0.508-0.131-0.759-0.205c-1.259-0.368-2.495-0.866-3.771-1.407     c-0.282-0.073-0.563-0.131-0.849-0.172c-2.444-1.003-5.623-0.298-7.43,2.16c-0.178,0.24-0.335,0.493-0.473,0.768     c-0.16,0.277-0.291,0.567-0.393,0.864c-0.065,0.221-0.121,0.439-0.166,0.653C4.166,24.063,4.123,24.533,4.131,25"
   id="path27" />
			
				<linearGradient
   id="SVGID_4_"
   gradientUnits="userSpaceOnUse"
   x1="-60.5566"
   y1="-2692.6763"
   x2="-60.5566"
   y2="-2698.0354"
   gradientTransform="matrix(0 -1 1 0 2703.3691 -35.5527)">
				<stop
   offset="0"
   style="stop-color:#FFFFFF;stop-opacity:0"
   id="stop29" />
				<stop
   offset="1"
   style="stop-color:#FFFFFF"
   id="stop31" />
				<a:midPointStop
   offset="0"
   style="stop-color:#FFFFFF;stop-opacity:0" />
				<a:midPointStop
   offset="0.5"
   style="stop-color:#FFFFFF;stop-opacity:0" />
				<a:midPointStop
   offset="1"
   style="stop-color:#FFFFFF" />
			</linearGradient>
			<path
   fill="url(#SVGID_4_)"
   d="M10.943,18.736c-2.056-0.165-4.259,0.685-5.65,2.576c-0.178,0.239-0.335,0.494-0.473,0.768     c-0.16,0.278-0.291,0.567-0.393,0.864c-0.065,0.221-0.122,0.439-0.166,0.654c-0.095,0.468-0.138,0.939-0.129,1.406     c-0.008,0.465,0.034,0.937,0.129,1.405c0.044,0.215,0.101,0.432,0.166,0.654c0.102,0.297,0.233,0.586,0.394,0.863     c0.137,0.273,0.295,0.528,0.473,0.768c1.391,1.892,3.594,2.742,5.65,2.576V18.736z"
   id="path34" />
		</g>
		<g
   id="g56">
			<path
   fill="#F7F8F9"
   d="M31.648,43.908c0.297,0.034,0.598,0.044,0.902,0.025c0.32,0,0.637-0.031,0.943-0.092     c0.225-0.053,0.441-0.113,0.65-0.182c0.453-0.152,0.883-0.352,1.283-0.592c0.408-0.226,0.795-0.498,1.152-0.815     c0.164-0.146,0.324-0.304,0.482-0.471c0.207-0.237,0.393-0.495,0.553-0.772c0.168-0.256,0.309-0.52,0.428-0.793     c1.225-2.793,0.248-5.898-1.844-7.515c-0.18-0.226-0.369-0.441-0.574-0.648c-1.105-0.837-2.154-1.657-3.104-2.563     c-0.191-0.182-0.377-0.366-0.557-0.556c-1.625-1.623-3.307-4.296-5.605-4.282c-0.289,0.002-0.585,0.046-0.892,0.139     c-0.164,0.07-0.32,0.139-0.472,0.208c-0.137,0.098-0.274,0.198-0.417,0.306c-0.234,0.22-0.421,0.454-0.566,0.702     c-1.162,1.984,0.312,4.777,0.906,6.995c0.073,0.252,0.141,0.505,0.203,0.761c0.311,1.273,0.496,2.594,0.666,3.97     c0.08,0.28,0.17,0.553,0.277,0.821C26.416,41.173,28.617,43.572,31.648,43.908z"
   id="path38" />
			
				<linearGradient
   id="SVGID_5_"
   gradientUnits="userSpaceOnUse"
   x1="2320.3311"
   y1="-1648.2041"
   x2="2334.8152"
   y2="-1648.0863"
   gradientTransform="matrix(-0.866 0.5 -0.5 -0.866 1223.1029 -2557.7751)">
				<stop
   offset="0"
   style="stop-color:#7A7890"
   id="stop40" />
				<stop
   offset="0.1989"
   style="stop-color:#7D7B92;stop-opacity:0.9699"
   id="stop42" />
				<stop
   offset="1"
   style="stop-color:#D0CDCD;stop-opacity:0.2"
   id="stop44" />
				<a:midPointStop
   offset="0"
   style="stop-color:#7A7890" />
				<a:midPointStop
   offset="0.5"
   style="stop-color:#7A7890" />
				<a:midPointStop
   offset="0.1989"
   style="stop-color:#7D7B92;stop-opacity:0.9699" />
				<a:midPointStop
   offset="0.5"
   style="stop-color:#7D7B92;stop-opacity:0.9699" />
				<a:midPointStop
   offset="1"
   style="stop-color:#D0CDCD;stop-opacity:0.2" />
			</linearGradient>
			<path
   fill="url(#SVGID_5_)"
   d="M24.996,25c-0.137,0.098-0.274,0.198-0.417,0.306c-0.234,0.22-0.421,0.454-0.566,0.702     c-1.162,1.984,0.312,4.777,0.906,6.995c0.073,0.252,0.141,0.505,0.203,0.761c0.311,1.273,0.496,2.594,0.666,3.97     c0.08,0.28,0.17,0.553,0.277,0.821c0.352,2.618,2.553,5.018,5.584,5.354c0.297,0.034,0.598,0.044,0.902,0.025     c0.32,0,0.637-0.031,0.943-0.092c0.225-0.053,0.441-0.113,0.65-0.182c0.453-0.152,0.883-0.352,1.283-0.592"
   id="path47" />
			
				<linearGradient
   id="SVGID_6_"
   gradientUnits="userSpaceOnUse"
   x1="2329.0479"
   y1="-1652.001"
   x2="2329.0479"
   y2="-1657.3605"
   gradientTransform="matrix(-0.866 0.5 -0.5 -0.866 1223.1029 -2557.7751)">
				<stop
   offset="0"
   style="stop-color:#FFFFFF;stop-opacity:0"
   id="stop49" />
				<stop
   offset="1"
   style="stop-color:#FFFFFF"
   id="stop51" />
				<a:midPointStop
   offset="0"
   style="stop-color:#FFFFFF;stop-opacity:0" />
				<a:midPointStop
   offset="0.5"
   style="stop-color:#FFFFFF;stop-opacity:0" />
				<a:midPointStop
   offset="1"
   style="stop-color:#FFFFFF" />
			</linearGradient>
			<path
   fill="url(#SVGID_6_)"
   d="M26.596,40.301c0.885,1.863,2.723,3.347,5.057,3.605c0.297,0.033,0.596,0.043,0.9,0.025     c0.322,0,0.637-0.031,0.945-0.092c0.225-0.053,0.441-0.114,0.65-0.184c0.453-0.15,0.883-0.35,1.281-0.59     c0.408-0.226,0.795-0.498,1.152-0.814c0.166-0.146,0.326-0.304,0.484-0.471c0.207-0.238,0.391-0.496,0.553-0.773     c0.168-0.256,0.309-0.52,0.428-0.793c0.941-2.15,0.576-4.482-0.596-6.182L26.596,40.301z"
   id="path54" />
		</g>
		<g
   id="g76">
			<path
   fill="#F7F8F9"
   d="M38.043,9.783c-0.119-0.272-0.26-0.537-0.428-0.792c-0.162-0.279-0.346-0.537-0.553-0.774     c-0.158-0.168-0.318-0.325-0.482-0.47c-0.357-0.318-0.744-0.59-1.152-0.816c-0.4-0.239-0.83-0.439-1.283-0.59     c-0.209-0.068-0.424-0.13-0.65-0.184c-0.307-0.06-0.623-0.091-0.943-0.091c-0.305-0.019-0.605-0.009-0.902,0.025     c-3.031,0.336-5.232,2.735-5.584,5.354c-0.107,0.268-0.197,0.54-0.277,0.819c-0.17,1.377-0.355,2.696-0.666,3.971     c-0.063,0.255-0.13,0.509-0.202,0.76c-0.593,2.219-2.069,5.012-0.907,6.996c0.146,0.248,0.333,0.483,0.566,0.702     c0.143,0.107,0.28,0.209,0.416,0.306c0.152,0.069,0.31,0.138,0.473,0.207c0.309,0.094,0.603,0.138,0.892,0.141     c2.299,0.013,3.98-2.661,5.605-4.284c0.18-0.188,0.365-0.373,0.555-0.555c0.951-0.906,2-1.726,3.107-2.563     c0.203-0.207,0.395-0.422,0.572-0.649C38.291,15.684,39.268,12.576,38.043,9.783z"
   id="path58" />
			
				<linearGradient
   id="SVGID_7_"
   gradientUnits="userSpaceOnUse"
   x1="224.7334"
   y1="-99.2798"
   x2="239.2175"
   y2="-99.162"
   gradientTransform="matrix(0.866 0.5 -0.5 0.866 -221.5629 -14.8471)">
				<stop
   offset="0"
   style="stop-color:#7A7890"
   id="stop60" />
				<stop
   offset="0.1989"
   style="stop-color:#7D7B92;stop-opacity:0.9699"
   id="stop62" />
				<stop
   offset="1"
   style="stop-color:#D0CDCD;stop-opacity:0.2"
   id="stop64" />
				<a:midPointStop
   offset="0"
   style="stop-color:#7A7890" />
				<a:midPointStop
   offset="0.5"
   style="stop-color:#7A7890" />
				<a:midPointStop
   offset="0.1989"
   style="stop-color:#7D7B92;stop-opacity:0.9699" />
				<a:midPointStop
   offset="0.5"
   style="stop-color:#7D7B92;stop-opacity:0.9699" />
				<a:midPointStop
   offset="1"
   style="stop-color:#D0CDCD;stop-opacity:0.2" />
			</linearGradient>
			<path
   fill="url(#SVGID_7_)"
   d="M24.995,25c0.152,0.069,0.31,0.138,0.473,0.207c0.309,0.094,0.603,0.138,0.892,0.141     c2.299,0.013,3.98-2.661,5.605-4.284c0.18-0.188,0.365-0.373,0.555-0.555c0.951-0.906,2-1.726,3.107-2.563     c0.203-0.207,0.395-0.422,0.572-0.649c2.092-1.613,3.068-4.721,1.844-7.514c-0.119-0.272-0.26-0.537-0.428-0.792     c-0.162-0.279-0.346-0.537-0.553-0.774c-0.158-0.168-0.318-0.325-0.482-0.47c-0.357-0.318-0.744-0.59-1.152-0.816"
   id="path67" />
			
				<linearGradient
   id="SVGID_8_"
   gradientUnits="userSpaceOnUse"
   x1="233.4482"
   y1="-103.0776"
   x2="233.4482"
   y2="-108.4371"
   gradientTransform="matrix(0.866 0.5 -0.5 0.866 -221.5629 -14.8471)">
				<stop
   offset="0"
   style="stop-color:#FFFFFF;stop-opacity:0"
   id="stop69" />
				<stop
   offset="1"
   style="stop-color:#FFFFFF"
   id="stop71" />
				<a:midPointStop
   offset="0"
   style="stop-color:#FFFFFF;stop-opacity:0" />
				<a:midPointStop
   offset="0.5"
   style="stop-color:#FFFFFF;stop-opacity:0" />
				<a:midPointStop
   offset="1"
   style="stop-color:#FFFFFF" />
			</linearGradient>
			<path
   fill="url(#SVGID_8_)"
   d="M37.445,15.962c1.172-1.698,1.537-4.031,0.594-6.181c-0.119-0.273-0.26-0.538-0.428-0.793     c-0.16-0.278-0.346-0.536-0.553-0.772C36.9,8.048,36.74,7.891,36.576,7.744c-0.357-0.317-0.744-0.589-1.152-0.815     c-0.4-0.239-0.83-0.438-1.283-0.591c-0.209-0.068-0.424-0.13-0.648-0.183c-0.309-0.06-0.625-0.091-0.945-0.091     c-0.307-0.019-0.605-0.009-0.9,0.025c-2.334,0.258-4.172,1.742-5.057,3.604L37.445,15.962z"
   id="path74" />
		</g>
	</g>
	<circle
   fill="#6B768E"
   cx="25"
   cy="25"
   r="4.872"
   id="circle80" />
	<circle
   fill="#FFFFFF"
   cx="25"
   cy="25"
   r="3.897"
   id="circle82" />
</g>
</svg>
