<?xml version="1.0" encoding="UTF-8" standalone="no"?>
<svg
   xmlns:dc="http://purl.org/dc/elements/1.1/"
   xmlns:cc="http://creativecommons.org/ns#"
   xmlns:rdf="http://www.w3.org/1999/02/22-rdf-syntax-ns#"
   xmlns:svg="http://www.w3.org/2000/svg"
   xmlns="http://www.w3.org/2000/svg"
   xmlns:sodipodi="http://sodipodi.sourceforge.net/DTD/sodipodi-0.dtd"
   xmlns:inkscape="http://www.inkscape.org/namespaces/inkscape"
   version="1.1"
   id="图层_1"
   x="0px"
   y="0px"
   width="49px"
   height="49px"
   viewBox="0 0 49 49"
   enable-background="new 0 0 49 49"
   xml:space="preserve"
   sodipodi:docname="排风机_14-01.svg"><metadata
   id="metadata31"><rdf:RDF><cc:Work
       rdf:about=""><dc:format>image/svg+xml</dc:format><dc:type
         rdf:resource="http://purl.org/dc/dcmitype/StillImage" /></cc:Work></rdf:RDF></metadata><defs
   id="defs29" /><sodipodi:namedview
   pagecolor="#ffffff"
   bordercolor="#666666"
   borderopacity="1"
   objecttolerance="10"
   gridtolerance="10"
   guidetolerance="10"
   inkscape:pageopacity="0"
   inkscape:pageshadow="2"
   inkscape:window-width="640"
   inkscape:window-height="480"
   id="namedview27" />
<g
   id="g24">
	<circle
   fill="#E5E5E5"
   cx="24.5"
   cy="24.5"
   r="24.5"
   id="circle2" />
	<g
   id="g22">
		<path
   fill="#1B8E99"
   d="M17.629,4.427c0,0,5.603-2.075,10.692-0.679c0.23,0.858,4.379,11.422-3.766,20.736    c-0.705-0.407-1.968-2.483-3.514-7.269C19.903,13.689,18.498,7.854,17.629,4.427z"
   id="path4" />
		<path
   fill="#1B8E99"
   d="M3.723,20.455c0,0,1.002-5.89,4.757-9.601c0.859,0.231,12.082,1.919,16.077,13.63    c-0.707,0.407-3.136,0.464-8.053-0.591C12.881,23.117,7.125,21.416,3.723,20.455z"
   id="path6" />
		<path
   fill="#1B8E99"
   d="M10.649,40.513c0,0-4.599-3.813-5.936-8.921c0.629-0.629,7.704-9.503,19.843-7.107    c-0.001,0.815-1.168,2.946-4.539,6.679C17.533,33.912,13.184,38.046,10.649,40.513z"
   id="path8" />
		<path
   fill="#1B8E99"
   d="M31.483,44.541c0,0-5.601,2.078-10.693,0.682c-0.23-0.859-4.379-11.424,3.767-20.738    c0.705,0.407,1.968,2.483,3.514,7.27C29.21,35.279,30.614,41.115,31.483,44.541z"
   id="path10" />
		<path
   fill="#1B8E99"
   d="M45.39,28.514c0,0-1.002,5.89-4.758,9.601c-0.859-0.229-12.082-1.919-16.075-13.63    c0.705-0.406,3.134-0.463,8.053,0.593C36.231,25.852,41.988,27.554,45.39,28.514z"
   id="path12" />
		<path
   fill="#1B8E99"
   d="M38.463,8.457c0,0,4.6,3.813,5.936,8.921c-0.629,0.629-7.703,9.503-19.842,7.106    c0-0.813,1.166-2.946,4.538-6.678C31.578,15.058,35.931,10.923,38.463,8.457z"
   id="path14" />
		<g
   id="g20">
			<circle
   fill="#FFFFFF"
   cx="24.5"
   cy="24.5"
   r="8.451"
   id="circle16" />
			<circle
   fill="#1B8E99"
   cx="24.499"
   cy="24.5"
   r="5.339"
   id="circle18" />
		</g>
	</g>
</g>
</svg>
