<?xml version="1.0" encoding="UTF-8" standalone="no"?>
<svg
   xmlns:dc="http://purl.org/dc/elements/1.1/"
   xmlns:cc="http://creativecommons.org/ns#"
   xmlns:rdf="http://www.w3.org/1999/02/22-rdf-syntax-ns#"
   xmlns:svg="http://www.w3.org/2000/svg"
   xmlns="http://www.w3.org/2000/svg"
   xmlns:sodipodi="http://sodipodi.sourceforge.net/DTD/sodipodi-0.dtd"
   xmlns:inkscape="http://www.inkscape.org/namespaces/inkscape"
   version="1.1"
   id="图层_1"
   x="0px"
   y="0px"
   width="49px"
   height="49px"
   viewBox="0 0 49 49"
   enable-background="new 0 0 49 49"
   xml:space="preserve"
   sodipodi:docname="排风机_15-01.svg"><metadata
   id="metadata29"><rdf:RDF><cc:Work
       rdf:about=""><dc:format>image/svg+xml</dc:format><dc:type
         rdf:resource="http://purl.org/dc/dcmitype/StillImage" /></cc:Work></rdf:RDF></metadata><defs
   id="defs27" /><sodipodi:namedview
   pagecolor="#ffffff"
   bordercolor="#666666"
   borderopacity="1"
   objecttolerance="10"
   gridtolerance="10"
   guidetolerance="10"
   inkscape:pageopacity="0"
   inkscape:pageshadow="2"
   inkscape:window-width="640"
   inkscape:window-height="480"
   id="namedview25" />
<g
   id="g22">
	<circle
   fill="#E5E5E5"
   cx="24.5"
   cy="24.5"
   r="24.5"
   id="circle2" />
	<path
   fill="#1B8E99"
   d="M12.668,6.889c0,0,4.874-3.455,10.153-3.424c0.444,0.771,7.187,9.9,1.73,21.006   c-0.787-0.212-2.544-1.891-5.277-6.112C17.262,15.248,14.396,9.975,12.668,6.889z"
   id="path4" />
	<path
   fill="#1B8E99"
   d="M3.384,25.971c0,0-0.555-5.949,2.111-10.505c0.89,0.001,12.167-1.273,19.057,9.005   c-0.577,0.575-2.908,1.258-7.933,1.513C12.919,26.171,6.919,26.018,3.384,25.971z"
   id="path6" />
	<path
   fill="#1B8E99"
   d="M15.267,43.551c0,0-5.43-2.492-8.042-7.08c0.444-0.77,4.981-11.173,17.327-12   c0.21,0.786-0.365,3.146-2.656,7.625C20.208,35.395,17.075,40.514,15.267,43.551z"
   id="path8" />
	<path
   fill="#1B8E99"
   d="M36.433,42.051c0,0-4.872,3.456-10.152,3.425c-0.444-0.771-7.186-9.901-1.729-21.005   c0.785,0.211,2.543,1.889,5.274,6.111C31.841,33.693,34.707,38.966,36.433,42.051z"
   id="path10" />
	<path
   fill="#1B8E99"
   d="M45.718,22.971c0,0,0.556,5.947-2.111,10.504c-0.889,0-12.167,1.274-19.055-9.004   c0.575-0.575,2.908-1.259,7.931-1.513C36.183,22.77,42.182,22.923,45.718,22.971z"
   id="path12" />
	<path
   fill="#1B8E99"
   d="M33.835,5.39c0,0,5.431,2.492,8.042,7.08c-0.444,0.771-4.98,11.175-17.325,12.001   c-0.21-0.786,0.364-3.148,2.654-7.625C28.893,13.547,32.027,8.427,33.835,5.39z"
   id="path14" />
	<g
   id="g20">
		<circle
   fill="#FFFFFF"
   cx="24.5"
   cy="24.5"
   r="8.45"
   id="circle16" />
		<circle
   fill="#1B8E99"
   cx="24.5"
   cy="24.5"
   r="5.339"
   id="circle18" />
	</g>
</g>
</svg>
