<?xml version="1.0" encoding="UTF-8" standalone="no"?>
<svg
   xmlns:a="http://ns.adobe.com/AdobeSVGViewerExtensions/3.0/"
   xmlns:dc="http://purl.org/dc/elements/1.1/"
   xmlns:cc="http://creativecommons.org/ns#"
   xmlns:rdf="http://www.w3.org/1999/02/22-rdf-syntax-ns#"
   xmlns:svg="http://www.w3.org/2000/svg"
   xmlns="http://www.w3.org/2000/svg"
   xmlns:sodipodi="http://sodipodi.sourceforge.net/DTD/sodipodi-0.dtd"
   xmlns:inkscape="http://www.inkscape.org/namespaces/inkscape"
   version="1.1"
   id="图层_1"
   x="0px"
   y="0px"
   width="38.386px"
   height="34.906px"
   viewBox="0 0 38.386 34.906"
   enable-background="new 0 0 38.386 34.906"
   xml:space="preserve"
   sodipodi:docname="排风机_19-01.svg"><metadata
   id="metadata75"><rdf:RDF><cc:Work
       rdf:about=""><dc:format>image/svg+xml</dc:format><dc:type
         rdf:resource="http://purl.org/dc/dcmitype/StillImage" /></cc:Work></rdf:RDF></metadata><defs
   id="defs73" /><sodipodi:namedview
   pagecolor="#ffffff"
   bordercolor="#666666"
   borderopacity="1"
   objecttolerance="10"
   gridtolerance="10"
   guidetolerance="10"
   inkscape:pageopacity="0"
   inkscape:pageshadow="2"
   inkscape:window-width="640"
   inkscape:window-height="480"
   id="namedview71" />
<g
   id="g68">
	<g
   id="g62">
		<g
   id="g20">
			<path
   fill="#F7F8F9"
   d="M3.777,0.546C3.5,0.666,3.233,0.81,2.973,0.98C2.692,1.143,2.431,1.33,2.191,1.539     c-0.169,0.16-0.329,0.324-0.477,0.49C1.392,2.391,1.117,2.783,0.888,3.197C0.645,3.602,0.442,4.036,0.29,4.496     c-0.07,0.212-0.131,0.431-0.186,0.658C0.043,5.466,0.011,5.786,0.011,6.111c-0.018,0.31-0.008,0.612,0.025,0.913     c0.34,3.071,2.772,5.301,5.425,5.658c0.271,0.108,0.547,0.2,0.832,0.28c1.394,0.173,2.731,0.36,4.023,0.675     c0.257,0.063,0.514,0.131,0.769,0.205c2.248,0.602,5.078,2.096,7.088,0.919c0.251-0.147,0.49-0.337,0.711-0.574     c0.108-0.144,0.211-0.284,0.31-0.422c0.07-0.153,0.14-0.313,0.211-0.478c0.095-0.312,0.138-0.613,0.14-0.904     c0.014-2.329-2.695-4.033-4.339-5.679c-0.191-0.184-0.378-0.372-0.562-0.564c-0.919-0.96-1.75-2.024-2.597-3.146     c-0.21-0.206-0.427-0.399-0.657-0.581C9.754,0.296,6.607-0.695,3.777,0.546z"
   id="path2" />
			
				<linearGradient
   id="SVGID_1_"
   gradientUnits="userSpaceOnUse"
   x1="-657.0698"
   y1="-1741.2104"
   x2="-642.3951"
   y2="-1741.0911"
   gradientTransform="matrix(0.5 -0.866 0.866 0.5 1841.9822 317.6794)">
				<stop
   offset="0"
   style="stop-color:#7A7890"
   id="stop4" />
				<stop
   offset="0.1989"
   style="stop-color:#7D7B92;stop-opacity:0.9699"
   id="stop6" />
				<stop
   offset="1"
   style="stop-color:#D0CDCD;stop-opacity:0.2"
   id="stop8" />
				<a:midPointStop
   offset="0"
   style="stop-color:#7A7890" />
				<a:midPointStop
   offset="0.5"
   style="stop-color:#7A7890" />
				<a:midPointStop
   offset="0.1989"
   style="stop-color:#7D7B92;stop-opacity:0.9699" />
				<a:midPointStop
   offset="0.5"
   style="stop-color:#7D7B92;stop-opacity:0.9699" />
				<a:midPointStop
   offset="1"
   style="stop-color:#D0CDCD;stop-opacity:0.2" />
			</linearGradient>
			<path
   fill="url(#SVGID_1_)"
   d="M19.194,13.766c0.07-0.153,0.14-0.313,0.211-0.478c0.095-0.312,0.138-0.613,0.14-0.904     c0.014-2.329-2.695-4.033-4.339-5.679c-0.191-0.184-0.378-0.372-0.562-0.564c-0.919-0.96-1.75-2.024-2.597-3.146     c-0.21-0.206-0.427-0.399-0.657-0.581C9.754,0.296,6.607-0.695,3.777,0.546C3.5,0.666,3.233,0.81,2.973,0.98     C2.692,1.143,2.431,1.33,2.191,1.539c-0.169,0.16-0.329,0.324-0.477,0.49C1.392,2.391,1.117,2.783,0.888,3.197"
   id="path11" />
			
				<linearGradient
   id="SVGID_2_"
   gradientUnits="userSpaceOnUse"
   x1="-648.2373"
   y1="-1745.0581"
   x2="-648.2373"
   y2="-1750.4874"
   gradientTransform="matrix(0.5 -0.866 0.866 0.5 1841.9822 317.6794)">
				<stop
   offset="0"
   style="stop-color:#FFFFFF;stop-opacity:0"
   id="stop13" />
				<stop
   offset="1"
   style="stop-color:#FFFFFF"
   id="stop15" />
				<a:midPointStop
   offset="0"
   style="stop-color:#FFFFFF;stop-opacity:0" />
				<a:midPointStop
   offset="0.5"
   style="stop-color:#FFFFFF;stop-opacity:0" />
				<a:midPointStop
   offset="1"
   style="stop-color:#FFFFFF" />
			</linearGradient>
			<path
   fill="url(#SVGID_2_)"
   d="M10.038,1.151C8.317-0.035,5.953-0.405,3.774,0.55C3.499,0.67,3.23,0.813,2.972,0.984     c-0.282,0.162-0.543,0.35-0.784,0.559c-0.169,0.16-0.329,0.324-0.476,0.49C1.39,2.395,1.114,2.787,0.886,3.201     C0.642,3.605,0.44,4.04,0.287,4.5C0.218,4.711,0.156,4.93,0.102,5.158C0.041,5.47,0.008,5.79,0.009,6.115     c-0.019,0.31-0.008,0.613,0.025,0.913c0.262,2.364,1.765,4.226,3.652,5.122L10.038,1.151z"
   id="path18" />
		</g>
		<g
   id="g40">
			<path
   fill="#F7F8F9"
   d="M15.454,33.728c0.243,0.18,0.5,0.34,0.778,0.479c0.281,0.162,0.575,0.295,0.875,0.398     c0.224,0.066,0.445,0.123,0.662,0.168c0.476,0.098,0.953,0.141,1.425,0.133c0.473,0.008,0.95-0.035,1.424-0.133     c0.218-0.045,0.438-0.102,0.663-0.168c0.301-0.104,0.594-0.236,0.875-0.398c0.277-0.139,0.535-0.299,0.777-0.479     c2.489-1.83,3.205-5.051,2.188-7.527c-0.042-0.289-0.101-0.574-0.174-0.859c-0.547-1.295-1.054-2.547-1.427-3.822     c-0.074-0.256-0.143-0.512-0.207-0.77c-0.602-2.245-0.723-5.444-2.748-6.597c-0.254-0.144-0.537-0.256-0.854-0.329     c-0.178-0.022-0.351-0.041-0.519-0.057c-0.168,0.016-0.341,0.034-0.52,0.057c-0.317,0.074-0.599,0.186-0.853,0.33     c-2.024,1.151-2.146,4.35-2.748,6.596c-0.064,0.258-0.133,0.514-0.208,0.77c-0.373,1.275-0.879,2.527-1.427,3.822     c-0.073,0.285-0.132,0.57-0.174,0.859C12.25,28.677,12.964,31.897,15.454,33.728z"
   id="path22" />
			
				<linearGradient
   id="SVGID_3_"
   gradientUnits="userSpaceOnUse"
   x1="1778.0024"
   y1="-2637.9512"
   x2="1792.6738"
   y2="-2637.8318"
   gradientTransform="matrix(-1 0 0 -1 1806.0303 -2613.543)">
				<stop
   offset="0"
   style="stop-color:#7A7890"
   id="stop24" />
				<stop
   offset="0.1989"
   style="stop-color:#7D7B92;stop-opacity:0.9699"
   id="stop26" />
				<stop
   offset="1"
   style="stop-color:#D0CDCD;stop-opacity:0.2"
   id="stop28" />
				<a:midPointStop
   offset="0"
   style="stop-color:#7A7890" />
				<a:midPointStop
   offset="0.5"
   style="stop-color:#7A7890" />
				<a:midPointStop
   offset="0.1989"
   style="stop-color:#7D7B92;stop-opacity:0.9699" />
				<a:midPointStop
   offset="0.5"
   style="stop-color:#7D7B92;stop-opacity:0.9699" />
				<a:midPointStop
   offset="1"
   style="stop-color:#D0CDCD;stop-opacity:0.2" />
			</linearGradient>
			<path
   fill="url(#SVGID_3_)"
   d="M19.194,13.767c-0.168,0.016-0.341,0.034-0.52,0.057c-0.317,0.074-0.599,0.186-0.853,0.33     c-2.024,1.151-2.146,4.35-2.748,6.596c-0.064,0.258-0.133,0.514-0.208,0.77c-0.373,1.275-0.879,2.527-1.427,3.822     c-0.073,0.285-0.132,0.57-0.174,0.859c-1.016,2.477-0.302,5.697,2.188,7.527c0.243,0.18,0.5,0.34,0.778,0.479     c0.281,0.162,0.575,0.295,0.875,0.398c0.224,0.066,0.445,0.123,0.662,0.168c0.476,0.098,0.953,0.141,1.425,0.133"
   id="path31" />
			
				<linearGradient
   id="SVGID_4_"
   gradientUnits="userSpaceOnUse"
   x1="1786.8315"
   y1="-2641.7983"
   x2="1786.8315"
   y2="-2647.2288"
   gradientTransform="matrix(-1 0 0 -1 1806.0303 -2613.543)">
				<stop
   offset="0"
   style="stop-color:#FFFFFF;stop-opacity:0"
   id="stop33" />
				<stop
   offset="1"
   style="stop-color:#FFFFFF"
   id="stop35" />
				<a:midPointStop
   offset="0"
   style="stop-color:#FFFFFF;stop-opacity:0" />
				<a:midPointStop
   offset="0.5"
   style="stop-color:#FFFFFF;stop-opacity:0" />
				<a:midPointStop
   offset="1"
   style="stop-color:#FFFFFF" />
			</linearGradient>
			<path
   fill="url(#SVGID_4_)"
   d="M12.848,28.003c-0.167,2.082,0.693,4.314,2.61,5.725c0.243,0.18,0.501,0.34,0.778,0.479     c0.283,0.162,0.574,0.295,0.876,0.398c0.223,0.066,0.444,0.123,0.662,0.168c0.474,0.098,0.951,0.141,1.424,0.133     c0.473,0.008,0.951-0.035,1.425-0.133c0.217-0.045,0.438-0.102,0.662-0.168c0.301-0.104,0.594-0.236,0.875-0.398     c0.277-0.139,0.535-0.299,0.777-0.479c1.916-1.408,2.779-3.641,2.61-5.725H12.848z"
   id="path38" />
		</g>
		<g
   id="g60">
			<path
   fill="#F7F8F9"
   d="M38.352,7.024c0.034-0.3,0.043-0.604,0.025-0.912c0-0.326-0.031-0.646-0.093-0.958     c-0.054-0.228-0.116-0.447-0.185-0.658c-0.154-0.46-0.355-0.895-0.6-1.299c-0.229-0.414-0.504-0.807-0.826-1.168     c-0.148-0.166-0.307-0.329-0.477-0.49c-0.24-0.208-0.501-0.396-0.783-0.559c-0.258-0.171-0.525-0.314-0.803-0.435     c-2.83-1.241-5.977-0.25-7.613,1.869c-0.229,0.181-0.447,0.374-0.657,0.58c-0.848,1.121-1.679,2.186-2.597,3.146     c-0.184,0.192-0.371,0.381-0.563,0.564c-1.645,1.646-4.354,3.35-4.34,5.679c0.003,0.292,0.047,0.593,0.142,0.903     c0.07,0.166,0.14,0.325,0.21,0.479c0.099,0.139,0.201,0.278,0.31,0.421c0.222,0.239,0.461,0.428,0.711,0.575     c2.011,1.177,4.841-0.317,7.088-0.919c0.256-0.073,0.512-0.142,0.77-0.205c1.291-0.314,2.628-0.502,4.023-0.675     c0.283-0.079,0.56-0.172,0.83-0.28C35.58,12.326,38.012,10.096,38.352,7.024z"
   id="path42" />
			
				<linearGradient
   id="SVGID_5_"
   gradientUnits="userSpaceOnUse"
   x1="1337.0122"
   y1="-80.2598"
   x2="1351.6836"
   y2="-80.1404"
   gradientTransform="matrix(0.5 0.866 -0.866 0.5 -714.0169 -1116.9275)">
				<stop
   offset="0"
   style="stop-color:#7A7890"
   id="stop44" />
				<stop
   offset="0.1989"
   style="stop-color:#7D7B92;stop-opacity:0.9699"
   id="stop46" />
				<stop
   offset="1"
   style="stop-color:#D0CDCD;stop-opacity:0.2"
   id="stop48" />
				<a:midPointStop
   offset="0"
   style="stop-color:#7A7890" />
				<a:midPointStop
   offset="0.5"
   style="stop-color:#7A7890" />
				<a:midPointStop
   offset="0.1989"
   style="stop-color:#7D7B92;stop-opacity:0.9699" />
				<a:midPointStop
   offset="0.5"
   style="stop-color:#7D7B92;stop-opacity:0.9699" />
				<a:midPointStop
   offset="1"
   style="stop-color:#D0CDCD;stop-opacity:0.2" />
			</linearGradient>
			<path
   fill="url(#SVGID_5_)"
   d="M19.194,13.766c0.099,0.139,0.201,0.278,0.31,0.421c0.222,0.239,0.461,0.428,0.711,0.575     c2.011,1.177,4.841-0.317,7.088-0.919c0.256-0.073,0.512-0.142,0.77-0.205c1.291-0.314,2.628-0.502,4.023-0.675     c0.283-0.079,0.56-0.172,0.83-0.28c2.653-0.356,5.086-2.587,5.426-5.658c0.034-0.3,0.043-0.604,0.025-0.912     c0-0.326-0.031-0.646-0.093-0.958c-0.054-0.228-0.116-0.447-0.185-0.658c-0.154-0.46-0.355-0.895-0.6-1.299"
   id="path51" />
			
				<linearGradient
   id="SVGID_6_"
   gradientUnits="userSpaceOnUse"
   x1="1345.8403"
   y1="-84.1079"
   x2="1345.8403"
   y2="-89.5369"
   gradientTransform="matrix(0.5 0.866 -0.866 0.5 -714.0169 -1116.9275)">
				<stop
   offset="0"
   style="stop-color:#FFFFFF;stop-opacity:0"
   id="stop53" />
				<stop
   offset="1"
   style="stop-color:#FFFFFF"
   id="stop55" />
				<a:midPointStop
   offset="0"
   style="stop-color:#FFFFFF;stop-opacity:0" />
				<a:midPointStop
   offset="0.5"
   style="stop-color:#FFFFFF;stop-opacity:0" />
				<a:midPointStop
   offset="1"
   style="stop-color:#FFFFFF" />
			</linearGradient>
			<path
   fill="url(#SVGID_6_)"
   d="M34.698,12.143c1.888-0.896,3.391-2.758,3.652-5.122c0.033-0.3,0.043-0.604,0.025-0.913     c0-0.324-0.032-0.645-0.093-0.957c-0.054-0.228-0.116-0.447-0.185-0.658c-0.153-0.46-0.355-0.894-0.6-1.299     c-0.229-0.413-0.504-0.806-0.826-1.169c-0.147-0.165-0.307-0.329-0.477-0.489c-0.24-0.208-0.502-0.396-0.783-0.559     c-0.258-0.171-0.525-0.313-0.803-0.434c-2.178-0.955-4.542-0.585-6.263,0.601L34.698,12.143z"
   id="path58" />
		</g>
	</g>
	<circle
   fill="#6B768E"
   cx="19.199"
   cy="13.766"
   r="4.935"
   id="circle64" />
	<circle
   fill="#FFFFFF"
   cx="19.199"
   cy="13.766"
   r="3.948"
   id="circle66" />
</g>
</svg>
