<?xml version="1.0" encoding="UTF-8" standalone="no"?>
<svg
   xmlns:a="http://ns.adobe.com/AdobeSVGViewerExtensions/3.0/"
   xmlns:dc="http://purl.org/dc/elements/1.1/"
   xmlns:cc="http://creativecommons.org/ns#"
   xmlns:rdf="http://www.w3.org/1999/02/22-rdf-syntax-ns#"
   xmlns:svg="http://www.w3.org/2000/svg"
   xmlns="http://www.w3.org/2000/svg"
   xmlns:sodipodi="http://sodipodi.sourceforge.net/DTD/sodipodi-0.dtd"
   xmlns:inkscape="http://www.inkscape.org/namespaces/inkscape"
   version="1.1"
   id="图层_1"
   x="0px"
   y="0px"
   width="65px"
   height="65px"
   viewBox="0 0 65 65"
   enable-background="new 0 0 65 65"
   xml:space="preserve"
   sodipodi:docname="排风机_02-01.svg"><metadata
   id="metadata114"><rdf:RDF><cc:Work
       rdf:about=""><dc:format>image/svg+xml</dc:format><dc:type
         rdf:resource="http://purl.org/dc/dcmitype/StillImage" /></cc:Work></rdf:RDF></metadata><defs
   id="defs112" /><sodipodi:namedview
   pagecolor="#ffffff"
   bordercolor="#666666"
   borderopacity="1"
   objecttolerance="10"
   gridtolerance="10"
   guidetolerance="10"
   inkscape:pageopacity="0"
   inkscape:pageshadow="2"
   inkscape:window-width="640"
   inkscape:window-height="480"
   id="namedview110" />
<g
   id="g107">
	<path
   fill="#7F7F7F"
   d="M65,61.546C65,63.453,63.453,65,61.545,65H3.454C1.547,65,0,63.453,0,61.546V3.455C0,1.547,1.547,0,3.454,0   h58.091C63.453,0,65,1.547,65,3.455V61.546z"
   id="path2" />
	<linearGradient
   id="SVGID_1_"
   gradientUnits="userSpaceOnUse"
   x1="5.4258"
   y1="4.2339"
   x2="57.7416"
   y2="58.8532">
		<stop
   offset="0"
   style="stop-color:#EFECE7"
   id="stop4" />
		<stop
   offset="1"
   style="stop-color:#AFADB2"
   id="stop6" />
		<a:midPointStop
   offset="0"
   style="stop-color:#EFECE7" />
		<a:midPointStop
   offset="0.5"
   style="stop-color:#EFECE7" />
		<a:midPointStop
   offset="1"
   style="stop-color:#AFADB2" />
	</linearGradient>
	<path
   fill="url(#SVGID_1_)"
   d="M62.182,59.027c0,1.742-1.412,3.156-3.155,3.156H5.973c-1.742,0-3.155-1.414-3.155-3.156V5.974   c0-1.743,1.413-3.156,3.155-3.156h53.054c1.743,0,3.155,1.413,3.155,3.156V59.027z"
   id="path9" />
	<linearGradient
   id="SVGID_2_"
   gradientUnits="userSpaceOnUse"
   x1="60.4932"
   y1="58.3887"
   x2="12.4978"
   y2="14.0036">
		<stop
   offset="0"
   style="stop-color:#9C909E"
   id="stop11" />
		<stop
   offset="1"
   style="stop-color:#D0CDCD;stop-opacity:0"
   id="stop13" />
		<a:midPointStop
   offset="0"
   style="stop-color:#9C909E" />
		<a:midPointStop
   offset="0.5"
   style="stop-color:#9C909E" />
		<a:midPointStop
   offset="1"
   style="stop-color:#D0CDCD;stop-opacity:0" />
	</linearGradient>
	<path
   opacity="0.7"
   fill="url(#SVGID_2_)"
   d="M59.026,2.817h-1.445v55.216H2.817v0.994c0,1.742,1.413,3.156,3.155,3.156h53.054   c1.743,0,3.155-1.414,3.155-3.156V5.974C62.182,4.23,60.77,2.817,59.026,2.817z"
   id="path16" />
	<linearGradient
   id="SVGID_3_"
   gradientUnits="userSpaceOnUse"
   x1="32.4995"
   y1="21.2964"
   x2="32.4995"
   y2="4.6382">
		<stop
   offset="0"
   style="stop-color:#FFFFFF;stop-opacity:0"
   id="stop18" />
		<stop
   offset="1"
   style="stop-color:#FFFFFF"
   id="stop20" />
		<a:midPointStop
   offset="0"
   style="stop-color:#FFFFFF;stop-opacity:0" />
		<a:midPointStop
   offset="0.5"
   style="stop-color:#FFFFFF;stop-opacity:0" />
		<a:midPointStop
   offset="1"
   style="stop-color:#FFFFFF" />
	</linearGradient>
	<path
   opacity="0.7"
   fill="url(#SVGID_3_)"
   d="M62.182,21.608V5.974c0-1.743-1.412-3.156-3.155-3.156H5.973   c-1.742,0-3.155,1.413-3.155,3.156v15.635H62.182z"
   id="path23" />
	<linearGradient
   id="SVGID_4_"
   gradientUnits="userSpaceOnUse"
   x1="49.0234"
   y1="47.7813"
   x2="-4.8886"
   y2="-2.0755">
		<stop
   offset="0"
   style="stop-color:#7A7890"
   id="stop25" />
		<stop
   offset="1"
   style="stop-color:#D0CDCD;stop-opacity:0"
   id="stop27" />
		<a:midPointStop
   offset="0"
   style="stop-color:#7A7890" />
		<a:midPointStop
   offset="0.5"
   style="stop-color:#7A7890" />
		<a:midPointStop
   offset="1"
   style="stop-color:#D0CDCD;stop-opacity:0" />
	</linearGradient>
	<circle
   fill="url(#SVGID_4_)"
   cx="32.5"
   cy="32.501"
   r="25.329"
   id="circle30" />
	<linearGradient
   id="SVGID_5_"
   gradientUnits="userSpaceOnUse"
   x1="48.4385"
   y1="47.2402"
   x2="-3.5623"
   y2="-0.849">
		<stop
   offset="0"
   style="stop-color:#D0CDCD;stop-opacity:0.2"
   id="stop32" />
		<stop
   offset="0.8011"
   style="stop-color:#7D7B92;stop-opacity:0.9699"
   id="stop34" />
		<stop
   offset="1"
   style="stop-color:#7A7890"
   id="stop36" />
		<a:midPointStop
   offset="0"
   style="stop-color:#D0CDCD;stop-opacity:0.2" />
		<a:midPointStop
   offset="0.5"
   style="stop-color:#D0CDCD;stop-opacity:0.2" />
		<a:midPointStop
   offset="0.8011"
   style="stop-color:#7D7B92;stop-opacity:0.9699" />
		<a:midPointStop
   offset="0.5"
   style="stop-color:#7D7B92;stop-opacity:0.9699" />
		<a:midPointStop
   offset="1"
   style="stop-color:#7A7890" />
	</linearGradient>
	<circle
   fill="url(#SVGID_5_)"
   cx="32.5"
   cy="32.501"
   r="24.431"
   id="circle39" />
	<g
   id="g101">
		<g
   id="g59">
			<path
   fill="#F7F8F9"
   d="M25.754,13.343c-0.301-0.034-0.604-0.043-0.913-0.025c-0.325,0-0.646,0.032-0.958,0.093     c-0.228,0.054-0.446,0.116-0.658,0.186c-0.459,0.153-0.894,0.354-1.299,0.599c-0.413,0.229-0.806,0.504-1.168,0.826     c-0.166,0.147-0.33,0.307-0.489,0.477c-0.209,0.24-0.396,0.502-0.56,0.783c-0.17,0.259-0.313,0.526-0.434,0.804     c-1.241,2.829-0.25,5.977,1.869,7.612c0.18,0.229,0.374,0.447,0.58,0.658c1.12,0.847,2.185,1.678,3.146,2.596     c0.191,0.185,0.381,0.371,0.563,0.563c1.646,1.645,3.35,4.354,5.68,4.34c0.291-0.002,0.592-0.047,0.903-0.142     c0.165-0.07,0.324-0.14,0.479-0.21c0.138-0.099,0.277-0.201,0.421-0.31c0.238-0.223,0.427-0.461,0.574-0.712     c1.177-2.011-0.316-4.84-0.918-7.088c-0.074-0.255-0.143-0.512-0.205-0.77c-0.314-1.291-0.502-2.628-0.676-4.022     c-0.079-0.283-0.171-0.561-0.279-0.832C31.055,16.115,28.824,13.684,25.754,13.343z"
   id="path41" />
			
				<linearGradient
   id="SVGID_6_"
   gradientUnits="userSpaceOnUse"
   x1="-584.9497"
   y1="-693.0483"
   x2="-570.2772"
   y2="-692.929"
   gradientTransform="matrix(0.866 -0.5 0.5 0.866 872.614 335.407)">
				<stop
   offset="0"
   style="stop-color:#7A7890"
   id="stop43" />
				<stop
   offset="0.1989"
   style="stop-color:#7D7B92;stop-opacity:0.9699"
   id="stop45" />
				<stop
   offset="1"
   style="stop-color:#D0CDCD;stop-opacity:0.2"
   id="stop47" />
				<a:midPointStop
   offset="0"
   style="stop-color:#7A7890" />
				<a:midPointStop
   offset="0.5"
   style="stop-color:#7A7890" />
				<a:midPointStop
   offset="0.1989"
   style="stop-color:#7D7B92;stop-opacity:0.9699" />
				<a:midPointStop
   offset="0.5"
   style="stop-color:#7D7B92;stop-opacity:0.9699" />
				<a:midPointStop
   offset="1"
   style="stop-color:#D0CDCD;stop-opacity:0.2" />
			</linearGradient>
			<path
   fill="url(#SVGID_6_)"
   d="M32.495,32.501c0.138-0.099,0.277-0.201,0.421-0.31c0.238-0.223,0.427-0.461,0.574-0.712     c1.177-2.011-0.316-4.84-0.918-7.088c-0.074-0.255-0.143-0.512-0.205-0.77c-0.314-1.291-0.502-2.628-0.676-4.022     c-0.079-0.283-0.171-0.561-0.279-0.832c-0.357-2.652-2.588-5.084-5.658-5.425c-0.301-0.034-0.604-0.043-0.913-0.025     c-0.325,0-0.646,0.032-0.958,0.093c-0.228,0.054-0.446,0.116-0.658,0.186c-0.459,0.153-0.894,0.354-1.299,0.599"
   id="path50" />
			
				<linearGradient
   id="SVGID_7_"
   gradientUnits="userSpaceOnUse"
   x1="-576.1201"
   y1="-696.8965"
   x2="-576.1201"
   y2="-702.3262"
   gradientTransform="matrix(0.866 -0.5 0.5 0.866 872.614 335.407)">
				<stop
   offset="0"
   style="stop-color:#FFFFFF;stop-opacity:0"
   id="stop52" />
				<stop
   offset="1"
   style="stop-color:#FFFFFF"
   id="stop54" />
				<a:midPointStop
   offset="0"
   style="stop-color:#FFFFFF;stop-opacity:0" />
				<a:midPointStop
   offset="0.5"
   style="stop-color:#FFFFFF;stop-opacity:0" />
				<a:midPointStop
   offset="1"
   style="stop-color:#FFFFFF" />
			</linearGradient>
			<path
   fill="url(#SVGID_7_)"
   d="M30.872,16.998c-0.896-1.888-2.758-3.391-5.122-3.653c-0.301-0.034-0.604-0.043-0.913-0.024     c-0.326,0-0.646,0.031-0.958,0.093c-0.228,0.053-0.446,0.115-0.657,0.185c-0.46,0.153-0.895,0.355-1.3,0.599     c-0.413,0.229-0.805,0.504-1.167,0.826c-0.167,0.148-0.33,0.307-0.49,0.477c-0.209,0.24-0.396,0.501-0.56,0.783     c-0.171,0.259-0.313,0.526-0.434,0.804c-0.955,2.178-0.585,4.542,0.602,6.263L30.872,16.998z"
   id="path57" />
		</g>
		<g
   id="g79">
			<path
   fill="#F7F8F9"
   d="M19.274,47.918c0.121,0.277,0.264,0.545,0.435,0.804c0.163,0.281,0.351,0.543,0.56,0.782     c0.159,0.17,0.323,0.33,0.489,0.478c0.362,0.322,0.754,0.598,1.168,0.826c0.405,0.243,0.84,0.445,1.299,0.599     c0.212,0.069,0.431,0.131,0.658,0.186c0.313,0.061,0.633,0.093,0.958,0.092c0.309,0.019,0.612,0.01,0.913-0.025     c3.07-0.34,5.301-2.771,5.658-5.425c0.108-0.272,0.2-0.548,0.279-0.831c0.174-1.395,0.361-2.731,0.676-4.022     c0.063-0.259,0.131-0.515,0.205-0.771c0.6-2.247,2.095-5.076,0.918-7.087c-0.147-0.252-0.337-0.49-0.574-0.713     c-0.145-0.108-0.283-0.211-0.421-0.309c-0.154-0.07-0.313-0.14-0.479-0.21c-0.312-0.095-0.612-0.14-0.903-0.142     c-2.33-0.014-4.033,2.694-5.68,4.339c-0.184,0.192-0.371,0.379-0.563,0.563c-0.961,0.919-2.025,1.75-3.146,2.596     c-0.207,0.211-0.4,0.43-0.581,0.658C19.024,41.941,18.034,45.088,19.274,47.918z"
   id="path61" />
			
				<linearGradient
   id="SVGID_8_"
   gradientUnits="userSpaceOnUse"
   x1="867.5615"
   y1="-3088.2759"
   x2="882.2351"
   y2="-3088.1565"
   gradientTransform="matrix(-0.866 -0.5 0.5 -0.866 2330.2698 -2194.531)">
				<stop
   offset="0"
   style="stop-color:#7A7890"
   id="stop63" />
				<stop
   offset="0.1989"
   style="stop-color:#7D7B92;stop-opacity:0.9699"
   id="stop65" />
				<stop
   offset="1"
   style="stop-color:#D0CDCD;stop-opacity:0.2"
   id="stop67" />
				<a:midPointStop
   offset="0"
   style="stop-color:#7A7890" />
				<a:midPointStop
   offset="0.5"
   style="stop-color:#7A7890" />
				<a:midPointStop
   offset="0.1989"
   style="stop-color:#7D7B92;stop-opacity:0.9699" />
				<a:midPointStop
   offset="0.5"
   style="stop-color:#7D7B92;stop-opacity:0.9699" />
				<a:midPointStop
   offset="1"
   style="stop-color:#D0CDCD;stop-opacity:0.2" />
			</linearGradient>
			<path
   fill="url(#SVGID_8_)"
   d="M32.495,32.501c-0.154-0.07-0.313-0.14-0.479-0.21c-0.312-0.095-0.612-0.14-0.903-0.142     c-2.33-0.014-4.033,2.694-5.68,4.339c-0.184,0.192-0.371,0.379-0.563,0.563c-0.961,0.919-2.025,1.75-3.146,2.596     c-0.207,0.211-0.4,0.43-0.581,0.658c-2.119,1.637-3.109,4.783-1.869,7.613c0.121,0.277,0.264,0.545,0.435,0.804     c0.163,0.281,0.351,0.543,0.56,0.782c0.159,0.17,0.323,0.33,0.489,0.478c0.362,0.322,0.754,0.598,1.168,0.826"
   id="path70" />
			
				<linearGradient
   id="SVGID_9_"
   gradientUnits="userSpaceOnUse"
   x1="876.3906"
   y1="-3092.1221"
   x2="876.3906"
   y2="-3097.5525"
   gradientTransform="matrix(-0.866 -0.5 0.5 -0.866 2330.2698 -2194.531)">
				<stop
   offset="0"
   style="stop-color:#FFFFFF;stop-opacity:0"
   id="stop72" />
				<stop
   offset="1"
   style="stop-color:#FFFFFF"
   id="stop74" />
				<a:midPointStop
   offset="0"
   style="stop-color:#FFFFFF;stop-opacity:0" />
				<a:midPointStop
   offset="0.5"
   style="stop-color:#FFFFFF;stop-opacity:0" />
				<a:midPointStop
   offset="1"
   style="stop-color:#FFFFFF" />
			</linearGradient>
			<path
   fill="url(#SVGID_9_)"
   d="M19.881,41.658c-1.187,1.72-1.558,4.084-0.603,6.262c0.12,0.277,0.265,0.545,0.435,0.805     c0.163,0.281,0.351,0.542,0.56,0.781c0.159,0.17,0.323,0.33,0.489,0.479c0.362,0.32,0.754,0.597,1.168,0.825     c0.404,0.244,0.839,0.446,1.299,0.599c0.211,0.07,0.431,0.131,0.657,0.186c0.313,0.061,0.634,0.093,0.958,0.093     c0.31,0.019,0.612,0.009,0.913-0.026c2.364-0.262,4.226-1.765,5.123-3.652L19.881,41.658z"
   id="path77" />
		</g>
		<g
   id="g99">
			<path
   fill="#F7F8F9"
   d="M52.457,36.242c0.18-0.243,0.339-0.502,0.479-0.779c0.162-0.281,0.295-0.574,0.398-0.875     c0.066-0.224,0.123-0.445,0.168-0.662c0.098-0.476,0.14-0.952,0.131-1.425c0.009-0.473-0.033-0.95-0.131-1.425     c-0.045-0.218-0.102-0.438-0.168-0.662c-0.104-0.301-0.236-0.595-0.398-0.876c-0.139-0.277-0.299-0.535-0.479-0.778     c-1.831-2.488-5.051-3.204-7.528-2.188c-0.289,0.042-0.573,0.101-0.86,0.174c-1.293,0.548-2.544,1.053-3.82,1.427     c-0.256,0.073-0.512,0.144-0.77,0.207c-2.246,0.603-5.444,0.724-6.598,2.748c-0.143,0.254-0.255,0.536-0.329,0.854     c-0.021,0.179-0.04,0.351-0.057,0.52c0.017,0.169,0.036,0.341,0.057,0.519c0.074,0.318,0.187,0.602,0.329,0.854     c1.153,2.025,4.352,2.146,6.598,2.749c0.258,0.063,0.514,0.133,0.77,0.208c1.275,0.372,2.527,0.879,3.82,1.426     c0.287,0.073,0.572,0.132,0.861,0.174C47.405,39.447,50.626,38.73,52.457,36.242z"
   id="path81" />
			
				<linearGradient
   id="SVGID_10_"
   gradientUnits="userSpaceOnUse"
   x1="2215.2383"
   y1="-633.0444"
   x2="2229.9097"
   y2="-632.9251"
   gradientTransform="matrix(0 1 -1 0 -589.9072 -2191.5703)">
				<stop
   offset="0"
   style="stop-color:#7A7890"
   id="stop83" />
				<stop
   offset="0.1989"
   style="stop-color:#7D7B92;stop-opacity:0.9699"
   id="stop85" />
				<stop
   offset="1"
   style="stop-color:#D0CDCD;stop-opacity:0.2"
   id="stop87" />
				<a:midPointStop
   offset="0"
   style="stop-color:#7A7890" />
				<a:midPointStop
   offset="0.5"
   style="stop-color:#7A7890" />
				<a:midPointStop
   offset="0.1989"
   style="stop-color:#7D7B92;stop-opacity:0.9699" />
				<a:midPointStop
   offset="0.5"
   style="stop-color:#7D7B92;stop-opacity:0.9699" />
				<a:midPointStop
   offset="1"
   style="stop-color:#D0CDCD;stop-opacity:0.2" />
			</linearGradient>
			<path
   fill="url(#SVGID_10_)"
   d="M32.495,32.501c0.017,0.169,0.036,0.341,0.057,0.519c0.074,0.318,0.187,0.602,0.329,0.854     c1.153,2.025,4.352,2.146,6.598,2.749c0.258,0.063,0.514,0.133,0.77,0.208c1.275,0.372,2.527,0.879,3.82,1.426     c0.287,0.073,0.572,0.132,0.861,0.174c2.476,1.018,5.696,0.301,7.527-2.188c0.18-0.243,0.339-0.502,0.479-0.779     c0.162-0.281,0.295-0.574,0.398-0.875c0.066-0.224,0.123-0.445,0.168-0.662c0.098-0.476,0.14-0.952,0.131-1.425"
   id="path90" />
			
				<linearGradient
   id="SVGID_11_"
   gradientUnits="userSpaceOnUse"
   x1="2224.0674"
   y1="-636.8926"
   x2="2224.0674"
   y2="-642.3215"
   gradientTransform="matrix(0 1 -1 0 -589.9072 -2191.5703)">
				<stop
   offset="0"
   style="stop-color:#FFFFFF;stop-opacity:0"
   id="stop92" />
				<stop
   offset="1"
   style="stop-color:#FFFFFF"
   id="stop94" />
				<a:midPointStop
   offset="0"
   style="stop-color:#FFFFFF;stop-opacity:0" />
				<a:midPointStop
   offset="0.5"
   style="stop-color:#FFFFFF;stop-opacity:0" />
				<a:midPointStop
   offset="1"
   style="stop-color:#FFFFFF" />
			</linearGradient>
			<path
   fill="url(#SVGID_11_)"
   d="M46.732,38.847c2.083,0.167,4.314-0.693,5.725-2.609c0.18-0.243,0.34-0.501,0.479-0.778     c0.162-0.281,0.295-0.574,0.398-0.875c0.066-0.225,0.123-0.445,0.168-0.662c0.098-0.476,0.14-0.953,0.131-1.426     c0.009-0.473-0.033-0.949-0.131-1.424c-0.045-0.219-0.102-0.439-0.168-0.662c-0.104-0.302-0.236-0.595-0.398-0.876     c-0.139-0.277-0.299-0.535-0.479-0.777c-1.41-1.917-3.642-2.777-5.725-2.61V38.847z"
   id="path97" />
		</g>
	</g>
	<circle
   fill="#6B768E"
   cx="32.5"
   cy="32.501"
   r="4.935"
   id="circle103" />
	<circle
   fill="#FFFFFF"
   cx="32.5"
   cy="32.501"
   r="3.948"
   id="circle105" />
</g>
</svg>
