<?xml version="1.0" encoding="UTF-8" standalone="no"?>
<svg
   xmlns:dc="http://purl.org/dc/elements/1.1/"
   xmlns:cc="http://creativecommons.org/ns#"
   xmlns:rdf="http://www.w3.org/1999/02/22-rdf-syntax-ns#"
   xmlns:svg="http://www.w3.org/2000/svg"
   xmlns="http://www.w3.org/2000/svg"
   xmlns:sodipodi="http://sodipodi.sourceforge.net/DTD/sodipodi-0.dtd"
   xmlns:inkscape="http://www.inkscape.org/namespaces/inkscape"
   version="1.1"
   id="图层_1"
   x="0px"
   y="0px"
   width="42.024px"
   height="42.443px"
   viewBox="0 0 42.024 42.443"
   enable-background="new 0 0 42.024 42.443"
   xml:space="preserve"
   sodipodi:docname="排风机_21-01.svg"><metadata
   id="metadata27"><rdf:RDF><cc:Work
       rdf:about=""><dc:format>image/svg+xml</dc:format><dc:type
         rdf:resource="http://purl.org/dc/dcmitype/StillImage" /></cc:Work></rdf:RDF></metadata><defs
   id="defs25" /><sodipodi:namedview
   pagecolor="#ffffff"
   bordercolor="#666666"
   borderopacity="1"
   objecttolerance="10"
   gridtolerance="10"
   guidetolerance="10"
   inkscape:pageopacity="0"
   inkscape:pageshadow="2"
   inkscape:window-width="640"
   inkscape:window-height="480"
   id="namedview23" />
<g
   id="g20">
	<path
   fill="#1B8E99"
   d="M19.512,0.048c0,0,5.95-0.556,10.508,2.111c0,0.889,1.273,12.17-9.008,19.062   c-0.577-0.576-1.259-2.909-1.514-7.933C19.311,9.586,19.464,3.584,19.512,0.048z"
   id="path2" />
	<path
   fill="#1B8E99"
   d="M1.926,11.934c0,0,2.492-5.431,7.082-8.044c0.77,0.445,11.177,4.982,12.004,17.332   c-0.788,0.21-3.149-0.365-7.627-2.656C10.084,16.877,4.964,13.744,1.926,11.934z"
   id="path4" />
	<path
   fill="#1B8E99"
   d="M3.426,33.107c0,0-3.457-4.875-3.426-10.156c0.771-0.444,9.903-7.188,21.012-1.729   c-0.211,0.786-1.891,2.544-6.114,5.276C11.787,28.512,6.512,31.38,3.426,33.107z"
   id="path6" />
	<path
   fill="#1B8E99"
   d="M22.513,42.395c0,0-5.95,0.557-10.508-2.111c0-0.89-1.273-12.172,9.008-19.062   c0.576,0.576,1.258,2.909,1.514,7.933C22.714,32.856,22.56,38.858,22.513,42.395z"
   id="path8" />
	<path
   fill="#1B8E99"
   d="M40.099,30.508c0,0-2.492,5.432-7.082,8.045c-0.77-0.445-11.178-4.982-12.004-17.331   c0.787-0.21,3.148,0.364,7.627,2.655C31.94,25.564,37.062,28.699,40.099,30.508z"
   id="path10" />
	<path
   fill="#1B8E99"
   d="M38.599,9.336c0,0,3.457,4.875,3.426,10.155c-0.771,0.445-9.904,7.188-21.012,1.73   c0.211-0.786,1.889-2.545,6.113-5.278C30.237,13.93,35.513,11.062,38.599,9.336z"
   id="path12" />
	<g
   id="g18">
		<circle
   fill="#FFFFFF"
   cx="20.954"
   cy="21.221"
   r="8.453"
   id="circle14" />
		<circle
   fill="#1B8E99"
   cx="20.953"
   cy="21.221"
   r="5.341"
   id="circle16" />
	</g>
</g>
</svg>
