<?xml version="1.0" encoding="UTF-8" standalone="no"?>
<svg
   xmlns:dc="http://purl.org/dc/elements/1.1/"
   xmlns:cc="http://creativecommons.org/ns#"
   xmlns:rdf="http://www.w3.org/1999/02/22-rdf-syntax-ns#"
   xmlns:svg="http://www.w3.org/2000/svg"
   xmlns="http://www.w3.org/2000/svg"
   xmlns:sodipodi="http://sodipodi.sourceforge.net/DTD/sodipodi-0.dtd"
   xmlns:inkscape="http://www.inkscape.org/namespaces/inkscape"
   version="1.1"
   id="图层_1"
   x="0px"
   y="0px"
   width="41.681px"
   height="42.454px"
   viewBox="0 0 41.681 42.454"
   enable-background="new 0 0 41.681 42.454"
   xml:space="preserve"
   sodipodi:docname="排风机_22-01.svg"><metadata
   id="metadata27"><rdf:RDF><cc:Work
       rdf:about=""><dc:format>image/svg+xml</dc:format><dc:type
         rdf:resource="http://purl.org/dc/dcmitype/StillImage" /></cc:Work></rdf:RDF></metadata><defs
   id="defs25" /><sodipodi:namedview
   pagecolor="#ffffff"
   bordercolor="#666666"
   borderopacity="1"
   objecttolerance="10"
   gridtolerance="10"
   guidetolerance="10"
   inkscape:pageopacity="0"
   inkscape:pageshadow="2"
   inkscape:window-width="640"
   inkscape:window-height="480"
   id="namedview23" />
<g
   id="g20">
	<path
   fill="#1B8E99"
   d="M13.911,1.163c0,0,5.604-2.076,10.695-0.679c0.23,0.858,4.381,11.426-3.767,20.743   c-0.705-0.407-1.969-2.484-3.515-7.271C16.186,10.428,14.78,4.591,13.911,1.163z"
   id="path2" />
	<path
   fill="#1B8E99"
   d="M0,17.196c0,0,1.003-5.892,4.759-9.604c0.859,0.231,12.086,1.92,16.082,13.634   c-0.707,0.407-3.137,0.464-8.056-0.591C9.161,19.858,3.403,18.157,0,17.196z"
   id="path4" />
	<path
   fill="#1B8E99"
   d="M6.93,37.259c0,0-4.601-3.814-5.938-8.923c0.629-0.629,7.706-9.507,19.849-7.11   c-0.001,0.815-1.168,2.947-4.541,6.68C13.815,30.657,9.464,34.792,6.93,37.259z"
   id="path6" />
	<path
   fill="#1B8E99"
   d="M27.77,41.29c0,0-5.603,2.078-10.696,0.681c-0.23-0.859-4.381-11.427,3.768-20.744   c0.705,0.407,1.969,2.484,3.515,7.271C25.495,32.025,26.9,37.862,27.77,41.29z"
   id="path8" />
	<path
   fill="#1B8E99"
   d="M41.681,25.256c0,0-1.003,5.892-4.76,9.604c-0.859-0.229-12.086-1.919-16.08-13.633   c0.705-0.407,3.135-0.463,8.055,0.593C32.52,22.594,38.277,24.296,41.681,25.256z"
   id="path10" />
	<path
   fill="#1B8E99"
   d="M34.751,5.194c0,0,4.602,3.813,5.938,8.923c-0.629,0.629-7.705,9.506-19.848,7.109   c0-0.814,1.166-2.947,4.539-6.68C27.864,11.796,32.218,7.661,34.751,5.194z"
   id="path12" />
	<g
   id="g18">
		<circle
   fill="#FFFFFF"
   cx="20.783"
   cy="21.242"
   r="8.453"
   id="circle14" />
		<circle
   fill="#1B8E99"
   cx="20.783"
   cy="21.241"
   r="5.341"
   id="circle16" />
	</g>
</g>
</svg>
