<?xml version="1.0" encoding="UTF-8" standalone="no"?>
<svg
   xmlns:a="http://ns.adobe.com/AdobeSVGViewerExtensions/3.0/"
   xmlns:dc="http://purl.org/dc/elements/1.1/"
   xmlns:cc="http://creativecommons.org/ns#"
   xmlns:rdf="http://www.w3.org/1999/02/22-rdf-syntax-ns#"
   xmlns:svg="http://www.w3.org/2000/svg"
   xmlns="http://www.w3.org/2000/svg"
   xmlns:sodipodi="http://sodipodi.sourceforge.net/DTD/sodipodi-0.dtd"
   xmlns:inkscape="http://www.inkscape.org/namespaces/inkscape"
   version="1.1"
   id="图层_1"
   x="0px"
   y="0px"
   width="67.979px"
   height="54.806px"
   viewBox="0 0 67.979 54.806"
   enable-background="new 0 0 67.979 54.806"
   xml:space="preserve"
   sodipodi:docname="排风机_26-01.svg"><metadata
   id="metadata137"><rdf:RDF><cc:Work
       rdf:about=""><dc:format>image/svg+xml</dc:format><dc:type
         rdf:resource="http://purl.org/dc/dcmitype/StillImage" /></cc:Work></rdf:RDF></metadata><defs
   id="defs135" /><sodipodi:namedview
   pagecolor="#ffffff"
   bordercolor="#666666"
   borderopacity="1"
   objecttolerance="10"
   gridtolerance="10"
   guidetolerance="10"
   inkscape:pageopacity="0"
   inkscape:pageshadow="2"
   inkscape:window-width="640"
   inkscape:window-height="480"
   id="namedview133" />
<g
   id="g130">
	<g
   id="g6">
		<path
   fill="#096856"
   d="M67.479,4.306H25.501c-13.809,0-25.001,11.193-25.001,25s11.192,25,25.001,25    c13.808,0,24.999-11.193,24.999-25c0-1.345-0.109-2.664-0.314-3.95h17.293V4.306z"
   id="path2" />
		<path
   fill="#231F20"
   d="M25.501,54.806C11.44,54.806,0,43.366,0,29.306s11.439-25.5,25.501-25.5h42.478v22.05H50.766    C50.921,26.999,51,28.157,51,29.306C51,43.366,39.561,54.806,25.501,54.806z M25.501,4.806C11.992,4.806,1,15.797,1,29.306    c0,13.51,10.991,24.5,24.501,24.5C39.01,53.806,50,42.815,50,29.306c0-1.289-0.104-2.592-0.308-3.872L49.6,24.855h17.379V4.806    H25.501z"
   id="path4" />
	</g>
	<linearGradient
   id="SVGID_1_"
   gradientUnits="userSpaceOnUse"
   x1="35.7153"
   y1="-8.0645"
   x2="35.7153"
   y2="15.4117">
		<stop
   offset="0.1183"
   style="stop-color:#FFFFFF"
   id="stop8" />
		<stop
   offset="0.9839"
   style="stop-color:#FFFFFF;stop-opacity:0"
   id="stop10" />
		<a:midPointStop
   offset="0.1183"
   style="stop-color:#FFFFFF" />
		<a:midPointStop
   offset="0.5"
   style="stop-color:#FFFFFF" />
		<a:midPointStop
   offset="0.9839"
   style="stop-color:#FFFFFF;stop-opacity:0" />
	</linearGradient>
	<path
   opacity="0.5"
   fill="url(#SVGID_1_)"
   d="M67.479,16.637V4.306H25.501c-9.184,0-17.204,4.954-21.55,12.331H67.479z"
   id="path13" />
	<circle
   fill="#108958"
   cx="25.5"
   cy="29.306"
   r="23.51"
   id="circle15" />
	<linearGradient
   id="SVGID_2_"
   gradientUnits="userSpaceOnUse"
   x1="25.5"
   y1="-7.3418"
   x2="25.5"
   y2="25.5419">
		<stop
   offset="0.1183"
   style="stop-color:#FFFFFF"
   id="stop17" />
		<stop
   offset="0.9839"
   style="stop-color:#FFFFFF;stop-opacity:0"
   id="stop19" />
		<a:midPointStop
   offset="0.1183"
   style="stop-color:#FFFFFF" />
		<a:midPointStop
   offset="0.5"
   style="stop-color:#FFFFFF" />
		<a:midPointStop
   offset="0.9839"
   style="stop-color:#FFFFFF;stop-opacity:0" />
	</linearGradient>
	<path
   fill="url(#SVGID_2_)"
   d="M48.932,27.478C47.999,15.349,37.87,5.796,25.501,5.796c-12.369,0-22.5,9.553-23.434,21.682H48.932z   "
   id="path22" />
	
		<linearGradient
   id="SVGID_3_"
   gradientUnits="userSpaceOnUse"
   x1="426.813"
   y1="-1972.4336"
   x2="426.813"
   y2="-1939.5499"
   gradientTransform="matrix(-1 0 0 -1 452.3135 -1906.4805)">
		<stop
   offset="0.1183"
   style="stop-color:#FFFFFF"
   id="stop24" />
		<stop
   offset="0.9839"
   style="stop-color:#FFFFFF;stop-opacity:0"
   id="stop26" />
		<a:midPointStop
   offset="0.1183"
   style="stop-color:#FFFFFF" />
		<a:midPointStop
   offset="0.5"
   style="stop-color:#FFFFFF" />
		<a:midPointStop
   offset="0.9839"
   style="stop-color:#FFFFFF;stop-opacity:0" />
	</linearGradient>
	<path
   opacity="0.3"
   fill="url(#SVGID_3_)"
   d="M2.068,31.134C3.001,43.263,13.132,52.815,25.5,52.815   c12.369,0,22.498-9.553,23.432-21.682H2.068z"
   id="path29" />
	<g
   id="g40">
		<linearGradient
   id="SVGID_4_"
   gradientUnits="userSpaceOnUse"
   x1="25.501"
   y1="10.6416"
   x2="25.501"
   y2="46.3292">
			<stop
   offset="0.0806"
   style="stop-color:#5AAC8B"
   id="stop31" />
			<stop
   offset="0.9839"
   style="stop-color:#096856"
   id="stop33" />
			<a:midPointStop
   offset="0.0806"
   style="stop-color:#5AAC8B" />
			<a:midPointStop
   offset="0.5"
   style="stop-color:#5AAC8B" />
			<a:midPointStop
   offset="0.9839"
   style="stop-color:#096856" />
		</linearGradient>
		<circle
   fill="url(#SVGID_4_)"
   cx="25.501"
   cy="29.306"
   r="19.653"
   id="circle36" />
		<path
   fill="#231F20"
   d="M25.501,49.243c-10.993,0-19.938-8.944-19.938-19.938S14.508,9.369,25.501,9.369    s19.937,8.943,19.937,19.937S36.495,49.243,25.501,49.243z M25.501,9.937c-10.681,0-19.37,8.688-19.37,19.369    s8.689,19.369,19.37,19.369s19.369-8.688,19.369-19.369S36.182,9.937,25.501,9.937z"
   id="path38" />
	</g>
	
		<radialGradient
   id="SVGID_5_"
   cx="41.4243"
   cy="35.9873"
   r="19.3799"
   gradientTransform="matrix(0.9008 0 0 0.9008 -11.8143 -3.1116)"
   gradientUnits="userSpaceOnUse">
		<stop
   offset="0.043"
   style="stop-color:#2C976C"
   id="stop42" />
		<stop
   offset="0.9839"
   style="stop-color:#004D50"
   id="stop44" />
		<a:midPointStop
   offset="0.043"
   style="stop-color:#2C976C" />
		<a:midPointStop
   offset="0.5"
   style="stop-color:#2C976C" />
		<a:midPointStop
   offset="0.9839"
   style="stop-color:#004D50" />
	</radialGradient>
	<circle
   fill="url(#SVGID_5_)"
   cx="25.5"
   cy="29.306"
   r="17.457"
   id="circle47" />
	<circle
   fill="#FFFFFF"
   cx="25.5"
   cy="29.306"
   r="2.085"
   id="circle49" />
	<g
   id="g111">
		<g
   id="g69">
			<path
   fill="#F7F8F9"
   d="M20.551,15.251c-0.221-0.025-0.443-0.032-0.671-0.02c-0.237,0-0.473,0.023-0.702,0.068     c-0.166,0.039-0.328,0.085-0.482,0.137c-0.337,0.112-0.656,0.26-0.953,0.438c-0.303,0.168-0.592,0.37-0.856,0.606     c-0.122,0.107-0.243,0.225-0.36,0.349c-0.152,0.177-0.29,0.369-0.409,0.575c-0.125,0.189-0.231,0.386-0.318,0.59     c-0.912,2.076-0.184,4.385,1.371,5.586c0.133,0.168,0.273,0.327,0.426,0.482c0.822,0.621,1.603,1.231,2.307,1.904     c0.141,0.135,0.28,0.271,0.414,0.412c1.209,1.207,2.458,3.193,4.168,3.184c0.213-0.002,0.434-0.033,0.662-0.104     c0.121-0.051,0.238-0.103,0.351-0.154c0.102-0.071,0.204-0.146,0.31-0.227c0.175-0.163,0.313-0.338,0.422-0.522     c0.863-1.476-0.232-3.551-0.674-5.2c-0.054-0.187-0.104-0.375-0.15-0.564c-0.23-0.947-0.368-1.929-0.495-2.951     c-0.059-0.208-0.126-0.411-0.206-0.61C24.441,17.284,22.804,15.5,20.551,15.251z"
   id="path51" />
			
				<linearGradient
   id="SVGID_6_"
   gradientUnits="userSpaceOnUse"
   x1="-589.4097"
   y1="-697.9072"
   x2="-578.6442"
   y2="-697.8196"
   gradientTransform="matrix(0.866 -0.5 0.5 0.866 875.3619 335.4684)">
				<stop
   offset="0"
   style="stop-color:#7A7890"
   id="stop53" />
				<stop
   offset="0.1989"
   style="stop-color:#7D7B92;stop-opacity:0.9699"
   id="stop55" />
				<stop
   offset="1"
   style="stop-color:#D0CDCD;stop-opacity:0.2"
   id="stop57" />
				<a:midPointStop
   offset="0"
   style="stop-color:#7A7890" />
				<a:midPointStop
   offset="0.5"
   style="stop-color:#7A7890" />
				<a:midPointStop
   offset="0.1989"
   style="stop-color:#7D7B92;stop-opacity:0.9699" />
				<a:midPointStop
   offset="0.5"
   style="stop-color:#7D7B92;stop-opacity:0.9699" />
				<a:midPointStop
   offset="1"
   style="stop-color:#D0CDCD;stop-opacity:0.2" />
			</linearGradient>
			<path
   fill="url(#SVGID_6_)"
   d="M25.497,29.306c0.102-0.071,0.204-0.146,0.31-0.227c0.175-0.163,0.313-0.338,0.422-0.522     c0.863-1.476-0.232-3.551-0.674-5.2c-0.054-0.187-0.104-0.375-0.15-0.564c-0.23-0.947-0.368-1.929-0.495-2.951     c-0.059-0.208-0.126-0.411-0.206-0.61c-0.262-1.946-1.898-3.73-4.151-3.979c-0.221-0.025-0.443-0.032-0.671-0.02     c-0.237,0-0.473,0.023-0.702,0.068c-0.166,0.039-0.328,0.085-0.482,0.137c-0.337,0.112-0.656,0.26-0.953,0.438"
   id="path60" />
			
				<linearGradient
   id="SVGID_7_"
   gradientUnits="userSpaceOnUse"
   x1="-582.9307"
   y1="-700.7295"
   x2="-582.9307"
   y2="-704.7146"
   gradientTransform="matrix(0.866 -0.5 0.5 0.866 875.3619 335.4684)">
				<stop
   offset="0"
   style="stop-color:#FFFFFF;stop-opacity:0"
   id="stop62" />
				<stop
   offset="1"
   style="stop-color:#FFFFFF"
   id="stop64" />
				<a:midPointStop
   offset="0"
   style="stop-color:#FFFFFF;stop-opacity:0" />
				<a:midPointStop
   offset="0.5"
   style="stop-color:#FFFFFF;stop-opacity:0" />
				<a:midPointStop
   offset="1"
   style="stop-color:#FFFFFF" />
			</linearGradient>
			<path
   fill="url(#SVGID_7_)"
   d="M24.307,17.932c-0.658-1.384-2.023-2.487-3.759-2.68c-0.22-0.025-0.442-0.032-0.67-0.019     c-0.238,0-0.474,0.023-0.702,0.068c-0.167,0.039-0.329,0.085-0.482,0.136c-0.337,0.111-0.657,0.261-0.954,0.438     c-0.304,0.168-0.59,0.37-0.856,0.606c-0.122,0.109-0.241,0.226-0.358,0.351c-0.154,0.176-0.292,0.367-0.411,0.574     c-0.125,0.189-0.229,0.386-0.318,0.589c-0.701,1.599-0.429,3.333,0.441,4.596L24.307,17.932z"
   id="path67" />
		</g>
		<g
   id="g89">
			<path
   fill="#F7F8F9"
   d="M15.797,40.617c0.088,0.204,0.193,0.399,0.319,0.59c0.12,0.206,0.257,0.398,0.409,0.575     c0.117,0.123,0.238,0.24,0.36,0.35c0.265,0.236,0.553,0.438,0.856,0.605c0.297,0.18,0.616,0.326,0.953,0.438     c0.154,0.052,0.316,0.097,0.482,0.137c0.229,0.044,0.465,0.068,0.702,0.067c0.228,0.014,0.45,0.007,0.671-0.018     c2.253-0.25,3.89-2.034,4.151-3.98c0.079-0.2,0.147-0.402,0.206-0.61c0.127-1.022,0.265-2.004,0.495-2.951     c0.046-0.189,0.097-0.378,0.15-0.565c0.439-1.648,1.537-3.725,0.674-5.199c-0.108-0.186-0.248-0.359-0.422-0.523     c-0.105-0.079-0.208-0.154-0.31-0.227c-0.112-0.051-0.229-0.102-0.35-0.154c-0.229-0.068-0.45-0.102-0.663-0.103     c-1.71-0.011-2.959,1.976-4.168,3.183c-0.134,0.141-0.271,0.278-0.414,0.412c-0.703,0.675-1.484,1.284-2.307,1.906     c-0.152,0.154-0.293,0.314-0.426,0.482C15.614,36.232,14.886,38.541,15.797,40.617z"
   id="path71" />
			
				<linearGradient
   id="SVGID_8_"
   gradientUnits="userSpaceOnUse"
   x1="877.8022"
   y1="-3096.4282"
   x2="888.5677"
   y2="-3096.3406"
   gradientTransform="matrix(-0.866 -0.5 0.5 -0.866 2335.5962 -2203.2971)">
				<stop
   offset="0"
   style="stop-color:#7A7890"
   id="stop73" />
				<stop
   offset="0.1989"
   style="stop-color:#7D7B92;stop-opacity:0.9699"
   id="stop75" />
				<stop
   offset="1"
   style="stop-color:#D0CDCD;stop-opacity:0.2"
   id="stop77" />
				<a:midPointStop
   offset="0"
   style="stop-color:#7A7890" />
				<a:midPointStop
   offset="0.5"
   style="stop-color:#7A7890" />
				<a:midPointStop
   offset="0.1989"
   style="stop-color:#7D7B92;stop-opacity:0.9699" />
				<a:midPointStop
   offset="0.5"
   style="stop-color:#7D7B92;stop-opacity:0.9699" />
				<a:midPointStop
   offset="1"
   style="stop-color:#D0CDCD;stop-opacity:0.2" />
			</linearGradient>
			<path
   fill="url(#SVGID_8_)"
   d="M25.497,29.306c-0.112-0.051-0.229-0.102-0.35-0.154c-0.229-0.068-0.45-0.102-0.663-0.103     c-1.71-0.011-2.959,1.976-4.168,3.183c-0.134,0.141-0.271,0.278-0.414,0.412c-0.703,0.675-1.484,1.284-2.307,1.906     c-0.152,0.154-0.293,0.314-0.426,0.482c-1.556,1.2-2.283,3.509-1.372,5.585c0.088,0.204,0.193,0.399,0.319,0.59     c0.12,0.206,0.257,0.398,0.409,0.575c0.117,0.123,0.238,0.24,0.36,0.35c0.265,0.236,0.553,0.438,0.856,0.605"
   id="path80" />
			
				<linearGradient
   id="SVGID_9_"
   gradientUnits="userSpaceOnUse"
   x1="884.2798"
   y1="-3099.25"
   x2="884.2798"
   y2="-3103.2346"
   gradientTransform="matrix(-0.866 -0.5 0.5 -0.866 2335.5962 -2203.2971)">
				<stop
   offset="0"
   style="stop-color:#FFFFFF;stop-opacity:0"
   id="stop82" />
				<stop
   offset="1"
   style="stop-color:#FFFFFF"
   id="stop84" />
				<a:midPointStop
   offset="0"
   style="stop-color:#FFFFFF;stop-opacity:0" />
				<a:midPointStop
   offset="0.5"
   style="stop-color:#FFFFFF;stop-opacity:0" />
				<a:midPointStop
   offset="1"
   style="stop-color:#FFFFFF" />
			</linearGradient>
			<path
   fill="url(#SVGID_9_)"
   d="M16.243,36.024c-0.871,1.262-1.143,2.996-0.442,4.595c0.088,0.204,0.194,0.399,0.319,0.59     c0.118,0.206,0.256,0.397,0.409,0.573c0.118,0.125,0.238,0.242,0.36,0.351c0.265,0.236,0.554,0.438,0.856,0.606     c0.297,0.179,0.616,0.327,0.953,0.439c0.155,0.051,0.315,0.096,0.482,0.135c0.23,0.045,0.465,0.068,0.703,0.068     c0.227,0.014,0.449,0.007,0.669-0.019c1.735-0.192,3.102-1.296,3.759-2.681L16.243,36.024z"
   id="path87" />
		</g>
		<g
   id="g109">
			<path
   fill="#F7F8F9"
   d="M40.143,32.052c0.133-0.18,0.248-0.369,0.352-0.572c0.117-0.207,0.215-0.422,0.291-0.643     c0.049-0.164,0.09-0.326,0.123-0.485c0.072-0.349,0.104-0.698,0.096-1.046c0.008-0.346-0.023-0.696-0.096-1.045     c-0.033-0.159-0.074-0.322-0.123-0.486c-0.076-0.219-0.174-0.436-0.291-0.643c-0.102-0.203-0.219-0.393-0.352-0.57     c-1.344-1.826-3.705-2.351-5.523-1.604c-0.213,0.03-0.42,0.073-0.631,0.127c-0.949,0.401-1.867,0.772-2.803,1.047     c-0.189,0.054-0.375,0.105-0.564,0.152c-1.648,0.442-3.995,0.53-4.841,2.015c-0.104,0.188-0.188,0.395-0.241,0.627     c-0.016,0.131-0.03,0.258-0.042,0.381c0.012,0.125,0.026,0.25,0.042,0.381c0.054,0.233,0.137,0.441,0.241,0.627     c0.846,1.484,3.192,1.573,4.841,2.016c0.189,0.047,0.375,0.098,0.564,0.152c0.936,0.273,1.854,0.646,2.803,1.047     c0.211,0.054,0.42,0.097,0.633,0.127C36.436,34.402,38.799,33.877,40.143,32.052z"
   id="path91" />
			
				<linearGradient
   id="SVGID_10_"
   gradientUnits="userSpaceOnUse"
   x1="2220.98"
   y1="-626.8198"
   x2="2231.7456"
   y2="-626.7322"
   gradientTransform="matrix(0 1 -1 0 -593.5151 -2198.1558)">
				<stop
   offset="0"
   style="stop-color:#7A7890"
   id="stop93" />
				<stop
   offset="0.1989"
   style="stop-color:#7D7B92;stop-opacity:0.9699"
   id="stop95" />
				<stop
   offset="1"
   style="stop-color:#D0CDCD;stop-opacity:0.2"
   id="stop97" />
				<a:midPointStop
   offset="0"
   style="stop-color:#7A7890" />
				<a:midPointStop
   offset="0.5"
   style="stop-color:#7A7890" />
				<a:midPointStop
   offset="0.1989"
   style="stop-color:#7D7B92;stop-opacity:0.9699" />
				<a:midPointStop
   offset="0.5"
   style="stop-color:#7D7B92;stop-opacity:0.9699" />
				<a:midPointStop
   offset="1"
   style="stop-color:#D0CDCD;stop-opacity:0.2" />
			</linearGradient>
			<path
   fill="url(#SVGID_10_)"
   d="M25.498,29.306c0.012,0.125,0.026,0.25,0.042,0.381c0.054,0.233,0.137,0.441,0.241,0.627     c0.846,1.484,3.192,1.573,4.841,2.016c0.189,0.047,0.375,0.098,0.564,0.152c0.936,0.273,1.854,0.646,2.803,1.047     c0.211,0.054,0.42,0.097,0.633,0.127c1.814,0.747,4.178,0.222,5.521-1.604c0.133-0.18,0.248-0.369,0.352-0.572     c0.117-0.207,0.215-0.422,0.291-0.643c0.049-0.164,0.09-0.326,0.123-0.485c0.072-0.349,0.104-0.698,0.096-1.046"
   id="path100" />
			
				<linearGradient
   id="SVGID_11_"
   gradientUnits="userSpaceOnUse"
   x1="2227.4595"
   y1="-629.6426"
   x2="2227.4595"
   y2="-633.6258"
   gradientTransform="matrix(0 1 -1 0 -593.5151 -2198.1558)">
				<stop
   offset="0"
   style="stop-color:#FFFFFF;stop-opacity:0"
   id="stop102" />
				<stop
   offset="1"
   style="stop-color:#FFFFFF"
   id="stop104" />
				<a:midPointStop
   offset="0"
   style="stop-color:#FFFFFF;stop-opacity:0" />
				<a:midPointStop
   offset="0.5"
   style="stop-color:#FFFFFF;stop-opacity:0" />
				<a:midPointStop
   offset="1"
   style="stop-color:#FFFFFF" />
			</linearGradient>
			<path
   fill="url(#SVGID_11_)"
   d="M35.942,33.962c1.529,0.123,3.166-0.508,4.201-1.914c0.133-0.179,0.25-0.368,0.352-0.572     c0.117-0.205,0.215-0.42,0.291-0.642c0.049-0.165,0.09-0.327,0.123-0.485c0.072-0.349,0.104-0.699,0.096-1.045     c0.008-0.348-0.023-0.697-0.096-1.046c-0.033-0.16-0.074-0.321-0.123-0.485c-0.076-0.221-0.174-0.438-0.291-0.643     c-0.102-0.204-0.219-0.393-0.352-0.57c-1.035-1.406-2.672-2.038-4.201-1.915V33.962z"
   id="path107" />
		</g>
	</g>
	<circle
   fill="#6B768E"
   cx="25.501"
   cy="29.306"
   r="3.622"
   id="circle113" />
	<circle
   fill="#FFFFFF"
   cx="25.501"
   cy="29.306"
   r="2.897"
   id="circle115" />
	<g
   id="g128">
		<linearGradient
   id="SVGID_12_"
   gradientUnits="userSpaceOnUse"
   x1="65.6245"
   y1="1.2173"
   x2="65.6245"
   y2="28.5503">
			<stop
   offset="0"
   style="stop-color:#096856"
   id="stop117" />
			<stop
   offset="0.5161"
   style="stop-color:#78ACA2"
   id="stop119" />
			<stop
   offset="0.9839"
   style="stop-color:#096856"
   id="stop121" />
			<a:midPointStop
   offset="0"
   style="stop-color:#096856" />
			<a:midPointStop
   offset="0.5"
   style="stop-color:#096856" />
			<a:midPointStop
   offset="0.5161"
   style="stop-color:#78ACA2" />
			<a:midPointStop
   offset="0.5"
   style="stop-color:#78ACA2" />
			<a:midPointStop
   offset="0.9839"
   style="stop-color:#096856" />
		</linearGradient>
		<rect
   x="63.77"
   y="0.5"
   fill="url(#SVGID_12_)"
   width="3.709"
   height="28.991"
   id="rect124" />
		<path
   fill="#231F20"
   d="M67.979,29.991H63.27V0h4.709V29.991z M64.27,28.991h2.709V1H64.27V28.991z"
   id="path126" />
	</g>
</g>
</svg>
