<?xml version="1.0" encoding="UTF-8" standalone="no"?>
<svg
   xmlns:a="http://ns.adobe.com/AdobeSVGViewerExtensions/3.0/"
   xmlns:dc="http://purl.org/dc/elements/1.1/"
   xmlns:cc="http://creativecommons.org/ns#"
   xmlns:rdf="http://www.w3.org/1999/02/22-rdf-syntax-ns#"
   xmlns:svg="http://www.w3.org/2000/svg"
   xmlns="http://www.w3.org/2000/svg"
   xmlns:sodipodi="http://sodipodi.sourceforge.net/DTD/sodipodi-0.dtd"
   xmlns:inkscape="http://www.inkscape.org/namespaces/inkscape"
   version="1.1"
   id="图层_1"
   x="0px"
   y="0px"
   width="67.979px"
   height="54.806px"
   viewBox="0 0 67.979 54.806"
   enable-background="new 0 0 67.979 54.806"
   xml:space="preserve"
   sodipodi:docname="排风机_27-01.svg"><metadata
   id="metadata137"><rdf:RDF><cc:Work
       rdf:about=""><dc:format>image/svg+xml</dc:format><dc:type
         rdf:resource="http://purl.org/dc/dcmitype/StillImage" /></cc:Work></rdf:RDF></metadata><defs
   id="defs135" /><sodipodi:namedview
   pagecolor="#ffffff"
   bordercolor="#666666"
   borderopacity="1"
   objecttolerance="10"
   gridtolerance="10"
   guidetolerance="10"
   inkscape:pageopacity="0"
   inkscape:pageshadow="2"
   inkscape:window-width="640"
   inkscape:window-height="480"
   id="namedview133" />
<g
   id="g130">
	<g
   id="g6">
		<path
   fill="#096856"
   d="M67.479,4.306H25.501c-13.809,0-25.001,11.193-25.001,25s11.193,25,25.001,25    c13.808,0,24.999-11.193,24.999-25c0-1.345-0.109-2.664-0.313-3.95h17.292V4.306z"
   id="path2" />
		<path
   fill="#231F20"
   d="M25.501,54.806C11.44,54.806,0,43.366,0,29.306s11.44-25.5,25.501-25.5h42.478v22.05H50.766    C50.921,27,51,28.158,51,29.306C51,43.366,39.561,54.806,25.501,54.806z M25.501,4.806C11.991,4.806,1,15.797,1,29.306    c0,13.51,10.991,24.5,24.501,24.5C39.01,53.806,50,42.815,50,29.306c0-1.289-0.104-2.592-0.307-3.872l-0.093-0.578h17.378V4.806    H25.501z"
   id="path4" />
	</g>
	<linearGradient
   id="SVGID_1_"
   gradientUnits="userSpaceOnUse"
   x1="35.7153"
   y1="-8.0645"
   x2="35.7153"
   y2="15.4117">
		<stop
   offset="0.1183"
   style="stop-color:#FFFFFF"
   id="stop8" />
		<stop
   offset="0.9839"
   style="stop-color:#FFFFFF;stop-opacity:0"
   id="stop10" />
		<a:midPointStop
   offset="0.1183"
   style="stop-color:#FFFFFF" />
		<a:midPointStop
   offset="0.5"
   style="stop-color:#FFFFFF" />
		<a:midPointStop
   offset="0.9839"
   style="stop-color:#FFFFFF;stop-opacity:0" />
	</linearGradient>
	<path
   opacity="0.5"
   fill="url(#SVGID_1_)"
   d="M67.479,16.637V4.306H25.501c-9.184,0-17.204,4.954-21.549,12.331H67.479z"
   id="path13" />
	<circle
   fill="#108958"
   cx="25.501"
   cy="29.306"
   r="23.51"
   id="circle15" />
	<linearGradient
   id="SVGID_2_"
   gradientUnits="userSpaceOnUse"
   x1="25.4995"
   y1="-7.3418"
   x2="25.4995"
   y2="25.5419">
		<stop
   offset="0.1183"
   style="stop-color:#FFFFFF"
   id="stop17" />
		<stop
   offset="0.9839"
   style="stop-color:#FFFFFF;stop-opacity:0"
   id="stop19" />
		<a:midPointStop
   offset="0.1183"
   style="stop-color:#FFFFFF" />
		<a:midPointStop
   offset="0.5"
   style="stop-color:#FFFFFF" />
		<a:midPointStop
   offset="0.9839"
   style="stop-color:#FFFFFF;stop-opacity:0" />
	</linearGradient>
	<path
   fill="url(#SVGID_2_)"
   d="M48.932,27.478C47.999,15.349,37.87,5.796,25.501,5.796c-12.37,0-22.5,9.553-23.434,21.682H48.932z"
   id="path22" />
	
		<linearGradient
   id="SVGID_3_"
   gradientUnits="userSpaceOnUse"
   x1="426.813"
   y1="-1972.4336"
   x2="426.813"
   y2="-1939.5499"
   gradientTransform="matrix(-1 0 0 -1 452.3135 -1906.4805)">
		<stop
   offset="0.1183"
   style="stop-color:#FFFFFF"
   id="stop24" />
		<stop
   offset="0.9839"
   style="stop-color:#FFFFFF;stop-opacity:0"
   id="stop26" />
		<a:midPointStop
   offset="0.1183"
   style="stop-color:#FFFFFF" />
		<a:midPointStop
   offset="0.5"
   style="stop-color:#FFFFFF" />
		<a:midPointStop
   offset="0.9839"
   style="stop-color:#FFFFFF;stop-opacity:0" />
	</linearGradient>
	<path
   opacity="0.3"
   fill="url(#SVGID_3_)"
   d="M2.067,31.134C3.002,43.263,13.132,52.815,25.5,52.815   c12.37,0,22.499-9.553,23.432-21.682H2.067z"
   id="path29" />
	<g
   id="g40">
		<linearGradient
   id="SVGID_4_"
   gradientUnits="userSpaceOnUse"
   x1="25.5015"
   y1="10.6416"
   x2="25.5015"
   y2="46.3292">
			<stop
   offset="0.0806"
   style="stop-color:#5AAC8B"
   id="stop31" />
			<stop
   offset="0.9839"
   style="stop-color:#096856"
   id="stop33" />
			<a:midPointStop
   offset="0.0806"
   style="stop-color:#5AAC8B" />
			<a:midPointStop
   offset="0.5"
   style="stop-color:#5AAC8B" />
			<a:midPointStop
   offset="0.9839"
   style="stop-color:#096856" />
		</linearGradient>
		<circle
   fill="url(#SVGID_4_)"
   cx="25.502"
   cy="29.306"
   r="19.653"
   id="circle36" />
		<path
   fill="#231F20"
   d="M25.501,49.243c-10.993,0-19.937-8.944-19.937-19.938S14.509,9.369,25.501,9.369    c10.993,0,19.937,8.943,19.937,19.937S36.495,49.243,25.501,49.243z M25.501,9.937c-10.68,0-19.369,8.688-19.369,19.369    s8.689,19.369,19.369,19.369c10.681,0,19.369-8.688,19.369-19.369S36.182,9.937,25.501,9.937z"
   id="path38" />
	</g>
	
		<radialGradient
   id="SVGID_5_"
   cx="41.4233"
   cy="35.9873"
   r="19.3804"
   gradientTransform="matrix(0.9008 0 0 0.9008 -11.8143 -3.1116)"
   gradientUnits="userSpaceOnUse">
		<stop
   offset="0.043"
   style="stop-color:#2C976C"
   id="stop42" />
		<stop
   offset="0.9839"
   style="stop-color:#004D50"
   id="stop44" />
		<a:midPointStop
   offset="0.043"
   style="stop-color:#2C976C" />
		<a:midPointStop
   offset="0.5"
   style="stop-color:#2C976C" />
		<a:midPointStop
   offset="0.9839"
   style="stop-color:#004D50" />
	</radialGradient>
	<circle
   fill="url(#SVGID_5_)"
   cx="25.5"
   cy="29.306"
   r="17.457"
   id="circle47" />
	<circle
   fill="#FFFFFF"
   cx="25.501"
   cy="29.306"
   r="2.085"
   id="circle49" />
	<g
   id="g111">
		<g
   id="g69">
			<path
   fill="#F7F8F9"
   d="M14.19,19.578c-0.204,0.089-0.399,0.194-0.59,0.319c-0.207,0.119-0.397,0.256-0.574,0.41     c-0.124,0.117-0.241,0.237-0.35,0.358c-0.237,0.266-0.438,0.555-0.606,0.858c-0.179,0.296-0.327,0.615-0.439,0.953     c-0.052,0.154-0.096,0.315-0.136,0.482c-0.045,0.229-0.068,0.464-0.068,0.702c-0.014,0.227-0.006,0.449,0.019,0.67     c0.25,2.253,2.034,3.889,3.98,4.151c0.199,0.079,0.402,0.146,0.611,0.205c1.023,0.127,2.003,0.264,2.952,0.495     c0.188,0.047,0.376,0.096,0.564,0.15c1.649,0.441,3.725,1.537,5.2,0.675c0.185-0.109,0.359-0.248,0.522-0.422     c0.079-0.105,0.155-0.208,0.227-0.309c0.051-0.113,0.104-0.23,0.155-0.352c0.07-0.229,0.102-0.449,0.103-0.663     c0.011-1.709-1.978-2.959-3.184-4.166c-0.141-0.136-0.277-0.272-0.411-0.414c-0.675-0.705-1.285-1.485-1.906-2.309     c-0.154-0.15-0.314-0.293-0.482-0.426C18.576,19.396,16.266,18.668,14.19,19.578z"
   id="path51" />
			
				<linearGradient
   id="SVGID_6_"
   gradientUnits="userSpaceOnUse"
   x1="-648.9814"
   y1="-1732.9961"
   x2="-638.2148"
   y2="-1732.9086"
   gradientTransform="matrix(0.5 -0.866 0.866 0.5 1840.7633 335.4678)">
				<stop
   offset="0"
   style="stop-color:#7A7890"
   id="stop53" />
				<stop
   offset="0.1989"
   style="stop-color:#7D7B92;stop-opacity:0.9699"
   id="stop55" />
				<stop
   offset="1"
   style="stop-color:#D0CDCD;stop-opacity:0.2"
   id="stop57" />
				<a:midPointStop
   offset="0"
   style="stop-color:#7A7890" />
				<a:midPointStop
   offset="0.5"
   style="stop-color:#7A7890" />
				<a:midPointStop
   offset="0.1989"
   style="stop-color:#7D7B92;stop-opacity:0.9699" />
				<a:midPointStop
   offset="0.5"
   style="stop-color:#7D7B92;stop-opacity:0.9699" />
				<a:midPointStop
   offset="1"
   style="stop-color:#D0CDCD;stop-opacity:0.2" />
			</linearGradient>
			<path
   fill="url(#SVGID_6_)"
   d="M25.501,29.278c0.051-0.113,0.104-0.23,0.155-0.352c0.07-0.229,0.102-0.449,0.103-0.663     c0.011-1.709-1.978-2.959-3.184-4.166c-0.141-0.136-0.277-0.272-0.411-0.414c-0.675-0.705-1.285-1.485-1.906-2.309     c-0.154-0.15-0.314-0.293-0.482-0.426c-1.2-1.554-3.51-2.281-5.585-1.371c-0.204,0.089-0.399,0.194-0.59,0.319     c-0.207,0.119-0.397,0.256-0.574,0.41c-0.124,0.117-0.241,0.237-0.35,0.358c-0.237,0.266-0.438,0.555-0.606,0.858"
   id="path60" />
			
				<linearGradient
   id="SVGID_7_"
   gradientUnits="userSpaceOnUse"
   x1="-642.502"
   y1="-1735.8188"
   x2="-642.502"
   y2="-1739.8032"
   gradientTransform="matrix(0.5 -0.866 0.866 0.5 1840.7633 335.4678)">
				<stop
   offset="0"
   style="stop-color:#FFFFFF;stop-opacity:0"
   id="stop62" />
				<stop
   offset="1"
   style="stop-color:#FFFFFF"
   id="stop64" />
				<a:midPointStop
   offset="0"
   style="stop-color:#FFFFFF;stop-opacity:0" />
				<a:midPointStop
   offset="0.5"
   style="stop-color:#FFFFFF;stop-opacity:0" />
				<a:midPointStop
   offset="1"
   style="stop-color:#FFFFFF" />
			</linearGradient>
			<path
   fill="url(#SVGID_7_)"
   d="M18.784,20.022c-1.263-0.87-2.997-1.142-4.596-0.44c-0.202,0.088-0.399,0.193-0.588,0.318     c-0.206,0.118-0.399,0.256-0.575,0.41c-0.125,0.117-0.241,0.237-0.35,0.359c-0.237,0.265-0.439,0.553-0.606,0.856     c-0.178,0.297-0.327,0.615-0.439,0.953c-0.051,0.155-0.096,0.315-0.136,0.482c-0.045,0.229-0.069,0.464-0.068,0.703     c-0.014,0.227-0.007,0.449,0.018,0.669c0.193,1.735,1.295,3.101,2.68,3.759L18.784,20.022z"
   id="path67" />
		</g>
		<g
   id="g89">
			<path
   fill="#F7F8F9"
   d="M22.757,43.923c0.18,0.133,0.368,0.25,0.571,0.352c0.206,0.119,0.422,0.217,0.643,0.293     c0.163,0.049,0.326,0.09,0.485,0.123c0.349,0.072,0.699,0.104,1.045,0.097c0.347,0.007,0.697-0.024,1.045-0.097     c0.16-0.033,0.321-0.074,0.486-0.123c0.22-0.076,0.436-0.173,0.642-0.293c0.203-0.102,0.393-0.219,0.57-0.352     c1.827-1.342,2.352-3.705,1.606-5.521c-0.031-0.213-0.073-0.422-0.128-0.631c-0.4-0.949-0.772-1.868-1.047-2.805     c-0.054-0.188-0.104-0.375-0.151-0.564c-0.442-1.647-0.53-3.994-2.017-4.84c-0.187-0.105-0.394-0.188-0.626-0.242     c-0.13-0.016-0.257-0.029-0.381-0.041c-0.124,0.012-0.25,0.025-0.381,0.041c-0.232,0.055-0.44,0.137-0.625,0.242     c-1.485,0.846-1.574,3.191-2.017,4.84c-0.046,0.189-0.098,0.377-0.152,0.564c-0.274,0.937-0.646,1.855-1.047,2.805     c-0.054,0.209-0.097,0.418-0.127,0.631C20.406,40.218,20.93,42.581,22.757,43.923z"
   id="path71" />
			
				<linearGradient
   id="SVGID_8_"
   gradientUnits="userSpaceOnUse"
   x1="1803.6401"
   y1="-2630.729"
   x2="1814.4034"
   y2="-2630.6414"
   gradientTransform="matrix(-1 0 0 -1 1835.6221 -2593.6426)">
				<stop
   offset="0"
   style="stop-color:#7A7890"
   id="stop73" />
				<stop
   offset="0.1989"
   style="stop-color:#7D7B92;stop-opacity:0.9699"
   id="stop75" />
				<stop
   offset="1"
   style="stop-color:#D0CDCD;stop-opacity:0.2"
   id="stop77" />
				<a:midPointStop
   offset="0"
   style="stop-color:#7A7890" />
				<a:midPointStop
   offset="0.5"
   style="stop-color:#7A7890" />
				<a:midPointStop
   offset="0.1989"
   style="stop-color:#7D7B92;stop-opacity:0.9699" />
				<a:midPointStop
   offset="0.5"
   style="stop-color:#7D7B92;stop-opacity:0.9699" />
				<a:midPointStop
   offset="1"
   style="stop-color:#D0CDCD;stop-opacity:0.2" />
			</linearGradient>
			<path
   fill="url(#SVGID_8_)"
   d="M25.501,29.278c-0.124,0.012-0.25,0.025-0.381,0.041c-0.232,0.055-0.44,0.137-0.625,0.242     c-1.485,0.846-1.574,3.191-2.017,4.84c-0.046,0.189-0.098,0.377-0.152,0.564c-0.274,0.937-0.646,1.855-1.047,2.805     c-0.054,0.209-0.097,0.418-0.127,0.631c-0.746,1.816-0.223,4.18,1.604,5.521c0.18,0.133,0.368,0.25,0.571,0.352     c0.206,0.119,0.422,0.217,0.643,0.293c0.163,0.049,0.326,0.09,0.485,0.123c0.349,0.072,0.699,0.104,1.045,0.097"
   id="path80" />
			
				<linearGradient
   id="SVGID_9_"
   gradientUnits="userSpaceOnUse"
   x1="1810.1177"
   y1="-2633.5513"
   x2="1810.1177"
   y2="-2637.5352"
   gradientTransform="matrix(-1 0 0 -1 1835.6221 -2593.6426)">
				<stop
   offset="0"
   style="stop-color:#FFFFFF;stop-opacity:0"
   id="stop82" />
				<stop
   offset="1"
   style="stop-color:#FFFFFF"
   id="stop84" />
				<a:midPointStop
   offset="0"
   style="stop-color:#FFFFFF;stop-opacity:0" />
				<a:midPointStop
   offset="0.5"
   style="stop-color:#FFFFFF;stop-opacity:0" />
				<a:midPointStop
   offset="1"
   style="stop-color:#FFFFFF" />
			</linearGradient>
			<path
   fill="url(#SVGID_9_)"
   d="M20.845,39.724c-0.123,1.527,0.509,3.166,1.916,4.199c0.179,0.133,0.367,0.25,0.571,0.352     c0.207,0.12,0.42,0.217,0.642,0.293c0.165,0.049,0.326,0.09,0.487,0.123c0.347,0.072,0.697,0.104,1.044,0.097     c0.347,0.007,0.698-0.024,1.045-0.097c0.159-0.033,0.322-0.074,0.486-0.123c0.221-0.076,0.435-0.174,0.642-0.293     c0.203-0.102,0.392-0.219,0.57-0.351c1.406-1.034,2.039-2.672,1.915-4.2H20.845z"
   id="path87" />
		</g>
		<g
   id="g109">
			<path
   fill="#F7F8F9"
   d="M39.557,24.332c0.025-0.22,0.031-0.443,0.02-0.67c0-0.239-0.023-0.474-0.068-0.702     c-0.039-0.167-0.086-0.328-0.136-0.482c-0.113-0.338-0.261-0.657-0.44-0.953c-0.167-0.304-0.369-0.593-0.605-0.858     c-0.109-0.121-0.225-0.241-0.35-0.358c-0.176-0.153-0.367-0.291-0.574-0.41c-0.189-0.125-0.386-0.23-0.59-0.319     c-2.076-0.91-4.385-0.183-5.586,1.372c-0.168,0.133-0.328,0.274-0.482,0.425c-0.621,0.823-1.23,1.604-1.905,2.309     c-0.135,0.142-0.272,0.278-0.412,0.414c-1.207,1.207-3.195,2.457-3.185,4.166c0.003,0.214,0.035,0.435,0.104,0.663     c0.051,0.121,0.103,0.238,0.154,0.352c0.073,0.101,0.147,0.203,0.228,0.309c0.163,0.175,0.338,0.313,0.522,0.422     c1.476,0.863,3.551-0.233,5.201-0.675c0.187-0.054,0.375-0.104,0.564-0.15c0.946-0.231,1.928-0.368,2.951-0.495     c0.208-0.059,0.411-0.126,0.609-0.205C37.523,28.222,39.308,26.585,39.557,24.332z"
   id="path91" />
			
				<linearGradient
   id="SVGID_10_"
   gradientUnits="userSpaceOnUse"
   x1="1354.7329"
   y1="-57.3418"
   x2="1365.4962"
   y2="-57.2542"
   gradientTransform="matrix(0.5 0.866 -0.866 0.5 -698.0021 -1124.7656)">
				<stop
   offset="0"
   style="stop-color:#7A7890"
   id="stop93" />
				<stop
   offset="0.1989"
   style="stop-color:#7D7B92;stop-opacity:0.9699"
   id="stop95" />
				<stop
   offset="1"
   style="stop-color:#D0CDCD;stop-opacity:0.2"
   id="stop97" />
				<a:midPointStop
   offset="0"
   style="stop-color:#7A7890" />
				<a:midPointStop
   offset="0.5"
   style="stop-color:#7A7890" />
				<a:midPointStop
   offset="0.1989"
   style="stop-color:#7D7B92;stop-opacity:0.9699" />
				<a:midPointStop
   offset="0.5"
   style="stop-color:#7D7B92;stop-opacity:0.9699" />
				<a:midPointStop
   offset="1"
   style="stop-color:#D0CDCD;stop-opacity:0.2" />
			</linearGradient>
			<path
   fill="url(#SVGID_10_)"
   d="M25.501,29.278c0.073,0.101,0.147,0.203,0.228,0.309c0.163,0.175,0.338,0.313,0.522,0.422     c1.476,0.863,3.551-0.233,5.201-0.675c0.187-0.054,0.375-0.104,0.564-0.15c0.946-0.231,1.928-0.368,2.951-0.495     c0.208-0.059,0.411-0.126,0.609-0.205c1.946-0.262,3.731-1.898,3.98-4.151c0.025-0.22,0.031-0.443,0.02-0.67     c0-0.239-0.023-0.474-0.068-0.702c-0.039-0.167-0.086-0.328-0.136-0.482c-0.113-0.338-0.261-0.657-0.44-0.953"
   id="path100" />
			
				<linearGradient
   id="SVGID_11_"
   gradientUnits="userSpaceOnUse"
   x1="1361.2095"
   y1="-60.166"
   x2="1361.2095"
   y2="-64.15"
   gradientTransform="matrix(0.5 0.866 -0.866 0.5 -698.0021 -1124.7656)">
				<stop
   offset="0"
   style="stop-color:#FFFFFF;stop-opacity:0"
   id="stop102" />
				<stop
   offset="1"
   style="stop-color:#FFFFFF"
   id="stop104" />
				<a:midPointStop
   offset="0"
   style="stop-color:#FFFFFF;stop-opacity:0" />
				<a:midPointStop
   offset="0.5"
   style="stop-color:#FFFFFF;stop-opacity:0" />
				<a:midPointStop
   offset="1"
   style="stop-color:#FFFFFF" />
			</linearGradient>
			<path
   fill="url(#SVGID_11_)"
   d="M36.876,28.087c1.385-0.658,2.487-2.023,2.68-3.759c0.024-0.22,0.03-0.442,0.019-0.669     c0-0.238-0.023-0.474-0.068-0.703c-0.039-0.166-0.085-0.327-0.135-0.481c-0.113-0.338-0.262-0.656-0.439-0.954     c-0.168-0.303-0.371-0.591-0.607-0.857c-0.108-0.121-0.225-0.241-0.35-0.358c-0.176-0.153-0.367-0.291-0.574-0.41     c-0.189-0.125-0.386-0.23-0.59-0.318c-1.598-0.701-3.332-0.429-4.594,0.44L36.876,28.087z"
   id="path107" />
		</g>
	</g>
	<circle
   fill="#6B768E"
   cx="25.505"
   cy="29.278"
   r="3.62"
   id="circle113" />
	<circle
   fill="#FFFFFF"
   cx="25.505"
   cy="29.278"
   r="2.896"
   id="circle115" />
	<g
   id="g128">
		<linearGradient
   id="SVGID_12_"
   gradientUnits="userSpaceOnUse"
   x1="65.6255"
   y1="1.2173"
   x2="65.6255"
   y2="28.5503">
			<stop
   offset="0"
   style="stop-color:#096856"
   id="stop117" />
			<stop
   offset="0.5161"
   style="stop-color:#78ACA2"
   id="stop119" />
			<stop
   offset="0.9839"
   style="stop-color:#096856"
   id="stop121" />
			<a:midPointStop
   offset="0"
   style="stop-color:#096856" />
			<a:midPointStop
   offset="0.5"
   style="stop-color:#096856" />
			<a:midPointStop
   offset="0.5161"
   style="stop-color:#78ACA2" />
			<a:midPointStop
   offset="0.5"
   style="stop-color:#78ACA2" />
			<a:midPointStop
   offset="0.9839"
   style="stop-color:#096856" />
		</linearGradient>
		<rect
   x="63.771"
   y="0.5"
   fill="url(#SVGID_12_)"
   width="3.708"
   height="28.991"
   id="rect124" />
		<path
   fill="#231F20"
   d="M67.979,29.991h-4.708V0h4.708V29.991z M64.271,28.991h2.708V1h-2.708V28.991z"
   id="path126" />
	</g>
</g>
</svg>
