<?xml version="1.0" encoding="UTF-8" standalone="no"?>
<svg
   xmlns:a="http://ns.adobe.com/AdobeSVGViewerExtensions/3.0/"
   xmlns:dc="http://purl.org/dc/elements/1.1/"
   xmlns:cc="http://creativecommons.org/ns#"
   xmlns:rdf="http://www.w3.org/1999/02/22-rdf-syntax-ns#"
   xmlns:svg="http://www.w3.org/2000/svg"
   xmlns="http://www.w3.org/2000/svg"
   xmlns:sodipodi="http://sodipodi.sourceforge.net/DTD/sodipodi-0.dtd"
   xmlns:inkscape="http://www.inkscape.org/namespaces/inkscape"
   version="1.1"
   id="图层_1"
   x="0px"
   y="0px"
   width="67.979px"
   height="64.68px"
   viewBox="0 0 67.979 64.68"
   enable-background="new 0 0 67.979 64.68"
   xml:space="preserve"
   sodipodi:docname="排风机_35-01.svg"><metadata
   id="metadata101"><rdf:RDF><cc:Work
       rdf:about=""><dc:format>image/svg+xml</dc:format><dc:type
         rdf:resource="http://purl.org/dc/dcmitype/StillImage" /></cc:Work></rdf:RDF></metadata><defs
   id="defs99" /><sodipodi:namedview
   pagecolor="#ffffff"
   bordercolor="#666666"
   borderopacity="1"
   objecttolerance="10"
   gridtolerance="10"
   guidetolerance="10"
   inkscape:pageopacity="0"
   inkscape:pageshadow="2"
   inkscape:window-width="640"
   inkscape:window-height="480"
   id="namedview97" />
<g
   id="g94">
	<circle
   fill="#FFFFFF"
   cx="25.5"
   cy="29.306"
   r="2.085"
   id="circle2" />
	<g
   id="g79">
		<g
   id="g8">
			<polygon
   fill="#096856"
   points="44.937,61.737 37.548,32.226 13.517,32.226 6.128,61.737 0.847,61.737 0.847,64.18 5.517,64.18      10.187,64.18 10.251,64.18 11.505,59.969 39.56,59.969 40.816,64.18 45.548,64.18 50.156,64.18 50.156,61.737    "
   id="polygon4" />
			<path
   fill="#231F20"
   d="M50.656,64.68H40.443l-1.256-4.211H11.878l-1.254,4.211H0.347v-3.443h5.391l7.389-29.511h24.812     l7.389,29.511h5.329V64.68z M41.188,63.68h8.468v-1.443h-5.109l-7.389-29.511H13.907L6.518,62.237H1.347v1.443h8.531l1.254-4.211     h28.8L41.188,63.68z"
   id="path6" />
		</g>
		<g
   id="g14">
			<path
   fill="#096856"
   d="M67.478,4.306H25.501C11.693,4.306,0.5,15.5,0.5,29.307c0,13.806,11.192,24.999,25.001,24.999     c13.807,0,24.998-11.193,24.998-24.999c0-1.346-0.109-2.664-0.313-3.951h17.291V4.306z"
   id="path10" />
			<path
   fill="#231F20"
   d="M25.501,54.806C11.44,54.806,0,43.367,0,29.307C0,15.246,11.44,3.806,25.501,3.806h42.477v22.05H50.765     C50.921,27.004,51,28.163,51,29.307C51,43.367,39.561,54.806,25.501,54.806z M25.501,4.806C11.992,4.806,1,15.797,1,29.307     c0,13.509,10.991,24.499,24.501,24.499C39.009,53.806,50,42.816,50,29.307c0-1.284-0.104-2.587-0.307-3.873l-0.092-0.578h17.377     V4.806H25.501z"
   id="path12" />
		</g>
		<linearGradient
   id="SVGID_1_"
   gradientUnits="userSpaceOnUse"
   x1="35.7153"
   y1="-8.064"
   x2="35.7153"
   y2="15.4121">
			<stop
   offset="0.1183"
   style="stop-color:#FFFFFF"
   id="stop16" />
			<stop
   offset="0.9839"
   style="stop-color:#FFFFFF;stop-opacity:0"
   id="stop18" />
			<a:midPointStop
   offset="0.1183"
   style="stop-color:#FFFFFF" />
			<a:midPointStop
   offset="0.5"
   style="stop-color:#FFFFFF" />
			<a:midPointStop
   offset="0.9839"
   style="stop-color:#FFFFFF;stop-opacity:0" />
		</linearGradient>
		<path
   opacity="0.5"
   fill="url(#SVGID_1_)"
   d="M67.478,16.637V4.306H25.501c-9.184,0-17.204,4.954-21.55,12.331H67.478z"
   id="path21" />
		<circle
   fill="#108958"
   cx="25.501"
   cy="29.306"
   r="23.51"
   id="circle23" />
		<linearGradient
   id="SVGID_2_"
   gradientUnits="userSpaceOnUse"
   x1="25.499"
   y1="-7.3413"
   x2="25.499"
   y2="25.5424">
			<stop
   offset="0.1183"
   style="stop-color:#FFFFFF"
   id="stop25" />
			<stop
   offset="0.9839"
   style="stop-color:#FFFFFF;stop-opacity:0"
   id="stop27" />
			<a:midPointStop
   offset="0.1183"
   style="stop-color:#FFFFFF" />
			<a:midPointStop
   offset="0.5"
   style="stop-color:#FFFFFF" />
			<a:midPointStop
   offset="0.9839"
   style="stop-color:#FFFFFF;stop-opacity:0" />
		</linearGradient>
		<path
   fill="url(#SVGID_2_)"
   d="M48.931,27.478C47.998,15.349,37.869,5.796,25.501,5.796c-12.37,0-22.499,9.553-23.435,21.682    H48.931z"
   id="path30" />
		
			<linearGradient
   id="SVGID_3_"
   gradientUnits="userSpaceOnUse"
   x1="426.8149"
   y1="-1962.561"
   x2="426.8149"
   y2="-1929.6774"
   gradientTransform="matrix(-1 0 0 -1 452.3135 -1896.6064)">
			<stop
   offset="0.1183"
   style="stop-color:#FFFFFF"
   id="stop32" />
			<stop
   offset="0.9839"
   style="stop-color:#FFFFFF;stop-opacity:0"
   id="stop34" />
			<a:midPointStop
   offset="0.1183"
   style="stop-color:#FFFFFF" />
			<a:midPointStop
   offset="0.5"
   style="stop-color:#FFFFFF" />
			<a:midPointStop
   offset="0.9839"
   style="stop-color:#FFFFFF;stop-opacity:0" />
		</linearGradient>
		<path
   opacity="0.3"
   fill="url(#SVGID_3_)"
   d="M2.067,31.135C3.002,43.264,13.131,52.817,25.5,52.817    c12.369,0,22.498-9.553,23.432-21.682H2.067z"
   id="path37" />
		<g
   id="g48">
			<linearGradient
   id="SVGID_4_"
   gradientUnits="userSpaceOnUse"
   x1="25.501"
   y1="10.6421"
   x2="25.501"
   y2="46.3297">
				<stop
   offset="0.0806"
   style="stop-color:#5AAC8B"
   id="stop39" />
				<stop
   offset="0.9839"
   style="stop-color:#096856"
   id="stop41" />
				<a:midPointStop
   offset="0.0806"
   style="stop-color:#5AAC8B" />
				<a:midPointStop
   offset="0.5"
   style="stop-color:#5AAC8B" />
				<a:midPointStop
   offset="0.9839"
   style="stop-color:#096856" />
			</linearGradient>
			<circle
   fill="url(#SVGID_4_)"
   cx="25.501"
   cy="29.306"
   r="19.653"
   id="circle44" />
			<path
   fill="#231F20"
   d="M25.501,49.244c-10.993,0-19.938-8.944-19.938-19.938S14.508,9.369,25.501,9.369     c10.992,0,19.937,8.944,19.937,19.938S36.494,49.244,25.501,49.244z M25.501,9.936c-10.681,0-19.37,8.689-19.37,19.37     s8.689,19.369,19.37,19.369c10.68,0,19.369-8.688,19.369-19.369S36.181,9.936,25.501,9.936z"
   id="path46" />
		</g>
		
			<radialGradient
   id="SVGID_5_"
   cx="41.4233"
   cy="35.4438"
   r="19.3799"
   gradientTransform="matrix(0.9008 0 0 0.9008 -11.8143 -2.6218)"
   gradientUnits="userSpaceOnUse">
			<stop
   offset="0.043"
   style="stop-color:#2C976C"
   id="stop50" />
			<stop
   offset="0.9839"
   style="stop-color:#004D50"
   id="stop52" />
			<a:midPointStop
   offset="0.043"
   style="stop-color:#2C976C" />
			<a:midPointStop
   offset="0.5"
   style="stop-color:#2C976C" />
			<a:midPointStop
   offset="0.9839"
   style="stop-color:#004D50" />
		</radialGradient>
		<circle
   fill="url(#SVGID_5_)"
   cx="25.5"
   cy="29.306"
   r="17.457"
   id="circle55" />
		<g
   id="g77">
			<circle
   fill="#E5E5E5"
   cx="25.5"
   cy="29.306"
   r="16"
   id="circle57" />
			<path
   fill="#1B8E99"
   d="M17.773,17.805c0,0,3.184-2.256,6.631-2.236c0.291,0.504,4.693,6.466,1.131,13.719     c-0.514-0.139-1.662-1.234-3.447-3.991C20.774,23.264,18.902,19.821,17.773,17.805z"
   id="path59" />
			<path
   fill="#1B8E99"
   d="M11.71,30.267c0,0-0.362-3.885,1.379-6.86c0.581,0,7.945-0.832,12.445,5.881     c-0.377,0.376-1.9,0.821-5.181,0.988C17.938,30.398,14.019,30.298,11.71,30.267z"
   id="path61" />
			<path
   fill="#1B8E99"
   d="M19.47,41.749c0,0-3.546-1.629-5.251-4.624c0.29-0.503,3.253-7.297,11.315-7.837     c0.137,0.514-0.238,2.056-1.736,4.979C22.697,36.421,20.652,39.765,19.47,41.749z"
   id="path63" />
			<path
   fill="#1B8E99"
   d="M33.292,40.769c0,0-3.182,2.257-6.629,2.236c-0.291-0.503-4.693-6.466-1.129-13.718     c0.512,0.138,1.66,1.233,3.443,3.991C30.294,35.31,32.166,38.753,33.292,40.769z"
   id="path65" />
			<path
   fill="#1B8E99"
   d="M39.357,28.308c0,0,0.363,3.884-1.379,6.86c-0.58-0.001-7.945,0.831-12.443-5.881     c0.375-0.376,1.898-0.822,5.18-0.988C33.13,28.176,37.048,28.277,39.357,28.308z"
   id="path67" />
			<path
   fill="#1B8E99"
   d="M31.597,16.827c0,0,3.547,1.627,5.252,4.623c-0.291,0.504-3.254,7.298-11.314,7.838     c-0.139-0.514,0.236-2.056,1.732-4.979C28.369,22.154,30.416,18.81,31.597,16.827z"
   id="path69" />
			<g
   id="g75">
				<circle
   fill="#FFFFFF"
   cx="25.5"
   cy="29.307"
   r="5.518"
   id="circle71" />
				<circle
   fill="#1B8E99"
   cx="25.5"
   cy="29.307"
   r="3.487"
   id="circle73" />
			</g>
		</g>
	</g>
	<g
   id="g92">
		<linearGradient
   id="SVGID_6_"
   gradientUnits="userSpaceOnUse"
   x1="65.6245"
   y1="1.2178"
   x2="65.6245"
   y2="28.5503">
			<stop
   offset="0"
   style="stop-color:#096856"
   id="stop81" />
			<stop
   offset="0.5161"
   style="stop-color:#78ACA2"
   id="stop83" />
			<stop
   offset="0.9839"
   style="stop-color:#096856"
   id="stop85" />
			<a:midPointStop
   offset="0"
   style="stop-color:#096856" />
			<a:midPointStop
   offset="0.5"
   style="stop-color:#096856" />
			<a:midPointStop
   offset="0.5161"
   style="stop-color:#78ACA2" />
			<a:midPointStop
   offset="0.5"
   style="stop-color:#78ACA2" />
			<a:midPointStop
   offset="0.9839"
   style="stop-color:#096856" />
		</linearGradient>
		<rect
   x="63.771"
   y="0.5"
   fill="url(#SVGID_6_)"
   width="3.707"
   height="28.991"
   id="rect88" />
		<path
   fill="#231F20"
   d="M67.978,29.992h-4.707V0h4.707V29.992z M64.271,28.992h2.707V1h-2.707V28.992z"
   id="path90" />
	</g>
</g>
</svg>
