<?xml version="1.0" encoding="UTF-8" standalone="no"?>
<svg
   xmlns:a="http://ns.adobe.com/AdobeSVGViewerExtensions/3.0/"
   xmlns:dc="http://purl.org/dc/elements/1.1/"
   xmlns:cc="http://creativecommons.org/ns#"
   xmlns:rdf="http://www.w3.org/1999/02/22-rdf-syntax-ns#"
   xmlns:svg="http://www.w3.org/2000/svg"
   xmlns="http://www.w3.org/2000/svg"
   xmlns:sodipodi="http://sodipodi.sourceforge.net/DTD/sodipodi-0.dtd"
   xmlns:inkscape="http://www.inkscape.org/namespaces/inkscape"
   version="1.1"
   id="图层_1"
   x="0px"
   y="0px"
   width="54.807px"
   height="77.96px"
   viewBox="0 0 54.807 77.96"
   enable-background="new 0 0 54.807 77.96"
   xml:space="preserve"
   sodipodi:docname="排风机_39-01.svg"><metadata
   id="metadata101"><rdf:RDF><cc:Work
       rdf:about=""><dc:format>image/svg+xml</dc:format><dc:type
         rdf:resource="http://purl.org/dc/dcmitype/StillImage" /></cc:Work></rdf:RDF></metadata><defs
   id="defs99" /><sodipodi:namedview
   pagecolor="#ffffff"
   bordercolor="#666666"
   borderopacity="1"
   objecttolerance="10"
   gridtolerance="10"
   guidetolerance="10"
   inkscape:pageopacity="0"
   inkscape:pageshadow="2"
   inkscape:window-width="640"
   inkscape:window-height="480"
   id="namedview97" />
<g
   id="g94">
	<g
   id="g6">
		<polygon
   fill="#096856"
   points="48.69,74.955 41.301,45.444 17.27,45.444 9.881,74.955 4.6,74.955 4.6,77.398 9.27,77.398     13.94,77.398 14.004,77.398 15.258,73.188 43.313,73.188 44.569,77.398 49.301,77.398 53.909,77.398 53.909,74.955   "
   id="polygon2" />
		<path
   fill="#231F20"
   d="M54.409,77.898H44.196l-1.256-4.211H15.631l-1.254,4.211H4.1v-3.443h5.391l7.389-29.511h24.813    l7.389,29.511h5.328V77.898z M44.942,76.898h8.467v-1.443h-5.109l-7.389-29.511h-23.25l-7.389,29.511H5.1v1.443h8.531l1.254-4.211    h28.801L44.942,76.898z"
   id="path4" />
	</g>
	<g
   id="g92">
		<g
   id="g12">
			<path
   fill="#096856"
   d="M4.307,0.562v41.978c0,13.809,11.193,25,25,25s25-11.191,25-25c0-13.808-11.193-24.999-25-24.999     c-1.346,0-2.664,0.109-3.951,0.313V0.562H4.307z"
   id="path8" />
			<path
   fill="#231F20"
   d="M29.307,68.039c-14.061,0-25.5-11.439-25.5-25.5V0.062h22.049v17.213     c1.148-0.156,2.307-0.234,3.451-0.234c14.061,0,25.5,11.438,25.5,25.499S43.368,68.039,29.307,68.039z M4.807,1.062v41.478     c0,13.51,10.99,24.5,24.5,24.5s24.5-10.99,24.5-24.5c0-13.509-10.99-24.499-24.5-24.499c-1.285,0-2.588,0.104-3.873,0.307     l-0.578,0.092V1.062H4.807z"
   id="path10" />
		</g>
		
			<linearGradient
   id="SVGID_1_"
   gradientUnits="userSpaceOnUse"
   x1="-515.0835"
   y1="-2544.0469"
   x2="-515.0835"
   y2="-2520.5725"
   gradientTransform="matrix(4.489659e-011 -1 1 4.489659e-011 2535.9854 -482.7583)">
			<stop
   offset="0.1183"
   style="stop-color:#FFFFFF"
   id="stop14" />
			<stop
   offset="0.9839"
   style="stop-color:#FFFFFF;stop-opacity:0"
   id="stop16" />
			<a:midPointStop
   offset="0.1183"
   style="stop-color:#FFFFFF" />
			<a:midPointStop
   offset="0.5"
   style="stop-color:#FFFFFF" />
			<a:midPointStop
   offset="0.9839"
   style="stop-color:#FFFFFF;stop-opacity:0" />
		</linearGradient>
		<path
   opacity="0.5"
   fill="url(#SVGID_1_)"
   d="M16.637,0.562H4.307v41.978c0,9.184,4.953,17.203,12.33,21.549V0.562z"
   id="path19" />
		<circle
   fill="#108958"
   cx="29.307"
   cy="42.539"
   r="23.51"
   id="circle21" />
		
			<linearGradient
   id="SVGID_2_"
   gradientUnits="userSpaceOnUse"
   x1="-525.2993"
   y1="-2543.3271"
   x2="-525.2993"
   y2="-2510.4434"
   gradientTransform="matrix(4.489659e-011 -1 1 4.489659e-011 2535.9854 -482.7583)">
			<stop
   offset="0.1183"
   style="stop-color:#FFFFFF"
   id="stop23" />
			<stop
   offset="0.9839"
   style="stop-color:#FFFFFF;stop-opacity:0"
   id="stop25" />
			<a:midPointStop
   offset="0.1183"
   style="stop-color:#FFFFFF" />
			<a:midPointStop
   offset="0.5"
   style="stop-color:#FFFFFF" />
			<a:midPointStop
   offset="0.9839"
   style="stop-color:#FFFFFF;stop-opacity:0" />
		</linearGradient>
		<path
   fill="url(#SVGID_2_)"
   d="M27.477,19.108C15.348,20.042,5.795,30.171,5.795,42.539c0,12.369,9.553,22.498,21.682,23.434    V19.108z"
   id="path28" />
		
			<linearGradient
   id="SVGID_3_"
   gradientUnits="userSpaceOnUse"
   x1="964.4399"
   y1="586.7041"
   x2="964.4399"
   y2="619.5878"
   gradientTransform="matrix(-4.489659e-011 1 -1 -4.489659e-011 652.6587 -921.8999)">
			<stop
   offset="0.1183"
   style="stop-color:#FFFFFF"
   id="stop30" />
			<stop
   offset="0.9839"
   style="stop-color:#FFFFFF;stop-opacity:0"
   id="stop32" />
			<a:midPointStop
   offset="0.1183"
   style="stop-color:#FFFFFF" />
			<a:midPointStop
   offset="0.5"
   style="stop-color:#FFFFFF" />
			<a:midPointStop
   offset="0.9839"
   style="stop-color:#FFFFFF;stop-opacity:0" />
		</linearGradient>
		<path
   opacity="0.3"
   fill="url(#SVGID_3_)"
   d="M31.135,65.973c12.129-0.936,21.682-11.064,21.682-23.433    c0-12.369-9.553-22.498-21.682-23.432V65.973z"
   id="path35" />
		<g
   id="g46">
			
				<linearGradient
   id="SVGID_4_"
   gradientUnits="userSpaceOnUse"
   x1="-525.2974"
   y1="-2525.3423"
   x2="-525.2974"
   y2="-2489.6553"
   gradientTransform="matrix(4.489659e-011 -1 1 4.489659e-011 2535.9849 -482.7583)">
				<stop
   offset="0.0806"
   style="stop-color:#5AAC8B"
   id="stop37" />
				<stop
   offset="0.9839"
   style="stop-color:#096856"
   id="stop39" />
				<a:midPointStop
   offset="0.0806"
   style="stop-color:#5AAC8B" />
				<a:midPointStop
   offset="0.5"
   style="stop-color:#5AAC8B" />
				<a:midPointStop
   offset="0.9839"
   style="stop-color:#096856" />
			</linearGradient>
			<circle
   fill="url(#SVGID_4_)"
   cx="29.307"
   cy="42.539"
   r="19.653"
   id="circle42" />
			<path
   fill="#231F20"
   d="M29.307,62.476c-10.994,0-19.938-8.944-19.938-19.937c0-10.993,8.943-19.938,19.938-19.938     c10.992,0,19.936,8.944,19.936,19.938C49.243,53.531,40.299,62.476,29.307,62.476z M29.307,23.169     c-10.682,0-19.371,8.689-19.371,19.37c0,10.68,8.689,19.369,19.371,19.369c10.68,0,19.369-8.689,19.369-19.369     C48.676,31.858,39.987,23.169,29.307,23.169z"
   id="path44" />
		</g>
		
			<radialGradient
   id="SVGID_5_"
   cx="-569.3052"
   cy="-2780.5459"
   r="19.3796"
   gradientTransform="matrix(4.044285e-011 -0.9008 0.9008 4.044285e-011 2534.022 -470.2907)"
   gradientUnits="userSpaceOnUse">
			<stop
   offset="0.043"
   style="stop-color:#2C976C"
   id="stop48" />
			<stop
   offset="0.9839"
   style="stop-color:#004D50"
   id="stop50" />
			<a:midPointStop
   offset="0.043"
   style="stop-color:#2C976C" />
			<a:midPointStop
   offset="0.5"
   style="stop-color:#2C976C" />
			<a:midPointStop
   offset="0.9839"
   style="stop-color:#004D50" />
		</radialGradient>
		<circle
   fill="url(#SVGID_5_)"
   cx="29.307"
   cy="42.54"
   r="17.457"
   id="circle53" />
		<circle
   fill="#FFFFFF"
   cx="29.307"
   cy="42.539"
   r="2.084"
   id="circle55" />
		<g
   id="g68">
			
				<linearGradient
   id="SVGID_6_"
   gradientUnits="userSpaceOnUse"
   x1="-485.1743"
   y1="-2534.7666"
   x2="-485.1743"
   y2="-2507.4331"
   gradientTransform="matrix(4.489659e-011 -1 1 4.489659e-011 2535.9849 -482.7583)">
				<stop
   offset="0"
   style="stop-color:#096856"
   id="stop57" />
				<stop
   offset="0.5161"
   style="stop-color:#78ACA2"
   id="stop59" />
				<stop
   offset="0.9839"
   style="stop-color:#096856"
   id="stop61" />
				<a:midPointStop
   offset="0"
   style="stop-color:#096856" />
				<a:midPointStop
   offset="0.5"
   style="stop-color:#096856" />
				<a:midPointStop
   offset="0.5161"
   style="stop-color:#78ACA2" />
				<a:midPointStop
   offset="0.5"
   style="stop-color:#78ACA2" />
				<a:midPointStop
   offset="0.9839"
   style="stop-color:#096856" />
			</linearGradient>
			<rect
   x="0.5"
   y="0.562"
   fill="url(#SVGID_6_)"
   width="28.992"
   height="3.708"
   id="rect64" />
			<path
   fill="#231F20"
   d="M29.993,4.77H0V0.062h29.992V4.77z M1,3.77h27.992V1.062H1V3.77z"
   id="path66" />
		</g>
		<g
   id="g90">
			<circle
   fill="#E5E5E5"
   cx="29.307"
   cy="42.54"
   r="16"
   id="circle70" />
			<path
   fill="#1B8E99"
   d="M17.805,50.268c0,0-2.256-3.184-2.236-6.633c0.504-0.289,6.467-4.692,13.719-1.129     c-0.139,0.514-1.234,1.662-3.992,3.445C23.264,47.266,19.821,49.139,17.805,50.268z"
   id="path72" />
			<path
   fill="#1B8E99"
   d="M30.266,56.33c0,0-3.885,0.361-6.859-1.379c0-0.582-0.832-7.945,5.881-12.445     c0.375,0.377,0.822,1.898,0.988,5.18C30.399,50.102,30.297,54.021,30.266,56.33z"
   id="path74" />
			<path
   fill="#1B8E99"
   d="M41.749,48.57c0,0-1.629,3.545-4.623,5.25c-0.504-0.289-7.299-3.252-7.838-11.314     c0.514-0.137,2.055,0.238,4.979,1.734C36.42,45.342,39.764,47.389,41.749,48.57z"
   id="path76" />
			<path
   fill="#1B8E99"
   d="M40.768,34.747c0,0,2.258,3.182,2.236,6.63c-0.502,0.29-6.465,4.693-13.717,1.129     c0.137-0.513,1.234-1.66,3.99-3.444C35.311,37.746,38.754,35.874,40.768,34.747z"
   id="path78" />
			<path
   fill="#1B8E99"
   d="M28.307,28.684c0,0,3.885-0.363,6.861,1.379c0,0.58,0.832,7.945-5.881,12.443     c-0.375-0.375-0.822-1.899-0.988-5.18C28.176,34.91,28.276,30.992,28.307,28.684z"
   id="path80" />
			<path
   fill="#1B8E99"
   d="M16.827,36.443c0,0,1.627-3.547,4.623-5.252c0.504,0.291,7.299,3.253,7.838,11.314     c-0.514,0.138-2.057-0.237-4.98-1.733C22.153,39.671,18.809,37.624,16.827,36.443z"
   id="path82" />
			<g
   id="g88">
				<circle
   fill="#FFFFFF"
   cx="29.307"
   cy="42.54"
   r="5.518"
   id="circle84" />
				<circle
   fill="#1B8E99"
   cx="29.306"
   cy="42.54"
   r="3.486"
   id="circle86" />
			</g>
		</g>
	</g>
</g>
</svg>
