<?xml version="1.0" encoding="UTF-8" standalone="no"?>
<svg
   xmlns:a="http://ns.adobe.com/AdobeSVGViewerExtensions/3.0/"
   xmlns:dc="http://purl.org/dc/elements/1.1/"
   xmlns:cc="http://creativecommons.org/ns#"
   xmlns:rdf="http://www.w3.org/1999/02/22-rdf-syntax-ns#"
   xmlns:svg="http://www.w3.org/2000/svg"
   xmlns="http://www.w3.org/2000/svg"
   xmlns:sodipodi="http://sodipodi.sourceforge.net/DTD/sodipodi-0.dtd"
   xmlns:inkscape="http://www.inkscape.org/namespaces/inkscape"
   version="1.1"
   id="图层_1"
   x="0px"
   y="0px"
   width="65px"
   height="65px"
   viewBox="0 0 65 65"
   enable-background="new 0 0 65 65"
   xml:space="preserve"
   sodipodi:docname="排风机_04-01.svg"><metadata
   id="metadata114"><rdf:RDF><cc:Work
       rdf:about=""><dc:format>image/svg+xml</dc:format><dc:type
         rdf:resource="http://purl.org/dc/dcmitype/StillImage" /></cc:Work></rdf:RDF></metadata><defs
   id="defs112" /><sodipodi:namedview
   pagecolor="#ffffff"
   bordercolor="#666666"
   borderopacity="1"
   objecttolerance="10"
   gridtolerance="10"
   guidetolerance="10"
   inkscape:pageopacity="0"
   inkscape:pageshadow="2"
   inkscape:window-width="640"
   inkscape:window-height="480"
   id="namedview110" />
<g
   id="g107">
	<path
   fill="#7F7F7F"
   d="M65,61.546C65,63.453,63.454,65,61.546,65H3.455C1.547,65,0,63.453,0,61.546V3.455C0,1.547,1.547,0,3.455,0   h58.091C63.454,0,65,1.547,65,3.455V61.546z"
   id="path2" />
	<linearGradient
   id="SVGID_1_"
   gradientUnits="userSpaceOnUse"
   x1="5.4258"
   y1="4.2339"
   x2="57.7416"
   y2="58.8532">
		<stop
   offset="0"
   style="stop-color:#EFECE7"
   id="stop4" />
		<stop
   offset="1"
   style="stop-color:#AFADB2"
   id="stop6" />
		<a:midPointStop
   offset="0"
   style="stop-color:#EFECE7" />
		<a:midPointStop
   offset="0.5"
   style="stop-color:#EFECE7" />
		<a:midPointStop
   offset="1"
   style="stop-color:#AFADB2" />
	</linearGradient>
	<path
   fill="url(#SVGID_1_)"
   d="M62.183,59.027c0,1.742-1.412,3.156-3.155,3.156H5.974c-1.743,0-3.156-1.414-3.156-3.156V5.974   c0-1.743,1.413-3.156,3.156-3.156h53.054c1.743,0,3.155,1.413,3.155,3.156V59.027z"
   id="path9" />
	<linearGradient
   id="SVGID_2_"
   gradientUnits="userSpaceOnUse"
   x1="60.4941"
   y1="58.3887"
   x2="12.4977"
   y2="14.0026">
		<stop
   offset="0"
   style="stop-color:#9C909E"
   id="stop11" />
		<stop
   offset="1"
   style="stop-color:#D0CDCD;stop-opacity:0"
   id="stop13" />
		<a:midPointStop
   offset="0"
   style="stop-color:#9C909E" />
		<a:midPointStop
   offset="0.5"
   style="stop-color:#9C909E" />
		<a:midPointStop
   offset="1"
   style="stop-color:#D0CDCD;stop-opacity:0" />
	</linearGradient>
	<path
   opacity="0.7"
   fill="url(#SVGID_2_)"
   d="M59.027,2.817h-1.446v55.216H2.817v0.994c0,1.742,1.413,3.156,3.156,3.156h53.054   c1.743,0,3.155-1.414,3.155-3.156V5.974C62.183,4.23,60.771,2.817,59.027,2.817z"
   id="path16" />
	<linearGradient
   id="SVGID_3_"
   gradientUnits="userSpaceOnUse"
   x1="32.5005"
   y1="21.2964"
   x2="32.5005"
   y2="4.6382">
		<stop
   offset="0"
   style="stop-color:#FFFFFF;stop-opacity:0"
   id="stop18" />
		<stop
   offset="1"
   style="stop-color:#FFFFFF"
   id="stop20" />
		<a:midPointStop
   offset="0"
   style="stop-color:#FFFFFF;stop-opacity:0" />
		<a:midPointStop
   offset="0.5"
   style="stop-color:#FFFFFF;stop-opacity:0" />
		<a:midPointStop
   offset="1"
   style="stop-color:#FFFFFF" />
	</linearGradient>
	<path
   opacity="0.7"
   fill="url(#SVGID_3_)"
   d="M62.183,21.608V5.974c0-1.743-1.412-3.156-3.155-3.156H5.974   c-1.743,0-3.156,1.413-3.156,3.156v15.635H62.183z"
   id="path23" />
	<linearGradient
   id="SVGID_4_"
   gradientUnits="userSpaceOnUse"
   x1="49.0244"
   y1="47.7822"
   x2="-4.8876"
   y2="-2.0745">
		<stop
   offset="0"
   style="stop-color:#7A7890"
   id="stop25" />
		<stop
   offset="1"
   style="stop-color:#D0CDCD;stop-opacity:0"
   id="stop27" />
		<a:midPointStop
   offset="0"
   style="stop-color:#7A7890" />
		<a:midPointStop
   offset="0.5"
   style="stop-color:#7A7890" />
		<a:midPointStop
   offset="1"
   style="stop-color:#D0CDCD;stop-opacity:0" />
	</linearGradient>
	<circle
   fill="url(#SVGID_4_)"
   cx="32.5"
   cy="32.501"
   r="25.329"
   id="circle30" />
	<linearGradient
   id="SVGID_5_"
   gradientUnits="userSpaceOnUse"
   x1="48.4385"
   y1="47.2402"
   x2="-3.5623"
   y2="-0.849">
		<stop
   offset="0"
   style="stop-color:#D0CDCD;stop-opacity:0.2"
   id="stop32" />
		<stop
   offset="0.8011"
   style="stop-color:#7D7B92;stop-opacity:0.9699"
   id="stop34" />
		<stop
   offset="1"
   style="stop-color:#7A7890"
   id="stop36" />
		<a:midPointStop
   offset="0"
   style="stop-color:#D0CDCD;stop-opacity:0.2" />
		<a:midPointStop
   offset="0.5"
   style="stop-color:#D0CDCD;stop-opacity:0.2" />
		<a:midPointStop
   offset="0.8011"
   style="stop-color:#7D7B92;stop-opacity:0.9699" />
		<a:midPointStop
   offset="0.5"
   style="stop-color:#7D7B92;stop-opacity:0.9699" />
		<a:midPointStop
   offset="1"
   style="stop-color:#7A7890" />
	</linearGradient>
	<circle
   fill="url(#SVGID_5_)"
   cx="32.5"
   cy="32.501"
   r="24.43"
   id="circle39" />
	<g
   id="g101">
		<g
   id="g59">
			<path
   fill="#F7F8F9"
   d="M12.534,28.761c-0.18,0.243-0.34,0.5-0.479,0.777c-0.162,0.282-0.295,0.575-0.398,0.876     c-0.066,0.224-0.122,0.445-0.168,0.662c-0.097,0.475-0.14,0.952-0.131,1.425c-0.009,0.473,0.033,0.95,0.131,1.425     c0.046,0.218,0.102,0.438,0.169,0.662c0.103,0.301,0.235,0.594,0.397,0.875c0.14,0.277,0.3,0.536,0.479,0.779     c1.83,2.489,5.051,3.205,7.527,2.188c0.289-0.042,0.574-0.101,0.86-0.174c1.293-0.547,2.545-1.053,3.821-1.426     c0.255-0.074,0.511-0.145,0.768-0.207c2.248-0.604,5.446-0.725,6.598-2.749c0.144-0.253,0.256-0.536,0.33-0.854     c0.021-0.179,0.041-0.351,0.057-0.52c-0.017-0.168-0.035-0.342-0.057-0.52c-0.074-0.317-0.186-0.6-0.33-0.853     c-1.152-2.024-4.35-2.146-6.597-2.749c-0.258-0.063-0.515-0.133-0.77-0.207c-1.275-0.373-2.527-0.879-3.82-1.427     c-0.286-0.073-0.571-0.132-0.86-0.174C17.585,25.556,14.364,26.271,12.534,28.761z"
   id="path41" />
			
				<linearGradient
   id="SVGID_6_"
   gradientUnits="userSpaceOnUse"
   x1="-61.8877"
   y1="-2681.5161"
   x2="-47.2152"
   y2="-2681.3967"
   gradientTransform="matrix(0 -1 1 0 2703.3691 -20.5527)">
				<stop
   offset="0"
   style="stop-color:#7A7890"
   id="stop43" />
				<stop
   offset="0.1989"
   style="stop-color:#7D7B92;stop-opacity:0.9699"
   id="stop45" />
				<stop
   offset="1"
   style="stop-color:#D0CDCD;stop-opacity:0.2"
   id="stop47" />
				<a:midPointStop
   offset="0"
   style="stop-color:#7A7890" />
				<a:midPointStop
   offset="0.5"
   style="stop-color:#7A7890" />
				<a:midPointStop
   offset="0.1989"
   style="stop-color:#7D7B92;stop-opacity:0.9699" />
				<a:midPointStop
   offset="0.5"
   style="stop-color:#7D7B92;stop-opacity:0.9699" />
				<a:midPointStop
   offset="1"
   style="stop-color:#D0CDCD;stop-opacity:0.2" />
			</linearGradient>
			<path
   fill="url(#SVGID_6_)"
   d="M32.495,32.501c-0.017-0.168-0.035-0.342-0.057-0.52c-0.074-0.317-0.186-0.6-0.33-0.853     c-1.152-2.024-4.35-2.146-6.597-2.749c-0.258-0.063-0.515-0.133-0.77-0.207c-1.275-0.373-2.527-0.879-3.82-1.427     c-0.286-0.073-0.571-0.132-0.86-0.174c-2.477-1.017-5.697-0.302-7.527,2.188c-0.18,0.243-0.34,0.5-0.479,0.777     c-0.162,0.282-0.295,0.575-0.398,0.876c-0.066,0.224-0.122,0.445-0.168,0.662c-0.097,0.475-0.14,0.952-0.131,1.425"
   id="path50" />
			
				<linearGradient
   id="SVGID_7_"
   gradientUnits="userSpaceOnUse"
   x1="-53.0581"
   y1="-2685.3633"
   x2="-53.0581"
   y2="-2690.793"
   gradientTransform="matrix(0 -1 1 0 2703.3691 -20.5527)">
				<stop
   offset="0"
   style="stop-color:#FFFFFF;stop-opacity:0"
   id="stop52" />
				<stop
   offset="1"
   style="stop-color:#FFFFFF"
   id="stop54" />
				<a:midPointStop
   offset="0"
   style="stop-color:#FFFFFF;stop-opacity:0" />
				<a:midPointStop
   offset="0.5"
   style="stop-color:#FFFFFF;stop-opacity:0" />
				<a:midPointStop
   offset="1"
   style="stop-color:#FFFFFF" />
			</linearGradient>
			<path
   fill="url(#SVGID_7_)"
   d="M18.259,26.155c-2.084-0.168-4.315,0.693-5.725,2.609c-0.18,0.243-0.34,0.501-0.479,0.777     c-0.162,0.282-0.295,0.575-0.398,0.877c-0.066,0.223-0.123,0.444-0.168,0.662c-0.097,0.475-0.14,0.952-0.131,1.425     c-0.009,0.472,0.034,0.949,0.131,1.424c0.045,0.219,0.102,0.438,0.168,0.663c0.104,0.302,0.236,0.594,0.399,0.876     c0.139,0.276,0.299,0.534,0.479,0.777c1.409,1.916,3.641,2.777,5.725,2.609V26.155z"
   id="path57" />
		</g>
		<g
   id="g79">
			<path
   fill="#F7F8F9"
   d="M39.237,51.658c0.301,0.035,0.604,0.045,0.913,0.026c0.325,0,0.646-0.032,0.957-0.093     c0.228-0.053,0.447-0.115,0.657-0.186c0.461-0.153,0.895-0.354,1.301-0.599c0.414-0.229,0.805-0.504,1.167-0.826     c0.167-0.147,0.329-0.308,0.489-0.478c0.209-0.239,0.397-0.5,0.56-0.782c0.171-0.259,0.313-0.526,0.435-0.803     c1.24-2.83,0.25-5.978-1.869-7.614c-0.182-0.229-0.373-0.447-0.58-0.656c-1.121-0.848-2.185-1.679-3.146-2.597     c-0.192-0.185-0.381-0.371-0.564-0.563c-1.646-1.644-3.349-4.353-5.679-4.339c-0.292,0.003-0.593,0.047-0.904,0.141     c-0.166,0.071-0.324,0.141-0.478,0.211c-0.139,0.099-0.278,0.201-0.422,0.31c-0.237,0.223-0.427,0.46-0.574,0.712     c-1.177,2.011,0.316,4.841,0.918,7.087c0.074,0.256,0.142,0.512,0.206,0.771c0.314,1.292,0.502,2.628,0.675,4.022     c0.08,0.284,0.171,0.561,0.28,0.832C33.937,48.887,36.166,51.318,39.237,51.658z"
   id="path61" />
			
				<linearGradient
   id="SVGID_8_"
   gradientUnits="userSpaceOnUse"
   x1="2327.7168"
   y1="-1640.8438"
   x2="2342.3904"
   y2="-1640.7244"
   gradientTransform="matrix(-0.866 0.5 -0.5 -0.866 1240.8479 -2547.53)">
				<stop
   offset="0"
   style="stop-color:#7A7890"
   id="stop63" />
				<stop
   offset="0.1989"
   style="stop-color:#7D7B92;stop-opacity:0.9699"
   id="stop65" />
				<stop
   offset="1"
   style="stop-color:#D0CDCD;stop-opacity:0.2"
   id="stop67" />
				<a:midPointStop
   offset="0"
   style="stop-color:#7A7890" />
				<a:midPointStop
   offset="0.5"
   style="stop-color:#7A7890" />
				<a:midPointStop
   offset="0.1989"
   style="stop-color:#7D7B92;stop-opacity:0.9699" />
				<a:midPointStop
   offset="0.5"
   style="stop-color:#7D7B92;stop-opacity:0.9699" />
				<a:midPointStop
   offset="1"
   style="stop-color:#D0CDCD;stop-opacity:0.2" />
			</linearGradient>
			<path
   fill="url(#SVGID_8_)"
   d="M32.496,32.501c-0.139,0.099-0.278,0.201-0.422,0.31c-0.237,0.223-0.427,0.46-0.574,0.712     c-1.177,2.011,0.316,4.841,0.918,7.087c0.074,0.256,0.142,0.512,0.206,0.771c0.314,1.292,0.502,2.628,0.675,4.022     c0.08,0.284,0.171,0.561,0.28,0.832c0.357,2.652,2.587,5.084,5.658,5.424c0.301,0.035,0.604,0.045,0.913,0.026     c0.325,0,0.646-0.032,0.957-0.093c0.228-0.053,0.447-0.115,0.657-0.186c0.461-0.153,0.895-0.354,1.301-0.599"
   id="path70" />
			
				<linearGradient
   id="SVGID_9_"
   gradientUnits="userSpaceOnUse"
   x1="2336.5469"
   y1="-1644.6909"
   x2="2336.5469"
   y2="-1650.1218"
   gradientTransform="matrix(-0.866 0.5 -0.5 -0.866 1240.8479 -2547.53)">
				<stop
   offset="0"
   style="stop-color:#FFFFFF;stop-opacity:0"
   id="stop72" />
				<stop
   offset="1"
   style="stop-color:#FFFFFF"
   id="stop74" />
				<a:midPointStop
   offset="0"
   style="stop-color:#FFFFFF;stop-opacity:0" />
				<a:midPointStop
   offset="0.5"
   style="stop-color:#FFFFFF;stop-opacity:0" />
				<a:midPointStop
   offset="1"
   style="stop-color:#FFFFFF" />
			</linearGradient>
			<path
   fill="url(#SVGID_9_)"
   d="M34.118,48.004c0.896,1.888,2.758,3.391,5.123,3.653c0.3,0.034,0.604,0.043,0.912,0.024     c0.326,0,0.646-0.031,0.957-0.093c0.229-0.054,0.447-0.115,0.658-0.185c0.461-0.153,0.896-0.354,1.3-0.598     c0.413-0.229,0.806-0.506,1.167-0.826c0.168-0.148,0.33-0.308,0.49-0.478c0.209-0.241,0.396-0.501,0.561-0.783     c0.17-0.259,0.313-0.526,0.434-0.804c0.954-2.178,0.584-4.541-0.604-6.263L34.118,48.004z"
   id="path77" />
		</g>
		<g
   id="g99">
			<path
   fill="#F7F8F9"
   d="M45.716,17.084c-0.121-0.276-0.264-0.545-0.435-0.803c-0.163-0.282-0.351-0.544-0.559-0.784     c-0.16-0.17-0.324-0.329-0.489-0.477c-0.363-0.322-0.754-0.597-1.168-0.826c-0.406-0.243-0.84-0.445-1.301-0.599     c-0.211-0.069-0.43-0.132-0.657-0.186c-0.312-0.061-0.632-0.092-0.957-0.092c-0.31-0.019-0.612-0.009-0.913,0.025     c-3.071,0.34-5.301,2.771-5.658,5.426c-0.109,0.271-0.2,0.547-0.28,0.83c-0.173,1.395-0.36,2.731-0.675,4.022     c-0.064,0.258-0.132,0.516-0.205,0.77c-0.601,2.248-2.096,5.078-0.919,7.088c0.147,0.252,0.337,0.49,0.573,0.712     c0.145,0.108,0.284,0.211,0.422,0.31c0.154,0.07,0.313,0.14,0.479,0.21c0.313,0.095,0.612,0.14,0.904,0.142     c2.33,0.014,4.033-2.695,5.679-4.34c0.184-0.191,0.372-0.378,0.563-0.562c0.962-0.919,2.025-1.749,3.146-2.597     c0.207-0.21,0.4-0.428,0.58-0.658C45.966,23.062,46.956,19.914,45.716,17.084z"
   id="path81" />
			
				<linearGradient
   id="SVGID_10_"
   gradientUnits="userSpaceOnUse"
   x1="232.1211"
   y1="-91.9175"
   x2="246.7924"
   y2="-91.7981"
   gradientTransform="matrix(0.866 0.5 -0.5 0.866 -216.8079 -17.5921)">
				<stop
   offset="0"
   style="stop-color:#7A7890"
   id="stop83" />
				<stop
   offset="0.1989"
   style="stop-color:#7D7B92;stop-opacity:0.9699"
   id="stop85" />
				<stop
   offset="1"
   style="stop-color:#D0CDCD;stop-opacity:0.2"
   id="stop87" />
				<a:midPointStop
   offset="0"
   style="stop-color:#7A7890" />
				<a:midPointStop
   offset="0.5"
   style="stop-color:#7A7890" />
				<a:midPointStop
   offset="0.1989"
   style="stop-color:#7D7B92;stop-opacity:0.9699" />
				<a:midPointStop
   offset="0.5"
   style="stop-color:#7D7B92;stop-opacity:0.9699" />
				<a:midPointStop
   offset="1"
   style="stop-color:#D0CDCD;stop-opacity:0.2" />
			</linearGradient>
			<path
   fill="url(#SVGID_10_)"
   d="M32.495,32.501c0.154,0.07,0.313,0.14,0.479,0.21c0.313,0.095,0.612,0.14,0.904,0.142     c2.33,0.014,4.033-2.695,5.679-4.34c0.184-0.191,0.372-0.378,0.563-0.562c0.962-0.919,2.025-1.749,3.146-2.597     c0.207-0.21,0.4-0.428,0.58-0.658c2.119-1.635,3.109-4.782,1.869-7.612c-0.121-0.276-0.264-0.545-0.435-0.803     c-0.163-0.282-0.351-0.544-0.559-0.784c-0.16-0.17-0.324-0.329-0.489-0.477c-0.363-0.322-0.754-0.597-1.168-0.826"
   id="path90" />
			
				<linearGradient
   id="SVGID_11_"
   gradientUnits="userSpaceOnUse"
   x1="240.9492"
   y1="-95.7646"
   x2="240.9492"
   y2="-101.1948"
   gradientTransform="matrix(0.866 0.5 -0.5 0.866 -216.8079 -17.5921)">
				<stop
   offset="0"
   style="stop-color:#FFFFFF;stop-opacity:0"
   id="stop92" />
				<stop
   offset="1"
   style="stop-color:#FFFFFF"
   id="stop94" />
				<a:midPointStop
   offset="0"
   style="stop-color:#FFFFFF;stop-opacity:0" />
				<a:midPointStop
   offset="0.5"
   style="stop-color:#FFFFFF;stop-opacity:0" />
				<a:midPointStop
   offset="1"
   style="stop-color:#FFFFFF" />
			</linearGradient>
			<path
   fill="url(#SVGID_11_)"
   d="M45.109,23.344c1.187-1.72,1.558-4.084,0.603-6.262c-0.121-0.277-0.264-0.545-0.434-0.804     c-0.163-0.281-0.352-0.543-0.561-0.782c-0.16-0.171-0.322-0.33-0.488-0.478c-0.363-0.322-0.755-0.598-1.168-0.826     c-0.404-0.243-0.84-0.445-1.3-0.6c-0.212-0.068-0.431-0.131-0.657-0.185c-0.313-0.061-0.633-0.093-0.959-0.093     c-0.309-0.019-0.611-0.008-0.912,0.026c-2.363,0.262-4.225,1.765-5.123,3.652L45.109,23.344z"
   id="path97" />
		</g>
	</g>
	<circle
   fill="#6B768E"
   cx="32.5"
   cy="32.501"
   r="4.936"
   id="circle103" />
	<circle
   fill="#FFFFFF"
   cx="32.5"
   cy="32.501"
   r="3.948"
   id="circle105" />
</g>
</svg>
