<?xml version="1.0" encoding="UTF-8" standalone="no"?>
<svg
   xmlns:a="http://ns.adobe.com/AdobeSVGViewerExtensions/3.0/"
   xmlns:dc="http://purl.org/dc/elements/1.1/"
   xmlns:cc="http://creativecommons.org/ns#"
   xmlns:rdf="http://www.w3.org/1999/02/22-rdf-syntax-ns#"
   xmlns:svg="http://www.w3.org/2000/svg"
   xmlns="http://www.w3.org/2000/svg"
   xmlns:sodipodi="http://sodipodi.sourceforge.net/DTD/sodipodi-0.dtd"
   xmlns:inkscape="http://www.inkscape.org/namespaces/inkscape"
   version="1.1"
   id="图层_1"
   x="0px"
   y="0px"
   width="54.807px"
   height="77.96px"
   viewBox="0 0 54.807 77.96"
   enable-background="new 0 0 54.807 77.96"
   xml:space="preserve"
   sodipodi:docname="排风机_40-01.svg"><metadata
   id="metadata107"><rdf:RDF><cc:Work
       rdf:about=""><dc:format>image/svg+xml</dc:format><dc:type
         rdf:resource="http://purl.org/dc/dcmitype/StillImage" /></cc:Work></rdf:RDF></metadata><defs
   id="defs105" /><sodipodi:namedview
   pagecolor="#ffffff"
   bordercolor="#666666"
   borderopacity="1"
   objecttolerance="10"
   gridtolerance="10"
   guidetolerance="10"
   inkscape:pageopacity="0"
   inkscape:pageshadow="2"
   inkscape:window-width="640"
   inkscape:window-height="480"
   id="namedview103" />
<g
   id="g100">
	<g
   id="g6">
		<polygon
   fill="#096856"
   points="48.741,74.962 41.352,45.451 17.321,45.451 9.932,74.962 4.651,74.962 4.651,77.406 9.321,77.406     13.991,77.406 14.055,77.406 15.309,73.194 43.364,73.194 44.62,77.406 49.352,77.406 53.959,77.406 53.959,74.962   "
   id="polygon2" />
		<path
   fill="#231F20"
   d="M54.459,77.906H44.247l-1.256-4.212H15.682l-1.254,4.212H4.151v-3.444h5.391l7.389-29.511h24.813    l7.389,29.511h5.328V77.906z M44.993,76.906h8.467v-1.444H48.35l-7.389-29.511h-23.25l-7.389,29.511H5.151v1.444h8.531    l1.254-4.212h28.801L44.993,76.906z"
   id="path4" />
	</g>
	<g
   id="g98">
		<g
   id="g12">
			<path
   fill="#096856"
   d="M4.307,0.554v41.978c0,13.811,11.193,25.002,25,25.002s25-11.191,25-25.002     c0-13.808-11.193-24.999-25-24.999c-1.346,0-2.664,0.109-3.951,0.314V0.554H4.307z"
   id="path8" />
			<path
   fill="#231F20"
   d="M29.307,68.033c-14.061,0-25.5-11.439-25.5-25.502V0.054h22.049v17.214     c1.146-0.156,2.305-0.235,3.451-0.235c14.061,0,25.5,11.439,25.5,25.499C54.807,56.594,43.368,68.033,29.307,68.033z      M4.807,1.054v41.478c0,13.51,10.99,24.502,24.5,24.502s24.5-10.992,24.5-24.502c0-13.509-10.99-24.499-24.5-24.499     c-1.287,0-2.59,0.104-3.873,0.309l-0.578,0.092V1.054H4.807z"
   id="path10" />
		</g>
		
			<linearGradient
   id="SVGID_1_"
   gradientUnits="userSpaceOnUse"
   x1="-438.9883"
   y1="-2620.0962"
   x2="-438.9883"
   y2="-2596.6218"
   gradientTransform="matrix(4.489659e-011 -1 1 4.489659e-011 2612.0347 -406.6704)">
			<stop
   offset="0.1183"
   style="stop-color:#FFFFFF"
   id="stop14" />
			<stop
   offset="0.9839"
   style="stop-color:#FFFFFF;stop-opacity:0"
   id="stop16" />
			<a:midPointStop
   offset="0.1183"
   style="stop-color:#FFFFFF" />
			<a:midPointStop
   offset="0.5"
   style="stop-color:#FFFFFF" />
			<a:midPointStop
   offset="0.9839"
   style="stop-color:#FFFFFF;stop-opacity:0" />
		</linearGradient>
		<path
   opacity="0.5"
   fill="url(#SVGID_1_)"
   d="M16.637,0.554H4.307v41.978c0,9.184,4.953,17.205,12.33,21.551V0.554z"
   id="path19" />
		<circle
   fill="#108958"
   cx="29.307"
   cy="42.532"
   r="23.511"
   id="circle21" />
		
			<linearGradient
   id="SVGID_2_"
   gradientUnits="userSpaceOnUse"
   x1="-449.2041"
   y1="-2619.3745"
   x2="-449.2041"
   y2="-2586.4907"
   gradientTransform="matrix(4.489659e-011 -1 1 4.489659e-011 2612.0347 -406.6704)">
			<stop
   offset="0.1183"
   style="stop-color:#FFFFFF"
   id="stop23" />
			<stop
   offset="0.9839"
   style="stop-color:#FFFFFF;stop-opacity:0"
   id="stop25" />
			<a:midPointStop
   offset="0.1183"
   style="stop-color:#FFFFFF" />
			<a:midPointStop
   offset="0.5"
   style="stop-color:#FFFFFF" />
			<a:midPointStop
   offset="0.9839"
   style="stop-color:#FFFFFF;stop-opacity:0" />
		</linearGradient>
		<path
   fill="url(#SVGID_2_)"
   d="M27.479,19.101C15.35,20.034,5.797,30.163,5.797,42.531c0,12.371,9.553,22.5,21.682,23.436V19.101z    "
   id="path28" />
		
			<linearGradient
   id="SVGID_3_"
   gradientUnits="userSpaceOnUse"
   x1="888.3462"
   y1="662.7549"
   x2="888.3462"
   y2="695.6385"
   gradientTransform="matrix(-4.489659e-011 1 -1 -4.489659e-011 728.7095 -845.812)">
			<stop
   offset="0.1183"
   style="stop-color:#FFFFFF"
   id="stop30" />
			<stop
   offset="0.9839"
   style="stop-color:#FFFFFF;stop-opacity:0"
   id="stop32" />
			<a:midPointStop
   offset="0.1183"
   style="stop-color:#FFFFFF" />
			<a:midPointStop
   offset="0.5"
   style="stop-color:#FFFFFF" />
			<a:midPointStop
   offset="0.9839"
   style="stop-color:#FFFFFF;stop-opacity:0" />
		</linearGradient>
		<path
   opacity="0.3"
   fill="url(#SVGID_3_)"
   d="M31.135,65.967c12.129-0.936,21.682-11.064,21.682-23.434    c0-12.37-9.553-22.499-21.682-23.433V65.967z"
   id="path35" />
		<g
   id="g46">
			
				<linearGradient
   id="SVGID_4_"
   gradientUnits="userSpaceOnUse"
   x1="-449.2031"
   y1="-2601.3921"
   x2="-449.2031"
   y2="-2565.7051"
   gradientTransform="matrix(4.489659e-011 -1 1 4.489659e-011 2612.0347 -406.6704)">
				<stop
   offset="0.0806"
   style="stop-color:#5AAC8B"
   id="stop37" />
				<stop
   offset="0.9839"
   style="stop-color:#096856"
   id="stop39" />
				<a:midPointStop
   offset="0.0806"
   style="stop-color:#5AAC8B" />
				<a:midPointStop
   offset="0.5"
   style="stop-color:#5AAC8B" />
				<a:midPointStop
   offset="0.9839"
   style="stop-color:#096856" />
			</linearGradient>
			<path
   fill="url(#SVGID_4_)"
   d="M29.307,22.88c10.854,0,19.652,8.797,19.652,19.651c0,10.857-8.799,19.654-19.652,19.654     S9.653,53.389,9.653,42.531C9.653,31.677,18.454,22.88,29.307,22.88z"
   id="path42" />
			<path
   fill="#231F20"
   d="M29.307,62.469c-10.994,0-19.938-8.943-19.938-19.938c0-10.992,8.943-19.935,19.938-19.935     c10.992,0,19.936,8.942,19.936,19.935C49.243,53.525,40.299,62.469,29.307,62.469z M29.307,23.164     c-10.682,0-19.371,8.688-19.371,19.367c0,10.682,8.689,19.37,19.371,19.37c10.68,0,19.369-8.688,19.369-19.37     C48.676,31.852,39.987,23.164,29.307,23.164z"
   id="path44" />
		</g>
		
			<radialGradient
   id="SVGID_5_"
   cx="-484.8306"
   cy="-2864.9707"
   r="19.3804"
   gradientTransform="matrix(4.044285e-011 -0.9008 0.9008 4.044285e-011 2610.0713 -394.2028)"
   gradientUnits="userSpaceOnUse">
			<stop
   offset="0.043"
   style="stop-color:#2C976C"
   id="stop48" />
			<stop
   offset="0.9839"
   style="stop-color:#004D50"
   id="stop50" />
			<a:midPointStop
   offset="0.043"
   style="stop-color:#2C976C" />
			<a:midPointStop
   offset="0.5"
   style="stop-color:#2C976C" />
			<a:midPointStop
   offset="0.9839"
   style="stop-color:#004D50" />
		</radialGradient>
		<circle
   fill="url(#SVGID_5_)"
   cx="29.307"
   cy="42.533"
   r="17.458"
   id="circle53" />
		<circle
   fill="#FFFFFF"
   cx="29.307"
   cy="42.532"
   r="2.085"
   id="circle55" />
		<circle
   fill="#6B768E"
   cx="29.307"
   cy="42.534"
   r="3.623"
   id="circle57" />
		<circle
   fill="#FFFFFF"
   cx="29.307"
   cy="42.534"
   r="2.897"
   id="circle59" />
		<g
   id="g72">
			
				<linearGradient
   id="SVGID_6_"
   gradientUnits="userSpaceOnUse"
   x1="-409.0781"
   y1="-2610.8164"
   x2="-409.0781"
   y2="-2583.4829"
   gradientTransform="matrix(4.489659e-011 -1 1 4.489659e-011 2612.0347 -406.6704)">
				<stop
   offset="0"
   style="stop-color:#096856"
   id="stop61" />
				<stop
   offset="0.5161"
   style="stop-color:#78ACA2"
   id="stop63" />
				<stop
   offset="0.9839"
   style="stop-color:#096856"
   id="stop65" />
				<a:midPointStop
   offset="0"
   style="stop-color:#096856" />
				<a:midPointStop
   offset="0.5"
   style="stop-color:#096856" />
				<a:midPointStop
   offset="0.5161"
   style="stop-color:#78ACA2" />
				<a:midPointStop
   offset="0.5"
   style="stop-color:#78ACA2" />
				<a:midPointStop
   offset="0.9839"
   style="stop-color:#096856" />
			</linearGradient>
			<rect
   x="0.5"
   y="0.554"
   fill="url(#SVGID_6_)"
   width="28.992"
   height="3.708"
   id="rect68" />
			<path
   fill="#231F20"
   d="M29.993,4.762H0V0.054h29.992V4.762z M1,3.762h27.992V1.054H1V3.762z"
   id="path70" />
		</g>
		<g
   id="g96">
			<circle
   fill="#E5E5E5"
   cx="29.307"
   cy="42.533"
   r="16"
   id="circle74" />
			<g
   id="g94">
				<path
   fill="#1B8E99"
   d="M20.198,52.973c0,0-3.004-2.49-3.875-5.824c0.41-0.412,5.029-6.208,12.957-4.643      c0,0.531-0.762,1.926-2.963,4.361C24.694,48.662,21.852,51.363,20.198,52.973z"
   id="path76" />
				<path
   fill="#1B8E99"
   d="M33.803,55.605c0,0-3.658,1.355-6.982,0.443c-0.15-0.563-2.859-7.461,2.459-13.544      c0.461,0.268,1.285,1.622,2.295,4.749C32.319,49.557,33.237,53.367,33.803,55.605z"
   id="path78" />
				<path
   fill="#1B8E99"
   d="M42.885,45.139c0,0-0.654,3.846-3.107,6.27c-0.561-0.15-7.891-1.254-10.498-8.903      c0.461-0.266,2.047-0.302,5.26,0.388C36.905,43.398,40.663,44.51,42.885,45.139z"
   id="path80" />
				<path
   fill="#1B8E99"
   d="M38.362,32.038c0,0,3.004,2.491,3.875,5.826c-0.41,0.41-5.029,6.206-12.957,4.641      c0-0.53,0.762-1.923,2.963-4.36C33.866,36.349,36.708,33.649,38.362,32.038z"
   id="path82" />
				<path
   fill="#1B8E99"
   d="M24.756,29.407c0,0,3.658-1.356,6.982-0.444c0.15,0.562,2.861,7.461-2.459,13.542      c-0.461-0.266-1.285-1.621-2.295-4.746C26.241,35.456,25.323,31.645,24.756,29.407z"
   id="path84" />
				<path
   fill="#1B8E99"
   d="M15.674,39.875c0,0,0.654-3.848,3.107-6.271c0.561,0.15,7.891,1.253,10.498,8.9      c-0.461,0.267-2.047,0.304-5.258-0.386C21.655,41.612,17.895,40.502,15.674,39.875z"
   id="path86" />
				<g
   id="g92">
					<circle
   fill="#FFFFFF"
   cx="29.307"
   cy="42.533"
   r="5.519"
   id="circle88" />
					<circle
   fill="#1B8E99"
   cx="29.307"
   cy="42.534"
   r="3.487"
   id="circle90" />
				</g>
			</g>
		</g>
	</g>
</g>
</svg>
