<?xml version="1.0" encoding="UTF-8" standalone="no"?>
<svg
   xmlns:a="http://ns.adobe.com/AdobeSVGViewerExtensions/3.0/"
   xmlns:dc="http://purl.org/dc/elements/1.1/"
   xmlns:cc="http://creativecommons.org/ns#"
   xmlns:rdf="http://www.w3.org/1999/02/22-rdf-syntax-ns#"
   xmlns:svg="http://www.w3.org/2000/svg"
   xmlns="http://www.w3.org/2000/svg"
   xmlns:sodipodi="http://sodipodi.sourceforge.net/DTD/sodipodi-0.dtd"
   xmlns:inkscape="http://www.inkscape.org/namespaces/inkscape"
   version="1.1"
   id="图层_1"
   x="0px"
   y="0px"
   width="106px"
   height="55px"
   viewBox="0 0 106 55"
   enable-background="new 0 0 106 55"
   xml:space="preserve"
   sodipodi:docname="排风机_44-01.svg"><metadata
   id="metadata186"><rdf:RDF><cc:Work
       rdf:about=""><dc:format>image/svg+xml</dc:format><dc:type
         rdf:resource="http://purl.org/dc/dcmitype/StillImage" /></cc:Work></rdf:RDF></metadata><defs
   id="defs184" /><sodipodi:namedview
   pagecolor="#ffffff"
   bordercolor="#666666"
   borderopacity="1"
   objecttolerance="10"
   gridtolerance="10"
   guidetolerance="10"
   inkscape:pageopacity="0"
   inkscape:pageshadow="2"
   inkscape:window-width="640"
   inkscape:window-height="480"
   id="namedview182" />
<g
   id="g179">
	<g
   id="g93">
		<g
   id="g6">
			<rect
   x="9.135"
   y="0.5"
   fill="#F0BD00"
   width="96.365"
   height="54"
   id="rect2" />
			<path
   fill="#231F20"
   d="M106,55H8.635V0H106V55z M9.635,54H105V1H9.635V54z"
   id="path4" />
		</g>
		<g
   id="g12">
			<rect
   x="72.29"
   y="7.59"
   fill="#CC9600"
   width="24.23"
   height="41.076"
   id="rect8" />
			<path
   fill="#231F20"
   d="M97.021,49.166H71.79V7.09h25.23V49.166z M72.79,48.166h23.23V8.09H72.79V48.166z"
   id="path10" />
		</g>
		<rect
   x="72.568"
   y="8.829"
   fill="#8E6706"
   width="18.355"
   height="39.431"
   id="rect14" />
		<g
   id="g42">
			<rect
   x="11.245"
   y="51.095"
   fill="#896306"
   width="1.556"
   height="1.548"
   id="rect16" />
			<rect
   x="18.802"
   y="51.095"
   fill="#896306"
   width="1.556"
   height="1.548"
   id="rect18" />
			<rect
   x="26.358"
   y="51.095"
   fill="#896306"
   width="1.557"
   height="1.548"
   id="rect20" />
			<rect
   x="33.913"
   y="51.095"
   fill="#896306"
   width="1.557"
   height="1.548"
   id="rect22" />
			<rect
   x="41.47"
   y="51.095"
   fill="#896306"
   width="1.557"
   height="1.548"
   id="rect24" />
			<rect
   x="49.026"
   y="51.095"
   fill="#896306"
   width="1.557"
   height="1.548"
   id="rect26" />
			<rect
   x="56.583"
   y="51.095"
   fill="#896306"
   width="1.557"
   height="1.548"
   id="rect28" />
			<rect
   x="64.138"
   y="51.095"
   fill="#896306"
   width="1.559"
   height="1.548"
   id="rect30" />
			<rect
   x="71.694"
   y="51.095"
   fill="#896306"
   width="1.557"
   height="1.548"
   id="rect32" />
			<rect
   x="79.251"
   y="51.095"
   fill="#896306"
   width="1.557"
   height="1.548"
   id="rect34" />
			<rect
   x="86.809"
   y="51.095"
   fill="#896306"
   width="1.556"
   height="1.548"
   id="rect36" />
			<rect
   x="94.363"
   y="51.095"
   fill="#896306"
   width="1.558"
   height="1.548"
   id="rect38" />
			<rect
   x="101.92"
   y="51.095"
   fill="#896306"
   width="1.556"
   height="1.548"
   id="rect40" />
		</g>
		<g
   id="g70">
			<rect
   x="11.245"
   y="2.828"
   fill="#896306"
   width="1.556"
   height="1.549"
   id="rect44" />
			<rect
   x="18.802"
   y="2.828"
   fill="#896306"
   width="1.556"
   height="1.549"
   id="rect46" />
			<rect
   x="26.358"
   y="2.828"
   fill="#896306"
   width="1.557"
   height="1.549"
   id="rect48" />
			<rect
   x="33.913"
   y="2.828"
   fill="#896306"
   width="1.557"
   height="1.549"
   id="rect50" />
			<rect
   x="41.47"
   y="2.828"
   fill="#896306"
   width="1.557"
   height="1.549"
   id="rect52" />
			<rect
   x="49.026"
   y="2.828"
   fill="#896306"
   width="1.557"
   height="1.549"
   id="rect54" />
			<rect
   x="56.583"
   y="2.828"
   fill="#896306"
   width="1.557"
   height="1.549"
   id="rect56" />
			<rect
   x="64.138"
   y="2.828"
   fill="#896306"
   width="1.559"
   height="1.549"
   id="rect58" />
			<rect
   x="71.694"
   y="2.828"
   fill="#896306"
   width="1.557"
   height="1.549"
   id="rect60" />
			<rect
   x="79.251"
   y="2.828"
   fill="#896306"
   width="1.557"
   height="1.549"
   id="rect62" />
			<rect
   x="86.809"
   y="2.828"
   fill="#896306"
   width="1.556"
   height="1.549"
   id="rect64" />
			<rect
   x="94.363"
   y="2.828"
   fill="#896306"
   width="1.558"
   height="1.549"
   id="rect66" />
			<rect
   x="101.92"
   y="2.828"
   fill="#896306"
   width="1.556"
   height="1.549"
   id="rect68" />
		</g>
		<linearGradient
   id="SVGID_1_"
   gradientUnits="userSpaceOnUse"
   x1="13.3042"
   y1="47.8838"
   x2="38.6277"
   y2="-24.7381">
			<stop
   offset="0"
   style="stop-color:#FFFFFF;stop-opacity:0"
   id="stop72" />
			<stop
   offset="1"
   style="stop-color:#FFFFFF"
   id="stop74" />
			<a:midPointStop
   offset="0"
   style="stop-color:#FFFFFF;stop-opacity:0" />
			<a:midPointStop
   offset="0.5"
   style="stop-color:#FFFFFF;stop-opacity:0" />
			<a:midPointStop
   offset="1"
   style="stop-color:#FFFFFF" />
		</linearGradient>
		<polygon
   fill="url(#SVGID_1_)"
   points="18.029,53.236 9.135,53.236 9.135,0.5 50.518,0.5   "
   id="polygon77" />
		<g
   id="g83">
			<rect
   x="0.5"
   y="17.213"
   fill="#8E6706"
   width="8.635"
   height="20.574"
   id="rect79" />
			<path
   fill="#231F20"
   d="M9.635,38.287H0V16.713h9.635V38.287z M1,37.287h7.635V17.713H1V37.287z"
   id="path81" />
		</g>
		<g
   id="g89">
			<rect
   x="2.834"
   y="21.862"
   fill="#F0BD00"
   width="1.558"
   height="11.235"
   id="rect85" />
			<path
   fill="#231F20"
   d="M4.892,33.598H2.334V21.362h2.558V33.598z M3.334,32.598h0.558V22.362H3.334V32.598z"
   id="path87" />
		</g>
		<rect
   x="4.731"
   y="21.472"
   fill="#231F20"
   width="1.556"
   height="12.001"
   id="rect91" />
	</g>
	<g
   id="g177">
		<linearGradient
   id="SVGID_2_"
   gradientUnits="userSpaceOnUse"
   x1="53.5415"
   y1="39.3643"
   x2="11.6842"
   y2="0.6555">
			<stop
   offset="0"
   style="stop-color:#7A7890"
   id="stop95" />
			<stop
   offset="1"
   style="stop-color:#D0CDCD;stop-opacity:0"
   id="stop97" />
			<a:midPointStop
   offset="0"
   style="stop-color:#7A7890" />
			<a:midPointStop
   offset="0.5"
   style="stop-color:#7A7890" />
			<a:midPointStop
   offset="1"
   style="stop-color:#D0CDCD;stop-opacity:0" />
		</linearGradient>
		<ellipse
   fill="url(#SVGID_2_)"
   cx="40.712"
   cy="27.5"
   rx="19.711"
   ry="19.612"
   id="ellipse100" />
		<linearGradient
   id="SVGID_3_"
   gradientUnits="userSpaceOnUse"
   x1="53.0864"
   y1="38.9434"
   x2="12.7132"
   y2="1.6071">
			<stop
   offset="0"
   style="stop-color:#D0CDCD;stop-opacity:0.2"
   id="stop102" />
			<stop
   offset="0.8011"
   style="stop-color:#7D7B92;stop-opacity:0.9699"
   id="stop104" />
			<stop
   offset="1"
   style="stop-color:#7A7890"
   id="stop106" />
			<a:midPointStop
   offset="0"
   style="stop-color:#D0CDCD;stop-opacity:0.2" />
			<a:midPointStop
   offset="0.5"
   style="stop-color:#D0CDCD;stop-opacity:0.2" />
			<a:midPointStop
   offset="0.8011"
   style="stop-color:#7D7B92;stop-opacity:0.9699" />
			<a:midPointStop
   offset="0.5"
   style="stop-color:#7D7B92;stop-opacity:0.9699" />
			<a:midPointStop
   offset="1"
   style="stop-color:#7A7890" />
		</linearGradient>
		<path
   fill="url(#SVGID_3_)"
   d="M59.725,27.5c0,10.447-8.513,18.916-19.011,18.916C30.211,46.416,21.7,37.947,21.7,27.5    S30.211,8.583,40.714,8.583C51.212,8.583,59.725,17.053,59.725,27.5z"
   id="path109" />
		<g
   id="g171">
			<g
   id="g129">
				<path
   fill="#F7F8F9"
   d="M25.175,24.604c-0.139,0.188-0.265,0.387-0.372,0.602c-0.128,0.219-0.229,0.445-0.312,0.678      c-0.051,0.174-0.095,0.345-0.13,0.514c-0.076,0.367-0.109,0.736-0.104,1.103c-0.006,0.366,0.027,0.735,0.104,1.104      c0.035,0.169,0.079,0.339,0.132,0.512c0.08,0.234,0.182,0.46,0.31,0.679c0.107,0.215,0.233,0.415,0.372,0.602      c1.425,1.929,3.932,2.482,5.857,1.694c0.226-0.031,0.447-0.076,0.669-0.133c1.007-0.424,1.98-0.816,2.975-1.105      c0.198-0.057,0.397-0.111,0.598-0.161c1.75-0.467,4.237-0.561,5.135-2.128c0.111-0.195,0.199-0.414,0.256-0.66      c0.019-0.138,0.032-0.271,0.044-0.402c-0.012-0.13-0.025-0.265-0.044-0.402c-0.057-0.245-0.145-0.464-0.256-0.66      c-0.897-1.567-3.385-1.661-5.135-2.128c-0.2-0.049-0.399-0.104-0.598-0.161c-0.994-0.289-1.968-0.68-2.975-1.104      c-0.222-0.058-0.443-0.103-0.669-0.135C29.106,22.122,26.6,22.676,25.175,24.604z"
   id="path111" />
				
					<linearGradient
   id="SVGID_4_"
   gradientUnits="userSpaceOnUse"
   x1="-39.3936"
   y1="-2696.4419"
   x2="-28.0328"
   y2="-2696.3494"
   gradientTransform="matrix(0 -1 1 0 2728.8682 -5.0537)">
					<stop
   offset="0"
   style="stop-color:#7A7890"
   id="stop113" />
					<stop
   offset="0.1989"
   style="stop-color:#7D7B92;stop-opacity:0.9699"
   id="stop115" />
					<stop
   offset="1"
   style="stop-color:#D0CDCD;stop-opacity:0.2"
   id="stop117" />
					<a:midPointStop
   offset="0"
   style="stop-color:#7A7890" />
					<a:midPointStop
   offset="0.5"
   style="stop-color:#7A7890" />
					<a:midPointStop
   offset="0.1989"
   style="stop-color:#7D7B92;stop-opacity:0.9699" />
					<a:midPointStop
   offset="0.5"
   style="stop-color:#7D7B92;stop-opacity:0.9699" />
					<a:midPointStop
   offset="1"
   style="stop-color:#D0CDCD;stop-opacity:0.2" />
				</linearGradient>
				<path
   fill="url(#SVGID_4_)"
   d="M40.708,27.5c-0.012-0.13-0.025-0.265-0.044-0.402c-0.057-0.245-0.145-0.464-0.256-0.66      c-0.897-1.567-3.385-1.661-5.135-2.128c-0.2-0.049-0.399-0.104-0.598-0.161c-0.994-0.289-1.968-0.68-2.975-1.104      c-0.222-0.058-0.443-0.103-0.669-0.135c-1.926-0.788-4.433-0.234-5.857,1.694c-0.139,0.188-0.265,0.387-0.372,0.602      c-0.128,0.219-0.229,0.445-0.312,0.678c-0.051,0.174-0.095,0.345-0.13,0.514c-0.076,0.367-0.109,0.736-0.104,1.103"
   id="path120" />
				
					<linearGradient
   id="SVGID_5_"
   gradientUnits="userSpaceOnUse"
   x1="-32.5571"
   y1="-2699.436"
   x2="-32.5571"
   y2="-2703.6616"
   gradientTransform="matrix(0 -1 1 0 2728.8682 -5.0537)">
					<stop
   offset="0"
   style="stop-color:#FFFFFF;stop-opacity:0"
   id="stop122" />
					<stop
   offset="1"
   style="stop-color:#FFFFFF"
   id="stop124" />
					<a:midPointStop
   offset="0"
   style="stop-color:#FFFFFF;stop-opacity:0" />
					<a:midPointStop
   offset="0.5"
   style="stop-color:#FFFFFF;stop-opacity:0" />
					<a:midPointStop
   offset="1"
   style="stop-color:#FFFFFF" />
				</linearGradient>
				<path
   fill="url(#SVGID_5_)"
   d="M29.629,22.587c-1.62-0.131-3.358,0.536-4.454,2.021c-0.139,0.188-0.265,0.389-0.372,0.602      c-0.128,0.219-0.229,0.446-0.312,0.679c-0.051,0.173-0.095,0.344-0.13,0.513c-0.076,0.367-0.109,0.737-0.104,1.104      c-0.006,0.365,0.027,0.734,0.104,1.103c0.035,0.169,0.079,0.339,0.13,0.513c0.082,0.233,0.184,0.46,0.312,0.678      c0.107,0.215,0.233,0.415,0.372,0.603c1.096,1.483,2.834,2.151,4.454,2.021V22.587z"
   id="path127" />
			</g>
			<g
   id="g149">
				<path
   fill="#F7F8F9"
   d="M45.956,42.334c0.233,0.026,0.468,0.034,0.709,0.02c0.253,0,0.504-0.025,0.745-0.072      c0.178-0.041,0.349-0.09,0.511-0.143c0.359-0.119,0.698-0.275,1.014-0.465c0.321-0.176,0.625-0.389,0.907-0.639      c0.132-0.115,0.257-0.238,0.382-0.369c0.163-0.186,0.309-0.389,0.436-0.606c0.133-0.2,0.243-0.407,0.337-0.622      c0.966-2.19,0.196-4.627-1.454-5.895c-0.141-0.178-0.29-0.346-0.45-0.51c-0.872-0.655-1.701-1.299-2.448-2.01      c-0.15-0.143-0.298-0.287-0.438-0.436c-1.282-1.273-2.606-3.371-4.42-3.36c-0.227,0.003-0.462,0.036-0.703,0.109      c-0.13,0.055-0.253,0.108-0.372,0.163c-0.108,0.077-0.218,0.155-0.33,0.239c-0.184,0.173-0.331,0.356-0.446,0.552      c-0.915,1.557,0.247,3.747,0.715,5.488c0.058,0.197,0.11,0.396,0.161,0.596c0.245,1,0.39,2.035,0.525,3.115      c0.061,0.219,0.133,0.433,0.218,0.643C41.831,40.188,43.564,42.07,45.956,42.334z"
   id="path131" />
				
					<linearGradient
   id="SVGID_6_"
   gradientUnits="userSpaceOnUse"
   x1="2360.7734"
   y1="-1637.3086"
   x2="2372.2012"
   y2="-1637.2157"
   gradientTransform="matrix(-0.866 0.5 -0.5 -0.866 1276.5991 -2567.1096)">
					<stop
   offset="0"
   style="stop-color:#7A7890"
   id="stop133" />
					<stop
   offset="0.1989"
   style="stop-color:#7D7B92;stop-opacity:0.9699"
   id="stop135" />
					<stop
   offset="1"
   style="stop-color:#D0CDCD;stop-opacity:0.2"
   id="stop137" />
					<a:midPointStop
   offset="0"
   style="stop-color:#7A7890" />
					<a:midPointStop
   offset="0.5"
   style="stop-color:#7A7890" />
					<a:midPointStop
   offset="0.1989"
   style="stop-color:#7D7B92;stop-opacity:0.9699" />
					<a:midPointStop
   offset="0.5"
   style="stop-color:#7D7B92;stop-opacity:0.9699" />
					<a:midPointStop
   offset="1"
   style="stop-color:#D0CDCD;stop-opacity:0.2" />
				</linearGradient>
				<path
   fill="url(#SVGID_6_)"
   d="M40.71,27.5c-0.108,0.077-0.218,0.155-0.33,0.239c-0.184,0.173-0.331,0.356-0.446,0.552      c-0.915,1.557,0.247,3.747,0.715,5.488c0.058,0.197,0.11,0.396,0.161,0.596c0.245,1,0.39,2.035,0.525,3.115      c0.061,0.219,0.133,0.433,0.218,0.643c0.278,2.055,2.012,3.938,4.403,4.201c0.233,0.026,0.468,0.034,0.709,0.02      c0.253,0,0.504-0.025,0.745-0.072c0.178-0.041,0.349-0.09,0.511-0.143c0.359-0.119,0.698-0.275,1.014-0.465"
   id="path140" />
				
					<linearGradient
   id="SVGID_7_"
   gradientUnits="userSpaceOnUse"
   x1="2367.6621"
   y1="-1640.2813"
   x2="2367.6621"
   y2="-1644.4988"
   gradientTransform="matrix(-0.866 0.5 -0.5 -0.866 1276.5991 -2567.1096)">
					<stop
   offset="0"
   style="stop-color:#FFFFFF;stop-opacity:0"
   id="stop142" />
					<stop
   offset="1"
   style="stop-color:#FFFFFF"
   id="stop144" />
					<a:midPointStop
   offset="0"
   style="stop-color:#FFFFFF;stop-opacity:0" />
					<a:midPointStop
   offset="0.5"
   style="stop-color:#FFFFFF;stop-opacity:0" />
					<a:midPointStop
   offset="1"
   style="stop-color:#FFFFFF" />
				</linearGradient>
				<path
   fill="url(#SVGID_7_)"
   d="M41.972,39.505c0.697,1.46,2.146,2.624,3.986,2.827c0.233,0.026,0.47,0.033,0.711,0.02      c0.253,0,0.502-0.024,0.745-0.072c0.176-0.041,0.347-0.089,0.511-0.143c0.359-0.119,0.698-0.274,1.012-0.464      c0.321-0.177,0.627-0.39,0.907-0.64c0.132-0.113,0.259-0.237,0.382-0.369c0.163-0.186,0.311-0.389,0.438-0.605      c0.131-0.2,0.243-0.407,0.337-0.622c0.743-1.687,0.455-3.518-0.47-4.85L41.972,39.505z"
   id="path147" />
			</g>
			<g
   id="g169">
				<path
   fill="#F7F8F9"
   d="M50.996,15.563c-0.094-0.214-0.204-0.422-0.337-0.622c-0.127-0.219-0.272-0.421-0.436-0.607      c-0.125-0.132-0.252-0.255-0.38-0.369c-0.284-0.249-0.588-0.462-0.909-0.64c-0.315-0.188-0.654-0.345-1.014-0.463      c-0.162-0.054-0.333-0.103-0.511-0.143c-0.241-0.048-0.492-0.072-0.745-0.072c-0.241-0.015-0.476-0.007-0.709,0.02      c-2.392,0.264-4.125,2.146-4.403,4.201c-0.085,0.21-0.157,0.423-0.218,0.643c-0.136,1.079-0.28,2.115-0.525,3.114      c-0.051,0.2-0.104,0.399-0.161,0.596c-0.468,1.74-1.63,3.933-0.715,5.488c0.115,0.195,0.263,0.38,0.446,0.552      c0.112,0.083,0.222,0.163,0.328,0.239c0.121,0.055,0.244,0.109,0.374,0.162c0.243,0.073,0.477,0.108,0.703,0.11      c1.813,0.011,3.138-2.087,4.42-3.36c0.141-0.148,0.288-0.293,0.437-0.435c0.749-0.712,1.578-1.354,2.45-2.011      c0.16-0.163,0.312-0.331,0.45-0.51C51.192,20.191,51.962,17.754,50.996,15.563z"
   id="path151" />
				
					<linearGradient
   id="SVGID_8_"
   gradientUnits="userSpaceOnUse"
   x1="243.998"
   y1="-88.3838"
   x2="255.3766"
   y2="-88.2912"
   gradientTransform="matrix(0.866 0.5 -0.5 0.866 -216.561 -28.5116)">
					<stop
   offset="0"
   style="stop-color:#7A7890"
   id="stop153" />
					<stop
   offset="0.1989"
   style="stop-color:#7D7B92;stop-opacity:0.9699"
   id="stop155" />
					<stop
   offset="1"
   style="stop-color:#D0CDCD;stop-opacity:0.2"
   id="stop157" />
					<a:midPointStop
   offset="0"
   style="stop-color:#7A7890" />
					<a:midPointStop
   offset="0.5"
   style="stop-color:#7A7890" />
					<a:midPointStop
   offset="0.1989"
   style="stop-color:#7D7B92;stop-opacity:0.9699" />
					<a:midPointStop
   offset="0.5"
   style="stop-color:#7D7B92;stop-opacity:0.9699" />
					<a:midPointStop
   offset="1"
   style="stop-color:#D0CDCD;stop-opacity:0.2" />
				</linearGradient>
				<path
   fill="url(#SVGID_8_)"
   d="M40.708,27.5c0.121,0.055,0.244,0.109,0.374,0.162c0.243,0.073,0.477,0.108,0.703,0.11      c1.813,0.011,3.138-2.087,4.42-3.36c0.141-0.148,0.288-0.293,0.437-0.435c0.749-0.712,1.578-1.354,2.45-2.011      c0.16-0.163,0.312-0.331,0.45-0.51c1.65-1.266,2.42-3.703,1.454-5.894c-0.094-0.214-0.204-0.422-0.337-0.622      c-0.127-0.219-0.272-0.421-0.436-0.607c-0.125-0.132-0.252-0.255-0.38-0.369c-0.284-0.249-0.588-0.462-0.909-0.64"
   id="path160" />
				
					<linearGradient
   id="SVGID_9_"
   gradientUnits="userSpaceOnUse"
   x1="250.834"
   y1="-91.3555"
   x2="250.834"
   y2="-95.5733"
   gradientTransform="matrix(0.866 0.5 -0.5 0.866 -216.561 -28.5116)">
					<stop
   offset="0"
   style="stop-color:#FFFFFF;stop-opacity:0"
   id="stop162" />
					<stop
   offset="1"
   style="stop-color:#FFFFFF"
   id="stop164" />
					<a:midPointStop
   offset="0"
   style="stop-color:#FFFFFF;stop-opacity:0" />
					<a:midPointStop
   offset="0.5"
   style="stop-color:#FFFFFF;stop-opacity:0" />
					<a:midPointStop
   offset="1"
   style="stop-color:#FFFFFF" />
				</linearGradient>
				<path
   fill="url(#SVGID_9_)"
   d="M50.525,20.409c0.924-1.331,1.212-3.161,0.469-4.848c-0.094-0.215-0.206-0.422-0.337-0.622      c-0.127-0.218-0.274-0.421-0.438-0.606c-0.125-0.132-0.25-0.254-0.38-0.369c-0.282-0.25-0.588-0.463-0.909-0.64      c-0.313-0.188-0.652-0.345-1.012-0.465c-0.164-0.053-0.335-0.102-0.511-0.142c-0.243-0.048-0.492-0.072-0.747-0.072      c-0.239-0.014-0.475-0.007-0.709,0.02c-1.839,0.203-3.287,1.366-3.986,2.828L50.525,20.409z"
   id="path167" />
			</g>
		</g>
		<ellipse
   fill="#6B768E"
   cx="40.713"
   cy="27.5"
   rx="3.841"
   ry="3.822"
   id="ellipse173" />
		<ellipse
   fill="#FFFFFF"
   cx="40.712"
   cy="27.5"
   rx="3.072"
   ry="3.057"
   id="ellipse175" />
	</g>
</g>
</svg>
