<?xml version="1.0" encoding="UTF-8" standalone="no"?>
<svg
   xmlns:a="http://ns.adobe.com/AdobeSVGViewerExtensions/3.0/"
   xmlns:dc="http://purl.org/dc/elements/1.1/"
   xmlns:cc="http://creativecommons.org/ns#"
   xmlns:rdf="http://www.w3.org/1999/02/22-rdf-syntax-ns#"
   xmlns:svg="http://www.w3.org/2000/svg"
   xmlns="http://www.w3.org/2000/svg"
   xmlns:sodipodi="http://sodipodi.sourceforge.net/DTD/sodipodi-0.dtd"
   xmlns:inkscape="http://www.inkscape.org/namespaces/inkscape"
   version="1.1"
   id="图层_1"
   x="0px"
   y="0px"
   width="60px"
   height="100px"
   viewBox="0 0 60 100"
   enable-background="new 0 0 60 100"
   xml:space="preserve"
   sodipodi:docname="排风机_45-01.svg"><metadata
   id="metadata156"><rdf:RDF><cc:Work
       rdf:about=""><dc:format>image/svg+xml</dc:format><dc:type
         rdf:resource="http://purl.org/dc/dcmitype/StillImage" /></cc:Work></rdf:RDF></metadata><defs
   id="defs154" /><sodipodi:namedview
   pagecolor="#ffffff"
   bordercolor="#666666"
   borderopacity="1"
   objecttolerance="10"
   gridtolerance="10"
   guidetolerance="10"
   inkscape:pageopacity="0"
   inkscape:pageshadow="2"
   inkscape:window-width="640"
   inkscape:window-height="480"
   id="namedview152" />
<g
   id="g149">
	<rect
   fill="#4C4C4C"
   width="60"
   height="92.143"
   id="rect2" />
	<rect
   x="1.92"
   y="2.948"
   fill="#F0BD00"
   width="56.16"
   height="86.245"
   id="rect4" />
	<rect
   x="1.92"
   y="2.948"
   fill="#727272"
   width="56.16"
   height="17.751"
   id="rect6" />
	<rect
   x="1.92"
   y="20.699"
   fill="#E6E6E6"
   width="56.16"
   height="0.984"
   id="rect8" />
	<linearGradient
   id="SVGID_1_"
   gradientUnits="userSpaceOnUse"
   x1="-0.4058"
   y1="78.7344"
   x2="29.523"
   y2="-7.0944">
		<stop
   offset="0"
   style="stop-color:#FFFFFF;stop-opacity:0"
   id="stop10" />
		<stop
   offset="1"
   style="stop-color:#FFFFFF"
   id="stop12" />
		<a:midPointStop
   offset="0"
   style="stop-color:#FFFFFF;stop-opacity:0" />
		<a:midPointStop
   offset="0.5"
   style="stop-color:#FFFFFF;stop-opacity:0" />
		<a:midPointStop
   offset="1"
   style="stop-color:#FFFFFF" />
	</linearGradient>
	<polygon
   fill="url(#SVGID_1_)"
   points="9.62,87.59 1.92,87.59 1.92,20.699 37.74,20.699  "
   id="polygon15" />
	<g
   id="g53">
		<g
   id="g21">
			<rect
   x="7.808"
   y="6.014"
   fill="#231F20"
   width="2.436"
   height="7.251"
   id="rect17" />
			<rect
   x="7.694"
   y="6.014"
   fill="#999999"
   width="1.446"
   height="7.251"
   id="rect19" />
		</g>
		<g
   id="g27">
			<rect
   x="7.694"
   y="15.217"
   fill="#231F20"
   width="7.996"
   height="2.417"
   id="rect23" />
			<rect
   x="7.694"
   y="15.104"
   fill="#999999"
   width="7.996"
   height="1.911"
   id="rect25" />
		</g>
		<g
   id="g33">
			<rect
   x="18.584"
   y="15.217"
   fill="#231F20"
   width="7.995"
   height="2.417"
   id="rect29" />
			<rect
   x="18.584"
   y="15.104"
   fill="#999999"
   width="7.995"
   height="1.911"
   id="rect31" />
		</g>
		<g
   id="g39">
			<rect
   x="13.253"
   y="6.014"
   fill="#231F20"
   width="2.437"
   height="7.251"
   id="rect35" />
			<rect
   x="13.139"
   y="6.014"
   fill="#999999"
   width="1.447"
   height="7.251"
   id="rect37" />
		</g>
		<g
   id="g45">
			<rect
   x="18.698"
   y="6.014"
   fill="#231F20"
   width="2.436"
   height="7.251"
   id="rect41" />
			<rect
   x="18.584"
   y="6.014"
   fill="#999999"
   width="1.446"
   height="7.251"
   id="rect43" />
		</g>
		<g
   id="g51">
			<rect
   x="24.144"
   y="6.014"
   fill="#231F20"
   width="2.436"
   height="7.251"
   id="rect47" />
			<rect
   x="24.028"
   y="6.014"
   fill="#999999"
   width="1.447"
   height="7.251"
   id="rect49" />
		</g>
	</g>
	<g
   id="g59">
		<rect
   x="31.268"
   y="10.51"
   fill="#231F20"
   width="5.048"
   height="3.919"
   id="rect55" />
		<rect
   x="32.384"
   y="9.219"
   fill="#231F20"
   width="2.817"
   height="2.333"
   id="rect57" />
	</g>
	<g
   id="g65">
		<rect
   x="39.177"
   y="10.51"
   fill="#231F20"
   width="5.049"
   height="3.919"
   id="rect61" />
		<rect
   x="40.292"
   y="9.219"
   fill="#231F20"
   width="2.818"
   height="2.333"
   id="rect63" />
	</g>
	<rect
   y="92.143"
   fill="#4C4C4C"
   width="3.115"
   height="7.857"
   id="rect67" />
	<rect
   x="56.885"
   y="92.143"
   fill="#4C4C4C"
   width="3.115"
   height="7.857"
   id="rect69" />
	<rect
   x="6.25"
   y="57.703"
   fill="#FFC200"
   width="47.521"
   height="25.207"
   id="rect71" />
	<polygon
   fill="#CC9600"
   points="53.771,58.686 53.771,57.703 6.25,57.703 6.25,82.91 7.239,82.91 7.239,58.686  "
   id="polygon73" />
	<polygon
   fill="#F9DFA5"
   points="52.78,58.686 52.78,81.928 7.239,81.928 6.25,82.91 53.771,82.91 53.771,57.703  "
   id="polygon75" />
	<rect
   x="24.624"
   y="60.533"
   fill="#CC9600"
   width="10.689"
   height="19.344"
   id="rect77" />
	<rect
   x="39.513"
   y="60.533"
   fill="#CC9600"
   width="10.689"
   height="19.344"
   id="rect79" />
	<rect
   x="9.735"
   y="60.533"
   fill="#CC9600"
   width="10.69"
   height="19.344"
   id="rect81" />
	<g
   id="g103">
		<rect
   x="10.575"
   y="61.904"
   fill="#D6B17B"
   width="9.008"
   height="0.283"
   id="rect83" />
		<rect
   x="10.575"
   y="63.718"
   fill="#D6B17B"
   width="9.008"
   height="0.283"
   id="rect85" />
		<rect
   x="10.575"
   y="65.53"
   fill="#D6B17B"
   width="9.008"
   height="0.283"
   id="rect87" />
		<rect
   x="10.575"
   y="67.345"
   fill="#D6B17B"
   width="9.008"
   height="0.283"
   id="rect89" />
		<rect
   x="10.575"
   y="69.157"
   fill="#D6B17B"
   width="9.008"
   height="0.283"
   id="rect91" />
		<rect
   x="10.575"
   y="70.97"
   fill="#D6B17B"
   width="9.008"
   height="0.283"
   id="rect93" />
		<rect
   x="10.575"
   y="72.783"
   fill="#D6B17B"
   width="9.008"
   height="0.283"
   id="rect95" />
		<rect
   x="10.575"
   y="74.598"
   fill="#D6B17B"
   width="9.008"
   height="0.283"
   id="rect97" />
		<rect
   x="10.575"
   y="76.41"
   fill="#D6B17B"
   width="9.008"
   height="0.283"
   id="rect99" />
		<rect
   x="10.575"
   y="78.223"
   fill="#D6B17B"
   width="9.008"
   height="0.283"
   id="rect101" />
	</g>
	<g
   id="g125">
		<rect
   x="25.464"
   y="61.904"
   fill="#D6B17B"
   width="9.008"
   height="0.283"
   id="rect105" />
		<rect
   x="25.464"
   y="63.718"
   fill="#D6B17B"
   width="9.008"
   height="0.283"
   id="rect107" />
		<rect
   x="25.464"
   y="65.53"
   fill="#D6B17B"
   width="9.008"
   height="0.283"
   id="rect109" />
		<rect
   x="25.464"
   y="67.345"
   fill="#D6B17B"
   width="9.008"
   height="0.283"
   id="rect111" />
		<rect
   x="25.464"
   y="69.157"
   fill="#D6B17B"
   width="9.008"
   height="0.283"
   id="rect113" />
		<rect
   x="25.464"
   y="70.97"
   fill="#D6B17B"
   width="9.008"
   height="0.283"
   id="rect115" />
		<rect
   x="25.464"
   y="72.783"
   fill="#D6B17B"
   width="9.008"
   height="0.283"
   id="rect117" />
		<rect
   x="25.464"
   y="74.598"
   fill="#D6B17B"
   width="9.008"
   height="0.283"
   id="rect119" />
		<rect
   x="25.464"
   y="76.41"
   fill="#D6B17B"
   width="9.008"
   height="0.283"
   id="rect121" />
		<rect
   x="25.464"
   y="78.223"
   fill="#D6B17B"
   width="9.008"
   height="0.283"
   id="rect123" />
	</g>
	<g
   id="g147">
		<rect
   x="40.353"
   y="61.904"
   fill="#D6B17B"
   width="9.008"
   height="0.283"
   id="rect127" />
		<rect
   x="40.353"
   y="63.718"
   fill="#D6B17B"
   width="9.008"
   height="0.283"
   id="rect129" />
		<rect
   x="40.353"
   y="65.53"
   fill="#D6B17B"
   width="9.008"
   height="0.283"
   id="rect131" />
		<rect
   x="40.353"
   y="67.345"
   fill="#D6B17B"
   width="9.008"
   height="0.283"
   id="rect133" />
		<rect
   x="40.353"
   y="69.157"
   fill="#D6B17B"
   width="9.008"
   height="0.283"
   id="rect135" />
		<rect
   x="40.353"
   y="70.97"
   fill="#D6B17B"
   width="9.008"
   height="0.283"
   id="rect137" />
		<rect
   x="40.353"
   y="72.783"
   fill="#D6B17B"
   width="9.008"
   height="0.283"
   id="rect139" />
		<rect
   x="40.353"
   y="74.598"
   fill="#D6B17B"
   width="9.008"
   height="0.283"
   id="rect141" />
		<rect
   x="40.353"
   y="76.41"
   fill="#D6B17B"
   width="9.008"
   height="0.283"
   id="rect143" />
		<rect
   x="40.353"
   y="78.223"
   fill="#D6B17B"
   width="9.008"
   height="0.283"
   id="rect145" />
	</g>
</g>
</svg>
