<?xml version="1.0" encoding="UTF-8" standalone="no"?>
<svg
   xmlns:a="http://ns.adobe.com/AdobeSVGViewerExtensions/3.0/"
   xmlns:dc="http://purl.org/dc/elements/1.1/"
   xmlns:cc="http://creativecommons.org/ns#"
   xmlns:rdf="http://www.w3.org/1999/02/22-rdf-syntax-ns#"
   xmlns:svg="http://www.w3.org/2000/svg"
   xmlns="http://www.w3.org/2000/svg"
   xmlns:sodipodi="http://sodipodi.sourceforge.net/DTD/sodipodi-0.dtd"
   xmlns:inkscape="http://www.inkscape.org/namespaces/inkscape"
   version="1.1"
   id="图层_1"
   x="0px"
   y="0px"
   width="98px"
   height="79px"
   viewBox="0 0 98 79"
   enable-background="new 0 0 98 79"
   xml:space="preserve"
   sodipodi:docname="排风机_46-01.svg"><metadata
   id="metadata97"><rdf:RDF><cc:Work
       rdf:about=""><dc:format>image/svg+xml</dc:format><dc:type
         rdf:resource="http://purl.org/dc/dcmitype/StillImage" /></cc:Work></rdf:RDF></metadata><defs
   id="defs95" /><sodipodi:namedview
   pagecolor="#ffffff"
   bordercolor="#666666"
   borderopacity="1"
   objecttolerance="10"
   gridtolerance="10"
   guidetolerance="10"
   inkscape:pageopacity="0"
   inkscape:pageshadow="2"
   inkscape:window-width="640"
   inkscape:window-height="480"
   id="namedview93" />
<g
   id="g90">
	<g
   id="g6">
		<rect
   x="0.5"
   y="0.5"
   fill="#B2B2B2"
   width="97.001"
   height="78"
   id="rect2" />
		<path
   fill="#231F20"
   d="M98.001,79H0V0h98.001V79z M1,78h96.001V1H1V78z"
   id="path4" />
	</g>
	<rect
   x="49"
   y="0.5"
   fill="#4C4C4C"
   width="48.5"
   height="70.936"
   id="rect8" />
	<rect
   x="50.722"
   y="2.121"
   fill="#CCCCCC"
   width="45.057"
   height="67.694"
   id="rect10" />
	<rect
   x="0.5"
   y="0.5"
   fill="#CCCCCC"
   width="48.5"
   height="70.936"
   id="rect12" />
	<polyline
   fill="#CCCCCC"
   points="49,18.438 49,71.436 42.258,71.436  "
   id="polyline14" />
	<rect
   x="0.5"
   y="0.5"
   fill="#727272"
   width="48.5"
   height="17.938"
   id="rect16" />
	<rect
   x="50.722"
   y="2.121"
   fill="#E6E6E6"
   width="45.057"
   height="0.995"
   id="rect18" />
	<rect
   x="0.5"
   y="71.436"
   fill="#999999"
   width="97.001"
   height="7.064"
   id="rect20" />
	<rect
   x="89.786"
   y="6.496"
   fill="#231F20"
   width="1.494"
   height="7.94"
   id="rect22" />
	<rect
   x="55.358"
   y="6.496"
   fill="#231F20"
   width="1.494"
   height="7.94"
   id="rect24" />
	<linearGradient
   id="SVGID_1_"
   gradientUnits="userSpaceOnUse"
   x1="47.4937"
   y1="60.6162"
   x2="77.5304"
   y2="-25.5224">
		<stop
   offset="0"
   style="stop-color:#FFFFFF;stop-opacity:0"
   id="stop26" />
		<stop
   offset="1"
   style="stop-color:#FFFFFF"
   id="stop28" />
		<a:midPointStop
   offset="0"
   style="stop-color:#FFFFFF;stop-opacity:0" />
		<a:midPointStop
   offset="0.5"
   style="stop-color:#FFFFFF;stop-opacity:0" />
		<a:midPointStop
   offset="1"
   style="stop-color:#FFFFFF" />
	</linearGradient>
	<polygon
   fill="url(#SVGID_1_)"
   points="60.921,69.814 50.722,69.814 50.722,2.121 85.06,2.121  "
   id="polygon31" />
	<linearGradient
   id="SVGID_2_"
   gradientUnits="userSpaceOnUse"
   x1="-1.9497"
   y1="62.833"
   x2="20.8464"
   y2="-2.5411">
		<stop
   offset="0"
   style="stop-color:#FFFFFF;stop-opacity:0"
   id="stop33" />
		<stop
   offset="1"
   style="stop-color:#FFFFFF"
   id="stop35" />
		<a:midPointStop
   offset="0"
   style="stop-color:#FFFFFF;stop-opacity:0" />
		<a:midPointStop
   offset="0.5"
   style="stop-color:#FFFFFF;stop-opacity:0" />
		<a:midPointStop
   offset="1"
   style="stop-color:#FFFFFF" />
	</linearGradient>
	<polygon
   fill="url(#SVGID_2_)"
   points="8.241,69.814 0.5,69.814 0.5,18.438 26.561,18.438  "
   id="polygon38" />
	<g
   id="g76">
		<g
   id="g44">
			<rect
   x="6.42"
   y="3.598"
   fill="#231F20"
   width="2.449"
   height="7.327"
   id="rect40" />
			<rect
   x="6.305"
   y="3.598"
   fill="#999999"
   width="1.455"
   height="7.327"
   id="rect42" />
		</g>
		<g
   id="g50">
			<rect
   x="6.305"
   y="12.898"
   fill="#231F20"
   width="8.039"
   height="2.442"
   id="rect46" />
			<rect
   x="6.305"
   y="12.784"
   fill="#999999"
   width="8.039"
   height="1.931"
   id="rect48" />
		</g>
		<g
   id="g56">
			<rect
   x="17.254"
   y="12.898"
   fill="#231F20"
   width="8.039"
   height="2.442"
   id="rect52" />
			<rect
   x="17.254"
   y="12.784"
   fill="#999999"
   width="8.039"
   height="1.931"
   id="rect54" />
		</g>
		<g
   id="g62">
			<rect
   x="11.895"
   y="3.598"
   fill="#231F20"
   width="2.449"
   height="7.327"
   id="rect58" />
			<rect
   x="11.779"
   y="3.598"
   fill="#999999"
   width="1.454"
   height="7.327"
   id="rect60" />
		</g>
		<g
   id="g68">
			<rect
   x="17.369"
   y="3.598"
   fill="#231F20"
   width="2.449"
   height="7.327"
   id="rect64" />
			<rect
   x="17.254"
   y="3.598"
   fill="#999999"
   width="1.454"
   height="7.327"
   id="rect66" />
		</g>
		<g
   id="g74">
			<rect
   x="22.843"
   y="3.598"
   fill="#231F20"
   width="2.45"
   height="7.327"
   id="rect70" />
			<rect
   x="22.729"
   y="3.598"
   fill="#999999"
   width="1.454"
   height="7.327"
   id="rect72" />
		</g>
	</g>
	<g
   id="g82">
		<rect
   x="30.006"
   y="8.141"
   fill="#231F20"
   width="5.076"
   height="3.961"
   id="rect78" />
		<rect
   x="31.128"
   y="6.837"
   fill="#231F20"
   width="2.833"
   height="2.356"
   id="rect80" />
	</g>
	<g
   id="g88">
		<rect
   x="37.958"
   y="8.141"
   fill="#231F20"
   width="5.076"
   height="3.961"
   id="rect84" />
		<rect
   x="39.081"
   y="6.837"
   fill="#231F20"
   width="2.832"
   height="2.356"
   id="rect86" />
	</g>
</g>
</svg>
