<?xml version="1.0" encoding="UTF-8" standalone="no"?>
<svg
   xmlns:dc="http://purl.org/dc/elements/1.1/"
   xmlns:cc="http://creativecommons.org/ns#"
   xmlns:rdf="http://www.w3.org/1999/02/22-rdf-syntax-ns#"
   xmlns:svg="http://www.w3.org/2000/svg"
   xmlns="http://www.w3.org/2000/svg"
   xmlns:sodipodi="http://sodipodi.sourceforge.net/DTD/sodipodi-0.dtd"
   xmlns:inkscape="http://www.inkscape.org/namespaces/inkscape"
   version="1.1"
   id="图层_1"
   x="0px"
   y="0px"
   width="86px"
   height="61px"
   viewBox="0 0 86 61"
   enable-background="new 0 0 86 61"
   xml:space="preserve"
   sodipodi:docname="排风机_48-01.svg"><metadata
   id="metadata207"><rdf:RDF><cc:Work
       rdf:about=""><dc:format>image/svg+xml</dc:format><dc:type
         rdf:resource="http://purl.org/dc/dcmitype/StillImage" /></cc:Work></rdf:RDF></metadata><defs
   id="defs205" /><sodipodi:namedview
   pagecolor="#ffffff"
   bordercolor="#666666"
   borderopacity="1"
   objecttolerance="10"
   gridtolerance="10"
   guidetolerance="10"
   inkscape:pageopacity="0"
   inkscape:pageshadow="2"
   inkscape:window-width="640"
   inkscape:window-height="480"
   id="namedview203" />
<g
   id="g200">
	<g
   id="g6">
		<rect
   x="0.5"
   y="8.1"
   fill="#669966"
   width="70.84"
   height="52.4"
   id="rect2" />
		<path
   fill="#231F20"
   d="M71.34,61H0.5C0.224,61,0,60.775,0,60.5V8.1c0-0.276,0.224-0.5,0.5-0.5h70.84c0.276,0,0.5,0.224,0.5,0.5    v52.4C71.84,60.775,71.616,61,71.34,61z M1,60h69.84V8.601H1V60z"
   id="path4" />
	</g>
	<g
   id="g12">
		<polygon
   fill="#3F7F3F"
   points="85.5,52.025 71.34,60.5 71.34,8.1 85.5,0.5   "
   id="polygon8" />
		<path
   fill="#231F20"
   d="M71.34,61c-0.085,0-0.17-0.021-0.247-0.064c-0.156-0.09-0.253-0.256-0.253-0.436V8.1    c0-0.184,0.101-0.354,0.264-0.44l14.16-7.6c0.153-0.083,0.343-0.079,0.493,0.012C85.908,0.161,86,0.324,86,0.5v51.525    c0,0.176-0.092,0.338-0.243,0.429l-14.16,8.476C71.518,60.977,71.429,61,71.34,61z M71.84,8.399v51.218L85,51.741V1.337    L71.84,8.399z"
   id="path10" />
	</g>
	<g
   id="g18">
		<polygon
   fill="#97BF97"
   points="71.34,8.1 0.5,8.1 20.076,0.5 85.5,0.5   "
   id="polygon14" />
		<path
   fill="#231F20"
   d="M71.34,8.601H0.5c-0.241,0-0.447-0.172-0.492-0.408c-0.044-0.237,0.087-0.472,0.312-0.559l19.576-7.6    C19.953,0.012,20.015,0,20.076,0H85.5c0.229,0,0.43,0.156,0.485,0.378c0.056,0.223-0.047,0.455-0.249,0.563l-14.16,7.6    C71.504,8.58,71.423,8.601,71.34,8.601z M3.171,7.6h68.043L83.51,1.001H20.17L3.171,7.6z"
   id="path16" />
	</g>
	<g
   id="g54">
		<rect
   x="5.471"
   y="14.148"
   fill="#B2CCB2"
   width="11.693"
   height="42.244"
   id="rect20" />
		<g
   id="g52">
			<path
   fill="#3F7F3F"
   d="M15.131,17.809H7.227c-0.276,0-0.5-0.224-0.5-0.5s0.224-0.501,0.5-0.501h7.904     c0.276,0,0.5,0.225,0.5,0.501S15.407,17.809,15.131,17.809z"
   id="path22" />
			<path
   fill="#3F7F3F"
   d="M15.131,20.375H7.227c-0.276,0-0.5-0.224-0.5-0.5s0.224-0.501,0.5-0.501h7.904     c0.276,0,0.5,0.225,0.5,0.501S15.407,20.375,15.131,20.375z"
   id="path24" />
			<path
   fill="#3F7F3F"
   d="M15.131,22.941H7.227c-0.276,0-0.5-0.224-0.5-0.5s0.224-0.501,0.5-0.501h7.904     c0.276,0,0.5,0.225,0.5,0.501S15.407,22.941,15.131,22.941z"
   id="path26" />
			<path
   fill="#3F7F3F"
   d="M15.131,25.507H7.227c-0.276,0-0.5-0.225-0.5-0.501s0.224-0.5,0.5-0.5h7.904c0.276,0,0.5,0.224,0.5,0.5     S15.407,25.507,15.131,25.507z"
   id="path28" />
			<path
   fill="#3F7F3F"
   d="M15.131,28.073H7.227c-0.276,0-0.5-0.225-0.5-0.501s0.224-0.5,0.5-0.5h7.904c0.276,0,0.5,0.224,0.5,0.5     S15.407,28.073,15.131,28.073z"
   id="path30" />
			<path
   fill="#3F7F3F"
   d="M15.131,30.64H7.227c-0.276,0-0.5-0.225-0.5-0.501s0.224-0.5,0.5-0.5h7.904c0.276,0,0.5,0.224,0.5,0.5     S15.407,30.64,15.131,30.64z"
   id="path32" />
			<path
   fill="#3F7F3F"
   d="M15.131,33.205H7.227c-0.276,0-0.5-0.225-0.5-0.501s0.224-0.5,0.5-0.5h7.904c0.276,0,0.5,0.224,0.5,0.5     S15.407,33.205,15.131,33.205z"
   id="path34" />
			<path
   fill="#3F7F3F"
   d="M15.131,35.771H7.227c-0.276,0-0.5-0.225-0.5-0.501s0.224-0.501,0.5-0.501h7.904     c0.276,0,0.5,0.225,0.5,0.501S15.407,35.771,15.131,35.771z"
   id="path36" />
			<path
   fill="#3F7F3F"
   d="M15.131,38.337H7.227c-0.276,0-0.5-0.224-0.5-0.501c0-0.275,0.224-0.5,0.5-0.5h7.904     c0.276,0,0.5,0.225,0.5,0.5C15.631,38.113,15.407,38.337,15.131,38.337z"
   id="path38" />
			<path
   fill="#3F7F3F"
   d="M15.131,40.902H7.227c-0.276,0-0.5-0.225-0.5-0.5c0-0.277,0.224-0.501,0.5-0.501h7.904     c0.276,0,0.5,0.224,0.5,0.501C15.631,40.678,15.407,40.902,15.131,40.902z"
   id="path40" />
			<path
   fill="#3F7F3F"
   d="M15.131,43.469H7.227c-0.276,0-0.5-0.225-0.5-0.5c0-0.277,0.224-0.501,0.5-0.501h7.904     c0.276,0,0.5,0.224,0.5,0.501C15.631,43.244,15.407,43.469,15.131,43.469z"
   id="path42" />
			<path
   fill="#3F7F3F"
   d="M15.131,46.035H7.227c-0.276,0-0.5-0.225-0.5-0.5c0-0.277,0.224-0.501,0.5-0.501h7.904     c0.276,0,0.5,0.224,0.5,0.501C15.631,45.811,15.407,46.035,15.131,46.035z"
   id="path44" />
			<path
   fill="#3F7F3F"
   d="M15.131,48.601H7.227c-0.276,0-0.5-0.224-0.5-0.501c0-0.275,0.224-0.5,0.5-0.5h7.904     c0.276,0,0.5,0.225,0.5,0.5C15.631,48.377,15.407,48.601,15.131,48.601z"
   id="path46" />
			<path
   fill="#3F7F3F"
   d="M15.131,51.166H7.227c-0.276,0-0.5-0.225-0.5-0.501s0.224-0.501,0.5-0.501h7.904     c0.276,0,0.5,0.225,0.5,0.501S15.407,51.166,15.131,51.166z"
   id="path48" />
			<path
   fill="#3F7F3F"
   d="M15.131,53.732H7.227c-0.276,0-0.5-0.225-0.5-0.501s0.224-0.501,0.5-0.501h7.904     c0.276,0,0.5,0.225,0.5,0.501S15.407,53.732,15.131,53.732z"
   id="path50" />
		</g>
	</g>
	<g
   id="g90">
		<rect
   x="21.615"
   y="14.148"
   fill="#B2CCB2"
   width="11.693"
   height="42.244"
   id="rect56" />
		<g
   id="g88">
			<path
   fill="#3F7F3F"
   d="M31.277,17.809h-7.906c-0.276,0-0.5-0.224-0.5-0.5s0.224-0.501,0.5-0.501h7.906     c0.276,0,0.5,0.225,0.5,0.501S31.554,17.809,31.277,17.809z"
   id="path58" />
			<path
   fill="#3F7F3F"
   d="M31.277,20.375h-7.906c-0.276,0-0.5-0.224-0.5-0.5s0.224-0.501,0.5-0.501h7.906     c0.276,0,0.5,0.225,0.5,0.501S31.554,20.375,31.277,20.375z"
   id="path60" />
			<path
   fill="#3F7F3F"
   d="M31.277,22.941h-7.906c-0.276,0-0.5-0.224-0.5-0.5s0.224-0.501,0.5-0.501h7.906     c0.276,0,0.5,0.225,0.5,0.501S31.554,22.941,31.277,22.941z"
   id="path62" />
			<path
   fill="#3F7F3F"
   d="M31.277,25.507h-7.906c-0.276,0-0.5-0.225-0.5-0.501s0.224-0.5,0.5-0.5h7.906c0.276,0,0.5,0.224,0.5,0.5     S31.554,25.507,31.277,25.507z"
   id="path64" />
			<path
   fill="#3F7F3F"
   d="M31.277,28.073h-7.906c-0.276,0-0.5-0.225-0.5-0.501s0.224-0.5,0.5-0.5h7.906c0.276,0,0.5,0.224,0.5,0.5     S31.554,28.073,31.277,28.073z"
   id="path66" />
			<path
   fill="#3F7F3F"
   d="M31.277,30.64h-7.906c-0.276,0-0.5-0.225-0.5-0.501s0.224-0.5,0.5-0.5h7.906c0.276,0,0.5,0.224,0.5,0.5     S31.554,30.64,31.277,30.64z"
   id="path68" />
			<path
   fill="#3F7F3F"
   d="M31.277,33.205h-7.906c-0.276,0-0.5-0.225-0.5-0.501s0.224-0.5,0.5-0.5h7.906c0.276,0,0.5,0.224,0.5,0.5     S31.554,33.205,31.277,33.205z"
   id="path70" />
			<path
   fill="#3F7F3F"
   d="M31.277,35.771h-7.906c-0.276,0-0.5-0.225-0.5-0.501s0.224-0.501,0.5-0.501h7.906     c0.276,0,0.5,0.225,0.5,0.501S31.554,35.771,31.277,35.771z"
   id="path72" />
			<path
   fill="#3F7F3F"
   d="M31.277,38.337h-7.906c-0.276,0-0.5-0.224-0.5-0.501c0-0.275,0.224-0.5,0.5-0.5h7.906     c0.276,0,0.5,0.225,0.5,0.5C31.777,38.113,31.554,38.337,31.277,38.337z"
   id="path74" />
			<path
   fill="#3F7F3F"
   d="M31.277,40.902h-7.906c-0.276,0-0.5-0.225-0.5-0.5c0-0.277,0.224-0.501,0.5-0.501h7.906     c0.276,0,0.5,0.224,0.5,0.501C31.777,40.678,31.554,40.902,31.277,40.902z"
   id="path76" />
			<path
   fill="#3F7F3F"
   d="M31.277,43.469h-7.906c-0.276,0-0.5-0.225-0.5-0.5c0-0.277,0.224-0.501,0.5-0.501h7.906     c0.276,0,0.5,0.224,0.5,0.501C31.777,43.244,31.554,43.469,31.277,43.469z"
   id="path78" />
			<path
   fill="#3F7F3F"
   d="M31.277,46.035h-7.906c-0.276,0-0.5-0.225-0.5-0.5c0-0.277,0.224-0.501,0.5-0.501h7.906     c0.276,0,0.5,0.224,0.5,0.501C31.777,45.811,31.554,46.035,31.277,46.035z"
   id="path80" />
			<path
   fill="#3F7F3F"
   d="M31.277,48.601h-7.906c-0.276,0-0.5-0.224-0.5-0.501c0-0.275,0.224-0.5,0.5-0.5h7.906     c0.276,0,0.5,0.225,0.5,0.5C31.777,48.377,31.554,48.601,31.277,48.601z"
   id="path82" />
			<path
   fill="#3F7F3F"
   d="M31.277,51.166h-7.906c-0.276,0-0.5-0.225-0.5-0.501s0.224-0.501,0.5-0.501h7.906     c0.276,0,0.5,0.225,0.5,0.501S31.554,51.166,31.277,51.166z"
   id="path84" />
			<path
   fill="#3F7F3F"
   d="M31.277,53.732h-7.906c-0.276,0-0.5-0.225-0.5-0.501s0.224-0.501,0.5-0.501h7.906     c0.276,0,0.5,0.225,0.5,0.501S31.554,53.732,31.277,53.732z"
   id="path86" />
		</g>
	</g>
	<g
   id="g126">
		<rect
   x="37.762"
   y="14.148"
   fill="#B2CCB2"
   width="11.691"
   height="42.244"
   id="rect92" />
		<g
   id="g124">
			<path
   fill="#3F7F3F"
   d="M47.422,17.809h-7.904c-0.276,0-0.5-0.224-0.5-0.5s0.224-0.501,0.5-0.501h7.904     c0.276,0,0.5,0.225,0.5,0.501S47.698,17.809,47.422,17.809z"
   id="path94" />
			<path
   fill="#3F7F3F"
   d="M47.422,20.375h-7.904c-0.276,0-0.5-0.224-0.5-0.5s0.224-0.501,0.5-0.501h7.904     c0.276,0,0.5,0.225,0.5,0.501S47.698,20.375,47.422,20.375z"
   id="path96" />
			<path
   fill="#3F7F3F"
   d="M47.422,22.941h-7.904c-0.276,0-0.5-0.224-0.5-0.5s0.224-0.501,0.5-0.501h7.904     c0.276,0,0.5,0.225,0.5,0.501S47.698,22.941,47.422,22.941z"
   id="path98" />
			<path
   fill="#3F7F3F"
   d="M47.422,25.507h-7.904c-0.276,0-0.5-0.225-0.5-0.501s0.224-0.5,0.5-0.5h7.904c0.276,0,0.5,0.224,0.5,0.5     S47.698,25.507,47.422,25.507z"
   id="path100" />
			<path
   fill="#3F7F3F"
   d="M47.422,28.073h-7.904c-0.276,0-0.5-0.225-0.5-0.501s0.224-0.5,0.5-0.5h7.904c0.276,0,0.5,0.224,0.5,0.5     S47.698,28.073,47.422,28.073z"
   id="path102" />
			<path
   fill="#3F7F3F"
   d="M47.422,30.64h-7.904c-0.276,0-0.5-0.225-0.5-0.501s0.224-0.5,0.5-0.5h7.904c0.276,0,0.5,0.224,0.5,0.5     S47.698,30.64,47.422,30.64z"
   id="path104" />
			<path
   fill="#3F7F3F"
   d="M47.422,33.205h-7.904c-0.276,0-0.5-0.225-0.5-0.501s0.224-0.5,0.5-0.5h7.904c0.276,0,0.5,0.224,0.5,0.5     S47.698,33.205,47.422,33.205z"
   id="path106" />
			<path
   fill="#3F7F3F"
   d="M47.422,35.771h-7.904c-0.276,0-0.5-0.225-0.5-0.501s0.224-0.501,0.5-0.501h7.904     c0.276,0,0.5,0.225,0.5,0.501S47.698,35.771,47.422,35.771z"
   id="path108" />
			<path
   fill="#3F7F3F"
   d="M47.422,38.337h-7.904c-0.276,0-0.5-0.224-0.5-0.501c0-0.275,0.224-0.5,0.5-0.5h7.904     c0.276,0,0.5,0.225,0.5,0.5C47.922,38.113,47.698,38.337,47.422,38.337z"
   id="path110" />
			<path
   fill="#3F7F3F"
   d="M47.422,40.902h-7.904c-0.276,0-0.5-0.225-0.5-0.5c0-0.277,0.224-0.501,0.5-0.501h7.904     c0.276,0,0.5,0.224,0.5,0.501C47.922,40.678,47.698,40.902,47.422,40.902z"
   id="path112" />
			<path
   fill="#3F7F3F"
   d="M47.422,43.469h-7.904c-0.276,0-0.5-0.225-0.5-0.5c0-0.277,0.224-0.501,0.5-0.501h7.904     c0.276,0,0.5,0.224,0.5,0.501C47.922,43.244,47.698,43.469,47.422,43.469z"
   id="path114" />
			<path
   fill="#3F7F3F"
   d="M47.422,46.035h-7.904c-0.276,0-0.5-0.225-0.5-0.5c0-0.277,0.224-0.501,0.5-0.501h7.904     c0.276,0,0.5,0.224,0.5,0.501C47.922,45.811,47.698,46.035,47.422,46.035z"
   id="path116" />
			<path
   fill="#3F7F3F"
   d="M47.422,48.601h-7.904c-0.276,0-0.5-0.224-0.5-0.501c0-0.275,0.224-0.5,0.5-0.5h7.904     c0.276,0,0.5,0.225,0.5,0.5C47.922,48.377,47.698,48.601,47.422,48.601z"
   id="path118" />
			<path
   fill="#3F7F3F"
   d="M47.422,51.166h-7.904c-0.276,0-0.5-0.225-0.5-0.501s0.224-0.501,0.5-0.501h7.904     c0.276,0,0.5,0.225,0.5,0.501S47.698,51.166,47.422,51.166z"
   id="path120" />
			<path
   fill="#3F7F3F"
   d="M47.422,53.732h-7.904c-0.276,0-0.5-0.225-0.5-0.501s0.224-0.501,0.5-0.501h7.904     c0.276,0,0.5,0.225,0.5,0.501S47.698,53.732,47.422,53.732z"
   id="path122" />
		</g>
	</g>
	<g
   id="g162">
		<rect
   x="53.908"
   y="14.148"
   fill="#B2CCB2"
   width="11.691"
   height="42.244"
   id="rect128" />
		<g
   id="g160">
			<path
   fill="#3F7F3F"
   d="M63.568,17.809h-7.906c-0.276,0-0.5-0.224-0.5-0.5s0.224-0.501,0.5-0.501h7.906     c0.276,0,0.5,0.225,0.5,0.501S63.845,17.809,63.568,17.809z"
   id="path130" />
			<path
   fill="#3F7F3F"
   d="M63.568,20.375h-7.906c-0.276,0-0.5-0.224-0.5-0.5s0.224-0.501,0.5-0.501h7.906     c0.276,0,0.5,0.225,0.5,0.501S63.845,20.375,63.568,20.375z"
   id="path132" />
			<path
   fill="#3F7F3F"
   d="M63.568,22.941h-7.906c-0.276,0-0.5-0.224-0.5-0.5s0.224-0.501,0.5-0.501h7.906     c0.276,0,0.5,0.225,0.5,0.501S63.845,22.941,63.568,22.941z"
   id="path134" />
			<path
   fill="#3F7F3F"
   d="M63.568,25.507h-7.906c-0.276,0-0.5-0.225-0.5-0.501s0.224-0.5,0.5-0.5h7.906c0.276,0,0.5,0.224,0.5,0.5     S63.845,25.507,63.568,25.507z"
   id="path136" />
			<path
   fill="#3F7F3F"
   d="M63.568,28.073h-7.906c-0.276,0-0.5-0.225-0.5-0.501s0.224-0.5,0.5-0.5h7.906c0.276,0,0.5,0.224,0.5,0.5     S63.845,28.073,63.568,28.073z"
   id="path138" />
			<path
   fill="#3F7F3F"
   d="M63.568,30.64h-7.906c-0.276,0-0.5-0.225-0.5-0.501s0.224-0.5,0.5-0.5h7.906c0.276,0,0.5,0.224,0.5,0.5     S63.845,30.64,63.568,30.64z"
   id="path140" />
			<path
   fill="#3F7F3F"
   d="M63.568,33.205h-7.906c-0.276,0-0.5-0.225-0.5-0.501s0.224-0.5,0.5-0.5h7.906c0.276,0,0.5,0.224,0.5,0.5     S63.845,33.205,63.568,33.205z"
   id="path142" />
			<path
   fill="#3F7F3F"
   d="M63.568,35.771h-7.906c-0.276,0-0.5-0.225-0.5-0.501s0.224-0.501,0.5-0.501h7.906     c0.276,0,0.5,0.225,0.5,0.501S63.845,35.771,63.568,35.771z"
   id="path144" />
			<path
   fill="#3F7F3F"
   d="M63.568,38.337h-7.906c-0.276,0-0.5-0.224-0.5-0.501c0-0.275,0.224-0.5,0.5-0.5h7.906     c0.276,0,0.5,0.225,0.5,0.5C64.068,38.113,63.845,38.337,63.568,38.337z"
   id="path146" />
			<path
   fill="#3F7F3F"
   d="M63.568,40.902h-7.906c-0.276,0-0.5-0.225-0.5-0.5c0-0.277,0.224-0.501,0.5-0.501h7.906     c0.276,0,0.5,0.224,0.5,0.501C64.068,40.678,63.845,40.902,63.568,40.902z"
   id="path148" />
			<path
   fill="#3F7F3F"
   d="M63.568,43.469h-7.906c-0.276,0-0.5-0.225-0.5-0.5c0-0.277,0.224-0.501,0.5-0.501h7.906     c0.276,0,0.5,0.224,0.5,0.501C64.068,43.244,63.845,43.469,63.568,43.469z"
   id="path150" />
			<path
   fill="#3F7F3F"
   d="M63.568,46.035h-7.906c-0.276,0-0.5-0.225-0.5-0.5c0-0.277,0.224-0.501,0.5-0.501h7.906     c0.276,0,0.5,0.224,0.5,0.501C64.068,45.811,63.845,46.035,63.568,46.035z"
   id="path152" />
			<path
   fill="#3F7F3F"
   d="M63.568,48.601h-7.906c-0.276,0-0.5-0.224-0.5-0.501c0-0.275,0.224-0.5,0.5-0.5h7.906     c0.276,0,0.5,0.225,0.5,0.5C64.068,48.377,63.845,48.601,63.568,48.601z"
   id="path154" />
			<path
   fill="#3F7F3F"
   d="M63.568,51.166h-7.906c-0.276,0-0.5-0.225-0.5-0.501s0.224-0.501,0.5-0.501h7.906     c0.276,0,0.5,0.225,0.5,0.501S63.845,51.166,63.568,51.166z"
   id="path156" />
			<path
   fill="#3F7F3F"
   d="M63.568,53.732h-7.906c-0.276,0-0.5-0.225-0.5-0.501s0.224-0.501,0.5-0.501h7.906     c0.276,0,0.5,0.225,0.5,0.501S63.845,53.732,63.568,53.732z"
   id="path158" />
		</g>
	</g>
	<g
   opacity="0.7"
   id="g198">
		<polygon
   fill="#B2CCB2"
   points="83.047,49.484 74.254,54.957 74.254,12.713 83.047,7.24   "
   id="polygon164" />
		<g
   id="g196">
			<path
   fill="#3F7F3F"
   d="M75.574,15.553c-0.167,0-0.33-0.084-0.425-0.235c-0.146-0.235-0.074-0.544,0.16-0.689l5.943-3.701     c0.233-0.145,0.544-0.073,0.689,0.16c0.146,0.235,0.074,0.544-0.16,0.689l-5.943,3.701     C75.757,15.528,75.665,15.553,75.574,15.553z"
   id="path166" />
			<path
   fill="#3F7F3F"
   d="M75.574,18.118c-0.167,0-0.33-0.084-0.425-0.236c-0.146-0.234-0.074-0.543,0.16-0.688l5.943-3.7     c0.233-0.144,0.544-0.074,0.689,0.161c0.146,0.234,0.074,0.543-0.16,0.688l-5.943,3.7C75.757,18.094,75.665,18.118,75.574,18.118     z"
   id="path168" />
			<path
   fill="#3F7F3F"
   d="M75.574,20.684c-0.167,0-0.33-0.084-0.425-0.236c-0.146-0.234-0.074-0.543,0.16-0.688l5.943-3.699     c0.236-0.145,0.544-0.074,0.689,0.161c0.146,0.234,0.074,0.543-0.16,0.688l-5.943,3.699     C75.756,20.659,75.665,20.684,75.574,20.684z"
   id="path170" />
			<path
   fill="#3F7F3F"
   d="M75.574,23.25c-0.167,0-0.33-0.084-0.425-0.235c-0.146-0.235-0.074-0.544,0.16-0.689l5.943-3.7     c0.233-0.145,0.544-0.073,0.689,0.16c0.146,0.234,0.074,0.543-0.16,0.689l-5.943,3.7C75.757,23.226,75.665,23.25,75.574,23.25z"
   id="path172" />
			<path
   fill="#3F7F3F"
   d="M75.574,25.816c-0.167,0-0.33-0.084-0.425-0.235c-0.146-0.235-0.074-0.544,0.16-0.689l5.943-3.7     c0.233-0.146,0.544-0.074,0.689,0.16s0.074,0.543-0.16,0.689l-5.943,3.7C75.757,25.792,75.665,25.816,75.574,25.816z"
   id="path174" />
			<path
   fill="#3F7F3F"
   d="M75.574,28.382c-0.167,0-0.33-0.084-0.425-0.236c-0.146-0.234-0.074-0.543,0.16-0.688l5.943-3.699     c0.236-0.145,0.544-0.074,0.689,0.16s0.074,0.543-0.16,0.689l-5.943,3.699C75.756,28.357,75.665,28.382,75.574,28.382z"
   id="path176" />
			<path
   fill="#3F7F3F"
   d="M75.574,30.948c-0.167,0-0.33-0.084-0.425-0.236c-0.146-0.234-0.074-0.543,0.16-0.689l5.943-3.699     c0.233-0.146,0.544-0.074,0.689,0.16s0.074,0.543-0.16,0.689l-5.943,3.699C75.757,30.924,75.665,30.948,75.574,30.948z"
   id="path178" />
			<path
   fill="#3F7F3F"
   d="M75.574,33.515c-0.167,0-0.33-0.084-0.425-0.236c-0.146-0.234-0.074-0.543,0.16-0.689l5.943-3.699     c0.233-0.146,0.544-0.074,0.689,0.16s0.074,0.543-0.16,0.689l-5.943,3.699C75.757,33.49,75.665,33.515,75.574,33.515z"
   id="path180" />
			<path
   fill="#3F7F3F"
   d="M75.574,36.08c-0.167,0-0.33-0.084-0.425-0.236c-0.146-0.234-0.074-0.543,0.16-0.689l5.943-3.699     c0.236-0.145,0.544-0.073,0.689,0.161s0.074,0.543-0.16,0.688l-5.943,3.699C75.756,36.055,75.665,36.08,75.574,36.08z"
   id="path182" />
			<path
   fill="#3F7F3F"
   d="M75.574,38.646c-0.167,0-0.33-0.084-0.425-0.236c-0.146-0.234-0.074-0.543,0.16-0.689l5.943-3.7     c0.233-0.145,0.544-0.073,0.689,0.16c0.146,0.235,0.074,0.544-0.16,0.689l-5.943,3.7C75.757,38.621,75.665,38.646,75.574,38.646z     "
   id="path184" />
			<path
   fill="#3F7F3F"
   d="M75.574,41.212c-0.167,0-0.33-0.084-0.425-0.236c-0.146-0.234-0.074-0.543,0.16-0.688l5.943-3.7     c0.233-0.145,0.544-0.074,0.689,0.161c0.146,0.234,0.074,0.543-0.16,0.688l-5.943,3.7C75.757,41.188,75.665,41.212,75.574,41.212     z"
   id="path186" />
			<path
   fill="#3F7F3F"
   d="M75.574,43.777c-0.167,0-0.33-0.084-0.425-0.236c-0.146-0.234-0.074-0.543,0.16-0.689l5.943-3.698     c0.236-0.146,0.544-0.073,0.689,0.161s0.074,0.543-0.16,0.688l-5.943,3.698C75.756,43.753,75.665,43.777,75.574,43.777z"
   id="path188" />
			<path
   fill="#3F7F3F"
   d="M75.574,46.344c-0.167,0-0.33-0.084-0.425-0.236c-0.146-0.234-0.074-0.543,0.16-0.689l5.943-3.699     c0.233-0.145,0.544-0.074,0.689,0.16s0.074,0.543-0.16,0.689l-5.943,3.699C75.757,46.319,75.665,46.344,75.574,46.344z"
   id="path190" />
			<path
   fill="#3F7F3F"
   d="M75.574,48.91c-0.167,0-0.33-0.084-0.425-0.236c-0.146-0.234-0.074-0.543,0.16-0.689l5.943-3.701     c0.233-0.145,0.544-0.073,0.689,0.16c0.146,0.235,0.074,0.544-0.16,0.689l-5.943,3.701C75.757,48.886,75.665,48.91,75.574,48.91z     "
   id="path192" />
			<path
   fill="#3F7F3F"
   d="M75.574,51.476c-0.167,0-0.33-0.084-0.425-0.235c-0.146-0.235-0.074-0.544,0.16-0.689l5.943-3.701     c0.233-0.145,0.544-0.073,0.689,0.16c0.146,0.235,0.074,0.544-0.16,0.689L75.839,51.4C75.757,51.451,75.665,51.476,75.574,51.476     z"
   id="path194" />
		</g>
	</g>
</g>
</svg>
