<?xml version="1.0" encoding="UTF-8" standalone="no"?>
<svg
   xmlns:a="http://ns.adobe.com/AdobeSVGViewerExtensions/3.0/"
   xmlns:dc="http://purl.org/dc/elements/1.1/"
   xmlns:cc="http://creativecommons.org/ns#"
   xmlns:rdf="http://www.w3.org/1999/02/22-rdf-syntax-ns#"
   xmlns:svg="http://www.w3.org/2000/svg"
   xmlns="http://www.w3.org/2000/svg"
   xmlns:sodipodi="http://sodipodi.sourceforge.net/DTD/sodipodi-0.dtd"
   xmlns:inkscape="http://www.inkscape.org/namespaces/inkscape"
   version="1.1"
   id="图层_1"
   x="0px"
   y="0px"
   width="101px"
   height="53px"
   viewBox="0 0 101 53"
   enable-background="new 0 0 101 53"
   xml:space="preserve"
   sodipodi:docname="排风机_49-01.svg"><metadata
   id="metadata100"><rdf:RDF><cc:Work
       rdf:about=""><dc:format>image/svg+xml</dc:format><dc:type
         rdf:resource="http://purl.org/dc/dcmitype/StillImage" /></cc:Work></rdf:RDF></metadata><defs
   id="defs98" /><sodipodi:namedview
   pagecolor="#ffffff"
   bordercolor="#666666"
   borderopacity="1"
   objecttolerance="10"
   gridtolerance="10"
   guidetolerance="10"
   inkscape:pageopacity="0"
   inkscape:pageshadow="2"
   inkscape:window-width="640"
   inkscape:window-height="480"
   id="namedview96" />
<g
   id="g93">
	<g
   id="g6">
		<rect
   x="8.723"
   y="0.5"
   fill="#F0BD00"
   width="91.777"
   height="52"
   id="rect2" />
		<path
   fill="#231F20"
   d="M101,53H8.223V0H101V53z M9.223,52H100V1H9.223V52z"
   id="path4" />
	</g>
	<g
   id="g12">
		<rect
   x="68.873"
   y="7.327"
   fill="#CC9600"
   width="23.076"
   height="39.554"
   id="rect8" />
		<path
   fill="#231F20"
   d="M92.449,47.381H68.373V6.827h24.076V47.381z M69.373,46.381h22.076V7.827H69.373V46.381z"
   id="path10" />
	</g>
	<rect
   x="69.139"
   y="8.52"
   fill="#8E6706"
   width="17.479"
   height="37.971"
   id="rect14" />
	<g
   id="g42">
		<rect
   x="10.734"
   y="49.219"
   fill="#896306"
   width="1.482"
   height="1.494"
   id="rect16" />
		<rect
   x="17.932"
   y="49.219"
   fill="#896306"
   width="1.48"
   height="1.494"
   id="rect18" />
		<rect
   x="25.127"
   y="49.219"
   fill="#896306"
   width="1.482"
   height="1.494"
   id="rect20" />
		<rect
   x="32.322"
   y="49.219"
   fill="#896306"
   width="1.484"
   height="1.494"
   id="rect22" />
		<rect
   x="39.52"
   y="49.219"
   fill="#896306"
   width="1.482"
   height="1.494"
   id="rect24" />
		<rect
   x="46.717"
   y="49.219"
   fill="#896306"
   width="1.482"
   height="1.494"
   id="rect26" />
		<rect
   x="53.914"
   y="49.219"
   fill="#896306"
   width="1.48"
   height="1.494"
   id="rect28" />
		<rect
   x="61.107"
   y="49.219"
   fill="#896306"
   width="1.484"
   height="1.494"
   id="rect30" />
		<rect
   x="68.305"
   y="49.219"
   fill="#896306"
   width="1.484"
   height="1.494"
   id="rect32" />
		<rect
   x="75.502"
   y="49.219"
   fill="#896306"
   width="1.482"
   height="1.494"
   id="rect34" />
		<rect
   x="82.699"
   y="49.219"
   fill="#896306"
   width="1.482"
   height="1.494"
   id="rect36" />
		<rect
   x="89.895"
   y="49.219"
   fill="#896306"
   width="1.482"
   height="1.494"
   id="rect38" />
		<rect
   x="97.092"
   y="49.219"
   fill="#896306"
   width="1.48"
   height="1.494"
   id="rect40" />
	</g>
	<g
   id="g70">
		<rect
   x="10.734"
   y="2.742"
   fill="#896306"
   width="1.482"
   height="1.491"
   id="rect44" />
		<rect
   x="17.932"
   y="2.742"
   fill="#896306"
   width="1.48"
   height="1.491"
   id="rect46" />
		<rect
   x="25.127"
   y="2.742"
   fill="#896306"
   width="1.482"
   height="1.491"
   id="rect48" />
		<rect
   x="32.322"
   y="2.742"
   fill="#896306"
   width="1.484"
   height="1.491"
   id="rect50" />
		<rect
   x="39.52"
   y="2.742"
   fill="#896306"
   width="1.482"
   height="1.491"
   id="rect52" />
		<rect
   x="46.717"
   y="2.742"
   fill="#896306"
   width="1.482"
   height="1.491"
   id="rect54" />
		<rect
   x="53.914"
   y="2.742"
   fill="#896306"
   width="1.48"
   height="1.491"
   id="rect56" />
		<rect
   x="61.107"
   y="2.742"
   fill="#896306"
   width="1.484"
   height="1.491"
   id="rect58" />
		<rect
   x="68.305"
   y="2.742"
   fill="#896306"
   width="1.484"
   height="1.491"
   id="rect60" />
		<rect
   x="75.502"
   y="2.742"
   fill="#896306"
   width="1.482"
   height="1.491"
   id="rect62" />
		<rect
   x="82.699"
   y="2.742"
   fill="#896306"
   width="1.482"
   height="1.491"
   id="rect64" />
		<rect
   x="89.895"
   y="2.742"
   fill="#896306"
   width="1.482"
   height="1.491"
   id="rect66" />
		<rect
   x="97.092"
   y="2.742"
   fill="#896306"
   width="1.48"
   height="1.491"
   id="rect68" />
	</g>
	<linearGradient
   id="SVGID_1_"
   gradientUnits="userSpaceOnUse"
   x1="12.5381"
   y1="46.0752"
   x2="36.8666"
   y2="-23.6936">
		<stop
   offset="0"
   style="stop-color:#FFFFFF;stop-opacity:0"
   id="stop72" />
		<stop
   offset="1"
   style="stop-color:#FFFFFF"
   id="stop74" />
		<a:midPointStop
   offset="0"
   style="stop-color:#FFFFFF;stop-opacity:0" />
		<a:midPointStop
   offset="0.5"
   style="stop-color:#FFFFFF;stop-opacity:0" />
		<a:midPointStop
   offset="1"
   style="stop-color:#FFFFFF" />
	</linearGradient>
	<polygon
   fill="url(#SVGID_1_)"
   points="17.197,51.283 8.723,51.283 8.723,0.5 48.139,0.5  "
   id="polygon77" />
	<g
   id="g83">
		<rect
   x="0.5"
   y="16.594"
   fill="#8E6706"
   width="8.223"
   height="19.812"
   id="rect79" />
		<path
   fill="#231F20"
   d="M9.223,36.906H0V16.094h9.223V36.906z M1,35.906h7.223V17.094H1V35.906z"
   id="path81" />
	</g>
	<g
   id="g89">
		<rect
   x="2.725"
   y="21.071"
   fill="#F0BD00"
   width="1.482"
   height="10.818"
   id="rect85" />
		<path
   fill="#231F20"
   d="M4.707,32.39H2.225V20.571h2.482V32.39z M3.225,31.39h0.482v-9.818H3.225V31.39z"
   id="path87" />
	</g>
	<rect
   x="4.531"
   y="20.695"
   fill="#231F20"
   width="1.482"
   height="11.556"
   id="rect91" />
</g>
</svg>
