<?xml version="1.0" encoding="UTF-8" standalone="no"?>
<svg
   xmlns:dc="http://purl.org/dc/elements/1.1/"
   xmlns:cc="http://creativecommons.org/ns#"
   xmlns:rdf="http://www.w3.org/1999/02/22-rdf-syntax-ns#"
   xmlns:svg="http://www.w3.org/2000/svg"
   xmlns="http://www.w3.org/2000/svg"
   xmlns:sodipodi="http://sodipodi.sourceforge.net/DTD/sodipodi-0.dtd"
   xmlns:inkscape="http://www.inkscape.org/namespaces/inkscape"
   version="1.1"
   id="图层_1"
   x="0px"
   y="0px"
   width="65px"
   height="65px"
   viewBox="0 0 65 65"
   enable-background="new 0 0 65 65"
   xml:space="preserve"
   sodipodi:docname="排风机_05-01.svg"><metadata
   id="metadata55"><rdf:RDF><cc:Work
       rdf:about=""><dc:format>image/svg+xml</dc:format><dc:type
         rdf:resource="http://purl.org/dc/dcmitype/StillImage" /></cc:Work></rdf:RDF></metadata><defs
   id="defs53" /><sodipodi:namedview
   pagecolor="#ffffff"
   bordercolor="#666666"
   borderopacity="1"
   objecttolerance="10"
   gridtolerance="10"
   guidetolerance="10"
   inkscape:pageopacity="0"
   inkscape:pageshadow="2"
   inkscape:window-width="640"
   inkscape:window-height="480"
   id="namedview51" />
<g
   id="g48">
	<path
   fill="#167272"
   d="M65,60.332C65,62.91,62.91,65,60.332,65H5.736c-2.578,0-4.668-2.09-4.668-4.668V5.736   c0-2.578,2.09-4.668,4.668-4.668h54.596C62.91,1.068,65,3.158,65,5.736V60.332z"
   id="path2" />
	<path
   fill="#1B8E99"
   d="M63.932,59.264c0,2.578-2.09,4.669-4.668,4.669H4.668C2.089,63.933,0,61.842,0,59.264V4.669   C0,2.09,2.089,0,4.668,0h54.595c2.578,0,4.668,2.09,4.668,4.669V59.264z"
   id="path4" />
	<g
   id="g14">
		<circle
   fill="#B2B2B2"
   cx="8.643"
   cy="8.56"
   r="3.167"
   id="circle6" />
		<circle
   fill="#B2B2B2"
   cx="56.491"
   cy="8.56"
   r="3.167"
   id="circle8" />
		<circle
   fill="#B2B2B2"
   cx="8.643"
   cy="56.574"
   r="3.167"
   id="circle10" />
		<circle
   fill="#B2B2B2"
   cx="56.491"
   cy="56.574"
   r="3.167"
   id="circle12" />
	</g>
	<g
   id="g24">
		<circle
   fill="#E5E5E5"
   cx="8.042"
   cy="7.959"
   r="3.168"
   id="circle16" />
		<circle
   fill="#E5E5E5"
   cx="55.891"
   cy="7.959"
   r="3.168"
   id="circle18" />
		<circle
   fill="#E5E5E5"
   cx="8.042"
   cy="55.975"
   r="3.168"
   id="circle20" />
		<circle
   fill="#E5E5E5"
   cx="55.891"
   cy="55.975"
   r="3.168"
   id="circle22" />
	</g>
	<circle
   fill="#FFFFFF"
   cx="31.967"
   cy="31.966"
   r="24.508"
   id="circle26" />
	<circle
   fill="#E5E5E5"
   cx="31.967"
   cy="31.966"
   r="23"
   id="circle28" />
	<path
   fill="#1B8E99"
   d="M30.525,10.793c0,0,5.95-0.556,10.508,2.111c0,0.89,1.273,12.171-9.008,19.062   c-0.576-0.576-1.259-2.908-1.514-7.933C30.324,20.331,30.477,14.329,30.525,10.793z"
   id="path30" />
	<path
   fill="#1B8E99"
   d="M12.939,22.679c0,0,2.492-5.431,7.082-8.044c0.77,0.444,11.177,4.982,12.004,17.332   c-0.787,0.21-3.148-0.365-7.627-2.656C21.097,27.622,15.977,24.488,12.939,22.679z"
   id="path32" />
	<path
   fill="#1B8E99"
   d="M14.439,43.853c0,0-3.457-4.874-3.426-10.155c0.771-0.445,9.903-7.189,21.012-1.73   c-0.211,0.786-1.891,2.545-6.113,5.277C22.799,39.258,17.525,42.125,14.439,43.853z"
   id="path34" />
	<path
   fill="#1B8E99"
   d="M33.525,53.14c0,0-5.95,0.557-10.508-2.11c0-0.891-1.273-12.172,9.008-19.063   c0.576,0.576,1.259,2.909,1.514,7.934C33.727,43.602,33.572,49.604,33.525,53.14z"
   id="path36" />
	<path
   fill="#1B8E99"
   d="M51.111,41.254c0,0-2.492,5.432-7.082,8.045c-0.77-0.445-11.177-4.982-12.004-17.332   c0.787-0.211,3.149,0.364,7.627,2.656C42.953,36.311,48.074,39.445,51.111,41.254z"
   id="path38" />
	<path
   fill="#1B8E99"
   d="M49.611,20.081c0,0,3.457,4.874,3.426,10.155c-0.771,0.444-9.904,7.189-21.012,1.73   c0.211-0.786,1.889-2.545,6.114-5.278C41.25,24.675,46.525,21.807,49.611,20.081z"
   id="path40" />
	<g
   id="g46">
		<circle
   fill="#FFFFFF"
   cx="31.967"
   cy="31.966"
   r="8.453"
   id="circle42" />
		<circle
   fill="#1B8E99"
   cx="31.966"
   cy="31.966"
   r="5.341"
   id="circle44" />
	</g>
</g>
</svg>
