<?xml version="1.0" encoding="UTF-8" standalone="no"?>
<svg
   xmlns:a="http://ns.adobe.com/AdobeSVGViewerExtensions/3.0/"
   xmlns:dc="http://purl.org/dc/elements/1.1/"
   xmlns:cc="http://creativecommons.org/ns#"
   xmlns:rdf="http://www.w3.org/1999/02/22-rdf-syntax-ns#"
   xmlns:svg="http://www.w3.org/2000/svg"
   xmlns="http://www.w3.org/2000/svg"
   xmlns:sodipodi="http://sodipodi.sourceforge.net/DTD/sodipodi-0.dtd"
   xmlns:inkscape="http://www.inkscape.org/namespaces/inkscape"
   version="1.1"
   id="图层_1"
   x="0px"
   y="0px"
   width="76px"
   height="87px"
   viewBox="0 0 76 87"
   enable-background="new 0 0 76 87"
   xml:space="preserve"
   sodipodi:docname="排风机_51-01.svg"><metadata
   id="metadata143"><rdf:RDF><cc:Work
       rdf:about=""><dc:format>image/svg+xml</dc:format><dc:type
         rdf:resource="http://purl.org/dc/dcmitype/StillImage" /></cc:Work></rdf:RDF></metadata><defs
   id="defs141" /><sodipodi:namedview
   pagecolor="#ffffff"
   bordercolor="#666666"
   borderopacity="1"
   objecttolerance="10"
   gridtolerance="10"
   guidetolerance="10"
   inkscape:pageopacity="0"
   inkscape:pageshadow="2"
   inkscape:window-width="640"
   inkscape:window-height="480"
   id="namedview139" />
<g
   id="g136">
	<g
   id="g6">
		<rect
   x="28.101"
   y="9.388"
   fill="#7F7F7F"
   width="4.534"
   height="8.436"
   id="rect2" />
		<path
   fill="#231F20"
   d="M33.135,18.323h-5.534V8.888h5.534V18.323z M28.601,17.323h3.534V9.888h-3.534V17.323z"
   id="path4" />
	</g>
	<g
   id="g19">
		<linearGradient
   id="SVGID_1_"
   gradientUnits="userSpaceOnUse"
   x1="28.7134"
   y1="18.519"
   x2="28.7134"
   y2="49.9765">
			<stop
   offset="0"
   style="stop-color:#404040"
   id="stop8" />
			<stop
   offset="0.5"
   style="stop-color:#FFFFFF"
   id="stop10" />
			<stop
   offset="1"
   style="stop-color:#404040"
   id="stop12" />
			<a:midPointStop
   offset="0"
   style="stop-color:#404040" />
			<a:midPointStop
   offset="0.5"
   style="stop-color:#404040" />
			<a:midPointStop
   offset="0.5"
   style="stop-color:#FFFFFF" />
			<a:midPointStop
   offset="0.5"
   style="stop-color:#FFFFFF" />
			<a:midPointStop
   offset="1"
   style="stop-color:#404040" />
		</linearGradient>
		<rect
   x="0.5"
   y="16.226"
   fill="url(#SVGID_1_)"
   width="56.427"
   height="37.347"
   id="rect15" />
		<path
   fill="#231F20"
   d="M57.427,54.072H0V15.726h57.427V54.072z M1,53.072h55.427V16.726H1V53.072z"
   id="path17" />
	</g>
	<g
   id="g32">
		<linearGradient
   id="SVGID_2_"
   gradientUnits="userSpaceOnUse"
   x1="66.2129"
   y1="3.1211"
   x2="66.2129"
   y2="67.0061">
			<stop
   offset="0"
   style="stop-color:#404040"
   id="stop21" />
			<stop
   offset="0.5"
   style="stop-color:#FFFFFF"
   id="stop23" />
			<stop
   offset="1"
   style="stop-color:#404040"
   id="stop25" />
			<a:midPointStop
   offset="0"
   style="stop-color:#404040" />
			<a:midPointStop
   offset="0.5"
   style="stop-color:#404040" />
			<a:midPointStop
   offset="0.5"
   style="stop-color:#FFFFFF" />
			<a:midPointStop
   offset="0.5"
   style="stop-color:#FFFFFF" />
			<a:midPointStop
   offset="1"
   style="stop-color:#404040" />
		</linearGradient>
		<rect
   x="56.927"
   y="0.5"
   fill="url(#SVGID_2_)"
   width="18.572"
   height="68.799"
   id="rect28" />
		<path
   fill="#231F20"
   d="M75.999,69.799H56.427V0h19.572V69.799z M57.427,68.799h17.572V1H57.427V68.799z"
   id="path30" />
	</g>
	<g
   id="g38">
		<rect
   x="56.927"
   y="0.5"
   fill="#808080"
   width="4.887"
   height="68.799"
   id="rect34" />
		<path
   fill="#231F20"
   d="M62.313,69.799h-5.887V0h5.887V69.799z M57.427,68.799h3.887V1h-3.887V68.799z"
   id="path36" />
	</g>
	<rect
   x="56.927"
   y="3.142"
   fill="#231F20"
   width="7.182"
   height="1"
   id="rect40" />
	<rect
   x="56.927"
   y="7.327"
   fill="#231F20"
   width="7.182"
   height="1"
   id="rect42" />
	<rect
   x="56.927"
   y="11.513"
   fill="#231F20"
   width="7.182"
   height="1"
   id="rect44" />
	<rect
   x="56.927"
   y="15.698"
   fill="#231F20"
   width="7.182"
   height="1"
   id="rect46" />
	<rect
   x="56.927"
   y="19.882"
   fill="#231F20"
   width="7.182"
   height="1"
   id="rect48" />
	<rect
   x="56.927"
   y="24.068"
   fill="#231F20"
   width="7.182"
   height="1"
   id="rect50" />
	<rect
   x="56.927"
   y="28.254"
   fill="#231F20"
   width="7.182"
   height="1"
   id="rect52" />
	<rect
   x="56.927"
   y="32.439"
   fill="#231F20"
   width="7.182"
   height="1"
   id="rect54" />
	<rect
   x="56.927"
   y="36.623"
   fill="#231F20"
   width="7.182"
   height="1"
   id="rect56" />
	<rect
   x="56.927"
   y="40.81"
   fill="#231F20"
   width="7.182"
   height="1"
   id="rect58" />
	<rect
   x="56.927"
   y="44.995"
   fill="#231F20"
   width="7.182"
   height="1"
   id="rect60" />
	<rect
   x="56.927"
   y="49.18"
   fill="#231F20"
   width="7.182"
   height="1"
   id="rect62" />
	<rect
   x="56.927"
   y="53.363"
   fill="#231F20"
   width="7.182"
   height="1"
   id="rect64" />
	<rect
   x="56.927"
   y="57.549"
   fill="#231F20"
   width="7.182"
   height="1"
   id="rect66" />
	<rect
   x="56.927"
   y="61.734"
   fill="#231F20"
   width="7.182"
   height="1"
   id="rect68" />
	<rect
   x="56.927"
   y="65.922"
   fill="#231F20"
   width="7.182"
   height="1"
   id="rect70" />
	<g
   id="g76">
		<polygon
   fill="#7F7F7F"
   points="51.161,62.666 9.573,62.666 15.425,53.572 45.312,53.572   "
   id="polygon72" />
		<path
   fill="#231F20"
   d="M52.077,63.166H8.657l6.494-10.094h30.434L52.077,63.166z M10.49,62.166h39.755l-5.207-8.094H15.697    L10.49,62.166z"
   id="path74" />
	</g>
	<g
   id="g82">
		<rect
   x="9.573"
   y="62.666"
   fill="#B2B2B2"
   width="41.588"
   height="3.115"
   id="rect78" />
		<path
   fill="#231F20"
   d="M51.661,66.281H9.073v-4.115h42.588V66.281z M10.073,65.281h40.588v-2.115H10.073V65.281z"
   id="path80" />
	</g>
	<g
   id="g88">
		<rect
   x="5.343"
   y="65.781"
   fill="#7F7F7F"
   width="50.051"
   height="20.719"
   id="rect84" />
		<path
   fill="#231F20"
   d="M55.894,87H4.843V65.281h51.051V87z M5.843,86h49.051V66.281H5.843V86z"
   id="path86" />
	</g>
	<g
   id="g94">
		<rect
   x="2.645"
   y="69.299"
   fill="#7F7F7F"
   width="2.698"
   height="13.682"
   id="rect90" />
		<path
   fill="#231F20"
   d="M5.843,83.48H2.145V68.799h3.698V83.48z M3.145,82.48h1.698V69.799H3.145V82.48z"
   id="path92" />
	</g>
	<rect
   x="12.265"
   y="13.604"
   fill="#231F20"
   width="37.57"
   height="5.964"
   id="rect96" />
	<g
   id="g102">
		<rect
   x="12.265"
   y="21.759"
   fill="#B2B2B2"
   width="37.57"
   height="2.81"
   id="rect98" />
		<path
   fill="#231F20"
   d="M50.335,25.068h-38.57v-3.81h38.57V25.068z M12.765,24.068h36.57v-1.81h-36.57V24.068z"
   id="path100" />
	</g>
	<rect
   x="12.265"
   y="26.255"
   fill="#231F20"
   width="37.57"
   height="2.187"
   id="rect104" />
	<g
   id="g110">
		<rect
   x="12.265"
   y="30.128"
   fill="#B2B2B2"
   width="37.57"
   height="2.812"
   id="rect106" />
		<path
   fill="#231F20"
   d="M50.335,33.439h-38.57v-3.812h38.57V33.439z M12.765,32.439h36.57v-1.812h-36.57V32.439z"
   id="path108" />
	</g>
	<rect
   x="12.265"
   y="34.314"
   fill="#231F20"
   width="37.57"
   height="2.809"
   id="rect112" />
	<g
   id="g118">
		<rect
   x="12.265"
   y="38.5"
   fill="#B2B2B2"
   width="37.57"
   height="2.81"
   id="rect114" />
		<path
   fill="#231F20"
   d="M50.335,41.81h-38.57V38h38.57V41.81z M12.765,40.81h36.57V39h-36.57V40.81z"
   id="path116" />
	</g>
	<rect
   x="12.265"
   y="42.996"
   fill="#231F20"
   width="37.57"
   height="2.187"
   id="rect120" />
	<rect
   x="12.265"
   y="48.359"
   fill="#231F20"
   width="37.57"
   height="4.859"
   id="rect122" />
	<g
   id="g128">
		<polygon
   fill="#B2B2B2"
   points="39.544,62.666 21.192,62.666 23.773,51.729 36.962,51.729   "
   id="polygon124" />
		<path
   fill="#231F20"
   d="M40.175,63.166H20.561l2.817-11.938h13.979L40.175,63.166z M21.824,62.166h17.087l-2.346-9.938H24.169    L21.824,62.166z"
   id="path126" />
	</g>
	<g
   id="g134">
		<ellipse
   fill="#7F7F7F"
   cx="30.367"
   cy="6.812"
   rx="4.89"
   ry="3.796"
   id="ellipse130" />
		<path
   fill="#231F20"
   d="M30.366,11.107c-2.971,0-5.389-1.927-5.389-4.296c0-2.368,2.418-4.295,5.389-4.295    c2.973,0,5.391,1.927,5.391,4.295C35.757,9.181,33.339,11.107,30.366,11.107z M30.366,3.517c-2.42,0-4.389,1.479-4.389,3.295    c0,1.817,1.969,3.296,4.389,3.296c2.422,0,4.391-1.479,4.391-3.296C34.757,4.995,32.788,3.517,30.366,3.517z"
   id="path132" />
	</g>
</g>
</svg>
