<?xml version="1.0" encoding="UTF-8" standalone="no"?>
<svg
   xmlns:dc="http://purl.org/dc/elements/1.1/"
   xmlns:cc="http://creativecommons.org/ns#"
   xmlns:rdf="http://www.w3.org/1999/02/22-rdf-syntax-ns#"
   xmlns:svg="http://www.w3.org/2000/svg"
   xmlns="http://www.w3.org/2000/svg"
   xmlns:sodipodi="http://sodipodi.sourceforge.net/DTD/sodipodi-0.dtd"
   xmlns:inkscape="http://www.inkscape.org/namespaces/inkscape"
   version="1.1"
   id="图层_1"
   x="0px"
   y="0px"
   width="65px"
   height="65px"
   viewBox="0 0 65 65"
   enable-background="new 0 0 65 65"
   xml:space="preserve"
   sodipodi:docname="排风机_07-01.svg"><metadata
   id="metadata57"><rdf:RDF><cc:Work
       rdf:about=""><dc:format>image/svg+xml</dc:format><dc:type
         rdf:resource="http://purl.org/dc/dcmitype/StillImage" /></cc:Work></rdf:RDF></metadata><defs
   id="defs55" /><sodipodi:namedview
   pagecolor="#ffffff"
   bordercolor="#666666"
   borderopacity="1"
   objecttolerance="10"
   gridtolerance="10"
   guidetolerance="10"
   inkscape:pageopacity="0"
   inkscape:pageshadow="2"
   inkscape:window-width="640"
   inkscape:window-height="480"
   id="namedview53" />
<g
   id="g50">
	<path
   fill="#167272"
   d="M65,60.332C65,62.91,62.908,65,60.332,65H5.735c-2.578,0-4.668-2.09-4.668-4.668V5.736   c0-2.578,2.09-4.668,4.668-4.668h54.597c2.576,0,4.668,2.09,4.668,4.668V60.332z"
   id="path2" />
	<path
   fill="#1B8E99"
   d="M63.932,59.264c0,2.578-2.092,4.669-4.668,4.669H4.667C2.089,63.933,0,61.842,0,59.264V4.669   C0,2.09,2.089,0,4.667,0h54.596c2.576,0,4.668,2.09,4.668,4.669V59.264z"
   id="path4" />
	<g
   id="g14">
		<circle
   fill="#B2B2B2"
   cx="8.643"
   cy="8.56"
   r="3.167"
   id="circle6" />
		<circle
   fill="#B2B2B2"
   cx="56.49"
   cy="8.56"
   r="3.168"
   id="circle8" />
		<circle
   fill="#B2B2B2"
   cx="8.643"
   cy="56.574"
   r="3.167"
   id="circle10" />
		<circle
   fill="#B2B2B2"
   cx="56.49"
   cy="56.574"
   r="3.168"
   id="circle12" />
	</g>
	<g
   id="g24">
		<circle
   fill="#E5E5E5"
   cx="8.042"
   cy="7.959"
   r="3.168"
   id="circle16" />
		<circle
   fill="#E5E5E5"
   cx="55.89"
   cy="7.959"
   r="3.167"
   id="circle18" />
		<circle
   fill="#E5E5E5"
   cx="8.042"
   cy="55.975"
   r="3.168"
   id="circle20" />
		<circle
   fill="#E5E5E5"
   cx="55.89"
   cy="55.975"
   r="3.167"
   id="circle22" />
	</g>
	<circle
   fill="#FFFFFF"
   cx="31.965"
   cy="31.966"
   r="24.508"
   id="circle26" />
	<circle
   fill="#E5E5E5"
   cx="31.965"
   cy="31.966"
   r="23"
   id="circle28" />
	<g
   id="g48">
		<path
   fill="#1B8E99"
   d="M20.129,14.35c0,0,4.876-3.456,10.157-3.425c0.444,0.771,7.188,9.903,1.73,21.012    c-0.787-0.211-2.545-1.891-5.278-6.113C24.725,22.711,21.858,17.437,20.129,14.35z"
   id="path30" />
		<path
   fill="#1B8E99"
   d="M10.843,33.438c0,0-0.556-5.951,2.111-10.508c0.89,0,12.171-1.274,19.063,9.007    c-0.577,0.576-2.909,1.259-7.935,1.514C20.381,33.639,14.379,33.484,10.843,33.438z"
   id="path32" />
		<path
   fill="#1B8E99"
   d="M22.729,51.023c0,0-5.432-2.494-8.044-7.082c0.444-0.771,4.982-11.178,17.332-12.005    c0.21,0.787-0.365,3.149-2.657,7.628C27.672,42.864,24.539,47.985,22.729,51.023z"
   id="path34" />
		<path
   fill="#1B8E99"
   d="M43.902,49.523c0,0-4.875,3.457-10.156,3.426c-0.444-0.771-7.188-9.904-1.729-21.013    c0.785,0.211,2.543,1.89,5.276,6.114C39.309,41.162,42.176,46.438,43.902,49.523z"
   id="path36" />
		<path
   fill="#1B8E99"
   d="M53.189,30.437c0,0,0.557,5.95-2.111,10.509c-0.889-0.001-12.172,1.273-19.061-9.009    c0.575-0.575,2.909-1.259,7.934-1.513C43.652,30.235,49.652,30.389,53.189,30.437z"
   id="path38" />
		<path
   fill="#1B8E99"
   d="M41.303,12.851c0,0,5.434,2.492,8.045,7.082c-0.445,0.771-4.982,11.178-17.331,12.004    c-0.21-0.786,0.364-3.148,2.655-7.627C36.359,21.01,39.496,15.889,41.303,12.851z"
   id="path40" />
		<g
   id="g46">
			<circle
   fill="#FFFFFF"
   cx="31.965"
   cy="31.966"
   r="8.453"
   id="circle42" />
			<circle
   fill="#1B8E99"
   cx="31.965"
   cy="31.966"
   r="5.34"
   id="circle44" />
		</g>
	</g>
</g>
</svg>
