<?xml version="1.0" encoding="UTF-8" standalone="no"?>
<svg
   xmlns:dc="http://purl.org/dc/elements/1.1/"
   xmlns:cc="http://creativecommons.org/ns#"
   xmlns:rdf="http://www.w3.org/1999/02/22-rdf-syntax-ns#"
   xmlns:svg="http://www.w3.org/2000/svg"
   xmlns="http://www.w3.org/2000/svg"
   xmlns:sodipodi="http://sodipodi.sourceforge.net/DTD/sodipodi-0.dtd"
   xmlns:inkscape="http://www.inkscape.org/namespaces/inkscape"
   version="1.1"
   id="图层_1"
   x="0px"
   y="0px"
   width="65px"
   height="65px"
   viewBox="0 0 65 65"
   enable-background="new 0 0 65 65"
   xml:space="preserve"
   sodipodi:docname="排风机_08-01.svg"><metadata
   id="metadata57"><rdf:RDF><cc:Work
       rdf:about=""><dc:format>image/svg+xml</dc:format><dc:type
         rdf:resource="http://purl.org/dc/dcmitype/StillImage" /></cc:Work></rdf:RDF></metadata><defs
   id="defs55" /><sodipodi:namedview
   pagecolor="#ffffff"
   bordercolor="#666666"
   borderopacity="1"
   objecttolerance="10"
   gridtolerance="10"
   guidetolerance="10"
   inkscape:pageopacity="0"
   inkscape:pageshadow="2"
   inkscape:window-width="640"
   inkscape:window-height="480"
   id="namedview53" />
<g
   id="g50">
	<path
   fill="#167272"
   d="M65,60.332C65,62.91,62.909,65,60.331,65H5.735c-2.578,0-4.668-2.09-4.668-4.668V5.736   c0-2.578,2.09-4.668,4.668-4.668h54.596c2.578,0,4.669,2.09,4.669,4.668V60.332z"
   id="path2" />
	<path
   fill="#1B8E99"
   d="M63.933,59.264c0,2.578-2.092,4.669-4.669,4.669H4.668C2.09,63.933,0,61.842,0,59.264V4.669   C0,2.09,2.09,0,4.668,0h54.596c2.577,0,4.669,2.09,4.669,4.669V59.264z"
   id="path4" />
	<g
   id="g14">
		<circle
   fill="#B2B2B2"
   cx="8.643"
   cy="8.56"
   r="3.168"
   id="circle6" />
		<circle
   fill="#B2B2B2"
   cx="56.49"
   cy="8.56"
   r="3.168"
   id="circle8" />
		<circle
   fill="#B2B2B2"
   cx="8.643"
   cy="56.574"
   r="3.168"
   id="circle10" />
		<circle
   fill="#B2B2B2"
   cx="56.49"
   cy="56.574"
   r="3.168"
   id="circle12" />
	</g>
	<g
   id="g24">
		<circle
   fill="#E5E5E5"
   cx="8.042"
   cy="7.959"
   r="3.168"
   id="circle16" />
		<circle
   fill="#E5E5E5"
   cx="55.89"
   cy="7.959"
   r="3.168"
   id="circle18" />
		<circle
   fill="#E5E5E5"
   cx="8.042"
   cy="55.975"
   r="3.168"
   id="circle20" />
		<circle
   fill="#E5E5E5"
   cx="55.89"
   cy="55.975"
   r="3.168"
   id="circle22" />
	</g>
	<circle
   fill="#FFFFFF"
   cx="31.966"
   cy="31.966"
   r="24.508"
   id="circle26" />
	<circle
   fill="#E5E5E5"
   cx="31.966"
   cy="31.966"
   r="23"
   id="circle28" />
	<g
   id="g48">
		<path
   fill="#1B8E99"
   d="M15.975,18.014c0,0,3.814-4.601,8.923-5.938c0.629,0.629,9.507,7.705,7.109,19.848    c-0.813,0-2.948-1.166-6.68-4.539C22.577,24.9,18.441,20.548,15.975,18.014z"
   id="path30" />
		<path
   fill="#1B8E99"
   d="M11.943,38.854c0,0-2.077-5.604-0.68-10.697c0.86-0.229,11.427-4.38,20.744,3.768    c-0.409,0.705-2.484,1.969-7.271,3.515C21.208,36.58,15.371,37.985,11.943,38.854z"
   id="path32" />
		<path
   fill="#1B8E99"
   d="M27.976,52.766c0,0-5.892-1.004-9.603-4.76c0.23-0.859,1.92-12.086,13.635-16.081    c0.407,0.705,0.463,3.136-0.593,8.056C30.64,43.604,28.938,49.361,27.976,52.766z"
   id="path34" />
		<path
   fill="#1B8E99"
   d="M48.04,45.836c0,0-3.814,4.6-8.923,5.937c-0.629-0.628-9.507-7.706-7.109-19.848    c0.813,0,2.945,1.166,6.68,4.54C41.438,38.949,45.573,43.301,48.04,45.836z"
   id="path36" />
		<path
   fill="#1B8E99"
   d="M52.07,24.995c0,0,2.078,5.604,0.681,10.696c-0.86,0.23-11.428,4.381-20.743-3.767    c0.407-0.705,2.483-1.969,7.271-3.516C42.806,27.27,48.644,25.864,52.07,24.995z"
   id="path38" />
		<path
   fill="#1B8E99"
   d="M36.037,11.085c0,0,5.893,1.002,9.604,4.759c-0.23,0.859-1.92,12.086-13.634,16.081    c-0.407-0.706-0.464-3.136,0.591-8.055C33.375,20.245,35.077,14.487,36.037,11.085z"
   id="path40" />
		<g
   id="g46">
			<circle
   fill="#FFFFFF"
   cx="31.966"
   cy="31.966"
   r="8.452"
   id="circle42" />
			<circle
   fill="#1B8E99"
   cx="31.965"
   cy="31.966"
   r="5.341"
   id="circle44" />
		</g>
	</g>
</g>
</svg>
